<svg xmlns="http://www.w3.org/2000/svg" xmlns:xlink="http://www.w3.org/1999/xlink" width="1704.746" height="766.418" viewBox="0 0 1704.746 766.418">
  <defs>
    <filter id="Path_12000" x="0" y="0.307" width="1451.707" height="629.735" filterUnits="userSpaceOnUse">
      <feOffset dy="3" input="SourceAlpha"/>
      <feGaussianBlur stdDeviation="3" result="blur"/>
      <feFlood flood-opacity="0.161"/>
      <feComposite operator="in" in2="blur"/>
      <feComposite in="SourceGraphic"/>
    </filter>
    <filter id="Path_12001" x="0" y="0" width="802.668" height="270.788" filterUnits="userSpaceOnUse">
      <feOffset dy="3" input="SourceAlpha"/>
      <feGaussianBlur stdDeviation="3" result="blur-2"/>
      <feFlood flood-opacity="0.161"/>
      <feComposite operator="in" in2="blur-2"/>
      <feComposite in="SourceGraphic"/>
    </filter>
  </defs>
  <path id="Path_11999" data-name="Path 11999" d="M15.029,8.164S1042.765,8.044,1442.13,8s232.314,0,232.314,0h36.014s-382.723,420.7-793.4,641.49-902.026,66.7-902.026,66.7Z" transform="translate(-5.712 -2.077)" fill="#181c3a"/>
  <g transform="matrix(1, 0, 0, 1, 0, 0)" filter="url(#Path_12000)">
    <path id="Path_12000-2" data-name="Path 12000" d="M79.212,137.511l1433.707,5.456h0S1276.043,405.4,873.216,625.215s-793.7,80.5-793.7,80.5Z" transform="translate(-70.21 -131.2)" fill="#24284a" opacity="0.23"/>
  </g>
  <g transform="matrix(1, 0, 0, 1, 0, 0)" filter="url(#Path_12001)">
    <path id="Path_12001-2" data-name="Path 12001" d="M262.984,510.873,1042,512.118h0c-2.093-2.145,58.17-13.027-171.385,114.785C470,849.96,263.3,733.03,263.3,733.03Z" transform="translate(-253.98 -504.87)" fill="#24284a" opacity="0.23"/>
  </g>
</svg>
