<svg xmlns="http://www.w3.org/2000/svg" width="553.722" height="674.792" viewBox="0 0 553.722 674.792">
  <g id="Online-bro_1_" data-name="Online-bro(1)" transform="translate(-84.288 -63.415)">
    <g id="freepik--Floor--inject-11" transform="translate(114.569 675.261)">
      <ellipse id="Ellipse_105" data-name="Ellipse 105" cx="251.562" cy="31.411" rx="251.562" ry="31.411" fill="none" stroke="#161a37" stroke-miterlimit="10" stroke-width="0.25"/>
      <ellipse id="Ellipse_106" data-name="Ellipse 106" cx="205.755" cy="27.074" rx="205.755" ry="27.074" transform="translate(45.806 1.231)" fill="none" stroke="#161a37" stroke-miterlimit="10" stroke-width="0.5"/>
      <ellipse id="Ellipse_107" data-name="Ellipse 107" cx="158.943" cy="20.917" rx="158.943" ry="20.917" transform="translate(92.619 7.389)" fill="none" stroke="#161a37" stroke-miterlimit="10" stroke-width="1"/>
      <ellipse id="Ellipse_108" data-name="Ellipse 108" cx="130.499" cy="13.702" rx="130.499" ry="13.702" transform="translate(122.832 13.91)" fill="#7a6cff"/>
      <ellipse id="Ellipse_109" data-name="Ellipse 109" cx="130.499" cy="13.702" rx="130.499" ry="13.702" transform="translate(122.832 13.91)" fill="#fff" opacity="0.62"/>
    </g>
    <g id="freepik--Lines--inject-11" transform="translate(101.734 63.415)">
      <circle id="Ellipse_110" data-name="Ellipse 110" cx="235.067" cy="235.067" r="235.067" transform="translate(29.364 36.83)" fill="none" stroke="#263238" stroke-linecap="round" stroke-linejoin="round" stroke-width="1" stroke-dasharray="2 3"/>
      <path id="Path_11687" data-name="Path 11687" d="M248.573,543.681c-36.093,0-66.116-11.118-87.623-32.625-63.55-63.55-31.081-199.46,72.343-302.832,50.09-50.073,109.148-85.2,166.3-98.863s105.8-4.284,136.534,26.519c26.728,26.745,37.55,68.024,30.457,116.207l-.85-.121c7.042-47.94-3.694-88.959-30.231-115.5-30.578-30.6-78.778-39.892-135.7-26.294s-115.912,48.668-165.881,98.637c-103.112,103.112-135.563,238.415-72.36,301.6,25.167,25.167,62.11,35.989,106.841,31.306l.087.867a192.044,192.044,0,0,1-19.911,1.093Z" transform="translate(-69.684 -34.166)" fill="#7a6cff"/>
      <path id="Path_11688" data-name="Path 11688" d="M441.389,509.925c-59.6,0-129.111-23.831-191.412-70.453-114.871-85.958-162.343-217.324-105.8-292.841C168.962,113.5,211.109,95.153,262.83,94.98v.867c-51.443.173-93.33,18.385-117.941,51.3C88.676,222.287,136.06,353.115,250.55,438.779s253.366,94.232,309.6,19.079c23.276-31.133,29.641-72.083,18.385-118.427l.85-.208c11.309,46.621,4.891,87.814-18.541,119.138C534.927,492.945,491.688,509.908,441.389,509.925Z" transform="translate(-75.633 -40.233)" fill="#7a6cff"/>
      <path id="Path_11689" data-name="Path 11689" d="M247.164,379.684a373.125,373.125,0,0,1-54.548-3.746c-53.767-8-87.259-27.89-94.058-56.022s13.875-61.1,58.121-92.792,106.615-58.26,175.8-74.979,136.9-21.542,190.614-13.563,87.277,27.872,94.076,56.022-13.875,61.087-58.121,92.775-106.6,58.242-175.8,74.962C335.845,373.787,289.137,379.684,247.164,379.684Zm221.469-243.93c-41,0-87.589,5.55-135.962,17.24-69.082,16.685-131.418,43.257-175.49,74.806S92.7,291.974,99.407,319.725s39.892,47.437,93.347,55.363,121.2,3.139,190.284-13.546l.1.416-.1-.416c142.518-34.428,247.174-109.269,233.281-166.7C607.145,156.827,548.486,135.754,468.633,135.754Z" transform="translate(-92.557 -10.971)" fill="#7a6cff"/>
      <path id="Path_11690" data-name="Path 11690" d="M242.779,598.737a45.315,45.315,0,0,1-10.407-1.231c-28.15-6.8-47.87-40.915-55.5-96.07S174.443,377.042,191.6,306.017,235.772,170.87,267.7,125.428s65.111-66.914,93.26-60.115,47.87,40.915,55.5,96.053,2.411,124.411-14.743,195.436-44.245,135.147-76.176,180.641C297.449,577.334,268.484,598.737,242.779,598.737ZM350.418,64.948c-55.918,0-124.879,103.528-158.111,241.277-35.244,146.23-17.31,276.538,40.187,290.43,27.751,6.712,60.566-14.517,92.341-59.768S383.685,427.5,400.821,356.506l.416.1-.416-.1c35.33-146.265,17.344-276.555-40.187-290.43a43.08,43.08,0,0,0-10.216-1.127Z" transform="translate(-36.625 -62.928)" fill="#7a6cff"/>
      <path id="Path_11691" data-name="Path 11691" d="M265.383,333.416a4.336,4.336,0,1,0,0-6.14A4.336,4.336,0,0,0,265.383,333.416Z" transform="translate(29.973 129.442)" fill="#7a6cff"/>
      <path id="Path_11692" data-name="Path 11692" d="M268.667,335.329a4.8,4.8,0,1,1,3.365-1.4A4.717,4.717,0,0,1,268.667,335.329Zm0-8.672a3.9,3.9,0,1,0,2.758,1.145A3.9,3.9,0,0,0,268.667,326.657Z" transform="translate(29.758 129.229)" fill="#7a6cff"/>
      <path id="Path_11693" data-name="Path 11693" d="M172.719,280.006a4.336,4.336,0,1,0-1.274-3.07,4.336,4.336,0,0,0,1.274,3.07Z" transform="translate(-38.093 90.216)" fill="#7a6cff"/>
      <path id="Path_11694" data-name="Path 11694" d="M175.949,281.9a4.735,4.735,0,0,1-3.365-1.474h0a4.752,4.752,0,1,1,3.365,1.4Zm0-8.672a3.9,3.9,0,0,0-2.758,6.66h0a3.989,3.989,0,0,0,5.515,0,3.9,3.9,0,0,0-2.758-6.66Z" transform="translate(-38.27 90.018)" fill="#7a6cff"/>
      <path id="Path_11695" data-name="Path 11695" d="M139.536,238.962a4.336,4.336,0,1,0,0-6.123A4.336,4.336,0,0,0,139.536,238.962Z" transform="translate(-62.458 60.079)" fill="#7a6cff"/>
      <path id="Path_11696" data-name="Path 11696" d="M142.779,240.85a4.77,4.77,0,1,1,3.365-1.388,4.77,4.77,0,0,1-3.365,1.388Zm0-8.672a1.606,1.606,0,1,1,0,.017Z" transform="translate(-62.649 59.891)" fill="#7a6cff"/>
      <path id="Path_11697" data-name="Path 11697" d="M122.652,199.306a4.319,4.319,0,1,0-1.281-3.07,4.336,4.336,0,0,0,1.281,3.07Z" transform="translate(-74.869 30.948)" fill="#7a6cff"/>
      <path id="Path_11698" data-name="Path 11698" d="M125.886,201.185a4.8,4.8,0,0,1-3.365-1.388h0a4.795,4.795,0,1,1,3.365,1.388Zm-2.758-1.995a3.9,3.9,0,1,0,0-5.515A3.9,3.9,0,0,0,123.128,199.19Z" transform="translate(-75.05 30.768)" fill="#7a6cff"/>
      <path id="Path_11699" data-name="Path 11699" d="M128.929,273.526a4.336,4.336,0,1,0-1.274-3.07,4.336,4.336,0,0,0,1.274,3.07Z" transform="translate(-70.254 85.457)" fill="#7a6cff"/>
      <path id="Path_11700" data-name="Path 11700" d="M132.181,275.409a4.8,4.8,0,0,1-3.382-1.387h0a4.784,4.784,0,1,1,3.382,1.388Zm0-8.672a3.9,3.9,0,0,0-2.758,6.66h0a3.989,3.989,0,0,0,5.515,0,3.9,3.9,0,0,0-2.758-6.66Z" transform="translate(-70.436 85.273)" fill="#7a6cff"/>
      <path id="Path_11701" data-name="Path 11701" d="M198.239,159.442a4.319,4.319,0,1,0-1.272-3.061A4.336,4.336,0,0,0,198.239,159.442Z" transform="translate(-19.35 1.677)" fill="#7a6cff"/>
      <path id="Path_11702" data-name="Path 11702" d="M201.5,161.329a4.77,4.77,0,1,1,4.392-2.946A4.77,4.77,0,0,1,201.5,161.329Zm0-8.672a3.851,3.851,0,0,0-2.758,1.127,3.937,3.937,0,1,0,2.758-1.127Z" transform="translate(-19.538 1.489)" fill="#7a6cff"/>
      <path id="Path_11703" data-name="Path 11703" d="M309.179,107.8a4.319,4.319,0,1,0-1.272-3.061,4.336,4.336,0,0,0,1.272,3.061Z" transform="translate(62.128 -36.249)" fill="#7a6cff"/>
      <path id="Path_11704" data-name="Path 11704" d="M312.416,109.686a4.718,4.718,0,0,1-3.365-1.388h0a4.795,4.795,0,1,1,3.365,1.388Zm0-8.672a3.912,3.912,0,0,0-2.758,6.66h0a4.006,4.006,0,0,0,5.533,0,3.92,3.92,0,0,0,0-5.515A3.972,3.972,0,0,0,312.416,101.014Z" transform="translate(61.943 -36.433)" fill="#7a6cff"/>
      <path id="Path_11705" data-name="Path 11705" d="M313.889,140a4.319,4.319,0,1,0-1.272-3.061A4.336,4.336,0,0,0,313.889,140Z" transform="translate(65.587 -12.601)" fill="#7a6cff"/>
      <path id="Path_11706" data-name="Path 11706" d="M317.141,141.889a4.735,4.735,0,0,1-3.382-1.388h0a4.784,4.784,0,1,1,3.382,1.388Zm-2.758-2.012a3.989,3.989,0,0,0,5.515,0,3.867,3.867,0,0,0,1.145-2.758,3.937,3.937,0,0,0-1.145-2.758,3.989,3.989,0,0,0-5.515,0A3.9,3.9,0,0,0,314.383,139.877Z" transform="translate(65.405 -12.788)" fill="#7a6cff"/>
      <path id="Path_11707" data-name="Path 11707" d="M297.789,259.382a4.319,4.319,0,1,0-1.272-3.061A4.336,4.336,0,0,0,297.789,259.382Z" transform="translate(53.763 75.076)" fill="#7a6cff"/>
      <path id="Path_11708" data-name="Path 11708" d="M301.032,261.284a4.8,4.8,0,0,1-3.382-1.388h0a4.787,4.787,0,1,1,3.382,1.388Zm-2.758-1.995a3.9,3.9,0,1,0,0-5.533A3.9,3.9,0,0,0,298.274,259.29Z" transform="translate(53.555 74.874)" fill="#7a6cff"/>
      <path id="Path_11709" data-name="Path 11709" d="M187.236,360.892a4.336,4.336,0,1,0,0-6.123A4.336,4.336,0,0,0,187.236,360.892Z" transform="translate(-27.426 149.628)" fill="#7a6cff"/>
      <path id="Path_11710" data-name="Path 11710" d="M190.484,362.789a4.717,4.717,0,0,1-3.365-1.4h0a4.755,4.755,0,1,1,3.365,1.4Zm-2.758-2.012a3.9,3.9,0,1,0,5.515-5.515,3.989,3.989,0,0,0-5.515,0A3.9,3.9,0,0,0,187.726,360.777Z" transform="translate(-27.604 149.448)" fill="#7a6cff"/>
      <path id="Path_11711" data-name="Path 11711" d="M377.309,153.552a4.319,4.319,0,1,0-1.272-3.061,4.336,4.336,0,0,0,1.272,3.061Z" transform="translate(112.165 -2.649)" fill="#7a6cff"/>
      <path id="Path_11712" data-name="Path 11712" d="M380.607,155.453a4.735,4.735,0,0,1-3.469-1.388,4.787,4.787,0,1,1,6.747,0A4.717,4.717,0,0,1,380.607,155.453Zm0-8.672a3.9,3.9,0,0,0-2.758,6.66,3.989,3.989,0,0,0,5.516,0,3.9,3.9,0,0,0-2.758-6.66Z" transform="translate(111.936 -2.85)" fill="#7a6cff"/>
      <rect id="Rectangle_156" data-name="Rectangle 156" width="0.867" height="10.337" transform="matrix(0.99, -0.141, 0.141, 0.99, 205.45, 37.648)" fill="#7a6cff"/>
      <path id="Path_11713" data-name="Path 11713" d="M430.177,542.971a191.941,191.941,0,0,1-19.911-1.058l.087-.867c44.731,4.683,81.674-6.14,106.841-31.22,63.2-63.2,30.734-198.506-72.36-301.6-49.969-49.969-108.888-84.987-165.881-98.654s-105.124-4.284-135.719,26.294C116.7,162.4,105.977,203.509,113.019,251.379l-.85.121c-7.094-48.234,3.712-89.514,30.457-116.207,30.8-30.8,79.3-40.239,136.534-26.537s116.207,48.807,166.28,98.863C548.882,311.061,581.35,446.971,517.8,510.451,496.294,531.854,466.253,542.971,430.177,542.971Z" transform="translate(-83.187 -34.619)" fill="#7a6cff"/>
      <path id="Path_11714" data-name="Path 11714" d="M247.366,509.369c-52.033,0-94.058-18.09-119.173-51.651-23.449-31.341-29.85-72.534-18.541-119.138l.85.208c-11.256,46.344-4.908,87.294,18.385,118.41,27.213,36.423,74.39,54.444,132.823,50.854s121.375-28.427,176.773-69.95C552.956,352.438,600.358,221.61,544.128,146.474c-24.612-32.954-66.5-51.114-117.941-51.287V94.32c51.721.173,93.85,18.506,118.635,51.634,56.525,75.517,9.054,206.9-105.8,292.841-55.623,41.626-118.566,66.533-177.241,70.123Q254.46,509.352,247.366,509.369Z" transform="translate(-87.469 -40.718)" fill="#7a6cff"/>
      <path id="Path_11715" data-name="Path 11715" d="M465.832,379c-41.991,0-88.681-5.88-136.1-17.344-69.186-16.72-131.626-43.361-175.785-74.945s-64.92-64.642-58.121-92.792,40.2-48.044,94.058-56.022,121.41-3.139,190.631,13.563,131.643,43.361,175.8,74.962,64.9,64.642,58.1,92.775-40.2,48.044-94.058,56.022A372.649,372.649,0,0,1,465.832,379ZM244.484,135.038a373.512,373.512,0,0,0-54.409,3.729c-53.49,7.944-86.635,27.612-93.347,55.38s13.875,60.41,57.774,91.925,106.39,58.121,175.49,74.806c142.518,34.428,269.756,15.61,283.649-41.817,6.712-27.751-13.875-60.393-57.774-91.925S449.459,169.015,380.359,152.33C332.94,140.831,286.336,135.038,244.484,135.038Z" transform="translate(-94.56 -11.469)" fill="#7a6cff"/>
      <path id="Path_11716" data-name="Path 11716" d="M353.852,598.062c-25.687,0-54.652-21.333-82.767-61.329-31.913-45.459-58.971-109.6-76.107-180.606S172.6,215.637,180.253,160.708s27.4-89.254,55.5-96.053,61.26,14.535,93.26,60.1,58.971,109.581,76.107,180.606S427.5,445.848,419.847,500.777s-27.352,89.184-55.4,96.122A44.435,44.435,0,0,1,353.852,598.062ZM246.317,64.273a43.585,43.585,0,0,0-10.3,1.214c-27.751,6.712-47.263,40.568-54.877,95.394s-2.428,124.185,14.708,195.089,44.107,134.956,75.968,180.381,64.573,66.463,92.358,59.751c57.514-14,75.482-144.287,40.169-290.587-17.119-70.9-44.107-134.939-75.968-180.381C300.432,85.485,271.709,64.273,246.3,64.273Z" transform="translate(-34.145 -63.415)" fill="#7a6cff"/>
      <path id="Path_11717" data-name="Path 11717" d="M230.6,332.742a4.319,4.319,0,1,1,1.272-3.061,4.336,4.336,0,0,1-1.272,3.061Z" transform="translate(-0.091 128.954)" fill="#7a6cff"/>
      <path id="Path_11718" data-name="Path 11718" d="M227.731,334.643a4.783,4.783,0,1,1,3.365-1.388h0a4.77,4.77,0,0,1-3.365,1.388Zm0-8.672a3.9,3.9,0,1,0,3.6,2.41A3.9,3.9,0,0,0,227.731,325.971Z" transform="translate(-0.278 128.753)" fill="#7a6cff"/>
      <path id="Path_11719" data-name="Path 11719" d="M323.276,279.332a4.319,4.319,0,1,1,1.272-3.061,4.336,4.336,0,0,1-1.272,3.061Z" transform="translate(67.976 89.728)" fill="#7a6cff"/>
      <path id="Path_11720" data-name="Path 11720" d="M320.417,281.244a4.787,4.787,0,1,1,3.365-1.4h0a4.735,4.735,0,0,1-3.365,1.4Zm0-8.672a3.92,3.92,0,0,0-2.775,1.145,3.851,3.851,0,0,0-1.127,2.758,3.92,3.92,0,0,0,1.127,2.758,3.989,3.989,0,0,0,5.515,0h0a3.9,3.9,0,0,0,0-5.516,3.833,3.833,0,0,0-2.74-1.145Z" transform="translate(67.783 89.533)" fill="#7a6cff"/>
      <path id="Path_11721" data-name="Path 11721" d="M356.453,238.306a4.336,4.336,0,1,1,1.274-3.07,4.336,4.336,0,0,1-1.274,3.07Z" transform="translate(92.348 59.59)" fill="#7a6cff"/>
      <path id="Path_11722" data-name="Path 11722" d="M353.607,240.219a4.8,4.8,0,1,1,3.365-1.4h0a4.735,4.735,0,0,1-3.365,1.4Zm0-8.672a3.833,3.833,0,0,0-2.758,1.145,3.9,3.9,0,0,0,5.515,5.515h0a3.9,3.9,0,0,0,0-5.515A3.85,3.85,0,0,0,353.607,231.547Z" transform="translate(92.141 59.377)" fill="#7a6cff"/>
      <path id="Path_11723" data-name="Path 11723" d="M373.346,198.632a4.319,4.319,0,1,1,1.272-3.061,4.336,4.336,0,0,1-1.272,3.061Z" transform="translate(104.749 30.459)" fill="#7a6cff"/>
      <path id="Path_11724" data-name="Path 11724" d="M370.47,200.544a4.787,4.787,0,1,1,3.382-1.4h0a4.752,4.752,0,0,1-3.382,1.4Zm0-8.672a3.851,3.851,0,0,0-2.758,1.145,3.9,3.9,0,0,0,0,5.515,3.989,3.989,0,0,0,5.515,0,3.9,3.9,0,0,0,0-5.515,3.833,3.833,0,0,0-2.758-1.145Z" transform="translate(104.556 30.264)" fill="#7a6cff"/>
      <path id="Path_11725" data-name="Path 11725" d="M367.066,272.852a4.336,4.336,0,1,1,0-6.122A4.336,4.336,0,0,1,367.066,272.852Z" transform="translate(100.137 84.969)" fill="#7a6cff"/>
      <path id="Path_11726" data-name="Path 11726" d="M364.18,274.739a4.768,4.768,0,1,1,3.365-1.388h0a4.7,4.7,0,0,1-3.365,1.388Zm0-8.672a3.9,3.9,0,1,0,2.758,6.66h0a3.9,3.9,0,0,0-2.758-6.66Z" transform="translate(99.954 84.782)" fill="#7a6cff"/>
      <path id="Path_11727" data-name="Path 11727" d="M297.753,158.786a4.336,4.336,0,1,1,0-6.14,4.336,4.336,0,0,1,0,6.14Z" transform="translate(49.237 1.188)" fill="#7a6cff"/>
      <path id="Path_11728" data-name="Path 11728" d="M294.87,160.669a4.683,4.683,0,0,1-3.365-1.4,4.752,4.752,0,0,1,0-6.747,4.666,4.666,0,0,1,3.365-1.388,4.718,4.718,0,0,1,3.365,1.388,4.787,4.787,0,0,1-3.365,8.152Zm0-8.672a3.833,3.833,0,0,0-2.758,1.145,3.9,3.9,0,0,0,0,5.515,3.989,3.989,0,0,0,5.515,0h0A3.9,3.9,0,0,0,294.87,152Z" transform="translate(49.05 1.005)" fill="#7a6cff"/>
      <path id="Path_11729" data-name="Path 11729" d="M186.813,107.136a4.336,4.336,0,1,1,0-6.14A4.336,4.336,0,0,1,186.813,107.136Z" transform="translate(-32.241 -36.745)" fill="#7a6cff"/>
      <path id="Path_11730" data-name="Path 11730" d="M183.893,109.039a4.77,4.77,0,1,1,3.469-1.4,4.77,4.77,0,0,1-3.469,1.4Zm0-8.672a3.85,3.85,0,0,0-2.758,1.145,3.9,3.9,0,0,0,0,5.515,3.989,3.989,0,0,0,5.515,0,3.9,3.9,0,0,0-2.758-6.66Z" transform="translate(-32.391 -36.914)" fill="#7a6cff"/>
      <path id="Path_11731" data-name="Path 11731" d="M182.133,139.346a4.336,4.336,0,1,1,0-6.14,4.336,4.336,0,0,1,0,6.14Z" transform="translate(-35.678 -13.089)" fill="#7a6cff"/>
      <path id="Path_11732" data-name="Path 11732" d="M179.227,141.23a4.77,4.77,0,1,1,3.365-1.4,4.718,4.718,0,0,1-3.365,1.4Zm0-8.672a3.9,3.9,0,1,0,2.758,1.145,3.9,3.9,0,0,0-2.758-1.145Z" transform="translate(-35.894 -13.273)" fill="#7a6cff"/>
      <path id="Path_11733" data-name="Path 11733" d="M198.2,258.726a4.336,4.336,0,1,1,0-6.14,4.336,4.336,0,0,1,0,6.14Z" transform="translate(-23.875 74.587)" fill="#7a6cff"/>
      <path id="Path_11734" data-name="Path 11734" d="M195.347,260.639a4.8,4.8,0,1,1,3.365-1.4h0a4.718,4.718,0,0,1-3.365,1.4Zm0-8.672a3.833,3.833,0,0,0-2.758,1.145,3.9,3.9,0,1,0,2.758-1.145Z" transform="translate(-24.09 74.374)" fill="#7a6cff"/>
      <path id="Path_11735" data-name="Path 11735" d="M308.743,360.236a4.319,4.319,0,1,1,1.281-3.07A4.336,4.336,0,0,1,308.743,360.236Z" transform="translate(57.309 149.139)" fill="#7a6cff"/>
      <path id="Path_11736" data-name="Path 11736" d="M305.822,362.119a4.762,4.762,0,1,1,3.469-1.388h0a4.8,4.8,0,0,1-3.469,1.388Zm0-8.672a3.9,3.9,0,0,0-2.758,6.66,3.989,3.989,0,0,0,5.516,0h0a3.9,3.9,0,0,0-2.758-6.66Z" transform="translate(57.159 148.956)" fill="#7a6cff"/>
      <path id="Path_11737" data-name="Path 11737" d="M118.686,152.882a4.336,4.336,0,1,1,0-6.123,4.336,4.336,0,0,1,0,6.123Z" transform="translate(-82.281 -3.141)" fill="#7a6cff"/>
      <path id="Path_11738" data-name="Path 11738" d="M115.827,154.809a4.8,4.8,0,1,1,3.365-1.4A4.718,4.718,0,0,1,115.827,154.809Zm0-8.672a3.9,3.9,0,1,0,3.773,2.891A3.867,3.867,0,0,0,115.827,146.137Z" transform="translate(-82.492 -3.351)" fill="#7a6cff"/>
    </g>
    <g id="freepik--Icons--inject-11" transform="translate(84.792 92.648)">
      <path id="Path_11739" data-name="Path 11739" d="M165.176,356.082h0A31.376,31.376,0,0,1,133.8,324.706h0a31.376,31.376,0,0,1,31.376-31.376h0a31.376,31.376,0,0,1,31.411,31.376h0a31.376,31.376,0,0,1-31.411,31.376Z" transform="translate(-48.799 76.208)" fill="#fff" stroke="#263238" stroke-linecap="round" stroke-linejoin="round" stroke-width="1"/>
      <path id="Path_11740" data-name="Path 11740" d="M159.176,304.6c4.6,0,5.2,0,6.938.1a9.126,9.126,0,0,1,3.191.59,5.672,5.672,0,0,1,3.261,3.261,9.123,9.123,0,0,1,.59,3.191c0,1.734.1,2.359.1,6.938s0,5.2-.1,6.938a9.227,9.227,0,0,1-.59,3.191,5.672,5.672,0,0,1-3.261,3.261,9.122,9.122,0,0,1-3.191.59c-1.821.087-2.359.1-6.938.1s-5.2,0-6.938-.1a9.226,9.226,0,0,1-3.191-.59,5.342,5.342,0,0,1-1.977-1.283,5.568,5.568,0,0,1-1.283-1.977,9.228,9.228,0,0,1-.59-3.191c0-1.821-.1-2.359-.1-6.938s0-5.2.1-6.938a9.124,9.124,0,0,1,.59-3.191,5.567,5.567,0,0,1,1.283-1.977,5.342,5.342,0,0,1,1.977-1.284,9.228,9.228,0,0,1,3.191-.59c1.821-.087,2.359-.1,6.938-.1m0-3.1c-4.666,0-5.2,0-7.094.1a12.906,12.906,0,0,0-4.163.8,8.534,8.534,0,0,0-3.053,1.995,8.343,8.343,0,0,0-1.977,3.035,12.436,12.436,0,0,0-.815,4.18c0,1.839-.1,2.428-.1,7.094s0,5.2.1,7.094a12.626,12.626,0,0,0,.815,4.18,8.343,8.343,0,0,0,1.977,3.035,8.533,8.533,0,0,0,3.053,1.995,12.9,12.9,0,0,0,4.163.8c1.838.087,2.428.1,7.094.1s5.2,0,7.094-.1a12.923,12.923,0,0,0,4.18-.8,8.671,8.671,0,0,0,3.035-1.995,8.4,8.4,0,0,0,1.994-3.035,13.128,13.128,0,0,0,.8-4.18c.087-1.838.1-2.428.1-7.094s0-5.2-.1-7.094a12.922,12.922,0,0,0-.8-4.18,8.4,8.4,0,0,0-1.995-3.035,8.671,8.671,0,0,0-3.035-1.995,12.923,12.923,0,0,0-4.18-.8c-1.839-.087-2.411-.1-7.094-.1" transform="translate(-42.799 82.208)" fill="#7a6cff"/>
      <path id="Path_11741" data-name="Path 11741" d="M155.628,306.33a8.828,8.828,0,1,0,8.828,8.828,8.828,8.828,0,0,0-8.828-8.828m0,14.552a5.724,5.724,0,1,1,4.058-1.67,5.741,5.741,0,0,1-4.058,1.67" transform="translate(-39.251 85.755)" fill="#7a6cff"/>
      <path id="Path_11742" data-name="Path 11742" d="M160.128,307a2.064,2.064,0,1,1-2.064-2.064A2.064,2.064,0,0,1,160.128,307" transform="translate(-32.495 84.735)" fill="#7a6cff"/>
      <path id="Path_11743" data-name="Path 11743" d="M323.286,144.324h0a31.376,31.376,0,0,1-31.376-31.376h0A31.358,31.358,0,0,1,323.286,81.59h0a31.341,31.341,0,0,1,31.359,31.359h0a31.359,31.359,0,0,1-31.359,31.376Z" transform="translate(67.322 -79.301)" fill="#fff"/>
      <path id="Path_11744" data-name="Path 11744" d="M308.783,126.672h7.632V107.593h5.342l.555-6.4h-5.9V97.551c0-1.509.312-2.116,1.734-2.116h4.232V88.74h-5.2c-5.689,0-8.256,2.5-8.256,7.285v5.2H304.95v6.487h3.972Z" transform="translate(76.899 -74.049)" fill="#7a6cff"/>
      <path id="Path_11745" data-name="Path 11745" d="M147.876,178.8h0A31.376,31.376,0,0,1,116.5,147.429h0a31.376,31.376,0,0,1,31.376-31.359h0a31.376,31.376,0,0,1,31.359,31.359h0A31.376,31.376,0,0,1,147.876,178.8Z" transform="translate(-61.505 -53.977)" fill="#fff" stroke="#fff" stroke-linecap="round" stroke-linejoin="round" stroke-width="1"/>
      <path id="Path_11746" data-name="Path 11746" d="M125,150.292a19.495,19.495,0,0,0,30.006-17.344,13.875,13.875,0,0,0,3.469-3.469,14.221,14.221,0,0,1-3.937,1.075,6.938,6.938,0,0,0,3.018-3.8,13.875,13.875,0,0,1-4.353,1.734,6.938,6.938,0,0,0-11.69,6.261,19.5,19.5,0,0,1-14.136-7.163,6.938,6.938,0,0,0,2.133,9.158,6.834,6.834,0,0,1-3.122-.867,6.938,6.938,0,0,0,5.5,6.816,7.076,7.076,0,0,1-3.087.121,6.834,6.834,0,0,0,6.4,4.752,13.685,13.685,0,0,1-10.2,2.723Z" transform="translate(-55.262 -46.33)" fill="#7a6cff"/>
      <circle id="Ellipse_111" data-name="Ellipse 111" cx="31.705" cy="31.705" r="31.705" transform="translate(419.711 366.953)" fill="#fff"/>
      <g id="Ellipse_113" data-name="Ellipse 113" transform="translate(479.983 94.1)" fill="#fff" stroke="#707070" stroke-width="1">
        <circle cx="18" cy="18" r="18" stroke="none"/>
        <circle cx="18" cy="18" r="17.5" fill="none"/>
      </g>
      <path id="Path_11749" data-name="Path 11749" d="M380.556,129.2a24.646,24.646,0,0,0-24.646,24.646c0,13.615,24.646,43.222,24.646,43.222S405.2,167.462,405.2,153.846A24.646,24.646,0,0,0,380.556,129.2Zm0,38.4A13.043,13.043,0,1,1,393.6,154.557,13.043,13.043,0,0,1,380.556,167.6Z" transform="translate(114.325 -44.334)" fill="#7a6cff"/>
      <path id="Path_11750" data-name="Path 11750" d="M436.369,237.652l.121-.087h-.243L397.379,208.34l-38.886,29.225h-.243l.121.087-.121.087h.26l39.215,28.219,38.522-28.219h.243Z" transform="translate(116.044 13.788)" fill="#7a6cff" stroke="#263238" stroke-linecap="round" stroke-linejoin="round" stroke-width="1"/>
      <rect id="Rectangle_158" data-name="Rectangle 158" width="52.484" height="65.145" transform="translate(486.556 225.042)" fill="#fff" stroke="#7a6cff" stroke-linecap="round" stroke-linejoin="round" stroke-width="1"/>
      <path id="Path_11751" data-name="Path 11751" d="M397.123,224.86c0,7.562-3.469,11.9-6.938,11.9a2.654,2.654,0,0,1-3.018-2.584,4.024,4.024,0,0,1-3.92,2.584c-2.862,0-3.85-2.446-3.469-5.828l.416-3.816c.33-3.469,1.908-5.637,4.718-5.568a3.174,3.174,0,0,1,3.278,2.515l.278-2.359h2.584l-1.145,10.944c-.121.867.156,1.63,1.11,1.63,2.931,0,3.92-5.6,3.885-9.331,0-5.307-2.48-8.672-8.2-8.672-7.614,0-11.152,6.313-11.152,14.864,0,6.591,3,10.545,9.643,10.545a11.412,11.412,0,0,0,7.493-2.394l-.225,2.636a12.418,12.418,0,0,1-7.423,2.047c-8.395,0-12.054-5.2-12.054-12.991,0-9.071,4.353-17.032,13.875-17.032C394.383,213.9,397.123,218.581,397.123,224.86Zm-14.448,2.515-.347,3.469c-.225,1.995.382,3.469,2.168,3.469s2.706-1.336,2.948-3.469l.382-3.66c.191-1.734-.538-3.035-2.22-3.035S382.9,225.328,382.675,227.375Z" transform="translate(126.862 17.908)" fill="#263238"/>
      <path id="Path_11752" data-name="Path 11752" d="M358.25,225.19v45.355h78.24V225.19l-39.111,22.669Z" transform="translate(116.044 26.164)" fill="#7a6cff" stroke="#263238" stroke-linecap="round" stroke-linejoin="round" stroke-width="1"/>
      <path id="Path_11753" data-name="Path 11753" d="M358.25,260.946l39.129-22.686,39.111,22.686" transform="translate(116.044 35.763)" fill="none" stroke="#263238" stroke-linecap="round" stroke-linejoin="round" stroke-width="1"/>
      <rect id="Rectangle_159" data-name="Rectangle 159" width="83.062" height="57.6" transform="translate(182.91)" fill="#fff" stroke="#fff" stroke-linecap="round" stroke-linejoin="round" stroke-width="1"/>
      <circle id="Ellipse_112" data-name="Ellipse 112" cx="19.044" cy="19.044" r="19.044" transform="translate(201.526 14.648) rotate(-13.35)" fill="#7a6cff"/>
      <path id="Path_11754" data-name="Path 11754" d="M221.92,96.941,208.74,89.33v15.222Z" transform="translate(11.287 -67.785)" fill="#fff" stroke="#fff" stroke-linecap="round" stroke-linejoin="round" stroke-width="1"/>
      <line id="Line_7" data-name="Line 7" x2="78.969" transform="translate(184.748 51.825)" fill="none" stroke="#fff" stroke-linecap="round" stroke-linejoin="round" stroke-width="1"/>
      <path id="Path_11755" data-name="Path 11755" d="M179.454,245.22A19.859,19.859,0,0,0,148.91,225.1a26.78,26.78,0,0,0-51.617,10.146v.971a17.431,17.431,0,0,0,2.48,33.977v.191H178.6a12.626,12.626,0,1,0,.85-25.237Z" transform="translate(-84.792 13.782)" fill="#fff" stroke="#7a6cff" stroke-linecap="round" stroke-linejoin="round" stroke-width="1"/>
      <path id="Path_11756" data-name="Path 11756" d="M144.91,251.131,123.056,223.64,101.22,251.131h8.533v24.75H136.36v-24.75Z" transform="translate(-72.727 25.025)" fill="#7a6cff"/>
      <g id="Group_3562" data-name="Group 3562" transform="translate(-694.179 70.778)">
        <path id="Path_11799" data-name="Path 11799" d="M1146.261,308.023h2.16c.411.049.824.087,1.233.15a17.194,17.194,0,0,1,14.5,14.046c.107.618.173,1.243.259,1.865v2.159a2.934,2.934,0,0,0-.061.328,16.485,16.485,0,0,1-1.4,5.52,17.32,17.32,0,0,1-23.712,8.248.816.816,0,0,0-.531-.06q-3.051.772-6.094,1.575c-.876.23-1.746.479-2.619.72l-.135-.135a2.255,2.255,0,0,0,.113-.271c.751-2.726,1.5-5.452,2.24-8.183a.831.831,0,0,0-.074-.558,17.072,17.072,0,0,1,12.192-25.135C1144.972,308.182,1145.618,308.112,1146.261,308.023Zm-12.244,30.4c.155-.032.243-.046.328-.069,1.575-.409,3.152-.813,4.724-1.233a.771.771,0,0,1,.656.1A13.992,13.992,0,0,0,1150.289,339a14.236,14.236,0,0,0-4.681-28.053,14.209,14.209,0,0,0-10.326,21.975.643.643,0,0,1,.094.591c-.2.678-.386,1.361-.573,2.043C1134.545,336.49,1134.289,337.43,1134.017,338.425Z" transform="translate(0 0)" fill="#7a6cff" fill-rule="evenodd"/>
        <path id="Path_11800" data-name="Path 11800" d="M1238.675,425.955a8.5,8.5,0,0,1-3.172-.755,15.782,15.782,0,0,1-7.059-5.22A16.529,16.529,0,0,1,1226,416.4a4.987,4.987,0,0,1-.232-4.3,10.325,10.325,0,0,1,1.134-1.738,1.329,1.329,0,0,1,1.062-.51c.381-.014.764-.008,1.145.011.339.017.509.269.63.541.272.616.528,1.238.79,1.859.209.5.405,1,.63,1.488a.876.876,0,0,1-.069.953c-.319.433-.642.864-.98,1.283-.354.437-.371.566-.08,1.049a11.671,11.671,0,0,0,5.737,4.953c.531.215.711.182,1.081-.266q.611-.741,1.207-1.495c.265-.336.434-.424.844-.267.565.215,1.114.474,1.664.726.377.173.739.38,1.119.547.27.119.562.189.837.3a.518.518,0,0,1,.345.528,3.294,3.294,0,0,1-1.287,2.922A4.557,4.557,0,0,1,1238.675,425.955Z" transform="translate(-86.918 -92.665)" fill="#7a6cff" fill-rule="evenodd"/>
      </g>
    </g>
    <g id="freepik--Character--inject-11" transform="translate(186.912 210.234)">
      <path id="Path_11757" data-name="Path 11757" d="M232.474,420.56a92.074,92.074,0,0,0-7.753,6.782c-3.469,3.469-13.459,7.441-19.478,11.69s-2.48,8.5,2.827,10.268,20.553.347,26.207-.711,8.516-7.788,13.112-8.846,13.112,2.827,13.459-3.9.711-13.459.711-13.459Z" transform="translate(-100.762 52.064)" fill="#fff" stroke="#263238" stroke-linecap="round" stroke-linejoin="round" stroke-width="1"/>
      <path id="Path_11758" data-name="Path 11758" d="M260.87,431.081c0-1.37.139-2.723.208-4.041-3.85,2.775-8.672,2.654-15.09,4.041-8.134,1.734-10.979,9.557-27.265,10.268-10.545.451-14.829-1.457-16.564-2.862-.295,2.619,2.428,4.874,5.932,6.053,5.325,1.734,20.553.347,26.207-.711s8.516-7.788,13.112-8.846S260.471,437.811,260.87,431.081Z" transform="translate(-100.73 56.823)" fill="#fff" stroke="#263238" stroke-linecap="round" stroke-linejoin="round" stroke-width="1"/>
      <path id="Path_11759" data-name="Path 11759" d="M226.367,419.77s-8.152,9.921-10.979,13.112,5.307,2.116,8.863-1.075a104.185,104.185,0,0,0,9.21-10.615Z" transform="translate(-91.428 51.483)" fill="#fff" stroke="#263238" stroke-linecap="round" stroke-linejoin="round" stroke-width="1"/>
      <path id="Path_11760" data-name="Path 11760" d="M298.156,420.56a92.079,92.079,0,0,1,7.753,6.782c3.469,3.469,13.459,7.441,19.478,11.69s2.48,8.5-2.827,10.268-20.553.347-26.207-.711-8.516-7.788-13.112-8.846-13.112,2.827-13.459-3.9-.711-13.459-.711-13.459Z" transform="translate(-51.572 52.064)" fill="#fff" stroke="#263238" stroke-linecap="round" stroke-linejoin="round" stroke-width="1"/>
      <path id="Path_11761" data-name="Path 11761" d="M269.568,431.081c0-1.37-.139-2.723-.208-4.041,3.85,2.775,8.672,2.654,15.09,4.041,8.134,1.734,10.979,9.557,27.265,10.268,10.545.451,14.829-1.457,16.564-2.862.295,2.619-2.428,4.874-5.932,6.053-5.325,1.734-20.553.347-26.207-.711s-8.516-7.788-13.112-8.846S269.915,437.811,269.568,431.081Z" transform="translate(-51.359 56.823)" fill="#fff" stroke="#263238" stroke-linecap="round" stroke-linejoin="round" stroke-width="1"/>
      <path id="Path_11762" data-name="Path 11762" d="M287,419.77s8.152,9.921,10.979,13.112-5.307,2.116-8.863-1.075a104.208,104.208,0,0,1-9.21-10.615Z" transform="translate(-43.611 51.483)" fill="#fff" stroke="#263238" stroke-linecap="round" stroke-linejoin="round" stroke-width="1"/>
      <path id="Path_11763" data-name="Path 11763" d="M224.439,274.741s-4.423,39.892-4.423,46.257,0,87.571.989,101.932-3.954,20.258-.989,38.556,3.954,50.472,3.954,50.472-3.954,2.48-3.954,4.96v10.875l29.8,3.243s1.873-25.5,2.359-33.422,7.926-57.861,9.9-72.222,9.782-96.053,9.782-96.053S284.832,419.965,285.821,423a182.383,182.383,0,0,1,6.938,21.732c4.44,16.338,8.412,72.742,8.412,72.742l4.249,15.749,30.457-5.672s-4.527-25.409-4.527-29.364-.989-2.48-1.977-12.384a386.085,386.085,0,0,1-1.492-55.38c.989-28.7-12.366-104.9-12.366-104.9L311.56,274.55S262.51,285.893,224.439,274.741Z" transform="translate(-88.304 -55.171)" fill="#263238" stroke="#263238" stroke-linecap="round" stroke-linejoin="round" stroke-width="1"/>
      <path id="Path_11764" data-name="Path 11764" d="M259.843,299l-8.013,14.881s17.171-10.3,28.046-12.02" transform="translate(-64.234 -37.214)" fill="none" stroke="#fff" stroke-linecap="round" stroke-linejoin="round" stroke-width="1"/>
      <path id="Path_11765" data-name="Path 11765" d="M249.9,311.1s-7.458-12.037-20.622-15.471" transform="translate(-80.795 -39.689)" fill="none" stroke="#fff" stroke-linecap="round" stroke-linejoin="round" stroke-width="1"/>
      <path id="Path_11766" data-name="Path 11766" d="M222.716,278.725s-5.2,12.921-2.584,16.807,26.519,13.581,50.437,13.581S317.8,300.7,317.8,294.89s-4.527-20.05-4.527-20.05S274.454,292.947,222.716,278.725Z" transform="translate(-88.055 -54.958)" fill="#7a6cff" stroke="#263238" stroke-linecap="round" stroke-linejoin="round" stroke-width="1"/>
      <path id="Path_11767" data-name="Path 11767" d="M240.967,206.3s-17.344,0-21.3,3.209-4.405,16.477-4.822,18.888-9.557,45.563-9.557,45.563l19.3,26.554,7.146-33.925.694,65.908s1.3,6.487,5.724,8.9,35.365,4.822,49.83,4.822,35.313-7.25,36.926-11.673-3.157-53.8-3.157-53.8l6.851,15.246,16.442-28.167s-11.239-37.325-12.852-45.355-6.018-10.407-14.864-14.066-34.966-2.411-45.407-2.411S240.967,206.3,240.967,206.3Z" transform="translate(-98.414 -105.676)" fill="#7a6cff" stroke="#263238" stroke-linecap="round" stroke-linejoin="round" stroke-width="1"/>
      <path id="Path_11768" data-name="Path 11768" d="M228.39,293.956a14.916,14.916,0,0,0,12.939-12.3c2.584-11.638,3.885-18.107,3.885-18.107l4.527-.642a183.406,183.406,0,0,1-1.3,19.391c-1.283,11-5.2,14.24-7.111,14.24" transform="translate(-81.449 -63.719)" fill="none" stroke="#263238" stroke-linecap="round" stroke-linejoin="round" stroke-width="1"/>
      <path id="Path_11769" data-name="Path 11769" d="M274.446,289.473c5.2-12.939-6.469-27.751-6.469-27.751l-4.527-.642s12.939,16.824,6.469,29.745" transform="translate(-55.7 -65.063)" fill="none" stroke="#263238" stroke-linecap="round" stroke-linejoin="round" stroke-width="1"/>
      <line id="Line_8" data-name="Line 8" x1="2.827" y1="20.501" transform="translate(130.499 140.411)" fill="none" stroke="#263238" stroke-linecap="round" stroke-linejoin="round" stroke-width="1"/>
      <line id="Line_9" data-name="Line 9" x1="1.613" y1="37.377" transform="translate(221.73 137.601)" fill="none" stroke="#263238" stroke-linecap="round" stroke-linejoin="round" stroke-width="1"/>
      <path id="Path_11770" data-name="Path 11770" d="M274.654,257.511s-5.013-9.3,11.447-17.171" transform="translate(-47.999 -80.295)" fill="none" stroke="#263238" stroke-linecap="round" stroke-linejoin="round" stroke-width="1"/>
      <path id="Path_11771" data-name="Path 11771" d="M276,240.642S284.672,237,290.309,237" transform="translate(-46.483 -82.748)" fill="none" stroke="#263238" stroke-linecap="round" stroke-linejoin="round" stroke-width="1"/>
      <path id="Path_11772" data-name="Path 11772" d="M209.15,240.34s13.6,4.3,16.46,15.037" transform="translate(-95.579 -80.295)" fill="none" stroke="#263238" stroke-linecap="round" stroke-linejoin="round" stroke-width="1"/>
      <path id="Path_11773" data-name="Path 11773" d="M223.687,247.475s-5.013-8.585-12.887-10.025" transform="translate(-94.368 -82.418)" fill="none" stroke="#263238" stroke-linecap="round" stroke-linejoin="round" stroke-width="1"/>
      <path id="Path_11774" data-name="Path 11774" d="M251.572,196.919s-9.123,0-11.811,2.029-4.059,7.423-5.411,8.429-7.423.676-8.776,4.388-1.353,2.706,9.123,12.505,36.423,20.935,39.163,20.935,20.258-20.258,25.323-22.548,5.741-2.359,6.07-3.712-.33-8.1-4.735-10.805a28.757,28.757,0,0,0-10.129-3.365s-.659-4.059-6.07-7.094-12.835-3.712-18.229-3.712S251.572,196.919,251.572,196.919Z" transform="translate(-83.974 -114.351)" fill="#7a6cff" stroke="#263238" stroke-linecap="round" stroke-linejoin="round" stroke-width="1"/>
      <path id="Path_11775" data-name="Path 11775" d="M264.112,200.15a54.911,54.911,0,0,1-3.382,14.6" transform="translate(-57.698 -109.812)" fill="none" stroke="#263238" stroke-linecap="round" stroke-linejoin="round" stroke-width="1"/>
      <path id="Path_11776" data-name="Path 11776" d="M231.44,204.44s1.422,4.3,9.3,8.585" transform="translate(-79.209 -106.661)" fill="none" stroke="#263238" stroke-linecap="round" stroke-linejoin="round" stroke-width="1"/>
      <line id="Line_10" data-name="Line 10" x2="0.798" y2="44.211" transform="translate(183.555 125.946)" fill="none" stroke="#fff" stroke-linecap="round" stroke-linejoin="round" stroke-width="1"/>
      <line id="Line_11" data-name="Line 11" x2="4.024" y2="40.985" transform="translate(193.198 126.345)" fill="none" stroke="#fff" stroke-linecap="round" stroke-linejoin="round" stroke-width="1"/>
      <rect id="Rectangle_160" data-name="Rectangle 160" width="22.287" height="41.765" rx="1.53" transform="matrix(0.946, -0.325, 0.325, 0.946, 76.243, 102.826)" fill="#263238" stroke="#263238" stroke-linecap="round" stroke-linejoin="round" stroke-width="1"/>
      <path id="Path_11777" data-name="Path 11777" d="M204.27,257.838c-1.4-1.4-14.309-32.139-15.471-34.949s13.13-12.679,13.13-12.679,3.764-2.341,3.764-.225-7.285,8.447-8.221,10.094,2.116,6.8,2.116,6.8,9.14-4.926,9.852-4.926,10.788,8.672,11.725,9.609,3.469,3.764,2.827,5.2-2.359.711-3.469.468-11.5,3.469-11.5,3.469,3.989,5.637,3.469,8.915a39.687,39.687,0,0,1-1.4,6.105s22.27,27.352,25.08,29,4.405,7.649,2.532,13.98-6.279,5.949-12.141,5.724S204.27,257.838,204.27,257.838Z" transform="translate(-110.576 -103.239)" fill="#fff" stroke="#263238" stroke-linecap="round" stroke-linejoin="round" stroke-width="1"/>
      <path id="Path_11778" data-name="Path 11778" d="M208.287,219.083a14.638,14.638,0,0,0-4.926.694c-.937.711-7.961,5.394-7.961,5.394" transform="translate(-105.678 -95.912)" fill="none" stroke="#263238" stroke-linecap="round" stroke-linejoin="round" stroke-width="1"/>
      <path id="Path_11779" data-name="Path 11779" d="M196.88,227.295a80.556,80.556,0,0,1,7.978-5.2,66.525,66.525,0,0,1,8.915-.468" transform="translate(-104.591 -94.047)" fill="none" stroke="#263238" stroke-linecap="round" stroke-linejoin="round" stroke-width="1"/>
      <path id="Path_11780" data-name="Path 11780" d="M215.008,222.73s-10.407,2.116-11.725,2.584a27.875,27.875,0,0,0-5.2,3.989" transform="translate(-103.71 -93.229)" fill="none" stroke="#263238" stroke-linecap="round" stroke-linejoin="round" stroke-width="1"/>
      <line id="Line_12" data-name="Line 12" x1="3.053" y2="1.873" transform="translate(85.958 123.639)" fill="none" stroke="#263238" stroke-linecap="round" stroke-linejoin="round" stroke-width="1"/>
      <path id="Path_11781" data-name="Path 11781" d="M292.188,269.059l38.643-30.717s-1.734-11.048-1.388-12.765,3.469-11.725,11.048-15.523,10.008-4.492,10.008-1.734-2.775,3.469-3.469,4.492-4.492,4.822-4.492,4.822,7.25-3.1,9.661-3.1,6.556-1.023,6.556,1.388-2.758,2.411-4.492,2.411-6.556,4.839-6.556,4.839a121.819,121.819,0,0,1,12.141-2.428c2.064,0,3.8,2.428,2.064,3.469a20.675,20.675,0,0,1-4.822,1.734,45.322,45.322,0,0,0-4.492,2.411s10.407-1.041,9.661,1.734-5.516,2.064-6.556,2.064a11.482,11.482,0,0,0-5.862,3.469c-.694,1.37-2.081,7.25-4.839,8.672s-7.926,3.469-7.926,3.469-17.6,21.4-24.854,29.676-20.293,17.83-27.63,19.564-8.672-.347-8.967-3.469S275.589,279.4,292.188,269.059Z" transform="translate(-46.8 -105.043)" fill="#fff" stroke="#263238" stroke-linecap="round" stroke-linejoin="round" stroke-width="1"/>
      <path id="Path_11782" data-name="Path 11782" d="M307.63,216.6s8.273-3.781,9.99-3.781,4.492,1.37,2.428,3.781a44.885,44.885,0,0,1-7.6,5.88s10.008,4.128,5.2,11.725" transform="translate(-23.253 -100.507)" fill="none" stroke="#263238" stroke-linecap="round" stroke-linejoin="round" stroke-width="1"/>
      <path id="Path_11783" data-name="Path 11783" d="M267.152,161.626s-10.823,1.891-15.818,8S229.9,212.653,230,215.966s16.7,1.63,16.7,1.63,1.734,18.489,7.579,32.018c1.613,3.677,7.354,10.962,13.511,8.239s8.828-44.887,8.828-44.887,5.862,8.308,10.3,6.088c5.065-2.55,4.145-8.672.52-9.123s11.621-13.875,7.857-24.178S271.835,158.782,267.152,161.626Z" transform="translate(-80.267 -138.341)" fill="#fff" stroke="#263238" stroke-linecap="round" stroke-linejoin="round" stroke-width="1"/>
      <path id="Path_11784" data-name="Path 11784" d="M259.366,159.33s-20.414-1.977-22.409,7.7,8.082,15.09,19.877,14.4,22.27,1.075,23.554,3.035-14.708,4.076-11.326,6.938a11.811,11.811,0,0,0,7.059,2.879s-5.2.954-5.2,4.631,1.613,20.033,4.163,20.275,7.406.4,7.406.4a46.828,46.828,0,0,0,13.234-7.874c6.018-5.29,8.672-17.5,2.48-25.444s-10.962-15.488-15.853-21.819-9.366-13.026-20.119-15.61S245.2,150.259,259.366,159.33Z" transform="translate(-75.343 -148.065)" fill="#263238" stroke="#263238" stroke-linecap="round" stroke-linejoin="round" stroke-width="1"/>
      <path id="Path_11785" data-name="Path 11785" d="M272.289,178.58a23.294,23.294,0,0,1-.4,6.469" transform="translate(-49.501 -125.654)" fill="none" stroke="#fff" stroke-linecap="round" stroke-linejoin="round" stroke-width="1"/>
      <path id="Path_11786" data-name="Path 11786" d="M258.925,161.47s-22.548,0-14.5,5.065,21.7-1.63,37.308,6.383A20.952,20.952,0,0,1,292.8,185.8" transform="translate(-70.947 -138.22)" fill="none" stroke="#fff" stroke-linecap="round" stroke-linejoin="round" stroke-width="1"/>
      <path id="Path_11787" data-name="Path 11787" d="M258.91,172s14.5,8.932,15.471,19.963" transform="translate(-59.034 -130.486)" fill="none" stroke="#fff" stroke-linecap="round" stroke-linejoin="round" stroke-width="1"/>
      <path id="Path_11788" data-name="Path 11788" d="M239.6,195s17.552.607,22.669-2.931" transform="translate(-73.216 -115.746)" fill="none" stroke="#263238" stroke-linecap="round" stroke-linejoin="round" stroke-width="1"/>
      <path id="Path_11789" data-name="Path 11789" d="M237.28,186.084s12.366,4.874,16.737-2.394" transform="translate(-74.92 -121.901)" fill="none" stroke="#263238" stroke-linecap="round" stroke-linejoin="round" stroke-width="1"/>
      <line id="Line_13" data-name="Line 13" x2="5.238" y2="2.706" transform="translate(177.051 60.124)" fill="none" stroke="#263238" stroke-linecap="round" stroke-linejoin="round" stroke-width="1"/>
      <path id="Path_11790" data-name="Path 11790" d="M245.427,175.66s-11.413.347-11.586,2.168,6.591,7.614,6.591,7.614" transform="translate(-77.448 -127.798)" fill="#fff" stroke="#263238" stroke-linecap="round" stroke-linejoin="round" stroke-width="1"/>
      <path id="Path_11791" data-name="Path 11791" d="M242.9,175.185c-.676,1.509-1.839,2.48-2.6,2.133s-.833-1.839-.139-3.365,1.838-2.48,2.6-2.133S243.58,173.659,242.9,175.185Z" transform="translate(-73.155 -130.671)" fill="#263238"/>
      <path id="Path_11792" data-name="Path 11792" d="M248.142,178.515c-.676,1.526-1.856,2.48-2.6,2.133s-.833-1.838-.156-3.365,1.838-2.48,2.6-2.133S248.819,176.989,248.142,178.515Z" transform="translate(-69.305 -128.225)" fill="#263238"/>
      <path id="Path_11793" data-name="Path 11793" d="M247.66,171.14s5.463,1.023,4.232,8.481Z" transform="translate(-67.297 -131.118)" fill="#263238" stroke="#263238" stroke-linecap="round" stroke-linejoin="round" stroke-width="1"/>
      <path id="Path_11794" data-name="Path 11794" d="M248.033,169.556s-2.619-4.3-7.163.815Z" transform="translate(-72.283 -133.523)" fill="#263238" stroke="#263238" stroke-linecap="round" stroke-linejoin="round" stroke-width="1"/>
      <path id="Path_11795" data-name="Path 11795" d="M227.582,226.317l-.278-12.349a6.192,6.192,0,0,0,6.175-6.157v-33.6a6.192,6.192,0,0,0-6.175-6.175H149.827a6.192,6.192,0,0,0-6.157,6.175v33.648a6.175,6.175,0,0,0,6.157,6.157h67Z" transform="translate(-143.67 -133.395)" fill="#fff"/>
      <path id="Path_11796" data-name="Path 11796" d="M161.722,182.1a3.781,3.781,0,1,0-3.781,3.764,3.781,3.781,0,0,0,3.781-3.764Z" transform="translate(-135.966 -125.859)" fill="#7a6cff"/>
      <path id="Path_11797" data-name="Path 11797" d="M174.562,182.1a3.781,3.781,0,1,0-3.764,3.764,3.781,3.781,0,0,0,3.764-3.764Z" transform="translate(-126.536 -125.859)" fill="#7a6cff"/>
      <path id="Path_11798" data-name="Path 11798" d="M187.412,182.1a3.781,3.781,0,1,0-3.781,3.764,3.781,3.781,0,0,0,3.781-3.764Z" transform="translate(-117.098 -125.859)" fill="#7a6cff"/>
    </g>
  </g>
</svg>
