<svg xmlns="http://www.w3.org/2000/svg" width="69.059" height="28.355" viewBox="0 0 69.059 28.355">
  <path id="Apple_Pay-Logo.wine" d="M12.618,3.656a4.242,4.242,0,0,1-3.4,1.605A4.81,4.81,0,0,1,10.433,1.74,5.071,5.071,0,0,1,13.805,0a5.122,5.122,0,0,1-1.187,3.656m1.174,1.862c-1.875-.108-3.48,1.066-4.371,1.066S7.155,5.571,5.671,5.6A5.541,5.541,0,0,0,.963,8.458c-2.023,3.48-.526,8.633,1.43,11.466.958,1.4,2.1,2.941,3.615,2.887,1.43-.054,2-.931,3.723-.931s2.239.931,3.75.9c1.565-.027,2.55-1.4,3.507-2.806a12.3,12.3,0,0,0,1.565-3.224A5.083,5.083,0,0,1,15.5,12.127a5.19,5.19,0,0,1,2.469-4.344,5.346,5.346,0,0,0-4.182-2.266M24.624,1.605v21.03h3.264v-7.19h4.519a6.675,6.675,0,0,0,7.028-6.934,6.6,6.6,0,0,0-6.92-6.907Zm3.264,2.752h3.764c2.833,0,4.452,1.511,4.452,4.168s-1.619,4.182-4.465,4.182h-3.75ZM45.4,22.8a5.4,5.4,0,0,0,4.816-2.684h.067v2.523H53.3V12.168c0-3.035-2.428-4.991-6.165-4.991-3.467,0-6.03,1.983-6.124,4.708h2.941A2.866,2.866,0,0,1,47.044,9.74c2,0,3.116.931,3.116,2.644v1.16l-4.074.243c-3.791.229-5.841,1.781-5.841,4.479C40.245,20.99,42.363,22.8,45.4,22.8Zm.877-2.5c-1.74,0-2.846-.836-2.846-2.118,0-1.322,1.066-2.091,3.1-2.212l3.629-.229V16.93C50.16,18.9,48.487,20.3,46.275,20.3Zm11.062,8.053c3.184,0,4.681-1.214,5.989-4.9l5.733-16.08H65.74L61.9,19.8h-.067L57.984,7.379H54.571L60.1,22.69l-.3.931c-.5,1.578-1.308,2.185-2.752,2.185-.256,0-.755-.027-.958-.054v2.523a8.992,8.992,0,0,0,1.241.081Z" transform="translate(0)"/>
</svg>
