<svg xmlns="http://www.w3.org/2000/svg" width="134.681" height="28.123" viewBox="0 0 134.681 28.123">
  <g id="logotop" transform="translate(-176.5 -339.974)">
    <g id="Group_3310" data-name="Group 3310" transform="translate(176.5 339.974)">
      <path id="Path_10352" data-name="Path 10352" d="M147.4,43.9a14.056,14.056,0,1,1-10.239-17.042A14.058,14.058,0,0,1,147.4,43.9Z" transform="translate(-119.696 -26.437)" fill="#bbbbcf"/>
      <path id="Path_10353" data-name="Path 10353" d="M142.629,40.412c.28-1.871-1.145-2.877-3.093-3.548l.632-2.535-1.543-.384-.615,2.468c-.406-.1-.822-.2-1.236-.291l.62-2.484-1.542-.384-.632,2.534c-.336-.076-.665-.152-.985-.232l0-.008-2.128-.531-.41,1.648s1.145.262,1.12.279a.821.821,0,0,1,.719.9l-.72,2.887a1.277,1.277,0,0,1,.16.051l-.163-.04-1.009,4.045a.562.562,0,0,1-.707.366c.015.022-1.121-.28-1.121-.28l-.766,1.766,2.008.5c.374.094.74.192,1.1.284l-.638,2.564,1.541.384.632-2.536c.421.114.83.22,1.23.319l-.63,2.524,1.543.384.638-2.559c2.631.5,4.609.3,5.442-2.082a2.707,2.707,0,0,0-1.418-3.742,2.46,2.46,0,0,0,1.97-2.265ZM139.1,45.355c-.477,1.916-3.7.88-4.748.62l.847-3.4C136.249,42.84,139.6,43.356,139.1,45.355Zm.477-4.971c-.435,1.743-3.12.857-3.991.64l.768-3.08C137.23,38.161,140.034,38.566,139.581,40.384Z" transform="translate(-122.372 -28.353)" fill="#fff"/>
      <g id="Group_3309" data-name="Group 3309" transform="translate(28.786 0.006)">
        <path id="Path_10354" data-name="Path 10354" d="M172.161,34.949a6.712,6.712,0,0,1,2.953.606,5.946,5.946,0,0,1,2.069,1.637,6.9,6.9,0,0,1,1.208,2.42,11.055,11.055,0,0,1,.389,2.989,12.172,12.172,0,0,1-3.38,8.454,11.634,11.634,0,0,1-3.7,2.56,11.3,11.3,0,0,1-4.624.944c-.214,0-.591-.006-1.124-.017a16.431,16.431,0,0,1-1.83-.159,21.479,21.479,0,0,1-2.19-.429,10.971,10.971,0,0,1-2.19-.783L165.9,27.3l5.515-.855-2.2,9.181a8.573,8.573,0,0,1,1.422-.5,6.316,6.316,0,0,1,1.53-.18Zm-4.626,15.235a4.832,4.832,0,0,0,2.348-.606,6.181,6.181,0,0,0,1.907-1.619,8.168,8.168,0,0,0,1.262-2.3,7.824,7.824,0,0,0,.463-2.671,5.257,5.257,0,0,0-.569-2.669,2.237,2.237,0,0,0-2.1-.961,6.588,6.588,0,0,0-1.3.178,3.239,3.239,0,0,0-1.443.749l-2.347,9.75c.141.025.267.049.374.071a2.783,2.783,0,0,0,.335.053,3.863,3.863,0,0,0,.429.021h.639Z" transform="translate(-159.742 -26.445)" fill="#bbbbcf"/>
        <path id="Path_10355" data-name="Path 10355" d="M192.125,54.2h-5.267l4.448-18.718h5.3Zm2.563-21a3.268,3.268,0,0,1-1.993-.657,2.325,2.325,0,0,1-.892-2.011,3.347,3.347,0,0,1,.3-1.4,3.757,3.757,0,0,1,.8-1.139,3.94,3.94,0,0,1,1.156-.766,3.529,3.529,0,0,1,1.408-.283,3.269,3.269,0,0,1,1.991.657,2.347,2.347,0,0,1,.889,2.011,3.324,3.324,0,0,1-.3,1.407,3.7,3.7,0,0,1-.8,1.139,3.869,3.869,0,0,1-1.156.764,3.469,3.469,0,0,1-1.4.283Z" transform="translate(-167.366 -26.584)" fill="#bbbbcf"/>
        <path id="Path_10356" data-name="Path 10356" d="M205.281,32l5.517-.855-1.355,5.517h5.908l-1.067,4.341h-5.873l-1.564,6.547a7.4,7.4,0,0,0-.249,1.529,2.794,2.794,0,0,0,.177,1.229,1.544,1.544,0,0,0,.765.8,3.5,3.5,0,0,0,1.583.287,8.427,8.427,0,0,0,1.657-.161,11.749,11.749,0,0,0,1.617-.444l.393,4.058a18.9,18.9,0,0,1-2.313.675,13.321,13.321,0,0,1-2.955.284,8.18,8.18,0,0,1-3.809-.727,4.231,4.231,0,0,1-1.922-2,6.342,6.342,0,0,1-.5-2.9,18.76,18.76,0,0,1,.5-3.453Z" transform="translate(-171.422 -27.767)" fill="#bbbbcf"/>
        <path id="Path_10357" data-name="Path 10357" d="M220.53,49.873a13.144,13.144,0,0,1,.783-4.556,11.209,11.209,0,0,1,2.244-3.739,10.507,10.507,0,0,1,3.542-2.525,11.317,11.317,0,0,1,4.642-.925,12.265,12.265,0,0,1,2.864.3,11.6,11.6,0,0,1,2.3.8l-1.817,4.131c-.475-.192-.967-.362-1.476-.516a6.425,6.425,0,0,0-1.868-.232,5.219,5.219,0,0,0-4.182,1.814,7.272,7.272,0,0,0-1.549,4.877,5.015,5.015,0,0,0,.785,2.936,3.281,3.281,0,0,0,2.882,1.121,9.24,9.24,0,0,0,1.993-.213,9.819,9.819,0,0,0,1.709-.533l.393,4.234a19.064,19.064,0,0,1-2.207.7,12.267,12.267,0,0,1-2.884.3,9.73,9.73,0,0,1-3.736-.639,7.115,7.115,0,0,1-2.525-1.726,6.507,6.507,0,0,1-1.442-2.546A10.446,10.446,0,0,1,220.53,49.873Z" transform="translate(-176.833 -29.73)" fill="#bbbbcf"/>
        <path id="Path_10358" data-name="Path 10358" d="M250.185,57.843a8.613,8.613,0,0,1-3.275-.571,6.047,6.047,0,0,1-2.294-1.6,6.919,6.919,0,0,1-1.37-2.437,9.846,9.846,0,0,1-.46-3.111,13.736,13.736,0,0,1,.692-4.273,12.1,12.1,0,0,1,2.048-3.842,10.937,10.937,0,0,1,3.308-2.8,9.1,9.1,0,0,1,4.482-1.084,8.657,8.657,0,0,1,3.26.571,6.09,6.09,0,0,1,2.313,1.6,6.952,6.952,0,0,1,1.367,2.438,9.871,9.871,0,0,1,.463,3.113,14.19,14.19,0,0,1-.674,4.273,12.337,12.337,0,0,1-1.993,3.842,10.446,10.446,0,0,1-3.291,2.792A9.344,9.344,0,0,1,250.185,57.843Zm2.633-15.231a3.328,3.328,0,0,0-2.062.675A5.814,5.814,0,0,0,249.263,45a8.438,8.438,0,0,0-.91,2.26,9.74,9.74,0,0,0-.3,2.33,5.678,5.678,0,0,0,.568,2.778,2.177,2.177,0,0,0,2.065,1,3.311,3.311,0,0,0,2.065-.678,5.841,5.841,0,0,0,1.493-1.708,8.46,8.46,0,0,0,.91-2.26,9.872,9.872,0,0,0,.3-2.331,5.634,5.634,0,0,0-.571-2.777A2.175,2.175,0,0,0,252.818,42.612Z" transform="translate(-183.091 -29.729)" fill="#bbbbcf"/>
        <path id="Path_10359" data-name="Path 10359" d="M273.656,54.2h-5.272l4.448-18.718h5.306Zm2.559-21a3.262,3.262,0,0,1-1.991-.657,2.332,2.332,0,0,1-.891-2.011,3.341,3.341,0,0,1,.3-1.4,3.709,3.709,0,0,1,.8-1.139,3.933,3.933,0,0,1,1.157-.766,3.5,3.5,0,0,1,1.4-.283,3.27,3.27,0,0,1,1.994.657,2.346,2.346,0,0,1,.892,2.011,3.374,3.374,0,0,1-.305,1.407,3.694,3.694,0,0,1-.8,1.139,3.908,3.908,0,0,1-1.156.764,3.481,3.481,0,0,1-1.409.283Z" transform="translate(-190.288 -26.584)" fill="#bbbbcf"/>
        <path id="Path_10360" data-name="Path 10360" d="M285.547,39.508c.4-.117.846-.257,1.332-.41s1.032-.3,1.64-.424a19.635,19.635,0,0,1,2.027-.323,22.79,22.79,0,0,1,2.542-.126q4.167,0,5.75,2.422t.554,6.619l-2.423,10.107h-5.3l2.348-9.894c.143-.618.256-1.215.339-1.8a4.262,4.262,0,0,0-.019-1.529,1.831,1.831,0,0,0-.656-1.069,2.545,2.545,0,0,0-1.585-.409,10.7,10.7,0,0,0-2.1.216l-3.453,14.483h-5.3Z" transform="translate(-193.902 -29.757)" fill="#bbbbcf"/>
      </g>
    </g>
  </g>
</svg>
