<svg xmlns="http://www.w3.org/2000/svg" width="71.953" height="71.953" viewBox="0 0 71.953 71.953">
  <g id="Group_3629" data-name="Group 3629" transform="translate(-749.75 42.31)">
    <path id="Path_12124" data-name="Path 12124" d="M793.175-42.31h1.686a5.343,5.343,0,0,1,3.25,1.44,2.919,2.919,0,0,0,4.079-.1,4.536,4.536,0,0,1,2.265-1.2,2.585,2.585,0,0,1,3.063,3c-.046.4-.093.788-.115,1.186a.935.935,0,0,0,.654,1.024,6.265,6.265,0,0,1,3.207,3.011,5.163,5.163,0,0,1-.478,5.69c-.542.77-.546.746.371,1.05a11.611,11.611,0,0,1,4.888,2.8,2.491,2.491,0,0,1,.475.605,1.376,1.376,0,0,1-.291,1.668,1.309,1.309,0,0,1-1.74.024c-.315-.243-.579-.545-.892-.792a12.384,12.384,0,0,0-6.561-2.3,39.9,39.9,0,0,1,9.6,11.963A46.957,46.957,0,0,1,821.5,1.429c.117.734.041,1.485.2,2.216V4.769c-.153.278-.035.579-.073.867a3.466,3.466,0,0,0,.073,1.1V8.141a23.238,23.238,0,0,1-.542,3.514,14.545,14.545,0,0,1-9.963,10.03,20.841,20.841,0,0,1-6.569.99q-7.763.013-15.525,0a7.519,7.519,0,0,1-.912-.024,1.415,1.415,0,0,1-1.4-1.391,1.321,1.321,0,0,1,1.366-1.379c.3-.029.608-.018.912-.018,4.915,0,9.831-.011,14.746.005a23.722,23.722,0,0,0,5.566-.616,11.9,11.9,0,0,0,9.461-9.924,26.661,26.661,0,0,0-.687-10.64,42.82,42.82,0,0,0-5.688-13.6,34.915,34.915,0,0,0-10.93-10.838,1.554,1.554,0,0,0-1.586,0c-.425.094-.535.278-.147.571.864.651,1.57,1.471,2.362,2.2a1.322,1.322,0,0,1,.44,1.457,1.286,1.286,0,0,1-1.118.934,1.563,1.563,0,0,1-1.38-.558c-.919-.969-2-1.771-2.9-2.75-.384-.414-.849-.734-1.261-1.115-.1-.093-.211-.23-.359-.158s-.126.238-.127.377c-.009.89,0,1.779-.006,2.668a1.44,1.44,0,0,1-1.337,1.575,1.488,1.488,0,0,1-1.387-1.5c-.05-.841-.007-1.685-.019-2.527,0-.181.061-.416-.131-.515-.24-.124-.379.113-.521.251-1.357,1.321-2.731,2.626-4.165,3.865a1.286,1.286,0,0,1-1.837.1A1.372,1.372,0,0,1,786.069-23c.685-.7,1.467-1.3,2.145-2.019.539-.568.541-.529-.151-.812a1.407,1.407,0,0,0-1.383.131,32.9,32.9,0,0,0-8.937,8.008c-.217.276-.425.559-.663.818a1.354,1.354,0,0,1-1.931.32,1.421,1.421,0,0,1-.186-2.07,22.4,22.4,0,0,1,1.659-2.087,1.963,1.963,0,0,0,.477-1.349c-.013-2.082,0-4.164-.007-6.247,0-.693-.022-.7-.655-.464A15.628,15.628,0,0,1,765-28.8c-.623-.242-.7-.2-.706.441-.01,2.222.005,4.445-.01,6.668,0,.6.241.79.829.841a11.368,11.368,0,0,1,5.806,1.873,3.911,3.911,0,0,1,1.81,3.443q-.039,1.683,0,3.369.009,6.5,0,12.99c0,1.025.03,1.082,1.07,1.049a14.966,14.966,0,0,1,6.453,1.093A6.589,6.589,0,0,1,782.206,4.2a3.834,3.834,0,0,1,1.35,2.9c-.012,4.657.012,9.315-.011,13.971a2.524,2.524,0,0,0-.007.349c.228,2.864-1.446,4.172-3.428,4.939a15.212,15.212,0,0,1-11.424.045c-.9-.356-.878-.341-1.5.424a7.966,7.966,0,0,1-5.243,2.669c-.5.081-1.016.03-1.515.147h-3.654a11.252,11.252,0,0,1-4.547-1.221,7.164,7.164,0,0,1-1.937-1.588,3.244,3.244,0,0,1-.542-1.406V18.119a4.157,4.157,0,0,1,2.23-2.726,5.317,5.317,0,0,1,1.538-.678.94.94,0,0,0,.813-1.17,4.6,4.6,0,0,1,0-.561c0-9.271.054-18.542-.036-27.812a4.963,4.963,0,0,1,3.327-4.983,13.579,13.579,0,0,1,3.028-.881c.8-.156.844-.183.845-.991.006-3.371.057-6.744-.017-10.113a4.565,4.565,0,0,1,2.743-4.5A14.56,14.56,0,0,1,772-37.672a13.036,13.036,0,0,1,4.37.957,8.354,8.354,0,0,1,2.114,1.236,3.605,3.605,0,0,1,1.4,2.861c-.008,2.5,0,5.01,0,7.515a2.566,2.566,0,0,0,.043.748c.148.106.239.017.322-.058a30.232,30.232,0,0,1,4.015-3.063c.365-.233.573-.442.188-.869a15.369,15.369,0,0,1-3.546-8.045,18.224,18.224,0,0,1-.175-3.361c.04-2.147,2.08-3.006,3.979-2.132a7.144,7.144,0,0,1,1.43,1.011,2.918,2.918,0,0,0,3.925,0A5.3,5.3,0,0,1,793.175-42.31Z" fill-rule="evenodd"/>
    <path id="Path_12125" data-name="Path 12125" d="M1133.032,214.325c-.28-.348-.084-.753-.134-1.129.047-.061.091-.057.134,0Z" transform="translate(-311.329 -207.589)" fill="#151515" fill-rule="evenodd"/>
    <path id="Path_12126" data-name="Path 12126" d="M1133.043,209.752c-.045,0-.089,0-.134,0,.046-.279-.136-.6.134-.839Z" transform="translate(-311.34 -204.14)" fill="#242424" fill-rule="evenodd"/>
    <path id="Path_12127" data-name="Path 12127" d="M885.62,91.218l-3.537-.008c-.008-4.583-.059-9.166,0-13.748a4.072,4.072,0,0,0-2.11-3.759,11.909,11.909,0,0,0-5.664-1.616,25.081,25.081,0,0,0-2.524,0c-.368.013-.54-.027-.538-.466.024-4.63.027-9.259.036-13.889a20.112,20.112,0,0,1,2.411-4.165c.08-.112.174-.225.342-.193.911.292,1.223.191,1.849-.632a33.988,33.988,0,0,1,9.364-8.588A1.459,1.459,0,0,1,886.9,44a5.431,5.431,0,0,0,.992.331c-1.006.939-1.959,1.83-2.915,2.718a1.257,1.257,0,0,0-.479,1.307,1.2,1.2,0,0,0,2.064.489c1.383-1.263,2.744-2.552,4.114-3.83q.18-.168.361-.334c.141-.129.291-.266.494-.162.186.1.107.292.108.443.008,1.007-.01,2.014.011,3.021a1.164,1.164,0,0,0,.942,1.229,1.141,1.141,0,0,0,1.27-.525,1.325,1.325,0,0,0,.177-.809c0-.96,0-1.92.006-2.881,0-.174-.093-.4.127-.506.239-.112.388.085.539.226q2.133,1.988,4.262,3.98a1.569,1.569,0,0,0,1.029.543,1.129,1.129,0,0,0,1.127-.69,1.163,1.163,0,0,0-.306-1.408c-.884-.837-1.78-1.662-2.672-2.492-.1-.095-.205-.188-.391-.358l.856-.2a1.109,1.109,0,0,1,1.1.281,29.592,29.592,0,0,1,2.516,2.024A39.932,39.932,0,0,1,913.12,62.689,44.149,44.149,0,0,1,915.648,73.1a13.419,13.419,0,0,1,.18,2.657c-.022.263.066.585-.3.71-.194-.049-.3-.218-.444-.332a.962.962,0,0,0-1.631.535,7.179,7.179,0,0,0-.163,1.179,7.861,7.861,0,0,1-2.546,5.313,9.753,9.753,0,0,1-5.543,2.149c-.419.043-.835.105-1.253.153-.711.081-1.055.419-1.03.988a1.124,1.124,0,0,0,1.157,1,8.612,8.612,0,0,0,1.256-.12,11.78,11.78,0,0,0,7.422-3.28,10.14,10.14,0,0,0,1.741-2.784c.111-.228.165-.494.4-.643.534.148.235.529.167.772a12.977,12.977,0,0,1-2.581,4.844,9.988,9.988,0,0,1-4.143,3.109,14.834,14.834,0,0,1-4.768.675c-5.453.018-10.906.006-16.358.008C886.169,90.036,885.889,90.248,885.62,91.218Z" transform="translate(-98.725 -69.974)" fill="#fedb00" fill-rule="evenodd"/>
    <path id="Path_12128" data-name="Path 12128" d="M801.223,116.339v.72c0,4.589-.007,9.177.009,13.765,0,.483-.089.744-.615.881a7.1,7.1,0,0,0-2.839,1.477,3.549,3.549,0,0,0-1.354,2.874c.031,2.528.009,5.056.009,7.585v.772a17.836,17.836,0,0,0-3.639-1.2,14.874,14.874,0,0,0-4.053-.2c-.6.052-.733-.068-.732-.669q.032-11.377.014-22.754c0-.89.027-1.78-.01-2.668-.023-.548.133-.559.584-.364a15.035,15.035,0,0,0,11.478.265C800.424,116.7,800.758,116.537,801.223,116.339Z" transform="translate(-31.091 -128.918)" fill="#fe9701" fill-rule="evenodd"/>
    <path id="Path_12129" data-name="Path 12129" d="M858.877,238v4.068c0,2.5-.038,5.01.021,7.514a1.834,1.834,0,0,1-1.051,1.807,10.318,10.318,0,0,1-4.292,1.178,13.1,13.1,0,0,1-6-.768,7.013,7.013,0,0,1-1.116-.579,1.545,1.545,0,0,1-.778-1.454c.029-3.7.014-7.4.014-11.1V238A15.606,15.606,0,0,0,858.877,238Z" transform="translate(-77.939 -227.78)" fill="#fedb00" fill-rule="evenodd"/>
    <path id="Path_12130" data-name="Path 12130" d="M943.31-17.774a30.474,30.474,0,0,0,2.192-5.143c.272-.923.038-1.542-.694-1.783s-1.306.138-1.59,1.057a21.75,21.75,0,0,1-2.651,5.619,1.1,1.1,0,0,1-1.83-.006,21.927,21.927,0,0,1-2.563-5.355c-.064-.2-.115-.406-.2-.6A1.17,1.17,0,0,0,934.5-24.7a1.162,1.162,0,0,0-.763,1.509,24.656,24.656,0,0,0,2.1,5.032c.077.141.149.284.226.432a3.671,3.671,0,0,1-2.742-.735,8.837,8.837,0,0,1-2.658-3.034,15.211,15.211,0,0,1-1.771-7.778,3.257,3.257,0,0,1,1.1.718,5.483,5.483,0,0,0,7.362-.043,3.127,3.127,0,0,1,4.529-.018,5.635,5.635,0,0,0,6.092.966.581.581,0,0,1,.155.58,14.834,14.834,0,0,1-3.42,8.376C944.331-18.271,944-17.739,943.31-17.774Z" transform="translate(-145.53 -10.348)" fill="#fedb00" fill-rule="evenodd"/>
    <path id="Path_12131" data-name="Path 12131" d="M837.59,39.454a30.933,30.933,0,0,0-2.463,3.984.761.761,0,0,1-.291.374c-.009-1.1-.058-2.2-.016-3.3a3.6,3.6,0,0,0-1.6-3.174,10.955,10.955,0,0,0-6.058-1.934c-.623-.039-.772-.209-.764-.811.034-2.6.015-5.2.015-7.921A15.135,15.135,0,0,0,833,28.137a14.837,14.837,0,0,0,6.6-1.468v1.815c0,1.943-.009,3.886.008,5.829a1.318,1.318,0,0,1-.35.941c-.611.708-1.2,1.438-1.77,2.179C836.843,38.268,836.876,38.692,837.59,39.454Z" transform="translate(-62.283 -56.052)" fill="#fe9701" fill-rule="evenodd"/>
    <path id="Path_12132" data-name="Path 12132" d="M1034.266,76.4a3.933,3.933,0,0,0,.085-1.8,47.4,47.4,0,0,0-1.219-7.212,43.865,43.865,0,0,0-7.547-15.823,36.634,36.634,0,0,0-7.115-6.986,1.726,1.726,0,0,0-1.125-.514,1.516,1.516,0,0,1,1.892.074,36.01,36.01,0,0,1,13.854,16.423,38.986,38.986,0,0,1,3.649,15.374,13.924,13.924,0,0,1-2.678,9.033,12.153,12.153,0,0,1-7,4.356,18.415,18.415,0,0,0,2.8-1.955,12.688,12.688,0,0,0,3.9-6.639c.007-.032-.045-.076-.069-.115a.4.4,0,0,1-.083-.454,14.9,14.9,0,0,0,.528-3.525A.306.306,0,0,1,1034.266,76.4Z" transform="translate(-217.448 -69.945)" fill="#fdc008" fill-rule="evenodd"/>
    <path id="Path_12133" data-name="Path 12133" d="M852.551,207.314a11.662,11.662,0,0,1,5.176,1.028c.6.291,1.362.6,1.354,1.367s-.754,1.1-1.37,1.357a13.126,13.126,0,0,1-10.356.008c-.614-.252-1.365-.591-1.381-1.347-.017-.807.779-1.1,1.4-1.406A11.723,11.723,0,0,1,852.551,207.314Z" transform="translate(-78.191 -202.844)" fill="#feea3a" fill-rule="evenodd"/>
    <path id="Path_12134" data-name="Path 12134" d="M794.952,85.75a11.535,11.535,0,0,1,5.109,1.006c.622.3,1.412.6,1.393,1.4-.018.755-.765,1.093-1.381,1.346a13.1,13.1,0,0,1-10.353-.012c-.617-.257-1.363-.6-1.371-1.355s.754-1.071,1.357-1.364A11.633,11.633,0,0,1,794.952,85.75Z" transform="translate(-31.366 -104.061)" fill="#fedb00" fill-rule="evenodd"/>
    <path id="Path_12135" data-name="Path 12135" d="M769.286,275.884a11.6,11.6,0,0,1-5.175-1.03c-.6-.291-1.364-.594-1.35-1.367s.758-1.1,1.372-1.354a13.121,13.121,0,0,1,10.356-.005c.616.253,1.369.594,1.381,1.348.012.8-.778,1.1-1.4,1.4A11.691,11.691,0,0,1,769.286,275.884Z" transform="translate(-10.572 -254.648)" fill="#feea3a" fill-rule="evenodd"/>
    <path id="Path_12136" data-name="Path 12136" d="M833.349.716a11.686,11.686,0,0,1-5.177-1.008c-.606-.292-1.365-.588-1.39-1.343-.027-.814.758-1.147,1.39-1.408a13.113,13.113,0,0,1,10.286-.016c.629.256,1.418.576,1.414,1.389s-.79,1.092-1.413,1.391A11.6,11.6,0,0,1,833.349.716Z" transform="translate(-62.596 -31.048)" fill="#fedb00" fill-rule="evenodd"/>
    <path id="Path_12137" data-name="Path 12137" d="M775.579,302.024c0,.879.013,1.714,0,2.548-.011.563-.434.858-.845,1.127a8.325,8.325,0,0,1-3.281,1.145,13.87,13.87,0,0,1-6.781-.47,8.678,8.678,0,0,1-1.154-.5,1.788,1.788,0,0,1-1.146-1.954,15.775,15.775,0,0,0,.014-1.9A15.635,15.635,0,0,0,775.579,302.024Z" transform="translate(-10.237 -279.806)" fill="#fedb00" fill-rule="evenodd"/>
    <path id="Path_12138" data-name="Path 12138" d="M1005.827-16.936a8.353,8.353,0,0,0,3.091-3.78,15.351,15.351,0,0,0,1.567-6.095l2.453-1.734a17.041,17.041,0,0,1-.187,2.845,13.131,13.131,0,0,1-2.615,6.485,6.018,6.018,0,0,1-3.536,2.367,1.263,1.263,0,0,1-.815.012c-.008,0-.011-.036,0-.049A.258.258,0,0,1,1005.827-16.936Z" transform="translate(-208.047 -11.185)" fill="#fdc008" fill-rule="evenodd"/>
    <path id="Path_12139" data-name="Path 12139" d="M961.7,105.76c0,.585.03,1.173-.009,1.755-.031.458.081.615.582.68a4.785,4.785,0,0,1,1,9.277,1.937,1.937,0,0,1-.74.193c-.824-.078-.87.375-.843,1.019.039.93-.4,1.424-1.151,1.437-.775.014-1.265-.513-1.217-1.458.034-.671-.1-.915-.851-1.023a4.724,4.724,0,0,1-3.953-4.607,1.184,1.184,0,0,1,1.136-1.263,1.158,1.158,0,0,1,1.251,1.138c.013.116.009.235.027.35a2.456,2.456,0,0,0,1.878,2.04c.33.063.514.038.5-.4-.028-1.31-.02-2.621,0-3.932,0-.333-.106-.408-.431-.45a4.783,4.783,0,0,1,.048-9.534c.325-.015.392-.153.379-.431a5.785,5.785,0,0,1,.007-.842,1.182,1.182,0,0,1,1.264-1.135,1.076,1.076,0,0,1,1.1,1.2c-.081.88.188,1.18,1.089,1.347a4.586,4.586,0,0,1,3.722,4.413c.022.829-.358,1.329-1.056,1.392-.733.066-1.22-.38-1.332-1.217a2.418,2.418,0,0,0-1.828-2.294c-.4-.1-.608-.038-.579.451C961.728,104.494,961.7,105.128,961.7,105.76Z" transform="translate(-166.391 -114.483)" fill-rule="evenodd"/>
    <path id="Path_12140" data-name="Path 12140" d="M1051.9,214.491a11.354,11.354,0,0,1-.573,4.215c-1.677,4.624-5.319,6.435-9.9,6.9a7.434,7.434,0,0,1-1.259.069,1.156,1.156,0,0,1-1.128-1.2,1.127,1.127,0,0,1,1.142-1.17,15.209,15.209,0,0,0,4.327-.8c3.088-1.139,4.567-3.47,4.97-6.615.036-.278.054-.56.064-.84a1.221,1.221,0,0,1,.933-1.314A1.186,1.186,0,0,1,1051.9,214.491Z" transform="translate(-235.077 -208.036)" fill-rule="evenodd"/>
    <path id="Path_12141" data-name="Path 12141" d="M992.812,164.842c0-.652.013-1.3,0-1.957-.009-.323.113-.4.415-.353a2.415,2.415,0,0,1,.1,4.733c-.414.078-.531-.063-.513-.466C992.833,166.148,992.812,165.495,992.812,164.842Z" transform="translate(-197.505 -166.446)" fill="#fdda00" fill-rule="evenodd"/>
    <path id="Path_12142" data-name="Path 12142" d="M969.687,126.559c0,.655-.024,1.311.008,1.964.021.423-.148.462-.5.385a2.4,2.4,0,0,1-.074-4.686c.4-.1.606-.051.574.443C969.655,125.294,969.687,125.928,969.687,126.559Z" transform="translate(-176.775 -135.289)" fill="#fedb00" fill-rule="evenodd"/>
  </g>
</svg>
