<svg xmlns="http://www.w3.org/2000/svg" width="583.805" height="593.348" viewBox="0 0 583.805 593.348">
  <g id="Email_campaign-amico_1_" data-name="Email campaign-amico(1)" transform="translate(-29.443 -29.122)">
    <g id="freepik--Floor--inject-3" transform="translate(30.415 265.798)">
      <ellipse id="freepik--floor--inject-3-2" data-name="freepik--floor--inject-3" cx="291.416" cy="178.336" rx="291.416" ry="178.336" fill="#f5f5f5"/>
    </g>
    <g id="freepik--Shadows--inject-3" transform="translate(38.066 257.914)">
      <path id="freepik--Shadow--inject-3" d="M380.972,425.82a8.708,8.708,0,0,1-4.348-1.028L325.1,394.982a5.337,5.337,0,0,1,0-9.542l85.367-49.257a9.216,9.216,0,0,1,8.708,0L470.7,365.928a5.337,5.337,0,0,1,0,9.542l-85.367,49.322a8.761,8.761,0,0,1-4.361,1.028Z" transform="translate(50.252 -165.597)" fill="#e0e0e0"/>
      <path id="freepik--shadow--inject-3-2" data-name="freepik--shadow--inject-3" d="M299.542,475a83.31,83.31,0,0,1-19.3-2.2,71.087,71.087,0,0,1-17.039-6.287l-.117-.065c-1.041-.586-2.369-1.38-4.087-2.447s-3.254-2.07-4.947-3.176-3.306-2.187-4.79-3.215-2.747-1.914-3.632-2.6a34.692,34.692,0,0,1-9.919-11.716,23.21,23.21,0,0,1-2.083-15.048,31.046,31.046,0,0,1,7.81-14.579c4.009-4.491,9.633-8.617,17.183-12.614a113.251,113.251,0,0,1,24.069-9.672,89.182,89.182,0,0,1,21.856-3.137h.651a71.242,71.242,0,0,1,18.953,2.46,82.01,82.01,0,0,1,16.753,6.691q3.059,1.705,6.6,4.022c2.4,1.562,4.4,2.968,6.118,4.3a19.928,19.928,0,0,1,6.7,7.81,14.827,14.827,0,0,1,1.159,8.292h.937a10.8,10.8,0,0,1,6.509,2.07,7.81,7.81,0,0,1,3.267,7.654,45.558,45.558,0,0,1-1.588,6.652,26.971,26.971,0,0,1-4.738,8.513,51.649,51.649,0,0,1-8.63,8.318,103.953,103.953,0,0,1-35.967,17.274,92.893,92.893,0,0,1-21.257,2.695Zm-4.569-44.115c.234.169.495.351.794.534a15.541,15.541,0,0,0,6.782,2.6c.417,0,.82.065,1.2.065a8.227,8.227,0,0,0,2.786-.456c-.208-.156-.443-.312-.7-.482a16.493,16.493,0,0,0-6.86-2.721,9.4,9.4,0,0,0-1.2-.078A8.214,8.214,0,0,0,294.973,430.885Z" transform="translate(23.405 -149.561)" fill="#e0e0e0"/>
      <path id="freepik--shadow--inject-3-3" data-name="freepik--shadow--inject-3" d="M206.284,506.592,38.713,410.056c-3.528-2.031-3.528-5.337,0-7.381l340.075-196.26a14.124,14.124,0,0,1,12.8,0l167.57,96.523c3.541,2.031,3.541,5.35,0,7.381L219.08,506.592a14.2,14.2,0,0,1-12.8,0Z" transform="translate(-36.068 -204.883)" fill="#e0e0e0"/>
    </g>
    <g id="freepik--Clouds--inject-3" transform="translate(81.56 29.122)">
      <g id="freepik--clouds--inject-3-2" data-name="freepik--clouds--inject-3">
        <path id="Path_2729" data-name="Path 2729" d="M169.8,60.451l-8.526,4.921a11.037,11.037,0,0,0,.078-1.119V61.779c0-4.4-3.085-6.183-6.9-3.983a13.46,13.46,0,0,0-4.113,3.905c-.625-5.532-4.96-7.589-10.232-4.556A22.819,22.819,0,0,0,129.8,75.017v3.7A9.71,9.71,0,0,0,130.668,83l-7.081,4.087a8.461,8.461,0,0,0-3.827,6.743c0,2.434,1.718,3.424,3.827,2.2L169.8,69.355a8.448,8.448,0,0,0,3.827-6.626C173.625,60.217,171.92,59.228,169.8,60.451Z" transform="translate(-54.309 -21.089)" fill="#ebebeb"/>
        <path id="Path_2730" data-name="Path 2730" d="M128.591,45.886l-4.7,1.809V37.281c0-8.227-6.509-10.192-13.668-6.079h0c-7.12,4.1-12.887,14.1-12.887,22.311V55a6.925,6.925,0,0,0-5.975.924h0a20.515,20.515,0,0,0-9.268,16.063v.677L75.585,76.45A13.525,13.525,0,0,0,69.48,87.033c0,3.905,2.734,5.467,6.105,3.515l53.058-30.629a13.5,13.5,0,0,0,6.105-10.583C134.7,45.456,131.963,43.881,128.591,45.886Z" transform="translate(-69.48 -29.122)" fill="#ebebeb"/>
      </g>
    </g>
    <g id="freepik--Plant--inject-3" transform="translate(29.443 342.545)">
      <g id="freepik--Plants--inject-3">
        <path id="Path_2731" data-name="Path 2731" d="M65.969,352.755l8.865-5.116s5.272-21.908,3.176-41.655c-2.955-27.714-21.205-38.14-28.143-35.758S40.924,280.64,52.406,297.2C59.174,306.961,67.492,327.307,65.969,352.755Z" transform="translate(-24.982 -269.897)" fill="#8880f7"/>
        <g id="Group_3272" data-name="Group 3272" transform="translate(19.245)" opacity="0.15">
          <path id="Path_2732" data-name="Path 2732" d="M65.969,352.755l8.865-5.116s5.272-21.908,3.176-41.655c-2.955-27.714-21.205-38.14-28.143-35.758S40.924,280.64,52.406,297.2C59.174,306.961,67.492,327.307,65.969,352.755Z" transform="translate(-44.228 -269.897)"/>
        </g>
        <path id="Path_2733" data-name="Path 2733" d="M67.431,341.047h-.078a.612.612,0,0,1-.495-.716c4.8-25.579-4.074-54.321-15.126-66.258a.612.612,0,0,1,0-.872.625.625,0,0,1,.872,0c11.247,12.21,20.359,41.447,15.464,67.351A.586.586,0,0,1,67.431,341.047Z" transform="translate(-22.773 -268.954)" fill="#fff"/>
        <path id="Path_2734" data-name="Path 2734" d="M45.958,363.962c-1.406.716-5.129-2.473-6.157-3.241a12.913,12.913,0,0,1-4.074-5.207,12.262,12.262,0,0,1-.716-7.355,30.161,30.161,0,0,1,1.119-3.84c.43-1.237.859-2.473,1.3-3.723a9.489,9.489,0,0,0,.755-3.775c-.208-2.6-2.408-4.517-4.413-6.183-2.213-1.835-4.491-4.231-4.322-7.329a10.974,10.974,0,0,1,3.059-6.365c1.588-1.809,3.437-3.384,4.868-5.3a7.654,7.654,0,0,0,1.783-4.738,7.81,7.81,0,0,0-.9-3.059,44.593,44.593,0,0,1-2.994-6.209c-.651-2.213-.4-4.907,1.3-6.378a7.173,7.173,0,0,1,5.415-1.067,12.419,12.419,0,0,1,4.881,2c4.79,2.994,7.3,8.969,12.431,11.338a51.549,51.549,0,0,0,6.248,1.874,7.81,7.81,0,0,1,5.051,3.84c1.718,3.905-2.083,8.474-.937,12.614,1.015,3.671,4.452,5.207,6.248,8.565a7.576,7.576,0,0,1,.677,4.764A22.442,22.442,0,0,1,74.205,343a69.359,69.359,0,0,1-4.738,7.277S46.166,363.858,45.958,363.962Z" transform="translate(-29.443 -263.817)" fill="#8880f7"/>
        <path id="Path_2735" data-name="Path 2735" d="M56.393,355.714h0a.612.612,0,0,1-.56-.664c2.239-24.316-7.888-51.808-15.842-60.035a.625.625,0,0,1,0-.872.612.612,0,0,1,.872,0c8.11,8.422,18.445,36.318,16.115,61.051a.6.6,0,0,1-.586.521Z" transform="translate(-26.314 -262.637)" fill="#fff"/>
        <path id="Path_2736" data-name="Path 2736" d="M54.927,319.523a.456.456,0,0,1-.182,0,82.011,82.011,0,0,0-17.534-3.736.638.638,0,0,1-.56-.677.6.6,0,0,1,.664-.56,84.734,84.734,0,0,1,17.86,3.814.625.625,0,0,1-.247,1.2Z" transform="translate(-27.269 -256.426)" fill="#fff"/>
      </g>
    </g>
    <g id="freepik--Device--inject-3" transform="translate(42.847 245.814)">
      <g id="freepik--device--inject-3-2" data-name="freepik--device--inject-3">
        <g id="freepik--Mobile--inject-3">
          <path id="Path_2737" data-name="Path 2737" d="M48.7,406.7l155.79,89.936a16.792,16.792,0,0,0,16.259.3l313.65-181.056c4.947-2.851,8.943-9.242,8.956-14.319s-4.009-11.4-8.956-14.254L379.177,197.726a19.773,19.773,0,0,0-17.886,0L48.7,378.2c-4.947,2.864-8.956,9.242-8.956,14.254S43.749,403.853,48.7,406.7Z" transform="translate(-39.74 -195.588)" fill="#181c3a"/>
          <path id="Path_2738" data-name="Path 2738" d="M204.486,476.3,48.7,386.364c-4.947-2.851-8.956-9.229-8.956-14.254s4.009-11.39,8.956-14.254L212.96,263V478.526a16.518,16.518,0,0,1-8.474-2.226Z" transform="translate(-39.74 -175.248)" fill="#37474f"/>
          <path id="Path_2739" data-name="Path 2739" d="M206.972,480.616a17.534,17.534,0,0,0,15.777,0L533.21,301.369c6.678-3.905,6.678-10.166,0-14.02L377.966,197.726a19.773,19.773,0,0,0-17.886,0L47.485,378.2c-4.921,2.851-4.921,7.5,0,10.336Z" transform="translate(-38.517 -195.588)" fill="#181c3a"/>
          <path id="Path_2740" data-name="Path 2740" d="M215.392,458.716a18.732,18.732,0,0,0,17,0L499.519,304.475c4.7-2.708,4.7-7.107,0-9.815l-146.014-84.3a18.81,18.81,0,0,0-17,0L69.352,364.588c-4.673,2.708-4.673,7.12,0,9.828Z" transform="translate(-31.863 -191.743)" fill="#37474f"/>
          <path id="Path_2741" data-name="Path 2741" d="M280.69,208.35a17.209,17.209,0,0,1,7.993,2l146.014,84.3c4.7,2.708,4.7,7.107,0,9.815l-28.924,16.675L280.69,241.271Z" transform="translate(32.96 -191.737)" fill="#37474f"/>
          <path id="Path_2742" data-name="Path 2742" d="M336.1,215.261a18.81,18.81,0,0,1,17,0l146.04,84.3a8.851,8.851,0,0,1,2.226,1.783A8.578,8.578,0,0,1,499.246,303L232.093,457.237a18.732,18.732,0,0,1-17,0l-146.04-84.3a8.7,8.7,0,0,1-2.213-1.77,8.526,8.526,0,0,1,2.109-1.666Z" transform="translate(-31.563 -190.265)" fill="#fafafa"/>
          <path id="Path_2743" data-name="Path 2743" d="M364.28,248.688,338.4,233.744c-1.549-.9-1.627-2.291-.182-3.124a6,6,0,0,1,5.428.091l25.839,14.9c1.549.9,1.627,2.291.169,3.137a6.014,6.014,0,0,1-5.376-.065Z" transform="translate(50.006 -185.2)" fill="#37474f"/>
          <path id="Path_2744" data-name="Path 2744" d="M324.122,225.526a1.6,1.6,0,0,1,0-3.033,5.819,5.819,0,0,1,5.207,0,1.6,1.6,0,0,1,0,3.033A5.819,5.819,0,0,1,324.122,225.526Z" transform="translate(45.736 -187.655)" fill="#37474f"/>
          <path id="Path_2745" data-name="Path 2745" d="M316.062,220.846a1.6,1.6,0,0,1,0-3.033,5.819,5.819,0,0,1,5.207,0,1.6,1.6,0,0,1,0,3.033A5.819,5.819,0,0,1,316.062,220.846Z" transform="translate(43.304 -189.067)" fill="#37474f"/>
          <path id="Path_2746" data-name="Path 2746" d="M380.542,258.1a1.6,1.6,0,0,1,0-3.033,5.819,5.819,0,0,1,5.207,0,1.6,1.6,0,0,1,0,3.033,5.819,5.819,0,0,1-5.207,0Z" transform="translate(62.759 -177.828)" fill="#37474f"/>
          <path id="Path_2747" data-name="Path 2747" d="M372.482,253.436a1.6,1.6,0,0,1,0-3.033,5.818,5.818,0,0,1,5.207,0,1.6,1.6,0,0,1,0,3.033,5.819,5.819,0,0,1-5.207,0Z" transform="translate(60.327 -179.234)" fill="#37474f"/>
        </g>
        <g id="freepik--mail-notification--inject-3" transform="translate(177.008 186.856)">
          <path id="Path_2748" data-name="Path 2748" d="M175.72,374.972v.534a3.124,3.124,0,0,0,1.406,2.46l30.4,17.547a3.2,3.2,0,0,0,2.838,0L260.7,366.484a3.15,3.15,0,0,0,1.406-2.46v-.56A3.124,3.124,0,0,0,260.7,361l-30.4-17.547a3.2,3.2,0,0,0-2.838,0l-50.338,29.054A3.124,3.124,0,0,0,175.72,374.972Z" transform="translate(-175.72 -337.928)" fill="#8880f7"/>
          <path id="Path_2749" data-name="Path 2749" d="M175.72,374.972v.534a3.124,3.124,0,0,0,1.406,2.46l30.4,17.547a3.2,3.2,0,0,0,2.838,0L260.7,366.484a3.15,3.15,0,0,0,1.406-2.46v-.56A3.124,3.124,0,0,0,260.7,361l-30.4-17.547a3.2,3.2,0,0,0-2.838,0l-50.338,29.054A3.124,3.124,0,0,0,175.72,374.972Z" transform="translate(-175.72 -337.928)" fill="#8880f7"/>
          <path id="Path_2750" data-name="Path 2750" d="M252.993,361l-30.4-17.547a3.2,3.2,0,0,0-2.838,0l-18.51,10.7v41.655h0a2.968,2.968,0,0,0,1.419-.338l50.325-28.989a3.15,3.15,0,0,0,1.406-2.46v-.56a3.124,3.124,0,0,0-1.406-2.46Z" transform="translate(-168.017 -337.928)" fill="#fff" opacity="0.3"/>
          <path id="Path_2751" data-name="Path 2751" d="M252.993,361l-30.4-17.547a3.2,3.2,0,0,0-2.838,0l-18.51,10.7v41.655h0a2.968,2.968,0,0,0,1.419-.338l50.325-28.989a3.15,3.15,0,0,0,1.406-2.46v-.56a3.124,3.124,0,0,0-1.406-2.46Z" transform="translate(-168.017 -337.928)" opacity="0.15"/>
          <path id="Path_2752" data-name="Path 2752" d="M208.94,351.6l-31.814,18.354a3.124,3.124,0,0,0-1.406,2.46v.534a3.124,3.124,0,0,0,1.406,2.46l30.4,17.547a2.929,2.929,0,0,0,1.419.339h0Z" transform="translate(-175.72 -335.371)" fill="#fff" opacity="0.3"/>
          <path id="Path_2753" data-name="Path 2753" d="M208.94,351.6l-31.814,18.354a3.124,3.124,0,0,0-1.406,2.46v.534a3.124,3.124,0,0,0,1.406,2.46l30.4,17.547a2.929,2.929,0,0,0,1.419.339h0Z" transform="translate(-175.72 -335.371)" opacity="0.2"/>
          <path id="Path_2754" data-name="Path 2754" d="M202.46,388.875l-25.527-14.683a.872.872,0,0,1,0-1.64L227.258,343.5a3.2,3.2,0,0,1,2.838,0l30.408,17.5a.872.872,0,0,1,0,1.64l-8.357,4.816-2.916,1.692-39.052,22.546a3.111,3.111,0,0,1-2.838,0l-2.473-1.432Z" transform="translate(-175.527 -337.916)" fill="#8880f7"/>
          <path id="Path_2755" data-name="Path 2755" d="M202.46,388.875l-25.527-14.683a.872.872,0,0,1,0-1.64L227.258,343.5a3.2,3.2,0,0,1,2.838,0l30.408,17.5a.872.872,0,0,1,0,1.64l-8.357,4.816-2.916,1.692-39.052,22.546a3.111,3.111,0,0,1-2.838,0l-2.473-1.432Z" transform="translate(-175.527 -337.916)" fill="#fff" opacity="0.3"/>
          <path id="Path_2756" data-name="Path 2756" d="M225.627,364.407l34.873-3.4-34.548,1.953,4.152-19.526a3.15,3.15,0,0,0-1.549-.325l-6.509,26.36-45.677,3.775a.976.976,0,0,0,.573.885L213.834,372l-5.077,20.02,6.509-20.112h0l6.3-.364a3.346,3.346,0,0,0,2.07-.872h0a3.45,3.45,0,0,0,1.054-1.822Z" transform="translate(-175.524 -337.934)" opacity="0.15"/>
          <path id="Path_2757" data-name="Path 2757" d="M187.255,372.367l34.782-2.877,1.3-4.973.69-2.773,4.6-18.615a3.007,3.007,0,0,0-1.3.325L202.16,357.983,176.933,372.51a1.041,1.041,0,0,0-.573.755l6.977-.573Z" transform="translate(-175.527 -337.927)" fill="#fff" opacity="0.3"/>
          <path id="Path_2758" data-name="Path 2758" d="M212.682,340.509a12.718,12.718,0,0,1,11.507,0c3.176,1.835,3.176,4.8,0,6.639a12.718,12.718,0,0,1-11.507,0C209.506,345.312,209.506,342.344,212.682,340.509Z" transform="translate(-165.286 -339.133)" fill="#f28f8f"/>
          <path id="Path_2759" data-name="Path 2759" d="M213.53,344.38a.546.546,0,0,1-.234-.078.182.182,0,0,1-.065-.169l.482-2.083v-.2a.326.326,0,0,1,.169-.182l1.172-.677a.5.5,0,0,1,.247-.065.508.508,0,0,1,.26.065l6.17,3.554a.156.156,0,0,1,0,.3l-1.3.729a.548.548,0,0,1-.26,0,.52.52,0,0,1-.26,0l-4.165-2.408-.273,1.146c0,.065-.065.1-.143.143a.469.469,0,0,1-.273,0Z" transform="translate(-164.403 -338.591)" fill="#fafafa"/>
        </g>
        <g id="freepik--Notification--inject-3" transform="translate(248.043 108.429)">
          <path id="Path_2760" data-name="Path 2760" d="M265.059,372.173l-34.183-19.734c-.781-.456-.781-1.185,0-1.627l124.08-71.595a3.137,3.137,0,0,1,2.812,0l34.2,19.747c.781.443.781,1.172,0,1.627l-124.08,71.595a3.085,3.085,0,0,1-2.825-.013Z" transform="translate(-230.29 -278.884)" fill="#8880f7"/>
          <path id="Path_2761" data-name="Path 2761" d="M254.694,334.488a.678.678,0,0,1-.351.091h-.273l-7.107-.807,4.2,2.434a.169.169,0,0,1,0,.312l-.833.482a.455.455,0,0,1-.273,0,.469.469,0,0,1-.273,0l-6.6-3.8c-.078,0-.117-.1-.117-.169a.2.2,0,0,1,.117-.156l.716-.417a.7.7,0,0,1,.351-.091h.286l7.107.807-4.218-2.434a.169.169,0,0,1,0-.312l.833-.482a.6.6,0,0,1,.273-.065.534.534,0,0,1,.273.065l6.6,3.814a.156.156,0,0,1,0,.312Z" transform="translate(-226.434 -263.498)" fill="#fafafa"/>
          <path id="Path_2762" data-name="Path 2762" d="M251.946,332.1a3.448,3.448,0,0,1-.9-.716,1.484,1.484,0,0,1-.377-.794,1.3,1.3,0,0,1,.208-.807,2.161,2.161,0,0,1,.82-.716,4.454,4.454,0,0,1,1.237-.482,6.077,6.077,0,0,1,1.367-.13,6.506,6.506,0,0,1,1.3.182,4.709,4.709,0,0,1,1.172.482l.456.26a.169.169,0,0,1,0,.312l-3.411,1.979a1.641,1.641,0,0,0,.521.182,2.6,2.6,0,0,0,.56,0,4.277,4.277,0,0,0,.56-.117,2.472,2.472,0,0,0,.495-.221,1.979,1.979,0,0,0,.469-.339.65.65,0,0,0,.169-.3.416.416,0,0,1,.078-.169.571.571,0,0,1,.156-.13l.82-.469a.6.6,0,0,1,.273-.065.429.429,0,0,1,.273.065.482.482,0,0,1,.208.3.847.847,0,0,1,0,.508,1.627,1.627,0,0,1-.364.638,3.2,3.2,0,0,1-.846.677,5.088,5.088,0,0,1-1.237.482,5.938,5.938,0,0,1-1.367.13,6.117,6.117,0,0,1-1.3-.221A6,6,0,0,1,251.946,332.1Zm.976-2.33a1.484,1.484,0,0,0-.417.338.651.651,0,0,0-.13.339.508.508,0,0,0,.091.3.677.677,0,0,0,.221.247l2.3-1.3a2.724,2.724,0,0,0-.391-.143,1.966,1.966,0,0,0-.495-.078,2.84,2.84,0,0,0-.56.065,3.039,3.039,0,0,0-.625.234Z" transform="translate(-224.142 -263.93)" fill="#fafafa"/>
          <path id="Path_2763" data-name="Path 2763" d="M262.626,327.236l-1.992-2.226a.313.313,0,0,1-.078-.143.182.182,0,0,1,.117-.156l.768-.456a.625.625,0,0,1,.286-.065.6.6,0,0,1,.273.065h0l3.176,3.606a.442.442,0,0,1,.078.156.209.209,0,0,1-.117.169l-.781.443a.469.469,0,0,1-.286.065H263.8l-3.71-1,1.731,2.148a.443.443,0,0,1,.078.156.182.182,0,0,1-.117.156l-.768.456a.481.481,0,0,1-.286.065.923.923,0,0,1-.273,0L254.2,328.85h-.078a.156.156,0,1,1,0-.312l.768-.456a.482.482,0,0,1,.286-.065h.247l3.84,1.146-1.94-2.252a.182.182,0,0,1,0-.143.156.156,0,0,1,.1-.156l.781-.456a.572.572,0,0,1,.273,0,.781.781,0,0,1,.26,0Z" transform="translate(-223.145 -265.215)" fill="#fafafa"/>
          <path id="Path_2764" data-name="Path 2764" d="M264.468,324.848a3.475,3.475,0,0,1-.9-.729,1.445,1.445,0,0,1-.378-.794,1.119,1.119,0,0,1,.2-.794,2.407,2.407,0,0,1,.82-.729,4.7,4.7,0,0,1,1.3-.482,6.819,6.819,0,0,1,1.3-.13,5.856,5.856,0,0,1,1.3.2,4.245,4.245,0,0,1,1.172.469l.456.26q.117.078.117.156c0,.065,0,.117-.117.169l-3.411,1.966a1.394,1.394,0,0,0,.508.182,2.694,2.694,0,0,0,.56,0,2.241,2.241,0,0,0,.573-.117,1.9,1.9,0,0,0,.495-.221,1.666,1.666,0,0,0,.469-.339.742.742,0,0,0,.169-.286.5.5,0,0,1,.065-.182.378.378,0,0,1,.169-.117l.82-.482a.612.612,0,0,1,.547,0,.625.625,0,0,1,.208.313.846.846,0,0,1,0,.508,2.189,2.189,0,0,1-.365.638,3.281,3.281,0,0,1-.859.664,4.451,4.451,0,0,1-1.237.482,5.208,5.208,0,0,1-1.3.13,5.544,5.544,0,0,1-1.38-.221A5.284,5.284,0,0,1,264.468,324.848Zm.976-2.33a1.146,1.146,0,0,0-.417.338.534.534,0,0,0-.13.338.5.5,0,0,0,.078.3,1.3,1.3,0,0,0,.221.234l2.317-1.3a2.409,2.409,0,0,0-.4-.143,1.872,1.872,0,0,0-.482-.065,1.692,1.692,0,0,0-.56.065,1.822,1.822,0,0,0-.625.273Z" transform="translate(-220.366 -266.12)" fill="#fafafa"/>
          <path id="Path_2765" data-name="Path 2765" d="M268.63,320.6a.872.872,0,0,1,.143-.612,1.522,1.522,0,0,1,.56-.508,3.658,3.658,0,0,1,1.3-.469,4.568,4.568,0,0,1,1.3,0,1,1,0,0,1,0-.39,1.158,1.158,0,0,1,.143-.4,1.474,1.474,0,0,1,.286-.364,2.5,2.5,0,0,1,.4-.3,3.724,3.724,0,0,1,1.158-.443,4.27,4.27,0,0,1,1.146-.065,4.542,4.542,0,0,1,1.106.247,6.416,6.416,0,0,1,1,.469l2.76,1.588a.182.182,0,0,1,0,.325l-.781.443a.6.6,0,0,1-.273.065.625.625,0,0,1-.286-.065l-2.695-1.562a2.747,2.747,0,0,0-1.237-.4,2.018,2.018,0,0,0-1.015.273.716.716,0,0,0-.43.56c0,.208.182.456.612.716l2.747,1.588a.156.156,0,1,1,0,.312l-.781.456a.534.534,0,0,1-.273.065.6.6,0,0,1-.273-.065l-2.695-1.562a2.5,2.5,0,0,0-1.237-.4,1.757,1.757,0,0,0-1.015.273.716.716,0,0,0-.443.573c0,.221.208.469.677.729l2.695,1.549a.221.221,0,0,1,.1.169.2.2,0,0,1-.1.156l-.781.443a.612.612,0,0,1-.547,0l-4.764-2.747a.156.156,0,1,1,0-.312l.781-.456a.534.534,0,0,1,.273-.065.6.6,0,0,1,.273.065Z" transform="translate(-219.217 -267.375)" fill="#fafafa"/>
          <path id="Path_2766" data-name="Path 2766" d="M275.133,317.184a1.119,1.119,0,0,1-.273-.378.833.833,0,0,1,0-.508,1.3,1.3,0,0,1,.3-.586,2.668,2.668,0,0,1,.781-.612,5.647,5.647,0,0,1,1.08-.469,5.427,5.427,0,0,1,1.119-.182,3.749,3.749,0,0,1,1.133.13,4.347,4.347,0,0,1,1.093.43l3.007,1.731a.221.221,0,0,1,.1.169.182.182,0,0,1-.1.156l-.781.443a.468.468,0,0,1-.273.065.429.429,0,0,1-.273-.065l-.338-.2a.872.872,0,0,1-.117.651,2.083,2.083,0,0,1-.82.716,3.9,3.9,0,0,1-.9.39,3.787,3.787,0,0,1-.911.143,4.729,4.729,0,0,1-.872-.078,2.865,2.865,0,0,1-.768-.3c-.469-.273-.664-.586-.6-.924a1.978,1.978,0,0,1,.794-1.093l1.38-1.119a1.3,1.3,0,0,0-.872-.182,2.317,2.317,0,0,0-.859.286,1.054,1.054,0,0,0-.325.273.729.729,0,0,0-.078.273.654.654,0,0,1,0,.169.4.4,0,0,1-.143.1l-.95.56a.442.442,0,0,1-.234,0,.26.26,0,0,1-.3,0Zm4.582.677a2.016,2.016,0,0,0,.521-.417.768.768,0,0,0,.2-.417.586.586,0,0,0-.091-.364.911.911,0,0,0-.325-.3l-.1-.065-1.146.95a1.015,1.015,0,0,0-.391.469.3.3,0,0,0,.182.325.794.794,0,0,0,.534,0,2.134,2.134,0,0,0,.625-.182Z" transform="translate(-216.855 -268.154)" fill="#fafafa"/>
          <path id="Path_2767" data-name="Path 2767" d="M278.119,312.015a.612.612,0,0,1,.547,0l.794.456a.2.2,0,0,1,.117.156c0,.065,0,.117-.117.169l-.872.508a.6.6,0,0,1-.273.065.625.625,0,0,1-.286-.065l-.794-.469a.169.169,0,0,1,0-.312Zm7.2,3.905c.078,0,.117.1.117.169s0,.1-.117.156l-.781.443a.56.56,0,0,1-.273.065.469.469,0,0,1-.273-.065l-4.764-2.747a.182.182,0,0,1-.1-.156.156.156,0,0,1,.1-.156l.781-.456a.6.6,0,0,1,.273-.065.534.534,0,0,1,.273.065Z" transform="translate(-216.157 -268.908)" fill="#fafafa"/>
          <path id="Path_2768" data-name="Path 2768" d="M287.406,314.72a.169.169,0,0,1,0,.312l-.768.456a.6.6,0,0,1-.273.065.625.625,0,0,1-.286-.065l-6.7-3.905a.221.221,0,0,1-.1-.169.2.2,0,0,1,.1-.156l.781-.443a.469.469,0,0,1,.273,0,.5.5,0,0,1,.286,0Z" transform="translate(-215.512 -269.257)" fill="#fafafa"/>
          <path id="Path_2769" data-name="Path 2769" d="M254.64,351.33l101.248-58.447a4.517,4.517,0,0,1,4.061-.247c1,.573.807,1.627-.43,2.343l-101.248,58.46a4.556,4.556,0,0,1-4.074.247C253.2,353.1,253.4,352.059,254.64,351.33Z" transform="translate(-223.269 -274.846)" fill="#fafafa"/>
          <path id="Path_2770" data-name="Path 2770" d="M260.1,354.491l101.248-58.447a4.53,4.53,0,0,1,4.061-.26c1.015.586.807,1.627-.43,2.356L263.731,356.587a4.556,4.556,0,0,1-4.074.26C258.667,356.262,258.862,355.207,260.1,354.491Z" transform="translate(-221.62 -273.895)" fill="#fafafa"/>
        </g>
      </g>
    </g>
    <g id="freepik--Character--inject-3" transform="translate(126.183 72.253)">
      <g id="freepik--character-envelope--inject-3" transform="translate(0 0)">
        <path id="freepik--shadow--inject-3-4" data-name="freepik--shadow--inject-3" d="M156.636,408.714,103.76,378.189,340.621,241.43l53.956,29.914Z" transform="translate(-103.76 -8.195)" fill="#e0e0e0"/>
        <g id="freepik--Back--inject-3" transform="translate(38.57 25.446)">
          <path id="Path_2771" data-name="Path 2771" d="M133.39,253.878,358.666,123.81l9.008,5.207a9.424,9.424,0,0,1,4.244,7.342V302.536a9.4,9.4,0,0,1-4.244,7.342L150.885,435.051a9.425,9.425,0,0,1-8.474,0l-4.777-2.76a9.425,9.425,0,0,1-4.244-7.342Z" transform="translate(-133.39 -69.13)" fill="#8880f7"/>
          <path id="Path_2772" data-name="Path 2772" d="M133.39,253.878,358.666,123.81l9.008,5.207a9.424,9.424,0,0,1,4.244,7.342V302.536a9.4,9.4,0,0,1-4.244,7.342L150.885,435.051a9.425,9.425,0,0,1-8.474,0l-4.777-2.76a9.425,9.425,0,0,1-4.244-7.342Z" transform="translate(-133.39 -69.13)" opacity="0.2"/>
          <path id="Path_2773" data-name="Path 2773" d="M357.416,121.874l.924-.495-3.5-2.044h0a6.754,6.754,0,0,0-.924-.456L254.775,82.158a6.847,6.847,0,0,0-7.615,2.421L136.254,246.54a19.213,19.213,0,0,0-2.864,9.242v10.765l3.437,1.992,221.839-132.06V125.727A7.237,7.237,0,0,0,357.416,121.874Z" transform="translate(-133.39 -81.799)" fill="#8880f7"/>
          <path id="Path_2774" data-name="Path 2774" d="M251.558,84.987a6.026,6.026,0,0,0-1.146,1.224L139.506,248.157a16.922,16.922,0,0,0-2.057,4.634L134,250.8a20.163,20.163,0,0,1,.9-2.447.547.547,0,0,1,0-.078c.156-.338.312-.651.482-.976a.874.874,0,0,1,.078-.156,9.67,9.67,0,0,1,.586-.976L246.976,84.284a5.64,5.64,0,0,1,.547-.677c.2-.182.391-.378.6-.547Z" transform="translate(-133.206 -81.425)" opacity="0.1"/>
          <path id="Path_2775" data-name="Path 2775" d="M331.665,121.358a5.31,5.31,0,0,0-.95-.456L231.563,84.155a6.808,6.808,0,0,0-6.509,1.211l-3.384-2a6.873,6.873,0,0,1,6.509-1.211l99.1,36.748a5.534,5.534,0,0,1,.924.456Z" transform="translate(-106.754 -81.804)" fill="#fff" opacity="0.35"/>
          <path id="Path_2776" data-name="Path 2776" d="M135.14,209.336a8.8,8.8,0,0,1,.586-.976,8.8,8.8,0,0,0-.586.976Z" transform="translate(-132.862 -43.62)" fill="#8880f7"/>
          <path id="Path_2777" data-name="Path 2777" d="M221.22,83.557a5.82,5.82,0,0,1,.586-.547A5.82,5.82,0,0,0,221.22,83.557Z" transform="translate(-106.89 -81.44)" fill="#8880f7"/>
          <path id="Path_2778" data-name="Path 2778" d="M134,212.49a21.254,21.254,0,0,1,.911-2.46,21.255,21.255,0,0,0-.911,2.46Z" transform="translate(-133.206 -43.116)" fill="#8880f7"/>
          <path id="Path_2779" data-name="Path 2779" d="M134.71,210.226c.143-.338.312-.664.469-.976C135.087,209.536,134.853,209.862,134.71,210.226Z" transform="translate(-132.992 -43.351)" fill="#8880f7"/>
          <path id="Path_2780" data-name="Path 2780" d="M134.69,210.019v0Z" transform="translate(-132.998 -43.144)" opacity="0.2"/>
          <path id="Path_2781" data-name="Path 2781" d="M133.99,211.92Z" transform="translate(-133.209 -42.546)" opacity="0.2"/>
          <path id="Path_2782" data-name="Path 2782" d="M221.67,83.01Z" transform="translate(-106.754 -81.44)" opacity="0.2"/>
          <path id="Path_2783" data-name="Path 2783" d="M135.07,209.266a.979.979,0,0,1,.091-.156.979.979,0,0,0-.091.156Z" transform="translate(-132.883 -43.393)" opacity="0.2"/>
          <path id="Path_2784" data-name="Path 2784" d="M220.79,84.094a4.452,4.452,0,0,1,.56-.664A4.452,4.452,0,0,0,220.79,84.094Z" transform="translate(-107.02 -81.314)" opacity="0.2"/>
          <path id="Path_2785" data-name="Path 2785" d="M249.809,86.121,138.9,248.068a19.3,19.3,0,0,0-2.9,9.255v10.752L361.276,138.008V127.255a7.81,7.81,0,0,0-4.751-6.821L257.425,83.7A6.808,6.808,0,0,0,249.809,86.121Z" transform="translate(-132.603 -81.336)" fill="#8880f7"/>
          <path id="Path_2786" data-name="Path 2786" d="M361.315,117.958a7.277,7.277,0,0,0-1.211-3.788L136.846,243.4h0a16.741,16.741,0,0,0-.846,4.621v10.752L361.276,128.71Z" transform="translate(-132.603 -72.039)" opacity="0.05"/>
        </g>
        <g id="freepik--Paper--inject-3" transform="translate(58.604 19.206)">
          <path id="Path_2787" data-name="Path 2787" d="M347.839,83.505a2.6,2.6,0,0,0-1.054-2.356L339.9,77.244a2.6,2.6,0,0,0-2.6.26L152.451,184.246a8.1,8.1,0,0,0-3.658,6.339V411.878a2.6,2.6,0,0,0,1.067,2.369l6.86,3.905a2.6,2.6,0,0,0,2.6-.247L344.168,311.229a8.11,8.11,0,0,0,3.671-6.431Z" transform="translate(-148.78 -77.011)" fill="#8880f7"/>
          <path id="Path_2788" data-name="Path 2788" d="M347.839,83.505a2.6,2.6,0,0,0-1.054-2.356L339.9,77.244a2.6,2.6,0,0,0-2.6.26L152.451,184.246a8.1,8.1,0,0,0-3.658,6.339V411.878a2.6,2.6,0,0,0,1.067,2.369l6.86,3.905a2.6,2.6,0,0,0,2.6-.247L344.168,311.229a8.11,8.11,0,0,0,3.671-6.431Z" transform="translate(-148.78 -77.011)" fill="#fff" opacity="0.95"/>
          <path id="Path_2789" data-name="Path 2789" d="M157.788,416.925,342.632,310.249a8.11,8.11,0,0,0,3.593-6.352V82.6c0-2.33-1.64-3.267-3.658-2.109L157.788,187.236a8.11,8.11,0,0,0-3.658,6.339V414.868C154.13,417.146,155.77,418.083,157.788,416.925Z" transform="translate(-147.166 -76.109)" fill="#8880f7"/>
          <path id="Path_2790" data-name="Path 2790" d="M157.788,416.925,342.632,310.249a8.11,8.11,0,0,0,3.593-6.352V82.6c0-2.33-1.64-3.267-3.658-2.109L157.788,187.236a8.11,8.11,0,0,0-3.658,6.339V414.868C154.13,417.146,155.77,418.083,157.788,416.925Z" transform="translate(-147.166 -76.109)" fill="#fff" opacity="0.8"/>
          <path id="Path_2791" data-name="Path 2791" d="M155.724,390.24a2.747,2.747,0,0,0,.859,2.239c-1.237-.7-6.027-3.489-6.639-3.827a2.525,2.525,0,0,1-1.08-2.356V165a7.316,7.316,0,0,1,1.08-3.593l6.86,3.905a7.446,7.446,0,0,0-1.08,3.619Z" transform="translate(-148.76 -51.546)" fill="#8880f7"/>
          <path id="Path_2792" data-name="Path 2792" d="M155.724,390.24a2.747,2.747,0,0,0,.859,2.239c-1.237-.7-6.027-3.489-6.639-3.827a2.525,2.525,0,0,1-1.08-2.356V165a7.316,7.316,0,0,1,1.08-3.593l6.86,3.905a7.446,7.446,0,0,0-1.08,3.619Z" transform="translate(-148.76 -51.546)" fill="#fff" opacity="0.7"/>
          <path id="Path_2793" data-name="Path 2793" d="M155.724,390.24a2.747,2.747,0,0,0,.859,2.239c-1.237-.7-6.027-3.489-6.639-3.827a2.525,2.525,0,0,1-1.08-2.356V165a7.316,7.316,0,0,1,1.08-3.593l6.86,3.905a7.446,7.446,0,0,0-1.08,3.619Z" transform="translate(-148.76 -51.546)" opacity="0.05"/>
        </g>
        <g id="freepik--character--inject-3-2" data-name="freepik--character--inject-3" transform="translate(132.229)">
          <path id="Path_2794" data-name="Path 2794" d="M205.989,209.607c-.807,20.593.573,64.709.573,64.709s21.83,6.587,36.656,4.139,46.563-24.941,46.563-24.941L284.5,205.78Z" transform="translate(-205.221 -18.952)" fill="#37474f"/>
          <path id="Path_2795" data-name="Path 2795" d="M245.749,270.233l3.541-33.65c13.915-8.292,18.432-19.773,18.432-19.773C255.069,233.381,241.87,230.7,241.87,230.7V271.99C243.133,271.469,244.434,270.87,245.749,270.233Z" transform="translate(-194.318 -15.624)" fill="#263238"/>
          <path id="Path_2796" data-name="Path 2796" d="M293.323,171.908c3.541-17.925,5.142-41.733-10.414-46.107-4.061-1.133-14.4-.338-14.4-.338l-16.805.833c-9.359,1.185-22.481,3.046-25.917,3.905-9.034,2.226-11.715,16.922-15.764,49.648-2.525,20.463-4.686,36.448-4.686,56.365,16.506,14.8,68.119,8.969,79.861-.664C285.6,212.964,286.906,204.594,293.323,171.908Z" transform="translate(-205.34 -43.267)" fill="#181c3a"/>
          <path id="Path_2797" data-name="Path 2797" d="M240.517,121.9c-.156,3.267,3.606,8.787,9.372,12.666s10.726,5.454,11.351,7.068c-2.734.508-5.207,1.861-7.238,6.509-1.94,4.478-1.927,4.621-8.578,0s-12.6-15.243-12.575-18.784,5.207-10.414,7.81-9.8Z" transform="translate(-197.04 -44.978)" fill="#37474f"/>
          <path id="Path_2798" data-name="Path 2798" d="M254.66,140.725c1.953-2.135,3.8-7.485,4.035-9.789l.846-8.4a4.478,4.478,0,0,1,2.3,1.5c.716,1.093,4.257,8.409,4.139,12.484s-1.067,9.607-2.447,11.937-2.3-1.77-3.215-3.371C259.151,143.029,257.55,140.777,254.66,140.725Z" transform="translate(-190.459 -44.067)" fill="#37474f"/>
          <path id="Path_2799" data-name="Path 2799" d="M253.28,140.11s.325,14.749-1.041,22.6a23.874,23.874,0,0,0,8.787-.234s-2.252,2.773-10.5,1.5C250.52,163.971,253.058,148.571,253.28,140.11Z" transform="translate(-191.708 -38.766)" fill="#37474f"/>
          <path id="Path_2800" data-name="Path 2800" d="M294.686,93.035a23.431,23.431,0,0,0-46.719-1.77L237.332,83.7a8.305,8.305,0,0,0-6.847,2.512c-2.916,3.072-1.119,12.51,2.695,21.726,0,0,3.84,16.805,5.324,19.526a7.641,7.641,0,0,0,4.465,3.489l-.364-10.232,42.527-3.059-4.2-2.994A23.431,23.431,0,0,0,294.686,93.035Z" transform="translate(-198.189 -59.823)" fill="#263238"/>
          <path id="Path_2801" data-name="Path 2801" d="M242.662,108c-1.3.82-2.6-2.018-5.012-3.476-2.083-1.3-6.756-3.424-9.828,1.744-3.319,5.558,2.708,13.238,6.925,14.827,6.248,2.343,8.474-2.6,8.474-2.6l-1.3,26.034c8.552,15.543,33.741,14.605,25.162,1.588l1.028-10.036s6.73.911,10,.364c5.428-.924,8.8-5.207,10.414-11.195,2.512-9.516,3.411-17.183.885-35.771-2.773-20.385-26.529-20.242-39.234-11.989S242.662,108,242.662,108Z" transform="translate(-198.846 -59.234)" fill="#ffa8a7"/>
          <path id="Path_2802" data-name="Path 2802" d="M293.855,73.456a8.773,8.773,0,0,0-5.741-.664,6.951,6.951,0,0,0-4.165-6.99,8.045,8.045,0,0,0-8.8,1.185c.573-2.07-1.3-4.179-3.411-4.647a11.221,11.221,0,0,0-6.261,1.041c-2.981,1.132-5.923,2.408-8.956,3.424-5.35,1.783-11.039,2.8-15.868,5.7a9.581,9.581,0,0,0-3.02,2.6,8.318,8.318,0,0,0-1.3,5.3,10.6,10.6,0,0,0,.26,1.822,4.79,4.79,0,0,0-1.3-.989,4.5,4.5,0,0,0-6.17,2.148l8.045,4.166c-.2,1.627-.4,3.254-.56,4.881-.443,4.283-1.3,9.294-.3,13.564a3.125,3.125,0,0,0,.521,1.432,25.436,25.436,0,0,1,4.191,4.074c.625.755,1.38,1.979,2.382,2.278a2.421,2.421,0,0,0,2.786-1.3,4.439,4.439,0,0,0,.091-1.9l-.781-7.94a4.543,4.543,0,0,1,.13-2.1,6,6,0,0,1,1.94-2.07,9.112,9.112,0,0,0,3.163-6.352,9.463,9.463,0,0,1,.208-2.278c.169-.56.612-1.432,1.3-1.432,1.237,0,7.98,1.458,9.672,1.692,8.826,1.211,18.3,1.445,26.034-2.89,3.033-1.679,8.136-5.207,8.669-8.93a5,5,0,0,0-2.76-4.829Z" transform="translate(-198.165 -62.256)" fill="#263238"/>
          <path id="Path_2803" data-name="Path 2803" d="M263.752,123.645s-12.2-2.278-16.48-4.478a13.929,13.929,0,0,1-5.962-5.728,19.018,19.018,0,0,0,3.437,6.808c3.163,3.905,18.68,6.626,18.68,6.626Z" transform="translate(-194.487 -46.813)" fill="#f28f8f"/>
          <path id="Path_2804" data-name="Path 2804" d="M259.212,98.543A2.291,2.291,0,1,1,256.9,96.2a2.317,2.317,0,0,1,2.317,2.343Z" transform="translate(-190.468 -52.014)" fill="#263238"/>
          <path id="Path_2805" data-name="Path 2805" d="M256.048,91.9l-5.363,2.6a3.137,3.137,0,0,1,1.432-4.087,2.916,2.916,0,0,1,3.931,1.484Z" transform="translate(-191.743 -53.845)" fill="#263238"/>
          <path id="Path_2806" data-name="Path 2806" d="M254.857,109l9.672,3.463a5.064,5.064,0,0,1-6.509,3.293A5.376,5.376,0,0,1,254.857,109Z" transform="translate(-190.487 -48.152)" fill="#b16668"/>
          <path id="Path_2807" data-name="Path 2807" d="M260.934,115.288a5.051,5.051,0,0,0-5.65-4.309,4.842,4.842,0,0,0-.625.143,5.285,5.285,0,0,0,3.345,4.048,4.908,4.908,0,0,0,2.929.117Z" transform="translate(-190.459 -47.568)" fill="#f28f8f"/>
          <path id="Path_2808" data-name="Path 2808" d="M275.447,93.84l-5.207-2.695a2.825,2.825,0,0,1,3.905-1.224,2.968,2.968,0,0,1,1.3,3.918Z" transform="translate(-185.758 -54.016)" fill="#263238"/>
          <path id="Path_2809" data-name="Path 2809" d="M273.281,98.3a2.317,2.317,0,0,1-2.239,2.4,2.343,2.343,0,0,1-2.33-2.343,2.291,2.291,0,1,1,4.569,0Z" transform="translate(-186.221 -52.109)" fill="#263238"/>
          <path id="Path_2810" data-name="Path 2810" d="M263.27,96.65l.456,14.775,8.709-2.031Z" transform="translate(-187.861 -51.879)" fill="#f28f8f"/>
        </g>
        <g id="freepik--Front--inject-3" transform="translate(38.518 82.118)">
          <path id="Path_2811" data-name="Path 2811" d="M363.542,270.446a1.757,1.757,0,0,1-.234.338l-93.88-29.77a16.18,16.18,0,0,0-20.281,6.248L148.784,396.426l-3.71,2.148h0a2.994,2.994,0,0,1-2.864.312L245.423,245.14a16.219,16.219,0,0,1,20.294-6.261Z" transform="translate(-130.677 -91.498)" fill="#8880f7"/>
          <path id="Path_2812" data-name="Path 2812" d="M239.91,256.754l.234-.208L148.79,391.274l-3.723,2.148h0a3.072,3.072,0,0,1-2.877.325L236.317,254.58Z" transform="translate(-130.683 -86.346)" fill="#fff" opacity="0.4"/>
          <path id="Path_2813" data-name="Path 2813" d="M339.618,270.459a2.275,2.275,0,0,1-.234.338L245.5,241.014a16.167,16.167,0,0,0-20.294,6.248L221.5,245.1a16.206,16.206,0,0,1,20.268-6.222Z" transform="translate(-106.753 -91.499)" fill="#fff" opacity="0.4"/>
          <path id="Path_2814" data-name="Path 2814" d="M368.243,134.83h0c-.208-1.211-.846-1.549-1.679-.976a4.96,4.96,0,0,0-1.08,1.119l-.469.651L272.371,276.47l-13.824,19.265a7.888,7.888,0,0,1-7.628,2.851l-11.937-2.838L147.861,262.2a4.79,4.79,0,0,0-1.861-.078,4.259,4.259,0,0,0-.69.221l3.437-1.979,87.385,32.022,11.507,4.113a7.81,7.81,0,0,0,7.615-2.864l13.837-19.252,93.086-141.5a3.905,3.905,0,0,1,1.054-.963l-8.058-4.647,3.384-1.94,5.571,3.215a9.711,9.711,0,0,1,4.113,6.274Z" transform="translate(-129.741 -125.34)" fill="#8880f7"/>
          <path id="Path_2815" data-name="Path 2815" d="M250.649,241.861,236.812,261.14a7.888,7.888,0,0,1-7.615,2.851l-11.937-2.838.234-.208.573-.911,7.81,1.861a7.81,7.81,0,0,0,7.615-2.851L247.2,240Z" transform="translate(-108.033 -90.745)" fill="#fff" opacity="0.4"/>
          <path id="Path_2816" data-name="Path 2816" d="M335.432,128.542l-5.571-3.2-3.371,1.94,8.045,4.647h0a3.906,3.906,0,0,0-1.054.963l-93.1,141.5-.13.182h0l3.45,1.874,92.63-140.833.482-.664a4.373,4.373,0,0,1,1.08-1.106c.82-.573,1.471-.247,1.666.976h0A9.646,9.646,0,0,0,335.432,128.542Z" transform="translate(-101.096 -125.34)" opacity="0.1"/>
          <path id="Path_2817" data-name="Path 2817" d="M153.267,235.211,133.39,223.73V394.8a9.424,9.424,0,0,0,4.244,7.342l4.777,2.76a9.425,9.425,0,0,0,8.474,0l2.382-1.38Z" transform="translate(-133.338 -95.654)" fill="#8880f7"/>
          <path id="Path_2818" data-name="Path 2818" d="M153.267,235.211,133.39,223.73V394.8a9.424,9.424,0,0,0,4.244,7.342l4.777,2.76a9.425,9.425,0,0,0,8.474,0l2.382-1.38Z" transform="translate(-133.338 -95.654)" opacity="0.15"/>
          <path id="Path_2819" data-name="Path 2819" d="M368.837,133.989V300.167a8.6,8.6,0,0,1-1.3,4.283,9.282,9.282,0,0,1-2.486,2.8l-.169.078-.26.182L147.805,432.669h0a3.033,3.033,0,0,1-2.89.338,2.6,2.6,0,0,1-1.3-2.031,4.685,4.685,0,0,1,0-.755V264.044a3.684,3.684,0,0,1,4.764-3.749l91.12,33.545,11.937,2.838a7.888,7.888,0,0,0,7.628-2.851l13.824-19.265,92.643-140.846.469-.651C367.562,130.878,368.837,131.295,368.837,133.989Z" transform="translate(-130.258 -123.432)" fill="#8880f7"/>
          <path id="Path_2820" data-name="Path 2820" d="M334.642,274.387a2.252,2.252,0,0,0,.273-.169l.156-.1a9.111,9.111,0,0,0,2.486-2.773,8.721,8.721,0,0,0,1.3-4.218L242.91,241.44l64.253,48.8Z" transform="translate(-100.293 -90.31)" fill="#8880f7"/>
          <path id="Path_2821" data-name="Path 2821" d="M334.642,274.387a2.252,2.252,0,0,0,.273-.169l.156-.1a9.111,9.111,0,0,0,2.486-2.773,8.721,8.721,0,0,0,1.3-4.218L242.91,241.44l64.253,48.8Z" transform="translate(-100.293 -90.31)" opacity="0.2"/>
          <path id="Path_2822" data-name="Path 2822" d="M143.575,392.608a2.9,2.9,0,0,0,1.3,2.786,3.02,3.02,0,0,0,2.89-.325h0l74.641-43.087L239.46,256.24,143.588,389.875Z" transform="translate(-130.271 -85.845)" fill="#8880f7"/>
          <path id="Path_2823" data-name="Path 2823" d="M248.7,245.489,144.9,399.3a2.9,2.9,0,0,1-1.3-2.786v-2.76L244.986,243.38h0Z" transform="translate(-130.265 -89.725)" opacity="0.15"/>
          <path id="Path_2824" data-name="Path 2824" d="M367.217,272.046a9.112,9.112,0,0,1-2.486,2.773l-.156.1L147.5,400.253h0a3.02,3.02,0,0,1-2.89.325L248.4,246.78a16.3,16.3,0,0,1,20.385-6.3Z" transform="translate(-129.953 -91.016)" fill="#8880f7"/>
          <path id="Path_2825" data-name="Path 2825" d="M134.2,211.92l3.45,1.992a16.558,16.558,0,0,0-.846,4.621v10.739l-3.45-1.992V216.528A16.556,16.556,0,0,1,134.2,211.92Z" transform="translate(-133.35 -99.217)" opacity="0.15"/>
          <path id="Path_2826" data-name="Path 2826" d="M151.507,230.678l-3.437,1.979-3.489-2-8.552-4.934,3.319-1.979Z" transform="translate(-132.541 -95.651)" fill="#8880f7"/>
          <path id="Path_2827" data-name="Path 2827" d="M151.621,230.743l-12.3-7L136,225.719l8.552,4.934,3.489,2h0a2.719,2.719,0,0,1,.651-.208,4.478,4.478,0,0,1,1.848.065l6.925,2.6,79.574,29.3,1.3-1.848Z" transform="translate(-132.55 -95.651)" opacity="0.1"/>
        </g>
        <g id="freepik--Arm--inject-3" transform="translate(95.82 86.413)">
          <path id="Path_2828" data-name="Path 2828" d="M234.164,129c-11.052.794-18.628,3.424-25.735,20.528-4.608,11.052-22.65,50.767-24.394,57.354-2.044,7.706-6.665,66.323-6.665,66.323l10.544,3.905s-3.606,12.614-6.665,19.812c-3.515,8.318,13.655,6.574,19.174-.976s9.268-17.664,6.248-21.218A49.465,49.465,0,0,0,198.315,267l11.533-52.29,24.2-51.444S246.218,138.112,234.164,129Z" transform="translate(-177.37 -128.531)" fill="#ffa8a7"/>
          <path id="Path_2829" data-name="Path 2829" d="M195.96,235.968a22.754,22.754,0,0,0-10.7-3.059,20.658,20.658,0,0,1,11.195,0Z" transform="translate(-174.989 -97.412)" fill="#f28f8f"/>
          <path id="Path_2830" data-name="Path 2830" d="M232.99,128.64c-6.2,0-17.768-.325-25.266,13.212s-18.094,39.325-18.094,39.325,4.4,10.83,27.987,13.1l18.055-38.492S240.085,138.143,232.99,128.64Z" transform="translate(-173.671 -128.639)" fill="#181c3a"/>
        </g>
        <g id="freepik--arm--inject-3-2" data-name="freepik--arm--inject-3" transform="translate(205.438 8.833)">
          <path id="Path_2831" data-name="Path 2831" d="M290.038,138.426c9.32,7.355,24.446,18.9,31.8,23.522,5.558-6.717,15.79-20.333,18.224-23.314,3.2-3.788,13.212-9.919,13.212-9.919l3.762,15.087s-18.9,34.86-25.748,41.3c-7.212,6.795-12.431,3.983-26.529-2.473-13.317-6.105-27.779-13.681-27.779-13.681,2.864-25.331.924-39.052-11.182-43.321C273.871,126.58,282.215,132.269,290.038,138.426Z" transform="translate(-260.307 -51.968)" fill="#ffa8a7"/>
          <path id="Path_2832" data-name="Path 2832" d="M315.641,157.042c-4.868,1.3-14.931,15.621-13.1,24.733L276.9,169.1c3.1-17.482,3.775-39.052-11-43.23a20.541,20.541,0,0,0-4.322-.547h0c7.355-.729,12.158-.508,19.864,5.285S315.641,157.042,315.641,157.042Z" transform="translate(-261.58 -52.151)" fill="#181c3a"/>
          <path id="Path_2833" data-name="Path 2833" d="M310.152,153.85c-3.671,3.228-4.855,9.034-5.571,11.338a20.228,20.228,0,0,1,3.45-12.718Z" transform="translate(-248.62 -43.869)" fill="#f28f8f"/>
          <path id="Path_2834" data-name="Path 2834" d="M336.28,116.237l8.8-5.337s1,47.448,1.041,48.984a5.206,5.206,0,0,0,1.848,3.046l-8.8,5.376a5.272,5.272,0,0,1-1.848-3.046C337.3,163.646,336.28,116.237,336.28,116.237Z" transform="translate(-239.041 -56.412)" fill="#37474f"/>
          <path id="Path_2835" data-name="Path 2835" d="M345,126.07s2.525.6,3.489,4.517,1.458,11.4-.794,13.863-5.324,3.541-7.368,2.6c-3.814-1.653-2.6-9.4.4-11.195,4.895-2.851,4.309-6,4.309-6Z" transform="translate(-238.543 -51.835)" fill="#ffa8a7"/>
          <path id="Path_2836" data-name="Path 2836" d="M328,115.09l3.905,4.7.69,33.454-3.905,6.509,13.017,7.186a4.791,4.791,0,0,1-1.848-3.046l-.911-42.827Z" transform="translate(-241.54 -55.148)" fill="#455a64"/>
          <path id="Path_2837" data-name="Path 2837" d="M328.46,149.43l.039,2.044,13.082,7.2-.052-2.057Z" transform="translate(-241.401 -44.787)" fill="#8880f7"/>
          <path id="Path_2838" data-name="Path 2838" d="M338.552,158.244l8.787-5.337-.052-2.057-8.787,5.337Z" transform="translate(-238.372 -44.358)" fill="#8880f7"/>
          <path id="Path_2839" data-name="Path 2839" d="M338.552,158.244l8.787-5.337-.052-2.057-8.787,5.337Z" transform="translate(-238.372 -44.358)" opacity="0.1"/>
          <path id="Path_2840" data-name="Path 2840" d="M332.234,97.288h0c-1.718-.43-3.7.286-5.532,2.252l-.065.078a18.406,18.406,0,0,0-3.762,16.232v.091c.807,2.6,2.317,4.165,4.1,4.491h0l7.6,1.822,4.647-23.275Z" transform="translate(-243.248 -60.555)" fill="#8880f7"/>
          <path id="Path_2841" data-name="Path 2841" d="M332.234,97.288h0c-1.718-.43-3.7.286-5.532,2.252l-.065.078a18.406,18.406,0,0,0-3.762,16.232v.091c.807,2.6,2.317,4.165,4.1,4.491h0l7.6,1.822,4.647-23.275Z" transform="translate(-243.248 -60.555)" fill="#fff" opacity="0.7"/>
          <path id="Path_2842" data-name="Path 2842" d="M327.008,117.109h0l7.6,1.822,1.536-7.719-13.824-3.2a14.539,14.539,0,0,0,.56,4.517v.091C323.715,115.3,325.225,116.836,327.008,117.109Z" transform="translate(-243.255 -57.284)" opacity="0.05"/>
          <path id="Path_2843" data-name="Path 2843" d="M346.512,98.18h0a6.912,6.912,0,0,0-6.183,2.213c-.221.2-.443.417-.664.651s-.495.547-.729.846a15.542,15.542,0,0,0-1.119,1.575,20.825,20.825,0,0,0-1.692,3.267,25.252,25.252,0,0,0-1.888,9.945,17.769,17.769,0,0,0,.716,4.725c.95,3.111,2.681,4.986,4.751,5.532l-7.212-1.666h0a8.37,8.37,0,0,1-5.728-5.754,18.017,18.017,0,0,1-.7-4.517,25.044,25.044,0,0,1,1.887-10.166,21.259,21.259,0,0,1,1.679-3.254A17.9,17.9,0,0,1,330.748,100q.352-.443.742-.859a7.691,7.691,0,0,1,.664-.638,8.227,8.227,0,0,1,7-2h.469Z" transform="translate(-242.127 -60.797)" fill="#8880f7"/>
          <path id="Path_2844" data-name="Path 2844" d="M332.49,120.951h0a8.37,8.37,0,0,1-5.728-5.754,18.018,18.018,0,0,1-.7-4.517l8.2,1.692a17.773,17.773,0,0,0,.716,4.725c.95,3.111,2.682,4.986,4.751,5.532Z" transform="translate(-242.125 -56.478)" opacity="0.1"/>
          <path id="Path_2845" data-name="Path 2845" d="M349.537,103.364c1.94,6.378-.169,15.49-4.725,20.359-2.278,2.447-4.751,3.358-6.886,2.851h-.117c-2.07-.547-3.8-2.421-4.751-5.532-1.94-6.378.169-15.49,4.712-20.359,2.278-2.434,4.725-3.345,6.847-2.864S348.561,100.162,349.537,103.364Z" transform="translate(-240.231 -60.396)" fill="#8880f7"/>
          <path id="Path_2846" data-name="Path 2846" d="M349.537,103.364c1.94,6.378-.169,15.49-4.725,20.359-2.278,2.447-4.751,3.358-6.886,2.851h-.117c-2.07-.547-3.8-2.421-4.751-5.532-1.94-6.378.169-15.49,4.712-20.359,2.278-2.434,4.725-3.345,6.847-2.864S348.561,100.162,349.537,103.364Z" transform="translate(-240.231 -60.396)" opacity="0.2"/>
          <path id="Path_2847" data-name="Path 2847" d="M379.531,93.6s-8.513,8.253-12.575,25.8a68.829,68.829,0,0,0-1.549,9.568c-1.093,11.924,1.5,19.122,1.5,19.122-5.207-6.509-11.312-12.926-19.331-16.922a99.943,99.943,0,0,0-9.62-4.074h0c-1.94-.456-3.541-2.239-4.413-5.1a17.952,17.952,0,0,1-.651-6.222,23.067,23.067,0,0,1,.586-4.179,20.542,20.542,0,0,1,4.634-9.307c2.044-2.187,4.27-3.1,6.209-2.6h0a101.426,101.426,0,0,0,10.414.573C363.676,100.239,371.981,97.076,379.531,93.6Z" transform="translate(-240.078 -61.632)" fill="#8880f7"/>
          <path id="Path_2848" data-name="Path 2848" d="M379.531,93.6s-8.513,8.253-12.575,25.8a68.829,68.829,0,0,0-1.549,9.568c-1.093,11.924,1.5,19.122,1.5,19.122-5.207-6.509-11.312-12.926-19.331-16.922a99.943,99.943,0,0,0-9.62-4.074h0c-1.94-.456-3.541-2.239-4.413-5.1a17.952,17.952,0,0,1-.651-6.222,23.067,23.067,0,0,1,.586-4.179,20.542,20.542,0,0,1,4.634-9.307c2.044-2.187,4.27-3.1,6.209-2.6h0a101.426,101.426,0,0,0,10.414.573C363.676,100.239,371.981,97.076,379.531,93.6Z" transform="translate(-240.078 -61.632)" fill="#fff" opacity="0.7"/>
          <path id="Path_2849" data-name="Path 2849" d="M365.407,123.829c-1.093,11.924,1.5,19.122,1.5,19.122-5.207-6.509-11.312-12.926-19.331-16.922a99.941,99.941,0,0,0-9.62-4.074h0c-1.94-.456-3.541-2.239-4.413-5.1a17.952,17.952,0,0,1-.651-6.222C341.69,112.179,356.2,115.472,365.407,123.829Z" transform="translate(-240.078 -56.493)" opacity="0.05"/>
          <path id="Path_2850" data-name="Path 2850" d="M396.167,103.357a49.126,49.126,0,0,1,.846,22.311h0c-1.718,9.958-6,19.63-12.132,26.139-10.817,11.6-23.34,8.682-27.974-6.509a42.617,42.617,0,0,1-1.705-11.234,59.4,59.4,0,0,1,6.964-28.82,36.744,36.744,0,0,1,2.083-3.45l.937-1.3h0c.456-.638.911-1.237,1.393-1.822s1.015-1.211,1.549-1.77C379.023,85.289,391.546,88.179,396.167,103.357Z" transform="translate(-233.334 -62.785)" fill="#8880f7"/>
          <path id="Path_2851" data-name="Path 2851" d="M397.011,117.35c-1.718,9.958-6,19.63-12.132,26.139-10.817,11.6-23.34,8.682-27.974-6.509a42.617,42.617,0,0,1-1.705-11.234h0c1.484,1.692,5.532,3.515,6.365,1.119a38.345,38.345,0,0,0,1.523,9.958c1.3,4.361,3.372,7.589,5.91,9.32a8.149,8.149,0,0,0,7.3,1.015,19.07,19.07,0,0,0,7.915-5.428c5.207-5.532,8.956-13.811,10.8-22.429C395.085,119.329,396.113,119.771,397.011,117.35Z" transform="translate(-233.333 -54.466)" opacity="0.1"/>
          <path id="Path_2852" data-name="Path 2852" d="M393.308,103.729c2.044,6.7,1.992,14.983.286,22.949-1.848,8.617-5.623,16.922-10.8,22.429a19.07,19.07,0,0,1-7.914,5.428,8.149,8.149,0,0,1-7.3-1.015c-2.6-1.731-4.582-4.96-5.91-9.32a38.348,38.348,0,0,1-1.523-9.958c0-1.3,0-2.695,0-4.061a53.04,53.04,0,0,1,.859-7.225c.091-.495.182-.989.286-1.471.169-.82.351-1.64.56-2.447a56.278,56.278,0,0,1,2.682-8.019v-.091a50.211,50.211,0,0,1,2.4-4.894c.625-1.119,1.3-2.187,1.979-3.2l.9-1.3c.378-.482.755-.963,1.132-1.419s.768-.885,1.159-1.3A18.94,18.94,0,0,1,380,93.38C385.862,91.7,390.809,95.515,393.308,103.729Z" transform="translate(-231.842 -61.815)" fill="#8880f7"/>
          <path id="Path_2853" data-name="Path 2853" d="M393.308,103.729c2.044,6.7,1.992,14.983.286,22.949-1.848,8.617-5.623,16.922-10.8,22.429a19.07,19.07,0,0,1-7.914,5.428,8.149,8.149,0,0,1-7.3-1.015c-2.6-1.731-4.582-4.96-5.91-9.32a38.348,38.348,0,0,1-1.523-9.958c0-1.3,0-2.695,0-4.061a53.04,53.04,0,0,1,.859-7.225c.091-.495.182-.989.286-1.471.169-.82.351-1.64.56-2.447a56.278,56.278,0,0,1,2.682-8.019v-.091a50.211,50.211,0,0,1,2.4-4.894c.625-1.119,1.3-2.187,1.979-3.2l.9-1.3c.378-.482.755-.963,1.132-1.419s.768-.885,1.159-1.3A18.94,18.94,0,0,1,380,93.38C385.862,91.7,390.809,95.515,393.308,103.729Z" transform="translate(-231.842 -61.815)" opacity="0.3"/>
          <path id="Path_2854" data-name="Path 2854" d="M374.265,109.709l-3.593,18.12c-2.6-.156-7.016-.364-10.492-.2v-1.3a55.189,55.189,0,0,1,.859-7.225c.091-.495.2-.976.286-1.471.169-.82.365-1.64.573-2.434a56.4,56.4,0,0,1,2.668-8.032.272.272,0,0,0,0-.091c.169-.378.325-.755.495-1.119a56.349,56.349,0,0,0,9.2,3.749Z" transform="translate(-231.83 -57.902)" fill="#8880f7"/>
          <g id="Group_3273" data-name="Group 3273" transform="translate(128.35 48.058)" opacity="0.4">
            <path id="Path_2855" data-name="Path 2855" d="M374.265,109.709l-3.593,18.12c-2.6-.156-7.016-.364-10.492-.2v-1.3a55.189,55.189,0,0,1,.859-7.225c.091-.495.2-.976.286-1.471.169-.82.365-1.64.573-2.434a56.4,56.4,0,0,1,2.668-8.032.272.272,0,0,0,0-.091c.169-.378.325-.755.495-1.119a56.349,56.349,0,0,0,9.2,3.749Z" transform="translate(-360.18 -105.96)" fill="#fff"/>
          </g>
          <path id="Path_2856" data-name="Path 2856" d="M369.815,126.706c-1.888.573-3.489-.6-4.257-3.163v-.078a14.579,14.579,0,0,1,2.968-12.835h0A5.662,5.662,0,0,1,370.908,109c1.888-.573,3.476.612,4.257,3.163v.078a14.567,14.567,0,0,1-2.968,12.835h0a5.832,5.832,0,0,1-2.382,1.614Z" transform="translate(-230.335 -57.027)" fill="#8880f7"/>
          <g id="Group_3274" data-name="Group 3274" transform="translate(134.799 51.834)" opacity="0.7">
            <path id="Path_2857" data-name="Path 2857" d="M369.815,126.706c-1.888.573-3.489-.6-4.257-3.163v-.078a14.579,14.579,0,0,1,2.968-12.835h0A5.662,5.662,0,0,1,370.908,109c1.888-.573,3.476.612,4.257,3.163v.078a14.567,14.567,0,0,1-2.968,12.835h0a5.832,5.832,0,0,1-2.382,1.614Z" transform="translate(-365.135 -108.861)" fill="#fff"/>
          </g>
          <path id="Path_2858" data-name="Path 2858" d="M367.221,91.8a1.94,1.94,0,0,1-2.447-1.3l-5.532-18.146a1.966,1.966,0,0,1,3.749-1.146l5.532,18.146a1.94,1.94,0,0,1-1.3,2.447Z" transform="translate(-232.128 -68.765)" fill="#e0e0e0"/>
          <path id="Path_2859" data-name="Path 2859" d="M357.533,97.927a1.966,1.966,0,0,1-1.914-.443L341.756,84.467a1.966,1.966,0,1,1,2.682-2.864L358.3,94.621a1.953,1.953,0,0,1,.091,2.773A1.809,1.809,0,0,1,357.533,97.927Z" transform="translate(-237.605 -65.438)" fill="#e0e0e0"/>
          <path id="Path_2860" data-name="Path 2860" d="M361.588,170.431a2.057,2.057,0,0,1-1.015,0,1.966,1.966,0,0,1-1.471-2.356l4.283-18.484a1.966,1.966,0,1,1,3.827.885L362.89,169a1.966,1.966,0,0,1-1.3,1.432Z" transform="translate(-232.171 -45.221)" fill="#e0e0e0"/>
          <path id="Path_2861" data-name="Path 2861" d="M389.331,164.339a1.966,1.966,0,0,1-2.447-1.3l-5.532-18.146a1.966,1.966,0,1,1,3.749-1.146l5.532,18.146A1.966,1.966,0,0,1,389.331,164.339Z" transform="translate(-225.483 -46.965)" fill="#e0e0e0"/>
          <path id="Path_2862" data-name="Path 2862" d="M406.923,144.07a1.966,1.966,0,0,1-1.914-.443L391.146,130.61a1.966,1.966,0,0,1,2.668-2.877l13.876,12.952a1.953,1.953,0,0,1,.091,2.773,2.018,2.018,0,0,1-.859.612Z" transform="translate(-222.651 -51.468)" fill="#e0e0e0"/>
          <path id="Path_2863" data-name="Path 2863" d="M418.012,123.292a2.044,2.044,0,0,1-1.015,0l-18.484-4.283a1.979,1.979,0,0,1-1.471-2.356,1.953,1.953,0,0,1,2.356-1.471l18.484,4.283a1.966,1.966,0,0,1,.13,3.788Z" transform="translate(-220.723 -55.136)" fill="#e0e0e0"/>
          <path id="Path_2864" data-name="Path 2864" d="M417.216,101.01l-18.159,5.532a1.96,1.96,0,0,1-1.146-3.749l18.224-5.532a1.966,1.966,0,0,1,1.146,3.749Z" transform="translate(-220.864 -60.542)" fill="#e0e0e0"/>
          <path id="Path_2865" data-name="Path 2865" d="M391.8,96.834a1.966,1.966,0,0,1-2.018-3.215l12.952-13.863a1.966,1.966,0,1,1,2.877,2.682L392.658,96.3a1.952,1.952,0,0,1-.859.534Z" transform="translate(-223.057 -65.998)" fill="#e0e0e0"/>
          <path id="Path_2866" data-name="Path 2866" d="M379.665,91.481a2,2,0,0,1-1,0,1.953,1.953,0,0,1-1.471-2.356l4.283-18.484a1.966,1.966,0,1,1,3.827.885L381.019,90.01A2,2,0,0,1,379.665,91.481Z" transform="translate(-226.713 -69.042)" fill="#e0e0e0"/>
          <path id="Path_2867" data-name="Path 2867" d="M322.89,138.414c3.736-4.738,3.905-7.719,6.795-10.049s5.858-2.473,10.205-1.224c3.267.937,7.107.469,8.435,1.679.378.26-.208,2.356-1.744,3.111-1.848.911-4.842.69-7.042.7-5.025,0-.9,4.947-5.741,9.945C331.755,146.159,322.89,138.414,322.89,138.414Z" transform="translate(-243.081 -51.747)" fill="#ffa8a7"/>
        </g>
      </g>
    </g>
    <g id="freepik--paper-planes--inject-3" transform="translate(52.102 41.46)">
      <g id="freepik--paper-plane--inject-3" transform="translate(358.327)">
        <path id="Path_2868" data-name="Path 2868" d="M411.2,200.327l46.055-29.5,20.281,6.509Z" transform="translate(-295.245 1.297)" fill="#8880f7"/>
        <path id="Path_2869" data-name="Path 2869" d="M411.2,203.552l39.807-33.194-8.852-10.219Z" transform="translate(-295.245 -1.929)" fill="#8880f7"/>
        <path id="Path_2870" data-name="Path 2870" d="M451.007,167.99v7.693l-39.807,25.5Z" transform="translate(-295.245 0.44)" fill="#8880f7"/>
        <path id="Path_2871" data-name="Path 2871" d="M451.007,167.99v7.693l-39.807,25.5Z" transform="translate(-295.245 0.44)" opacity="0.25"/>
        <path id="Path_2872" data-name="Path 2872" d="M449.3,165.655a1.3,1.3,0,0,1-.846-2.291c.794-.69,1.588-1.406,2.356-2.135a1.3,1.3,0,0,1,1.8,1.874c-.807.768-1.614,1.51-2.46,2.239A1.3,1.3,0,0,1,449.3,165.655Z" transform="translate(-284.143 -1.69)" fill="#e0e0e0"/>
        <path id="Path_2873" data-name="Path 2873" d="M492.074,195.744a1.3,1.3,0,0,1-.976-2.161c1.3-1.562,2.695-3.215,3.905-4.921a1.3,1.3,0,1,1,2.1,1.549c-1.3,1.77-2.682,3.476-4.087,5.09A1.3,1.3,0,0,1,492.074,195.744Zm7.628-10.31a1.3,1.3,0,0,1-1.093-1.992c1.093-1.757,2.161-3.606,3.15-5.48a1.3,1.3,0,0,1,2.3,1.211c-1.028,1.94-2.122,3.84-3.254,5.649a1.3,1.3,0,0,1-1.107.612Zm6-11.338a1.21,1.21,0,0,1-.521-.117,1.3,1.3,0,0,1-.664-1.718c.833-1.914,1.64-3.905,2.356-5.871a1.3,1.3,0,0,1,2.447.885c-.742,2.044-1.562,4.074-2.434,6.04a1.3,1.3,0,0,1-1.185.781Zm4.4-12.067a1.171,1.171,0,0,1-.364,0,1.3,1.3,0,0,1-.885-1.614c.586-2,1.119-4.074,1.588-6.131a1.333,1.333,0,0,1,2.6.573c-.482,2.109-1.028,4.231-1.627,6.287a1.3,1.3,0,0,1-1.315.885Zm2.825-12.523h-.208a1.3,1.3,0,0,1-1.08-1.5c.325-2.07.6-4.179.794-6.287a1.308,1.308,0,0,1,2.6.247c-.208,2.161-.495,4.335-.833,6.509a1.3,1.3,0,0,1-1.276,1.028Zm1.211-12.783h0a1.3,1.3,0,0,1-1.3-1.3v-6.339a1.3,1.3,0,0,1,2.6,0v6.509a1.3,1.3,0,0,1-1.3,1.159Zm-.456-12.822a1.3,1.3,0,0,1-1.3-1.172c-.221-2.109-.508-4.218-.872-6.274a1.32,1.32,0,0,1,2.6-.443c.378,2.109.677,4.283.9,6.509a1.3,1.3,0,0,1-1.159,1.432Zm-2.226-12.653a1.3,1.3,0,0,1-1.3-.976c-.521-2.057-1.119-4.087-1.783-6.066a1.3,1.3,0,1,1,2.46-.833c.69,2.044,1.3,4.139,1.848,6.261a1.3,1.3,0,0,1-1.3,1.614Zm-4.139-12.158a1.3,1.3,0,0,1-1.2-.781,61.884,61.884,0,0,0-2.747-5.676,1.317,1.317,0,1,1,2.291-1.3c1.028,1.9,1.979,3.905,2.851,5.884a1.3,1.3,0,0,1-.69,1.705A1.185,1.185,0,0,1,507.317,99.091Zm-6.079-11.286a1.3,1.3,0,0,1-1.094-.586,62.839,62.839,0,0,0-3.671-5.142A1.3,1.3,0,1,1,498.5,80.45c1.3,1.679,2.6,3.463,3.905,5.285a1.3,1.3,0,0,1-1.08,2.018ZM493.22,77.782a1.3,1.3,0,0,1-.937-.4c-1.432-1.5-2.955-2.981-4.543-4.4a1.309,1.309,0,0,1,1.757-1.94c1.627,1.471,3.2,3.007,4.673,4.543a1.3,1.3,0,0,1-.95,2.2ZM483.7,69.164a1.367,1.367,0,0,1-.807-.273c-1.627-1.3-3.345-2.6-5.09-3.775a1.3,1.3,0,1,1,1.471-2.135c1.809,1.3,3.567,2.6,5.207,3.905a1.262,1.262,0,0,1-.742,2.278ZM473.16,61.849a1.3,1.3,0,0,1-.677-.2c-1.783-1.08-3.632-2.148-5.506-3.163A1.3,1.3,0,0,1,468.2,56.2c1.927,1.041,3.827,2.122,5.636,3.241a1.3,1.3,0,0,1-.677,2.408Zm-11.3-6.105a1.3,1.3,0,0,1-.56-.13c-1.9-.9-3.905-1.77-5.806-2.6a1.3,1.3,0,1,1,1-2.408c1.992.833,3.983,1.731,5.923,2.6a1.3,1.3,0,0,1-.56,2.473ZM330.387,52.515a1.3,1.3,0,0,1-.43-2.538c2.031-.729,4.087-1.419,6.118-2.07a1.3,1.3,0,1,1,.794,2.473c-1.992.638-4.022,1.3-6.04,2.057a1.3,1.3,0,0,1-.377.078Zm119.654-1.679a1.08,1.08,0,0,1-.443-.091c-1.953-.716-3.983-1.406-6.027-2.057a1.3,1.3,0,1,1,.781-2.473c2.083.664,4.152,1.367,6.144,2.1a1.294,1.294,0,0,1-.456,2.525ZM342.676,48.623a1.314,1.314,0,1,1-.364-2.6c2.044-.586,4.152-1.146,6.248-1.679a1.3,1.3,0,0,1,.625,2.525c-2.07.521-4.139,1.08-6.157,1.653a1.094,1.094,0,0,1-.338.052Zm95.143-1.692a1.419,1.419,0,0,1-.339,0c-2.018-.547-4.087-1.067-6.183-1.549a1.333,1.333,0,0,1,.573-2.6c2.135.495,4.244,1.015,6.287,1.575a1.313,1.313,0,1,1-.339,2.6Zm-82.672-1.484a1.309,1.309,0,0,1-.273-2.6c2.1-.456,4.231-.872,6.326-1.3a1.323,1.323,0,0,1,.469,2.6c-2.07.377-4.178.794-6.248,1.3Zm70.163-1.406h-.247c-2.044-.391-4.166-.742-6.287-1.041a1.3,1.3,0,0,1,.378-2.577c2.161.312,4.309.664,6.391,1.054a1.307,1.307,0,1,1-.234,2.6Zm-57.536-.885a1.305,1.305,0,0,1-.2-2.6c2.135-.312,4.3-.586,6.417-.82a1.31,1.31,0,0,1,.286,2.6c-2.1.234-4.218.508-6.326.82Zm44.805-.963h-.13c-2.083-.221-4.218-.4-6.352-.547a1.3,1.3,0,1,1,.182-2.6c2.174.156,4.335.338,6.444.573a1.292,1.292,0,0,1-.143,2.577Zm-32.061-.469a1.3,1.3,0,0,1-.1-2.6c2.161-.156,4.322-.286,6.509-.377a1.3,1.3,0,1,1,0,2.6c-2.1.091-4.244.221-6.365.377Zm19.252-.43h0c-1.861,0-3.736-.091-5.571-.091h-.807a1.3,1.3,0,1,1,0-2.6h.82c1.861,0,3.762,0,5.649.091a1.3,1.3,0,1,1,0,2.6Z" transform="translate(-320.028 -38.6)" fill="#e0e0e0"/>
        <path id="Path_2874" data-name="Path 2874" d="M323.408,52.9a1.3,1.3,0,0,1-.495-2.5l3.033-1.3a1.307,1.307,0,1,1,.95,2.434L323.9,52.746a1.38,1.38,0,0,1-.495.156Z" transform="translate(-322.122 -35.459)" fill="#e0e0e0"/>
      </g>
      <g id="freepik--paper-plane--inject-3-2" data-name="freepik--paper-plane--inject-3" transform="translate(0 106.767)">
        <path id="Path_2875" data-name="Path 2875" d="M100.44,149.961l59.866-29.341-43.165,41.056Z" transform="translate(-30.681 -120.62)" fill="#8880f7"/>
        <path id="Path_2876" data-name="Path 2876" d="M165.6,120.62l-66.01,21.713L82.91,130.617Z" transform="translate(-35.97 -120.62)" fill="#8880f7"/>
        <path id="Path_2877" data-name="Path 2877" d="M95.72,142.333,98.336,159.1l3.528-9.138L161.73,120.62Z" transform="translate(-32.105 -120.62)" fill="#8880f7"/>
        <path id="Path_2878" data-name="Path 2878" d="M95.72,142.333,98.336,159.1l3.528-9.138L161.73,120.62Z" transform="translate(-32.105 -120.62)" opacity="0.25"/>
        <path id="Path_2879" data-name="Path 2879" d="M97.73,152.3l9.1-5.233-5.571-3.905Z" transform="translate(-31.498 -113.819)" fill="#8880f7"/>
        <path id="Path_2880" data-name="Path 2880" d="M100.44,143.16l5.571,3.905-1.458.833Z" transform="translate(-30.681 -113.819)" opacity="0.25"/>
        <path id="Path_2881" data-name="Path 2881" d="M121.113,318.259a1.3,1.3,0,0,1-.443-.078c-2.109-.755-4.165-1.536-6.131-2.3a1.3,1.3,0,1,1,.963-2.421c1.927.755,3.905,1.523,6.053,2.278a1.3,1.3,0,0,1-.443,2.525Zm-12.093-4.8a1.3,1.3,0,0,1-.521-.1c-2.031-.9-4.022-1.822-5.949-2.76a1.3,1.3,0,0,1,1.146-2.343c1.887.924,3.905,1.835,5.858,2.721a1.3,1.3,0,0,1-.534,2.486ZM97.3,307.728a1.3,1.3,0,0,1-.625-.156c-1.94-1.067-3.905-2.174-5.689-3.306a1.3,1.3,0,0,1,1.3-2.213c1.8,1.106,3.671,2.187,5.571,3.228a1.3,1.3,0,0,1-.625,2.447ZM86.24,300.894a1.3,1.3,0,0,1-.742-.234c-1.822-1.3-3.593-2.6-5.285-3.905a1.343,1.343,0,1,1,1.679-2.1c1.64,1.3,3.371,2.6,5.207,3.827a1.3,1.3,0,0,1-.742,2.369Zm-10.166-8.1a1.3,1.3,0,0,1-.872-.338c-1.64-1.5-3.215-3.046-4.7-4.634a1.3,1.3,0,0,1,1.887-1.783c1.445,1.536,2.981,3.046,4.569,4.491a1.3,1.3,0,0,1-.885,2.265Zm-8.9-9.45a1.3,1.3,0,0,1-1.015-.495c-1.38-1.705-2.695-3.489-3.905-5.311a1.3,1.3,0,1,1,2.161-1.458c1.185,1.757,2.473,3.489,3.8,5.207a1.236,1.236,0,0,1-.989,2.057Zm-7.29-10.752a1.3,1.3,0,0,1-1.132-.664c-1.067-1.9-2.083-3.905-3.007-5.884a1.3,1.3,0,1,1,2.369-1.093c.885,1.94,1.874,3.905,2.9,5.689a1.3,1.3,0,0,1-.495,1.783,1.367,1.367,0,0,1-.586.169Zm-5.389-11.781a1.3,1.3,0,0,1-1.224-.846c-.755-2.031-1.445-4.139-2.057-6.274a1.3,1.3,0,1,1,2.5-.716c.6,2.07,1.3,4.113,1.992,6.092a1.292,1.292,0,0,1-1.211,1.744Zm-3.632-12.484a1.3,1.3,0,0,1-1.3-1.028c-.456-2.1-.872-4.27-1.211-6.509a1.3,1.3,0,0,1,2.577-.4c.325,2.148.729,4.27,1.172,6.326a1.3,1.3,0,0,1-.989,1.549,1.069,1.069,0,0,1-.247.039Zm-2.031-12.848a1.3,1.3,0,0,1-1.3-1.172c-.221-2.1-.4-4.3-.534-6.509a1.3,1.3,0,0,1,2.6-.143c.13,2.2.3,4.361.521,6.43a1.3,1.3,0,0,1-1.159,1.419Zm-.677-13.017h0a1.3,1.3,0,0,1-1.3-1.3,66,66,0,0,1,.391-6.6,1.3,1.3,0,1,1,2.59.26c-.208,2.122-.338,4.27-.378,6.391a1.3,1.3,0,0,1-1.3,1.25Zm1.3-12.939h-.234a1.3,1.3,0,0,1-1.041-1.51c.391-2.161.885-4.322,1.445-6.509a1.3,1.3,0,0,1,2.512.677c-.547,2.057-1.015,4.165-1.406,6.248A1.3,1.3,0,0,1,49.453,209.526Zm3.358-12.5a1.306,1.306,0,0,1-1.224-1.744c.729-2.057,1.549-4.126,2.447-6.144a1.3,1.3,0,1,1,2.369,1.067c-.859,1.94-1.666,3.905-2.369,5.949A1.3,1.3,0,0,1,52.812,197.03ZM58.1,185.145a1.3,1.3,0,0,1-1.132-1.927c1.041-1.927,2.187-3.905,3.384-5.676a1.3,1.3,0,0,1,2.174,1.419c-1.159,1.783-2.265,3.632-3.28,5.506a1.3,1.3,0,0,1-1.146.612Zm7.172-10.96a1.3,1.3,0,0,1-1.028-2.1c1.3-1.744,2.773-3.45,4.244-5.064a1.3,1.3,0,0,1,1.927,1.757C68.992,170.345,67.6,172,66.3,173.677a1.3,1.3,0,0,1-1.028.508Zm8.761-9.607a1.3,1.3,0,0,1-.885-2.252c1.6-1.51,3.293-2.955,5.012-4.309a1.3,1.3,0,0,1,1.614,2.044c-1.666,1.3-3.293,2.708-4.855,4.165a1.3,1.3,0,0,1-.95.351Zm10.205-8.058a1.3,1.3,0,0,1-.742-2.447c1.822-1.211,3.723-2.356,5.649-3.424a1.312,1.312,0,1,1,1.3,2.278c-1.861,1.028-3.71,2.148-5.467,3.319a1.3,1.3,0,0,1-.807.273Zm11.3-6.352A1.3,1.3,0,0,1,95,147.682c1.992-.9,4.048-1.744,6.118-2.486a1.3,1.3,0,0,1,.885,2.447c-2,.729-4,1.536-5.936,2.408A1.3,1.3,0,0,1,95.534,150.168Z" transform="translate(-46.85 -113.225)" fill="#e0e0e0"/>
      </g>
    </g>
    <g id="freepik--Icon--inject-3" transform="translate(301.107 496.273)">
      <g id="freepik--At--inject-3">
        <path id="Path_2882" data-name="Path 2882" d="M364.225,423.642a1.3,1.3,0,0,0-.677-1.159,4.243,4.243,0,0,0-2.864-.846,6.677,6.677,0,0,0-3.02.729l-5.207,2.773a9.294,9.294,0,0,0,.95-2.382,8.159,8.159,0,0,0,.208-1.953v-7.732a9.111,9.111,0,0,0-.781-3.593,13.851,13.851,0,0,0-4.66-5.272c-1.6-1.224-3.515-2.6-5.767-4.048s-4.283-2.708-6.118-3.736a75.263,75.263,0,0,0-15.412-6.144A64.176,64.176,0,0,0,303.044,388a82.843,82.843,0,0,0-20.255,2.89A105.437,105.437,0,0,0,260.126,400q-10.192,5.389-15.373,11.208a24.525,24.525,0,0,0-6.287,11.468,16.583,16.583,0,0,0-.325,3.463v7.81a16.923,16.923,0,0,0,1.848,7.589,28.025,28.025,0,0,0,8.071,9.5c.768.6,1.874,1.393,3.332,2.4s3.007,2.044,4.673,3.124,3.254,2.122,4.829,3.1,2.838,1.744,3.827,2.3a64.815,64.815,0,0,0,15.478,5.7,76.663,76.663,0,0,0,18.224,2,85.784,85.784,0,0,0,19.76-2.5,97.435,97.435,0,0,0,33.454-16.063,45.418,45.418,0,0,0,7.563-7.251,20.464,20.464,0,0,0,3.632-6.418,39.257,39.257,0,0,0,1.367-5.688,1.789,1.789,0,0,0,0-.247C364.225,431.14,364.225,423.721,364.225,423.642ZM344.7,432.989a21.794,21.794,0,0,1-2.994,3.384,42.955,42.955,0,0,1-5.064,3.905,87.55,87.55,0,0,1-7.927,4.647,62.069,62.069,0,0,1-13.772,5.4,61.324,61.324,0,0,1-13.72,1.966,55.858,55.858,0,0,1-13.017-1.158,47.592,47.592,0,0,1-11.611-4,38.381,38.381,0,0,1-3.8-2.148c-1.471-.911-2.968-1.861-4.491-2.864s-2.968-1.966-4.322-2.9a28.137,28.137,0,0,1-3.072-2.356,20.515,20.515,0,0,1-5.637-7.29c-.117-.3-.234-.586-.338-.885a18.861,18.861,0,0,1,4.439-6.743,42.175,42.175,0,0,1,10.544-7.511,89.258,89.258,0,0,1,15.347-6.509,62.131,62.131,0,0,1,7.81-1.875l-1.3.716a2.408,2.408,0,0,0-1.445,1.692,1.692,1.692,0,0,0,.911,1.705l.885.573a28.15,28.15,0,0,0-6.938,0,24.89,24.89,0,0,0-8.344,2.981,17.574,17.574,0,0,0-6.313,5.077,8.462,8.462,0,0,0-1.744,5.012V431.8a6.817,6.817,0,0,0,0,.729,11.95,11.95,0,0,0,2.6,6.04,27.611,27.611,0,0,0,6.86,6,40.7,40.7,0,0,0,9.477,4.621,41.557,41.557,0,0,0,10.14,2.07,38.131,38.131,0,0,0,10.062-.547,32.546,32.546,0,0,0,9.255-3.228,34.449,34.449,0,0,0,5.6-3.541,13.235,13.235,0,0,0,2.825-2.994,5.807,5.807,0,0,0,.924-2.6,13.923,13.923,0,0,0,0-2.33,35.03,35.03,0,0,0,7.927-.56,35.886,35.886,0,0,0,10.414-3.905l.6-.351A4.33,4.33,0,0,1,344.7,432.989Zm-46.458-7.667a22.637,22.637,0,0,1,9.62,3.723,22.373,22.373,0,0,1,2.9,2.239,14.707,14.707,0,0,1-1.523.937,15.088,15.088,0,0,1-8.943,1.627,22.013,22.013,0,0,1-9.633-3.671,19.167,19.167,0,0,1-2.968-2.317,10.311,10.311,0,0,1,1.367-.859,15.1,15.1,0,0,1,9.216-1.679ZM334.52,417.6a12.823,12.823,0,0,1-4.66,1.041,9.033,9.033,0,0,1-5.415-1.406l-17.625-11.546a45.056,45.056,0,0,1,5.272.911,54.57,54.57,0,0,1,12.379,4.634,65.808,65.808,0,0,1,5.754,3.358c1.588,1.015,2.994,2.044,4.335,3.007Z" transform="translate(-238.139 -387.993)" fill="#8880f7"/>
        <path id="Path_2883" data-name="Path 2883" d="M364.225,423.642a1.3,1.3,0,0,0-.677-1.159,4.243,4.243,0,0,0-2.864-.846,6.677,6.677,0,0,0-3.02.729l-5.207,2.773a9.294,9.294,0,0,0,.95-2.382,8.159,8.159,0,0,0,.208-1.953v-7.732a9.111,9.111,0,0,0-.781-3.593,13.851,13.851,0,0,0-4.66-5.272c-1.6-1.224-3.515-2.6-5.767-4.048s-4.283-2.708-6.118-3.736a75.263,75.263,0,0,0-15.412-6.144A64.176,64.176,0,0,0,303.044,388a82.843,82.843,0,0,0-20.255,2.89A105.437,105.437,0,0,0,260.126,400q-10.192,5.389-15.373,11.208a24.525,24.525,0,0,0-6.287,11.468,16.583,16.583,0,0,0-.325,3.463v7.81a16.923,16.923,0,0,0,1.848,7.589,28.025,28.025,0,0,0,8.071,9.5c.768.6,1.874,1.393,3.332,2.4s3.007,2.044,4.673,3.124,3.254,2.122,4.829,3.1,2.838,1.744,3.827,2.3a64.815,64.815,0,0,0,15.478,5.7,76.663,76.663,0,0,0,18.224,2,85.784,85.784,0,0,0,19.76-2.5,97.435,97.435,0,0,0,33.454-16.063,45.418,45.418,0,0,0,7.563-7.251,20.464,20.464,0,0,0,3.632-6.418,39.257,39.257,0,0,0,1.367-5.688,1.789,1.789,0,0,0,0-.247C364.225,431.14,364.225,423.721,364.225,423.642ZM344.7,432.989a21.794,21.794,0,0,1-2.994,3.384,42.955,42.955,0,0,1-5.064,3.905,87.55,87.55,0,0,1-7.927,4.647,62.069,62.069,0,0,1-13.772,5.4,61.324,61.324,0,0,1-13.72,1.966,55.858,55.858,0,0,1-13.017-1.158,47.592,47.592,0,0,1-11.611-4,38.381,38.381,0,0,1-3.8-2.148c-1.471-.911-2.968-1.861-4.491-2.864s-2.968-1.966-4.322-2.9a28.137,28.137,0,0,1-3.072-2.356,20.515,20.515,0,0,1-5.637-7.29c-.117-.3-.234-.586-.338-.885a18.861,18.861,0,0,1,4.439-6.743,42.175,42.175,0,0,1,10.544-7.511,89.258,89.258,0,0,1,15.347-6.509,62.131,62.131,0,0,1,7.81-1.875l-1.3.716a2.408,2.408,0,0,0-1.445,1.692,1.692,1.692,0,0,0,.911,1.705l.885.573a28.15,28.15,0,0,0-6.938,0,24.89,24.89,0,0,0-8.344,2.981,17.574,17.574,0,0,0-6.313,5.077,8.462,8.462,0,0,0-1.744,5.012V431.8a6.817,6.817,0,0,0,0,.729,11.95,11.95,0,0,0,2.6,6.04,27.611,27.611,0,0,0,6.86,6,40.7,40.7,0,0,0,9.477,4.621,41.557,41.557,0,0,0,10.14,2.07,38.131,38.131,0,0,0,10.062-.547,32.546,32.546,0,0,0,9.255-3.228,34.449,34.449,0,0,0,5.6-3.541,13.235,13.235,0,0,0,2.825-2.994,5.807,5.807,0,0,0,.924-2.6,13.923,13.923,0,0,0,0-2.33,35.03,35.03,0,0,0,7.927-.56,35.886,35.886,0,0,0,10.414-3.905l.6-.351A4.33,4.33,0,0,1,344.7,432.989Zm-46.458-7.667a22.637,22.637,0,0,1,9.62,3.723,22.373,22.373,0,0,1,2.9,2.239,14.707,14.707,0,0,1-1.523.937,15.088,15.088,0,0,1-8.943,1.627,22.013,22.013,0,0,1-9.633-3.671,19.167,19.167,0,0,1-2.968-2.317,10.311,10.311,0,0,1,1.367-.859,15.1,15.1,0,0,1,9.216-1.679ZM334.52,417.6a12.823,12.823,0,0,1-4.66,1.041,9.033,9.033,0,0,1-5.415-1.406l-17.625-11.546a45.056,45.056,0,0,1,5.272.911,54.57,54.57,0,0,1,12.379,4.634,65.808,65.808,0,0,1,5.754,3.358c1.588,1.015,2.994,2.044,4.335,3.007Z" transform="translate(-238.139 -387.993)" opacity="0.2"/>
        <path id="Path_2884" data-name="Path 2884" d="M251.265,426.564a18.861,18.861,0,0,1,4.439-6.743,42.175,42.175,0,0,1,10.544-7.511A89.258,89.258,0,0,1,281.6,405.8a62.143,62.143,0,0,1,7.81-1.874l4.738-2.512a6.17,6.17,0,0,1,3.007-.664,5.129,5.129,0,0,1,2.786.716l3.124,2.044a45.067,45.067,0,0,1,5.272.911,54.565,54.565,0,0,1,12.379,4.634,65.849,65.849,0,0,1,5.754,3.358c1.549,1.015,2.955,2.018,4.3,3.007a6.643,6.643,0,0,0,.755-.338,4.686,4.686,0,0,0,2.721-2.994c.26-1.172-.573-2.486-2.5-3.905-1.6-1.224-3.358-2.473-5.207-3.723a59.9,59.9,0,0,0-5.754-3.358,53.369,53.369,0,0,0-12.379-4.634,45.559,45.559,0,0,0-12.913-1.185,56.551,56.551,0,0,0-13.863,2.6,89.374,89.374,0,0,0-15.347,6.509,41.84,41.84,0,0,0-10.544,7.5,17.744,17.744,0,0,0-4.764,7.81,11.924,11.924,0,0,0,.664,7.81,17.836,17.836,0,0,0,2.239,3.749,17.836,17.836,0,0,1-2.239-3.749C251.487,427.15,251.37,426.864,251.265,426.564Z" transform="translate(-234.381 -385.812)" opacity="0.1"/>
        <path id="Path_2885" data-name="Path 2885" d="M296.923,414.295a22.662,22.662,0,0,0-9.62-3.736,15.113,15.113,0,0,0-9.112,1.692c-2.734,1.445-3.905,3.137-3.632,5.09a6.9,6.9,0,0,0,2.278,3.762h0a11.216,11.216,0,0,1,1.367-.859,15.1,15.1,0,0,1,9.112-1.679,22.638,22.638,0,0,1,9.62,3.723,22.383,22.383,0,0,1,2.9,2.239l-.69.456q3.437-2.109,3.072-4.647C301.921,418.434,300.177,416.377,296.923,414.295Z" transform="translate(-227.162 -381.223)" opacity="0.1"/>
        <path id="Path_2886" data-name="Path 2886" d="M290.9,435.15a41.89,41.89,0,0,1-19.617-6.691,27.339,27.339,0,0,1-6.86-6.014,11.911,11.911,0,0,1-2.6-6.027,8.614,8.614,0,0,1,0-1.159v8.409a6.833,6.833,0,0,0,0,.729,11.949,11.949,0,0,0,2.6,6.04,27.608,27.608,0,0,0,6.86,6,40.69,40.69,0,0,0,9.477,4.621,41.557,41.557,0,0,0,10.14,2.07Z" transform="translate(-230.999 -379.767)" opacity="0.1"/>
        <path id="Path_2887" data-name="Path 2887" d="M306.22,418.97v7.993a35.03,35.03,0,0,0,7.927-.56V418.41a34.29,34.29,0,0,1-7.927.56Z" transform="translate(-217.598 -378.817)" opacity="0.1"/>
        <path id="Path_2888" data-name="Path 2888" d="M280.236,450.964a64.255,64.255,0,0,1-15.477-5.7c-.989-.547-2.265-1.3-3.827-2.291s-3.176-2.018-4.829-3.1-3.215-2.135-4.673-3.124-2.6-1.8-3.332-2.4a28.065,28.065,0,0,1-8.071-9.516,16.923,16.923,0,0,1-1.835-7.628V425.2a16.923,16.923,0,0,0,1.848,7.589,28.026,28.026,0,0,0,8.071,9.5c.768.6,1.874,1.393,3.332,2.4s3.007,2.044,4.673,3.124,3.254,2.122,4.829,3.1,2.838,1.744,3.827,2.3a64.813,64.813,0,0,0,15.477,5.7,76.656,76.656,0,0,0,18.224,2v-7.98A76.647,76.647,0,0,1,280.236,450.964Z" transform="translate(-238.124 -379.179)" opacity="0.1"/>
        <path id="Path_2889" data-name="Path 2889" d="M348.175,404.208a13.851,13.851,0,0,1,4.66,5.272,8.318,8.318,0,0,1,.573,5.3,10.9,10.9,0,0,1-2.8,4.881,20.751,20.751,0,0,1-5.467,4.048,35.526,35.526,0,0,1-10.414,3.905,34.287,34.287,0,0,1-7.927.56v2.33a5.7,5.7,0,0,1-.924,2.6,13.018,13.018,0,0,1-2.825,2.994,34.4,34.4,0,0,1-5.6,3.554,32.973,32.973,0,0,1-9.255,3.228,38.131,38.131,0,0,1-10.062.547,41.89,41.89,0,0,1-19.617-6.691,27.334,27.334,0,0,1-6.86-6.014,11.911,11.911,0,0,1-2.6-6.027,8.305,8.305,0,0,1,1.705-5.754,17.573,17.573,0,0,1,6.313-5.077,24.889,24.889,0,0,1,8.344-2.981,28.15,28.15,0,0,1,6.938,0l-.885-.573a1.692,1.692,0,0,1-.911-1.705,2.408,2.408,0,0,1,1.445-1.692l6.079-3.228a6.171,6.171,0,0,1,3.007-.664,5.129,5.129,0,0,1,2.786.716l20.749,13.59a9.008,9.008,0,0,0,5.415,1.406,12.47,12.47,0,0,0,5.415-1.38,4.686,4.686,0,0,0,2.721-2.994c.26-1.172-.573-2.486-2.5-3.905-1.6-1.224-3.358-2.473-5.207-3.723a59.877,59.877,0,0,0-5.754-3.358,53.368,53.368,0,0,0-12.379-4.634,45.56,45.56,0,0,0-12.9-1.185,56.531,56.531,0,0,0-13.876,2.6,89.382,89.382,0,0,0-15.347,6.509,41.839,41.839,0,0,0-10.544,7.5,17.743,17.743,0,0,0-4.764,7.81,11.924,11.924,0,0,0,.664,7.81,20.515,20.515,0,0,0,5.636,7.29,28.115,28.115,0,0,0,3.072,2.356c1.3.937,2.8,1.9,4.322,2.9s3.02,1.953,4.491,2.864a38.394,38.394,0,0,0,3.8,2.148,47.594,47.594,0,0,0,11.611,4,55.859,55.859,0,0,0,13.017,1.159,61.324,61.324,0,0,0,13.72-1.966,62.066,62.066,0,0,0,13.772-5.4,87.551,87.551,0,0,0,7.927-4.647A42.95,42.95,0,0,0,342,436.582a19.735,19.735,0,0,0,4.673-6.287,12,12,0,0,1,.937-1.822,4.66,4.66,0,0,1,1.705-1.3l8.383-4.8a6.677,6.677,0,0,1,3.02-.729,4.244,4.244,0,0,1,2.864.846,1.3,1.3,0,0,1,.651,1.393,39.249,39.249,0,0,1-1.367,5.688,20.6,20.6,0,0,1-3.632,6.418,45.941,45.941,0,0,1-7.563,7.238,88.256,88.256,0,0,1-13.082,8.214,87.214,87.214,0,0,1-20.372,7.81,85.819,85.819,0,0,1-19.76,2.512,76.646,76.646,0,0,1-18.224-2.018,64.253,64.253,0,0,1-15.478-5.7c-.989-.547-2.265-1.3-3.827-2.291s-3.176-2.018-4.829-3.1-3.215-2.135-4.673-3.124-2.6-1.8-3.332-2.4a28.067,28.067,0,0,1-8.071-9.516,16.727,16.727,0,0,1-1.523-10.908,24.524,24.524,0,0,1,6.287-11.468q5.207-5.819,15.373-11.208a105.443,105.443,0,0,1,22.663-9.112,82.842,82.842,0,0,1,20.2-2.916,64.176,64.176,0,0,1,17.794,2.226,75.263,75.263,0,0,1,15.412,6.144q2.747,1.536,6.118,3.736C344.686,401.631,346.574,402.985,348.175,404.208Zm-57.484,25.969a22.011,22.011,0,0,0,9.633,3.671,15.087,15.087,0,0,0,8.943-1.627c2.877-1.523,4.178-3.241,3.905-5.129s-2.031-3.905-5.285-6.027a22.662,22.662,0,0,0-9.62-3.736,15.113,15.113,0,0,0-9.112,1.692c-2.734,1.445-3.905,3.137-3.632,5.09S287.515,428.095,290.691,430.178Z" transform="translate(-238.126 -387.994)" fill="#8880f7"/>
      </g>
    </g>
    <g id="freepik--Envelope--inject-3" transform="translate(412.978 423.004)">
      <g id="freepik--Mail--inject-3">
        <path id="Path_2890" data-name="Path 2890" d="M324.08,385.723v.95a5.311,5.311,0,0,0,2.4,4.166L378,420.6a5.3,5.3,0,0,0,4.8,0l85.315-49.257a5.311,5.311,0,0,0,2.4-4.166v-.95a5.311,5.311,0,0,0-2.4-4.166l-51.522-29.744a5.3,5.3,0,0,0-4.8,0l-85.315,49.231A5.311,5.311,0,0,0,324.08,385.723Z" transform="translate(-324.08 -331.699)" fill="#8880f7"/>
        <path id="Path_2891" data-name="Path 2891" d="M324.08,385.723v.95a5.311,5.311,0,0,0,2.4,4.166L378,420.6a5.3,5.3,0,0,0,4.8,0l85.315-49.257a5.311,5.311,0,0,0,2.4-4.166v-.95a5.311,5.311,0,0,0-2.4-4.166l-51.522-29.744a5.3,5.3,0,0,0-4.8,0l-85.315,49.231A5.311,5.311,0,0,0,324.08,385.723Z" transform="translate(-324.08 -331.699)" fill="#8880f7"/>
        <path id="Path_2892" data-name="Path 2892" d="M380.392,346.09l-53.917,31.124a5.311,5.311,0,0,0-2.4,4.166v.95a5.311,5.311,0,0,0,2.4,4.166L378,416.266a4.973,4.973,0,0,0,2.4.573h0Z" transform="translate(-324.08 -327.368)" opacity="0.2"/>
        <path id="Path_2893" data-name="Path 2893" d="M380.392,346.09l-53.917,31.124a5.311,5.311,0,0,0-2.4,4.166v.95a5.311,5.311,0,0,0,2.4,4.166L378,416.266a4.973,4.973,0,0,0,2.4.573h0Z" transform="translate(-324.08 -327.368)" opacity="0.15"/>
        <path id="Path_2894" data-name="Path 2894" d="M455.063,362.028l-51.522-29.744a5.3,5.3,0,0,0-4.8,0l-31.4,18.12v70.736h0a4.985,4.985,0,0,0,2.408-.573l85.315-49.257a5.311,5.311,0,0,0,2.4-4.166v-.95A5.311,5.311,0,0,0,455.063,362.028Z" transform="translate(-311.028 -331.708)" opacity="0.2"/>
        <path id="Path_2895" data-name="Path 2895" d="M369.423,409.313l-43.269-24.98a1.458,1.458,0,0,1,0-2.773L411.468,332.3a5.3,5.3,0,0,1,4.8,0l51.522,29.718a1.458,1.458,0,0,1,0,2.773l-14.163,8.175-4.947,2.864-66.206,38.258a5.3,5.3,0,0,1-4.8,0l-4.2-2.421Z" transform="translate(-323.758 -331.702)" fill="#8880f7"/>
        <path id="Path_2896" data-name="Path 2896" d="M408.7,367.816l59.085-5.793-58.577,3.319,7.042-33.064a4.935,4.935,0,0,0-2.6-.547L402.6,376.421l-77.426,6.43a1.614,1.614,0,0,0,.976,1.5l62.483-3.632-8.617,33.949,11.013-34.079h0l10.674-.625a5.832,5.832,0,0,0,3.528-1.471h0a5.753,5.753,0,0,0,1.8-3.1Z" transform="translate(-323.751 -331.704)" opacity="0.15"/>
        <path id="Path_2897" data-name="Path 2897" d="M343.641,381.294l58.955-4.855,2.109-8.448,1.172-4.7,7.81-31.541a4.764,4.764,0,0,0-2.187.547l-42.657,24.629-42.7,24.616a1.744,1.744,0,0,0-.976,1.3L337,381.866Z" transform="translate(-323.751 -331.695)" fill="#fff" opacity="0.3"/>
      </g>
    </g>
  </g>
</svg>
