<svg xmlns="http://www.w3.org/2000/svg" width="511.206" height="519.76" viewBox="0 0 511.206 519.76">
  <g id="Forgot_password-pana" data-name="Forgot password-pana" transform="translate(-41.536 -46.84)">
    <g id="freepik--background-complete--inject-11" transform="translate(60.788 53.459)">
      <path id="Path_2898" data-name="Path 2898" d="M198.912,241.831a28.32,28.32,0,1,0-.335-44.442h0l-6.2-4.788-9.228,2.885,1.053-9.228-7.78-6.045-9.216,2.873,1.053-9.228-6.691-5.195-5.626,1.748.646-5.626-3.938-3.064-8.833.862-1.2,13.573,46.274,35.968a28.344,28.344,0,0,0,10.018,29.708Zm33.718-9.659a8.115,8.115,0,1,1-1.436-11.395A8.115,8.115,0,0,1,232.63,232.172Z" transform="translate(-40.88 -30.834)" fill="#ebebeb"/>
      <path id="Path_2899" data-name="Path 2899" d="M227.961,142.345a15.165,15.165,0,1,0-23.8-.407h0l-2.669,3.256,1.424,4.979-4.931-.682-3.316,4.094,1.424,4.979-4.919-.694-2.873,3.519.862,3.028-3-.419-1.664,2.047.347,4.788,7.253.814,19.845-24.31a15.177,15.177,0,0,0,16.015-4.991Zm-4.788-18.17a5.612,5.612,0,1,1,.048,0Z" transform="translate(-32.632 -39.528)" fill="#ebebeb"/>
      <path id="Path_2900" data-name="Path 2900" d="M188.826,52.37V140.2H62.656L58.12,52.98Z" transform="translate(-57.522 -52.37)" fill="#e0e0e0"/>
      <rect id="Rectangle_679" data-name="Rectangle 679" width="87.042" height="126.17" transform="translate(0.598 87.652) rotate(-90)" fill="#fff"/>
      <path id="Path_2901" data-name="Path 2901" d="M184.951,140.619H57.62V52.38H184.951Zm-126.158-1.2H183.754V53.577H58.817Z" transform="translate(-57.62 -52.368)" fill="#e0e0e0"/>
      <rect id="Rectangle_680" data-name="Rectangle 680" width="98.831" height="65.413" transform="translate(14.256 11.419)" fill="#fff"/>
      <path id="Path_2902" data-name="Path 2902" d="M168.45,61.957h-1.9l-5.41.108H140.789l-71.146.144.287-.287v65.413h0l-.311-.311,98.843.072-.251.239c0-19.905.1-36.219.132-47.59,0-5.685,0-10.114.06-13.166V79.7c0,11.407.084,27.781.132,47.746v.251H69.14v-.323h0V61.67h.287l71.338.144,20.348.084h6.751Z" transform="translate(-55.351 -50.538)" fill="#e0e0e0"/>
      <path id="Path_2903" data-name="Path 2903" d="M58.11,52.67a10.988,10.988,0,0,1,2.178,1.412c1.293.934,3.04,2.25,4.943,3.77s3.591,2.956,4.788,4.034a10.45,10.45,0,0,1,1.807,1.843c-.12.132-3.148-2.394-6.942-5.386A70.822,70.822,0,0,1,58.11,52.67Z" transform="translate(-57.523 -52.311)" fill="#e0e0e0"/>
      <path id="Path_2904" data-name="Path 2904" d="M165.763,52.88a62.239,62.239,0,0,1-6.607,5.65,62.44,62.44,0,0,1-7.026,5.159,62.242,62.242,0,0,1,6.631-5.65,61.761,61.761,0,0,1,7-5.159Z" transform="translate(-39.007 -52.27)" fill="#e0e0e0"/>
      <path id="Path_2905" data-name="Path 2905" d="M165.754,127.487,151.69,116.08" transform="translate(-39.094 -39.823)" fill="#fff"/>
      <path id="Path_2906" data-name="Path 2906" d="M151.69,116.08a67.036,67.036,0,0,1,7.182,5.458,68.3,68.3,0,0,1,6.835,5.985,65.735,65.735,0,0,1-7.182-5.458,63.438,63.438,0,0,1-6.835-5.985Z" transform="translate(-39.094 -39.823)" fill="#e0e0e0"/>
      <path id="Path_2907" data-name="Path 2907" d="M58.11,127.361a60.806,60.806,0,0,1,6.571-5.59,61.788,61.788,0,0,1,6.954-5.111,57.847,57.847,0,0,1-6.559,5.6,60.724,60.724,0,0,1-6.966,5.1Z" transform="translate(-57.523 -39.709)" fill="#e0e0e0"/>
      <rect id="Rectangle_681" data-name="Rectangle 681" width="21.904" height="62.193" transform="translate(34.328 53.707) rotate(-90)" fill="#e0e0e0"/>
    </g>
    <g id="freepik--Floor--inject-11" transform="translate(46.125 552.069)">
      <path id="Path_2908" data-name="Path 2908" d="M504.553,469.251c0,.168-102.793.311-229.573.311s-229.609-.144-229.609-.311,102.781-.311,229.609-.311S504.553,469.084,504.553,469.251Z" transform="translate(-45.37 -468.94)" fill="#263238"/>
    </g>
    <g id="freepik--Character--inject-11" transform="translate(57.508 248.231)">
      <path id="Path_2909" data-name="Path 2909" d="M348.79,433.159l29.624,43.078,10.593.251-19.414-44.3Z" transform="translate(3.004 -172.339)" fill="#263238"/>
      <path id="Path_2910" data-name="Path 2910" d="M90.188,434.83l-15.608,40.7h7.8l27.254-40.516Z" transform="translate(-51 -171.819)" fill="#263238"/>
      <path id="Path_2911" data-name="Path 2911" d="M82,319.938,83.2,372.6a13.908,13.908,0,0,0,13.6,13.609l294.675,6.559a13.92,13.92,0,0,0,14.232-13.92V315.414a37.476,37.476,0,0,0-32.317-37.105c-53.946-7.421-165.178-18.828-255.128-2.621A44.012,44.012,0,0,0,82,319.938Z" transform="translate(-49.54 -204.786)" fill="#181c3a"/>
      <path id="Path_2912" data-name="Path 2912" d="M86.048,327.662s-24.274-11.239-29.241,0,.61,25.028,6.069,32.712S68.31,463,68.31,463l368.155-3.938,4.357-91.291s17.655-21.748,16.554-31.12-16-23.017-33.107-9.025-21.545,43.234-21.545,43.234L109.2,373.074S110.2,332.007,86.048,327.662Z" transform="translate(-54.88 -194.113)" fill="#181c3a"/>
      <path id="Path_2913" data-name="Path 2913" d="M390.312,378.051c0,.168-65.221.311-145.656.311S99,378.255,99,378.051s65.2-.311,145.656-.311S390.312,377.908,390.312,378.051Z" transform="translate(-46.191 -183.063)" fill="#263238"/>
      <path id="Path_2914" data-name="Path 2914" d="M102.832,428.44a.9.9,0,0,1,0-.287v-.85q0-1.125-.072-3.268V412.066c0-10.126.072-24.118-.395-39.5a167.892,167.892,0,0,0-1.676-21.641c-.215-.79-.431-1.58-.634-2.394a14.691,14.691,0,0,0-.91-2.226c-.634-1.448-1.281-2.837-1.987-4.141a44.117,44.117,0,0,0-4.477-6.882,31.959,31.959,0,0,0-4.788-4.788,26.011,26.011,0,0,0-4.3-2.777,43.471,43.471,0,0,0-4.058-1.628h.275l.826.227a17.677,17.677,0,0,1,3.064,1.2,23.6,23.6,0,0,1,4.4,2.717,31.24,31.24,0,0,1,4.884,4.788,43.376,43.376,0,0,1,4.6,6.918c.73,1.317,1.388,2.705,2.035,4.165.323.73.622,1.484.922,2.238l.682,2.394a161.587,161.587,0,0,1,1.736,21.748c.467,15.441.311,29.433.215,39.559-.072,5.015-.132,9.1-.168,11.969v4.106C102.832,428.333,102.832,428.44,102.832,428.44Z" transform="translate(-50.023 -193.235)" fill="#263238"/>
      <path id="Path_2915" data-name="Path 2915" d="M79.062,344.47a1.723,1.723,0,0,1,.97-.3,4.117,4.117,0,0,1,2.705.754,4.213,4.213,0,0,1,1.317,1.5A3.651,3.651,0,0,1,84.4,348.7a4.465,4.465,0,0,1-3.435,3.711,4.548,4.548,0,0,1-4.548-2.166,4.117,4.117,0,0,1-.587-2.226,4.6,4.6,0,0,1,2.6-3.9,2.1,2.1,0,0,1,.993-.251c0,.06-.347.144-.886.467a4.608,4.608,0,0,0-1.736,1.939,3.687,3.687,0,0,0,.144,3.591,4.022,4.022,0,0,0,3.95,1.855,3.938,3.938,0,0,0,2.98-3.148,3.387,3.387,0,0,0-1.365-3.315,4.022,4.022,0,0,0-2.394-.874A8.451,8.451,0,0,1,79.062,344.47Z" transform="translate(-50.754 -189.735)" fill="#263238"/>
      <path id="Path_2916" data-name="Path 2916" d="M80.475,366.733a5.662,5.662,0,0,1-1.664-1.963,11.766,11.766,0,0,1-.144-11.969,5.829,5.829,0,0,1,1.616-2.011c.084.072-.539.826-1.2,2.214a12.724,12.724,0,0,0-1.341,5.793,12.867,12.867,0,0,0,1.472,5.769C79.912,365.931,80.571,366.673,80.475,366.733Z" transform="translate(-50.503 -188.37)" fill="#263238"/>
      <path id="Path_2917" data-name="Path 2917" d="M76.891,334.42a10.1,10.1,0,0,1-.359,1.8,11.036,11.036,0,0,0,1.748,8.223,13.626,13.626,0,0,1,1.065,1.484,5.281,5.281,0,0,1-1.424-1.2,9.683,9.683,0,0,1-1.867-8.618,3.818,3.818,0,0,1,.838-1.688Z" transform="translate(-50.773 -191.594)" fill="#263238"/>
      <path id="Path_2918" data-name="Path 2918" d="M70.71,345.481c.144-.12,1.257,1.005,2.956,1.879s3.244,1.2,3.22,1.341a5.254,5.254,0,0,1-3.507-.79,5.35,5.35,0,0,1-2.669-2.43Z" transform="translate(-51.762 -189.417)" fill="#263238"/>
      <path id="Path_2919" data-name="Path 2919" d="M435.884,411.651c0,.168-83.032.311-185.454.311S65,411.819,65,411.651s83.02-.311,185.526-.311S435.884,411.472,435.884,411.651Z" transform="translate(-52.887 -176.445)" fill="#263238"/>
      <path id="Path_2920" data-name="Path 2920" d="M341.361,363.05c.18,0,.311,13,.311,29.026s-.132,29.05-.311,29.05-.311-13-.311-29.05S341.194,363.05,341.361,363.05Z" transform="translate(1.479 -185.956)" fill="#263238"/>
      <path id="Path_2921" data-name="Path 2921" d="M268.06,279.162h-.575l-1.676.06-6.428.18-23.676.551-78.088,1.568c-7.625.18-15.081.156-22.239.634a75.1,75.1,0,0,0-20.264,3.7A35.765,35.765,0,0,0,99.77,295.991a33.779,33.779,0,0,0-4.788,6.942,44.359,44.359,0,0,0-2.933,7.182,67.792,67.792,0,0,0-2.394,13.166c-.371,3.95-.407,7.361-.431,10.162s0,4.955.084,6.428v1.676a12.01,12.01,0,0,0-.1-1.676c-.072-1.46-.168-3.591-.192-6.428s0-6.224.323-10.2a67.674,67.674,0,0,1,2.394-13.3,44.983,44.983,0,0,1,2.921-7.313,33.681,33.681,0,0,1,4.788-7.086,36.256,36.256,0,0,1,15.56-10.294,74.688,74.688,0,0,1,20.348-3.77c7.182-.479,14.651-.467,22.275-.646l78.1-1.388,23.664-.347,6.44-.072h1.676Z" transform="translate(-48.157 -202.503)" fill="#263238"/>
      <path id="Path_2922" data-name="Path 2922" d="M160.469,313.467a6.631,6.631,0,0,0-1.005.658,5.47,5.47,0,0,0-1.855,2.6,4.6,4.6,0,0,0,.658,4.441,4.788,4.788,0,0,0,8.75-2.083,4.644,4.644,0,0,0-1.412-4.273,5.506,5.506,0,0,0-2.825-1.472c-.754-.132-1.2-.084-1.2-.132a2.31,2.31,0,0,1,1.2-.108,5.578,5.578,0,0,1,4.489,3.34,4.931,4.931,0,0,1,.275,2.753,5.4,5.4,0,0,1-9.767,2.322,4.955,4.955,0,0,1-.993-2.573,5.554,5.554,0,0,1,.371-2.394,5.422,5.422,0,0,1,2.131-2.645A2.394,2.394,0,0,1,160.469,313.467Z" transform="translate(-34.813 -195.801)" fill="#263238"/>
      <path id="Path_2923" data-name="Path 2923" d="M155.865,342.71a14.483,14.483,0,0,1-.91-3.591,20.348,20.348,0,0,1,.191-8.833,12.089,12.089,0,0,1,5.159-7.11,8.079,8.079,0,0,1,2.5-1.017,2.394,2.394,0,0,1,.982-.1,15.287,15.287,0,0,0-3.256,1.484,12.281,12.281,0,0,0-4.788,6.906,22.347,22.347,0,0,0-.359,8.594C155.673,341.321,155.96,342.686,155.865,342.71Z" transform="translate(-35.248 -194.031)" fill="#263238"/>
      <path id="Path_2924" data-name="Path 2924" d="M159.891,298a28.04,28.04,0,0,0-1.76,2.633,10.485,10.485,0,0,0,3.076,13.5,26.015,26.015,0,0,0,2.741,1.616,2.2,2.2,0,0,1-.862-.18,9.289,9.289,0,0,1-2.131-1.077,10.413,10.413,0,0,1-3.22-14.1,9.119,9.119,0,0,1,1.46-1.891C159.6,298.087,159.867,297.92,159.891,298Z" transform="translate(-34.918 -198.77)" fill="#263238"/>
      <path id="Path_2925" data-name="Path 2925" d="M160.434,318.007a60.2,60.2,0,0,0-6.487,1.46,62.128,62.128,0,0,0-6.057,2.753A17.32,17.32,0,0,1,160.434,318.007Z" transform="translate(-36.562 -194.834)" fill="#263238"/>
      <g id="Group_3275" data-name="Group 3275" transform="translate(85.199 180.987)" opacity="0.3">
        <path id="Path_2926" data-name="Path 2926" d="M126.06,381.429a60.158,60.158,0,0,0,40.7,12.269q-4.548,21.1-9.073,42.216c-.8,3.746-1.556,7.924.407,11.227,2.753,4.632,9.157,5.087,14.543,5.015,5.985-.084,12.233-.227,17.547-3,7.529-3.926,11.574-12.257,14.495-20.228s5.446-16.518,11.455-22.514A46.681,46.681,0,0,0,242.642,421.5c2.992.551,6.392.718,8.786-1.2s3.076-5.29,2.466-8.259a24.777,24.777,0,0,0-3.914-8.127l-17.523-27.171c-2.394-3.675-4.955-7.553-8.965-9.3-3.148-1.376-6.715-1.2-10.138-1.041a467.9,467.9,0,0,0-84.827,12.819" transform="translate(-126.06 -366.302)"/>
      </g>
      <g id="Group_3276" data-name="Group 3276" transform="translate(60.403 60.249)" opacity="0.3">
        <path id="Path_2927" data-name="Path 2927" d="M223.765,266.591c-7.086,18.72-33.514,23.017-42.839,40.7-9.181,17.523,2.2,40.7-7.253,58.123-3.507,6.44-9.576,11.239-12.951,17.727-2.3,4.357-3.483,9.576-7.182,12.8-4.333,3.77-11.048,3.7-16.254,1.257s-9.2-6.823-12.915-11.215c-6.942-8.235-13.466-17.14-16.757-27.422-5.578-17.679-.455-37.68,10.772-52.45s27.853-24.741,45.412-30.714,36.136-8.223,54.6-9.959" transform="translate(-105.344 -265.43)"/>
      </g>
      <path id="Path_2928" data-name="Path 2928" d="M133.18,227.274a29.086,29.086,0,0,1,10.772-9.947,19.055,19.055,0,0,1,14.363-1.448,14.267,14.267,0,0,1,9.576,10.342c.754,3.842-.275,8.127,1.712,11.5,2.274,3.878,7.768,5.1,9.707,9.169a8.845,8.845,0,0,1-.587,7.816,24.31,24.31,0,0,1-5.255,6.152,12.867,12.867,0,0,1,3.28,2.944,4.465,4.465,0,0,1,.694,4.189,6.152,6.152,0,0,1-3.591,2.873,35.37,35.37,0,0,1-21.174,1.987c-1.891-.407-4.058-.922-5.614.227" transform="translate(-39.459 -215.094)" fill="#263238"/>
      <path id="Path_2929" data-name="Path 2929" d="M175.341,238.444,171.5,250.162l26.165,14.854-26.333.85,1.963,21.341,50.69-12.448s3.04-20.671-48.644-36.315l-3.591-.862a4.106,4.106,0,0,1-2.885-2.5h0a4.441,4.441,0,0,0-2.154-2.31l-4.321-2.25v3.423l2.394,2.789-.383,6.619A5.985,5.985,0,0,0,169,249.6l2.394.563" transform="translate(-33.706 -212.056)" fill="#b78876"/>
      <path id="Path_2930" data-name="Path 2930" d="M130.216,275.118c-1.041,0-10.7,2.394-16.231,9.384s-13.525,33.443-13.525,33.443l20.348,3.519,8.786,22.06s52.007-6.811,49.242-9.576a106.673,106.673,0,0,0-8.379-6.954l11.969-39.87,14.363-7.756-4.848-19.917-28.93,3.914Z" transform="translate(-45.903 -206.359)" fill="#8880f7"/>
      <path id="Path_2931" data-name="Path 2931" d="M178.777,290.321c0,.168-16.219.311-36.207.311s-36.219-.144-36.219-.311,16.219-.311,36.219-.311S178.777,290.154,178.777,290.321Z" transform="translate(-44.743 -200.34)" fill="#181c3a"/>
      <path id="Path_2932" data-name="Path 2932" d="M176.067,300.111c0,.168-16.219.311-36.207.311s-36.219-.144-36.219-.311,16.207-.311,36.219-.311S176.067,299.944,176.067,300.111Z" transform="translate(-45.277 -198.412)" fill="#181c3a"/>
      <path id="Path_2933" data-name="Path 2933" d="M173.176,310.681c0,.18-12.281.323-27.434.323s-27.422-.144-27.422-.323,12.281-.311,27.422-.311S173.176,310.514,173.176,310.681Z" transform="translate(-42.386 -196.331)" fill="#181c3a"/>
      <path id="Path_2934" data-name="Path 2934" d="M176.684,320.871c0,.168-12.281.311-27.422.311s-27.422-.144-27.422-.311,12.269-.311,27.422-.311S176.684,320.692,176.684,320.871Z" transform="translate(-41.692 -194.324)" fill="#181c3a"/>
      <path id="Path_2935" data-name="Path 2935" d="M184.471,277.151c0,.18-8.115.311-18.11.311s-18.122-.132-18.122-.311,8.1-.311,18.122-.311S184.471,277.031,184.471,277.151Z" transform="translate(-36.493 -202.934)" fill="#181c3a"/>
      <path id="Path_2936" data-name="Path 2936" d="M185.55,266.737c0,.18-8.079.5-18.038.73s-18.062.287-18.062.12,8.067-.5,18.038-.742S185.55,266.569,185.55,266.737Z" transform="translate(-36.255 -204.944)" fill="#181c3a"/>
      <path id="Path_2937" data-name="Path 2937" d="M121.741,295.35a79.662,79.662,0,0,1-1.951,9.791,81.394,81.394,0,0,1-2.549,9.659,81.4,81.4,0,0,1,1.939-9.791,77.43,77.43,0,0,1,2.561-9.659Z" transform="translate(-42.598 -199.289)" fill="#263238"/>
      <path id="Path_2938" data-name="Path 2938" d="M170.793,420.21,155.64,468l18.265,1.843,17.164-41.534Z" transform="translate(-35.036 -174.698)" fill="#b78876"/>
      <path id="Path_2939" data-name="Path 2939" d="M184.959,447.412l-8.7,21.545s19.007,16.1,17.787,20.24L151.6,473.865l12.173-34.185Z" transform="translate(-35.831 -170.864)" fill="#8880f7"/>
      <path id="Path_2940" data-name="Path 2940" d="M162.106,458.662a1.843,1.843,0,0,0-1.915,1.544,1.772,1.772,0,0,0,1.508,1.915,1.951,1.951,0,0,0,2.023-1.64c0-.91-.9-1.951-1.8-1.819" transform="translate(-34.141 -167.128)" fill="#e0e0e0"/>
      <path id="Path_2941" data-name="Path 2941" d="M151.6,468.8l1.365-3.4,40.193,16.015s1.592,1.5.886,2.753Z" transform="translate(-35.831 -165.799)" fill="#e0e0e0"/>
      <path id="Path_2942" data-name="Path 2942" d="M173.611,464.3c-.084.2-1.2-.072-2.394.215s-2.119.982-2.274.826.575-1.2,2.107-1.568S173.719,464.124,173.611,464.3Z" transform="translate(-32.42 -166.139)" fill="#263238"/>
      <path id="Path_2943" data-name="Path 2943" d="M176.642,467.117c0,.227-1.053.251-2.071.874s-1.52,1.424-1.76,1.424.084-1.3,1.365-2.047S176.714,466.925,176.642,467.117Z" transform="translate(-31.668 -165.505)" fill="#263238"/>
      <path id="Path_2944" data-name="Path 2944" d="M176.515,472.8c-.2,0-.12-1.2.826-2.107s2.083-1.041,2.107-.838-.8.6-1.556,1.376S176.73,472.858,176.515,472.8Z" transform="translate(-30.942 -164.938)" fill="#263238"/>
      <path id="Path_2945" data-name="Path 2945" d="M174.741,460.2c-.156.156-1.005-.479-2.2-.826s-2.25-.3-2.3-.515,1.113-.646,2.514-.215S174.944,460.065,174.741,460.2Z" transform="translate(-32.161 -167.166)" fill="#263238"/>
      <path id="Path_2946" data-name="Path 2946" d="M176.365,457.135a4.3,4.3,0,0,1-2.119-.778,9.645,9.645,0,0,1-1.975-1.5,8.738,8.738,0,0,1-.993-1.089,2.742,2.742,0,0,1-.455-.73.958.958,0,0,1,.3-1.137,1.2,1.2,0,0,1,1.077-.144,3.494,3.494,0,0,1,.766.395,8.293,8.293,0,0,1,1.2.934,8.033,8.033,0,0,1,1.5,2,3.734,3.734,0,0,1,.622,2.178c-.12,0-.359-.79-1.089-1.9a8.8,8.8,0,0,0-1.508-1.747,7.027,7.027,0,0,0-1.089-.826c-.407-.275-.79-.419-.969-.263s-.084.1,0,.251a2.671,2.671,0,0,0,.347.539,13.237,13.237,0,0,0,.886,1.053,13.594,13.594,0,0,0,1.771,1.532,15.124,15.124,0,0,1,1.736,1.233Z" transform="translate(-32.061 -168.498)" fill="#263238"/>
      <path id="Path_2947" data-name="Path 2947" d="M175.137,457.429a3.591,3.591,0,0,1,.192-2.262,7.253,7.253,0,0,1,2.143-3.316,1.879,1.879,0,0,1,1.736-.587,1.089,1.089,0,0,1,.682.922,2.789,2.789,0,0,1-.072.862,4.919,4.919,0,0,1-.515,1.424,5.11,5.11,0,0,1-1.7,1.867,2.857,2.857,0,0,1-2.178.658,17.51,17.51,0,0,0,1.855-1.089,5.2,5.2,0,0,0,1.4-1.76,4.908,4.908,0,0,0,.407-1.2c.1-.467.06-.9-.132-.91a1.62,1.62,0,0,0-.993.431,7.179,7.179,0,0,0-.946.958,8.618,8.618,0,0,0-1.2,1.975C175.328,456.58,175.268,457.441,175.137,457.429Z" transform="translate(-31.216 -168.589)" fill="#263238"/>
      <path id="Path_2948" data-name="Path 2948" d="M216.35,384.672l22.622,39.32,18.5-11.874L234.759,372.2Z" transform="translate(-23.079 -184.154)" fill="#b78876"/>
      <path id="Path_2949" data-name="Path 2949" d="M248.515,396.16l11.694,20.156s24.37-5.123,26.9-1.616L248.9,438.759l-19.5-30.63Z" transform="translate(-20.509 -179.435)" fill="#8880f7"/>
      <path id="Path_2950" data-name="Path 2950" d="M244.468,417.9a1.831,1.831,0,0,0,0,2.454,1.771,1.771,0,0,0,2.394,0,1.951,1.951,0,0,0-.06-2.609,1.855,1.855,0,0,0-2.538.3" transform="translate(-17.635 -175.258)" fill="#e0e0e0"/>
      <path id="Path_2951" data-name="Path 2951" d="M245.993,435.856l-1.843-3.16,37.321-21.88s2.166-.335,2.729.982Z" transform="translate(-17.604 -176.556)" fill="#e0e0e0"/>
      <path id="Path_2952" data-name="Path 2952" d="M255.943,412.5c.108.192-.766.862-1.3,2.035s-.539,2.274-.754,2.31-.622-1.2,0-2.633S255.871,412.294,255.943,412.5Z" transform="translate(-15.752 -176.226)" fill="#263238"/>
      <path id="Path_2953" data-name="Path 2953" d="M260,411.764c.156.156-.455.982-.586,2.178s.2,2.131,0,2.238-.97-.862-.778-2.394S259.88,411.6,260,411.764Z" transform="translate(-14.758 -176.367)" fill="#263238"/>
      <path id="Path_2954" data-name="Path 2954" d="M264.4,415.249c-.156.156-.993-.61-1.2-1.939s.455-2.274.634-2.178,0,.993.132,2.083S264.571,415.117,264.4,415.249Z" transform="translate(-13.859 -176.488)" fill="#263238"/>
      <path id="Path_2955" data-name="Path 2955" d="M253.537,408.922c0,.227-.993.5-2,1.2s-1.616,1.58-1.819,1.484.18-1.269,1.376-2.119S253.537,408.719,253.537,408.922Z" transform="translate(-16.518 -176.948)" fill="#263238"/>
      <path id="Path_2956" data-name="Path 2956" d="M252.079,405.681a4.671,4.671,0,0,1-1.915,1.2,11.107,11.107,0,0,1-2.394.646,14.181,14.181,0,0,1-1.472.108,2.953,2.953,0,0,1-.862-.1.957.957,0,0,1-.706-.934,1.2,1.2,0,0,1,.551-.946,3.326,3.326,0,0,1,.778-.347,7.84,7.84,0,0,1,3.938-.3c1.412.263,2.154.778,2.107.85s-.838-.2-2.166-.311a9.315,9.315,0,0,0-2.322.12,8.122,8.122,0,0,0-1.3.347c-.479.156-.826.371-.814.61s0,.12.18.191a2.4,2.4,0,0,0,.634.06,12.139,12.139,0,0,0,3.663-.515,15.023,15.023,0,0,1,2.107-.682Z" transform="translate(-17.49 -177.716)" fill="#263238"/>
      <path id="Path_2957" data-name="Path 2957" d="M251.3,407.077c0,.072-.838-.371-1.676-1.532a7.182,7.182,0,0,1-1.053-2.262,7.908,7.908,0,0,1-.251-1.46,1.879,1.879,0,0,1,.622-1.736,1.053,1.053,0,0,1,1.125,0,3.1,3.1,0,0,1,.646.575,5.553,5.553,0,0,1,.814,1.293,5.242,5.242,0,0,1,.419,2.49c-.12,1.46-.754,2.178-.814,2.119a18.811,18.811,0,0,0,.275-2.131,5.208,5.208,0,0,0-.527-2.178,4.572,4.572,0,0,0-.73-1.089c-.311-.359-.67-.6-.8-.455a1.269,1.269,0,0,0-.275,1.041,7.876,7.876,0,0,0,.18,1.341,8.079,8.079,0,0,0,.838,2.143C250.742,406.407,251.389,406.981,251.3,407.077Z" transform="translate(-16.788 -178.694)" fill="#263238"/>
      <path id="Path_2958" data-name="Path 2958" d="M167.988,388.433l44.43-30.211,28.02,54.545,25.471-13.8s-29.337-71.577-39.87-73.851c-5.9-1.293-73.576,11.622-73.576,11.622l-7.565-3.794-19.151-2.334-1.2,3.1a65.329,65.329,0,0,0,2.131,52.809l.934,1.9Z" transform="translate(-42.058 -193.445)" fill="#263238"/>
      <path id="Path_2959" data-name="Path 2959" d="M147.932,351.283c.335,1.5,37.105,35.908,37.105,35.908L163.852,458.4l31.623,6.044,31.755-85.773L169.19,321.73l-26.56,11.1Z" transform="translate(-37.598 -194.093)" fill="#263238"/>
      <path id="Path_2960" data-name="Path 2960" d="M204.521,352.75c.1.144-9.779,7.014-22.036,15.357S160.2,383.093,160.09,382.973s9.767-7.026,22.036-15.369S204.413,352.607,204.521,352.75Z" transform="translate(-34.16 -187.984)" fill="#455a64"/>
      <path id="Path_2961" data-name="Path 2961" d="M220.012,397.127a10.486,10.486,0,0,1-1.077-1.64c-.658-1.077-1.568-2.669-2.681-4.632-2.214-3.938-5.159-9.444-8.271-15.56s-5.865-11.754-7.792-15.836c-.97-2.047-1.736-3.711-2.25-4.86a9.981,9.981,0,0,1-.73-1.819,13.17,13.17,0,0,1,.958,1.712l2.394,4.788c2.083,4.129,4.872,9.647,7.948,15.764s5.985,11.67,8.1,15.656c1.017,1.927,1.867,3.519,2.514,4.728a12.364,12.364,0,0,1,.886,1.7Z" transform="translate(-26.849 -187.978)" fill="#455a64"/>
      <path id="Path_2962" data-name="Path 2962" d="M184.781,365.78a56.955,56.955,0,0,1-3.4,7.637,56.9,56.9,0,0,1-3.962,7.349,112.372,112.372,0,0,1,7.361-14.986Z" transform="translate(-30.746 -185.418)" fill="#455a64"/>
      <path id="Path_2963" data-name="Path 2963" d="M101.72,308.32l-7.182,26.524a13.837,13.837,0,0,0,1.2,10.21h0a13.908,13.908,0,0,0,15.381,6.954l56.915-14.016-5.985-11.826-44.837,3.89L122,311.839Z" transform="translate(-47.163 -196.734)" fill="#b78876"/>
      <path id="Path_2964" data-name="Path 2964" d="M121.55,352.443l.742-3.854,30.845-5.542,8.965-47.555,57.286-6.823-9.623,50.762Z" transform="translate(-41.749 -200.604)" fill="#455a64"/>
      <path id="Path_2965" data-name="Path 2965" d="M177.429,316.833a3.232,3.232,0,1,1,3.316-2.621,3,3,0,0,1-3.316,2.621Z" transform="translate(-31.353 -196.33)" fill="#8880f7"/>
      <path id="Path_2966" data-name="Path 2966" d="M128.55,228.438l.108,3.435,1.293,51.469c.156,5.985,5.41,10.6,11.8,10.389h0c6.463-.2,11.658-5.267,11.61-11.311-.06-6.332,0-13.011,0-13.011s8.151-1.448,9.719-12.125c.778-5.3.407-13.992-.12-21.09a11.251,11.251,0,0,0-12.532-10.342Z" transform="translate(-40.371 -212.991)" fill="#b78876"/>
      <path id="Path_2967" data-name="Path 2967" d="M154.3,239.668a1.376,1.376,0,0,1-1.3,1.4,1.3,1.3,0,0,1-1.412-1.2,1.377,1.377,0,0,1,1.293-1.4,1.317,1.317,0,0,1,1.424,1.2Z" transform="translate(-35.835 -210.491)" fill="#263238"/>
      <path id="Path_2968" data-name="Path 2968" d="M156.665,238.542c-.168.18-1.2-.575-2.681-.563s-2.538.778-2.705.6.1-.407.563-.754A3.77,3.77,0,0,1,154,237.13a3.7,3.7,0,0,1,2.143.658C156.593,238.171,156.748,238.459,156.665,238.542Z" transform="translate(-35.905 -210.755)" fill="#263238"/>
      <path id="Path_2969" data-name="Path 2969" d="M142.179,240.106a1.364,1.364,0,0,1-1.3,1.4,1.317,1.317,0,0,1-1.424-1.2,1.365,1.365,0,0,1,1.3-1.388,1.3,1.3,0,0,1,1.424,1.185Z" transform="translate(-38.224 -210.403)" fill="#263238"/>
      <path id="Path_2970" data-name="Path 2970" d="M144.595,238.912c-.168.18-1.2-.575-2.681-.563s-2.538.778-2.705.6.084-.407.551-.754a3.806,3.806,0,0,1,2.166-.694,3.663,3.663,0,0,1,2.131.658C144.511,238.505,144.679,238.829,144.595,238.912Z" transform="translate(-38.282 -210.682)" fill="#263238"/>
      <path id="Path_2971" data-name="Path 2971" d="M148.392,249.743a9.851,9.851,0,0,1,2.394-.455c.383,0,.73-.12.79-.383a1.867,1.867,0,0,0-.263-1.1l-1.137-2.849a49,49,0,0,1-2.585-7.445,46.678,46.678,0,0,1,3.172,7.182l1.1,2.861a2.238,2.238,0,0,1,.215,1.472.97.97,0,0,1-.61.563,2.726,2.726,0,0,1-.646.1A9.4,9.4,0,0,1,148.392,249.743Z" transform="translate(-36.621 -210.68)" fill="#263238"/>
      <path id="Path_2972" data-name="Path 2972" d="M151.643,262.851a27.074,27.074,0,0,1-14.363-3.591s3.591,7.277,14.2,6.152Z" transform="translate(-38.652 -206.396)" fill="#aa6550"/>
      <path id="Path_2973" data-name="Path 2973" d="M145.3,236.853c-.156.395-1.616.144-3.351.263s-3.148.539-3.363.168c-.1-.18.168-.539.742-.9a5.53,5.53,0,0,1,2.526-.754,5.65,5.65,0,0,1,2.6.419C145.071,236.339,145.37,236.674,145.3,236.853Z" transform="translate(-38.399 -211.053)" fill="#263238"/>
      <path id="Path_2974" data-name="Path 2974" d="M156.095,234.246c-.263.335-1.281,0-2.49,0s-2.25.251-2.49-.1,0-.5.491-.826a3.591,3.591,0,0,1,4.022.084C156.059,233.791,156.2,234.139,156.095,234.246Z" transform="translate(-35.945 -211.617)" fill="#263238"/>
      <path id="Path_2975" data-name="Path 2975" d="M148.928,252.764a2.49,2.49,0,0,1-1.281-.132l-1.2-.335c-.335-.108-.706-.263-1.125-.419a2.394,2.394,0,0,1-1.1-.658c-.251-.323-.2-.9.371-1.412a3.1,3.1,0,0,1,4.788,1.592C149.634,252.154,149.323,252.657,148.928,252.764Z" transform="translate(-37.313 -208.375)" fill="#aa6550"/>
      <path id="Path_2976" data-name="Path 2976" d="M149.239,252.485c-.144.108-.862-1.365-2.585-1.807a6.272,6.272,0,0,0-3.124.347,1.781,1.781,0,0,1,.778-.682,3.615,3.615,0,0,1,4.572,1.173C149.251,252.054,149.311,252.461,149.239,252.485Z" transform="translate(-37.421 -208.227)" fill="#263238"/>
      <path id="Path_2977" data-name="Path 2977" d="M144.813,222.441a13.418,13.418,0,0,1-1.927,16.757c-2.549,2.394-6.344,4.225-6.6,7.7-.287,3.842,4.165,6.715,4.165,10.569s-4.56,6.487-5.458,10.354c-.718,3.112,1.2,6.224,3.3,8.582s4.788,4.441,5.985,7.361a13.07,13.07,0,0,1-.359,10.258,32.426,32.426,0,0,1-5.985,8.606,40.421,40.421,0,0,0-9.863-2.19c.2-1.269.419-2.55.634-3.818a3.507,3.507,0,0,1-2.573,3.232,9.443,9.443,0,0,1-4.4.06,71.622,71.622,0,0,1-13.166-3.387,23.688,23.688,0,0,0,4.788-5.985,7.984,7.984,0,0,0,.132-7.421c-1.053-1.8-2.992-2.944-3.962-4.788-1.448-2.753-.251-6.248,1.807-8.582s4.86-3.854,7.313-5.769,4.7-4.5,4.9-7.613c.263-4.022-3-7.7-2.6-11.706.455-4.572,5.29-7.373,7.182-11.562,1.376-3.028,1.2-6.763,3.3-9.336a8.032,8.032,0,0,1,6.619-2.633,14.89,14.89,0,0,1,6.894,2.394" transform="translate(-44.306 -213.912)" fill="#263238"/>
      <path id="Path_2978" data-name="Path 2978" d="M150.244,265.235c-1.915,1.053-1.807,3.986-.634,5.841s3.052,3.184,4.213,5.051a8.283,8.283,0,0,1-1.951,10.557l4.6,1.736,1.005-.563,2.825-1.6-1.329,3.268h2.944a8.379,8.379,0,0,0,6.918-13.346c-1.2-1.676-3.088-3-3.507-5.027-.491-2.454,1.365-4.668,2.262-6.99a9.875,9.875,0,0,0-3.208-11.167" transform="translate(-36.391 -207.631)" fill="#263238"/>
    </g>
    <g id="freepik--speech-bubble--inject-11" transform="translate(41.536 184.5)">
      <path id="Path_2979" data-name="Path 2979" d="M75.968,182.316a1.616,1.616,0,0,1,.9,1.448v7.972A1.592,1.592,0,0,1,76.231,193a1.556,1.556,0,0,1-1.4.263,5.039,5.039,0,0,0-3.9.6,4.465,4.465,0,0,0-2.131,2.849,4.548,4.548,0,0,0,.814,3.483,5.147,5.147,0,0,0,3.292,2.178,5.985,5.985,0,0,0,6.272-4.058,1.6,1.6,0,0,1,3.04.97,9.2,9.2,0,0,1-9.815,6.248,8.187,8.187,0,0,1-5.422-3.519,7.8,7.8,0,0,1-1.317-5.985,7.684,7.684,0,0,1,3.591-4.931,8.379,8.379,0,0,1,4.393-1.2v-6.14a1.6,1.6,0,0,1,1.6-1.6,1.688,1.688,0,0,1,.718.156Z" transform="translate(-36.812 -157.85)" fill="#8880f7"/>
      <path id="Path_2980" data-name="Path 2980" d="M72.41,179.709a1.3,1.3,0,1,1,.4.92,1.3,1.3,0,0,1-.4-.92Z" transform="translate(-35.456 -158.594)" fill="#8880f7"/>
      <path id="Path_2981" data-name="Path 2981" d="M105.69,215.159a2.605,2.605,0,0,0-1.053.335,4.788,4.788,0,0,0-2.178,1.879,4.525,4.525,0,0,0-.682,1.891,3.962,3.962,0,0,0,.395,2.25,4.393,4.393,0,0,0,8.235-.479,3.962,3.962,0,0,0,.132-2.286,4.788,4.788,0,0,0-.9-1.807,4.907,4.907,0,0,0-2.394-1.628c-.682-.191-1.089-.168-1.089-.2h.287a2.072,2.072,0,0,1,.359,0,2.468,2.468,0,0,1,.467.072,4.788,4.788,0,0,1,2.585,1.6,4.68,4.68,0,0,1,.993,1.891,4.213,4.213,0,0,1-.108,2.394,4.955,4.955,0,0,1-1.532,2.238,4.656,4.656,0,0,1-2.693,1.113,4.7,4.7,0,0,1-2.8-.79,4.956,4.956,0,0,1-1.8-2.035,4.357,4.357,0,0,1-.395-2.394,4.788,4.788,0,0,1,.766-2,4.872,4.872,0,0,1,2.394-1.9,3.588,3.588,0,0,1,.467-.132,1.411,1.411,0,0,1,.347-.06A.743.743,0,0,1,105.69,215.159Z" transform="translate(-29.728 -151.362)" fill="#263238"/>
      <path id="Path_2982" data-name="Path 2982" d="M115.2,224.829a3.962,3.962,0,0,0-.646.239,3.076,3.076,0,0,0-1.376,1.2,2.6,2.6,0,0,0-.168,2.561,2.717,2.717,0,0,0,5.087-.3,2.585,2.585,0,0,0-.467-2.526,3.064,3.064,0,0,0-1.508-1.029c-.419-.132-.67-.12-.67-.156a1.4,1.4,0,0,1,.706,0,3.136,3.136,0,0,1,2.3,2.214,2.813,2.813,0,0,1,0,1.568,3.016,3.016,0,0,1-5.662.335,2.657,2.657,0,0,1-.251-1.556,3,3,0,0,1,.491-1.269,3.076,3.076,0,0,1,1.532-1.2,1.473,1.473,0,0,1,.634-.084Z" transform="translate(-27.557 -149.458)" fill="#263238"/>
      <path id="Path_2983" data-name="Path 2983" d="M115.607,201.924v-3.663c0-.479-.072-.993-.108-1.556s-.084-1.2-.144-1.819a5.807,5.807,0,0,0-.132-.993l-.18-1.053a35.489,35.489,0,0,0-3.316-10.114,36.794,36.794,0,0,0-8.486-11.12l-1.5-1.3c-.527-.407-1.089-.79-1.64-1.2l-.85-.6a5.146,5.146,0,0,0-.862-.575l-1.843-1.113c-.311-.18-.61-.371-.934-.539l-.993-.455-2-.91c-.694-.287-1.412-.5-2.119-.754l-1.077-.371-.551-.18-.563-.132a35.912,35.912,0,0,0-4.6-.9c-.79-.084-1.592-.227-2.394-.275l-2.394-.072h-1.2l-1.2.1c-.838.072-1.676.1-2.5.2a38.947,38.947,0,0,0-5.015,1.053l-1.257.359a2.039,2.039,0,0,0-.622.18l-.61.239-2.466.958c-.8.359-1.592.79-2.394,1.2-.395.215-.8.383-1.2.622l-1.2.73a40.589,40.589,0,0,0-4.441,3.22l-2.023,1.9-.515.479-.467.527-.922,1.065-.934,1.053-.838,1.2-.826,1.2-.419.587c-.132.2-.251.407-.371.61l-1.448,2.5c-.395.874-.8,1.748-1.2,2.633a36.447,36.447,0,0,0-1.807,23.173l.79,2.8L44.9,213.5l.263.67.323.634.646,1.281.634,1.257.766,1.2.754,1.2.371.587.431.551,1.712,2.2a40.879,40.879,0,0,0,3.89,3.866l1.017.9c.335.3.718.539,1.077.8.73.515,1.436,1.065,2.178,1.544l2.274,1.269.563.335.6.275,1.2.539a39.594,39.594,0,0,0,4.788,1.819c.814.239,1.64.395,2.394.6l1.2.287c.407.084.814.108,1.2.168l2.394.311c.8.084,1.6,0,2.394.1a33.821,33.821,0,0,0,4.692-.168h.575l.563-.1,1.125-.191c.742-.144,1.484-.239,2.2-.419l2.131-.587,1.053-.287,1.005-.395,1.975-.766a6.165,6.165,0,0,0,.946-.431l.934-.467c.61-.311,1.2-.6,1.807-.922l1.676-1.065a36.543,36.543,0,0,0,10.162-9.707c.3-.419.61-.826.9-1.2l.742-1.269.718-1.2c.12-.2.239-.395.347-.6s.18-.419.275-.622l1.077-2.322c.311-.742.527-1.5.778-2.178l.359-1.017a6.117,6.117,0,0,0,.275-.958l.431-1.783c.12-.551.263-1.053.347-1.52s.12-.9.18-1.281c.1-.766.18-1.341.239-1.748s.1-.587.1-.587v.6l-.215,1.748a11.232,11.232,0,0,1-.156,1.281c-.06.467-.215.982-.335,1.532s-.263,1.2-.407,1.783a5.889,5.889,0,0,1-.275.97c-.12.335-.227.67-.347,1.017-.251.694-.455,1.448-.778,2.2s-.694,1.52-1.053,2.394l-.287.622c-.1.2-.227.407-.335.61-.239.395-.479.814-.718,1.2s-.491.85-.742,1.293-.6.826-.9,1.257a36.7,36.7,0,0,1-10.21,9.647l-1.688,1.077c-.586.323-1.2.622-1.819.934l-.922.479a6.882,6.882,0,0,1-.958.431l-2,.778-1.005.395-1.053.3-2.143.6c-.73.18-1.484.275-2.226.419l-1.137.2-.563.1h-.586a34.144,34.144,0,0,1-4.716.192,19.815,19.815,0,0,1-2.394-.1l-2.394-.311a4.815,4.815,0,0,1-1.2-.18l-1.2-.275c-.814-.2-1.652-.359-2.466-.6a36.9,36.9,0,0,1-4.788-1.831l-1.2-.539-.6-.275-.575-.335-2.31-1.341c-.742-.479-1.46-1.041-2.19-1.556-.371-.275-.754-.515-1.089-.814l-1.029-.9a40.253,40.253,0,0,1-4.106-3.926l-1.736-2.214L48.3,220.4l-.383-.6-.754-1.2-.766-1.2-.646-1.269-.658-1.293-.323-.646-.287-.706c-.359-.9-.706-1.807-1.053-2.705s-.527-1.879-.8-2.825A36.878,36.878,0,0,1,44.485,184.6l1.2-2.669c.491-.838.981-1.676,1.46-2.514.132-.2.239-.419.371-.622l.419-.587.85-1.2.838-1.2.946-1.077.934-1.065.467-.527.515-.491,2.047-1.927a40.111,40.111,0,0,1,4.489-3.232l1.2-.73c.383-.251.8-.419,1.2-.634.8-.395,1.592-.838,2.394-1.2l2.49-.97.622-.239.622-.18,1.269-.347a37.907,37.907,0,0,1,5.051-1.053c.85-.108,1.688-.144,2.526-.215l1.2-.084h1.2l2.466.072a19.807,19.807,0,0,1,2.394.287,32.322,32.322,0,0,1,4.632.922l.575.132a1.9,1.9,0,0,1,.539.18l1.089.371c.718.263,1.448.467,2.131.754l2.154,1.053.993.455.946.539,1.843,1.077a7.424,7.424,0,0,1,.874.587l.85.61c.551.407,1.125.79,1.652,1.2l1.508,1.317a36.914,36.914,0,0,1,8.534,11.263,34.974,34.974,0,0,1,3.28,10.174c.06.359.12.718.18,1.053a7.649,7.649,0,0,1,.12,1.005c0,.646.1,1.257.132,1.819s.084,1.089.1,1.568,0,.91,0,1.3v1.76Z" transform="translate(-41.536 -161.85)" fill="#263238"/>
    </g>
    <g id="freepik--Sreen--inject-11" transform="translate(275.686 46.84)">
      <rect id="Rectangle_682" data-name="Rectangle 682" width="247.109" height="375.11" transform="translate(0.718 0.335)" fill="#fff"/>
      <rect id="Rectangle_683" data-name="Rectangle 683" width="247.18" height="161.432" transform="translate(0.215 19.438)" fill="#fff"/>
      <path id="Path_2984" data-name="Path 2984" d="M288.038,217.228v3.591h5.279v1.293h-5.279v4.261H286.53V215.84h7.445v1.388Z" transform="translate(-227.437 -13.557)" fill="#263238"/>
      <path id="Path_2985" data-name="Path 2985" d="M293.51,222.035a4.153,4.153,0,1,1,4.153,4.082,3.974,3.974,0,0,1-4.153-4.082Zm6.835,0a2.693,2.693,0,1,0-2.681,2.813,2.621,2.621,0,0,0,2.681-2.813Z" transform="translate(-226.063 -13.169)" fill="#263238"/>
      <path id="Path_2986" data-name="Path 2986" d="M306.407,217.943v1.4h-.335a2.394,2.394,0,0,0-2.514,2.693v3.974H302.11v-8H303.5v1.329A3.076,3.076,0,0,1,306.407,217.943Z" transform="translate(-224.369 -13.146)" fill="#263238"/>
      <path id="Path_2987" data-name="Path 2987" d="M314.87,218.023v6.882c0,2.825-1.424,4.094-4.129,4.094a5.841,5.841,0,0,1-3.806-1.2l.682-1.113a4.884,4.884,0,0,0,3.076,1.041c1.879,0,2.741-.874,2.741-2.681v-.634a3.662,3.662,0,0,1-2.873,1.2,3.866,3.866,0,1,1,0-7.72,3.591,3.591,0,0,1,2.944,1.317v-1.2Zm-1.412,3.77a2.753,2.753,0,1,0-2.747,2.572A2.753,2.753,0,0,0,313.458,221.793Z" transform="translate(-223.508 -13.154)" fill="#263238"/>
      <path id="Path_2988" data-name="Path 2988" d="M315.18,222.035a4.153,4.153,0,1,1,4.153,4.082,3.974,3.974,0,0,1-4.153-4.082Zm6.835,0a2.693,2.693,0,1,0-2.681,2.813,2.621,2.621,0,0,0,2.681-2.813Z" transform="translate(-221.795 -13.169)" fill="#263238"/>
      <path id="Path_2989" data-name="Path 2989" d="M328.458,225.8a2.777,2.777,0,0,1-1.747.563,2.274,2.274,0,0,1-2.526-2.5v-4.381H322.82v-1.2h1.412V216.54h1.436v1.748h2.286v1.2h-2.286v4.321a1.2,1.2,0,0,0,1.2,1.341,1.82,1.82,0,0,0,1.125-.383Z" transform="translate(-220.29 -13.419)" fill="#263238"/>
      <path id="Path_2990" data-name="Path 2990" d="M340.629,222.012a3.878,3.878,0,0,1-4.034,4.082,3.387,3.387,0,0,1-2.777-1.3v4.129H332.37v-10.9h1.388v1.257a3.387,3.387,0,0,1,2.837-1.341,3.878,3.878,0,0,1,4.034,4.082Zm-1.46,0a2.693,2.693,0,1,0-2.693,2.813,2.633,2.633,0,0,0,2.693-2.813Z" transform="translate(-218.409 -13.146)" fill="#263238"/>
      <path id="Path_2991" data-name="Path 2991" d="M347.3,221.186v4.788h-1.388v-1.053a2.98,2.98,0,0,1-2.621,1.2c-1.807,0-2.944-.97-2.944-2.394s.826-2.334,3.2-2.334h2.37v-.275c0-1.2-.718-1.927-2.143-1.927a4.01,4.01,0,0,0-2.525.85l-.6-1.077a5.243,5.243,0,0,1,3.292-1.029C346.071,217.942,347.3,219,347.3,221.186Zm-1.436,2.394v-1.113h-2.226c-1.436,0-1.843.563-1.843,1.2s.658,1.293,1.76,1.293a2.322,2.322,0,0,0,2.358-1.4Z" transform="translate(-216.838 -13.146)" fill="#263238"/>
      <path id="Path_2992" data-name="Path 2992" d="M347.56,225.2l.6-1.2a5.159,5.159,0,0,0,2.8.826c1.341,0,1.891-.407,1.891-1.077,0-1.8-5.039-.239-5.039-3.423,0-1.424,1.281-2.394,3.327-2.394a5.782,5.782,0,0,1,2.909.73l-.622,1.137a4.153,4.153,0,0,0-2.3-.634c-1.269,0-1.879.467-1.879,1.1,0,1.879,5.051.347,5.051,3.447,0,1.448-1.317,2.394-3.447,2.394A5.757,5.757,0,0,1,347.56,225.2Z" transform="translate(-215.418 -13.145)" fill="#263238"/>
      <path id="Path_2993" data-name="Path 2993" d="M353.86,225.2l.6-1.2a5.159,5.159,0,0,0,2.8.826c1.341,0,1.891-.407,1.891-1.077,0-1.8-5.039-.239-5.039-3.423,0-1.424,1.281-2.394,3.327-2.394a5.782,5.782,0,0,1,2.909.73l-.622,1.137a4.153,4.153,0,0,0-2.3-.634c-1.269,0-1.879.467-1.879,1.1,0,1.879,5.051.347,5.051,3.447,0,1.448-1.317,2.394-3.447,2.394A5.757,5.757,0,0,1,353.86,225.2Z" transform="translate(-214.177 -13.145)" fill="#263238"/>
      <path id="Path_2994" data-name="Path 2994" d="M373.2,218l-2.98,7.972h-1.388l-2.3-5.985-2.334,5.985h-1.388l-3-7.972h1.424l2.322,6.344L365.95,218h1.2l2.394,6.38,2.394-6.38Z" transform="translate(-213.005 -13.131)" fill="#263238"/>
      <path id="Path_2995" data-name="Path 2995" d="M371.38,222.031a4.141,4.141,0,1,1,4.153,4.082,3.974,3.974,0,0,1-4.153-4.082Zm6.823,0a2.681,2.681,0,1,0-2.669,2.813,2.609,2.609,0,0,0,2.669-2.813Z" transform="translate(-210.727 -13.165)" fill="#263238"/>
      <path id="Path_2996" data-name="Path 2996" d="M384.261,217.942v1.4h-.335a2.394,2.394,0,0,0-2.514,2.693v3.974H380v-8h1.376v1.329a3.076,3.076,0,0,1,2.885-1.4Z" transform="translate(-209.029 -13.146)" fill="#263238"/>
      <path id="Path_2997" data-name="Path 2997" d="M392.6,215.34v11.167h-1.388v-1.269a3.363,3.363,0,0,1-2.849,1.365,4.082,4.082,0,0,1,0-8.151,3.411,3.411,0,0,1,2.789,1.281V215.34Zm-1.436,7.182a2.693,2.693,0,1,0-2.681,2.813,2.621,2.621,0,0,0,2.681-2.813Z" transform="translate(-208.142 -13.655)" fill="#263238"/>
      <path id="Path_2998" data-name="Path 2998" d="M398.467,218.666c0-.958-.79-1.616-2.154-1.616a3.232,3.232,0,0,0-2.693,1.2l-1.089-.778a4.644,4.644,0,0,1,3.89-1.688c2.166,0,3.591,1.005,3.591,2.681,0,2.514-2.657,2.669-2.657,4.644h-1.508C395.822,220.737,398.467,220.4,398.467,218.666Zm-2.861,6.882a.982.982,0,1,1,.976.873A.982.982,0,0,1,395.606,225.549Z" transform="translate(-206.561 -13.57)" fill="#263238"/>
      <path id="Path_2999" data-name="Path 2999" d="M453.727,242.781c0,.18-42.348.311-94.558.311s-94.558-.132-94.558-.311,42.336-.311,94.558-.311S453.727,242.614,453.727,242.781Z" transform="translate(-231.754 -8.312)"/>
      <path id="Path_3000" data-name="Path 3000" d="M406.717,251.231c0,.168-24.262.311-54.2.311s-54.209-.144-54.209-.311,24.274-.311,54.209-.311S406.717,251.016,406.717,251.231Z" transform="translate(-225.117 -6.648)"/>
      <path id="Path_3001" data-name="Path 3001" d="M389.156,152.3a28.822,28.822,0,1,0-44.718-6.835l-5.865,5.47,1.412,9.731-9.109-2.49-7.337,6.846L325,174.7l-9.1-2.549-6.308,5.877.862,5.985-5.554-1.556-3.663,3.423-.551,9.013,13.442,3.387,43.629-40.7a28.834,28.834,0,0,0,31.4-5.279Zm-4.309-35.441a8.271,8.271,0,1,1-11.682-.407,8.271,8.271,0,0,1,11.682.407Z" transform="translate(-224.648 -35.898)" fill="#8880f7"/>
      <path id="Path_3002" data-name="Path 3002" d="M389.156,152.3a28.822,28.822,0,1,0-44.718-6.835l-5.865,5.47,1.412,9.731-9.109-2.49-7.337,6.846L325,174.7l-9.1-2.549-6.308,5.877.862,5.985-5.554-1.556-3.663,3.423-.551,9.013,13.442,3.387,43.629-40.7a28.834,28.834,0,0,0,31.4-5.279Zm-4.309-35.441a8.271,8.271,0,1,1-11.682-.407,8.271,8.271,0,0,1,11.682.407Z" transform="translate(-224.648 -35.898)" fill="none"/>
      <path id="Path_3003" data-name="Path 3003" d="M373.41,114.958a11.98,11.98,0,0,0-1.64-1.2,8.379,8.379,0,0,0-5.207-1.137,7.96,7.96,0,1,0,8.69,9.312,8.211,8.211,0,0,0-.778-5.267c-.6-1.2-1.125-1.676-1.065-1.724s.156.108.4.359a6.621,6.621,0,0,1,.922,1.2,8.2,8.2,0,0,1,1.029,5.482,8.567,8.567,0,1,1-9.24-9.9,8.211,8.211,0,0,1,5.41,1.412,6.392,6.392,0,0,1,1.2.993C373.41,114.8,373.482,114.946,373.41,114.958Z" transform="translate(-213.212 -33.997)" fill="#263238"/>
      <path id="Path_3004" data-name="Path 3004" d="M389.225,152.393s-.132.144-.419.395l-1.269,1.2a29.826,29.826,0,0,1-5.578,3.591,28.978,28.978,0,0,1-24.286.347h.239l-43.557,40.768-.12.132h-.18l-13.442-3.375-.275-.06V195.1c.168-2.813.347-5.889.539-9.013V185.8l.1-.1,3.746-3.5.132-.132h.192l5.554,1.556-.443.383c-.275-1.855-.563-3.89-.862-5.985v-.18l.132-.12,6.308-5.889.144-.144h.191l9.1,2.549-.443.395c-.443-3.088-.922-6.392-1.4-9.731v-.192l.144-.12,1.939-1.819,5.4-5.027.144-.144h.191l9.109,2.549-.455.395q-.706-4.919-1.4-9.731v-.18l.132-.132,5.865-5.47-.06.431a29.337,29.337,0,0,1-3.746-13.166,27.529,27.529,0,0,1,.479-6.667,28.188,28.188,0,0,1,1.915-6.272A29.036,29.036,0,0,1,398.561,133.3a28.331,28.331,0,0,1-3.232,11.1c-.18.359-.359.694-.539,1.029l-.586.91a18.51,18.51,0,0,1-1.1,1.64c-.778.934-1.376,1.771-1.963,2.394l-1.436,1.592-.467.431s.132-.168.419-.479l1.293-1.376a29.886,29.886,0,0,0,1.9-2.394c.359-.491.67-1.065,1.053-1.64.191-.3.383-.6.575-.922l.527-1.017a28.571,28.571,0,1,0-51.54-24.6A28.164,28.164,0,0,0,341.6,126.1a27.529,27.529,0,0,0-.455,6.511,28.726,28.726,0,0,0,3.675,12.807l.132.239-.2.192-5.853,5.47L339,151q.694,4.788,1.4,9.743l.084.539-.539-.144-9.1-2.549.347-.084-5.4,5.027-1.927,1.783.108-.323c.479,3.339.958,6.655,1.4,9.731l.084.551-.539-.144-9.1-2.561.335-.084c-2.166,2.035-4.321,4.034-6.308,5.889l.12-.311c.287,2.047.575,4.082.85,5.985l.072.527-.515-.144-5.542-1.556.323-.084-3.675,3.423.108-.227c-.192,3.124-.383,6.2-.551,9.013l-.251-.347,13.442,3.387-.3.084L357.626,157.5l.108-.1h.132a28.81,28.81,0,0,0,24.011-.168,31.632,31.632,0,0,0,5.6-3.423l1.3-1.089Z" transform="translate(-224.717 -35.991)" fill="#aca6fe"/>
      <path id="Path_3005" data-name="Path 3005" d="M388.352,149.567a28.81,28.81,0,1,0-44.706-6.846h0l-5.853,5.458,1.4,9.743-9.1-2.561-7.325,6.858,1.4,9.731-9.1-2.549-6.308,5.889.85,5.985-5.542-1.544-3.675,3.423-.551,9.013,13.442,3.375,43.629-40.7A28.8,28.8,0,0,0,388.352,149.567Zm-4.261-35.441a8.259,8.259,0,1,1-5.757-2.626A8.271,8.271,0,0,1,384.091,114.126Z" transform="translate(-224.814 -36.432)" fill="#8880f7"/>
      <path id="Path_3006" data-name="Path 3006" d="M388.352,149.567a28.81,28.81,0,1,0-44.706-6.846h0l-5.853,5.458,1.4,9.743-9.1-2.561-7.325,6.858,1.4,9.731-9.1-2.549-6.308,5.889.85,5.985-5.542-1.544-3.675,3.423-.551,9.013,13.442,3.375,43.629-40.7A28.8,28.8,0,0,0,388.352,149.567Zm-4.261-35.441a8.259,8.259,0,1,1-5.757-2.626A8.271,8.271,0,0,1,384.091,114.126Z" transform="translate(-224.814 -36.432)" fill="none"/>
      <path id="Path_3007" data-name="Path 3007" d="M372.648,112.222a11.979,11.979,0,0,0-1.64-1.2,8.2,8.2,0,0,0-5.195-1.2,7.948,7.948,0,1,0,8.69,9.312,8.2,8.2,0,0,0-.79-5.267,19.222,19.222,0,0,0-1.065-1.724c.048-.048.156.108.407.359a6.633,6.633,0,0,1,.91,1.2,8.187,8.187,0,0,1,1.029,5.494,8.579,8.579,0,1,1-9.288-9.815,8.2,8.2,0,0,1,5.41,1.424,5.984,5.984,0,0,1,1.2.993C372.564,112.067,372.672,112.21,372.648,112.222Z" transform="translate(-213.371 -34.529)" fill="#aca6fe"/>
      <path id="Path_3008" data-name="Path 3008" d="M388.413,149.638s-.132.144-.407.4l-1.269,1.125a30.388,30.388,0,0,1-5.578,3.591,29.014,29.014,0,0,1-24.3.347h.239l-43.545,40.768-.132.12h-.168L299.8,192.608l-.263-.072v-.275c.168-2.813.359-5.889.539-9.013V183.1l.1-.084,3.675-3.435.144-.132h.192L309.726,181l-.443.395c-.263-1.855-.563-3.89-.862-5.985v-.18l.144-.132,6.3-5.877.144-.144.2.06,9.1,2.549-.455.395-1.4-9.707v-.192l.132-.132,1.951-1.807,5.386-5.027.144-.144.2.06,9.1,2.549-.455.395q-.706-4.919-1.4-9.731v-.192l.144-.12,5.865-5.47-.072.431a29.337,29.337,0,0,1-3.746-13.166,28.127,28.127,0,0,1,.479-6.667,28.428,28.428,0,0,1,1.915-6.272,29.026,29.026,0,0,1,55.586,13.92,28.391,28.391,0,0,1-3.232,11.1l-.539,1.029-.586.91c-.395.587-.718,1.2-1.089,1.64-.778.934-1.376,1.771-1.963,2.394l-1.388,1.329c-.3.3-.467.443-.467.443s.144-.18.431-.491l1.281-1.365a29.886,29.886,0,0,0,1.9-2.394c.359-.479.682-1.053,1.065-1.64l.575-.91.515-1.029a28.579,28.579,0,1,0-53.384-18.5,26.874,26.874,0,0,0-.455,6.511,28.727,28.727,0,0,0,3.663,12.807l.144.239-.2.192-5.865,5.47.108-.311q.706,4.788,1.4,9.731l.084.551-.527-.156-9.133-2.561.335-.084-5.386,5.039-1.951,1.807.108-.311c.491,3.339.958,6.643,1.4,9.731l.084.551-.527-.156-9.109-2.549.347-.084-6.308,5.877.108-.3c.287,2.047.586,4.07.85,5.925l.072.539-.515-.144-5.542-1.556.323-.084-3.663,3.423.108-.239c-.191,3.124-.383,6.212-.563,9.013l-.251-.347,13.442,3.4-.3.084L356.766,154.7l.108-.1.132.06a28.942,28.942,0,0,0,24.011-.168,32.091,32.091,0,0,0,5.614-3.423l1.293-1.089Z" transform="translate(-224.875 -36.503)" fill="#aca6fe"/>
      <path id="Path_3009" data-name="Path 3009" d="M378.659,146.762a38.9,38.9,0,0,0,3.878-4.884,24.225,24.225,0,0,0,2.956-6.631,25.3,25.3,0,0,0,.826-9.576,24.957,24.957,0,0,0-3.794-10.916,25.255,25.255,0,0,0-9.791-8.857,23.341,23.341,0,0,0-6.811-2.3,27.122,27.122,0,0,0-3.7-.431,28.883,28.883,0,0,0-3.794.192A24.884,24.884,0,0,0,336.8,123.529a28.728,28.728,0,0,0-.455,3.77,27.414,27.414,0,0,0,.18,3.722,23.185,23.185,0,0,0,1.819,6.954,25.136,25.136,0,0,0,8.163,10.377,24.777,24.777,0,0,0,10.617,4.548,25.136,25.136,0,0,0,9.576-.156,24.465,24.465,0,0,0,6.823-2.5,38.16,38.16,0,0,0,5.135-3.519,2.449,2.449,0,0,1-.287.287l-.9.814a11.809,11.809,0,0,1-1.544,1.2,17.508,17.508,0,0,1-2.274,1.46,24.213,24.213,0,0,1-6.87,2.645,25.531,25.531,0,0,1-29.05-14.9,24.033,24.033,0,0,1-1.891-7.182,23.186,23.186,0,0,1,.227-7.6A25.543,25.543,0,0,1,358.311,102.7a23.843,23.843,0,0,1,7.7.263,24.369,24.369,0,0,1,6.99,2.394,25.6,25.6,0,0,1,12.891,30.055,23.938,23.938,0,0,1-3.124,6.679,16.247,16.247,0,0,1-1.6,2.155,12.063,12.063,0,0,1-1.317,1.46l-.874.838A2.384,2.384,0,0,1,378.659,146.762Z" transform="translate(-217.766 -35.877)" fill="#aca6fe"/>
      <path id="Path_3010" data-name="Path 3010" d="M373.35,125.206a21.793,21.793,0,0,0,1.4-1.9,9.575,9.575,0,0,0,1.365-6.116,9.349,9.349,0,0,0-5.135-7.385,9.241,9.241,0,0,0-5.338-.946,9.372,9.372,0,0,0-7.517,12.939,9.522,9.522,0,0,0,13.214,4.68c1.341-.706,1.951-1.329,2.011-1.269s-.132.18-.431.455a7.18,7.18,0,0,1-1.448,1.065,9.767,9.767,0,0,1-10.653-.563,9.994,9.994,0,1,1,14.351-13.37,9.827,9.827,0,0,1-.18,10.665,7.542,7.542,0,0,1-1.2,1.364C373.53,125.1,373.362,125.23,373.35,125.206Z" transform="translate(-213.618 -34.777)" fill="#aca6fe"/>
      <path id="Path_3011" data-name="Path 3011" d="M308.12,185.2c-.132-.144,9.683-9.576,21.94-20.958s22.3-20.575,22.431-20.432-9.683,9.576-21.94,20.958S308.252,185.344,308.12,185.2Z" transform="translate(-223.185 -27.743)" fill="#8880f7"/>
      <path id="Path_3012" data-name="Path 3012" d="M313.018,130.816l.407-.886.527.814a4.118,4.118,0,0,0,1.748,1.484l.9.395-.814.539a4.082,4.082,0,0,0-1.5,1.748l-.395.886-.539-.814a4.07,4.07,0,0,0-1.748-1.484l-.886-.395.814-.539A3.974,3.974,0,0,0,313.018,130.816Z" transform="translate(-222.673 -30.476)" fill="#8880f7"/>
      <path id="Path_3013" data-name="Path 3013" d="M290.551,125.195l.227-.515.311.467a2.3,2.3,0,0,0,1.017.862l.515.239-.479.311a2.394,2.394,0,0,0-.862,1.005l-.227.527-.311-.479a2.3,2.3,0,0,0-1.017-.862l-.515-.239.467-.3A2.478,2.478,0,0,0,290.551,125.195Z" transform="translate(-226.909 -31.51)" fill="#8880f7"/>
      <path id="Path_3014" data-name="Path 3014" d="M360.821,163.225l.227-.515.311.479a2.538,2.538,0,0,0,1.017.862l.515.227-.467.311a2.3,2.3,0,0,0-.862,1.017l-.239.515-.311-.467a2.394,2.394,0,0,0-1.005-.874l-.527-.227.479-.311A2.3,2.3,0,0,0,360.821,163.225Z" transform="translate(-213.07 -24.02)" fill="#8880f7"/>
      <path id="Path_3015" data-name="Path 3015" d="M395.38,143.786l.4-.886.539.814a4.057,4.057,0,0,0,1.747,1.484l.886.395-.814.539a4.045,4.045,0,0,0-1.484,1.748l-.407.886-.527-.814a4.2,4.2,0,0,0-1.747-1.484l-.9-.395.814-.539a4.082,4.082,0,0,0,1.5-1.748Z" transform="translate(-206.455 -27.922)" fill="#8880f7"/>
      <path id="Path_3016" data-name="Path 3016" d="M391.168,116.566l.67-1.5.9,1.376a6.93,6.93,0,0,0,2.932,2.5l1.5.658-1.376.9a7.026,7.026,0,0,0-2.5,2.944l-.67,1.5-.9-1.376a6.93,6.93,0,0,0-2.933-2.5l-1.5-.67,1.376-.9a6.93,6.93,0,0,0,2.5-2.933Z" transform="translate(-207.593 -33.403)" fill="#8880f7"/>
      <path id="Path_3017" data-name="Path 3017" d="M306.346,108.146l.67-1.5.9,1.365a6.846,6.846,0,0,0,2.932,2.5l1.5.67-1.365.9a6.763,6.763,0,0,0-2.5,2.933l-.67,1.5-.9-1.365a6.811,6.811,0,0,0-2.945-2.5l-1.484-.67,1.365-.9a6.847,6.847,0,0,0,2.5-2.933Z" transform="translate(-224.296 -35.061)" fill="#8880f7"/>
      <path id="Path_3018" data-name="Path 3018" d="M441.647,304.3a9.869,9.869,0,0,0,1.125-.1,7.316,7.316,0,0,0,1.388-.156l.874-.144.993-.263a16.062,16.062,0,0,0,4.883-2.178,16.948,16.948,0,0,0,7.732-13.813v-2.573l-.072-1.317a8.494,8.494,0,0,0-.2-1.329,17.522,17.522,0,0,0-1.9-5.279,16.985,16.985,0,0,0-9.42-7.756,19.15,19.15,0,0,0-6.715-.886h-7.253l-154.872.1a16.9,16.9,0,0,0-10.294,3.507,17.823,17.823,0,0,0-3.734,3.974,16.973,16.973,0,0,0-2.238,4.931,18.591,18.591,0,0,0-.515,2.657c0,.9-.12,1.8-.1,2.717a17.956,17.956,0,0,0,.646,5.314,17.582,17.582,0,0,0,2.214,4.788,18.206,18.206,0,0,0,3.591,3.842,16.375,16.375,0,0,0,4.548,2.549,18.318,18.318,0,0,0,2.478.73,18.844,18.844,0,0,0,2.573.3c3.459.084,6.954,0,10.378,0h20.121l69.626.06,46.944.108,12.759.06h0l-12.759.06-46.944.1-69.626.072H277.331a20.062,20.062,0,0,1-2.657-.3,19.266,19.266,0,0,1-2.573-.766,16.758,16.758,0,0,1-4.7-2.633,17.224,17.224,0,0,1-5.985-8.965,18.866,18.866,0,0,1-.67-5.482,27.023,27.023,0,0,1,.1-2.777,19.629,19.629,0,0,1,.539-2.753,17.822,17.822,0,0,1,2.322-5.123,18.086,18.086,0,0,1,3.878-4.117,17.487,17.487,0,0,1,10.665-3.591l154.872.084h7.253a20.036,20.036,0,0,1,6.847.922,17.415,17.415,0,0,1,9.575,7.96,17.726,17.726,0,0,1,1.927,5.4l.2,1.353v3.938a17.584,17.584,0,0,1-.826,4.788,17.955,17.955,0,0,1-1.9,3.974,17,17,0,0,1-5.195,5.195,16.492,16.492,0,0,1-4.955,2.154l-1.005.239-.886.132a8.2,8.2,0,0,1-1.388.132Z" transform="translate(-232.517 -3.31)" fill="#263238"/>
      <rect id="Rectangle_684" data-name="Rectangle 684" width="197.807" height="35.992" rx="14.35" transform="translate(28.499 308.691)" fill="#181c3a"/>
      <path id="Path_3019" data-name="Path 3019" d="M297.736,291.681a8.079,8.079,0,0,1,0-1.065c0-.742,0-1.712-.06-2.909,0-2.561-.072-6.1-.132-10.378l.251.239-21.389.072.311-.311h0v14.327l-.287-.287,15.333.144,4.429.072h1.628a11.5,11.5,0,0,1-1.508.072l-4.369.072-15.56.144h-.371V277.354h0c-.275.275.383-.383.311-.323l21.389.072h.251v.251c-.06,4.345-.108,7.936-.132,10.533,0,1.2,0,2.131-.072,2.861a6.865,6.865,0,0,1-.024.934Z" transform="translate(-229.522 -1.507)" fill="#263238"/>
      <path id="Path_3020" data-name="Path 3020" d="M297.667,277.28a28.289,28.289,0,0,1-2.992,2.873c-1.891,1.724-4.548,4.058-7.493,6.619h-.467l-.072-.06-.144-.12-.275-.239-.539-.467-1.053-.922-2-1.76-3.351-2.992a28.3,28.3,0,0,1-2.992-2.873,26.21,26.21,0,0,1,3.244,2.478l3.435,2.9,2.023,1.724,1.065.91.551.479.263.239.144.108.072.06h-.371c2.956-2.549,5.65-4.788,7.625-6.475a26.216,26.216,0,0,1,3.328-2.478Z" transform="translate(-229.454 -1.457)" fill="#263238"/>
      <path id="Path_3021" data-name="Path 3021" d="M283.992,282.86a23.09,23.09,0,0,1-3.591,4.058,24.133,24.133,0,0,1-4.082,3.591,24.223,24.223,0,0,1,3.591-4.058A24.666,24.666,0,0,1,283.992,282.86Z" transform="translate(-229.448 -0.358)" fill="#263238"/>
      <path id="Path_3022" data-name="Path 3022" d="M295.338,290.605a23.436,23.436,0,0,1-3.842-3.854,24.5,24.5,0,0,1-3.375-4.261,24.093,24.093,0,0,1,3.842,3.854,23.815,23.815,0,0,1,3.375,4.261Z" transform="translate(-227.124 -0.431)" fill="#263238"/>
      <path id="Path_3023" data-name="Path 3023" d="M305.757,286.773v.479H300.79V280.07h4.788v.479h-4.285v2.837h3.83v.467h-3.83V286.8Z" transform="translate(-224.629 -0.907)" fill="#263238"/>
      <path id="Path_3024" data-name="Path 3024" d="M315.221,283.819v3.136h-.515v-3.1c0-1.2-.634-1.855-1.676-1.855a1.891,1.891,0,0,0-1.963,2.095v2.861h-.515v-3.1c0-1.2-.634-1.855-1.676-1.855a1.891,1.891,0,0,0-1.963,2.095v2.861H306.4v-5.374h.491v1.2a2.13,2.13,0,0,1,2.059-1.2,1.9,1.9,0,0,1,1.963,1.293,2.262,2.262,0,0,1,2.166-1.293,2.011,2.011,0,0,1,2.143,2.238Z" transform="translate(-223.524 -0.611)" fill="#263238"/>
      <path id="Path_3025" data-name="Path 3025" d="M319.487,283.552v3.411H319v-.958a2.1,2.1,0,0,1-1.939.993c-1.2,0-1.927-.61-1.927-1.532s.515-1.5,2-1.5h1.843v-.431a1.4,1.4,0,0,0-1.592-1.532,2.825,2.825,0,0,0-1.855.67l-.251-.371a3.28,3.28,0,0,1,2.143-.754,1.819,1.819,0,0,1,2.071,2Zm-.515,1.819v-1.005h-1.831c-1.113,0-1.5.467-1.5,1.077s.539,1.137,1.484,1.137A1.843,1.843,0,0,0,318.972,285.371Z" transform="translate(-221.804 -0.619)" fill="#263238"/>
      <path id="Path_3026" data-name="Path 3026" d="M320.4,280.219a.419.419,0,1,1,.419.419A.419.419,0,0,1,320.4,280.219Zm.156,1.712h.563V287.3H320.6Z" transform="translate(-220.767 -0.96)" fill="#263238"/>
      <path id="Path_3027" data-name="Path 3027" d="M322.77,279.69h.515v7.636h-.515Z" transform="translate(-220.3 -0.982)" fill="#263238"/>
      <path id="Path_3028" data-name="Path 3028" d="M311.59,325.151l-1.939-2.717a5.716,5.716,0,0,1-.79,0h-2.322v2.657H306V317h2.909c2.035,0,3.268,1.017,3.268,2.741a2.49,2.49,0,0,1-1.9,2.538l2.035,2.837Zm-2.729-3.172c1.736,0,2.669-.814,2.669-2.2s-.934-2.214-2.669-2.214h-2.322v4.417Z" transform="translate(-223.603 6.366)" fill="#fff"/>
      <path id="Path_3029" data-name="Path 3029" d="M318,321.933h-5.207a2.394,2.394,0,0,0,2.561,2.394,2.466,2.466,0,0,0,1.939-.838l.335.383a2.885,2.885,0,0,1-2.286.981,2.968,2.968,0,0,1-3.112-3.076,2.9,2.9,0,1,1,5.781,0S318,321.873,318,321.933Zm-5.195-.455h4.644a2.322,2.322,0,1,0-4.644,0Z" transform="translate(-222.377 6.699)" fill="#fff"/>
      <path id="Path_3030" data-name="Path 3030" d="M317.82,324.082l.263-.467a3.591,3.591,0,0,0,2.178.73c1.281,0,1.8-.443,1.8-1.137,0-1.759-4.022-.455-4.022-2.837,0-.91.766-1.652,2.3-1.652a3.747,3.747,0,0,1,2.083.586l-.275.467a3.112,3.112,0,0,0-1.819-.551c-1.2,0-1.7.491-1.7,1.137,0,1.819,4.01.539,4.01,2.849,0,.982-.85,1.652-2.394,1.652a3.782,3.782,0,0,1-2.418-.778Z" transform="translate(-221.275 6.704)" fill="#fff"/>
      <path id="Path_3031" data-name="Path 3031" d="M328.422,321.93h-5.207a2.394,2.394,0,0,0,2.561,2.394,2.466,2.466,0,0,0,1.939-.838l.335.383a2.909,2.909,0,0,1-2.286.981,2.98,2.98,0,0,1-3.124-3.076,2.9,2.9,0,0,1,2.909-3.064,2.861,2.861,0,0,1,2.885,3.04S328.422,321.87,328.422,321.93Zm-5.195-.455h4.632a2.322,2.322,0,0,0-4.632,0Z" transform="translate(-220.326 6.702)" fill="#fff"/>
      <path id="Path_3032" data-name="Path 3032" d="M332.14,324.64a1.856,1.856,0,0,1-1.2.431,1.5,1.5,0,0,1-1.64-1.652v-3.95H328.19v-.5H329.3V317.65h.575v1.317H331.8v.5h-1.927v3.9c0,.778.383,1.2,1.125,1.2a1.388,1.388,0,0,0,.946-.335Z" transform="translate(-219.232 6.494)" fill="#fff"/>
      <path id="Path_3033" data-name="Path 3033" d="M341.664,319.777c0,1.7-1.2,2.717-3.268,2.717h-2.3v2.657h-.6V317h2.921C340.431,317,341.664,318.053,341.664,319.777Zm-.6,0c0-1.412-.934-2.214-2.669-2.214h-2.3v4.4h2.322C340.132,321.967,341.066,321.165,341.066,319.777Z" transform="translate(-217.793 6.366)" fill="#fff"/>
      <path id="Path_3034" data-name="Path 3034" d="M346.579,320.974v3.842h-.563v-1.077a2.322,2.322,0,0,1-2.178,1.125c-1.353,0-2.178-.694-2.178-1.724s.575-1.7,2.262-1.7h2.071v-.479a1.58,1.58,0,0,0-1.8-1.736,3.148,3.148,0,0,0-2.095.766l-.287-.419a3.747,3.747,0,0,1,2.394-.85,2.059,2.059,0,0,1,2.37,2.25Zm-.586,2.059V321.9h-2.059c-1.257,0-1.7.527-1.7,1.2s.61,1.269,1.688,1.269a2.059,2.059,0,0,0,2.071-1.329Z" transform="translate(-216.58 6.7)" fill="#fff"/>
      <path id="Path_3035" data-name="Path 3035" d="M347,324.082l.263-.467a3.507,3.507,0,0,0,2.178.73c1.281,0,1.783-.443,1.783-1.137,0-1.759-4.01-.455-4.01-2.837,0-.91.766-1.652,2.3-1.652a3.675,3.675,0,0,1,2.071.586l-.263.467a3.136,3.136,0,0,0-1.819-.551c-1.2,0-1.712.491-1.712,1.137,0,1.819,4.022.539,4.022,2.849,0,.982-.85,1.652-2.394,1.652a3.758,3.758,0,0,1-2.418-.778Z" transform="translate(-215.528 6.704)" fill="#fff"/>
      <path id="Path_3036" data-name="Path 3036" d="M351.65,324.082l.263-.467a3.591,3.591,0,0,0,2.178.73c1.281,0,1.8-.443,1.8-1.137,0-1.759-4.022-.455-4.022-2.837,0-.91.766-1.652,2.3-1.652a3.747,3.747,0,0,1,2.083.586l-.275.467a3.112,3.112,0,0,0-1.819-.551c-1.2,0-1.7.491-1.7,1.137,0,1.819,4.01.539,4.01,2.849,0,.982-.85,1.652-2.394,1.652a3.782,3.782,0,0,1-2.418-.778Z" transform="translate(-214.612 6.704)" fill="#fff"/>
      <path id="Path_3037" data-name="Path 3037" d="M365.767,318.75l-2.3,6.057h-.551l-2.035-5.255-2.059,5.255H358.3L356,318.75h.551l2.023,5.41,2.071-5.41h.491l2.059,5.4,2.035-5.4Z" transform="translate(-213.755 6.71)" fill="#fff"/>
      <path id="Path_3038" data-name="Path 3038" d="M364.591,321.77a3.028,3.028,0,1,1,3.016,3.076,2.932,2.932,0,0,1-3.016-3.076Zm5.458,0a2.394,2.394,0,1,0-.644,1.794A2.394,2.394,0,0,0,370.049,321.77Z" transform="translate(-212.064 6.718)" fill="#fff"/>
      <path id="Path_3039" data-name="Path 3039" d="M374.011,318.721v.563h-.144c-1.341,0-2.143.9-2.143,2.394v3.148h-.575v-6.057h.551V320.1a2.3,2.3,0,0,1,2.31-1.376Z" transform="translate(-210.772 6.703)" fill="#fff"/>
      <path id="Path_3040" data-name="Path 3040" d="M380.295,316.62v8.606h-.563V323.8a2.693,2.693,0,0,1-2.478,1.472,3.076,3.076,0,0,1,0-6.14,2.705,2.705,0,0,1,2.466,1.448V316.62Zm-.575,5.578a2.394,2.394,0,1,0-.644,1.794A2.394,2.394,0,0,0,379.72,322.2Z" transform="translate(-210.138 6.291)" fill="#fff"/>
      <path id="Path_3041" data-name="Path 3041" d="M484.508,63.131c0,.168-55.335.311-123.584.311S237.34,63.3,237.34,63.131s55.323-.311,123.584-.311S484.508,62.964,484.508,63.131Z" transform="translate(-237.125 -43.693)" fill="#263238"/>
      <path id="Path_3042" data-name="Path 3042" d="M249.989,55.376a3,3,0,1,1-.876-2.132,3,3,0,0,1,.876,2.132Z" transform="translate(-235.817 -45.753)" fill="#263238"/>
      <path id="Path_3043" data-name="Path 3043" d="M257.249,55.376a3,3,0,1,1-.876-2.132,3,3,0,0,1,.876,2.132Z" transform="translate(-234.387 -45.753)" fill="#263238"/>
      <path id="Path_3044" data-name="Path 3044" d="M264.469,55.376A3,3,0,1,1,261.5,52.36,3,3,0,0,1,264.469,55.376Z" transform="translate(-232.965 -45.753)" fill="#263238"/>
      <path id="Path_3045" data-name="Path 3045" d="M484.987,422.273c0-2.561-.12-154.334-.287-375.1l.287.287H237.471l.311-.311c0,141.55,0,272.053-.072,375.1l-.239-.239,247.539.239-247.539.251h-.251v-.251c0-103.045,0-233.547-.06-375.1V46.84H485.3v.287C485.106,267.939,484.987,419.723,484.987,422.273Z" transform="translate(-237.16 -46.84)" fill="#263238"/>
    </g>
    <g id="freepik--Plant--inject-11" transform="translate(469.948 327.331)">
      <path id="Path_3046" data-name="Path 3046" d="M441.145,477.263a3.531,3.531,0,0,0-.2-.491c-.168-.347-.383-.8-.658-1.4a34.5,34.5,0,0,1-1.927-5.614,49.589,49.589,0,0,1,.156-21.665,118.505,118.505,0,0,1,4.022-14.567c1.7-5.159,3.687-10.641,5.291-16.566a64.086,64.086,0,0,0,2.621-19.067c-.251-6.739-2.238-13.466-4.441-20.168s-4.453-13.262-5.135-19.857a30.306,30.306,0,0,1,3.591-18.337c2.909-5.35,6.559-9.935,9.3-14.674a51.3,51.3,0,0,0,5.59-14.1A52.665,52.665,0,0,0,459.7,288.9a41.078,41.078,0,0,0-2.274-7.72,2.987,2.987,0,0,0,.132.515c.12.371.263.862.467,1.484a57.446,57.446,0,0,1,1.412,5.769,53.182,53.182,0,0,1-.563,21.689,50.548,50.548,0,0,1-5.614,13.932c-2.729,4.68-6.392,9.24-9.36,14.651a30.821,30.821,0,0,0-3.747,18.72c.682,6.7,2.956,13.31,5.147,20s4.165,13.358,4.417,19.977a63.774,63.774,0,0,1-2.549,18.864c-1.592,5.9-3.591,11.383-5.231,16.566A115.385,115.385,0,0,0,437.985,448c-1.843,9.121-1.317,16.829.06,21.832a32.987,32.987,0,0,0,2.059,5.6l.73,1.376A2.5,2.5,0,0,0,441.145,477.263Z" transform="translate(-392.104 -281.18)" fill="#263238"/>
      <path id="Path_3047" data-name="Path 3047" d="M448.861,326.207s5.554-17.763-4.417-28.164a.61.61,0,0,0-1.053.311C442.865,301.286,442.194,310.216,448.861,326.207Z" transform="translate(-390.867 -277.898)" fill="#8880f7"/>
      <path id="Path_3048" data-name="Path 3048" d="M445.13,303a15.887,15.887,0,0,0,.371,3.28c.359,2.262.79,4.907,1.269,7.84s.886,5.578,1.2,7.828a16.691,16.691,0,0,0,.586,3.244,13.765,13.765,0,0,0-.108-3.3c-.18-2.023-.539-4.788-1.041-7.888s-1.029-5.817-1.472-7.8a15.238,15.238,0,0,0-.8-3.2Z" transform="translate(-390.464 -276.883)" fill="#263238"/>
      <path id="Path_3049" data-name="Path 3049" d="M445.4,360.291S442,342,428.334,337.465a.622.622,0,0,0-.79.766C428.442,341.068,432.033,349.279,445.4,360.291Z" transform="translate(-393.932 -270.101)" fill="#8880f7"/>
      <path id="Path_3050" data-name="Path 3050" d="M431.31,341.41a16.447,16.447,0,0,0,1.855,2.717l4.788,6.332c1.783,2.394,3.387,4.524,4.788,6.344a19.465,19.465,0,0,0,2.035,2.6,14.366,14.366,0,0,0-1.628-2.873c-1.113-1.712-2.741-4.01-4.62-6.487s-3.591-4.656-4.943-6.212A15.148,15.148,0,0,0,431.31,341.41Z" transform="translate(-393.185 -269.318)" fill="#263238"/>
      <path id="Path_3051" data-name="Path 3051" d="M447.3,399.308s2.071-18.493-9.7-26.8a.622.622,0,0,0-.982.5C436.656,375.992,437.709,384.885,447.3,399.308Z" transform="translate(-392.14 -263.216)" fill="#8880f7"/>
      <path id="Path_3052" data-name="Path 3052" d="M439.27,377.17a15.283,15.283,0,0,0,.993,3.148c.79,2.143,1.712,4.668,2.729,7.445s1.939,5.3,2.717,7.457a17.366,17.366,0,0,0,1.2,3.064,13.452,13.452,0,0,0-.73-3.22c-.562-1.951-1.448-4.632-2.526-7.541s-2.131-5.518-2.932-7.385A15.216,15.216,0,0,0,439.27,377.17Z" transform="translate(-391.618 -262.275)" fill="#263238"/>
      <path id="Path_3053" data-name="Path 3053" d="M438.851,437.828s1.4-18.565-10.653-26.44a.61.61,0,0,0-.958.539C427.384,414.895,428.748,423.752,438.851,437.828Z" transform="translate(-393.987 -255.558)" fill="#8880f7"/>
      <path id="Path_3054" data-name="Path 3054" d="M430,416a17.543,17.543,0,0,0,1.113,3.112c.862,2.119,1.879,4.6,3,7.337s2.119,5.243,2.98,7.349a15.943,15.943,0,0,0,1.3,3.028,14.263,14.263,0,0,0-.85-3.2c-.634-1.927-1.616-4.572-2.8-7.445s-2.322-5.434-3.2-7.277A14.041,14.041,0,0,0,430,416Z" transform="translate(-393.443 -254.628)" fill="#263238"/>
      <path id="Path_3055" data-name="Path 3055" d="M454.58,312.391s16.494-8.618,16.817-23.017a.622.622,0,0,0-.97-.527C467.974,290.547,461.187,296.376,454.58,312.391Z" transform="translate(-388.602 -279.691)" fill="#8880f7"/>
      <path id="Path_3056" data-name="Path 3056" d="M467.952,293.41a14.879,14.879,0,0,0-2.059,2.573l-4.656,6.428c-1.736,2.394-3.315,4.572-4.668,6.416a20.352,20.352,0,0,0-1.879,2.705,13.657,13.657,0,0,0,2.274-2.394c1.3-1.568,3.028-3.794,4.788-6.32s3.4-4.788,4.5-6.559A15.844,15.844,0,0,0,467.952,293.41Z" transform="translate(-388.581 -278.771)" fill="#263238"/>
      <path id="Path_3057" data-name="Path 3057" d="M439.78,344.1S456.8,336.475,458,322.112a.611.611,0,0,0-.934-.586C454.478,323.106,447.345,328.516,439.78,344.1Z" transform="translate(-391.517 -273.253)" fill="#8880f7"/>
      <path id="Path_3058" data-name="Path 3058" d="M454.217,326a16.007,16.007,0,0,0-2.2,2.394l-5.039,6.128-5.039,6.128a18.166,18.166,0,0,0-2.047,2.585,14,14,0,0,0,2.394-2.262c1.4-1.484,3.256-3.591,5.219-5.985s3.687-4.632,4.883-6.272A13.84,13.84,0,0,0,454.217,326Z" transform="translate(-391.496 -272.353)" fill="#263238"/>
      <path id="Path_3059" data-name="Path 3059" d="M447.944,380.551s11.67-14.495,6.2-27.817a.622.622,0,0,0-1.1-.108C451.475,355.164,447.6,363.244,447.944,380.551Z" transform="translate(-389.914 -267.165)" fill="#8880f7"/>
      <path id="Path_3060" data-name="Path 3060" d="M452.954,357.6a16.215,16.215,0,0,0-.85,3.184c-.491,2.238-1.053,4.86-1.688,7.756l-1.7,7.744a18.4,18.4,0,0,0-.646,3.232,12.938,12.938,0,0,0,1.113-3.1c.575-1.963,1.269-4.692,1.915-7.72s1.2-5.805,1.484-7.816a14.9,14.9,0,0,0,.371-3.28Z" transform="translate(-389.885 -266.13)" fill="#263238"/>
      <path id="Path_3061" data-name="Path 3061" d="M438.29,421.509s16.853-7.876,17.81-22.251a.61.61,0,0,0-.934-.563C452.641,400.275,445.6,405.805,438.29,421.509Z" transform="translate(-391.811 -258.055)" fill="#8880f7"/>
      <path id="Path_3062" data-name="Path 3062" d="M452.438,403.16a16.762,16.762,0,0,0-2.167,2.478l-4.919,6.224c-1.855,2.322-3.519,4.417-4.955,6.2a18.141,18.141,0,0,0-1.987,2.621,13.716,13.716,0,0,0,2.394-2.3c1.376-1.508,3.2-3.651,5.111-6.092s3.591-4.692,4.788-6.356a14.954,14.954,0,0,0,1.736-2.777Z" transform="translate(-391.787 -257.157)" fill="#263238"/>
      <path id="Path_3063" data-name="Path 3063" d="M410.24,356.62v1.6c.06,1.125.12,2.633.2,4.512.215,3.974.527,9.5.886,16.123h0c1.2,6.727,4.632,14.2,9.24,21.437,3.375,5.338,6.918,10.2,9.983,14.71a103.228,103.228,0,0,1,7.469,12.364,51.939,51.939,0,0,1,3.507,9.073c.3,1.113.515,1.975.646,2.573a4.131,4.131,0,0,0,.251.9,7.357,7.357,0,0,0-.12-.934c-.084-.6-.263-1.484-.515-2.609a48.29,48.29,0,0,0-3.327-9.216,96.871,96.871,0,0,0-7.385-12.508c-3.028-4.548-6.559-9.408-9.923-14.722-4.572-7.182-7.984-14.555-9.24-21.186h0c-.467-6.619-.862-12.137-1.137-16.1-.156-1.879-.275-3.387-.359-4.512,0-.467-.1-.862-.12-1.2A1.772,1.772,0,0,0,410.24,356.62Z" transform="translate(-397.335 -266.323)" fill="#263238"/>
      <path id="Path_3064" data-name="Path 3064" d="M419.066,396.721s-7.182-17.188,1.843-28.451a.61.61,0,0,1,1.077.215C422.788,371.334,424.308,380.167,419.066,396.721Z" transform="translate(-396.13 -264.076)" fill="#8880f7"/>
      <path id="Path_3065" data-name="Path 3065" d="M419.986,373.22a14.889,14.889,0,0,0-.563,3.256c-.251,2.011-.539,4.788-.766,7.912s-.323,5.9-.323,7.948a12.985,12.985,0,0,0,.2,3.292,18.708,18.708,0,0,0,.287-3.28c.156-2.286.335-4.955.527-7.912s.395-5.638.563-7.924A16.673,16.673,0,0,0,419.986,373.22Z" transform="translate(-395.746 -263.053)" fill="#263238"/>
      <path id="Path_3067" data-name="Path 3067" d="M437.372,431.253s-5.721-17.715,4.141-28.212a.622.622,0,0,1,1.053.3C443.129,406.273,443.883,415.2,437.372,431.253Z" transform="translate(-392.317 -257.217)" fill="#8880f7"/>
      <path id="Path_3068" data-name="Path 3068" d="M440.243,408a14.818,14.818,0,0,0-.826,3.2c-.419,1.987-.922,4.788-1.4,7.816s-.8,5.865-.97,7.9a13.43,13.43,0,0,0,0,3.3,19.322,19.322,0,0,0,.551-3.244c.335-2.262.73-4.919,1.2-7.852s.85-5.578,1.2-7.84A16.1,16.1,0,0,0,440.243,408Z" transform="translate(-392.076 -256.204)" fill="#263238"/>
      <path id="Path_3070" data-name="Path 3070" d="M413.273,378.635s-15.249-10.677-13.7-24.992a.61.61,0,0,1,1.017-.407C402.836,355.235,408.82,361.9,413.273,378.635Z" transform="translate(-399.458 -267.02)" fill="#8880f7"/>
      <path id="Path_3072" data-name="Path 3072" d="M401.88,358a14.876,14.876,0,0,0,1.269,3.04c.862,1.843,2.131,4.357,3.591,7.086s2.9,5.171,3.986,6.882a14.122,14.122,0,0,0,1.939,2.681,17.478,17.478,0,0,0-1.508-2.932c-1.1-2-2.394-4.357-3.806-6.954l-3.782-6.978A16.327,16.327,0,0,0,401.88,358Z" transform="translate(-398.981 -266.051)" fill="#263238"/>
      <path id="Path_3073" data-name="Path 3073" d="M435.842,414.746s-18.385-2.873-23.3-16.4a.61.61,0,0,1,.73-.814C416.092,398.348,424.4,401.687,435.842,414.746Z" transform="translate(-396.891 -258.269)" fill="#8880f7"/>
      <path id="Path_3075" data-name="Path 3075" d="M416.52,401.2A14.362,14.362,0,0,0,419,403.379c1.592,1.269,3.83,2.968,6.356,4.788s4.883,3.363,6.619,4.417a13.79,13.79,0,0,0,2.921,1.556,17.226,17.226,0,0,0-2.657-1.963L425.76,407.6,419.3,403a16.864,16.864,0,0,0-2.777-1.8Z" transform="translate(-396.098 -257.543)" fill="#263238"/>
      <path id="Path_3076" data-name="Path 3076" d="M455.641,440.18l-5.279,34.592-21.054-.036-7.1-34.556Z" transform="translate(-394.977 -249.866)" fill="#8880f7"/>
      <path id="Path_3077" data-name="Path 3077" d="M435.921,450.485a5.877,5.877,0,0,0,.969-2.9,3.124,3.124,0,0,0-1.424-2.969,3.4,3.4,0,0,0-3.531.287,5.147,5.147,0,0,0-2.011,3.172,13.355,13.355,0,0,0-.263,3.914,12.65,12.65,0,0,0,.85,3.986,8.8,8.8,0,0,0,2.394,3.483,6.811,6.811,0,0,0,4.058,1.7,7.458,7.458,0,0,0,4.213-1.2,12.82,12.82,0,0,0,3.148-2.849,6.931,6.931,0,0,0,1.592-3.794,4.441,4.441,0,0,0-1.5-3.675,3.447,3.447,0,0,0-3.734-.227,4.046,4.046,0,0,0-2.155,2.825,5.4,5.4,0,0,0,2.669,5.47,7.409,7.409,0,0,0,5.087.742,11.491,11.491,0,0,0,3.591-1.424,20,20,0,0,0,2.035-1.365,3.426,3.426,0,0,0,.646-.563,8.085,8.085,0,0,0-.718.467c-.467.3-1.2.766-2.071,1.269a11.742,11.742,0,0,1-3.591,1.293,7.181,7.181,0,0,1-4.788-.766A5,5,0,0,1,439,452.34a3.591,3.591,0,0,1,1.915-2.466,2.932,2.932,0,0,1,3.172.191,3.9,3.9,0,0,1,1.281,3.22,6.392,6.392,0,0,1-1.5,3.483,12.449,12.449,0,0,1-2.992,2.705,6.93,6.93,0,0,1-3.89,1.137,6.344,6.344,0,0,1-3.71-1.556,8.379,8.379,0,0,1-2.286-3.256,12.2,12.2,0,0,1-.826-3.818,12.9,12.9,0,0,1,.227-3.746,4.633,4.633,0,0,1,1.783-2.885,2.932,2.932,0,0,1,3-.3,2.705,2.705,0,0,1,1.2,2.549,5.4,5.4,0,0,1-.874,2.681,7.768,7.768,0,0,1-3.926,2.944,8.606,8.606,0,0,1-3.734.443,9.648,9.648,0,0,1-3.112-.922l.168.132a6.158,6.158,0,0,0,.563.311,7.41,7.41,0,0,0,2.394.706,8.569,8.569,0,0,0,3.878-.371,8.1,8.1,0,0,0,4.165-3.016" transform="translate(-394.481 -249.063)" fill="#263238"/>
    </g>
  </g>
</svg>
