<svg id="google-pay-seeklogo.com" xmlns="http://www.w3.org/2000/svg" width="73.815" height="29.322" viewBox="0 0 73.815 29.322">
  <path id="Path_12159" data-name="Path 12159" d="M193.826,22.623v8.6H191.1V9.994h7.229a6.571,6.571,0,0,1,4.689,1.845,5.851,5.851,0,0,1,1.947,4.469,5.923,5.923,0,0,1-1.947,4.5,6.548,6.548,0,0,1-4.672,1.811Zm0-10.022v7.415H198.4a3.564,3.564,0,0,0,2.692-1.1,3.612,3.612,0,0,0,.068-5.113l-.068-.068a3.518,3.518,0,0,0-2.692-1.117l-4.571-.017Zm17.42,3.623a6.815,6.815,0,0,1,4.774,1.608,5.74,5.74,0,0,1,1.744,4.435v8.939h-2.607V29.191h-.118a5.206,5.206,0,0,1-4.5,2.489,5.846,5.846,0,0,1-4.012-1.422,4.49,4.49,0,0,1-1.608-3.555,4.337,4.337,0,0,1,1.71-3.589,7.145,7.145,0,0,1,4.554-1.337,8.211,8.211,0,0,1,4,.88V22.03a3.122,3.122,0,0,0-1.117-2.4,3.962,3.962,0,0,0-2.624-1,4.2,4.2,0,0,0-3.623,1.93l-2.4-1.507a6.646,6.646,0,0,1,5.841-2.827Zm-3.521,10.547a2.2,2.2,0,0,0,.9,1.778,3.329,3.329,0,0,0,2.116.711,4.331,4.331,0,0,0,3.064-1.27,4,4,0,0,0,1.354-3,5.555,5.555,0,0,0-3.555-1.016,4.717,4.717,0,0,0-2.776.8A2.42,2.42,0,0,0,207.724,26.771Zm25-10.073-9.108,20.924h-2.81l3.386-7.313L218.2,16.715h2.963l4.317,10.428h.068l4.215-10.428Z" transform="translate(-158.914 -8.3)" fill="#5f6368"/>
  <path id="Path_12160" data-name="Path 12160" d="M84.7,61.472a15.059,15.059,0,0,0-.2-2.472H73v4.689h6.585A5.644,5.644,0,0,1,77.148,67.4v3.047h3.928A11.891,11.891,0,0,0,84.7,61.472Z" transform="translate(-60.807 -49.011)" fill="#4285f4"/>
  <path id="Path_12161" data-name="Path 12161" d="M19.585,95.653a11.659,11.659,0,0,0,8.075-2.946L23.733,89.66A7.384,7.384,0,0,1,12.746,85.8H8.7v3.149A12.206,12.206,0,0,0,19.585,95.653Z" transform="translate(-7.392 -71.274)" fill="#34a853"/>
  <path id="Path_12162" data-name="Path 12162" d="M6.329,47.5a7.355,7.355,0,0,1,0-4.672V39.7H2.283a12.086,12.086,0,0,0,0,10.936Z" transform="translate(-0.975 -32.978)" fill="#fbbc04"/>
  <path id="Path_12163" data-name="Path 12163" d="M19.585,4.821a6.56,6.56,0,0,1,4.672,1.828l3.47-3.47A11.636,11.636,0,0,0,19.585,0,12.191,12.191,0,0,0,8.7,6.717l4.046,3.149A7.287,7.287,0,0,1,19.585,4.821Z" transform="translate(-7.392 0.004)" fill="#ea4335"/>
</svg>
