<svg xmlns="http://www.w3.org/2000/svg" width="1165" height="879" viewBox="0 0 1165 879">
  <g id="Path_10348" data-name="Path 10348" transform="translate(108 3)" fill="#181c3a" opacity="0.06">
    <path d="M 1040.5048828125 875.14013671875 L 32.24857330322266 297.5661315917969 C 31.57371520996094 297.0379943847656 17.59132766723633 286.1892395019531 1.298142910003662 271.4675598144531 C -8.469714164733887 262.6417236328125 -17.14442825317383 254.1717071533203 -24.48471450805664 246.2928619384766 C -33.64985656738281 236.4551391601562 -40.7457160949707 227.5202789306641 -45.57514190673828 219.7364349365234 C -54.7207145690918 204.995849609375 -62.32371520996094 189.9734344482422 -68.81857299804688 173.8108520507812 C -74.54142761230469 159.5695648193359 -78.66671752929688 146.3777160644531 -82.65628814697266 133.6201477050781 C -82.94599914550781 132.6937103271484 -83.23471069335938 131.7704315185547 -83.52285766601562 130.8505706787109 C -87.96514129638672 116.6692886352539 -91.98999786376953 100.8078536987305 -95.48542785644531 83.70642852783203 C -98.28256988525391 70.02200317382812 -100.7488555908203 55.51800155639648 -102.8158569335938 40.59728622436523 C -105.9990692138672 17.61923027038574 -107.247314453125 0.6666240096092224 -107.4653167724609 -2.49860668182373 L 1045.497192382812 0.4986960589885712 L 1040.5048828125 875.14013671875 Z" stroke="none"/>
    <path d="M -106.928955078125 -1.9971923828125 C -106.62744140625 2.23052978515625 -105.3519287109375 18.64910888671875 -102.3193359375 40.5384521484375 C -100.253662109375 55.447265625 -97.789306640625 69.939453125 -94.994384765625 83.61212158203125 C -91.5025634765625 100.6947021484375 -87.482421875 116.5377197265625 -83.04571533203125 130.7009887695312 C -82.757568359375 131.6211547851562 -82.4688720703125 132.54443359375 -82.17901611328125 133.4710083007812 C -78.19244384765625 146.2192993164062 -74.07012939453125 159.4015502929688 -68.354736328125 173.6244506835938 C -61.8707275390625 189.760009765625 -54.28045654296875 204.7571411132812 -45.1502685546875 219.4728393554688 C -40.33843994140625 227.2284545898438 -33.263427734375 236.1362915039062 -24.1217041015625 245.9488525390625 C -16.7919921875 253.8167114257812 -8.12872314453125 262.2756958007812 1.6275634765625 271.09130859375 C 17.73785400390625 285.6482543945312 31.58831787109375 296.4163208007812 32.55743408203125 297.1668701171875 L 1040.009765625 874.2803344726562 L 1044.994262695312 0.99737548828125 L -106.928955078125 -1.9971923828125 M -108 -3 L 1046 0 L 1041 876 L 32 298 C 32 298 -24.75 254.25 -46 220 C -67.25 185.75 -75.82940673828125 157.0827026367188 -84 131 C -103.5 68.75 -108 -3 -108 -3 Z" stroke="none" fill="#707070"/>
  </g>
  <g id="Path_10351" data-name="Path 10351" transform="translate(118 1)" fill="#181c3a">
    <path d="M 1046.4990234375 862.1426391601562 L 40.24599838256836 293.5647277832031 C 39.78670501708984 293.2727966308594 24.95063209533691 283.8417663574219 7.768428802490234 270.4434204101562 C -2.430857181549072 262.4901428222656 -11.4484281539917 254.7160034179688 -19.03400039672852 247.3371429443359 C -28.50271415710449 238.1264343261719 -35.75014114379883 229.5131378173828 -40.57514190673828 221.7364349365234 C -49.7207145690918 206.995849609375 -57.32371520996094 191.9734344482422 -63.81857299804688 175.8108520507812 C -69.54142761230469 161.5695648193359 -73.66671752929688 148.3777160644531 -77.65628814697266 135.6201477050781 C -77.94599914550781 134.6937103271484 -78.23471069335938 133.7704315185547 -78.52285766601562 132.8505706787109 C -82.96514129638672 118.6692886352539 -86.98999786376953 102.8078536987305 -90.48542785644531 85.70642852783203 C -93.28256988525391 72.02200317382812 -95.74885559082031 57.51800155639648 -97.81585693359375 42.59728622436523 C -100.9992828369141 19.61767959594727 -102.2474975585938 2.664048671722412 -102.4653778076172 -0.4995343387126923 L 1045.500610351562 0.4995657205581665 L 1046.4990234375 862.1426391601562 Z" stroke="none"/>
    <path d="M -101.9290771484375 0.00091552734375 C -101.6278076171875 4.225830078125 -100.352294921875 20.64599609375 -97.3193359375 42.5384521484375 C -95.253662109375 57.447265625 -92.789306640625 71.939453125 -89.994384765625 85.61212158203125 C -86.5025634765625 102.6947021484375 -82.482421875 118.5377197265625 -78.04571533203125 132.7009887695312 C -77.757568359375 133.6211547851562 -77.4688720703125 134.54443359375 -77.17901611328125 135.4710083007812 C -73.19244384765625 148.2192993164062 -69.07012939453125 161.4015502929688 -63.354736328125 175.6244506835938 C -56.8707275390625 191.760009765625 -49.28045654296875 206.7571411132812 -40.1502685546875 221.4728393554688 C -35.347412109375 229.2138671875 -28.1268310546875 237.7941284179688 -18.68914794921875 246.9749755859375 C -11.11773681640625 254.340576171875 -2.11529541015625 262.1016845703125 8.068115234375 270.0431518554688 C 25.13665771484375 283.3535766601562 39.88946533203125 292.7456665039062 40.49200439453125 293.1294555664062 L 1045.998046875 861.2852783203125 L 1045.001220703125 0.9991455078125 L -101.9290771484375 0.00091552734375 M -103 -1 L 1046 0 L 1047 863 L 40 294 C 40 294 -19.75 256.25 -41 222 C -62.25 187.75 -70.82940673828125 159.0827026367188 -79 133 C -98.5 70.75 -103 -1 -103 -1 Z" stroke="none" fill="#707070"/>
  </g>
</svg>
