<svg xmlns="http://www.w3.org/2000/svg" width="267.364" height="295.164" viewBox="0 0 267.364 295.164">
  <g id="Group_3354" data-name="Group 3354" transform="translate(-174.017 -1105)">
    <g id="Group_3353" data-name="Group 3353" transform="translate(174.017 1105)">
      <g id="Group_3316" data-name="Group 3316" transform="translate(76.209 37.522)">
        <g id="Group_3312" data-name="Group 3312">
          <path id="Path_10361" data-name="Path 10361" d="M359.869,181.8l13.85-8-13.85-8-13.85,8h0l-13.85,8,13.85,8h0l13.85,8,13.85-8-13.85-8Z" transform="translate(-332.169 -87.249)" fill="#d4ecff"/>
          <path id="Path_10362" data-name="Path 10362" d="M361.382,158.028V99.388l13.85-8v58.64Z" transform="translate(-333.682 -83.396)" fill="#173d7a"/>
          <path id="Path_10363" data-name="Path 10363" d="M360.625,99.388l-13.85-8v58.64l13.85,8Z" transform="translate(-332.925 -83.396)" fill="#396caa"/>
          <path id="Path_10364" data-name="Path 10364" d="M374.475,90.955l-13.85-8-13.85,8,13.85,8Z" transform="translate(-332.925 -82.959)" fill="#d4ecff"/>
        </g>
        <g id="Group_3313" data-name="Group 3313" transform="translate(27.7 69.301)">
          <path id="Path_10365" data-name="Path 10365" d="M375.232,164.041l-13.85-8v5.331l13.85,8Z" transform="translate(-361.382 -156.045)" fill="#95d359"/>
        </g>
        <g id="Group_3314" data-name="Group 3314" transform="translate(0 23.989)">
          <path id="Path_10366" data-name="Path 10366" d="M346.775,167.334V124.687l13.85-8v42.646Z" transform="translate(-332.925 -108.695)" fill="#c13d1a"/>
          <path id="Path_10367" data-name="Path 10367" d="M346.019,124.687l-13.85-8v42.646l13.85,8Z" transform="translate(-332.169 -108.695)" fill="#db5126"/>
          <path id="Path_10368" data-name="Path 10368" d="M359.869,116.255l-13.85-8-13.85,8,13.85,8Z" transform="translate(-332.169 -108.258)" fill="#ef602e"/>
          <path id="Path_10369" data-name="Path 10369" d="M346.775,167.334V124.687l13.85-8v42.646Z" transform="translate(-332.925 -108.695)" fill="#396caa"/>
          <path id="Path_10370" data-name="Path 10370" d="M346.019,124.687l-13.85-8v42.646l13.85,8Z" transform="translate(-332.169 -108.695)" fill="#5793ce"/>
          <path id="Path_10371" data-name="Path 10371" d="M359.869,116.255l-13.85-8-13.85,8,13.85,8Z" transform="translate(-332.169 -108.258)" fill="#d4ecff"/>
        </g>
        <g id="Group_3315" data-name="Group 3315" transform="translate(13.85 50.643)">
          <path id="Path_10372" data-name="Path 10372" d="M361.382,176.786V152.8l13.85-8v23.989Z" transform="translate(-347.532 -136.805)" fill="#173d7a"/>
          <path id="Path_10373" data-name="Path 10373" d="M360.625,152.8l-13.85-8v23.989l13.85,8Z" transform="translate(-346.775 -136.805)" fill="#396caa"/>
          <path id="Path_10374" data-name="Path 10374" d="M374.475,144.364l-13.85-8-13.85,8,13.85,8Z" transform="translate(-346.775 -136.368)" fill="#d4ecff"/>
        </g>
      </g>
      <g id="Group_3322" data-name="Group 3322" transform="translate(55.49 48.329)">
        <g id="Group_3319" data-name="Group 3319">
          <path id="Path_10375" data-name="Path 10375" d="M416.912,329.979l-104.6-60.39c-2.958-1.709-2.588-4.693.829-6.665l71.223-41.107c3.417-1.973,8.586-2.187,11.544-.479l104.6,60.39c2.959,1.709,2.588,4.692-.829,6.665L428.457,329.5C425.04,331.473,419.872,331.686,416.912,329.979Z" transform="translate(-310.318 -100.872)" fill="#d4ecff"/>
          <g id="Group_3317" data-name="Group 3317" transform="translate(78.201)">
            <path id="Path_10376" data-name="Path 10376" d="M508.771,156.419,402.448,95.084a4.077,4.077,0,0,0-3.64-.489l0-.011-.174.081-.043.019-3.461,1.629,3.758,1.871c0,.07-.008.136-.008.208l.032,87.328c0,4.37,2.707,9.473,6.041,11.4l103.489,59.7.588,4.871,3.779-1.8c1.245-.731,2.033-2.384,2.033-4.738l-.033-87.328C514.811,163.446,512.105,158.343,508.771,156.419Z" transform="translate(-392.911 -94.356)" fill="#173d7a"/>
            <path id="Path_10377" data-name="Path 10377" d="M508.771,156.419,402.448,95.084a4.077,4.077,0,0,0-3.64-.489l0-.011-.174.081-.043.019-3.461,1.629,3.758,1.871c0,.07-.008.136-.008.208l.021,57.555,48.388,38.232,65.7-33.064A11.923,11.923,0,0,0,508.771,156.419Z" transform="translate(-392.911 -94.356)" fill="#396caa"/>
            <path id="Path_10378" data-name="Path 10378" d="M516.281,161.258l-10.42,4.383,7.867,6.061,6.569-2.8A15.29,15.29,0,0,0,516.281,161.258Z" transform="translate(-398.646 -97.821)" fill="#274f89"/>
            <path id="Path_10379" data-name="Path 10379" d="M505.187,261.312,398.863,199.977c-3.334-1.924-6.039-7.026-6.041-11.4l-.032-87.328c0-4.37,2.7-6.354,6.035-4.43l106.323,61.335c3.336,1.923,6.04,7.025,6.042,11.4l.032,87.328C511.225,261.251,508.522,263.235,505.187,261.312Z" transform="translate(-392.79 -94.446)" fill="#d4ecff"/>
            <path id="Path_10380" data-name="Path 10380" d="M501.869,255.166l-99.3-57.255c-3.052-1.761-5.527-6.431-5.529-10.43l-.029-79.912c0-4,2.471-5.814,5.523-4.054l99.3,57.256c3.051,1.76,5.527,6.43,5.528,10.428l.029,79.913C507.393,255.112,504.92,256.927,501.869,255.166Z" transform="translate(-393.009 -94.796)" fill="#fff"/>
            <path id="Path_10381" data-name="Path 10381" d="M501.869,255.166l-99.3-57.255c-3.052-1.761-5.527-6.431-5.529-10.43l-.029-79.912c0-4,2.471-5.814,5.523-4.054l99.3,57.256c3.051,1.76,5.527,6.43,5.528,10.428l.029,79.913C507.393,255.112,504.92,256.927,501.869,255.166Z" transform="translate(-393.009 -94.796)" fill="#fff"/>
          </g>
          <path id="Path_10382" data-name="Path 10382" d="M502.5,270.12l-14.3-1.888-92.3-53.287c-2.958-1.709-8.127-1.493-11.544.479l-65.4,37.745-8.645-1.142v4.905h.009a3.366,3.366,0,0,0,1.985,3.03l104.6,60.39c2.959,1.709,8.128,1.494,11.544-.479l71.223-41.107c1.922-1.109,2.881-2.539,2.824-3.882h0Z" transform="translate(-310.318 -100.541)" fill="#173d7a"/>
          <path id="Path_10383" data-name="Path 10383" d="M433.156,237.479l-6.557-3.786H354.508L318.967,254.2l-8.645-1.142v4.905h.009a3.366,3.366,0,0,0,1.985,3.03l104.6,60.39a10.835,10.835,0,0,0,5.959,1.117Z" transform="translate(-310.318 -101.572)" fill="#396caa"/>
          <path id="Path_10384" data-name="Path 10384" d="M314.158,254.621l-3.836-.506v4.905h.009a3.366,3.366,0,0,0,1.985,3.03l1.843,1.064Z" transform="translate(-310.318 -102.63)" fill="#5793ce"/>
          <path id="Path_10385" data-name="Path 10385" d="M423.846,326.058a13.4,13.4,0,0,0,9.807-.609V314.508h-9.807Z" transform="translate(-316.197 -105.757)" fill="#274f89"/>
          <path id="Path_10386" data-name="Path 10386" d="M416.912,315.01l-104.6-60.39c-2.958-1.708-2.588-4.693.829-6.665l71.223-41.106c3.417-1.974,8.586-2.188,11.544-.479l104.6,60.389c2.959,1.709,2.588,4.692-.829,6.665l-71.223,41.107C425.04,316.5,419.872,316.718,416.912,315.01Z" transform="translate(-310.318 -100.097)" fill="#d4ecff"/>
          <path id="Path_10387" data-name="Path 10387" d="M499.68,274.122l-71.223,41.107c-3.416,1.972-8.585,2.188-11.544.479l-104.6-60.389a3.9,3.9,0,0,1-1.84-2.012c-.463,1.4.127,2.814,1.84,3.8l104.6,60.39c2.959,1.709,8.128,1.493,11.544-.479l71.223-41.107c2.3-1.326,3.21-3.108,2.668-4.653A5.564,5.564,0,0,1,499.68,274.122Z" transform="translate(-310.318 -102.588)" fill="#fff"/>
          <g id="Group_3318" data-name="Group 3318" transform="translate(41.495 108.838)">
            <path id="Path_10388" data-name="Path 10388" d="M359.069,235.849l-4.733-2.732c-.38-.22-.333-.6.106-.856l5.586-3.225a1.645,1.645,0,0,1,1.482-.062l4.733,2.733c.381.219.333.6-.106.856l-5.586,3.225A1.645,1.645,0,0,1,359.069,235.849Z" transform="translate(-354.079 -210.158)" fill="#173d7a"/>
            <path id="Path_10389" data-name="Path 10389" d="M366.776,240.3l-4.733-2.733c-.381-.22-.333-.6.106-.856l5.585-3.225a1.647,1.647,0,0,1,1.483-.061l4.733,2.731c.38.22.333.6-.106.857l-5.586,3.225A1.648,1.648,0,0,1,366.776,240.3Z" transform="translate(-354.478 -210.388)" fill="#173d7a"/>
            <path id="Path_10390" data-name="Path 10390" d="M374.484,244.75l-4.733-2.733c-.38-.22-.332-.6.106-.855l5.587-3.226a1.648,1.648,0,0,1,1.482-.062l4.733,2.733c.38.219.333.6-.106.856l-5.587,3.225A1.648,1.648,0,0,1,374.484,244.75Z" transform="translate(-354.877 -210.619)" fill="#173d7a"/>
            <path id="Path_10391" data-name="Path 10391" d="M385.144,241.1l-4.732-2.733c-.381-.219-.333-.6.105-.855l4.689-2.708a1.652,1.652,0,0,1,1.484-.062l4.732,2.733c.38.219.333.6-.106.856l-4.69,2.707A1.648,1.648,0,0,1,385.144,241.1Z" transform="translate(-355.43 -210.457)" fill="#173d7a"/>
            <path id="Path_10392" data-name="Path 10392" d="M392.852,245.553l-4.733-2.732c-.38-.219-.333-.6.106-.856l4.689-2.707a1.65,1.65,0,0,1,1.483-.062l4.733,2.733c.38.219.333.6-.106.855l-4.69,2.708A1.645,1.645,0,0,1,392.852,245.553Z" transform="translate(-355.829 -210.687)" fill="#173d7a"/>
            <path id="Path_10393" data-name="Path 10393" d="M400.56,250l-4.733-2.731c-.38-.22-.333-.6.106-.857l4.689-2.706a1.648,1.648,0,0,1,1.483-.063l4.733,2.733c.379.22.333.6-.106.856l-4.69,2.707A1.645,1.645,0,0,1,400.56,250Z" transform="translate(-356.228 -210.918)" fill="#173d7a"/>
            <path id="Path_10394" data-name="Path 10394" d="M408.267,254.454l-4.733-2.732c-.381-.22-.333-.6.106-.857l4.689-2.707a1.65,1.65,0,0,1,1.483-.062l4.733,2.733c.379.22.332.6-.106.856l-4.69,2.707A1.646,1.646,0,0,1,408.267,254.454Z" transform="translate(-356.627 -211.148)" fill="#173d7a"/>
            <path id="Path_10395" data-name="Path 10395" d="M415.975,258.9l-4.732-2.733c-.381-.22-.333-.6.105-.855l4.69-2.708a1.648,1.648,0,0,1,1.482-.061l4.733,2.732c.38.22.333.6-.106.856l-4.69,2.707A1.648,1.648,0,0,1,415.975,258.9Z" transform="translate(-357.026 -211.378)" fill="#173d7a"/>
            <path id="Path_10396" data-name="Path 10396" d="M423.682,263.354l-4.733-2.733c-.38-.219-.333-.6.106-.855l4.689-2.708a1.65,1.65,0,0,1,1.483-.061l4.733,2.733c.38.218.333.6-.106.855l-4.689,2.707A1.651,1.651,0,0,1,423.682,263.354Z" transform="translate(-357.425 -211.609)" fill="#173d7a"/>
            <path id="Path_10397" data-name="Path 10397" d="M431.391,267.8l-4.733-2.733c-.38-.219-.333-.6.106-.855l4.689-2.708a1.653,1.653,0,0,1,1.483-.061l4.733,2.733c.38.218.333.6-.106.855l-4.689,2.708A1.65,1.65,0,0,1,431.391,267.8Z" transform="translate(-357.825 -211.839)" fill="#173d7a"/>
            <path id="Path_10398" data-name="Path 10398" d="M439.1,272.254l-4.733-2.732c-.381-.22-.333-.6.106-.856l4.689-2.707a1.651,1.651,0,0,1,1.483-.063l4.733,2.733c.38.22.332.6-.106.856l-4.689,2.707A1.648,1.648,0,0,1,439.1,272.254Z" transform="translate(-358.224 -212.07)" fill="#173d7a"/>
            <path id="Path_10399" data-name="Path 10399" d="M446.806,276.7l-4.732-2.733c-.381-.22-.333-.6.105-.856l4.689-2.707a1.651,1.651,0,0,1,1.483-.063l4.733,2.733c.381.22.333.6-.106.857l-4.689,2.706A1.648,1.648,0,0,1,446.806,276.7Z" transform="translate(-358.623 -212.3)" fill="#173d7a"/>
            <path id="Path_10400" data-name="Path 10400" d="M454.514,281.155l-4.733-2.733c-.38-.22-.333-.6.106-.856l4.689-2.707a1.648,1.648,0,0,1,1.483-.062l4.733,2.732c.38.22.333.6-.106.856L456,281.092A1.651,1.651,0,0,1,454.514,281.155Z" transform="translate(-359.022 -212.531)" fill="#173d7a"/>
            <path id="Path_10401" data-name="Path 10401" d="M396.5,239l-4.733-2.733c-.379-.219-.332-.6.106-.856l4.69-2.707a1.648,1.648,0,0,1,1.482-.062l4.733,2.733c.38.22.333.6-.106.856l-4.689,2.707A1.65,1.65,0,0,1,396.5,239Z" transform="translate(-356.018 -210.347)" fill="#396caa"/>
            <path id="Path_10402" data-name="Path 10402" d="M388.678,234.48l-4.733-2.732c-.379-.219-.332-.6.106-.856l4.69-2.707a1.645,1.645,0,0,1,1.482-.062l4.733,2.733c.381.219.333.6-.106.855l-4.689,2.707A1.647,1.647,0,0,1,388.678,234.48Z" transform="translate(-355.613 -210.114)" fill="#396caa"/>
            <path id="Path_10403" data-name="Path 10403" d="M380.544,229.784,370.351,223.9c-.379-.219-.332-.6.106-.856l4.69-2.706a1.646,1.646,0,0,1,1.482-.063l10.193,5.885c.38.22.333.6-.106.857l-4.689,2.707A1.647,1.647,0,0,1,380.544,229.784Z" transform="translate(-354.909 -209.707)" fill="#173d7a"/>
            <path id="Path_10404" data-name="Path 10404" d="M386.126,224.343l-8.272-4.776c-.379-.219-.332-.6.106-.855L382.65,216a1.649,1.649,0,0,1,1.482-.063l8.272,4.776c.38.22.332.6-.106.856l-4.69,2.707A1.648,1.648,0,0,1,386.126,224.343Z" transform="translate(-355.297 -209.483)" fill="#173d7a"/>
            <path id="Path_10405" data-name="Path 10405" d="M404.208,243.447l-4.733-2.733c-.38-.219-.332-.6.106-.855l4.69-2.708a1.645,1.645,0,0,1,1.482-.061l4.733,2.732c.38.22.332.6-.106.856l-4.689,2.707A1.65,1.65,0,0,1,404.208,243.447Z" transform="translate(-356.417 -210.578)" fill="#396caa"/>
            <path id="Path_10406" data-name="Path 10406" d="M411.916,247.9l-4.733-2.733c-.379-.219-.331-.6.107-.855l4.689-2.708a1.648,1.648,0,0,1,1.482-.061l4.733,2.733c.38.219.332.6-.107.855l-4.689,2.708A1.653,1.653,0,0,1,411.916,247.9Z" transform="translate(-356.816 -210.808)" fill="#173d7a"/>
            <path id="Path_10407" data-name="Path 10407" d="M419.624,252.347l-4.733-2.733c-.379-.219-.332-.6.107-.855l4.689-2.707a1.645,1.645,0,0,1,1.482-.062l4.733,2.732c.379.219.332.6-.107.856l-4.689,2.708A1.65,1.65,0,0,1,419.624,252.347Z" transform="translate(-357.215 -211.039)" fill="#173d7a"/>
            <path id="Path_10408" data-name="Path 10408" d="M427.332,256.8l-4.733-2.733c-.379-.219-.332-.6.107-.855L427.4,250.5a1.645,1.645,0,0,1,1.482-.062l4.733,2.732c.379.219.332.6-.107.856l-4.689,2.707A1.647,1.647,0,0,1,427.332,256.8Z" transform="translate(-357.614 -211.269)" fill="#173d7a"/>
            <path id="Path_10409" data-name="Path 10409" d="M435.04,261.248l-4.733-2.733c-.38-.22-.332-.6.107-.856l4.689-2.707a1.645,1.645,0,0,1,1.482-.062l4.733,2.732c.379.22.331.6-.107.857l-4.689,2.706A1.648,1.648,0,0,1,435.04,261.248Z" transform="translate(-358.014 -211.5)" fill="#173d7a"/>
            <path id="Path_10410" data-name="Path 10410" d="M442.747,265.7l-4.733-2.733c-.379-.22-.331-.6.107-.856l4.689-2.707a1.643,1.643,0,0,1,1.482-.062l4.733,2.732c.38.22.332.6-.107.856l-4.689,2.707A1.651,1.651,0,0,1,442.747,265.7Z" transform="translate(-358.413 -211.73)" fill="#173d7a"/>
            <path id="Path_10411" data-name="Path 10411" d="M450.455,270.147l-4.733-2.732c-.379-.219-.332-.6.107-.856l4.689-2.707A1.646,1.646,0,0,1,452,263.79l4.733,2.733c.379.219.332.6-.107.855l-4.689,2.708A1.65,1.65,0,0,1,450.455,270.147Z" transform="translate(-358.812 -211.961)" fill="#173d7a"/>
            <path id="Path_10412" data-name="Path 10412" d="M458.163,274.6l-4.733-2.733c-.379-.218-.332-.6.107-.855l4.689-2.707a1.649,1.649,0,0,1,1.482-.062l4.733,2.733c.379.219.332.6-.107.855l-4.689,2.708A1.65,1.65,0,0,1,458.163,274.6Z" transform="translate(-359.211 -212.191)" fill="#173d7a"/>
            <path id="Path_10413" data-name="Path 10413" d="M465.871,279.047l-4.733-2.732c-.38-.22-.332-.6.107-.856l4.689-2.707a1.648,1.648,0,0,1,1.482-.062l4.733,2.733c.38.219.332.6-.106.855l-4.689,2.708A1.65,1.65,0,0,1,465.871,279.047Z" transform="translate(-359.61 -212.422)" fill="#173d7a"/>
            <path id="Path_10414" data-name="Path 10414" d="M479.268,286.782l-10.326-5.962c-.38-.219-.333-.6.106-.855l4.69-2.708a1.646,1.646,0,0,1,1.481-.061l10.327,5.961c.379.22.332.6-.107.855l-4.689,2.708A1.648,1.648,0,0,1,479.268,286.782Z" transform="translate(-360.014 -212.655)" fill="#173d7a"/>
            <path id="Path_10415" data-name="Path 10415" d="M494.362,278.169l-8.716-5.032c-.379-.22-.332-.6.106-.856l4.69-2.707a1.649,1.649,0,0,1,1.482-.062l8.716,5.032c.38.22.332.6-.107.855l-4.689,2.708A1.642,1.642,0,0,1,494.362,278.169Z" transform="translate(-360.879 -212.257)" fill="#173d7a"/>
            <path id="Path_10416" data-name="Path 10416" d="M417.707,242.577l-4.733-2.733c-.38-.22-.332-.6.107-.856l4.689-2.707a1.639,1.639,0,0,1,1.482-.061l4.733,2.731c.38.22.332.6-.106.856l-4.689,2.707A1.651,1.651,0,0,1,417.707,242.577Z" transform="translate(-357.116 -210.533)" fill="#173d7a"/>
            <path id="Path_10417" data-name="Path 10417" d="M409.807,238.015l-4.733-2.733c-.38-.218-.332-.6.107-.855l4.689-2.708a1.653,1.653,0,0,1,1.483-.061l4.732,2.733c.381.219.333.6-.106.855l-4.689,2.708A1.65,1.65,0,0,1,409.807,238.015Z" transform="translate(-356.707 -210.297)" fill="#173d7a"/>
            <path id="Path_10418" data-name="Path 10418" d="M401.908,233.455l-4.733-2.733c-.379-.22-.332-.6.107-.856l4.689-2.707a1.65,1.65,0,0,1,1.483-.062l4.733,2.733c.38.22.332.6-.107.856l-4.689,2.707A1.648,1.648,0,0,1,401.908,233.455Z" transform="translate(-356.298 -210.06)" fill="#396caa"/>
            <path id="Path_10419" data-name="Path 10419" d="M394.008,228.894l-4.733-2.733c-.379-.219-.332-.6.106-.855l4.69-2.708a1.648,1.648,0,0,1,1.482-.061l4.733,2.732c.381.219.333.6-.106.856l-4.689,2.707A1.65,1.65,0,0,1,394.008,228.894Z" transform="translate(-355.889 -209.824)" fill="#173d7a"/>
            <path id="Path_10420" data-name="Path 10420" d="M425.414,247.026l-4.733-2.732c-.379-.22-.332-.6.107-.856l4.689-2.707a1.646,1.646,0,0,1,1.482-.062l4.733,2.733c.38.219.332.6-.107.855l-4.689,2.707A1.647,1.647,0,0,1,425.414,247.026Z" transform="translate(-357.515 -210.763)" fill="#173d7a"/>
            <path id="Path_10421" data-name="Path 10421" d="M433.122,251.476l-4.733-2.732c-.379-.219-.332-.6.107-.856l4.689-2.707a1.646,1.646,0,0,1,1.482-.062l4.733,2.733c.379.219.332.6-.107.855l-4.689,2.708A1.65,1.65,0,0,1,433.122,251.476Z" transform="translate(-357.914 -210.994)" fill="#173d7a"/>
            <path id="Path_10422" data-name="Path 10422" d="M440.83,255.926l-4.733-2.733c-.379-.219-.332-.6.107-.855l4.689-2.707a1.648,1.648,0,0,1,1.482-.062l4.733,2.733c.379.219.332.6-.107.855l-4.689,2.708A1.65,1.65,0,0,1,440.83,255.926Z" transform="translate(-358.313 -211.224)" fill="#173d7a"/>
            <path id="Path_10423" data-name="Path 10423" d="M448.538,260.376l-4.733-2.732c-.38-.22-.332-.6.107-.856l4.689-2.707a1.648,1.648,0,0,1,1.482-.062l4.733,2.733c.38.22.332.6-.106.855l-4.69,2.708A1.645,1.645,0,0,1,448.538,260.376Z" transform="translate(-358.713 -211.455)" fill="#173d7a"/>
            <path id="Path_10424" data-name="Path 10424" d="M456.245,264.827l-4.733-2.733c-.379-.22-.332-.6.107-.856l4.689-2.707a1.645,1.645,0,0,1,1.482-.061l4.733,2.732c.38.219.332.6-.107.856l-4.689,2.707A1.649,1.649,0,0,1,456.245,264.827Z" transform="translate(-359.112 -211.685)" fill="#173d7a"/>
            <path id="Path_10425" data-name="Path 10425" d="M463.954,269.277l-4.733-2.733c-.379-.22-.332-.6.107-.855l4.689-2.708a1.645,1.645,0,0,1,1.482-.061l4.733,2.732c.379.219.332.6-.107.856l-4.689,2.707A1.648,1.648,0,0,1,463.954,269.277Z" transform="translate(-359.511 -211.916)" fill="#173d7a"/>
            <path id="Path_10426" data-name="Path 10426" d="M471.661,273.727l-4.733-2.733c-.38-.219-.332-.6.107-.855l4.689-2.708a1.645,1.645,0,0,1,1.482-.061l4.733,2.732c.379.219.332.6-.107.856l-4.689,2.707A1.646,1.646,0,0,1,471.661,273.727Z" transform="translate(-359.91 -212.146)" fill="#173d7a"/>
            <path id="Path_10427" data-name="Path 10427" d="M479.368,278.177l-4.733-2.733c-.38-.219-.332-.6.106-.856l4.69-2.706a1.646,1.646,0,0,1,1.482-.063l4.733,2.733c.38.219.332.6-.106.855l-4.69,2.708A1.648,1.648,0,0,1,479.368,278.177Z" transform="translate(-360.309 -212.377)" fill="#173d7a"/>
            <path id="Path_10428" data-name="Path 10428" d="M487.077,282.627l-4.733-2.732c-.379-.22-.332-.6.107-.857l4.689-2.706a1.646,1.646,0,0,1,1.482-.063L493.355,279c.38.22.332.6-.107.857l-4.689,2.706A1.645,1.645,0,0,1,487.077,282.627Z" transform="translate(-360.708 -212.607)" fill="#173d7a"/>
            <path id="Path_10429" data-name="Path 10429" d="M413.648,231.569l-4.732-2.732c-.381-.22-.333-.6.106-.856l4.689-2.707a1.647,1.647,0,0,1,1.483-.062l4.732,2.733c.38.219.333.6-.105.855l-4.69,2.707A1.647,1.647,0,0,1,413.648,231.569Z" transform="translate(-356.906 -209.963)" fill="#173d7a"/>
            <path id="Path_10430" data-name="Path 10430" d="M405.979,227.141l-4.733-2.733c-.38-.219-.333-.6.106-.855l4.689-2.708a1.65,1.65,0,0,1,1.483-.061l4.733,2.733c.379.219.333.6-.106.855l-4.69,2.708A1.648,1.648,0,0,1,405.979,227.141Z" transform="translate(-356.509 -209.734)" fill="#173d7a"/>
            <path id="Path_10431" data-name="Path 10431" d="M398.31,222.713l-4.733-2.733c-.381-.219-.333-.6.106-.855l4.689-2.707a1.65,1.65,0,0,1,1.483-.062l4.732,2.733c.38.22.333.6-.105.855l-4.691,2.708A1.646,1.646,0,0,1,398.31,222.713Z" transform="translate(-356.111 -209.504)" fill="#173d7a"/>
            <path id="Path_10432" data-name="Path 10432" d="M390.639,218.286l-4.733-2.733c-.38-.22-.333-.6.106-.856l4.689-2.707a1.647,1.647,0,0,1,1.483-.062l4.733,2.732c.38.22.333.6-.106.857l-4.689,2.706A1.648,1.648,0,0,1,390.639,218.286Z" transform="translate(-355.714 -209.275)" fill="#173d7a"/>
            <path id="Path_10433" data-name="Path 10433" d="M398.527,213.831l-4.733-2.733c-.38-.218-.333-.6.106-.855l1.55-.9a1.649,1.649,0,0,1,1.482-.062l4.733,2.733c.38.219.333.6-.106.855l-1.55.9A1.649,1.649,0,0,1,398.527,213.831Z" transform="translate(-356.123 -209.138)" fill="#173d7a"/>
            <path id="Path_10434" data-name="Path 10434" d="M408.535,219.609l-4.733-2.732c-.38-.219-.332-.6.107-.856l1.549-.894a1.648,1.648,0,0,1,1.483-.063l4.733,2.733c.38.219.332.6-.106.856l-1.55.9A1.645,1.645,0,0,1,408.535,219.609Z" transform="translate(-356.641 -209.437)" fill="#173d7a"/>
            <path id="Path_10435" data-name="Path 10435" d="M416.172,224.019l-4.733-2.733c-.379-.219-.332-.6.106-.855l1.551-.9a1.645,1.645,0,0,1,1.482-.062l4.733,2.732c.38.22.332.6-.106.857l-1.55.894A1.644,1.644,0,0,1,416.172,224.019Z" transform="translate(-357.036 -209.666)" fill="#173d7a"/>
            <path id="Path_10436" data-name="Path 10436" d="M423.81,228.429l-4.733-2.733c-.38-.22-.333-.6.106-.856l1.55-.9a1.645,1.645,0,0,1,1.482-.061l4.733,2.732c.379.22.332.6-.107.856l-1.55.9A1.648,1.648,0,0,1,423.81,228.429Z" transform="translate(-357.432 -209.894)" fill="#173d7a"/>
            <path id="Path_10437" data-name="Path 10437" d="M431.447,232.838l-4.733-2.732c-.379-.22-.332-.6.107-.856l1.55-.9a1.645,1.645,0,0,1,1.482-.062l4.733,2.733c.38.219.333.6-.106.855l-1.55.9A1.648,1.648,0,0,1,431.447,232.838Z" transform="translate(-357.827 -210.122)" fill="#173d7a"/>
            <path id="Path_10438" data-name="Path 10438" d="M474.086,257.456l-4.733-2.733c-.379-.219-.332-.6.106-.855l1.55-.9a1.65,1.65,0,0,1,1.483-.061l4.733,2.732c.379.219.332.6-.106.856l-1.55.894A1.648,1.648,0,0,1,474.086,257.456Z" transform="translate(-360.036 -211.397)" fill="#173d7a"/>
            <path id="Path_10439" data-name="Path 10439" d="M481.723,261.865l-4.733-2.733c-.381-.219-.333-.6.106-.855l1.55-.9a1.648,1.648,0,0,1,1.482-.062l4.733,2.733c.379.219.332.6-.107.855l-1.549.9A1.65,1.65,0,0,1,481.723,261.865Z" transform="translate(-360.431 -211.626)" fill="#173d7a"/>
            <path id="Path_10440" data-name="Path 10440" d="M489.361,266.274l-4.732-2.732c-.381-.219-.333-.6.105-.856l1.55-.894a1.648,1.648,0,0,1,1.483-.063l4.732,2.733c.381.22.333.6-.106.856l-1.55.9A1.645,1.645,0,0,1,489.361,266.274Z" transform="translate(-360.827 -211.854)" fill="#173d7a"/>
            <path id="Path_10441" data-name="Path 10441" d="M497,270.684l-4.733-2.732c-.379-.22-.332-.6.107-.857l1.549-.894a1.647,1.647,0,0,1,1.483-.062l4.733,2.732c.38.22.333.6-.106.857l-1.55.894A1.647,1.647,0,0,1,497,270.684Z" transform="translate(-361.222 -212.082)" fill="#173d7a"/>
            <path id="Path_10442" data-name="Path 10442" d="M421.355,236.019l-4.733-2.733c-.38-.218-.333-.6.106-.855l4.689-2.708a1.653,1.653,0,0,1,1.483-.061l4.733,2.733c.38.219.333.6-.106.855l-4.69,2.708A1.651,1.651,0,0,1,421.355,236.019Z" transform="translate(-357.305 -210.193)" fill="#173d7a"/>
            <path id="Path_10443" data-name="Path 10443" d="M429.064,240.469l-4.733-2.733c-.38-.219-.333-.6.106-.855l4.689-2.707a1.65,1.65,0,0,1,1.483-.062l4.733,2.733c.379.219.333.6-.106.855l-4.69,2.708A1.648,1.648,0,0,1,429.064,240.469Z" transform="translate(-357.704 -210.424)" fill="#173d7a"/>
            <path id="Path_10444" data-name="Path 10444" d="M436.771,244.919l-4.733-2.732c-.381-.22-.333-.6.106-.856l4.689-2.707a1.65,1.65,0,0,1,1.483-.062l4.733,2.733c.379.22.333.6-.106.855l-4.69,2.708A1.645,1.645,0,0,1,436.771,244.919Z" transform="translate(-358.103 -210.654)" fill="#173d7a"/>
            <path id="Path_10445" data-name="Path 10445" d="M444.479,249.37l-4.732-2.733c-.381-.22-.333-.6.106-.856l4.689-2.707a1.65,1.65,0,0,1,1.483-.062l4.732,2.733c.38.219.333.6-.106.856l-4.69,2.706A1.646,1.646,0,0,1,444.479,249.37Z" transform="translate(-358.502 -210.885)" fill="#173d7a"/>
            <path id="Path_10446" data-name="Path 10446" d="M452.187,253.82l-4.733-2.733c-.38-.22-.333-.6.106-.855l4.689-2.708a1.647,1.647,0,0,1,1.483-.061l4.733,2.733c.38.218.333.6-.106.855l-4.69,2.706A1.646,1.646,0,0,1,452.187,253.82Z" transform="translate(-358.901 -211.115)" fill="#173d7a"/>
            <path id="Path_10447" data-name="Path 10447" d="M459.895,258.27l-4.733-2.733c-.38-.219-.333-.6.106-.855l4.689-2.708a1.65,1.65,0,0,1,1.483-.062l4.733,2.733c.379.219.333.6-.106.856l-4.69,2.707A1.649,1.649,0,0,1,459.895,258.27Z" transform="translate(-359.301 -211.346)" fill="#173d7a"/>
            <path id="Path_10448" data-name="Path 10448" d="M467.6,262.72l-4.733-2.733c-.381-.219-.333-.6.106-.856l4.689-2.707a1.65,1.65,0,0,1,1.483-.062l4.733,2.733c.379.219.333.6-.106.855l-4.69,2.708A1.648,1.648,0,0,1,467.6,262.72Z" transform="translate(-359.7 -211.576)" fill="#173d7a"/>
            <path id="Path_10449" data-name="Path 10449" d="M475.31,267.169l-4.732-2.732c-.381-.219-.333-.6.105-.856l4.69-2.706a1.648,1.648,0,0,1,1.483-.063l4.732,2.733c.38.22.333.6-.105.855l-4.691,2.708A1.642,1.642,0,0,1,475.31,267.169Z" transform="translate(-360.099 -211.806)" fill="#173d7a"/>
            <path id="Path_10450" data-name="Path 10450" d="M483.018,271.62l-4.733-2.733c-.38-.219-.333-.6.106-.856l4.689-2.707a1.651,1.651,0,0,1,1.483-.062l4.733,2.733c.38.22.333.6-.106.856l-4.69,2.707A1.645,1.645,0,0,1,483.018,271.62Z" transform="translate(-360.498 -212.037)" fill="#173d7a"/>
            <path id="Path_10451" data-name="Path 10451" d="M376.786,236.278l-13.938-8.047c-.379-.22-.332-.6.107-.857l4.689-2.707a1.649,1.649,0,0,1,1.482-.062l13.939,8.047c.38.219.332.6-.107.856l-4.689,2.707A1.65,1.65,0,0,1,376.786,236.278Z" transform="translate(-354.52 -209.931)" fill="#173d7a"/>
            <path id="Path_10452" data-name="Path 10452" d="M471.478,290.948,457.54,282.9c-.38-.219-.333-.6.106-.855l4.689-2.707a1.651,1.651,0,0,1,1.483-.063l13.938,8.047c.38.22.333.6-.106.856l-4.69,2.707A1.648,1.648,0,0,1,471.478,290.948Z" transform="translate(-359.424 -212.763)" fill="#173d7a"/>
            <path id="Path_10453" data-name="Path 10453" d="M441.156,283.243l-4.733-2.733c-.379-.218-.332-.6.107-.855l5.586-3.226a1.65,1.65,0,0,1,1.483-.061l4.733,2.733c.379.219.333.6-.106.855l-5.587,3.226A1.651,1.651,0,0,1,441.156,283.243Z" transform="translate(-358.33 -212.612)" fill="#173d7a"/>
            <path id="Path_10454" data-name="Path 10454" d="M385.028,250.837l-7.569-4.369c-.38-.219-.333-.6.106-.855l5.587-3.226a1.648,1.648,0,0,1,1.482-.062l7.568,4.37c.381.219.333.6-.105.856l-5.586,3.225A1.647,1.647,0,0,1,385.028,250.837Z" transform="translate(-355.277 -210.849)" fill="#173d7a"/>
            <path id="Path_10455" data-name="Path 10455" d="M433.575,278.867l-7.569-4.371c-.38-.218-.332-.6.107-.855l5.585-3.225a1.65,1.65,0,0,1,1.483-.062l7.569,4.37c.38.219.333.6-.106.855l-5.587,3.225A1.645,1.645,0,0,1,433.575,278.867Z" transform="translate(-357.791 -212.301)" fill="#173d7a"/>
            <path id="Path_10456" data-name="Path 10456" d="M396.149,257.258l-7.569-4.369c-.381-.219-.333-.6.106-.856l5.586-3.226a1.648,1.648,0,0,1,1.482-.061l7.57,4.369c.379.22.332.6-.107.856l-5.586,3.225A1.642,1.642,0,0,1,396.149,257.258Z" transform="translate(-355.853 -211.182)" fill="#173d7a"/>
            <path id="Path_10457" data-name="Path 10457" d="M395.823,248.785l32.907,19a.451.451,0,0,1,0,.854l-5.7,3.288a1.631,1.631,0,0,1-1.478,0l-32.908-19Z" transform="translate(-355.869 -211.191)" fill="#173d7a"/>
            <path id="Path_10458" data-name="Path 10458" d="M462.764,291.688l5.271,3.044c.312.18.272.495-.087.7l-2.285,1.32a1.351,1.351,0,0,1-1.215.05l-5.272-3.044c-.311-.18-.272-.494.087-.7l2.285-1.32A1.354,1.354,0,0,1,462.764,291.688Z" transform="translate(-359.511 -213.407)" fill="#173d7a"/>
            <path id="Path_10459" data-name="Path 10459" d="M454.992,287.2l5.272,3.044c.311.179.272.493-.087.7l-2.285,1.32a1.351,1.351,0,0,1-1.215.05l-5.272-3.044c-.312-.18-.273-.494.087-.7l2.285-1.319A1.348,1.348,0,0,1,454.992,287.2Z" transform="translate(-359.108 -213.175)" fill="#173d7a"/>
            <path id="Path_10460" data-name="Path 10460" d="M447.284,282.752l5.272,3.044c.312.179.272.493-.087.7l-2.285,1.32a1.352,1.352,0,0,1-1.215.05l-5.272-3.044c-.311-.18-.272-.494.087-.7l2.285-1.32A1.351,1.351,0,0,1,447.284,282.752Z" transform="translate(-358.709 -212.944)" fill="#173d7a"/>
            <path id="Path_10461" data-name="Path 10461" d="M459.248,284.744l5.273,3.044c.311.179.272.494-.088.7l-2.284,1.32a1.355,1.355,0,0,1-1.217.049l-5.271-3.044c-.311-.179-.272-.493.087-.7l2.285-1.318A1.346,1.346,0,0,1,459.248,284.744Z" transform="translate(-359.329 -213.047)" fill="#173d7a"/>
          </g>
        </g>
        <g id="Group_3321" data-name="Group 3321" transform="translate(133.175 65.661)">
          <g id="Group_3320" data-name="Group 3320">
            <path id="Path_10462" data-name="Path 10462" d="M467.44,174.915l-4.527-2.614a1.866,1.866,0,0,1-.777-1.459h0c-.009-.564.323-.825.744-.582l4.526,2.612a1.872,1.872,0,0,1,.778,1.461h0C468.193,174.9,467.86,175.157,467.44,174.915Z" transform="translate(-451.355 -163.943)" fill="#d4ecff"/>
            <path id="Path_10463" data-name="Path 10463" d="M478.694,181.411l-6.674-3.853a1.872,1.872,0,0,1-.778-1.46h0c-.009-.564.324-.824.744-.583l6.674,3.854a1.87,1.87,0,0,1,.777,1.46h0C479.446,181.394,479.114,181.654,478.694,181.411Z" transform="translate(-451.826 -164.215)" fill="#d4ecff"/>
            <path id="Path_10464" data-name="Path 10464" d="M465.075,200.371l-4.527-2.614a1.868,1.868,0,0,1-.778-1.459h0c-.009-.564.324-.825.745-.582l4.526,2.613a1.868,1.868,0,0,1,.777,1.46h0C465.828,200.352,465.5,200.613,465.075,200.371Z" transform="translate(-451.232 -165.261)" fill="#d4ecff"/>
            <path id="Path_10465" data-name="Path 10465" d="M475.094,206.154,468.42,202.3a1.867,1.867,0,0,1-.777-1.46h0c-.009-.564.323-.824.744-.582l6.674,3.854a1.869,1.869,0,0,1,.777,1.46h0C475.847,206.137,475.514,206.4,475.094,206.154Z" transform="translate(-451.64 -165.496)" fill="#d4ecff"/>
            <path id="Path_10466" data-name="Path 10466" d="M454.444,171.881l-2.829-1.633a1.872,1.872,0,0,1-.777-1.46h0c-.009-.564.324-.825.744-.582l2.827,1.633a1.866,1.866,0,0,1,.778,1.46h0C455.2,171.862,454.864,172.123,454.444,171.881Z" transform="translate(-450.77 -163.837)" fill="#d4ecff"/>
            <path id="Path_10467" data-name="Path 10467" d="M464.31,182.047l-8.639-4.988a1.866,1.866,0,0,1-.777-1.46h0c-.009-.564.322-.824.743-.582L464.277,180a1.867,1.867,0,0,1,.777,1.46h0C465.063,182.029,464.73,182.29,464.31,182.047Z" transform="translate(-450.98 -164.189)" fill="#d4ecff"/>
            <path id="Path_10468" data-name="Path 10468" d="M458.644,187.717l-2.828-1.634a1.863,1.863,0,0,1-.777-1.459h0c-.009-.564.323-.825.743-.582l2.829,1.632a1.871,1.871,0,0,1,.776,1.461h0C459.4,187.7,459.064,187.959,458.644,187.717Z" transform="translate(-450.987 -164.657)" fill="#d4ecff"/>
            <path id="Path_10469" data-name="Path 10469" d="M478.565,217.1l-7.552-4.361a1.867,1.867,0,0,1-.778-1.459h0c-.009-.564.324-.825.743-.582l7.552,4.361a1.867,1.867,0,0,1,.778,1.46h0C479.318,217.081,478.986,217.342,478.565,217.1Z" transform="translate(-451.774 -166.037)" fill="#d4ecff"/>
            <path id="Path_10470" data-name="Path 10470" d="M457.777,196.157l-1.815-1.048a1.872,1.872,0,0,1-.778-1.46h0c-.009-.564.324-.825.745-.582l1.815,1.048a1.872,1.872,0,0,1,.777,1.46h0C458.531,196.138,458.2,196.4,457.777,196.157Z" transform="translate(-450.995 -165.124)" fill="#d4ecff"/>
            <path id="Path_10471" data-name="Path 10471" d="M458.362,205.435l-2.254-1.3a1.872,1.872,0,0,1-.777-1.46h0c-.009-.564.324-.825.743-.582l2.255,1.3a1.869,1.869,0,0,1,.777,1.459h0C459.115,205.416,458.783,205.678,458.362,205.435Z" transform="translate(-451.002 -165.591)" fill="#d4ecff"/>
            <path id="Path_10472" data-name="Path 10472" d="M467.409,210.658l-5.942-3.431a1.872,1.872,0,0,1-.778-1.46h0c-.009-.564.324-.824.745-.582l5.941,3.432a1.862,1.862,0,0,1,.777,1.46h0C468.162,210.64,467.829,210.9,467.409,210.658Z" transform="translate(-451.28 -165.752)" fill="#d4ecff"/>
            <path id="Path_10473" data-name="Path 10473" d="M460.454,211.114l-4.272-2.467a1.868,1.868,0,0,1-.778-1.459h0c-.009-.564.324-.826.743-.583l4.273,2.467a1.868,1.868,0,0,1,.778,1.46h0C461.207,211.1,460.875,211.356,460.454,211.114Z" transform="translate(-451.006 -165.825)" fill="#d4ecff"/>
            <path id="Path_10474" data-name="Path 10474" d="M485.667,221.219l-2.744-1.584a1.87,1.87,0,0,1-.778-1.46h0c-.009-.564.324-.824.744-.581l2.744,1.584a1.87,1.87,0,0,1,.778,1.46h0C486.42,221.2,486.087,221.462,485.667,221.219Z" transform="translate(-452.391 -166.394)" fill="#d4ecff"/>
            <path id="Path_10475" data-name="Path 10475" d="M469.479,193.972l-7.553-4.361a1.869,1.869,0,0,1-.778-1.46h0c-.008-.563.324-.824.744-.582l7.552,4.361a1.865,1.865,0,0,1,.777,1.46h0C470.231,193.954,469.9,194.215,469.479,193.972Z" transform="translate(-451.304 -164.839)" fill="#d4ecff"/>
            <path id="Path_10476" data-name="Path 10476" d="M468.907,189.171l-13.163-7.6a1.868,1.868,0,0,1-.777-1.46h0c-.009-.563.324-.825.743-.582l13.163,7.6a1.869,1.869,0,0,1,.777,1.459h0C469.66,189.153,469.326,189.414,468.907,189.171Z" transform="translate(-450.983 -164.423)" fill="#d4ecff"/>
            <path id="Path_10477" data-name="Path 10477" d="M463.442,194.956l-7.552-4.36a1.87,1.87,0,0,1-.778-1.459h0c-.009-.564.324-.825.744-.582l7.553,4.36a1.87,1.87,0,0,1,.778,1.46h0C464.195,194.939,463.862,195.2,463.442,194.956Z" transform="translate(-450.991 -164.89)" fill="#d4ecff"/>
            <path id="Path_10478" data-name="Path 10478" d="M475.783,197.611l-2.744-1.584a1.862,1.862,0,0,1-.777-1.459h0c-.009-.563.323-.825.743-.582l2.743,1.584a1.868,1.868,0,0,1,.779,1.46h0C476.536,197.594,476.2,197.854,475.783,197.611Z" transform="translate(-451.879 -165.172)" fill="#d4ecff"/>
            <path id="Path_10479" data-name="Path 10479" d="M499.64,193.505l-16.25-9.382a1.87,1.87,0,0,1-.778-1.46h0c-.009-.564.324-.825.744-.582l16.25,9.382a1.868,1.868,0,0,1,.777,1.46h0C500.393,193.487,500.06,193.748,499.64,193.505Z" transform="translate(-452.415 -164.555)" fill="#d4ecff"/>
            <path id="Path_10480" data-name="Path 10480" d="M465.114,204.863l-9.078-5.242a1.872,1.872,0,0,1-.777-1.46h0c-.009-.564.324-.824.743-.582l9.079,5.242a1.871,1.871,0,0,1,.777,1.46h0C465.868,204.845,465.535,205.105,465.114,204.863Z" transform="translate(-450.999 -165.358)" fill="#d4ecff"/>
            <path id="Path_10481" data-name="Path 10481" d="M458.217,169.589l-6.673-3.854a1.866,1.866,0,0,1-.778-1.459h0c-.009-.564.323-.825.744-.583l6.674,3.854a1.871,1.871,0,0,1,.777,1.46h0C458.97,169.571,458.637,169.832,458.217,169.589Z" transform="translate(-450.766 -163.603)" fill="#d4ecff"/>
            <path id="Path_10482" data-name="Path 10482" d="M460,215.324l-7.731-4.462a1.874,1.874,0,0,1-.777-1.46h0c-.009-.564.324-.826.744-.583l7.731,4.463a1.874,1.874,0,0,1,.777,1.46h0C460.758,215.306,460.424,215.566,460,215.324Z" transform="translate(-450.804 -165.94)" fill="#d4ecff"/>
          </g>
        </g>
      </g>
      <g id="Group_3329" data-name="Group 3329" transform="translate(0 0)">
        <g id="Group_3323" data-name="Group 3323">
          <path id="Path_10483" data-name="Path 10483" d="M252.017,221.285,291.832,198.1c7.887-4.555,15.326-5.274,20.946-2.032s8.712,10.046,8.712,19.154v2.917c-.282.191-.577.376-.878.561v-3.478c0-8.78-2.939-15.313-8.274-18.393s-12.462-2.359-20.067,2.031l-39.815,23.183a.439.439,0,0,1-.439-.76Z" transform="translate(-251.797 -51.191)" fill="#d4ecff"/>
          <path id="Path_10484" data-name="Path 10484" d="M381.9,185.865V96.139c0-17.96,12.654-39.878,28.209-48.858,7.617-4.4,14.8-5.1,20.231-1.962s8.416,9.7,8.416,18.5v6.257l-.877.878V63.819c0-8.468-2.834-14.769-7.978-17.739s-12.018-2.274-19.354,1.961c-15.312,8.84-27.769,30.417-27.769,48.1v89.727c0,14.887-8.76,32.506-20.638,43.108V227.8C373.547,217.311,381.9,200.285,381.9,185.865Z" transform="translate(-257.512 -43.388)" fill="#d4ecff"/>
          <path id="Path_10485" data-name="Path 10485" d="M442.891,73.941h0a35.24,35.24,0,0,1,17.974-8.8c11.111-1.7,15.7,11.294,15.7,11.294a71.777,71.777,0,0,1,1.239,10.743c-.046,3.994-.332,18.5-.332,18.5L442.256,85.39v-.006a.435.435,0,0,1-.242-.387V74.7C442.306,74.408,442.6,74.233,442.891,73.941Z" transform="translate(-261.648 -44.506)" fill="#173d7a"/>
        </g>
        <g id="Group_3327" data-name="Group 3327" transform="translate(0.169 0.165)">
          <g id="Group_3325" data-name="Group 3325">
            <path id="Path_10486" data-name="Path 10486" d="M463.716,64.573,430.333,45.328l.131.48c-5.145-3.323-12.92-3.682-23.322,3.946C386.482,64.9,384,86,382.948,89.948s-.62,28.993-.62,28.993-.069,60.395-.137,67.418-2.115,14.906-6.061,23.415-14.082,18.834-14.082,18.834V240.9c1.618,13.29,7.264,16.39,15.666,17.147,6.781.611,14.005-4.284,19.778-9.621-.213.223-.35.363-.35.363v12.293c1.619,13.291,7.265,16.39,15.666,17.147s17.488-6.938,23.645-13.452,11.347-16.46,14.232-25.434,1.929-20.568,1.929-20.568.068-66.018.137-79.034.482-10.743,4.751-23.828,15.588-22.243,15.588-22.243l27.158-8.088Z" transform="translate(-257.676 -43.561)" fill="#d4ecff"/>
            <path id="Path_10487" data-name="Path 10487" d="M403.65,286.055c-.457-.623-6.405-4.611-7.92-11.635a54.813,54.813,0,0,1-.758-9.847s.024-3.3.1-6.307c.067-.058.136-.112.2-.172v-1.178c-.054.05-.111.1-.164.145.022-.678.047-1.315.078-1.854.172-3.122-2.134-9.78-2.134-9.78s-3.272-8.917-13.016-9.262c-8.651-.305-17.758,5.919-19.7,7.32v-4.027c-.129.087-.267.172-.4.257.009-.54.023-1.091.037-1.633.066-.059.135-.112.2-.172v-1.178c-.054.05-.111.1-.165.144.023-.677.048-1.313.079-1.854.171-3.122-2.135-9.779-2.135-9.779s-3.271-8.918-13.016-9.262c-8.651-.306-17.758,5.919-19.7,7.32v-4.027c-.282.191-.577.376-.878.561v7.05c0,8.541,2.846,14.961,8.013,18.15l.022.023.18.1c.048.029.094.063.142.09.031.019.065.03.1.047l35.731,20.571c-.009-.012-.032-.033-.046-.048Z" transform="translate(-255.725 -52.49)" fill="#181c3a"/>
            <g id="Group_3324" data-name="Group 3324" transform="translate(0 143.093)">
              <path id="Path_10488" data-name="Path 10488" d="M347.882,216.274s-.267-.138-.739-.33c-.146-.069-.285-.152-.432-.217l-33.923-19.636a18.206,18.206,0,0,0-13.772-.517c-7.539,2.76-47.04,26.457-47.04,26.457l35.29,20.331.006,0a.537.537,0,0,0,.095.026l34.994,20.161s19.8-12.265,33.5-20.179l.878-.506c5.6-3.219,10.047-5.624,11.442-5.994,8.446-2.238,14.321.488,15.85,1.327Z" transform="translate(-251.976 -194.469)" fill="#d4ecff"/>
              <path id="Path_10489" data-name="Path 10489" d="M391.238,239.528l.409.237S391.5,239.671,391.238,239.528Z" transform="translate(-259.188 -196.803)" fill="#d4ecff"/>
            </g>
          </g>
          <path id="Path_10490" data-name="Path 10490" d="M479.9,95.226h0a35.245,35.245,0,0,1,17.974-8.8c11.111-1.7,15.7,11.294,15.7,11.294a71.665,71.665,0,0,1,1.238,10.743c-.046,3.994-.332,18.5-.332,18.5l-35.219-20.288v-.006a.435.435,0,0,1-.242-.386v-10.3C479.318,95.693,479.611,95.518,479.9,95.226Z" transform="translate(-263.734 -45.773)" fill="#181c3a"/>
          <g id="Group_3326" data-name="Group 3326" transform="translate(70.159 40.314)">
            <path id="Path_10491" data-name="Path 10491" d="M410.6,280.924a25.676,25.676,0,0,0,12.629-3.865c15.442-8.914,28-30.675,28-48.5V138.829c0-17.681,12.458-39.258,27.77-48.1,7.336-4.233,14.208-4.93,19.353-1.96s7.979,9.271,7.979,17.74v20.059a.439.439,0,1,0,.877,0V106.509c0-8.8-2.989-15.367-8.417-18.5s-12.613-2.437-20.231,1.961c-15.554,8.98-28.209,30.9-28.209,48.859v89.727c0,17.55-12.366,38.969-27.565,47.744-7.279,4.2-14.1,4.9-19.209,1.946s-7.918-9.2-7.918-17.606V250.11c0-9.107-3.095-15.909-8.714-19.154s-13.056-2.522-20.945,2.033l-39.814,23.183a.439.439,0,0,0,.439.76l39.815-23.183c7.6-4.389,14.731-5.112,20.067-2.031s8.274,9.613,8.274,18.392v10.529c0,8.733,2.969,15.256,8.358,18.367A14.733,14.733,0,0,0,410.6,280.924Z" transform="translate(-325.967 -86.077)" fill="#396caa"/>
          </g>
        </g>
        <path id="Path_10492" data-name="Path 10492" d="M417.74,164.565l-5.886-3.4a2.429,2.429,0,0,1-1.011-1.9h0c-.011-.733.421-1.072.967-.757l5.887,3.4a2.428,2.428,0,0,1,1.01,1.9h0C418.719,164.541,418.286,164.88,417.74,164.565Z" transform="translate(-260.034 -49.344)" fill="#5793ce"/>
        <path id="Path_10493" data-name="Path 10493" d="M430.769,172.087l-8.68-5.011a2.431,2.431,0,0,1-1.01-1.9h0c-.012-.734.421-1.072.968-.758l8.679,5.011a2.428,2.428,0,0,1,1.01,1.9h0C431.747,172.063,431.315,172.4,430.769,172.087Z" transform="translate(-260.564 -49.65)" fill="#5793ce"/>
        <path id="Path_10494" data-name="Path 10494" d="M416.745,140.738l-11.234-6.486a2.432,2.432,0,0,1-1.011-1.9h0c-.011-.733.421-1.072.967-.757l11.234,6.487a2.428,2.428,0,0,1,1.011,1.9h0C417.724,140.716,417.291,141.054,416.745,140.738Z" transform="translate(-259.705 -47.95)" fill="#5793ce"/>
        <path id="Path_10495" data-name="Path 10495" d="M409.378,148.112l-3.677-2.123a2.437,2.437,0,0,1-1.011-1.9h0c-.011-.733.422-1.071.968-.757l3.677,2.123a2.43,2.43,0,0,1,1.01,1.9h0C410.357,148.087,409.924,148.426,409.378,148.112Z" transform="translate(-259.715 -48.558)" fill="#5793ce"/>
        <path id="Path_10496" data-name="Path 10496" d="M408.251,159.087l-2.36-1.364a2.43,2.43,0,0,1-1.01-1.9h0c-.012-.733.421-1.072.967-.758l2.36,1.364a2.429,2.429,0,0,1,1.01,1.9h0C409.23,159.062,408.8,159.4,408.251,159.087Z" transform="translate(-259.725 -49.165)" fill="#5793ce"/>
        <path id="Path_10497" data-name="Path 10497" d="M423.467,156.246l-9.822-5.67a2.429,2.429,0,0,1-1.01-1.9h0c-.012-.734.421-1.072.967-.758l9.821,5.67a2.427,2.427,0,0,1,1.01,1.9h0C424.446,156.222,424.014,156.561,423.467,156.246Z" transform="translate(-260.127 -48.795)" fill="#5793ce"/>
        <path id="Path_10498" data-name="Path 10498" d="M422.723,150l-17.117-9.882a2.426,2.426,0,0,1-1.01-1.9h0c-.012-.733.421-1.071.966-.757l17.117,9.882a2.429,2.429,0,0,1,1.01,1.9h0C423.7,149.979,423.268,150.318,422.723,150Z" transform="translate(-259.71 -48.254)" fill="#5793ce"/>
        <path id="Path_10499" data-name="Path 10499" d="M415.616,157.526l-9.82-5.669a2.431,2.431,0,0,1-1.011-1.9h0c-.012-.734.421-1.072.967-.757l9.821,5.669a2.43,2.43,0,0,1,1.01,1.9h0C416.6,157.5,416.163,157.841,415.616,157.526Z" transform="translate(-259.72 -48.861)" fill="#5793ce"/>
        <path id="Path_10500" data-name="Path 10500" d="M431.664,160.978l-3.569-2.06a2.431,2.431,0,0,1-1.01-1.9h0c-.011-.733.421-1.072.967-.758l3.568,2.06a2.431,2.431,0,0,1,1.011,1.9h0C432.642,160.954,432.21,161.293,431.664,160.978Z" transform="translate(-260.875 -49.227)" fill="#5793ce"/>
        <g id="Group_3328" data-name="Group 3328" transform="translate(139.706 69.567)">
          <path id="Path_10501" data-name="Path 10501" d="M420.815,131.463l-5.886-3.4a2.433,2.433,0,0,1-1.01-1.9h0c-.012-.734.421-1.072.966-.757l5.887,3.4a2.427,2.427,0,0,1,1.011,1.9h0C421.8,131.439,421.363,131.779,420.815,131.463Z" transform="translate(-399.899 -117.196)" fill="#5793ce"/>
          <path id="Path_10502" data-name="Path 10502" d="M435.45,139.912l-8.679-5.01a2.43,2.43,0,0,1-1.01-1.9h0c-.012-.733.421-1.071.966-.757l8.68,5.011a2.43,2.43,0,0,1,1.01,1.9h0C436.429,139.889,436,140.228,435.45,139.912Z" transform="translate(-400.513 -117.55)" fill="#5793ce"/>
          <path id="Path_10503" data-name="Path 10503" d="M417.74,164.565l-5.886-3.4a2.429,2.429,0,0,1-1.011-1.9h0c-.011-.733.421-1.072.967-.757l5.887,3.4a2.428,2.428,0,0,1,1.01,1.9h0C418.719,164.541,418.286,164.88,417.74,164.565Z" transform="translate(-399.74 -118.911)" fill="#5793ce"/>
          <path id="Path_10504" data-name="Path 10504" d="M430.769,172.087l-8.68-5.011a2.431,2.431,0,0,1-1.01-1.9h0c-.012-.734.421-1.072.968-.758l8.679,5.011a2.428,2.428,0,0,1,1.01,1.9h0C431.747,172.063,431.315,172.4,430.769,172.087Z" transform="translate(-400.27 -119.217)" fill="#5793ce"/>
          <path id="Path_10505" data-name="Path 10505" d="M403.916,127.519l-3.677-2.123a2.433,2.433,0,0,1-1.011-1.9h0c-.011-.734.422-1.072.968-.757l3.677,2.122a2.433,2.433,0,0,1,1.01,1.9h0C404.9,127.495,404.462,127.833,403.916,127.519Z" transform="translate(-399.139 -117.058)" fill="#5793ce"/>
          <path id="Path_10506" data-name="Path 10506" d="M416.745,140.738l-11.234-6.486a2.432,2.432,0,0,1-1.011-1.9h0c-.011-.733.421-1.072.967-.757l11.234,6.487a2.428,2.428,0,0,1,1.011,1.9h0C417.724,140.716,417.291,141.054,416.745,140.738Z" transform="translate(-399.412 -117.517)" fill="#5793ce"/>
          <path id="Path_10507" data-name="Path 10507" d="M409.378,148.112l-3.677-2.123a2.437,2.437,0,0,1-1.011-1.9h0c-.011-.733.422-1.071.968-.757l3.677,2.123a2.43,2.43,0,0,1,1.01,1.9h0C410.357,148.087,409.924,148.426,409.378,148.112Z" transform="translate(-399.421 -118.125)" fill="#5793ce"/>
          <path id="Path_10508" data-name="Path 10508" d="M435.282,186.319l-9.82-5.669a2.431,2.431,0,0,1-1.011-1.9h0c-.012-.733.421-1.071.967-.757l9.821,5.67a2.429,2.429,0,0,1,1.01,1.9h0C436.262,186.3,435.829,186.635,435.282,186.319Z" transform="translate(-400.445 -119.92)" fill="#5793ce"/>
          <path id="Path_10509" data-name="Path 10509" d="M408.251,159.087l-2.36-1.364a2.43,2.43,0,0,1-1.01-1.9h0c-.012-.733.421-1.072.967-.758l2.36,1.364a2.429,2.429,0,0,1,1.01,1.9h0C409.23,159.062,408.8,159.4,408.251,159.087Z" transform="translate(-399.431 -118.732)" fill="#5793ce"/>
          <path id="Path_10510" data-name="Path 10510" d="M409.012,171.151l-2.93-1.692a2.43,2.43,0,0,1-1.011-1.9h0c-.011-.733.422-1.071.967-.757l2.932,1.693a2.434,2.434,0,0,1,1.01,1.9h0C409.992,171.128,409.559,171.467,409.012,171.151Z" transform="translate(-399.441 -119.34)" fill="#5793ce"/>
          <path id="Path_10511" data-name="Path 10511" d="M420.776,177.944l-7.728-4.462a2.43,2.43,0,0,1-1.01-1.9h0c-.012-.734.421-1.072.967-.757l7.727,4.461a2.428,2.428,0,0,1,1.011,1.9h0C421.754,177.919,421.322,178.259,420.776,177.944Z" transform="translate(-399.802 -119.548)" fill="#5793ce"/>
          <path id="Path_10512" data-name="Path 10512" d="M411.732,178.535l-5.557-3.209a2.431,2.431,0,0,1-1.01-1.9h0c-.012-.734.421-1.072.967-.758l5.557,3.208a2.427,2.427,0,0,1,1.01,1.9h0C412.712,178.512,412.279,178.85,411.732,178.535Z" transform="translate(-399.446 -119.644)" fill="#5793ce"/>
          <path id="Path_10513" data-name="Path 10513" d="M423.467,156.246l-9.822-5.67a2.429,2.429,0,0,1-1.01-1.9h0c-.012-.734.421-1.072.967-.758l9.821,5.67a2.427,2.427,0,0,1,1.01,1.9h0C424.446,156.222,424.014,156.561,423.467,156.246Z" transform="translate(-399.833 -118.362)" fill="#5793ce"/>
          <path id="Path_10514" data-name="Path 10514" d="M422.723,150l-17.117-9.882a2.426,2.426,0,0,1-1.01-1.9h0c-.012-.733.421-1.071.966-.757l17.117,9.882a2.429,2.429,0,0,1,1.01,1.9h0C423.7,149.979,423.268,150.318,422.723,150Z" transform="translate(-399.417 -117.821)" fill="#5793ce"/>
          <path id="Path_10515" data-name="Path 10515" d="M415.616,157.526l-9.82-5.669a2.431,2.431,0,0,1-1.011-1.9h0c-.012-.734.421-1.072.967-.757l9.821,5.669a2.43,2.43,0,0,1,1.01,1.9h0C416.6,157.5,416.163,157.841,415.616,157.526Z" transform="translate(-399.426 -118.429)" fill="#5793ce"/>
          <path id="Path_10516" data-name="Path 10516" d="M431.664,160.978l-3.569-2.06a2.431,2.431,0,0,1-1.01-1.9h0c-.011-.733.421-1.072.967-.758l3.568,2.06a2.431,2.431,0,0,1,1.011,1.9h0C432.642,160.954,432.21,161.293,431.664,160.978Z" transform="translate(-400.581 -118.794)" fill="#5793ce"/>
          <path id="Path_10517" data-name="Path 10517" d="M417.791,170.408l-11.805-6.817a2.431,2.431,0,0,1-1.01-1.9h0c-.011-.733.421-1.072.967-.758l11.805,6.817a2.429,2.429,0,0,1,1.011,1.9h0C418.771,170.384,418.337,170.723,417.791,170.408Z" transform="translate(-399.436 -119.036)" fill="#5793ce"/>
          <path id="Path_10518" data-name="Path 10518" d="M408.823,124.539l-8.679-5.01a2.43,2.43,0,0,1-1.01-1.9h0c-.012-.734.421-1.072.966-.757l8.68,5.01a2.433,2.433,0,0,1,1.01,1.9h0C409.8,124.515,409.369,124.855,408.823,124.539Z" transform="translate(-399.134 -116.754)" fill="#5793ce"/>
          <path id="Path_10519" data-name="Path 10519" d="M411.147,184.01l-10.052-5.8a2.428,2.428,0,0,1-1.01-1.9h0c-.012-.733.42-1.071.966-.756l10.053,5.8a2.43,2.43,0,0,1,1.01,1.9h0C412.125,183.986,411.693,184.324,411.147,184.01Z" transform="translate(-399.183 -119.793)" fill="#5793ce"/>
        </g>
        <path id="Path_10520" data-name="Path 10520" d="M416.281,220.25l-5.886-3.4a2.433,2.433,0,0,1-1.01-1.9h0c-.011-.733.421-1.072.967-.757l5.886,3.4a2.431,2.431,0,0,1,1.011,1.9h0C417.26,220.225,416.828,220.565,416.281,220.25Z" transform="translate(-259.958 -52.227)" fill="#5793ce"/>
        <path id="Path_10521" data-name="Path 10521" d="M429.31,227.771l-8.68-5.01a2.432,2.432,0,0,1-1.01-1.9h0c-.012-.732.421-1.071.968-.757l8.678,5.01a2.431,2.431,0,0,1,1.01,1.9h0C430.288,227.748,429.856,228.087,429.31,227.771Z" transform="translate(-260.488 -52.533)" fill="#5793ce"/>
        <path id="Path_10522" data-name="Path 10522" d="M415.286,196.423l-11.235-6.487a2.433,2.433,0,0,1-1.01-1.9h0c-.012-.733.421-1.072.967-.757l11.234,6.486a2.43,2.43,0,0,1,1.011,1.9h0C416.265,196.4,415.831,196.739,415.286,196.423Z" transform="translate(-259.63 -50.834)" fill="#5793ce"/>
        <path id="Path_10523" data-name="Path 10523" d="M407.919,203.8l-3.677-2.124a2.433,2.433,0,0,1-1.011-1.9h0c-.011-.733.422-1.071.968-.757l3.676,2.124a2.427,2.427,0,0,1,1.011,1.9h0C408.9,203.772,408.465,204.11,407.919,203.8Z" transform="translate(-259.64 -51.441)" fill="#5793ce"/>
        <path id="Path_10524" data-name="Path 10524" d="M406.793,214.771l-2.361-1.363a2.43,2.43,0,0,1-1.01-1.9h0c-.012-.734.421-1.072.966-.758l2.361,1.363a2.43,2.43,0,0,1,1.01,1.9h0C407.771,214.747,407.338,215.086,406.793,214.771Z" transform="translate(-259.65 -52.049)" fill="#5793ce"/>
        <path id="Path_10525" data-name="Path 10525" d="M422.008,211.93l-9.822-5.67a2.426,2.426,0,0,1-1.01-1.9h0c-.012-.733.421-1.072.966-.758l9.822,5.671a2.428,2.428,0,0,1,1.01,1.9h0C422.987,211.906,422.554,212.246,422.008,211.93Z" transform="translate(-260.051 -51.679)" fill="#5793ce"/>
        <path id="Path_10526" data-name="Path 10526" d="M421.263,205.687,404.147,195.8a2.427,2.427,0,0,1-1.01-1.9h0c-.012-.733.421-1.072.966-.758l17.117,9.883a2.43,2.43,0,0,1,1.01,1.9h0C422.243,205.663,421.809,206,421.263,205.687Z" transform="translate(-259.635 -51.137)" fill="#5793ce"/>
        <path id="Path_10527" data-name="Path 10527" d="M414.157,213.211l-9.82-5.671a2.424,2.424,0,0,1-1.011-1.9h0c-.012-.733.42-1.071.967-.756l9.821,5.669a2.43,2.43,0,0,1,1.01,1.9h0C415.137,213.186,414.7,213.526,414.157,213.211Z" transform="translate(-259.645 -51.745)" fill="#5793ce"/>
        <path id="Path_10528" data-name="Path 10528" d="M430.2,216.663l-3.569-2.06a2.436,2.436,0,0,1-1.01-1.9h0c-.012-.733.421-1.071.967-.757l3.568,2.06a2.429,2.429,0,0,1,1.011,1.9h0C431.183,216.638,430.75,216.978,430.2,216.663Z" transform="translate(-260.799 -52.111)" fill="#5793ce"/>
      </g>
      <path id="Path_10529" data-name="Path 10529" d="M486.44,335.578l10.9-6.294,10.9,6.294-10.9,6.294Z" transform="translate(-263.949 -58.194)" fill="#d4ecff"/>
      <g id="Group_3334" data-name="Group 3334" transform="translate(199.351 205.426)">
        <g id="Group_3333" data-name="Group 3333">
          <g id="Group_3330" data-name="Group 3330" transform="translate(23.14 32.098)">
            <path id="Path_10530" data-name="Path 10530" d="M497.342,333.745V300.178l-10.9-6.294v33.567Z" transform="translate(-486.44 -293.884)" fill="#181c3a"/>
            <path id="Path_10531" data-name="Path 10531" d="M497.938,300.178l10.9-6.294v33.567l-10.9,6.294Z" transform="translate(-487.036 -293.884)" fill="#181c3a"/>
            <path id="Path_10532" data-name="Path 10532" d="M497.342,333.745V300.178l-10.9-6.294v33.567Z" transform="translate(-486.44 -293.884)" fill="#181c3a"/>
          </g>
          <g id="Group_3331" data-name="Group 3331" transform="translate(0 54.028)">
            <path id="Path_10533" data-name="Path 10533" d="M472.938,348.825V329.943l-10.9-6.294v18.882Z" transform="translate(-462.036 -317.355)" fill="#7a6cff"/>
            <path id="Path_10534" data-name="Path 10534" d="M473.533,329.943l10.9-6.294v18.882l-10.9,6.294Z" transform="translate(-462.631 -317.355)" fill="#7a6cff"/>
            <path id="Path_10535" data-name="Path 10535" d="M462.036,323.306l10.9-6.294,10.9,6.294-10.9,6.294Z" transform="translate(-462.036 -317.012)" fill="#9792ff"/>
          </g>
          <g id="Group_3332" data-name="Group 3332" transform="translate(46.211)">
            <path id="Path_10536" data-name="Path 10536" d="M521.671,319.12V272.965l-10.9-6.294v46.155Z" transform="translate(-510.77 -260.377)" fill="#7a6cff"/>
            <path id="Path_10537" data-name="Path 10537" d="M522.267,272.965l10.9-6.294v46.155l-10.9,6.294Z" transform="translate(-511.366 -260.377)" fill="#7a6cff"/>
            <path id="Path_10538" data-name="Path 10538" d="M510.77,266.327l10.9-6.294,10.9,6.294-10.9,6.294Z" transform="translate(-510.77 -260.033)" fill="#9792ff"/>
          </g>
        </g>
        <path id="Path_10539" data-name="Path 10539" d="M486.44,293.54l10.9-6.294,10.9,6.294-10.9,6.294Z" transform="translate(-463.3 -261.442)" fill="#2d3153"/>
      </g>
      <g id="Group_3340" data-name="Group 3340" transform="translate(18.468 87.946)">
        <g id="Group_3339" data-name="Group 3339">
          <g id="Group_3336" data-name="Group 3336" transform="translate(2.533)">
            <path id="Path_10540" data-name="Path 10540" d="M297.9,283.758s-3.365-1.7-5.431.83-5.021,8.492-5.113,12.522,3.191,3.759,5.14,2.8,7.648-9.219,7.993-10.839a5.618,5.618,0,0,0-.955-4.237C298.986,284.41,297.9,283.758,297.9,283.758Z" transform="translate(-274.64 -143.753)" fill="#7a6cff"/>
            <path id="Path_10541" data-name="Path 10541" d="M298.9,282.889l.156,3.486a1.976,1.976,0,0,1-.985,1.814,3.878,3.878,0,0,1-2.6.4c-2.535-.407-2.76-1.131-2.942-4.617S298.9,282.889,298.9,282.889Z" transform="translate(-274.908 -143.695)" fill="#d4ecff"/>
            <g id="Group_3335" data-name="Group 3335" transform="translate(0 61.852)">
              <path id="Path_10542" data-name="Path 10542" d="M284.909,276.688s-3.365-1.7-5.432.831-5.021,8.491-5.112,12.522,3.19,3.759,5.14,2.8,7.648-9.219,7.993-10.839a5.616,5.616,0,0,0-.956-4.238C285.995,277.34,284.909,276.688,284.909,276.688Z" transform="translate(-273.967 -205.239)" fill="#7a6cff"/>
              <path id="Path_10543" data-name="Path 10543" d="M285.911,275.819l.156,3.487a1.976,1.976,0,0,1-.985,1.813,3.873,3.873,0,0,1-2.6.4c-2.535-.408-2.761-1.131-2.942-4.617S285.911,275.819,285.911,275.819Z" transform="translate(-274.235 -205.181)" fill="#d4ecff"/>
              <path id="Path_10544" data-name="Path 10544" d="M315.648,208c-1-16.2-17.55,2.385-17.55,2.385l-11.33,11.1-10.2,11.208a10.056,10.056,0,0,0-2.535,8.079l4.128,31.426a3.088,3.088,0,0,0,3.1,2.684,10.457,10.457,0,0,0,1.529-.134,3.839,3.839,0,0,0,3.41-4.074l-.755-29.393,21.426-12.916S316.644,224.2,315.648,208Z" transform="translate(-273.946 -201.367)" fill="#181c3a"/>
            </g>
            <path id="Path_10545" data-name="Path 10545" d="M328.638,214.511c-1-16.206-17.55,2.385-17.55,2.385L299.759,228l-10.2,11.208a10.058,10.058,0,0,0-2.534,8.079l4.127,31.426a3.089,3.089,0,0,0,3.1,2.684,10.459,10.459,0,0,0,1.529-.135,3.837,3.837,0,0,0,3.41-4.073l-.754-29.393,21.425-12.917S329.634,230.716,328.638,214.511Z" transform="translate(-274.619 -139.852)" fill="#181c3a"/>
            <path id="Path_10546" data-name="Path 10546" d="M319.266,159.914c12.55,5.2,12.3,12.622,12.3,12.622s-2.458,27.2-1.619,45.362c.35,7.593-40.344,8.173-34.275-12.085,7.155-23.886,4.474-43.222,7.823-46.139S316.019,158.568,319.266,159.914Z" transform="translate(-275.039 -137.275)" fill="#5793ce"/>
            <path id="Path_10547" data-name="Path 10547" d="M324.155,166.595c-.657,2.549-3.995,3.891-7.458,3s-5.735-3.681-5.08-6.229,4-3.891,7.457-3S324.811,164.047,324.155,166.595Z" transform="translate(-275.891 -137.377)" fill="#ffc2b0"/>
            <path id="Path_10548" data-name="Path 10548" d="M318.784,170.435a9.1,9.1,0,0,1-2.269-.292,8.35,8.35,0,0,1-4.4-2.695A4.793,4.793,0,0,1,311,163.184c.737-2.865,4.409-4.405,8.187-3.431a8.352,8.352,0,0,1,4.4,2.695,4.794,4.794,0,0,1,1.111,4.264h0C324.116,168.994,321.665,170.435,318.784,170.435Zm-1.89-9.777c-2.331,0-4.279,1.084-4.729,2.826a3.634,3.634,0,0,0,.88,3.206,7.153,7.153,0,0,0,3.77,2.292c3.132.807,6.153-.345,6.726-2.569h0a3.634,3.634,0,0,0-.879-3.206,7.153,7.153,0,0,0-3.77-2.292A8.051,8.051,0,0,0,316.894,160.658Z" transform="translate(-275.858 -137.345)" fill="#fff"/>
            <path id="Path_10549" data-name="Path 10549" d="M315.275,159.279a31.009,31.009,0,0,1-.109,4.48c-.068,1.25,4.31,2.418,5.441,1.287s.679-2.309.951-6.564S315.275,159.279,315.275,159.279Z" transform="translate(-276.08 -137.206)" fill="#ffc2b0"/>
            <path id="Path_10550" data-name="Path 10550" d="M321.558,158.575s-1.079,3.946-6.393,5.459l.081-3.585Z" transform="translate(-276.08 -137.299)" fill="#ea9c92"/>
            <path id="Path_10551" data-name="Path 10551" d="M324.418,147.609a9.66,9.66,0,1,1-11.77-6.935A9.659,9.659,0,0,1,324.418,147.609Z" transform="translate(-275.575 -136.356)" fill="#ffc2b0"/>
            <path id="Path_10552" data-name="Path 10552" d="M317.281,150.8s-5.319,2.278-9,2.3-2.871-3.058-2.871-3.058l10.932-1.58Z" transform="translate(-275.571 -136.775)" fill="#ea9c92"/>
            <path id="Path_10553" data-name="Path 10553" d="M306.952,150.762s4.634-1.967,8.7-1.146a4.266,4.266,0,0,1,2.457,1.46,1.45,1.45,0,0,0,.743.538c.721.163,1.9-2.828,3.3-2.9s2.336.925,1.187,2.763-.759,3.9-.231,4.192,6.135-4,1.19-13.795-17.507-4.519-19.46-2.535c0,0-2.059,1.794-3.732.2C301.1,139.541,299.228,153.6,306.952,150.762Z" transform="translate(-275.342 -136.137)" fill="#181c3a"/>
            <path id="Path_10554" data-name="Path 10554" d="M325.255,194.051v7.35a2.992,2.992,0,0,1-.977,2.212l-15.1,13.764L310.9,220l19.938-14.459a4.051,4.051,0,0,0,1.651-2.856l1.347-12.817Z" transform="translate(-275.771 -138.919)" fill="#ffc2b0"/>
            <path id="Path_10555" data-name="Path 10555" d="M332.05,169.448s4.581,6.889,6.287,25.02c0,0-7.824,2.53-12.264,1.093S332.05,169.448,332.05,169.448Z" transform="translate(-276.588 -137.862)" fill="#5793ce"/>
            <path id="Path_10556" data-name="Path 10556" d="M325.147,178.633s-1.793,9.6-1.895,14.107a2.878,2.878,0,0,0,1.895,2.78h0Z" transform="translate(-276.499 -138.338)" fill="#396caa"/>
          </g>
          <g id="Group_3337" data-name="Group 3337" transform="translate(2.413 72.971)">
            <path id="Path_10557" data-name="Path 10557" d="M318.67,228.239l-3.336-.44-21.541-12.436a2.994,2.994,0,0,0-2.694.111l-15.262,8.809-2.018-.266v2.009h0a.787.787,0,0,0,.463.707L298.7,240.827a2.994,2.994,0,0,0,2.694-.112l16.623-9.593a1.088,1.088,0,0,0,.658-.906h0Z" transform="translate(-273.819 -213.196)" fill="#5793ce"/>
            <path id="Path_10558" data-name="Path 10558" d="M302.487,220.622l-1.531-.884H284.132l-8.294,4.786-2.018-.266v2.009h0a.787.787,0,0,0,.463.707L298.7,241.067a2.529,2.529,0,0,0,1.39.261Z" transform="translate(-273.819 -213.437)" fill="#396caa"/>
            <path id="Path_10559" data-name="Path 10559" d="M274.715,224.623l-.9-.119v2.009h0a.787.787,0,0,0,.463.707l.431.248Z" transform="translate(-273.819 -213.684)" fill="#5793ce"/>
            <path id="Path_10560" data-name="Path 10560" d="M300.313,242.159a3.124,3.124,0,0,0,2.289-.143V238.6h-2.289Z" transform="translate(-275.191 -214.414)" fill="#fff"/>
            <path id="Path_10561" data-name="Path 10561" d="M298.7,238.716l-24.411-14.093c-.69-.4-.6-1.1.194-1.556l16.621-9.593a3,3,0,0,1,2.694-.112L318.2,227.455c.69.4.6,1.1-.192,1.556L301.389,238.6A3,3,0,0,1,298.7,238.716Z" transform="translate(-273.819 -213.093)" fill="#fff"/>
            <path id="Path_10562" data-name="Path 10562" d="M298.489,236.86l-20.3-11.718c-.575-.332-.5-.911.161-1.293l8.907-5.009a2.489,2.489,0,0,1,2.241-.093l20.3,11.719c.574.332.5.91-.161,1.293l-8.908,5.009A2.489,2.489,0,0,1,298.489,236.86Z" transform="translate(-274.025 -213.374)" fill="#d4ecff"/>
          </g>
          <path id="Path_10563" data-name="Path 10563" d="M293.019,212.96l-.253,1.684a12.447,12.447,0,0,0,.11,4.319l.3,1.484a2.089,2.089,0,0,0,1.673,1.64h0a1.152,1.152,0,0,0,1.35-1.005l.4-3.6s.921,1.208,1.365,1.208-.5-3.606-1.5-5.647S293.019,212.96,293.019,212.96Z" transform="translate(-272.38 -140.071)" fill="#ffc2b0"/>
          <path id="Path_10564" data-name="Path 10564" d="M301.227,184.5l-2.619,5.184a10.178,10.178,0,0,0-1.072,3.935L296.4,211.349l-3.446-.083-1.565-19.913a7.3,7.3,0,0,1,.089-1.84l1.786-10.1Z" transform="translate(-272.315 -138.378)" fill="#ffc2b0"/>
          <g id="Group_3338" data-name="Group 3338" transform="translate(0 62.412)">
            <path id="Path_10565" data-name="Path 10565" d="M297.76,239.493l-2.046-2.672-21.524-12.462a2.994,2.994,0,0,1-1.248-2.391l.019-17.622-1.237-1.616,1.163-.674,0,0a.784.784,0,0,1,.844.048l24.393,14.124a2.993,2.993,0,0,1,1.248,2.39l-.021,19.192a1.092,1.092,0,0,1-.456,1.024h0Z" transform="translate(-271.297 -201.957)" fill="#173d7a"/>
            <path id="Path_10566" data-name="Path 10566" d="M282.875,229.388l-1.529-.886-8.395-14.581.009-9.576-1.237-1.616,1.163-.674,0,0a.784.784,0,0,1,.844.048l24.393,14.124a2.515,2.515,0,0,1,.92,1.074Z" transform="translate(-271.297 -201.957)" fill="#396caa"/>
            <path id="Path_10567" data-name="Path 10567" d="M272.272,203.447l-.549-.717,1.163-.674,0,0a.784.784,0,0,1,.844.048l.43.248Z" transform="translate(-271.297 -201.957)" fill="#5793ce"/>
            <path id="Path_10568" data-name="Path 10568" d="M299.663,217.174a3.122,3.122,0,0,1,1.018,2.055l-2.383,1.377-1.143-1.985Z" transform="translate(-272.614 -202.745)" fill="#274f89"/>
            <path id="Path_10569" data-name="Path 10569" d="M296.939,216.939l-24.394-14.124c-.689-.4-1.25.024-1.252.943l-.02,19.193a3,3,0,0,0,1.247,2.39l24.394,14.124c.69.4,1.251-.024,1.252-.945l.021-19.191A3,3,0,0,0,296.939,216.939Z" transform="translate(-271.274 -201.994)" fill="#5793ce"/>
          </g>
          <path id="Path_10570" data-name="Path 10570" d="M310.551,221.5l-.391.811a5.439,5.439,0,0,1-2.039,2.261l-2.424,1.493a2.416,2.416,0,0,1-2.473.057l-.082-.049a1.458,1.458,0,0,1-.206-2.241l2.532-2.6s-1.422,1.09-1.822.651c-.292-.322,1.38-1.892,2.664-1.943a5.078,5.078,0,0,0,2.526-1.06Z" transform="translate(-272.891 -140.422)" fill="#ffc2b0"/>
          <path id="Path_10571" data-name="Path 10571" d="M303.509,159.719s-9.283,10.1-13.028,19.365a18.95,18.95,0,0,0,10.943,7.962C309.195,189.291,303.509,159.719,303.509,159.719Z" transform="translate(-272.269 -137.358)" fill="#5793ce"/>
          <path id="Path_10572" data-name="Path 10572" d="M300.068,187.113l1.5-14.533L298.027,186.2A20.094,20.094,0,0,0,300.068,187.113Z" transform="translate(-272.659 -138.024)" fill="#396caa"/>
          <path id="Path_10573" data-name="Path 10573" d="M311.416,157.532l-2.495-.685a6.023,6.023,0,0,0,2.929,2.351c1.739.478,2.009-.995,2.009-.995Z" transform="translate(-273.224 -137.209)" fill="#fff"/>
        </g>
        <path id="Path_10574" data-name="Path 10574" d="M325.45,153.283a1.389,1.389,0,1,1-1.389-1.39A1.39,1.39,0,0,1,325.45,153.283Z" transform="translate(-273.936 -136.953)" fill="#fff"/>
      </g>
      <g id="Group_3346" data-name="Group 3346" transform="translate(53.409 243.423)">
        <path id="Path_10575" data-name="Path 10575" d="M352.791,329.72c-9.293-5.365-24.36-5.365-33.652,0s-9.291,14.063,0,19.428,24.359,5.365,33.651,0S362.083,335.086,352.791,329.72ZM343.7,343.9a17.088,17.088,0,0,1-15.468,0c-4.272-2.465-4.272-6.464,0-8.929a17.1,17.1,0,0,1,15.469,0C347.971,337.435,347.971,341.434,343.7,343.9Z" transform="translate(-308.333 -301.431)" fill="#d4ecff"/>
        <g id="Group_3345" data-name="Group 3345">
          <g id="Group_3341" data-name="Group 3341" transform="translate(3.234)">
            <path id="Path_10576" data-name="Path 10576" d="M315.6,325.89l8.487.133a9.024,9.024,0,0,1,2.682-2.254c4.667-2.7,12.007-2.9,17.092-.629L348.9,318.4l7.767.121c-.384-.251-.778-.5-1.194-.74-10.793-6.231-28.291-6.231-39.083,0a20.5,20.5,0,0,0-4.856,3.783Z" transform="translate(-311.534 -300.779)" fill="#6760fc"/>
            <path id="Path_10577" data-name="Path 10577" d="M358.708,305.807v12.326l-7.766-.121V305.685Z" transform="translate(-313.575 -300.395)" fill="#7a6cff"/>
            <path id="Path_10578" data-name="Path 10578" d="M345.622,310.429v12.326l5.044-4.744V305.685Z" transform="translate(-313.299 -300.395)" fill="#7a6cff"/>
            <path id="Path_10579" data-name="Path 10579" d="M324.767,313.361v12.327l11.166-9.1,8.607,6.216V310.479l-7.924-3.845s-10.911,3.34-11.478,3.482S324.767,313.361,324.767,313.361Z" transform="translate(-312.218 -300.444)" fill="#7a6cff"/>
            <path id="Path_10580" data-name="Path 10580" d="M315.818,313.589v12.326l8.488.132V313.721Z" transform="translate(-311.756 -300.804)" fill="#6862f9"/>
            <path id="Path_10581" data-name="Path 10581" d="M311.534,309.024V321.35l4.062,4.328V313.353Z" transform="translate(-311.534 -300.568)" fill="#7a6cff"/>
            <path id="Path_10582" data-name="Path 10582" d="M315.6,312.891l8.487.132a9.036,9.036,0,0,1,2.682-2.253c4.667-2.7,12.007-2.9,17.092-.629L348.9,305.4l7.767.122c-.384-.251-.778-.5-1.194-.74-10.793-6.231-28.291-6.231-39.083,0a20.5,20.5,0,0,0-4.856,3.783Z" transform="translate(-311.534 -300.106)" fill="#6058f9"/>
          </g>
          <g id="Group_3343" data-name="Group 3343" transform="translate(32.554 7.374)">
            <path id="Path_10583" data-name="Path 10583" d="M348.318,312.287v11.33l7.348-1.759s-.431-6.631-.588-6.808S348.318,312.287,348.318,312.287Z" transform="translate(-342.759 -308.11)" fill="#5793ce"/>
            <g id="Group_3342" data-name="Group 3342">
              <path id="Path_10584" data-name="Path 10584" d="M342.455,324.236v12.326l.794.847,5.18-2.987s-.8-9.408-.9-9.6A49.068,49.068,0,0,0,342.455,324.236Z" transform="translate(-342.455 -308.729)" fill="#173d7a"/>
              <path id="Path_10585" data-name="Path 10585" d="M352.457,320.881l-4.442,4.177c3.7,2.928,3.264,7.056-1.314,9.7a15.79,15.79,0,0,1-4.245,1.632l4.591,4.892-4.068,3.826a36.964,36.964,0,0,0,14.1-4.361c9.277-5.356,10.572-13.572,3.9-19.731Z" transform="translate(-342.455 -308.555)" fill="#396caa"/>
              <path id="Path_10586" data-name="Path 10586" d="M343.007,332.544V344.87l10.072-3.889,12.115-11.558-.045-13.088-12.817,10.159Z" transform="translate(-342.484 -308.32)" fill="#396caa"/>
              <path id="Path_10587" data-name="Path 10587" d="M352.457,307.882l-4.442,4.177c3.7,2.928,3.264,7.056-1.314,9.7a15.791,15.791,0,0,1-4.245,1.632l4.591,4.892-4.068,3.826a36.964,36.964,0,0,0,14.1-4.361c9.277-5.355,10.572-13.572,3.9-19.731Z" transform="translate(-342.455 -307.882)" fill="#d4ecff"/>
            </g>
          </g>
          <g id="Group_3344" data-name="Group 3344" transform="translate(0 10.856)">
            <path id="Path_10588" data-name="Path 10588" d="M341.167,341.406l-4.046-4.311a19.339,19.339,0,0,1-10.532-2.15c-2.975-1.717-4.2-4.06-3.679-6.294l-9.636-.15-3.707-3.947c-3.241,5.561-1.03,11.95,6.646,16.381,5.639,3.256,13.11,4.806,20.5,4.66Z" transform="translate(-308.124 -312.228)" fill="#396caa"/>
            <path id="Path_10589" data-name="Path 10589" d="M336.713,332.881v12.326l-28.587-15.842V317.033l4.174,1.687Z" transform="translate(-308.124 -311.839)" fill="#396caa"/>
            <path id="Path_10590" data-name="Path 10590" d="M342.728,329.328v12.325l-4.454,4.19V333.517Z" transform="translate(-309.685 -312.475)" fill="#173d7a"/>
            <path id="Path_10591" data-name="Path 10591" d="M341.167,328.408l-4.046-4.312a19.339,19.339,0,0,1-10.532-2.15c-2.975-1.717-4.2-4.06-3.679-6.294l-9.636-.15-3.707-3.947c-3.241,5.562-1.03,11.95,6.646,16.381,5.639,3.256,13.11,4.807,20.5,4.66Z" transform="translate(-308.124 -311.555)" fill="#5793ce"/>
          </g>
        </g>
      </g>
      <g id="Group_3349" data-name="Group 3349" transform="translate(177.375 49.139)">
        <g id="Group_3347" data-name="Group 3347">
          <path id="Path_10592" data-name="Path 10592" d="M468.8,110.086,443.447,95.448a1.3,1.3,0,0,0-1.311-.1l0-.017-2.459,1.42,1.729.632v18.465a4.885,4.885,0,0,0,2.04,3.9l24.233,13.991V135.9l2.484-1.431-.013-.006a1.8,1.8,0,0,0,.689-1.625V113.984A4.888,4.888,0,0,0,468.8,110.086Z" transform="translate(-438.902 -95.211)" fill="#181c3a"/>
          <path id="Path_10593" data-name="Path 10593" d="M466.254,135.9,440.9,121.262a4.883,4.883,0,0,1-2.041-3.9V98.512c0-1.5.913-2.192,2.041-1.543l25.353,14.639a4.885,4.885,0,0,1,2.04,3.9v18.852C468.293,135.86,467.38,136.551,466.254,135.9Z" transform="translate(-438.86 -95.289)" fill="#181c3a"/>
        </g>
        <g id="Group_3348" data-name="Group 3348" transform="translate(7.145 16.28)">
          <path id="Path_10594" data-name="Path 10594" d="M449.817,115.576c0,1.09-.766,1.533-1.712.987A3.781,3.781,0,0,1,446.4,113.6c0-1.09.766-1.533,1.711-.988A3.781,3.781,0,0,1,449.817,115.576Z" transform="translate(-446.395 -112.38)" fill="#fff"/>
          <path id="Path_10595" data-name="Path 10595" d="M455.282,118.731c0,1.091-.766,1.533-1.711.988a3.782,3.782,0,0,1-1.712-2.963c0-1.09.767-1.533,1.712-.988A3.784,3.784,0,0,1,455.282,118.731Z" transform="translate(-446.678 -112.543)" fill="#fff"/>
          <path id="Path_10596" data-name="Path 10596" d="M460.748,121.888c0,1.089-.766,1.532-1.712.986a3.781,3.781,0,0,1-1.711-2.963c0-1.09.766-1.532,1.711-.986A3.778,3.778,0,0,1,460.748,121.888Z" transform="translate(-446.961 -112.707)" fill="#fff"/>
        </g>
      </g>
      <g id="Group_3352" data-name="Group 3352" transform="translate(54.663 20.624)">
        <g id="Group_3350" data-name="Group 3350">
          <path id="Path_10597" data-name="Path 10597" d="M338.819,79.731l-24.874-14.36a1.269,1.269,0,0,0-1.285-.1v-.016l-2.412,1.394,1.7.62V85.379a4.792,4.792,0,0,0,2,3.824l23.775,13.725v2.125l2.437-1.4-.013,0a1.772,1.772,0,0,0,.676-1.595V83.555A4.792,4.792,0,0,0,338.819,79.731Z" transform="translate(-309.488 -65.138)" fill="#5793ce"/>
          <path id="Path_10598" data-name="Path 10598" d="M336.32,105.055,311.448,90.7a4.792,4.792,0,0,1-2-3.824V68.377c0-1.474.9-2.151,2-1.513l24.873,14.36a4.8,4.8,0,0,1,2,3.825v18.495C338.321,105.016,337.425,105.694,336.32,105.055Z" transform="translate(-309.446 -65.215)" fill="#d4ecff"/>
        </g>
        <g id="Group_3351" data-name="Group 3351" transform="translate(7.009 15.971)">
          <path id="Path_10599" data-name="Path 10599" d="M320.195,85.118c0,1.07-.752,1.5-1.679.968a3.71,3.71,0,0,1-1.677-2.906c0-1.071.752-1.5,1.677-.968A3.707,3.707,0,0,1,320.195,85.118Z" transform="translate(-316.838 -81.982)" fill="#fff"/>
          <path id="Path_10600" data-name="Path 10600" d="M325.556,88.214c0,1.07-.751,1.5-1.677.968a3.706,3.706,0,0,1-1.678-2.906c0-1.071.751-1.5,1.678-.969A3.71,3.71,0,0,1,325.556,88.214Z" transform="translate(-317.116 -82.142)" fill="#fff"/>
          <path id="Path_10601" data-name="Path 10601" d="M330.919,91.308c0,1.071-.752,1.5-1.679.97a3.708,3.708,0,0,1-1.678-2.907c0-1.07.751-1.5,1.678-.969A3.712,3.712,0,0,1,330.919,91.308Z" transform="translate(-317.393 -82.302)" fill="#fff"/>
        </g>
      </g>
    </g>
  </g>
  <g id="Rectangle_75" data-name="Rectangle 75" transform="translate(14.823 27.27) rotate(49)" fill="none" stroke="#7a6cff" stroke-width="2" opacity="0.3">
    <rect width="13" height="13" stroke="none"/>
    <rect x="1" y="1" width="11" height="11" fill="none"/>
  </g>
</svg>
