<svg xmlns="http://www.w3.org/2000/svg" xmlns:xlink="http://www.w3.org/1999/xlink" width="192.172" height="192.172" viewBox="0 0 192.172 192.172">
  <defs>
    <filter id="Rectangle_170" x="0" y="0" width="192.172" height="192.172" filterUnits="userSpaceOnUse">
      <feOffset dy="3" input="SourceAlpha"/>
      <feGaussianBlur stdDeviation="3" result="blur"/>
      <feFlood flood-opacity="0"/>
      <feComposite operator="in" in2="blur"/>
      <feComposite in="SourceGraphic"/>
    </filter>
  </defs>
  <g id="Group_3647" data-name="Group 3647" transform="translate(-184.147 -1083.208)">
    <g transform="matrix(1, 0, 0, 1, 184.15, 1083.21)" filter="url(#Rectangle_170)">
      <rect id="Rectangle_170-2" data-name="Rectangle 170" width="126.316" height="120" rx="10" transform="translate(93.85 6) rotate(45)" fill="#786afd" opacity="0.08"/>
    </g>
    <g id="Group_3589" data-name="Group 3589" transform="translate(-1047.737 769.106)">
      <path id="Path_11886" data-name="Path 11886" d="M1385.316,386.319h-2.89v-5.791c-.39-.019-.684-.045-.978-.045-2.562,0-5.124.011-7.686-.005a7.315,7.315,0,0,1-7.48-7.461c-.016-2.346,0-4.693,0-7.18h-1q-15.373,0-30.745,0c-3.1,0-4.867,1.772-4.867,4.888q0,18.941,0,37.882v1.116h-2.929v-.966q0-19.033,0-38.066c0-4.7,3.094-7.782,7.8-7.783q16.288,0,32.575-.015a2.916,2.916,0,0,1,2.122.84q7.56,6.918,15.167,13.785a2.506,2.506,0,0,1,.927,2.065C1385.286,381.8,1385.316,384.023,1385.316,386.319Zm-5.293-8.8-10.815-9.827c0,1.81,0,3.36,0,4.909,0,.3-.009.61.014.913a4.247,4.247,0,0,0,3.776,3.969C1375.259,377.633,1377.538,377.514,1380.022,377.514Z" transform="translate(-27.216)" fill="#181c3a" fill-rule="evenodd"/>
      <path id="Path_11887" data-name="Path 11887" d="M1325.884,550.249c0-1.471.01-2.81,0-4.149a1.5,1.5,0,0,1,2.738-1.026q5.682,6.4,11.363,12.792a1.492,1.492,0,0,1,0,2.344q-5.674,6.4-11.363,12.792a1.5,1.5,0,0,1-1.779.566,1.515,1.515,0,0,1-.955-1.607c.015-1.338,0-2.676,0-4.139h-1.019c-3.508,0-7.016.011-10.523,0a23.373,23.373,0,0,1-23.108-18.77,39.8,39.8,0,0,1-.487-4.353,1.472,1.472,0,0,1,.893-1.639,1.532,1.532,0,0,1,1.806.493,23.019,23.019,0,0,0,12.78,6.4,22.754,22.754,0,0,0,3.367.281c5.185.03,10.371.015,15.556.016Zm2.929-.54c0,.648,0,1.007,0,1.365,0,1.677-.428,2.1-2.108,2.1q-8.372,0-16.745,0a26.306,26.306,0,0,1-15.279-4.788c-.178-.123-.374-.22-.664-.389.038.291.048.441.079.586a20.532,20.532,0,0,0,20.074,16.3c4.3.025,8.6,0,12.9.008,1.2,0,1.718.539,1.739,1.734.009.5,0,.995,0,1.732l8.29-9.327Z" transform="translate(0 -136.087)" fill="#796cff" fill-rule="evenodd"/>
      <path id="Path_11888" data-name="Path 11888" d="M1437.326,464.4c0,1.37-.017,2.674.006,3.977a1.532,1.532,0,0,1-2.829,1.075q-5.583-6.3-11.179-12.584c-.875-.984-.878-1.571-.009-2.55q5.589-6.293,11.179-12.585c.5-.559,1.033-.981,1.823-.7a1.579,1.579,0,0,1,1.014,1.751c-.024,1.3-.006,2.61-.006,4.018h1.048c3.507,0,7.014-.011,10.521,0a23.374,23.374,0,0,1,23.085,18.791,40.663,40.663,0,0,1,.483,4.262,1.5,1.5,0,0,1-.93,1.7,1.547,1.547,0,0,1-1.8-.515,22.96,22.96,0,0,0-11.709-6.191,17.815,17.815,0,0,0-3.349-.435C1448.941,464.374,1443.208,464.4,1437.326,464.4Zm-11.22-8.81,8.292,9.319c0-.628,0-.982,0-1.338,0-1.7.418-2.124,2.084-2.124q8.418,0,16.836,0a26.193,26.193,0,0,1,15.191,4.773c.185.128.385.235.676.411-.04-.3-.051-.483-.089-.657a20.513,20.513,0,0,0-20.028-16.24c-4.239-.023-8.479,0-12.719-.005-1.483,0-1.947-.477-1.953-1.982,0-.41,0-.82,0-1.482Z" transform="translate(-99.727 -58.996)" fill="#181c3a" fill-rule="evenodd"/>
      <path id="Path_11889" data-name="Path 11889" d="M1382.387,549.086h2.929v.991q0,13.863,0,27.726c0,4.768-3.075,7.853-7.826,7.853q-21.458,0-42.916,0c-4.754,0-7.828-3.084-7.832-7.846,0-2.223,0-4.446,0-6.733h2.885c.015.271.041.535.042.8,0,2.135-.015,4.27.008,6.405a4.344,4.344,0,0,0,4.393,4.436q21.961.025,43.923,0a4.358,4.358,0,0,0,4.394-4.62q.012-13.909,0-27.818Z" transform="translate(-27.216 -140.743)" fill="#181c3a" fill-rule="evenodd"/>
      <path id="Path_11890" data-name="Path 11890" d="M1363.945,407.9c-2.044,0-4.088-.014-6.131.008-.766.008-1.113-.284-1.107-1.077q.029-4.484,0-8.968a1.633,1.633,0,0,1,.98-1.608c1.855-.921,3.689-1.888,5.573-2.747a2.088,2.088,0,0,1,1.548-.007c1.909.874,3.8,1.806,5.627,2.834a2,2,0,0,1,.879,1.432c.081,3.048.035,6.1.045,9.15,0,.768-.4.994-1.1.988C1368.155,407.892,1366.05,407.9,1363.945,407.9Zm4.732-8.819c-.359-.372-.519-.64-.755-.765-1.13-.6-2.27-1.18-3.431-1.714a1.225,1.225,0,0,0-.913,0c-1.161.534-2.3,1.116-3.431,1.714-.235.124-.394.394-.748.763Zm-8.975,2.98v2.844h2.795v-2.844Zm8.689.028h-2.837v2.82h2.837Z" transform="translate(-49.868 -23.028)" fill="#796cff" fill-rule="evenodd"/>
      <path id="Path_11891" data-name="Path 11891" d="M1464.874,659.941v-2.807h18.954v2.807Z" transform="translate(-131.632 -222.417)" fill="#181c3a" fill-rule="evenodd"/>
      <path id="Path_11892" data-name="Path 11892" d="M1374.493,465.193v2.822h-17.457v-2.822Z" transform="translate(-50.117 -77.328)" fill="#181c3a" fill-rule="evenodd"/>
      <path id="Path_11893" data-name="Path 11893" d="M1372.993,660.018h-15.959v-2.85h15.959Z" transform="translate(-50.115 -222.443)" fill="#181c3a" fill-rule="evenodd"/>
      <path id="Path_11894" data-name="Path 11894" d="M1442.091,417.2v2.82h-13.064V417.2Z" transform="translate(-104.536 -41.052)" fill="#181c3a" fill-rule="evenodd"/>
      <path id="Path_11895" data-name="Path 11895" d="M1391.17,537.189v2.819h-10.135v-2.819Z" transform="translate(-68.258 -131.75)" fill="#181c3a" fill-rule="evenodd"/>
      <path id="Path_11896" data-name="Path 11896" d="M1380.947,513.106h8.667v2.829h-8.667Z" transform="translate(-68.191 -113.546)" fill="#181c3a" fill-rule="evenodd"/>
      <path id="Path_11897" data-name="Path 11897" d="M1520.229,561.191v2.817h-7.207v-2.817Z" transform="translate(-168.028 -149.894)" fill="#181c3a" fill-rule="evenodd"/>
      <path id="Path_11898" data-name="Path 11898" d="M1380.906,491.95v-2.818h7.207v2.818Z" transform="translate(-68.16 -95.424)" fill="#181c3a" fill-rule="evenodd"/>
      <path id="Path_11899" data-name="Path 11899" d="M1512.866,587.961v-2.8h7.234v2.8Z" transform="translate(-167.91 -168.017)" fill="#181c3a" fill-rule="evenodd"/>
      <path id="Path_11900" data-name="Path 11900" d="M1513.034,609h7.174v2.849h-7.174Z" transform="translate(-168.037 -186.03)" fill="#181c3a" fill-rule="evenodd"/>
      <path id="Path_11901" data-name="Path 11901" d="M1520.182,633.125v2.813h-7.219v-2.813Z" transform="translate(-167.984 -204.269)" fill="#181c3a" fill-rule="evenodd"/>
      <path id="Path_11902" data-name="Path 11902" d="M1434.776,441.209v2.815h-5.743v-2.815Z" transform="translate(-104.54 -59.199)" fill="#181c3a" fill-rule="evenodd"/>
      <path id="Path_11903" data-name="Path 11903" d="M1357.052,489.018h2.783v2.848h-2.783Z" transform="translate(-50.129 -95.338)" fill="#181c3a" fill-rule="evenodd"/>
      <path id="Path_11904" data-name="Path 11904" d="M1359.836,540.044h-2.8V537.2h2.8Z" transform="translate(-50.117 -131.756)" fill="#181c3a" fill-rule="evenodd"/>
      <path id="Path_11905" data-name="Path 11905" d="M1356.906,516.016V513.2h2.831v2.815Z" transform="translate(-50.019 -113.618)" fill="#181c3a" fill-rule="evenodd"/>
      <path id="Path_11906" data-name="Path 11906" d="M1488.911,561.085h2.82v2.836h-2.82Z" transform="translate(-149.802 -149.814)" fill="#181c3a" fill-rule="evenodd"/>
      <path id="Path_11907" data-name="Path 11907" d="M1488.89,588.007v-2.815h2.831v2.815Z" transform="translate(-149.786 -168.036)" fill="#181c3a" fill-rule="evenodd"/>
      <path id="Path_11908" data-name="Path 11908" d="M1488.932,633.1h2.81v2.826h-2.81Z" transform="translate(-149.818 -204.248)" fill="#181c3a" fill-rule="evenodd"/>
    </g>
  </g>
</svg>
