<svg xmlns="http://www.w3.org/2000/svg" width="762" height="397.1" viewBox="0 0 762 397.1">
  <g id="_2784128" data-name="2784128" transform="translate(-32.819 -56.919)">
    <g id="BACKGROUND" transform="translate(32.819 56.919)">
      <g id="Group_7" data-name="Group 7" transform="translate(0 21.208)">
        <g id="Group_2" data-name="Group 2">
          <g id="Group_1" data-name="Group 1" transform="translate(62.309)" opacity="0.68">
            <path id="Path_587" data-name="Path 587" d="M705.528,241.3a124.355,124.355,0,0,0-42.743-81.638c-39.238-33.509-98.592-41.955-150.612-34.208-21.789,3.245-43.4,8.992-65.706,7.183-32.539-2.638-61.2-20.726-90.827-33.984-40.328-18.048-86.556-27.761-129.428-19.909-48.61,8.9-88.466,42.539-93.223,87.165-2.154,20.221,19.742,55.844,12.83,75.008C138.811,260.356,87.638,319.89,88.9,365.174c1.257,45.115,13.043,59.147,29.7,82.075H662.472c10.37-23.232,18.5-41.813,6.353-72.323-9.7-24.376,16.656-44.451,26.853-67.142C704.755,287.59,707.742,263.306,705.528,241.3Z" transform="translate(-88.876 -75.999)" fill="#9fbfff" opacity="0.47"/>
          </g>
          <path id="Path_588" data-name="Path 588" d="M37.343,235.021A41.284,41.284,0,0,1,55.337,179.48c20.306-10.368,59.281-9.515,69.649,10.792S104.1,227.916,91.328,246.8C73.516,273.146,47.71,255.328,37.343,235.021Z" transform="translate(-32.819 -65.187)" fill="#9fbfff" opacity="0.41"/>
          <path id="Path_589" data-name="Path 589" d="M682.546,300.641c9.933,10.764,10.74,26.173,1.805,34.416s-30.437,11.929-40.368,1.165,3.532-24.259,6.557-36.677C654.759,282.227,672.615,289.877,682.546,300.641Z" transform="translate(34.941 -52.209)" fill="#9fbfff" opacity="0.41"/>
          <path id="Path_590" data-name="Path 590" d="M604.5,81.867a23.591,23.591,0,0,1,31.875,9.85c6.082,11.522,5.9,33.8-5.625,39.88s-21.671-11.643-32.563-18.793C583,102.833,592.978,87.948,604.5,81.867Z" transform="translate(29.373 -75.65)" fill="#9fbfff" opacity="0.41"/>
        </g>
        <g id="Group_3" data-name="Group 3" transform="translate(114.306 49.925)" opacity="0.43">
          <path id="Path_591" data-name="Path 591" d="M640.313,415.662c5.3-26.349-3.2-48.825-5.314-74.66-2.006-24.461,6.682-45.032,11.5-68.329,4.289-20.733,2.86-44.218-2.524-64.6-7.35-27.82-24.282-53.582-48.675-69.287-38.009-24.471-88.7-21.589-130.682-4.757-17.585,7.05-34.618,16.432-53.451,18.8-27.468,3.461-54.2-8.379-80.96-15.481-36.424-9.668-76.407-10.386-110.774,4.874-38.966,17.3-66.67,56.361-63.434,99.38,1.466,19.493,8.97,38.729,6.313,58.094-2.694,19.64-14.361,36.069-20.538,54.567-8.43,25.246-9.2,62.351,4.356,87.968H631.19A106.686,106.686,0,0,0,640.313,415.662Z" transform="translate(-135.656 -120.915)" fill="#9fbfff"/>
        </g>
        <g id="Group_6" data-name="Group 6" transform="translate(212.845 174.53)">
          <g id="Group_5" data-name="Group 5" transform="translate(0 0)">
            <g id="Group_4" data-name="Group 4" opacity="0.47">
              <path id="Path_592" data-name="Path 592" d="M540.23,320.609a66.653,66.653,0,0,0-21.9-43.258c-20.1-17.757-50.51-22.232-77.161-18.127-11.163,1.718-22.233,4.764-33.663,3.806-16.671-1.4-31.355-10.982-46.533-18.008-20.66-9.564-44.344-14.71-66.309-10.548-24.9,4.718-45.322,22.541-47.759,46.187-1.1,10.715,10.114,29.591,6.574,39.746-3.59,10.3-29.808,41.846-29.162,65.84.644,23.907,6.682,31.341,15.215,43.491H518.172c5.313-12.31,9.476-22.157,3.256-38.323-4.971-12.916,8.533-23.553,13.757-35.578C539.835,345.138,541.365,332.27,540.23,320.609Z" transform="translate(-224.307 -233.017)" fill="#9fbfff"/>
            </g>
          </g>
        </g>
      </g>
      <path id="Path_593" data-name="Path 593" d="M784.985,413.486H62.345a1.757,1.757,0,0,1-1.757-1.756h0a1.758,1.758,0,0,1,1.757-1.757h722.64a1.758,1.758,0,0,1,1.757,1.757h0A1.757,1.757,0,0,1,784.985,413.486Z" transform="translate(-29.722 -17.544)" fill="#9fbfff"/>
      <circle id="Ellipse_1" data-name="Ellipse 1" cx="5.002" cy="5.002" r="5.002" transform="translate(722.693 224.618)" fill="#17014c"/>
      <circle id="Ellipse_2" data-name="Ellipse 2" cx="3.89" cy="3.89" r="3.89" transform="translate(688.236 364.671)" fill="#4e69ff"/>
      <circle id="Ellipse_3" data-name="Ellipse 3" cx="5.002" cy="5.002" r="5.002" transform="translate(83.566 51.22)" fill="#4e69ff"/>
      <circle id="Ellipse_4" data-name="Ellipse 4" cx="5.312" cy="5.312" r="5.312" transform="translate(30.867 348.718)" fill="#17014c"/>
      <circle id="Ellipse_5" data-name="Ellipse 5" cx="1.667" cy="1.667" r="1.667" transform="translate(54.666 79.008)" fill="#17014c"/>
      <circle id="Ellipse_6" data-name="Ellipse 6" cx="13.354" cy="13.354" r="13.354" transform="translate(456.198)" fill="#4e69ff"/>
      <circle id="Ellipse_7" data-name="Ellipse 7" cx="4.056" cy="4.056" r="4.056" transform="translate(685.223 31.249)" fill="#ffb54a"/>
      <circle id="Ellipse_8" data-name="Ellipse 8" cx="4.056" cy="4.056" r="4.056" transform="translate(162.955 5.445)" fill="#ffb54a"/>
      <circle id="Ellipse_9" data-name="Ellipse 9" cx="4.056" cy="4.056" r="4.056" transform="translate(718.637 122.549)" fill="#4e69ff"/>
      <circle id="Ellipse_10" data-name="Ellipse 10" cx="3.18" cy="3.18" r="3.18" transform="translate(428.423 25.009)" fill="#17014c"/>
    </g>
    <g id="OBJECTS" transform="translate(71.282 80.351)">
      <g id="Group_17" data-name="Group 17" transform="translate(226.619)">
        <g id="Group_10" data-name="Group 10" transform="translate(48.013)">
          <circle id="Ellipse_11" data-name="Ellipse 11" cx="63.878" cy="63.878" r="63.878" transform="translate(6.738 6.738)" fill="#1b1b25"/>
          <circle id="Ellipse_12" data-name="Ellipse 12" cx="63.878" cy="63.878" r="63.878" fill="#ffb54a"/>
          <path id="Path_594" data-name="Path 594" d="M377.131,192.191a51.448,51.448,0,1,1,51.448-51.448A51.507,51.507,0,0,1,377.131,192.191Zm0-99.56a48.114,48.114,0,1,0,48.113,48.114A48.168,48.168,0,0,0,377.131,92.631Z" transform="translate(-313.253 -76.74)" fill="#fcf0e3"/>
          <g id="Group_9" data-name="Group 9" transform="translate(42.645 31.163)">
            <g id="Group_8" data-name="Group 8">
              <path id="Path_595" data-name="Path 595" d="M370.34,161.94a36.458,36.458,0,0,1-9.292-2.406,35.322,35.322,0,0,1-8.182-4.628l5.776-8.441a44.421,44.421,0,0,0,5.887,3.814,22.4,22.4,0,0,0,6.183,2.184V140.69a50.985,50.985,0,0,1-7-2.443,17.521,17.521,0,0,1-4.962-3.185,12.1,12.1,0,0,1-2.961-4.332,15.257,15.257,0,0,1-1-5.739v-.148a13.806,13.806,0,0,1,1.11-5.628,12.843,12.843,0,0,1,3.147-4.368,16.076,16.076,0,0,1,4.924-3,24.126,24.126,0,0,1,6.368-1.518v-4.295h7.7v4.443a30.935,30.935,0,0,1,13.772,5.479l-4.961,8.663a42.328,42.328,0,0,0-4.516-2.629,22.826,22.826,0,0,0-4.664-1.74v11.181q8.441,2.3,12.253,6a13.194,13.194,0,0,1,3.814,9.921v.148a13.438,13.438,0,0,1-1.147,5.628,13.3,13.3,0,0,1-3.185,4.368,16.573,16.573,0,0,1-4.924,3.036,23.214,23.214,0,0,1-6.441,1.555v7.331h-7.7V161.94Zm.37-42.352a6.7,6.7,0,0,0-3.888,1.592,4.08,4.08,0,0,0-1.222,3v.148a4.367,4.367,0,0,0,1.037,2.924,9.918,9.918,0,0,0,4.073,2.333v-10Zm6.96,33.245q5.255-.814,5.256-4.738v-.148a4.5,4.5,0,0,0-1.11-3.147,10.7,10.7,0,0,0-4.146-2.332Z" transform="translate(-352.866 -106.036)" fill="#1b1b25"/>
            </g>
          </g>
        </g>
        <g id="Group_13" data-name="Group 13" transform="translate(48.013)">
          <circle id="Ellipse_13" data-name="Ellipse 13" cx="63.878" cy="63.878" r="63.878" transform="translate(6.738 6.738)" fill="#1b1b25"/>
          <circle id="Ellipse_14" data-name="Ellipse 14" cx="63.878" cy="63.878" r="63.878" fill="#ffb54a"/>
          <path id="Path_596" data-name="Path 596" d="M377.131,192.191a51.448,51.448,0,1,1,51.448-51.448A51.507,51.507,0,0,1,377.131,192.191Zm0-99.56a48.114,48.114,0,1,0,48.113,48.114A48.168,48.168,0,0,0,377.131,92.631Z" transform="translate(-313.253 -76.74)" fill="#fcf0e3"/>
          <g id="Group_12" data-name="Group 12" transform="translate(42.645 31.163)">
            <g id="Group_11" data-name="Group 11">
              <path id="Path_597" data-name="Path 597" d="M370.34,161.94a36.458,36.458,0,0,1-9.292-2.406,35.322,35.322,0,0,1-8.182-4.628l5.776-8.441a44.421,44.421,0,0,0,5.887,3.814,22.4,22.4,0,0,0,6.183,2.184V140.69a50.985,50.985,0,0,1-7-2.443,17.521,17.521,0,0,1-4.962-3.185,12.1,12.1,0,0,1-2.961-4.332,15.257,15.257,0,0,1-1-5.739v-.148a13.806,13.806,0,0,1,1.11-5.628,12.843,12.843,0,0,1,3.147-4.368,16.076,16.076,0,0,1,4.924-3,24.126,24.126,0,0,1,6.368-1.518v-4.295h7.7v4.443a30.935,30.935,0,0,1,13.772,5.479l-4.961,8.663a42.328,42.328,0,0,0-4.516-2.629,22.826,22.826,0,0,0-4.664-1.74v11.181q8.441,2.3,12.253,6a13.194,13.194,0,0,1,3.814,9.921v.148a13.438,13.438,0,0,1-1.147,5.628,13.3,13.3,0,0,1-3.185,4.368,16.573,16.573,0,0,1-4.924,3.036,23.214,23.214,0,0,1-6.441,1.555v7.331h-7.7V161.94Zm.37-42.352a6.7,6.7,0,0,0-3.888,1.592,4.08,4.08,0,0,0-1.222,3v.148a4.367,4.367,0,0,0,1.037,2.924,9.918,9.918,0,0,0,4.073,2.333v-10Zm6.96,33.245q5.255-.814,5.256-4.738v-.148a4.5,4.5,0,0,0-1.11-3.147,10.7,10.7,0,0,0-4.146-2.332Z" transform="translate(-352.866 -106.036)" fill="#1b1b25"/>
            </g>
          </g>
        </g>
        <g id="Group_16" data-name="Group 16" transform="translate(16.293 2.363)">
          <circle id="Ellipse_15" data-name="Ellipse 15" cx="28.903" cy="28.903" r="28.903" transform="translate(3.049 3.048)" fill="#1b1b25"/>
          <circle id="Ellipse_16" data-name="Ellipse 16" cx="28.903" cy="28.903" r="28.903" fill="#ffb54a"/>
          <path id="Path_598" data-name="Path 598" d="M314.3,131.794a23.279,23.279,0,1,1,23.279-23.279A23.305,23.305,0,0,1,314.3,131.794Zm0-45.049a21.77,21.77,0,1,0,21.769,21.77A21.795,21.795,0,0,0,314.3,86.745Z" transform="translate(-285.398 -79.556)" fill="#fcf0e3"/>
          <g id="Group_15" data-name="Group 15" transform="translate(19.295 14.099)">
            <g id="Group_14" data-name="Group 14">
              <path id="Path_599" data-name="Path 599" d="M311.228,118.106a16.567,16.567,0,0,1-4.2-1.088,16,16,0,0,1-3.7-2.094l2.613-3.82a20.1,20.1,0,0,0,2.663,1.725,10.152,10.152,0,0,0,2.8.988V108.49a23.066,23.066,0,0,1-3.167-1.106,7.9,7.9,0,0,1-2.244-1.441,5.47,5.47,0,0,1-1.34-1.96,6.916,6.916,0,0,1-.452-2.6v-.068a6.255,6.255,0,0,1,.5-2.547,5.8,5.8,0,0,1,1.424-1.976,7.289,7.289,0,0,1,2.227-1.357,10.886,10.886,0,0,1,2.881-.687V92.81h3.485v2.011a14,14,0,0,1,6.231,2.48L318.7,101.22a19.3,19.3,0,0,0-2.044-1.189,10.28,10.28,0,0,0-2.111-.787V104.3a12.759,12.759,0,0,1,5.545,2.713,5.969,5.969,0,0,1,1.725,4.489v.068a6.08,6.08,0,0,1-.519,2.547,6.019,6.019,0,0,1-1.441,1.976,7.525,7.525,0,0,1-2.228,1.374,10.479,10.479,0,0,1-2.914.7v3.317h-3.485v-3.384Zm.168-19.163a3.026,3.026,0,0,0-1.76.72,1.843,1.843,0,0,0-.552,1.357v.067a1.977,1.977,0,0,0,.469,1.324,4.471,4.471,0,0,0,1.843,1.055V98.943Zm3.149,15.042q2.379-.368,2.379-2.144v-.067a2.034,2.034,0,0,0-.5-1.424,4.824,4.824,0,0,0-1.876-1.055v4.69Z" transform="translate(-303.321 -92.81)" fill="#1b1b25"/>
            </g>
          </g>
        </g>
        <path id="Path_600" data-name="Path 600" d="M283.855,155.342h0A12.551,12.551,0,0,0,271.3,142.79h0a12.552,12.552,0,0,0,12.551-12.551h0a12.552,12.552,0,0,0,12.551,12.551h0A12.551,12.551,0,0,0,283.855,155.342Z" transform="translate(-271.304 -72.174)" fill="#fff"/>
        <path id="Path_601" data-name="Path 601" d="M416.18,211.446h0a9.218,9.218,0,0,0-9.218-9.218h0a9.218,9.218,0,0,0,9.218-9.218h0a9.218,9.218,0,0,0,9.218,9.218h0A9.218,9.218,0,0,0,416.18,211.446Z" transform="translate(-256.175 -65.173)" fill="#fff"/>
        <path id="Path_602" data-name="Path 602" d="M362.75,252.937h0A16.951,16.951,0,0,0,345.8,235.986h0a16.951,16.951,0,0,0,16.951-16.951h0a16.95,16.95,0,0,0,16.95,16.951h0A16.951,16.951,0,0,0,362.75,252.937Z" transform="translate(-262.996 -62.271)" fill="#fff"/>
        <path id="Path_603" data-name="Path 603" d="M415.289,135.064h0A15.883,15.883,0,0,0,399.4,119.18h0A15.883,15.883,0,0,0,415.289,103.3h0a15.885,15.885,0,0,0,15.885,15.885h0A15.885,15.885,0,0,0,415.289,135.064Z" transform="translate(-257.017 -75.179)" fill="#fcf0e3"/>
        <path id="Path_604" data-name="Path 604" d="M462.346,143.289h0a8.762,8.762,0,0,0-8.762-8.762h0a8.762,8.762,0,0,0,8.762-8.762h0a8.762,8.762,0,0,0,8.762,8.762h0A8.762,8.762,0,0,0,462.346,143.289Z" transform="translate(-250.975 -72.673)" fill="#fff"/>
      </g>
      <g id="Group_29" data-name="Group 29" transform="translate(0 28.536)">
        <path id="Path_605" data-name="Path 605" d="M231.533,115.229H133.941a18.175,18.175,0,0,0,0,36.349h80.427l11.065,10.083V151.578h6.1a18.175,18.175,0,0,0,0-36.349Z" transform="translate(-62.032 -102.384)" fill="#7a6cff"/>
        <path id="Path_606" data-name="Path 606" d="M141.475,130.349a5.762,5.762,0,1,0-7.355,0,10.68,10.68,0,0,0-7.007,10.022c0,5.9,21.369,5.9,21.369,0A10.68,10.68,0,0,0,141.475,130.349Z" transform="translate(-60.766 -101.835)" fill="#181c3a"/>
        <g id="Group_18" data-name="Group 18" transform="translate(100.236 21.504)">
          <path id="Path_607" data-name="Path 607" d="M228.088,124.131H158.158a.556.556,0,1,1,0-1.112h69.931a.556.556,0,0,1,0,1.112Z" transform="translate(-157.602 -123.019)" fill="#fff"/>
          <path id="Path_608" data-name="Path 608" d="M217.24,138.893H158.159a.556.556,0,0,1,0-1.112H217.24a.556.556,0,1,1,0,1.112Z" transform="translate(-157.602 -121.373)" fill="#fff"/>
          <path id="Path_609" data-name="Path 609" d="M201.15,131.979H158.159a.556.556,0,0,1,0-1.112H201.15a.556.556,0,0,1,0,1.112Z" transform="translate(-157.602 -122.144)" fill="#fff"/>
          <path id="Path_610" data-name="Path 610" d="M223.237,131.979H201.66a.556.556,0,1,1,0-1.112h21.577a.556.556,0,1,1,0,1.112Z" transform="translate(-152.75 -122.144)" fill="#fff"/>
        </g>
        <path id="Path_611" data-name="Path 611" d="M143.532,138.114a1.662,1.662,0,0,1-1.179-.488l-4.188-4.188a1.667,1.667,0,0,1,2.358-2.358l3.01,3.01,8.085-8.085a1.667,1.667,0,0,1,2.358,2.358l-9.265,9.265A1.666,1.666,0,0,1,143.532,138.114Z" transform="translate(-59.588 -101.237)" fill="#fff"/>
        <g id="Group_24" data-name="Group 24" transform="translate(586.119 107.492)">
          <path id="Path_612" data-name="Path 612" d="M613.379,200.38H713.505a18.646,18.646,0,1,1,0,37.292H630.989l-11.352,10.345V237.672h-6.258a18.646,18.646,0,1,1,0-37.292Z" transform="translate(-594.733 -200.38)" fill="#181c3a"/>
          <g id="Group_22" data-name="Group 22" transform="translate(102.168 5.709)">
            <g id="Group_21" data-name="Group 21">
              <g id="Group_20" data-name="Group 20">
                <path id="Path_613" data-name="Path 613" d="M701.013,215.712a5.762,5.762,0,1,0-7.356,0,10.678,10.678,0,0,0-7.007,10.022c0,5.9,21.369,5.9,21.369,0A10.677,10.677,0,0,0,701.013,215.712Z" transform="translate(-686.65 -205.516)" fill="#7a6cff"/>
                <g id="Group_19" data-name="Group 19" transform="translate(13.477 10.102)">
                  <path id="Path_614" data-name="Path 614" d="M708.436,217.905h-2.759v-2.76a.542.542,0,0,0-.542-.541h-2.519a.541.541,0,0,0-.541.541v2.76h-2.759a.541.541,0,0,0-.541.541v2.519a.541.541,0,0,0,.541.541h2.759v2.76a.542.542,0,0,0,.541.541h2.519a.542.542,0,0,0,.542-.541v-2.76h2.759a.541.541,0,0,0,.541-.541v-2.519A.541.541,0,0,0,708.436,217.905Z" transform="translate(-698.775 -214.604)" fill="#fff"/>
                </g>
              </g>
            </g>
          </g>
          <g id="Group_23" data-name="Group 23" transform="translate(22.939 10.007)">
            <path id="Path_615" data-name="Path 615" d="M685.855,210.495H615.926a.556.556,0,0,1,0-1.112h69.929a.556.556,0,1,1,0,1.112Z" transform="translate(-615.37 -209.383)" fill="#fff"/>
            <path id="Path_616" data-name="Path 616" d="M675.005,225.257h-59.08a.556.556,0,0,1,0-1.112h59.08a.556.556,0,1,1,0,1.112Z" transform="translate(-615.37 -207.737)" fill="#fff"/>
            <path id="Path_617" data-name="Path 617" d="M658.917,218.343H615.926a.556.556,0,0,1,0-1.112h42.992a.556.556,0,0,1,0,1.112Z" transform="translate(-615.37 -208.508)" fill="#fff"/>
            <path id="Path_618" data-name="Path 618" d="M681,218.343H659.427a.556.556,0,0,1,0-1.112H681a.556.556,0,1,1,0,1.112Z" transform="translate(-610.518 -208.508)" fill="#fff"/>
          </g>
        </g>
        <g id="Group_26" data-name="Group 26" transform="translate(466.059)">
          <path id="Path_619" data-name="Path 619" d="M499.565,103.673H568.54a12.845,12.845,0,1,1,0,25.69H499.565a12.845,12.845,0,0,1,0-25.69Z" transform="translate(-486.72 -103.673)" fill="#7a6cff"/>
          <g id="Group_25" data-name="Group 25" transform="translate(20.001 7.508)">
            <path id="Path_620" data-name="Path 620" d="M558.747,111.54H505.27a.556.556,0,0,1,0-1.112h53.478a.556.556,0,1,1,0,1.112Z" transform="translate(-504.714 -110.428)" fill="#fff"/>
            <path id="Path_621" data-name="Path 621" d="M550.451,120.282H505.27a.556.556,0,0,1,0-1.112h45.181a.556.556,0,1,1,0,1.112Z" transform="translate(-504.714 -109.453)" fill="#fff"/>
            <path id="Path_622" data-name="Path 622" d="M538.148,116.187H505.27a.556.556,0,1,1,0-1.112h32.878a.556.556,0,1,1,0,1.112Z" transform="translate(-504.714 -109.91)" fill="#fff"/>
            <path id="Path_623" data-name="Path 623" d="M555.037,116.187h-16.5a.556.556,0,1,1,0-1.112h16.5a.556.556,0,1,1,0,1.112Z" transform="translate(-501.004 -109.91)" fill="#fff"/>
          </g>
        </g>
        <g id="Group_28" data-name="Group 28" transform="translate(0 182.102)">
          <path id="Path_624" data-name="Path 624" d="M78.844,267.5h61.331a11.421,11.421,0,1,1,0,22.842H78.844a11.421,11.421,0,1,1,0-22.842Z" transform="translate(-67.423 -267.504)" fill="#181c3a"/>
          <g id="Group_27" data-name="Group 27" transform="translate(17.722 6.615)">
            <path id="Path_625" data-name="Path 625" d="M131.474,274.567H83.923a.556.556,0,1,1,0-1.112h47.551a.556.556,0,1,1,0,1.112Z" transform="translate(-83.367 -273.455)" fill="#fff"/>
            <path id="Path_626" data-name="Path 626" d="M124.1,282.341H83.923a.556.556,0,1,1,0-1.112H124.1a.556.556,0,1,1,0,1.112Z" transform="translate(-83.367 -272.588)" fill="#fff"/>
            <path id="Path_627" data-name="Path 627" d="M113.156,278.7H83.923a.556.556,0,1,1,0-1.112h29.233a.556.556,0,1,1,0,1.112Z" transform="translate(-83.367 -272.994)" fill="#fff"/>
            <path id="Path_628" data-name="Path 628" d="M128.175,278.7H113.5a.556.556,0,1,1,0-1.112h14.672a.556.556,0,1,1,0,1.112Z" transform="translate(-80.068 -272.994)" fill="#fff"/>
          </g>
        </g>
      </g>
      <g id="Group_32" data-name="Group 32" transform="translate(231.952 271.286)">
        <g id="Group_30" data-name="Group 30" transform="translate(123.244)">
          <path id="Path_629" data-name="Path 629" d="M496.505,323.178H387.536a.556.556,0,0,1,0-1.112H496.5a.556.556,0,0,1,0,1.112Z" transform="translate(-386.98 -322.066)" fill="#fff"/>
          <path id="Path_630" data-name="Path 630" d="M494.809,346.182H402.746a.556.556,0,0,1,0-1.112h92.063a.556.556,0,1,1,0,1.112Z" transform="translate(-385.284 -319.5)" fill="#fff"/>
          <path id="Path_631" data-name="Path 631" d="M492.294,335.408H425.3a.556.556,0,0,1,0-1.112h66.993a.556.556,0,1,1,0,1.112Z" transform="translate(-382.768 -320.702)" fill="#fff"/>
          <path id="Path_632" data-name="Path 632" d="M421.158,335.408H387.536a.556.556,0,0,1,0-1.112h33.621a.556.556,0,0,1,0,1.112Z" transform="translate(-386.98 -320.702)" fill="#fff"/>
        </g>
        <g id="Group_31" data-name="Group 31" transform="translate(0 40.56)">
          <path id="Path_633" data-name="Path 633" d="M385.627,359.668H276.659a.556.556,0,1,1,0-1.112H385.627a.556.556,0,1,1,0,1.112Z" transform="translate(-276.102 -358.556)" fill="#fff"/>
          <path id="Path_634" data-name="Path 634" d="M368.721,382.671H276.658a.556.556,0,0,1,0-1.112h92.063a.556.556,0,0,1,0,1.112Z" transform="translate(-276.102 -355.991)" fill="#fff"/>
          <path id="Path_635" data-name="Path 635" d="M343.65,371.9H276.659a.556.556,0,1,1,0-1.112H343.65a.556.556,0,1,1,0,1.112Z" transform="translate(-276.102 -357.192)" fill="#fff"/>
          <path id="Path_636" data-name="Path 636" d="M378.067,371.9H344.445a.556.556,0,1,1,0-1.112h33.623a.556.556,0,1,1,0,1.112Z" transform="translate(-268.542 -357.192)" fill="#fff"/>
        </g>
      </g>
      <g id="Group_54" data-name="Group 54" transform="translate(368.959 73.648)">
        <g id="Group_38" data-name="Group 38" transform="translate(0 17.451)">
          <g id="Group_37" data-name="Group 37">
            <g id="Group_36" data-name="Group 36">
              <g id="Group_34" data-name="Group 34">
                <path id="Path_637" data-name="Path 637" d="M454.037,278.544l.037-.127,16.093-55.984-.07-.052a20.12,20.12,0,0,1,6.438-7.133,18.633,18.633,0,0,0,7.427-12.293c3.544-3.429,7.535-6.355,11.152-9.7a2.562,2.562,0,0,0,.881-1.235,2.156,2.156,0,0,0-.458-1.608c-1.867-2.767-5.3-3.167-8.152-1.888a19.859,19.859,0,0,0-4.567,2.983c-.665.556-2.932,2.081-3.62,3.1L492,167.267c1.136-2.428.393-5.2-1.653-6.155h0a3.8,3.8,0,0,0-3.233.067,5.145,5.145,0,0,0-1.781,1.417l.062-.319c-14.992-12.607-33.491,30.3-33.491,30.3l-5.251,12.389-44.529,82.561a23.986,23.986,0,0,0,10.722,32.722h0c.175.086.351.161.528.241A24.185,24.185,0,0,0,425.5,323.74h87.633l18.884-44.88ZM479,195.012Z" transform="translate(-399.362 -159.959)" fill="#fec29e"/>
                <g id="Group_33" data-name="Group 33" transform="translate(38.113 118.459)">
                  <path id="Path_638" data-name="Path 638" d="M446.515,274.512l-2.243,7.8C445.087,279.617,445.853,276.974,446.515,274.512Z" transform="translate(-432.466 -265.642)" fill="none"/>
                  <path id="Path_639" data-name="Path 639" d="M435.2,307.292Z" transform="translate(-433.651 -261.992)" fill="#ff887c" opacity="0.17"/>
                  <path id="Path_640" data-name="Path 640" d="M435.063,307.287l.718.022Z" transform="translate(-433.493 -261.987)" fill="#ff887c" opacity="0.17"/>
                  <path id="Path_641" data-name="Path 641" d="M450.02,266.532l-2.55,8.869c-.663,2.462-1.428,5.106-2.243,7.8l-3.081,10.721a24.156,24.156,0,0,1-1.6,3.91c-2.652,7.936-4.84,14.02-4.84,14.02l31.515-45.126C459.384,266.729,457.586,266.541,450.02,266.532Z" transform="translate(-433.421 -266.532)" fill="#ff887c" opacity="0.17"/>
                  <path id="Path_642" data-name="Path 642" d="M435.049,307.287h0Z" transform="translate(-433.495 -261.987)" fill="#ff887c" opacity="0.17"/>
                </g>
                <path id="Path_643" data-name="Path 643" d="M460.055,194.186a.556.556,0,0,1-.447-.886,10.185,10.185,0,0,1,13.186-3.446.556.556,0,0,1-.545.97c-.273-.152-6.746-3.647-11.748,3.136A.552.552,0,0,1,460.055,194.186Z" transform="translate(-392.656 -156.752)" fill="#fb8e77"/>
                <path id="Path_644" data-name="Path 644" d="M478.113,162.289a85.1,85.1,0,0,0-6.366,9.157,41.35,41.35,0,0,0-2.528,4.926,12.109,12.109,0,0,0-1.19,5.174l0,.034a.556.556,0,0,1-1.11.06v-.013a13.035,13.035,0,0,1,1.379-5.649,42.453,42.453,0,0,1,2.689-4.992,85.747,85.747,0,0,1,6.614-9.12.332.332,0,0,1,.516.417Z" transform="translate(-391.828 -159.76)" fill="#fb8e77"/>
                <path id="Path_645" data-name="Path 645" d="M474.755,160.875a20.9,20.9,0,0,0-3.961,3.735,33.289,33.289,0,0,0-3.147,4.505,39.806,39.806,0,0,0-2.4,4.952c-.363.843-.634,1.724-.956,2.583l-.8,2.639-.01.032a.556.556,0,0,1-1.064-.321s0-.008,0-.01l.866-2.683c.346-.875.64-1.768,1.028-2.627a40.824,40.824,0,0,1,2.559-5.025,34.133,34.133,0,0,1,3.317-4.563,21.484,21.484,0,0,1,4.206-3.807.345.345,0,0,1,.387.571Z" transform="translate(-392.333 -159.929)" fill="#fb8e77"/>
                <path id="Path_646" data-name="Path 646" d="M469.128,161.249a53.849,53.849,0,0,0-5.82,7.192,30.694,30.694,0,0,0-2.293,3.98,16.236,16.236,0,0,0-1.4,4.269l0,.013a.555.555,0,1,1-1.1-.173.056.056,0,0,1,0-.013,17.327,17.327,0,0,1,1.605-4.533,31.753,31.753,0,0,1,2.463-4.04,54.866,54.866,0,0,1,6.091-7.156.324.324,0,0,1,.464.452Z" transform="translate(-392.767 -159.877)" fill="#fb8e77"/>
              </g>
              <g id="Group_35" data-name="Group 35" transform="translate(78.23 118.422)">
                <path id="Path_647" data-name="Path 647" d="M648.444,348.179l-21.5-58.6c-2.559-12.857-14.791-22.605-29.507-22.605l-60.047-.478-67.651.258v45.1h21L479.9,429.484l148.968.843-.835-79.652Z" transform="translate(-469.743 -266.499)" fill="#181c3a"/>
                <path id="Path_648" data-name="Path 648" d="M497.381,337.332" transform="translate(-466.661 -258.599)" fill="none" stroke="#fb8e77" stroke-linecap="round" stroke-miterlimit="10" stroke-width="1"/>
              </g>
              <path id="Path_649" data-name="Path 649" d="M537.276,267l.117-.5-67.651.258v45.1h21l.11-1.19C490.846,286.865,511.54,267.524,537.276,267Z" transform="translate(-391.513 -148.077)" fill="#1b1b25" opacity="0.05"/>
              <path id="Path_650" data-name="Path 650" d="M453.584,208.238s3.8,32.251,4.02,31.474l6.514-22.662Z" transform="translate(-393.315 -154.575)" fill="#ff887c" opacity="0.18"/>
            </g>
          </g>
        </g>
        <g id="Group_41" data-name="Group 41" transform="translate(107.364 179.746)">
          <g id="Group_39" data-name="Group 39">
            <path id="Path_651" data-name="Path 651" d="M537.532,360.613l-5.684-28.653-4.386-22.107a4.834,4.834,0,0,0-5.667-3.79l-21.959,4.357a4.834,4.834,0,0,0-3.789,5.667l4.415,22.251,3.5,17.649,2.155,10.861a4.834,4.834,0,0,0,5.667,3.79l12.969-2.573,8.99-1.783A4.836,4.836,0,0,0,537.532,360.613Z" transform="translate(-495.954 -305.97)" fill="#fff"/>
          </g>
          <g id="Group_40" data-name="Group 40" transform="translate(0.94 25.989)">
            <path id="Path_652" data-name="Path 652" d="M654.323,384.413l-9.9-43.119L599.4,346.8l2.473,10.967-.229-.057L552.7,345.6l-.042.06a16.389,16.389,0,0,1-6.12-5.625,14.648,14.648,0,0,0-11-6.3c-1.327-1.392-2.565-2.879-3.789-4.378l1.146,5.779-.287.152a18.543,18.543,0,0,1-10.132,2.105l-21.519-1.68a3.275,3.275,0,0,0-3.219,1.83c-6.3,13.24,20.747,25.355,26.918,27.916h0l.218.089.252.1.236.094c.07.029.14.058.2.079l.185.073.07.027.092.036,10.585,3.968,83.791,41.243a24.335,24.335,0,0,0,2.36.98,20.894,20.894,0,0,0,13.432,1.388h0A24.3,24.3,0,0,0,654.323,384.413Z" transform="translate(-496.8 -329.352)" fill="#fec29e"/>
            <path id="Path_653" data-name="Path 653" d="M640.837,368.76,589.1,345.051c1.728,7.524.721,4.2,2.244,10.911l3.52.87C609.765,357.839,640.837,368.76,640.837,368.76Z" transform="translate(-486.505 -327.601)" fill="#ff887c" opacity="0.17"/>
          </g>
          <path id="Path_654" data-name="Path 654" d="M586.048,348.8a.555.555,0,0,1-.542-.442l-6.464-31.309a.556.556,0,0,1,1.088-.226l6.361,30.806,21.769-2.77a.556.556,0,0,1,.141,1.1l-22.28,2.835Z" transform="translate(-486.689 -304.809)" fill="#1b1b25" opacity="0.35"/>
        </g>
        <g id="Group_42" data-name="Group 42" transform="translate(262.635 246.895)">
          <path id="Path_655" data-name="Path 655" d="M635.963,367.984l.088.442C636.042,368.383,636.014,368.242,635.963,367.984Z" transform="translate(-635.611 -366.202)" fill="#ff887c" opacity="0.17"/>
          <path id="Path_656" data-name="Path 656" d="M636.042,368.383Z" transform="translate(-635.602 -366.158)" fill="#ff887c" opacity="0.17"/>
          <path id="Path_657" data-name="Path 657" d="M635.646,366.381s.119.6.234,1.187C635.818,367.252,635.744,366.878,635.646,366.381Z" transform="translate(-635.646 -366.381)" fill="#ff887c" opacity="0.17"/>
          <path id="Path_658" data-name="Path 658" d="M635.857,367.449c.048.242.088.443.117.595C635.94,367.867,635.9,367.664,635.857,367.449Z" transform="translate(-635.622 -366.262)" fill="#ff887c" opacity="0.17"/>
        </g>
        <g id="Group_53" data-name="Group 53" transform="translate(121.163)">
          <g id="Group_44" data-name="Group 44">
            <path id="Path_659" data-name="Path 659" d="M588.831,164.524a17.708,17.708,0,0,0-26.471-12.766,15.6,15.6,0,0,0-24.189-3.1,20.584,20.584,0,0,0-22.817,33.857l-4.186,22.362a11.827,11.827,0,0,0,9.447,13.8l49.6,9.286a11.826,11.826,0,0,0,13.8-9.448l8.125-43.407A11.812,11.812,0,0,0,588.831,164.524Z" transform="translate(-508.368 -144.259)" fill="#1b1b25"/>
            <g id="Group_43" data-name="Group 43" transform="translate(4.476 9.029)">
              <path id="Path_660" data-name="Path 660" d="M516.089,175.846a.559.559,0,0,1-.47-.259c-8.86-14.021,3.344-23.012,3.468-23.1a.556.556,0,0,1,.648.9c-.472.34-11.469,8.481-3.176,21.6a.557.557,0,0,1-.172.767A.563.563,0,0,1,516.089,175.846Z" transform="translate(-512.395 -152.382)" fill="#fcf0e3"/>
            </g>
          </g>
          <g id="Group_46" data-name="Group 46" transform="translate(1.301 37.502)">
            <g id="Group_45" data-name="Group 45">
              <path id="Path_661" data-name="Path 661" d="M580.678,204.6l-1.086-.2-10.95-23.533A17.729,17.729,0,0,1,561.235,178a13.335,13.335,0,0,1-18.825.79,20.563,20.563,0,0,1-24.859,1.752l-7.626,40.742a22.442,22.442,0,0,0,2.825,15.7,22.794,22.794,0,0,0,16.039,13.7v26.906a17.043,17.043,0,0,0,16.993,16.992h5.36a17.043,17.043,0,0,0,16.993-16.992V247.037a22.706,22.706,0,0,0,5.559-11.139l1.393-7.439,1.086.2a11.944,11.944,0,0,0,13.9-9.515l.122-.652A11.942,11.942,0,0,0,580.678,204.6Z" transform="translate(-509.539 -177.998)" fill="#fec29e"/>
            </g>
            <path id="Path_662" data-name="Path 662" d="M572.244,222.547l-.995,5.306a22.554,22.554,0,0,1-26.319,18.019l-17.309-3.241a22.474,22.474,0,0,1-15.193-10.615,22.8,22.8,0,0,0,16.966,13.917l.69.129a17.029,17.029,0,0,0,15.3,9.665h5.429a17.047,17.047,0,0,0,16.532-13.137,22.713,22.713,0,0,0,6.029-11.662l1.393-7.439Z" transform="translate(-509.216 -173.03)" fill="#ff887c" opacity="0.32"/>
          </g>
          <g id="Group_52" data-name="Group 52" transform="translate(4.751 52.11)">
            <path id="Path_663" data-name="Path 663" d="M574.886,217.24a.554.554,0,0,1-.341-.117l-4.325-3.357a.557.557,0,0,1-.04-.844l5.333-5.034a.556.556,0,0,1,.761.809l-4.861,4.588,3.813,2.959a.556.556,0,0,1-.34.995Z" transform="translate(-506.245 -189.289)" fill="#fb8e77"/>
            <g id="Group_51" data-name="Group 51">
              <g id="Group_50" data-name="Group 50" transform="translate(5.174)">
                <g id="Group_49" data-name="Group 49">
                  <g id="Group_47" data-name="Group 47" transform="translate(25.656)">
                    <path id="Path_664" data-name="Path 664" d="M550.687,198.409a6.589,6.589,0,0,1-2.553-.971c-.856-.462-1.726-.906-2.5-1.264s-1.672-.742-2.575-1.1a6.562,6.562,0,0,1-2.381-1.329c-.531-.588-.427-1.515.816-2.135a7.53,7.53,0,0,1,6.15.421c2.546,1.195,3.954,3.121,4.213,4.409C552.155,197.777,551.488,198.442,550.687,198.409Z" transform="translate(-540.379 -191.14)" fill="#1b1b25"/>
                  </g>
                  <g id="Group_48" data-name="Group 48" transform="translate(0 0.918)">
                    <path id="Path_665" data-name="Path 665" d="M517.9,195.269a7.391,7.391,0,0,0,2.673.552c.968.083,1.94.189,2.78.307s1.806.282,2.761.468a7.352,7.352,0,0,0,2.715.2c.76-.17,1.16-.906.433-1.982-.677-1.043-2.643-2.349-5.431-2.745s-4.992.339-5.891,1.16C516.987,194.073,517.2,194.9,517.9,195.269Z" transform="translate(-517.298 -191.966)" fill="#1b1b25"/>
                  </g>
                </g>
              </g>
              <path id="Path_666" data-name="Path 666" d="M542.412,206.679l.074.014a1.38,1.38,0,0,0,1.6-1.1l.329-1.761a1.378,1.378,0,0,0-1.1-1.605l-.074-.014a1.379,1.379,0,0,0-1.6,1.1l-.33,1.761A1.381,1.381,0,0,0,542.412,206.679Z" transform="translate(-509.448 -189.908)" fill="#1b1b25"/>
              <path id="Path_667" data-name="Path 667" d="M520.857,203.176l.075.014a1.38,1.38,0,0,0,1.6-1.1l.329-1.761a1.378,1.378,0,0,0-1.1-1.605l-.075-.014a1.38,1.38,0,0,0-1.6,1.1l-.329,1.761A1.379,1.379,0,0,0,520.857,203.176Z" transform="translate(-511.852 -190.298)" fill="#1b1b25"/>
              <path id="Path_668" data-name="Path 668" d="M543.34,212.309l4.92.554a1.707,1.707,0,0,0,1.882-1.5l.011-.094a1.708,1.708,0,0,0-1.5-1.883l-4.919-.554a1.708,1.708,0,0,0-1.883,1.5l-.011.094A1.709,1.709,0,0,0,543.34,212.309Z" transform="translate(-509.388 -189.168)" fill="#ff887c" opacity="0.17"/>
              <path id="Path_669" data-name="Path 669" d="M514.155,207.712l4.92.554a1.709,1.709,0,0,0,1.883-1.5l.01-.094a1.708,1.708,0,0,0-1.5-1.883l-4.918-.554a1.708,1.708,0,0,0-1.883,1.5l-.01.094A1.708,1.708,0,0,0,514.155,207.712Z" transform="translate(-512.642 -189.681)" fill="#ff887c" opacity="0.17"/>
              <path id="Path_670" data-name="Path 670" d="M526.955,230.2a.556.556,0,0,1-.328-1,5.258,5.258,0,0,1,5.993-.006.556.556,0,0,1-.637.911,4.169,4.169,0,0,0-4.7-.007A.559.559,0,0,1,526.955,230.2Z" transform="translate(-511.108 -187.002)" fill="#fb8e77"/>
              <path id="Path_671" data-name="Path 671" d="M530.281,215.973l13-1.857-1.423,4.516a6.944,6.944,0,0,1-6.624,4.856h0a4.613,4.613,0,0,1-4.587-4.122Z" transform="translate(-510.675 -188.578)" fill="#fff"/>
              <path id="Path_672" data-name="Path 672" d="M534.149,213.712a.555.555,0,0,1-.14-.018l-4.03-1.049a5.67,5.67,0,0,1-3.529-8.239l6.137-11.047a.556.556,0,0,1,.973.54l-6.137,11.047a4.557,4.557,0,0,0,2.836,6.624l4.03,1.049a.555.555,0,0,1-.139,1.093Z" transform="translate(-511.182 -190.925)" fill="#fb8e77"/>
            </g>
          </g>
        </g>
      </g>
      <g id="Group_73" data-name="Group 73" transform="translate(77.029 100.795)">
        <g id="Group_58" data-name="Group 58" transform="translate(8.614)">
          <g id="Group_57" data-name="Group 57">
            <g id="Group_55" data-name="Group 55" transform="translate(149.532)">
              <path id="Path_673" data-name="Path 673" d="M372.906,296.337l-44.529-82.561-5.251-12.389s-18.5-42.91-33.491-30.3l.062.319a5.136,5.136,0,0,0-1.781-1.417,3.8,3.8,0,0,0-3.235-.066h0c-2.045.958-2.789,3.728-1.653,6.155l12.8,27.332c-.689-1.016-2.957-2.541-3.62-3.1a19.9,19.9,0,0,0-4.567-2.984c-2.854-1.277-6.285-.878-8.152,1.888a2.152,2.152,0,0,0-.458,1.608,2.568,2.568,0,0,0,.88,1.235c3.617,3.35,7.61,6.276,11.153,9.7a18.629,18.629,0,0,0,7.426,12.293,20.121,20.121,0,0,1,6.438,7.133l-.069.052L320.99,287.35l-23.554.315v44.88h52.093a24.174,24.174,0,0,0,12.141-3.253c.171-.079.345-.151.515-.233h0A23.986,23.986,0,0,0,372.906,296.337Z" transform="translate(-279.002 -168.672)" fill="#fec29e"/>
              <path id="Path_674" data-name="Path 674" d="M332.776,320.66h0s-12.106-32.567-14.184-45.322c-8.021,0-9.24.357-17.26.357Z" transform="translate(-276.511 -156.787)" fill="#ff887c" opacity="0.17"/>
              <path id="Path_675" data-name="Path 675" d="M306.638,202.992a.555.555,0,0,1-.448-.226c-5-6.783-11.475-3.288-11.748-3.135a.556.556,0,0,1-.544-.97,10.187,10.187,0,0,1,13.186,3.445.555.555,0,0,1-.117.777A.549.549,0,0,1,306.638,202.992Z" transform="translate(-277.372 -165.465)" fill="#fb8e77"/>
              <path id="Path_676" data-name="Path 676" d="M288.835,170.649a46.951,46.951,0,0,1,3.745,4.268,46.331,46.331,0,0,1,3.22,4.678,34.311,34.311,0,0,1,2.491,5.14,21.919,21.919,0,0,1,1.25,5.631.556.556,0,0,1-1.108.088v-.031a20.855,20.855,0,0,0-1.082-5.35,33.26,33.26,0,0,0-2.316-5.03,45.568,45.568,0,0,0-3.069-4.654,46.211,46.211,0,0,0-3.594-4.266l-.008-.008a.331.331,0,0,1,.009-.468A.328.328,0,0,1,288.835,170.649Z" transform="translate(-277.968 -168.473)" fill="#fb8e77"/>
              <path id="Path_677" data-name="Path 677" d="M292.209,168.72a14.663,14.663,0,0,1,4.384,3.8,30.128,30.128,0,0,1,3.2,4.762,49.1,49.1,0,0,1,2.462,5.163l1.011,2.672.9,2.71a.556.556,0,1,1-1.055.35s0,0,0-.007l-.008-.024-.834-2.684-.945-2.645a48.141,48.141,0,0,0-2.318-5.1,29.319,29.319,0,0,0-3.021-4.691,14.114,14.114,0,0,0-4.036-3.666l-.052-.029a.343.343,0,0,1-.139-.465A.34.34,0,0,1,292.209,168.72Z" transform="translate(-277.585 -168.682)" fill="#fb8e77"/>
              <path id="Path_678" data-name="Path 678" d="M297.705,169.57a27.619,27.619,0,0,1,3.395,3.309,31.853,31.853,0,0,1,2.856,3.773,30.04,30.04,0,0,1,2.288,4.154,31.1,31.1,0,0,1,1.64,4.465.556.556,0,1,1-1.065.32l0-.01-.008-.028a30.1,30.1,0,0,0-1.475-4.344,29.273,29.273,0,0,0-2.12-4.085,30.936,30.936,0,0,0-2.693-3.747,26.963,26.963,0,0,0-3.212-3.295l-.014-.012a.325.325,0,0,1,.413-.5Z" transform="translate(-276.975 -168.591)" fill="#fb8e77"/>
              <path id="Path_679" data-name="Path 679" d="M300.463,222.33l17.208-2.124L307.03,241.372S303.863,225.632,300.463,222.33Z" transform="translate(-276.608 -162.935)" fill="#ff887c" opacity="0.18"/>
            </g>
            <g id="Group_56" data-name="Group 56" transform="translate(0 118.773)">
              <path id="Path_680" data-name="Path 680" d="M248.712,275.758l0,.02c-.266-.007-.529-.02-.8-.02H193.546a27.611,27.611,0,0,0-25.82,17.834l-.006,0-.083.226-.04.109-23.124,63.036,21.467,2.625v70H282.777l8.737-108.952h20.324v-45.1Z" transform="translate(-144.473 -275.537)" fill="#7a6cff"/>
              <path id="Path_681" data-name="Path 681" d="M301.815,275.538l-62.071.259v.008a43.685,43.685,0,0,1,41.842,43.643l-.1,1.19h20.324Z" transform="translate(-133.848 -275.537)" fill="#1b1b25" opacity="0.05"/>
              <path id="Path_682" data-name="Path 682" d="M278.149,346.139" transform="translate(-129.565 -267.663)" fill="none" stroke="#fb8e77" stroke-linecap="round" stroke-miterlimit="10" stroke-width="1"/>
            </g>
          </g>
        </g>
        <g id="Group_61" data-name="Group 61" transform="translate(0 162.388)">
          <path id="Path_683" data-name="Path 683" d="M279.875,319.224l-21.959-4.356a4.835,4.835,0,0,0-5.667,3.789l-4.386,22.108-5.684,28.652a4.836,4.836,0,0,0,3.79,5.668l8.989,1.783,12.969,2.572a4.834,4.834,0,0,0,5.667-3.789l2.154-10.862,3.5-17.648,4.415-22.251A4.833,4.833,0,0,0,279.875,319.224Z" transform="translate(-124.973 -314.776)" fill="#1b1b25"/>
          <g id="Group_60" data-name="Group 60" transform="translate(0 9.293)">
            <path id="Path_684" data-name="Path 684" d="M293.927,346.121a3.189,3.189,0,0,0-1.229-1.35c-.093-.138-.169-.276-.27-.415l-.526.067a3.333,3.333,0,0,0-1.195-.132l-21.519,1.68a18.533,18.533,0,0,1-10.132-2.105l-.519-.276,1.077-5.431c-1.162,1.424-2.34,2.83-3.592,4.159a15.029,15.029,0,0,0-7.646,2.883,13.817,13.817,0,0,0-3.547,3.636,17.586,17.586,0,0,1-3.979,4.274,13.64,13.64,0,0,1-1.84,1.128l-.042-.06L190.023,366.3l-.225.056,2.484-11.02-45.035-5.456-9.9,43.119a24.3,24.3,0,0,0,18.248,29.126h0a20.9,20.9,0,0,0,13.432-1.388,24.341,24.341,0,0,0,2.36-.98l82.845-40.779,11.23-4.209s.455-.173,1.249-.5l-.165-.032C271.668,372.141,300.4,359.724,293.927,346.121Z" transform="translate(-136.723 -321.462)" fill="#fec29e"/>
            <g id="Group_59" data-name="Group 59" transform="translate(3.07 34.094)">
              <path id="Path_685" data-name="Path 685" d="M139.583,376.756c-.047.236-.076.379-.089.446C139.511,377.121,139.542,376.961,139.583,376.756Z" transform="translate(-139.484 -351.251)" fill="#ff887c" opacity="0.17"/>
              <path id="Path_686" data-name="Path 686" d="M189.368,364.774c1.015-4.666.72-4.264,2.26-10.964l-51.744,23.762s5.129-1.544,12.2-3.42c.657-.24,1.326-.461,2.016-.647Z" transform="translate(-139.441 -353.81)" fill="#ff887c" opacity="0.17"/>
              <path id="Path_687" data-name="Path 687" d="M139.7,376.184l-.126.636Q139.622,376.575,139.7,376.184Z" transform="translate(-139.475 -351.315)" fill="#ff887c" opacity="0.17"/>
              <path id="Path_688" data-name="Path 688" d="M139.495,377.157c-.013.066-.013.069,0,0Z" transform="translate(-139.485 -351.206)" fill="#ff887c" opacity="0.17"/>
              <path id="Path_689" data-name="Path 689" d="M139.906,375.188c-.09.456-.159.8-.219,1.107Z" transform="translate(-139.462 -351.426)" fill="#ff887c" opacity="0.17"/>
            </g>
            <path id="Path_690" data-name="Path 690" d="M191.228,357.787a.475.475,0,0,1-.069,0l-9.824-1.213a.556.556,0,0,1,.136-1.1l9.29,1.146,5.172-33.006a.556.556,0,0,1,1.1.171l-5.256,33.538A.556.556,0,0,1,191.228,357.787Z" transform="translate(-131.802 -323.137)" fill="#1b1b25" opacity="0.35"/>
          </g>
          <path id="Path_691" data-name="Path 691" d="M200.511,360.307l22.182-.556c4.138.544,10.725-3.189,9.959-7.293h0Z" transform="translate(-129.609 -310.573)" fill="#ff887c" opacity="0.08"/>
        </g>
        <g id="Group_72" data-name="Group 72" transform="translate(33.421 3.715)">
          <g id="Group_62" data-name="Group 62">
            <path id="Path_692" data-name="Path 692" d="M274.249,273.1l-7.544-51.34a56.73,56.73,0,0,0-4.752-15.825l4.1-.658s-2.876-41.671-49.612-31.722a56.922,56.922,0,0,0-14.129.307h0a41.553,41.553,0,0,0-35.071,47.151l4.4,29.928a41.552,41.552,0,0,0,47.151,35.071l51.485-7.565A4.711,4.711,0,0,0,274.249,273.1Z" transform="translate(-166.791 -172.024)" fill="#1b1b25"/>
            <path id="Path_693" data-name="Path 693" d="M235.63,202.938a.555.555,0,0,1-.074-1.106l15.029-2.053a.448.448,0,0,0,.3-.181.415.415,0,0,0,.076-.318c-2.43-13.547-14.91-19.8-15.036-19.859a.556.556,0,0,1,.488-1c.131.063,13.109,6.547,15.641,20.66a1.513,1.513,0,0,1-.271,1.167,1.561,1.561,0,0,1-1.05.629L235.7,202.933A.422.422,0,0,1,235.63,202.938Z" transform="translate(-159.176 -171.317)" fill="#fcf0e3"/>
          </g>
          <g id="Group_64" data-name="Group 64" transform="translate(19.22 26.437)">
            <g id="Group_63" data-name="Group 63">
              <path id="Path_694" data-name="Path 694" d="M255.794,203.965l-41.14,6.61-9.985-14.768c1.962,16.477-10.188,27.119-10.188,27.119s-.124-.17-.34-.482l-.341.064a11.944,11.944,0,0,0-9.515,13.9h0a11.944,11.944,0,0,0,13.9,9.515l.786-.147a30.636,30.636,0,0,0,8.9,15.583v26.367a17.044,17.044,0,0,0,16.993,16.993h0a17.044,17.044,0,0,0,16.993-16.993V266.9a30.84,30.84,0,0,0,15.094-15.136c.006-.01.012-.02.019-.03a30.39,30.39,0,0,0,3.791-21.237Z" transform="translate(-184.082 -195.808)" fill="#fec29e"/>
            </g>
            <path id="Path_695" data-name="Path 695" d="M234.891,261.123h0a30.514,30.514,0,0,1-34.622-20.529c-.153-.471-2.838.145-2.77.435a30.632,30.632,0,0,0,8.956,15.427,17.046,17.046,0,0,0,16.913,15.428h0a17.029,17.029,0,0,0,15.052-9.156,30.809,30.809,0,0,0,17.053-15.969A30.431,30.431,0,0,1,234.891,261.123Z" transform="translate(-182.586 -190.832)" fill="#ff887c" opacity="0.32"/>
          </g>
          <g id="Group_71" data-name="Group 71" transform="translate(26.154 40.133)">
            <path id="Path_696" data-name="Path 696" d="M191.859,234.795a.556.556,0,0,1-.342-.995l3.7-2.868L190.5,226.48a.556.556,0,0,1,.763-.809l5.189,4.9a.556.556,0,0,1-.041.844l-4.208,3.266A.54.54,0,0,1,191.859,234.795Z" transform="translate(-190.321 -206.191)" fill="#fb8e77"/>
            <g id="Group_70" data-name="Group 70" transform="translate(28.654)">
              <g id="Group_69" data-name="Group 69">
                <g id="Group_68" data-name="Group 68" transform="translate(1.745)">
                  <g id="Group_67" data-name="Group 67">
                    <g id="Group_65" data-name="Group 65" transform="translate(0 4.025)">
                      <path id="Path_697" data-name="Path 697" d="M218.409,216.067a3.906,3.906,0,0,0,1.516-.577c.508-.275,1.024-.538,1.482-.75s.991-.44,1.528-.652a3.881,3.881,0,0,0,1.413-.789c.316-.349.253-.9-.485-1.268a4.477,4.477,0,0,0-3.651.25,4.341,4.341,0,0,0-2.5,2.618C217.539,215.691,217.935,216.086,218.409,216.067Z" transform="translate(-217.67 -211.752)" fill="#1b1b25"/>
                    </g>
                    <g id="Group_66" data-name="Group 66" transform="translate(23.431)">
                      <path id="Path_698" data-name="Path 698" d="M245.544,211.342a3.9,3.9,0,0,1-1.616-.136c-.564-.123-1.134-.233-1.632-.311s-1.075-.149-1.65-.2a3.881,3.881,0,0,1-1.576-.368c-.4-.249-.492-.795.116-1.353a4.475,4.475,0,0,1,3.578-.769,4.337,4.337,0,0,1,3.127,1.824C246.277,210.741,246.006,211.229,245.544,211.342Z" transform="translate(-238.75 -208.13)" fill="#1b1b25"/>
                    </g>
                  </g>
                </g>
                <path id="Path_699" data-name="Path 699" d="M230.656,236.778a10.952,10.952,0,0,1-7.641-3.625.556.556,0,0,1,.854-.712c.177.211,4.395,5.137,10.287,2.418a.556.556,0,0,1,.466,1.01A9.369,9.369,0,0,1,230.656,236.778Z" transform="translate(-215.344 -205.441)" fill="#fb8e77"/>
                <path id="Path_700" data-name="Path 700" d="M232.917,231.036a.555.555,0,0,1-.107-1.1l3.909-.769a4.494,4.494,0,0,0,3.538-5.272,1.625,1.625,0,0,0-1.9-1.278,3.8,3.8,0,0,1-4.457-2.991l-.944-4.794a.556.556,0,0,1,1.09-.215l.944,4.794a2.687,2.687,0,0,0,3.151,2.115,2.733,2.733,0,0,1,3.209,2.154,5.608,5.608,0,0,1-4.414,6.578l-3.909.769A.679.679,0,0,1,232.917,231.036Z" transform="translate(-214.287 -207.457)" fill="#fb8e77"/>
                <path id="Path_701" data-name="Path 701" d="M223.093,224.509h0a1.38,1.38,0,0,1-1.605-1.1l-.307-1.64a1.38,1.38,0,0,1,1.1-1.605h0a1.379,1.379,0,0,1,1.605,1.1l.307,1.641A1.38,1.38,0,0,1,223.093,224.509Z" transform="translate(-215.536 -206.791)" fill="#1b1b25"/>
                <path id="Path_702" data-name="Path 702" d="M244.063,221.1h0a1.38,1.38,0,0,1-1.605-1.1l-.307-1.641a1.38,1.38,0,0,1,1.1-1.605h0a1.38,1.38,0,0,1,1.605,1.1l.307,1.64A1.378,1.378,0,0,1,244.063,221.1Z" transform="translate(-213.198 -207.171)" fill="#1b1b25"/>
                <path id="Path_703" data-name="Path 703" d="M222.687,229.986l-4.693.528a1.708,1.708,0,0,1-1.883-1.5h0a1.708,1.708,0,0,1,1.5-1.883l4.694-.528a1.709,1.709,0,0,1,1.883,1.5h0A1.71,1.71,0,0,1,222.687,229.986Z" transform="translate(-216.1 -206.072)" fill="#ff887c" opacity="0.17"/>
                <path id="Path_704" data-name="Path 704" d="M251.079,225.513l-4.693.528a1.708,1.708,0,0,1-1.883-1.5h0a1.709,1.709,0,0,1,1.5-1.883l4.694-.528a1.709,1.709,0,0,1,1.883,1.5h0A1.71,1.71,0,0,1,251.079,225.513Z" transform="translate(-212.934 -206.571)" fill="#ff887c" opacity="0.17"/>
                <path id="Path_705" data-name="Path 705" d="M238.49,247.4a.55.55,0,0,1-.327-.107,4.043,4.043,0,0,0-4.554.007.556.556,0,0,1-.638-.91,5.129,5.129,0,0,1,5.848.006.556.556,0,0,1-.329,1Z" transform="translate(-214.245 -203.966)" fill="#fb8e77"/>
              </g>
            </g>
          </g>
        </g>
      </g>
    </g>
  </g>
</svg>
