<?xml version="1.0" encoding="utf-8"?>
<!-- Generator: Adobe Illustrator 16.0.0, SVG Export Plug-In . SVG Version: 6.00 Build 0)  -->
<!DOCTYPE svg PUBLIC "-//W3C//DTD SVG 1.1//EN" "http://www.w3.org/Graphics/SVG/1.1/DTD/svg11.dtd">
<svg version="1.1" id="Layer_1" xmlns="http://www.w3.org/2000/svg" xmlns:xlink="http://www.w3.org/1999/xlink" x="0px" y="0px"
	 width="145.453px" height="40px" viewBox="0 0 145.453 40" enable-background="new 0 0 145.453 40" xml:space="preserve">
<g id="Group_3562" transform="translate(-620.548 -942)">
	<path id="Path_1" fill="#BBBBCF" d="M640.548,942c-11.046,0-20,8.954-20,20s8.954,20,20,20s20-8.954,20-20l0,0
		c0.032-11.013-8.87-19.967-19.883-20H640.548z M640.906,962.385L639.242,968h8.9c0.248-0.008,0.456,0.186,0.464,0.434l0,0v0.146
		l-0.774,2.67c-0.07,0.26-0.311,0.438-0.58,0.426h-13.621l2.283-7.777l-2.554,0.773l0.581-1.779l2.554-0.774l3.212-10.918
		c0.072-0.259,0.312-0.435,0.581-0.426h3.444c0.248-0.008,0.455,0.186,0.464,0.433l0,0v0.147l-2.709,9.211l2.554-0.774l-0.543,1.859
		L640.906,962.385z"/>
	<g enable-background="new    ">
		<path fill="#BBBBCF" d="M674.758,950.76V970h-2.964v-19.24H674.758z"/>
		<path fill="#BBBBCF" d="M678.45,950.266c0.347-0.329,0.806-0.493,1.378-0.493c0.572,0,1.036,0.164,1.391,0.493
			c0.355,0.33,0.533,0.746,0.533,1.248c0,0.503-0.178,0.91-0.533,1.223c-0.355,0.312-0.819,0.468-1.391,0.468
			c-0.572,0-1.031-0.156-1.378-0.468c-0.347-0.313-0.52-0.72-0.52-1.223C677.93,951.012,678.103,950.596,678.45,950.266z
			 M681.31,955.674V970h-2.964v-14.326H681.31z"/>
		<path fill="#BBBBCF" d="M692.1,967.426V970h-1.82c-1.525,0-2.682-0.368-3.471-1.105c-0.789-0.736-1.183-1.963-1.183-3.679v-7.02
			h-2.054v-2.522h2.054v-3.562h2.99v3.562h3.458v2.522h-3.458v7.071c0,0.815,0.151,1.379,0.455,1.69s0.836,0.468,1.599,0.468H692.1z
			"/>
		<path fill="#BBBBCF" d="M708.089,963.422h-11.024c0.053,1.474,0.459,2.565,1.223,3.276c0.762,0.711,1.707,1.065,2.834,1.065
			c0.988,0,1.824-0.251,2.509-0.754c0.685-0.502,1.104-1.17,1.261-2.002h3.172c-0.19,1.006-0.589,1.898-1.195,2.678
			c-0.607,0.78-1.396,1.392-2.366,1.833c-0.972,0.442-2.054,0.663-3.25,0.663c-1.388,0-2.613-0.294-3.679-0.884
			c-1.066-0.589-1.902-1.438-2.51-2.548c-0.606-1.109-0.91-2.418-0.91-3.926c0-1.491,0.304-2.791,0.91-3.9
			c0.607-1.109,1.443-1.958,2.51-2.548c1.065-0.589,2.291-0.884,3.679-0.884c1.403,0,2.63,0.29,3.679,0.871s1.855,1.378,2.418,2.392
			c0.563,1.014,0.846,2.146,0.846,3.394C708.194,962.634,708.159,963.058,708.089,963.422z M704.722,959.717
			c-0.355-0.633-0.841-1.101-1.456-1.403c-0.615-0.304-1.287-0.455-2.015-0.455c-1.161,0-2.132,0.355-2.912,1.065
			c-0.78,0.711-1.205,1.76-1.274,3.146h8.139C705.238,961.134,705.078,960.35,704.722,959.717z"/>
		<path fill="#BBBBCF" d="M722.026,956.961c1.213,0.979,1.967,2.31,2.262,3.991h-3.146c-0.174-0.901-0.594-1.607-1.261-2.119
			c-0.667-0.511-1.504-0.767-2.509-0.767c-1.145,0-2.098,0.402-2.86,1.209c-0.763,0.806-1.144,1.988-1.144,3.549
			c0,1.56,0.381,2.747,1.144,3.562c0.763,0.815,1.716,1.223,2.86,1.223c1.005,0,1.842-0.261,2.509-0.78
			c0.667-0.521,1.087-1.23,1.261-2.132h3.146c-0.295,1.682-1.049,3.016-2.262,4.004c-1.214,0.988-2.748,1.481-4.603,1.481
			c-1.388,0-2.613-0.294-3.679-0.884c-1.066-0.589-1.902-1.438-2.51-2.548c-0.606-1.109-0.91-2.418-0.91-3.926
			c0-1.491,0.304-2.791,0.91-3.9c0.607-1.109,1.443-1.958,2.51-2.548c1.065-0.589,2.291-0.884,3.679-0.884
			C719.278,955.492,720.812,955.982,722.026,956.961z"/>
		<path fill="#BBBBCF" d="M737.443,956.376c1.109,0.59,1.976,1.438,2.601,2.548c0.623,1.109,0.936,2.409,0.936,3.9
			c0,1.508-0.313,2.816-0.936,3.926c-0.625,1.109-1.491,1.959-2.601,2.548c-1.109,0.59-2.357,0.884-3.743,0.884
			c-1.388,0-2.631-0.294-3.731-0.884c-1.101-0.589-1.968-1.442-2.601-2.561s-0.949-2.423-0.949-3.913c0-1.491,0.316-2.791,0.949-3.9
			s1.5-1.958,2.601-2.548c1.101-0.589,2.344-0.884,3.731-0.884C735.086,955.492,736.334,955.787,737.443,956.376z M731.593,958.586
			c-0.642,0.347-1.157,0.88-1.548,1.599c-0.389,0.72-0.584,1.6-0.584,2.64c0,1.058,0.195,1.941,0.584,2.651
			c0.391,0.711,0.906,1.24,1.548,1.586c0.641,0.348,1.343,0.521,2.106,0.521c0.762,0,1.464-0.173,2.105-0.521
			c0.641-0.346,1.156-0.875,1.547-1.586c0.391-0.71,0.585-1.594,0.585-2.651c0-1.04-0.194-1.92-0.585-2.64
			c-0.391-0.719-0.906-1.252-1.547-1.599c-0.642-0.347-1.344-0.52-2.105-0.52C732.936,958.066,732.234,958.239,731.593,958.586z"/>
		<path fill="#BBBBCF" d="M743.943,950.266c0.347-0.329,0.806-0.493,1.378-0.493s1.035,0.164,1.391,0.493
			c0.355,0.33,0.533,0.746,0.533,1.248c0,0.503-0.178,0.91-0.533,1.223c-0.355,0.312-0.818,0.468-1.391,0.468
			s-1.031-0.156-1.378-0.468c-0.347-0.313-0.521-0.72-0.521-1.223C743.422,951.012,743.596,950.596,743.943,950.266z
			 M746.803,955.674V970h-2.965v-14.326H746.803z"/>
		<path fill="#BBBBCF" d="M762.403,957.052c1.006,1.075,1.508,2.609,1.508,4.603V970h-2.963v-8.034c0-1.282-0.33-2.274-0.988-2.977
			c-0.659-0.702-1.561-1.054-2.704-1.054c-1.179,0-2.124,0.378-2.834,1.132c-0.711,0.754-1.066,1.858-1.066,3.314V970h-2.964
			v-14.326h2.964v3.146c0.382-1.075,1.022-1.907,1.925-2.496c0.9-0.589,1.94-0.884,3.119-0.884
			C760.063,955.44,761.397,955.978,762.403,957.052z"/>
	</g>
</g>
</svg>
