<svg xmlns="http://www.w3.org/2000/svg" viewBox="0 0 579.479 416.054">
  <g id="Account-amico_1_" data-name="Account-amico(1)" transform="translate(-21.464 -50.039)">
    <g id="freepik--Shadows--inject-2" transform="translate(113.926 370.149)">
      <path id="freepik--Shadow--inject-2" d="M376.436,355.481c6.106,3.523,18.092,2.307,26.768-2.708l50.05-29.075c8.688-5.015,10.77-11.936,4.664-15.471s-18.079-2.282-26.768,2.733l-50.025,29.1C372.436,345.038,370.343,351.958,376.436,355.481Z" transform="translate(-24.081 -305.143)" fill="#ebebeb"/>
      <path id="freepik--shadow--inject-2-2" data-name="freepik--shadow--inject-2" d="M145.618,378.8,94.69,349.4,145.618,320Z" transform="translate(-94.69 -301.645)" fill="#ebebeb"/>
      <path id="freepik--shadow--inject-2-3" data-name="freepik--shadow--inject-2" d="M266.733,400.106,184.65,352.689l82.1-47.329Z" transform="translate(-71.862 -305.36)" fill="#ebebeb"/>
    </g>
    <g id="freepik--Plants--inject-2" transform="translate(21.464 270.365)">
      <g id="freepik--plants--inject-2-2" data-name="freepik--plants--inject-2" transform="translate(0 32.283)">
        <path id="Path_2651" data-name="Path 2651" d="M95.438,327.435c.15-11.911-8.174-36.7-20.348-52.307s-31.507-27.156-45.3-22.605c-12.914,4.25-11.723,21.126,3.761,32.5s38.741,25.689,45.373,45.135l14.1,23.821Z" transform="translate(-20.942 -251.521)" fill="#8880f7"/>
        <path id="Path_2652" data-name="Path 2652" d="M95.438,327.435c.15-11.911-8.174-36.7-20.348-52.307s-31.507-27.156-45.3-22.605c-12.914,4.25-11.723,21.126,3.761,32.5s38.741,25.689,45.373,45.135l14.1,23.821Z" transform="translate(-20.942 -251.521)" opacity="0.1"/>
        <path id="Path_2653" data-name="Path 2653" d="M93.259,342.118a.865.865,0,0,1-.777-.715c-7.523-40.76-39.995-74.21-59.591-81.745a.878.878,0,1,1,.627-1.63c19.972,7.686,53.071,41.687,60.669,83.061a.865.865,0,0,1-.69,1.016Z" transform="translate(-18.074 -249.893)" fill="#fff"/>
        <path id="Path_2654" data-name="Path 2654" d="M88.294,359.3c-1.83-6.72-9.88-17.866-22.994-27.156C50.782,321.874,32.326,317.009,28.151,309.1c-5.015-9.5,3.047-18.33,18.054-16.3s41.186,22.894,45.047,53.811Z" transform="translate(-19.49 -241.121)" fill="#8880f7"/>
        <path id="Path_2655" data-name="Path 2655" d="M88.788,350.641a.878.878,0,0,1-.752-.577c-12.049-34.992-38.478-47.542-50.765-49.285a.867.867,0,1,1,.238-1.718c13.591,1.931,39.882,14.719,52.181,50.426a.89.89,0,0,1-.539,1.116.928.928,0,0,1-.364.038Z" transform="translate(-16.988 -239.459)" fill="#fff"/>
      </g>
      <g id="freepik--plants--inject-2-3" data-name="freepik--plants--inject-2" transform="translate(509.437)">
        <path id="Path_2656" data-name="Path 2656" d="M436.8,300.029s1.667-25.075,16.462-43.756,13.892-26.329,3.686-30.09-33.851,18.744-28.636,48.771S436.8,300.029,436.8,300.029Z" transform="translate(-427.196 -225.772)" fill="#8880f7"/>
        <path id="Path_2657" data-name="Path 2657" d="M436.8,300.029s1.667-25.075,16.462-43.756,13.892-26.329,3.686-30.09-33.851,18.744-28.636,48.771S436.8,300.029,436.8,300.029Z" transform="translate(-427.196 -225.772)" opacity="0.1"/>
        <path id="Path_2658" data-name="Path 2658" d="M431.461,284.943a.589.589,0,0,1-.589-.539c-1.718-27.658,17.8-50.351,25.075-55.491a.564.564,0,0,1,.8.138.589.589,0,0,1-.138.815c-7.171,5.015-26.329,27.294-24.624,54.463a.589.589,0,0,1-.539.614Z" transform="translate(-426.384 -225.003)" fill="#fff"/>
        <path id="Path_2659" data-name="Path 2659" d="M432.849,312.612a132.109,132.109,0,0,0,20.411,4.915c11.459,1.805,16.524-3.674,16.524-3.674s-4.513-10.745-11.021-13.791a64.079,64.079,0,0,1,19.885,8.162s7,.113,9.779-10.569c0,0-4.137-6.432-18.054-9.9,0,0,8.463-2.131,20.662.978.915.364,4.814-13.44,5.993-19.809s-1.379-6.269-6.344-7.635-21.427-5.015-24.536-2.294-4.689,12.074-4.689,12.074A22.041,22.041,0,0,1,461,259.227s-4.463-1.743-11.409.276c-5.667,1.642-5.943,5.5-5.692,9.867a42.463,42.463,0,0,0,2.508,11.083s-4.426-5.667-4.564-17.966c0,0-11.61,5.767-13.591,17.3C427.094,286.045,425.565,304.387,432.849,312.612Z" transform="translate(-427.271 -217.592)" fill="#8880f7"/>
        <path id="Path_2660" data-name="Path 2660" d="M433.59,309.006a.664.664,0,0,0,.589-.364c9.24-19.22,43.631-41.549,55.942-43.944a.639.639,0,0,0,.514-.752.665.665,0,0,0-.765-.514c-12.538,2.445-47.467,25.075-56.858,44.646a.652.652,0,0,0,.3.865A.741.741,0,0,0,433.59,309.006Z" transform="translate(-425.83 -216.218)" fill="#fff"/>
      </g>
    </g>
    <g id="freepik--computer-screen--inject-2" transform="translate(88.462 50.039)">
      <path id="Path_2661" data-name="Path 2661" d="M77.239,426.357c-1.417,0-2.269-1.166-2.269-3.134V212.329L333.281,63.22V273.261a11.2,11.2,0,0,1-5.015,8.776L79.3,425.718A4.175,4.175,0,0,1,77.239,426.357Z" transform="translate(-74.23 -46.694)" fill="#fafafa"/>
      <path id="Path_2662" data-name="Path 2662" d="M332.653,64.745V273.52a10.594,10.594,0,0,1-4.7,8.137L79.082,425.337a3.472,3.472,0,0,1-1.693.552c-1.392,0-1.542-1.693-1.542-2.407V213.014L332.653,64.745m1.467-2.508L74.38,212.162v211.32c0,2.508,1.254,3.874,3.009,3.874a4.914,4.914,0,0,0,2.42-.74L328.692,282.923a12.011,12.011,0,0,0,5.429-9.4V62.2Z" transform="translate(-74.38 -46.953)" fill="#e0e0e0"/>
      <path id="Path_2663" data-name="Path 2663" d="M74.39,212.162v35.293L334.118,97.493V62.2Z" transform="translate(-74.377 -46.953)" fill="#181c3a"/>
      <path id="Path_2664" data-name="Path 2664" d="M90.63,193.211v5.015c0,1.028.74,1.454,1.63.94l79.852-46.1V144.29l-79.852,46.1a3.648,3.648,0,0,0-1.63,2.821Z" transform="translate(-70.257 -26.123)" fill="#fafafa"/>
      <path id="Path_2665" data-name="Path 2665" d="M164.183,140.4c.9-.527,1.63-.1,1.63.94v5.015a3.623,3.623,0,0,1-1.63,2.821l-8.563,4.94v-8.776Z" transform="translate(-53.765 -27.168)" fill="#455a64"/>
      <path id="Path_2666" data-name="Path 2666" d="M74.38,203.876a12.011,12.011,0,0,1,5.429-9.4L328.692,50.78c3-1.73,5.429-.326,5.429,3.134V65.286L74.38,215.247Z" transform="translate(-74.38 -50.039)" fill="#8880f7"/>
      <path id="Path_2667" data-name="Path 2667" d="M259.028,66.211a5.6,5.6,0,0,0-2.508,4.4c0,1.63,1.141,2.282,2.508,1.479a5.629,5.629,0,0,0,2.508-4.413C261.585,66.036,260.444,65.4,259.028,66.211Z" transform="translate(-28.161 -46.025)" fill="#181c3a"/>
      <path id="Path_2668" data-name="Path 2668" d="M265.508,62.491a5.6,5.6,0,0,0-2.508,4.4c0,1.63,1.141,2.282,2.508,1.479a5.654,5.654,0,0,0,2.508-4.413C268.015,62.328,266.862,61.676,265.508,62.491Z" transform="translate(-26.517 -46.968)" fill="#181c3a"/>
      <path id="Path_2669" data-name="Path 2669" d="M271.9,58.771a5.6,5.6,0,0,0-2.508,4.4c0,1.63,1.141,2.282,2.508,1.479a5.654,5.654,0,0,0,2.508-4.413C274.443,58.608,273.3,57.956,271.9,58.771Z" transform="translate(-24.895 -47.912)" fill="#181c3a"/>
      <g id="Group_3261" data-name="Group 3261" transform="translate(147.228 43.32)" opacity="0.1">
        <path id="Path_2670" data-name="Path 2670" d="M217.674,108.823a12.312,12.312,0,0,0-5.554,9.654c0,3.548,2.508,5.015,5.554,3.21a12.287,12.287,0,0,0,5.567-9.641C223.253,108.5,220.746,107.055,217.674,108.823Z" transform="translate(-186.656 -78.634)" fill="#8880f7"/>
        <path id="Path_2671" data-name="Path 2671" d="M197.377,120.552a12.287,12.287,0,0,0-5.567,9.641c0,3.548,2.507,5.015,5.567,3.222a12.312,12.312,0,0,0,5.554-9.654C202.931,120.214,200.448,118.8,197.377,120.552Z" transform="translate(-191.81 -75.657)" fill="#8880f7"/>
        <path id="Path_2672" data-name="Path 2672" d="M237.984,97.162a12.287,12.287,0,0,0-5.554,9.641c0,3.548,2.508,5.015,5.554,3.21a12.274,12.274,0,0,0,5.567-9.641C243.551,96.761,241.068,95.319,237.984,97.162Z" transform="translate(-181.503 -81.605)" fill="#8880f7"/>
        <path id="Path_2673" data-name="Path 2673" d="M258.307,85.354A12.287,12.287,0,0,0,252.74,95c0,3.548,2.508,5.015,5.567,3.21a12.287,12.287,0,0,0,5.567-9.641C263.873,85.016,261.378,83.574,258.307,85.354Z" transform="translate(-176.349 -84.591)" fill="#8880f7"/>
      </g>
      <path id="Path_2674" data-name="Path 2674" d="M96.1,219.364l60.443-34.9c3-1.73,5.429-.326,5.429,3.134v58.036a12.011,12.011,0,0,1-5.429,9.4L96.1,289.926c-3,1.73-5.429.326-5.429-3.134V228.768a12.011,12.011,0,0,1,5.429-9.4Z" transform="translate(-70.246 -16.117)" fill="#e0e0e0"/>
      <path id="Path_2675" data-name="Path 2675" d="M165.1,187.22l126.629-73.069c3-1.743,5.429-.339,5.429,3.134V175.31a12.011,12.011,0,0,1-5.429,9.4L165.1,257.782c-3,1.73-5.429.326-5.429-3.134V196.623a12.011,12.011,0,0,1,5.429-9.4Z" transform="translate(-52.737 -33.96)" fill="#e0e0e0"/>
      <path id="Path_2676" data-name="Path 2676" d="M96.1,293.887l96.088-55.479c3.009-1.73,5.441-.5,5.441,2.746a11.647,11.647,0,0,1-5.429,9.015L96.1,305.648c-3,1.73-5.429.5-5.429-2.746a11.647,11.647,0,0,1,5.429-9.014Z" transform="translate(-70.246 -2.439)" fill="#e0e0e0"/>
      <path id="Path_2677" data-name="Path 2677" d="M96.1,310.307l96.088-55.479c3.009-1.73,5.441-.5,5.441,2.746a11.647,11.647,0,0,1-5.429,9.015L96.1,322.068c-3,1.73-5.429.5-5.429-2.746a11.647,11.647,0,0,1,5.429-9.014Z" transform="translate(-70.246 1.728)" fill="#e0e0e0"/>
      <path id="Path_2678" data-name="Path 2678" d="M96.1,326.717l96.088-55.479c3.009-1.73,5.441-.5,5.441,2.746A11.647,11.647,0,0,1,192.2,283L96.1,338.478c-3,1.73-5.429.5-5.429-2.746a11.647,11.647,0,0,1,5.429-9.014Z" transform="translate(-70.246 5.892)" fill="#e0e0e0"/>
    </g>
    <g id="freepik--Envelope--inject-2" transform="translate(159.763 210.242)">
      <g id="freepik--Letter--inject-2">
        <path id="Path_2679" data-name="Path 2679" d="M131.25,280.44a7.234,7.234,0,0,1,3.26-5.642l166.637-96.2a7.2,7.2,0,0,1,6.52,0l3.673,2.119a7.2,7.2,0,0,1,3.247,5.642V314.091a7.222,7.222,0,0,1-3.247,5.642l-166.611,96.2a7.2,7.2,0,0,1-6.52,0l-3.673-2.119a7.222,7.222,0,0,1-3.26-5.642Z" transform="translate(-131.25 -177.817)" fill="#8880f7"/>
        <path id="Path_2680" data-name="Path 2680" d="M132,277.231l9.253,5.341,172.178-99.423a6.859,6.859,0,0,0-2.294-2.445l-3.611-2.106a7.146,7.146,0,0,0-6.494,0L134.319,274.8A6.745,6.745,0,0,0,132,277.231Z" transform="translate(-131.06 -177.817)" fill="#fff" opacity="0.4"/>
        <path id="Path_2681" data-name="Path 2681" d="M131.25,260.32V388.052a7.222,7.222,0,0,0,3.26,5.642l3.673,2.119a4.8,4.8,0,0,0,.89.4,7.249,7.249,0,0,0,1.342.313,8.024,8.024,0,0,0,2.57-.1,4.763,4.763,0,0,0,.639-.163l.389-.15a1.981,1.981,0,0,1-1.567,0,2.257,2.257,0,0,1-.99-2.144V266.212a2.871,2.871,0,0,1,1.693-2.783l-1.693-.978-9.265-5.341A6.67,6.67,0,0,0,131.25,260.32Z" transform="translate(-131.25 -157.697)" opacity="0.1"/>
        <path id="Path_2682" data-name="Path 2682" d="M139.393,281.564,216.562,310.4a12.538,12.538,0,0,0,14.882-4.9l12.387-18.982L312.186,181.79,246.3,287.231l66.223,25.915a6.732,6.732,0,0,1-1.016,3.247l-65.383-28.836-14.443,23.006a12.538,12.538,0,0,1-15.7,4.814l-10.256-4.526-65.346,104.4a2.257,2.257,0,0,1-.99-2.144v-2.119l66.048-100.213Z" transform="translate(-129.188 -176.809)" opacity="0.2"/>
      </g>
    </g>
    <g id="freepik--mobile-screen--inject-2" transform="translate(307.456 82.148)">
      <path id="Path_2683" data-name="Path 2683" d="M249.05,161.858V455.111c0,3.46,2.432,4.865,5.429,3.134l131.745-76.065a12.011,12.011,0,0,0,5.429-9.4V79.524c0-3.46-2.432-4.865-5.429-3.134L254.479,152.455A11.986,11.986,0,0,0,249.05,161.858Z" transform="translate(-249.05 -75.649)" fill="#fafafa" stroke="#e0e0e0" stroke-miterlimit="10" stroke-width="1.17"/>
      <path id="Path_2684" data-name="Path 2684" d="M255.14,151.018a3,3,0,0,1,1.417-2.282l15.045-8.663c.777-.451,1.4-.15,1.4.664a2.984,2.984,0,0,1-1.4,2.282l-15.045,8.663C255.779,152.134,255.14,151.833,255.14,151.018Z" transform="translate(-247.505 -59.355)" fill="#455a64"/>
      <path id="Path_2685" data-name="Path 2685" d="M255.14,155.678a2.984,2.984,0,0,1,1.417-2.282l15.045-8.663c.777-.451,1.4-.15,1.4.652a2.984,2.984,0,0,1-1.4,2.294l-15.045,8.651C255.779,156.781,255.14,156.493,255.14,155.678Z" transform="translate(-247.505 -58.172)" fill="#455a64"/>
      <path id="Path_2686" data-name="Path 2686" d="M255.14,160.338a2.984,2.984,0,0,1,1.417-2.282l15.045-8.663c.777-.451,1.4-.163,1.4.652a2.959,2.959,0,0,1-1.4,2.282l-15.045,8.663C255.779,161.492,255.14,161.153,255.14,160.338Z" transform="translate(-247.505 -56.99)" fill="#455a64"/>
      <path id="Path_2687" data-name="Path 2687" d="M357.848,99.459V97.114a.163.163,0,0,0-.238-.15l-1.805.815a.213.213,0,0,1-.3-.138,3.848,3.848,0,0,0-.4-.89.489.489,0,0,1,0-.439l1.254-2.432a.263.263,0,0,0-.113-.351l-1.254-.752a.276.276,0,0,0-.351.088l-1.5,2.257a.464.464,0,0,1-.389.188,4.463,4.463,0,0,0-.978.1.213.213,0,0,1-.276-.188l-.2-1.968a.145.145,0,0,0-.238-.125l-2.031,1.166a.539.539,0,0,0-.238.376l-.2,2.257a.816.816,0,0,1-.213.426,11.288,11.288,0,0,0-1.128,1.254.376.376,0,0,1-.4.113l-1.254-.451a.313.313,0,0,0-.364.138l-1.492,2.583a.326.326,0,0,0,.063.376l1.053.9a.4.4,0,0,1,.1.4,12.616,12.616,0,0,0-.476,1.58.777.777,0,0,1-.251.389l-1.856,1.254a.552.552,0,0,0-.213.4v2.332a.15.15,0,0,0,.238.15l1.805-.815a.226.226,0,0,1,.3.15,3.85,3.85,0,0,0,.4.89.489.489,0,0,1,0,.439l-1.254,2.42a.288.288,0,0,0,.113.364l1.254.752a.276.276,0,0,0,.351-.088l1.5-2.257a.464.464,0,0,1,.389-.188,4.463,4.463,0,0,0,.978-.1.213.213,0,0,1,.276.188l.2,1.968c0,.138.113.2.238.125l2.031-1.166a.577.577,0,0,0,.238-.389l.2-2.257a.739.739,0,0,1,.213-.414,11.282,11.282,0,0,0,1.128-1.254.376.376,0,0,1,.4-.113l1.254.451a.313.313,0,0,0,.364-.138l1.492-2.583a.326.326,0,0,0-.075-.389l-1.041-.89a.4.4,0,0,1-.1-.4,12.606,12.606,0,0,0,.476-1.58.677.677,0,0,1,.251-.389l1.856-1.254A.577.577,0,0,0,357.848,99.459Zm-7.936,7.4c-1.893,1.1-3.423.213-3.423-1.968a7.522,7.522,0,0,1,3.423-5.943c1.893-1.091,3.423-.2,3.423,1.981a7.523,7.523,0,0,1-3.423,5.93Z" transform="translate(-225.426 -71.311)" fill="#181b39"/>
      <path id="Path_2688" data-name="Path 2688" d="M311.561,144.97c15.4-8.889,27.871-1.68,27.871,16.1s-12.475,39.38-27.871,48.27-27.871,1.68-27.871-16.086S296.165,153.86,311.561,144.97Z" transform="translate(-240.26 -59.025)" fill="#181c3a"/>
      <path id="Path_2689" data-name="Path 2689" d="M307.6,155.61c5.015-2.884,9.04-.552,9.04,5.216a19.985,19.985,0,0,1-9.04,15.647c-5.015,2.884-9.052.552-9.052-5.216A19.972,19.972,0,0,1,307.6,155.61Z" transform="translate(-236.489 -55.672)" fill="#8880f7"/>
      <path id="Path_2690" data-name="Path 2690" d="M327.067,182.026c0-9.466-6.657-13.315-14.857-8.576l-5.2,2.959c-8.2,4.739-14.857,16.3-14.857,25.74v2.6a15.583,15.583,0,0,0,4.789.74,25.251,25.251,0,0,0,12.425-3.761,54.927,54.927,0,0,0,17.7-17.49Z" transform="translate(-238.113 -51.346)" fill="#8880f7"/>
      <path id="Path_2691" data-name="Path 2691" d="M286.408,222.589l50.326-29.049c1.492-.865,2.708-.251,2.708,1.379a5.83,5.83,0,0,1-2.708,4.5l-50.313,29.049c-1.5.878-2.721.251-2.721-1.367A5.817,5.817,0,0,1,286.408,222.589Z" transform="translate(-240.257 -45.833)" fill="#8880f7"/>
      <path id="Path_2692" data-name="Path 2692" d="M282.1,240.448l61.108-35.368c1.5-.865,2.721-.251,2.721,1.379a5.817,5.817,0,0,1-2.721,4.5L282.1,246.328c-1.5.865-2.721.251-2.721-1.379A5.817,5.817,0,0,1,282.1,240.448Z" transform="translate(-241.354 -42.905)" fill="#181b39"/>
      <path id="Path_2693" data-name="Path 2693" d="M331.92,229.794l17.114-9.88c.9-.514,1.63-.276,1.63.539a3.273,3.273,0,0,1-1.63,2.407l-17.114,9.88c-.89.514-1.63.276-1.63-.527A3.31,3.31,0,0,1,331.92,229.794Z" transform="translate(-228.435 -39.11)" fill="#37474f"/>
      <path id="Path_2694" data-name="Path 2694" d="M263.948,265.441l25.138-14.506c1.492-.865,2.708-.163,2.708,1.567v17.252a6.018,6.018,0,0,1-2.708,4.7l-25.138,14.506c-1.492.865-2.708.163-2.708-1.567V270.142A6.018,6.018,0,0,1,263.948,265.441Z" transform="translate(-245.957 -31.264)" fill="#8880f7"/>
      <path id="Path_2695" data-name="Path 2695" d="M266.93,266.4l17.114-9.88c.9-.514,1.63-.276,1.63.527a3.272,3.272,0,0,1-1.63,2.42l-17.114,9.88c-.9.514-1.63.276-1.63-.527A3.272,3.272,0,0,1,266.93,266.4Z" transform="translate(-244.927 -29.82)" fill="#fafafa"/>
      <path id="Path_2696" data-name="Path 2696" d="M265.3,273.905v5.015c0,1.041.727,1.454,1.63.94l17.114-9.88a3.6,3.6,0,0,0,1.63-2.821v-5.015c0-1.041-.727-1.454-1.63-.94l-17.114,9.829A3.623,3.623,0,0,0,265.3,273.905Z" transform="translate(-244.927 -28.62)" fill="#fafafa"/>
      <path id="Path_2697" data-name="Path 2697" d="M296.448,246.681l25.075-14.506c1.5-.865,2.721-.163,2.721,1.567v17.252a5.993,5.993,0,0,1-2.721,4.7L296.448,270.2c-1.5.865-2.708.163-2.708-1.567V251.382a5.98,5.98,0,0,1,2.708-4.7Z" transform="translate(-237.71 -36.024)" fill="#8880f7"/>
      <path id="Path_2698" data-name="Path 2698" d="M299.43,247.645l17.114-9.88c.89-.514,1.617-.276,1.617.527a3.3,3.3,0,0,1-1.617,2.42l-17.114,9.88c-.9.514-1.63.276-1.63-.539a3.272,3.272,0,0,1,1.63-2.407Z" transform="translate(-236.679 -34.58)" fill="#fafafa"/>
      <path id="Path_2699" data-name="Path 2699" d="M297.8,255.145v5.015c0,1.041.727,1.454,1.63.94l17.114-9.88a3.623,3.623,0,0,0,1.617-2.821v-5.015c0-1.041-.74-1.454-1.63-.94l-17.114,9.88a3.6,3.6,0,0,0-1.617,2.821Z" transform="translate(-236.679 -33.38)" fill="#fafafa"/>
      <path id="Path_2700" data-name="Path 2700" d="M328.951,227.923,354.026,213.4c1.492-.865,2.708-.163,2.708,1.567v17.264a6.018,6.018,0,0,1-2.708,4.7l-25.075,14.506c-1.5.865-2.721.163-2.721-1.567V232.625a5.993,5.993,0,0,1,2.721-4.7Z" transform="translate(-229.465 -40.787)" fill="#8880f7"/>
      <path id="Path_2701" data-name="Path 2701" d="M331.92,228.874l17.114-9.817c.9-.527,1.63-.288,1.63.527a3.235,3.235,0,0,1-1.63,2.407l-17.114,9.88c-.89.527-1.63.288-1.63-.527A3.272,3.272,0,0,1,331.92,228.874Z" transform="translate(-228.435 -39.33)" fill="#fafafa"/>
      <path id="Path_2702" data-name="Path 2702" d="M330.29,236.389V241.4c0,1.028.74,1.454,1.63.94l17.114-9.892a3.586,3.586,0,0,0,1.63-2.821v-5.015c0-1.041-.727-1.467-1.63-.94l-17.114,9.88A3.611,3.611,0,0,0,330.29,236.389Z" transform="translate(-228.435 -38.144)" fill="#fafafa"/>
      <path id="Path_2703" data-name="Path 2703" d="M266.669,305.981l101.178-58.412c3.009-1.73,5.429-.5,5.429,2.746a11.61,11.61,0,0,1-5.429,9.014L266.669,317.741c-3,1.73-5.429.5-5.429-2.746A11.647,11.647,0,0,1,266.669,305.981Z" transform="translate(-245.957 -32.223)" fill="#e0e0e0"/>
      <path id="Path_2704" data-name="Path 2704" d="M266.669,324.751l101.178-58.412c3.009-1.73,5.429-.5,5.429,2.746a11.61,11.61,0,0,1-5.429,9.015L266.669,336.524c-3,1.73-5.429.5-5.429-2.758a11.647,11.647,0,0,1,5.429-9.014Z" transform="translate(-245.957 -27.46)" fill="#e0e0e0"/>
      <path id="Path_2705" data-name="Path 2705" d="M292.391,325.261,327.7,304.875c1.5-.865,2.721-.163,2.721,1.567v11.372a5.993,5.993,0,0,1-2.721,4.7L292.391,342.9c-1.5.865-2.721.163-2.721-1.567V329.963a5.993,5.993,0,0,1,2.721-4.7Z" transform="translate(-238.743 -17.576)" fill="#181c3a"/>
      <path id="Path_2706" data-name="Path 2706" d="M267.837,295.461a5.629,5.629,0,0,0-2.508,4.413c0,1.617,1.141,2.282,2.508,1.467a5.629,5.629,0,0,0,2.508-4.413C270.383,295.31,269.242,294.646,267.837,295.461Z" transform="translate(-244.919 -19.96)" fill="#fafafa"/>
      <path id="Path_2707" data-name="Path 2707" d="M274.278,291.743a5.6,5.6,0,0,0-2.508,4.413c0,1.617,1.128,2.282,2.508,1.467a5.629,5.629,0,0,0,2.508-4.413C276.823,291.592,275.682,290.9,274.278,291.743Z" transform="translate(-243.285 -20.906)" fill="#fafafa"/>
      <path id="Path_2708" data-name="Path 2708" d="M280.708,288.078a5.629,5.629,0,0,0-2.508,4.413c0,1.617,1.141,2.282,2.508,1.467a5.629,5.629,0,0,0,2.508-4.413C283.253,287.865,282.112,287.2,280.708,288.078Z" transform="translate(-241.653 -21.843)" fill="#fafafa"/>
      <path id="Path_2709" data-name="Path 2709" d="M287.148,284.3a5.617,5.617,0,0,0-2.507,4.413c0,1.617,1.141,2.282,2.507,1.467a5.629,5.629,0,0,0,2.508-4.413C289.693,284.15,288.552,283.486,287.148,284.3Z" transform="translate(-240.019 -22.791)" fill="#fafafa"/>
      <path id="Path_2710" data-name="Path 2710" d="M293.578,280.581a5.629,5.629,0,0,0-2.508,4.413c0,1.617,1.141,2.282,2.508,1.467a5.629,5.629,0,0,0,2.508-4.413C296.123,280.43,294.982,279.766,293.578,280.581Z" transform="translate(-238.387 -23.735)" fill="#fafafa"/>
      <path id="Path_2711" data-name="Path 2711" d="M300.008,276.861a5.629,5.629,0,0,0-2.508,4.413c0,1.617,1.141,2.282,2.508,1.467a5.6,5.6,0,0,0,2.508-4.413C302.553,276.71,301.424,276.046,300.008,276.861Z" transform="translate(-236.756 -24.679)" fill="#fafafa"/>
      <path id="Path_2712" data-name="Path 2712" d="M306.448,273.138a5.63,5.63,0,0,0-2.507,4.413c0,1.617,1.141,2.282,2.507,1.467a5.629,5.629,0,0,0,2.508-4.413C309.03,273.051,307.852,272.323,306.448,273.138Z" transform="translate(-235.121 -25.621)" fill="#fafafa"/>
      <path id="Path_2713" data-name="Path 2713" d="M267.837,314.239a5.654,5.654,0,0,0-2.508,4.413c0,1.63,1.141,2.282,2.508,1.467a5.6,5.6,0,0,0,2.508-4.4C270.383,314.089,269.242,313.437,267.837,314.239Z" transform="translate(-244.919 -15.193)" fill="#fafafa"/>
      <path id="Path_2714" data-name="Path 2714" d="M274.278,310.519a5.617,5.617,0,0,0-2.508,4.413c0,1.63,1.128,2.282,2.508,1.467a5.6,5.6,0,0,0,2.508-4.4C276.823,310.369,275.682,309.717,274.278,310.519Z" transform="translate(-243.285 -16.137)" fill="#fafafa"/>
      <path id="Path_2715" data-name="Path 2715" d="M280.708,306.8a5.654,5.654,0,0,0-2.508,4.413c0,1.63,1.141,2.282,2.508,1.467a5.6,5.6,0,0,0,2.508-4.4C283.253,306.65,282.112,305.986,280.708,306.8Z" transform="translate(-241.653 -17.082)" fill="#fafafa"/>
      <path id="Path_2716" data-name="Path 2716" d="M287.148,303.069a5.629,5.629,0,0,0-2.508,4.413c0,1.63,1.141,2.282,2.508,1.467a5.6,5.6,0,0,0,2.508-4.4C289.693,302.931,288.552,302.267,287.148,303.069Z" transform="translate(-240.019 -18.027)" fill="#fafafa"/>
      <path id="Path_2717" data-name="Path 2717" d="M293.578,299.361a5.629,5.629,0,0,0-2.508,4.413c0,1.63,1.141,2.282,2.508,1.467a5.6,5.6,0,0,0,2.508-4.4C296.123,299.21,294.982,298.546,293.578,299.361Z" transform="translate(-238.387 -18.97)" fill="#fafafa"/>
      <path id="Path_2718" data-name="Path 2718" d="M300.008,295.641a5.629,5.629,0,0,0-2.508,4.413c0,1.63,1.141,2.282,2.508,1.467a5.579,5.579,0,0,0,2.507-4.413C302.553,295.49,301.424,294.826,300.008,295.641Z" transform="translate(-236.756 -19.914)" fill="#fafafa"/>
      <path id="Path_2719" data-name="Path 2719" d="M306.448,291.921a5.629,5.629,0,0,0-2.507,4.413c0,1.63,1.141,2.282,2.507,1.467a5.617,5.617,0,0,0,2.508-4.413C309.03,291.77,307.852,291.106,306.448,291.921Z" transform="translate(-235.121 -20.858)" fill="#fafafa"/>
    </g>
    <g id="freepik--Key--inject-2" transform="translate(465.366 161.999)">
      <path id="Path_2720" data-name="Path 2720" d="M401.567,354.772a24.387,24.387,0,0,1-12.349-3.26C380.178,346.284,375,335.376,375,321.547c0-24.3,15.446-52.244,35.105-63.628,10.619-6.131,21.163-6.8,29.7-1.868,9.027,5.216,14.218,16.136,14.218,29.952,0,24.3-15.446,52.256-35.168,63.641a34.979,34.979,0,0,1-17.289,5.128Zm25.9-84.478a18.505,18.505,0,0,0-8.588,2.821c-14.293,8.212-26.329,30.416-26.329,48.433,0,7.3,2.044,12.838,5.466,14.807,3.9,2.257,9.328-.2,12.2-1.868,14.33-8.262,26.417-30.466,26.417-48.483,0-7.3-2.044-12.826-5.466-14.807A7.121,7.121,0,0,0,427.47,270.294Z" transform="translate(-375 -110.551)" fill="#181c3a"/>
      <path id="Path_2721" data-name="Path 2721" d="M435.06,286.163c0-13.653-8.6-18.693-8.6-18.693h0c3.423,1.981,5.466,7.523,5.466,14.807,0,18.016-12.086,40.22-26.417,48.483-2.871,1.667-8.287,4.125-12.2,1.868,0,0,7.259,4.514,17.289-.965C425.118,323.751,435.06,304.18,435.06,286.163Z" transform="translate(-370.354 -106.825)" fill="#37474f"/>
      <path id="Path_2722" data-name="Path 2722" d="M419.272,148.054a9.052,9.052,0,0,0-18.092,0h0V291.872h0a4.526,4.526,0,0,0,2.645,3.761,14.18,14.18,0,0,0,12.788,0,4.513,4.513,0,0,0,2.658-3.761h0V148.079h0Z" transform="translate(-368.357 -139.339)" fill="#181c3a"/>
      <path id="Path_2723" data-name="Path 2723" d="M416.992,173.9a11.56,11.56,0,0,0-5.228-9.052,3.636,3.636,0,0,0-3.761-.326h0l-22.292,12.851-.539.313a.841.841,0,0,0-.226.138,7.833,7.833,0,0,0-1.066.865,7.4,7.4,0,0,0,8.714,11.76l.426-.251,22.455-12.926h0a3.674,3.674,0,0,0,1.517-3.373Z" transform="translate(-373.299 -133.043)" fill="#181c3a"/>
      <path id="Path_2724" data-name="Path 2724" d="M417.776,202.624a11.56,11.56,0,0,0-5.228-9.04,3.611,3.611,0,0,0-3.761-.339h0l-26.153,15.045-.539.313a.977.977,0,0,0-.226.138,7.133,7.133,0,0,0-1.066.865,7.422,7.422,0,0,0,1.655,11.76,7.522,7.522,0,0,0,3.536.878,7.373,7.373,0,0,0,3.523-.878c.15-.075.288-.176.426-.251l26.329-15.045h0a3.673,3.673,0,0,0,1.5-3.448Z" transform="translate(-374.082 -125.755)" fill="#181c3a"/>
    </g>
  </g>
</svg>
