<svg xmlns="http://www.w3.org/2000/svg" width="111.357" height="26.979" viewBox="0 0 111.357 26.979">
  <g id="paypal-seeklogo.com" transform="translate(0 0)">
    <path id="Path_12154" data-name="Path 12154" d="M175.456,386.87h7.61c4.086,0,5.624,2.068,5.386,5.107-.393,5.017-3.426,7.792-7.449,7.792h-2.031c-.552,0-.923.365-1.073,1.355l-.862,5.755c-.057.373-.253.589-.548.619h-4.781c-.45,0-.609-.344-.491-1.088l2.915-18.451A1.16,1.16,0,0,1,175.456,386.87Z" transform="translate(-165.739 -380.519)" fill="#009ee3" fill-rule="evenodd"/>
    <path id="Path_12155" data-name="Path 12155" d="M320,385.13c2.567,0,4.936,1.393,4.612,4.864-.393,4.125-2.6,6.408-6.089,6.417h-3.047c-.438,0-.65.358-.764,1.09l-.589,3.746c-.088.566-.379.845-.807.845H310.48c-.452,0-.609-.289-.509-.935l2.339-15.013c.116-.739.393-1.014.9-1.014h6.785Zm-4.616,8.038h2.308c1.444-.055,2.4-1.055,2.5-2.858a1.743,1.743,0,0,0-1.89-1.905l-2.173.01-.744,4.754Zm16.934,7.775c.259-.236.522-.358.485-.067l-.092.7c-.047.363.1.556.434.556h2.518c.424,0,.631-.171.735-.827l1.552-9.739c.079-.489-.041-.729-.413-.729h-2.77c-.249,0-.371.139-.436.521l-.1.6c-.053.312-.2.367-.33.053-.469-1.112-1.668-1.611-3.339-1.571-3.883.081-6.5,3.029-6.783,6.808a4.681,4.681,0,0,0,4.64,5.219,4.981,4.981,0,0,0,3.909-1.513h0Zm-2.11-1.5a2.531,2.531,0,0,1-2.595-2.968,3.615,3.615,0,0,1,3.477-2.968,2.531,2.531,0,0,1,2.595,2.968,3.613,3.613,0,0,1-3.477,2.968Zm12.67-8.643h-2.554c-.526,0-.741.393-.574.876l3.17,9.283-3.109,4.418c-.261.369-.059.705.308.705h2.87a.878.878,0,0,0,.852-.418l9.751-13.986c.3-.43.159-.882-.334-.882h-2.717c-.466,0-.652.185-.919.572l-4.066,5.893-1.817-5.907a.778.778,0,0,0-.86-.554Z" transform="translate(-277.245 -379.121)" fill="#113984" fill-rule="evenodd"/>
    <path id="Path_12156" data-name="Path 12156" d="M542.667,385.114c2.567,0,4.936,1.393,4.612,4.864-.393,4.125-2.6,6.408-6.089,6.417h-3.045c-.438,0-.65.358-.764,1.09l-.589,3.746c-.088.566-.379.845-.807.845H533.15c-.452,0-.609-.289-.509-.935l2.343-15.017c.116-.739.393-1.014.9-1.014h6.785Zm-4.616,8.038h2.308c1.444-.055,2.4-1.055,2.5-2.858a1.744,1.744,0,0,0-1.89-1.905l-2.172.01-.745,4.754Zm16.934,7.775c.259-.236.522-.357.485-.067l-.092.7c-.047.363.1.556.434.556h2.518c.424,0,.631-.171.735-.827l1.552-9.739c.079-.489-.041-.729-.412-.729h-2.766c-.249,0-.371.139-.436.521l-.1.6c-.053.312-.2.367-.33.053-.469-1.112-1.668-1.611-3.339-1.571-3.883.081-6.5,3.029-6.783,6.808a4.681,4.681,0,0,0,4.64,5.219A4.981,4.981,0,0,0,555,400.932h0Zm-2.108-1.5a2.531,2.531,0,0,1-2.595-2.968,3.615,3.615,0,0,1,3.477-2.968,2.531,2.531,0,0,1,2.595,2.968,3.615,3.615,0,0,1-3.477,2.968Zm11.615,2.7h-2.907a.344.344,0,0,1-.356-.393l2.554-16.178a.5.5,0,0,1,.483-.393h2.907a.344.344,0,0,1,.356.393l-2.554,16.178a.5.5,0,0,1-.483.4Z" transform="translate(-456.176 -379.105)" fill="#009ee3" fill-rule="evenodd"/>
    <path id="Path_12157" data-name="Path 12157" d="M148.439,354.54h7.618c2.145,0,4.691.069,6.392,1.571a5.163,5.163,0,0,1,1.6,4.322c-.467,5.816-3.946,9.075-8.613,9.075h-3.756c-.64,0-1.063.424-1.243,1.571l-1.049,6.679c-.069.432-.255.688-.589.719h-4.7c-.521,0-.705-.393-.57-1.261l3.379-21.407A1.352,1.352,0,0,1,148.439,354.54Z" transform="translate(-143.482 -354.54)" fill="#113984" fill-rule="evenodd"/>
    <path id="Path_12158" data-name="Path 12158" d="M179.43,396.373l1.33-8.421a1.164,1.164,0,0,1,1.326-1.092h7.61a7.422,7.422,0,0,1,3.076.56c-.764,5.178-4.113,8.054-8.5,8.054h-3.75A1.108,1.108,0,0,0,179.43,396.373Z" transform="translate(-172.369 -380.511)" fill="#172c70" fill-rule="evenodd"/>
  </g>
</svg>
