<svg xmlns="http://www.w3.org/2000/svg" xmlns:xlink="http://www.w3.org/1999/xlink" width="226" height="157" viewBox="0 0 226 157">
  <defs>
    <clipPath id="clip-SPRK_default_preset_name_custom_1">
      <rect width="226" height="157"/>
    </clipPath>
  </defs>
  <g id="SPRK_default_preset_name_custom_1" data-name="SPRK_default_preset_name_custom – 1" clip-path="url(#clip-SPRK_default_preset_name_custom_1)">
    <g id="Group_2" data-name="Group 2" transform="translate(-191 -345)">
      <circle id="Ellipse_3" data-name="Ellipse 3" cx="40.5" cy="40.5" r="40.5" transform="translate(322 379)" fill="#627eeb"/>
      <g id="Ellipse_4" data-name="Ellipse 4" transform="translate(323 380)" fill="none" stroke="#fff" stroke-width="2">
        <circle cx="39.5" cy="39.5" r="39.5" stroke="none"/>
        <circle cx="39.5" cy="39.5" r="38.5" fill="none"/>
      </g>
      <g id="ethereum" transform="translate(234.27 904.767)">
        <path id="Path_2" data-name="Path 2" d="M136.93-501.728c-3.161,5.5-5.74,10.028-5.73,10.074s2.56-1.137,5.656-2.606,5.7-2.7,5.8-2.727,2.468,1.044,5.915,2.671c3.17,1.5,5.777,2.708,5.8,2.7.046-.046-11.5-20.056-11.59-20.084C142.725-511.709,140.1-507.227,136.93-501.728Z" transform="translate(-13.67)" fill="#fff"/>
        <path id="Path_3" data-name="Path 3" d="M147.766-318.332c-2.847,1.359-5.176,2.5-5.167,2.56.009.148,10.416,5.037,10.62,4.982.407-.111,10.4-4.908,10.407-4.991.009-.1-10.333-5.028-10.546-5.019C153.007-320.8,150.613-319.691,147.766-318.332Z" transform="translate(-24.017 -173.256)" fill="#fff"/>
        <path id="Path_4" data-name="Path 4" d="M116.143-245.634c.055.277,12.875,22.607,12.958,22.579.1-.037,13.032-22.607,12.986-22.653-.018-.018-2.958,1.349-6.516,3.05l-6.488,3.078-6.4-3.041c-3.512-1.682-6.433-3.078-6.488-3.105S116.125-245.717,116.143-245.634Z" transform="translate(0 -241.379)" fill="#fff"/>
      </g>
    </g>
    <g id="Group_1" data-name="Group 1" transform="translate(-191 -345)">
      <circle id="Ellipse_1" data-name="Ellipse 1" cx="65" cy="65" r="65" transform="translate(214 394)" fill="#f9a101"/>
      <g id="Ellipse_2" data-name="Ellipse 2" transform="translate(218 398)" fill="none" stroke="#fff" stroke-width="2">
        <circle cx="61" cy="61" r="61" stroke="none"/>
        <circle cx="61" cy="61" r="60" fill="none"/>
      </g>
      <g id="bitcoin-logo" transform="translate(70.46 892.764) rotate(14)">
        <path id="Path_1" data-name="Path 1" d="M84.563-506.5v5.5H71v7.238l2.969.086a20.814,20.814,0,0,1,3.483.257,3.385,3.385,0,0,1,1.913,1.756l.343.728v15.29c0,11.064-.043,15.418-.157,15.775a2.652,2.652,0,0,1-.471.814c-.614.685-.885.742-3.94.742a20.218,20.218,0,0,0-2.855.1c0,.071-.286,1.785-.642,3.826S71-450.54,71-450.369v.328H84.563v11.136h6.853V-449.9H96.7v10.993h6.853v-11.107l1.114-.1c5.539-.443,8.894-1.214,11.864-2.713q7.3-3.662,7.3-13.477c0-4.326-1.128-7.038-3.783-9.194a16.952,16.952,0,0,0-4.725-2.413l-1.056-.3.885-.514a11.634,11.634,0,0,0,3.284-3.241,11.962,11.962,0,0,0,1.485-6.838c-.343-5.482-2.927-8.737-8.494-10.664a32.987,32.987,0,0,0-5.653-1.256c-.7-.086-1.5-.186-1.742-.228l-.471-.071V-512H96.7v10.707H91.415V-512H84.563ZM99.181-493a17.656,17.656,0,0,1,2.613.5c2.484.714,3.926,1.756,4.768,3.455a3.976,3.976,0,0,1,.485,2.527,4.315,4.315,0,0,1-.371,2.356,7.169,7.169,0,0,1-4.054,3.3,32.934,32.934,0,0,1-9.879,1.042l-1.185-.1v-13.22l1.685-.043A46.333,46.333,0,0,1,99.181-493Zm1.656,20.258a18.653,18.653,0,0,1,5.711,1.542,6.014,6.014,0,0,1,1.942,9.794,10.039,10.039,0,0,1-3.8,2.084,38.4,38.4,0,0,1-10.436,1.142h-2.7v-14.69l.757-.057C93.528-473.04,99.524-472.9,100.838-472.74Z" fill="#fff"/>
      </g>
    </g>
    <circle id="Ellipse_5" data-name="Ellipse 5" cx="5" cy="5" r="5" transform="translate(209 109)" fill="#faa203"/>
    <g id="Group_3" data-name="Group 3" transform="translate(-189.5 -343.5)">
      <line id="Line_1" data-name="Line 1" y2="4.875" transform="translate(314 361.5)" fill="none" stroke="#707070" stroke-width="2"/>
      <line id="Line_2" data-name="Line 2" y2="4.875" transform="translate(314 369.625)" fill="none" stroke="#707070" stroke-width="2"/>
      <line id="Line_3" data-name="Line 3" y2="4.875" transform="translate(320.5 368) rotate(90)" fill="none" stroke="#707070" stroke-width="2"/>
      <line id="Line_4" data-name="Line 4" y2="4.875" transform="translate(312.375 368) rotate(90)" fill="none" stroke="#707070" stroke-width="2"/>
    </g>
    <circle id="Ellipse_6" data-name="Ellipse 6" cx="20.5" cy="20.5" r="20.5" transform="translate(155 125)" fill="#f36823"/>
    <g id="Path_5" data-name="Path 5" transform="translate(163.388 136.326)" fill="#4e4c4b">
      <path d="M 25.63179779052734 20.78683662414551 L 1.499997973442078 20.78683662414551 L 1.499997973442078 3.987109422683716 L 12.08435821533203 16.06313705444336 L 13.1833381652832 17.31699562072754 L 14.31443786621094 16.09203720092773 L 25.63179779052734 3.8355553150177 L 25.63179779052734 20.78683662414551 Z" stroke="none"/>
      <path d="M 24.13179779052734 7.671113967895508 L 15.41647815704346 17.1096363067627 L 13.40610122680664 19.28683662414551 L 24.13179779052734 19.28683662414551 L 24.13179779052734 7.671113967895508 M 2.999998092651367 7.974222183227539 L 2.999998092651367 19.28683662414551 L 12.91524505615234 19.28683662414551 L 10.95631790161133 17.05183601379395 L 2.999998092651367 7.974222183227539 M -1.9073486328125e-06 -3.814697265625e-06 L 13.21239757537842 15.07443618774414 L 27.13179779052734 -3.814697265625e-06 L 27.13179779052734 22.28683662414551 L -1.9073486328125e-06 22.28683662414551 L -1.9073486328125e-06 -3.814697265625e-06 Z" stroke="none" fill="#fff"/>
    </g>
  </g>
</svg>
