<svg xmlns="http://www.w3.org/2000/svg" width="82" height="82" viewBox="0 0 82 82">
  <g id="qr-code_1_" data-name="qr-code(1)" transform="translate(-16 496)">
    <path id="Path_544" data-name="Path 544" d="M16.342-495.658c-.325.325-.342.564-.342,5.125s.017,4.8.342,5.125a1.4,1.4,0,0,0,1.025.342,1.4,1.4,0,0,0,1.025-.342c.325-.325.342-.564.342-4.1v-3.758h3.758c3.536,0,3.775-.017,4.1-.342a1.691,1.691,0,0,0,0-2.05c-.325-.325-.564-.342-5.125-.342S16.666-495.983,16.342-495.658Z" transform="translate(0 0)" fill="#181c3a"/>
    <path id="Path_545" data-name="Path 545" d="M432.342-495.658a1.4,1.4,0,0,0-.342,1.025,1.4,1.4,0,0,0,.342,1.025c.325.325.564.342,4.1.342H440.2v3.758c0,3.536.017,3.775.342,4.1a1.4,1.4,0,0,0,1.025.342,1.4,1.4,0,0,0,1.025-.342c.325-.325.342-.564.342-5.125s-.017-4.8-.342-5.125-.564-.342-5.125-.342S432.666-495.983,432.342-495.658Z" transform="translate(-344.933 0)" fill="#181c3a"/>
    <path id="Path_546" data-name="Path 546" d="M48.342-463.658c-.325.325-.342.564-.342,9.225s.017,8.9.342,9.225.564.342,9.225.342,8.9-.017,9.225-.342.342-.564.342-9.225-.017-8.9-.342-9.225S66.228-464,57.567-464,48.666-463.983,48.342-463.658ZM64.4-454.433v6.833H50.733v-13.667H64.4Z" transform="translate(-26.533 -26.533)" fill="#181c3a"/>
    <path id="Path_547" data-name="Path 547" d="M80.342-431.658c-.325.325-.342.564-.342,3.758s.017,3.434.342,3.758.564.342,3.758.342,3.434-.017,3.758-.342.342-.564.342-3.758-.017-3.434-.342-3.758S87.295-432,84.1-432,80.666-431.983,80.342-431.658Zm5.125,3.758v1.367H82.733v-2.733h2.733Z" transform="translate(-53.067 -53.067)" fill="#181c3a"/>
    <path id="Path_548" data-name="Path 548" d="M176.342-463.68a1.4,1.4,0,0,0-.342,1.025,1.4,1.4,0,0,0,.342,1.025c.307.307.564.342,2.733.342h2.392v1.708c0,2.016.2,2.392,1.367,2.392a1.4,1.4,0,0,0,1.025-.342c.307-.307.342-.564.342-3.075,0-3.69.325-3.417-4.1-3.417C176.905-464.022,176.666-464.005,176.342-463.68Z" transform="translate(-132.667 -26.511)" fill="#181c3a"/>
    <path id="Path_549" data-name="Path 549" d="M240.342-463.658a1.4,1.4,0,0,0-.342,1.025c0,1.2.342,1.367,2.733,1.367s2.733-.171,2.733-1.367S245.125-464,242.733-464C240.905-464,240.649-463.966,240.342-463.658Z" transform="translate(-185.733 -26.533)" fill="#181c3a"/>
    <path id="Path_550" data-name="Path 550" d="M261.808-463.658c-.307.307-.342.564-.342,2.733v2.392h-2.392c-2.17,0-2.426.034-2.733.342a1.4,1.4,0,0,0-.342,1.025,1.4,1.4,0,0,0,.342,1.025c.325.325.564.342,3.758.342,4.373,0,4.1.2,4.1-3.075v-2.392h1.708c2.016,0,2.392-.2,2.392-1.367a1.4,1.4,0,0,0-.342-1.025c-.307-.308-.564-.342-3.075-.342S262.116-463.966,261.808-463.658Z" transform="translate(-199 -26.533)" fill="#181c3a"/>
    <path id="Path_551" data-name="Path 551" d="M352.342-463.658c-.325.325-.342.564-.342,9.225s.017,8.9.342,9.225.564.342,9.225.342,8.9-.017,9.225-.342.342-.564.342-9.225-.017-8.9-.342-9.225-.564-.342-9.225-.342S352.666-463.983,352.342-463.658Zm16.058,9.225v6.833H354.733v-13.667H368.4Z" transform="translate(-278.6 -26.533)" fill="#181c3a"/>
    <path id="Path_552" data-name="Path 552" d="M384.342-431.658c-.325.325-.342.564-.342,3.758s.017,3.434.342,3.758.564.342,3.758.342,3.434-.017,3.758-.342.342-.564.342-3.758-.017-3.434-.342-3.758S391.295-432,388.1-432,384.666-431.983,384.342-431.658Zm5.125,3.758v1.367h-2.733v-2.733h2.733Z" transform="translate(-305.133 -53.067)" fill="#181c3a"/>
    <path id="Path_553" data-name="Path 553" d="M176.341-431.658c-.307.307-.342.564-.342,3.075,0,3.485-.051,3.417,2.392,3.417H180.1v2.392c0,3.331-.393,3.075,4.783,3.075,3.878,0,4.117-.017,4.442-.342a1.4,1.4,0,0,0,.342-1.025,1.4,1.4,0,0,0-.342-1.025c-.325-.325-.564-.342-3.417-.342h-3.075v-2.392c0-3.092.017-3.075-2.392-3.075h-1.708v-1.708c0-2.016-.205-2.392-1.367-2.392A1.4,1.4,0,0,0,176.341-431.658Z" transform="translate(-132.666 -53.067)" fill="#181c3a"/>
    <path id="Path_554" data-name="Path 554" d="M307.075-431.658c-.307.307-.342.564-.342,2.733v2.392h-1.025c-1.281,0-1.708.342-1.708,1.367,0,1.2.342,1.367,2.733,1.367,2.887,0,2.733.239,2.733-4.1,0-3.195-.017-3.434-.342-3.758A1.4,1.4,0,0,0,308.1-432,1.4,1.4,0,0,0,307.075-431.658Z" transform="translate(-238.8 -53.067)" fill="#181c3a"/>
    <path id="Path_555" data-name="Path 555" d="M232.342-407.658a1.4,1.4,0,0,0-.342,1.025c0,1.093.41,1.367,2.05,1.367s2.05-.273,2.05-1.367S235.69-408,234.05-408C232.905-408,232.632-407.949,232.342-407.658Z" transform="translate(-179.1 -72.967)" fill="#181c3a"/>
    <path id="Path_556" data-name="Path 556" d="M272.342-399.658c-.307.308-.342.564-.342,3.075s.034,2.767.342,3.075a1.4,1.4,0,0,0,1.025.342,1.4,1.4,0,0,0,1.025-.342c.307-.308.342-.564.342-3.075s-.034-2.767-.342-3.075a1.4,1.4,0,0,0-1.025-.342A1.4,1.4,0,0,0,272.342-399.658Z" transform="translate(-212.267 -79.6)" fill="#181c3a"/>
    <path id="Path_557" data-name="Path 557" d="M135.175-375.658c-.325.325-.342.564-.342,3.417v3.075h-3.075c-2.853,0-3.092.017-3.417.342A1.4,1.4,0,0,0,128-367.8a1.4,1.4,0,0,0,.342,1.025c.325.325.564.342,4.442.342s4.117-.017,4.442-.342.342-.564.342-4.442-.017-4.117-.342-4.442A1.4,1.4,0,0,0,136.2-376,1.4,1.4,0,0,0,135.175-375.658Z" transform="translate(-92.867 -99.5)" fill="#181c3a"/>
    <path id="Path_558" data-name="Path 558" d="M304.341-375.658c-.308.307-.342.564-.342,3.075,0,3.485-.051,3.417,2.392,3.417H308.1v1.025c0,1.537.239,1.708,2.392,1.708H312.2v3.075c0,3.946-.137,3.758,2.733,3.758,2.392,0,2.733-.171,2.733-1.367,0-1.025-.427-1.367-1.708-1.367h-1.025v-4.1h3.075c2.853,0,3.092-.017,3.417-.342a1.4,1.4,0,0,0,.342-1.025,1.4,1.4,0,0,0-.342-1.025c-.325-.325-.564-.342-5.467-.342h-5.125v-1.025c0-1.538-.239-1.708-2.392-1.708h-1.708v-1.708c0-2.016-.205-2.392-1.367-2.392A1.4,1.4,0,0,0,304.341-375.658Z" transform="translate(-238.8 -99.5)" fill="#181c3a"/>
    <path id="Path_559" data-name="Path 559" d="M256.342-343.658a1.4,1.4,0,0,0-.342,1.025c0,1.2.342,1.367,2.733,1.367s2.733-.171,2.733-1.367S261.125-344,258.733-344C256.905-344,256.649-343.966,256.342-343.658Z" transform="translate(-199 -126.033)" fill="#181c3a"/>
    <path id="Path_560" data-name="Path 560" d="M48.342-335.671A1.4,1.4,0,0,0,48-334.646a1.4,1.4,0,0,0,.342,1.025c.308.307.564.342,2.733.342h2.392v2.392c0,3.229-.171,3.075,3.417,3.075,2.511,0,2.768-.034,3.075-.342a1.4,1.4,0,0,0,.342-1.025c0-1.162-.376-1.367-2.392-1.367H56.2v-2.392c0-3.28.273-3.075-4.1-3.075C48.905-336.012,48.666-336,48.342-335.671Z" transform="translate(-26.533 -132.654)" fill="#181c3a"/>
    <path id="Path_561" data-name="Path 561" d="M411.075-335.658a1.4,1.4,0,0,0-.342,1.025c0,1.162.376,1.367,2.392,1.367h1.708v2.733h-2.392c-2.17,0-2.426.034-2.733.342a1.4,1.4,0,0,0-.342,1.025,1.4,1.4,0,0,0,.342,1.025c.307.307.564.342,2.733.342h2.392v2.733h-3.075c-2.853,0-3.092.017-3.417.342A1.4,1.4,0,0,0,408-323.7a1.4,1.4,0,0,0,.342,1.025c.325.325.564.342,4.442.342s4.117-.017,4.442-.342.342-.564.342-6.492-.017-6.167-.342-6.492c-.307-.307-.564-.342-3.075-.342S411.383-335.966,411.075-335.658Z" transform="translate(-325.033 -132.667)" fill="#181c3a"/>
    <path id="Path_562" data-name="Path 562" d="M216.316-327.658c-.325.325-.342.564-.342,5.125,0,5.962-.273,5.467,3.075,5.467h2.392v2.392c0,3.314-.342,3.075,4.442,3.075h3.758v1.025c0,1.623.154,1.708,3.075,1.708h2.392v2.733H233.4c-2.016,0-2.392.2-2.392,1.367s.376,1.367,2.392,1.367h1.708v10.592c0,10.37,0,10.592.342,10.933a1.692,1.692,0,0,0,2.05,0c.29-.29.342-.564.342-2.05v-1.708h2.733v1.708c0,2.016.205,2.392,1.367,2.392s1.367-.376,1.367-2.392v-1.708h2.733v2.392c0,2.17.034,2.426.342,2.733a1.692,1.692,0,0,0,2.05,0c.325-.325.342-.564.342-5.467V-291.1h3.075c2.853,0,3.092-.017,3.417-.342a1.691,1.691,0,0,0,0-2.05c-.325-.325-.564-.342-3.417-.342h-3.075v-2.733h1.708c2.563,0,2.392.376,2.392-5.467,0-4.561-.017-4.8-.342-5.125a1.692,1.692,0,0,0-2.05,0c-.325.325-.342.564-.342,4.1v3.758h-12.3v-5.808c0-5.586-.017-5.825-.342-6.15-.308-.308-.564-.342-2.733-.342h-2.392v-1.025c0-1.725.034-1.708-4.442-1.708h-3.758v-3.758c0-3.536-.017-3.775-.342-4.1a1.4,1.4,0,0,0-1.025-.342c-1.025,0-1.367.427-1.367,1.708v1.025h-2.733v-3.758c0-3.536-.017-3.775-.342-4.1a1.4,1.4,0,0,0-1.025-.342A1.4,1.4,0,0,0,216.316-327.658Zm29.725,35.192v4.1h-8.2v-8.2h8.2Z" transform="translate(-165.807 -139.3)" fill="#181c3a"/>
    <path id="Path_563" data-name="Path 563" d="M360.342-127.658a1.4,1.4,0,0,0-.342,1.025,1.213,1.213,0,0,0,1.367,1.367,1.213,1.213,0,0,0,1.367-1.367A1.213,1.213,0,0,0,361.367-128,1.4,1.4,0,0,0,360.342-127.658Z" transform="translate(-285.233 -305.133)" fill="#181c3a"/>
    <path id="Path_564" data-name="Path 564" d="M288.342-311.658a1.4,1.4,0,0,0-.342,1.025c0,1.2.342,1.367,2.733,1.367s2.733-.171,2.733-1.367S293.125-312,290.733-312C288.905-312,288.649-311.966,288.342-311.658Z" transform="translate(-225.533 -152.567)" fill="#181c3a"/>
    <path id="Path_565" data-name="Path 565" d="M63.354-303.671a1.4,1.4,0,0,0-.342,1.025,1.4,1.4,0,0,0,.342,1.025c.308.307.564.342,2.733.342h2.392v2.733H65.4c-3.98,0-3.758-.188-3.758,3.075v2.392H60.621c-1.725,0-1.708-.034-1.708,4.442v3.758H56.179v-2.392c0-3.28.273-3.075-4.1-3.075-3.195,0-3.434.017-3.758.342a1.691,1.691,0,0,0,0,2.05c.308.307.564.342,2.733.342h2.392v2.733H51.054c-2.17,0-2.426.034-2.733.342a1.691,1.691,0,0,0,0,2.05c.325.325.564.342,9.225.342s8.9-.017,9.225-.342a1.4,1.4,0,0,0,.342-1.025,1.4,1.4,0,0,0-.342-1.025c-.308-.307-.564-.342-2.733-.342H61.646v-5.467h2.733v1.025c0,1.281.342,1.708,1.367,1.708,1.2,0,1.367-.342,1.367-2.733,0-2.545-.12-2.733-1.708-2.733H64.379v-2.733h4.1v1.708c0,2.016.205,2.392,1.367,2.392s1.367-.376,1.367-2.392v-1.708h1.025c1.281,0,1.708-.342,1.708-1.367s-.427-1.367-1.708-1.367H71.213v-2.392c0-3.28.273-3.075-4.1-3.075C63.918-304.012,63.679-304,63.354-303.671Z" transform="translate(-26.513 -159.188)" fill="#181c3a"/>
    <path id="Path_566" data-name="Path 566" d="M48.342-287.658c-.325.325-.342.564-.342,3.758s.017,3.434.342,3.758a1.4,1.4,0,0,0,1.025.342,1.4,1.4,0,0,0,1.025-.342c.325-.325.342-.564.342-3.758s-.017-3.434-.342-3.758A1.4,1.4,0,0,0,49.367-288,1.4,1.4,0,0,0,48.342-287.658Z" transform="translate(-26.533 -172.467)" fill="#181c3a"/>
    <path id="Path_567" data-name="Path 567" d="M280.342-279.658a1.4,1.4,0,0,0-.342,1.025,1.4,1.4,0,0,0,.342,1.025c.325.325.564.342,4.442.342s4.117-.017,4.442-.342a1.4,1.4,0,0,0,.342-1.025,1.4,1.4,0,0,0-.342-1.025c-.325-.325-.564-.342-4.442-.342S280.666-279.983,280.342-279.658Z" transform="translate(-218.9 -179.1)" fill="#181c3a"/>
    <path id="Path_568" data-name="Path 568" d="M80.342-271.658A1.4,1.4,0,0,0,80-270.633c0,1.2.342,1.367,2.733,1.367s2.733-.171,2.733-1.367S85.125-272,82.733-272C80.905-272,80.649-271.966,80.342-271.658Z" transform="translate(-53.067 -185.733)" fill="#181c3a"/>
    <path id="Path_569" data-name="Path 569" d="M344.342-263.658a1.4,1.4,0,0,0-.342,1.025c0,1.025.427,1.367,1.708,1.367h1.025v1.025c0,1.281.342,1.708,1.367,1.708,1.2,0,1.367-.342,1.367-2.733,0-1.828-.034-2.084-.342-2.392s-.564-.342-2.392-.342S344.649-263.966,344.342-263.658Z" transform="translate(-271.967 -192.367)" fill="#181c3a"/>
    <path id="Path_570" data-name="Path 570" d="M180.361-247.658c-.325.325-.342.564-.342,3.417v3.075h-1.708c-2.494,0-2.392-.171-2.392,4.1,0,3.195.017,3.434.342,3.758a1.692,1.692,0,0,0,2.05,0c.307-.308.342-.564.342-2.733v-2.392h5.467v2.733h-1.025c-1.623,0-1.708.154-1.708,3.075v2.392h-1.708c-2.511,0-2.392-.222-2.392,4.442,0,3.639-.017,3.758-.342,3.758-.94,0-1.418,1.657-.683,2.392.29.29.564.342,2.05.342h1.708v2.733h-1.708c-1.486,0-1.76.051-2.05.342a1.691,1.691,0,0,0,0,2.05c.325.325.564.342,3.758.342s3.434-.017,3.758-.342c.735-.735.256-2.392-.683-2.392-.325,0-.342-.12-.342-2.392,0-2.921-.085-3.075-1.708-3.075H180.02V-227.5h4.442c4.22,0,4.459-.017,4.783-.342s.342-.564.342-3.758c0-4.083,0-4.1-1.708-4.1h-1.025v-2.392c0-3.092.017-3.075-2.392-3.075h-1.708v-3.075c0-2.853-.017-3.092-.342-3.417a1.4,1.4,0,0,0-1.025-.342A1.4,1.4,0,0,0,180.361-247.658Zm6.492,16.058v1.367H184.12v-2.733h2.733Z" transform="translate(-132.586 -205.633)" fill="#181c3a"/>
    <path id="Path_571" data-name="Path 571" d="M392.342-239.658c-.307.307-.342.564-.342,2.392,0,2.392.171,2.733,1.367,2.733,1.025,0,1.367-.427,1.367-1.708v-1.025h1.708c2.016,0,2.392-.205,2.392-1.367a1.4,1.4,0,0,0-.342-1.025c-.307-.308-.564-.342-3.075-.342S392.649-239.966,392.342-239.658Z" transform="translate(-311.767 -212.267)" fill="#181c3a"/>
    <path id="Path_572" data-name="Path 572" d="M448.342-239.658c-.307.307-.342.564-.342,3.075s.034,2.768.342,3.075a1.4,1.4,0,0,0,1.025.342,1.4,1.4,0,0,0,1.025-.342c.308-.308.342-.564.342-3.075s-.034-2.768-.342-3.075a1.4,1.4,0,0,0-1.025-.342A1.4,1.4,0,0,0,448.342-239.658Z" transform="translate(-358.2 -212.267)" fill="#181c3a"/>
    <path id="Path_573" data-name="Path 573" d="M248.342-215.669a1.4,1.4,0,0,0-.342,1.025c0,1.162.376,1.367,2.392,1.367H252.1v1.708c0,2.016.205,2.392,1.367,2.392a1.4,1.4,0,0,0,1.025-.342c.307-.307.342-.564.342-3.075,0-3.622.2-3.417-3.417-3.417C248.905-216.01,248.649-215.976,248.342-215.669Z" transform="translate(-192.367 -232.156)" fill="#181c3a"/>
    <path id="Path_574" data-name="Path 574" d="M360.342-215.658c-.307.307-.342.564-.342,3.075s.034,2.768.342,3.075.564.342,3.075.342,2.767-.034,3.075-.342a1.4,1.4,0,0,0,.342-1.025c0-1.162-.376-1.367-2.392-1.367h-1.708v-1.708c0-2.016-.2-2.392-1.367-2.392A1.4,1.4,0,0,0,360.342-215.658Z" transform="translate(-285.233 -232.167)" fill="#181c3a"/>
    <path id="Path_575" data-name="Path 575" d="M448.342-183.658c-.325.325-.342.564-.342,3.758s.017,3.434.342,3.758a1.4,1.4,0,0,0,1.025.342,1.4,1.4,0,0,0,1.025-.342c.325-.325.342-.564.342-3.758s-.017-3.434-.342-3.758a1.4,1.4,0,0,0-1.025-.342A1.4,1.4,0,0,0,448.342-183.658Z" transform="translate(-358.2 -258.7)" fill="#181c3a"/>
    <path id="Path_576" data-name="Path 576" d="M48.342-159.658c-.325.325-.342.564-.342,9.225s.017,8.9.342,9.225.564.342,9.225.342,8.9-.017,9.225-.342.342-.564.342-9.225-.017-8.9-.342-9.225S66.228-160,57.567-160,48.666-159.983,48.342-159.658ZM64.4-150.433v6.833H50.733v-13.667H64.4Z" transform="translate(-26.533 -278.6)" fill="#181c3a"/>
    <path id="Path_577" data-name="Path 577" d="M80.342-127.658c-.325.325-.342.564-.342,3.758s.017,3.434.342,3.758.564.342,3.758.342,3.434-.017,3.758-.342.342-.564.342-3.758-.017-3.434-.342-3.758S87.295-128,84.1-128,80.666-127.983,80.342-127.658Zm5.125,3.758v1.367H82.733v-2.733h2.733Z" transform="translate(-53.067 -305.133)" fill="#181c3a"/>
    <path id="Path_578" data-name="Path 578" d="M272.342-159.658a1.4,1.4,0,0,0-.342,1.025,1.4,1.4,0,0,0,.342,1.025c.307.307.564.342,3.075.342s2.768-.034,3.075-.342a1.4,1.4,0,0,0,.342-1.025,1.4,1.4,0,0,0-.342-1.025c-.307-.307-.564-.342-3.075-.342S272.649-159.966,272.342-159.658Z" transform="translate(-212.267 -278.6)" fill="#181c3a"/>
    <path id="Path_579" data-name="Path 579" d="M232.342-111.658c-.307.308-.342.564-.342,2.392,0,2.392.171,2.733,1.367,2.733s1.367-.342,1.367-2.733S234.563-112,233.367-112A1.4,1.4,0,0,0,232.342-111.658Z" transform="translate(-179.1 -318.4)" fill="#181c3a"/>
    <path id="Path_580" data-name="Path 580" d="M244.442-111.665c-.325.325-.342.564-.342,4.1v3.758h-1.708c-2.016,0-2.392.205-2.392,1.367a1.4,1.4,0,0,0,.342,1.025c.325.325.564.342,4.442.342s4.117-.017,4.442-.342a1.4,1.4,0,0,0,.342-1.025c0-1.025-.427-1.367-1.708-1.367h-1.025v-5.467h2.733v1.025c0,1.281.342,1.708,1.367,1.708,1.2,0,1.367-.342,1.367-2.733,0-2.887.239-2.733-4.1-2.733C245.005-112.007,244.766-111.99,244.442-111.665Z" transform="translate(-185.733 -318.393)" fill="#181c3a"/>
    <path id="Path_581" data-name="Path 581" d="M424.342-95.658c-.325.325-.342.564-.342,3.758s.017,3.434.342,3.758a1.691,1.691,0,0,0,2.05,0c.308-.308.342-.564.342-2.733v-2.392h1.708c2.016,0,2.392-.205,2.392-1.367a1.4,1.4,0,0,0-.342-1.025c-.307-.308-.564-.342-3.075-.342S424.649-95.966,424.342-95.658Z" transform="translate(-338.3 -331.667)" fill="#181c3a"/>
    <path id="Path_582" data-name="Path 582" d="M16.342-79.658c-.325.325-.342.564-.342,5.125s.017,4.8.342,5.125.564.342,5.125.342,4.8-.017,5.125-.342a1.691,1.691,0,0,0,0-2.05c-.325-.325-.564-.342-4.1-.342H18.733v-3.758c0-3.536-.017-3.775-.342-4.1A1.4,1.4,0,0,0,17.367-80,1.4,1.4,0,0,0,16.342-79.658Z" transform="translate(0 -344.933)" fill="#181c3a"/>
    <path id="Path_583" data-name="Path 583" d="M440.542-79.658c-.325.325-.342.564-.342,4.1V-71.8h-3.758c-3.536,0-3.775.017-4.1.342A1.4,1.4,0,0,0,432-70.433a1.4,1.4,0,0,0,.342,1.025c.325.325.564.342,5.125.342s4.8-.017,5.125-.342.342-.564.342-5.125-.017-4.8-.342-5.125A1.4,1.4,0,0,0,441.567-80,1.4,1.4,0,0,0,440.542-79.658Z" transform="translate(-344.933 -344.933)" fill="#181c3a"/>
  </g>
</svg>
