<svg xmlns="http://www.w3.org/2000/svg" xmlns:xlink="http://www.w3.org/1999/xlink" width="372.641" height="272.479" viewBox="0 0 372.641 272.479">
  <defs>
    <linearGradient id="linear-gradient" x1="0.786" y1="0.026" x2="0.007" y2="1.108" gradientUnits="objectBoundingBox">
      <stop offset="0" stop-color="#bcd5ff"/>
      <stop offset="0.151" stop-color="#a2bdff"/>
      <stop offset="0.387" stop-color="#819fff"/>
      <stop offset="0.612" stop-color="#6a89ff"/>
      <stop offset="0.822" stop-color="#5b7cff"/>
      <stop offset="1" stop-color="#5778ff"/>
    </linearGradient>
    <linearGradient id="linear-gradient-2" x1="-0.786" y1="9.562" x2="-1.495" y2="10.546" gradientUnits="objectBoundingBox">
      <stop offset="0" stop-color="#c0d6ff"/>
      <stop offset="0.298" stop-color="#c4daff"/>
      <stop offset="0.649" stop-color="#d3e9ff"/>
      <stop offset="1" stop-color="#e9ffff"/>
    </linearGradient>
    <linearGradient id="linear-gradient-4" x1="-2.086" y1="5.645" x2="-2.795" y2="6.629" xlink:href="#linear-gradient-2"/>
    <linearGradient id="linear-gradient-7" x1="-2.291" y1="5.693" x2="-3" y2="6.677" xlink:href="#linear-gradient-2"/>
    <linearGradient id="linear-gradient-8" x1="4.749" y1="0.5" x2="5.749" y2="0.5" xlink:href="#linear-gradient-2"/>
    <linearGradient id="linear-gradient-9" x1="22.835" y1="0.5" x2="23.835" y2="0.5" gradientUnits="objectBoundingBox">
      <stop offset="0" stop-color="#5778ff"/>
      <stop offset="0.178" stop-color="#5b7cff"/>
      <stop offset="0.388" stop-color="#6a89ff"/>
      <stop offset="0.613" stop-color="#819fff"/>
      <stop offset="0.849" stop-color="#a2bdff"/>
      <stop offset="1" stop-color="#bcd5ff"/>
    </linearGradient>
    <linearGradient id="linear-gradient-10" x1="3.844" y1="0.5" x2="4.844" y2="0.5" xlink:href="#linear-gradient-9"/>
    <linearGradient id="linear-gradient-11" x1="4.179" y1="0.5" x2="5.179" y2="0.5" xlink:href="#linear-gradient-2"/>
    <linearGradient id="linear-gradient-12" x1="16.053" y1="0.5" x2="17.053" y2="0.5" xlink:href="#linear-gradient-2"/>
    <clipPath id="clip-path">
      <path id="SVGID" d="M264.078,84.06,392.4,158.147l-15.913,93.814L248.251,177.923Z" transform="translate(-248.251 -84.06)" fill="none"/>
    </clipPath>
    <linearGradient id="linear-gradient-13" x1="3.414" y1="0.5" x2="4.414" y2="0.5" xlink:href="#linear-gradient-2"/>
    <linearGradient id="linear-gradient-14" x1="11.231" y1="0.5" x2="12.231" y2="0.5" xlink:href="#linear-gradient-2"/>
    <radialGradient id="radial-gradient" cx="0.791" cy="0.5" r="1.147" gradientTransform="matrix(-0.578, 0, 0, 1, 13.753, 0)" gradientUnits="objectBoundingBox">
      <stop offset="0" stop-color="#2b3aa5"/>
      <stop offset="1" stop-color="#182484"/>
    </radialGradient>
    <radialGradient id="radial-gradient-2" cx="0.791" cy="0.5" r="0.632" gradientTransform="matrix(-1.259, 0, 0, 1, 28.84, 0)" xlink:href="#radial-gradient"/>
    <linearGradient id="linear-gradient-15" x1="8.71" y1="1.141" x2="9.196" y2="-0.008" gradientUnits="objectBoundingBox">
      <stop offset="0" stop-color="#5778ff"/>
      <stop offset="0.04" stop-color="#5b7cff"/>
      <stop offset="0.087" stop-color="#6a89ff"/>
      <stop offset="0.137" stop-color="#819fff"/>
      <stop offset="0.19" stop-color="#a2bdff"/>
      <stop offset="0.224" stop-color="#bcd5ff"/>
    </linearGradient>
    <linearGradient id="linear-gradient-16" x1="10.026" y1="1.153" x2="9.678" y2="0.274" xlink:href="#linear-gradient-2"/>
    <linearGradient id="linear-gradient-17" x1="5.669" y1="0.975" x2="5.156" y2="0.009" gradientUnits="objectBoundingBox">
      <stop offset="0" stop-color="#c0d6ff"/>
      <stop offset="0.078" stop-color="#c2d8ff"/>
      <stop offset="0.134" stop-color="#cce2ff"/>
      <stop offset="0.183" stop-color="#dbf1ff"/>
      <stop offset="0.212" stop-color="#e9ffff"/>
      <stop offset="0.256" stop-color="#d8eeff"/>
      <stop offset="0.314" stop-color="#cae0ff"/>
      <stop offset="0.387" stop-color="#c2d8ff"/>
      <stop offset="0.514" stop-color="#c0d6ff"/>
      <stop offset="0.624" stop-color="#d0e6ff"/>
      <stop offset="0.755" stop-color="#e9ffff"/>
      <stop offset="1" stop-color="#c0d6ff"/>
    </linearGradient>
  </defs>
  <g id="Group_3392" data-name="Group 3392" transform="translate(-43.767 -57.788)">
    <g id="Group_3395" data-name="Group 3395" transform="translate(361.043 186.243)" opacity="0.65">
      <g id="Path_2649" data-name="Path 2649" transform="translate(0 0.009)" fill="none">
        <path d="M8.585,0l7.671,6.318-8.6,6.409L0,6.329Z" stroke="none"/>
        <path d="M 2.781986951828003 6.327208518981934 L 7.817652702331543 10.52432060241699 L 13.4700231552124 6.320006847381592 L 8.428092956542969 2.157380342483521 L 2.781986951828003 6.327208518981934 M 3.295568239991553e-05 6.32908296585083 L 8.585481643676758 0.000154837136506103 L 16.25690269470215 6.318128108978271 L 7.656959533691406 12.72684097290039 L 3.295568239991553e-05 6.32908296585083 Z" stroke="none" fill="#5750ba"/>
      </g>
      <g id="Path_2650" data-name="Path 2650" transform="translate(7.7 0)" fill="none">
        <path d="M8.546,0l7.727,6.321-8.56,6.412L0,6.332Z" stroke="none"/>
        <path d="M 2.784859418869019 6.330284595489502 L 7.857693195343018 10.52950477600098 L 13.48371505737305 6.323075771331787 L 8.404871940612793 2.158374547958374 L 2.784859418869019 6.330284595489502 M 9.043844329426065e-05 6.332160472869873 L 8.545948028564453 7.997794455150142e-05 L 16.27341842651367 6.321195125579834 L 7.713652610778809 12.73314094543457 L 9.043844329426065e-05 6.332160472869873 Z" stroke="none" fill="#5750ba"/>
      </g>
    </g>
    <g id="Group_3394" data-name="Group 3394" transform="translate(78.253 165.002)" opacity="0.65">
      <g id="Path_2649-2" data-name="Path 2649" transform="translate(0 0.007)" fill="none">
        <path d="M8.476,0l7.862,6.351L7.849,12.792,0,6.361Z" stroke="none"/>
        <path d="M 2.795799970626831 6.358963489532471 L 7.957705497741699 10.57838535308838 L 13.53703880310059 6.352997779846191 L 8.369648933410645 2.168354749679565 L 2.795799970626831 6.358963489532471 M 6.613405275857076e-06 6.36051607131958 L 8.475856781005859 9.553452400723472e-05 L 16.33779907226562 6.351441383361816 L 7.849260807037354 12.79232692718506 L 6.613405275857076e-06 6.36051607131958 Z" stroke="none" fill="#7a6cff"/>
      </g>
      <g id="Path_2650-2" data-name="Path 2650" transform="translate(7.739)" fill="none">
        <path d="M8.436,0l7.919,6.355L7.906,12.8,0,6.364Z" stroke="none"/>
        <path d="M 2.798680543899536 6.362146854400635 L 7.998116493225098 10.58370018005371 L 13.55083084106445 6.356175899505615 L 8.34616756439209 2.169435501098633 L 2.798680543899536 6.362146854400635 M 4.820783215109259e-05 6.363700866699219 L 8.435901641845703 9.558146120980382e-05 L 16.35443687438965 6.354617595672607 L 7.906492233276367 12.7987699508667 L 4.820783215109259e-05 6.363700866699219 Z" stroke="none" fill="#7a6cff"/>
      </g>
    </g>
    <g id="Group_3359" data-name="Group 3359" transform="translate(43.767 152.487)">
      <path id="Path_10602" data-name="Path 10602" d="M102.869,247.528l-30.72-17.737c-.525-.3-.459-.833.148-1.183l30.425-17.566a2.276,2.276,0,0,1,2.05-.085l30.72,17.736c.526.3.459.833-.147,1.183L104.92,247.443A2.28,2.28,0,0,1,102.869,247.528Z" transform="translate(-56.637 -192.262)" fill="#242993" opacity="0.5"/>
      <path id="Path_10603" data-name="Path 10603" d="M97.579,253.015a2.988,2.988,0,0,1-1.473-.346L51.168,226.724a1.219,1.219,0,0,1-.687-1.043,1.558,1.558,0,0,1,.9-1.269l44.506-25.7a3.658,3.658,0,0,1,3.334-.124l44.938,25.945a1.216,1.216,0,0,1,.686,1.043,1.557,1.557,0,0,1-.9,1.269l-44.507,25.7A3.814,3.814,0,0,1,97.579,253.015Zm-1.139-.926a3.013,3.013,0,0,0,2.665-.124l44.507-25.7c.355-.2.566-.462.566-.688a.6.6,0,0,0-.351-.462L98.889,199.173a3.012,3.012,0,0,0-2.664.124l-44.506,25.7c-.355.2-.567.462-.567.688a.594.594,0,0,0,.351.462Z" transform="translate(-50.481 -188.651)" fill="#181c3a"/>
      <g id="Group_3358" data-name="Group 3358" transform="translate(15.157)">
        <path id="Path_10604" data-name="Path 10604" d="M135.841,211.576V205.65l-9.653.007-21.417-12.365a2.278,2.278,0,0,0-2.05.085L81.4,205.687l-9.605.006,0,5.941H71.8a.609.609,0,0,0,.347.491l30.72,17.737a2.28,2.28,0,0,0,2.05-.085l30.425-17.566A.864.864,0,0,0,135.841,211.576Z" transform="translate(-71.794 -187.16)" fill="url(#linear-gradient)"/>
        <path id="Path_10605" data-name="Path 10605" d="M102.869,221.529l-30.72-17.736c-.525-.3-.459-.834.148-1.183l30.425-17.566a2.276,2.276,0,0,1,2.05-.085l30.72,17.736c.526.3.459.833-.147,1.183L104.92,221.444A2.279,2.279,0,0,1,102.869,221.529Z" transform="translate(-71.794 -184.754)" fill="url(#linear-gradient-2)"/>
        <path id="Path_10606" data-name="Path 10606" d="M104.455,220.3,77.224,204.583c-.466-.269-.408-.739.13-1.05l26.969-15.57a2.02,2.02,0,0,1,1.818-.075l27.23,15.721c.466.269.408.738-.13,1.049l-26.969,15.571A2.021,2.021,0,0,1,104.455,220.3Z" transform="translate(-73.272 -185.606)" fill="#242993"/>
        <path id="Path_10607" data-name="Path 10607" d="M105.46,219.529,80.443,205.084c-.428-.247-.374-.678.12-.964l24.776-14.3a1.855,1.855,0,0,1,1.67-.07l25.018,14.444c.427.247.374.679-.12.964L107.13,219.46A1.86,1.86,0,0,1,105.46,219.529Z" transform="translate(-74.208 -186.147)" fill="#181c3a"/>
      </g>
    </g>
    <g id="Group_3363" data-name="Group 3363" transform="translate(325.962 174.514)">
      <path id="Path_10608" data-name="Path 10608" d="M496.908,295.844l-30.72-17.736c-.525-.3-.459-.833.147-1.183l30.425-17.566a2.276,2.276,0,0,1,2.05-.086l30.72,17.737c.526.3.46.834-.146,1.183l-30.426,17.566A2.278,2.278,0,0,1,496.908,295.844Z" transform="translate(-452.636 -228.244)" fill="#242993" opacity="0.5"/>
      <path id="Path_10609" data-name="Path 10609" d="M492.418,300.659a2.888,2.888,0,0,1-1.419-.333l-43.058-24.859a1.178,1.178,0,0,1-.665-1.011,1.506,1.506,0,0,1,.871-1.229l42.644-24.621a3.513,3.513,0,0,1,3.208-.119l43.058,24.86a1.18,1.18,0,0,1,.664,1.011,1.506,1.506,0,0,1-.87,1.229l-42.644,24.621A3.665,3.665,0,0,1,492.418,300.659Zm.17-51.833a3.011,3.011,0,0,0-1.461.361l-42.644,24.621c-.336.193-.535.436-.535.648a.557.557,0,0,0,.329.43l43.058,24.859a2.869,2.869,0,0,0,2.538-.119l42.644-24.621c.336-.193.536-.436.536-.648a.561.561,0,0,0-.329-.431l-43.058-24.859A2.206,2.206,0,0,0,492.588,248.826Z" transform="translate(-447.276 -225.092)" fill="#181c3a"/>
      <g id="Group_3361" data-name="Group 3361" transform="translate(13.197 13.131)">
        <path id="Path_10610" data-name="Path 10610" d="M529.88,261.012v-5.926l-9.653.006-21.417-12.365a2.278,2.278,0,0,0-2.05.085l-21.322,12.31-9.6.006v5.941h.006a.611.611,0,0,0,.347.492l30.72,17.736a2.276,2.276,0,0,0,2.05-.085l30.426-17.566A.864.864,0,0,0,529.88,261.012Z" transform="translate(-465.833 -236.596)" fill="url(#linear-gradient)"/>
        <path id="Path_10611" data-name="Path 10611" d="M496.908,270.965l-30.72-17.735c-.525-.3-.459-.833.147-1.184l30.425-17.566a2.28,2.28,0,0,1,2.05-.085l30.72,17.736c.526.3.46.834-.146,1.184L498.957,270.88A2.275,2.275,0,0,1,496.908,270.965Z" transform="translate(-465.833 -234.19)" fill="url(#linear-gradient-4)"/>
        <path id="Path_10612" data-name="Path 10612" d="M496.908,270.965l-30.72-17.735c-.525-.3-.459-.833.147-1.184l30.425-17.566a2.28,2.28,0,0,1,2.05-.085l30.72,17.736c.526.3.46.834-.146,1.184L498.957,270.88A2.275,2.275,0,0,1,496.908,270.965Z" transform="translate(-465.833 -234.19)" fill="url(#linear-gradient-4)"/>
        <path id="Path_10613" data-name="Path 10613" d="M498.493,269.741l-27.231-15.722c-.466-.27-.408-.739.13-1.049L498.361,237.4a2.018,2.018,0,0,1,1.818-.075l27.23,15.721c.466.27.407.739-.131,1.05l-26.968,15.57A2.019,2.019,0,0,1,498.493,269.741Z" transform="translate(-467.31 -235.042)" fill="#242993"/>
        <path id="Path_10614" data-name="Path 10614" d="M499.5,268.965,474.481,254.52c-.428-.247-.375-.678.12-.964l24.776-14.3a1.853,1.853,0,0,1,1.67-.07l25.018,14.444c.428.247.374.678-.12.964l-24.777,14.3A1.853,1.853,0,0,1,499.5,268.965Z" transform="translate(-468.247 -235.583)" fill="#4553c7"/>
        <g id="Group_3360" data-name="Group 3360" transform="translate(27.591 14.938)">
          <path id="Path_10615" data-name="Path 10615" d="M508.868,257.8l-2.925-1.689,1.6-.922,2.926,1.689Z" transform="translate(-505.008 -255.193)" fill="#42ffff"/>
          <path id="Path_10616" data-name="Path 10616" d="M515.864,258.155l-2.926,1.689-1.6-.922,2.925-1.689Z" transform="translate(-506.568 -255.782)" fill="#42ffff"/>
          <path id="Path_10617" data-name="Path 10617" d="M507.824,259.03l-1.6.922-1.6-.922,1.6-.922Z" transform="translate(-504.629 -256.035)" fill="#42ffff"/>
          <path id="Path_10618" data-name="Path 10618" d="M514.365,262.806l-1.6.922-4.607-2.66,1.6-.922Z" transform="translate(-505.649 -256.624)" fill="#42ffff"/>
        </g>
      </g>
      <path id="Path_10619" data-name="Path 10619" d="M529.885,244.713l-13.068.078-18.007-10.4a2.28,2.28,0,0,0-2.05.085l-18.254,10.538-12.671.075v7.7l.008,0a.649.649,0,0,0,.345.433l30.72,17.735a2.275,2.275,0,0,0,2.05-.085l30.426-17.566a.934.934,0,0,0,.482-.553l.02-.011Z" transform="translate(-452.636 -221.059)" fill="#42ffff" opacity="0.4"/>
      <g id="Group_3362" data-name="Group 3362" transform="translate(13.197)">
        <path id="Path_10620" data-name="Path 10620" d="M529.88,242.549v-5.926l-9.653.006-21.417-12.365a2.278,2.278,0,0,0-2.05.085l-21.322,12.31-9.6.006v5.941h.006a.61.61,0,0,0,.347.491l30.72,17.736a2.275,2.275,0,0,0,2.05-.085l30.426-17.566A.867.867,0,0,0,529.88,242.549Z" transform="translate(-465.833 -218.133)" fill="url(#linear-gradient)"/>
        <path id="Path_10621" data-name="Path 10621" d="M496.908,252.5l-30.72-17.736c-.525-.3-.459-.834.147-1.183l30.425-17.566a2.276,2.276,0,0,1,2.05-.085l30.72,17.736c.526.3.46.833-.146,1.183l-30.426,17.566A2.276,2.276,0,0,1,496.908,252.5Z" transform="translate(-465.833 -215.726)" fill="url(#linear-gradient-7)"/>
        <path id="Path_10622" data-name="Path 10622" d="M498.493,251.278l-27.231-15.722c-.466-.269-.408-.738.13-1.049l26.969-15.57a2.02,2.02,0,0,1,1.818-.075l27.23,15.721c.466.269.407.739-.131,1.049L500.31,251.2A2.021,2.021,0,0,1,498.493,251.278Z" transform="translate(-467.31 -216.579)" fill="#242993"/>
        <path id="Path_10623" data-name="Path 10623" d="M500.936,250.5l-25.018-14.443c-.427-.247-.374-.679.12-.964l24.777-14.3a1.855,1.855,0,0,1,1.67-.069L527.5,235.163c.428.246.375.678-.12.963l-24.776,14.306A1.856,1.856,0,0,1,500.936,250.5Z" transform="translate(-468.662 -217.12)" fill="#181c3a"/>
      </g>
    </g>
    <g id="Group_3391" data-name="Group 3391" transform="translate(86.451 73.033)">
      <g id="Group_3375" data-name="Group 3375">
        <g id="Group_3374" data-name="Group 3374">
          <g id="Group_3368" data-name="Group 3368">
            <g id="Group_3365" data-name="Group 3365" transform="translate(93.147)">
              <path id="Path_10626" data-name="Path 10626" d="M244.439,173.744,261.1,74.918l-1.339-.564,2.012-1.154,0,.011a1.447,1.447,0,0,1,1.551.107L396.445,150.18a3.757,3.757,0,0,1,1.728,3.382l-16.79,99.612a1.247,1.247,0,0,1-.7,1.013h0l-1.969,1.138-.339-1.84.113.035-132.322-76.4A3.759,3.759,0,0,1,244.439,173.744Z" transform="translate(-242.322 -73.033)" fill="url(#linear-gradient-8)"/>
              <path id="Path_10627" data-name="Path 10627" d="M447.433,184.916l2.188-.969a3,3,0,0,1,.282,1.648l-16.79,99.612a1.247,1.247,0,0,1-.7,1.013h0l-1.969,1.138-.339-1.84.113.035-6.7-3.865Z" transform="translate(-294.052 -105.067)" fill="url(#linear-gradient-9)"/>
              <path id="Path_10628" data-name="Path 10628" d="M243.23,178.808,376.358,255.67c1.028.594,1.907.251,2.087-.813l16.791-99.613a3.761,3.761,0,0,0-1.729-3.382L260.38,75c-1.028-.594-1.907-.25-2.088.814L241.5,175.427A3.757,3.757,0,0,0,243.23,178.808Z" transform="translate(-241.474 -73.518)" fill="#181c3a"/>
              <g id="Group_3364" data-name="Group 3364" transform="translate(4.819 7.842)" opacity="0.51">
                <path id="Path_10629" data-name="Path 10629" d="M264.078,84.06,392.4,158.147l-15.913,93.814L248.251,177.923Z" transform="translate(-248.251 -84.06)" fill="#7a6cff"/>
              </g>
            </g>
            <g id="Group_3367" data-name="Group 3367" transform="translate(0 104.945)">
              <path id="Path_10630" data-name="Path 10630" d="M256.99,378.415a6.743,6.743,0,0,1-3.3-.834l-141.67-81.825a2.607,2.607,0,0,1-1.525-2.1,1.975,1.975,0,0,1,1.127-1.68l89.42-51.626a6.439,6.439,0,0,1,5.876.23L348.593,322.4a2.608,2.608,0,0,1,1.525,2.1,1.975,1.975,0,0,1-1.127,1.679L259.57,377.811A5.242,5.242,0,0,1,256.99,378.415Zm-53.37-138a4.561,4.561,0,0,0-2.24.513l-89.42,51.627a1.323,1.323,0,0,0-.792,1.1,1.987,1.987,0,0,0,1.19,1.52L254.028,377a5.8,5.8,0,0,0,5.207.23l89.42-51.626a1.322,1.322,0,0,0,.791-1.1,1.986,1.986,0,0,0-1.188-1.521L206.587,241.16A6.1,6.1,0,0,0,203.62,240.417Z" transform="translate(-110.499 -226.128)" fill="#181c3a"/>
              <path id="Path_10631" data-name="Path 10631" d="M127.37,297.143l131.773,76.079a5.418,5.418,0,0,0,4.873.2l78.635-45.4c1.248-.722,1.092-1.981-.351-2.814l-131.773-76.08a5.416,5.416,0,0,0-4.873-.2l-78.634,45.4C125.771,295.05,125.928,296.31,127.37,297.143Z" transform="translate(-115.027 -228.639)" fill="#242993" opacity="0.5"/>
              <path id="Path_10632" data-name="Path 10632" d="M126.275,271.662l7.265,3.8,72.85-42.061a5.287,5.287,0,0,1,4.755.2l125.647,72.542c1.2-.673,6.685-3.309,6.685-3.309l-2.66,6.929-.011-.008a1.585,1.585,0,0,1-.743.825l-76.726,44.3a5.285,5.285,0,0,1-4.755-.2L130.006,280.439a2.293,2.293,0,0,1-1.078-1.146l-.01.006Z" transform="translate(-115.055 -224.157)" fill="url(#linear-gradient-10)"/>
              <path id="Path_10633" data-name="Path 10633" d="M127.37,269.3l131.773,76.08a5.416,5.416,0,0,0,4.873.2l78.635-45.4c1.248-.722,1.092-1.981-.351-2.814L210.528,221.286a5.416,5.416,0,0,0-4.873-.2l-78.634,45.4C125.771,267.2,125.928,268.464,127.37,269.3Z" transform="translate(-115.027 -220.597)" fill="url(#linear-gradient-11)"/>
              <path id="Path_10634" data-name="Path 10634" d="M366.808,372.256v-1.445c0-.137-.083-.2-.186-.14l-5.1,2.942a.444.444,0,0,0-.186.355v1.447c0,.137.083.2.186.14l5.1-2.943A.445.445,0,0,0,366.808,372.256Z" transform="translate(-182.946 -263.934)" fill="#2859cb"/>
              <path id="Path_10635" data-name="Path 10635" d="M356.092,378.444V377c0-.137-.084-.2-.186-.14l-5.1,2.943a.444.444,0,0,0-.186.355V381.6c0,.137.083.2.186.14l5.1-2.942A.447.447,0,0,0,356.092,378.444Z" transform="translate(-179.85 -265.721)" fill="#2859cb"/>
              <path id="Path_10636" data-name="Path 10636" d="M340.3,300.716,230.8,237.494a2.357,2.357,0,0,0-2.36,0l-38.994,22.561a.842.842,0,0,0,0,1.456L298.9,324.7a2.355,2.355,0,0,0,2.357,0L340.3,302.172A.84.84,0,0,0,340.3,300.716Z" transform="translate(-133.179 -225.386)" fill="#adc8ff"/>
              <path id="Path_10637" data-name="Path 10637" d="M340.3,302.172l-.392.227L230.8,239.4a2.356,2.356,0,0,0-2.359,0l-38.6,22.333-.392-.225a.842.842,0,0,1,0-1.456l38.994-22.561a2.356,2.356,0,0,1,2.359,0l109.5,63.222A.84.84,0,0,1,340.3,302.172Z" transform="translate(-133.179 -225.386)" fill="#91afff"/>
              <g id="Group_3366" data-name="Group 3366" transform="translate(61.689 15.381)">
                <path id="Path_10638" data-name="Path 10638" d="M240.307,244.667l95.119,54.917,4.23-2.442-95.119-54.917Z" transform="translate(-209.679 -242.225)" fill="#7a6cff"/>
                <path id="Path_10639" data-name="Path 10639" d="M225.728,253.084l89.218,51.51,4.23-2.442-89.218-51.51Z" transform="translate(-205.468 -244.656)" fill="#7a6cff"/>
                <path id="Path_10640" data-name="Path 10640" d="M216.232,258.566l105.045,60.648,4.23-2.442L220.461,256.124Z" transform="translate(-202.725 -246.239)" fill="#7a6cff"/>
                <path id="Path_10641" data-name="Path 10641" d="M206.736,264.048,311.781,324.7l4.229-2.442L210.965,261.606Z" transform="translate(-199.983 -247.822)" fill="#7a6cff"/>
                <path id="Path_10642" data-name="Path 10642" d="M197.24,269.531l105.045,60.648,4.23-2.442L201.47,267.089Z" transform="translate(-197.24 -249.406)" fill="#7a6cff"/>
                <path id="Path_10643" data-name="Path 10643" d="M382.137,326.551l4.229,2.442,4.23-2.442-4.23-2.442Z" transform="translate(-250.641 -265.874)" fill="#7a6cff"/>
                <path id="Path_10644" data-name="Path 10644" d="M361.16,331.276l8.779,5.068,4.229-2.442-8.778-5.068Z" transform="translate(-244.583 -267.239)" fill="#7a6cff"/>
              </g>
              <path id="Path_10645" data-name="Path 10645" d="M229.492,335.192l-29.526-17.046a1.274,1.274,0,0,1,0-2.413l20.191-11.658a4.622,4.622,0,0,1,4.179,0l29.527,17.048a1.274,1.274,0,0,1,0,2.413l-20.191,11.656A4.613,4.613,0,0,1,229.492,335.192Z" transform="translate(-136.088 -244.563)" fill="url(#linear-gradient-12)"/>
              <path id="Path_10646" data-name="Path 10646" d="M253.866,322.109l-29.527-17.047a4.618,4.618,0,0,0-4.179,0L199.97,316.719a1.806,1.806,0,0,0-.725.713c-.305-.583-.073-1.24.725-1.7l20.191-11.658a4.622,4.622,0,0,1,4.179,0l29.527,17.048c.8.46,1.03,1.116.725,1.7A1.811,1.811,0,0,0,253.866,322.109Z" transform="translate(-136.093 -244.563)" fill="#91afff"/>
            </g>
          </g>
          <g id="Group_3373" data-name="Group 3373" transform="translate(97.967 7.842)" opacity="0.11">
            <g id="Group_3372" data-name="Group 3372" clip-path="url(#clip-path)">
              <g id="Group_3371" data-name="Group 3371" transform="translate(-3.789 48.936)">
                <path id="Path_10647" data-name="Path 10647" d="M244.116,201.569,375.89,277.648a5.419,5.419,0,0,0,4.873.2l78.634-45.4c1.25-.721,1.092-1.981-.35-2.814L327.273,153.557a5.416,5.416,0,0,0-4.873-.2l-78.634,45.4C242.517,199.476,242.673,200.736,244.116,201.569Z" transform="translate(-242.923 -152.868)" fill="url(#linear-gradient-13)"/>
                <path id="Path_10648" data-name="Path 10648" d="M418.1,227.685l-29.527-17.047a1.273,1.273,0,0,1,0-2.412l20.191-11.658a4.618,4.618,0,0,1,4.179,0l29.526,17.047a1.274,1.274,0,0,1,0,2.413l-20.19,11.657A4.618,4.618,0,0,1,418.1,227.685Z" transform="translate(-284.738 -165.345)" fill="url(#linear-gradient-14)"/>
                <path id="Path_10649" data-name="Path 10649" d="M442.471,214.6l-29.526-17.047a4.622,4.622,0,0,0-4.179,0l-20.191,11.658a1.808,1.808,0,0,0-.725.713c-.305-.583-.073-1.24.725-1.7l20.191-11.658a4.618,4.618,0,0,1,4.179,0l29.526,17.047c.8.461,1.031,1.117.726,1.7A1.817,1.817,0,0,0,442.471,214.6Z" transform="translate(-284.742 -165.345)" fill="#91afff"/>
                <g id="Group_3370" data-name="Group 3370" transform="translate(19.431 25.443)">
                  <path id="Path_10650" data-name="Path 10650" d="M421.522,252.181l-109.5-63.222a2.359,2.359,0,0,0-2.36,0l-38.994,22.561a.84.84,0,0,0,0,1.455l109.453,63.193a2.358,2.358,0,0,0,2.358,0l39.046-22.533A.84.84,0,0,0,421.522,252.181Z" transform="translate(-270.245 -188.643)" fill="#adc8ff"/>
                  <path id="Path_10651" data-name="Path 10651" d="M421.522,253.637l-.393.227-109.111-63a2.36,2.36,0,0,0-2.36,0l-38.6,22.334-.393-.227a.84.84,0,0,1,0-1.455l38.994-22.561a2.359,2.359,0,0,1,2.36,0l109.5,63.222A.84.84,0,0,1,421.522,253.637Z" transform="translate(-270.245 -188.643)" fill="#91afff"/>
                  <g id="Group_3369" data-name="Group 3369" transform="translate(6.846 4.627)">
                    <path id="Path_10652" data-name="Path 10652" d="M283.65,218.648l95.4,55.078-3.779,2.181-95.4-55.077Z" transform="translate(-279.871 -201.936)" fill="#242993"/>
                    <path id="Path_10653" data-name="Path 10653" d="M297.783,210.488l90.674,52.35-3.78,2.182L294,212.67Z" transform="translate(-283.953 -199.58)" fill="#242993"/>
                    <path id="Path_10654" data-name="Path 10654" d="M434.8,289.594l8.469,4.889-3.779,2.182-8.469-4.889Z" transform="translate(-323.525 -222.426)" fill="#242993"/>
                    <path id="Path_10655" data-name="Path 10655" d="M424.282,299.842l5.9,3.4-3.779,2.182-5.9-3.4Z" transform="translate(-320.488 -225.386)" fill="#242993"/>
                    <path id="Path_10656" data-name="Path 10656" d="M306.639,205.375l105.912,61.149-3.779,2.181L302.86,207.557Z" transform="translate(-286.511 -198.103)" fill="#242993"/>
                    <path id="Path_10657" data-name="Path 10657" d="M315.495,200.262l105.913,61.148-3.779,2.182L311.716,202.444Z" transform="translate(-289.068 -196.626)" fill="#242993"/>
                    <path id="Path_10658" data-name="Path 10658" d="M324.351,195.149,430.264,256.3l-3.779,2.181L320.572,197.331Z" transform="translate(-291.626 -195.149)" fill="#242993"/>
                  </g>
                </g>
              </g>
            </g>
          </g>
        </g>
      </g>
      <path id="Path_10659" data-name="Path 10659" d="M303.766,296.541l28.388-17.468L268.33,242.225l-30.121,20.247Z" transform="translate(-147.383 -121.898)" opacity="0.42" fill="url(#radial-gradient)"/>
      <path id="Path_10660" data-name="Path 10660" d="M348.623,263.4l6.5-41.076-59.9-34.356V232.5Z" transform="translate(-163.852 -106.229)" opacity="0.42" fill="url(#radial-gradient-2)"/>
      <g id="Group_3376" data-name="Group 3376" transform="translate(173.694 59.981)">
        <path id="Path_10661" data-name="Path 10661" d="M374.107,162.7l-6.784-3.858.231-1.468,6.784,3.858Z" transform="translate(-358.367 -157.373)" fill="#42ffff" opacity="0.5"/>
        <path id="Path_10662" data-name="Path 10662" d="M380.762,166.484l-2.442-1.389.231-1.467,2.442,1.389Z" transform="translate(-361.544 -159.179)" fill="#42ffff" opacity="0.5"/>
        <path id="Path_10663" data-name="Path 10663" d="M384.872,168.821l-1.66-.944.231-1.468,1.66.944Z" transform="translate(-362.956 -159.983)" fill="#42ffff" opacity="0.5"/>
        <path id="Path_10664" data-name="Path 10664" d="M370.279,165.657l-3.7-2.1.231-1.468,3.7,2.1Z" transform="translate(-358.154 -158.734)" fill="#42ffff" opacity="0.5"/>
        <path id="Path_10665" data-name="Path 10665" d="M377.768,169.915l-4.53-2.576.231-1.468,4.53,2.576Z" transform="translate(-360.076 -159.828)" fill="#42ffff" opacity="0.5"/>
        <path id="Path_10666" data-name="Path 10666" d="M382.724,172.735l-1.66-.944.231-1.467,1.66.944Z" transform="translate(-362.336 -161.113)" fill="#42ffff" opacity="0.5"/>
        <path id="Path_10667" data-name="Path 10667" d="M386.332,174.786l-1.659-.944.231-1.468,1.66.944Z" transform="translate(-363.378 -161.706)" fill="#42ffff" opacity="0.5"/>
        <path id="Path_10668" data-name="Path 10668" d="M368.517,169.789l-2.675-1.521.231-1.468,2.675,1.521Z" transform="translate(-357.94 -160.096)" fill="#42ffff"/>
        <path id="Path_10669" data-name="Path 10669" d="M371.975,171.756l-.914-.52.231-1.467.914.519Z" transform="translate(-359.447 -160.953)" fill="#42ffff"/>
        <path id="Path_10670" data-name="Path 10670" d="M375.463,173.74l-1.66-.944.231-1.468,1.66.944Z" transform="translate(-360.239 -161.403)" fill="#42ffff" opacity="0.5"/>
        <path id="Path_10671" data-name="Path 10671" d="M374.974,178.6l-9.872-5.614.231-1.467,9.872,5.614Z" transform="translate(-357.726 -161.457)" fill="#42ffff" opacity="0.5"/>
        <path id="Path_10672" data-name="Path 10672" d="M382.882,183.094l-2.442-1.389.23-1.467,2.443,1.389Z" transform="translate(-362.156 -163.977)" fill="#42ffff" opacity="0.5"/>
        <path id="Path_10673" data-name="Path 10673" d="M367.036,179.217l-2.675-1.521.231-1.468,2.675,1.521Z" transform="translate(-357.512 -162.819)" fill="#42ffff" opacity="0.5"/>
        <path id="Path_10674" data-name="Path 10674" d="M374.82,183.643l-5.24-2.98.23-1.468,5.24,2.98Z" transform="translate(-359.019 -163.676)" fill="#42ffff" opacity="0.5"/>
        <path id="Path_10675" data-name="Path 10675" d="M380.065,186.626l-1.66-.944.231-1.468,1.66.944Z" transform="translate(-361.568 -165.125)" fill="#42ffff" opacity="0.5"/>
        <path id="Path_10676" data-name="Path 10676" d="M369.093,185.521l-5.472-3.112.231-1.468,5.472,3.112Z" transform="translate(-357.298 -164.18)" fill="#42ffff" opacity="0.5"/>
        <path id="Path_10677" data-name="Path 10677" d="M376.731,189.865l-3.958-2.251.231-1.468,3.958,2.25Z" transform="translate(-359.941 -165.683)" fill="#42ffff"/>
        <path id="Path_10678" data-name="Path 10678" d="M382.47,193.128l-2.675-1.521.231-1.467,2.675,1.521Z" transform="translate(-361.97 -166.837)" fill="#42ffff" opacity="0.5"/>
        <path id="Path_10679" data-name="Path 10679" d="M364.729,188.174l-1.848-1.051.231-1.468,1.848,1.051Z" transform="translate(-357.085 -165.541)" fill="#42ffff" opacity="0.5"/>
        <path id="Path_10680" data-name="Path 10680" d="M369.379,190.819l-2.443-1.389.231-1.468,2.443,1.389Z" transform="translate(-358.256 -166.208)" fill="#42ffff" opacity="0.5"/>
        <path id="Path_10681" data-name="Path 10681" d="M375.764,194.45l-3.936-2.238.231-1.468,3.936,2.238Z" transform="translate(-359.669 -167.011)" fill="#42ffff" opacity="0.5"/>
        <path id="Path_10682" data-name="Path 10682" d="M367.8,195.056l-5.662-3.22.231-1.468,5.662,3.22Z" transform="translate(-356.87 -166.903)" fill="#42ffff" opacity="0.5"/>
        <path id="Path_10683" data-name="Path 10683" d="M376.862,200.209l-5.3-3.016.231-1.468,5.3,3.017Z" transform="translate(-359.59 -168.45)" fill="#42ffff" opacity="0.5"/>
        <path id="Path_10684" data-name="Path 10684" d="M382.134,203.207l-1.659-.944.231-1.468,1.66.944Z" transform="translate(-362.166 -169.914)" fill="#42ffff"/>
        <path id="Path_10685" data-name="Path 10685" d="M385.772,205.277l-1.66-.944.231-1.468,1.66.944Z" transform="translate(-363.216 -170.512)" fill="#42ffff" opacity="0.5"/>
        <path id="Path_10686" data-name="Path 10686" d="M364.792,198.48l-3.392-1.929.231-1.468,3.392,1.929Z" transform="translate(-356.657 -168.264)" fill="#42ffff" opacity="0.5"/>
        <path id="Path_10687" data-name="Path 10687" d="M392.04,172.9l4.7,2.675.231-1.467-4.7-2.675Z" transform="translate(-365.506 -161.433)" fill="#42ffff"/>
        <path id="Path_10688" data-name="Path 10688" d="M392.717,178.417l3.7,2.1.231-1.468-3.7-2.1Z" transform="translate(-365.702 -163.027)" fill="#42ffff" opacity="0.5"/>
        <path id="Path_10689" data-name="Path 10689" d="M393.413,183.948l2.675,1.521.231-1.467-2.675-1.521Z" transform="translate(-365.903 -164.624)" fill="#42ffff" opacity="0.5"/>
        <path id="Path_10690" data-name="Path 10690" d="M390.963,187.689l3.891,2.212.23-1.468-3.89-2.212Z" transform="translate(-365.195 -165.705)" fill="#42ffff" opacity="0.5"/>
        <path id="Path_10691" data-name="Path 10691" d="M391.932,193.375l2.675,1.521.231-1.468-2.675-1.521Z" transform="translate(-365.475 -167.347)" fill="#42ffff" opacity="0.5"/>
        <path id="Path_10692" data-name="Path 10692" d="M390.183,197.515l3.392,1.929.23-1.467-3.392-1.929Z" transform="translate(-364.97 -168.543)" fill="#42ffff" opacity="0.5"/>
        <path id="Path_10693" data-name="Path 10693" d="M391.613,203.463l1.848,1.052.231-1.468L391.844,202Z" transform="translate(-365.383 -170.261)" fill="#42ffff" opacity="0.5"/>
        <path id="Path_10694" data-name="Path 10694" d="M388.436,206.791l3.581,2.037.231-1.468-3.581-2.037Z" transform="translate(-364.465 -171.222)" fill="#42ffff" opacity="0.5"/>
        <path id="Path_10695" data-name="Path 10695" d="M387.961,211.656l3.392,1.929.231-1.468-3.392-1.929Z" transform="translate(-364.328 -172.627)" fill="#42ffff" opacity="0.5"/>
        <path id="Path_10696" data-name="Path 10696" d="M369.069,200.912l-1.442-.82.23-1.468,1.443.82Z" transform="translate(-358.455 -169.287)" fill="#42ffff" opacity="0.5"/>
        <path id="Path_10697" data-name="Path 10697" d="M374.359,203.921l-3.247-1.847.23-1.468,3.248,1.847Z" transform="translate(-359.462 -169.859)" fill="#42ffff" opacity="0.5"/>
        <path id="Path_10698" data-name="Path 10698" d="M411.111,183.655l-6.784-3.858.231-1.468,6.784,3.858Z" transform="translate(-369.055 -163.425)" fill="#42ffff" opacity="0.5"/>
        <path id="Path_10699" data-name="Path 10699" d="M417.766,187.44l-2.443-1.389.231-1.468L418,185.972Z" transform="translate(-372.231 -165.232)" fill="#42ffff" opacity="0.5"/>
        <path id="Path_10700" data-name="Path 10700" d="M421.875,189.777l-1.659-.944.23-1.468,1.661.944Z" transform="translate(-373.644 -166.035)" fill="#42ffff"/>
        <path id="Path_10701" data-name="Path 10701" d="M407.283,186.613l-3.7-2.1.231-1.467,3.7,2.1Z" transform="translate(-368.841 -164.787)" fill="#42ffff" opacity="0.5"/>
        <path id="Path_10702" data-name="Path 10702" d="M414.772,190.871l-4.53-2.576.231-1.468L415,189.4Z" transform="translate(-370.763 -165.88)" fill="#42ffff" opacity="0.5"/>
        <path id="Path_10703" data-name="Path 10703" d="M419.728,193.69l-1.66-.944.231-1.468,1.66.944Z" transform="translate(-373.023 -167.166)" fill="#42ffff"/>
        <path id="Path_10704" data-name="Path 10704" d="M423.336,195.742l-1.659-.944.23-1.467,1.66.944Z" transform="translate(-374.066 -167.758)" fill="#42ffff" opacity="0.5"/>
        <path id="Path_10705" data-name="Path 10705" d="M405.521,190.745l-2.675-1.521.231-1.468,2.675,1.521Z" transform="translate(-368.627 -166.148)" fill="#42ffff" opacity="0.5"/>
        <path id="Path_10706" data-name="Path 10706" d="M408.979,192.711l-.914-.52.231-1.468.914.52Z" transform="translate(-370.134 -167.005)" fill="#42ffff" opacity="0.5"/>
        <path id="Path_10707" data-name="Path 10707" d="M412.467,194.7l-1.66-.944.231-1.468,1.66.944Z" transform="translate(-370.926 -167.456)" fill="#42ffff" opacity="0.5"/>
        <path id="Path_10708" data-name="Path 10708" d="M411.977,199.552l-9.872-5.614.231-1.468,9.872,5.614Z" transform="translate(-368.413 -167.51)" fill="#42ffff" opacity="0.5"/>
        <path id="Path_10709" data-name="Path 10709" d="M419.886,204.05l-2.443-1.389.231-1.468,2.443,1.389Z" transform="translate(-372.843 -170.029)" fill="#42ffff" opacity="0.5"/>
        <path id="Path_10710" data-name="Path 10710" d="M404.04,200.172l-2.675-1.521.231-1.468,2.675,1.521Z" transform="translate(-368.199 -168.871)" fill="#42ffff" opacity="0.5"/>
        <path id="Path_10711" data-name="Path 10711" d="M411.823,204.6l-5.24-2.98.231-1.467,5.24,2.98Z" transform="translate(-369.706 -169.728)" fill="#42ffff" opacity="0.5"/>
        <path id="Path_10712" data-name="Path 10712" d="M417.069,207.582l-1.66-.944.231-1.467,1.659.944Z" transform="translate(-372.255 -171.178)" fill="#42ffff" opacity="0.5"/>
        <path id="Path_10713" data-name="Path 10713" d="M406.1,206.477l-5.472-3.112.231-1.467,5.472,3.112Z" transform="translate(-367.986 -170.232)" fill="#42ffff"/>
        <path id="Path_10714" data-name="Path 10714" d="M413.734,210.82l-3.957-2.25.231-1.468,3.957,2.25Z" transform="translate(-370.629 -171.736)" fill="#42ffff" opacity="0.5"/>
        <path id="Path_10715" data-name="Path 10715" d="M419.473,214.084l-2.674-1.521.23-1.467,2.675,1.521Z" transform="translate(-372.657 -172.889)" fill="#42ffff" opacity="0.5"/>
        <path id="Path_10716" data-name="Path 10716" d="M401.733,209.13l-1.849-1.051.231-1.468,1.849,1.051Z" transform="translate(-367.771 -171.594)" fill="#42ffff" opacity="0.5"/>
        <path id="Path_10717" data-name="Path 10717" d="M406.383,211.775l-2.443-1.389.231-1.467,2.443,1.389Z" transform="translate(-368.943 -172.26)" fill="#42ffff" opacity="0.5"/>
        <path id="Path_10718" data-name="Path 10718" d="M412.768,215.406l-3.936-2.238.231-1.468L413,213.938Z" transform="translate(-370.356 -173.063)" fill="#42ffff"/>
        <path id="Path_10719" data-name="Path 10719" d="M404.805,216.013l-5.662-3.22.231-1.468,5.662,3.22Z" transform="translate(-367.558 -172.955)" fill="#42ffff" opacity="0.5"/>
        <path id="Path_10720" data-name="Path 10720" d="M413.866,221.165l-5.3-3.017.231-1.467,5.3,3.017Z" transform="translate(-370.278 -174.502)" fill="#42ffff" opacity="0.5"/>
        <path id="Path_10721" data-name="Path 10721" d="M419.138,224.163l-1.659-.944.23-1.467,1.66.944Z" transform="translate(-372.853 -175.967)" fill="#42ffff" opacity="0.5"/>
        <path id="Path_10722" data-name="Path 10722" d="M422.776,226.232l-1.66-.943.231-1.468,1.66.944Z" transform="translate(-373.904 -176.564)" fill="#42ffff" opacity="0.5"/>
        <path id="Path_10723" data-name="Path 10723" d="M401.8,219.435l-3.392-1.929.231-1.467,3.392,1.929Z" transform="translate(-367.344 -174.317)" fill="#42ffff" opacity="0.5"/>
        <path id="Path_10724" data-name="Path 10724" d="M429.044,193.853l4.7,2.675.231-1.467-4.7-2.675Z" transform="translate(-376.193 -167.485)" fill="#42ffff"/>
        <path id="Path_10725" data-name="Path 10725" d="M429.72,199.373l3.7,2.1.23-1.468-3.7-2.1Z" transform="translate(-376.388 -169.079)" fill="#42ffff" opacity="0.5"/>
        <path id="Path_10726" data-name="Path 10726" d="M430.417,204.9l2.675,1.521.231-1.468-2.675-1.521Z" transform="translate(-376.59 -170.677)" fill="#42ffff" opacity="0.5"/>
        <path id="Path_10727" data-name="Path 10727" d="M427.967,208.645l3.89,2.212.23-1.468-3.89-2.212Z" transform="translate(-375.882 -171.757)" fill="#42ffff" opacity="0.5"/>
        <path id="Path_10728" data-name="Path 10728" d="M428.936,214.331l2.675,1.521.231-1.467-2.675-1.521Z" transform="translate(-376.162 -173.399)" fill="#42ffff" opacity="0.5"/>
        <path id="Path_10729" data-name="Path 10729" d="M427.187,218.47l3.392,1.929.231-1.468L427.417,217Z" transform="translate(-375.657 -174.595)" fill="#42ffff" opacity="0.5"/>
        <path id="Path_10730" data-name="Path 10730" d="M428.616,224.419l1.848,1.051L430.7,224l-1.848-1.051Z" transform="translate(-376.07 -176.313)" fill="#42ffff" opacity="0.5"/>
        <path id="Path_10731" data-name="Path 10731" d="M425.44,227.747l3.581,2.037.231-1.468-3.581-2.036Z" transform="translate(-375.152 -177.274)" fill="#42ffff" opacity="0.5"/>
        <path id="Path_10732" data-name="Path 10732" d="M424.965,232.611l3.392,1.929.231-1.468-3.392-1.929Z" transform="translate(-375.015 -178.679)" fill="#42ffff" opacity="0.5"/>
        <path id="Path_10733" data-name="Path 10733" d="M406.073,221.868l-1.443-.82.231-1.468,1.443.82Z" transform="translate(-369.142 -175.339)" fill="#42ffff"/>
        <path id="Path_10734" data-name="Path 10734" d="M411.363,224.877l-3.248-1.847.231-1.468,3.247,1.847Z" transform="translate(-370.149 -175.912)" fill="#42ffff" opacity="0.5"/>
        <path id="Path_10735" data-name="Path 10735" d="M367.439,205.15l-6.784-3.858.23-1.468,6.784,3.858Z" transform="translate(-356.442 -169.634)" fill="#42ffff" opacity="0.5"/>
        <path id="Path_10736" data-name="Path 10736" d="M374.094,208.934l-2.443-1.389.231-1.468,2.443,1.389Z" transform="translate(-359.618 -171.44)" fill="#42ffff" opacity="0.5"/>
        <path id="Path_10737" data-name="Path 10737" d="M378.2,211.271l-1.66-.944.23-1.468,1.66.944Z" transform="translate(-361.03 -172.243)" fill="#42ffff" opacity="0.5"/>
        <path id="Path_10738" data-name="Path 10738" d="M363.611,208.107l-3.7-2.1.231-1.468,3.7,2.1Z" transform="translate(-356.228 -170.995)" fill="#42ffff" opacity="0.5"/>
        <path id="Path_10739" data-name="Path 10739" d="M371.1,212.366l-4.53-2.576.231-1.467,4.53,2.576Z" transform="translate(-358.15 -172.088)" fill="#42ffff" opacity="0.5"/>
        <path id="Path_10740" data-name="Path 10740" d="M376.056,215.185l-1.66-.944.231-1.467,1.66.944Z" transform="translate(-360.41 -173.373)" fill="#42ffff" opacity="0.5"/>
        <path id="Path_10741" data-name="Path 10741" d="M379.664,217.237l-1.66-.944.231-1.468,1.66.944Z" transform="translate(-361.452 -173.966)" fill="#42ffff" opacity="0.5"/>
        <path id="Path_10742" data-name="Path 10742" d="M361.849,212.239l-2.675-1.521.231-1.468,2.674,1.521Z" transform="translate(-356.014 -172.356)" fill="#42ffff" opacity="0.5"/>
        <path id="Path_10743" data-name="Path 10743" d="M365.306,214.206l-.915-.52.231-1.467.914.52Z" transform="translate(-357.521 -173.213)" fill="#42ffff" opacity="0.5"/>
        <path id="Path_10744" data-name="Path 10744" d="M368.795,216.19l-1.66-.944.231-1.468,1.659.944Z" transform="translate(-358.313 -173.664)" fill="#42ffff" opacity="0.5"/>
        <path id="Path_10745" data-name="Path 10745" d="M368.305,221.047l-9.872-5.615.231-1.468,9.871,5.614Z" transform="translate(-355.8 -173.718)" fill="#42ffff" opacity="0.5"/>
        <path id="Path_10746" data-name="Path 10746" d="M376.214,225.545l-2.443-1.39.231-1.467,2.443,1.389Z" transform="translate(-360.23 -176.237)" fill="#42ffff" opacity="0.5"/>
        <path id="Path_10747" data-name="Path 10747" d="M360.367,221.667l-2.674-1.521.23-1.468L360.6,220.2Z" transform="translate(-355.586 -175.079)" fill="#42ffff" opacity="0.5"/>
        <path id="Path_10748" data-name="Path 10748" d="M368.151,226.094l-5.24-2.98.23-1.468,5.241,2.98Z" transform="translate(-357.093 -175.936)" fill="#42ffff" opacity="0.5"/>
        <path id="Path_10749" data-name="Path 10749" d="M373.4,229.076l-1.66-.944.231-1.468,1.66.944Z" transform="translate(-359.642 -177.386)" fill="#42ffff" opacity="0.5"/>
        <path id="Path_10750" data-name="Path 10750" d="M362.424,227.972l-5.472-3.112.231-1.468,5.472,3.112Z" transform="translate(-355.372 -176.44)" fill="#42ffff" opacity="0.5"/>
        <path id="Path_10751" data-name="Path 10751" d="M370.062,232.315l-3.957-2.251.231-1.467,3.957,2.251Z" transform="translate(-358.016 -177.943)" fill="#42ffff" opacity="0.5"/>
        <path id="Path_10752" data-name="Path 10752" d="M375.8,235.579l-2.675-1.521.231-1.468,2.675,1.521Z" transform="translate(-360.043 -179.097)" fill="#42ffff" opacity="0.5"/>
        <path id="Path_10753" data-name="Path 10753" d="M358.06,230.625l-1.848-1.051.231-1.468,1.848,1.051Z" transform="translate(-355.158 -177.802)" fill="#42ffff" opacity="0.5"/>
        <path id="Path_10754" data-name="Path 10754" d="M362.71,233.27l-2.443-1.389.231-1.468,2.443,1.389Z" transform="translate(-356.33 -178.468)" fill="#42ffff" opacity="0.5"/>
        <path id="Path_10755" data-name="Path 10755" d="M369.1,236.9l-3.935-2.238.231-1.467,3.935,2.238Z" transform="translate(-357.743 -179.272)" fill="#42ffff" opacity="0.5"/>
        <path id="Path_10756" data-name="Path 10756" d="M361.133,237.507l-5.662-3.22.231-1.467,5.661,3.219Z" transform="translate(-354.944 -179.163)" fill="#42ffff" opacity="0.5"/>
        <path id="Path_10757" data-name="Path 10757" d="M370.194,242.66l-5.3-3.017.231-1.468,5.3,3.017Z" transform="translate(-357.665 -180.71)" fill="#42ffff" opacity="0.5"/>
        <path id="Path_10758" data-name="Path 10758" d="M375.466,245.657l-1.66-.944.231-1.468,1.66.945Z" transform="translate(-360.24 -182.174)" fill="#42ffff" opacity="0.5"/>
        <path id="Path_10759" data-name="Path 10759" d="M379.1,247.727l-1.659-.944.23-1.468,1.66.944Z" transform="translate(-361.291 -182.772)" fill="#42ffff" opacity="0.5"/>
        <path id="Path_10760" data-name="Path 10760" d="M358.122,240.93,354.731,239l.231-1.468,3.392,1.929Z" transform="translate(-354.731 -180.524)" fill="#42ffff" opacity="0.5"/>
        <path id="Path_10761" data-name="Path 10761" d="M385.371,215.348l4.7,2.675.231-1.468-4.7-2.675Z" transform="translate(-363.58 -173.693)" fill="#42ffff" opacity="0.5"/>
        <path id="Path_10762" data-name="Path 10762" d="M386.048,220.867l3.7,2.1.23-1.467-3.7-2.1Z" transform="translate(-363.775 -175.287)" fill="#42ffff" opacity="0.5"/>
        <path id="Path_10763" data-name="Path 10763" d="M386.744,226.4l2.675,1.521.231-1.468-2.675-1.521Z" transform="translate(-363.977 -176.885)" fill="#42ffff" opacity="0.5"/>
        <path id="Path_10764" data-name="Path 10764" d="M384.294,230.139l3.891,2.213.23-1.468-3.89-2.213Z" transform="translate(-363.269 -177.965)" fill="#42ffff" opacity="0.5"/>
        <path id="Path_10765" data-name="Path 10765" d="M385.264,235.826l2.675,1.521.23-1.468-2.674-1.521Z" transform="translate(-363.549 -179.607)" fill="#42ffff" opacity="0.5"/>
        <path id="Path_10766" data-name="Path 10766" d="M383.514,239.966l3.392,1.929.231-1.467-3.392-1.929Z" transform="translate(-363.044 -180.803)" fill="#42ffff" opacity="0.5"/>
        <path id="Path_10767" data-name="Path 10767" d="M384.944,245.914l1.848,1.051.231-1.468-1.848-1.051Z" transform="translate(-363.457 -182.521)" fill="#42ffff" opacity="0.5"/>
        <path id="Path_10768" data-name="Path 10768" d="M381.767,249.242l3.582,2.036.231-1.468L382,247.773Z" transform="translate(-362.539 -183.482)" fill="#42ffff" opacity="0.5"/>
        <path id="Path_10769" data-name="Path 10769" d="M381.292,254.107l3.393,1.929.23-1.468-3.392-1.929Z" transform="translate(-362.402 -184.887)" fill="#42ffff" opacity="0.5"/>
        <path id="Path_10770" data-name="Path 10770" d="M362.4,243.362l-1.443-.82.231-1.468,1.443.821Z" transform="translate(-356.529 -181.547)" fill="#42ffff" opacity="0.5"/>
        <path id="Path_10771" data-name="Path 10771" d="M367.69,246.371l-3.247-1.847.231-1.467,3.247,1.847Z" transform="translate(-357.536 -182.12)" fill="#42ffff" opacity="0.5"/>
        <path id="Path_10772" data-name="Path 10772" d="M368.408,261.711l-5.48-3.116.231-1.467,5.48,3.116Z" transform="translate(-357.098 -186.184)" fill="#42ffff" opacity="0.5"/>
        <path id="Path_10773" data-name="Path 10773" d="M375.033,265.48l-2.159-1.228.231-1.467,2.158,1.227Z" transform="translate(-359.971 -187.817)" fill="#42ffff" opacity="0.5"/>
        <path id="Path_10774" data-name="Path 10774" d="M404.442,226.105l-6.784-3.858.231-1.468,6.784,3.858Z" transform="translate(-367.129 -175.686)" fill="#42ffff" opacity="0.5"/>
        <path id="Path_10775" data-name="Path 10775" d="M411.1,229.89l-2.443-1.389.231-1.468,2.443,1.389Z" transform="translate(-370.305 -177.492)" fill="#42ffff" opacity="0.5"/>
        <path id="Path_10776" data-name="Path 10776" d="M415.207,232.227l-1.66-.944.231-1.468,1.66.944Z" transform="translate(-371.718 -178.295)" fill="#42ffff" opacity="0.5"/>
        <path id="Path_10777" data-name="Path 10777" d="M400.614,229.063l-3.7-2.1.23-1.467,3.7,2.1Z" transform="translate(-366.915 -177.047)" fill="#42ffff" opacity="0.5"/>
        <path id="Path_10778" data-name="Path 10778" d="M408.1,233.322l-4.53-2.576.231-1.468,4.53,2.576Z" transform="translate(-368.837 -178.14)" fill="#42ffff" opacity="0.5"/>
        <path id="Path_10779" data-name="Path 10779" d="M413.06,236.141,411.4,235.2l.23-1.467,1.66.944Z" transform="translate(-371.098 -179.426)" fill="#42ffff" opacity="0.5"/>
        <path id="Path_10780" data-name="Path 10780" d="M416.668,238.193l-1.66-.944.231-1.467,1.66.944Z" transform="translate(-372.139 -180.018)" fill="#42ffff" opacity="0.5"/>
        <path id="Path_10781" data-name="Path 10781" d="M398.852,233.2l-2.674-1.521.231-1.468,2.674,1.521Z" transform="translate(-366.701 -178.409)" fill="#42ffff" opacity="0.5"/>
        <path id="Path_10782" data-name="Path 10782" d="M402.31,235.162l-.914-.52.231-1.468.914.52Z" transform="translate(-368.208 -179.266)" fill="#42ffff" opacity="0.5"/>
        <path id="Path_10783" data-name="Path 10783" d="M405.8,237.146l-1.66-.944.231-1.468,1.659.944Z" transform="translate(-369 -179.716)" fill="#42ffff" opacity="0.5"/>
        <path id="Path_10784" data-name="Path 10784" d="M405.309,242l-9.872-5.614.231-1.468,9.871,5.614Z" transform="translate(-366.487 -179.77)" fill="#42ffff" opacity="0.5"/>
        <path id="Path_10785" data-name="Path 10785" d="M413.217,246.5l-2.443-1.389.231-1.467,2.442,1.389Z" transform="translate(-370.917 -182.289)" fill="#42ffff" opacity="0.5"/>
        <path id="Path_10786" data-name="Path 10786" d="M397.371,242.623,394.7,241.1l.231-1.467,2.675,1.521Z" transform="translate(-366.273 -181.131)" fill="#42ffff" opacity="0.5"/>
        <path id="Path_10787" data-name="Path 10787" d="M405.155,247.049l-5.241-2.98.231-1.468,5.24,2.98Z" transform="translate(-367.78 -181.988)" fill="#42ffff" opacity="0.5"/>
        <path id="Path_10788" data-name="Path 10788" d="M410.4,250.032l-1.66-.944.231-1.467,1.66.944Z" transform="translate(-370.329 -183.438)" fill="#42ffff" opacity="0.5"/>
        <path id="Path_10789" data-name="Path 10789" d="M399.428,248.927l-5.472-3.111.231-1.468,5.472,3.112Z" transform="translate(-366.059 -182.493)" fill="#42ffff" opacity="0.5"/>
        <path id="Path_10790" data-name="Path 10790" d="M407.065,253.271l-3.957-2.251.231-1.468L407.3,251.8Z" transform="translate(-368.703 -183.996)" fill="#42ffff" opacity="0.5"/>
        <path id="Path_10791" data-name="Path 10791" d="M412.8,256.534l-2.675-1.521.231-1.468,2.675,1.521Z" transform="translate(-370.731 -185.149)" fill="#42ffff" opacity="0.5"/>
        <path id="Path_10792" data-name="Path 10792" d="M395.064,251.581l-1.848-1.051.23-1.467,1.849,1.051Z" transform="translate(-365.846 -183.854)" fill="#42ffff" opacity="0.5"/>
        <path id="Path_10793" data-name="Path 10793" d="M399.714,254.225l-2.443-1.389.231-1.467,2.443,1.389Z" transform="translate(-367.017 -184.52)" fill="#42ffff" opacity="0.5"/>
        <path id="Path_10794" data-name="Path 10794" d="M406.1,257.856l-3.935-2.238.23-1.468,3.936,2.238Z" transform="translate(-368.43 -185.324)" fill="#42ffff" opacity="0.5"/>
        <path id="Path_10795" data-name="Path 10795" d="M398.136,258.463l-5.662-3.22.231-1.468,5.662,3.22Z" transform="translate(-365.632 -185.215)" fill="#42ffff" opacity="0.5"/>
        <path id="Path_10796" data-name="Path 10796" d="M407.2,263.616l-5.3-3.017.231-1.468,5.3,3.016Z" transform="translate(-368.352 -186.762)" fill="#42ffff" opacity="0.5"/>
        <path id="Path_10797" data-name="Path 10797" d="M412.469,266.614l-1.659-.944.231-1.467,1.659.944Z" transform="translate(-370.927 -188.227)" fill="#42ffff" opacity="0.5"/>
        <path id="Path_10798" data-name="Path 10798" d="M416.107,268.683l-1.66-.944.231-1.468,1.66.944Z" transform="translate(-371.978 -188.825)" fill="#42ffff" opacity="0.5"/>
        <path id="Path_10799" data-name="Path 10799" d="M395.127,261.886l-3.392-1.929.231-1.467,3.392,1.929Z" transform="translate(-365.418 -186.577)" fill="#42ffff" opacity="0.5"/>
        <path id="Path_10800" data-name="Path 10800" d="M422.375,236.3l4.7,2.675.231-1.467-4.7-2.675Z" transform="translate(-374.267 -179.745)" fill="#42ffff" opacity="0.5"/>
        <path id="Path_10801" data-name="Path 10801" d="M423.052,241.823l3.7,2.1.231-1.467-3.7-2.1Z" transform="translate(-374.463 -181.34)" fill="#42ffff" opacity="0.5"/>
        <path id="Path_10802" data-name="Path 10802" d="M423.748,247.354l2.674,1.52.231-1.467-2.675-1.521Z" transform="translate(-374.664 -182.937)" fill="#42ffff" opacity="0.5"/>
        <path id="Path_10803" data-name="Path 10803" d="M421.3,251.1l3.89,2.213.231-1.468-3.89-2.212Z" transform="translate(-373.956 -184.018)" fill="#42ffff" opacity="0.5"/>
        <path id="Path_10804" data-name="Path 10804" d="M422.267,256.781l2.675,1.521.231-1.467-2.675-1.522Z" transform="translate(-374.236 -185.66)" fill="#42ffff" opacity="0.5"/>
        <path id="Path_10805" data-name="Path 10805" d="M420.518,260.921l3.392,1.929.231-1.468-3.392-1.929Z" transform="translate(-373.731 -186.855)" fill="#42ffff" opacity="0.5"/>
        <path id="Path_10806" data-name="Path 10806" d="M421.947,266.87l1.849,1.051.231-1.468-1.849-1.051Z" transform="translate(-374.144 -188.573)" fill="#42ffff" opacity="0.5"/>
        <path id="Path_10807" data-name="Path 10807" d="M418.771,270.2l3.581,2.037.231-1.467L419,268.729Z" transform="translate(-373.226 -189.534)" fill="#42ffff" opacity="0.5"/>
        <path id="Path_10808" data-name="Path 10808" d="M418.3,275.062l3.392,1.929.231-1.468-3.392-1.929Z" transform="translate(-373.089 -190.939)" fill="#42ffff" opacity="0.5"/>
        <path id="Path_10809" data-name="Path 10809" d="M399.4,264.319l-1.443-.821.231-1.467,1.442.82Z" transform="translate(-367.216 -187.6)" fill="#42ffff" opacity="0.5"/>
        <path id="Path_10810" data-name="Path 10810" d="M404.694,267.327l-3.247-1.847.231-1.468,3.247,1.847Z" transform="translate(-368.223 -188.172)" fill="#42ffff" opacity="0.5"/>
        <path id="Path_10811" data-name="Path 10811" d="M405.411,282.667l-5.479-3.116.231-1.467,5.479,3.116Z" transform="translate(-367.785 -192.236)" fill="#42ffff" opacity="0.5"/>
        <path id="Path_10812" data-name="Path 10812" d="M412.036,286.435l-2.158-1.227.231-1.467,2.158,1.227Z" transform="translate(-370.658 -193.87)" fill="#42ffff" opacity="0.5"/>
      </g>
      <g id="Group_3377" data-name="Group 3377" transform="translate(110.448 23.696)">
        <path id="Path_10813" data-name="Path 10813" d="M285.177,111.677l-6.784-3.858.231-1.467,6.784,3.858Z" transform="translate(-269.437 -106.352)" fill="#42ffff" opacity="0.5"/>
        <path id="Path_10814" data-name="Path 10814" d="M291.831,115.462l-2.442-1.389.231-1.467,2.442,1.389Z" transform="translate(-272.613 -108.158)" fill="#42ffff" opacity="0.5"/>
        <path id="Path_10815" data-name="Path 10815" d="M295.941,117.8l-1.66-.944.231-1.467,1.66.944Z" transform="translate(-274.026 -108.961)" fill="#42ffff" opacity="0.5"/>
        <path id="Path_10816" data-name="Path 10816" d="M281.349,114.635l-3.7-2.1.23-1.468,3.7,2.1Z" transform="translate(-269.223 -107.713)" fill="#42ffff" opacity="0.5"/>
        <path id="Path_10817" data-name="Path 10817" d="M288.837,118.894l-4.53-2.576.231-1.468,4.53,2.576Z" transform="translate(-271.145 -108.806)" fill="#42ffff" opacity="0.5"/>
        <path id="Path_10818" data-name="Path 10818" d="M293.794,121.713l-1.66-.944.231-1.467,1.66.944Z" transform="translate(-273.406 -110.092)" fill="#42ffff" opacity="0.5"/>
        <path id="Path_10819" data-name="Path 10819" d="M297.4,123.764l-1.66-.944.231-1.468,1.66.944Z" transform="translate(-274.448 -110.684)" fill="#42ffff" opacity="0.5"/>
        <path id="Path_10820" data-name="Path 10820" d="M279.586,118.768l-2.674-1.521.23-1.468,2.674,1.521Z" transform="translate(-269.009 -109.074)" fill="#42ffff"/>
        <path id="Path_10821" data-name="Path 10821" d="M283.044,120.734l-.914-.52.231-1.468.914.52Z" transform="translate(-270.516 -109.931)" fill="#42ffff"/>
        <path id="Path_10822" data-name="Path 10822" d="M286.532,122.718l-1.66-.944.231-1.468,1.66.944Z" transform="translate(-271.308 -110.382)" fill="#42ffff" opacity="0.5"/>
        <path id="Path_10823" data-name="Path 10823" d="M286.043,127.574l-9.872-5.614.231-1.467,9.872,5.614Z" transform="translate(-268.795 -110.436)" fill="#42ffff" opacity="0.5"/>
        <path id="Path_10824" data-name="Path 10824" d="M293.952,132.072l-2.442-1.389.23-1.467,2.443,1.389Z" transform="translate(-273.225 -112.955)" fill="#42ffff" opacity="0.5"/>
        <path id="Path_10825" data-name="Path 10825" d="M278.105,128.2l-2.675-1.521.231-1.468,2.674,1.521Z" transform="translate(-268.581 -111.797)" fill="#42ffff" opacity="0.5"/>
        <path id="Path_10826" data-name="Path 10826" d="M285.889,132.622l-5.24-2.98.231-1.468,5.24,2.98Z" transform="translate(-270.088 -112.654)" fill="#42ffff" opacity="0.5"/>
        <path id="Path_10827" data-name="Path 10827" d="M291.134,135.6l-1.66-.944.23-1.467,1.66.944Z" transform="translate(-272.638 -114.104)" fill="#42ffff" opacity="0.5"/>
        <path id="Path_10828" data-name="Path 10828" d="M280.162,134.5l-5.472-3.112.231-1.468,5.472,3.112Z" transform="translate(-268.368 -113.158)" fill="#42ffff" opacity="0.5"/>
        <path id="Path_10829" data-name="Path 10829" d="M287.8,138.843l-3.957-2.25.231-1.468,3.957,2.25Z" transform="translate(-271.011 -114.662)" fill="#42ffff"/>
        <path id="Path_10830" data-name="Path 10830" d="M293.538,142.107l-2.675-1.521.231-1.467,2.675,1.521Z" transform="translate(-273.039 -115.815)" fill="#42ffff" opacity="0.5"/>
        <path id="Path_10831" data-name="Path 10831" d="M275.8,137.152,273.95,136.1l.23-1.468,1.848,1.051Z" transform="translate(-268.154 -114.52)" fill="#42ffff" opacity="0.5"/>
        <path id="Path_10832" data-name="Path 10832" d="M280.448,139.8l-2.443-1.389.231-1.468,2.443,1.389Z" transform="translate(-269.325 -115.186)" fill="#42ffff" opacity="0.5"/>
        <path id="Path_10833" data-name="Path 10833" d="M286.833,143.428,282.9,141.19l.231-1.467,3.936,2.238Z" transform="translate(-270.738 -115.99)" fill="#42ffff" opacity="0.5"/>
        <path id="Path_10834" data-name="Path 10834" d="M278.871,144.035l-5.662-3.22.231-1.467,5.662,3.22Z" transform="translate(-267.94 -115.881)" fill="#42ffff" opacity="0.5"/>
        <path id="Path_10835" data-name="Path 10835" d="M287.932,149.188l-5.3-3.017.231-1.468,5.3,3.017Z" transform="translate(-270.66 -117.428)" fill="#42ffff" opacity="0.5"/>
        <path id="Path_10836" data-name="Path 10836" d="M293.2,152.186l-1.66-.944.231-1.468,1.66.944Z" transform="translate(-273.235 -118.893)" fill="#42ffff"/>
        <path id="Path_10837" data-name="Path 10837" d="M296.842,154.255l-1.66-.944.231-1.467,1.66.944Z" transform="translate(-274.286 -119.49)" fill="#42ffff" opacity="0.5"/>
        <path id="Path_10838" data-name="Path 10838" d="M275.861,147.458l-3.392-1.929.231-1.468,3.392,1.929Z" transform="translate(-267.726 -117.243)" fill="#42ffff" opacity="0.5"/>
        <path id="Path_10839" data-name="Path 10839" d="M303.109,121.876l4.7,2.675.231-1.468-4.7-2.675Z" transform="translate(-276.575 -110.411)" fill="#42ffff"/>
        <path id="Path_10840" data-name="Path 10840" d="M303.785,127.4l3.7,2.1.231-1.468-3.7-2.1Z" transform="translate(-276.771 -112.006)" fill="#42ffff" opacity="0.5"/>
        <path id="Path_10841" data-name="Path 10841" d="M304.483,132.926l2.674,1.521.231-1.468-2.674-1.521Z" transform="translate(-276.972 -113.603)" fill="#42ffff" opacity="0.5"/>
        <path id="Path_10842" data-name="Path 10842" d="M302.032,136.667l3.89,2.212.23-1.467-3.89-2.212Z" transform="translate(-276.264 -114.683)" fill="#42ffff" opacity="0.5"/>
        <path id="Path_10843" data-name="Path 10843" d="M303,142.353l2.675,1.521.231-1.468-2.675-1.521Z" transform="translate(-276.544 -116.326)" fill="#42ffff" opacity="0.5"/>
        <path id="Path_10844" data-name="Path 10844" d="M301.252,146.493l3.392,1.929.231-1.468-3.392-1.929Z" transform="translate(-276.039 -117.521)" fill="#42ffff" opacity="0.5"/>
        <path id="Path_10845" data-name="Path 10845" d="M302.682,152.441l1.849,1.051.231-1.467-1.849-1.052Z" transform="translate(-276.452 -119.239)" fill="#42ffff" opacity="0.5"/>
        <path id="Path_10846" data-name="Path 10846" d="M299.5,155.769l3.581,2.037.231-1.468-3.581-2.037Z" transform="translate(-275.534 -120.2)" fill="#42ffff" opacity="0.5"/>
        <path id="Path_10847" data-name="Path 10847" d="M299.03,160.635l3.392,1.929.231-1.468-3.392-1.929Z" transform="translate(-275.397 -121.605)" fill="#42ffff" opacity="0.5"/>
        <path id="Path_10848" data-name="Path 10848" d="M280.138,149.89l-1.442-.82.231-1.468,1.443.82Z" transform="translate(-269.524 -118.265)" fill="#42ffff" opacity="0.5"/>
        <path id="Path_10849" data-name="Path 10849" d="M285.428,152.9l-3.247-1.846.23-1.467,3.247,1.846Z" transform="translate(-270.531 -118.838)" fill="#42ffff" opacity="0.5"/>
        <path id="Path_10850" data-name="Path 10850" d="M322.181,132.633l-6.784-3.858.231-1.468,6.784,3.858Z" transform="translate(-280.124 -112.404)" fill="#42ffff" opacity="0.5"/>
        <path id="Path_10851" data-name="Path 10851" d="M328.835,136.418l-2.443-1.389.231-1.468,2.443,1.389Z" transform="translate(-283.3 -114.21)" fill="#42ffff" opacity="0.5"/>
        <path id="Path_10852" data-name="Path 10852" d="M332.944,138.755l-1.66-.944.231-1.467,1.66.944Z" transform="translate(-284.713 -115.014)" fill="#42ffff"/>
        <path id="Path_10853" data-name="Path 10853" d="M318.353,135.591l-3.7-2.1.231-1.468,3.7,2.1Z" transform="translate(-279.91 -113.765)" fill="#42ffff" opacity="0.5"/>
        <path id="Path_10854" data-name="Path 10854" d="M325.841,139.85l-4.53-2.576.231-1.467,4.53,2.576Z" transform="translate(-281.832 -114.858)" fill="#42ffff" opacity="0.5"/>
        <path id="Path_10855" data-name="Path 10855" d="M330.8,142.668l-1.66-.944.231-1.468,1.66.944Z" transform="translate(-284.093 -116.144)" fill="#42ffff"/>
        <path id="Path_10856" data-name="Path 10856" d="M334.405,144.72l-1.66-.944.231-1.468,1.66.944Z" transform="translate(-285.135 -116.737)" fill="#42ffff" opacity="0.5"/>
        <path id="Path_10857" data-name="Path 10857" d="M316.59,139.723l-2.675-1.521.231-1.468,2.675,1.521Z" transform="translate(-279.696 -115.127)" fill="#42ffff" opacity="0.5"/>
        <path id="Path_10858" data-name="Path 10858" d="M320.047,141.69l-.914-.52.231-1.467.914.52Z" transform="translate(-281.203 -115.984)" fill="#42ffff" opacity="0.5"/>
        <path id="Path_10859" data-name="Path 10859" d="M323.536,143.674l-1.66-.944.231-1.467,1.66.944Z" transform="translate(-281.996 -116.434)" fill="#42ffff" opacity="0.5"/>
        <path id="Path_10860" data-name="Path 10860" d="M323.047,148.53l-9.872-5.614.231-1.468,9.872,5.615Z" transform="translate(-279.483 -116.488)" fill="#42ffff" opacity="0.5"/>
        <path id="Path_10861" data-name="Path 10861" d="M330.955,153.028l-2.443-1.389.231-1.468,2.443,1.389Z" transform="translate(-283.912 -119.007)" fill="#42ffff" opacity="0.5"/>
        <path id="Path_10862" data-name="Path 10862" d="M315.109,149.151l-2.675-1.521.231-1.468,2.675,1.521Z" transform="translate(-279.269 -117.849)" fill="#42ffff" opacity="0.5"/>
        <path id="Path_10863" data-name="Path 10863" d="M322.893,153.578l-5.24-2.98.231-1.468,5.24,2.98Z" transform="translate(-280.776 -118.707)" fill="#42ffff" opacity="0.5"/>
        <path id="Path_10864" data-name="Path 10864" d="M328.138,156.56l-1.66-.944.231-1.468,1.66.944Z" transform="translate(-283.325 -120.156)" fill="#42ffff" opacity="0.5"/>
        <path id="Path_10865" data-name="Path 10865" d="M317.166,155.456l-5.473-3.112.231-1.468,5.473,3.112Z" transform="translate(-279.055 -119.211)" fill="#42ffff"/>
        <path id="Path_10866" data-name="Path 10866" d="M324.8,159.8l-3.957-2.251.231-1.467,3.957,2.251Z" transform="translate(-281.698 -120.714)" fill="#42ffff" opacity="0.5"/>
        <path id="Path_10867" data-name="Path 10867" d="M330.542,163.063l-2.675-1.521.231-1.468,2.675,1.521Z" transform="translate(-283.726 -121.868)" fill="#42ffff" opacity="0.5"/>
        <path id="Path_10868" data-name="Path 10868" d="M312.8,158.108l-1.848-1.051.231-1.468,1.848,1.051Z" transform="translate(-278.841 -120.572)" fill="#42ffff" opacity="0.5"/>
        <path id="Path_10869" data-name="Path 10869" d="M317.452,160.753l-2.443-1.389.231-1.468,2.442,1.389Z" transform="translate(-280.012 -121.239)" fill="#42ffff" opacity="0.5"/>
        <path id="Path_10870" data-name="Path 10870" d="M323.837,164.384l-3.936-2.238.231-1.468,3.936,2.238Z" transform="translate(-281.425 -122.042)" fill="#42ffff"/>
        <path id="Path_10871" data-name="Path 10871" d="M315.875,164.99l-5.662-3.22.231-1.468,5.662,3.22Z" transform="translate(-278.627 -121.934)" fill="#42ffff" opacity="0.5"/>
        <path id="Path_10872" data-name="Path 10872" d="M324.936,170.144l-5.3-3.017.231-1.468,5.3,3.017Z" transform="translate(-281.347 -123.48)" fill="#42ffff" opacity="0.5"/>
        <path id="Path_10873" data-name="Path 10873" d="M330.207,173.141l-1.66-.944.231-1.468,1.66.944Z" transform="translate(-283.922 -124.945)" fill="#42ffff" opacity="0.5"/>
        <path id="Path_10874" data-name="Path 10874" d="M333.846,175.21l-1.66-.944.231-1.468,1.66.944Z" transform="translate(-284.973 -125.543)" fill="#42ffff" opacity="0.5"/>
        <path id="Path_10875" data-name="Path 10875" d="M312.865,168.414l-3.392-1.929.231-1.468,3.392,1.929Z" transform="translate(-278.413 -123.295)" fill="#42ffff" opacity="0.5"/>
        <path id="Path_10876" data-name="Path 10876" d="M340.113,142.832l4.7,2.675.231-1.467-4.7-2.675Z" transform="translate(-287.263 -116.464)" fill="#42ffff"/>
        <path id="Path_10877" data-name="Path 10877" d="M340.789,148.351l3.7,2.1.23-1.467-3.7-2.1Z" transform="translate(-287.458 -118.058)" fill="#42ffff" opacity="0.5"/>
        <path id="Path_10878" data-name="Path 10878" d="M341.485,153.882l2.675,1.521.231-1.468-2.675-1.521Z" transform="translate(-287.659 -119.655)" fill="#42ffff" opacity="0.5"/>
        <path id="Path_10879" data-name="Path 10879" d="M339.035,157.623l3.891,2.213.231-1.467-3.89-2.212Z" transform="translate(-286.951 -120.736)" fill="#42ffff" opacity="0.5"/>
        <path id="Path_10880" data-name="Path 10880" d="M340,163.309l2.675,1.521.231-1.467-2.674-1.521Z" transform="translate(-287.231 -122.378)" fill="#42ffff" opacity="0.5"/>
        <path id="Path_10881" data-name="Path 10881" d="M338.255,167.449l3.393,1.929.23-1.468-3.392-1.929Z" transform="translate(-286.726 -123.574)" fill="#42ffff" opacity="0.5"/>
        <path id="Path_10882" data-name="Path 10882" d="M339.686,173.4l1.848,1.051.231-1.468-1.848-1.051Z" transform="translate(-287.139 -125.292)" fill="#42ffff" opacity="0.5"/>
        <path id="Path_10883" data-name="Path 10883" d="M336.508,176.725l3.582,2.037.231-1.468-3.582-2.036Z" transform="translate(-286.221 -126.253)" fill="#42ffff" opacity="0.5"/>
        <path id="Path_10884" data-name="Path 10884" d="M336.034,181.59l3.391,1.929.231-1.467-3.392-1.929Z" transform="translate(-286.085 -127.658)" fill="#42ffff" opacity="0.5"/>
        <path id="Path_10885" data-name="Path 10885" d="M317.142,170.846l-1.442-.82.231-1.468,1.443.82Z" transform="translate(-280.212 -124.318)" fill="#42ffff"/>
        <path id="Path_10886" data-name="Path 10886" d="M322.431,173.854l-3.247-1.846.231-1.468,3.247,1.846Z" transform="translate(-281.218 -124.89)" fill="#42ffff" opacity="0.5"/>
        <path id="Path_10887" data-name="Path 10887" d="M278.508,154.128l-6.784-3.858.231-1.468,6.784,3.858Z" transform="translate(-267.511 -118.612)" fill="#42ffff" opacity="0.5"/>
        <path id="Path_10888" data-name="Path 10888" d="M285.163,157.912l-2.443-1.389.231-1.468,2.443,1.389Z" transform="translate(-270.687 -120.418)" fill="#42ffff" opacity="0.5"/>
        <path id="Path_10889" data-name="Path 10889" d="M289.272,160.249l-1.66-.944.231-1.468,1.66.944Z" transform="translate(-272.1 -121.222)" fill="#42ffff" opacity="0.5"/>
        <path id="Path_10890" data-name="Path 10890" d="M274.68,157.086l-3.7-2.1.231-1.468,3.7,2.1Z" transform="translate(-267.297 -119.973)" fill="#42ffff" opacity="0.5"/>
        <path id="Path_10891" data-name="Path 10891" d="M282.168,161.344l-4.53-2.576.231-1.468,4.53,2.576Z" transform="translate(-269.219 -121.066)" fill="#42ffff" opacity="0.5"/>
        <path id="Path_10892" data-name="Path 10892" d="M287.125,164.163l-1.66-.944.231-1.467,1.66.944Z" transform="translate(-271.48 -122.352)" fill="#42ffff" opacity="0.5"/>
        <path id="Path_10893" data-name="Path 10893" d="M290.733,166.215l-1.66-.944.231-1.468,1.66.944Z" transform="translate(-272.522 -122.945)" fill="#42ffff" opacity="0.5"/>
        <path id="Path_10894" data-name="Path 10894" d="M272.917,161.218l-2.675-1.521.231-1.467,2.675,1.521Z" transform="translate(-267.083 -121.335)" fill="#42ffff" opacity="0.5"/>
        <path id="Path_10895" data-name="Path 10895" d="M276.375,163.185l-.914-.52.231-1.467.914.519Z" transform="translate(-268.59 -122.192)" fill="#42ffff" opacity="0.5"/>
        <path id="Path_10896" data-name="Path 10896" d="M279.863,165.168l-1.66-.944.23-1.468,1.66.944Z" transform="translate(-269.382 -122.642)" fill="#42ffff" opacity="0.5"/>
        <path id="Path_10897" data-name="Path 10897" d="M279.374,170.025l-9.872-5.614.231-1.467,9.872,5.614Z" transform="translate(-266.869 -122.696)" fill="#42ffff" opacity="0.5"/>
        <path id="Path_10898" data-name="Path 10898" d="M287.283,174.523l-2.443-1.389.231-1.468,2.443,1.389Z" transform="translate(-271.299 -125.215)" fill="#42ffff" opacity="0.5"/>
        <path id="Path_10899" data-name="Path 10899" d="M271.436,170.646l-2.674-1.521.231-1.467,2.674,1.521Z" transform="translate(-266.655 -124.058)" fill="#42ffff" opacity="0.5"/>
        <path id="Path_10900" data-name="Path 10900" d="M279.22,175.072l-5.24-2.98.23-1.468,5.24,2.98Z" transform="translate(-268.163 -124.915)" fill="#42ffff" opacity="0.5"/>
        <path id="Path_10901" data-name="Path 10901" d="M284.466,178.055l-1.66-.944.231-1.467,1.659.944Z" transform="translate(-270.711 -126.364)" fill="#42ffff" opacity="0.5"/>
        <path id="Path_10902" data-name="Path 10902" d="M273.494,176.95l-5.472-3.112.231-1.468,5.472,3.112Z" transform="translate(-266.442 -125.419)" fill="#42ffff" opacity="0.5"/>
        <path id="Path_10903" data-name="Path 10903" d="M281.131,181.293l-3.957-2.251.231-1.468,3.957,2.251Z" transform="translate(-269.085 -126.922)" fill="#42ffff" opacity="0.5"/>
        <path id="Path_10904" data-name="Path 10904" d="M286.87,184.557l-2.674-1.521.23-1.467,2.675,1.521Z" transform="translate(-271.113 -128.075)" fill="#42ffff" opacity="0.5"/>
        <path id="Path_10905" data-name="Path 10905" d="M269.129,179.6l-1.849-1.051.231-1.468,1.848,1.051Z" transform="translate(-266.228 -126.78)" fill="#42ffff" opacity="0.5"/>
        <path id="Path_10906" data-name="Path 10906" d="M273.78,182.248l-2.443-1.389.231-1.468,2.443,1.389Z" transform="translate(-267.399 -127.446)" fill="#42ffff" opacity="0.5"/>
        <path id="Path_10907" data-name="Path 10907" d="M280.165,185.879l-3.935-2.238.23-1.467,3.936,2.238Z" transform="translate(-268.812 -128.25)" fill="#42ffff" opacity="0.5"/>
        <path id="Path_10908" data-name="Path 10908" d="M272.2,186.485l-5.661-3.22.23-1.467,5.662,3.22Z" transform="translate(-266.014 -128.142)" fill="#42ffff" opacity="0.5"/>
        <path id="Path_10909" data-name="Path 10909" d="M281.263,191.639l-5.3-3.017.231-1.468,5.3,3.017Z" transform="translate(-268.734 -129.689)" fill="#42ffff" opacity="0.5"/>
        <path id="Path_10910" data-name="Path 10910" d="M286.534,194.636l-1.66-.944.231-1.468,1.66.944Z" transform="translate(-271.309 -131.153)" fill="#42ffff" opacity="0.5"/>
        <path id="Path_10911" data-name="Path 10911" d="M290.173,196.705l-1.66-.944.231-1.468,1.66.944Z" transform="translate(-272.36 -131.751)" fill="#42ffff" opacity="0.5"/>
        <path id="Path_10912" data-name="Path 10912" d="M269.192,189.908l-3.392-1.929.231-1.468,3.392,1.929Z" transform="translate(-265.8 -129.503)" fill="#42ffff" opacity="0.5"/>
        <path id="Path_10913" data-name="Path 10913" d="M296.441,164.326l4.7,2.675.231-1.468-4.7-2.675Z" transform="translate(-274.649 -122.672)" fill="#42ffff" opacity="0.5"/>
        <path id="Path_10914" data-name="Path 10914" d="M297.117,169.845l3.7,2.1.231-1.468-3.7-2.1Z" transform="translate(-274.845 -124.266)" fill="#42ffff" opacity="0.5"/>
        <path id="Path_10915" data-name="Path 10915" d="M297.814,175.377l2.675,1.521.231-1.467-2.675-1.521Z" transform="translate(-275.046 -125.863)" fill="#42ffff" opacity="0.5"/>
        <path id="Path_10916" data-name="Path 10916" d="M295.363,179.118l3.89,2.212.23-1.468-3.89-2.212Z" transform="translate(-274.338 -126.944)" fill="#42ffff" opacity="0.5"/>
        <path id="Path_10917" data-name="Path 10917" d="M296.332,184.8l2.675,1.521.231-1.468-2.675-1.521Z" transform="translate(-274.618 -128.586)" fill="#42ffff" opacity="0.5"/>
        <path id="Path_10918" data-name="Path 10918" d="M294.583,188.944l3.392,1.929.231-1.468-3.392-1.929Z" transform="translate(-274.113 -129.782)" fill="#42ffff" opacity="0.5"/>
        <path id="Path_10919" data-name="Path 10919" d="M296.013,194.892l1.848,1.051.231-1.468-1.848-1.051Z" transform="translate(-274.526 -131.5)" fill="#42ffff" opacity="0.5"/>
        <path id="Path_10920" data-name="Path 10920" d="M292.836,198.219l3.581,2.037.23-1.468-3.581-2.037Z" transform="translate(-273.608 -132.461)" fill="#42ffff" opacity="0.5"/>
        <path id="Path_10921" data-name="Path 10921" d="M292.361,203.085l3.392,1.929.231-1.468-3.392-1.929Z" transform="translate(-273.471 -133.866)" fill="#42ffff" opacity="0.5"/>
        <path id="Path_10922" data-name="Path 10922" d="M273.469,192.341l-1.442-.821.231-1.468,1.442.821Z" transform="translate(-267.598 -130.526)" fill="#42ffff" opacity="0.5"/>
        <path id="Path_10923" data-name="Path 10923" d="M278.76,195.349l-3.247-1.847.231-1.467,3.247,1.847Z" transform="translate(-268.605 -131.098)" fill="#42ffff" opacity="0.5"/>
        <path id="Path_10924" data-name="Path 10924" d="M279.476,210.69,274,207.574l.23-1.467,5.479,3.116Z" transform="translate(-268.167 -135.162)" fill="#42ffff" opacity="0.5"/>
        <path id="Path_10925" data-name="Path 10925" d="M286.1,214.457l-2.158-1.227.231-1.468,2.158,1.227Z" transform="translate(-271.04 -136.796)" fill="#42ffff" opacity="0.5"/>
        <path id="Path_10926" data-name="Path 10926" d="M315.512,175.084l-6.784-3.858.231-1.468,6.784,3.858Z" transform="translate(-278.198 -124.664)" fill="#42ffff" opacity="0.5"/>
        <path id="Path_10927" data-name="Path 10927" d="M322.166,178.868l-2.443-1.389.231-1.467L322.4,177.4Z" transform="translate(-281.374 -126.47)" fill="#42ffff" opacity="0.5"/>
        <path id="Path_10928" data-name="Path 10928" d="M326.275,181.205l-1.659-.944.23-1.468,1.66.944Z" transform="translate(-282.787 -127.274)" fill="#42ffff" opacity="0.5"/>
        <path id="Path_10929" data-name="Path 10929" d="M311.684,178.042l-3.7-2.1.231-1.467,3.7,2.1Z" transform="translate(-277.984 -126.026)" fill="#42ffff" opacity="0.5"/>
        <path id="Path_10930" data-name="Path 10930" d="M319.172,182.3l-4.53-2.576.231-1.467,4.53,2.576Z" transform="translate(-279.906 -127.119)" fill="#42ffff" opacity="0.5"/>
        <path id="Path_10931" data-name="Path 10931" d="M324.129,185.119l-1.66-.944.231-1.467,1.66.944Z" transform="translate(-282.167 -128.404)" fill="#42ffff" opacity="0.5"/>
        <path id="Path_10932" data-name="Path 10932" d="M327.736,187.171l-1.66-.944.231-1.467,1.66.944Z" transform="translate(-283.209 -128.997)" fill="#42ffff" opacity="0.5"/>
        <path id="Path_10933" data-name="Path 10933" d="M309.921,182.174l-2.675-1.521.231-1.468,2.675,1.521Z" transform="translate(-277.77 -127.387)" fill="#42ffff" opacity="0.5"/>
        <path id="Path_10934" data-name="Path 10934" d="M313.379,184.14l-.914-.52.231-1.468.914.52Z" transform="translate(-279.277 -128.244)" fill="#42ffff" opacity="0.5"/>
        <path id="Path_10935" data-name="Path 10935" d="M316.867,186.124l-1.66-.944.231-1.468,1.66.944Z" transform="translate(-280.069 -128.695)" fill="#42ffff" opacity="0.5"/>
        <path id="Path_10936" data-name="Path 10936" d="M316.378,190.981l-9.872-5.614.231-1.468,9.872,5.614Z" transform="translate(-277.556 -128.749)" fill="#42ffff" opacity="0.5"/>
        <path id="Path_10937" data-name="Path 10937" d="M324.286,195.479l-2.443-1.389.231-1.467,2.443,1.389Z" transform="translate(-281.986 -131.268)" fill="#42ffff" opacity="0.5"/>
        <path id="Path_10938" data-name="Path 10938" d="M308.44,191.6l-2.675-1.521.231-1.468,2.675,1.521Z" transform="translate(-277.343 -130.11)" fill="#42ffff" opacity="0.5"/>
        <path id="Path_10939" data-name="Path 10939" d="M316.224,196.028l-5.24-2.98.231-1.468,5.24,2.98Z" transform="translate(-278.85 -130.967)" fill="#42ffff" opacity="0.5"/>
        <path id="Path_10940" data-name="Path 10940" d="M321.469,199.011l-1.659-.944.23-1.468,1.66.944Z" transform="translate(-281.399 -132.417)" fill="#42ffff" opacity="0.5"/>
        <path id="Path_10941" data-name="Path 10941" d="M310.5,197.906l-5.472-3.112.231-1.467,5.472,3.112Z" transform="translate(-277.129 -131.471)" fill="#42ffff" opacity="0.5"/>
        <path id="Path_10942" data-name="Path 10942" d="M318.134,202.249,314.177,200l.231-1.468,3.957,2.251Z" transform="translate(-279.772 -132.974)" fill="#42ffff" opacity="0.5"/>
        <path id="Path_10943" data-name="Path 10943" d="M323.873,205.513l-2.674-1.521.23-1.468,2.675,1.521Z" transform="translate(-281.8 -134.128)" fill="#42ffff" opacity="0.5"/>
        <path id="Path_10944" data-name="Path 10944" d="M306.132,200.559l-1.848-1.052.231-1.467,1.848,1.052Z" transform="translate(-276.915 -132.833)" fill="#42ffff" opacity="0.5"/>
        <path id="Path_10945" data-name="Path 10945" d="M310.784,203.2l-2.443-1.389.231-1.468,2.443,1.389Z" transform="translate(-278.086 -133.499)" fill="#42ffff" opacity="0.5"/>
        <path id="Path_10946" data-name="Path 10946" d="M317.168,206.835l-3.936-2.238.231-1.468,3.936,2.238Z" transform="translate(-279.499 -134.302)" fill="#42ffff" opacity="0.5"/>
        <path id="Path_10947" data-name="Path 10947" d="M309.206,207.441l-5.662-3.22.231-1.467,5.662,3.22Z" transform="translate(-276.701 -134.194)" fill="#42ffff" opacity="0.5"/>
        <path id="Path_10948" data-name="Path 10948" d="M318.267,212.594l-5.3-3.017.231-1.467,5.3,3.016Z" transform="translate(-279.421 -135.741)" fill="#42ffff" opacity="0.5"/>
        <path id="Path_10949" data-name="Path 10949" d="M323.538,215.592l-1.66-.944.231-1.467,1.66.944Z" transform="translate(-281.996 -137.205)" fill="#42ffff" opacity="0.5"/>
        <path id="Path_10950" data-name="Path 10950" d="M327.177,217.661l-1.66-.944.231-1.468,1.66.944Z" transform="translate(-283.047 -137.803)" fill="#42ffff" opacity="0.5"/>
        <path id="Path_10951" data-name="Path 10951" d="M306.2,210.864l-3.392-1.929.23-1.468,3.392,1.929Z" transform="translate(-276.487 -135.555)" fill="#42ffff" opacity="0.5"/>
        <path id="Path_10952" data-name="Path 10952" d="M333.444,185.282l4.7,2.675.231-1.468-4.7-2.675Z" transform="translate(-285.337 -128.724)" fill="#42ffff" opacity="0.5"/>
        <path id="Path_10953" data-name="Path 10953" d="M334.12,190.8l3.7,2.1.231-1.468-3.7-2.1Z" transform="translate(-285.532 -130.318)" fill="#42ffff" opacity="0.5"/>
        <path id="Path_10954" data-name="Path 10954" d="M334.817,196.332l2.675,1.521.23-1.468-2.675-1.521Z" transform="translate(-285.733 -131.916)" fill="#42ffff" opacity="0.5"/>
        <path id="Path_10955" data-name="Path 10955" d="M332.367,200.074l3.89,2.212.231-1.468-3.89-2.212Z" transform="translate(-285.026 -132.996)" fill="#42ffff" opacity="0.5"/>
        <path id="Path_10956" data-name="Path 10956" d="M333.336,205.76l2.675,1.521.231-1.467-2.675-1.521Z" transform="translate(-285.305 -134.638)" fill="#42ffff" opacity="0.5"/>
        <path id="Path_10957" data-name="Path 10957" d="M331.587,209.9l3.391,1.929.231-1.468-3.391-1.929Z" transform="translate(-284.8 -135.834)" fill="#42ffff" opacity="0.5"/>
        <path id="Path_10958" data-name="Path 10958" d="M333.017,215.848l1.848,1.051.231-1.467-1.848-1.051Z" transform="translate(-285.213 -137.552)" fill="#42ffff" opacity="0.5"/>
        <path id="Path_10959" data-name="Path 10959" d="M329.84,219.176l3.581,2.037.231-1.468-3.582-2.037Z" transform="translate(-284.296 -138.513)" fill="#42ffff" opacity="0.5"/>
        <path id="Path_10960" data-name="Path 10960" d="M329.365,224.041l3.392,1.929.231-1.467-3.392-1.929Z" transform="translate(-284.159 -139.918)" fill="#42ffff" opacity="0.5"/>
        <path id="Path_10961" data-name="Path 10961" d="M310.473,213.3l-1.443-.82.231-1.468,1.443.82Z" transform="translate(-278.285 -136.578)" fill="#42ffff" opacity="0.5"/>
        <path id="Path_10962" data-name="Path 10962" d="M315.763,216.305l-3.248-1.846.231-1.468,3.248,1.847Z" transform="translate(-279.292 -137.151)" fill="#42ffff" opacity="0.5"/>
        <path id="Path_10963" data-name="Path 10963" d="M316.48,231.646,311,228.529l.231-1.467,5.48,3.116Z" transform="translate(-278.854 -141.215)" fill="#42ffff" opacity="0.5"/>
        <path id="Path_10964" data-name="Path 10964" d="M323.106,235.414l-2.159-1.227.231-1.467,2.158,1.227Z" transform="translate(-281.727 -142.848)" fill="#42ffff" opacity="0.5"/>
      </g>
      <g id="Group_3379" data-name="Group 3379" transform="translate(23.316 58.103)">
        <g id="Group_3378" data-name="Group 3378" transform="translate(101.61)">
          <path id="Path_10965" data-name="Path 10965" d="M286.418,158.417l6.337-3.649v.005a.29.29,0,0,1,.316.013l79.4,45.841a1.125,1.125,0,0,1,.469.9v14.99a.447.447,0,0,1-.129.352h0l0,0a.18.18,0,0,1-.02.011l-6.4,3.688-.05-7.242-73.265-42.3a1.125,1.125,0,0,1-.469-.9v-5.144Z" transform="translate(-286.232 -154.732)" fill="url(#linear-gradient-15)"/>
          <path id="Path_10966" data-name="Path 10966" d="M286.626,176.18l79.4,45.841c.259.149.469-.009.469-.355V206.678a1.124,1.124,0,0,0-.469-.9l-79.4-45.841c-.259-.15-.469.009-.469.355v14.988A1.126,1.126,0,0,0,286.626,176.18Z" transform="translate(-286.157 -156.22)" fill="url(#linear-gradient-16)"/>
          <path id="Path_10967" data-name="Path 10967" d="M299.847,178.529l61.823,36.352a42.608,42.608,0,0,0-5.38,5.595L294.01,184.518A42.229,42.229,0,0,1,299.847,178.529Z" transform="translate(-288.425 -161.605)" fill="#242993" opacity="0.6"/>
          <path id="Path_10968" data-name="Path 10968" d="M289.872,174.576,364.74,217.8c.177.1.321-.007.321-.243v-3.766a.768.768,0,0,0-.321-.612l-74.869-43.226c-.177-.1-.321.007-.321.243v3.765A.768.768,0,0,0,289.872,174.576Z" transform="translate(-287.137 -159.117)" fill="#242993"/>
          <path id="Path_10969" data-name="Path 10969" d="M289.872,169.954l1.523.879v2.033a.769.769,0,0,0,.321.613l73.346,42.347v1.732c0,.236-.144.346-.321.243l-74.869-43.226a.768.768,0,0,1-.321-.613V170.2C289.551,169.962,289.695,169.852,289.872,169.954Z" transform="translate(-287.137 -159.117)" fill="#4553c7"/>
        </g>
        <path id="Path_10970" data-name="Path 10970" d="M205.568,338.346l-62.285-35.96h0c8.035-4.638,14.808-14.793,16.876-24.5a14.166,14.166,0,0,1,6.731-9.364l47.066-27.17a45.04,45.04,0,0,0,22.5-36.3c.752-12.759,10.4-25.305,17.884-29.628h0l62.286,35.96h0c-7.376,4.259-15.5,16.158-16.419,28.7a45.6,45.6,0,0,1-22.454,36.359L229.176,304.48a14.164,14.164,0,0,0-6.731,9.365c-2.069,9.709-8.841,19.862-16.876,24.5Z" transform="translate(-143.283 -160.706)" opacity="0.96" fill="url(#linear-gradient-17)"/>
        <path id="Path_10971" data-name="Path 10971" d="M298.838,175.417l62.286,35.96c-.5.289-.994.6-1.484.925l0,0-62.278-35.959C297.847,176.017,298.339,175.705,298.838,175.417Z" transform="translate(-187.782 -160.706)" fill="#4553c7" opacity="0.8"/>
      </g>
      <g id="Group_3380" data-name="Group 3380" transform="translate(126.349 97.649)" opacity="0.32">
        <path id="Path_10972" data-name="Path 10972" d="M332.372,234.723l10.923,6.331.088-1.26-10.9-6.3Z" transform="translate(-300.928 -217.024)" fill="#4553c7"/>
        <path id="Path_10973" data-name="Path 10973" d="M324.629,230.241l3.86,2.237.11-1.23-3.853-2.228Z" transform="translate(-298.692 -215.733)" fill="#4553c7"/>
        <path id="Path_10974" data-name="Path 10974" d="M318.69,226.8l2.6,1.505.12-1.218-2.592-1.5Z" transform="translate(-296.976 -214.743)" fill="#4553c7"/>
        <path id="Path_10975" data-name="Path 10975" d="M339,242.765l6.006,3.5.089-1.27-6-3.485Z" transform="translate(-302.842 -219.341)" fill="#4553c7"/>
        <path id="Path_10976" data-name="Path 10976" d="M326.478,235.478l7.235,4.215.1-1.252-7.222-4.2Z" transform="translate(-299.226 -217.242)" fill="#4553c7"/>
        <path id="Path_10977" data-name="Path 10977" d="M320.5,232l2.615,1.524.117-1.231-2.61-1.517Z" transform="translate(-297.498 -216.239)" fill="#4553c7"/>
        <path id="Path_10978" data-name="Path 10978" d="M314.852,228.712l2.593,1.511.124-1.222-2.588-1.5Z" transform="translate(-295.868 -215.293)" fill="#4553c7"/>
        <path id="Path_10979" data-name="Path 10979" d="M341.012,248.185l4.371,2.56.09-1.281-4.363-2.55Z" transform="translate(-303.423 -220.902)" fill="#4553c7"/>
        <path id="Path_10980" data-name="Path 10980" d="M336.565,245.583l1.479.867.1-1.267-1.477-.863Z" transform="translate(-302.139 -220.153)" fill="#4553c7"/>
        <path id="Path_10981" data-name="Path 10981" d="M330.465,242.015l2.666,1.561.106-1.258-2.661-1.556Z" transform="translate(-300.377 -219.125)" fill="#4553c7"/>
        <path id="Path_10982" data-name="Path 10982" d="M324.366,242.68l16,9.425.091-1.292-15.975-9.386Z" transform="translate(-298.616 -219.317)" fill="#4553c7"/>
        <path id="Path_10983" data-name="Path 10983" d="M316.612,238.119l3.865,2.276.121-1.249-3.858-2.267Z" transform="translate(-296.376 -218.003)" fill="#4553c7"/>
        <path id="Path_10984" data-name="Path 10984" d="M340.378,256.424l4.405,2.609.092-1.3-4.4-2.6Z" transform="translate(-303.24 -223.275)" fill="#4553c7"/>
        <path id="Path_10985" data-name="Path 10985" d="M326.058,247.954l8.488,5.026.1-1.288-8.472-5.005Z" transform="translate(-299.104 -220.836)" fill="#4553c7"/>
        <path id="Path_10986" data-name="Path 10986" d="M320,244.37l2.648,1.568.12-1.264-2.644-1.561Z" transform="translate(-297.354 -219.804)" fill="#4553c7"/>
        <path id="Path_10987" data-name="Path 10987" d="M333.611,256.763l9.008,5.363.092-1.314-8.993-5.341Z" transform="translate(-301.286 -223.373)" fill="#4553c7"/>
        <path id="Path_10988" data-name="Path 10988" d="M322.255,250.01l6.389,3.8.111-1.288-6.378-3.788Z" transform="translate(-298.006 -221.428)" fill="#4553c7"/>
        <path id="Path_10989" data-name="Path 10989" d="M313.94,245.065l4.255,2.533.125-1.269-4.248-2.522Z" transform="translate(-295.604 -220.004)" fill="#4553c7"/>
        <path id="Path_10990" data-name="Path 10990" d="M341.657,265.953l3.074,1.84.093-1.326-3.068-1.832Z" transform="translate(-303.61 -226.02)" fill="#4553c7"/>
        <path id="Path_10991" data-name="Path 10991" d="M333.595,261.134l4.018,2.405.1-1.314L333.7,259.83Z" transform="translate(-301.281 -224.632)" fill="#4553c7"/>
        <path id="Path_10992" data-name="Path 10992" d="M322.238,254.343l6.382,3.821.112-1.3-6.372-3.805Z" transform="translate(-298.001 -222.676)" fill="#4553c7"/>
        <path id="Path_10993" data-name="Path 10993" d="M332.471,264.879l9.393,5.653.094-1.337-9.376-5.63Z" transform="translate(-300.956 -225.711)" fill="#4553c7"/>
        <path id="Path_10994" data-name="Path 10994" d="M317.979,256.166l8.607,5.18.113-1.309-8.591-5.159Z" transform="translate(-296.771 -223.202)" fill="#4553c7"/>
        <path id="Path_10995" data-name="Path 10995" d="M311.91,252.518l2.652,1.6.131-1.284-2.648-1.59Z" transform="translate(-295.018 -222.151)" fill="#4553c7"/>
        <path id="Path_10996" data-name="Path 10996" d="M306.139,249.048l2.629,1.583.139-1.274-2.624-1.575Z" transform="translate(-293.351 -221.152)" fill="#4553c7"/>
        <path id="Path_10997" data-name="Path 10997" d="M337.4,272.313l5.673,3.433.095-1.349-5.662-3.419Z" transform="translate(-302.38 -227.852)" fill="#4553c7"/>
        <path id="Path_10998" data-name="Path 10998" d="M299.371,215.624l-7.1-4.117.154-1.168,7.093,4.1Z" transform="translate(-289.345 -210.338)" fill="#4553c7"/>
        <path id="Path_10999" data-name="Path 10999" d="M297.362,218.536l-5.594-3.259.156-1.178,5.585,3.247Z" transform="translate(-289.201 -211.424)" fill="#4553c7"/>
        <path id="Path_11000" data-name="Path 11000" d="M295.321,221.454l-4.056-2.376.157-1.187,4.049,2.366Z" transform="translate(-289.056 -212.519)" fill="#4553c7"/>
        <path id="Path_11001" data-name="Path 11001" d="M296.691,226.4l-5.933-3.495.158-1.2,5.924,3.48Z" transform="translate(-288.909 -213.623)" fill="#4553c7"/>
        <path id="Path_11002" data-name="Path 11002" d="M294.332,229.193l-4.086-2.42.16-1.207,4.079,2.41Z" transform="translate(-288.761 -214.736)" fill="#4553c7"/>
        <path id="Path_11003" data-name="Path 11003" d="M294.939,233.769l-5.208-3.1.161-1.217,5.2,3.088Z" transform="translate(-288.612 -215.858)" fill="#4553c7"/>
        <path id="Path_11004" data-name="Path 11004" d="M292.052,236.3l-2.841-1.7.162-1.227,2.836,1.694Z" transform="translate(-288.462 -216.99)" fill="#4553c7"/>
        <path id="Path_11005" data-name="Path 11005" d="M294.228,241.892l-5.542-3.336.164-1.237,5.533,3.322Z" transform="translate(-288.311 -218.131)" fill="#4553c7"/>
        <path id="Path_11006" data-name="Path 11006" d="M293.426,245.738l-5.267-3.188.165-1.247,5.258,3.175Z" transform="translate(-288.158 -219.281)" fill="#4553c7"/>
        <path id="Path_11007" data-name="Path 11007" d="M331.629,268.826l2.383,1.443.108-1.33-2.379-1.436Z" transform="translate(-300.713 -226.848)" fill="#4553c7"/>
        <path id="Path_11008" data-name="Path 11008" d="M321.772,262.868l5.3,3.21.115-1.32-5.295-3.2Z" transform="translate(-297.866 -225.132)" fill="#4553c7"/>
      </g>
      <g id="Group_3390" data-name="Group 3390" transform="translate(74.576 146.543)" opacity="0.32">
        <g id="Group_3383" data-name="Group 3383" transform="translate(19.558)">
          <g id="Group_3381" data-name="Group 3381" transform="translate(7.199)">
            <path id="Path_11009" data-name="Path 11009" d="M269.225,289.133l-16.24-9.376,1.16-.67,16.24,9.376Z" transform="translate(-252.984 -279.088)" fill="#4553c7"/>
            <path id="Path_11010" data-name="Path 11010" d="M286.717,299.233l-5.86-3.384,1.16-.669,5.86,3.384Z" transform="translate(-261.034 -283.735)" fill="#4553c7"/>
            <path id="Path_11011" data-name="Path 11011" d="M295.012,304.022l-1.717-.992,1.16-.67,1.718.992Z" transform="translate(-264.626 -285.809)" fill="#4553c7"/>
            <path id="Path_11012" data-name="Path 11012" d="M305.767,310.231l-5.86-3.384,1.16-.67,5.86,3.384Z" transform="translate(-266.536 -286.912)" fill="#4553c7"/>
          </g>
          <g id="Group_3382" data-name="Group 3382" transform="translate(0 1.385)">
            <path id="Path_11013" data-name="Path 11013" d="M254.355,284.445l-4.745-2.74,1.16-.67,4.745,2.74Z" transform="translate(-244.811 -281.035)" fill="#4553c7"/>
            <path id="Path_11014" data-name="Path 11014" d="M278.675,298.486l-17.356-10.021,1.16-.669,17.356,10.02Z" transform="translate(-248.192 -282.988)" fill="#4553c7"/>
            <path id="Path_11015" data-name="Path 11015" d="M291.637,305.97l-1.718-.992,1.16-.67,1.718.992Z" transform="translate(-256.453 -287.757)" fill="#4553c7"/>
            <path id="Path_11016" data-name="Path 11016" d="M302.392,312.179l-5.861-3.384,1.16-.669,5.861,3.384Z" transform="translate(-258.362 -288.859)" fill="#4553c7"/>
            <path id="Path_11017" data-name="Path 11017" d="M248.608,285.023l-2.372-1.37,1.16-.67,2.373,1.37Z" transform="translate(-243.836 -281.598)" fill="#4553c7"/>
            <path id="Path_11018" data-name="Path 11018" d="M257.422,290.112l-2.814-1.624,1.16-.67,2.813,1.624Z" transform="translate(-246.254 -282.994)" fill="#4553c7"/>
            <path id="Path_11019" data-name="Path 11019" d="M264.479,294.187l-1.718-.992,1.16-.669,1.718.992Z" transform="translate(-248.609 -284.354)" fill="#4553c7"/>
            <path id="Path_11020" data-name="Path 11020" d="M275.234,300.4l-5.861-3.383,1.16-.669,5.861,3.383Z" transform="translate(-250.518 -285.456)" fill="#4553c7"/>
            <path id="Path_11021" data-name="Path 11021" d="M247.607,288.341l-4.745-2.74,1.16-.669,4.745,2.74Z" transform="translate(-242.861 -282.161)" fill="#4553c7"/>
            <path id="Path_11022" data-name="Path 11022" d="M260.431,295.745l-5.861-3.383,1.16-.67,5.86,3.384Z" transform="translate(-246.243 -284.113)" fill="#4553c7"/>
            <path id="Path_11023" data-name="Path 11023" d="M268.725,300.534l-1.718-.992,1.16-.67,1.718.992Z" transform="translate(-249.835 -286.187)" fill="#4553c7"/>
            <path id="Path_11024" data-name="Path 11024" d="M279.481,306.744l-5.86-3.384,1.16-.67,5.86,3.384Z" transform="translate(-251.745 -287.29)" fill="#4553c7"/>
          </g>
        </g>
        <g id="Group_3386" data-name="Group 3386" transform="translate(9.779 5.646)">
          <g id="Group_3384" data-name="Group 3384" transform="translate(7.199)">
            <path id="Path_11025" data-name="Path 11025" d="M255.474,297.073l-16.24-9.377,1.16-.669,16.241,9.377Z" transform="translate(-239.234 -287.026)" fill="#4553c7"/>
            <path id="Path_11026" data-name="Path 11026" d="M272.967,307.172l-5.861-3.384,1.16-.669,5.86,3.383Z" transform="translate(-247.284 -291.674)" fill="#4553c7"/>
            <path id="Path_11027" data-name="Path 11027" d="M281.261,311.96l-1.718-.992,1.16-.669,1.718.992Z" transform="translate(-250.876 -293.748)" fill="#4553c7"/>
            <path id="Path_11028" data-name="Path 11028" d="M292.017,318.17l-5.861-3.384,1.159-.67,5.861,3.384Z" transform="translate(-252.786 -294.851)" fill="#4553c7"/>
          </g>
          <g id="Group_3385" data-name="Group 3385" transform="translate(0 1.386)">
            <path id="Path_11029" data-name="Path 11029" d="M240.605,292.384l-4.746-2.74,1.16-.669,4.745,2.739Z" transform="translate(-231.06 -288.975)" fill="#4553c7"/>
            <path id="Path_11030" data-name="Path 11030" d="M264.924,306.424,247.568,296.4l1.16-.669,17.356,10.02Z" transform="translate(-234.442 -290.927)" fill="#4553c7"/>
            <path id="Path_11031" data-name="Path 11031" d="M277.887,313.908l-1.718-.992,1.16-.669,1.718.992Z" transform="translate(-242.702 -295.696)" fill="#4553c7"/>
            <path id="Path_11032" data-name="Path 11032" d="M288.642,320.118l-5.861-3.383,1.16-.67,5.86,3.384Z" transform="translate(-244.612 -296.799)" fill="#4553c7"/>
            <path id="Path_11033" data-name="Path 11033" d="M234.858,292.962l-2.372-1.37,1.16-.669,2.372,1.37Z" transform="translate(-230.086 -289.537)" fill="#4553c7"/>
            <path id="Path_11034" data-name="Path 11034" d="M243.672,298.051l-2.813-1.624,1.16-.67,2.814,1.624Z" transform="translate(-232.504 -290.933)" fill="#4553c7"/>
            <path id="Path_11035" data-name="Path 11035" d="M250.729,302.125l-1.718-.992,1.16-.67,1.718.992Z" transform="translate(-234.858 -292.293)" fill="#4553c7"/>
            <path id="Path_11036" data-name="Path 11036" d="M261.484,308.334l-5.861-3.384,1.16-.67,5.86,3.384Z" transform="translate(-236.768 -293.395)" fill="#4553c7"/>
            <path id="Path_11037" data-name="Path 11037" d="M233.856,296.28l-4.745-2.739,1.16-.67,4.745,2.739Z" transform="translate(-229.111 -290.1)" fill="#4553c7"/>
            <path id="Path_11038" data-name="Path 11038" d="M246.681,303.684,240.82,300.3l1.16-.67,5.861,3.384Z" transform="translate(-232.493 -292.052)" fill="#4553c7"/>
            <path id="Path_11039" data-name="Path 11039" d="M254.975,308.473l-1.718-.992,1.16-.67,1.718.992Z" transform="translate(-236.085 -294.126)" fill="#4553c7"/>
            <path id="Path_11040" data-name="Path 11040" d="M265.73,314.682l-5.86-3.384,1.16-.669,5.861,3.384Z" transform="translate(-237.995 -295.229)" fill="#4553c7"/>
          </g>
        </g>
        <g id="Group_3389" data-name="Group 3389" transform="translate(0 11.291)">
          <g id="Group_3387" data-name="Group 3387" transform="translate(7.199)">
            <path id="Path_11041" data-name="Path 11041" d="M241.724,305.011l-16.24-9.377,1.16-.67,16.24,9.377Z" transform="translate(-225.483 -294.965)" fill="#4553c7"/>
            <path id="Path_11042" data-name="Path 11042" d="M259.216,315.111l-5.861-3.384,1.16-.67,5.861,3.384Z" transform="translate(-233.533 -299.612)" fill="#4553c7"/>
            <path id="Path_11043" data-name="Path 11043" d="M267.511,319.9l-1.718-.992,1.16-.669,1.718.992Z" transform="translate(-237.125 -301.687)" fill="#4553c7"/>
            <path id="Path_11044" data-name="Path 11044" d="M278.266,326.109l-5.86-3.384,1.16-.67,5.86,3.384Z" transform="translate(-239.035 -302.789)" fill="#4553c7"/>
          </g>
          <g id="Group_3388" data-name="Group 3388" transform="translate(0 1.386)">
            <path id="Path_11045" data-name="Path 11045" d="M226.854,300.322l-4.745-2.74,1.16-.67,4.745,2.74Z" transform="translate(-217.31 -296.913)" fill="#4553c7"/>
            <path id="Path_11046" data-name="Path 11046" d="M251.174,314.364l-17.356-10.021,1.16-.67,17.356,10.02Z" transform="translate(-220.691 -298.866)" fill="#4553c7"/>
            <path id="Path_11047" data-name="Path 11047" d="M264.137,321.848l-1.718-.992,1.16-.67,1.718.992Z" transform="translate(-228.952 -303.635)" fill="#4553c7"/>
            <path id="Path_11048" data-name="Path 11048" d="M274.892,328.057l-5.86-3.384,1.16-.67,5.861,3.384Z" transform="translate(-230.861 -304.737)" fill="#4553c7"/>
            <path id="Path_11049" data-name="Path 11049" d="M221.108,300.9l-2.373-1.37,1.16-.67,2.372,1.37Z" transform="translate(-216.335 -297.476)" fill="#4553c7"/>
            <path id="Path_11050" data-name="Path 11050" d="M229.921,305.989l-2.813-1.624,1.16-.67,2.814,1.625Z" transform="translate(-218.753 -298.872)" fill="#4553c7"/>
            <path id="Path_11051" data-name="Path 11051" d="M236.978,310.064l-1.718-.992,1.16-.67,1.718.992Z" transform="translate(-221.108 -300.231)" fill="#4553c7"/>
            <path id="Path_11052" data-name="Path 11052" d="M247.733,316.273l-5.861-3.383,1.16-.669,5.861,3.383Z" transform="translate(-223.018 -301.334)" fill="#4553c7"/>
            <path id="Path_11053" data-name="Path 11053" d="M220.106,304.219l-4.745-2.74,1.16-.669,4.745,2.74Z" transform="translate(-215.36 -298.039)" fill="#4553c7"/>
            <path id="Path_11054" data-name="Path 11054" d="M232.93,311.623l-5.861-3.383,1.16-.67,5.86,3.384Z" transform="translate(-218.742 -299.991)" fill="#4553c7"/>
            <path id="Path_11055" data-name="Path 11055" d="M241.225,316.411l-1.718-.992,1.16-.67,1.718.992Z" transform="translate(-222.334 -302.065)" fill="#4553c7"/>
            <path id="Path_11056" data-name="Path 11056" d="M251.979,322.622l-5.86-3.384,1.16-.669,5.86,3.384Z" transform="translate(-224.244 -303.168)" fill="#4553c7"/>
          </g>
        </g>
      </g>
    </g>
    <g id="Rectangle_77" data-name="Rectangle 77" transform="translate(273.729 57.788) rotate(49)" fill="none" stroke="#7a6cff" stroke-width="2" opacity="0.3">
      <rect width="13" height="13" stroke="none"/>
      <rect x="1" y="1" width="11" height="11" fill="none"/>
    </g>
    <path id="Path_11144" data-name="Path 11144" d="M1112.431,467.481c1.461,4.525,1.231,8.48-1.5,11.9a146.709,146.709,0,0,1-10.857,12.346c-1.316,1.311-3.769,1.478-5.7,2.168-.524-1.887-1.511-3.778-1.491-5.658.091-8.275,4.254-13.624,12.084-16.416C1107.5,470.915,1109.714,469.094,1112.431,467.481Z" transform="translate(-944.732 -348.844)" fill="#7a6cff" fill-rule="evenodd" opacity="0.27"/>
  </g>
</svg>
