<svg xmlns="http://www.w3.org/2000/svg" xmlns:xlink="http://www.w3.org/1999/xlink" width="756.158" height="510.365" viewBox="0 0 756.158 510.365">
  <defs>
    <linearGradient id="linear-gradient" x1="0.499" y1="0.001" x2="0.5" y2="0.413" gradientUnits="objectBoundingBox">
      <stop offset="0" stop-color="#474777"/>
      <stop offset="1" stop-color="#393963"/>
    </linearGradient>
    <linearGradient id="linear-gradient-2" x1="-2.988" y1="-0.93" x2="-1.989" y2="-0.93" gradientUnits="objectBoundingBox">
      <stop offset="0" stop-color="#fccc54"/>
      <stop offset="1" stop-color="#fe9c03"/>
    </linearGradient>
    <clipPath id="clip-path">
      <path id="Path_731" data-name="Path 731" d="M368.675,212.228a28.42,28.42,0,1,1-35.806-18.256A28.42,28.42,0,0,1,368.675,212.228Z" transform="translate(-313.218 -192.576)" fill="none"/>
    </clipPath>
    <linearGradient id="linear-gradient-3" x1="-0.022" y1="0.498" x2="0.978" y2="0.498" xlink:href="#linear-gradient-2"/>
    <clipPath id="clip-path-2">
      <path id="Path_744" data-name="Path 744" d="M447.585,231.422a31.075,31.075,0,1,1-17.079-40.493A31.074,31.074,0,0,1,447.585,231.422Z" transform="translate(-387.716 -188.632)" fill="none"/>
    </clipPath>
    <linearGradient id="linear-gradient-4" x1="-0.292" y1="0.978" x2="0.708" y2="0.978" xlink:href="#linear-gradient-2"/>
    <clipPath id="clip-path-3">
      <path id="Path_753" data-name="Path 753" d="M421.783,248.854a43.9,43.9,0,1,1-55.964-26.884A43.9,43.9,0,0,1,421.783,248.854Z" transform="translate(-336.446 -219.481)" fill="none"/>
    </clipPath>
    <linearGradient id="linear-gradient-5" x1="2.556" y1="2.661" x2="3.555" y2="2.661" xlink:href="#linear-gradient-2"/>
    <clipPath id="clip-path-4">
      <path id="Path_840" data-name="Path 840" d="M279.236,335.12a33.177,33.177,0,1,1-27.947-37.689A33.177,33.177,0,0,1,279.236,335.12Z" transform="translate(-213.237 -297.067)" fill="none"/>
    </clipPath>
    <linearGradient id="linear-gradient-6" x1="0.514" y1="2.361" x2="1.514" y2="2.361" xlink:href="#linear-gradient-2"/>
    <clipPath id="clip-path-5">
      <path id="Path_849" data-name="Path 849" d="M600.563,102.907a33.177,33.177,0,1,1-7.643-46.291A33.177,33.177,0,0,1,600.563,102.907Z" transform="translate(-540.416 -50.404)" fill="none"/>
    </clipPath>
    <linearGradient id="linear-gradient-7" x1="2.162" y1="1.438" x2="3.162" y2="1.438" xlink:href="#linear-gradient-2"/>
    <clipPath id="clip-path-6">
      <path id="Path_862" data-name="Path 862" d="M700.419,337.341a33.177,33.177,0,1,1-30.348-35.783A33.179,33.179,0,0,1,700.419,337.341Z" transform="translate(-634.174 -301.445)" fill="none"/>
    </clipPath>
    <linearGradient id="linear-gradient-8" x1="0.004" y1="0.493" x2="1.004" y2="0.493" xlink:href="#linear-gradient-2"/>
    <clipPath id="clip-path-7">
      <path id="Path_875" data-name="Path 875" d="M105.1,171.927a33.177,33.177,0,1,1-46.041-9.035A33.175,33.175,0,0,1,105.1,171.927Z" transform="translate(-44.383 -157.25)" fill="none"/>
    </clipPath>
    <linearGradient id="linear-gradient-9" x1="0.001" y1="0.494" x2="1.001" y2="0.494" xlink:href="#linear-gradient-2"/>
    <clipPath id="clip-path-8">
      <path id="Path_884" data-name="Path 884" d="M96.134,341.916a28.167,28.167,0,1,1-26.105-30.087A28.167,28.167,0,0,1,96.134,341.916Z" transform="translate(-39.87 -311.757)" fill="none"/>
    </clipPath>
    <linearGradient id="linear-gradient-10" x1="-4.346" y1="0.677" x2="-3.346" y2="0.677" xlink:href="#linear-gradient-2"/>
    <clipPath id="clip-path-9">
      <path id="Path_893" data-name="Path 893" d="M187.718,96.28a23.254,23.254,0,1,1-29.3-14.938A23.255,23.255,0,0,1,187.718,96.28Z" transform="translate(-142.34 -80.199)" fill="none"/>
    </clipPath>
    <linearGradient id="linear-gradient-11" x1="0.875" y1="10.729" x2="1.875" y2="10.729" xlink:href="#linear-gradient-2"/>
    <clipPath id="clip-path-10">
      <path id="Path_902" data-name="Path 902" d="M683.591,205.291A22.958,22.958,0,1,1,671.909,175,22.958,22.958,0,0,1,683.591,205.291Z" transform="translate(-639.639 -173.021)" fill="none"/>
    </clipPath>
  </defs>
  <g id="Group_1833" data-name="Group 1833" transform="translate(-33.013 -14.18)">
    <g id="OBJECTS" transform="translate(33.013 14.18)">
      <g id="Group_1704" data-name="Group 1704" transform="translate(311.942 23.822)">
        <g id="Group_1701" data-name="Group 1701" transform="translate(335.494 77.62)">
          <rect id="Rectangle_312" data-name="Rectangle 312" width="9.982" height="9.982" transform="translate(0 25.796)" fill="#c5cce9"/>
          <rect id="Rectangle_313" data-name="Rectangle 313" width="9.981" height="16.039" transform="translate(13.908 19.74)" fill="#c5cce9"/>
          <rect id="Rectangle_314" data-name="Rectangle 314" width="9.982" height="24.114" transform="translate(27.816 11.664)" fill="#c5cce9"/>
          <rect id="Rectangle_315" data-name="Rectangle 315" width="9.981" height="35.779" transform="translate(41.724)" fill="#c5cce9"/>
        </g>
        <g id="Group_1702" data-name="Group 1702" transform="translate(181.439 264.62)">
          <path id="Path_707" data-name="Path 707" d="M478.758,301.392h7.484V274.773H506.2v26.619h7.484L496.222,328Z" transform="translate(-478.758 -274.773)" fill="#c5cce9"/>
        </g>
        <g id="Group_1703" data-name="Group 1703">
          <path id="Path_708" data-name="Path 708" d="M375.812,82.152H362.746v46.472H327.9V82.152H314.837L345.324,35.7Z" transform="translate(-314.837 -35.702)" fill="#c5cce9"/>
        </g>
      </g>
      <g id="Group_1705" data-name="Group 1705" transform="translate(113.49 382.528)">
        <path id="Path_709" data-name="Path 709" d="M212.537,398.266a38.5,38.5,0,1,1-76.992,0h13.146a25.353,25.353,0,1,0,25.354-25.354,1.347,1.347,0,0,0-.189.009c.18-4.4.386-8.919.593-13.146A38.5,38.5,0,0,1,212.537,398.266Z" transform="translate(-135.545 -359.775)" fill="#c5cce9"/>
        <path id="Path_710" data-name="Path 710" d="M174.449,359.775c-.207,4.227-.413,8.746-.593,13.146a25.334,25.334,0,0,0-25.165,25.345H135.545a38.5,38.5,0,0,1,38.5-38.491Z" transform="translate(-135.545 -359.775)" fill="#f5faff"/>
      </g>
      <g id="Group_1719" data-name="Group 1719" transform="translate(88.131 123.801)">
        <g id="Group_1715" data-name="Group 1715" transform="translate(0 26.22)">
          <g id="Group_1709" data-name="Group 1709" transform="translate(0 39.713)">
            <path id="Path_711" data-name="Path 711" d="M165.2,312.14C110.571,281.023,112.645,209.8,112.645,209.8L165.2,185.6l52.554,24.2S219.829,281.023,165.2,312.14Z" transform="translate(-112.635 -185.595)" fill="#181c3a"/>
            <g id="Group_1708" data-name="Group 1708" transform="translate(8.794 10.586)">
              <g id="Group_1707" data-name="Group 1707">
                <g id="Group_1706" data-name="Group 1706">
                  <path id="Path_712" data-name="Path 712" d="M164.35,300.533c-45.489-25.912-43.762-85.22-43.762-85.22l43.762-20.154,43.762,20.154S209.839,274.621,164.35,300.533Z" transform="translate(-120.579 -195.159)" fill="#7a6cff"/>
                </g>
              </g>
            </g>
            <path id="Path_713" data-name="Path 713" d="M174.015,229.3a12.574,12.574,0,0,1-5.918,10.7v15.545a6.943,6.943,0,0,1-13.886,0V239.783a12.674,12.674,0,1,1,19.8-10.482Z" transform="translate(-108.783 -182.278)" fill="#181c3a"/>
          </g>
          <g id="Group_1714" data-name="Group 1714" transform="translate(49.139)">
            <g id="Group_1710" data-name="Group 1710">
              <path id="Path_714" data-name="Path 714" d="M305.393,149.716H160.124v24.849" transform="translate(-156.698 -149.716)" fill="none" stroke="#c5cce9" stroke-miterlimit="10" stroke-width="1.321"/>
              <path id="Path_715" data-name="Path 715" d="M163.881,172.5a3.426,3.426,0,1,1-3.426-3.427A3.425,3.425,0,0,1,163.881,172.5Z" transform="translate(-157.029 -147.648)" fill="#c5cce9"/>
              <path id="Path_716" data-name="Path 716" d="M305.393,332.048H160.124V307.2" transform="translate(-156.698 -132.887)" fill="none" stroke="#c5cce9" stroke-miterlimit="10" stroke-width="1.321"/>
              <path id="Path_717" data-name="Path 717" d="M163.881,307.53a3.426,3.426,0,1,0-3.426,3.426A3.426,3.426,0,0,0,163.881,307.53Z" transform="translate(-157.029 -133.217)" fill="#c5cce9"/>
            </g>
            <g id="Group_1711" data-name="Group 1711" transform="translate(34.269 21.423)">
              <path id="Path_718" data-name="Path 718" d="M300.1,216.291H233.418v-44.13H191.084" transform="translate(-187.658 -168.741)" fill="none" stroke="#c5cce9" stroke-miterlimit="10" stroke-width="1.321"/>
              <path id="Path_719" data-name="Path 719" d="M194.842,172.5a3.426,3.426,0,1,1-3.427-3.427A3.427,3.427,0,0,1,194.842,172.5Z" transform="translate(-187.989 -169.071)" fill="#c5cce9"/>
            </g>
            <g id="Group_1712" data-name="Group 1712" transform="translate(70.374 99.56)">
              <line id="Line_36" data-name="Line 36" x1="72.912" transform="translate(3.426 3.426)" fill="none" stroke="#c5cce9" stroke-miterlimit="10" stroke-width="1.321"/>
              <path id="Path_720" data-name="Path 720" d="M227.46,243.09a3.426,3.426,0,1,1-3.426-3.426A3.426,3.426,0,0,1,227.46,243.09Z" transform="translate(-220.608 -239.664)" fill="#c5cce9"/>
            </g>
            <g id="Group_1713" data-name="Group 1713" transform="translate(34.269 139.744)">
              <path id="Path_721" data-name="Path 721" d="M300.1,275.968H227.189v34.568H191.084" transform="translate(-187.658 -275.968)" fill="none" stroke="#c5cce9" stroke-miterlimit="10" stroke-width="1.321"/>
              <path id="Path_722" data-name="Path 722" d="M194.842,307.53a3.426,3.426,0,1,1-3.427-3.427A3.426,3.426,0,0,1,194.842,307.53Z" transform="translate(-187.989 -272.962)" fill="#c5cce9"/>
            </g>
          </g>
        </g>
        <g id="Group_1718" data-name="Group 1718" transform="translate(192.004)">
          <g id="Group_1716" data-name="Group 1716">
            <path id="Rectangle_316" data-name="Rectangle 316" d="M23.761,0H175.518A23.762,23.762,0,0,1,199.28,23.762V353.647a23.762,23.762,0,0,1-23.762,23.762H23.761A23.761,23.761,0,0,1,0,353.647V23.761A23.761,23.761,0,0,1,23.761,0Z" fill="#393963"/>
            <path id="Rectangle_317" data-name="Rectangle 317" d="M15.8,0H163.48a15.8,15.8,0,0,1,15.8,15.8V340.961a15.8,15.8,0,0,1-15.8,15.8H15.8A15.8,15.8,0,0,1,0,340.961V15.8A15.8,15.8,0,0,1,15.8,0Z" transform="translate(9.998 10.322)" fill="#7a6cff"/>
            <path id="Rectangle_318" data-name="Rectangle 318" d="M2.114,0H97.808a2.113,2.113,0,0,1,2.113,2.113v.57A2.113,2.113,0,0,1,97.808,4.8H2.113A2.113,2.113,0,0,1,0,2.683V2.114A2.114,2.114,0,0,1,2.114,0Z" transform="translate(49.679 16.991)" fill="#393963" opacity="0.4"/>
            <rect id="Rectangle_319" data-name="Rectangle 319" width="99.921" height="4.796" rx="2.113" transform="translate(49.679 350.655)" fill="#393963" opacity="0.4"/>
          </g>
          <g id="Group_1717" data-name="Group 1717" transform="translate(58.999 283.326)">
            <path id="Path_723" data-name="Path 723" d="M406.79,412.232H353.3a13.9,13.9,0,0,1-13.9-13.895h0a13.9,13.9,0,0,1,13.9-13.9H406.79a13.9,13.9,0,0,1,13.895,13.9h0A13.894,13.894,0,0,1,406.79,412.232Z" transform="translate(-339.403 -381.738)" fill="#1d964e"/>
            <path id="Path_724" data-name="Path 724" d="M406.79,409.791H353.3a13.9,13.9,0,0,1-13.9-13.9h0A13.9,13.9,0,0,1,353.3,382H406.79a13.9,13.9,0,0,1,13.895,13.9h0A13.9,13.9,0,0,1,406.79,409.791Z" transform="translate(-339.403 -381.999)" fill="#31c972"/>
            <text id="BUY" transform="translate(15.09 17.782)" fill="#f5faff" font-size="17" font-family="Montserrat-ExtraBold, Montserrat" font-weight="800" letter-spacing="0.1em"><tspan x="0" y="0">BUY</tspan></text>
          </g>
        </g>
      </g>
      <path id="Rectangle_320" data-name="Rectangle 320" d="M4.636,0h106.23A4.636,4.636,0,0,1,115.5,4.636v6.142a4.636,4.636,0,0,1-4.636,4.636H4.637A4.637,4.637,0,0,1,0,10.777V4.636A4.636,4.636,0,0,1,4.636,0Z" transform="translate(321.51 296.414)" fill="url(#linear-gradient)"/>
      <g id="Group_1727" data-name="Group 1727" transform="translate(305.109 192.426)">
        <path id="Path_725" data-name="Path 725" d="M331.987,190.409q-1.262.41-2.47.912a32.61,32.61,0,1,0,2.47-.912Z" transform="translate(-308.58 -187.944)" fill="#fccc54"/>
        <path id="Path_726" data-name="Path 726" d="M331.8,189.672A33.453,33.453,0,1,0,373.95,211.16h0A33.454,33.454,0,0,0,331.8,189.672Zm41.327,21.755a32.588,32.588,0,1,1-43.53-20.022q1.209-.5,2.471-.912A32.629,32.629,0,0,1,373.129,211.427Z" transform="translate(-308.663 -188.028)" fill="url(#linear-gradient-2)"/>
        <path id="Path_727" data-name="Path 727" d="M331.8,189.673a33.451,33.451,0,1,0,20.66,63.633q1.293-.418,2.536-.934a33.453,33.453,0,0,0-23.2-62.7Zm40.546,22.008a31.765,31.765,0,1,1-42.433-19.52q1.179-.488,2.409-.888A31.8,31.8,0,0,1,372.348,211.681Z" transform="translate(-308.663 -188.027)" fill="#dda526"/>
        <path id="Path_728" data-name="Path 728" d="M368.675,212.228a28.42,28.42,0,1,1-35.806-18.256A28.42,28.42,0,0,1,368.675,212.228Z" transform="translate(-308.176 -187.542)" fill="#bc700c" opacity="0.3"/>
        <g id="Group_1723" data-name="Group 1723" transform="translate(8.97 13.012)" style="mix-blend-mode: multiply;isolation: isolate">
          <g id="Group_1720" data-name="Group 1720" transform="translate(0.585 0.78)" opacity="0.4" style="mix-blend-mode: multiply;isolation: isolate">
            <path id="Path_729" data-name="Path 729" d="M317.3,236.162l4.507,4.62,14.43-5.842L331.681,223.7l14.084,5.967,5.518-13.024,4.246,10.488L370.3,221.15l-.346-6.4-10.991,4.45-7.574-18.709L342.4,221.7l-21.958-9.859,7.982,19.716Z" transform="translate(-317.295 -200.488)" fill="#493107"/>
          </g>
          <g id="Group_1722" data-name="Group 1722">
            <g id="Group_1721" data-name="Group 1721">
              <path id="Path_730" data-name="Path 730" d="M316.767,235.457l4.507,4.62,14.43-5.842-4.551-11.243,14.084,5.967,5.518-13.024L355,226.424l14.766-5.978-.346-6.4-10.991,4.45-7.574-18.709L341.868,221,319.91,211.14l7.981,19.716Z" transform="translate(-316.767 -199.784)" fill="#d29e26"/>
            </g>
          </g>
        </g>
        <g id="Group_1726" data-name="Group 1726" transform="translate(5.041 5.034)">
          <g id="Group_1725" data-name="Group 1725" clip-path="url(#clip-path)">
            <g id="Group_1724" data-name="Group 1724" transform="translate(-9.548 -13.763)" opacity="0.2">
              <rect id="Rectangle_321" data-name="Rectangle 321" width="7.333" height="87.227" transform="translate(55.967 4.125) rotate(27.018)" fill="#ffe6b3"/>
              <rect id="Rectangle_322" data-name="Rectangle 322" width="13.158" height="87.227" transform="translate(39.616 0) rotate(27.012)" fill="#ffe6b3"/>
              <rect id="Rectangle_323" data-name="Rectangle 323" width="3.667" height="87.227" transform="translate(65.86 9.919) rotate(27.018)" fill="#ffe6b3"/>
            </g>
          </g>
        </g>
        <path id="Path_732" data-name="Path 732" d="M315.8,230.27a28.4,28.4,0,0,1,37.052-35.353,28.4,28.4,0,1,0-21.23,52.664A28.324,28.324,0,0,1,315.8,230.27Z" transform="translate(-308.176 -187.541)" fill="#bc700c" opacity="0.3"/>
        <path id="Path_733" data-name="Path 733" d="M350.089,194.281A28.4,28.4,0,0,1,328.961,247a28.4,28.4,0,1,0,21.128-52.72Z" transform="translate(-306.494 -187.36)" fill="#bc700c" opacity="0.3"/>
      </g>
      <g id="Group_1735" data-name="Group 1735" transform="translate(387.095 187.579)">
        <path id="Path_734" data-name="Path 734" d="M432.667,187.148q-1.342-.546-2.707-.979a35.667,35.667,0,1,0,2.707.979Z" transform="translate(-382.643 -183.558)" fill="#fccc54"/>
        <path id="Path_735" data-name="Path 735" d="M433.112,186.363a36.579,36.579,0,1,0,20.1,47.665h0A36.578,36.578,0,0,0,433.112,186.363Zm19.229,47.31a35.632,35.632,0,1,1-22.291-47.413q1.365.432,2.707.978A35.677,35.677,0,0,1,452.341,233.673Z" transform="translate(-382.733 -183.648)" fill="url(#linear-gradient-3)"/>
        <path id="Path_736" data-name="Path 736" d="M433.112,186.366a36.577,36.577,0,1,0-27.559,67.764q1.376.561,2.778,1.006a36.579,36.579,0,0,0,24.781-68.77Zm18.4,46.969a34.735,34.735,0,1,1-21.73-46.217q1.33.422,2.64.953A34.779,34.779,0,0,1,451.51,233.335Z" transform="translate(-382.734 -183.649)" fill="#dda526"/>
        <path id="Path_737" data-name="Path 737" d="M447.585,231.422a31.075,31.075,0,1,1-17.079-40.493A31.074,31.074,0,0,1,447.585,231.422Z" transform="translate(-382.202 -183.116)" fill="#bc700c" opacity="0.3"/>
        <g id="Group_1731" data-name="Group 1731" transform="translate(18.779 11.582)" style="mix-blend-mode: multiply;isolation: isolate">
          <g id="Group_1728" data-name="Group 1728" transform="translate(0.381 0.507)" opacity="0.4" style="mix-blend-mode: multiply;isolation: isolate">
            <path id="Path_738" data-name="Path 738" d="M425.175,194.571,400.586,217.75l12.659,14.814,19.692-4.494Z" transform="translate(-399.985 -194.571)" fill="#493107"/>
            <path id="Path_739" data-name="Path 739" d="M400.586,215.6l18.095-.951,14.256,11.271-19.692,4.494Z" transform="translate(-399.985 -192.425)" fill="#493107"/>
            <path id="Path_740" data-name="Path 740" d="M400.044,217.242l12.138,15.7,20.26-5.529-23.847,17.211Z" transform="translate(-400.044 -192.148)" fill="#493107"/>
          </g>
          <g id="Group_1730" data-name="Group 1730">
            <g id="Group_1729" data-name="Group 1729">
              <path id="Path_741" data-name="Path 741" d="M424.832,194.112l-24.589,23.179L412.9,232.106l19.692-4.494Z" transform="translate(-399.642 -194.112)" fill="#d29e26"/>
              <path id="Path_742" data-name="Path 742" d="M400.243,215.146l18.095-.951,14.256,11.271L412.9,229.96Z" transform="translate(-399.642 -191.966)" fill="#b58016"/>
              <path id="Path_743" data-name="Path 743" d="M399.7,216.783l12.138,15.7,20.26-5.529L408.25,244.167Z" transform="translate(-399.7 -191.69)" fill="#d29e26"/>
            </g>
          </g>
        </g>
        <g id="Group_1734" data-name="Group 1734" transform="translate(5.515 5.516)">
          <g id="Group_1733" data-name="Group 1733" clip-path="url(#clip-path-2)">
            <g id="Group_1732" data-name="Group 1732" transform="translate(-25.697 -3.039)" opacity="0.2">
              <rect id="Rectangle_324" data-name="Rectangle 324" width="8.018" height="95.377" transform="translate(98.643 14.964) rotate(67.13)" fill="#ffe6b3"/>
              <rect id="Rectangle_325" data-name="Rectangle 325" width="14.387" height="95.377" transform="translate(87.88 0) rotate(67.132)" fill="#ffe6b3"/>
              <rect id="Rectangle_326" data-name="Rectangle 326" width="4.009" height="95.377" transform="translate(102.836 26.784) rotate(67.137)" fill="#ffe6b3"/>
            </g>
          </g>
        </g>
        <path id="Path_745" data-name="Path 745" d="M390.66,209.256a31.055,31.055,0,0,1,55.891-3.456,31.052,31.052,0,1,0-54.856,29.077A30.977,30.977,0,0,1,390.66,209.256Z" transform="translate(-382.201 -183.116)" fill="#bc700c" opacity="0.3"/>
        <path id="Path_746" data-name="Path 746" d="M445.636,203.11a31.056,31.056,0,0,1-54.812,29.2,31.056,31.056,0,1,0,54.812-29.2Z" transform="translate(-381.87 -181.569)" fill="#bc700c" opacity="0.3"/>
      </g>
      <g id="Group_1743" data-name="Group 1743" transform="translate(328.072 219.463)">
        <path id="Path_747" data-name="Path 747" d="M364.309,216.515q-1.931.679-3.781,1.5a50.4,50.4,0,1,0,3.781-1.5Z" transform="translate(-329.28 -212.324)" fill="#fccc54"/>
        <path id="Path_748" data-name="Path 748" d="M363.994,215.385a51.678,51.678,0,1,0,65.877,31.644h0A51.678,51.678,0,0,0,363.994,215.385Zm64.62,32.087a50.34,50.34,0,1,1-67.958-29.331q1.848-.817,3.781-1.5A50.4,50.4,0,0,1,428.614,247.472Z" transform="translate(-329.408 -212.454)" fill="url(#linear-gradient-4)"/>
        <path id="Path_749" data-name="Path 749" d="M364,215.387A51.675,51.675,0,1,0,398.23,312.9q1.982-.694,3.881-1.535A51.678,51.678,0,0,0,364,215.387Zm63.422,32.5a49.071,49.071,0,1,1-66.246-28.59q1.8-.8,3.687-1.46A49.133,49.133,0,0,1,427.418,247.89Z" transform="translate(-329.409 -212.452)" fill="#dda526"/>
        <path id="Path_750" data-name="Path 750" d="M421.783,248.854a43.9,43.9,0,1,1-55.964-26.884A43.9,43.9,0,0,1,421.783,248.854Z" transform="translate(-328.657 -211.703)" fill="#bc700c" opacity="0.3"/>
        <g id="Group_1739" data-name="Group 1739" transform="translate(21.275 22.444)" style="mix-blend-mode: multiply;isolation: isolate">
          <g id="Group_1736" data-name="Group 1736" transform="translate(0.903 1.205)" opacity="0.4" style="mix-blend-mode: multiply;isolation: isolate">
            <path id="Path_751" data-name="Path 751" d="M398.3,243.9l-.3-.663a12.345,12.345,0,0,0-15.626-6.481q-.352.133-.694.287l-6.445,2.9-2.751-6.118-3.565,1.6,2.751,6.117-2.516,1.131-2.751-6.117-6.282,2.825,2.751,6.117-13.424,6.038,4.569,10.158,3.208-1.442L369.387,287.3l-3.208,1.443,4.225,9.4L383.83,292.1l2.206,4.9,6.281-2.825-2.206-4.906,2.516-1.131,2.207,4.906,3.564-1.6-2.206-4.9,6.317-2.841c.27-.122.546-.253.8-.393a12.478,12.478,0,0,0,5.468-16.106l-.3-.663a12.347,12.347,0,0,0-15.626-6.481q-.352.133-.694.287c.228-.1.457-.222.671-.336A12.484,12.484,0,0,0,398.3,243.9Zm-7.1,28.36a3.781,3.781,0,0,1-1.892,5l-3.822,1.719-4.223-9.391,3.944-1.772a3.647,3.647,0,0,1,4.818,1.835Zm-7.48-16.633a3.775,3.775,0,0,1-1.895,4.993l-3.822,1.719-4.219-9.383,3.943-1.773a3.647,3.647,0,0,1,4.816,1.829Z" transform="translate(-349.446 -233.82)" fill="#493107"/>
          </g>
          <g id="Group_1738" data-name="Group 1738">
            <g id="Group_1737" data-name="Group 1737">
              <path id="Path_752" data-name="Path 752" d="M397.479,242.808l-.3-.663a12.347,12.347,0,0,0-15.627-6.481q-.35.133-.694.287l-6.444,2.9-2.751-6.118-3.565,1.6,2.752,6.118-2.517,1.131-2.751-6.117-6.281,2.824,2.751,6.118-13.424,6.037,4.569,10.16,3.208-1.443,12.164,27.049-3.208,1.443,4.225,9.4,13.425-6.037,2.206,4.9,6.281-2.825-2.206-4.906,2.516-1.131,2.206,4.906,3.565-1.6-2.206-4.9,6.317-2.841c.27-.122.546-.253.8-.393a12.48,12.48,0,0,0,5.469-16.106l-.3-.662a12.346,12.346,0,0,0-15.626-6.482q-.352.133-.694.287c.228-.1.457-.223.672-.337A12.483,12.483,0,0,0,397.479,242.808Zm-7.1,28.36a3.779,3.779,0,0,1-1.892,5l-3.821,1.719-4.223-9.39,3.943-1.773a3.648,3.648,0,0,1,4.819,1.835Zm-7.48-16.633A3.773,3.773,0,0,1,381,259.528l-3.821,1.719-4.219-9.383,3.943-1.773a3.646,3.646,0,0,1,4.816,1.829Z" transform="translate(-348.63 -232.731)" fill="#d29e26"/>
            </g>
          </g>
        </g>
        <g id="Group_1742" data-name="Group 1742" transform="translate(7.789 7.778)">
          <g id="Group_1741" data-name="Group 1741" clip-path="url(#clip-path-3)">
            <g id="Group_1740" data-name="Group 1740" transform="translate(-13.436 -21.303)" opacity="0.2">
              <rect id="Rectangle_327" data-name="Rectangle 327" width="11.328" height="134.747" transform="translate(83.739 5.77) rotate(25.658)" fill="#ffe6b3"/>
              <rect id="Rectangle_328" data-name="Rectangle 328" width="20.326" height="134.746" transform="translate(58.343 0) rotate(25.657)" fill="#ffe6b3"/>
              <rect id="Rectangle_329" data-name="Rectangle 329" width="5.665" height="134.747" transform="translate(99.229 14.356) rotate(25.658)" fill="#ffe6b3"/>
            </g>
          </g>
        </g>
        <path id="Path_754" data-name="Path 754" d="M340.787,278.65A43.873,43.873,0,0,1,396.716,222.7,43.869,43.869,0,1,0,365.857,304.8,43.754,43.754,0,0,1,340.787,278.65Z" transform="translate(-328.657 -211.701)" fill="#bc700c" opacity="0.3"/>
        <path id="Path_755" data-name="Path 755" d="M392.337,221.789a43.875,43.875,0,0,1-30.7,82.192,43.876,43.876,0,1,0,30.7-82.192Z" transform="translate(-325.965 -211.456)" fill="#bc700c" opacity="0.3"/>
      </g>
      <rect id="Rectangle_330" data-name="Rectangle 330" width="132.118" height="88.803" rx="9.148" transform="translate(313.715 301.136)" fill="#181c3a"/>
      <rect id="Rectangle_331" data-name="Rectangle 331" width="123.235" height="80.761" rx="4.636" transform="translate(318.157 305.157)" fill="none" stroke="#afbadb" stroke-miterlimit="10" stroke-width="1.127" stroke-dasharray="5.635"/>
      <path id="Path_756" data-name="Path 756" d="M377,338.113h0a13.9,13.9,0,0,1-13.9-13.9V286.242h27.8v37.971A13.9,13.9,0,0,1,377,338.113Z" transform="translate(2.263 14.894)" fill="#b7b027"/>
      <path id="Path_757" data-name="Path 757" d="M382.812,321.814a6.482,6.482,0,1,1-6.483-6.482A6.483,6.483,0,0,1,382.812,321.814Z" transform="translate(2.984 18.003)" fill="#474777"/>
      <path id="Path_758" data-name="Path 758" d="M380.639,321.623a4.5,4.5,0,1,1-4.5-4.5A4.5,4.5,0,0,1,380.639,321.623Z" transform="translate(3.175 18.194)" fill="#fccc54"/>
      <g id="Group_1744" data-name="Group 1744" transform="translate(430.261 108.531)">
        <path id="Path_759" data-name="Path 759" d="M502.316,152.524a40.292,40.292,0,1,1-40.292-40.291A40.293,40.293,0,0,1,502.316,152.524Z" transform="translate(-421.732 -112.233)" fill="#1d964e"/>
        <path id="Path_760" data-name="Path 760" d="M495.29,151.906a33.885,33.885,0,1,1-33.885-33.885A33.885,33.885,0,0,1,495.29,151.906Z" transform="translate(-421.113 -111.614)" fill="#3ddb86"/>
        <path id="Path_761" data-name="Path 761" d="M439.909,141.967l17.943,8.834,26.312-20.361L457.3,165Z" transform="translate(-419.79 -110.287)" fill="#f5faff"/>
      </g>
      <g id="Group_1751" data-name="Group 1751" transform="translate(461.33 126.374)">
        <g id="Group_1750" data-name="Group 1750">
          <g id="Group_1746" data-name="Group 1746" transform="translate(0 66.271)">
            <g id="Group_1745" data-name="Group 1745">
              <path id="Path_762" data-name="Path 762" d="M488.44,208.577a3.169,3.169,0,0,1-.829-1.873c.028-1,.954-1.737,1.254-2.692a3.383,3.383,0,0,0-1.173-3.291c-.892-.846-2.011-1.411-2.953-2.2a8.052,8.052,0,0,1-2.835-5.591,32.291,32.291,0,0,0-1.07-4.087.969.969,0,0,0-1.159-.565,1.267,1.267,0,0,0-.511.507c-1.09,1.647-.779,6.348-.641,8.319l-20.256,2.214c-2.431.266-5,.586-6.928,2.091a3.628,3.628,0,0,0-1.531,2.48c-.1,1.428,1.043,2.635,2.229,3.434,7.785,5.23,20.527,2.955,28.338,8.145a22.609,22.609,0,0,1,4.249,3.947c1.459,1.637,1.644,1.213,3.477,2.415a7.3,7.3,0,0,0,6.248,1.122,4.572,4.572,0,0,0,2.913-3.094c.282-1.656,2.407-3.663,1.3-4.713C495.944,212.666,490.6,211.457,488.44,208.577Z" transform="translate(-449.802 -188.225)" fill="#d89c7e"/>
              <path id="Path_763" data-name="Path 763" d="M450.9,201.319a.319.319,0,0,0,.064,0c3.22-.363,5.471-.624,7.721-.885s4.519-.526,7.757-.89a.56.56,0,0,0,.492-.621.521.521,0,0,0-.62-.494c-3.239.365-5.5.626-7.759.89s-4.5.524-7.719.887a.561.561,0,0,0,.063,1.118Z" transform="translate(-449.744 -187.137)" fill="#b57457"/>
              <path id="Path_764" data-name="Path 764" d="M450.494,204.666h.056c3.78-.375,5.668-.515,7.492-.65s3.727-.274,7.523-.652a.562.562,0,0,0,.5-.614.547.547,0,0,0-.614-.5c-3.781.375-5.67.515-7.495.65s-3.726.274-7.522.651a.561.561,0,0,0,.056,1.119Z" transform="translate(-449.788 -186.727)" fill="#b57457"/>
              <path id="Path_765" data-name="Path 765" d="M453.782,207.382h.054c1.184-.114,2.469-.259,3.789-.41,2.469-.281,5.023-.57,7.232-.681a.562.562,0,0,0,.531-.59.532.532,0,0,0-.59-.531c-2.241.115-4.813.406-7.3.688-1.311.148-2.591.293-3.771.406a.56.56,0,0,0,.054,1.118Z" transform="translate(-449.436 -186.415)" fill="#b57457"/>
              <path id="Path_766" data-name="Path 766" d="M463.985,207.556h.006a.561.561,0,0,0,.556-.567c-.073-7.294,1.521-7.9,1.536-7.909a.534.534,0,0,0,.485-.6.591.591,0,0,0-.634-.508c-.609.049-2.591.842-2.509,9.028A.561.561,0,0,0,463.985,207.556Z" transform="translate(-448.346 -187.184)" fill="#b57457"/>
              <path id="Path_767" data-name="Path 767" d="M476.759,204.511a.561.561,0,0,0,.3-1.035,2.645,2.645,0,0,1-.951-1.889,9.332,9.332,0,0,1,.571-4.983.561.561,0,1,0-1.039-.425,10.315,10.315,0,0,0-.638,5.59,3.666,3.666,0,0,0,1.453,2.655A.545.545,0,0,0,476.759,204.511Z" transform="translate(-447.123 -187.413)" fill="#b57457"/>
            </g>
            <path id="Path_768" data-name="Path 768" d="M553.554,197.938s-17.363,17.927-26.295,32.441c0,0-2.8-2.441-3.363.63l-34.539-21.348s-6.42,3.628-8.1,10.886c0,0,30.424,24,35.449,28.469s13.4,13.4,24.282-1.116,28.191-36.285,28.191-36.285,4.465-8.652-.559-16.747S553.554,197.938,553.554,197.938Z" transform="translate(-446.44 -187.83)" fill="#7a6cff"/>
            <path id="Path_769" data-name="Path 769" d="M526.017,232.914a.444.444,0,0,0,.351-.719,18.888,18.888,0,0,0-6.549-5.3.445.445,0,0,0-.389.8,17.977,17.977,0,0,1,6.236,5.05A.447.447,0,0,0,526.017,232.914Z" transform="translate(-442.388 -184.098)" fill="#6b7fb2"/>
            <path id="Path_770" data-name="Path 770" d="M526.414,230.917a.445.445,0,0,0,.323-.75l-3.364-3.572a.445.445,0,0,0-.648.61l3.364,3.572A.442.442,0,0,0,526.414,230.917Z" transform="translate(-442.022 -184.14)" fill="#6b7fb2"/>
            <path id="Path_771" data-name="Path 771" d="M485.645,221.232a.445.445,0,0,0,.405-.261c.031-.067,3.146-6.839,7.179-9.26a.446.446,0,0,0-.458-.765c-4.274,2.565-7.4,9.369-7.531,9.656a.444.444,0,0,0,.221.59A.434.434,0,0,0,485.645,221.232Z" transform="translate(-446.019 -185.804)" fill="#6b7fb2"/>
          </g>
          <path id="Path_772" data-name="Path 772" d="M556.324,454.438s-12.472,7.046-19.921,11.3c-5.311,3.033-9.079,8.505-3.215,8.689s15.462-1.11,21.219-4.127c4-2.1,6.317-1.385,9.248-1.935s6.413-.733,6.963-3.3-.184-10.078-.184-10.078Z" transform="translate(-441.207 -93.505)" fill="#894132"/>
          <path id="Path_773" data-name="Path 773" d="M588.285,455.492c0,.55,1.1,7.33.184,13.56s1.21,8.969,7.989,8.419,9.967.926,7.4-7.136a96.408,96.408,0,0,1-3.482-16.309Z" transform="translate(-435.004 -93.549)" fill="#894132"/>
          <path id="Path_774" data-name="Path 774" d="M538.465,285.33l13.753,190s11.69,3.843,19.6,0l1.054-154.3L588.66,475.679a23.445,23.445,0,0,0,20.284,0l.344-200.478S546.028,275.55,538.465,285.33Z" transform="translate(-440.327 -112.66)" fill="#181c3a"/>
          <path id="Path_775" data-name="Path 775" d="M572.086,320.518a.447.447,0,0,0,.442-.5c-.028-.23-2.765-22.81-2.675-26.426a.445.445,0,0,0-.433-.457.49.49,0,0,0-.457.433c-.084,3.4,2.175,22.36,2.612,25.987l-3.383-.438c-.993-3.954-4.375-24.849-4.431-25.871a.448.448,0,0,0-.3-.457.439.439,0,0,0-.563.282c-.2.6,3.767,23.946,4.517,26.57a.444.444,0,0,0,.371.319l4.246.553A.5.5,0,0,0,572.086,320.518Z" transform="translate(-437.717 -110.782)" fill="#3f4973"/>
          <path id="Path_776" data-name="Path 776" d="M538.465,285.33l.558,7.7c6.236,2.1,34.058,8.449,70.235.094l.031-17.921S546.029,275.55,538.465,285.33Z" transform="translate(-440.327 -112.66)" fill="#894132"/>
          <path id="Path_777" data-name="Path 777" d="M545.585,287.935l.484,9.385,2.128-.1.678-9.964Z" transform="translate(-439.566 -111.371)" fill="#2b304d"/>
          <path id="Path_778" data-name="Path 778" d="M582.382,289.072l.483,9.385,2.128-.1.678-9.965Z" transform="translate(-435.633 -111.25)" fill="#2b304d"/>
          <path id="Path_779" data-name="Path 779" d="M553.539,288.984l.484,9.385,2.128-.1.677-9.965Z" transform="translate(-438.716 -111.259)" fill="#2b304d"/>
          <path id="Path_780" data-name="Path 780" d="M572.505,289.421l.484,9.383,2.128-.1.677-9.965Z" transform="translate(-436.689 -111.212)" fill="#2b304d"/>
          <path id="Path_781" data-name="Path 781" d="M541.963,300.462c3.882,1.059,8.283,1.052,12.128,1.469,5.546.6,11.114,1.017,16.689,1.214,13.082.462,26.608-.029,39.246-3.722.189-.055.377-7.624.467-8.261a69.664,69.664,0,0,0,.422-13.172c-.445-8.895-1.926-17.739-1.667-26.664.3-10.421,2.964-20.561,4.272-30.865a61.64,61.64,0,0,0,.492-15.385c-.567-4.424-3.766-7.957-7.405-10.459-13.69-9.412-42.35-13.689-53.044-2.14-4.751,5.13-10.634,9.693-13.049,16.342a62.106,62.106,0,0,0-4.24,21.792c-.08,11.043,1.177,22.031,1.8,33.044.561,9.927,1.319,20.959-1.721,30.53a4.535,4.535,0,0,0-.318,2.536,3.8,3.8,0,0,0,1.845,2.027A15.488,15.488,0,0,0,541.963,300.462Z" transform="translate(-440.595 -122.245)" fill="#7a6cff"/>
          <g id="Group_1749" data-name="Group 1749" transform="translate(108.122)">
            <path id="Path_782" data-name="Path 782" d="M583.362,170.246l-.877,23.3s.9,9.443-13.5,9.225c0,0-9.149-1.185-9.011-10.35l.316-20.947Z" transform="translate(-546.15 -123.876)" fill="#d89c7e"/>
            <path id="Path_783" data-name="Path 783" d="M583.26,172.618l.089-2.372-22.953,1.216c-.04.054-.076.11-.116.164l-.173,11.457C565.218,185.638,576,188.493,583.26,172.618Z" transform="translate(-546.136 -123.876)" fill="#9c503c"/>
            <path id="Path_784" data-name="Path 784" d="M587.6,168.257c-1.911,5.889-5.569,11.915-10.79,15.414-5.167,3.461-12.519,3.885-16.829-1.151-2.479-2.9-3.562-6.759-3.908-10.555-.18-1.971-.181-3.96-.466-5.918-.23-1.579-.644-3.126-.876-4.705a30.042,30.042,0,0,1-.165-6.141,21.064,21.064,0,0,1,1.363-6.94c3.244-7.722,13.7-8.492,20.538-5.741,8.886,3.576,13.552,12.812,12.018,22.168l-.049.283A24.852,24.852,0,0,1,587.6,168.257Z" transform="translate(-546.737 -126.994)" fill="#d89c7e"/>
            <path id="Path_785" data-name="Path 785" d="M569.2,159.853a1.583,1.583,0,1,0,1.582-1.583A1.582,1.582,0,0,0,569.2,159.853Z" transform="translate(-545.164 -125.156)" fill="#232221"/>
            <path id="Path_786" data-name="Path 786" d="M557.737,159.853a1.583,1.583,0,1,0,1.583-1.583A1.583,1.583,0,0,0,557.737,159.853Z" transform="translate(-546.389 -125.156)" fill="#232221"/>
            <path id="Path_787" data-name="Path 787" d="M564.358,170.639c.21,0,.415-.014.608-.029a.311.311,0,0,0,.287-.332.321.321,0,0,0-.332-.286,3.541,3.541,0,0,1-1.127-.034.981.981,0,0,1-.7-.557,1.7,1.7,0,0,1,.028-.809l1.812-9.371a.309.309,0,1,0-.608-.117l-1.812,9.371a2.17,2.17,0,0,0-.006,1.128,1.565,1.565,0,0,0,1.128.954A2.825,2.825,0,0,0,564.358,170.639Z" transform="translate(-545.887 -125.094)" fill="#aa6446"/>
            <g id="Group_1747" data-name="Group 1747" transform="translate(16.53 46.578)">
              <path id="Path_788" data-name="Path 788" d="M562.419,172.385a84.945,84.945,0,0,0,11.956-1.951s-.487,4.734-5.172,5.661S562.419,172.385,562.419,172.385Z" transform="translate(-562.419 -170.434)" fill="#693a2d"/>
              <path id="Path_789" data-name="Path 789" d="M573.052,172.955a6.083,6.083,0,0,1-4.159,2.87,5.544,5.544,0,0,1-3.58-.421C567.1,173.1,571.248,172.917,573.052,172.955Z" transform="translate(-562.11 -170.165)" fill="#c55353"/>
              <path id="Path_790" data-name="Path 790" d="M563.733,173.459l-.35-1.18a78.888,78.888,0,0,0,10.889-1.845,6.734,6.734,0,0,1-.337,1.358C572.025,172.427,567.156,173.882,563.733,173.459Z" transform="translate(-562.316 -170.434)" fill="#f1f2f2"/>
            </g>
            <path id="Path_791" data-name="Path 791" d="M571.7,155.742c-1-.266-1.991-.567-2.983-.868a1.124,1.124,0,0,1-.654-.379.872.872,0,0,1,.251-1.046c1.146-1.1,4.068-.59,5.369.1.522.277,1.52,1.274,1.38,1.923C574.825,156.578,572.433,155.938,571.7,155.742Z" transform="translate(-545.296 -125.74)" fill="#202232"/>
            <path id="Path_792" data-name="Path 792" d="M559.509,155.742c1-.266,1.992-.567,2.983-.868a1.124,1.124,0,0,0,.654-.379.871.871,0,0,0-.25-1.046c-1.146-1.1-4.068-.59-5.371.1-.522.277-1.519,1.274-1.38,1.923C556.382,156.578,558.773,155.938,559.509,155.742Z" transform="translate(-546.561 -125.74)" fill="#202232"/>
            <path id="Path_793" data-name="Path 793" d="M593.029,143.623c-.128.194-.346.309-.5.5a1.667,1.667,0,0,0-.231.964c-.115,4.114.231,8.217.231,12.319-.231,4.436-1.555,8.744-2.879,12.988-.283.9-.825-.155-1.016-.566a4.071,4.071,0,0,1-.373-1.749.76.76,0,0,0-.079-.451c-.166-.231-.539-.167-.758.013s-.36.437-.591.6a1.177,1.177,0,0,1-1.4-.194,2.35,2.35,0,0,1-.591-1.376,6.608,6.608,0,0,1,0-1.324c.1-1.338.437-2.7-.1-3.909a6.643,6.643,0,0,0-1.928-2.135,9.61,9.61,0,0,1-2.752-3.356,4.28,4.28,0,0,1,.257-4.166c.488-.682,1.285-1.3,1.2-2.122a1.73,1.73,0,0,0-.643-1.08c-1.337-1.2-3.267-1.324-5.053-1.4a97.743,97.743,0,0,0-10.456-.091c-1.556.1-3.1.348-4.642.4a2.6,2.6,0,0,0-2.533,1.852,6.935,6.935,0,0,1-.207,1.17,4.006,4.006,0,0,1-.694.876,6.718,6.718,0,0,0-1.221,2.6c-.322,1.143-.6,2.289-.824,3.459a.043.043,0,0,0-.012-.027,8.937,8.937,0,0,1-.567-2.147,6.848,6.848,0,0,1-.257-1.3c-.991-3.678-2.841-9.452-5.517-13.233-4.18-5.89,1.376-17.463,11.727-9.914a57.6,57.6,0,0,0,19.624,8.95c.475.115.939.244,1.389.36.4.115.8.232,1.183.348a15.617,15.617,0,0,0,3.228.81,12.014,12.014,0,0,0,3.446-.27.826.826,0,0,1,.437,0c.592.27-.051,1.581.592,1.685a2.836,2.836,0,0,1,1.762-.451C592.877,142.377,593.378,143.122,593.029,143.623Z" transform="translate(-547.485 -128.353)" fill="#202232"/>
            <path id="Path_794" data-name="Path 794" d="M588.238,163.633a5.642,5.642,0,0,1-3.458,3.738,1.27,1.27,0,0,1-.994,0c-2.886-1.551-1.337-8.3.754-9.868C587.637,155.19,589.082,160.924,588.238,163.633Z" transform="translate(-543.775 -125.295)" fill="#d89c7e"/>
            <g id="Group_1748" data-name="Group 1748" transform="translate(33.439 34.813)">
              <path id="Path_795" data-name="Path 795" d="M584.848,164.89a6.163,6.163,0,0,1-2.145,2.69,8.435,8.435,0,0,1-3.1,1.945c-.688.189-1.61.083-1.855-.589s.373-1.332.932-1.785l4.027-3.267a1.631,1.631,0,0,0,.593-.709c.4-1.238-.031-2.188,1.323-3.006a1.926,1.926,0,0,1,2.626.346C588.908,162.368,587.483,165.6,584.848,164.89Z" transform="translate(-577.695 -159.805)" fill="#232221"/>
              <path id="Path_796" data-name="Path 796" d="M585.8,162.684a2.638,2.638,0,0,0-.1-.825.882.882,0,0,0-.558-.577.541.541,0,0,0-.664.345.957.957,0,0,0,.1.533,17.9,17.9,0,0,1,.355,2.758C585.885,164.725,585.818,163.412,585.8,162.684Z" transform="translate(-576.972 -159.649)" fill="#dadde8"/>
              <path id="Path_797" data-name="Path 797" d="M578.424,168.085l4.942-3.53c1.151-.825,1.086-3.17,1.083-3.27a.154.154,0,0,0-.155-.149h0a.155.155,0,0,0-.15.161c0,.022.062,2.279-.954,3.006l-4.942,3.53Z" transform="translate(-577.637 -159.663)" fill="#dadde8"/>
            </g>
          </g>
          <path id="Path_798" data-name="Path 798" d="M584.6,181.152l-15.853,12.01-2.722,6.725-5.6-16.654-5.765,7.366.96,9.288,4.323-5.284s1.762,5.925,5.284,7.526l2.562.321,4.323-.16,3.523,1.761,11.209-12.329Z" transform="translate(-438.596 -122.711)" fill="#7a6cff"/>
          <path id="Path_799" data-name="Path 799" d="M588.76,295.843l-4.331,5.231A11.485,11.485,0,0,0,597,306.938l1.531-6.34Z" transform="translate(-435.414 -110.454)" fill="#d89c7e"/>
          <path id="Path_800" data-name="Path 800" d="M588.348,210.841s13.286,34.937,19.682,43.3l-21.65,51.421s3.443,6.889,12.793,7.874c0,0,21.4-42.072,24.111-45.763s5.905-9.594,5.905-12.3-15.008-49.207-23.127-56.587-13.04-5.167-15.5-3.937S583.673,202.231,588.348,210.841Z" transform="translate(-435.215 -121.385)" fill="#7a6cff"/>
          <path id="Path_801" data-name="Path 801" d="M587.351,303.94a.443.443,0,0,0,.411-.272l20.614-49.374a.451.451,0,0,0-.01-.365c-.164-.341-16.407-34.082-17.3-37.287-.141-.5-.393-1.152-.712-1.972-1.834-4.727-5.248-13.526,2.024-20.147a.445.445,0,1,0-.6-.659c-7.726,7.032-4.032,16.553-2.257,21.129.3.765.553,1.427.684,1.889.893,3.192,15.849,34.294,17.274,37.253l-20.538,49.19a.445.445,0,0,0,.24.582A.407.407,0,0,0,587.351,303.94Z" transform="translate(-435.15 -121.365)" fill="#6b7fb2"/>
          <path id="Path_802" data-name="Path 802" d="M620.087,251.66a.445.445,0,0,0,.2-.84,24.739,24.739,0,0,0-13.781-2.648.445.445,0,0,0,.089.887,23.823,23.823,0,0,1,13.28,2.55A.453.453,0,0,0,620.087,251.66Z" transform="translate(-433.098 -115.561)" fill="#6b7fb2"/>
          <path id="Path_803" data-name="Path 803" d="M608.571,247.747h6.561a.445.445,0,0,0,0-.891h-6.561a.445.445,0,1,0,0,.891Z" transform="translate(-432.882 -115.689)" fill="#6b7fb2"/>
          <path id="Path_804" data-name="Path 804" d="M610.676,251.551a.446.446,0,0,0,.133-.871,6.177,6.177,0,0,0-2.271-.258.446.446,0,0,0-.409.479.417.417,0,0,0,.479.408,5.369,5.369,0,0,1,1.935.22A.433.433,0,0,0,610.676,251.551Z" transform="translate(-432.882 -115.31)" fill="#6b7fb2"/>
          <path id="Path_805" data-name="Path 805" d="M588.273,216.167a.444.444,0,0,0,.371-.69,11.421,11.421,0,0,1-1.136-2.411,34.475,34.475,0,0,1-1.7-16.812.444.444,0,0,0-.374-.506.436.436,0,0,0-.506.374,35.4,35.4,0,0,0,1.744,17.248,12.226,12.226,0,0,0,1.231,2.6A.442.442,0,0,0,588.273,216.167Z" transform="translate(-435.402 -121.151)" fill="#6b7fb2"/>
          <path id="Path_806" data-name="Path 806" d="M565.3,200.977a.446.446,0,0,0,.37-.2l3.965-5.887,3.173,4.58a.448.448,0,0,0,.3.187.454.454,0,0,0,.34-.085c.078-.06,7.844-6.013,11.773-11.649a.445.445,0,1,0-.731-.509c-3.366,4.826-9.636,9.915-11.215,11.162L570,193.848a.446.446,0,0,0-.366-.191.357.357,0,0,0-.37.2l-4.33,6.43a.446.446,0,0,0,.122.618A.454.454,0,0,0,565.3,200.977Z" transform="translate(-437.506 -122.061)" fill="#6b7fb2"/>
          <path id="Path_807" data-name="Path 807" d="M564.79,201.154a.428.428,0,0,0,.167-.032.447.447,0,0,0,.246-.58l-2.493-6.167a.451.451,0,0,0-.329-.27.432.432,0,0,0-.406.127l-3.427,3.543-2.784-8.231a.446.446,0,0,0-.845.286l3.018,8.922a.446.446,0,0,0,.743.167l3.459-3.575,2.237,5.532A.444.444,0,0,0,564.79,201.154Z" transform="translate(-438.571 -121.846)" fill="#6b7fb2"/>
          <path id="Path_808" data-name="Path 808" d="M559.374,300.62a.447.447,0,0,0,.425-.313c3.249-10.395,4.533-40,2.642-60.925a124.108,124.108,0,0,1,3.135-38.553.445.445,0,1,0-.859-.232,125.117,125.117,0,0,0-3.162,38.865c1.88,20.833.615,50.273-2.606,60.582a.447.447,0,0,0,.291.559A.559.559,0,0,0,559.374,300.62Z" transform="translate(-438.14 -120.668)" fill="#6b7fb2"/>
          <path id="Path_809" data-name="Path 809" d="M586.337,223.314l-17.762-.146a.444.444,0,0,1-.44-.481l.293-3.523a.443.443,0,0,1,.443-.408h0l17.468.147a.445.445,0,0,1,.443.445v3.522a.446.446,0,0,1-.445.445Zm-17.057-3.665-.219,2.631,16.833.138v-2.63Z" transform="translate(-437.156 -118.692)" fill="#6b7fb2"/>
          <path id="Path_810" data-name="Path 810" d="M537.406,251.5a.186.186,0,0,0,.034,0,.446.446,0,0,0,.408-.478c-.022-.277-2.186-27.63,1.089-36.088l.464-1.2c2.982-7.708,4.623-11.952,6.432-14.021a.445.445,0,1,0-.67-.586c-1.913,2.186-3.476,6.229-6.593,14.284l-.465,1.2c-3.348,8.649-1.237,35.35-1.146,36.482A.447.447,0,0,0,537.406,251.5Z" transform="translate(-440.567 -120.806)" fill="#6b7fb2"/>
          <path id="Path_811" data-name="Path 811" d="M601.657,296.668a.445.445,0,0,0,.118-.874c-8.745-2.441-11.509-5.9-11.535-5.939a.46.46,0,0,0-.625-.08.446.446,0,0,0-.082.624c.115.149,2.927,3.719,12,6.254A.555.555,0,0,0,601.657,296.668Z" transform="translate(-434.879 -111.112)" fill="#afbadb"/>
          <path id="Path_812" data-name="Path 812" d="M580.6,319.106a.446.446,0,0,0,.041-.891,173.235,173.235,0,0,1-17.724-2.393.445.445,0,1,0-.181.871,174.5,174.5,0,0,0,17.825,2.413Z" transform="translate(-437.771 -108.32)" fill="#3f4973"/>
          <path id="Path_813" data-name="Path 813" d="M596.338,307.531a16.512,16.512,0,0,0,7.543-1.959.444.444,0,0,0,.195-.6.453.453,0,0,0-.6-.193c-5.49,2.8-10.688,2.469-15.44-.959a21.486,21.486,0,0,1-5.551-6.057.445.445,0,0,0-.777.435C581.774,298.318,587.088,307.531,596.338,307.531Z" transform="translate(-435.711 -110.273)" fill="#3f4973"/>
        </g>
      </g>
      <g id="Group_1780" data-name="Group 1780" transform="translate(193.606 307.239)">
        <g id="Group_1755" data-name="Group 1755" transform="translate(222.999 78.144)">
          <g id="Group_1752" data-name="Group 1752" transform="translate(82.329 65.479)">
            <path id="Path_814" data-name="Path 814" d="M483.775,471.859S500.529,422,520.032,421.517s5.851,32.9-20.966,50.343Z" transform="translate(-483.775 -421.511)" fill="#1d964e"/>
            <path id="Path_815" data-name="Path 815" d="M490.161,470.634s20.361-32.883,27.112-37.654" transform="translate(-483.093 -420.286)" fill="none" stroke="#14723a" stroke-miterlimit="10" stroke-width="1.585"/>
          </g>
          <g id="Group_1753" data-name="Group 1753" transform="translate(46.422)">
            <path id="Path_816" data-name="Path 816" d="M458.861,478.181H490.1s80.065-108.558,20.8-115.255C422.149,352.9,458.861,478.181,458.861,478.181Z" transform="translate(-451.335 -362.355)" fill="#3ddb86"/>
            <path id="Path_817" data-name="Path 817" d="M473.575,476.465s-5.787-49.024,25.793-98.049" transform="translate(-449.003 -360.638)" fill="none" stroke="#14723a" stroke-miterlimit="10" stroke-width="2.254"/>
          </g>
          <g id="Group_1754" data-name="Group 1754" transform="translate(0 44.233)">
            <path id="Path_818" data-name="Path 818" d="M463.343,473.91s-13.139-70.9-40.872-71.586-8.319,46.787,29.815,71.586Z" transform="translate(-409.395 -402.317)" fill="#1d964e"/>
            <path id="Path_819" data-name="Path 819" d="M458.114,473.137s-26.626-60.883-40.771-63.588" transform="translate(-408.546 -401.545)" fill="none" stroke="#14723a" stroke-miterlimit="10" stroke-width="2.254"/>
          </g>
        </g>
        <g id="Group_1779" data-name="Group 1779">
          <g id="Group_1770" data-name="Group 1770" transform="translate(5.88 82.7)">
            <g id="Group_1757" data-name="Group 1757" transform="translate(0 89.196)">
              <path id="Rectangle_332" data-name="Rectangle 332" d="M1.747,0h92.12a1.747,1.747,0,0,1,1.747,1.747V20.623a1.746,1.746,0,0,1-1.746,1.746H1.747A1.747,1.747,0,0,1,0,20.622V1.747A1.747,1.747,0,0,1,1.747,0Z" transform="translate(0 0)" fill="#fe9c03"/>
              <g id="Group_1756" data-name="Group 1756" transform="translate(8.079 2.03)" opacity="0.76" style="mix-blend-mode: multiply;isolation: isolate">
                <rect id="Rectangle_333" data-name="Rectangle 333" width="4.156" height="18.306" fill="#facd5d"/>
                <rect id="Rectangle_334" data-name="Rectangle 334" width="4.156" height="18.306" transform="translate(12.55)" fill="#facd5d"/>
                <rect id="Rectangle_335" data-name="Rectangle 335" width="4.156" height="18.306" transform="translate(25.1)" fill="#facd5d"/>
                <rect id="Rectangle_336" data-name="Rectangle 336" width="4.156" height="18.306" transform="translate(37.651)" fill="#facd5d"/>
                <rect id="Rectangle_337" data-name="Rectangle 337" width="4.156" height="18.306" transform="translate(50.201)" fill="#facd5d"/>
                <rect id="Rectangle_338" data-name="Rectangle 338" width="4.156" height="18.306" transform="translate(62.751)" fill="#facd5d"/>
                <rect id="Rectangle_339" data-name="Rectangle 339" width="4.156" height="18.306" transform="translate(75.301)" fill="#facd5d"/>
              </g>
              <rect id="Rectangle_340" data-name="Rectangle 340" width="52.849" height="18.2" transform="translate(42.765 2.03)" fill="#bc700c" opacity="0.49"/>
              <rect id="Rectangle_341" data-name="Rectangle 341" width="26.424" height="18.2" transform="translate(4.272 2.03)" fill="#ffe6b3" opacity="0.5"/>
              <rect id="Rectangle_342" data-name="Rectangle 342" width="26.424" height="18.2" transform="translate(4.272 2.03)" fill="#ffe6b3" opacity="0.2"/>
              <path id="Path_820" data-name="Path 820" d="M213.239,465.556a1.9,1.9,0,0,0,1.9,1.9h91.806a1.9,1.9,0,0,0,1.9-1.9v-.128H213.239Z" transform="translate(-213.239 -445.092)" fill="#bc700c" opacity="0.72"/>
              <path id="Path_821" data-name="Path 821" d="M306.949,447.055H215.143a1.9,1.9,0,0,0-1.9,1.9v.126h95.615v-.126A1.9,1.9,0,0,0,306.949,447.055Z" transform="translate(-213.239 -447.055)" fill="#fccc54"/>
            </g>
            <g id="Group_1759" data-name="Group 1759" transform="translate(26.506 66.826)">
              <rect id="Rectangle_343" data-name="Rectangle 343" width="95.614" height="22.37" rx="1.747" transform="translate(0 0)" fill="#fe9c03"/>
              <g id="Group_1758" data-name="Group 1758" transform="translate(8.078 2.031)" opacity="0.76" style="mix-blend-mode: multiply;isolation: isolate">
                <rect id="Rectangle_344" data-name="Rectangle 344" width="4.156" height="18.307" fill="#facd5d"/>
                <rect id="Rectangle_345" data-name="Rectangle 345" width="4.156" height="18.307" transform="translate(12.55)" fill="#facd5d"/>
                <rect id="Rectangle_346" data-name="Rectangle 346" width="4.156" height="18.307" transform="translate(25.1)" fill="#facd5d"/>
                <rect id="Rectangle_347" data-name="Rectangle 347" width="4.156" height="18.307" transform="translate(37.651)" fill="#facd5d"/>
                <rect id="Rectangle_348" data-name="Rectangle 348" width="4.156" height="18.307" transform="translate(50.201)" fill="#facd5d"/>
                <rect id="Rectangle_349" data-name="Rectangle 349" width="4.156" height="18.307" transform="translate(62.751)" fill="#facd5d"/>
                <rect id="Rectangle_350" data-name="Rectangle 350" width="4.156" height="18.307" transform="translate(75.301)" fill="#facd5d"/>
              </g>
              <rect id="Rectangle_351" data-name="Rectangle 351" width="52.849" height="18.2" transform="translate(42.765 2.031)" fill="#bc700c" opacity="0.49"/>
              <rect id="Rectangle_352" data-name="Rectangle 352" width="26.424" height="18.2" transform="translate(4.272 2.031)" fill="#ffe6b3" opacity="0.5"/>
              <rect id="Rectangle_353" data-name="Rectangle 353" width="26.424" height="18.2" transform="translate(4.272 2.031)" fill="#ffe6b3" opacity="0.2"/>
              <path id="Path_822" data-name="Path 822" d="M237.186,445.346a1.9,1.9,0,0,0,1.9,1.9H330.9a1.9,1.9,0,0,0,1.9-1.9v-.127H237.186Z" transform="translate(-237.186 -424.881)" fill="#bc700c" opacity="0.72"/>
              <path id="Path_823" data-name="Path 823" d="M330.9,426.845H239.09a1.9,1.9,0,0,0-1.9,1.9v.126H332.8v-.126A1.9,1.9,0,0,0,330.9,426.845Z" transform="translate(-237.186 -426.845)" fill="#fccc54"/>
            </g>
            <g id="Group_1761" data-name="Group 1761" transform="translate(156.058 89.196)">
              <path id="Rectangle_354" data-name="Rectangle 354" d="M1.747,0h92.12a1.747,1.747,0,0,1,1.747,1.747V20.623a1.746,1.746,0,0,1-1.746,1.746H1.747A1.747,1.747,0,0,1,0,20.622V1.747A1.747,1.747,0,0,1,1.747,0Z" transform="translate(0.001 0)" fill="#fe9c03"/>
              <g id="Group_1760" data-name="Group 1760" transform="translate(8.079 2.03)" opacity="0.76" style="mix-blend-mode: multiply;isolation: isolate">
                <rect id="Rectangle_355" data-name="Rectangle 355" width="4.156" height="18.306" fill="#facd5d"/>
                <rect id="Rectangle_356" data-name="Rectangle 356" width="4.155" height="18.306" transform="translate(12.551)" fill="#facd5d"/>
                <rect id="Rectangle_357" data-name="Rectangle 357" width="4.156" height="18.306" transform="translate(25.1)" fill="#facd5d"/>
                <rect id="Rectangle_358" data-name="Rectangle 358" width="4.156" height="18.306" transform="translate(37.651)" fill="#facd5d"/>
                <rect id="Rectangle_359" data-name="Rectangle 359" width="4.155" height="18.306" transform="translate(50.201)" fill="#facd5d"/>
                <rect id="Rectangle_360" data-name="Rectangle 360" width="4.156" height="18.306" transform="translate(62.751)" fill="#facd5d"/>
                <rect id="Rectangle_361" data-name="Rectangle 361" width="4.156" height="18.306" transform="translate(75.302)" fill="#facd5d"/>
              </g>
              <rect id="Rectangle_362" data-name="Rectangle 362" width="52.849" height="18.2" transform="translate(42.766 2.03)" fill="#bc700c" opacity="0.49"/>
              <rect id="Rectangle_363" data-name="Rectangle 363" width="26.425" height="18.2" transform="translate(4.272 2.03)" fill="#ffe6b3" opacity="0.5"/>
              <rect id="Rectangle_364" data-name="Rectangle 364" width="26.425" height="18.2" transform="translate(4.272 2.03)" fill="#ffe6b3" opacity="0.2"/>
              <path id="Path_824" data-name="Path 824" d="M354.23,465.556a1.9,1.9,0,0,0,1.9,1.9h91.806a1.9,1.9,0,0,0,1.9-1.9v-.128H354.23Z" transform="translate(-354.23 -445.092)" fill="#bc700c" opacity="0.72"/>
              <path id="Path_825" data-name="Path 825" d="M447.941,447.055H356.135a1.9,1.9,0,0,0-1.9,1.9v.126h95.615v-.126A1.9,1.9,0,0,0,447.941,447.055Z" transform="translate(-354.23 -447.055)" fill="#fccc54"/>
            </g>
            <g id="Group_1763" data-name="Group 1763" transform="translate(138.948 66.826)">
              <rect id="Rectangle_365" data-name="Rectangle 365" width="95.614" height="22.37" rx="1.747" transform="translate(0 0)" fill="#fe9c03"/>
              <g id="Group_1762" data-name="Group 1762" transform="translate(8.078 2.031)" opacity="0.76" style="mix-blend-mode: multiply;isolation: isolate">
                <rect id="Rectangle_366" data-name="Rectangle 366" width="4.156" height="18.307" fill="#facd5d"/>
                <rect id="Rectangle_367" data-name="Rectangle 367" width="4.155" height="18.307" transform="translate(12.551)" fill="#facd5d"/>
                <rect id="Rectangle_368" data-name="Rectangle 368" width="4.156" height="18.307" transform="translate(25.101)" fill="#facd5d"/>
                <rect id="Rectangle_369" data-name="Rectangle 369" width="4.155" height="18.307" transform="translate(37.651)" fill="#facd5d"/>
                <rect id="Rectangle_370" data-name="Rectangle 370" width="4.156" height="18.307" transform="translate(50.201)" fill="#facd5d"/>
                <rect id="Rectangle_371" data-name="Rectangle 371" width="4.156" height="18.307" transform="translate(62.752)" fill="#facd5d"/>
                <rect id="Rectangle_372" data-name="Rectangle 372" width="4.155" height="18.307" transform="translate(75.302)" fill="#facd5d"/>
              </g>
              <rect id="Rectangle_373" data-name="Rectangle 373" width="52.85" height="18.2" transform="translate(42.765 2.031)" fill="#bc700c" opacity="0.49"/>
              <rect id="Rectangle_374" data-name="Rectangle 374" width="26.425" height="18.2" transform="translate(4.272 2.031)" fill="#ffe6b3" opacity="0.5"/>
              <rect id="Rectangle_375" data-name="Rectangle 375" width="26.425" height="18.2" transform="translate(4.272 2.031)" fill="#ffe6b3" opacity="0.2"/>
              <path id="Path_826" data-name="Path 826" d="M338.772,445.346a1.9,1.9,0,0,0,1.9,1.9h91.806a1.9,1.9,0,0,0,1.9-1.9v-.127H338.772Z" transform="translate(-338.772 -424.881)" fill="#bc700c" opacity="0.72"/>
              <path id="Path_827" data-name="Path 827" d="M432.482,426.845H340.676a1.9,1.9,0,0,0-1.9,1.9v.126h95.615v-.126A1.906,1.906,0,0,0,432.482,426.845Z" transform="translate(-338.772 -426.845)" fill="#fccc54"/>
            </g>
            <g id="Group_1765" data-name="Group 1765" transform="translate(3.483 44.737)">
              <rect id="Rectangle_376" data-name="Rectangle 376" width="95.614" height="22.369" rx="1.747" transform="translate(0 0)" fill="#fe9c03"/>
              <g id="Group_1764" data-name="Group 1764" transform="translate(8.078 2.031)" opacity="0.76" style="mix-blend-mode: multiply;isolation: isolate">
                <rect id="Rectangle_377" data-name="Rectangle 377" width="4.156" height="18.307" fill="#facd5d"/>
                <rect id="Rectangle_378" data-name="Rectangle 378" width="4.156" height="18.307" transform="translate(12.551)" fill="#facd5d"/>
                <rect id="Rectangle_379" data-name="Rectangle 379" width="4.156" height="18.307" transform="translate(25.101)" fill="#facd5d"/>
                <rect id="Rectangle_380" data-name="Rectangle 380" width="4.156" height="18.307" transform="translate(37.651)" fill="#facd5d"/>
                <rect id="Rectangle_381" data-name="Rectangle 381" width="4.156" height="18.307" transform="translate(50.201)" fill="#facd5d"/>
                <rect id="Rectangle_382" data-name="Rectangle 382" width="4.156" height="18.307" transform="translate(62.752)" fill="#facd5d"/>
                <rect id="Rectangle_383" data-name="Rectangle 383" width="4.156" height="18.307" transform="translate(75.302)" fill="#facd5d"/>
              </g>
              <rect id="Rectangle_384" data-name="Rectangle 384" width="52.85" height="18.2" transform="translate(42.765 2.031)" fill="#bc700c" opacity="0.49"/>
              <rect id="Rectangle_385" data-name="Rectangle 385" width="26.425" height="18.2" transform="translate(4.272 2.031)" fill="#ffe6b3" opacity="0.5"/>
              <rect id="Rectangle_386" data-name="Rectangle 386" width="26.425" height="18.2" transform="translate(4.272 2.031)" fill="#ffe6b3" opacity="0.2"/>
              <path id="Path_828" data-name="Path 828" d="M216.386,425.39a1.9,1.9,0,0,0,1.9,1.9H310.1a1.9,1.9,0,0,0,1.9-1.9v-.127H216.386Z" transform="translate(-216.386 -404.925)" fill="#bc700c" opacity="0.72"/>
              <path id="Path_829" data-name="Path 829" d="M310.1,406.889H218.29a1.9,1.9,0,0,0-1.9,1.9v.127H312v-.127A1.9,1.9,0,0,0,310.1,406.889Z" transform="translate(-216.386 -406.889)" fill="#fccc54"/>
            </g>
            <g id="Group_1767" data-name="Group 1767" transform="translate(3.098 22.369)">
              <rect id="Rectangle_387" data-name="Rectangle 387" width="95.614" height="22.369" rx="1.747" transform="translate(0 0)" fill="#fe9c03"/>
              <g id="Group_1766" data-name="Group 1766" transform="translate(8.078 2.031)" opacity="0.76" style="mix-blend-mode: multiply;isolation: isolate">
                <rect id="Rectangle_388" data-name="Rectangle 388" width="4.156" height="18.306" fill="#facd5d"/>
                <rect id="Rectangle_389" data-name="Rectangle 389" width="4.156" height="18.306" transform="translate(12.55)" fill="#facd5d"/>
                <rect id="Rectangle_390" data-name="Rectangle 390" width="4.156" height="18.306" transform="translate(25.1)" fill="#facd5d"/>
                <rect id="Rectangle_391" data-name="Rectangle 391" width="4.156" height="18.306" transform="translate(37.651)" fill="#facd5d"/>
                <rect id="Rectangle_392" data-name="Rectangle 392" width="4.156" height="18.306" transform="translate(50.201)" fill="#facd5d"/>
                <rect id="Rectangle_393" data-name="Rectangle 393" width="4.156" height="18.306" transform="translate(62.751)" fill="#facd5d"/>
                <rect id="Rectangle_394" data-name="Rectangle 394" width="4.156" height="18.306" transform="translate(75.302)" fill="#facd5d"/>
              </g>
              <rect id="Rectangle_395" data-name="Rectangle 395" width="52.849" height="18.199" transform="translate(42.765 2.031)" fill="#bc700c" opacity="0.49"/>
              <rect id="Rectangle_396" data-name="Rectangle 396" width="26.425" height="18.199" transform="translate(4.272 2.031)" fill="#ffe6b3" opacity="0.5"/>
              <rect id="Rectangle_397" data-name="Rectangle 397" width="26.425" height="18.199" transform="translate(4.272 2.031)" fill="#ffe6b3" opacity="0.2"/>
              <path id="Path_830" data-name="Path 830" d="M216.038,405.181a1.9,1.9,0,0,0,1.9,1.9h91.806a1.9,1.9,0,0,0,1.9-1.9v-.127H216.038Z" transform="translate(-216.038 -384.716)" fill="#bc700c" opacity="0.72"/>
              <path id="Path_831" data-name="Path 831" d="M309.748,386.68H217.942a1.9,1.9,0,0,0-1.9,1.9v.127h95.613v-.127A1.9,1.9,0,0,0,309.748,386.68Z" transform="translate(-216.038 -386.68)" fill="#fccc54"/>
            </g>
            <g id="Group_1769" data-name="Group 1769" transform="translate(18.295)">
              <rect id="Rectangle_398" data-name="Rectangle 398" width="95.614" height="22.369" rx="1.747" transform="translate(0 0)" fill="#fe9c03"/>
              <g id="Group_1768" data-name="Group 1768" transform="translate(8.078 2.031)" opacity="0.76" style="mix-blend-mode: multiply;isolation: isolate">
                <rect id="Rectangle_399" data-name="Rectangle 399" width="4.156" height="18.306" fill="#facd5d"/>
                <rect id="Rectangle_400" data-name="Rectangle 400" width="4.156" height="18.306" transform="translate(12.55)" fill="#facd5d"/>
                <rect id="Rectangle_401" data-name="Rectangle 401" width="4.156" height="18.306" transform="translate(25.1)" fill="#facd5d"/>
                <rect id="Rectangle_402" data-name="Rectangle 402" width="4.156" height="18.306" transform="translate(37.651)" fill="#facd5d"/>
                <rect id="Rectangle_403" data-name="Rectangle 403" width="4.156" height="18.306" transform="translate(50.201)" fill="#facd5d"/>
                <rect id="Rectangle_404" data-name="Rectangle 404" width="4.156" height="18.306" transform="translate(62.751)" fill="#facd5d"/>
                <rect id="Rectangle_405" data-name="Rectangle 405" width="4.156" height="18.306" transform="translate(75.302)" fill="#facd5d"/>
              </g>
              <rect id="Rectangle_406" data-name="Rectangle 406" width="52.849" height="18.198" transform="translate(42.765 2.031)" fill="#bc700c" opacity="0.49"/>
              <rect id="Rectangle_407" data-name="Rectangle 407" width="26.424" height="18.198" transform="translate(4.272 2.031)" fill="#ffe6b3" opacity="0.5"/>
              <rect id="Rectangle_408" data-name="Rectangle 408" width="26.424" height="18.198" transform="translate(4.272 2.031)" fill="#ffe6b3" opacity="0.2"/>
              <path id="Path_832" data-name="Path 832" d="M229.768,384.971a1.9,1.9,0,0,0,1.9,1.9h91.806a1.9,1.9,0,0,0,1.9-1.9v-.126H229.768Z" transform="translate(-229.768 -364.507)" fill="#bc700c" opacity="0.72"/>
              <path id="Path_833" data-name="Path 833" d="M323.478,366.471H231.672a1.9,1.9,0,0,0-1.9,1.9v.127h95.613v-.127A1.9,1.9,0,0,0,323.478,366.471Z" transform="translate(-229.768 -366.471)" fill="#fccc54"/>
            </g>
          </g>
          <g id="Group_1778" data-name="Group 1778">
            <path id="Path_834" data-name="Path 834" d="M252.475,293.086q-1.531-.224-3.056-.33a38.065,38.065,0,1,0,3.056.33Z" transform="translate(-207.829 -291.658)" fill="#fccc54"/>
            <path id="Path_835" data-name="Path 835" d="M252.72,292.186a39.053,39.053,0,1,0,32.9,44.363h0A39.053,39.053,0,0,0,252.72,292.186Zm31.9,44.216a38.042,38.042,0,1,1-35.1-43.549q1.524.1,3.056.33A38.09,38.09,0,0,1,284.618,336.4Z" transform="translate(-207.926 -291.755)" fill="url(#linear-gradient-5)"/>
            <path id="Path_836" data-name="Path 836" d="M252.719,292.189a39.051,39.051,0,1,0-11.464,77.256q1.569.232,3.136.34a39.053,39.053,0,0,0,8.328-77.6Zm30.951,44.072a37.083,37.083,0,1,1-34.218-42.451q1.486.1,2.979.322A37.129,37.129,0,0,1,283.67,336.261Z" transform="translate(-207.926 -291.755)" fill="#dda526"/>
            <path id="Path_837" data-name="Path 837" d="M279.236,335.12a33.177,33.177,0,1,1-27.947-37.689A33.177,33.177,0,0,1,279.236,335.12Z" transform="translate(-207.359 -291.188)" fill="#bc700c" opacity="0.3"/>
            <g id="Group_1774" data-name="Group 1774" transform="translate(20.375 16.266)" style="mix-blend-mode: multiply;isolation: isolate">
              <g id="Group_1771" data-name="Group 1771" transform="translate(0.683 0.91)" opacity="0.4" style="mix-blend-mode: multiply;isolation: isolate">
                <path id="Path_838" data-name="Path 838" d="M264.705,323.741l.034-.549a9.331,9.331,0,0,0-8.164-9.838c-.187-.022-.376-.041-.564-.053l-5.33-.332.315-5.058-2.948-.184-.315,5.058-2.082-.131.315-5.057-5.195-.324-.315,5.058-11.1-.693-.525,8.4,2.653.165-1.395,22.37-2.653-.166-.485,7.771,11.1.693-.253,4.057,5.195.324.252-4.057,2.082.129-.253,4.057,2.949.184.252-4.057,5.224.327c.224.013.454.021.673.018a9.43,9.43,0,0,0,9.33-8.841l.034-.549a9.331,9.331,0,0,0-8.164-9.838c-.188-.022-.376-.041-.564-.053.188.012.384.012.567.012A9.434,9.434,0,0,0,264.705,323.741ZM249.965,340.2a2.857,2.857,0,0,1-3.026,2.675l-3.16-.2.485-7.765,3.26.2a2.756,2.756,0,0,1,2.576,2.924Zm.858-13.756a2.852,2.852,0,0,1-3.025,2.671l-3.16-.2.484-7.759,3.26.2a2.758,2.758,0,0,1,2.577,2.92Z" transform="translate(-226.951 -307.273)" fill="#493107"/>
              </g>
              <g id="Group_1773" data-name="Group 1773">
                <g id="Group_1772" data-name="Group 1772">
                  <path id="Path_839" data-name="Path 839" d="M264.088,322.919l.035-.55a9.332,9.332,0,0,0-8.164-9.837c-.188-.023-.376-.041-.566-.053l-5.33-.332.315-5.058-2.948-.184-.315,5.058-2.082-.131.317-5.057-5.195-.324-.315,5.058-11.1-.693-.524,8.4,2.653.165-1.4,22.369-2.653-.165-.485,7.77,11.1.693-.253,4.057,5.195.324.253-4.057,2.081.13-.254,4.058,2.949.183.253-4.056,5.223.325c.224.014.454.022.674.019a9.429,9.429,0,0,0,9.329-8.841l.034-.549a9.33,9.33,0,0,0-8.164-9.838c-.187-.023-.376-.041-.565-.053.188.012.384.012.568.012A9.434,9.434,0,0,0,264.088,322.919Zm-14.74,16.458a2.857,2.857,0,0,1-3.026,2.675l-3.16-.2.485-7.766,3.26.2a2.757,2.757,0,0,1,2.577,2.924Zm.858-13.756a2.852,2.852,0,0,1-3.025,2.671l-3.16-.2.484-7.758,3.261.2a2.757,2.757,0,0,1,2.576,2.92Z" transform="translate(-226.334 -306.451)" fill="#d29e26"/>
                </g>
              </g>
            </g>
            <g id="Group_1777" data-name="Group 1777" transform="translate(5.878 5.88)">
              <g id="Group_1776" data-name="Group 1776" clip-path="url(#clip-path-4)">
                <g id="Group_1775" data-name="Group 1775" transform="translate(-24.974 -10.071)" opacity="0.2">
                  <rect id="Rectangle_409" data-name="Rectangle 409" width="8.561" height="101.828" transform="translate(96.74 12.804) rotate(53.443)" fill="#ffe6b3"/>
                  <rect id="Rectangle_410" data-name="Rectangle 410" width="15.361" height="101.828" transform="translate(81.794 0) rotate(53.442)" fill="#ffe6b3"/>
                  <rect id="Rectangle_411" data-name="Rectangle 411" width="4.281" height="101.828" transform="translate(104.07 23.999) rotate(53.439)" fill="#ffe6b3"/>
                </g>
              </g>
            </g>
            <path id="Path_841" data-name="Path 841" d="M214.587,326.51a33.155,33.155,0,0,1,57.1-17.708,33.152,33.152,0,1,0-49.556,44.025A33.069,33.069,0,0,1,214.587,326.51Z" transform="translate(-207.359 -291.188)" fill="#bc700c" opacity="0.3"/>
            <path id="Path_842" data-name="Path 842" d="M270.015,306.732a33.156,33.156,0,0,1-49.479,44.135,33.157,33.157,0,1,0,49.479-44.135Z" transform="translate(-206.579 -290.155)" fill="#bc700c" opacity="0.3"/>
          </g>
        </g>
      </g>
      <g id="Group_1829" data-name="Group 1829" transform="translate(2.601 34.213)">
        <g id="Group_1788" data-name="Group 1788" transform="translate(553.145)">
          <path id="Path_843" data-name="Path 843" d="M596.228,53.129q-1.258-.9-2.568-1.69a38.071,38.071,0,1,0,2.568,1.69Z" transform="translate(-535.005 -44.992)" fill="#fccc54"/>
          <path id="Path_844" data-name="Path 844" d="M596.911,52.406a39.053,39.053,0,1,0,9,54.492h0A39.054,39.054,0,0,0,596.911,52.406Zm8.176,53.906a38.042,38.042,0,1,1-11.331-54.776q1.308.789,2.568,1.69A38.089,38.089,0,0,1,605.088,106.312Z" transform="translate(-535.102 -45.089)" fill="url(#linear-gradient-6)"/>
          <path id="Path_845" data-name="Path 845" d="M596.91,52.409a39.051,39.051,0,1,0-45.491,63.486q1.29.925,2.633,1.736A39.053,39.053,0,0,0,596.91,52.409Zm7.4,53.344a37.083,37.083,0,1,1-11.045-53.394q1.275.769,2.5,1.647A37.13,37.13,0,0,1,604.309,105.753Z" transform="translate(-535.102 -45.09)" fill="#dda526"/>
          <path id="Path_846" data-name="Path 846" d="M600.563,102.907a33.177,33.177,0,1,1-7.643-46.291A33.177,33.177,0,0,1,600.563,102.907Z" transform="translate(-534.534 -44.522)" fill="#bc700c" opacity="0.3"/>
          <g id="Group_1784" data-name="Group 1784" transform="translate(22.218 11.139)" style="mix-blend-mode: multiply;isolation: isolate">
            <g id="Group_1781" data-name="Group 1781" transform="translate(0.683 0.911)" opacity="0.4" style="mix-blend-mode: multiply;isolation: isolate">
              <path id="Path_847" data-name="Path 847" d="M557.368,61.054c.7-.35,10.509,0,10.509,0V55.976h8.408v5.078h11.034v9.283l-20.667,26.1h20.667v8.233H575.935v5.6h-7.882v-5.429H555.792V96.96l22.069-27.674H557.368Z" transform="translate(-555.792 -55.976)" fill="#493107"/>
            </g>
            <g id="Group_1783" data-name="Group 1783">
              <g id="Group_1782" data-name="Group 1782">
                <path id="Path_848" data-name="Path 848" d="M556.751,60.232c.7-.35,10.509,0,10.509,0V55.153h8.408v5.079H586.7v9.283l-20.667,26.1H586.7v8.233H575.318v5.6h-7.883V104.02h-12.26V96.138l22.069-27.674H556.751Z" transform="translate(-555.175 -55.153)" fill="#d29e26"/>
              </g>
            </g>
          </g>
          <g id="Group_1787" data-name="Group 1787" transform="translate(5.882 5.882)">
            <g id="Group_1786" data-name="Group 1786" clip-path="url(#clip-path-5)">
              <g id="Group_1785" data-name="Group 1785" transform="translate(-26.502 5.502)" opacity="0.2">
                <rect id="Rectangle_412" data-name="Rectangle 412" width="8.561" height="101.828" transform="matrix(0.163, 0.987, -0.987, 0.163, 107.914, 18.218)" fill="#ffe6b3"/>
                <rect id="Rectangle_413" data-name="Rectangle 413" width="15.36" height="101.828" transform="translate(100.468 0) rotate(80.624)" fill="#ffe6b3"/>
                <rect id="Rectangle_414" data-name="Rectangle 414" width="4.281" height="101.828" transform="matrix(0.163, 0.987, -0.987, 0.163, 109.319, 31.516)" fill="#ffe6b3"/>
              </g>
            </g>
          </g>
          <path id="Path_850" data-name="Path 850" d="M546.987,65.714A33.155,33.155,0,0,1,605.871,76.05a33.152,33.152,0,1,0-64.194,16.522A33.067,33.067,0,0,1,546.987,65.714Z" transform="translate(-534.533 -44.522)" fill="#bc700c" opacity="0.3"/>
          <path id="Path_851" data-name="Path 851" d="M605.459,72.371a33.156,33.156,0,0,1-64.177,16.656,33.157,33.157,0,1,0,64.177-16.656Z" transform="translate(-534.442 -42.174)" fill="#bc700c" opacity="0.3"/>
        </g>
        <g id="Group_1796" data-name="Group 1796" transform="translate(656.929 277.874)">
          <path id="Path_852" data-name="Path 852" d="M670.941,297.178q-1.541-.126-3.07-.132a38.091,38.091,0,1,0,3.07.132Z" transform="translate(-628.768 -296.038)" fill="#fccc54"/>
          <path id="Path_853" data-name="Path 853" d="M671.12,296.269a39.053,39.053,0,1,0,35.723,42.122h0A39.055,39.055,0,0,0,671.12,296.269Zm34.718,42.04a38.042,38.042,0,1,1-37.87-41.166q1.527.005,3.07.132A38.088,38.088,0,0,1,705.838,338.309Z" transform="translate(-628.865 -296.135)" fill="url(#linear-gradient-7)"/>
          <path id="Path_854" data-name="Path 854" d="M671.12,296.271a39.051,39.051,0,1,0-6.4,77.839q1.581.133,3.151.136a39.054,39.054,0,0,0,3.247-77.976Zm33.762,41.959A37.082,37.082,0,1,1,667.966,298.1c.992,0,1.991.045,2.993.127A37.129,37.129,0,0,1,704.881,338.23Z" transform="translate(-628.865 -296.135)" fill="#dda526"/>
          <path id="Path_855" data-name="Path 855" d="M700.419,337.341a33.177,33.177,0,1,1-30.348-35.783A33.179,33.179,0,0,1,700.419,337.341Z" transform="translate(-628.298 -295.568)" fill="#bc700c" opacity="0.3"/>
          <g id="Group_1792" data-name="Group 1792" transform="translate(20.928 11.216)" style="mix-blend-mode: multiply;isolation: isolate">
            <g id="Group_1789" data-name="Group 1789" transform="translate(0.406 0.541)" opacity="0.4" style="mix-blend-mode: multiply;isolation: isolate">
              <path id="Path_856" data-name="Path 856" d="M665.772,306.757,648.14,338.233l17.632,11.041L684.394,338.4Z" transform="translate(-648.14 -306.757)" fill="#493107"/>
              <path id="Path_857" data-name="Path 857" d="M648.14,335.846l18.127-6.757,18.127,6.921-18.622,10.876Z" transform="translate(-648.14 -304.371)" fill="#493107"/>
              <path id="Path_858" data-name="Path 858" d="M648.14,337.129l17.386,12.112,18.869-12.112-18.787,25.157Z" transform="translate(-648.14 -303.512)" fill="#493107"/>
            </g>
            <g id="Group_1791" data-name="Group 1791">
              <g id="Group_1790" data-name="Group 1790">
                <path id="Path_859" data-name="Path 859" d="M665.405,306.268l-17.632,31.475,17.632,11.041,18.622-10.876Z" transform="translate(-647.773 -306.268)" fill="#d29e26"/>
                <path id="Path_860" data-name="Path 860" d="M647.773,335.357,665.9,328.6l18.127,6.921L665.405,346.4Z" transform="translate(-647.773 -303.882)" fill="#b58016"/>
                <path id="Path_861" data-name="Path 861" d="M647.773,336.64l17.386,12.112,18.869-12.112L665.241,361.8Z" transform="translate(-647.773 -303.022)" fill="#d29e26"/>
              </g>
            </g>
          </g>
          <g id="Group_1795" data-name="Group 1795" transform="translate(5.876 5.877)">
            <g id="Group_1794" data-name="Group 1794" clip-path="url(#clip-path-6)">
              <g id="Group_1793" data-name="Group 1793" transform="translate(-23.718 -11.523)" opacity="0.2">
                <rect id="Rectangle_415" data-name="Rectangle 415" width="8.561" height="101.828" transform="translate(93.409 11.797) rotate(49.696)" fill="#ffe6b3"/>
                <rect id="Rectangle_416" data-name="Rectangle 416" width="15.361" height="101.828" transform="translate(77.662 0) rotate(49.701)" fill="#ffe6b3"/>
                <rect id="Rectangle_417" data-name="Rectangle 417" width="4.28" height="101.828" transform="translate(101.459 22.495) rotate(49.701)" fill="#ffe6b3"/>
              </g>
            </g>
          </g>
          <path id="Path_863" data-name="Path 863" d="M635.345,332.97a33.154,33.154,0,0,1,55.825-21.4,33.152,33.152,0,1,0-46.576,47.165A33.067,33.067,0,0,1,635.345,332.97Z" transform="translate(-628.298 -295.568)" fill="#bc700c" opacity="0.3"/>
          <path id="Path_864" data-name="Path 864" d="M689.288,309.712A33.156,33.156,0,0,1,642.8,356.984a33.157,33.157,0,1,0,46.493-47.272Z" transform="translate(-627.377 -294.685)" fill="#bc700c" opacity="0.3"/>
        </g>
        <g id="Group_1804" data-name="Group 1804" transform="translate(4.101 118.269)">
          <path id="Path_865" data-name="Path 865" d="M56.817,159.319q-1.283.865-2.482,1.814a38.072,38.072,0,1,0,2.482-1.814Z" transform="translate(-38.97 -151.841)" fill="#fccc54"/>
          <path id="Path_866" data-name="Path 866" d="M56.35,158.581a39.053,39.053,0,1,0,54.2,10.636h0A39.054,39.054,0,0,0,56.35,158.581Zm53.36,11.2a38.042,38.042,0,1,1-55.278-8.548q1.2-.95,2.482-1.814A38.09,38.09,0,0,1,109.71,169.78Z" transform="translate(-39.067 -151.94)" fill="url(#linear-gradient-8)"/>
          <path id="Path_867" data-name="Path 867" d="M56.352,158.583a39.051,39.051,0,1,0,43.56,64.826q1.317-.883,2.547-1.86a39.053,39.053,0,0,0-46.107-62.966Zm52.562,11.731a37.082,37.082,0,1,1-53.885-8.334q1.167-.925,2.42-1.768A37.129,37.129,0,0,1,108.914,170.313Z" transform="translate(-39.068 -151.938)" fill="#dda526"/>
          <path id="Path_868" data-name="Path 868" d="M105.1,171.927a33.177,33.177,0,1,1-46.041-9.035A33.175,33.175,0,0,1,105.1,171.927Z" transform="translate(-38.5 -151.373)" fill="#bc700c" opacity="0.3"/>
          <g id="Group_1800" data-name="Group 1800" transform="translate(21.31 17.607)" style="mix-blend-mode: multiply;isolation: isolate">
            <g id="Group_1797" data-name="Group 1797" transform="translate(0.406 0.542)" opacity="0.4" style="mix-blend-mode: multiply;isolation: isolate">
              <path id="Path_869" data-name="Path 869" d="M58.687,168.337l5.854,35.6,20.669-2.37,7.769-20.117Z" transform="translate(-58.687 -168.337)" fill="#493107"/>
              <path id="Path_870" data-name="Path 870" d="M63.976,202.67l9.953-16.589,18.485-5.9L84.645,200.3Z" transform="translate(-58.122 -167.071)" fill="#493107"/>
              <path id="Path_871" data-name="Path 871" d="M65.183,204.2l21.143-1.379,7.191-21.237,1.012,31.382Z" transform="translate(-57.993 -166.922)" fill="#493107"/>
            </g>
            <g id="Group_1799" data-name="Group 1799">
              <g id="Group_1798" data-name="Group 1798">
                <path id="Path_872" data-name="Path 872" d="M58.32,167.847l5.854,35.6,20.669-2.37,7.769-20.117Z" transform="translate(-58.32 -167.847)" fill="#d29e26"/>
                <path id="Path_873" data-name="Path 873" d="M63.608,202.18l9.953-16.589,18.485-5.9L84.277,199.81Z" transform="translate(-57.755 -166.581)" fill="#b58016"/>
                <path id="Path_874" data-name="Path 874" d="M64.816,203.706l21.143-1.379,7.191-21.237,1.012,31.382Z" transform="translate(-57.626 -166.432)" fill="#d29e26"/>
              </g>
            </g>
          </g>
          <g id="Group_1803" data-name="Group 1803" transform="translate(5.883 5.877)">
            <g id="Group_1802" data-name="Group 1802" clip-path="url(#clip-path-7)">
              <g id="Group_1801" data-name="Group 1801" transform="translate(1.914 -15.314)" opacity="0.2">
                <rect id="Rectangle_418" data-name="Rectangle 418" width="8.561" height="101.828" transform="translate(39.276 0) rotate(11.101)" fill="#ffe6b3"/>
                <rect id="Rectangle_419" data-name="Rectangle 419" width="15.36" height="101.828" transform="matrix(0.981, 0.193, -0.193, 0.981, 19.606, 0.603)" fill="#ffe6b3"/>
                <rect id="Rectangle_420" data-name="Rectangle 420" width="4.281" height="101.828" transform="translate(52.237 3.338) rotate(11.101)" fill="#ffe6b3"/>
              </g>
            </g>
          </g>
          <path id="Path_876" data-name="Path 876" d="M51.515,209.1A33.155,33.155,0,0,1,81.8,157.554a33.153,33.153,0,1,0-6.98,65.918A33.068,33.068,0,0,1,51.515,209.1Z" transform="translate(-38.5 -151.37)" fill="#bc700c" opacity="0.3"/>
          <path id="Path_877" data-name="Path 877" d="M77.618,157.378a33.157,33.157,0,0,1-6.848,65.951,33.158,33.158,0,1,0,6.848-65.951Z" transform="translate(-35.68 -151.359)" fill="#bc700c" opacity="0.3"/>
        </g>
        <g id="Group_1812" data-name="Group 1812" transform="translate(0 290.177)">
          <path id="Path_878" data-name="Path 878" d="M70.721,308.106q-1.31-.091-2.609-.082a32.331,32.331,0,1,0,2.609.082Z" transform="translate(-35.28 -307.167)" fill="#fccc54"/>
          <path id="Path_879" data-name="Path 879" d="M70.864,307.334a33.155,33.155,0,1,0,30.729,35.416h0A33.156,33.156,0,0,0,70.864,307.334Zm29.874,35.357a32.3,32.3,0,1,1-32.543-34.584q1.3-.012,2.609.082A32.336,32.336,0,0,1,100.738,342.691Z" transform="translate(-35.363 -307.25)" fill="url(#linear-gradient-9)"/>
          <path id="Path_880" data-name="Path 880" d="M70.862,307.336a33.153,33.153,0,1,0-4.685,66.141q1.343.1,2.676.085a33.155,33.155,0,0,0,2.009-66.226Zm29.064,35.3A31.483,31.483,0,1,1,68.2,308.92c.842-.008,1.691.02,2.542.081A31.521,31.521,0,0,1,99.926,342.632Z" transform="translate(-35.363 -307.25)" fill="#dda526"/>
          <path id="Path_881" data-name="Path 881" d="M96.134,341.916a28.167,28.167,0,1,1-26.105-30.087A28.167,28.167,0,0,1,96.134,341.916Z" transform="translate(-34.881 -306.768)" fill="#bc700c" opacity="0.3"/>
          <g id="Group_1808" data-name="Group 1808" transform="translate(4.989 16.86)" style="mix-blend-mode: multiply;isolation: isolate">
            <g id="Group_1805" data-name="Group 1805" transform="translate(0.579 0.773)" opacity="0.4" style="mix-blend-mode: multiply;isolation: isolate">
              <path id="Path_882" data-name="Path 882" d="M40.394,344.351l2.422,5.92h15.43V338.25l10.72,10.721,9.913-9.913v11.214H94.666l2.063-6.01H84.978v-20L68.831,340.4,52.325,323.18v21.081Z" transform="translate(-40.394 -323.18)" fill="#493107"/>
            </g>
            <g id="Group_1807" data-name="Group 1807">
              <g id="Group_1806" data-name="Group 1806">
                <path id="Path_883" data-name="Path 883" d="M39.87,343.653l2.422,5.92h15.43V337.552l10.719,10.721,9.913-9.913v11.213H94.143l2.063-6.01H84.455v-20L68.307,339.705,51.8,322.482v21.081Z" transform="translate(-39.87 -322.482)" fill="#d29e26"/>
              </g>
            </g>
          </g>
          <g id="Group_1811" data-name="Group 1811" transform="translate(4.989 4.989)">
            <g id="Group_1810" data-name="Group 1810" clip-path="url(#clip-path-8)">
              <g id="Group_1809" data-name="Group 1809" transform="translate(-19.931 -9.981)" opacity="0.2">
                <rect id="Rectangle_421" data-name="Rectangle 421" width="7.268" height="86.451" transform="matrix(0.655, 0.755, -0.755, 0.655, 78.782, 9.867)" fill="#ffe6b3"/>
                <rect id="Rectangle_422" data-name="Rectangle 422" width="13.041" height="86.451" transform="matrix(0.655, 0.755, -0.755, 0.655, 65.299, 0)" fill="#ffe6b3"/>
                <rect id="Rectangle_423" data-name="Rectangle 423" width="3.634" height="86.451" transform="translate(85.712 18.864) rotate(49.046)" fill="#ffe6b3"/>
              </g>
            </g>
          </g>
          <path id="Path_885" data-name="Path 885" d="M40.85,338.827a28.147,28.147,0,0,1,47.187-18.7,28.146,28.146,0,1,0-39.089,40.485A28.074,28.074,0,0,1,40.85,338.827Z" transform="translate(-34.881 -306.768)" fill="#bc700c" opacity="0.3"/>
          <path id="Path_886" data-name="Path 886" d="M86.408,318.58a28.149,28.149,0,0,1-39.017,40.574A28.149,28.149,0,1,0,86.408,318.58Z" transform="translate(-34.077 -306.039)" fill="#bc700c" opacity="0.3"/>
        </g>
        <g id="Group_1820" data-name="Group 1820" transform="translate(114.284 34.742)">
          <path id="Path_887" data-name="Path 887" d="M157.7,78.426q-1.031.335-2.021.745a26.7,26.7,0,1,0,2.021-.745Z" transform="translate(-138.545 -76.408)" fill="#fccc54"/>
          <path id="Path_888" data-name="Path 888" d="M157.545,77.822a27.373,27.373,0,1,0,34.488,17.584h0A27.374,27.374,0,0,0,157.545,77.822Zm33.816,17.8A26.664,26.664,0,1,1,155.743,79.24q.99-.41,2.021-.745A26.7,26.7,0,0,1,191.361,95.624Z" transform="translate(-138.613 -76.477)" fill="url(#linear-gradient-10)"/>
          <path id="Path_889" data-name="Path 889" d="M157.546,77.823a27.371,27.371,0,1,0,16.905,52.066q1.059-.342,2.074-.764a27.373,27.373,0,0,0-18.979-51.3ZM190.722,95.83A25.992,25.992,0,1,1,156,79.86q.965-.4,1.971-.727A26.024,26.024,0,0,1,190.722,95.83Z" transform="translate(-138.613 -76.476)" fill="#dda526"/>
          <path id="Path_890" data-name="Path 890" d="M187.718,96.28a23.254,23.254,0,1,1-29.3-14.938A23.255,23.255,0,0,1,187.718,96.28Z" transform="translate(-138.215 -76.079)" fill="#bc700c" opacity="0.3"/>
          <g id="Group_1816" data-name="Group 1816" transform="translate(7.34 10.647)" style="mix-blend-mode: multiply;isolation: isolate">
            <g id="Group_1813" data-name="Group 1813" transform="translate(0.478 0.638)" opacity="0.4" style="mix-blend-mode: multiply;isolation: isolate">
              <path id="Path_891" data-name="Path 891" d="M145.676,115.862l3.688,3.78,11.808-4.78-3.724-9.2,11.524,4.883,4.515-10.657,3.474,8.581,12.082-4.891-.283-5.239-8.993,3.641-6.2-15.308-7.355,17.359-17.967-8.068,6.531,16.133Z" transform="translate(-145.676 -86.672)" fill="#493107"/>
            </g>
            <g id="Group_1815" data-name="Group 1815">
              <g id="Group_1814" data-name="Group 1814">
                <path id="Path_892" data-name="Path 892" d="M145.244,115.286l3.688,3.78,11.807-4.78-3.724-9.2,11.524,4.883,4.515-10.657,3.474,8.581L188.611,103l-.283-5.239-8.993,3.641-6.2-15.308-7.355,17.359-17.967-8.068,6.531,16.133Z" transform="translate(-145.244 -86.096)" fill="#d29e26"/>
              </g>
            </g>
          </g>
          <g id="Group_1819" data-name="Group 1819" transform="translate(4.125 4.12)">
            <g id="Group_1818" data-name="Group 1818" clip-path="url(#clip-path-9)">
              <g id="Group_1817" data-name="Group 1817" transform="translate(-7.814 -11.261)" opacity="0.2">
                <rect id="Rectangle_424" data-name="Rectangle 424" width="6.001" height="71.372" transform="matrix(0.891, 0.454, -0.454, 0.891, 45.792, 3.373)" fill="#ffe6b3"/>
                <rect id="Rectangle_425" data-name="Rectangle 425" width="10.766" height="71.373" transform="translate(32.418 0) rotate(27.014)" fill="#ffe6b3"/>
                <rect id="Rectangle_426" data-name="Rectangle 426" width="3" height="71.373" transform="translate(53.884 8.113) rotate(27.007)" fill="#ffe6b3"/>
              </g>
            </g>
          </g>
          <path id="Path_894" data-name="Path 894" d="M144.454,111.041a23.239,23.239,0,0,1,30.317-28.927,23.237,23.237,0,1,0-17.37,43.091A23.173,23.173,0,0,1,144.454,111.041Z" transform="translate(-138.215 -76.078)" fill="#bc700c" opacity="0.3"/>
          <path id="Path_895" data-name="Path 895" d="M172.509,81.593a23.239,23.239,0,0,1-17.287,43.138,23.24,23.24,0,1,0,17.287-43.138Z" transform="translate(-136.838 -75.93)" fill="#bc700c" opacity="0.3"/>
        </g>
        <g id="Group_1828" data-name="Group 1828" transform="translate(664.779 137.528)">
          <path id="Path_896" data-name="Path 896" d="M673.6,172.245q-.979-.433-1.976-.785a26.355,26.355,0,1,0,1.976.785Z" transform="translate(-635.89 -169.272)" fill="#fccc54"/>
          <path id="Path_897" data-name="Path 897" d="M673.949,171.673A27.024,27.024,0,1,0,687.7,207.331h0A27.025,27.025,0,0,0,673.949,171.673Zm13.113,35.377a26.325,26.325,0,1,1-15.371-35.523q1,.35,1.976.785A26.357,26.357,0,0,1,687.063,207.049Z" transform="translate(-635.957 -169.339)" fill="url(#linear-gradient-11)"/>
          <path id="Path_898" data-name="Path 898" d="M673.949,171.674a27.023,27.023,0,1,0-21.9,49.407q1,.445,2.028.806a27.024,27.024,0,0,0,19.877-50.213Zm12.509,35.107a25.662,25.662,0,1,1-14.986-34.628q.971.342,1.928.765A25.7,25.7,0,0,1,686.458,206.781Z" transform="translate(-635.958 -169.339)" fill="#dda526"/>
          <path id="Path_899" data-name="Path 899" d="M683.591,205.291A22.958,22.958,0,1,1,671.909,175,22.958,22.958,0,0,1,683.591,205.291Z" transform="translate(-635.564 -168.946)" fill="#bc700c" opacity="0.3"/>
          <g id="Group_1824" data-name="Group 1824" transform="translate(10.865 10.939)" style="mix-blend-mode: multiply;isolation: isolate">
            <g id="Group_1821" data-name="Group 1821" transform="translate(0.473 0.63)" opacity="0.4" style="mix-blend-mode: multiply;isolation: isolate">
              <path id="Path_900" data-name="Path 900" d="M676.26,195.192l.124-.361a6.457,6.457,0,0,0-3.628-8.068c-.121-.05-.244-.1-.367-.139l-3.493-1.2,1.144-3.317-1.933-.665-1.144,3.315-1.364-.472,1.144-3.315-3.4-1.174-1.144,3.315-7.275-2.511-1.9,5.507,1.739.6-5.061,14.66-1.738-.6-1.758,5.092,7.275,2.513-.918,2.658,3.4,1.175.918-2.659,1.365.47-.919,2.66,1.933.666.918-2.659,3.422,1.181c.147.051.3.1.447.137a6.525,6.525,0,0,0,7.853-4.174l.124-.36a6.456,6.456,0,0,0-3.629-8.068c-.121-.051-.242-.1-.366-.139.124.043.255.08.376.113A6.529,6.529,0,0,0,676.26,195.192Zm-12.869,8.255a1.976,1.976,0,0,1-2.511,1.225l-2.071-.715,1.756-5.088,2.137.737a1.907,1.907,0,0,1,1.178,2.425Zm3.111-9.017a1.972,1.972,0,0,1-2.51,1.223l-2.071-.715,1.755-5.086,2.136.738a1.909,1.909,0,0,1,1.18,2.423Z" transform="translate(-646.201 -179.791)" fill="#493107"/>
            </g>
            <g id="Group_1823" data-name="Group 1823">
              <g id="Group_1822" data-name="Group 1822">
                <path id="Path_901" data-name="Path 901" d="M675.833,194.622l.124-.359a6.458,6.458,0,0,0-3.628-8.069c-.121-.05-.244-.1-.367-.139l-3.493-1.205,1.144-3.315-1.933-.667-1.143,3.316-1.365-.472,1.144-3.315-3.4-1.174-1.144,3.315-7.276-2.511-1.9,5.507,1.739.6-5.06,14.662-1.738-.6-1.758,5.094,7.275,2.511-.918,2.658,3.4,1.175.918-2.659,1.365.47L656.9,212.1l1.931.667.918-2.659,3.424,1.181c.146.051.3.1.446.137a6.526,6.526,0,0,0,7.854-4.175l.123-.359a6.456,6.456,0,0,0-3.628-8.068c-.122-.05-.244-.1-.366-.139.123.043.253.079.375.113A6.528,6.528,0,0,0,675.833,194.622Zm-12.869,8.255a1.975,1.975,0,0,1-2.51,1.226l-2.071-.715,1.754-5.089,2.137.738a1.908,1.908,0,0,1,1.179,2.425Zm3.112-9.015a1.975,1.975,0,0,1-2.512,1.223l-2.071-.715,1.756-5.085,2.137.737a1.907,1.907,0,0,1,1.179,2.422Z" transform="translate(-645.774 -179.222)" fill="#d29e26"/>
              </g>
            </g>
          </g>
          <g id="Group_1827" data-name="Group 1827" transform="translate(4.074 4.075)">
            <g id="Group_1826" data-name="Group 1826" clip-path="url(#clip-path-10)">
              <g id="Group_1825" data-name="Group 1825" transform="translate(-19.032 -1.518)" opacity="0.2">
                <rect id="Rectangle_427" data-name="Rectangle 427" width="5.924" height="70.464" transform="matrix(0.36, 0.933, -0.933, 0.36, 73.349, 11.296)" fill="#ffe6b3"/>
                <rect id="Rectangle_428" data-name="Rectangle 428" width="10.629" height="70.464" transform="matrix(0.36, 0.933, -0.933, 0.36, 65.745, 0)" fill="#ffe6b3"/>
                <rect id="Rectangle_429" data-name="Rectangle 429" width="2.962" height="70.465" transform="translate(76.173 20.118) rotate(68.913)" fill="#ffe6b3"/>
              </g>
            </g>
          </g>
          <path id="Path_903" data-name="Path 903" d="M642.064,187.615a22.943,22.943,0,0,1,41.352-1.268,22.941,22.941,0,1,0-41.176,20.213A22.877,22.877,0,0,1,642.064,187.615Z" transform="translate(-635.564 -168.946)" fill="#bc700c" opacity="0.3"/>
          <path id="Path_904" data-name="Path 904" d="M682.8,184.285a22.944,22.944,0,0,1-41.146,20.3,22.944,22.944,0,1,0,41.146-20.3Z" transform="translate(-635.349 -167.742)" fill="#bc700c" opacity="0.3"/>
        </g>
      </g>
      <g id="Group_1832" data-name="Group 1832">
        <g id="Group_1830" data-name="Group 1830" transform="translate(13.609 2.39)">
          <path id="Path_905" data-name="Path 905" d="M435.83,23.207a3.071,3.071,0,1,1-3.072-3.07A3.071,3.071,0,0,1,435.83,23.207Z" transform="translate(-4.23 -15.933)" fill="#dce7f9"/>
          <path id="Path_906" data-name="Path 906" d="M375.6,125.386a3.071,3.071,0,1,1-3.07-3.07A3.071,3.071,0,0,1,375.6,125.386Z" transform="translate(-10.667 -5.013)" fill="#dce7f9"/>
          <path id="Path_907" data-name="Path 907" d="M715.781,114.975a3.071,3.071,0,1,1-3.07-3.072A3.071,3.071,0,0,1,715.781,114.975Z" transform="translate(25.687 -6.126)" fill="#dce7f9"/>
          <path id="Path_908" data-name="Path 908" d="M496.485,273.566a3.071,3.071,0,1,1-3.07-3.07A3.07,3.07,0,0,1,496.485,273.566Z" transform="translate(2.252 10.822)" fill="#dce7f9"/>
          <path id="Path_909" data-name="Path 909" d="M51.45,402.619a3.071,3.071,0,1,1-3.07-3.072A3.071,3.071,0,0,1,51.45,402.619Z" transform="translate(-45.308 24.614)" fill="#dce7f9"/>
          <path id="Path_910" data-name="Path 910" d="M163.948,59.6a3.072,3.072,0,1,1-3.072-3.07A3.072,3.072,0,0,1,163.948,59.6Z" transform="translate(-33.286 -12.044)" fill="#dce7f9"/>
          <path id="Path_911" data-name="Path 911" d="M77.727,19.411a3.071,3.071,0,1,1-3.072-3.072A3.072,3.072,0,0,1,77.727,19.411Z" transform="translate(-42.5 -16.339)" fill="#dce7f9"/>
          <path id="Path_912" data-name="Path 912" d="M536.3,461.312a3.07,3.07,0,1,1-3.07-3.07A3.071,3.071,0,0,1,536.3,461.312Z" transform="translate(6.507 30.886)" fill="#dce7f9"/>
        </g>
        <g id="Group_1831" data-name="Group 1831">
          <path id="Path_913" data-name="Path 913" d="M666.812,17.434v1.793h-3.254v3.254h-1.793V19.228H658.51V17.434h3.255V14.18h1.793v3.254Z" transform="translate(33.833 -14.18)" fill="#dce7f9"/>
          <path id="Path_914" data-name="Path 914" d="M241.525,17.434v1.793h-3.254v3.254h-1.793V19.228h-3.254V17.434h3.254V14.18h1.793v3.254Z" transform="translate(-11.617 -14.18)" fill="#dce7f9"/>
          <path id="Path_915" data-name="Path 915" d="M511.713,100.717v1.793h-3.255v3.254h-1.793v-3.254h-3.253v-1.793h3.253V97.463h1.793v3.254Z" transform="translate(17.258 -5.28)" fill="#dce7f9"/>
          <path id="Path_916" data-name="Path 916" d="M334.783,72.067v1.793h-3.254v3.255h-1.793V73.859h-3.254V72.067h3.254V68.813h1.793v3.254Z" transform="translate(-1.65 -8.342)" fill="#dce7f9"/>
          <path id="Path_917" data-name="Path 917" d="M188.9,413.3v1.793h-3.254v3.254H183.85v-3.254H180.6V413.3h3.254v-3.255h1.793V413.3Z" transform="translate(-17.241 28.124)" fill="#dce7f9"/>
          <path id="Path_918" data-name="Path 918" d="M54.761,284.217v1.793H51.507v3.255H49.714V286.01H46.46v-1.793h3.255v-3.254h1.793v3.254Z" transform="translate(-31.576 14.33)" fill="#dce7f9"/>
          <path id="Path_919" data-name="Path 919" d="M680.6,432.242v1.793h-3.255v3.254h-1.793v-3.254H672.3v-1.793h3.254v-3.255h1.793v3.255Z" transform="translate(35.306 30.149)" fill="#dce7f9"/>
          <path id="Path_920" data-name="Path 920" d="M716.965,207.04v1.793h-3.255v3.255h-1.793v-3.255h-3.254V207.04h3.254v-3.254h1.793v3.254Z" transform="translate(39.193 6.083)" fill="#dce7f9"/>
          <path id="Path_921" data-name="Path 921" d="M41.314,110.5v1.793H38.06v3.254H36.267v-3.254H33.013V110.5h3.254v-3.254H38.06V110.5Z" transform="translate(-33.013 -4.235)" fill="#dce7f9"/>
        </g>
      </g>
    </g>
  </g>
</svg>
