<svg xmlns="http://www.w3.org/2000/svg" width="1306" height="889" viewBox="0 0 1306 889">
  <g id="Path_12237" data-name="Path 12237" transform="translate(-312 35)" fill="#181c3a" opacity="0.1">
    <path d="M 1172.004272460938 853.2903442382812 L 313.2116088867188 -22.47850608825684 L 1617.492797851562 0.4912234544754028 L 1611.5029296875 415.7893981933594 L 1172.004272460938 853.2903442382812 Z" stroke="none"/>
    <path d="M 314.4232177734375 -21.9571533203125 L 1172.008544921875 852.5805053710938 L 1611.006103515625 415.5784912109375 L 1616.98583984375 0.9822998046875 L 314.4232177734375 -21.9571533203125 M 312 -23 L 1618 0 L 1612 416 L 1172 854 L 312 -23 Z" stroke="none" fill="#707070"/>
  </g>
  <g id="Path_12123" data-name="Path 12123" transform="translate(-312 15)" fill="#181c3a">
    <path d="M 1172.003662109375 853.2908935546875 L 512.6624755859375 183.1535034179688 L 318.2070617675781 -14.48601627349854 L 1617.492797851562 0.4942190945148468 L 1611.5029296875 415.7893981933594 L 1172.003662109375 853.2908935546875 Z" stroke="none"/>
    <path d="M 319.414306640625 -13.9720458984375 L 1172.00732421875 852.5816650390625 L 1611.006103515625 415.5784912109375 L 1616.985717773438 0.98846435546875 L 319.414306640625 -13.9720458984375 M 317 -15 L 1618 0 L 1612 416 L 1172 854 L 317 -15 Z" stroke="none" fill="#707070"/>
  </g>
</svg>
