<svg xmlns="http://www.w3.org/2000/svg" width="600.804" height="407.618" viewBox="0 0 600.804 407.618">
  <g id="Group_3311" data-name="Group 3311" transform="translate(-1043.999 -88.73)" opacity="0.38">
    <g id="Path_2649" data-name="Path 2649" transform="translate(1247.808 88.73) rotate(45)" fill="none">
      <path d="M0,0,288.229,0l0,288.225L0,288.229Z" stroke="none"/>
      <path d="M 238.2287445068359 50.00067138671875 L 50.00321960449219 50.00321960449219 L 50.00067138671875 238.2287445068359 L 238.2261352539062 238.2261352539062 L 238.2287445068359 50.00067138671875 M 288.2294311523438 0 L 288.2254333496094 288.2254333496094 L 0 288.2294311523438 L 0.00390625 0.00390625 L 288.2294311523438 0 Z" stroke="none" fill="#222750"/>
    </g>
    <g id="Path_2650" data-name="Path 2650" transform="translate(1440.994 88.73) rotate(45)" fill="none">
      <path d="M0,0,288.229,0l0,288.225L0,288.229Z" stroke="none"/>
      <path d="M 238.2287445068359 50.00067138671875 L 50.00321960449219 50.00321960449219 L 50.00067138671875 238.2287445068359 L 238.2261352539062 238.2261352539062 L 238.2287445068359 50.00067138671875 M 288.2294311523438 0 L 288.2254333496094 288.2254333496094 L 0 288.2294311523438 L 0.00390625 0.00390625 L 288.2294311523438 0 Z" stroke="none" fill="#222750"/>
    </g>
  </g>
</svg>
