<svg xmlns="http://www.w3.org/2000/svg" width="88.604" height="31.333" viewBox="0 0 88.604 31.333">
  <g id="Visa_Inc._logo.svg_1_" data-name="Visa_Inc._logo.svg(1)" transform="translate(0 0)">
    <path id="Path_558" data-name="Path 558" d="M1253.888-828.778a15.481,15.481,0,0,0-7.359,2.353,11.111,11.111,0,0,0-2.486,2.3,8.84,8.84,0,0,0-1.752,4.427,10.485,10.485,0,0,0,.019,1.956c.322,2.2,1.657,4.03,4.162,5.7a24.1,24.1,0,0,0,2.781,1.57,11.306,11.306,0,0,1,3.22,2.07,2.223,2.223,0,0,1,.7,1.468c.087,1.241-.9,2.323-2.542,2.8a6.732,6.732,0,0,1-2.493.265,13.619,13.619,0,0,1-2.845-.212,18.108,18.108,0,0,1-4.529-1.551,4.22,4.22,0,0,0-.666-.272c-.026.03-1.1,6.633-1.1,6.757,0,.087.265.2,1.154.5a25.922,25.922,0,0,0,9.958,1.059,15.761,15.761,0,0,0,6.837-2.206,11.648,11.648,0,0,0,2.546-2.3,9.324,9.324,0,0,0,1.843-4.484,7.452,7.452,0,0,0-1.525-5.94,12.739,12.739,0,0,0-1.54-1.513,18.374,18.374,0,0,0-3.477-2.126,14.612,14.612,0,0,1-3.7-2.278,1.817,1.817,0,0,1,.011-2.823,3.57,3.57,0,0,1,1.669-.919,11.12,11.12,0,0,1,3.8-.212,13.749,13.749,0,0,1,4.457,1.23c.3.132.45.185.462.155.049-.151,1.063-6.519,1.04-6.546a17.007,17.007,0,0,0-1.767-.594,21.7,21.7,0,0,0-3.753-.643C1256.431-828.824,1254.456-828.824,1253.888-828.778Z" transform="translate(-1200.377 828.813)" fill="#f5f7fb"/>
    <path id="Path_559" data-name="Path 559" d="M233.685-804.728c-2.1,5.649-3.829,10.272-3.84,10.272s-.2-.912-.428-2.028-.424-2.054-.443-2.089-.125-.288-.231-.556a24.11,24.11,0,0,0-9.058-10.965,9.627,9.627,0,0,0-1.487-.9c-.008.019,1.559,5.952,3.477,13.186l3.492,13.152H233.5l6.148-15.1c3.383-8.309,6.16-15.134,6.175-15.172.026-.068-.095-.072-4.147-.072H237.5Z" transform="translate(-218.199 815.523)" fill="#f5f7fb"/>
    <path id="Path_560" data-name="Path 560" d="M906.832-814.633C906.449-812.325,902-784.758,902-784.7v.079h3.935c2.164,0,3.935-.011,3.935-.023s1.082-6.708,2.4-14.881,2.429-14.994,2.456-15.168l.049-.31h-7.885Z" transform="translate(-876.128 815.523)" fill="#f5f7fb"/>
    <path id="Path_561" data-name="Path 561" d="M1830.772-814.592a4.365,4.365,0,0,0-1.824.571,3.865,3.865,0,0,0-1.309,1.487c-.155.314-11.8,28.074-11.824,28.2l-.015.087h4.124c3.9,0,4.128,0,4.151-.068.011-.034.382-1.059.825-2.278l.8-2.213,5.025-.011c2.762,0,5.021,0,5.021.019s.212,1.044.469,2.282l.462,2.251,3.64.011,3.64.008v-.083c0-.049-1.419-6.879-3.152-15.183l-3.152-15.1-3.292,0C1832.554-814.622,1830.938-814.611,1830.772-814.592Zm1.536,9.213c.106.5.545,2.633.98,4.745s.866,4.211.961,4.665.174.851.174.882a22.739,22.739,0,0,1-3.22.053c-3.05,0-3.22,0-3.2-.068.008-.034.715-1.956,1.566-4.264s1.771-4.816,2.039-5.566.492-1.366.5-1.362S1832.2-805.878,1832.308-805.379Z" transform="translate(-1755.354 815.156)" fill="#f5f7fb"/>
  </g>
</svg>
