<svg xmlns="http://www.w3.org/2000/svg" viewBox="0 0 361.87 351.503">
  <g id="Editing_body_text-pana" data-name="Editing body text-pana" transform="translate(-17.49 -37.87)">
    <g id="freepik--background-complete--inject-13" transform="translate(17.49 41.591)">
      <path id="Path_2651" data-name="Path 2651" d="M455.337,64.365c.791,5.587-3.395,9.5-12.076,10.7L425.8,77.438,421.34,45.111l16.54-2.279c8.5-1.171,13.129,1.717,13.817,6.7a7.708,7.708,0,0,1-3.371,7.621C452.148,57.947,454.8,60.44,455.337,64.365ZM431.3,50.5l.847,6.236,6.284-.871c3.047-.419,4.471-1.7,4.186-3.775s-2-2.881-5.049-2.461ZM445.96,64.618c-.3-2.216-2.113-3.047-5.255-2.612l-7.668,1.053.91,6.56,7.7-1.06c3.1-.427,4.622-1.725,4.313-3.941Z" transform="translate(-101.745 -42.572)" fill="#181c3a" opacity="0.23"/>
      <rect id="Rectangle_523" data-name="Rectangle 523" width="35.129" height="5.563" transform="translate(16.271 208.113)" fill="#ebebeb"/>
      <rect id="Rectangle_524" data-name="Rectangle 524" width="35.129" height="5.563" transform="translate(16.271 228.372)" fill="#ebebeb"/>
      <rect id="Rectangle_525" data-name="Rectangle 525" width="17.561" height="5.563" transform="translate(16.271 218.599)" fill="#ebebeb"/>
      <path id="Path_2652" data-name="Path 2652" d="M192.842,359.313H165.88V337.17h13.968v4.669h-9.291v12.8h17.616V349.99h4.669Z" transform="translate(-48.448 -104.034)" fill="#ebebeb"/>
      <path id="Path_2653" data-name="Path 2653" d="M212.492,359.313H201v-4.669h6.822v-12.8H190.2v5.967H185.53V337.17h26.962Z" transform="translate(-52.548 -104.034)" fill="#ebebeb"/>
      <path id="Path_2654" data-name="Path 2654" d="M467.149,128h4.661l-6.529,32.636H460.62Z" transform="translate(-109.94 -60.395)" fill="#ebebeb"/>
      <path id="Path_2655" data-name="Path 2655" d="M25.01,79.46H97.737V184.9H25.509Z" transform="translate(-19.059 -50.268)" fill="#e0e0e0"/>
      <rect id="Rectangle_526" data-name="Rectangle 526" width="72.062" height="104.453" transform="translate(72.553 134.136) rotate(180)" fill="#fff"/>
      <path id="Path_2656" data-name="Path 2656" d="M90.541,79.46V184.9H17.49V79.46Zm-.989,104.461V80.449H18.479V183.913Z" transform="translate(-17.49 -50.268)" fill="#e0e0e0"/>
      <rect id="Rectangle_527" data-name="Rectangle 527" width="54.154" height="81.828" transform="translate(9.449 40.999)" fill="#fff"/>
      <path id="Path_2657" data-name="Path 2657" d="M29.378,94.349v6.062c0,3.957.04,9.647.063,16.864,0,14.427.071,34.82.119,58.9l-.237-.237H83.468l-.253.261c0-30.863,0-59.353.047-81.828l.206.206-39.4-.1L33.232,94.4h-.079L44,94.341l39.569-.111h.206v.206c0,22.507,0,50.964.055,81.828v.261H29.18v-.237c.047-24.113.087-44.594.119-59.06,0-7.194.047-12.891.063-16.809V94.839C29.362,94.57,29.378,94.349,29.378,94.349Z" transform="translate(-19.929 -53.349)" fill="#e0e0e0"/>
      <path id="Path_2658" data-name="Path 2658" d="M17.86,209.08a9.5,9.5,0,0,1,1.163-1.8c.791-1.068,1.868-2.517,3.165-4.091s2.445-2.952,3.34-3.957a8.167,8.167,0,0,1,1.527-1.5c.111.095-1.963,2.612-4.463,5.745A57.24,57.24,0,0,1,17.86,209.08Z" transform="translate(-17.567 -74.944)" fill="#e0e0e0"/>
      <path id="Path_2659" data-name="Path 2659" d="M18.119,80.089A51.014,51.014,0,0,1,22.8,85.582,50.721,50.721,0,0,1,27.07,91.4a51.015,51.015,0,0,1-4.677-5.492A53.147,53.147,0,0,1,18.119,80.089Z" transform="translate(-17.621 -50.399)" fill="#e0e0e0"/>
      <path id="Path_2660" data-name="Path 2660" d="M106.7,80.19,97.26,91.839" transform="translate(-34.132 -50.42)" fill="#fff"/>
      <path id="Path_2661" data-name="Path 2661" d="M97.259,91.838a55.173,55.173,0,0,1,4.519-5.983,55.287,55.287,0,0,1,4.922-5.666,55.672,55.672,0,0,1-4.519,5.991A55.673,55.673,0,0,1,97.259,91.838Z" transform="translate(-34.131 -50.42)" fill="#e0e0e0"/>
      <path id="Path_2662" data-name="Path 2662" d="M106.846,209.12a50.243,50.243,0,0,1-4.63-5.437A48.565,48.565,0,0,1,98,197.93a55.432,55.432,0,0,1,4.63,5.437A49.683,49.683,0,0,1,106.846,209.12Z" transform="translate(-34.285 -74.984)" fill="#e0e0e0"/>
      <path id="Path_2663" data-name="Path 2663" d="M63.666,142.355H54.122l-1.14,2.627a5.8,5.8,0,0,0-.554,2.168,1.789,1.789,0,0,0,.9,1.67,7.558,7.558,0,0,0,2.643.475v.736H47V149.3a4.012,4.012,0,0,0,2.374-1.2,15.78,15.78,0,0,0,2.374-4.068L61.4,122.5h.38l9.726,22.158a13.6,13.6,0,0,0,2.287,3.957,3.094,3.094,0,0,0,1.907.712v.736H62.63v-.736h.538a4.091,4.091,0,0,0,2.208-.435,1.06,1.06,0,0,0,.435-.918,2.461,2.461,0,0,0-.119-.736,10.843,10.843,0,0,0-.594-1.488Zm-.681-1.472L58.973,131.6l-4.139,9.283Z" transform="translate(-23.647 -59.247)" fill="#e0e0e0"/>
      <path id="Path_2664" data-name="Path 2664" d="M214.685,462.132c-1.282-1.1-4.147-4.59-1.939-8.65.791-1.488,2.532-2.224,4.083-2.881a16.556,16.556,0,0,0,4.487-2.327c2.43-2.065,3.1-5.5,4.748-8.262,1.852-3.165,5.3-5.54,8.958-5.365,4.178.19,7.668,3.6,9.251,7.494s1.63,8.222,1.67,12.425c0,2.327-.087,4.946-1.8,6.521-1.583,1.448-3.957,1.464-6.078,1.4l-22.918-.7" transform="translate(-58.057 -124.368)" fill="#f5f5f5"/>
      <path id="Path_2665" data-name="Path 2665" d="M254.8,390H194.7l10.826,64.552a7.217,7.217,0,0,0,5.128,5.745l.214.063c.182.04.348.1.538.135a7.666,7.666,0,0,0,1.219.142v.063l.293-.047h26.788a7.489,7.489,0,0,0,1.472-.15,7.241,7.241,0,0,0,6.086-6.331l5.215-44.483.237-1.765h0l2.065-17.616Zm-11.332,41.151h-6.173l.625-18.732h7.122Zm2.2-18.732h5.9l-2.2,18.732h-5.31Zm-17.624,39.5-.372-16.271h8.879l-.538,16.271Zm-9.6-16.271h8.626l.38,16.271h-7.74Zm.665,16.271h-7.233c-.688-4.392-1.583-10.1-2.556-16.271h8.523Zm-1.013-20.766-1.456-18.732h9.9l.427,18.732Zm9.5,0-.435-18.732h10.193l-.649,18.732Zm-.538-23.227-.459-17.355h11.419l-.578,17.355Zm-.594,0H216.3l-1.345-17.355h11.079Zm-10.747,0H204.948c-.38-2.374-.736-4.669-1.06-6.7-1.124-7.019-1.543-9.655-1.781-10.652h12.227Zm.348,4.495,1.432,18.732h-8.879c-.3-1.9-.6-3.822-.9-5.745-.7-4.424-1.393-8.848-2.05-12.986Zm-8.048,18.732h-5.8l-3.165-18.732h5.991C206.017,418.2,206.99,424.654,208.011,431.151Zm.7,4.495c.886,5.627,1.757,11.182,2.548,16.271h-5.54l-2.73-16.271ZM236.6,451.917l.538-16.271h5.935l-1.385,16.271Zm1.464-43.992.578-17.355h8.286l-1.48,17.355ZM201.545,390.57c.237,1.258,1.329,8.088,2.8,17.355h-6.03L195.4,390.57Zm45.385,61.347h-4.645l1.393-16.271h5.16Zm5.16-43.992h-6.046l1.48-17.355h6.608Z" transform="translate(-54.461 -115.055)" fill="#e0e0e0"/>
    </g>
    <g id="freepik--Screen--inject-13" transform="translate(60.398 37.87)">
      <path id="Path_2812" data-name="Path 2812" d="M0,0H260.052V200.573H0Z" transform="translate(0.142 0.237)" fill="#fff"/>
      <rect id="Rectangle_529" data-name="Rectangle 529" width="223.388" height="6.727" transform="translate(15.424 127.118)" fill="#ebebeb"/>
      <rect id="Rectangle_530" data-name="Rectangle 530" width="223.388" height="6.727" transform="translate(15.313 118.199)" fill="#ebebeb"/>
      <rect id="Rectangle_531" data-name="Rectangle 531" width="223.388" height="6.727" transform="translate(15.313 109.162)" fill="#ebebeb"/>
      <rect id="Rectangle_532" data-name="Rectangle 532" width="223.388" height="6.727" transform="translate(15.313 100.124)" fill="#ebebeb"/>
      <rect id="Rectangle_533" data-name="Rectangle 533" width="223.388" height="6.727" transform="translate(15.424 136.353)" fill="#ebebeb"/>
      <rect id="Rectangle_534" data-name="Rectangle 534" width="223.388" height="6.727" transform="translate(15.424 145.066)" fill="#ebebeb"/>
      <rect id="Rectangle_535" data-name="Rectangle 535" width="223.388" height="6.727" transform="translate(15.424 154.135)" fill="#ebebeb"/>
      <rect id="Rectangle_536" data-name="Rectangle 536" width="223.388" height="6.727" transform="translate(15.424 162.753)" fill="#ebebeb"/>
      <rect id="Rectangle_537" data-name="Rectangle 537" width="223.388" height="6.727" transform="translate(15.424 171.039)" fill="#ebebeb"/>
      <rect id="Rectangle_538" data-name="Rectangle 538" width="223.388" height="6.727" transform="translate(15.424 180.456)" fill="#ebebeb"/>
      <rect id="Rectangle_539" data-name="Rectangle 539" width="260.314" height="14.925" transform="translate(0.142 0.04)" fill="#8880f7"/>
      <path id="Path_2678" data-name="Path 2678" d="M82.625,46.933a1.583,1.583,0,1,1-1.583-1.583A1.583,1.583,0,0,1,82.625,46.933Z" transform="translate(-73.327 -39.431)" fill="#fff"/>
      <path id="Path_2679" data-name="Path 2679" d="M89.9,46.933a1.583,1.583,0,1,1-1.583-1.583A1.583,1.583,0,0,1,89.9,46.933Z" transform="translate(-74.844 -39.431)" fill="#fff"/>
      <path id="Path_2680" data-name="Path 2680" d="M97.165,46.933a1.583,1.583,0,1,1-1.583-1.583A1.583,1.583,0,0,1,97.165,46.933Z" transform="translate(-76.36 -39.431)" fill="#fff"/>
      <path id="Path_2681" data-name="Path 2681" d="M136.309,144.467v-2.762c0-1.788,0-4.36-.071-7.605l.119.111-46.691.095h0l.206-.206h0v10.351l-.222-.182,33.238.095,9.837.055h.095l-9.789.055-33.364.087H89.46V134.116h0l.206-.206h0l46.691.087h.119v.119c0,3.268-.047,5.872-.063,7.676v2.477a.673.673,0,0,1-.1.2Z" transform="translate(-75.413 -57.907)" fill="#263238"/>
      <path id="Path_2682" data-name="Path 2682" d="M178.284,144.438a.609.609,0,0,1,0-.2v-.546c0-.514,0-1.2-.04-2.081,0-1.812-.04-4.384-.079-7.542l.15.142-25.545.063.206-.206h0v10.351l-.2-.2,18.257.095,5.334.055h1.955a3.231,3.231,0,0,1-.467,0h-1.4l-5.286.055-18.391.095h-.2V133.976h0l.206-.206,25.545.055h.142v.15c0,3.165-.063,5.793-.079,7.629v2.05A2.274,2.274,0,0,1,178.284,144.438Z" transform="translate(-88.582 -57.878)" fill="#263238"/>
      <path id="Path_2683" data-name="Path 2683" d="M95.308,138.839H93.63v-.609h4.052v.609H96v4.281h-.7Z" transform="translate(-76.283 -58.808)" fill="#263238"/>
      <path id="Path_2684" data-name="Path 2684" d="M99.32,138.173a.443.443,0,0,1,.459-.443.435.435,0,0,1,.451.427.459.459,0,0,1-.91,0Zm.119,1.147h.673v3.7h-.673Z" transform="translate(-77.47 -58.704)" fill="#263238"/>
      <path id="Path_2685" data-name="Path 2685" d="M103.886,143.021a1.282,1.282,0,0,1-.791.261,1.06,1.06,0,0,1-1.179-1.163v-2.034h-.625v-.554h.625v-.791h.673v.791h1.06v.554h-1.06v2.026c0,.4.206.625.578.625a.871.871,0,0,0,.53-.174Z" transform="translate(-77.881 -58.914)" fill="#263238"/>
      <path id="Path_2686" data-name="Path 2686" d="M105.59,137.87h.673v5.183h-.673Z" transform="translate(-78.778 -58.733)" fill="#263238"/>
      <path id="Path_2687" data-name="Path 2687" d="M111.3,141.8h-3.007a1.25,1.25,0,0,0,1.345,1.084,1.369,1.369,0,0,0,1.068-.443l.372.435a1.968,1.968,0,0,1-3.45-1.3,1.812,1.812,0,0,1,1.86-1.891,1.789,1.789,0,0,1,1.828,1.915A1.809,1.809,0,0,1,111.3,141.8Zm-3.007-.483h2.374a1.2,1.2,0,0,0-2.374,0Z" transform="translate(-79.203 -59.112)" fill="#263238"/>
      <path id="Path_2688" data-name="Path 2688" d="M139.27,140.13h4.44l-2.216,2.224Z" transform="translate(-85.805 -59.204)" fill="#263238"/>
      <path id="Path_2689" data-name="Path 2689" d="M174.91,140.13h4.44l-2.224,2.224Z" transform="translate(-93.241 -59.204)" fill="#263238"/>
      <path id="Path_2690" data-name="Path 2690" d="M325.957,248.364c0-1.211-.063-46.216-.158-120.478l.158.15-242.065.055h0l.206-.206V248.364l-.2-.2,242.08.2-242.08.19h-.19V127.68h.222L326,127.735h.1v.15C326.012,202.148,325.957,247.153,325.957,248.364Z" transform="translate(-74.214 -56.607)" fill="#e0e0e0"/>
      <path id="Path_2691" data-name="Path 2691" d="M325.85,137.22V126.628c0-6.94,0-17.17-.047-30.342l.087.157L83.453,96.7h0l.206-.409V137.2l-.206-.409,172.092.173,51.518.11h.1l-51.439.126-172.242.173H83.2V95.83h.214L325.85,96.1h.079v.157c0,13.219-.04,23.465-.047,30.436v7.869C325.882,136.338,325.85,137.22,325.85,137.22Z" transform="translate(-74.107 -70.617)" fill="#e0e0e0"/>
      <path id="Path_2693" data-name="Path 2693" d="M309.777,135.31a1.48,1.48,0,0,0-1.527,1.369h0v5.365h0a2.16,2.16,0,0,0,4.258,0h0v-4.329h-.419v4.147a1.733,1.733,0,0,1-3.45,0v-5.136a1.116,1.116,0,0,1,2.232,0v4.353h0a.649.649,0,0,1-1.242,0v-3.355h-.411v3.205h0v.15h0a1.045,1.045,0,0,0,2.042,0h0v-.158h0v-4.273h0a1.488,1.488,0,0,0-1.48-1.337Z" transform="translate(-121.059 -58.199)" fill="#263238"/>
      <rect id="Rectangle_540" data-name="Rectangle 540" width="6.101" height="0.965" transform="translate(126.137 79.477)" fill="#263238"/>
      <rect id="Rectangle_541" data-name="Rectangle 541" width="6.101" height="0.965" transform="translate(126.137 82.999)" fill="#263238"/>
      <rect id="Rectangle_542" data-name="Rectangle 542" width="3.055" height="0.965" transform="translate(126.137 81.298)" fill="#263238"/>
      <rect id="Rectangle_543" data-name="Rectangle 543" width="6.101" height="0.965" transform="translate(149.047 79.477)" fill="#263238"/>
      <rect id="Rectangle_544" data-name="Rectangle 544" width="6.101" height="0.965" transform="translate(149.047 82.999)" fill="#263238"/>
      <rect id="Rectangle_545" data-name="Rectangle 545" width="3.055" height="0.965" transform="translate(152.094 81.298)" fill="#263238"/>
      <rect id="Rectangle_546" data-name="Rectangle 546" width="6.101" height="0.965" transform="translate(137.746 79.477)" fill="#263238"/>
      <rect id="Rectangle_547" data-name="Rectangle 547" width="6.101" height="0.965" transform="translate(137.746 82.999)" fill="#263238"/>
      <rect id="Rectangle_548" data-name="Rectangle 548" width="6.101" height="0.965" transform="translate(137.746 81.298)" fill="#263238"/>
      <path id="Path_2694" data-name="Path 2694" d="M285.754,142.489H280.76v-4.1h2.588v.863H281.63v2.366h3.26v-.855h.863Z" transform="translate(-115.324 -58.841)" fill="#263238"/>
      <path id="Path_2695" data-name="Path 2695" d="M289.386,142.489h-2.121v-.871h1.258v-2.366h-3.26v1.108H284.4V138.39h4.986Z" transform="translate(-116.083 -58.841)" fill="#263238"/>
      <path id="Path_2696" data-name="Path 2696" d="M293.26,140.57h2.659L294.59,141.8Z" transform="translate(-117.932 -59.296)" fill="#263238"/>
      <path id="Path_2697" data-name="Path 2697" d="M217.32,140.493v-2.3h.791v2.271c0,.839.38,1.2,1.037,1.2s1.029-.364,1.029-1.2V138.19h.744v2.3a1.788,1.788,0,1,1-3.569,0Z" transform="translate(-102.088 -58.8)" fill="#263238"/>
      <path id="Path_2698" data-name="Path 2698" d="M208.418,137.61h.681l-.958,4.748h-.681Z" transform="translate(-100.031 -58.679)" fill="#263238"/>
      <path id="Path_2699" data-name="Path 2699" d="M199.387,141.092c0,.791-.681,1.306-1.963,1.306H194.86V137.65h2.43c1.25,0,1.868.514,1.868,1.25a1.124,1.124,0,0,1-.641,1.029A1.2,1.2,0,0,1,199.387,141.092Zm-3.165-2.485v.9h.926c.451,0,.681-.15.681-.459s-.229-.459-.681-.459Zm1.836,2.335c0-.324-.245-.483-.7-.483h-1.132v.965h1.124c.435-.016.681-.174.681-.5Z" transform="translate(-97.403 -58.687)" fill="#263238"/>
      <path id="Path_2700" data-name="Path 2700" d="M226.369,144.725a37.029,37.029,0,0,1-.206-5.468,37.1,37.1,0,0,1,.206-5.476,35.839,35.839,0,0,1,.206,5.476,35.77,35.77,0,0,1-.206,5.468Z" transform="translate(-103.928 -57.88)" fill="#e0e0e0"/>
      <path id="Path_2701" data-name="Path 2701" d="M272.2,144.725a35.77,35.77,0,0,1-.206-5.468,35.847,35.847,0,0,1,.206-5.476,37.1,37.1,0,0,1,.206,5.476A37.029,37.029,0,0,1,272.2,144.725Z" transform="translate(-113.489 -57.88)" fill="#e0e0e0"/>
      <path id="Path_2702" data-name="Path 2702" d="M299.939,145.007a37.025,37.025,0,0,1-.206-5.468,36.937,36.937,0,0,1,.206-5.468,36.937,36.937,0,0,1,.206,5.468A37.025,37.025,0,0,1,299.939,145.007Z" transform="translate(-119.277 -57.94)" fill="#e0e0e0"/>
      <path id="Path_2703" data-name="Path 2703" d="M320.939,144.595a37.029,37.029,0,0,1-.206-5.468,37.1,37.1,0,0,1,.206-5.476,35.185,35.185,0,0,1,.214,5.476,35.122,35.122,0,0,1-.214,5.468Z" transform="translate(-123.658 -57.852)" fill="#e0e0e0"/>
      <path id="Path_2704" data-name="Path 2704" d="M221.587,144.056a14.728,14.728,0,0,1-4.906,0,14.727,14.727,0,0,1,4.906,0Z" transform="translate(-101.955 -59.98)" fill="#263238"/>
      <path id="Path_2705" data-name="Path 2705" d="M161.8,137.606v4.748h-.673v-4.171H160.05v-.594Z" transform="translate(-90.14 -58.674)" fill="#263238"/>
      <path id="Path_2706" data-name="Path 2706" d="M166.857,141.759v.594h-3.419v-.5l1.939-1.868c.506-.491.6-.791.6-1.084,0-.491-.348-.791-1.013-.791a1.512,1.512,0,0,0-1.219.514l-.467-.4a2.2,2.2,0,0,1,1.741-.72c1,0,1.63.506,1.63,1.322a1.923,1.923,0,0,1-.791,1.5l-1.456,1.4Z" transform="translate(-90.814 -58.657)" fill="#263238"/>
      <path id="Path_2707" data-name="Path 2707" d="M325.894,154.056c0,.111-54.288.206-121.238.206s-121.246-.095-121.246-.206,54.272-.206,121.246-.206S325.894,153.969,325.894,154.056Z" transform="translate(-74.151 -62.067)" fill="#e0e0e0"/>
      <path id="Path_2708" data-name="Path 2708" d="M312.869,169.222c0,.111-49.294.206-110.1.206s-110.1-.095-110.1-.206S142,169,202.773,169,312.869,169.1,312.869,169.222Z" transform="translate(-76.083 -65.228)" fill="#263238"/>
      <path id="Path_2709" data-name="Path 2709" d="M312.869,180.5c0,.119-49.294.206-110.1.206s-110.1-.087-110.1-.206,49.287-.206,110.1-.206S312.869,180.385,312.869,180.5Z" transform="translate(-76.083 -67.583)" fill="#263238"/>
      <path id="Path_2710" data-name="Path 2710" d="M312.869,191.776c0,.111-49.294.206-110.1.206s-110.1-.071-110.1-.206,49.287-.206,110.1-.206S312.869,191.657,312.869,191.776Z" transform="translate(-76.083 -69.936)" fill="#263238"/>
      <path id="Path_2711" data-name="Path 2711" d="M312.869,203.046c0,.119-49.294.206-110.1.206s-110.1-.087-110.1-.206,49.287-.206,110.1-.206S312.869,202.967,312.869,203.046Z" transform="translate(-76.083 -72.288)" fill="#263238"/>
      <path id="Path_2712" data-name="Path 2712" d="M312.869,214.326c0,.111-49.294.206-110.1.206s-110.1-.095-110.1-.206,49.287-.206,110.1-.206S312.869,214.207,312.869,214.326Z" transform="translate(-76.083 -74.641)" fill="#263238"/>
      <path id="Path_2713" data-name="Path 2713" d="M312.869,225.6c0,.119-49.294.206-110.1.206s-110.1-.087-110.1-.206,49.287-.206,110.1-.206S312.869,225.485,312.869,225.6Z" transform="translate(-76.083 -76.992)" fill="#263238"/>
      <path id="Path_2714" data-name="Path 2714" d="M312.869,236.876c0,.111-49.294.206-110.1.206s-110.1-.095-110.1-.206,49.287-.206,110.1-.206S312.869,236.757,312.869,236.876Z" transform="translate(-76.083 -79.345)" fill="#263238"/>
      <path id="Path_2715" data-name="Path 2715" d="M313.069,247.746c0,.111-49.294.206-110.1.206s-110.1-.095-110.1-.206,49.287-.206,110.1-.206S313.069,247.635,313.069,247.746Z" transform="translate(-76.125 -81.613)" fill="#263238"/>
      <path id="Path_2716" data-name="Path 2716" d="M313.269,258.616c0,.119-49.294.206-110.088.206s-110.111-.087-110.111-.206,49.287-.206,110.111-.206S313.269,258.5,313.269,258.616Z" transform="translate(-76.166 -83.881)" fill="#263238"/>
      <path id="Path_2717" data-name="Path 2717" d="M93.28,269.486c0-.111,49.295-.206,110.088-.206s110.1.095,110.1.206-49.287.206-110.1.206S93.28,269.6,93.28,269.486Z" transform="translate(-76.21 -86.149)" fill="#263238"/>
      <path id="Path_2718" data-name="Path 2718" d="M331.9,238.68c0-1.409-.063-79.414-.166-200.573l.166.174H71.876l.206-.206V238.649l-.182-.182,260.052.182-260.052.19h-.19V37.87h.229l259.965.1h.174v.166C331.976,159.266,331.9,237.272,331.9,238.68Z" transform="translate(-71.71 -37.87)" fill="#263238"/>
      <path id="Path_2719" data-name="Path 2719" d="M272,115.324v17.252a5.761,5.761,0,0,0,5.761,5.761h21.145a1.978,1.978,0,0,1,1.583.791l5.176,11.277,6.236-11.079a2.018,2.018,0,0,1,1.5-.673h22.158a5.761,5.761,0,0,0,5.69-5.817V115.213a5.753,5.753,0,0,0-5.769-5.753l-57.691.1A5.761,5.761,0,0,0,272,115.324Z" transform="translate(-113.496 -52.806)" fill="#8880f7"/>
      <path id="Path_2720" data-name="Path 2720" d="M288.841,130.418H285.78v-2.887l7.049-7.7.141-.034a2.3,2.3,0,0,1,2.283.322,2.847,2.847,0,0,1,.618,2.484v.148Zm-2.014-1.014h1.6l6.505-7.116a1.839,1.839,0,0,0-.329-1.423,1.3,1.3,0,0,0-1.195-.128l-6.579,7.183Z" transform="translate(-117.463 -53.963)" fill="#fff"/>
      <text id="Lorem_ipsum_dolor_sit_amet_consectetuer_adipiscing_elit._Aenean_commodo_ligula_eget_dolor." data-name="Lorem ipsum dolor sit amet, consectetuer adipiscing elit. Aenean commodo ligula eget dolor." transform="translate(16.695 34.667)" font-size="7" font-family="Poppins-Regular, Poppins"><tspan x="0" y="7">Lorem ipsum dolor sit amet, consectetuer adipiscing elit. </tspan><tspan x="0" y="18">Aenean commodo ligula eget dolor.</tspan></text>
      <text id="Review" transform="translate(184.695 73.667)" fill="#fff" font-size="11" font-family="Poppins-Regular, Poppins"><tspan x="0" y="0">Review</tspan></text>
    </g>
    <g id="freepik--Plant--inject-13" transform="translate(56.867 242.811)">
      <path id="Path_2725" data-name="Path 2725" d="M113.732,430.907c-2.073-.1-2.683-3.023-1.907-4.946s2.287-3.632,2.311-5.706c0-1.8-1.124-3.427-1.235-5.223-.2-3.237,2.936-5.88,3.071-9.117.1-2.532-1.654-4.938-1.227-7.431.451-2.675,3.245-4.424,3.886-7.067.681-2.8-1.266-5.777-.522-8.563s4.02-4.827,3.553-7.66a25.924,25.924,0,0,0-.973-2.683c-.586-2.113.57-4.329,1.971-6.022s3.118-3.165,3.957-5.215c1.337-3.1.412-6.885,1.978-9.876,1.314-2.485,4.226-4.163,4.59-6.948,1.472,2.509,0,5.7.364,8.594.222,1.883,1.2,3.585,1.8,5.389a14.015,14.015,0,0,1-1.1,11.222c-1.266,2.224-3.213,4.329-3.118,6.885.119,3.094,3.221,5.342,3.767,8.389.791,4.36-3.862,8.286-3.221,12.662.166,1.132.681,2.2.791,3.34.324,3.878-4.068,6.616-4.748,10.454-.491,2.817,1.14,5.73.467,8.515-.522,2.145-2.374,4.068-1.923,6.228a15.085,15.085,0,0,0,1.187,2.6,4.978,4.978,0,0,1-.791,5.144,4.329,4.329,0,0,1-5,1.029" transform="translate(-76.48 -306.773)" fill="#8880f7"/>
      <g id="Group_409" data-name="Group 409" transform="translate(35.064 37.717)" opacity="0.5">
        <path id="Path_2726" data-name="Path 2726" d="M127.482,428.781a15.085,15.085,0,0,1-1.187-2.6c-.451-2.16,1.4-4.083,1.923-6.228.673-2.786-.958-5.7-.467-8.515.673-3.838,5.065-6.576,4.748-10.454-.1-1.14-.617-2.208-.791-3.34-.641-4.384,4-8.309,3.221-12.662-.546-3.047-3.64-5.294-3.767-8.389-.095-2.556,1.852-4.661,3.118-6.885a14.015,14.015,0,0,0,1.1-11.222c-.594-1.8-1.583-3.506-1.8-5.389-.332-2.9,1.108-6.086-.364-8.594-.364,2.786-3.276,4.463-4.59,6.948-1.583,2.991-.641,6.774-1.978,9.876-.863,2.018-2.58,3.522-3.957,5.215s-2.556,3.909-1.971,6.022a25.934,25.934,0,0,1,.973,2.683c.467,2.833-2.809,4.875-3.553,7.66s1.2,5.761.522,8.563c-.641,2.643-3.435,4.392-3.886,7.067-.427,2.493,1.329,4.9,1.227,7.431-.135,3.237-3.268,5.88-3.071,9.117.111,1.8,1.25,3.427,1.235,5.223,0,2.073-1.583,3.783-2.311,5.706s-.166,4.843,1.907,4.946l7.961,4a4.329,4.329,0,0,0,5-1.029,4.978,4.978,0,0,0,.752-5.152Z" transform="translate(-111.557 -344.5)" fill="#fff"/>
      </g>
      <path id="Path_2727" data-name="Path 2727" d="M125.128,427.29a5.674,5.674,0,0,1-.791-3.063c.214-1.187,2.216-2.224,2.714-4.234.641-2.612-.522-7.217,0-9.853.673-3.569,4.368-5.919,4.218-9.5-.047-1.045.1-3.83,0-4.859-.4-4,3.118-6.679,2.6-10.652-.356-2.77-3.229-6.022-3.237-8.863,0-2.374,1.686-4.408,2.8-6.537a14.648,14.648,0,0,0,1.266-10.407,26.29,26.29,0,0,1-1.314-4.843c-.19-2.643,1.108-5.682,0-7.914-.388,2.6-2.857,4.329-4.02,6.7-1.393,2.857-.744,6.276-1.947,9.219-.791,1.915-2.247,3.411-3.466,5.065s-2.24,3.759-1.82,5.674a22.606,22.606,0,0,1,.72,2.374c.3,2.588-2.477,4.677-3.165,7.289s.791,5.223.158,7.85c-.609,2.469-3.031,5.824-3.49,8.317-.435,2.327,1.67,3.838,1.5,6.165-.206,3-3.165,6.616-3.165,9.583,0,1.646,1.417,2.176,1.345,3.83-.087,1.907-1.686,5.706-2.374,7.526a5.144,5.144,0,0,0,.5,5.12l8.9,4.416C126.948,433.874,126.774,430,125.128,427.29Z" transform="translate(-76.837 -307.215)" fill="#8880f7"/>
      <path id="Path_2728" data-name="Path 2728" d="M132.5,363.71a.57.57,0,0,1,0,.2c0,.15,0,.34,0,.578a21.334,21.334,0,0,1-.095,2.224,10.81,10.81,0,0,1-.791,3.435,17.927,17.927,0,0,1-2.675,3.822,7.122,7.122,0,0,0-1.274,2.319,7.843,7.843,0,0,0-.317,2.849c.095,2.01.712,4.1,1.005,6.378a9.718,9.718,0,0,1-.119,3.537,6.576,6.576,0,0,1-.7,1.717,16.015,16.015,0,0,0-.934,1.583,5.84,5.84,0,0,0-.055,3.609c.127.625.269,1.258.348,1.915a7.708,7.708,0,0,1-.055,2,15.321,15.321,0,0,1-1.227,3.735,30.521,30.521,0,0,0-1.369,3.506,9.03,9.03,0,0,0-.309,3.514,15.994,15.994,0,0,1,.127,3.529,10.953,10.953,0,0,1-1.124,3.165,12.315,12.315,0,0,0-1.124,2.889c-.372,1.963.182,3.846.142,5.587a15.178,15.178,0,0,1-1.021,4.558,16.01,16.01,0,0,0-.871,3.379,4.827,4.827,0,0,0,.222,2.168c.182.467.324.7.3.712a4.234,4.234,0,0,1-.364-.689,4.748,4.748,0,0,1-.3-2.208,15.828,15.828,0,0,1,.791-3.427,14.941,14.941,0,0,0,.958-4.495c0-.855-.119-1.741-.214-2.683a10.114,10.114,0,0,1,0-2.968c.388-2.058,1.9-3.822,2.208-6.046a16.033,16.033,0,0,0-.135-3.458,9.37,9.37,0,0,1,.309-3.672c.681-2.43,2.16-4.637,2.588-7.2a7.336,7.336,0,0,0,.047-1.907c-.071-.633-.214-1.258-.34-1.883a6.157,6.157,0,0,1,.087-3.83,15.379,15.379,0,0,1,.958-1.583,6.552,6.552,0,0,0,.665-1.622,9.576,9.576,0,0,0,.119-3.419c-.277-2.24-.894-4.353-.981-6.4a8.1,8.1,0,0,1,.356-2.952,7.463,7.463,0,0,1,1.329-2.374,17.734,17.734,0,0,0,2.7-3.743,11.222,11.222,0,0,0,.847-3.371c.1-.95.127-1.7.158-2.208V363.9A.194.194,0,0,1,132.5,363.71Z" transform="translate(-78.233 -310.791)" fill="#263238"/>
      <path id="Path_2729" data-name="Path 2729" d="M96.282,422c-2.9.419-4.542-3.458-4-6.331s2.184-5.658,1.646-8.539c-.467-2.493-2.5-4.44-3.165-6.9-1.163-4.432,2.453-8.942,1.749-13.453-.546-3.53-3.64-6.386-3.735-9.955-.071-3.886,3.34-7.051,3.474-10.881.174-4.083-3.34-7.66-3.063-11.728s4.242-7.787,2.817-11.594c-.467-1.258-1.48-2.24-2.081-3.442-1.393-2.77-.4-6.149,1.084-8.879s3.442-5.286,4.091-8.325c.989-4.661-1.33-9.647,0-14.245,1.132-3.806,4.748-6.924,4.448-10.889,2.738,3.078,1.583,7.914,2.865,11.815.791,2.548,2.643,4.637,3.957,6.972a19.784,19.784,0,0,1,1.583,15.827c-1.147,3.427-3.268,6.869-2.437,10.391,1.021,4.25,5.927,6.513,7.518,10.589,2.279,5.832-3.086,12.543-.989,18.447.538,1.519,1.583,2.849,1.994,4.408,1.519,5.278-3.822,10.288-3.7,15.772.095,4.044,3.165,7.637,2.976,11.673-.127,3.118-2.168,6.331-.95,9.156a19.576,19.576,0,0,0,2.374,3.292,7.012,7.012,0,0,1,.332,7.328,6.1,6.1,0,0,1-6.648,2.794" transform="translate(-71.74 -296.84)" fill="#8880f7"/>
      <g id="Group_410" data-name="Group 410" transform="translate(17.069 0.047)" opacity="0.5">
        <path id="Path_2730" data-name="Path 2730" d="M114.737,415.242a20.507,20.507,0,0,1-2.374-3.292c-1.219-2.865.791-6.038.95-9.156.174-4.036-2.881-7.629-2.976-11.673-.119-5.492,5.223-10.494,3.7-15.772-.451-1.583-1.456-2.888-1.994-4.408-2.1-5.9,3.268-12.614.989-18.447-1.583-4.076-6.5-6.331-7.518-10.589-.791-3.522,1.3-6.964,2.437-10.391a19.784,19.784,0,0,0-1.583-15.827c-1.322-2.335-3.165-4.424-3.957-6.972-1.25-3.917-.127-8.705-2.865-11.815.261,3.957-3.316,7.083-4.448,10.889-1.361,4.574.958,9.56,0,14.245-.649,3.039-2.619,5.6-4.091,8.325s-2.477,6.109-1.084,8.879c.6,1.2,1.583,2.184,2.081,3.442,1.424,3.806-2.556,7.534-2.817,11.594s3.237,7.645,3.063,11.728c-.127,3.783-3.537,6.948-3.435,10.8.087,3.569,3.165,6.426,3.727,9.955.7,4.527-2.912,9.037-1.749,13.453.641,2.461,2.675,4.408,3.165,6.9.538,2.881-1.108,5.666-1.646,8.539s1.1,6.758,4,6.331l12.132,3.355a6.1,6.1,0,0,0,6.648-2.794A7.012,7.012,0,0,0,114.737,415.242Z" transform="translate(-88.817 -296.9)" fill="#fff"/>
      </g>
      <path id="Path_2731" data-name="Path 2731" d="M110.918,413.995a8.082,8.082,0,0,1-1.947-4.02c0-1.7,2.461-3.7,2.6-6.616.182-3.791-2.7-9.86-2.73-13.635,0-5.136,4.432-9.409,3.253-14.284-.348-1.432-.91-5.334-1.33-6.735-1.646-5.429,2.485-10.106.688-15.463-1.25-3.743-6.125-7.463-6.909-11.4-.649-3.253,1.124-6.568,2.089-9.829a20.694,20.694,0,0,0-1.1-14.767c-1.053-2.121-2.509-4-3.165-6.331-.989-3.609,0-8.175-2.216-10.929.166,3.7-2.77,6.774-3.727,10.383-1.155,4.345.681,8.9-.174,13.311-.562,2.873-2.184,5.342-3.419,7.961s-2.073,5.824-.973,8.365a32.777,32.777,0,0,1,1.662,3.126c1.124,3.5-2.153,7.162-2.374,10.968s2.556,7.019,2.374,10.834c-.174,3.593-2.6,8.9-2.564,12.48,0,3.34,3.371,4.851,3.783,8.135.522,4.2-2.643,10.043-1.741,14.134.5,2.271,2.548,2.627,2.9,4.938.4,2.667-.791,8.365-1.235,11.079a7.408,7.408,0,0,0,2.089,6.964l13.532,3.672C115.255,422.66,113.941,417.319,110.918,413.995Z" transform="translate(-72.195 -297.497)" fill="#8880f7"/>
      <path id="Path_2732" data-name="Path 2732" d="M102.455,324.42a34.253,34.253,0,0,1,.7,4.178,15.827,15.827,0,0,1-.182,4.962,12.519,12.519,0,0,1-1.068,2.928c-.483,1-1.068,1.994-1.583,3.078a9.971,9.971,0,0,0-1.132,3.585,11.308,11.308,0,0,0,.332,4.052c.681,2.77,2.113,5.54,3.165,8.571a13.691,13.691,0,0,1,.791,4.914,9.551,9.551,0,0,1-.491,2.548,24.06,24.06,0,0,0-.878,2.422c-.4,1.686.23,3.427.926,5.065.348.831.712,1.67,1,2.556a10.921,10.921,0,0,1,.475,2.77,22.5,22.5,0,0,1-.673,5.492,43.234,43.234,0,0,0-.95,5.239,13.2,13.2,0,0,0,0,2.564,14.433,14.433,0,0,0,.53,2.469,22.238,22.238,0,0,1,1.14,4.835,14.965,14.965,0,0,1-.681,4.693,17.291,17.291,0,0,0-.791,4.321,14.007,14.007,0,0,0,.72,4.02,37.556,37.556,0,0,1,1.013,3.7,13.152,13.152,0,0,1,.166,3.49c-.071,1.1-.2,2.129-.324,3.086a22.158,22.158,0,0,0-.261,4.93,6.735,6.735,0,0,0,.918,2.944c.38.6.641.878.625.894a5.881,5.881,0,0,1-.688-.855,6.774,6.774,0,0,1-1-2.968,22.531,22.531,0,0,1,.206-4.97c.111-.958.237-1.986.3-3.071a13.454,13.454,0,0,0-.19-3.435,37.475,37.475,0,0,0-1.029-3.664,14,14,0,0,1-.791-4.1,18.248,18.248,0,0,1,.791-4.4,14.61,14.61,0,0,0,.657-4.59,22.72,22.72,0,0,0-1.132-4.748,14.045,14.045,0,0,1-.546-2.524,13.317,13.317,0,0,1,0-2.635,42.487,42.487,0,0,1,.95-5.278,22.159,22.159,0,0,0,.665-5.405,10.526,10.526,0,0,0-.459-2.675c-.277-.863-.641-1.694-.989-2.532a15.432,15.432,0,0,1-.886-2.572,5.9,5.9,0,0,1-.047-2.707,23.653,23.653,0,0,1,.894-2.461,9.1,9.1,0,0,0,.475-2.453,13.358,13.358,0,0,0-.791-4.788c-1.005-3.039-2.43-5.785-3.11-8.6a11.293,11.293,0,0,1-.317-4.155,10.224,10.224,0,0,1,1.171-3.664c.554-1.092,1.147-2.089,1.638-3.063a12.4,12.4,0,0,0,1.068-2.873,15.741,15.741,0,0,0,.237-4.914c-.119-1.353-.293-2.374-.4-3.1q-.071-.514-.119-.791a1.052,1.052,0,0,1-.04-.309Z" transform="translate(-73.838 -302.594)" fill="#263238"/>
      <path id="Path_2733" data-name="Path 2733" d="M90,437.484c-1.654.791-3.387-1.195-3.617-3.023s.214-3.806-.665-5.429c-.791-1.4-2.374-2.176-3.213-3.522-1.583-2.43-.261-5.824-1.583-8.4-1.013-2-3.411-3.118-4.155-5.231-.791-2.271.6-4.843,0-7.162-.681-2.477-3.474-3.957-4.1-6.426s1.037-5.484-.554-7.486a24.024,24.024,0,0,0-1.907-1.654c-1.369-1.393-1.432-3.609-1.068-5.54s1.037-3.83.839-5.777c-.309-2.983-2.659-5.54-2.73-8.515-.055-2.5,1.48-5.057.562-7.376,2.224,1.306,2.485,4.416,3.957,6.513.981,1.369,2.477,2.263,3.719,3.4a12.472,12.472,0,0,1,3.957,9.2c0,2.271-.625,4.748.554,6.687,1.424,2.374,4.8,2.754,6.545,4.883,2.493,3.055.578,8.1,2.968,11.23.617.791,1.48,1.409,2.05,2.255,1.931,2.865-.3,6.893.791,10.153.839,2.374,3.363,3.957,4.044,6.418.522,1.883-.087,4.178,1.195,5.658a13.453,13.453,0,0,0,2.05,1.512,4.44,4.44,0,0,1,1.583,4.329,3.846,3.846,0,0,1-3.308,2.991" transform="translate(-67.248 -310.422)" fill="#8880f7"/>
      <g id="Group_411" data-name="Group 411" transform="translate(0.071 51.534)" opacity="0.5">
        <path id="Path_2734" data-name="Path 2734" d="M99.73,429.868a13.455,13.455,0,0,1-2.05-1.512c-1.282-1.48-.673-3.775-1.195-5.658-.681-2.453-3.165-4.012-4.044-6.418-1.132-3.26,1.1-7.289-.791-10.153-.57-.847-1.432-1.448-2.05-2.255-2.374-3.126-.475-8.175-2.968-11.23-1.741-2.129-5.12-2.532-6.545-4.883-1.179-1.947-.578-4.416-.554-6.687a12.472,12.472,0,0,0-3.957-9.2c-1.242-1.14-2.738-2.034-3.719-3.4-1.512-2.1-1.773-5.207-3.957-6.513.918,2.319-.617,4.875-.562,7.376.071,3,2.422,5.54,2.73,8.515.2,1.947-.483,3.854-.839,5.777s-.3,4.131,1.068,5.54a24.018,24.018,0,0,1,1.907,1.654c1.583,2-.071,5,.554,7.486s3.419,3.957,4.1,6.426c.641,2.319-.791,4.891,0,7.162.744,2.113,3.165,3.229,4.155,5.231,1.3,2.58,0,5.975,1.583,8.4.855,1.345,2.445,2.121,3.213,3.522.878,1.583.427,3.609.665,5.429s1.963,3.83,3.617,3.023l7.914-.34a3.846,3.846,0,0,0,3.442-2.952,4.44,4.44,0,0,0-1.717-4.345Z" transform="translate(-67.338 -361.96)" fill="#fff"/>
      </g>
      <path id="Path_2735" data-name="Path 2735" d="M97.019,429.953a5.1,5.1,0,0,1-1.939-2.034c-.348-1.013.791-2.683.277-4.463-.625-2.3-3.522-5.373-4.273-7.629-1.013-3.07.839-6.489-.791-9.18-.491-.791-1.583-3.015-2.105-3.775-2.026-2.928-.459-6.529-2.572-9.386-1.472-2-5.112-3.284-6.331-5.484-1.013-1.828-.6-4.147-.649-6.291a13.026,13.026,0,0,0-3.514-8.626,23.513,23.513,0,0,1-3.11-3.165c-1.29-1.971-1.583-4.883-3.435-6.109.791,2.184-.356,4.59-.229,6.932.15,2.825,2.129,5.2,2.469,8a22.04,22.04,0,0,1-.506,5.429c-.229,1.8-.119,3.886,1.037,5.191a15.73,15.73,0,0,1,1.583,1.583c1.345,1.876.087,4.7.673,7.027s2.889,3.712,3.514,6.03c.594,2.184.166,5.832.878,7.961.673,1.994,2.96,2.255,3.838,4.139,1.124,2.414.356,6.521,1.686,8.8.744,1.258,2.034,1.076,2.7,2.374.791,1.519,1.155,5.152,1.4,6.869a4.566,4.566,0,0,0,2.612,3.727l8.808-.419C101.308,434.274,99.48,431.354,97.019,429.953Z" transform="translate(-67.475 -310.812)" fill="#8880f7"/>
      <path id="Path_2736" data-name="Path 2736" d="M73.81,378.26s0,.04.1.142l.253.443c.222.4.546.981.894,1.765a9.932,9.932,0,0,1,.863,2.983,15.954,15.954,0,0,1-.427,4.123,6.331,6.331,0,0,0,0,2.374,7.122,7.122,0,0,0,.981,2.374c.942,1.519,2.327,2.873,3.537,4.519a8.626,8.626,0,0,1,1.44,2.8,5.958,5.958,0,0,1,.206,1.638,12.416,12.416,0,0,0-.055,1.583,5.183,5.183,0,0,0,1.512,2.817,11.99,11.99,0,0,1,1.1,1.345,6.782,6.782,0,0,1,.791,1.583,13.874,13.874,0,0,1,.665,3.435,25.646,25.646,0,0,0,.443,3.308,7.953,7.953,0,0,0,1.337,2.92,14.143,14.143,0,0,1,1.583,2.691,9.323,9.323,0,0,1,.5,2.952,11.079,11.079,0,0,0,.38,2.722c.554,1.678,1.8,2.9,2.517,4.281a13.311,13.311,0,0,1,1.171,3.957,14.071,14.071,0,0,0,.791,3,4.368,4.368,0,0,0,1.1,1.583,5.489,5.489,0,0,1,.538.427,3.6,3.6,0,0,1-.578-.372,4.25,4.25,0,0,1-1.187-1.583,14.2,14.2,0,0,1-.823-3.039,13.192,13.192,0,0,0-1.195-3.9c-.7-1.329-1.978-2.54-2.58-4.313s-.182-3.791-.9-5.642a14.046,14.046,0,0,0-1.583-2.619,8.333,8.333,0,0,1-1.353-2.991c-.514-2.176-.324-4.527-1.1-6.695a6.41,6.41,0,0,0-.791-1.5c-.324-.459-.7-.886-1.076-1.322a5.445,5.445,0,0,1-1.583-3.015,14.025,14.025,0,0,1,.055-1.654,5.6,5.6,0,0,0-.182-1.583,8.475,8.475,0,0,0-1.385-2.7c-1.179-1.583-2.564-2.991-3.522-4.55a7.321,7.321,0,0,1-1-2.445,6.64,6.64,0,0,1,0-2.437,15.724,15.724,0,0,0,.483-4.068,10.106,10.106,0,0,0-.791-2.976c-.332-.791-.633-1.377-.791-1.789-.087-.182-.166-.332-.222-.459a.9.9,0,0,1-.119-.119Z" transform="translate(-68.617 -313.827)" fill="#263238"/>
      <rect id="Rectangle_549" data-name="Rectangle 549" width="52.8" height="9.362" transform="translate(5.929 110.784)" fill="#455a64"/>
      <path id="Path_2737" data-name="Path 2737" d="M79.72,446.31l6.418,27.967h31.473l7.027-27.967Z" transform="translate(-69.85 -328.024)" fill="#455a64"/>
      <path id="Path_2738" data-name="Path 2738" d="M127.4,448.622c0,.1-11.871.19-26.6.19s-26.6-.087-26.6-.19,11.871-.182,26.6-.182S127.4,448.519,127.4,448.622Z" transform="translate(-68.699 -328.468)" fill="#263238"/>
    </g>
    <g id="freepik--Character--inject-13" transform="translate(142.281 120.681)">
      <path id="Path_2739" data-name="Path 2739" d="M425.59,378.47s-17.869,8.151-35.248,8.151c-16.089,0-34.092-8.1-34.092-8.1Z" transform="translate(-212.956 -191.74)" fill="#e0e0e0"/>
      <rect id="Rectangle_550" data-name="Rectangle 550" width="6.893" height="72.189" transform="translate(182.459 259.694) rotate(180)" fill="#e0e0e0"/>
      <rect id="Rectangle_551" data-name="Rectangle 551" width="61.173" height="4.234" transform="translate(209.286 260.937) rotate(180)" fill="#e0e0e0"/>
      <path id="Path_2740" data-name="Path 2740" d="M430.58,473.311a4.669,4.669,0,1,0,4.669-4.661,4.669,4.669,0,0,0-4.669,4.661Z" transform="translate(-228.464 -210.554)" fill="#263238"/>
      <path id="Path_2741" data-name="Path 2741" d="M396.23,473.311a4.669,4.669,0,1,0,4.669-4.661,4.669,4.669,0,0,0-4.669,4.661Z" transform="translate(-221.297 -210.554)" fill="#263238"/>
      <path id="Path_2742" data-name="Path 2742" d="M356.45,473.311a4.669,4.669,0,1,0,4.669-4.661,4.669,4.669,0,0,0-4.669,4.661Z" transform="translate(-212.998 -210.554)" fill="#263238"/>
      <rect id="Rectangle_552" data-name="Rectangle 552" width="9.378" height="3.878" transform="translate(186.771 217.364) rotate(180)" fill="#e0e0e0"/>
      <rect id="Rectangle_553" data-name="Rectangle 553" width="3.411" height="9.314" transform="translate(188.473 220.078) rotate(180)" fill="#e0e0e0"/>
      <path id="Path_2743" data-name="Path 2743" d="M351,375.737h78.053a5.184,5.184,0,0,0,5.183-5.183h0a5.183,5.183,0,0,0-5.183-5.183H351a5.183,5.183,0,0,0-5.183,5.183h0A5.183,5.183,0,0,0,351,375.737Z" transform="translate(-210.78 -189.007)" fill="#455a64"/>
      <path id="Path_2744" data-name="Path 2744" d="M429.52,192.81s6.283-2.453,6.022-7.811-7.478-10.66-7.051-18.7c.4-7.55-10.407-29.969-25.846-22.158a21.232,21.232,0,0,0-7.755.427c-4.978,1.424-6.529,6.189-9.5,10.905-4.535,7.281-7.629,13.018-5.437,18.091s3.11,6.56,1.409,10.889c-2.216,5.65-4.487,4.012-3.743,8.95l13.453.214,1.274-3.292.142,3.561,7.914-.1Z" transform="translate(-217.385 -142.512)" fill="#263238"/>
      <path id="Path_2745" data-name="Path 2745" d="M393.184,154.58c.166,2.081-1.195,3.957-2.572,5.54s-2.9,3.165-3.165,5.263c-.507,3.656,3.086,7.035,2.374,10.66-.38,1.939-1.963,3.506-2.24,5.468s.791,3.743,2.034,5.183,2.8,2.627,3.957,4.186c0,0,2.335,3.791,9.5,1.322" transform="translate(-219.455 -145.03)" fill="#263238"/>
      <path id="Path_2746" data-name="Path 2746" d="M399.99,151.236,417.741,155a3.308,3.308,0,0,1,3.094,3.245l-.214,38.421a11.95,11.95,0,0,1-2.5,7.249l-1.694,2.184a8.767,8.767,0,0,1-14.632-1.092,3.958,3.958,0,0,1-.4-1.005,7.209,7.209,0,0,1-.166-.871l-.34-3.743c-.174-3.419-.2-6.9-.2-6.869s-7.265-.918-9.132-10.288c-.926-4.653-.981-12.345-.831-18.637C390.858,157.931,394.332,150.856,399.99,151.236Z" transform="translate(-220.135 -144.329)" fill="#ffbe9d"/>
      <path id="Path_2747" data-name="Path 2747" d="M394.15,175.689a1.219,1.219,0,0,0,1.211,1.179,1.163,1.163,0,0,0,1.2-1.179,1.219,1.219,0,0,0-1.211-1.179,1.163,1.163,0,0,0-1.2,1.179Z" transform="translate(-220.863 -149.188)" fill="#263238"/>
      <path id="Path_2748" data-name="Path 2748" d="M393,171.47c.158.15,1.045-.562,2.374-.609s2.279.57,2.414.4-.095-.356-.522-.641a3.348,3.348,0,0,0-1.939-.514,3.118,3.118,0,0,0-1.86.681C393.077,171.114,392.95,171.4,393,171.47Z" transform="translate(-220.621 -148.269)" fill="#263238"/>
      <path id="Path_2749" data-name="Path 2749" d="M408.87,175.3a1.219,1.219,0,0,0,1.211,1.179,1.163,1.163,0,0,0,1.211-1.14,1.211,1.211,0,0,0-1.219-1.171,1.155,1.155,0,0,0-1.2,1.132Z" transform="translate(-223.935 -149.117)" fill="#263238"/>
      <path id="Path_2750" data-name="Path 2750" d="M408.634,171.07c.15.15,1.045-.562,2.374-.609s2.279.57,2.374.4-.095-.356-.522-.641a3.308,3.308,0,0,0-1.939-.514,3.118,3.118,0,0,0-1.86.681C408.682,170.73,408.555,171,408.634,171.07Z" transform="translate(-223.881 -148.185)" fill="#263238"/>
      <path id="Path_2751" data-name="Path 2751" d="M402.831,181.06a8.966,8.966,0,0,0-2.129-.3c-.332,0-.649-.071-.712-.293a1.741,1.741,0,0,1,.182-1c.285-.791.578-1.67.886-2.564a44.94,44.94,0,0,0,1.947-6.7,44.543,44.543,0,0,0-2.485,6.521l-.839,2.58a1.97,1.97,0,0,0-.127,1.314.863.863,0,0,0,.57.459,2.137,2.137,0,0,0,.562.055,8.031,8.031,0,0,0,2.145-.079Z" transform="translate(-221.979 -148.291)" fill="#263238"/>
      <path id="Path_2752" data-name="Path 2752" d="M403.33,202.384a23.923,23.923,0,0,0,12.48-3.854s-2.912,6.648-12.377,6.133Z" transform="translate(-222.779 -154.199)" fill="#eb996e"/>
      <path id="Path_2753" data-name="Path 2753" d="M404.53,187.6a2.374,2.374,0,0,1,2.065-.95,2.145,2.145,0,0,1,1.5.736,1.353,1.353,0,0,1,.166,1.543,1.583,1.583,0,0,1-1.686.5,4.835,4.835,0,0,1-1.7-.918,1.583,1.583,0,0,1-.388-.372.427.427,0,0,1,0-.483" transform="translate(-223.005 -151.719)" fill="#eb996e"/>
      <path id="Path_2754" data-name="Path 2754" d="M407.532,184.87c-.214,0-.166,1.409-1.329,2.453s-2.675.958-2.683,1.147.348.269.981.261a3.545,3.545,0,0,0,2.24-.886,3.094,3.094,0,0,0,1.029-2.05C407.793,185.2,407.627,184.862,407.532,184.87Z" transform="translate(-222.818 -151.349)" fill="#263238"/>
      <path id="Path_2755" data-name="Path 2755" d="M408.728,166.27c.142.348,1.432.135,2.968.253s2.778.5,2.968.174c.087-.158-.142-.483-.649-.791a4.994,4.994,0,0,0-2.232-.681,4.875,4.875,0,0,0-2.295.364C408.941,165.835,408.664,166.1,408.728,166.27Z" transform="translate(-223.903 -147.247)" fill="#263238"/>
      <path id="Path_2756" data-name="Path 2756" d="M393.229,164.249c.237.285,1.124-.055,2.2-.111s1.994.119,2.192-.2c.087-.15-.071-.443-.475-.712a3.166,3.166,0,0,0-3.545.253C393.229,163.8,393.118,164.106,393.229,164.249Z" transform="translate(-220.663 -146.745)" fill="#263238"/>
      <path id="Path_2757" data-name="Path 2757" d="M427.807,153.2c-1.314-3.87-6.616-8.112-11.609-10.019a9.5,9.5,0,0,0-8.586,1.005l-6.331,4.194a8.784,8.784,0,0,0,6.094,6.592c1.583.459,3.553.554,4.535,1.923s.475,3.458,1.417,4.9c1.3,1.994,4.748,1.828,5.73,3.957.435.95.237,2.089.688,3.031.594,1.25,3.822,2.786,5.136,2.374s1.266-2.7,1.678-3.886a6.252,6.252,0,0,0,.111-4.178C426.026,160.419,428.685,155.758,427.807,153.2Z" transform="translate(-222.351 -142.528)" fill="#263238"/>
      <path id="Path_2758" data-name="Path 2758" d="M426.19,179.459c0-.7.72-2.374,1.409-2.524,1.844-.356,5.183-.34,5.4,4.36.293,6.418-6.22,5.389-6.236,5.207S426.277,181.88,426.19,179.459Z" transform="translate(-227.548 -149.666)" fill="#ffbe9d"/>
      <path id="Path_2759" data-name="Path 2759" d="M429.248,184.53a1.992,1.992,0,0,0,.309.15,1.1,1.1,0,0,0,.839,0,2.758,2.758,0,0,0,1.163-2.54,3.624,3.624,0,0,0-.388-1.583,1.29,1.29,0,0,0-.878-.791.57.57,0,0,0-.649.34c-.071.182,0,.309-.063.317s-.142-.095-.1-.364a.744.744,0,0,1,.237-.419.871.871,0,0,1,.609-.19,1.583,1.583,0,0,1,1.211.942,3.783,3.783,0,0,1,.475,1.773,2.935,2.935,0,0,1-1.512,2.849,1.211,1.211,0,0,1-1.029-.127C429.264,184.688,429.225,184.546,429.248,184.53Z" transform="translate(-228.185 -150.218)" fill="#eb996e"/>
      <path id="Path_2760" data-name="Path 2760" d="M364.173,241.39l-11.356,29.621-21.367,1.361-3.3,9.283,28.2,5.468s8.484,2.469,13.319-8.3l8.27-29.463Z" transform="translate(-207.094 -163.141)" fill="#ffbe9d"/>
      <path id="Path_2761" data-name="Path 2761" d="M305.659,282.952a1.416,1.416,0,0,0,1.361.791,1.433,1.433,0,0,0,.348-.071c.791-.261.736-1.907.736-1.907l3.87-.633s5.033,3.245,6.83,5.4,6.331.412,6.331.412l1.583-8.254-7.122-6.442s.443.38-.055-.791-2.73-.752-2.73-.752c-.348-.594-1.812-.791-1.812-.791l-6.244.72a4.273,4.273,0,0,0-3.165,1.97l-2.643,4.178s-1.4,3.015-1.171,3.719a1.258,1.258,0,0,0,1.456.791s.309,1.978.791,2.05a4.415,4.415,0,0,0,1.583-.372Z" transform="translate(-201.586 -169.091)" fill="#ffbe9d"/>
      <path id="Path_2762" data-name="Path 2762" d="M317.41,285.133a2.375,2.375,0,0,1-.372-.285l-1.045-.839a44.206,44.206,0,0,0-4.107-2.833h.087l-3.87.657.135-.166a4.3,4.3,0,0,1-.071.95,1.733,1.733,0,0,1-.443.926.957.957,0,0,1-.514.237,1.226,1.226,0,0,1-.538,0,1.582,1.582,0,0,1-.966-.53,1.533,1.533,0,0,1-.166-.229l-.04-.063h0c-.047,0,.427.158.229.079h0l-.127.047c-.158.063-.324.127-.5.182a4.749,4.749,0,0,1-.53.127,1.581,1.581,0,0,1-.285,0,.641.641,0,0,1-.356-.063,1.116,1.116,0,0,1-.38-.514,4.8,4.8,0,0,1-.2-.53,10.074,10.074,0,0,1-.245-1.1l.229.158a1.48,1.48,0,0,1-1.448-.491,1.2,1.2,0,0,1-.261-.791,3.166,3.166,0,0,1,.135-.744,20.988,20.988,0,0,1,1.068-2.786h0c.443-.712.926-1.464,1.409-2.232.3-.475.594-.95.894-1.417a7.916,7.916,0,0,1,.973-1.369,4.3,4.3,0,0,1,1.409-.934,5.491,5.491,0,0,1,1.583-.332l5.9-.657h.047a5.621,5.621,0,0,1,1.029.269,1.757,1.757,0,0,1,.9.633l-.222-.071a2.168,2.168,0,0,1,2.01.111,2.54,2.54,0,0,1,1,1.583l-.047-.079,4.906,4.416,1.322,1.219a3.5,3.5,0,0,1,.443.443,2.985,2.985,0,0,1-.5-.38l-1.377-1.155-5.009-4.289h0v-.047a2.231,2.231,0,0,0-.878-1.377,1.82,1.82,0,0,0-1.694-.071l-.135.055-.079-.127a1.5,1.5,0,0,0-.728-.475,5.387,5.387,0,0,0-.966-.245h.047l-5.888.7a5.184,5.184,0,0,0-1.5.309,3.869,3.869,0,0,0-1.266.847,7.837,7.837,0,0,0-.926,1.306l-.894,1.417-1.409,2.232h0a21.363,21.363,0,0,0-1.045,2.722,2.915,2.915,0,0,0-.127.657.792.792,0,0,0,.182.53,1.092,1.092,0,0,0,1.06.356h.19v.19a8.7,8.7,0,0,0,.237,1.045,1.765,1.765,0,0,0,.4.839.316.316,0,0,0,.158,0h.237a3.583,3.583,0,0,0,.483-.119l.475-.166.119-.04h0l.23.087h0v.055a.979.979,0,0,0,.135.182,1.227,1.227,0,0,0,.744.419,1.116,1.116,0,0,0,.427,0,.61.61,0,0,0,.348-.15,2.374,2.374,0,0,0,.427-1.583v-.142h.135l3.878-.6h.087a37.292,37.292,0,0,1,4.06,2.944c.451.38.791.681,1.005.894a2.327,2.327,0,0,1,.372.206Z" transform="translate(-201.561 -169.024)" fill="#eb996e"/>
      <path id="Path_2763" data-name="Path 2763" d="M316.217,273.657a7.794,7.794,0,0,1-2,.594,19.973,19.973,0,0,1-5.16.372l.206-.135c-.1.309-.214.633-.348.95a15.464,15.464,0,0,1-3.165,4.922,13.019,13.019,0,0,1-1.314,1.187c-.34.253-.53.38-.554.356s.681-.633,1.654-1.741a17.315,17.315,0,0,0,3.007-4.875c.127-.317.237-.633.34-.926l.055-.15h.15a23.9,23.9,0,0,0,5.089-.237C315.442,273.791,316.2,273.594,316.217,273.657Z" transform="translate(-202.03 -169.87)" fill="#eb996e"/>
      <path id="Path_2764" data-name="Path 2764" d="M310.856,278.26a7.977,7.977,0,0,1-1.583,3.506,7.669,7.669,0,0,1-2.754,2.659c-.079-.095,1.235-1.187,2.422-2.9S310.721,278.22,310.856,278.26Z" transform="translate(-202.58 -170.833)" fill="#eb996e"/>
      <path id="Path_2765" data-name="Path 2765" d="M328.227,285.926a1.244,1.244,0,0,1-.2.111,3.96,3.96,0,0,1-.617.237,6.646,6.646,0,0,1-2.461.285,6.806,6.806,0,0,1-3.545-1.282,7.122,7.122,0,0,1-2.675-3.957l.229.15a16.326,16.326,0,0,1-4.519.214,16.005,16.005,0,0,1-1.67-.253,5.192,5.192,0,0,1-1.583-.522,1.314,1.314,0,0,1-.6-.681,1.171,1.171,0,0,1,.1-.91,1.187,1.187,0,0,1,.7-.546l.72-.174c1.9-.459,3.632-.791,5.089-1.021s2.643-.364,3.466-.435a7.781,7.781,0,0,1,1.282-.063,7.319,7.319,0,0,1-1.258.222c-.791.119-1.994.3-3.442.562s-3.165.625-5.041,1.1l-.712.19a.7.7,0,0,0-.459.364.728.728,0,0,0-.071.586.87.87,0,0,0,.435.459,4.821,4.821,0,0,0,1.464.467,15.534,15.534,0,0,0,1.63.245,16.169,16.169,0,0,0,4.408-.2h.182l.047.182a6.743,6.743,0,0,0,5.856,5.065,7.311,7.311,0,0,0,2.374-.166A7.985,7.985,0,0,1,328.227,285.926Z" transform="translate(-203.42 -170.586)" fill="#eb996e"/>
      <path id="Path_2766" data-name="Path 2766" d="M322.8,421.118a1.582,1.582,0,0,1,0-.7,4.59,4.59,0,0,1,.712-1.8,2.723,2.723,0,0,1,.427-.514.791.791,0,0,1,.791-.182.586.586,0,0,1,.356.356.792.792,0,0,1,0,.483,6.111,6.111,0,0,1-.372.72c-.277.467-.507.934-.863,1.456a1.029,1.029,0,0,1-.95.427,2.065,2.065,0,0,1-.918-.4,7.845,7.845,0,0,1-1.353-1.242c-.19-.23-.364-.459-.53-.7a2.185,2.185,0,0,1-.4-.791.791.791,0,0,1,.4-.87.91.91,0,0,1,.855.2,5.492,5.492,0,0,1,.9,1.021,6.608,6.608,0,0,1,.878,1.709,1.749,1.749,0,0,1,.158.689,13.357,13.357,0,0,0-1.282-2.224,5.469,5.469,0,0,0-.863-.91.578.578,0,0,0-.506-.134.372.372,0,0,0-.166.443,1.843,1.843,0,0,0,.348.641,8.043,8.043,0,0,0,.514.649,7.575,7.575,0,0,0,1.282,1.171,1.52,1.52,0,0,0,.72.332.6.6,0,0,0,.578-.261c.293-.427.578-.958.847-1.4a4.152,4.152,0,0,0,.356-.641.3.3,0,0,0-.111-.4c-.317-.127-.633.237-.855.546a6.939,6.939,0,0,0-.966,2.335Z" transform="translate(-205.328 -199.844)" fill="#263238"/>
      <path id="Path_2767" data-name="Path 2767" d="M346.8,419.893l9.109,19.737,14.7-6.79-9.425-24.43Z" transform="translate(-210.985 -197.986)" fill="#ffbe9d"/>
      <path id="Path_2768" data-name="Path 2768" d="M354.257,444l5.318,10.137s-13.619,14.086-12.337,17.236l32.019-15.353-8.8-20.346Z" transform="translate(-211.058 -203.673)" fill="#455a64"/>
      <path id="Path_2769" data-name="Path 2769" d="M374.222,451.241a1.448,1.448,0,0,1,1.583,1.06,1.393,1.393,0,0,1-1.037,1.583,1.527,1.527,0,0,1-1.709-1.132,1.456,1.456,0,0,1,1.266-1.583" transform="translate(-216.462 -206.907)" fill="#e0e0e0"/>
      <g id="Group_412" data-name="Group 412" transform="translate(135.982 249.794)" opacity="0.6">
        <path id="Path_2770" data-name="Path 2770" d="M379.227,460.716l-1.361-2.556-30.175,15.7s-1.124,1.306-.483,2.232Z" transform="translate(-347.01 -458.16)" fill="#fff"/>
      </g>
      <path id="Path_2771" data-name="Path 2771" d="M362.1,458.956c.079.158.894-.15,1.907,0s1.733.594,1.852.467-.554-.926-1.781-1.068A2.08,2.08,0,0,0,362.1,458.956Z" transform="translate(-214.176 -208.402)" fill="#263238"/>
      <path id="Path_2772" data-name="Path 2772" d="M358.7,462.837c0,.166.839.111,1.686.514s1.337,1.037,1.488.958-.166-1.013-1.235-1.5S358.628,462.687,358.7,462.837Z" transform="translate(-213.467 -209.284)" fill="#263238"/>
      <path id="Path_2773" data-name="Path 2773" d="M358.061,468.58c.158,0,0-.926-.791-1.583s-1.709-.649-1.709-.491.665.4,1.322.958S357.9,468.635,358.061,468.58Z" transform="translate(-212.813 -210.088)" fill="#263238"/>
      <path id="Path_2774" data-name="Path 2774" d="M360.164,453.755c.135.111.752-.443,1.662-.791s1.733-.419,1.749-.594-.91-.411-1.978,0S360.03,453.668,360.164,453.755Z" transform="translate(-213.769 -207.11)" fill="#263238"/>
      <path id="Path_2775" data-name="Path 2775" d="M346.01,417.234,322,357.2s.538-10.288,2.422-13.493,59.084-22.119,59.084-22.119,14.569-3.506,24.279,0,19.879,7.035,18.8,13.825c-1.6,9.916-10.193,20.2-10.193,20.2l-42.053,1.25-22.95,8.357,15.432,44.238Z" transform="translate(-205.811 -179.548)" fill="#263238"/>
      <path id="Path_2776" data-name="Path 2776" d="M325.218,389.947l-.538,21.731,16.184.4,2.327-26.084Z" transform="translate(-206.37 -193.309)" fill="#ffbe9d"/>
      <path id="Path_2777" data-name="Path 2777" d="M318.614,415.912l.293,11.459S300.467,434,300.23,437.382l35.5.356,1.092-22.158Z" transform="translate(-201.269 -199.482)" fill="#455a64"/>
      <path id="Path_2778" data-name="Path 2778" d="M337.267,428.647a1.456,1.456,0,0,1,.989,1.67,1.393,1.393,0,0,1-1.638.973,1.527,1.527,0,0,1-1.037-1.773,1.448,1.448,0,0,1,1.82-.839" transform="translate(-208.637 -202.198)" fill="#e0e0e0"/>
      <g id="Group_413" data-name="Group 413" transform="translate(98.941 235.376)" opacity="0.6">
        <path id="Path_2779" data-name="Path 2779" d="M335.726,442.813l-.063-2.873-34.029.728s-1.583.673-1.417,1.789Z" transform="translate(-300.205 -439.94)" fill="#fff"/>
      </g>
      <path id="Path_2780" data-name="Path 2780" d="M323.11,430.185c0,.174.871.261,1.717.791s1.29,1.306,1.456,1.235-.095-1.068-1.132-1.733S323.07,430,323.11,430.185Z" transform="translate(-206.042 -202.493)" fill="#263238"/>
      <path id="Path_2781" data-name="Path 2781" d="M318.38,432.112c-.04.166.7.467,1.29,1.211s.744,1.512.918,1.512.293-.989-.451-1.891S318.388,431.946,318.38,432.112Z" transform="translate(-205.055 -202.917)" fill="#263238"/>
      <path id="Path_2782" data-name="Path 2782" d="M315.3,436.938c.158,0,.411-.791,0-1.773s-1.242-1.345-1.322-1.2.419.657.791,1.448S315.125,436.922,315.3,436.938Z" transform="translate(-204.136 -203.311)" fill="#263238"/>
      <path id="Path_2783" data-name="Path 2783" d="M323.558,424.84c.071.158.863-.079,1.844,0s1.741.4,1.836.245-.641-.791-1.8-.847S323.471,424.658,323.558,424.84Z" transform="translate(-206.135 -201.288)" fill="#263238"/>
      <path id="Path_2784" data-name="Path 2784" d="M333.9,314.705s-9.694-.791-10.771,9.75S321,384.069,321,384.069l22.665,1.883,3.506-50.173L383.3,320.443S340.373,313.36,333.9,314.705Z" transform="translate(-205.602 -178.401)" fill="#263238"/>
      <path id="Path_2785" data-name="Path 2785" d="M386.51,296.81s-5.88,16.5-4.748,18.336,16.255,9.409,16.255,9.409l37.867,14.537a31.719,31.719,0,0,0,3.886-15.685c0-9.5-13.168-26.6-13.168-26.6Z" transform="translate(-218.249 -174.703)" fill="#263238"/>
      <path id="Path_2786" data-name="Path 2786" d="M385.1,320.89l-.182.095-.538.253-2.1.926L374.42,325.6l-27.176,11.7.119-.174c-.34,4.954-.712,10.288-1.1,15.827-.918,12.947-1.765,24.881-2.437,34.33v.166h-.166L327.151,386l-4.542-.419-1.195-.127a3.551,3.551,0,0,1-.4-.055,2.316,2.316,0,0,1,.411,0l1.195.071,4.55.332,16.516,1.306-.182.158c.649-9.449,1.472-21.367,2.374-34.33.388-5.54.791-10.889,1.116-15.827v-.119l.119-.047,27.231-11.562,7.914-3.324,2.129-.871.546-.214a.679.679,0,0,1,.174-.079Z" transform="translate(-205.604 -179.727)" fill="#455a64"/>
      <path id="Path_2787" data-name="Path 2787" d="M432.857,321.841a6,6,0,0,1-1.06-.293l-2.857-.918a61.73,61.73,0,0,0-9.5-2.414,28.032,28.032,0,0,0-9.773.127,38.539,38.539,0,0,0-3.909,1.132,4.552,4.552,0,0,1,.981-.5,17.98,17.98,0,0,1,2.865-.926,26.217,26.217,0,0,1,9.9-.253,52.974,52.974,0,0,1,9.568,2.548c1.195.419,2.153.791,2.817,1.045a4.994,4.994,0,0,1,.965.451Z" transform="translate(-223.286 -179.008)" fill="#455a64"/>
      <path id="Path_2788" data-name="Path 2788" d="M427.676,311.924a26.49,26.49,0,0,0-3.316,0c-1.021.071-2.232.23-3.585.388s-2.825.34-4.36.633a20.314,20.314,0,0,0-7.423,2.746,24.976,24.976,0,0,0-2.572,2.073,3.1,3.1,0,0,1,.554-.712,11.286,11.286,0,0,1,1.852-1.583,19.08,19.08,0,0,1,7.51-2.92c1.583-.293,3.047-.467,4.4-.6s2.572-.261,3.609-.3a14.181,14.181,0,0,1,2.453.111,2.651,2.651,0,0,1,.878.166Z" transform="translate(-223.423 -177.796)" fill="#455a64"/>
      <path id="Path_2789" data-name="Path 2789" d="M370.09,231.523s6.766-11.293,8.65-13.58a15.107,15.107,0,0,1,5.54-4.068,11.459,11.459,0,0,1,2.635-.791l9.742-2.153s0,6.648,6.988,7.059,12.828-9.291,12.828-9.291,11.253,1.741,13.944,3.126,6.924,3.165,9.259,14.8l1.63,11.412-19.4,1.765-1.86,28.838-9.623,6.774s-26.677,6.932-28.379,7.391-2.271-43-2.271-43S372.923,235.409,370.09,231.523Z" transform="translate(-215.844 -156.321)" fill="#8880f7"/>
      <path id="Path_2790" data-name="Path 2790" d="M385.369,231.41a4.643,4.643,0,0,0-.372.831,22.1,22.1,0,0,0-.791,2.374,45.575,45.575,0,0,0-1.986,16.207c.063,1.053.142,1.9.229,2.477a4.449,4.449,0,0,0,.158.894,3.658,3.658,0,0,0,0-.91c-.04-.586-.079-1.424-.1-2.469a53.662,53.662,0,0,1,1.971-16.12c.277-1.005.522-1.812.7-2.374a3.483,3.483,0,0,0,.2-.91Z" transform="translate(-218.358 -161.059)" fill="#263238"/>
      <path id="Path_2791" data-name="Path 2791" d="M436.118,230.54a3.548,3.548,0,0,1,0,.886c0,.649-.055,1.448-.095,2.374-.095,2.113-.23,4.859-.372,7.914s-.3,5.872-.459,7.914c-.071,1.005-.142,1.82-.206,2.374a3.682,3.682,0,0,1-.135.871,3.162,3.162,0,0,1,0-.878c0-.657.047-1.456.079-2.374.087-2.121.206-4.859.332-7.914s.324-5.872.491-7.914c.087-1.013.166-1.828.229-2.374A3.9,3.9,0,0,1,436.118,230.54Z" transform="translate(-229.349 -160.877)" fill="#263238"/>
      <path id="Path_2792" data-name="Path 2792" d="M386.838,281.725l36.538-7.914,1.686-26.115,16.247-1.5s-1.14,17.814-1.227,23.155c-.237,15.4-5.413,18.051-8.048,20.132s-46.833,1.14-46.833,1.14Z" transform="translate(-218.996 -164.145)" fill="#ffbe9d"/>
      <path id="Path_2793" data-name="Path 2793" d="M360.027,293.632a1.417,1.417,0,0,0,1.361.791,1.917,1.917,0,0,0,.356-.079c.791-.253.736-1.9.736-1.9l3.87-.633s5.033,3.245,6.822,5.4,6.331.411,6.331.411l1.583-8.254-7.122-6.442s.435.38-.055-.791-2.73-.752-2.73-.752c-.348-.594-1.812-.791-1.812-.791l-6.252.72a4.281,4.281,0,0,0-3.165,1.963l-2.643,4.186s-1.393,3.015-1.171,3.712a1.25,1.25,0,0,0,1.456.791s.309,1.986.831,2.05a4.186,4.186,0,0,0,1.543-.372Z" transform="translate(-212.927 -171.319)" fill="#ffbe9d"/>
      <path id="Path_2794" data-name="Path 2794" d="M374.711,289.518c0,.071-.839,0-2.176.047a18.921,18.921,0,0,0-5.1.958,17.955,17.955,0,0,0-2.627,1.124c-.752.427-1.543.791-1.789,1.322a.791.791,0,0,0,.071.752,1.045,1.045,0,0,0,.475.4,1.694,1.694,0,0,0,.546.079.658.658,0,0,1-.6.063,1.163,1.163,0,0,1-.6-.411,1.021,1.021,0,0,1-.15-.981,2.034,2.034,0,0,1,.791-.878c.34-.222.7-.451,1.092-.665a16.294,16.294,0,0,1,7.914-2.034A7.337,7.337,0,0,1,374.711,289.518Z" transform="translate(-214.3 -173.133)" fill="#eb996e"/>
      <path id="Path_2795" data-name="Path 2795" d="M375.44,294.551c0,.119-2.548,0-5.674.2s-5.642.562-5.666.443a6.631,6.631,0,0,1,1.63-.4,38.062,38.062,0,0,1,4.012-.451,35.763,35.763,0,0,1,4.036,0,6.267,6.267,0,0,1,1.662.206Z" transform="translate(-214.594 -174.177)" fill="#eb996e"/>
      <path id="Path_2796" data-name="Path 2796" d="M361.081,294.389a2.636,2.636,0,0,1-.079-.665,13.8,13.8,0,0,1,0-1.828,7.024,7.024,0,0,1,.174-1.266,3.806,3.806,0,0,1,.609-1.361,8.531,8.531,0,0,1,2.374-2.374,12.227,12.227,0,0,1,2.991-1.512,10.676,10.676,0,0,1,2.7-.4h1.828a2.177,2.177,0,0,1,.665.071,20.305,20.305,0,0,1-2.477.206,11.742,11.742,0,0,0-2.6.483,12.155,12.155,0,0,0-2.873,1.488,8.507,8.507,0,0,0-2.271,2.279,4.748,4.748,0,0,0-.791,2.445C361.129,293.431,361.168,294.4,361.081,294.389Z" transform="translate(-213.942 -172.235)" fill="#eb996e"/>
      <path id="Path_2797" data-name="Path 2797" d="M369.55,282.521c0,.063-.934.087-2.43.261s-3.743.324-5.049,2.3a21.294,21.294,0,0,0-3.165,4.906,13.091,13.091,0,0,0-.594,2.374,1.916,1.916,0,0,1,0-.665,6.2,6.2,0,0,1,.364-1.773,18.4,18.4,0,0,1,3.1-5.057A6.875,6.875,0,0,1,363,283.645a4.463,4.463,0,0,1,1.472-.7,13.581,13.581,0,0,1,2.651-.419A9.618,9.618,0,0,1,369.55,282.521Z" transform="translate(-213.381 -171.707)" fill="#eb996e"/>
      <path id="Path_2798" data-name="Path 2798" d="M371.846,295.823a2.373,2.373,0,0,1-.372-.285l-1.052-.839a43.146,43.146,0,0,0-4.107-2.833h.095l-3.87.665.135-.166a4.207,4.207,0,0,1-.079.942,1.717,1.717,0,0,1-.435.934.989.989,0,0,1-.514.237,1.4,1.4,0,0,1-.546,0,1.583,1.583,0,0,1-.958-.53,2.486,2.486,0,0,1-.174-.229v-.063h0l.229.079h0l-.127.047c-.166.063-.332.127-.5.174a4.006,4.006,0,0,1-.53.135,1.741,1.741,0,0,1-.285,0,.617.617,0,0,1-.364-.071,1.219,1.219,0,0,1-.38-.507c-.071-.182-.135-.356-.19-.538a9.927,9.927,0,0,1-.245-1.092l.222.158a1.472,1.472,0,0,1-1.44-.491,1.219,1.219,0,0,1-.269-.791,3.827,3.827,0,0,1,.142-.752,19.489,19.489,0,0,1,1.068-2.778h0L358.709,285l.894-1.417a7.638,7.638,0,0,1,.981-1.369,4.218,4.218,0,0,1,1.4-.934,5.6,5.6,0,0,1,1.583-.332l5.888-.665h.047a4.986,4.986,0,0,1,1.037.269,1.725,1.725,0,0,1,.894.625l-.214-.063a2.144,2.144,0,0,1,2.01.111,2.517,2.517,0,0,1,.989,1.583l-.047-.079,4.8,4.455,1.322,1.219a3.568,3.568,0,0,1,.443.443,2.981,2.981,0,0,1-.5-.38l-1.377-1.163c-1.219-1.045-2.912-2.517-4.994-4.313h0v-.055a2.24,2.24,0,0,0-.878-1.369,1.844,1.844,0,0,0-1.694-.079l-.135.063-.079-.127a1.488,1.488,0,0,0-.728-.475,5.755,5.755,0,0,0-.965-.245h.047l-5.9.7a4.882,4.882,0,0,0-1.488.309,3.751,3.751,0,0,0-1.266.847,6.758,6.758,0,0,0-.926,1.306c-.3.467-.594.942-.894,1.417-.483.791-.966,1.519-1.409,2.232h0a21.3,21.3,0,0,0-1.052,2.714,3.62,3.62,0,0,0-.127.665.791.791,0,0,0,.19.53,1.076,1.076,0,0,0,1.052.356h.2v.19a9.495,9.495,0,0,0,.23,1.045,2.025,2.025,0,0,0,.4.839.546.546,0,0,0,.158,0h.237a1.849,1.849,0,0,0,.491-.119l.475-.166.111-.047h0c-.2-.079.285.1.237.079h0v.047a1.484,1.484,0,0,0,.127.182,1.274,1.274,0,0,0,.752.427,1.084,1.084,0,0,0,.419,0,.673.673,0,0,0,.356-.15,2.438,2.438,0,0,0,.427-1.583v-.142h.127l3.878-.6h.087a36.764,36.764,0,0,1,4.068,2.944c.451.38.791.681,1.005.894A2.326,2.326,0,0,1,371.846,295.823Z" transform="translate(-212.923 -171.255)" fill="#eb996e"/>
      <path id="Path_2799" data-name="Path 2799" d="M418.061,314.15H411.92V315.5l13.453,131.233h7.178Z" transform="translate(-224.571 -178.321)" fill="#455a64"/>
      <path id="Path_2800" data-name="Path 2800" d="M418.042,314.15a5.55,5.55,0,0,0,.063.689c.063.451.119,1.132.206,2.01.182,1.765.459,4.353.791,7.684.712,6.671,1.749,16.326,3.031,28.292,2.588,23.9,6.173,57.026,10.177,93.936l.206-.229h-7.178l.206.182c-6.331-61.766-11.752-114.029-13.6-131.209h0V314.15l-.055.055h4.669l-4.669-.04h-.063v1.417h0c1.678,17.2,6.98,69.474,13.311,131.241v.19h7.589v-.229c-4.068-36.957-7.716-70.123-10.351-94.062-1.337-11.934-2.374-21.565-3.165-28.228-.372-3.316-.665-5.88-.863-7.637-.1-.863-.182-1.519-.229-1.978S418.042,314.15,418.042,314.15Z" transform="translate(-224.552 -178.321)" fill="#263238"/>
      <path id="Path_2801" data-name="Path 2801" d="M280.829,314.15H274.68v1.385L287.492,446.7H293.8Z" transform="translate(-195.939 -178.321)" fill="#263238"/>
      <path id="Path_2802" data-name="Path 2802" d="M394.35,314.4l-219.091.237-.079-5.785H394.35Z" transform="translate(-175.18 -177.215)" fill="#455a64"/>
      <path id="Path_2803" data-name="Path 2803" d="M210.8,314.15h6.149v1.385l-12.8,131.17H197.83Z" transform="translate(-179.905 -178.321)" fill="#455a64"/>
      <path id="Path_2804" data-name="Path 2804" d="M210.455,316.32s0,.229-.047.681-.1,1.108-.182,1.97c-.166,1.741-.4,4.289-.72,7.573-.625,6.576-1.543,16.1-2.675,27.888-2.287,23.559-5.453,56.187-8.982,92.59l-.174-.19h6.331l-.174.15c5.983-60.73,11.079-112.177,12.741-129.263h0v-1.393l.047.047h.047v1.44h0c-1.654,17.094-6.624,68.549-12.5,129.294v.15H197.5v-.19c3.585-36.4,6.806-69.087,9.132-92.677,1.171-11.768,2.121-21.272,2.778-27.832.332-3.268.586-5.809.791-7.534.087-.855.158-1.5.206-1.947Z" transform="translate(-179.837 -178.774)" fill="#263238"/>
      <path id="Path_2805" data-name="Path 2805" d="M324.789,314.78H318.64v1.393l12.812,130.663h6.315Z" transform="translate(-205.11 -178.452)" fill="#455a64"/>
      <path id="Path_2806" data-name="Path 2806" d="M325.129,317a6.083,6.083,0,0,0,.055.673c.055.443.1,1.108.182,1.971.166,1.725.4,4.266.712,7.542.633,6.553,1.583,16.033,2.675,27.777,2.287,23.472,5.46,56,8.99,92.226l.174-.19h-6.331l.166.15c-5.983-60.5-11.079-111.75-12.733-128.772h0V317h-.079v1.44h0c1.63,16.935,6.616,68.2,12.488,128.709v.15h6.655v-.19c-3.585-36.261-6.806-68.849-9.132-92.321-1.179-11.728-2.121-21.193-2.778-27.7-.332-3.26-.586-5.785-.791-7.5-.095-.855-.158-1.5-.206-1.947S325.129,317,325.129,317Z" transform="translate(-205.173 -178.915)" fill="#263238"/>
      <path id="Path_2807" data-name="Path 2807" d="M399.083,315.858c0-.111-44.174-.2-98.652-.2s-98.66.087-98.66.2,44.166.2,98.66.2S399.083,315.969,399.083,315.858Z" transform="translate(-180.727 -178.636)" fill="#263238"/>
      <path id="Path_2808" data-name="Path 2808" d="M276.847,257.51l48.123.388c1.583,0,3.055.752,3.292,2.295l5.255,35.074H358.3a1.448,1.448,0,1,1,0,2.9H279.166l-5.405-37.02a3.166,3.166,0,0,1,3.086-3.632Z" transform="translate(-195.74 -166.504)" fill="#e0e0e0"/>
      <path id="Path_2809" data-name="Path 2809" d="M276.82,257.508a2.626,2.626,0,0,0-.791.071,3.179,3.179,0,0,0-2.43,2.754,8.778,8.778,0,0,0,.174,1.978c.206,1.417.435,3.055.7,4.883l4.463,30.982v.127h.127l76.81.047h2.065a2.026,2.026,0,0,0,1.092-.206,1.67,1.67,0,0,0,.744-.87,1.638,1.638,0,0,0-.752-1.994,1.915,1.915,0,0,0-1.084-.206H333.4l.19.158c-1.9-12.559-3.664-24.279-5.247-34.82a2.7,2.7,0,0,0-.894-1.836,3.546,3.546,0,0,0-1.836-.791,14.647,14.647,0,0,0-1.939-.063h-1.891l-7.249-.047-12.876-.079-18.249-.1h-4.907l4.907.071,18.328.206,12.876.127,7.249.063h1.891a14.954,14.954,0,0,1,1.891.063,3.339,3.339,0,0,1,1.678.744,2.374,2.374,0,0,1,.791,1.646l5.191,34.82v.158h24.651a1.662,1.662,0,0,1,.9.15,1.25,1.25,0,0,1,0,2.192,1.654,1.654,0,0,1-.9.158h-2.065l-76.81.047.15.127c-1.931-13.026-3.5-23.615-4.59-30.966l-.736-4.875a9.33,9.33,0,0,1-.2-1.947,3.165,3.165,0,0,1,2.374-2.73A6.285,6.285,0,0,1,276.82,257.508Z" transform="translate(-195.713 -166.502)" fill="#263238"/>
      <path id="Path_2810" data-name="Path 2810" d="M312.87,281.835a3.015,3.015,0,1,1-3.007-3.015,3.015,3.015,0,0,1,3.007,3.015Z" transform="translate(-202.648 -170.95)" fill="#fff"/>
      <path id="Path_2811" data-name="Path 2811" d="M345.081,297.94c-.071,0-1.583-8.927-3.427-19.95s-3.237-19.974-3.165-19.99,1.583,8.919,3.427,19.95S345.145,297.925,345.081,297.94Z" transform="translate(-209.251 -166.606)" fill="#263238"/>
    </g>
  </g>
</svg>
