<svg xmlns="http://www.w3.org/2000/svg" viewBox="0 0 359.472 373.755">
  <g id="Group_388" data-name="Group 388" transform="translate(-251.797 -43.388)">
    <g id="Group_349" data-name="Group 349" transform="translate(347.632 90.572)">
      <g id="Group_345" data-name="Group 345">
        <path id="Path_1793" data-name="Path 1793" d="M367,185.918l17.417-10.055L367,165.807l-17.417,10.056h0l-17.417,10.055,17.417,10.056h0L367,206.029l17.417-10.055L367,185.918Z" transform="translate(-332.169 -67.02)" fill="#d4ecff"/>
        <path id="Path_1794" data-name="Path 1794" d="M361.382,175.187v-73.74L378.8,91.392v73.741Z" transform="translate(-326.549 -81.337)" fill="#173d7a"/>
        <path id="Path_1795" data-name="Path 1795" d="M364.192,101.448,346.775,91.392v73.741l17.417,10.055Z" transform="translate(-329.359 -81.337)" fill="#396caa"/>
        <path id="Path_1796" data-name="Path 1796" d="M381.609,93.014,364.192,82.959,346.775,93.014l17.417,10.056Z" transform="translate(-329.359 -82.959)" fill="#d4ecff"/>
      </g>
      <g id="Group_346" data-name="Group 346" transform="translate(34.833 87.147)">
        <path id="Path_1797" data-name="Path 1797" d="M378.8,166.1l-17.417-10.055v6.7L378.8,172.8Z" transform="translate(-361.382 -156.045)" fill="#95d359"/>
      </g>
      <g id="Group_347" data-name="Group 347" transform="translate(0 30.166)">
        <path id="Path_1798" data-name="Path 1798" d="M346.775,180.375V126.746l17.417-10.055V170.32Z" transform="translate(-329.359 -106.635)" fill="#c13d1a"/>
        <path id="Path_1799" data-name="Path 1799" d="M349.586,126.746l-17.417-10.055V170.32l17.417,10.055Z" transform="translate(-332.169 -106.635)" fill="#db5126"/>
        <path id="Path_1800" data-name="Path 1800" d="M367,118.314l-17.417-10.056-17.417,10.056,17.417,10.055Z" transform="translate(-332.169 -108.258)" fill="#ef602e"/>
        <path id="Path_1801" data-name="Path 1801" d="M346.775,180.375V126.746l17.417-10.055V170.32Z" transform="translate(-329.359 -106.635)" fill="#396caa"/>
        <path id="Path_1802" data-name="Path 1802" d="M349.586,126.746l-17.417-10.055V170.32l17.417,10.055Z" transform="translate(-332.169 -106.635)" fill="#5793ce"/>
        <path id="Path_1803" data-name="Path 1803" d="M367,118.314l-17.417-10.056-17.417,10.056,17.417,10.055Z" transform="translate(-332.169 -108.258)" fill="#d4ecff"/>
      </g>
      <g id="Group_348" data-name="Group 348" transform="translate(17.417 63.685)">
        <path id="Path_1804" data-name="Path 1804" d="M361.382,185.023V154.857L378.8,144.8v30.166Z" transform="translate(-343.965 -134.746)" fill="#173d7a"/>
        <path id="Path_1805" data-name="Path 1805" d="M364.192,154.857,346.775,144.8v30.166l17.417,10.056Z" transform="translate(-346.775 -134.746)" fill="#396caa"/>
        <path id="Path_1806" data-name="Path 1806" d="M381.609,146.423l-17.417-10.055-17.417,10.055,17.417,10.056Z" transform="translate(-346.775 -136.368)" fill="#d4ecff"/>
      </g>
    </g>
    <g id="Group_350" data-name="Group 350" transform="translate(595.601 241.691)">
      <rect id="Rectangle_481" data-name="Rectangle 481" width="2.087" height="6.062" transform="translate(14.858 0) rotate(75.655)" fill="#5793ce"/>
      <rect id="Rectangle_482" data-name="Rectangle 482" width="2.087" height="6.062" transform="translate(11.862 2.92) rotate(75.622)" fill="#5793ce"/>
      <rect id="Rectangle_483" data-name="Rectangle 483" width="2.087" height="6.061" transform="translate(8.866 5.842) rotate(75.622)" fill="#5793ce"/>
      <rect id="Rectangle_484" data-name="Rectangle 484" width="2.087" height="6.061" transform="translate(5.871 8.764) rotate(75.622)" fill="#5793ce"/>
    </g>
    <g id="Group_356" data-name="Group 356" transform="translate(321.576 104.162)">
      <g id="Group_353" data-name="Group 353">
        <path id="Path_1807" data-name="Path 1807" d="M444.362,358.252,312.829,282.311c-3.72-2.149-3.254-5.9,1.042-8.381l89.564-51.693c4.3-2.481,10.8-2.75,14.517-.6l131.533,75.941c3.721,2.149,3.254,5.9-1.042,8.381L458.879,357.65C454.583,360.131,448.083,360.4,444.362,358.252Z" transform="translate(-310.318 -70.148)" fill="#d4ecff"/>
        <g id="Group_351" data-name="Group 351" transform="translate(98.339)">
          <path id="Path_1808" data-name="Path 1808" d="M538.034,172.4l-133.7-77.13a5.126,5.126,0,0,0-4.578-.615l0-.014-.219.1-.054.024-4.352,2.049,4.725,2.353c0,.088-.01.171-.01.261l.041,109.816c0,5.5,3.4,11.912,7.6,14.331l130.139,75.072.739,6.125,4.752-2.267c1.566-.919,2.556-3,2.556-5.958l-.042-109.817C545.629,181.237,542.228,174.821,538.034,172.4Z" transform="translate(-392.339 -94.356)" fill="#173d7a"/>
          <path id="Path_1809" data-name="Path 1809" d="M538.034,172.4l-133.7-77.13a5.126,5.126,0,0,0-4.578-.615l0-.014-.219.1-.054.024-4.352,2.049,4.725,2.353c0,.088-.01.171-.01.261l.026,72.376,60.849,48.077L543.342,178.3A14.993,14.993,0,0,0,538.034,172.4Z" transform="translate(-392.339 -94.356)" fill="#396caa"/>
          <path id="Path_1810" data-name="Path 1810" d="M518.964,161.258l-13.1,5.511,9.893,7.622,8.261-3.516A19.228,19.228,0,0,0,518.964,161.258Z" transform="translate(-371.036 -81.485)" fill="#274f89"/>
          <path id="Path_1811" data-name="Path 1811" d="M534.131,303.86l-133.7-77.13c-4.192-2.419-7.594-8.836-7.6-14.33l-.041-109.817c0-5.5,3.4-7.99,7.59-5.571l133.7,77.13c4.195,2.418,7.6,8.834,7.6,14.33l.041,109.816C541.723,303.783,538.325,306.278,534.131,303.86Z" transform="translate(-392.79 -94.023)" fill="#d4ecff"/>
          <path id="Path_1812" data-name="Path 1812" d="M528.872,294.391,404,222.392c-3.838-2.214-6.95-8.087-6.953-13.116l-.037-100.49c0-5.03,3.107-7.312,6.946-5.1l124.872,72c3.837,2.213,6.951,8.086,6.952,13.114l.037,100.491C535.819,294.323,532.709,296.605,528.872,294.391Z" transform="translate(-391.978 -92.723)" fill="#fff"/>
          <path id="Path_1813" data-name="Path 1813" d="M528.872,294.391,404,222.392c-3.838-2.214-6.95-8.087-6.953-13.116l-.037-100.49c0-5.03,3.107-7.312,6.946-5.1l124.872,72c3.837,2.213,6.951,8.086,6.952,13.114l.037,100.491C535.819,294.323,532.709,296.605,528.872,294.391Z" transform="translate(-391.978 -92.723)" fill="#fff"/>
        </g>
        <path id="Path_1814" data-name="Path 1814" d="M551.993,284.625l-17.979-2.374L417.952,215.242c-3.72-2.149-10.22-1.878-14.517.6l-82.242,47.464-10.871-1.436v6.168h.011c-.072,1.426.741,2.8,2.5,3.811l131.533,75.941c3.721,2.149,10.221,1.879,14.517-.6L548.442,295.5c2.417-1.4,3.622-3.193,3.551-4.882h0Z" transform="translate(-310.317 -71.378)" fill="#173d7a"/>
        <path id="Path_1815" data-name="Path 1815" d="M464.788,238.454l-8.245-4.761H365.886L321.193,259.48l-10.871-1.436v6.168h.011c-.072,1.426.741,2.8,2.5,3.811l131.533,75.941a13.626,13.626,0,0,0,7.493,1.4Z" transform="translate(-310.317 -67.549)" fill="#396caa"/>
        <path id="Path_1816" data-name="Path 1816" d="M315.146,254.752l-4.824-.637v6.168h.011c-.072,1.426.741,2.8,2.5,3.811l2.318,1.338Z" transform="translate(-310.317 -63.62)" fill="#5793ce"/>
        <path id="Path_1817" data-name="Path 1817" d="M423.846,329.033a16.851,16.851,0,0,0,12.333-.766V314.508H423.846Z" transform="translate(-288.476 -52.001)" fill="#274f89"/>
        <path id="Path_1818" data-name="Path 1818" d="M444.362,343.283,312.829,267.342c-3.72-2.147-3.254-5.9,1.042-8.381l89.564-51.691c4.3-2.483,10.8-2.751,14.517-.6l131.533,75.94c3.721,2.149,3.254,5.9-1.042,8.381l-89.564,51.693C454.583,345.161,448.083,345.432,444.362,343.283Z" transform="translate(-310.318 -73.028)" fill="#d4ecff"/>
        <path id="Path_1819" data-name="Path 1819" d="M548.442,279.482l-89.564,51.693c-4.3,2.48-10.8,2.751-14.517.6l-131.533-75.94a4.9,4.9,0,0,1-2.313-2.53c-.582,1.759.16,3.539,2.313,4.783l131.533,75.941c3.721,2.149,10.221,1.878,14.517-.6l89.564-51.693c2.888-1.667,4.036-3.909,3.355-5.851A7,7,0,0,1,548.442,279.482Z" transform="translate(-310.316 -63.775)" fill="#fff"/>
        <g id="Group_352" data-name="Group 352" transform="translate(52.181 136.865)">
          <path id="Path_1820" data-name="Path 1820" d="M360.353,237.658l-5.951-3.435c-.478-.277-.419-.757.134-1.077l7.024-4.055a2.069,2.069,0,0,1,1.864-.077l5.951,3.436c.479.275.418.757-.134,1.077l-7.024,4.055A2.069,2.069,0,0,1,360.353,237.658Z" transform="translate(-354.079 -205.35)" fill="#173d7a"/>
          <path id="Path_1821" data-name="Path 1821" d="M368.061,242.109l-5.951-3.436c-.479-.277-.419-.758.134-1.077l7.023-4.055a2.071,2.071,0,0,1,1.865-.076l5.951,3.434c.478.277.419.758-.134,1.078l-7.024,4.055A2.073,2.073,0,0,1,368.061,242.109Z" transform="translate(-352.596 -204.494)" fill="#173d7a"/>
          <path id="Path_1822" data-name="Path 1822" d="M375.768,246.559l-5.951-3.436c-.478-.277-.417-.758.134-1.076l7.026-4.057a2.073,2.073,0,0,1,1.864-.078l5.951,3.436c.478.275.419.757-.134,1.077l-7.026,4.055A2.073,2.073,0,0,1,375.768,246.559Z" transform="translate(-351.113 -203.638)" fill="#173d7a"/>
          <path id="Path_1823" data-name="Path 1823" d="M386.428,242.779l-5.95-3.436c-.479-.275-.418-.758.132-1.076l5.9-3.405a2.078,2.078,0,0,1,1.866-.077l5.95,3.436c.478.275.419.757-.134,1.077l-5.9,3.4A2.073,2.073,0,0,1,386.428,242.779Z" transform="translate(-349.062 -204.24)" fill="#173d7a"/>
          <path id="Path_1824" data-name="Path 1824" d="M394.136,247.228l-5.951-3.435c-.478-.275-.418-.757.134-1.077l5.9-3.4a2.075,2.075,0,0,1,1.865-.078l5.951,3.436c.478.275.419.758-.134,1.076l-5.9,3.405A2.069,2.069,0,0,1,394.136,247.228Z" transform="translate(-347.58 -203.384)" fill="#173d7a"/>
          <path id="Path_1825" data-name="Path 1825" d="M401.844,251.678l-5.951-3.434c-.478-.277-.419-.758.134-1.078l5.9-3.4a2.072,2.072,0,0,1,1.865-.079l5.951,3.436c.477.277.419.758-.134,1.077l-5.9,3.4A2.069,2.069,0,0,1,401.844,251.678Z" transform="translate(-346.097 -202.527)" fill="#173d7a"/>
          <path id="Path_1826" data-name="Path 1826" d="M409.552,256.129l-5.951-3.435c-.479-.277-.419-.758.134-1.078l5.9-3.4a2.076,2.076,0,0,1,1.865-.078l5.951,3.436c.477.277.417.758-.134,1.077l-5.9,3.4A2.069,2.069,0,0,1,409.552,256.129Z" transform="translate(-344.614 -201.671)" fill="#173d7a"/>
          <path id="Path_1827" data-name="Path 1827" d="M417.259,260.579l-5.95-3.436c-.479-.277-.419-.757.132-1.076l5.9-3.406a2.073,2.073,0,0,1,1.864-.076l5.951,3.435c.478.277.419.757-.134,1.077l-5.9,3.4A2.073,2.073,0,0,1,417.259,260.579Z" transform="translate(-343.131 -200.815)" fill="#173d7a"/>
          <path id="Path_1828" data-name="Path 1828" d="M424.967,265.029l-5.951-3.436c-.478-.275-.419-.757.134-1.076l5.9-3.405a2.075,2.075,0,0,1,1.865-.076l5.951,3.436c.478.274.419.757-.134,1.076l-5.9,3.4A2.076,2.076,0,0,1,424.967,265.029Z" transform="translate(-341.648 -199.959)" fill="#173d7a"/>
          <path id="Path_1829" data-name="Path 1829" d="M432.675,269.479l-5.951-3.436c-.478-.275-.418-.757.134-1.076l5.9-3.405a2.079,2.079,0,0,1,1.865-.076l5.951,3.436c.478.274.419.757-.134,1.076l-5.9,3.405A2.075,2.075,0,0,1,432.675,269.479Z" transform="translate(-340.165 -199.103)" fill="#173d7a"/>
          <path id="Path_1830" data-name="Path 1830" d="M440.383,273.929l-5.951-3.435c-.479-.277-.419-.758.134-1.077l5.9-3.4a2.076,2.076,0,0,1,1.865-.079l5.951,3.437c.478.277.417.758-.134,1.077l-5.9,3.4A2.072,2.072,0,0,1,440.383,273.929Z" transform="translate(-338.682 -198.247)" fill="#173d7a"/>
          <path id="Path_1831" data-name="Path 1831" d="M448.09,278.38l-5.95-3.436c-.479-.277-.418-.758.132-1.077l5.9-3.4a2.076,2.076,0,0,1,1.865-.079l5.951,3.436c.479.277.418.758-.134,1.078l-5.9,3.4A2.072,2.072,0,0,1,448.09,278.38Z" transform="translate(-337.199 -197.391)" fill="#173d7a"/>
          <path id="Path_1832" data-name="Path 1832" d="M455.8,282.83l-5.951-3.437c-.478-.277-.419-.758.134-1.077l5.9-3.4a2.072,2.072,0,0,1,1.865-.077l5.951,3.435c.478.277.418.758-.134,1.077l-5.9,3.4A2.076,2.076,0,0,1,455.8,282.83Z" transform="translate(-335.716 -196.534)" fill="#173d7a"/>
          <path id="Path_1833" data-name="Path 1833" d="M397.785,240.672l-5.951-3.436c-.477-.275-.417-.757.134-1.077l5.9-3.4a2.073,2.073,0,0,1,1.864-.077l5.951,3.436c.478.277.418.758-.134,1.077l-5.9,3.4A2.075,2.075,0,0,1,397.785,240.672Z" transform="translate(-346.877 -204.645)" fill="#396caa"/>
          <path id="Path_1834" data-name="Path 1834" d="M389.962,236.155l-5.951-3.435c-.477-.275-.417-.758.134-1.077l5.9-3.4a2.069,2.069,0,0,1,1.864-.078l5.951,3.436c.479.275.419.757-.134,1.076l-5.9,3.4A2.072,2.072,0,0,1,389.962,236.155Z" transform="translate(-348.383 -205.514)" fill="#396caa"/>
          <path id="Path_1835" data-name="Path 1835" d="M383.235,232.27l-12.818-7.4c-.477-.275-.417-.757.134-1.077l5.9-3.4a2.07,2.07,0,0,1,1.864-.079l12.818,7.4c.478.277.419.758-.134,1.078l-5.9,3.4A2.072,2.072,0,0,1,383.235,232.27Z" transform="translate(-350.998 -207.024)" fill="#173d7a"/>
          <path id="Path_1836" data-name="Path 1836" d="M388.322,226.544l-10.4-6.006c-.477-.275-.417-.757.134-1.076l5.9-3.4a2.073,2.073,0,0,1,1.864-.079l10.4,6.006c.478.277.417.758-.134,1.077l-5.9,3.4A2.073,2.073,0,0,1,388.322,226.544Z" transform="translate(-349.554 -207.857)" fill="#173d7a"/>
          <path id="Path_1837" data-name="Path 1837" d="M405.493,245.122l-5.951-3.436c-.478-.275-.417-.757.134-1.076l5.9-3.405a2.069,2.069,0,0,1,1.864-.076l5.951,3.435c.478.277.417.757-.134,1.077l-5.9,3.4A2.076,2.076,0,0,1,405.493,245.122Z" transform="translate(-345.395 -203.789)" fill="#396caa"/>
          <path id="Path_1838" data-name="Path 1838" d="M413.2,249.572l-5.951-3.436c-.477-.275-.416-.758.135-1.076l5.9-3.405a2.073,2.073,0,0,1,1.864-.076l5.952,3.436c.478.275.417.756-.135,1.076l-5.9,3.406A2.079,2.079,0,0,1,413.2,249.572Z" transform="translate(-343.912 -202.933)" fill="#173d7a"/>
          <path id="Path_1839" data-name="Path 1839" d="M420.908,254.022l-5.951-3.436c-.477-.275-.417-.757.135-1.076l5.9-3.4a2.069,2.069,0,0,1,1.864-.078l5.952,3.435c.477.275.417.758-.135,1.077l-5.9,3.405A2.075,2.075,0,0,1,420.908,254.022Z" transform="translate(-342.429 -202.077)" fill="#173d7a"/>
          <path id="Path_1840" data-name="Path 1840" d="M428.616,258.472l-5.951-3.436c-.477-.275-.417-.757.135-1.076l5.9-3.4a2.069,2.069,0,0,1,1.864-.077l5.952,3.435c.477.275.417.758-.135,1.077l-5.9,3.4A2.072,2.072,0,0,1,428.616,258.472Z" transform="translate(-340.946 -201.22)" fill="#173d7a"/>
          <path id="Path_1841" data-name="Path 1841" d="M436.324,262.923l-5.951-3.436c-.478-.277-.417-.758.135-1.077l5.9-3.4a2.069,2.069,0,0,1,1.864-.078l5.952,3.435c.477.277.416.758-.135,1.078l-5.9,3.4A2.072,2.072,0,0,1,436.324,262.923Z" transform="translate(-339.463 -200.364)" fill="#173d7a"/>
          <path id="Path_1842" data-name="Path 1842" d="M444.031,267.373l-5.951-3.436c-.477-.277-.416-.758.135-1.077l5.9-3.4a2.065,2.065,0,0,1,1.864-.078l5.952,3.435c.478.277.417.758-.135,1.077l-5.9,3.4A2.075,2.075,0,0,1,444.031,267.373Z" transform="translate(-337.98 -199.508)" fill="#173d7a"/>
          <path id="Path_1843" data-name="Path 1843" d="M451.739,271.822l-5.951-3.435c-.477-.275-.417-.758.135-1.077l5.9-3.4a2.069,2.069,0,0,1,1.864-.078l5.952,3.436c.477.275.417.757-.135,1.076l-5.9,3.405A2.075,2.075,0,0,1,451.739,271.822Z" transform="translate(-336.497 -198.652)" fill="#173d7a"/>
          <path id="Path_1844" data-name="Path 1844" d="M459.447,276.272l-5.951-3.436c-.477-.274-.417-.757.135-1.076l5.9-3.4a2.073,2.073,0,0,1,1.864-.078l5.952,3.437c.477.275.417.758-.135,1.076l-5.9,3.405A2.075,2.075,0,0,1,459.447,276.272Z" transform="translate(-335.014 -197.796)" fill="#173d7a"/>
          <path id="Path_1845" data-name="Path 1845" d="M467.155,280.722l-5.951-3.435c-.478-.277-.417-.757.135-1.077l5.9-3.4a2.073,2.073,0,0,1,1.864-.078l5.951,3.436c.478.275.417.758-.134,1.076l-5.9,3.405A2.075,2.075,0,0,1,467.155,280.722Z" transform="translate(-333.531 -196.94)" fill="#173d7a"/>
          <path id="Path_1846" data-name="Path 1846" d="M481.993,289.289l-12.985-7.5c-.478-.275-.418-.757.134-1.076l5.9-3.405a2.07,2.07,0,0,1,1.862-.076l12.986,7.5c.477.277.417.758-.135,1.076l-5.9,3.405A2.073,2.073,0,0,1,481.993,289.289Z" transform="translate(-332.03 -196.073)" fill="#173d7a"/>
          <path id="Path_1847" data-name="Path 1847" d="M496.672,280.437l-10.96-6.328c-.477-.277-.417-.757.134-1.077l5.9-3.4a2.073,2.073,0,0,1,1.864-.078l10.96,6.328c.478.277.417.758-.135,1.076l-5.9,3.405A2.066,2.066,0,0,1,496.672,280.437Z" transform="translate(-328.816 -197.551)" fill="#173d7a"/>
          <path id="Path_1848" data-name="Path 1848" d="M418.991,244.252l-5.951-3.436c-.478-.277-.417-.758.135-1.077l5.9-3.4a2.061,2.061,0,0,1,1.864-.076l5.951,3.434c.478.277.417.758-.134,1.077l-5.9,3.4A2.076,2.076,0,0,1,418.991,244.252Z" transform="translate(-342.798 -203.957)" fill="#173d7a"/>
          <path id="Path_1849" data-name="Path 1849" d="M411.091,239.69l-5.951-3.436c-.478-.274-.417-.757.135-1.076l5.9-3.405a2.079,2.079,0,0,1,1.865-.076l5.95,3.436c.479.275.418.758-.134,1.076l-5.9,3.405A2.075,2.075,0,0,1,411.091,239.69Z" transform="translate(-344.318 -204.834)" fill="#173d7a"/>
          <path id="Path_1850" data-name="Path 1850" d="M403.192,235.13l-5.952-3.436c-.477-.277-.417-.757.135-1.077l5.9-3.4a2.075,2.075,0,0,1,1.865-.078l5.951,3.436c.478.277.417.757-.135,1.077l-5.9,3.4A2.073,2.073,0,0,1,403.192,235.13Z" transform="translate(-345.837 -205.711)" fill="#396caa"/>
          <path id="Path_1851" data-name="Path 1851" d="M395.292,230.569l-5.951-3.436c-.477-.275-.417-.758.134-1.076l5.9-3.405a2.073,2.073,0,0,1,1.864-.076l5.951,3.435c.479.275.419.757-.134,1.077l-5.9,3.4A2.075,2.075,0,0,1,395.292,230.569Z" transform="translate(-347.357 -206.589)" fill="#173d7a"/>
          <path id="Path_1852" data-name="Path 1852" d="M426.7,248.7l-5.951-3.435c-.477-.277-.417-.758.135-1.077l5.9-3.4a2.069,2.069,0,0,1,1.864-.078l5.952,3.436c.478.275.417.757-.135,1.076l-5.9,3.4A2.071,2.071,0,0,1,426.7,248.7Z" transform="translate(-341.315 -203.1)" fill="#173d7a"/>
          <path id="Path_1853" data-name="Path 1853" d="M434.406,253.151l-5.951-3.435c-.477-.275-.417-.758.135-1.077l5.9-3.4a2.069,2.069,0,0,1,1.864-.077l5.952,3.436c.477.275.417.757-.135,1.076l-5.9,3.405A2.075,2.075,0,0,1,434.406,253.151Z" transform="translate(-339.832 -202.244)" fill="#173d7a"/>
          <path id="Path_1854" data-name="Path 1854" d="M442.114,257.6l-5.951-3.436c-.477-.275-.417-.756.135-1.076l5.9-3.4a2.073,2.073,0,0,1,1.864-.078l5.952,3.436c.477.275.417.758-.135,1.076l-5.9,3.406A2.075,2.075,0,0,1,442.114,257.6Z" transform="translate(-338.349 -201.388)" fill="#173d7a"/>
          <path id="Path_1855" data-name="Path 1855" d="M449.822,262.051l-5.951-3.435c-.478-.277-.417-.758.135-1.077l5.9-3.4a2.073,2.073,0,0,1,1.864-.078l5.951,3.436c.478.277.417.757-.134,1.076l-5.9,3.405A2.069,2.069,0,0,1,449.822,262.051Z" transform="translate(-336.866 -200.532)" fill="#173d7a"/>
          <path id="Path_1856" data-name="Path 1856" d="M457.53,266.5l-5.952-3.436c-.477-.277-.417-.758.135-1.077l5.9-3.4a2.069,2.069,0,0,1,1.864-.076l5.952,3.435c.478.275.417.757-.135,1.077l-5.9,3.4A2.073,2.073,0,0,1,457.53,266.5Z" transform="translate(-335.383 -199.676)" fill="#173d7a"/>
          <path id="Path_1857" data-name="Path 1857" d="M465.238,270.952l-5.952-3.436c-.477-.277-.417-.758.135-1.076l5.9-3.405a2.069,2.069,0,0,1,1.864-.076l5.952,3.435c.477.275.417.757-.135,1.077l-5.9,3.4A2.073,2.073,0,0,1,465.238,270.952Z" transform="translate(-333.9 -198.82)" fill="#173d7a"/>
          <path id="Path_1858" data-name="Path 1858" d="M472.946,275.4l-5.952-3.436c-.478-.275-.417-.758.135-1.076l5.9-3.405a2.069,2.069,0,0,1,1.864-.076l5.952,3.435c.477.275.417.757-.135,1.077l-5.9,3.4A2.07,2.07,0,0,1,472.946,275.4Z" transform="translate(-332.417 -197.963)" fill="#173d7a"/>
          <path id="Path_1859" data-name="Path 1859" d="M480.653,279.852l-5.951-3.437c-.478-.275-.417-.757.134-1.077l5.9-3.4a2.07,2.07,0,0,1,1.864-.079l5.951,3.437c.478.275.417.758-.134,1.076l-5.9,3.405A2.073,2.073,0,0,1,480.653,279.852Z" transform="translate(-330.934 -197.107)" fill="#173d7a"/>
          <path id="Path_1860" data-name="Path 1860" d="M488.361,284.3l-5.952-3.435c-.477-.277-.417-.758.135-1.078l5.9-3.4a2.069,2.069,0,0,1,1.864-.079l5.952,3.436c.478.277.417.758-.135,1.078l-5.9,3.4A2.069,2.069,0,0,1,488.361,284.3Z" transform="translate(-329.452 -196.251)" fill="#173d7a"/>
          <path id="Path_1861" data-name="Path 1861" d="M414.932,233.244l-5.95-3.435c-.479-.277-.419-.758.134-1.077l5.9-3.4a2.072,2.072,0,0,1,1.865-.077l5.95,3.436c.478.275.419.757-.132,1.076l-5.9,3.4A2.072,2.072,0,0,1,414.932,233.244Z" transform="translate(-343.579 -206.074)" fill="#173d7a"/>
          <path id="Path_1862" data-name="Path 1862" d="M407.263,228.816l-5.951-3.436c-.478-.275-.419-.757.134-1.076l5.9-3.405a2.075,2.075,0,0,1,1.865-.076l5.951,3.436c.477.275.419.757-.134,1.076l-5.9,3.405A2.073,2.073,0,0,1,407.263,228.816Z" transform="translate(-345.054 -206.926)" fill="#173d7a"/>
          <path id="Path_1863" data-name="Path 1863" d="M399.594,224.388l-5.951-3.436c-.479-.275-.419-.757.134-1.076l5.9-3.4a2.075,2.075,0,0,1,1.865-.077l5.95,3.436c.478.277.419.757-.132,1.076l-5.9,3.405A2.07,2.07,0,0,1,399.594,224.388Z" transform="translate(-346.53 -207.778)" fill="#173d7a"/>
          <path id="Path_1864" data-name="Path 1864" d="M391.924,219.961l-5.951-3.436c-.478-.277-.419-.758.134-1.077l5.9-3.4a2.072,2.072,0,0,1,1.865-.077l5.951,3.435c.478.277.419.758-.134,1.078l-5.9,3.4A2.072,2.072,0,0,1,391.924,219.961Z" transform="translate(-348.005 -208.63)" fill="#173d7a"/>
          <path id="Path_1865" data-name="Path 1865" d="M399.811,215.039,393.86,211.6c-.478-.274-.419-.757.134-1.076l1.95-1.126a2.073,2.073,0,0,1,1.864-.077l5.951,3.436c.478.275.418.757-.134,1.076l-1.95,1.126A2.073,2.073,0,0,1,399.811,215.039Z" transform="translate(-346.488 -209.138)" fill="#173d7a"/>
          <path id="Path_1866" data-name="Path 1866" d="M409.82,220.817l-5.952-3.435c-.478-.275-.417-.757.135-1.077l1.948-1.124a2.072,2.072,0,0,1,1.865-.079l5.951,3.436c.478.275.417.758-.134,1.077l-1.95,1.126A2.069,2.069,0,0,1,409.82,220.817Z" transform="translate(-344.562 -208.026)" fill="#173d7a"/>
          <path id="Path_1867" data-name="Path 1867" d="M417.456,225.227l-5.951-3.436c-.477-.275-.417-.757.134-1.076l1.951-1.126a2.069,2.069,0,0,1,1.864-.077l5.951,3.435c.478.277.417.758-.134,1.078l-1.95,1.124A2.068,2.068,0,0,1,417.456,225.227Z" transform="translate(-343.093 -207.178)" fill="#173d7a"/>
          <path id="Path_1868" data-name="Path 1868" d="M425.094,229.637l-5.951-3.436c-.478-.277-.419-.758.134-1.077l1.95-1.126a2.069,2.069,0,0,1,1.864-.076l5.952,3.435c.477.277.417.758-.135,1.077l-1.95,1.126A2.073,2.073,0,0,1,425.094,229.637Z" transform="translate(-341.624 -206.33)" fill="#173d7a"/>
          <path id="Path_1869" data-name="Path 1869" d="M432.732,234.046l-5.952-3.435c-.477-.277-.417-.758.135-1.077l1.95-1.126a2.069,2.069,0,0,1,1.864-.078l5.951,3.436c.478.275.419.757-.134,1.076l-1.95,1.126A2.073,2.073,0,0,1,432.732,234.046Z" transform="translate(-340.154 -205.481)" fill="#173d7a"/>
          <path id="Path_1870" data-name="Path 1870" d="M475.37,258.664l-5.951-3.436c-.477-.275-.417-.758.134-1.076l1.95-1.127a2.075,2.075,0,0,1,1.865-.076l5.951,3.435c.477.275.417.757-.134,1.077l-1.95,1.124A2.072,2.072,0,0,1,475.37,258.664Z" transform="translate(-331.951 -200.745)" fill="#173d7a"/>
          <path id="Path_1871" data-name="Path 1871" d="M483.008,263.073l-5.951-3.436c-.479-.275-.419-.757.134-1.076l1.95-1.126a2.073,2.073,0,0,1,1.864-.078l5.952,3.436c.477.275.417.757-.135,1.076L484.873,263A2.075,2.075,0,0,1,483.008,263.073Z" transform="translate(-330.482 -199.897)" fill="#173d7a"/>
          <path id="Path_1872" data-name="Path 1872" d="M490.645,267.482l-5.95-3.435c-.479-.275-.419-.757.132-1.077l1.95-1.124a2.072,2.072,0,0,1,1.865-.079l5.95,3.436c.479.277.419.758-.134,1.077l-1.95,1.126A2.069,2.069,0,0,1,490.645,267.482Z" transform="translate(-329.012 -199.049)" fill="#173d7a"/>
          <path id="Path_1873" data-name="Path 1873" d="M498.282,271.892l-5.951-3.435c-.477-.277-.417-.758.135-1.078l1.948-1.124a2.072,2.072,0,0,1,1.865-.077l5.951,3.435c.478.277.419.758-.134,1.078l-1.95,1.124A2.072,2.072,0,0,1,498.282,271.892Z" transform="translate(-327.543 -198.2)" fill="#173d7a"/>
          <path id="Path_1874" data-name="Path 1874" d="M422.64,237.694l-5.951-3.436c-.478-.274-.419-.757.134-1.076l5.9-3.405a2.079,2.079,0,0,1,1.865-.076l5.951,3.436c.478.275.419.758-.134,1.076l-5.9,3.405A2.076,2.076,0,0,1,422.64,237.694Z" transform="translate(-342.096 -205.218)" fill="#173d7a"/>
          <path id="Path_1875" data-name="Path 1875" d="M430.348,242.144l-5.951-3.436c-.478-.275-.419-.756.134-1.076l5.9-3.4a2.075,2.075,0,0,1,1.865-.078l5.951,3.436c.477.275.419.757-.134,1.076l-5.9,3.405A2.073,2.073,0,0,1,430.348,242.144Z" transform="translate(-340.613 -204.362)" fill="#173d7a"/>
          <path id="Path_1876" data-name="Path 1876" d="M438.056,246.594l-5.951-3.435c-.479-.277-.419-.758.134-1.077l5.9-3.4A2.076,2.076,0,0,1,440,238.6l5.951,3.436c.477.277.419.757-.134,1.076l-5.9,3.405A2.069,2.069,0,0,1,438.056,246.594Z" transform="translate(-339.13 -203.506)" fill="#173d7a"/>
          <path id="Path_1877" data-name="Path 1877" d="M445.763,251.045l-5.95-3.436c-.479-.277-.419-.758.134-1.077l5.9-3.4a2.075,2.075,0,0,1,1.865-.077l5.95,3.436c.478.275.419.757-.134,1.077l-5.9,3.4A2.069,2.069,0,0,1,445.763,251.045Z" transform="translate(-337.647 -202.65)" fill="#173d7a"/>
          <path id="Path_1878" data-name="Path 1878" d="M453.471,255.495l-5.951-3.436c-.478-.277-.419-.758.134-1.076l5.9-3.405a2.071,2.071,0,0,1,1.865-.076l5.951,3.436c.478.274.419.756-.134,1.076l-5.9,3.4A2.069,2.069,0,0,1,453.471,255.495Z" transform="translate(-336.164 -201.793)" fill="#173d7a"/>
          <path id="Path_1879" data-name="Path 1879" d="M461.179,259.945l-5.951-3.436c-.478-.275-.419-.758.134-1.076l5.9-3.405a2.075,2.075,0,0,1,1.865-.078l5.951,3.436c.477.275.419.758-.134,1.077l-5.9,3.4A2.073,2.073,0,0,1,461.179,259.945Z" transform="translate(-334.681 -200.937)" fill="#173d7a"/>
          <path id="Path_1880" data-name="Path 1880" d="M468.887,264.395l-5.951-3.436c-.479-.275-.419-.757.134-1.077l5.9-3.4a2.075,2.075,0,0,1,1.865-.077l5.951,3.436c.477.275.418.758-.134,1.076l-5.9,3.405A2.073,2.073,0,0,1,468.887,264.395Z" transform="translate(-333.198 -200.081)" fill="#173d7a"/>
          <path id="Path_1881" data-name="Path 1881" d="M476.594,268.844l-5.95-3.435c-.479-.275-.419-.757.132-1.077l5.9-3.4a2.072,2.072,0,0,1,1.865-.079l5.95,3.436c.478.277.418.758-.132,1.076l-5.9,3.405A2.065,2.065,0,0,1,476.594,268.844Z" transform="translate(-331.715 -199.225)" fill="#173d7a"/>
          <path id="Path_1882" data-name="Path 1882" d="M484.3,273.295l-5.951-3.436c-.478-.275-.419-.757.134-1.077l5.9-3.4a2.076,2.076,0,0,1,1.865-.078l5.951,3.437c.478.277.418.758-.134,1.077l-5.9,3.4A2.069,2.069,0,0,1,484.3,273.295Z" transform="translate(-330.232 -198.369)" fill="#173d7a"/>
          <path id="Path_1883" data-name="Path 1883" d="M380.441,239.322,362.914,229.2c-.477-.277-.417-.758.135-1.078l5.9-3.4a2.073,2.073,0,0,1,1.864-.077l17.528,10.12c.478.275.417.757-.135,1.077l-5.9,3.4A2.075,2.075,0,0,1,380.441,239.322Z" transform="translate(-352.441 -206.191)" fill="#173d7a"/>
          <path id="Path_1884" data-name="Path 1884" d="M475.133,293.992l-17.527-10.12c-.478-.275-.419-.757.134-1.076l5.9-3.4a2.076,2.076,0,0,1,1.865-.079l17.527,10.12c.478.277.418.758-.134,1.077l-5.9,3.4A2.073,2.073,0,0,1,475.133,293.992Z" transform="translate(-334.224 -195.673)" fill="#173d7a"/>
          <path id="Path_1885" data-name="Path 1885" d="M442.441,285.052l-5.952-3.437c-.477-.274-.417-.757.135-1.076l7.024-4.056a2.075,2.075,0,0,1,1.865-.076l5.951,3.436c.477.275.419.756-.133,1.076l-7.026,4.056A2.077,2.077,0,0,1,442.441,285.052Z" transform="translate(-338.286 -196.232)" fill="#173d7a"/>
          <path id="Path_1886" data-name="Path 1886" d="M387.043,253.067l-9.518-5.495c-.478-.275-.418-.758.134-1.076l7.026-4.057a2.073,2.073,0,0,1,1.864-.077l9.516,5.5c.479.275.419.757-.132,1.077l-7.024,4.055A2.071,2.071,0,0,1,387.043,253.067Z" transform="translate(-349.63 -202.782)" fill="#173d7a"/>
          <path id="Path_1887" data-name="Path 1887" d="M435.59,281.1l-9.518-5.5c-.478-.274-.417-.756.135-1.076l7.023-4.055a2.075,2.075,0,0,1,1.865-.078l9.518,5.5c.478.275.419.757-.134,1.076l-7.026,4.055A2.069,2.069,0,0,1,435.59,281.1Z" transform="translate(-340.29 -197.389)" fill="#173d7a"/>
          <path id="Path_1888" data-name="Path 1888" d="M398.164,259.488l-9.518-5.495c-.479-.275-.419-.758.134-1.077l7.024-4.057a2.073,2.073,0,0,1,1.864-.076l9.519,5.495c.477.277.417.758-.135,1.077l-7.024,4.055A2.065,2.065,0,0,1,398.164,259.488Z" transform="translate(-347.491 -201.546)" fill="#173d7a"/>
          <path id="Path_1889" data-name="Path 1889" d="M397.671,248.785l41.381,23.891a.567.567,0,0,1,0,1.074l-7.164,4.135a2.051,2.051,0,0,1-1.859,0l-41.382-23.891Z" transform="translate(-347.429 -201.51)" fill="#173d7a"/>
          <path id="Path_1890" data-name="Path 1890" d="M463.742,291.72l6.629,3.828c.392.227.342.622-.11.882l-2.874,1.66a1.7,1.7,0,0,1-1.527.063l-6.63-3.828c-.391-.227-.342-.621.11-.881l2.874-1.66A1.7,1.7,0,0,1,463.742,291.72Z" transform="translate(-333.9 -193.279)" fill="#173d7a"/>
          <path id="Path_1891" data-name="Path 1891" d="M455.97,287.234l6.63,3.828c.391.225.342.62-.11.881l-2.874,1.66a1.7,1.7,0,0,1-1.527.063l-6.63-3.828c-.392-.227-.343-.621.11-.882l2.874-1.659A1.7,1.7,0,0,1,455.97,287.234Z" transform="translate(-335.395 -194.143)" fill="#173d7a"/>
          <path id="Path_1892" data-name="Path 1892" d="M448.261,282.784l6.63,3.828c.392.225.342.62-.11.881l-2.874,1.66a1.7,1.7,0,0,1-1.527.063l-6.63-3.828c-.391-.227-.342-.621.11-.882l2.874-1.66A1.7,1.7,0,0,1,448.261,282.784Z" transform="translate(-336.878 -194.999)" fill="#173d7a"/>
          <path id="Path_1893" data-name="Path 1893" d="M460.225,284.776l6.631,3.828c.391.225.342.621-.111.882l-2.872,1.66a1.7,1.7,0,0,1-1.53.062l-6.628-3.828c-.391-.225-.342-.62.11-.882l2.874-1.657A1.692,1.692,0,0,1,460.225,284.776Z" transform="translate(-334.576 -194.615)" fill="#173d7a"/>
        </g>
      </g>
      <g id="Group_355" data-name="Group 355" transform="translate(167.469 82.569)">
        <g id="Group_354" data-name="Group 354">
          <path id="Path_1894" data-name="Path 1894" d="M468.806,176.137l-5.693-3.287a2.347,2.347,0,0,1-.977-1.835h0c-.012-.709.407-1.037.936-.732l5.691,3.285a2.354,2.354,0,0,1,.978,1.837h0C469.753,176.113,469.334,176.441,468.806,176.137Z" transform="translate(-448.578 -162.34)" fill="#d4ecff"/>
          <path id="Path_1895" data-name="Path 1895" d="M480.613,182.953l-8.393-4.845a2.353,2.353,0,0,1-.978-1.836h0c-.011-.709.408-1.036.936-.733l8.393,4.847a2.352,2.352,0,0,1,.978,1.836h0C481.559,182.931,481.141,183.258,480.613,182.953Z" transform="translate(-446.826 -161.328)" fill="#d4ecff"/>
          <path id="Path_1896" data-name="Path 1896" d="M466.441,201.593l-5.692-3.287a2.35,2.35,0,0,1-.978-1.835h0c-.011-.709.408-1.037.937-.732l5.691,3.286a2.349,2.349,0,0,1,.977,1.836h0C467.388,201.569,466.97,201.9,466.441,201.593Z" transform="translate(-449.033 -157.442)" fill="#d4ecff"/>
          <path id="Path_1897" data-name="Path 1897" d="M477.013,207.7l-8.393-4.845a2.348,2.348,0,0,1-.977-1.836h0c-.012-.709.407-1.036.936-.732l8.392,4.846a2.351,2.351,0,0,1,.977,1.836h0C477.96,207.674,477.541,208,477.013,207.7Z" transform="translate(-447.519 -156.568)" fill="#d4ecff"/>
          <path id="Path_1898" data-name="Path 1898" d="M455.372,172.851l-3.557-2.053a2.355,2.355,0,0,1-.977-1.836h0c-.011-.709.408-1.037.936-.732l3.555,2.053a2.346,2.346,0,0,1,.978,1.836h0C456.319,172.827,455.9,173.155,455.372,172.851Z" transform="translate(-450.752 -162.735)" fill="#d4ecff"/>
          <path id="Path_1899" data-name="Path 1899" d="M466.734,183.881l-10.864-6.272a2.346,2.346,0,0,1-.977-1.836h0c-.012-.709.405-1.036.935-.732l10.864,6.272a2.347,2.347,0,0,1,.977,1.836h0C467.681,183.858,467.263,184.186,466.734,183.881Z" transform="translate(-449.972 -161.424)" fill="#d4ecff"/>
          <path id="Path_1900" data-name="Path 1900" d="M459.572,188.687l-3.556-2.055a2.344,2.344,0,0,1-.977-1.835h0c-.012-.709.407-1.037.935-.732l3.557,2.052a2.352,2.352,0,0,1,.975,1.837h0C460.519,188.663,460.1,188.991,459.572,188.687Z" transform="translate(-449.943 -159.688)" fill="#d4ecff"/>
          <path id="Path_1901" data-name="Path 1901" d="M480.71,218.771l-9.5-5.484a2.348,2.348,0,0,1-.978-1.835h0c-.011-.709.408-1.037.935-.732l9.5,5.484a2.349,2.349,0,0,1,.978,1.836h0C481.657,218.749,481.239,219.077,480.71,218.771Z" transform="translate(-447.02 -154.56)" fill="#d4ecff"/>
          <path id="Path_1902" data-name="Path 1902" d="M458.445,196.976l-2.282-1.318a2.354,2.354,0,0,1-.978-1.836h0c-.011-.709.408-1.037.937-.732l2.282,1.318a2.354,2.354,0,0,1,.977,1.836h0C459.393,196.953,458.973,197.282,458.445,196.976Z" transform="translate(-449.916 -157.952)" fill="#d4ecff"/>
          <path id="Path_1903" data-name="Path 1903" d="M459.143,206.32l-2.834-1.636a2.354,2.354,0,0,1-.977-1.836h0c-.012-.709.408-1.037.935-.732l2.836,1.637a2.35,2.35,0,0,1,.977,1.835h0C460.09,206.3,459.672,206.625,459.143,206.32Z" transform="translate(-449.887 -156.215)" fill="#d4ecff"/>
          <path id="Path_1904" data-name="Path 1904" d="M469.139,212.091l-7.473-4.314a2.354,2.354,0,0,1-.978-1.836h0c-.011-.709.408-1.036.937-.732l7.472,4.315a2.342,2.342,0,0,1,.977,1.836h0C470.086,212.068,469.668,212.4,469.139,212.091Z" transform="translate(-448.857 -155.62)" fill="#d4ecff"/>
          <path id="Path_1905" data-name="Path 1905" d="M461.754,212.3l-5.372-3.1a2.35,2.35,0,0,1-.978-1.835h0c-.012-.709.408-1.039.935-.733l5.373,3.1a2.349,2.349,0,0,1,.979,1.836h0C462.7,212.276,462.284,212.6,461.754,212.3Z" transform="translate(-449.873 -155.347)" fill="#d4ecff"/>
          <path id="Path_1906" data-name="Path 1906" d="M486.574,222.176l-3.451-1.992a2.352,2.352,0,0,1-.978-1.836h0c-.011-.709.408-1.036.936-.731l3.451,1.991a2.352,2.352,0,0,1,.978,1.836h0C487.52,222.152,487.1,222.481,486.574,222.176Z" transform="translate(-444.729 -153.233)" fill="#d4ecff"/>
          <path id="Path_1907" data-name="Path 1907" d="M471.624,195.644l-9.5-5.484a2.35,2.35,0,0,1-.978-1.836h0c-.011-.708.408-1.036.936-.732l9.5,5.484a2.345,2.345,0,0,1,.978,1.836h0C472.57,195.622,472.152,195.95,471.624,195.644Z" transform="translate(-448.768 -159.009)" fill="#d4ecff"/>
          <path id="Path_1908" data-name="Path 1908" d="M472.5,191.678l-16.553-9.557a2.349,2.349,0,0,1-.977-1.836h0c-.012-.708.408-1.037.935-.732l16.553,9.558a2.35,2.35,0,0,1,.977,1.835h0C473.443,191.655,473.023,191.983,472.5,191.678Z" transform="translate(-449.958 -160.556)" fill="#d4ecff"/>
          <path id="Path_1909" data-name="Path 1909" d="M465.587,196.628l-9.5-5.483a2.351,2.351,0,0,1-.978-1.835h0c-.011-.709.408-1.037.936-.732l9.5,5.483a2.352,2.352,0,0,1,.978,1.836h0C466.534,196.607,466.115,196.934,465.587,196.628Z" transform="translate(-449.93 -158.82)" fill="#d4ecff"/>
          <path id="Path_1910" data-name="Path 1910" d="M476.689,198.568l-3.451-1.992a2.341,2.341,0,0,1-.977-1.835h0c-.012-.708.407-1.037.935-.732l3.45,1.992a2.35,2.35,0,0,1,.979,1.836h0C477.636,198.547,477.218,198.873,476.689,198.568Z" transform="translate(-446.63 -157.775)" fill="#d4ecff"/>
          <path id="Path_1911" data-name="Path 1911" d="M504.025,196.47l-20.434-11.8a2.352,2.352,0,0,1-.978-1.836h0c-.012-.709.408-1.037.936-.732l20.434,11.8a2.349,2.349,0,0,1,.977,1.836h0C504.972,196.448,504.553,196.776,504.025,196.47Z" transform="translate(-444.639 -160.065)" fill="#d4ecff"/>
          <path id="Path_1912" data-name="Path 1912" d="M467.652,206.762l-11.416-6.592a2.355,2.355,0,0,1-.977-1.836h0c-.012-.709.408-1.036.935-.732l11.417,6.592a2.353,2.353,0,0,1,.977,1.836h0C468.6,206.74,468.181,207.066,467.652,206.762Z" transform="translate(-449.901 -157.083)" fill="#d4ecff"/>
          <path id="Path_1913" data-name="Path 1913" d="M460.136,171.131l-8.392-4.846a2.346,2.346,0,0,1-.978-1.835h0c-.011-.709.407-1.037.936-.733l8.393,4.847a2.352,2.352,0,0,1,.977,1.836h0C461.083,171.108,460.664,171.436,460.136,171.131Z" transform="translate(-450.766 -163.603)" fill="#d4ecff"/>
          <path id="Path_1914" data-name="Path 1914" d="M462.2,217.022l-9.722-5.611a2.356,2.356,0,0,1-.977-1.836h0c-.011-.709.408-1.039.936-.733l9.722,5.613a2.356,2.356,0,0,1,.977,1.836h0C463.143,217,462.723,217.326,462.2,217.022Z" transform="translate(-450.625 -154.921)" fill="#d4ecff"/>
        </g>
      </g>
    </g>
    <g id="Group_363" data-name="Group 363" transform="translate(251.797 43.388)">
      <g id="Group_357" data-name="Group 357">
        <path id="Path_1915" data-name="Path 1915" d="M252.074,228.292l50.068-29.152c9.918-5.728,19.273-6.632,26.34-2.555s10.956,12.633,10.956,24.086v3.668c-.354.24-.725.473-1.1.706v-4.374c0-11.042-3.7-19.256-10.4-23.13s-15.672-2.967-25.235,2.554l-50.068,29.153a.552.552,0,0,1-.552-.956Z" transform="translate(-251.797 -14.398)" fill="#d4ecff"/>
        <path id="Path_1916" data-name="Path 1916" d="M386.986,222.555V109.723c0-22.585,15.912-50.147,35.474-61.439,9.578-5.532,18.614-6.408,25.441-2.467s10.584,12.2,10.584,23.264v7.869l-1.1,1.1V69.08c0-10.649-3.564-18.573-10.033-22.307s-15.112-2.859-24.338,2.466c-19.255,11.117-34.92,38.25-34.92,60.484V222.555c0,18.721-11.015,40.876-25.952,54.208v-1.481C376.485,262.1,386.986,240.688,386.986,222.555Z" transform="translate(-230.569 -43.388)" fill="#d4ecff"/>
        <path id="Path_1917" data-name="Path 1917" d="M443.117,76.247h0a44.315,44.315,0,0,1,22.6-11.067c13.972-2.136,19.746,14.2,19.746,14.2s1.616,8.487,1.558,13.51-.417,23.264-.417,23.264L442.318,90.644v-.007a.547.547,0,0,1-.3-.486V77.2C442.381,76.833,442.75,76.614,443.117,76.247Z" transform="translate(-215.201 -39.232)" fill="#173d7a"/>
      </g>
      <g id="Group_361" data-name="Group 361" transform="translate(0.213 0.207)">
        <g id="Group_359" data-name="Group 359">
          <path id="Path_1918" data-name="Path 1918" d="M489.9,69.984l-41.98-24.2.165.6c-6.47-4.179-16.247-4.63-29.328,4.962-25.98,19.051-29.1,45.574-30.424,50.544s-.78,36.46-.78,36.46-.087,75.947-.173,84.779-2.659,18.744-7.622,29.445-17.708,23.684-17.708,23.684v15.458c2.034,16.713,9.135,20.61,19.7,21.563,8.527.768,17.612-5.387,24.871-12.1-.268.28-.44.457-.44.457V317.1c2.035,16.714,9.136,20.61,19.7,21.563s21.991-8.725,29.733-16.916,14.269-20.7,17.9-31.983,2.425-25.864,2.425-25.864.086-83.019.173-99.387.606-13.51,5.975-29.964,19.6-27.971,19.6-27.971l34.151-10.171Z" transform="translate(-230.799 -43.561)" fill="#d4ecff"/>
          <path id="Path_1919" data-name="Path 1919" d="M424.066,304.1c-.575-.783-8.055-5.8-9.96-14.632a68.928,68.928,0,0,1-.953-12.383s.03-4.155.13-7.932c.085-.073.171-.141.253-.216V267.46c-.068.063-.139.12-.206.182.027-.853.06-1.654.1-2.331.216-3.927-2.684-12.3-2.684-12.3s-4.115-11.213-16.368-11.647c-10.879-.384-22.331,7.443-24.767,9.205v-5.064c-.162.11-.336.216-.5.323.012-.68.029-1.372.047-2.053.083-.074.169-.141.253-.216v-1.481c-.068.063-.139.12-.207.181.029-.851.061-1.651.1-2.331.215-3.927-2.685-12.3-2.685-12.3s-4.114-11.214-16.368-11.647c-10.879-.385-22.331,7.443-24.767,9.205v-5.064c-.354.24-.725.473-1.1.706V229.7c0,10.741,3.578,18.814,10.077,22.824l.027.029.227.131c.061.037.118.079.179.113.039.024.082.038.122.06l44.932,25.869c-.011-.016-.041-.042-.057-.061Z" transform="translate(-238.048 -10.391)" fill="#173d7a"/>
          <g id="Group_358" data-name="Group 358" transform="translate(0 179.941)">
            <path id="Path_1920" data-name="Path 1920" d="M372.579,221.889s-.336-.174-.929-.415c-.184-.087-.359-.191-.544-.273l-42.659-24.692a22.894,22.894,0,0,0-17.318-.65c-9.481,3.471-59.153,33.27-59.153,33.27L296.353,254.7l.007,0a.675.675,0,0,0,.119.032l44.005,25.353s24.9-15.424,42.121-25.375l1.1-.637c7.042-4.048,12.635-7.072,14.389-7.537,10.621-2.814,18.009.614,19.932,1.669Z" transform="translate(-251.976 -194.469)" fill="#d4ecff"/>
            <path id="Path_1921" data-name="Path 1921" d="M391.238,239.528l.514.3S391.565,239.708,391.238,239.528Z" transform="translate(-225.183 -185.8)" fill="#d4ecff"/>
          </g>
        </g>
        <path id="Path_1922" data-name="Path 1922" d="M480.129,97.531h0a44.32,44.32,0,0,1,22.6-11.065c13.972-2.137,19.746,14.2,19.746,14.2s1.616,8.486,1.557,13.51-.417,23.262-.417,23.262l-44.289-25.512v-.007a.547.547,0,0,1-.3-.485V98.487C479.393,98.118,479.762,97.9,480.129,97.531Z" transform="translate(-208.294 -35.344)" fill="#173d7a"/>
        <g id="Group_360" data-name="Group 360" transform="translate(88.226 50.696)">
          <path id="Path_1923" data-name="Path 1923" d="M432.39,331.1c4.883,0,10.289-1.63,15.881-4.86,19.418-11.21,35.216-38.574,35.216-60.994V152.413c0-22.235,15.666-49.367,34.922-60.486,9.225-5.323,17.867-6.2,24.337-2.465s10.034,11.658,10.034,22.308V137a.551.551,0,1,0,1.1,0V111.771c0-11.061-3.758-19.324-10.585-23.264s-15.861-3.064-25.441,2.466c-19.56,11.292-35.474,38.854-35.474,61.44V265.246c0,22.07-15.55,49-34.664,60.039-9.154,5.285-17.732,6.156-24.155,2.447s-9.956-11.571-9.956-22.14v-13.24c0-11.452-3.892-20.006-10.958-24.086s-16.418-3.172-26.339,2.556l-50.067,29.153a.552.552,0,1,0,.552.955l50.067-29.153c9.563-5.52,18.525-6.428,25.235-2.554s10.4,12.088,10.4,23.129v13.24c0,10.982,3.733,19.184,10.51,23.1A18.528,18.528,0,0,0,432.39,331.1Z" transform="translate(-325.967 -86.077)" fill="#396caa"/>
        </g>
      </g>
      <path id="Path_1924" data-name="Path 1924" d="M419.516,166.154l-7.4-4.274a3.055,3.055,0,0,1-1.271-2.387h0c-.014-.922.529-1.349,1.216-.952l7.4,4.274a3.053,3.053,0,0,1,1.27,2.386h0C420.747,166.124,420.2,166.55,419.516,166.154Z" transform="translate(-221.198 -21.262)" fill="#5793ce"/>
      <path id="Path_1925" data-name="Path 1925" d="M433.264,174.091l-10.915-6.3a3.057,3.057,0,0,1-1.27-2.386h0c-.016-.923.529-1.349,1.217-.953l10.914,6.3a3.054,3.054,0,0,1,1.27,2.387h0C434.495,174.062,433.951,174.488,433.264,174.091Z" transform="translate(-219.229 -20.125)" fill="#5793ce"/>
      <path id="Path_1926" data-name="Path 1926" d="M419.9,143.123l-14.127-8.156a3.059,3.059,0,0,1-1.271-2.388h0c-.014-.922.529-1.349,1.216-.952l14.128,8.157a3.053,3.053,0,0,1,1.271,2.387h0C421.129,143.094,420.585,143.52,419.9,143.123Z" transform="translate(-222.419 -26.44)" fill="#5793ce"/>
      <path id="Path_1927" data-name="Path 1927" d="M410.585,149.373l-4.624-2.67a3.064,3.064,0,0,1-1.271-2.388h0c-.014-.922.531-1.347,1.217-.952l4.624,2.67a3.055,3.055,0,0,1,1.27,2.387h0C411.817,149.342,411.272,149.768,410.585,149.373Z" transform="translate(-222.382 -24.182)" fill="#5793ce"/>
      <path id="Path_1928" data-name="Path 1928" d="M409.119,160.152l-2.968-1.715a3.055,3.055,0,0,1-1.27-2.387h0c-.016-.922.529-1.349,1.216-.953l2.968,1.715a3.054,3.054,0,0,1,1.27,2.387h0C410.35,160.121,409.807,160.547,409.119,160.152Z" transform="translate(-222.345 -21.924)" fill="#5793ce"/>
      <path id="Path_1929" data-name="Path 1929" d="M426.257,158.42l-12.351-7.13a3.054,3.054,0,0,1-1.27-2.387h0c-.016-.923.529-1.349,1.216-.953l12.35,7.131a3.052,3.052,0,0,1,1.27,2.387h0C427.487,158.39,426.944,158.816,426.257,158.42Z" transform="translate(-220.854 -23.299)" fill="#5793ce"/>
      <path id="Path_1930" data-name="Path 1930" d="M427.391,153.261l-21.525-12.427a3.05,3.05,0,0,1-1.27-2.387h0c-.016-.922.529-1.347,1.215-.952l21.525,12.427a3.054,3.054,0,0,1,1.27,2.387h0C428.622,153.232,428.077,153.658,427.391,153.261Z" transform="translate(-222.4 -25.311)" fill="#5793ce"/>
      <path id="Path_1931" data-name="Path 1931" d="M418.406,159.7l-12.348-7.129a3.057,3.057,0,0,1-1.271-2.388h0c-.016-.923.529-1.349,1.216-.952l12.35,7.129a3.056,3.056,0,0,1,1.27,2.387h0C419.637,159.67,419.092,160.1,418.406,159.7Z" transform="translate(-222.364 -23.053)" fill="#5793ce"/>
      <path id="Path_1932" data-name="Path 1932" d="M432.843,162.223l-4.488-2.591a3.057,3.057,0,0,1-1.27-2.387h0c-.014-.922.529-1.349,1.216-.953l4.487,2.591a3.057,3.057,0,0,1,1.271,2.387h0C434.074,162.193,433.53,162.619,432.843,162.223Z" transform="translate(-218.074 -21.695)" fill="#5793ce"/>
      <g id="Group_362" data-name="Group 362" transform="translate(175.683 87.482)">
        <path id="Path_1933" data-name="Path 1933" d="M422.591,133.052l-7.4-4.272a3.06,3.06,0,0,1-1.27-2.388h0c-.016-.923.529-1.349,1.215-.952l7.4,4.274a3.052,3.052,0,0,1,1.271,2.387h0C423.824,133.022,423.279,133.449,422.591,133.052Z" transform="translate(-396.289 -115.112)" fill="#5793ce"/>
        <path id="Path_1934" data-name="Path 1934" d="M437.945,141.916l-10.914-6.3a3.057,3.057,0,0,1-1.27-2.388h0c-.015-.922.529-1.347,1.215-.952l10.915,6.3a3.055,3.055,0,0,1,1.27,2.387h0C439.177,141.888,438.632,142.313,437.945,141.916Z" transform="translate(-394.011 -113.797)" fill="#5793ce"/>
        <path id="Path_1935" data-name="Path 1935" d="M419.516,166.154l-7.4-4.274a3.055,3.055,0,0,1-1.271-2.387h0c-.014-.922.529-1.349,1.216-.952l7.4,4.274a3.053,3.053,0,0,1,1.27,2.386h0C420.747,166.124,420.2,166.55,419.516,166.154Z" transform="translate(-396.881 -108.743)" fill="#5793ce"/>
        <path id="Path_1936" data-name="Path 1936" d="M433.264,174.091l-10.915-6.3a3.057,3.057,0,0,1-1.27-2.386h0c-.016-.923.529-1.349,1.217-.953l10.914,6.3a3.054,3.054,0,0,1,1.27,2.387h0C434.495,174.062,433.951,174.488,433.264,174.091Z" transform="translate(-394.912 -107.606)" fill="#5793ce"/>
        <path id="Path_1937" data-name="Path 1937" d="M405.123,128.779l-4.624-2.67a3.06,3.06,0,0,1-1.271-2.387h0c-.014-.923.531-1.349,1.217-.952l4.624,2.669a3.06,3.06,0,0,1,1.27,2.388h0C406.355,128.75,405.81,129.175,405.123,128.779Z" transform="translate(-399.116 -115.625)" fill="#5793ce"/>
        <path id="Path_1938" data-name="Path 1938" d="M419.9,143.123l-14.127-8.156a3.059,3.059,0,0,1-1.271-2.388h0c-.014-.922.529-1.349,1.216-.952l14.128,8.157a3.053,3.053,0,0,1,1.271,2.387h0C421.129,143.094,420.585,143.52,419.9,143.123Z" transform="translate(-398.101 -113.922)" fill="#5793ce"/>
        <path id="Path_1939" data-name="Path 1939" d="M410.585,149.373l-4.624-2.67a3.064,3.064,0,0,1-1.271-2.388h0c-.014-.922.531-1.347,1.217-.952l4.624,2.67a3.055,3.055,0,0,1,1.27,2.387h0C411.817,149.342,411.272,149.768,410.585,149.373Z" transform="translate(-398.065 -111.664)" fill="#5793ce"/>
        <path id="Path_1940" data-name="Path 1940" d="M438.072,188.493l-12.348-7.129a3.057,3.057,0,0,1-1.271-2.388h0c-.016-.922.529-1.347,1.216-.952l12.35,7.13a3.054,3.054,0,0,1,1.27,2.387h0C439.3,188.464,438.758,188.89,438.072,188.493Z" transform="translate(-394.263 -104.995)" fill="#5793ce"/>
        <path id="Path_1941" data-name="Path 1941" d="M409.119,160.152l-2.968-1.715a3.055,3.055,0,0,1-1.27-2.387h0c-.016-.922.529-1.349,1.216-.953l2.968,1.715a3.054,3.054,0,0,1,1.27,2.387h0C410.35,160.121,409.807,160.547,409.119,160.152Z" transform="translate(-398.028 -109.406)" fill="#5793ce"/>
        <path id="Path_1942" data-name="Path 1942" d="M410.027,172.3l-3.684-2.127a3.056,3.056,0,0,1-1.271-2.388h0c-.014-.922.531-1.347,1.216-.952l3.687,2.128a3.061,3.061,0,0,1,1.27,2.388h0C411.26,172.272,410.715,172.7,410.027,172.3Z" transform="translate(-397.992 -107.148)" fill="#5793ce"/>
        <path id="Path_1943" data-name="Path 1943" d="M423.026,179.807l-9.718-5.611a3.056,3.056,0,0,1-1.27-2.387h0c-.016-.923.529-1.349,1.216-.952l9.717,5.61a3.053,3.053,0,0,1,1.271,2.387h0C424.256,179.776,423.713,180.2,423.026,179.807Z" transform="translate(-396.651 -106.374)" fill="#5793ce"/>
        <path id="Path_1944" data-name="Path 1944" d="M413.423,180.076l-6.987-4.035a3.057,3.057,0,0,1-1.27-2.386h0c-.015-.923.529-1.349,1.216-.953l6.987,4.034a3.052,3.052,0,0,1,1.27,2.387h0C414.655,180.046,414.11,180.471,413.423,180.076Z" transform="translate(-397.973 -106.019)" fill="#5793ce"/>
        <path id="Path_1945" data-name="Path 1945" d="M426.257,158.42l-12.351-7.13a3.054,3.054,0,0,1-1.27-2.387h0c-.016-.923.529-1.349,1.216-.953l12.35,7.131a3.052,3.052,0,0,1,1.27,2.387h0C427.487,158.39,426.944,158.816,426.257,158.42Z" transform="translate(-396.536 -110.781)" fill="#5793ce"/>
        <path id="Path_1946" data-name="Path 1946" d="M427.391,153.261l-21.525-12.427a3.05,3.05,0,0,1-1.27-2.387h0c-.016-.922.529-1.347,1.215-.952l21.525,12.427a3.054,3.054,0,0,1,1.27,2.387h0C428.622,153.232,428.077,153.658,427.391,153.261Z" transform="translate(-398.083 -112.793)" fill="#5793ce"/>
        <path id="Path_1947" data-name="Path 1947" d="M418.406,159.7l-12.348-7.129a3.057,3.057,0,0,1-1.271-2.388h0c-.016-.923.529-1.349,1.216-.952l12.35,7.129a3.056,3.056,0,0,1,1.27,2.387h0C419.637,159.67,419.092,160.1,418.406,159.7Z" transform="translate(-398.046 -110.535)" fill="#5793ce"/>
        <path id="Path_1948" data-name="Path 1948" d="M432.843,162.223l-4.488-2.591a3.057,3.057,0,0,1-1.27-2.387h0c-.014-.922.529-1.349,1.216-.953l4.487,2.591a3.057,3.057,0,0,1,1.271,2.387h0C434.074,162.193,433.53,162.619,432.843,162.223Z" transform="translate(-393.756 -109.176)" fill="#5793ce"/>
        <path id="Path_1949" data-name="Path 1949" d="M421.091,172.878l-14.845-8.572a3.057,3.057,0,0,1-1.27-2.387h0c-.014-.922.529-1.349,1.216-.953l14.845,8.572a3.055,3.055,0,0,1,1.271,2.387h0C422.323,172.847,421.778,173.274,421.091,172.878Z" transform="translate(-398.01 -108.277)" fill="#5793ce"/>
        <path id="Path_1950" data-name="Path 1950" d="M411.318,126.543l-10.914-6.3a3.056,3.056,0,0,1-1.27-2.388h0c-.016-.923.529-1.349,1.215-.952l10.915,6.3a3.06,3.06,0,0,1,1.27,2.388h0C412.55,126.514,412,126.941,411.318,126.543Z" transform="translate(-399.134 -116.754)" fill="#5793ce"/>
        <path id="Path_1951" data-name="Path 1951" d="M414,186.218l-12.641-7.3a3.054,3.054,0,0,1-1.27-2.387h0c-.016-.922.528-1.347,1.215-.95l12.642,7.3a3.056,3.056,0,0,1,1.27,2.387h0C415.226,186.188,414.682,186.614,414,186.218Z" transform="translate(-398.951 -105.465)" fill="#5793ce"/>
      </g>
      <path id="Path_1952" data-name="Path 1952" d="M418.057,221.839l-7.4-4.274a3.06,3.06,0,0,1-1.27-2.388h0c-.014-.922.529-1.349,1.216-.952L418,218.5a3.057,3.057,0,0,1,1.271,2.387h0C419.288,221.808,418.744,222.235,418.057,221.839Z" transform="translate(-221.479 -10.549)" fill="#5793ce"/>
      <path id="Path_1953" data-name="Path 1953" d="M431.805,229.775l-10.915-6.3a3.058,3.058,0,0,1-1.27-2.388h0c-.016-.921.529-1.347,1.217-.952l10.913,6.3a3.056,3.056,0,0,1,1.27,2.388h0C433.036,229.747,432.492,230.172,431.805,229.775Z" transform="translate(-219.51 -9.412)" fill="#5793ce"/>
      <path id="Path_1954" data-name="Path 1954" d="M418.44,198.808l-14.129-8.157a3.059,3.059,0,0,1-1.27-2.387h0c-.015-.922.529-1.349,1.216-.952l14.127,8.156a3.056,3.056,0,0,1,1.271,2.388h0C419.67,198.778,419.125,199.2,418.44,198.808Z" transform="translate(-222.699 -15.727)" fill="#5793ce"/>
      <path id="Path_1955" data-name="Path 1955" d="M409.126,205.058l-4.624-2.671A3.059,3.059,0,0,1,403.231,200h0c-.014-.922.531-1.347,1.217-.952l4.623,2.671a3.051,3.051,0,0,1,1.271,2.387h0C410.357,205.027,409.813,205.452,409.126,205.058Z" transform="translate(-222.663 -13.469)" fill="#5793ce"/>
      <path id="Path_1956" data-name="Path 1956" d="M407.661,215.836l-2.969-1.713a3.055,3.055,0,0,1-1.27-2.387h0c-.016-.923.529-1.349,1.215-.953l2.969,1.713a3.055,3.055,0,0,1,1.27,2.387h0C408.892,215.806,408.347,216.232,407.661,215.836Z" transform="translate(-222.626 -11.211)" fill="#5793ce"/>
      <path id="Path_1957" data-name="Path 1957" d="M424.8,214.1l-12.351-7.131a3.05,3.05,0,0,1-1.27-2.387h0c-.016-.922.529-1.349,1.215-.953l12.351,7.132a3.054,3.054,0,0,1,1.27,2.387h0C426.028,214.074,425.483,214.5,424.8,214.1Z" transform="translate(-221.134 -12.586)" fill="#5793ce"/>
      <path id="Path_1958" data-name="Path 1958" d="M425.931,208.946l-21.524-12.427a3.052,3.052,0,0,1-1.27-2.387h0c-.015-.922.529-1.349,1.215-.953l21.525,12.428a3.056,3.056,0,0,1,1.27,2.387h0C427.163,208.916,426.618,209.343,425.931,208.946Z" transform="translate(-222.681 -14.598)" fill="#5793ce"/>
      <path id="Path_1959" data-name="Path 1959" d="M416.947,215.385,404.6,208.253a3.048,3.048,0,0,1-1.271-2.387h0c-.016-.922.528-1.347,1.216-.95l12.35,7.129a3.056,3.056,0,0,1,1.27,2.387h0C418.178,215.354,417.633,215.781,416.947,215.385Z" transform="translate(-222.644 -12.34)" fill="#5793ce"/>
      <path id="Path_1960" data-name="Path 1960" d="M431.384,217.908l-4.488-2.591a3.063,3.063,0,0,1-1.27-2.388h0c-.016-.922.529-1.347,1.216-.952l4.487,2.591a3.055,3.055,0,0,1,1.271,2.387h0C432.615,217.877,432.07,218.3,431.384,217.908Z" transform="translate(-218.354 -10.981)" fill="#5793ce"/>
    </g>
    <g id="Group_369" data-name="Group 369" transform="translate(502.484 301.714)">
      <path id="Path_1961" data-name="Path 1961" d="M462.036,351.477l13.709-7.915,13.709,7.915-13.709,7.915Z" transform="translate(-462.036 -243.963)" fill="#d4ecff"/>
      <path id="Path_1962" data-name="Path 1962" d="M486.44,337.2l13.709-7.915,13.708,7.915-13.708,7.915Z" transform="translate(-457.341 -246.71)" fill="#d4ecff"/>
      <path id="Path_1963" data-name="Path 1963" d="M510.77,323.261l13.708-7.915,13.709,7.915-13.709,7.915Z" transform="translate(-452.66 -249.391)" fill="#d4ecff"/>
      <g id="Group_368" data-name="Group 368">
        <g id="Group_367" data-name="Group 367">
          <g id="Group_364" data-name="Group 364" transform="translate(29.099 40.363)">
            <path id="Path_1964" data-name="Path 1964" d="M500.149,344.01V301.8l-13.709-7.915v42.211Z" transform="translate(-486.44 -293.884)" fill="#8880f7"/>
            <path id="Path_1965" data-name="Path 1965" d="M497.937,301.8l13.708-7.915v42.211l-13.708,7.915Z" transform="translate(-484.228 -293.884)" fill="#8880f7"/>
            <path id="Path_1966" data-name="Path 1966" d="M500.149,344.01V301.8l-13.709-7.915v42.211Z" transform="translate(-486.44 -293.884)" fill="#8880f7"/>
          </g>
          <g id="Group_365" data-name="Group 365" transform="translate(0 67.941)">
            <path id="Path_1967" data-name="Path 1967" d="M475.745,355.308V331.564l-13.709-7.915v23.744Z" transform="translate(-462.036 -315.735)" fill="#8880f7"/>
            <path id="Path_1968" data-name="Path 1968" d="M473.533,331.564l13.709-7.915v23.744l-13.709,7.915Z" transform="translate(-459.824 -315.735)" fill="#8880f7"/>
            <path id="Path_1969" data-name="Path 1969" d="M462.036,324.926l13.709-7.915,13.709,7.915-13.709,7.915Z" transform="translate(-462.036 -317.012)" fill="#8880f7"/>
          </g>
          <g id="Group_366" data-name="Group 366" transform="translate(58.11)">
            <path id="Path_1970" data-name="Path 1970" d="M524.478,332.626V274.586l-13.708-7.915v58.041Z" transform="translate(-510.77 -258.756)" fill="#8a80f8"/>
            <path id="Path_1971" data-name="Path 1971" d="M522.267,274.586l13.709-7.915v58.041l-13.709,7.915Z" transform="translate(-508.559 -258.756)" fill="#8a80f8"/>
            <path id="Path_1972" data-name="Path 1972" d="M510.77,267.948l13.708-7.915,13.709,7.915-13.709,7.915Z" transform="translate(-510.77 -260.033)" fill="#8a80f8"/>
          </g>
        </g>
        <path id="Path_1973" data-name="Path 1973" d="M486.44,295.161l13.709-7.915,13.708,7.915-13.708,7.915Z" transform="translate(-457.341 -254.798)" fill="#8880f7"/>
      </g>
    </g>
    <g id="Group_375" data-name="Group 375" transform="translate(275.021 153.981)">
      <g id="Group_374" data-name="Group 374">
        <g id="Group_371" data-name="Group 371" transform="translate(3.186)">
          <path id="Path_1974" data-name="Path 1974" d="M300.615,283.9s-4.232-2.134-6.83,1.043-6.314,10.679-6.429,15.747,4.012,4.727,6.464,3.527,9.618-11.594,10.052-13.63-.512-4.79-1.2-5.328S300.615,283.9,300.615,283.9Z" transform="translate(-271.366 -107.843)" fill="#5793ce"/>
          <path id="Path_1975" data-name="Path 1975" d="M300.542,283.1l.2,4.383a2.485,2.485,0,0,1-1.239,2.281,4.876,4.876,0,0,1-3.265.507c-3.187-.512-3.471-1.423-3.7-5.806S300.542,283.1,300.542,283.1Z" transform="translate(-270.37 -108.058)" fill="#d4ecff"/>
          <g id="Group_370" data-name="Group 370" transform="translate(0 77.78)">
            <path id="Path_1976" data-name="Path 1976" d="M287.625,276.831s-4.232-2.133-6.831,1.045-6.314,10.678-6.428,15.747,4.011,4.727,6.464,3.527,9.618-11.594,10.052-13.63-.512-4.79-1.2-5.329S287.625,276.831,287.625,276.831Z" transform="translate(-273.865 -186.983)" fill="#5793ce"/>
            <path id="Path_1977" data-name="Path 1977" d="M287.552,276.026l.2,4.384a2.485,2.485,0,0,1-1.239,2.28,4.871,4.871,0,0,1-3.264.508c-3.187-.513-3.472-1.422-3.7-5.806S287.552,276.026,287.552,276.026Z" transform="translate(-272.869 -187.198)" fill="#d4ecff"/>
            <path id="Path_1978" data-name="Path 1978" d="M326.387,209.707c-1.253-20.378-22.07,3-22.07,3L290.07,226.67l-12.829,14.094a12.646,12.646,0,0,0-3.187,10.159l5.19,39.518a3.884,3.884,0,0,0,3.894,3.376,13.146,13.146,0,0,0,1.923-.168,4.828,4.828,0,0,0,4.288-5.122l-.949-36.962,26.943-16.242S327.639,230.085,326.387,209.707Z" transform="translate(-273.946 -201.367)" fill="#171c3a"/>
          </g>
          <path id="Path_1979" data-name="Path 1979" d="M339.377,216.219c-1.253-20.379-22.07,3-22.07,3l-14.247,13.964-12.83,14.094a12.648,12.648,0,0,0-3.186,10.159l5.189,39.518a3.884,3.884,0,0,0,3.894,3.376,13.154,13.154,0,0,0,1.923-.169,4.825,4.825,0,0,0,4.288-5.121l-.948-36.962,26.942-16.243S340.629,236.6,339.377,216.219Z" transform="translate(-271.446 -122.334)" fill="#181c3a"/>
          <path id="Path_1980" data-name="Path 1980" d="M325.5,160.379c15.781,6.543,15.465,15.872,15.465,15.872s-3.091,34.2-2.035,57.043c.44,9.549-50.733,10.277-43.1-15.2,9-30.037,5.626-54.353,9.837-58.021S321.418,158.686,325.5,160.379Z" transform="translate(-269.885 -131.909)" fill="#8880f7"/>
          <path id="Path_1981" data-name="Path 1981" d="M327.413,168.27c-.826,3.205-5.024,4.894-9.378,3.772s-7.212-4.629-6.388-7.833,5.025-4.892,9.377-3.77S328.238,165.066,327.413,168.27Z" transform="translate(-266.72 -131.528)" fill="#ffc2b0"/>
          <path id="Path_1982" data-name="Path 1982" d="M320.821,173.261a11.441,11.441,0,0,1-2.853-.367,10.5,10.5,0,0,1-5.531-3.389,6.027,6.027,0,0,1-1.4-5.362c.927-3.6,5.545-5.54,10.3-4.314a10.5,10.5,0,0,1,5.533,3.389,6.028,6.028,0,0,1,1.4,5.362h0C327.526,171.449,324.444,173.261,320.821,173.261Zm-2.376-12.295c-2.931,0-5.381,1.363-5.946,3.553a4.57,4.57,0,0,0,1.107,4.031,8.995,8.995,0,0,0,4.741,2.882c3.938,1.015,7.737-.434,8.458-3.23h0a4.569,4.569,0,0,0-1.105-4.031,8.994,8.994,0,0,0-4.741-2.882A10.124,10.124,0,0,0,318.445,160.966Z" transform="translate(-266.842 -131.65)" fill="#fff"/>
          <path id="Path_1983" data-name="Path 1983" d="M315.3,159.924a38.985,38.985,0,0,1-.137,5.634c-.086,1.572,5.419,3.041,6.842,1.618s.854-2.9,1.2-8.255S315.3,159.924,315.3,159.924Z" transform="translate(-266.015 -132.166)" fill="#ffc2b0"/>
          <path id="Path_1984" data-name="Path 1984" d="M323.2,158.575s-1.357,4.962-8.039,6.865l.1-4.508Z" transform="translate(-266.016 -131.82)" fill="#ea9c92"/>
          <path id="Path_1985" data-name="Path 1985" d="M329.315,149.475a12.148,12.148,0,1,1-14.8-8.721A12.146,12.146,0,0,1,329.315,149.475Z" transform="translate(-267.894 -135.323)" fill="#ffc2b0"/>
          <path id="Path_1986" data-name="Path 1986" d="M320.358,151.4s-6.689,2.864-11.321,2.9-3.611-3.845-3.611-3.845l13.747-1.987Z" transform="translate(-267.907 -133.764)" fill="#ea9c92"/>
          <path id="Path_1987" data-name="Path 1987" d="M308.509,154.528s5.827-2.473,10.938-1.442a5.364,5.364,0,0,1,3.089,1.836,1.824,1.824,0,0,0,.935.676c.906.205,2.39-3.556,4.151-3.642s2.938,1.163,1.493,3.475-.955,4.9-.291,5.272,7.715-5.028,1.5-17.347-22.015-5.683-24.471-3.187c0,0-2.589,2.256-4.693.248C301.156,140.418,298.8,158.093,308.509,154.528Z" transform="translate(-268.759 -136.137)" fill="#181c3a"/>
          <path id="Path_1988" data-name="Path 1988" d="M329.394,195.128v9.242a3.763,3.763,0,0,1-1.228,2.782l-18.984,17.309,2.156,3.3,25.072-18.183a5.094,5.094,0,0,0,2.076-3.591l1.694-16.118Z" transform="translate(-267.167 -125.8)" fill="#ffc2b0"/>
          <path id="Path_1989" data-name="Path 1989" d="M333.873,169.448s5.76,8.663,7.906,31.462c0,0-9.838,3.181-15.422,1.375S333.873,169.448,333.873,169.448Z" transform="translate(-264.129 -129.728)" fill="#8880f7"/>
          <path id="Path_1990" data-name="Path 1990" d="M325.636,178.633s-2.255,12.068-2.382,17.739a3.619,3.619,0,0,0,2.382,3.5h0Z" transform="translate(-264.46 -127.961)" fill="#396caa"/>
        </g>
        <g id="Group_372" data-name="Group 372" transform="translate(3.034 91.761)">
          <path id="Path_1991" data-name="Path 1991" d="M330.22,231.624l-4.195-.553-27.088-15.638a3.765,3.765,0,0,0-3.388.139l-19.193,11.077-2.537-.335v2.527h0a.99.99,0,0,0,.582.89l30.7,17.723a3.765,3.765,0,0,0,3.388-.141l20.9-12.063a1.368,1.368,0,0,0,.828-1.14h0Z" transform="translate(-273.818 -212.708)" fill="#5793ce"/>
          <path id="Path_1992" data-name="Path 1992" d="M309.87,220.849l-1.926-1.111H286.787l-10.43,6.018-2.537-.335v2.527h0a.99.99,0,0,0,.582.89l30.7,17.723a3.18,3.18,0,0,0,1.748.328Z" transform="translate(-273.818 -211.814)" fill="#396caa"/>
          <path id="Path_1993" data-name="Path 1993" d="M274.946,224.653l-1.126-.149v2.527h0a.99.99,0,0,0,.582.89l.541.312Z" transform="translate(-273.818 -210.897)" fill="#5793ce"/>
          <path id="Path_1994" data-name="Path 1994" d="M300.313,243.075a3.928,3.928,0,0,0,2.878-.18v-4.3h-2.878Z" transform="translate(-268.721 -208.185)" fill="#fff"/>
          <path id="Path_1995" data-name="Path 1995" d="M305.1,245.314l-30.7-17.723c-.868-.5-.76-1.377.244-1.957l20.9-12.063a3.769,3.769,0,0,1,3.388-.141l30.7,17.723c.868.5.761,1.377-.242,1.957l-20.9,12.063A3.768,3.768,0,0,1,305.1,245.314Z" transform="translate(-273.819 -213.093)" fill="#fff"/>
          <path id="Path_1996" data-name="Path 1996" d="M303.816,241.583l-25.524-14.736c-.723-.417-.631-1.146.2-1.626l11.2-6.3a3.13,3.13,0,0,1,2.818-.117l25.524,14.737c.721.417.631,1.145-.2,1.626l-11.2,6.3A3.131,3.131,0,0,1,303.816,241.583Z" transform="translate(-273.052 -212.048)" fill="#d4ecff"/>
        </g>
        <path id="Path_1997" data-name="Path 1997" d="M293.119,213.178,292.8,215.3a15.654,15.654,0,0,0,.138,5.431l.378,1.866a2.627,2.627,0,0,0,2.1,2.063h0a1.449,1.449,0,0,0,1.7-1.264l.507-4.529s1.158,1.519,1.717,1.519-.626-4.535-1.89-7.1S293.119,213.178,293.119,213.178Z" transform="translate(-267.166 -121.52)" fill="#ffc2b0"/>
        <path id="Path_1998" data-name="Path 1998" d="M303.767,185.806l-3.293,6.519a12.8,12.8,0,0,0-1.349,4.948l-1.43,22.3-4.333-.1-1.967-25.041a9.175,9.175,0,0,1,.112-2.314l2.246-12.7Z" transform="translate(-267.408 -127.81)" fill="#ffc2b0"/>
        <g id="Group_373" data-name="Group 373" transform="translate(0 78.484)">
          <path id="Path_1999" data-name="Path 1999" d="M304.465,249.159l-2.573-3.36-27.067-15.672a3.765,3.765,0,0,1-1.569-3.007l.024-22.159-1.556-2.032,1.462-.848,0,0a.986.986,0,0,1,1.061.061l30.674,17.761a3.765,3.765,0,0,1,1.569,3l-.026,24.134a1.373,1.373,0,0,1-.574,1.288h0Z" transform="translate(-271.188 -201.957)" fill="#173d7a"/>
          <path id="Path_2000" data-name="Path 2000" d="M285.747,236.452l-1.922-1.114L273.268,217l.011-12.042-1.556-2.032,1.462-.848,0,0a.986.986,0,0,1,1.061.061l30.674,17.761a3.164,3.164,0,0,1,1.157,1.351Z" transform="translate(-271.188 -201.957)" fill="#396caa"/>
          <path id="Path_2001" data-name="Path 2001" d="M272.413,203.83l-.69-.9,1.462-.848,0,0a.986.986,0,0,1,1.061.061l.54.312Z" transform="translate(-271.188 -201.957)" fill="#5793ce"/>
          <path id="Path_2002" data-name="Path 2002" d="M300.309,217.174a3.925,3.925,0,0,1,1.281,2.584l-3,1.731-1.437-2.5Z" transform="translate(-266.294 -199.029)" fill="#274f89"/>
          <path id="Path_2003" data-name="Path 2003" d="M303.548,220.615l-30.675-17.761c-.867-.5-1.572.03-1.574,1.186l-.025,24.135a3.767,3.767,0,0,0,1.568,3.006l30.675,17.761c.868.5,1.573-.03,1.574-1.189l.026-24.133A3.767,3.767,0,0,0,303.548,220.615Z" transform="translate(-271.274 -201.821)" fill="#5793ce"/>
        </g>
        <path id="Path_2004" data-name="Path 2004" d="M312.622,222.177l-.491,1.019a6.84,6.84,0,0,1-2.564,2.843l-3.048,1.878a3.038,3.038,0,0,1-3.11.072l-.1-.062a1.833,1.833,0,0,1-.259-2.818l3.184-3.273s-1.789,1.371-2.291.819c-.367-.405,1.735-2.379,3.349-2.443a6.386,6.386,0,0,0,3.177-1.333Z" transform="translate(-265.265 -120.218)" fill="#ffc2b0"/>
        <path id="Path_2005" data-name="Path 2005" d="M306.863,159.719s-11.674,12.7-16.382,24.352a23.83,23.83,0,0,0,13.761,10.013C314.014,196.906,306.863,159.719,306.863,159.719Z" transform="translate(-267.579 -131.6)" fill="#8880f7"/>
        <path id="Path_2006" data-name="Path 2006" d="M300.593,190.856l1.892-18.276L298.027,189.7A25.265,25.265,0,0,0,300.593,190.856Z" transform="translate(-266.127 -129.125)" fill="#396caa"/>
        <path id="Path_2007" data-name="Path 2007" d="M312.058,157.708l-3.137-.861A7.574,7.574,0,0,0,312.6,159.8c2.187.6,2.527-1.251,2.527-1.251Z" transform="translate(-264.031 -132.152)" fill="#fff"/>
      </g>
      <path id="Path_2008" data-name="Path 2008" d="M326.166,153.641a1.747,1.747,0,1,1-1.747-1.748A1.748,1.748,0,0,1,326.166,153.641Z" transform="translate(-261.385 -133.105)" fill="#fff"/>
    </g>
    <path id="Path_2009" data-name="Path 2009" d="M545.144,161.535l-5.261-10.7,10.7-5.261,5.262,10.7Zm-2.069-9.614,3.156,6.421,6.42-3.155-3.156-6.421Z" transform="translate(55.425 19.659)" fill="#8880f7"/>
    <g id="Group_381" data-name="Group 381" transform="translate(318.96 349.496)">
      <path id="Path_2010" data-name="Path 2010" d="M363.251,330.756c-11.687-6.747-30.633-6.747-42.318,0s-11.683,17.684,0,24.431,30.631,6.747,42.317,0S374.936,337.5,363.251,330.756Zm-11.433,17.83c-5.372,3.1-14.08,3.1-19.451,0s-5.372-8.129,0-11.229,14.081-3.1,19.453,0S357.19,345.486,351.818,348.586Z" transform="translate(-307.345 -295.182)" fill="#d4ecff"/>
      <g id="Group_380" data-name="Group 380">
        <g id="Group_376" data-name="Group 376" transform="translate(4.067)">
          <path id="Path_2011" data-name="Path 2011" d="M316.642,329.182l10.673.167a11.347,11.347,0,0,1,3.372-2.834c5.869-3.39,15.1-3.651,21.493-.791l6.342-5.966,9.767.153c-.483-.316-.979-.628-1.5-.93-13.572-7.835-35.576-7.835-49.148,0a25.782,25.782,0,0,0-6.106,4.758Z" transform="translate(-311.534 -297.605)" fill="#181c3a"/>
          <path id="Path_2012" data-name="Path 2012" d="M360.707,305.838v15.5l-9.766-.153v-15.5Z" transform="translate(-303.952 -299.032)" fill="#181c3a"/>
          <path id="Path_2013" data-name="Path 2013" d="M345.622,311.651v15.5l6.343-5.965v-15.5Z" transform="translate(-304.976 -299.032)" fill="#181c3a"/>
          <path id="Path_2014" data-name="Path 2014" d="M324.776,315.093v15.5l14.042-11.442,10.823,7.817v-15.5l-9.965-4.835s-13.721,4.2-14.434,4.378S324.776,315.093,324.776,315.093Z" transform="translate(-308.994 -298.85)" fill="#181c3a"/>
          <path id="Path_2015" data-name="Path 2015" d="M315.818,313.589v15.5l10.673.166v-15.5Z" transform="translate(-310.71 -297.512)" fill="#181c3a"/>
          <path id="Path_2016" data-name="Path 2016" d="M311.534,309.024v15.5l5.108,5.443v-15.5Z" transform="translate(-311.534 -298.39)" fill="#181c3a"/>
          <path id="Path_2017" data-name="Path 2017" d="M316.642,316.183l10.673.166a11.363,11.363,0,0,1,3.372-2.833c5.869-3.39,15.1-3.651,21.493-.791l6.342-5.967,9.767.154c-.483-.316-.979-.628-1.5-.93-13.572-7.835-35.576-7.835-49.148,0a25.782,25.782,0,0,0-6.106,4.758Z" transform="translate(-311.534 -300.106)" fill="#181c3a"/>
        </g>
        <g id="Group_378" data-name="Group 378" transform="translate(40.937 9.272)">
          <path id="Path_2018" data-name="Path 2018" d="M348.318,312.287v14.248l9.24-2.212s-.543-8.338-.739-8.561S348.318,312.287,348.318,312.287Z" transform="translate(-341.327 -307.035)" fill="#5793ce"/>
          <g id="Group_377" data-name="Group 377">
            <path id="Path_2019" data-name="Path 2019" d="M342.455,324.236v15.5l1,1.065,6.514-3.756s-1.011-11.831-1.129-12.069S342.455,324.236,342.455,324.236Z" transform="translate(-342.455 -304.736)" fill="#173d7a"/>
            <path id="Path_2020" data-name="Path 2020" d="M355.032,320.881l-5.586,5.252c4.654,3.682,4.1,8.873-1.653,12.2a19.857,19.857,0,0,1-5.338,2.052l5.774,6.152-5.115,4.811a46.482,46.482,0,0,0,17.727-5.484c11.666-6.735,13.294-17.067,4.9-24.812Z" transform="translate(-342.455 -305.381)" fill="#396caa"/>
            <path id="Path_2021" data-name="Path 2021" d="M343.007,336.719v15.5l12.666-4.891,15.234-14.535-.057-16.458L354.733,329.11Z" transform="translate(-342.349 -306.256)" fill="#396caa"/>
            <path id="Path_2022" data-name="Path 2022" d="M355.032,307.882l-5.586,5.252c4.654,3.682,4.1,8.873-1.653,12.2a19.857,19.857,0,0,1-5.338,2.052l5.774,6.152-5.115,4.811a46.482,46.482,0,0,0,17.727-5.484c11.666-6.735,13.294-17.067,4.9-24.812Z" transform="translate(-342.455 -307.882)" fill="#d4ecff"/>
          </g>
        </g>
        <g id="Group_379" data-name="Group 379" transform="translate(0 13.652)">
          <path id="Path_2023" data-name="Path 2023" d="M349.676,345.745l-5.088-5.421a24.319,24.319,0,0,1-13.244-2.7c-3.741-2.159-5.28-5.106-4.626-7.915l-12.117-.188-4.661-4.964c-4.076,6.993-1.295,15.028,8.357,20.6,7.091,4.095,16.486,6.044,25.777,5.861Z" transform="translate(-308.123 -309.054)" fill="#396caa"/>
          <path id="Path_2024" data-name="Path 2024" d="M344.075,336.961v15.5L308.126,332.54V317.033l5.249,2.122Z" transform="translate(-308.123 -310.501)" fill="#396caa"/>
          <path id="Path_2025" data-name="Path 2025" d="M343.875,329.328v15.5l-5.6,5.269V334.6Z" transform="translate(-302.323 -308.136)" fill="#173d7a"/>
          <path id="Path_2026" data-name="Path 2026" d="M349.676,332.747l-5.088-5.422a24.319,24.319,0,0,1-13.244-2.7c-3.741-2.159-5.28-5.106-4.626-7.915l-12.117-.188-4.661-4.964c-4.076,6.995-1.295,15.028,8.357,20.6,7.091,4.095,16.486,6.045,25.777,5.861Z" transform="translate(-308.123 -311.555)" fill="#5793ce"/>
        </g>
      </g>
    </g>
    <g id="Group_384" data-name="Group 384" transform="translate(474.849 105.181)">
      <g id="Group_382" data-name="Group 382">
        <path id="Path_2027" data-name="Path 2027" d="M476.3,113.916,444.418,95.509a1.63,1.63,0,0,0-1.649-.131l0-.021-3.092,1.786,2.174.794v23.219a6.143,6.143,0,0,0,2.565,4.9l30.474,17.594v2.725l3.124-1.8-.017-.007a2.269,2.269,0,0,0,.867-2.044V118.818A6.147,6.147,0,0,0,476.3,113.916Z" transform="translate(-438.702 -95.211)" fill="#8a80f8"/>
        <path id="Path_2028" data-name="Path 2028" d="M473.308,145.989,441.426,127.58a6.141,6.141,0,0,1-2.566-4.9V98.973c0-1.89,1.148-2.757,2.566-1.94l31.882,18.408a6.143,6.143,0,0,1,2.565,4.9v23.707C475.873,145.937,474.725,146.807,473.308,145.989Z" transform="translate(-438.86 -94.92)" fill="#8880f7"/>
      </g>
      <g id="Group_383" data-name="Group 383" transform="translate(8.985 20.472)">
        <path id="Path_2029" data-name="Path 2029" d="M450.7,116.4c0,1.371-.963,1.928-2.152,1.241a4.755,4.755,0,0,1-2.151-3.725c0-1.371.963-1.928,2.151-1.242A4.755,4.755,0,0,1,450.7,116.4Z" transform="translate(-446.395 -112.38)" fill="#fff"/>
        <path id="Path_2030" data-name="Path 2030" d="M456.163,119.555c0,1.372-.963,1.928-2.151,1.242a4.756,4.756,0,0,1-2.152-3.726c0-1.371.965-1.928,2.152-1.242A4.759,4.759,0,0,1,456.163,119.555Z" transform="translate(-445.344 -111.773)" fill="#fff"/>
        <path id="Path_2031" data-name="Path 2031" d="M461.629,122.712c0,1.37-.963,1.927-2.152,1.24a4.755,4.755,0,0,1-2.151-3.726c0-1.371.964-1.927,2.151-1.24A4.751,4.751,0,0,1,461.629,122.712Z" transform="translate(-444.292 -111.166)" fill="#fff"/>
      </g>
    </g>
    <g id="Group_387" data-name="Group 387" transform="translate(320.537 69.323)">
      <g id="Group_385" data-name="Group 385">
        <path id="Path_2032" data-name="Path 2032" d="M346.176,83.489,314.9,65.431a1.6,1.6,0,0,0-1.616-.13v-.02l-3.033,1.753s1.343.49,2.132.78V90.591A6.026,6.026,0,0,0,314.9,95.4l29.9,17.26v2.672l3.064-1.765-.017-.006a2.228,2.228,0,0,0,.85-2.006V88.3A6.026,6.026,0,0,0,346.176,83.489Z" transform="translate(-309.291 -65.138)" fill="#5793ce"/>
        <path id="Path_2033" data-name="Path 2033" d="M343.241,114.952,311.963,96.894a6.026,6.026,0,0,1-2.517-4.809V68.829c0-1.853,1.127-2.706,2.517-1.9l31.278,18.058a6.032,6.032,0,0,1,2.516,4.81v23.258C345.757,114.9,344.63,115.755,343.241,114.952Z" transform="translate(-309.446 -64.852)" fill="#d4ecff"/>
      </g>
      <g id="Group_386" data-name="Group 386" transform="translate(8.814 20.084)">
        <path id="Path_2034" data-name="Path 2034" d="M321.059,85.925c0,1.345-.946,1.891-2.112,1.217a4.666,4.666,0,0,1-2.109-3.655c0-1.346.946-1.891,2.109-1.217A4.662,4.662,0,0,1,321.059,85.925Z" transform="translate(-316.838 -81.982)" fill="#fff"/>
        <path id="Path_2035" data-name="Path 2035" d="M326.42,89.021c0,1.345-.944,1.891-2.109,1.217a4.661,4.661,0,0,1-2.11-3.655c0-1.346.944-1.891,2.11-1.219A4.665,4.665,0,0,1,326.42,89.021Z" transform="translate(-315.806 -81.386)" fill="#fff"/>
        <path id="Path_2036" data-name="Path 2036" d="M331.783,92.115c0,1.346-.946,1.892-2.112,1.22a4.663,4.663,0,0,1-2.111-3.656c0-1.345.944-1.89,2.111-1.219A4.668,4.668,0,0,1,331.783,92.115Z" transform="translate(-314.775 -80.791)" fill="#fff"/>
      </g>
    </g>
  </g>
</svg>
