<svg xmlns="http://www.w3.org/2000/svg" xmlns:xlink="http://www.w3.org/1999/xlink" viewBox="0 0 475.651 326.35">
  <defs>
    <linearGradient id="linear-gradient" x1="0.5" y1="1.14" x2="0.5" y2="-0.135" gradientUnits="objectBoundingBox">
      <stop offset="0" stop-color="#dcf1fb"/>
      <stop offset="1" stop-color="#0cf"/>
    </linearGradient>
    <linearGradient id="linear-gradient-2" x1="96.815" y1="1.14" x2="96.815" y2="-0.135" xlink:href="#linear-gradient"/>
    <linearGradient id="linear-gradient-3" y1="0.5" x2="1" y2="0.5" gradientUnits="objectBoundingBox">
      <stop offset="0" stop-color="#fff"/>
      <stop offset="1" stop-color="#bff2ff"/>
    </linearGradient>
    <linearGradient id="linear-gradient-4" x1="197.863" y1="1.062" x2="197.528" y2="0.252" gradientUnits="objectBoundingBox">
      <stop offset="0" stop-color="#fcc198"/>
      <stop offset="0.214" stop-color="#fbbd96"/>
      <stop offset="0.424" stop-color="#f8b192"/>
      <stop offset="0.632" stop-color="#f39d8a"/>
      <stop offset="0.839" stop-color="#ec8280"/>
      <stop offset="1" stop-color="#e66776"/>
    </linearGradient>
    <linearGradient id="linear-gradient-5" x1="128.43" y1="-4.432" x2="129.552" y2="-3.071" xlink:href="#linear-gradient-4"/>
    <linearGradient id="linear-gradient-6" x1="302.469" y1="61.785" x2="302.883" y2="63.214" xlink:href="#linear-gradient-4"/>
    <linearGradient id="linear-gradient-7" x1="293.523" y1="58.668" x2="293.938" y2="60.097" xlink:href="#linear-gradient-4"/>
    <linearGradient id="linear-gradient-9" x1="71.825" y1="1.14" x2="71.825" y2="-0.135" xlink:href="#linear-gradient"/>
    <linearGradient id="linear-gradient-10" x1="-0.203" y1="-0.18" x2="1.264" y2="1.122" gradientUnits="objectBoundingBox">
      <stop offset="0" stop-color="#aaa0ff"/>
      <stop offset="1" stop-color="#6b55ff"/>
    </linearGradient>
    <linearGradient id="linear-gradient-11" x1="0.814" y1="-0.176" x2="0.041" y2="1.535" xlink:href="#linear-gradient-4"/>
    <linearGradient id="linear-gradient-12" x1="151.827" y1="-207.235" x2="151.572" y2="-202.918" xlink:href="#linear-gradient-4"/>
    <linearGradient id="linear-gradient-13" x1="97.92" y1="-50.167" x2="97.032" y2="-48.794" xlink:href="#linear-gradient-4"/>
    <linearGradient id="linear-gradient-14" x1="52.994" y1="0.816" x2="52.557" y2="-0.047" xlink:href="#linear-gradient-4"/>
    <linearGradient id="linear-gradient-15" x1="82.45" y1="-0.577" x2="81.741" y2="-1.421" xlink:href="#linear-gradient-4"/>
    <linearGradient id="linear-gradient-16" x1="120.314" y1="-4.266" x2="119.184" y2="-2.655" xlink:href="#linear-gradient-4"/>
    <linearGradient id="linear-gradient-17" x1="221.115" y1="-0.705" x2="220.808" y2="1.236" xlink:href="#linear-gradient-4"/>
    <linearGradient id="linear-gradient-18" x1="122.395" y1="0.069" x2="121.479" y2="1.469" xlink:href="#linear-gradient-4"/>
  </defs>
  <g id="Group_344" data-name="Group 344" transform="translate(363.18 -137.312)">
    <path id="Path_1736" data-name="Path 1736" d="M-373.44,443.826a2.562,2.562,0,0,1-2.324-1.478,2.561,2.561,0,0,1,1.235-3.408L-323.4,415a2.545,2.545,0,0,1,1.42-.22l63.772,8.391,48.7-45.34a2.541,2.541,0,0,1,2.188-.649l37.776,6.567,81.122-108.161a2.585,2.585,0,0,1,.936-.773l49.58-23.936a2.579,2.579,0,0,1,1.414-.236L-8.8,253.9l35.015-41.684a2.56,2.56,0,0,1,1.288-.825l18.04-4.92L74.1,172.883A2.564,2.564,0,1,1,78,176.205L48.939,210.4a2.559,2.559,0,0,1-1.279.813l-18.034,4.918-35.388,42.13a2.572,2.572,0,0,1-2.263.9l-28.324-3.332-48.345,23.34-81.692,108.923a2.55,2.55,0,0,1-2.491.987l-38.07-6.62L-255.6,427.748a2.583,2.583,0,0,1-2.082.666l-64.225-8.451-50.453,23.622A2.524,2.524,0,0,1-373.44,443.826Z" transform="translate(12.828 16.2)" fill="#d3d5ff"/>
    <path id="Rectangle_468" data-name="Rectangle 468" d="M1.554,0H155.74a1.553,1.553,0,0,1,1.553,1.553V172.836a1.554,1.554,0,0,1-1.554,1.554H1.554A1.554,1.554,0,0,1,0,172.836V1.554A1.554,1.554,0,0,1,1.554,0Z" transform="translate(-246.794 170.798)" fill="#fff"/>
    <g id="Group_312" data-name="Group 312" transform="translate(-23.938 287.057)">
      <g id="Group_306" data-name="Group 306" transform="translate(0.598)">
        <rect id="Rectangle_469" data-name="Rectangle 469" width="94.498" height="104.771" rx="0.934" fill="#fff"/>
        <rect id="Rectangle_470" data-name="Rectangle 470" width="44.169" height="5.135" transform="translate(24.994 102.203)" fill="#0cf"/>
        <path id="Path_1737" data-name="Path 1737" d="M-108.225,310.993l16.093,70.189h2.055l-15.408-70.874Z" transform="translate(161.295 -206.222)" fill="url(#linear-gradient)"/>
        <path id="Path_1738" data-name="Path 1738" d="M-111.78,310.993l-16.091,70.189h-2.055l15.408-70.874Z" transform="translate(151.154 -206.222)" fill="url(#linear-gradient-2)"/>
      </g>
      <g id="Group_311" data-name="Group 311" transform="translate(0 1.465)">
        <g id="Group_308" data-name="Group 308" transform="translate(0 0)">
          <g id="Group_307" data-name="Group 307">
            <circle id="Ellipse_100" data-name="Ellipse 100" cx="37.669" cy="37.669" r="37.669" transform="translate(0 28.831) rotate(-22.5)" fill="#d3d5ff"/>
            <circle id="Ellipse_101" data-name="Ellipse 101" cx="29.929" cy="29.929" r="29.929" transform="translate(10.113 33.02) rotate(-22.5)" fill="#ff5668"/>
          </g>
          <circle id="Ellipse_102" data-name="Ellipse 102" cx="19.781" cy="19.781" r="19.781" transform="translate(26.523 65.574) rotate(-80.783)" fill="url(#linear-gradient-3)"/>
          <path id="Path_1739" data-name="Path 1739" d="M-100.146,276.6a8.429,8.429,0,0,1-8.428,8.428A8.428,8.428,0,0,1-117,276.6a8.427,8.427,0,0,1,8.428-8.428A8.428,8.428,0,0,1-100.146,276.6Z" transform="translate(157.791 -227.378)" fill="#ff5668"/>
        </g>
        <g id="Group_310" data-name="Group 310" transform="translate(49.475 22.32)">
          <line id="Line_1" data-name="Line 1" y1="18.577" x2="25.113" transform="translate(0 8.233)" fill="none" stroke="#232839" stroke-linecap="round" stroke-linejoin="round" stroke-width="1.407"/>
          <g id="Group_309" data-name="Group 309" transform="translate(19.888)">
            <path id="Path_1740" data-name="Path 1740" d="M-97.528,267.189v-5.16l9.159-6.449-3.483,7.868Z" transform="translate(97.528 -255.58)" fill="#05ccff"/>
            <path id="Path_1741" data-name="Path 1741" d="M-97.482,264.628l4.726,2.073,9.586-5.8-8.6.029Z" transform="translate(97.549 -253.092)" fill="#05ccff"/>
          </g>
        </g>
      </g>
    </g>
    <g id="Group_313" data-name="Group 313" transform="translate(61.361 174.763)">
      <g id="Bitcoin">
        <path id="Path_7" data-name="Path 7" d="M-83.141,162.836h44.059a3.526,3.526,0,0,1,3.526,3.526v44.059a3.525,3.525,0,0,1-3.526,3.524H-83.141a3.525,3.525,0,0,1-3.526-3.524V166.362A3.526,3.526,0,0,1-83.141,162.836Z" transform="translate(86.667 -162.836)" fill="#f7931a"/>
        <path id="bitcoin-2" data-name="bitcoin" d="M-55.236,189.978a3.987,3.987,0,0,0-1.4-3.373,17.254,17.254,0,0,0-1.554-1.089c.078-.032.134-.069.183-.084,3.159-.913,3.769-5.4,1.972-7.322a7.713,7.713,0,0,0-2.54-1.783c-.682-.3-1.372-.552-2.085-.81.249-1.287.618-3.053.894-4.478l-2.688-.522c-.3,1.4-.632,3.121-.9,4.381l-2.16-.42c.247-1.265.6-2.984.876-4.387l-2.666-.518c-.3,1.42-.644,3.19-.913,4.45-1.834-.38-3.605-.723-5.439-1.1-.192.987-.393,1.9-.581,2.868.39.075.735.142,1.053.227.343.067.688.135,1.007.22a1.4,1.4,0,0,1,1.13,1.794c-.792,3.83-1.588,7.683-2.358,11.515-.166.852-.6,1.1-1.423.942l-1.793-.349c-.395,1.045-.779,2.042-1.174,3.087l5.436,1.128c-.269,1.379-.632,3.122-.913,4.571l2.688.522c.305-1.444.635-3.144.923-4.5.754.169,1.438.327,2.147.489-.269,1.379-.618,3.052-.891,4.455l2.691.522c.3-1.444.634-3.143.917-4.474.1,0,.166.009.239,0,1.326.044,2.659.183,3.959.126a5.154,5.154,0,0,0,4.185-2.263,7.888,7.888,0,0,0,1.174-3.828Zm-10.846-12.319c1.679.327,3.337.506,4.719,1.491a2.246,2.246,0,0,1,1.011,2.534,2.356,2.356,0,0,1-2.167,1.821,13.069,13.069,0,0,1-4.673-.5l1.111-5.344Zm3.251,14.566a11.631,11.631,0,0,1-4.777-.214c-.436-.084-.869-.192-1.351-.286l1.227-5.939c2.045.4,4.1.629,5.843,1.85a2.438,2.438,0,0,1,1.112,2.626,2.451,2.451,0,0,1-2.051,1.962Z" transform="translate(90.814 -159.688)" fill="#f5f5f5"/>
      </g>
    </g>
    <g id="Group_316" data-name="Group 316" transform="translate(-226.563 200.318)">
      <g id="Group_314" data-name="Group 314">
        <rect id="Rectangle_471" data-name="Rectangle 471" width="7.978" height="30.004" transform="translate(0 98.793)" fill="#181c3a"/>
        <rect id="Rectangle_472" data-name="Rectangle 472" width="7.978" height="55.251" transform="translate(15.388 73.546)" fill="#7875d0"/>
        <rect id="Rectangle_473" data-name="Rectangle 473" width="7.98" height="87.633" transform="translate(30.774 41.164)" fill="#181c3a"/>
        <rect id="Rectangle_474" data-name="Rectangle 474" width="7.98" height="128.797" transform="translate(46.162)" fill="#7875d0"/>
      </g>
      <g id="Group_315" data-name="Group 315" transform="translate(60.694 48.726)">
        <rect id="Rectangle_475" data-name="Rectangle 475" width="7.98" height="18.653" transform="translate(0 61.417)" fill="#181c3a"/>
        <rect id="Rectangle_476" data-name="Rectangle 476" width="7.978" height="34.349" transform="translate(15.388 45.722)" fill="#7875d0"/>
        <rect id="Rectangle_477" data-name="Rectangle 477" width="7.978" height="54.48" transform="translate(30.775 25.59)" fill="#181c3a"/>
        <rect id="Rectangle_478" data-name="Rectangle 478" width="7.978" height="80.071" transform="translate(46.163)" fill="#7875d0"/>
      </g>
    </g>
    <g id="Group_317" data-name="Group 317" transform="translate(-355.33 171.81)">
      <path id="Path_1742" data-name="Path 1742" d="M-296.316,197.994a37.172,37.172,0,0,1-37.172,37.172,37.172,37.172,0,0,1-37.17-37.172,37.17,37.17,0,0,1,37.17-37.17A37.171,37.171,0,0,1-296.316,197.994Z" transform="translate(370.658 -160.824)" fill="#d3d5ff"/>
      <path id="Path_1743" data-name="Path 1743" d="M-340.241,197.994l21.38-30.4a36.995,36.995,0,0,0-21.38-6.771,37.014,37.014,0,0,0-15.965,3.6Z" transform="translate(377.411 -160.824)" fill="#c4c3fc"/>
      <path id="Path_1744" data-name="Path 1744" d="M-333.488,160.824a37.17,37.17,0,0,0-37.17,37.17h37.17Z" transform="translate(370.658 -160.824)" fill="#8880f7"/>
    </g>
    <g id="Group_325" data-name="Group 325" transform="translate(-325.068 198.377)">
      <path id="Path_1745" data-name="Path 1745" d="M-305.361,218.271s-10.846,4.841-5.29,17.663,23.509,29.921,29.065,31.2,8.548-2.138,8.121-8.121-16.67-37.613-23.082-41.034S-305.361,218.271-305.361,218.271Z" transform="translate(367.695 -161.359)" fill="#8880f7"/>
      <path id="Path_1746" data-name="Path 1746" d="M-293.731,351.233s3.634,4.488,4.274,4.917,10.686,5.342,10.045,5.771-20.515-1.711-20.515-1.711l.854-5.771-.214-2.992Z" transform="translate(373.446 -98.419)" fill="#0d1b4a"/>
      <path id="Path_1747" data-name="Path 1747" d="M-343.835,351.525s3.633,4.488,4.276,4.915,10.685,5.344,10.043,5.771-20.517-1.709-20.517-1.709l.855-5.771-.214-2.992Z" transform="translate(350.033 -98.282)" fill="#0d1b4a"/>
      <path id="Path_1748" data-name="Path 1748" d="M-291.4,259.957s5.7,42.172,7.978,62.12,5.7,71.807,5.7,71.807-2.849,2.851-9.688,1.142c0,0-14.816-62.12-17.1-70.668s-24.506-60.98-24.506-60.98Z" transform="translate(359.856 -141.069)" fill="#181c3a"/>
      <path id="Path_1749" data-name="Path 1749" d="M-338.586,272.554s.569,37.043,2.28,53c0,0-13.109,64.969-13.678,70.667,0,0,5.13,3.42,10.258,1.142,0,0,20.517-58.13,24.506-71.808s13.678-62.12,13.678-62.12-19.947-9.118-33.624-2.279C-335.166,261.156-339.156,263.435-338.586,272.554Z" transform="translate(350.056 -141.697)" fill="#181c3a"/>
      <g id="Group_320" data-name="Group 320" transform="translate(9.7)">
        <path id="Path_1750" data-name="Path 1750" d="M-311.577,201.024l2.28,18.237-4.435,8.546-12.947-8.546,3.134-22.226Z" transform="translate(351.246 -170.471)" fill="url(#linear-gradient-4)"/>
        <g id="Group_319" data-name="Group 319" transform="translate(19.295)">
          <g id="Group_318" data-name="Group 318">
            <path id="Path_1751" data-name="Path 1751" d="M-327.846,198.357c.684,7.272,10.1,19.924,17.37,19.24s9.647-14.445,8.965-21.716a13.225,13.225,0,0,0-14.406-11.929A13.224,13.224,0,0,0-327.846,198.357Z" transform="translate(331.378 -176.611)" fill="url(#linear-gradient-5)"/>
            <path id="Path_1752" data-name="Path 1752" d="M-327.28,193.983s-.814-6.424,3.708-8.594,16.464.723,20.806-4.7,9.95,3.075,7.237,7.417-3.948,9.261-17.549,7.056c-6.694-1.086-8.14,3.438-7.779,5.608s2.714,5.788,2.714,6.694-1.448.9-1.991.18-1.266-4.7-3.8-4.161.543,5.97,2.714,6.694a2.063,2.063,0,0,1,.18,1.991c-.543.9-9.046-5.609-9.226-11.76S-327.28,193.983-327.28,193.983Z" transform="translate(330.272 -178.93)" fill="#0d1b4a"/>
          </g>
        </g>
        <path id="Path_1753" data-name="Path 1753" d="M-301.474,209.833l-4.719,8.4-11.951-9.257-3.2,3.846s-21.586,8.121-22.013,10.259,1.549,63.685,1.549,63.685v4.7h58.29l2.565-68.816-18.38-8.975Z" transform="translate(343.422 -164.89)" fill="#8880f7"/>
      </g>
      <g id="Group_322" data-name="Group 322" transform="translate(28.577 78.525)">
        <path id="Path_1754" data-name="Path 1754" d="M-305.013,240.239a6.122,6.122,0,0,0,2.955-2.5,41.214,41.214,0,0,0,1.665-5.287s1.508-.144,1.863,1.761-.946,2.245-.415,3.137,3.929-.01,4.05.693-.271,1.115-.754,1.836-.157,1.617-1.037,2.549-1.061,1.742-2.373,1.679-1.755-1.463-2.86-1.332a7.9,7.9,0,0,0-2.2.669Z" transform="translate(342.492 -232.448)" fill="url(#linear-gradient-6)"/>
        <g id="Group_321" data-name="Group 321" transform="translate(0 6.498)">
          <path id="Path_1755" data-name="Path 1755" d="M-306.421,238.019l2.771-.909,1.249,4.122-2.526,1.582Z" transform="translate(341.834 -236.768)" fill="#fff"/>
          <path id="Path_1756" data-name="Path 1756" d="M-328.022,249.256s23.826-10.717,33.891-12.379l1.787,5.989s-28.025,21.041-35.163,15.563C-332.352,254.738-330.569,251.168-328.022,249.256Z" transform="translate(330.556 -236.877)" fill="#735ffb"/>
        </g>
      </g>
      <g id="Group_324" data-name="Group 324" transform="translate(81.578 77.954)">
        <path id="Path_1757" data-name="Path 1757" d="M-268.89,239.852a6.13,6.13,0,0,0,2.954-2.5,41.286,41.286,0,0,0,1.665-5.288s1.508-.142,1.863,1.762-.946,2.243-.415,3.136,3.929-.009,4.05.694-.27,1.115-.754,1.836-.157,1.615-1.037,2.547-1.061,1.743-2.373,1.68-1.755-1.463-2.86-1.331a7.892,7.892,0,0,0-2.2.666Z" transform="translate(306.37 -232.059)" fill="url(#linear-gradient-7)"/>
        <g id="Group_323" data-name="Group 323" transform="translate(0 6.499)">
          <path id="Path_1758" data-name="Path 1758" d="M-270.3,237.63l2.771-.909,1.249,4.122-2.526,1.583Z" transform="translate(305.712 -236.381)" fill="#fff"/>
          <path id="Path_1759" data-name="Path 1759" d="M-291.9,248.867s23.826-10.715,33.892-12.378l1.786,5.988s-28.025,21.041-35.163,15.565C-296.23,254.349-294.447,250.78-291.9,248.867Z" transform="translate(294.434 -236.489)" fill="#8e7eff"/>
        </g>
      </g>
      <path id="Path_1760" data-name="Path 1760" d="M-321.819,197.2s.534,3.206,3.42,3.954,5.449-1.924,8.868-1.39,4.6,1.5,4.915,3.526-3.739,9.082-8.548,8.87-8.761-4.6-8.975-5.876-.855-6.733-1.711-8.55S-321.819,197.2-321.819,197.2Z" transform="translate(362.194 -170.6)" fill="#0d1b4a"/>
      <path id="Path_1761" data-name="Path 1761" d="M-341.192,219.145s-10.846,4.841-5.289,17.663,23.51,29.921,29.067,31.2,8.548-2.136,8.12-8.123-16.668-37.612-23.082-41.032S-341.192,219.145-341.192,219.145Z" transform="translate(350.952 -160.951)" fill="#735ffb"/>
    </g>
    <rect id="Rectangle_479" data-name="Rectangle 479" width="73.517" height="8.549" transform="translate(-205.191 340.913)" fill="#0cf"/>
    <path id="Path_1762" data-name="Path 1762" d="M-236.483,279.35-209.7,396.18h3.42l-25.646-117.969Z" transform="translate(78.023 65.837)" fill="url(#linear-gradient)"/>
    <path id="Path_1763" data-name="Path 1763" d="M-242.4,279.35l-26.786,116.83h-3.419l25.646-117.969Z" transform="translate(61.145 65.837)" fill="url(#linear-gradient-9)"/>
    <g id="Group_332" data-name="Group 332" transform="translate(-131.967 137.312)">
      <g id="Group_326" data-name="Group 326">
        <path id="Rectangle_480" data-name="Rectangle 480" d="M3.247,0H147.776a3.248,3.248,0,0,1,3.248,3.248V87.659a3.248,3.248,0,0,1-3.248,3.248H3.248A3.248,3.248,0,0,1,0,87.659V3.247A3.247,3.247,0,0,1,3.247,0Z" fill="#d3d5ff"/>
        <path id="Path_1766" data-name="Path 1766" d="M-72.17,137.312H-213.661a4.765,4.765,0,0,0-4.766,4.766v14.784H-67.4V142.078A4.767,4.767,0,0,0-72.17,137.312Z" transform="translate(218.427 -137.312)" fill="#8880f7"/>
      </g>
      <g id="Group_329" data-name="Group 329" transform="translate(83.263 27.796)">
        <g id="Group_328" data-name="Group 328">
          <path id="Path_1767" data-name="Path 1767" d="M-109.875,182.778a25.9,25.9,0,0,0-24.1-25.831h0l-.069,0-.274-.015c-.483-.029-.967-.05-1.457-.05a25.9,25.9,0,0,0-25.9,25.9,25.9,25.9,0,0,0,25.9,25.9c.492,0,.976-.022,1.46-.05l.27-.016.07,0v0A25.9,25.9,0,0,0-109.875,182.778ZM-134.5,200.985l-.075,0c-.3.021-.6.032-.9.038h0c-.1,0-.205.007-.308.007a18.257,18.257,0,0,1-18.257-18.257,18.258,18.258,0,0,1,18.257-18.259c.1,0,.205.006.308.007.3.006.6.018.9.038l.076.006a18.254,18.254,0,0,1,16.975,18.207A18.256,18.256,0,0,1-134.5,200.985Z" transform="translate(161.68 -155.966)" fill="#d8e0e0"/>
          <g id="Group_327" data-name="Group 327">
            <path id="Path_1768" data-name="Path 1768" d="M-161.68,182.158a25.9,25.9,0,0,0,25.9,25.9c.606,0,1.2-.029,1.8-.07v-7.664q-.889.088-1.8.089a18.258,18.258,0,0,1-18.257-18.259A18.257,18.257,0,0,1-135.778,163.9q.911,0,1.8.089v-7.664c-.6-.043-1.194-.07-1.8-.07A25.9,25.9,0,0,0-161.68,182.158Z" transform="translate(161.68 -156.256)" fill="#fff"/>
            <path id="Path_1769" data-name="Path 1769" d="M-143.817,160.346h0a3.855,3.855,0,0,0,3.168,3.765,18.258,18.258,0,0,1,14.783,17.921,18.258,18.258,0,0,1-14.783,17.923,3.855,3.855,0,0,0-3.168,3.765h0a3.831,3.831,0,0,0,4.565,3.75,25.9,25.9,0,0,0,21.03-25.438,25.905,25.905,0,0,0-21.03-25.438A3.833,3.833,0,0,0-143.817,160.346Z" transform="translate(170.027 -156.13)" fill="#7875d0"/>
          </g>
        </g>
      </g>
      <g id="Group_331" data-name="Group 331" transform="translate(9.831 33.486)">
        <g id="Group_330" data-name="Group 330">
          <path id="Path_1770" data-name="Path 1770" d="M-154.879,166.118h-53.856a2.992,2.992,0,0,1-2.992-2.992h0a2.992,2.992,0,0,1,2.992-2.992h53.856a2.992,2.992,0,0,1,2.992,2.992h0A2.992,2.992,0,0,1-154.879,166.118Z" transform="translate(211.727 -160.134)" fill="#c4c3fc"/>
          <path id="Path_1771" data-name="Path 1771" d="M-154.879,187.092h-53.856a2.992,2.992,0,0,1-2.992-2.992h0a2.992,2.992,0,0,1,2.992-2.992h53.856a2.992,2.992,0,0,1,2.992,2.992h0A2.992,2.992,0,0,1-154.879,187.092Z" transform="translate(211.727 -150.334)" fill="#c4c3fc"/>
          <path id="Path_1772" data-name="Path 1772" d="M-180.951,173.692h-27.784a2.992,2.992,0,0,1-2.992-2.992h0a2.992,2.992,0,0,1,2.992-2.992h27.784a2.993,2.993,0,0,1,2.992,2.992h0A2.993,2.993,0,0,1-180.951,173.692Z" transform="translate(211.727 -156.595)" fill="#c4c3fc"/>
        </g>
      </g>
    </g>
    <g id="Group_333" data-name="Group 333" transform="translate(-260.355 142.334)">
      <path id="Path_1773" data-name="Path 1773" d="M-250.766,168.317a27.58,27.58,0,0,0-27.582-27.582,27.581,27.581,0,0,0-27.582,27.582,27.564,27.564,0,0,0,23.353,27.225v7.345a21.371,21.371,0,0,0,5.718-7.063A27.558,27.558,0,0,0-250.766,168.317Z" transform="translate(305.929 -140.735)" fill="url(#linear-gradient-10)"/>
      <path id="Path_1774" data-name="Path 1774" d="M-285.484,176.943l-11.648-8.518,4.022-5.5,6.329,4.628,12.591-16.055,5.362,4.205Z" transform="translate(310.039 -135.706)" fill="#fff"/>
    </g>
    <path id="Path_1775" data-name="Path 1775" d="M-106.948,235.409l38.254-49.154,1.426.57-37.4,49.153Z" transform="translate(138.551 22.869)" fill="#254da1"/>
    <g id="Group_343" data-name="Group 343" transform="translate(-114.175 205.205)">
      <path id="Path_1776" data-name="Path 1776" d="M-110.784,224.419s2.136-4.061,3.206-4.488,2.992-2.992,4.487-2.992.43,1.282.43,1.282,4.914-.855,5.769,0-1.282,1.922-1.282,1.922-2.351,3.849-4.061,4.7a8.3,8.3,0,0,1-4.274.427C-107.151,225.914-110.784,224.419-110.784,224.419Z" transform="translate(250.934 -167.998)" fill="url(#linear-gradient-11)"/>
      <g id="Group_342" data-name="Group 342">
        <g id="Group_335" data-name="Group 335" transform="translate(53.414 49.2)">
          <path id="Path_1777" data-name="Path 1777" d="M-158.87,244.781s-5.678,1.359-6.876,1.193-4.5-2.751-4.122-3.31,1.918-.651,3.034.111,3.464.321,3.464.321l6.064-.848Z" transform="translate(169.898 -205.383)" fill="url(#linear-gradient-12)"/>
          <path id="Path_1778" data-name="Path 1778" d="M-149.6,245.094l-5.749-3.686-4.477-5.188a2.619,2.619,0,0,0-.838,2.783,20.969,20.969,0,0,0,2.719,4.642l-6.3,4.782c-.851.646-5,.841-4.86,2.081s3.811,1.131,4.961.525,7.038-2.392,8.318-2.826,3.341,1.221,3.341,1.221Z" transform="translate(170.27 -208.189)" fill="url(#linear-gradient-13)"/>
          <g id="Group_334" data-name="Group 334" transform="translate(25.095)">
            <path id="Path_1779" data-name="Path 1779" d="M-152.76,222.869s1.074,6.069,9.329,12.795,31.647,25.054,36.363,24.941,8.975-4.158,3.119-11.389-23.423-23.941-31.237-29.54S-153.476,218.823-152.76,222.869Z" transform="translate(152.795 -217.116)" fill="#8880f7"/>
            <path id="Path_1780" data-name="Path 1780" d="M-114.735,256.288s12.855-22.741,15.433-32.613l-5.8-2.329s-23.52,25.978-18.724,33.589C-120.593,260.1-116.873,258.651-114.735,256.288Z" transform="translate(166.029 -215.138)" fill="#8880f7"/>
          </g>
        </g>
        <g id="Group_336" data-name="Group 336" transform="translate(20.815 130.139)">
          <path id="Path_1781" data-name="Path 1781" d="M-178.932,355.159s-8.977,5.13-12.965,5.416c-1.426,1,4.415,2.565,8.833,2.136s13.536-3.847,13.536-3.847l-.144,3.847h2.28a20.743,20.743,0,0,1,1.14-4.132,7.193,7.193,0,0,0,1.1-5.378Z" transform="translate(192.115 -234.466)" fill="#181c3a"/>
          <path id="Path_1782" data-name="Path 1782" d="M-168.394,293.863l-9.985,91.974s-4.556,8.058-7.358,9.81c-1.052,2.453,5.6.351,8.76-.7s7.708-1.752,8.76-3.5-2.1-7.358-2.1-8.409,9.109-35.74,9.809-44.849.352-12.263.352-12.263,15.575-27.5,16.627-41.516-19.5-13.958-22.655-9.4S-168.394,293.863-168.394,293.863Z" transform="translate(195.043 -272.279)" fill="url(#linear-gradient-14)"/>
        </g>
        <g id="Group_337" data-name="Group 337" transform="translate(59.818 125.937)">
          <path id="Path_1783" data-name="Path 1783" d="M-153.293,354.563s-8.159,6.349-12.068,7.2c-1.268,1.19,4.736,1.913,9.049.864s12.853-5.727,12.853-5.727l.4,3.828,2.257-.323a20.8,20.8,0,0,1,.541-4.252,7.185,7.185,0,0,0,.329-5.477Z" transform="translate(165.533 -231.446)" fill="#181c3a"/>
          <path id="Path_1784" data-name="Path 1784" d="M-156.79,292.516l3.15,92.46s-3.366,8.623-5.893,10.755c-.693,2.577,5.6-.449,8.57-1.935s7.383-2.827,8.176-4.71-3.124-6.986-3.273-8.026,3.954-36.668,3.356-45.786-1.391-12.189-1.391-12.189,11.521-29.432,10.575-43.455-21.283-11.053-23.758-6.1S-156.79,292.516-156.79,292.516Z" transform="translate(168.313 -269.415)" fill="url(#linear-gradient-15)"/>
        </g>
        <path id="Path_1785" data-name="Path 1785" d="M-132.631,255.978s2.009,5.746,5.984,18.662c5.7,18.523-5.272,43.028-6.554,49.013l-42.743-1.14s0-51.007,7.266-66.394Z" transform="translate(220.486 -149.757)" fill="#181c3a"/>
        <path id="Path_1786" data-name="Path 1786" d="M-133.066,214.473s7.693,2.993,8.121,10.686-12.95,33.187-6.619,53.993l-37.834-.565s-4.908-13.825-4.053-27.075a38.122,38.122,0,0,1-2.786-13.957c0-7.694,6.839-13.251,7.693-14.96s1.711-6.839,4.7-8.548S-133.066,214.473-133.066,214.473Z" transform="translate(220.35 -169.66)" fill="#8880f7"/>
        <g id="Group_339" data-name="Group 339" transform="translate(54.598)">
          <path id="Path_1787" data-name="Path 1787" d="M-167.907,193.17s-2.651,16.514.132,22.577c2.575,3.505,9.32,2.1,13.823-2.276A9.9,9.9,0,0,0-154,198.9C-158.018,195.221-167.907,193.17-167.907,193.17Z" transform="translate(169.111 -179.105)" fill="url(#linear-gradient-16)"/>
          <g id="Group_338" data-name="Group 338">
            <path id="Path_1788" data-name="Path 1788" d="M-137.259,198.905c5.555,5.985,1.709,9.4,4.274,17.952s16.668,5.983,23.082,20.088-1.711,30.776-20.09,30.776-26.5-11.968-24.363-19.234-5.13-10.259-8.978-19.663,3.849-10.685,3.422-17.951-14.106-11.542-7.267-20.944c0,0,4.915-7.482,17.525-6.2S-137.259,198.905-137.259,198.905Z" transform="translate(169.091 -183.584)" fill="#0d1b4a"/>
          </g>
        </g>
        <g id="Group_341" data-name="Group 341" transform="translate(0 44.143)">
          <path id="Path_1789" data-name="Path 1789" d="M-197.242,225.871s-5.344-2.352-6.2-3.207-1.924-4.915-1.282-5.128,1.924.641,2.351,1.924,2.565,2.351,2.565,2.351l5.344,2.992Z" transform="translate(206.948 -211.878)" fill="url(#linear-gradient-17)"/>
          <path id="Path_1790" data-name="Path 1790" d="M-187.405,230.047l-2.351-6.41-.428-6.84a2.616,2.616,0,0,0-2.349,1.711,20.975,20.975,0,0,0-.643,5.342h-7.907c-1.068,0-4.487-2.351-5.13-1.281s2.352,3.2,3.634,3.419,7.052,2.351,8.336,2.778,1.922,2.992,1.922,2.992Z" transform="translate(206.301 -212.209)" fill="url(#linear-gradient-18)"/>
          <g id="Group_340" data-name="Group 340" transform="translate(13.206)">
            <path id="Path_1791" data-name="Path 1791" d="M-157.432,213.764s-5.91,1.755-11.657,10.717-21.318,34.275-20.671,38.949,5.146,8.447,11.666,1.811,21.142-25.979,25.821-34.375S-153.493,212.6-157.432,213.764Z" transform="translate(200.815 -213.67)" fill="#8880f7"/>
            <path id="Path_1792" data-name="Path 1792" d="M-175.917,256.81s-9.825-24.207-15.957-32.361l-5.427,3.094s5.73,34.573,14.674,35.545C-176.573,263.764-175.4,259.952-175.917,256.81Z" transform="translate(197.301 -208.633)" fill="#8880f7"/>
          </g>
        </g>
      </g>
    </g>
  </g>
</svg>
