<svg xmlns="http://www.w3.org/2000/svg" xmlns:xlink="http://www.w3.org/1999/xlink" width="400" height="400" viewBox="0 0 400 400">
  <defs>
    <clipPath id="clip-Wizzard-7">
      <rect width="400" height="400"/>
    </clipPath>
  </defs>
  <g id="Wizzard-7" clip-path="url(#clip-Wizzard-7)">
    <rect width="400" height="400" fill="rgba(255,255,255,0)"/>
    <g id="Editing_body_text-pana" data-name="Editing body text-pana" transform="translate(-5.564 -20.107)">
      <g id="freepik--background-complete--inject-13" transform="translate(17.49 41.747)">
        <path id="Path_2651" data-name="Path 2651" d="M456.762,65.278c.824,5.821-3.537,9.9-12.582,11.149L425.987,78.9,421.34,45.217l17.233-2.375c8.856-1.22,13.679,1.789,14.4,6.981a8.031,8.031,0,0,1-3.512,7.94C453.439,58.591,456.2,61.189,456.762,65.278ZM431.717,50.832l.882,6.5,6.547-.908c3.175-.437,4.658-1.771,4.361-3.933s-2.084-3-5.261-2.564Zm15.275,14.71c-.313-2.309-2.2-3.175-5.475-2.721l-7.989,1.1.948,6.835,8.023-1.1C445.728,69.2,447.314,67.851,446.992,65.542Z" transform="translate(-88.348 -42.572)" fill="#181c3a" opacity="0.23"/>
        <rect id="Rectangle_523" data-name="Rectangle 523" width="36.602" height="5.796" transform="translate(16.953 216.836)" fill="#ebebeb"/>
        <rect id="Rectangle_524" data-name="Rectangle 524" width="36.602" height="5.796" transform="translate(16.953 237.944)" fill="#ebebeb"/>
        <rect id="Rectangle_525" data-name="Rectangle 525" width="18.297" height="5.796" transform="translate(16.953 227.762)" fill="#ebebeb"/>
        <path id="Path_2652" data-name="Path 2652" d="M193.972,360.241H165.88V337.17h14.553v4.865h-9.68v13.337h18.354v-4.844h4.865Z" transform="translate(-43.526 -94.262)" fill="#ebebeb"/>
        <path id="Path_2653" data-name="Path 2653" d="M213.622,360.241H201.648v-4.865h7.108V342.04H190.4v6.217H185.53V337.17h28.092Z" transform="translate(-46.974 -94.262)" fill="#ebebeb"/>
        <path id="Path_2654" data-name="Path 2654" d="M467.423,128h4.856l-6.8,34H460.62Z" transform="translate(-95.24 -57.562)" fill="#ebebeb"/>
        <path id="Path_2655" data-name="Path 2655" d="M25.01,79.46h75.776V189.32H25.53Z" transform="translate(-18.81 -49.045)" fill="#e0e0e0"/>
        <rect id="Rectangle_526" data-name="Rectangle 526" width="75.083" height="108.831" transform="translate(75.594 139.758) rotate(180)" fill="#fff"/>
        <path id="Path_2656" data-name="Path 2656" d="M93.6,79.46V189.32H17.49V79.46ZM92.573,188.3V80.49H18.52v107.8Z" transform="translate(-17.49 -49.045)" fill="#e0e0e0"/>
        <rect id="Rectangle_527" data-name="Rectangle 527" width="56.424" height="85.258" transform="translate(9.845 42.717)" fill="#fff"/>
        <path id="Path_2657" data-name="Path 2657" d="M29.386,94.354v6.316c0,4.123.042,10.051.066,17.571,0,15.032.074,36.28.124,61.369l-.247-.247H85.744l-.264.272c0-32.157,0-61.841.049-85.258l.215.215-41.052-.1-11.29-.08H33.32l11.3-.061,41.228-.116h.215v.215c0,23.45,0,53.1.057,85.258v.272H29.18v-.247c.049-25.124.091-46.463.124-61.536,0-7.5.049-13.431.066-17.514V94.865C29.37,94.584,29.386,94.354,29.386,94.354Z" transform="translate(-19.541 -51.636)" fill="#e0e0e0"/>
        <path id="Path_2658" data-name="Path 2658" d="M17.86,209.556a9.9,9.9,0,0,1,1.212-1.875c.824-1.113,1.946-2.623,3.3-4.262s2.547-3.076,3.48-4.123a8.509,8.509,0,0,1,1.591-1.563c.116.1-2.045,2.721-4.65,5.986a59.635,59.635,0,0,1-4.93,5.838Z" transform="translate(-17.555 -69.797)" fill="#e0e0e0"/>
        <path id="Path_2659" data-name="Path 2659" d="M18.119,80.089A53.151,53.151,0,0,1,23,85.812a52.846,52.846,0,0,1,4.449,6.062,53.153,53.153,0,0,1-4.873-5.722,55.374,55.374,0,0,1-4.453-6.063Z" transform="translate(-17.6 -49.155)" fill="#e0e0e0"/>
        <path id="Path_2660" data-name="Path 2660" d="M107.1,80.19,97.26,92.327" transform="translate(-31.486 -49.173)" fill="#fff"/>
        <path id="Path_2661" data-name="Path 2661" d="M97.259,92.326a57.487,57.487,0,0,1,4.708-6.234,57.606,57.606,0,0,1,5.128-5.9,58,58,0,0,1-4.708,6.242,58.005,58.005,0,0,1-5.128,5.9Z" transform="translate(-31.485 -49.173)" fill="#e0e0e0"/>
        <path id="Path_2662" data-name="Path 2662" d="M107.217,209.589a52.349,52.349,0,0,1-4.824-5.665A50.6,50.6,0,0,1,98,197.93a57.754,57.754,0,0,1,4.824,5.665A51.769,51.769,0,0,1,107.217,209.589Z" transform="translate(-31.614 -69.831)" fill="#e0e0e0"/>
        <path id="Path_2663" data-name="Path 2663" d="M64.365,143.187H54.421l-1.188,2.737a6.043,6.043,0,0,0-.577,2.259,1.864,1.864,0,0,0,.938,1.74,7.875,7.875,0,0,0,2.754.495v.767H47v-.762a4.18,4.18,0,0,0,2.474-1.25,16.441,16.441,0,0,0,2.474-4.239L62,122.5h.4l10.134,23.087a14.17,14.17,0,0,0,2.383,4.123,3.224,3.224,0,0,0,1.987.742v.767H63.285v-.767h.561a4.262,4.262,0,0,0,2.3-.453,1.1,1.1,0,0,0,.453-.956,2.564,2.564,0,0,0-.124-.767,11.3,11.3,0,0,0-.619-1.55Zm-.71-1.534-4.18-9.672-4.312,9.672Z" transform="translate(-22.668 -56.596)" fill="#e0e0e0"/>
        <path id="Path_2664" data-name="Path 2664" d="M214.8,463.284c-1.336-1.146-4.321-4.782-2.02-9.013.824-1.55,2.638-2.317,4.254-3a17.251,17.251,0,0,0,4.675-2.425c2.532-2.152,3.23-5.73,4.947-8.608,1.93-3.3,5.522-5.772,9.333-5.59,4.353.2,7.989,3.751,9.639,7.808s1.7,8.567,1.74,12.946c0,2.425-.091,5.153-1.875,6.794-1.649,1.509-4.123,1.525-6.333,1.459l-23.879-.729" transform="translate(-51.607 -111.363)" fill="#f5f5f5"/>
        <path id="Path_2665" data-name="Path 2665" d="M257.319,390H194.7l11.28,67.258a7.52,7.52,0,0,0,5.343,5.986l.223.066c.19.042.363.1.561.141a7.989,7.989,0,0,0,1.27.148v.066l.305-.049h27.911a7.8,7.8,0,0,0,1.534-.156,7.544,7.544,0,0,0,6.341-6.6l5.434-46.348.247-1.839h0l2.152-18.354Zm-11.807,42.876H239.08l.651-19.517h7.421Zm2.292-19.517h6.147l-2.292,19.517h-5.533Zm-18.363,41.156-.388-16.953h9.251l-.561,16.953Zm-10-16.953h8.988l.4,16.953h-8.064Zm.693,16.953H212.6c-.717-4.576-1.649-10.523-2.663-16.953h8.88Zm-1.055-21.636-1.517-19.517h10.315l.445,19.517Zm9.9,0-.453-19.517h10.62l-.676,19.517Zm-.561-24.2-.478-18.082h11.9l-.6,18.082Zm-.619,0h-10.59l-1.4-18.082h11.543Zm-11.2,0h-11.22c-.4-2.474-.767-4.865-1.1-6.981-1.171-7.313-1.608-10.06-1.856-11.1h12.74Zm.363,4.683,1.492,19.517H209.2c-.313-1.98-.625-3.982-.938-5.986-.729-4.609-1.451-9.219-2.136-13.53Zm-8.385,19.517h-6.043l-3.3-19.517h6.242c1.015,6.021,2.029,12.746,3.092,19.515Zm.729,4.683c.923,5.863,1.831,11.651,2.655,16.953h-5.772l-2.844-16.953Zm29.052,16.951.561-16.953H245.1l-1.443,16.953Zm1.525-45.836.6-18.082h8.633l-1.542,18.082Zm-38.05-18.082c.247,1.311,1.385,8.427,2.917,18.082h-6.283l-3.037-18.082Zm47.287,63.918h-4.84l1.451-16.953h5.376Zm5.376-45.836h-6.3l1.542-18.082h6.885Z" transform="translate(-48.583 -103.53)" fill="#e0e0e0"/>
      </g>
      <g id="freepik--Screen--inject-13" transform="translate(62.197 37.87)">
        <path id="Path_2812" data-name="Path 2812" d="M0,0H270.953V208.98H0Z" transform="translate(0.148 0.247)" fill="#fff"/>
        <rect id="Rectangle_529" data-name="Rectangle 529" width="232.752" height="7.009" transform="translate(16.071 132.446)" fill="#ebebeb"/>
        <rect id="Rectangle_530" data-name="Rectangle 530" width="232.752" height="7.009" transform="translate(15.955 123.154)" fill="#ebebeb"/>
        <rect id="Rectangle_531" data-name="Rectangle 531" width="232.752" height="7.009" transform="translate(15.955 113.738)" fill="#ebebeb"/>
        <rect id="Rectangle_532" data-name="Rectangle 532" width="232.752" height="7.009" transform="translate(15.955 104.321)" fill="#ebebeb"/>
        <rect id="Rectangle_533" data-name="Rectangle 533" width="232.752" height="7.009" transform="translate(16.071 142.069)" fill="#ebebeb"/>
        <rect id="Rectangle_534" data-name="Rectangle 534" width="232.752" height="7.009" transform="translate(16.071 151.147)" fill="#ebebeb"/>
        <rect id="Rectangle_535" data-name="Rectangle 535" width="232.752" height="7.009" transform="translate(16.071 160.596)" fill="#ebebeb"/>
        <rect id="Rectangle_536" data-name="Rectangle 536" width="232.752" height="7.009" transform="translate(16.071 169.575)" fill="#ebebeb"/>
        <rect id="Rectangle_537" data-name="Rectangle 537" width="232.752" height="7.009" transform="translate(16.071 178.209)" fill="#ebebeb"/>
        <rect id="Rectangle_538" data-name="Rectangle 538" width="232.752" height="7.009" transform="translate(16.071 188.02)" fill="#ebebeb"/>
        <rect id="Rectangle_539" data-name="Rectangle 539" width="271.226" height="15.551" transform="translate(0.148 0.042)" fill="#8880f7"/>
        <path id="Path_2678" data-name="Path 2678" d="M82.758,47a1.649,1.649,0,1,1-1.649-1.649A1.649,1.649,0,0,1,82.758,47Z" transform="translate(-73.07 -39.183)" fill="#fff"/>
        <path id="Path_2679" data-name="Path 2679" d="M90.033,47a1.649,1.649,0,1,1-1.649-1.649A1.649,1.649,0,0,1,90.033,47Z" transform="translate(-74.346 -39.183)" fill="#fff"/>
        <path id="Path_2680" data-name="Path 2680" d="M97.3,47a1.649,1.649,0,1,1-1.649-1.649A1.649,1.649,0,0,1,97.3,47Z" transform="translate(-75.621 -39.183)" fill="#fff"/>
        <path id="Path_2681" data-name="Path 2681" d="M138.273,144.91v-2.878c0-1.863,0-4.543-.074-7.924l.124.116-48.648.1h0l.215-.215h0v10.785l-.231-.19,34.631.1,10.249.057h.1l-10.2.057-34.763.091H89.46V134.125h0l.215-.215h0l48.648.091h.124v.124c0,3.4-.049,6.118-.066,8V144.7a.7.7,0,0,1-.1.208Z" transform="translate(-74.824 -54.721)" fill="#263238"/>
        <path id="Path_2682" data-name="Path 2682" d="M179.362,144.885a.635.635,0,0,1,0-.208v-.569c0-.536,0-1.25-.042-2.168,0-1.888-.042-4.568-.082-7.858l.156.148-26.616.066.215-.215h0v10.785l-.208-.208,19.022.1,5.558.057H179.4a3.367,3.367,0,0,1-.487,0h-1.459l-5.508.057-19.162.1h-.208V133.985h0l.215-.215,26.616.057h.148v.156c0,3.3-.066,6.036-.082,7.949v2.136A2.369,2.369,0,0,1,179.362,144.885Z" transform="translate(-85.899 -54.697)" fill="#263238"/>
        <path id="Path_2683" data-name="Path 2683" d="M95.378,138.865H93.63v-.635h4.222v.635H96.1v4.46H95.37Z" transform="translate(-75.556 -55.479)" fill="#263238"/>
        <path id="Path_2684" data-name="Path 2684" d="M99.32,138.192a.462.462,0,0,1,.478-.462.453.453,0,0,1,.47.445.478.478,0,0,1-.948,0Zm.124,1.2h.7v3.855h-.7Z" transform="translate(-76.554 -55.391)" fill="#263238"/>
        <path id="Path_2685" data-name="Path 2685" d="M103.995,143.2a1.336,1.336,0,0,1-.824.272,1.1,1.1,0,0,1-1.228-1.212v-2.119h-.651v-.577h.651v-.824h.7v.824h1.1v.577h-1.1v2.111a.568.568,0,0,0,.6.651.908.908,0,0,0,.552-.181Z" transform="translate(-76.9 -55.568)" fill="#263238"/>
        <path id="Path_2686" data-name="Path 2686" d="M105.59,137.87h.7v5.4h-.7Z" transform="translate(-77.654 -55.416)" fill="#263238"/>
        <path id="Path_2687" data-name="Path 2687" d="M111.454,141.889h-3.133a1.3,1.3,0,0,0,1.4,1.129,1.426,1.426,0,0,0,1.113-.462l.388.453a2.05,2.05,0,0,1-3.595-1.354,1.888,1.888,0,0,1,1.938-1.97,1.864,1.864,0,0,1,1.9,2A1.888,1.888,0,0,1,111.454,141.889Zm-3.133-.5h2.474a1.25,1.25,0,0,0-2.474,0Z" transform="translate(-78.012 -55.735)" fill="#263238"/>
        <path id="Path_2688" data-name="Path 2688" d="M139.27,140.13H143.9l-2.309,2.317Z" transform="translate(-83.564 -55.812)" fill="#263238"/>
        <path id="Path_2689" data-name="Path 2689" d="M174.91,140.13h4.626l-2.317,2.317Z" transform="translate(-89.818 -55.812)" fill="#263238"/>
        <path id="Path_2690" data-name="Path 2690" d="M336.111,253.423c0-1.262-.066-48.153-.165-125.528l.165.156L83.9,128.108h0l.215-.215V253.423l-.208-.208,252.227.208-252.227.2h-.2V127.68h.231l252.217.057h.1v.156C336.169,205.269,336.111,252.161,336.111,253.423Z" transform="translate(-73.816 -53.628)" fill="#e0e0e0"/>
        <path id="Path_2691" data-name="Path 2691" d="M336.021,138.955V127.919c0-7.231,0-17.89-.049-31.614l.091.164-252.6.268h0l.215-.426v42.624l-.215-.426,179.306.18,53.677.115h.1l-53.6.131-179.462.18H83.2V95.83h.223l252.6.281h.082v.164c0,13.773-.042,24.449-.049,31.712v8.2C336.055,138.036,336.021,138.955,336.021,138.955Z" transform="translate(-73.726 -69.56)" fill="#e0e0e0"/>
        <path id="Path_2693" data-name="Path 2693" d="M309.841,135.31a1.542,1.542,0,0,0-1.591,1.426h0v5.59h0a2.251,2.251,0,0,0,4.436,0h0v-4.51h-.437v4.321a1.806,1.806,0,0,1-3.595,0v-5.351a1.163,1.163,0,1,1,2.326,0v4.535h0a.676.676,0,0,1-1.294,0v-3.5h-.428v3.339h0v.156h0a1.089,1.089,0,0,0,2.128,0h0v-.165h0V136.7h0a1.55,1.55,0,0,0-1.542-1.393Z" transform="translate(-113.212 -54.967)" fill="#263238"/>
        <rect id="Rectangle_540" data-name="Rectangle 540" width="6.357" height="1.005" transform="translate(131.424 82.808)" fill="#263238"/>
        <rect id="Rectangle_541" data-name="Rectangle 541" width="6.357" height="1.005" transform="translate(131.424 86.478)" fill="#263238"/>
        <rect id="Rectangle_542" data-name="Rectangle 542" width="3.183" height="1.005" transform="translate(131.424 84.706)" fill="#263238"/>
        <rect id="Rectangle_543" data-name="Rectangle 543" width="6.357" height="1.005" transform="translate(155.295 82.808)" fill="#263238"/>
        <rect id="Rectangle_544" data-name="Rectangle 544" width="6.357" height="1.005" transform="translate(155.295 86.478)" fill="#263238"/>
        <rect id="Rectangle_545" data-name="Rectangle 545" width="3.183" height="1.005" transform="translate(158.469 84.706)" fill="#263238"/>
        <rect id="Rectangle_546" data-name="Rectangle 546" width="6.357" height="1.005" transform="translate(143.52 82.808)" fill="#263238"/>
        <rect id="Rectangle_547" data-name="Rectangle 547" width="6.357" height="1.005" transform="translate(143.52 86.478)" fill="#263238"/>
        <rect id="Rectangle_548" data-name="Rectangle 548" width="6.357" height="1.005" transform="translate(143.52 84.706)" fill="#263238"/>
        <path id="Path_2694" data-name="Path 2694" d="M285.963,142.661h-5.2v-4.272h2.7v.9h-1.79v2.465h3.4v-.891h.9Z" transform="translate(-108.389 -55.507)" fill="#263238"/>
        <path id="Path_2695" data-name="Path 2695" d="M289.595,142.661h-2.21v-.908H288.7v-2.465h-3.4v1.154h-.9V138.39h5.195Z" transform="translate(-109.028 -55.507)" fill="#263238"/>
        <path id="Path_2696" data-name="Path 2696" d="M293.26,140.57h2.77l-1.385,1.282Z" transform="translate(-110.583 -55.889)" fill="#263238"/>
        <path id="Path_2697" data-name="Path 2697" d="M217.32,140.59v-2.4h.824v2.366c0,.874.4,1.25,1.08,1.25s1.072-.379,1.072-1.25V138.19h.775v2.4a1.863,1.863,0,1,1-3.719,0Z" transform="translate(-97.258 -55.472)" fill="#263238"/>
        <path id="Path_2698" data-name="Path 2698" d="M208.458,137.61h.71l-1,4.947h-.71Z" transform="translate(-95.528 -55.37)" fill="#263238"/>
        <path id="Path_2699" data-name="Path 2699" d="M199.577,141.236c0,.824-.71,1.361-2.045,1.361H194.86V137.65h2.532c1.3,0,1.946.536,1.946,1.3a1.171,1.171,0,0,1-.668,1.072A1.25,1.25,0,0,1,199.577,141.236Zm-3.3-2.589v.938h.965c.47,0,.71-.156.71-.478s-.239-.478-.71-.478Zm1.913,2.433c0-.338-.255-.5-.729-.5h-1.179v1.005h1.171c.453-.017.71-.181.71-.521Z" transform="translate(-93.318 -55.377)" fill="#263238"/>
        <path id="Path_2700" data-name="Path 2700" d="M226.379,145.184a38.578,38.578,0,0,1-.215-5.7,38.655,38.655,0,0,1,.215-5.706,37.345,37.345,0,0,1,.215,5.706,37.268,37.268,0,0,1-.215,5.7Z" transform="translate(-98.805 -54.698)" fill="#e0e0e0"/>
        <path id="Path_2701" data-name="Path 2701" d="M272.21,145.184a37.271,37.271,0,0,1-.215-5.7,37.352,37.352,0,0,1,.215-5.706,38.653,38.653,0,0,1,.215,5.706A38.578,38.578,0,0,1,272.21,145.184Z" transform="translate(-106.846 -54.698)" fill="#e0e0e0"/>
        <path id="Path_2702" data-name="Path 2702" d="M299.949,145.465a38.582,38.582,0,0,1-.215-5.7,38.487,38.487,0,0,1,.215-5.7,38.478,38.478,0,0,1,.215,5.7A38.574,38.574,0,0,1,299.949,145.465Z" transform="translate(-111.714 -54.749)" fill="#e0e0e0"/>
        <path id="Path_2703" data-name="Path 2703" d="M320.949,145.054a38.578,38.578,0,0,1-.215-5.7,38.653,38.653,0,0,1,.215-5.706,36.664,36.664,0,0,1,.223,5.706,36.6,36.6,0,0,1-.223,5.7Z" transform="translate(-115.398 -54.675)" fill="#e0e0e0"/>
        <path id="Path_2704" data-name="Path 2704" d="M221.793,144.065a15.345,15.345,0,0,1-5.112,0A15.345,15.345,0,0,1,221.793,144.065Z" transform="translate(-97.146 -56.464)" fill="#263238"/>
        <path id="Path_2705" data-name="Path 2705" d="M161.873,137.607v4.947h-.7v-4.346H160.05v-.619Z" transform="translate(-87.21 -55.366)" fill="#263238"/>
        <path id="Path_2706" data-name="Path 2706" d="M167.007,141.937v.619h-3.562v-.521l2.02-1.946c.527-.512.625-.824.625-1.129,0-.512-.363-.824-1.055-.824a1.575,1.575,0,0,0-1.27.536l-.487-.417a2.292,2.292,0,0,1,1.814-.75c1.042,0,1.7.527,1.7,1.377a2,2,0,0,1-.824,1.563l-1.517,1.459Z" transform="translate(-87.776 -55.352)" fill="#263238"/>
        <path id="Path_2707" data-name="Path 2707" d="M336.058,154.065c0,.116-56.564.215-126.32.215s-126.328-.1-126.328-.215,56.547-.215,126.328-.215S336.058,153.974,336.058,154.065Z" transform="translate(-73.763 -58.22)" fill="#e0e0e0"/>
        <path id="Path_2708" data-name="Path 2708" d="M322.1,169.231c0,.116-51.36.215-114.715.215s-114.715-.1-114.715-.215,51.4-.231,114.719-.231S322.1,169.1,322.1,169.231Z" transform="translate(-75.388 -60.878)" fill="#263238"/>
        <path id="Path_2709" data-name="Path 2709" d="M322.1,180.509c0,.124-51.36.215-114.715.215s-114.715-.091-114.715-.215,51.353-.215,114.715-.215S322.1,180.389,322.1,180.509Z" transform="translate(-75.388 -62.858)" fill="#263238"/>
        <path id="Path_2710" data-name="Path 2710" d="M322.1,191.785c0,.116-51.36.215-114.715.215s-114.715-.074-114.715-.215,51.353-.215,114.715-.215S322.1,191.661,322.1,191.785Z" transform="translate(-75.388 -64.837)" fill="#263238"/>
        <path id="Path_2711" data-name="Path 2711" d="M322.1,203.055c0,.124-51.36.215-114.715.215s-114.715-.091-114.715-.215,51.353-.215,114.715-.215S322.1,202.972,322.1,203.055Z" transform="translate(-75.388 -66.816)" fill="#263238"/>
        <path id="Path_2712" data-name="Path 2712" d="M322.1,214.335c0,.116-51.36.215-114.715.215s-114.715-.1-114.715-.215,51.353-.215,114.715-.215S322.1,214.211,322.1,214.335Z" transform="translate(-75.388 -68.794)" fill="#263238"/>
        <path id="Path_2713" data-name="Path 2713" d="M322.1,225.609c0,.124-51.36.215-114.715.215s-114.715-.091-114.715-.215,51.353-.215,114.715-.215S322.1,225.489,322.1,225.609Z" transform="translate(-75.388 -70.771)" fill="#263238"/>
        <path id="Path_2714" data-name="Path 2714" d="M322.1,236.885c0,.116-51.36.215-114.715.215s-114.715-.1-114.715-.215,51.353-.215,114.715-.215S322.1,236.761,322.1,236.885Z" transform="translate(-75.388 -72.75)" fill="#263238"/>
        <path id="Path_2715" data-name="Path 2715" d="M322.3,247.755c0,.116-51.36.215-114.715.215s-114.715-.1-114.715-.215,51.353-.215,114.715-.215S322.3,247.639,322.3,247.755Z" transform="translate(-75.423 -74.658)" fill="#263238"/>
        <path id="Path_2716" data-name="Path 2716" d="M322.5,258.625c0,.124-51.36.215-114.7.215s-114.727-.091-114.727-.215,51.353-.215,114.727-.215S322.5,258.5,322.5,258.625Z" transform="translate(-75.457 -76.565)" fill="#263238"/>
        <path id="Path_2717" data-name="Path 2717" d="M93.28,269.495c0-.116,51.361-.215,114.7-.215s114.715.1,114.715.215-51.353.215-114.715.215S93.28,269.613,93.28,269.495Z" transform="translate(-75.494 -78.473)" fill="#263238"/>
        <path id="Path_2718" data-name="Path 2718" d="M342.806,247.1c0-1.468-.066-82.743-.173-208.98l.173.181H71.883l.215-.215V247.065l-.19-.19,270.953.19-270.953.2h-.2V37.87h.239l270.862.1h.181v.173C342.886,164.355,342.806,245.63,342.806,247.1Z" transform="translate(-71.71 -37.87)" fill="#263238"/>
        <path id="Path_2719" data-name="Path 2719" d="M272,115.57v17.975a6,6,0,0,0,6,6h22.031a2.061,2.061,0,0,1,1.649.824l5.393,11.75,6.5-11.543a2.1,2.1,0,0,1,1.563-.7h23.087a6,6,0,0,0,5.928-6.061V115.454a5.994,5.994,0,0,0-6.011-5.994l-60.109.1A6,6,0,0,0,272,115.57Z" transform="translate(-106.852 -50.431)" fill="#8880f7"/>
        <path id="Path_2720" data-name="Path 2720" d="M288.969,130.87H285.78v-3.008l7.344-8.023.147-.035a2.4,2.4,0,0,1,2.379.335,2.966,2.966,0,0,1,.644,2.588v.154Zm-2.1-1.057h1.667l6.778-7.414a1.916,1.916,0,0,0-.343-1.483,1.354,1.354,0,0,0-1.245-.133l-6.855,7.484Z" transform="translate(-110.408 -51.21)" fill="#fff"/>
        <text id="Lorem_ipsum_dolor_sit_amet_consectetuer_adipiscing_elit._Aenean_commodo_ligula_eget_dolor." data-name="Lorem ipsum dolor sit amet, consectetuer adipiscing elit. Aenean commodo ligula eget dolor." transform="translate(17.395 43.12)" font-size="7" font-family="Poppins-Regular, Poppins"><tspan x="0" y="0">Lorem ipsum dolor sit amet, consectetuer adipiscing elit. </tspan><tspan x="0" y="11">Aenean commodo ligula eget dolor.</tspan></text>
        <text id="Review" transform="translate(192.437 76.252)" fill="#fff" font-size="11" font-family="Poppins-Regular, Poppins"><tspan x="0" y="0">Review</tspan></text>
      </g>
      <g id="freepik--Plant--inject-13" transform="translate(58.515 251.401)">
        <path id="Path_2725" data-name="Path 2725" d="M113.826,434.531c-2.16-.1-2.8-3.15-1.987-5.153s2.383-3.784,2.408-5.945c0-1.875-1.171-3.571-1.287-5.442-.208-3.373,3.059-6.126,3.2-9.5.1-2.638-1.723-5.145-1.278-7.742.47-2.787,3.381-4.609,4.049-7.363.71-2.917-1.319-6.019-.544-8.922s4.189-5.029,3.7-7.981a27.013,27.013,0,0,0-1.014-2.8c-.611-2.2.594-4.51,2.054-6.274s3.249-3.3,4.123-5.434c1.393-3.23.429-7.174,2.061-10.29,1.369-2.589,4.4-4.337,4.782-7.239,1.534,2.614,0,5.939.379,8.954.231,1.962,1.25,3.735,1.875,5.615a14.6,14.6,0,0,1-1.146,11.692c-1.319,2.317-3.348,4.51-3.249,7.174.124,3.224,3.356,5.566,3.925,8.741.824,4.543-4.024,8.633-3.356,13.193.173,1.179.71,2.292.824,3.48.338,4.041-4.239,6.893-4.947,10.892-.512,2.935,1.188,5.97.487,8.872-.544,2.235-2.474,4.239-2,6.489a15.72,15.72,0,0,0,1.237,2.709,5.187,5.187,0,0,1-.824,5.36,4.51,4.51,0,0,1-5.21,1.072" transform="translate(-75.009 -305.193)" fill="#8880f7"/>
        <g id="Group_409" data-name="Group 409" transform="translate(36.532 39.302)" opacity="0.5">
          <path id="Path_2726" data-name="Path 2726" d="M128.15,432.314a15.716,15.716,0,0,1-1.237-2.709c-.47-2.251,1.459-4.254,2-6.489.7-2.9-1-5.939-.487-8.872.7-4,5.277-6.852,4.947-10.892-.1-1.188-.643-2.3-.824-3.48-.668-4.568,4.168-8.657,3.356-13.193-.569-3.175-3.793-5.516-3.925-8.741-.1-2.663,1.93-4.856,3.249-7.174a14.6,14.6,0,0,0,1.146-11.692c-.619-1.875-1.649-3.653-1.875-5.615-.346-3.022,1.154-6.341-.379-8.954-.379,2.9-3.413,4.65-4.782,7.239-1.649,3.116-.668,7.058-2.061,10.29-.9,2.1-2.688,3.67-4.123,5.434s-2.663,4.073-2.054,6.274a27.018,27.018,0,0,1,1.014,2.8c.487,2.952-2.927,5.079-3.7,7.981s1.25,6,.544,8.922c-.668,2.754-3.579,4.576-4.049,7.363-.445,2.6,1.385,5.105,1.278,7.742-.141,3.373-3.4,6.126-3.2,9.5.116,1.875,1.3,3.571,1.287,5.442,0,2.16-1.649,3.942-2.408,5.945s-.173,5.046,1.987,5.153l8.295,4.168a4.51,4.51,0,0,0,5.21-1.072,5.187,5.187,0,0,0,.784-5.368Z" transform="translate(-111.553 -344.503)" fill="#fff"/>
        </g>
        <path id="Path_2727" data-name="Path 2727" d="M125.628,430.674a5.912,5.912,0,0,1-.824-3.191c.223-1.237,2.309-2.317,2.828-4.411.668-2.721-.544-7.52,0-10.266.7-3.719,4.551-6.167,4.395-9.9-.049-1.089.1-3.991,0-5.063-.417-4.168,3.249-6.959,2.709-11.1-.371-2.886-3.364-6.274-3.373-9.235,0-2.474,1.757-4.593,2.917-6.811a15.262,15.262,0,0,0,1.319-10.843,27.394,27.394,0,0,1-1.369-5.046c-.2-2.754,1.154-5.92,0-8.246-.4,2.709-2.977,4.51-4.189,6.981-1.451,2.977-.775,6.539-2.029,9.605-.824,2-2.341,3.554-3.611,5.277s-2.334,3.917-1.9,5.912a23.551,23.551,0,0,1,.75,2.474c.313,2.7-2.581,4.873-3.3,7.595s.824,5.442.165,8.179c-.635,2.573-3.158,6.068-3.636,8.666-.453,2.425,1.74,4,1.563,6.423-.215,3.126-3.3,6.893-3.3,9.985,0,1.715,1.476,2.267,1.4,3.991-.091,1.987-1.757,5.945-2.474,7.841a5.36,5.36,0,0,0,.521,5.335l9.273,4.6C127.524,437.534,127.343,433.5,125.628,430.674Z" transform="translate(-75.31 -305.565)" fill="#8880f7"/>
        <path id="Path_2728" data-name="Path 2728" d="M133.028,363.71a.594.594,0,0,1,0,.208v.6a22.235,22.235,0,0,1-.1,2.317,11.262,11.262,0,0,1-.824,3.579,18.678,18.678,0,0,1-2.787,3.982,7.42,7.42,0,0,0-1.327,2.416,8.172,8.172,0,0,0-.33,2.968c.1,2.094.742,4.272,1.047,6.645a10.126,10.126,0,0,1-.124,3.685,6.852,6.852,0,0,1-.729,1.789,16.69,16.69,0,0,0-.973,1.649,6.085,6.085,0,0,0-.057,3.76c.132.651.28,1.311.363,2a8.03,8.03,0,0,1-.057,2.084,15.964,15.964,0,0,1-1.278,3.892,31.8,31.8,0,0,0-1.426,3.653,9.409,9.409,0,0,0-.322,3.661,16.665,16.665,0,0,1,.132,3.677,11.412,11.412,0,0,1-1.171,3.3,12.83,12.83,0,0,0-1.171,3.01c-.388,2.045.19,4.007.148,5.821a15.814,15.814,0,0,1-1.064,4.749,16.681,16.681,0,0,0-.908,3.521,5.029,5.029,0,0,0,.231,2.259c.19.487.338.729.313.742a4.412,4.412,0,0,1-.379-.718,4.947,4.947,0,0,1-.313-2.3,16.491,16.491,0,0,1,.824-3.571,15.568,15.568,0,0,0,1-4.683c0-.891-.124-1.814-.223-2.8a10.538,10.538,0,0,1,0-3.092c.4-2.144,1.98-3.982,2.3-6.3a16.7,16.7,0,0,0-.141-3.6,9.763,9.763,0,0,1,.322-3.826c.71-2.532,2.251-4.831,2.7-7.5a7.645,7.645,0,0,0,.049-1.987c-.074-.659-.223-1.311-.354-1.962a6.415,6.415,0,0,1,.091-3.991,16.024,16.024,0,0,1,1-1.649,6.827,6.827,0,0,0,.693-1.69,9.977,9.977,0,0,0,.124-3.562c-.289-2.334-.931-4.535-1.022-6.668a8.44,8.44,0,0,1,.371-3.076,7.775,7.775,0,0,1,1.385-2.474,18.478,18.478,0,0,0,2.813-3.9,11.692,11.692,0,0,0,.883-3.512c.1-.99.132-1.771.165-2.3v-.6a.2.2,0,0,1,.135-.2Z" transform="translate(-76.484 -308.572)" fill="#263238"/>
        <path id="Path_2729" data-name="Path 2729" d="M96.6,427.246c-3.022.437-4.732-3.6-4.168-6.6s2.276-5.9,1.715-8.9c-.487-2.6-2.6-4.626-3.3-7.189-1.212-4.618,2.556-9.317,1.822-14.017-.569-3.678-3.793-6.654-3.892-10.372-.074-4.049,3.48-7.347,3.62-11.337.181-4.254-3.48-7.981-3.191-12.22s4.42-8.113,2.935-12.08c-.487-1.311-1.542-2.334-2.168-3.586-1.451-2.886-.417-6.407,1.129-9.251s3.586-5.508,4.262-8.674c1.03-4.856-1.386-10.051,0-14.842,1.179-3.966,4.947-7.214,4.634-11.345,2.853,3.207,1.649,8.246,2.985,12.31.824,2.655,2.754,4.831,4.123,7.264a20.613,20.613,0,0,1,1.649,16.49c-1.2,3.571-3.4,7.157-2.539,10.827,1.064,4.428,6.175,6.786,7.833,11.033,2.375,6.076-3.215,13.069-1.03,19.22.561,1.583,1.649,2.968,2.078,4.593,1.583,5.5-3.982,10.719-3.855,16.433.1,4.214,3.3,7.957,3.1,12.162-.132,3.249-2.259,6.6-.99,9.54a20.4,20.4,0,0,0,2.474,3.43,7.306,7.306,0,0,1,.346,7.635,6.356,6.356,0,0,1-6.927,2.911" transform="translate(-71.023 -296.839)" fill="#8880f7"/>
        <g id="Group_410" data-name="Group 410" transform="translate(17.783 0.05)" opacity="0.5">
          <path id="Path_2730" data-name="Path 2730" d="M115.824,420.2a21.367,21.367,0,0,1-2.474-3.43c-1.27-2.985.824-6.291.99-9.54.181-4.205-3-7.949-3.1-12.162-.124-5.722,5.442-10.934,3.855-16.433-.47-1.649-1.517-3.009-2.078-4.593-2.188-6.147,3.4-13.143,1.03-19.22-1.649-4.247-6.772-6.6-7.833-11.033-.824-3.67,1.354-7.256,2.539-10.827a20.613,20.613,0,0,0-1.649-16.49c-1.377-2.433-3.3-4.609-4.123-7.264-1.3-4.081-.132-9.07-2.985-12.31.272,4.123-3.455,7.38-4.634,11.345-1.418,4.766,1,9.961,0,14.842-.676,3.166-2.729,5.835-4.262,8.674s-2.581,6.365-1.129,9.251c.625,1.25,1.649,2.276,2.168,3.586,1.484,3.966-2.663,7.85-2.935,12.08s3.373,7.965,3.191,12.22c-.132,3.942-3.685,7.239-3.579,11.253.091,3.719,3.3,6.7,3.883,10.372.729,4.717-3.034,9.416-1.822,14.017.668,2.564,2.787,4.593,3.3,7.189.561,3-1.154,5.9-1.715,8.9s1.146,7.041,4.168,6.6l12.641,3.5a6.356,6.356,0,0,0,6.927-2.911A7.306,7.306,0,0,0,115.824,420.2Z" transform="translate(-88.813 -296.9)" fill="#fff"/>
        </g>
        <path id="Path_2731" data-name="Path 2731" d="M111.755,418.774a8.421,8.421,0,0,1-2.029-4.189c0-1.771,2.564-3.855,2.709-6.893.19-3.95-2.813-10.273-2.844-14.207,0-5.351,4.618-9.8,3.389-14.883-.363-1.492-.948-5.558-1.386-7.017-1.715-5.657,2.589-10.53.717-16.111-1.3-3.9-6.382-7.776-7.2-11.878-.676-3.389,1.171-6.843,2.177-10.241a21.561,21.561,0,0,0-1.146-15.386c-1.1-2.21-2.614-4.168-3.3-6.6-1.03-3.76,0-8.518-2.309-11.387.173,3.855-2.886,7.058-3.883,10.818-1.2,4.527.71,9.273-.181,13.869-.586,2.993-2.276,5.566-3.562,8.295s-2.16,6.068-1.014,8.716a34.152,34.152,0,0,1,1.732,3.257c1.171,3.647-2.243,7.462-2.474,11.428s2.663,7.313,2.474,11.288c-.181,3.744-2.709,9.273-2.671,13,0,3.48,3.512,5.054,3.942,8.476.544,4.376-2.754,10.464-1.814,14.726.521,2.366,2.655,2.737,3.022,5.145.417,2.779-.824,8.716-1.287,11.543a7.719,7.719,0,0,0,2.177,7.256l14.1,3.826C116.274,427.8,114.9,422.237,111.755,418.774Z" transform="translate(-71.406 -297.392)" fill="#8880f7"/>
        <path id="Path_2732" data-name="Path 2732" d="M102.607,324.42a35.687,35.687,0,0,1,.729,4.353,16.49,16.49,0,0,1-.19,5.17,13.043,13.043,0,0,1-1.113,3.051c-.5,1.042-1.113,2.078-1.649,3.207a10.389,10.389,0,0,0-1.179,3.735,11.782,11.782,0,0,0,.346,4.222c.71,2.886,2.2,5.772,3.3,8.93a14.265,14.265,0,0,1,.824,5.12,9.952,9.952,0,0,1-.512,2.655,25.072,25.072,0,0,0-.915,2.523c-.417,1.757.24,3.571.965,5.277.363.866.742,1.74,1.042,2.663a11.379,11.379,0,0,1,.495,2.886,23.444,23.444,0,0,1-.7,5.722,45.043,45.043,0,0,0-.99,5.459,13.753,13.753,0,0,0,0,2.671,15.038,15.038,0,0,0,.552,2.573,23.17,23.17,0,0,1,1.188,5.038,15.592,15.592,0,0,1-.71,4.89,18.015,18.015,0,0,0-.824,4.5,14.594,14.594,0,0,0,.75,4.188,39.134,39.134,0,0,1,1.055,3.855,13.7,13.7,0,0,1,.173,3.636c-.074,1.146-.208,2.218-.338,3.215a23.086,23.086,0,0,0-.272,5.137,7.017,7.017,0,0,0,.956,3.067c.4.625.668.915.651.932a6.128,6.128,0,0,1-.717-.891,7.058,7.058,0,0,1-1.042-3.092,23.476,23.476,0,0,1,.215-5.178c.116-1,.247-2.069.313-3.2a14.018,14.018,0,0,0-.2-3.579,39.049,39.049,0,0,0-1.072-3.818,14.587,14.587,0,0,1-.824-4.272,19.013,19.013,0,0,1,.824-4.584,15.223,15.223,0,0,0,.685-4.782,23.673,23.673,0,0,0-1.179-4.947,14.634,14.634,0,0,1-.569-2.63,13.877,13.877,0,0,1,0-2.745,44.27,44.27,0,0,1,.99-5.5,23.086,23.086,0,0,0,.693-5.632,10.966,10.966,0,0,0-.478-2.787c-.289-.9-.668-1.765-1.03-2.638a16.08,16.08,0,0,1-.923-2.68,6.147,6.147,0,0,1-.049-2.82,24.643,24.643,0,0,1,.931-2.564,9.481,9.481,0,0,0,.495-2.556,13.918,13.918,0,0,0-.824-4.989c-1.047-3.166-2.532-6.027-3.24-8.961a11.767,11.767,0,0,1-.33-4.329,10.653,10.653,0,0,1,1.22-3.818c.577-1.138,1.2-2.177,1.707-3.191a12.919,12.919,0,0,0,1.113-2.993,16.4,16.4,0,0,0,.247-5.12c-.124-1.41-.305-2.473-.417-3.23q-.074-.536-.124-.824a1.1,1.1,0,0,1-.042-.322Z" transform="translate(-72.788 -301.678)" fill="#263238"/>
        <path id="Path_2733" data-name="Path 2733" d="M90.954,440.65c-1.723.824-3.529-1.245-3.769-3.15s.223-3.966-.693-5.657c-.824-1.459-2.474-2.267-3.348-3.67-1.649-2.532-.272-6.068-1.649-8.752-1.055-2.084-3.554-3.249-4.329-5.45-.824-2.366.625-5.046,0-7.462-.71-2.581-3.62-4.123-4.272-6.7s1.08-5.714-.577-7.8a25.026,25.026,0,0,0-1.987-1.723c-1.426-1.451-1.492-3.76-1.113-5.772s1.08-3.991.874-6.019c-.322-3.108-2.77-5.772-2.844-8.872-.057-2.6,1.542-5.269.586-7.685,2.317,1.361,2.589,4.6,4.123,6.786,1.022,1.426,2.581,2.358,3.875,3.543a13,13,0,0,1,4.123,9.586c0,2.366-.651,4.947.577,6.967,1.484,2.474,5,2.869,6.819,5.088,2.6,3.183.6,8.44,3.092,11.7.643.824,1.542,1.468,2.136,2.35,2.012,2.985-.313,7.182.824,10.579.874,2.474,3.5,4.123,4.214,6.687.544,1.962-.091,4.353,1.245,5.9A14.017,14.017,0,0,0,101,432.7a4.626,4.626,0,0,1,1.649,4.51,4.007,4.007,0,0,1-3.447,3.116" transform="translate(-67.246 -308.261)" fill="#8880f7"/>
        <g id="Group_411" data-name="Group 411" transform="translate(0.075 53.694)" opacity="0.5">
          <path id="Path_2734" data-name="Path 2734" d="M101.088,432.715a14.018,14.018,0,0,1-2.136-1.575c-1.336-1.542-.7-3.933-1.245-5.9-.71-2.556-3.3-4.18-4.214-6.687-1.179-3.4,1.146-7.595-.824-10.579-.594-.882-1.492-1.509-2.136-2.35-2.474-3.257-.495-8.518-3.092-11.7-1.814-2.218-5.335-2.638-6.819-5.088-1.228-2.029-.6-4.6-.577-6.967a13,13,0,0,0-4.123-9.586c-1.294-1.188-2.853-2.119-3.875-3.543-1.575-2.188-1.847-5.425-4.123-6.786.956,2.416-.643,5.079-.586,7.685.074,3.126,2.524,5.772,2.844,8.872.208,2.029-.5,4.016-.874,6.019s-.313,4.3,1.113,5.772a25.018,25.018,0,0,1,1.987,1.723c1.649,2.084-.074,5.21.577,7.8s3.562,4.123,4.272,6.7c.668,2.416-.824,5.1,0,7.462.775,2.2,3.3,3.364,4.329,5.45,1.354,2.688,0,6.225,1.649,8.752.891,1.4,2.547,2.21,3.348,3.67.915,1.649.445,3.76.693,5.657s2.045,3.991,3.769,3.15l8.246-.354a4.007,4.007,0,0,0,3.586-3.076,4.626,4.626,0,0,0-1.789-4.527Z" transform="translate(-67.337 -361.959)" fill="#fff"/>
        </g>
        <path id="Path_2735" data-name="Path 2735" d="M98.221,432.725a5.314,5.314,0,0,1-2.02-2.119c-.363-1.055.824-2.8.289-4.65-.651-2.4-3.67-5.6-4.452-7.949-1.055-3.2.874-6.761-.824-9.565-.512-.824-1.649-3.141-2.193-3.933-2.111-3.051-.478-6.8-2.68-9.779-1.534-2.084-5.326-3.422-6.6-5.714-1.055-1.9-.625-4.321-.676-6.555a13.572,13.572,0,0,0-3.661-8.988,24.5,24.5,0,0,1-3.24-3.3c-1.344-2.054-1.649-5.088-3.579-6.365.824,2.276-.371,4.782-.239,7.223.156,2.943,2.218,5.418,2.572,8.335a22.964,22.964,0,0,1-.527,5.657c-.239,1.875-.124,4.049,1.08,5.409a16.388,16.388,0,0,1,1.649,1.649c1.4,1.955.091,4.9.7,7.322s3.01,3.868,3.661,6.283c.619,2.276.173,6.076.915,8.295.7,2.078,3.084,2.35,4,4.313,1.171,2.515.371,6.794,1.757,9.169.775,1.311,2.119,1.121,2.813,2.474.824,1.583,1.2,5.368,1.459,7.157a4.757,4.757,0,0,0,2.721,3.883l9.177-.437C102.69,437.228,100.785,434.185,98.221,432.725Z" transform="translate(-67.436 -308.589)" fill="#8880f7"/>
        <path id="Path_2736" data-name="Path 2736" d="M73.81,378.26s0,.042.1.148l.264.462c.231.417.569,1.022.931,1.839a10.349,10.349,0,0,1,.9,3.108,16.623,16.623,0,0,1-.445,4.3,6.6,6.6,0,0,0,0,2.474,7.421,7.421,0,0,0,1.022,2.473c.981,1.583,2.425,2.993,3.685,4.708a8.987,8.987,0,0,1,1.5,2.917,6.207,6.207,0,0,1,.215,1.707,12.935,12.935,0,0,0-.057,1.649,5.4,5.4,0,0,0,1.575,2.935,12.5,12.5,0,0,1,1.146,1.4,7.066,7.066,0,0,1,.824,1.649,14.456,14.456,0,0,1,.693,3.579,26.721,26.721,0,0,0,.462,3.447,8.286,8.286,0,0,0,1.393,3.042,14.737,14.737,0,0,1,1.649,2.8,9.714,9.714,0,0,1,.521,3.076,11.544,11.544,0,0,0,.4,2.836c.577,1.748,1.875,3.022,2.622,4.46a13.869,13.869,0,0,1,1.22,4.123,14.661,14.661,0,0,0,.824,3.126,4.551,4.551,0,0,0,1.146,1.649,5.715,5.715,0,0,1,.561.445,3.75,3.75,0,0,1-.6-.388,4.428,4.428,0,0,1-1.237-1.649,14.794,14.794,0,0,1-.857-3.166,13.744,13.744,0,0,0-1.245-4.064c-.729-1.385-2.061-2.646-2.688-4.494s-.19-3.95-.938-5.879a14.635,14.635,0,0,0-1.649-2.729,8.683,8.683,0,0,1-1.41-3.116c-.536-2.267-.338-4.717-1.146-6.976a6.678,6.678,0,0,0-.824-1.563c-.338-.478-.729-.923-1.121-1.377a5.673,5.673,0,0,1-1.649-3.141,14.613,14.613,0,0,1,.057-1.723,5.834,5.834,0,0,0-.19-1.649,8.83,8.83,0,0,0-1.443-2.813c-1.228-1.649-2.671-3.116-3.67-4.741a7.628,7.628,0,0,1-1.042-2.548,6.918,6.918,0,0,1,0-2.539,16.384,16.384,0,0,0,.5-4.239,10.53,10.53,0,0,0-.824-3.1c-.346-.824-.66-1.435-.824-1.864-.091-.19-.173-.346-.231-.478a.938.938,0,0,1-.124-.124Z" transform="translate(-68.397 -311.125)" fill="#263238"/>
        <rect id="Rectangle_549" data-name="Rectangle 549" width="55.013" height="9.754" transform="translate(6.18 115.429)" fill="#455a64"/>
        <path id="Path_2737" data-name="Path 2737" d="M79.72,446.31l6.687,29.139H119.2l7.322-29.139Z" transform="translate(-69.434 -323.065)" fill="#455a64"/>
        <path id="Path_2738" data-name="Path 2738" d="M129.63,448.63c0,.1-12.369.2-27.715.2s-27.715-.091-27.715-.2,12.369-.19,27.715-.19S129.63,448.522,129.63,448.63Z" transform="translate(-68.466 -323.438)" fill="#263238"/>
      </g>
      <g id="freepik--Character--inject-13" transform="translate(147.512 124.153)">
        <path id="Path_2739" data-name="Path 2739" d="M428.5,378.47s-18.618,8.493-36.726,8.493c-16.763,0-35.521-8.44-35.521-8.44Z" transform="translate(-206.949 -183.913)" fill="#e0e0e0"/>
        <rect id="Rectangle_550" data-name="Rectangle 550" width="7.182" height="75.215" transform="translate(190.107 270.579) rotate(180)" fill="#e0e0e0"/>
        <rect id="Rectangle_551" data-name="Rectangle 551" width="63.737" height="4.411" transform="translate(218.059 271.874) rotate(180)" fill="#e0e0e0"/>
        <path id="Path_2740" data-name="Path 2740" d="M430.58,473.506a4.865,4.865,0,1,0,4.865-4.856,4.865,4.865,0,0,0-4.865,4.856Z" transform="translate(-219.992 -199.736)" fill="#263238"/>
        <path id="Path_2741" data-name="Path 2741" d="M396.23,473.506a4.865,4.865,0,1,0,4.865-4.856,4.865,4.865,0,0,0-4.865,4.856Z" transform="translate(-213.964 -199.736)" fill="#263238"/>
        <path id="Path_2742" data-name="Path 2742" d="M356.45,473.506a4.865,4.865,0,1,0,4.865-4.856,4.865,4.865,0,0,0-4.865,4.856Z" transform="translate(-206.985 -199.736)" fill="#263238"/>
        <rect id="Rectangle_552" data-name="Rectangle 552" width="9.771" height="4.041" transform="translate(194.6 226.475) rotate(180)" fill="#e0e0e0"/>
        <rect id="Rectangle_553" data-name="Rectangle 553" width="3.554" height="9.704" transform="translate(196.373 229.303) rotate(180)" fill="#e0e0e0"/>
        <path id="Path_2743" data-name="Path 2743" d="M351.217,376.171h81.325a5.4,5.4,0,0,0,5.4-5.4h0a5.4,5.4,0,0,0-5.4-5.4H351.217a5.4,5.4,0,0,0-5.4,5.4h0A5.4,5.4,0,0,0,351.217,376.171Z" transform="translate(-205.12 -181.615)" fill="#455a64"/>
        <path id="Path_2744" data-name="Path 2744" d="M431.7,194.918s6.546-2.556,6.274-8.138-7.791-11.107-7.347-19.484c.417-7.866-10.843-31.225-26.929-23.087a22.122,22.122,0,0,0-8.08.445c-5.187,1.484-6.8,6.448-9.9,11.362-4.725,7.586-7.949,13.564-5.665,18.849s3.24,6.835,1.468,11.345c-2.309,5.887-4.675,4.18-3.9,9.325l14.017.223,1.327-3.43.148,3.71,8.246-.1Z" transform="translate(-210.674 -142.512)" fill="#263238"/>
        <path id="Path_2745" data-name="Path 2745" d="M393.427,154.58c.173,2.168-1.245,4.123-2.68,5.772s-3.022,3.3-3.3,5.484c-.528,3.809,3.215,7.33,2.474,11.107-.4,2.02-2.045,3.653-2.334,5.7s.824,3.9,2.119,5.4,2.917,2.737,4.123,4.361c0,0,2.433,3.95,9.9,1.377" transform="translate(-212.415 -144.63)" fill="#263238"/>
        <path id="Path_2746" data-name="Path 2746" d="M400.381,151.237l18.5,3.922a3.447,3.447,0,0,1,3.224,3.381l-.223,40.032a12.451,12.451,0,0,1-2.6,7.553l-1.765,2.276a9.135,9.135,0,0,1-15.245-1.138,4.125,4.125,0,0,1-.417-1.047,7.5,7.5,0,0,1-.173-.908l-.354-3.9c-.181-3.562-.208-7.189-.208-7.157s-7.57-.956-9.515-10.719c-.965-4.848-1.022-12.862-.866-19.418C390.866,158.212,394.486,150.841,400.381,151.237Z" transform="translate(-212.987 -144.041)" fill="#ffbe9d"/>
        <path id="Path_2747" data-name="Path 2747" d="M394.15,175.738a1.27,1.27,0,0,0,1.262,1.228,1.212,1.212,0,0,0,1.25-1.228,1.27,1.27,0,0,0-1.262-1.228,1.212,1.212,0,0,0-1.25,1.228Z" transform="translate(-213.599 -148.127)" fill="#263238"/>
        <path id="Path_2748" data-name="Path 2748" d="M393,171.527c.165.156,1.089-.586,2.474-.635s2.375.594,2.515.417-.1-.371-.544-.668a3.488,3.488,0,0,0-2.02-.536,3.249,3.249,0,0,0-1.938.71C393.081,171.156,392.948,171.454,393,171.527Z" transform="translate(-213.396 -147.354)" fill="#263238"/>
        <path id="Path_2749" data-name="Path 2749" d="M408.87,175.347a1.27,1.27,0,0,0,1.262,1.228,1.212,1.212,0,0,0,1.262-1.188,1.262,1.262,0,0,0-1.27-1.22,1.2,1.2,0,0,0-1.25,1.179Z" transform="translate(-216.183 -148.067)" fill="#263238"/>
        <path id="Path_2750" data-name="Path 2750" d="M408.635,171.127c.156.156,1.089-.586,2.474-.635s2.375.594,2.474.417-.1-.371-.544-.668a3.447,3.447,0,0,0-2.02-.536,3.249,3.249,0,0,0-1.938.71C408.685,170.773,408.553,171.054,408.635,171.127Z" transform="translate(-216.138 -147.284)" fill="#263238"/>
        <path id="Path_2751" data-name="Path 2751" d="M402.971,181.515a9.342,9.342,0,0,0-2.218-.313c-.346,0-.676-.074-.742-.305a1.814,1.814,0,0,1,.19-1.042c.3-.824.6-1.74.923-2.671a46.817,46.817,0,0,0,2.029-6.981A46.4,46.4,0,0,0,400.563,177l-.874,2.688a2.052,2.052,0,0,0-.132,1.369.9.9,0,0,0,.594.478,2.227,2.227,0,0,0,.586.057,8.369,8.369,0,0,0,2.235-.082Z" transform="translate(-214.538 -147.373)" fill="#263238"/>
        <path id="Path_2752" data-name="Path 2752" d="M403.33,202.546a24.926,24.926,0,0,0,13-4.016s-3.034,6.927-12.9,6.39Z" transform="translate(-215.211 -152.341)" fill="#eb996e"/>
        <path id="Path_2753" data-name="Path 2753" d="M404.535,187.64a2.473,2.473,0,0,1,2.152-.99,2.235,2.235,0,0,1,1.563.767,1.41,1.41,0,0,1,.173,1.608,1.649,1.649,0,0,1-1.757.521,5.037,5.037,0,0,1-1.771-.956,1.648,1.648,0,0,1-.4-.388.445.445,0,0,1,0-.5" transform="translate(-215.401 -150.256)" fill="#eb996e"/>
        <path id="Path_2754" data-name="Path 2754" d="M407.7,184.87c-.223,0-.173,1.468-1.385,2.556s-2.787,1-2.8,1.2.363.28,1.022.272a3.694,3.694,0,0,0,2.334-.923,3.224,3.224,0,0,0,1.072-2.136C407.972,185.214,407.8,184.862,407.7,184.87Z" transform="translate(-215.243 -149.944)" fill="#263238"/>
        <path id="Path_2755" data-name="Path 2755" d="M408.728,166.314c.148.363,1.492.141,3.092.264s2.894.521,3.092.181c.091-.165-.148-.5-.676-.824a5.2,5.2,0,0,0-2.326-.71,5.079,5.079,0,0,0-2.391.379C408.95,165.861,408.662,166.137,408.728,166.314Z" transform="translate(-216.156 -146.495)" fill="#263238"/>
        <path id="Path_2756" data-name="Path 2756" d="M393.231,164.31c.247.3,1.171-.057,2.292-.116s2.078.124,2.284-.208c.091-.156-.074-.462-.495-.742a3.3,3.3,0,0,0-3.694.264C393.231,163.842,393.115,164.161,393.231,164.31Z" transform="translate(-213.431 -146.072)" fill="#263238"/>
        <path id="Path_2757" data-name="Path 2757" d="M428.919,153.645c-1.369-4.032-6.893-8.452-12.1-10.439a9.9,9.9,0,0,0-8.946,1.047l-6.6,4.37a9.152,9.152,0,0,0,6.349,6.868c1.649.478,3.7.577,4.725,2s.495,3.6,1.476,5.105c1.354,2.078,4.947,1.9,5.97,4.123.453.99.247,2.177.717,3.158.619,1.3,3.982,2.9,5.351,2.473s1.319-2.813,1.748-4.049a6.514,6.514,0,0,0,.116-4.353C427.063,161.167,429.834,156.31,428.919,153.645Z" transform="translate(-214.851 -142.526)" fill="#263238"/>
        <path id="Path_2758" data-name="Path 2758" d="M426.19,179.57c0-.729.75-2.474,1.468-2.63,1.921-.371,5.4-.354,5.626,4.543.305,6.687-6.481,5.615-6.5,5.425S426.281,182.093,426.19,179.57Z" transform="translate(-219.221 -148.529)" fill="#ffbe9d"/>
        <path id="Path_2759" data-name="Path 2759" d="M429.248,184.743a2.073,2.073,0,0,0,.322.156,1.146,1.146,0,0,0,.874,0,2.873,2.873,0,0,0,1.212-2.646,3.776,3.776,0,0,0-.4-1.649,1.344,1.344,0,0,0-.915-.824.594.594,0,0,0-.676.354c-.074.19,0,.322-.066.33s-.148-.1-.1-.379a.775.775,0,0,1,.247-.437.908.908,0,0,1,.635-.2,1.649,1.649,0,0,1,1.262.981,3.942,3.942,0,0,1,.495,1.847,3.058,3.058,0,0,1-1.575,2.968,1.262,1.262,0,0,1-1.072-.132C429.265,184.908,429.224,184.76,429.248,184.743Z" transform="translate(-219.757 -148.993)" fill="#eb996e"/>
        <path id="Path_2760" data-name="Path 2760" d="M365.683,241.39l-11.832,30.863-22.263,1.418-3.438,9.672,29.382,5.7s8.84,2.572,13.877-8.648l8.617-30.7Z" transform="translate(-202.02 -159.862)" fill="#ffbe9d"/>
        <path id="Path_2761" data-name="Path 2761" d="M305.823,283.5a1.475,1.475,0,0,0,1.418.824,1.492,1.492,0,0,0,.363-.074c.824-.272.767-1.987.767-1.987l4.032-.66s5.244,3.381,7.116,5.626,6.6.429,6.6.429l1.649-8.6-7.421-6.712s.462.4-.057-.824-2.844-.784-2.844-.784c-.363-.619-1.888-.824-1.888-.824l-6.506.75a4.452,4.452,0,0,0-3.3,2.053L303,277.07s-1.459,3.141-1.22,3.875a1.311,1.311,0,0,0,1.517.824s.322,2.061.824,2.136a4.6,4.6,0,0,0,1.649-.388Z" transform="translate(-197.387 -164.865)" fill="#ffbe9d"/>
        <path id="Path_2762" data-name="Path 2762" d="M318.072,285.784a2.473,2.473,0,0,1-.388-.3l-1.089-.874a46.069,46.069,0,0,0-4.279-2.952h.091l-4.032.685.141-.173a4.478,4.478,0,0,1-.074.99,1.806,1.806,0,0,1-.462.965,1,1,0,0,1-.536.247,1.277,1.277,0,0,1-.561,0,1.648,1.648,0,0,1-1.006-.552,1.6,1.6,0,0,1-.173-.239l-.042-.066h0c-.049,0,.445.165.239.082h0l-.132.049c-.165.066-.338.132-.521.19a4.952,4.952,0,0,1-.552.132,1.65,1.65,0,0,1-.3,0,.668.668,0,0,1-.371-.066,1.163,1.163,0,0,1-.4-.536,5,5,0,0,1-.208-.552,10.5,10.5,0,0,1-.255-1.146l.239.165a1.542,1.542,0,0,1-1.509-.512,1.25,1.25,0,0,1-.272-.824,3.3,3.3,0,0,1,.141-.775,21.869,21.869,0,0,1,1.113-2.9h0c.462-.742.965-1.525,1.468-2.326.313-.495.619-.99.931-1.476a8.25,8.25,0,0,1,1.014-1.426,4.48,4.48,0,0,1,1.468-.973,5.722,5.722,0,0,1,1.649-.346l6.147-.685h.049a5.854,5.854,0,0,1,1.072.28,1.83,1.83,0,0,1,.938.66l-.231-.074a2.259,2.259,0,0,1,2.094.116,2.646,2.646,0,0,1,1.042,1.649l-.049-.082,5.112,4.6,1.377,1.27a3.648,3.648,0,0,1,.462.462,3.107,3.107,0,0,1-.521-.4l-1.435-1.2-5.219-4.469h0v-.049a2.325,2.325,0,0,0-.915-1.435,1.9,1.9,0,0,0-1.765-.074l-.141.057-.082-.132a1.563,1.563,0,0,0-.759-.495,5.61,5.61,0,0,0-1.006-.255h.049l-6.135.729a5.4,5.4,0,0,0-1.563.322,4.031,4.031,0,0,0-1.319.882,8.167,8.167,0,0,0-.965,1.361l-.931,1.476-1.468,2.326h0a22.26,22.26,0,0,0-1.089,2.836,3.038,3.038,0,0,0-.132.685.825.825,0,0,0,.19.552,1.138,1.138,0,0,0,1.1.371h.2v.2a9.06,9.06,0,0,0,.247,1.089,1.839,1.839,0,0,0,.417.874.329.329,0,0,0,.165,0h.247a3.729,3.729,0,0,0,.5-.124l.495-.173.124-.042h0l.24.091h0v.057a1.023,1.023,0,0,0,.141.19,1.279,1.279,0,0,0,.775.437,1.162,1.162,0,0,0,.445,0,.636.636,0,0,0,.363-.156,2.474,2.474,0,0,0,.445-1.649V282.2h.141l4.041-.625h.091a38.856,38.856,0,0,1,4.23,3.067c.47.4.824.71,1.047.931a2.423,2.423,0,0,1,.388.215Z" transform="translate(-197.367 -164.809)" fill="#eb996e"/>
        <path id="Path_2763" data-name="Path 2763" d="M316.734,273.658a8.122,8.122,0,0,1-2.084.619,20.813,20.813,0,0,1-5.376.388l.215-.141c-.1.322-.223.66-.363.99a16.112,16.112,0,0,1-3.3,5.128,13.567,13.567,0,0,1-1.369,1.237c-.354.264-.552.4-.577.371s.71-.66,1.723-1.814a18.04,18.04,0,0,0,3.133-5.079c.132-.33.247-.66.354-.965l.057-.156h.156a24.9,24.9,0,0,0,5.3-.247C315.927,273.8,316.716,273.592,316.734,273.658Z" transform="translate(-197.761 -165.52)" fill="#eb996e"/>
        <path id="Path_2764" data-name="Path 2764" d="M311.038,278.26a8.311,8.311,0,0,1-1.649,3.653,7.99,7.99,0,0,1-2.869,2.77c-.082-.1,1.287-1.237,2.523-3.022S310.9,278.218,311.038,278.26Z" transform="translate(-198.223 -166.33)" fill="#eb996e"/>
        <path id="Path_2765" data-name="Path 2765" d="M328.969,286.3a1.3,1.3,0,0,1-.208.116,4.127,4.127,0,0,1-.643.247,6.924,6.924,0,0,1-2.564.3,7.091,7.091,0,0,1-3.694-1.336,7.421,7.421,0,0,1-2.787-4.123l.239.156a17.008,17.008,0,0,1-4.708.223,16.676,16.676,0,0,1-1.74-.264,5.411,5.411,0,0,1-1.649-.544,1.369,1.369,0,0,1-.625-.71,1.22,1.22,0,0,1,.1-.948,1.237,1.237,0,0,1,.729-.569l.75-.181c1.98-.478,3.784-.824,5.3-1.064s2.754-.379,3.611-.453a8.107,8.107,0,0,1,1.336-.066,7.627,7.627,0,0,1-1.311.231c-.824.124-2.078.313-3.586.586s-3.3.651-5.252,1.146l-.742.2a.729.729,0,0,0-.478.379.758.758,0,0,0-.074.611.906.906,0,0,0,.453.478,5.022,5.022,0,0,0,1.525.487,16.192,16.192,0,0,0,1.7.255,16.844,16.844,0,0,0,4.593-.208h.19l.049.19a7.026,7.026,0,0,0,6.1,5.277,7.616,7.616,0,0,0,2.474-.173,8.318,8.318,0,0,1,.908-.239Z" transform="translate(-198.93 -166.123)" fill="#eb996e"/>
        <path id="Path_2766" data-name="Path 2766" d="M322.931,421.277a1.648,1.648,0,0,1,0-.729,4.782,4.782,0,0,1,.742-1.875,2.838,2.838,0,0,1,.445-.536.824.824,0,0,1,.824-.19.611.611,0,0,1,.371.371.826.826,0,0,1,0,.5,6.367,6.367,0,0,1-.388.75c-.289.487-.528.973-.9,1.517a1.072,1.072,0,0,1-.99.445,2.151,2.151,0,0,1-.956-.417,8.175,8.175,0,0,1-1.41-1.294c-.2-.24-.379-.478-.552-.729a2.277,2.277,0,0,1-.417-.824.824.824,0,0,1,.417-.906.948.948,0,0,1,.891.208,5.721,5.721,0,0,1,.938,1.064,6.885,6.885,0,0,1,.915,1.781,1.822,1.822,0,0,1,.165.718,13.913,13.913,0,0,0-1.336-2.317,5.7,5.7,0,0,0-.9-.948.6.6,0,0,0-.527-.14.387.387,0,0,0-.173.461,1.921,1.921,0,0,0,.363.668,8.363,8.363,0,0,0,.536.676,7.894,7.894,0,0,0,1.336,1.22,1.584,1.584,0,0,0,.75.346.625.625,0,0,0,.6-.272c.305-.445.6-1,.883-1.459a4.33,4.33,0,0,0,.371-.668.313.313,0,0,0-.116-.417c-.33-.132-.66.247-.891.569a7.229,7.229,0,0,0-1.007,2.433Z" transform="translate(-200.535 -190.728)" fill="#263238"/>
        <path id="Path_2767" data-name="Path 2767" d="M346.8,420.374l9.491,20.564,15.316-7.075-9.82-25.454Z" transform="translate(-205.292 -189.166)" fill="#ffbe9d"/>
        <path id="Path_2768" data-name="Path 2768" d="M354.555,444.349l5.541,10.562s-14.19,14.676-12.854,17.958l33.361-16-9.169-21.2Z" transform="translate(-205.353 -193.949)" fill="#455a64"/>
        <path id="Path_2769" data-name="Path 2769" d="M374.271,451.244a1.509,1.509,0,0,1,1.649,1.1A1.451,1.451,0,0,1,374.84,454a1.591,1.591,0,0,1-1.781-1.179,1.517,1.517,0,0,1,1.319-1.649" transform="translate(-209.898 -196.669)" fill="#e0e0e0"/>
        <g id="Group_412" data-name="Group 412" transform="translate(141.682 260.264)" opacity="0.6">
          <path id="Path_2770" data-name="Path 2770" d="M380.577,460.823l-1.418-2.663-31.44,16.358s-1.171,1.361-.5,2.326Z" transform="translate(-347.01 -458.16)" fill="#fff"/>
        </g>
        <path id="Path_2771" data-name="Path 2771" d="M362.1,458.983c.082.165.931-.156,1.987,0s1.806.619,1.93.487-.577-.965-1.856-1.113A2.167,2.167,0,0,0,362.1,458.983Z" transform="translate(-207.975 -197.927)" fill="#263238"/>
        <path id="Path_2772" data-name="Path 2772" d="M358.7,462.848c0,.173.874.116,1.757.536s1.393,1.08,1.55,1-.173-1.055-1.287-1.563S358.625,462.692,358.7,462.848Z" transform="translate(-207.379 -198.668)" fill="#263238"/>
        <path id="Path_2773" data-name="Path 2773" d="M358.166,468.671c.165,0,0-.965-.824-1.649s-1.781-.676-1.781-.512.693.417,1.377,1S358,468.728,358.166,468.671Z" transform="translate(-206.829 -199.344)" fill="#263238"/>
        <path id="Path_2774" data-name="Path 2774" d="M360.165,453.823c.141.116.784-.462,1.732-.824s1.806-.437,1.822-.619-.948-.428-2.061,0S360.025,453.732,360.165,453.823Z" transform="translate(-207.633 -196.839)" fill="#263238"/>
        <path id="Path_2775" data-name="Path 2775" d="M347.016,421.309,322,358.758s.561-10.719,2.523-14.059,61.561-23.046,61.561-23.046,15.18-3.653,25.3,0,20.712,7.33,19.588,14.4c-1.667,10.332-10.62,21.047-10.62,21.047l-43.816,1.3-23.912,8.707L368.7,413.207Z" transform="translate(-200.941 -173.66)" fill="#263238"/>
        <path id="Path_2776" data-name="Path 2776" d="M325.241,390.113l-.561,22.642,16.862.417,2.425-27.177Z" transform="translate(-201.411 -185.233)" fill="#ffbe9d"/>
        <path id="Path_2777" data-name="Path 2777" d="M319.385,415.926l.305,11.939s-19.213,6.907-19.46,10.431l36.988.371,1.138-23.087Z" transform="translate(-197.121 -190.424)" fill="#455a64"/>
        <path id="Path_2778" data-name="Path 2778" d="M337.339,428.649a1.517,1.517,0,0,1,1.03,1.74,1.451,1.451,0,0,1-1.707,1.014,1.591,1.591,0,0,1-1.08-1.847,1.509,1.509,0,0,1,1.9-.874" transform="translate(-203.317 -192.708)" fill="#e0e0e0"/>
        <g id="Group_413" data-name="Group 413" transform="translate(103.088 245.242)" opacity="0.6">
          <path id="Path_2779" data-name="Path 2779" d="M337.215,442.933l-.066-2.993-35.455.759s-1.649.7-1.476,1.864Z" transform="translate(-300.205 -439.94)" fill="#fff"/>
        </g>
        <path id="Path_2780" data-name="Path 2780" d="M323.11,430.192c0,.181.908.272,1.789.824s1.344,1.361,1.517,1.287-.1-1.113-1.179-1.806S323.068,430,323.11,430.192Z" transform="translate(-201.135 -192.956)" fill="#263238"/>
        <path id="Path_2781" data-name="Path 2781" d="M318.38,432.115c-.042.173.729.487,1.344,1.262s.775,1.575.956,1.575.305-1.03-.47-1.97S318.388,431.942,318.38,432.115Z" transform="translate(-200.305 -193.313)" fill="#263238"/>
        <path id="Path_2782" data-name="Path 2782" d="M315.356,437.064c.165,0,.428-.824,0-1.847s-1.294-1.4-1.377-1.25.437.685.824,1.509S315.173,437.047,315.356,437.064Z" transform="translate(-199.532 -193.644)" fill="#263238"/>
        <path id="Path_2783" data-name="Path 2783" d="M323.558,424.865c.074.165.9-.082,1.921,0s1.814.417,1.913.255-.668-.824-1.875-.882S323.468,424.676,323.558,424.865Z" transform="translate(-201.213 -191.943)" fill="#263238"/>
        <path id="Path_2784" data-name="Path 2784" d="M334.441,314.712s-10.1-.824-11.222,10.159S321,386.984,321,386.984l23.615,1.962,3.653-52.276,37.643-15.979S341.185,313.311,334.441,314.712Z" transform="translate(-200.765 -172.695)" fill="#263238"/>
        <path id="Path_2785" data-name="Path 2785" d="M386.715,296.81s-6.126,17.192-4.947,19.1,16.936,9.8,16.936,9.8l39.454,15.146a33.049,33.049,0,0,0,4.049-16.342c0-9.9-13.72-27.715-13.72-27.715Z" transform="translate(-211.401 -169.585)" fill="#263238"/>
        <path id="Path_2786" data-name="Path 2786" d="M387.786,320.89l-.19.1-.561.264-2.188.965-8.189,3.58-28.315,12.19.124-.181c-.354,5.162-.742,10.719-1.146,16.49-.956,13.49-1.839,25.924-2.539,35.769v.173h-.173l-17.2-1.51-4.732-.437-1.245-.132a3.694,3.694,0,0,1-.417-.057,2.412,2.412,0,0,1,.428,0l1.245.074,4.741.346,17.208,1.361-.19.165c.676-9.845,1.534-22.263,2.474-35.769.4-5.772.824-11.345,1.163-16.49v-.124l.124-.049,28.372-12.047,8.246-3.463,2.218-.908.569-.223a.707.707,0,0,1,.181-.082Z" transform="translate(-200.766 -173.81)" fill="#455a64"/>
        <path id="Path_2787" data-name="Path 2787" d="M433.993,322.025a6.25,6.25,0,0,1-1.1-.305l-2.977-.957a64.322,64.322,0,0,0-9.9-2.515,29.207,29.207,0,0,0-10.183.132,40.146,40.146,0,0,0-4.073,1.179,4.743,4.743,0,0,1,1.022-.521,18.729,18.729,0,0,1,2.985-.965,27.316,27.316,0,0,1,10.315-.264,55.194,55.194,0,0,1,9.969,2.655c1.245.437,2.243.824,2.935,1.089a5.2,5.2,0,0,1,1.005.47Z" transform="translate(-215.637 -173.206)" fill="#455a64"/>
        <path id="Path_2788" data-name="Path 2788" d="M428.567,311.936a27.592,27.592,0,0,0-3.455,0c-1.064.074-2.326.24-3.735.4s-2.943.354-4.543.66a21.166,21.166,0,0,0-7.734,2.861,26.02,26.02,0,0,0-2.68,2.16,3.23,3.23,0,0,1,.577-.742,11.76,11.76,0,0,1,1.93-1.649,19.879,19.879,0,0,1,7.825-3.042c1.649-.305,3.175-.487,4.584-.625s2.68-.272,3.76-.313a14.778,14.778,0,0,1,2.556.116,2.762,2.762,0,0,1,.915.173Z" transform="translate(-215.752 -172.186)" fill="#455a64"/>
        <path id="Path_2789" data-name="Path 2789" d="M370.09,232.48s7.05-11.766,9.013-14.149a15.74,15.74,0,0,1,5.772-4.239,11.937,11.937,0,0,1,2.745-.824l10.15-2.243s0,6.927,7.281,7.355,13.366-9.68,13.366-9.68,11.725,1.814,14.529,3.257,7.214,3.3,9.647,15.42l1.7,11.89-20.213,1.839-1.938,30.047-10.026,7.058s-27.8,7.223-29.569,7.7-2.366-44.8-2.366-44.8S373.042,236.529,370.09,232.48Z" transform="translate(-209.378 -154.126)" fill="#8880f7"/>
        <path id="Path_2790" data-name="Path 2790" d="M385.5,231.41a4.845,4.845,0,0,0-.388.866,23.031,23.031,0,0,0-.824,2.473,47.487,47.487,0,0,0-2.069,16.886c.066,1.1.148,1.98.239,2.581a4.639,4.639,0,0,0,.165.931,3.811,3.811,0,0,0,0-.948c-.042-.611-.082-1.484-.1-2.572a55.912,55.912,0,0,1,2.054-16.8c.289-1.047.544-1.888.729-2.474a3.629,3.629,0,0,0,.208-.948Z" transform="translate(-211.493 -158.111)" fill="#263238"/>
        <path id="Path_2791" data-name="Path 2791" d="M436.172,230.54a3.7,3.7,0,0,1,0,.923c0,.676-.057,1.509-.1,2.473-.1,2.2-.24,5.063-.388,8.246s-.313,6.118-.478,8.246c-.074,1.047-.148,1.9-.215,2.474a3.836,3.836,0,0,1-.141.908,3.3,3.3,0,0,1,0-.915c0-.685.049-1.517.082-2.473.091-2.21.215-5.063.346-8.246s.338-6.118.512-8.246c.091-1.055.173-1.9.239-2.473a4.062,4.062,0,0,1,.142-.916Z" transform="translate(-220.736 -157.957)" fill="#263238"/>
        <path id="Path_2792" data-name="Path 2792" d="M386.907,283.214l38.07-8.246,1.757-27.21,16.928-1.563s-1.188,18.561-1.278,24.126c-.247,16.046-5.64,18.808-8.385,20.976s-48.8,1.188-48.8,1.188Z" transform="translate(-212.029 -160.706)" fill="#ffbe9d"/>
        <path id="Path_2793" data-name="Path 2793" d="M360.191,294.179a1.476,1.476,0,0,0,1.418.824,2,2,0,0,0,.371-.082c.824-.264.767-1.98.767-1.98l4.032-.66s5.244,3.381,7.108,5.626,6.6.428,6.6.428l1.649-8.6-7.421-6.712s.453.4-.057-.824-2.844-.784-2.844-.784c-.363-.619-1.888-.824-1.888-.824l-6.514.75a4.461,4.461,0,0,0-3.3,2.045l-2.754,4.361s-1.451,3.141-1.22,3.868a1.3,1.3,0,0,0,1.517.824s.322,2.069.866,2.136a4.361,4.361,0,0,0,1.608-.388Z" transform="translate(-206.925 -166.739)" fill="#ffbe9d"/>
        <path id="Path_2794" data-name="Path 2794" d="M375.215,289.528c0,.074-.874,0-2.267.049a19.715,19.715,0,0,0-5.314,1,18.7,18.7,0,0,0-2.737,1.171c-.784.445-1.608.824-1.864,1.377a.824.824,0,0,0,.074.784,1.089,1.089,0,0,0,.495.417,1.765,1.765,0,0,0,.569.082.686.686,0,0,1-.625.066,1.212,1.212,0,0,1-.625-.428,1.064,1.064,0,0,1-.156-1.022,2.12,2.12,0,0,1,.824-.915c.354-.231.729-.47,1.138-.693a16.977,16.977,0,0,1,8.246-2.119,7.644,7.644,0,0,1,2.243.233Z" transform="translate(-208.08 -168.265)" fill="#eb996e"/>
        <path id="Path_2795" data-name="Path 2795" d="M375.915,294.562c0,.124-2.655,0-5.912.208s-5.879.586-5.9.462a6.911,6.911,0,0,1,1.7-.417,39.667,39.667,0,0,1,4.18-.47,37.275,37.275,0,0,1,4.205,0,6.531,6.531,0,0,1,1.732.215Z" transform="translate(-208.327 -169.143)" fill="#eb996e"/>
        <path id="Path_2796" data-name="Path 2796" d="M361.086,294.783a2.746,2.746,0,0,1-.082-.693,14.382,14.382,0,0,1,0-1.9,7.315,7.315,0,0,1,.181-1.319,3.966,3.966,0,0,1,.635-1.418,8.889,8.889,0,0,1,2.473-2.473,12.737,12.737,0,0,1,3.116-1.575,11.122,11.122,0,0,1,2.813-.417h1.9a2.268,2.268,0,0,1,.693.074,21.156,21.156,0,0,1-2.581.215,12.235,12.235,0,0,0-2.709.5,12.665,12.665,0,0,0-2.993,1.55,8.864,8.864,0,0,0-2.366,2.375,4.947,4.947,0,0,0-.824,2.547C361.136,293.785,361.176,294.795,361.086,294.783Z" transform="translate(-207.779 -167.509)" fill="#eb996e"/>
        <path id="Path_2797" data-name="Path 2797" d="M370.022,282.524c0,.066-.973.091-2.532.272s-3.9.338-5.261,2.4a22.19,22.19,0,0,0-3.3,5.112,13.642,13.642,0,0,0-.619,2.474,2,2,0,0,1,0-.693,6.46,6.46,0,0,1,.379-1.847,19.172,19.172,0,0,1,3.23-5.269A7.162,7.162,0,0,1,363.2,283.7a4.65,4.65,0,0,1,1.534-.729,14.15,14.15,0,0,1,2.762-.437,10.019,10.019,0,0,1,2.529-.005Z" transform="translate(-207.307 -167.066)" fill="#eb996e"/>
        <path id="Path_2798" data-name="Path 2798" d="M372.506,296.474a2.472,2.472,0,0,1-.388-.3l-1.1-.874a44.952,44.952,0,0,0-4.279-2.952h.1l-4.032.693.141-.173a4.383,4.383,0,0,1-.082.982,1.789,1.789,0,0,1-.453.973,1.03,1.03,0,0,1-.536.247,1.458,1.458,0,0,1-.569,0,1.649,1.649,0,0,1-1-.552,2.606,2.606,0,0,1-.181-.239v-.066h0l.239.082h0l-.132.049c-.173.066-.346.132-.521.181a4.171,4.171,0,0,1-.552.141,1.807,1.807,0,0,1-.3,0,.643.643,0,0,1-.379-.074,1.271,1.271,0,0,1-.4-.528c-.074-.19-.141-.371-.2-.561a10.346,10.346,0,0,1-.255-1.138l.231.165a1.534,1.534,0,0,1-1.5-.512,1.27,1.27,0,0,1-.28-.824,3.989,3.989,0,0,1,.148-.784,20.309,20.309,0,0,1,1.113-2.894h0l1.468-2.322.931-1.476a7.957,7.957,0,0,1,1.022-1.426,4.394,4.394,0,0,1,1.459-.973,5.836,5.836,0,0,1,1.649-.346l6.135-.693h.049a5.2,5.2,0,0,1,1.08.28,1.8,1.8,0,0,1,.932.651l-.223-.066a2.234,2.234,0,0,1,2.094.116,2.623,2.623,0,0,1,1.03,1.649l-.049-.082,5,4.642,1.377,1.27a3.718,3.718,0,0,1,.462.462,3.108,3.108,0,0,1-.521-.4l-1.435-1.212c-1.27-1.089-3.034-2.622-5.2-4.494h0v-.057a2.334,2.334,0,0,0-.915-1.426,1.921,1.921,0,0,0-1.765-.082l-.141.066-.082-.132a1.551,1.551,0,0,0-.759-.495,6,6,0,0,0-1.005-.255h.049l-6.147.729a5.087,5.087,0,0,0-1.55.322,3.908,3.908,0,0,0-1.319.882,7.041,7.041,0,0,0-.965,1.361c-.313.487-.619.981-.931,1.476-.5.824-1.007,1.583-1.468,2.326h0a22.2,22.2,0,0,0-1.1,2.828,3.77,3.77,0,0,0-.132.693.824.824,0,0,0,.2.552,1.121,1.121,0,0,0,1.1.371h.208v.2a9.9,9.9,0,0,0,.24,1.089,2.11,2.11,0,0,0,.417.874.57.57,0,0,0,.165,0h.247a1.93,1.93,0,0,0,.512-.124l.495-.173.116-.049h0c-.208-.082.3.1.247.082h0v.049a1.548,1.548,0,0,0,.132.19,1.328,1.328,0,0,0,.784.445,1.129,1.129,0,0,0,.437,0,.7.7,0,0,0,.371-.156,2.54,2.54,0,0,0,.445-1.649v-.148h.132l4.041-.625h.091a38.309,38.309,0,0,1,4.238,3.067c.47.4.824.71,1.047.931a2.424,2.424,0,0,1,.467.213Z" transform="translate(-206.922 -166.685)" fill="#eb996e"/>
        <path id="Path_2799" data-name="Path 2799" d="M418.318,314.15h-6.4v1.407l14.017,136.734h7.479Z" transform="translate(-216.718 -172.628)" fill="#455a64"/>
        <path id="Path_2800" data-name="Path 2800" d="M418.3,314.15a5.779,5.779,0,0,0,.066.718c.066.47.124,1.179.215,2.094.19,1.839.478,4.535.824,8.006.742,6.951,1.822,17.01,3.158,29.478,2.7,24.9,6.432,59.416,10.6,97.874l.215-.239H425.9l.215.19c-6.6-64.355-12.245-118.809-14.17-136.709h0V314.15l-.057.057h4.865l-4.865-.042h-.066v1.476h0c1.748,17.921,7.273,72.386,13.869,136.742v.2H433.6v-.239c-4.238-38.506-8.039-73.062-10.785-98-1.393-12.434-2.474-22.469-3.3-29.411-.388-3.455-.693-6.126-.9-7.957-.1-.9-.19-1.583-.239-2.061S418.3,314.15,418.3,314.15Z" transform="translate(-216.702 -172.628)" fill="#263238"/>
        <path id="Path_2801" data-name="Path 2801" d="M281.087,314.15H274.68v1.443l13.349,136.663H294.6Z" transform="translate(-192.638 -172.628)" fill="#263238"/>
        <path id="Path_2802" data-name="Path 2802" d="M403.537,314.633l-228.275.247-.082-6.027H403.537Z" transform="translate(-175.18 -171.698)" fill="#455a64"/>
        <path id="Path_2803" data-name="Path 2803" d="M211.344,314.15h6.407v1.443L204.414,452.261H197.83Z" transform="translate(-179.154 -172.628)" fill="#455a64"/>
        <path id="Path_2804" data-name="Path 2804" d="M211,316.32s0,.239-.049.71-.1,1.154-.19,2.053c-.173,1.814-.417,4.469-.75,7.89-.651,6.852-1.608,16.775-2.787,29.057-2.383,24.547-5.682,58.542-9.358,96.471l-.181-.2h6.6l-.181.156c6.234-63.276,11.543-116.879,13.275-134.681h0v-1.451l.049.049h.049v1.5h0c-1.723,17.811-6.9,71.422-13.024,134.714v.156H197.5v-.2c3.735-37.926,7.091-71.983,9.515-96.562,1.22-12.261,2.21-22.164,2.894-29,.346-3.4.611-6.052.824-7.85.091-.891.165-1.563.215-2.029Z" transform="translate(-179.097 -173.009)" fill="#263238"/>
        <path id="Path_2805" data-name="Path 2805" d="M325.047,314.78H318.64v1.451l13.349,136.14h6.58Z" transform="translate(-200.351 -172.738)" fill="#455a64"/>
        <path id="Path_2806" data-name="Path 2806" d="M325.388,317a6.337,6.337,0,0,0,.057.7c.057.462.1,1.154.19,2.054.173,1.8.417,4.445.742,7.858.66,6.828,1.649,16.705,2.787,28.941,2.383,24.456,5.689,58.347,9.367,96.092l.181-.2h-6.6l.173.156c-6.234-63.036-11.543-116.434-13.267-134.17h0V317h-.082v1.5h0c1.7,17.645,6.893,71.059,13.011,134.1v.156h6.934v-.2c-3.735-37.781-7.091-71.735-9.515-96.191-1.228-12.22-2.21-22.081-2.894-28.861-.346-3.4-.611-6.027-.824-7.814-.1-.891-.165-1.563-.215-2.029S325.388,317,325.388,317Z" transform="translate(-200.404 -173.127)" fill="#263238"/>
        <path id="Path_2807" data-name="Path 2807" d="M407.354,315.866c0-.116-46.026-.208-102.787-.208s-102.8.091-102.8.208,46.017.208,102.8.208S407.354,315.982,407.354,315.866Z" transform="translate(-179.845 -172.893)" fill="#263238"/>
        <path id="Path_2808" data-name="Path 2808" d="M276.978,257.51l50.14.4c1.649,0,3.183.784,3.43,2.391l5.475,36.544h25.822a1.511,1.511,0,1,1,0,3.022H279.394L273.762,261.3a3.3,3.3,0,0,1,3.215-3.784Z" transform="translate(-192.471 -162.69)" fill="#e0e0e0"/>
        <path id="Path_2809" data-name="Path 2809" d="M276.955,257.508a2.736,2.736,0,0,0-.824.074,3.312,3.312,0,0,0-2.532,2.869,9.147,9.147,0,0,0,.181,2.061c.215,1.476.453,3.183.729,5.088l4.65,32.281v.132h.132l80.03.049h2.152a2.111,2.111,0,0,0,1.138-.215,1.74,1.74,0,0,0,.775-.906,1.707,1.707,0,0,0-.784-2.078,2,2,0,0,0-1.129-.215H335.907l.2.165c-1.98-13.085-3.818-25.3-5.467-36.28a2.813,2.813,0,0,0-.931-1.913,3.7,3.7,0,0,0-1.913-.824,15.261,15.261,0,0,0-2.02-.066H323.8l-7.553-.049-13.416-.082-19.014-.1h-5.113l5.113.074,19.1.215,13.416.132,7.553.066h1.97a15.584,15.584,0,0,1,1.97.066,3.479,3.479,0,0,1,1.748.775,2.473,2.473,0,0,1,.824,1.715l5.409,36.28v.165h25.684a1.732,1.732,0,0,1,.938.156,1.3,1.3,0,0,1,0,2.284,1.724,1.724,0,0,1-.938.165H359.34l-80.03.049.156.132c-2.012-13.572-3.647-24.6-4.782-32.264l-.767-5.079a9.721,9.721,0,0,1-.208-2.029,3.3,3.3,0,0,1,2.473-2.844,6.552,6.552,0,0,1,.773-.044Z" transform="translate(-192.448 -162.688)" fill="#263238"/>
        <path id="Path_2810" data-name="Path 2810" d="M313.123,281.961a3.141,3.141,0,1,1-3.133-3.141,3.141,3.141,0,0,1,3.133,3.141Z" transform="translate(-198.281 -166.429)" fill="#fff"/>
        <path id="Path_2811" data-name="Path 2811" d="M345.357,299.614c-.074,0-1.649-9.3-3.571-20.786s-3.373-20.811-3.3-20.828,1.649,9.293,3.571,20.786S345.424,299.6,345.357,299.614Z" transform="translate(-203.834 -162.776)" fill="#263238"/>
      </g>
    </g>
  </g>
</svg>
