<svg xmlns="http://www.w3.org/2000/svg" xmlns:xlink="http://www.w3.org/1999/xlink" width="400" height="400" viewBox="0 0 400 400">
  <defs>
    <clipPath id="clip-Wizzard-6">
      <rect width="400" height="400"/>
    </clipPath>
  </defs>
  <g id="Wizzard-6" clip-path="url(#clip-Wizzard-6)">
    <rect width="400" height="400" fill="rgba(255,255,255,0)"/>
    <g id="Invite-rafiki_1_" data-name="Invite-rafiki(1)" transform="translate(-32.013 -19.755)">
      <g id="freepik--background-complete--inject-3" transform="translate(0 55)">
        <rect id="Rectangle_490" data-name="Rectangle 490" width="464.025" height="0.232" transform="translate(0 303.844)" fill="#ebebeb"/>
        <rect id="Rectangle_491" data-name="Rectangle 491" width="47.238" height="0.232" transform="translate(365.986 314.47)" fill="#ebebeb"/>
        <rect id="Rectangle_492" data-name="Rectangle 492" width="43.813" height="0.232" transform="translate(48.686 311.723)" fill="#ebebeb"/>
        <rect id="Rectangle_493" data-name="Rectangle 493" width="17.809" height="0.232" transform="translate(351.555 310.164)" fill="#ebebeb"/>
        <rect id="Rectangle_494" data-name="Rectangle 494" width="13.067" height="0.232" transform="translate(294.322 316.317)" fill="#ebebeb"/>
        <rect id="Rectangle_495" data-name="Rectangle 495" width="32.89" height="0.232" transform="translate(253.163 316.317)" fill="#ebebeb"/>
        <rect id="Rectangle_496" data-name="Rectangle 496" width="52.89" height="0.232" transform="translate(181.174 312.4)" fill="#ebebeb"/>
        <path id="Path_2533" data-name="Path 2533" d="M222.7,317.453H43.5a5.3,5.3,0,0,1-5.29-5.3V60.253A5.3,5.3,0,0,1,43.5,55H222.7a5.3,5.3,0,0,1,5.3,5.3V312.154A5.3,5.3,0,0,1,222.7,317.453ZM43.5,55.186a5.067,5.067,0,0,0-5.058,5.067v251.9a5.067,5.067,0,0,0,5.058,5.067H222.7a5.077,5.077,0,0,0,5.067-5.067V60.253a5.076,5.076,0,0,0-5.067-5.067Z" transform="translate(-2.749 -55)" fill="#ebebeb"/>
        <path id="Path_2534" data-name="Path 2534" d="M439.006,317.453H259.8a5.308,5.308,0,0,1-5.3-5.3V60.253A5.308,5.308,0,0,1,259.8,55H439.006a5.3,5.3,0,0,1,5.281,5.253v251.9A5.3,5.3,0,0,1,439.006,317.453ZM259.8,55.186a5.076,5.076,0,0,0-5.067,5.067v251.9a5.077,5.077,0,0,0,5.067,5.067H439.006a5.077,5.077,0,0,0,5.067-5.067V60.253a5.076,5.076,0,0,0-5.067-5.067Z" transform="translate(-18.311 -55)" fill="#ebebeb"/>
        <rect id="Rectangle_497" data-name="Rectangle 497" width="125.936" height="188.487" transform="translate(192.886 216.737) rotate(180)" fill="#e6e6e6"/>
        <rect id="Rectangle_498" data-name="Rectangle 498" width="125.936" height="188.487" transform="translate(180.049 196.649) rotate(180)" fill="#f5f5f5"/>
        <rect id="Rectangle_499" data-name="Rectangle 499" width="177.202" height="115.886" transform="translate(175.019 13.805) rotate(90)" fill="#fff"/>
        <rect id="Rectangle_500" data-name="Rectangle 500" width="177.202" height="2.116" transform="translate(71.293 33.892) rotate(90)" fill="#e6e6e6"/>
        <rect id="Rectangle_501" data-name="Rectangle 501" width="121.779" height="7.573" transform="translate(188.014 96.712) rotate(180)" fill="#f5f5f5"/>
        <path id="Path_2535" data-name="Path 2535" d="M63.16,75.37H202.85a.78.78,0,0,1,.77.78h0a.77.77,0,0,1-.77.77H63.16a.77.77,0,0,1-.77-.77h0a.78.78,0,0,1,.77-.78Z" transform="translate(-4.489 -56.466)" fill="#e6e6e6"/>
        <path id="Path_2536" data-name="Path 2536" d="M58.22,75.907a3.87,3.87,0,1,0,1.12-2.76A3.87,3.87,0,0,0,58.22,75.907Z" transform="translate(-4.189 -56.223)" fill="#e6e6e6"/>
        <path id="Path_2537" data-name="Path 2537" d="M206.629,80.535h0a1.049,1.049,0,0,0,1.049-1.039V77.249a1.049,1.049,0,0,0-1.049-1.039h0a1.039,1.039,0,0,0-1.039,1.039V79.5a1.039,1.039,0,0,0,1.039,1.039Z" transform="translate(-14.792 -56.526)" fill="#e6e6e6"/>
        <path id="Path_2538" data-name="Path 2538" d="M75.709,80.535h0A1.049,1.049,0,0,0,76.758,79.5V77.249a1.049,1.049,0,0,0-1.049-1.039h0a1.039,1.039,0,0,0-1.039,1.039V79.5a1.039,1.039,0,0,0,1.039,1.039Z" transform="translate(-5.372 -56.526)" fill="#e6e6e6"/>
        <rect id="Rectangle_502" data-name="Rectangle 502" width="129.092" height="177.685" transform="translate(177.961 187.315) rotate(180)" fill="#8880f7" opacity="0.5"/>
        <path id="Path_2539" data-name="Path 2539" d="M189.15,75.907a3.861,3.861,0,1,0,1.114-2.76A3.861,3.861,0,0,0,189.15,75.907Z" transform="translate(-13.609 -56.223)" fill="#e6e6e6"/>
        <rect id="Rectangle_503" data-name="Rectangle 503" width="24.853" height="55.117" transform="translate(198.065 300.234) rotate(180)" fill="#f0f0f0"/>
        <rect id="Rectangle_504" data-name="Rectangle 504" width="122.586" height="3.489" transform="translate(193.285 303.723) rotate(180)" fill="#f0f0f0"/>
        <rect id="Rectangle_505" data-name="Rectangle 505" width="107.273" height="55.117" transform="translate(65.929 245.117)" fill="#f5f5f5"/>
        <path id="Path_2649" data-name="Path 2649" d="M0,0H87.729V18.078H0Z" transform="translate(75.701 251.901)" fill="#c3bffb"/>
        <path id="Path_2650" data-name="Path 2650" d="M0,0H87.729V18.078H0Z" transform="translate(75.701 275.371)" fill="#c3bffb"/>
        <rect id="Rectangle_508" data-name="Rectangle 508" width="24.547" height="2.478" rx="1.18" transform="translate(131.839 262.174) rotate(180)" fill="#f5f5f5"/>
        <rect id="Rectangle_509" data-name="Rectangle 509" width="24.547" height="2.478" rx="1.18" transform="translate(131.839 285.645) rotate(180)" fill="#f5f5f5"/>
        <path id="Path_2540" data-name="Path 2540" d="M121.1,309.13s-.306,9.28-11.758,9.28-11.749-9.28-11.749-9.28Z" transform="translate(-7.022 -73.285)" fill="#f0f0f0"/>
        <path id="Path_2541" data-name="Path 2541" d="M149.968,309.13s-.3,9.28-11.758,9.28-11.749-9.28-11.749-9.28Z" transform="translate(-9.099 -73.285)" fill="#f0f0f0"/>
        <path id="Path_2542" data-name="Path 2542" d="M121.1,302.5s-.306,9.28-11.758,9.28S97.59,302.5,97.59,302.5Z" transform="translate(-7.022 -72.808)" fill="#f0f0f0"/>
        <path id="Path_2543" data-name="Path 2543" d="M149.968,302.5s-.3,9.28-11.758,9.28-11.749-9.28-11.749-9.28Z" transform="translate(-9.099 -72.808)" fill="#f0f0f0"/>
        <path id="Path_2544" data-name="Path 2544" d="M178.838,309.13s-.3,9.28-11.749,9.28-11.758-9.28-11.758-9.28Z" transform="translate(-11.176 -73.285)" fill="#f0f0f0"/>
        <path id="Path_2545" data-name="Path 2545" d="M178.838,302.5s-.3,9.28-11.749,9.28-11.758-9.28-11.758-9.28Z" transform="translate(-11.176 -72.808)" fill="#f0f0f0"/>
        <rect id="Rectangle_510" data-name="Rectangle 510" width="75.051" height="108.192" transform="translate(414.351 136.99) rotate(180)" fill="#e6e6e6"/>
        <path id="Path_2646" data-name="Path 2646" d="M0,0H87.413V108.192H0Z" transform="translate(405.878 136.99) rotate(180)" fill="#8880f7"/>
        <rect id="Rectangle_512" data-name="Rectangle 512" width="94.29" height="65.066" transform="translate(394.705 35.749) rotate(90)" fill="#fff"/>
        <rect id="Rectangle_513" data-name="Rectangle 513" width="96.703" height="1.188" transform="translate(342.683 34.542) rotate(90)" fill="#f5f5f5"/>
        <rect id="Rectangle_514" data-name="Rectangle 514" width="18.756" height="122.976" transform="translate(411.952 298.183) rotate(180)" fill="#f0f0f0"/>
        <rect id="Rectangle_515" data-name="Rectangle 515" width="154.678" height="5.652" transform="translate(407.006 303.825) rotate(180)" fill="#f0f0f0"/>
        <rect id="Rectangle_516" data-name="Rectangle 516" width="145.815" height="122.976" transform="translate(247.381 175.197)" fill="#f5f5f5"/>
        <rect id="Rectangle_517" data-name="Rectangle 517" width="125.547" height="29.252" transform="translate(257.516 219.642)" fill="#c3bffb"/>
        <path id="Path_2648" data-name="Path 2648" d="M0,0H125.547V29.252H0Z" transform="translate(257.516 257.942)" fill="#c3bffb"/>
        <rect id="Rectangle_519" data-name="Rectangle 519" width="76.221" height="4.009" rx="2.005" transform="translate(358.404 221.656) rotate(180)" fill="#f5f5f5"/>
        <rect id="Rectangle_520" data-name="Rectangle 520" width="76.221" height="4.009" rx="2.005" transform="translate(358.404 259.947) rotate(180)" fill="#f5f5f5"/>
        <path id="Path_2647" data-name="Path 2647" d="M0,0H125.547V29.252H0Z" transform="translate(257.516 181.35)" fill="#c3bffb"/>
        <rect id="Rectangle_522" data-name="Rectangle 522" width="76.221" height="4.009" rx="2.005" transform="translate(358.404 183.364) rotate(180)" fill="#f5f5f5"/>
        <path id="Path_2546" data-name="Path 2546" d="M295.508,151.444a10.812,10.812,0,0,0,0-21.624H294.19v21.624Z" transform="translate(-21.167 -60.383)" fill="#e0e0e0"/>
        <circle id="Ellipse_103" data-name="Ellipse 103" cx="10.812" cy="10.812" r="10.812" transform="translate(262.211 69.437)" fill="#f5f5f5"/>
        <path id="Path_2547" data-name="Path 2547" d="M291.314,140.818a21.772,21.772,0,0,1-21.744-21.754V106.072a2.042,2.042,0,0,1,4.083,0v12.993A17.689,17.689,0,0,0,291.286,136.7a2.042,2.042,0,1,1,0,4.083Z" transform="translate(-19.395 -58.528)" fill="#e0e0e0"/>
        <path id="Path_2548" data-name="Path 2548" d="M251.69,115.8H288.4a4.009,4.009,0,0,0,3.963-4.575L289.211,89.3a10.58,10.58,0,0,0-10.478-9.067H261.379A10.58,10.58,0,0,0,250.9,89.3l-3.165,21.893a4,4,0,0,0,3.953,4.612Z" transform="translate(-17.821 -56.815)" fill="#f5f5f5"/>
      </g>
      <g id="freepik--Shadow--inject-3" transform="translate(52.073 379.743)">
        <ellipse id="freepik--path--inject-3" cx="179.94" cy="10.506" rx="179.94" ry="10.506" fill="#f5f5f5"/>
      </g>
      <g id="freepik--character-2--inject-3" transform="translate(246.789 102.657)">
        <path id="Path_2549" data-name="Path 2549" d="M293.265,398.722l-7.025-2.2,3.23-16.863,7.025,2.209Z" transform="translate(-267.383 -126.016)" fill="#ff8b7b"/>
        <path id="Path_2550" data-name="Path 2550" d="M361.544,406.818h-7.369L348.44,389.76H355.8Z" transform="translate(-271.859 -126.743)" fill="#ff8b7b"/>
        <path id="Path_2551" data-name="Path 2551" d="M352.5,407.22h8.983a.631.631,0,0,1,.622.5l1.457,6.543a1.077,1.077,0,0,1-1.077,1.309c-2.9-.046-5-.213-8.64-.213-2.237,0-8.984.232-12.065.232s-3.489-3.063-2.227-3.332c5.67-1.244,9.949-2.951,11.768-4.585A1.763,1.763,0,0,1,352.5,407.22Z" transform="translate(-271.171 -127.999)" fill="#263238"/>
        <path id="Path_2552" data-name="Path 2552" d="M285.084,396.952l7.675,2.4a.65.65,0,0,1,.445.668l-.575,6.682a1.067,1.067,0,0,1-1.4.928c-2.784-.928-6.7-2.329-10.209-3.415-4.065-1.281-7.972-2.431-12.742-3.935-2.886-.928-2.784-4.065-1.485-3.954,5.875.52,10.728,2.079,16.4.64A3.36,3.36,0,0,1,285.084,396.952Z" transform="translate(-265.921 -127.215)" fill="#263238"/>
        <path id="Path_2553" data-name="Path 2553" d="M330.591,169.473c-1.234,1.735-2.571,3.592-3.833,5.42s-2.515,3.712-3.759,5.568c-2.45,3.712-4.817,7.471-6.914,11.257-.548.928-.993,1.856-1.5,2.849s-.928,1.856-1.336,2.784-.8,1.856-1.151,2.784l-.214.557a.5.5,0,0,1-.065.13v-.882a2.968,2.968,0,0,0-.084-.455,1.182,1.182,0,0,0-.1-.353l-.056-.176-.111-.26a5,5,0,0,0-.278-.538,4.43,4.43,0,0,0-.538-.705,4.64,4.64,0,0,0-1.986-1.29,4.547,4.547,0,0,0-1.114-.223,3.254,3.254,0,0,0-.52,0h-.371a4.342,4.342,0,0,0-1.114.278,5.438,5.438,0,0,0-.557.26,2.929,2.929,0,0,0-.306.195l-.186.148-.121.1a1.141,1.141,0,0,0-.195.195c-.065.111.083,0,.2-.148.557-.6,1.281-1.485,1.93-2.339l2.042-2.673c1.392-1.791,2.784-3.619,4.269-5.383l4.882,2.6c-.677,2.283-1.485,4.464-2.367,6.654-.464,1.086-.928,2.181-1.438,3.267a29.785,29.785,0,0,1-1.856,3.425,9.28,9.28,0,0,1-.882,1.179,6.275,6.275,0,0,1-.5.5l-.2.167-.278.2a3.705,3.705,0,0,1-.4.251,6.139,6.139,0,0,1-.65.316,4.918,4.918,0,0,1-1.216.3h-.947a4.5,4.5,0,0,1-1.16-.232,4.714,4.714,0,0,1-1.169-.566,4.537,4.537,0,0,1-.928-.78,4.425,4.425,0,0,1-.566-.752,5.088,5.088,0,0,1-.306-.585l-.121-.288-.065-.195c-.046-.13-.084-.269-.121-.4s-.074-.381-.1-.566v-.687a8.539,8.539,0,0,1,.074-1.262,3.625,3.625,0,0,1,.111-.715c.074-.418.148-.761.232-1.1a33.787,33.787,0,0,1,1.123-3.712c.418-1.2.928-2.339,1.364-3.489a34.975,34.975,0,0,1,1.531-3.322,129.868,129.868,0,0,1,6.988-12.473c1.262-1.986,2.552-3.953,3.907-5.875s2.682-3.824,4.186-5.754Z" transform="translate(-268.534 -110.404)" fill="#ff8b7b"/>
        <path id="Path_2554" data-name="Path 2554" d="M334.884,164.057c1.429,6.886-13.976,24.129-13.976,24.129L307.59,177.978a89.88,89.88,0,0,1,11.062-15.721C324.954,155.417,333.26,156.494,334.884,164.057Z" transform="translate(-268.919 -110.046)" fill="#8880f7"/>
        <path id="Path_2555" data-name="Path 2555" d="M324.395,169.692c-3.712,1.355-5.67,10.366-7.8,15.554l4.928,3.768a113.115,113.115,0,0,0,10.079-13.29C329.824,171.808,328.636,168.151,324.395,169.692Z" transform="translate(-269.567 -110.883)" opacity="0.2"/>
        <path id="Path_2556" data-name="Path 2556" d="M289.591,379.67l-1.661,8.687,7.025,2.2,1.671-8.687Z" transform="translate(-267.505 -126.017)" opacity="0.2"/>
        <path id="Path_2557" data-name="Path 2557" d="M355.809,389.77H348.44l2.96,8.789h7.369Z" transform="translate(-271.859 -126.743)" opacity="0.2"/>
        <path id="Path_2558" data-name="Path 2558" d="M368.485,163.683a165.784,165.784,0,0,0-6.719,23.74c-1.179,5.624-2.06,11.016-2.784,15.916-1.6,11.471-2.088,20.287-2.682,23.2-5.707-.928-27.2-4.232-38.913-6.069-1.773-42.18,10.209-62.81,10.209-62.81a75.79,75.79,0,0,1,9.475-.362,14.969,14.969,0,0,1,2.023.093,146.205,146.205,0,0,1,16.547,2.58c1.039.213,2.079.455,3.1.705C363.984,162.013,368.485,163.683,368.485,163.683Z" transform="translate(-269.611 -110.015)" fill="#8880f7"/>
        <path id="Path_2559" data-name="Path 2559" d="M366.009,180.543l-8.158,9.058s-1.485,16.25,2.942,24.621c.306-2.784.677-5.912,1.142-9.281.677-4.9,1.559-10.292,2.784-15.916.612-2.933,1.309-5.93,2.088-8.956Z" transform="translate(-272.519 -111.655)" opacity="0.2"/>
        <path id="Path_2560" data-name="Path 2560" d="M358.615,139.87c-1.856,5.16-4.436,14.747-1.262,18.886a16.77,16.77,0,0,1-13.55,3.081c-4.566-.817-4.3-4.046-3-5.661,6.162-.492,6.691-4.919,6.3-9.216Z" transform="translate(-271.25 -108.763)" fill="#ff8b7b"/>
        <path id="Path_2561" data-name="Path 2561" d="M354.472,143l-6.812,4.186a17.307,17.307,0,0,1,.046,3.016c2.32,0,5.828-1.977,6.431-4.315a8.168,8.168,0,0,0,.334-2.886Z" transform="translate(-271.803 -108.988)" opacity="0.2"/>
        <path id="Path_2562" data-name="Path 2562" d="M346.21,115.982c-5.2-2.413-7.554,15.034-3.907,17.549S355.927,120.474,346.21,115.982Z" transform="translate(-271.29 -107.028)" fill="#263238"/>
        <path id="Path_2563" data-name="Path 2563" d="M360.406,130.4c-1.568,7.137-2.125,11.4-6.339,14.524-6.339,4.714-14.719,0-15.322-7.424-.538-6.71,2.116-17.252,9.615-19.025A9.967,9.967,0,0,1,360.406,130.4Z" transform="translate(-271.156 -107.204)" fill="#ff8b7b"/>
        <path id="Path_2564" data-name="Path 2564" d="M360.2,137.539c-3.239,1.856-3.109-20.064,3.22-16.844C374.147,126.143,367.854,133.112,360.2,137.539Z" transform="translate(-272.554 -107.36)" fill="#263238"/>
        <path id="Path_2565" data-name="Path 2565" d="M366.915,123.658c-2.942,2.691-30.078-14.171-18.487-16.891C361.411,103.7,372.557,118.461,366.915,123.658Z" transform="translate(-271.652 -106.351)" fill="#263238"/>
        <path id="Path_2566" data-name="Path 2566" d="M360.306,124.018c-3.313,2.218-34.756-4.009-27.1-13.132C342.358,99.972,367.174,119.415,360.306,124.018Z" transform="translate(-270.677 -106.442)" fill="#263238"/>
        <path id="Path_2567" data-name="Path 2567" d="M363.695,140.05a6.97,6.97,0,0,1-4.752,2.357c-2.431.148-3.137-2.144-2.032-4.176.984-1.856,3.443-4.1,5.68-3.295S365.161,138.334,363.695,140.05Z" transform="translate(-272.432 -108.396)" fill="#ff8b7b"/>
        <path id="Path_2568" data-name="Path 2568" d="M285.64,374.806l11.9,3.712s12.009-43.507,16.1-66.077a240.367,240.367,0,0,1,7.081-26.477c4.009-12.751,8.854-26.505,12.779-37.252,4.139-11.331,7.239-19.331,7.239-19.331l-25.586-3.991S294.373,284.9,291.7,307.216C288.925,330.427,285.64,374.806,285.64,374.806Z" transform="translate(-267.34 -114.916)" fill="#407bff"/>
        <path id="Path_2569" data-name="Path 2569" d="M285.64,374.806l11.9,3.712s12.009-43.507,16.1-66.077a240.367,240.367,0,0,1,7.081-26.477c4.009-12.751,8.854-26.505,12.779-37.252,4.139-11.331,7.239-19.331,7.239-19.331l-25.586-3.991S294.373,284.9,291.7,307.216C288.925,330.427,285.64,374.806,285.64,374.806Z" transform="translate(-267.34 -114.916)" fill="#181c3a"/>
        <path id="Path_2570" data-name="Path 2570" d="M323.44,287.329c4.009-12.751,8.854-26.505,12.779-37.252l-2.181-5.977C327.013,251.135,323.291,274.466,323.44,287.329Z" transform="translate(-270.06 -116.262)" opacity="0.2"/>
        <path id="Path_2571" data-name="Path 2571" d="M332.182,227.73s-2.571,63.052-1.29,84.583c1.4,23.582,15.777,72.889,15.777,72.889h13.485s-5.791-44.769-8.074-67.692c-2.6-26.106,5.234-85.863,5.234-85.863Z" transform="translate(-270.57 -115.085)" fill="#407bff"/>
        <path id="Path_2572" data-name="Path 2572" d="M332.182,227.73s-2.571,63.052-1.29,84.583c1.4,23.582,15.777,72.889,15.777,72.889h13.485s-5.791-44.769-8.074-67.692c-2.6-26.106,5.234-85.863,5.234-85.863Z" transform="translate(-270.57 -115.085)" fill="#181c3a"/>
        <path id="Path_2573" data-name="Path 2573" d="M346.015,397.328h15.879v-4.742l-17.754-.316Z" transform="translate(-271.549 -126.923)" fill="#407bff"/>
        <path id="Path_2574" data-name="Path 2574" d="M283.918,385.776l14.181,4.445,1.438-4.585L283.76,380.43Z" transform="translate(-267.205 -126.071)" fill="#407bff"/>
        <path id="Path_2575" data-name="Path 2575" d="M349.891,131.589c-.093.585-.473,1.012-.854.928s-.622-.585-.529-1.169.473-1.012.854-.928S349.956,131,349.891,131.589Z" transform="translate(-271.862 -108.082)" fill="#263238"/>
        <path id="Path_2576" data-name="Path 2576" d="M342.721,130.479c-.093.585-.483,1.012-.863.928s-.622-.575-.529-1.169.473-1.012.863-.928S342.8,129.885,342.721,130.479Z" transform="translate(-271.346 -108.002)" fill="#263238"/>
        <path id="Path_2577" data-name="Path 2577" d="M344.772,131.24a21.346,21.346,0,0,1-3.582,4.575,3.415,3.415,0,0,0,2.719.928Z" transform="translate(-271.337 -108.142)" fill="#ff5652"/>
        <path id="Path_2578" data-name="Path 2578" d="M346.449,139.189a5.677,5.677,0,0,1-.77-.074.167.167,0,0,1-.149-.195.186.186,0,0,1,.195-.148,4.64,4.64,0,0,0,4.074-1.225.176.176,0,0,1,.251,0,.167.167,0,0,1,0,.241,4.881,4.881,0,0,1-3.6,1.4Z" transform="translate(-271.649 -108.592)" fill="#263238"/>
        <path id="Path_2579" data-name="Path 2579" d="M352.33,129.535a.39.39,0,0,1-.306-.186A2.784,2.784,0,0,0,350,127.855a.353.353,0,1,1,.056-.7,3.462,3.462,0,0,1,2.58,1.856.353.353,0,0,1-.139.473A.381.381,0,0,1,352.33,129.535Z" transform="translate(-271.944 -107.848)" fill="#263238"/>
        <path id="Path_2580" data-name="Path 2580" d="M340.1,127.467a.409.409,0,0,1-.195-.065.343.343,0,0,1-.083-.483,3.508,3.508,0,0,1,2.784-1.559.353.353,0,1,1,0,.705,2.663,2.663,0,0,0-2.181,1.253.39.39,0,0,1-.325.148Z" transform="translate(-271.234 -107.719)" fill="#263238"/>
        <path id="Path_2581" data-name="Path 2581" d="M350.8,408.455a2.255,2.255,0,0,1-1.42-.371,1.077,1.077,0,0,1-.362-.928.538.538,0,0,1,.306-.492c.807-.427,3.183,1.039,3.452,1.206a.186.186,0,0,1,.084.176.2.2,0,0,1-.13.139,8.991,8.991,0,0,1-1.93.269Zm-1.1-1.485a.5.5,0,0,0-.223.046.213.213,0,0,0-.111.2.705.705,0,0,0,.232.631,3.528,3.528,0,0,0,2.617.139,7.062,7.062,0,0,0-2.515-1.021Z" transform="translate(-271.9 -127.953)" fill="#407bff"/>
        <path id="Path_2582" data-name="Path 2582" d="M352.831,408.063a.139.139,0,0,1-.083,0c-.761-.408-2.237-2.023-2.079-2.849a.575.575,0,0,1,.557-.455,1,1,0,0,1,.742.223c.854.705,1.03,2.784,1.039,2.914a.176.176,0,0,1-.084.158A.158.158,0,0,1,352.831,408.063Zm-1.485-2.979h-.084c-.223,0-.241.139-.251.176-.093.492.845,1.708,1.606,2.283a4.213,4.213,0,0,0-.872-2.311.612.612,0,0,0-.427-.148Z" transform="translate(-272.018 -127.821)" fill="#407bff"/>
        <path id="Path_2583" data-name="Path 2583" d="M285.179,397.57h0c-1.206-.13-3.3-.483-3.861-1.411a.984.984,0,0,1-.056-.928.557.557,0,0,1,.408-.353c1.012-.213,3.378,2.107,3.647,2.376a.228.228,0,0,1-.139.316Zm-3.387-2.339h-.065a.2.2,0,0,0-.158.139.631.631,0,0,0,0,.6c.316.52,1.448.928,3.081,1.179C283.732,396.28,282.386,395.213,281.792,395.232Z" transform="translate(-267.019 -127.11)" fill="#407bff"/>
        <path id="Path_2584" data-name="Path 2584" d="M285.355,397.49a.223.223,0,0,1-.121,0c-.724-.64-1.93-2.691-1.55-3.443.093-.176.3-.371.761-.269a1.234,1.234,0,0,1,.835.575c.668,1.012.26,2.96.241,3.044a.158.158,0,0,1-.111.13Zm-1.16-3.443c-.148,0-.186.084-.195.111-.232.445.538,2,1.234,2.784a4.083,4.083,0,0,0-.241-2.459.928.928,0,0,0-.613-.418Z" transform="translate(-267.194 -127.03)" fill="#407bff"/>
        <path id="Path_2585" data-name="Path 2585" d="M374.066,173.409c-.139,1.281-.278,2.385-.473,3.564s-.38,2.311-.594,3.462c-.4,2.3-.928,4.575-1.5,6.858a86,86,0,0,1-4.64,13.512l-.77,1.661-.844,1.652-.213.418-.1.2-.167.3a8.786,8.786,0,0,1-1.188,1.652,7.471,7.471,0,0,1-4.213,2.3,8.352,8.352,0,0,1-3.712-.241,12.733,12.733,0,0,1-2.45-1.021,19.819,19.819,0,0,1-3.452-2.441,31.5,31.5,0,0,1-2.7-2.617c-.845-.928-1.624-1.8-2.367-2.738a51.753,51.753,0,0,1-4.074-5.819l4.269-3.517a89.017,89.017,0,0,0,10.079,7.638,13.362,13.362,0,0,0,2.264,1.1,1.856,1.856,0,0,0,.7.148c.111,0,0-.111-.408-.074a2.459,2.459,0,0,0-1.355.659c-.139.139-.2.232-.241.26h0v-.084l.065-.176.148-.353.575-1.4.529-1.438a95.911,95.911,0,0,0,3.406-12.176c.473-2.1.928-4.2,1.29-6.32s.733-4.306,1.039-6.274Z" transform="translate(-271.295 -111.082)" fill="#ff8b7b"/>
        <path id="Path_2586" data-name="Path 2586" d="M376.669,168.446c4,5.791-2.246,25.6-2.246,25.6l-17.633-4.2a101.634,101.634,0,0,1,4.269-18.023C364.409,162.47,371.834,161.43,376.669,168.446Z" transform="translate(-272.459 -110.491)" fill="#8880f7"/>
        <path id="Path_2587" data-name="Path 2587" d="M345.08,192.079,340.746,186l-4.7,8.148s4.844,4.371,7.424,2.07Z" transform="translate(-270.967 -112.082)" fill="#ff8b7b"/>
        <path id="Path_2588" data-name="Path 2588" d="M334.494,184.05l-3.564,6.923,4.761,3.016,4.687-8.148Z" transform="translate(-270.599 -111.942)" fill="#ff8b7b"/>
        <path id="Path_2589" data-name="Path 2589" d="M314.3,187.262l4.575-5.912,4.353,8.352s-5.011,4.158-7.517,1.754Z" transform="translate(-269.402 -111.748)" fill="#ff8b7b"/>
        <path id="Path_2590" data-name="Path 2590" d="M325.188,179.69l3.276,7.062-4.882,2.821-4.353-8.343Z" transform="translate(-269.757 -111.628)" fill="#ff8b7b"/>
      </g>
      <g id="freepik--character-1--inject-3" transform="translate(99.392 110.757)">
        <path id="Path_2591" data-name="Path 2591" d="M142.577,130.783c-1.6-3.016-.613-8.139,7.972-8.213s18.283.325,16.8-7.489c7.424,1.234,12.529,7.879,8.946,12.25-5.745,6.988-1.717,11.935-5.763,14.626-5.633,3.768-7.424,22.273-19.777,17.716C151.9,152.824,132.6,137.019,142.577,130.783Z" transform="translate(-109.443 -115.08)" fill="#263238"/>
        <path id="Path_2592" data-name="Path 2592" d="M185.19,182c.2,2.218.473,4.64.807,6.951s.668,4.64,1.132,6.979a93.822,93.822,0,0,0,3.545,13.494l.6,1.6.278.724c0,.046,0,0-.065,0a1.151,1.151,0,0,0-.677-.306c-.13,0,.056.065.343,0A9.2,9.2,0,0,0,193.6,210.4a25.8,25.8,0,0,0,2.784-1.782,67.739,67.739,0,0,0,5.485-4.371c1.791-1.55,3.592-3.183,5.308-4.8l3.081,2.6a71.755,71.755,0,0,1-9.93,11.452,34.873,34.873,0,0,1-3.137,2.534,15.611,15.611,0,0,1-4.13,2.135,7.786,7.786,0,0,1-3.267.334,5.921,5.921,0,0,1-2.079-.65,6.116,6.116,0,0,1-1.735-1.374,6.849,6.849,0,0,1-1.039-1.568,2.449,2.449,0,0,1-.139-.278l-.1-.223-.2-.445-.8-1.782a82.67,82.67,0,0,1-4.473-14.626c-.529-2.469-1-4.937-1.346-7.424s-.65-4.947-.807-7.591Z" transform="translate(-112.132 -119.895)" fill="#ffc3bd"/>
        <path id="Path_2593" data-name="Path 2593" d="M181.958,172.045c2.784.724,4.4,19.313,4.4,19.313l-7.48,4.5s-4.52-13.735-3.833-19.665C175.546,171.878,179.843,171.507,181.958,172.045Z" transform="translate(-111.981 -119.165)" fill="#ffc3bd"/>
        <path id="Path_2594" data-name="Path 2594" d="M209.41,199.673l4.3-6.793,2.441,7.712s-3.527,3.712-6.719,2.784Z" transform="translate(-114.458 -120.678)" fill="#ffc3bd"/>
        <path id="Path_2595" data-name="Path 2595" d="M220.351,190.45l1.689,6.58-5.559,3.387-2.441-7.712Z" transform="translate(-114.792 -120.503)" fill="#ffc3bd"/>
        <path id="Path_2596" data-name="Path 2596" d="M165.28,405.253h7.963l3.378-29.243H165.7Z" transform="translate(-111.283 -133.854)" fill="#ffc3bd"/>
        <path id="Path_2597" data-name="Path 2597" d="M111.4,393.78l7.712,2,11.842-26.839-10.673-3.016Z" transform="translate(-107.407 -133.128)" fill="#ffc3bd"/>
        <path id="Path_2598" data-name="Path 2598" d="M120,396.434l-8.232-3.5a.622.622,0,0,0-.8.251l-3.712,6.116a1.281,1.281,0,0,0,.622,1.8c2.9,1.169,4.353,1.587,7.972,3.128,2.227.928,5.383,2.561,8.455,3.87s4.538-1.671,3.369-2.487c-5.216-3.712-5.4-5.763-6.645-8.213a2.079,2.079,0,0,0-1.03-.965Z" transform="translate(-107.097 -135.067)" fill="#263238"/>
        <path id="Path_2599" data-name="Path 2599" d="M173.328,406.52h-8.946a.631.631,0,0,0-.631.548l-1.021,7.081a1.281,1.281,0,0,0,1.281,1.411c3.118-.056,4.64-.232,8.557-.232,2.413,0,7.424.251,10.765.251s3.517-3.3,2.125-3.61c-6.237-1.336-8.7-3.193-10.793-4.956a2.1,2.1,0,0,0-1.336-.492Z" transform="translate(-111.099 -136.049)" fill="#263238"/>
        <path id="Path_2600" data-name="Path 2600" d="M179.757,171.87s3.786,1.336-3.805,48.054H143.646c.548-13.16.557-21.271-5.726-48.259a95.183,95.183,0,0,1,13.726-1.856,103.234,103.234,0,0,1,14.682,0C172.638,170.4,179.757,171.87,179.757,171.87Z" transform="translate(-109.315 -118.999)" fill="#8880f7"/>
        <path id="Path_2601" data-name="Path 2601" d="M154.167,152c.928,4.724,1.856,13.382-1.457,16.529a55.988,55.988,0,0,0,14.246,10.923c4.585-7.424.436-10.923.436-10.923-5.262-1.253-5.132-5.16-4.213-8.835Z" transform="translate(-110.379 -117.736)" fill="#ffc3bd"/>
        <path id="Path_2602" data-name="Path 2602" d="M154.644,165.517A39.713,39.713,0,0,0,163,165.35a.121.121,0,0,1,.13.074c.084.213.306.8.483,1.2a.111.111,0,0,1-.046.149c-.928.473-5.522,1.077-9.281.371a.121.121,0,0,1-.093-.158c.148-.557.306-1.151.362-1.374a.1.1,0,0,1,.093-.093Z" transform="translate(-110.485 -118.697)" fill="#407bff"/>
        <path id="Path_2603" data-name="Path 2603" d="M158.227,155.42l5.336,4.557a15.111,15.111,0,0,0-.455,2.6c-2.014-.288-4.779-2.5-4.993-4.64a7.285,7.285,0,0,1,.111-2.515Z" transform="translate(-110.763 -117.982)" opacity="0.2"/>
        <path id="Path_2604" data-name="Path 2604" d="M148.884,141.659c1.856,7.684,2.469,10.97,7.1,14.264,6.96,4.947,15.99.993,16.473-7.081.436-7.276-2.673-18.617-10.821-20.361a10.775,10.775,0,0,0-12.751,13.178Z" transform="translate(-110.08 -116.026)" fill="#ffc3bd"/>
        <path id="Path_2605" data-name="Path 2605" d="M177.1,223.83s6.274,61.335,5.754,85.613c-.538,25.262-5.568,56.49-5.568,56.49H163.406s.594-29.753-.362-54.56c-1.03-27.043-9.624-87.543-9.624-87.543Z" transform="translate(-110.43 -122.905)" fill="#181c3a"/>
        <path id="Path_2606" data-name="Path 2606" d="M162.843,378.09H178.5l1.142-4.028-17.531-.492Z" transform="translate(-111.055 -133.678)" fill="#263238"/>
        <path id="Path_2607" data-name="Path 2607" d="M163.369,239.986c7.935,15.972,1.587,45.122-1.216,55.961-1.438-16.287-3.87-36.194-5.763-50.811C157.6,236.868,159.74,232.617,163.369,239.986Z" transform="translate(-110.644 -123.794)" opacity="0.2"/>
        <path id="Path_2608" data-name="Path 2608" d="M166.1,223.83s-7.322,63.766-12.854,84.239c-6.571,24.3-19.99,51.136-19.99,51.136l-13.921-3.926s7.8-32.76,12.826-45.567c10.719-27.322,1.541-68.045,10.106-85.882Z" transform="translate(-107.978 -122.905)" fill="#181c3a"/>
        <path id="Path_2609" data-name="Path 2609" d="M118.45,367.359l14.431,4,2.6-3.7-16.009-5.336Z" transform="translate(-107.914 -132.869)" fill="#263238"/>
        <path id="Path_2610" data-name="Path 2610" d="M162.888,142.77c.111.631.538,1.086.928,1.012s.659-.65.548-1.281-.538-1.086-.928-1.012S162.777,142.139,162.888,142.77Z" transform="translate(-111.109 -116.98)" fill="#263238"/>
        <path id="Path_2611" data-name="Path 2611" d="M170.588,141.4c.121.631.538,1.086.928,1.012s.659-.64.548-1.271-.538-1.086-.928-1.012S170.477,140.77,170.588,141.4Z" transform="translate(-111.663 -116.882)" fill="#263238"/>
        <path id="Path_2612" data-name="Path 2612" d="M171,140.145l1.448-.705S171.863,140.758,171,140.145Z" transform="translate(-111.695 -116.833)" fill="#263238"/>
        <path id="Path_2613" data-name="Path 2613" d="M168.41,143a17.27,17.27,0,0,0,2.97,3.638,2.784,2.784,0,0,1-2.181.817Z" transform="translate(-111.509 -117.089)" fill="#ed847e"/>
        <path id="Path_2614" data-name="Path 2614" d="M165.37,150.864a6.416,6.416,0,0,0,1.077-.093.186.186,0,0,0,.148-.223.176.176,0,0,0-.213-.148,5.1,5.1,0,0,1-4.436-1.234.176.176,0,0,0-.26,0,.2.2,0,0,0,0,.269,5.29,5.29,0,0,0,3.684,1.429Z" transform="translate(-111.021 -117.528)" fill="#263238"/>
        <path id="Path_2615" data-name="Path 2615" d="M146.069,130.83c4.566,2.246,9.123,1.271,9.355,6.942s-7.573,14.849-9.355,8.352S146.069,130.83,146.069,130.83Z" transform="translate(-109.844 -116.213)" fill="#263238"/>
        <path id="Path_2616" data-name="Path 2616" d="M147.6,133.315c5.893,2.385,22.125,3.007,21.772-4.269s-14.385-4.056-18.4-2.5S147.6,133.315,147.6,133.315Z" transform="translate(-110.008 -115.756)" fill="#263238"/>
        <path id="Path_2617" data-name="Path 2617" d="M148.538,148.648a5.754,5.754,0,0,0,3.128,3.109c1.856.761,3.035-.872,2.7-2.784-.306-1.7-1.643-4.148-3.619-4.093a2.589,2.589,0,0,0-2.209,3.768Z" transform="translate(-110.058 -117.224)" fill="#ffc3bd"/>
        <path id="Path_2618" data-name="Path 2618" d="M159.88,138.165a.343.343,0,0,0,.269-.121,3.044,3.044,0,0,1,2.543-.984.378.378,0,1,0,.139-.742,3.768,3.768,0,0,0-3.23,1.206.39.39,0,0,0,0,.538A.4.4,0,0,0,159.88,138.165Z" transform="translate(-110.867 -116.606)" fill="#263238"/>
        <path id="Path_2619" data-name="Path 2619" d="M172.266,137.116a.353.353,0,0,0,.26-.1.371.371,0,0,0,0-.529,3.712,3.712,0,0,0-3.23-1.2.371.371,0,0,0-.3.436.381.381,0,0,0,.436.306,3,3,0,0,1,2.543.928.39.39,0,0,0,.288.158Z" transform="translate(-111.55 -116.532)" fill="#263238"/>
        <path id="Path_2620" data-name="Path 2620" d="M141.084,184.053c-1.606,4.195-3.146,8.6-4.51,12.937a95.126,95.126,0,0,0-3.165,13.067c-.1.538-.148,1.067-.2,1.6l-.084.789v.334h0a4.316,4.316,0,0,0,.659,1.726,30.943,30.943,0,0,0,3.814,4.993c2.979,3.332,6.413,6.5,9.8,9.633l-2.348,3.285A78.3,78.3,0,0,1,133.177,224a32.679,32.679,0,0,1-5.327-5.717,10.9,10.9,0,0,1-2-4.752,6.9,6.9,0,0,1-.056-.928c0-.195,0-.2,0-.306v-1.169a16.283,16.283,0,0,1,.13-1.921,81.375,81.375,0,0,1,2.9-14.468A125.621,125.621,0,0,1,133.539,181Z" transform="translate(-108.442 -119.823)" fill="#ffc3bd"/>
        <path id="Path_2621" data-name="Path 2621" d="M137.446,171.775c-3.174,1.3-7.146,18.663-7.146,18.663l6.747,5.568s6.357-12.993,6.636-18.914C143.85,172.573,140.23,170.634,137.446,171.775Z" transform="translate(-108.767 -119.136)" fill="#ffc3bd"/>
        <path id="Path_2622" data-name="Path 2622" d="M124.663,399.271a1.114,1.114,0,0,0,.575-.752.631.631,0,0,0-.139-.631c-.687-.752-3.527-.26-3.851-.2a.213.213,0,0,0-.148.148.186.186,0,0,0,.074.195c.854.622,2.431,1.624,3.378,1.29a.4.4,0,0,0,.111-.046Zm-2.9-1.309c1.142-.158,2.691-.232,3.053.158a.269.269,0,0,1,0,.288.705.705,0,0,1-.436.538C123.912,399.141,122.937,398.779,121.768,397.962Z" transform="translate(-108.104 -135.398)" fill="#407bff"/>
        <path id="Path_2623" data-name="Path 2623" d="M122.574,397.45c.826-.4,1.67-1.012,1.791-1.578a.659.659,0,0,0-.381-.733,1.011,1.011,0,0,0-.835-.084c-1.086.371-2,2.478-2.042,2.561a.186.186,0,0,0,0,.186.167.167,0,0,0,.167.074A4.418,4.418,0,0,0,122.574,397.45Zm.585-1.986.111-.046a.622.622,0,0,1,.529.046c.2.121.213.241.195.325-.111.548-1.448,1.383-2.385,1.643A4.844,4.844,0,0,1,123.159,395.464Z" transform="translate(-108.103 -135.22)" fill="#407bff"/>
        <path id="Path_2624" data-name="Path 2624" d="M177.164,407.842a3,3,0,0,0,1.94-.492,1.039,1.039,0,0,0,.334-.928.622.622,0,0,0-.316-.51c-.928-.529-4.148,1.1-4.51,1.281a.186.186,0,0,0-.1.195.2.2,0,0,0,.149.158,14.047,14.047,0,0,0,2.506.3Zm1.42-1.643a.752.752,0,0,1,.353.065.232.232,0,0,1,.13.2.659.659,0,0,1-.223.6c-.483.436-1.791.51-3.554.223a10.209,10.209,0,0,1,3.295-1.077Z" transform="translate(-111.947 -135.998)" fill="#407bff"/>
        <path id="Path_2625" data-name="Path 2625" d="M174.7,407.442h.084c.928-.427,2.784-2.144,2.673-3.044,0-.213-.186-.483-.705-.538a1.411,1.411,0,0,0-1.039.325c-1,.835-1.188,2.979-1.2,3.072a.2.2,0,0,0,.084.167A.139.139,0,0,0,174.7,407.442Zm1.856-3.23h.111c.343,0,.371.167.371.213.093.548-1.179,1.856-2.153,2.478a4.352,4.352,0,0,1,1.021-2.45.928.928,0,0,1,.7-.241Z" transform="translate(-111.947 -135.857)" fill="#407bff"/>
        <path id="Path_2626" data-name="Path 2626" d="M143.5,221.771l-.826,2.9c-.111.223.148.445.529.445h33.28c.288,0,.529-.139.548-.325l.3-2.9c0-.195-.232-.362-.557-.362H144.033A.585.585,0,0,0,143.5,221.771Z" transform="translate(-109.655 -122.739)" fill="#407bff"/>
        <path id="Path_2627" data-name="Path 2627" d="M143.5,221.771l-.826,2.9c-.111.223.148.445.529.445h33.28c.288,0,.529-.139.548-.325l.3-2.9c0-.195-.232-.362-.557-.362H144.033A.585.585,0,0,0,143.5,221.771Z" transform="translate(-109.655 -122.739)" fill="#fff" opacity="0.8"/>
        <path id="Path_2628" data-name="Path 2628" d="M148.219,225.408h-.882c-.167,0-.306-.084-.288-.195l.408-3.768c0-.1.167-.195.334-.195h.928c.176,0,.306.093.3.195l-.408,3.768a.449.449,0,0,1-.39.195Z" transform="translate(-109.972 -122.719)" fill="#407bff"/>
        <path id="Path_2629" data-name="Path 2629" d="M176.359,225.408h-.872c-.176,0-.306-.084-.3-.195l.408-3.768c0-.1.167-.195.343-.195h.872c.176,0,.306.093.3.195l-.408,3.768C176.693,225.324,176.536,225.408,176.359,225.408Z" transform="translate(-111.996 -122.719)" fill="#407bff"/>
        <path id="Path_2630" data-name="Path 2630" d="M162.289,225.408h-.872c-.176,0-.316-.084-.3-.195l.408-3.768c0-.1.167-.195.343-.195h.872c.176,0,.306.093.3.195l-.408,3.768C162.614,225.324,162.466,225.408,162.289,225.408Z" transform="translate(-110.984 -122.719)" fill="#407bff"/>
        <path id="Path_2631" data-name="Path 2631" d="M147.849,232.11l8.575.733L150.7,238.56s-4.909-1.42-5.568-4.64Z" transform="translate(-109.834 -123.5)" fill="#ffc3bd"/>
        <path id="Path_2632" data-name="Path 2632" d="M209.864,188.835,204.3,215.47a2.673,2.673,0,0,0,2.07,3.165l50.709,10.635a2.7,2.7,0,0,0,3.174-2.079l5.568-26.635a2.7,2.7,0,0,0-2.07-3.174l-50.709-10.626a2.719,2.719,0,0,0-1.93.334A2.664,2.664,0,0,0,209.864,188.835Z" transform="translate(-114.086 -120.233)" fill="#407bff"/>
        <path id="Path_2633" data-name="Path 2633" d="M209.864,188.835,204.3,215.47a2.673,2.673,0,0,0,2.07,3.165l50.709,10.635a2.7,2.7,0,0,0,3.174-2.079l5.568-26.635a2.7,2.7,0,0,0-2.07-3.174l-50.709-10.626a2.719,2.719,0,0,0-1.93.334A2.664,2.664,0,0,0,209.864,188.835Z" transform="translate(-114.086 -120.233)" opacity="0.5"/>
        <path id="Path_2634" data-name="Path 2634" d="M265.912,198.5l-8.009,4.074-15.888,8.065a10.9,10.9,0,0,1-13.373-2.784l-11-13.447-6.014-7.322a2.784,2.784,0,0,1,1.94-.334l4.427.928,40.24,8.436,6.032,1.262a2.71,2.71,0,0,1,1.643,1.123Z" transform="translate(-114.618 -120.233)" fill="#407bff"/>
        <path id="Path_2635" data-name="Path 2635" d="M260.29,164.142,258.7,194.2l-.334,6.422-15.888,8.065a10.9,10.9,0,0,1-13.373-2.784l-11-13.447.353-6.728,1.253-23.758a2.459,2.459,0,0,1,2.561-2.311l35.7,1.856a2.45,2.45,0,0,1,2.311,2.626Z" transform="translate(-115.084 -118.287)" fill="#407bff"/>
        <path id="Path_2636" data-name="Path 2636" d="M260.29,164.142,258.7,194.2l-.334,6.422-15.888,8.065a10.9,10.9,0,0,1-13.373-2.784l-11-13.447.353-6.728,1.253-23.758a2.459,2.459,0,0,1,2.561-2.311l35.7,1.856a2.45,2.45,0,0,1,2.311,2.626Z" transform="translate(-115.084 -118.287)" fill="#181c3a" opacity="0.9"/>
        <path id="Path_2637" data-name="Path 2637" d="M231,204.519,218.258,192l-.148,2.784,11.035,13.429A10.9,10.9,0,0,0,242.518,211l15.888-8.065.158-3.007-16.018,6.756A10.552,10.552,0,0,1,231,204.519Z" transform="translate(-115.084 -120.614)" opacity="0.1"/>
        <path id="Path_2638" data-name="Path 2638" d="M224,171.349l.39-7.359,1.485.084-.39,7.35Z" transform="translate(-115.508 -110.247)" fill="#8880f7"/>
        <path id="Path_2639" data-name="Path 2639" d="M227.14,171.519l.39-7.359,1.448.074,2.784,5.076.251-4.919,1.383.074-.39,7.359-1.485-.074-2.747-4.956-.251,4.8Z" transform="translate(-115.734 -110.259)" fill="#8880f7"/>
        <path id="Path_2640" data-name="Path 2640" d="M236.976,172.039l-2.246-7.5,1.615.084,1.578,5.568,2.088-5.346,1.578.084-3.025,7.22Z" transform="translate(-116.28 -110.286)" fill="#8880f7"/>
        <path id="Path_2641" data-name="Path 2641" d="M242.47,172.329l.39-7.359,1.485.074-.39,7.359Z" transform="translate(-116.837 -110.317)" fill="#8880f7"/>
        <path id="Path_2642" data-name="Path 2642" d="M247.236,172.58l.325-6.116-2.181-.121.065-1.244,5.847.306-.065,1.244-2.181-.111-.325,6.116Z" transform="translate(-117.046 -110.326)" fill="#8880f7"/>
        <path id="Path_2643" data-name="Path 2643" d="M252.36,172.849l.39-7.359,5.457.288-.065,1.244-3.972-.213-.084,1.633,3.712.195-.065,1.244-3.712-.195-.1,2,4.111.213-.065,1.244Z" transform="translate(-117.549 -110.355)" fill="#8880f7"/>
        <path id="Path_2644" data-name="Path 2644" d="M161.661,237.457l-5.058,4.529-6.793-3.824,6.951-5.262Z" transform="translate(-110.17 -123.557)" fill="#ffc3bd"/>
        <path id="Path_2645" data-name="Path 2645" d="M163.29,141.505l1.438-.705S164.162,142.127,163.29,141.505Z" transform="translate(-111.14 -116.931)" fill="#263238"/>
      </g>
    </g>
  </g>
</svg>
