<svg xmlns="http://www.w3.org/2000/svg" viewBox="0 0 500 372.56">
  <g id="Invite-rafiki_1_" data-name="Invite-rafiki(1)" transform="translate(0 -55)">
    <g id="freepik--background-complete--inject-3">
      <rect id="Rectangle_490" data-name="Rectangle 490" width="500" height="0.25" transform="translate(0 382.4)" fill="#ebebeb"/>
      <rect id="Rectangle_491" data-name="Rectangle 491" width="50.9" height="0.25" transform="translate(394.36 393.85)" fill="#ebebeb"/>
      <rect id="Rectangle_492" data-name="Rectangle 492" width="47.21" height="0.25" transform="translate(52.46 390.89)" fill="#ebebeb"/>
      <rect id="Rectangle_493" data-name="Rectangle 493" width="19.19" height="0.25" transform="translate(378.81 389.21)" fill="#ebebeb"/>
      <rect id="Rectangle_494" data-name="Rectangle 494" width="14.08" height="0.25" transform="translate(317.14 395.84)" fill="#ebebeb"/>
      <rect id="Rectangle_495" data-name="Rectangle 495" width="35.44" height="0.25" transform="translate(272.79 395.84)" fill="#ebebeb"/>
      <rect id="Rectangle_496" data-name="Rectangle 496" width="56.99" height="0.25" transform="translate(195.22 391.62)" fill="#ebebeb"/>
      <path id="Path_2533" data-name="Path 2533" d="M237,337.8H43.91a5.71,5.71,0,0,1-5.7-5.71V60.66A5.71,5.71,0,0,1,43.91,55H237a5.71,5.71,0,0,1,5.71,5.71V332.09A5.71,5.71,0,0,1,237,337.8ZM43.91,55.2a5.46,5.46,0,0,0-5.45,5.46V332.09a5.46,5.46,0,0,0,5.45,5.46H237a5.47,5.47,0,0,0,5.46-5.46V60.66A5.47,5.47,0,0,0,237,55.2Z" fill="#ebebeb"/>
      <path id="Path_2534" data-name="Path 2534" d="M453.31,337.8H260.21a5.72,5.72,0,0,1-5.71-5.71V60.66A5.72,5.72,0,0,1,260.21,55h193.1A5.71,5.71,0,0,1,459,60.66V332.09A5.71,5.71,0,0,1,453.31,337.8ZM260.21,55.2a5.47,5.47,0,0,0-5.46,5.46V332.09a5.47,5.47,0,0,0,5.46,5.46h193.1a5.47,5.47,0,0,0,5.46-5.46V60.66a5.47,5.47,0,0,0-5.46-5.46Z" fill="#ebebeb"/>
      <rect id="Rectangle_497" data-name="Rectangle 497" width="135.7" height="203.1" transform="translate(207.84 288.54) rotate(180)" fill="#e6e6e6"/>
      <rect id="Rectangle_498" data-name="Rectangle 498" width="135.7" height="203.1" transform="translate(204.83 288.54) rotate(180)" fill="#f5f5f5"/>
      <rect id="Rectangle_499" data-name="Rectangle 499" width="190.94" height="124.87" transform="translate(199.41 91.52) rotate(90)" fill="#fff"/>
      <rect id="Rectangle_500" data-name="Rectangle 500" width="190.94" height="2.28" transform="translate(76.82 91.52) rotate(90)" fill="#e6e6e6"/>
      <rect id="Rectangle_501" data-name="Rectangle 501" width="131.22" height="8.16" transform="translate(202.59 159.21) rotate(180)" fill="#f5f5f5"/>
      <path id="Path_2535" data-name="Path 2535" d="M63.22,75.37H213.74a.84.84,0,0,1,.83.84h0a.83.83,0,0,1-.83.83H63.22a.83.83,0,0,1-.83-.83h0a.84.84,0,0,1,.83-.84Z" fill="#e6e6e6"/>
      <path id="Path_2536" data-name="Path 2536" d="M58.22,76.21a4.17,4.17,0,1,0,1.207-2.974A4.17,4.17,0,0,0,58.22,76.21Z" fill="#e6e6e6"/>
      <path id="Path_2537" data-name="Path 2537" d="M206.71,80.87h0a1.13,1.13,0,0,0,1.13-1.12V77.33a1.13,1.13,0,0,0-1.13-1.12h0a1.12,1.12,0,0,0-1.12,1.12v2.42a1.12,1.12,0,0,0,1.12,1.12Z" fill="#e6e6e6"/>
      <path id="Path_2538" data-name="Path 2538" d="M75.79,80.87h0a1.13,1.13,0,0,0,1.13-1.12V77.33a1.13,1.13,0,0,0-1.13-1.12h0a1.12,1.12,0,0,0-1.12,1.12v2.42a1.12,1.12,0,0,0,1.12,1.12Z" fill="#e6e6e6"/>
      <rect id="Rectangle_502" data-name="Rectangle 502" width="139.1" height="191.46" transform="translate(202.58 267.66) rotate(180)" fill="#8880f7" opacity="0.5"/>
      <path id="Path_2539" data-name="Path 2539" d="M189.15,76.21a4.16,4.16,0,1,0,1.2-2.974A4.17,4.17,0,0,0,189.15,76.21Z" fill="#e6e6e6"/>
      <rect id="Rectangle_503" data-name="Rectangle 503" width="26.78" height="59.39" transform="translate(213.42 378.51) rotate(180)" fill="#f0f0f0"/>
      <rect id="Rectangle_504" data-name="Rectangle 504" width="132.09" height="3.76" transform="translate(208.27 382.27) rotate(180)" fill="#f0f0f0"/>
      <rect id="Rectangle_505" data-name="Rectangle 505" width="115.59" height="59.39" transform="translate(71.04 319.12)" fill="#f5f5f5"/>
      <path id="Path_2649" data-name="Path 2649" d="M0,0H94.53V19.48H0Z" transform="translate(81.57 326.43)" fill="#c3bffb"/>
      <path id="Path_2650" data-name="Path 2650" d="M0,0H94.53V19.48H0Z" transform="translate(81.57 351.72)" fill="#c3bffb"/>
      <rect id="Rectangle_508" data-name="Rectangle 508" width="26.45" height="2.67" rx="1.18" transform="translate(142.06 337.5) rotate(180)" fill="#f5f5f5"/>
      <rect id="Rectangle_509" data-name="Rectangle 509" width="26.45" height="2.67" rx="1.18" transform="translate(142.06 362.79) rotate(180)" fill="#f5f5f5"/>
      <path id="Path_2540" data-name="Path 2540" d="M122.92,309.13s-.33,10-12.67,10-12.66-10-12.66-10Z" fill="#f0f0f0"/>
      <path id="Path_2541" data-name="Path 2541" d="M151.79,309.13s-.32,10-12.67,10-12.66-10-12.66-10Z" fill="#f0f0f0"/>
      <path id="Path_2542" data-name="Path 2542" d="M122.92,302.5s-.33,10-12.67,10-12.66-10-12.66-10Z" fill="#f0f0f0"/>
      <path id="Path_2543" data-name="Path 2543" d="M151.79,302.5s-.32,10-12.67,10-12.66-10-12.66-10Z" fill="#f0f0f0"/>
      <path id="Path_2544" data-name="Path 2544" d="M180.66,309.13s-.32,10-12.66,10-12.67-10-12.67-10Z" fill="#f0f0f0"/>
      <path id="Path_2545" data-name="Path 2545" d="M180.66,302.5s-.32,10-12.66,10-12.67-10-12.67-10Z" fill="#f0f0f0"/>
      <rect id="Rectangle_510" data-name="Rectangle 510" width="80.87" height="116.58" transform="translate(424.83 202.61) rotate(180)" fill="#e6e6e6"/>
      <path id="Path_2646" data-name="Path 2646" d="M0,0H94.19V116.58H0Z" transform="translate(415.7 202.61) rotate(180)" fill="#8880f7"/>
      <rect id="Rectangle_512" data-name="Rectangle 512" width="101.6" height="70.11" transform="translate(403.66 93.52) rotate(90)" fill="#fff"/>
      <rect id="Rectangle_513" data-name="Rectangle 513" width="104.2" height="1.28" transform="translate(369.25 92.22) rotate(90)" fill="#f5f5f5"/>
      <rect id="Rectangle_514" data-name="Rectangle 514" width="20.21" height="132.51" transform="translate(443.89 376.3) rotate(180)" fill="#f0f0f0"/>
      <rect id="Rectangle_515" data-name="Rectangle 515" width="166.67" height="6.09" transform="translate(438.56 382.38) rotate(180)" fill="#f0f0f0"/>
      <rect id="Rectangle_516" data-name="Rectangle 516" width="157.12" height="132.51" transform="translate(266.56 243.78)" fill="#f5f5f5"/>
      <rect id="Rectangle_517" data-name="Rectangle 517" width="135.28" height="31.52" transform="translate(277.48 291.67)" fill="#c3bffb"/>
      <path id="Path_2648" data-name="Path 2648" d="M0,0H135.28V31.52H0Z" transform="translate(277.48 332.94)" fill="#c3bffb"/>
      <rect id="Rectangle_519" data-name="Rectangle 519" width="82.13" height="4.32" rx="2.05" transform="translate(386.19 293.84) rotate(180)" fill="#f5f5f5"/>
      <rect id="Rectangle_520" data-name="Rectangle 520" width="82.13" height="4.32" rx="2.05" transform="translate(386.19 335.1) rotate(180)" fill="#f5f5f5"/>
      <path id="Path_2647" data-name="Path 2647" d="M0,0H135.28V31.52H0Z" transform="translate(277.48 250.41)" fill="#c3bffb"/>
      <rect id="Rectangle_522" data-name="Rectangle 522" width="82.13" height="4.32" rx="2.05" transform="translate(386.19 252.58) rotate(180)" fill="#f5f5f5"/>
      <path id="Path_2546" data-name="Path 2546" d="M295.61,153.12a11.65,11.65,0,0,0,0-23.3h-1.42v23.3Z" fill="#e0e0e0"/>
      <circle id="Ellipse_103" data-name="Ellipse 103" cx="11.65" cy="11.65" r="11.65" transform="translate(282.54 129.82)" fill="#f5f5f5"/>
      <path id="Path_2547" data-name="Path 2547" d="M293,143.67a23.46,23.46,0,0,1-23.43-23.44v-14a2.2,2.2,0,1,1,4.4,0v14a19.06,19.06,0,0,0,19,19,2.2,2.2,0,1,1,0,4.4Z" fill="#e0e0e0"/>
      <path id="Path_2548" data-name="Path 2548" d="M252,118.56h39.56a4.32,4.32,0,0,0,4.27-4.93L292.43,90a11.4,11.4,0,0,0-11.29-9.77h-18.7A11.4,11.4,0,0,0,251.15,90l-3.41,23.59a4.31,4.31,0,0,0,4.26,4.97Z" fill="#f5f5f5"/>
    </g>
    <g id="freepik--Shadow--inject-3">
      <ellipse id="freepik--path--inject-3" cx="193.89" cy="11.32" rx="193.89" ry="11.32" transform="translate(56.11 404.92)" fill="#f5f5f5"/>
    </g>
    <g id="freepik--character-2--inject-3">
      <path id="Path_2549" data-name="Path 2549" d="M293.81,400.2l-7.57-2.37,3.48-18.17,7.57,2.38Z" fill="#ff8b7b"/>
      <path id="Path_2550" data-name="Path 2550" d="M362.56,408.14h-7.94l-6.18-18.38h7.93Z" fill="#ff8b7b"/>
      <path id="Path_2551" data-name="Path 2551" d="M353.56,407.22h9.68a.68.68,0,0,1,.67.54l1.57,7.05a1.16,1.16,0,0,1-1.16,1.41c-3.12-.05-5.39-.23-9.31-.23-2.41,0-9.68.25-13,.25s-3.76-3.3-2.4-3.59c6.11-1.34,10.72-3.18,12.68-4.94A1.9,1.9,0,0,1,353.56,407.22Z" fill="#263238"/>
      <path id="Path_2552" data-name="Path 2552" d="M286.57,397l8.27,2.59a.7.7,0,0,1,.48.72l-.62,7.2a1.15,1.15,0,0,1-1.51,1c-3-1-7.22-2.51-11-3.68-4.38-1.38-8.59-2.62-13.73-4.24-3.11-1-3-4.38-1.6-4.26,6.33.56,11.56,2.24,17.67.69A3.62,3.62,0,0,1,286.57,397Z" fill="#263238"/>
      <path id="Path_2553" data-name="Path 2553" d="M332.79,170c-1.33,1.87-2.77,3.87-4.13,5.84s-2.71,4-4.05,6c-2.64,4-5.19,8.05-7.45,12.13-.59,1-1.07,2-1.62,3.07s-1,2-1.44,3-.86,2-1.24,3l-.23.6a.538.538,0,0,1-.07.14s0,0,0-.44v-.51a3.2,3.2,0,0,0-.09-.49,1.274,1.274,0,0,0-.11-.38l-.06-.19-.12-.28a5.391,5.391,0,0,0-.3-.58,4.772,4.772,0,0,0-.58-.76,5,5,0,0,0-2.14-1.39,4.9,4.9,0,0,0-1.2-.24,3.51,3.51,0,0,0-.56,0H307a4.679,4.679,0,0,0-1.2.3,5.864,5.864,0,0,0-.6.28,3.158,3.158,0,0,0-.33.21l-.2.16-.13.11a1.23,1.23,0,0,0-.21.21c-.07.12.09,0,.22-.16.6-.65,1.38-1.6,2.08-2.52l2.2-2.88c1.5-1.93,3-3.9,4.6-5.8l5.26,2.8c-.73,2.46-1.6,4.81-2.55,7.17-.5,1.17-1,2.35-1.55,3.52a32.1,32.1,0,0,1-2,3.69,10,10,0,0,1-.95,1.27,6.756,6.756,0,0,1-.54.54l-.22.18-.3.22a4,4,0,0,1-.43.27,6.617,6.617,0,0,1-.7.34,5.3,5.3,0,0,1-1.31.32h-1.02a4.85,4.85,0,0,1-1.25-.25,5.081,5.081,0,0,1-1.26-.61,4.89,4.89,0,0,1-1-.84,4.772,4.772,0,0,1-.61-.81,5.48,5.48,0,0,1-.33-.63l-.13-.31-.07-.21c-.05-.14-.09-.29-.13-.43s-.08-.41-.11-.61v-.74a9.2,9.2,0,0,1,.08-1.36,3.9,3.9,0,0,1,.12-.77c.08-.45.16-.82.25-1.19a36.4,36.4,0,0,1,1.21-4c.45-1.29,1-2.52,1.47-3.76a37.68,37.68,0,0,1,1.65-3.58,139.93,139.93,0,0,1,7.53-13.44c1.36-2.14,2.75-4.26,4.21-6.33s2.89-4.12,4.51-6.2Z" fill="#ff8b7b"/>
      <path id="Path_2554" data-name="Path 2554" d="M337,164.55c1.54,7.42-15.06,26-15.06,26l-14.35-11a96.85,96.85,0,0,1,11.92-16.94C326.3,155.24,335.25,156.4,337,164.55Z" fill="#8880f7"/>
      <path id="Path_2555" data-name="Path 2555" d="M325,169.72c-4,1.46-6.11,11.17-8.41,16.76l5.31,4.06a121.885,121.885,0,0,0,10.86-14.32C330.85,172,329.57,168.06,325,169.72Z" opacity="0.2"/>
      <path id="Path_2556" data-name="Path 2556" d="M289.72,379.67l-1.79,9.36,7.57,2.37,1.8-9.36Z" opacity="0.2"/>
      <path id="Path_2557" data-name="Path 2557" d="M356.38,389.77h-7.94l3.19,9.47h7.94Z" opacity="0.2"/>
      <path id="Path_2558" data-name="Path 2558" d="M372.46,164.18a178.635,178.635,0,0,0-7.24,25.58c-1.27,6.06-2.22,11.87-3,17.15-1.72,12.36-2.25,21.86-2.89,25-6.15-1-29.31-4.56-41.93-6.54-1.91-45.45,11-67.68,11-67.68a81.668,81.668,0,0,1,10.21-.39,16.128,16.128,0,0,1,2.18.1,157.543,157.543,0,0,1,17.83,2.78c1.12.23,2.24.49,3.34.76C367.61,162.38,372.46,164.18,372.46,164.18Z" fill="#8880f7"/>
      <path id="Path_2559" data-name="Path 2559" d="M366.66,180.58l-8.79,9.76s-1.6,17.51,3.17,26.53c.33-3,.73-6.37,1.23-10,.73-5.28,1.68-11.09,3-17.15.66-3.16,1.41-6.39,2.25-9.65Z" opacity="0.2"/>
      <path id="Path_2560" data-name="Path 2560" d="M360.06,139.87c-2,5.56-4.78,15.89-1.36,20.35a18.07,18.07,0,0,1-14.6,3.32c-4.92-.88-4.63-4.36-3.23-6.1,6.64-.53,7.21-5.3,6.79-9.93Z" fill="#ff8b7b"/>
      <path id="Path_2561" data-name="Path 2561" d="M355,143l-7.34,4.51a18.649,18.649,0,0,1,.05,3.25c2.5,0,6.28-2.13,6.93-4.65A8.8,8.8,0,0,0,355,143Z" opacity="0.2"/>
      <path id="Path_2562" data-name="Path 2562" d="M346.65,116c-5.6-2.6-8.14,16.2-4.21,18.91S357.12,120.84,346.65,116Z" fill="#263238"/>
      <path id="Path_2563" data-name="Path 2563" d="M362.09,131.35c-1.69,7.69-2.29,12.28-6.83,15.65-6.83,5.08-15.86,0-16.51-8-.58-7.23,2.28-18.59,10.36-20.5a10.74,10.74,0,0,1,12.98,12.85Z" fill="#ff8b7b"/>
      <path id="Path_2564" data-name="Path 2564" d="M360.36,138.87c-3.49,2-3.35-21.62,3.47-18.15C375.39,126.59,368.61,134.1,360.36,138.87Z" fill="#263238"/>
      <path id="Path_2565" data-name="Path 2565" d="M368.57,125c-3.17,2.9-32.41-15.27-19.92-18.2C362.64,103.49,374.65,119.4,368.57,125Z" fill="#263238"/>
      <path id="Path_2566" data-name="Path 2566" d="M362.5,125.29c-3.57,2.39-37.45-4.32-29.2-14.15C343.16,99.38,369.9,120.33,362.5,125.29Z" fill="#263238"/>
      <path id="Path_2567" data-name="Path 2567" d="M364.26,140.46a7.51,7.51,0,0,1-5.12,2.54c-2.62.16-3.38-2.31-2.19-4.5,1.06-2,3.71-4.42,6.12-3.55S365.84,138.61,364.26,140.46Z" fill="#ff8b7b"/>
      <path id="Path_2568" data-name="Path 2568" d="M285.64,386.39l12.82,4s12.94-46.88,17.35-71.2c1.34-7.4,4.2-17.62,7.63-28.53,4.32-13.74,9.54-28.56,13.77-40.14,4.46-12.21,7.8-20.83,7.8-20.83l-27.57-4.3s-22.39,64.12-25.27,88.17C289.18,338.57,285.64,386.39,285.64,386.39Z" fill="#407bff"/>
      <path id="Path_2569" data-name="Path 2569" d="M285.64,386.39l12.82,4s12.94-46.88,17.35-71.2c1.34-7.4,4.2-17.62,7.63-28.53,4.32-13.74,9.54-28.56,13.77-40.14,4.46-12.21,7.8-20.83,7.8-20.83l-27.57-4.3s-22.39,64.12-25.27,88.17C289.18,338.57,285.64,386.39,285.64,386.39Z" fill="#181c3a"/>
      <path id="Path_2570" data-name="Path 2570" d="M323.44,290.68c4.32-13.74,9.54-28.56,13.77-40.14l-2.35-6.44C327.29,251.68,323.28,276.82,323.44,290.68Z" opacity="0.2"/>
      <path id="Path_2571" data-name="Path 2571" d="M332.31,227.73s-2.77,67.94-1.39,91.14c1.51,25.41,17,78.54,17,78.54h14.53s-6.24-48.24-8.7-72.94c-2.8-28.13,5.64-92.52,5.64-92.52Z" fill="#407bff"/>
      <path id="Path_2572" data-name="Path 2572" d="M332.31,227.73s-2.77,67.94-1.39,91.14c1.51,25.41,17,78.54,17,78.54h14.53s-6.24-48.24-8.7-72.94c-2.8-28.13,5.64-92.52,5.64-92.52Z" fill="#181c3a"/>
      <path id="Path_2573" data-name="Path 2573" d="M346.16,397.72h17.11v-5.11l-19.13-.34Z" fill="#407bff"/>
      <path id="Path_2574" data-name="Path 2574" d="M283.93,386.19l15.28,4.79,1.55-4.94-17-5.61Z" fill="#407bff"/>
      <path id="Path_2575" data-name="Path 2575" d="M350,131.68c-.1.63-.51,1.09-.92,1s-.67-.63-.57-1.26.51-1.09.92-1S350.07,131.05,350,131.68Z" fill="#263238"/>
      <path id="Path_2576" data-name="Path 2576" d="M342.83,130.57c-.1.63-.52,1.09-.93,1s-.67-.62-.57-1.26.51-1.09.93-1S342.92,129.93,342.83,130.57Z" fill="#263238"/>
      <path id="Path_2577" data-name="Path 2577" d="M345.05,131.24a23,23,0,0,1-3.86,4.93,3.68,3.68,0,0,0,2.93,1Z" fill="#ff5652"/>
      <path id="Path_2578" data-name="Path 2578" d="M346.52,139.32a6.12,6.12,0,0,1-.83-.08.18.18,0,0,1-.16-.21.2.2,0,0,1,.21-.16,5,5,0,0,0,4.39-1.32.19.19,0,0,1,.27,0,.18.18,0,0,1,0,.26,5.26,5.26,0,0,1-3.88,1.51Z" fill="#263238"/>
      <path id="Path_2579" data-name="Path 2579" d="M352.54,129.72a.42.42,0,0,1-.33-.2,3,3,0,0,0-2.18-1.61.38.38,0,1,1,.06-.75,3.73,3.73,0,0,1,2.78,2,.38.38,0,0,1-.15.51A.41.41,0,0,1,352.54,129.72Z" fill="#263238"/>
      <path id="Path_2580" data-name="Path 2580" d="M340.13,127.63a.44.44,0,0,1-.21-.07.37.37,0,0,1-.09-.52,3.78,3.78,0,0,1,3-1.68.38.38,0,1,1,0,.76,2.87,2.87,0,0,0-2.35,1.35.42.42,0,0,1-.35.16Z" fill="#263238"/>
      <path id="Path_2581" data-name="Path 2581" d="M350.94,408.6a2.43,2.43,0,0,1-1.53-.4,1.16,1.16,0,0,1-.39-1,.58.58,0,0,1,.33-.53c.87-.46,3.43,1.12,3.72,1.3a.2.2,0,0,1,.09.19.21.21,0,0,1-.14.15,9.69,9.69,0,0,1-2.08.29Zm-1.18-1.6a.54.54,0,0,0-.24.05.23.23,0,0,0-.12.22.76.76,0,0,0,.25.68c.44.37,1.47.42,2.82.15a7.609,7.609,0,0,0-2.71-1.1Z" fill="#407bff"/>
      <path id="Path_2582" data-name="Path 2582" d="M353,408.32a.15.15,0,0,1-.09,0c-.82-.44-2.41-2.18-2.24-3.07a.62.62,0,0,1,.6-.49,1.08,1.08,0,0,1,.8.24c.92.76,1.11,3,1.12,3.14a.19.19,0,0,1-.09.17A.17.17,0,0,1,353,408.32Zm-1.6-3.21h-.09c-.24,0-.26.15-.27.19-.1.53.91,1.84,1.73,2.46a4.54,4.54,0,0,0-.94-2.49.66.66,0,0,0-.46-.16Z" fill="#407bff"/>
      <path id="Path_2583" data-name="Path 2583" d="M285.49,397.78h0c-1.3-.14-3.56-.52-4.16-1.52a1.06,1.06,0,0,1-.06-1,.6.6,0,0,1,.44-.38c1.09-.23,3.64,2.27,3.93,2.56a.246.246,0,0,1-.15.34Zm-3.65-2.52h-.07a.22.22,0,0,0-.17.15.68.68,0,0,0,0,.65c.34.56,1.56,1,3.32,1.27C283.93,396.39,282.48,395.24,281.84,395.26Z" fill="#407bff"/>
      <path id="Path_2584" data-name="Path 2584" d="M285.49,397.78a.24.24,0,0,1-.13,0c-.78-.69-2.08-2.9-1.67-3.71.1-.19.32-.4.82-.29a1.33,1.33,0,0,1,.9.62c.72,1.09.28,3.19.26,3.28a.17.17,0,0,1-.12.14Zm-1.25-3.71c-.16,0-.2.09-.21.12-.25.48.58,2.16,1.33,3a4.4,4.4,0,0,0-.26-2.65,1,1,0,0,0-.66-.45Z" fill="#407bff"/>
      <path id="Path_2585" data-name="Path 2585" d="M376.66,173.51c-.15,1.38-.3,2.57-.51,3.84s-.41,2.49-.64,3.73c-.43,2.48-1,4.93-1.62,7.39a92.66,92.66,0,0,1-5,14.56l-.83,1.79-.91,1.78-.23.45-.11.22-.18.32a9.468,9.468,0,0,1-1.28,1.78,8.05,8.05,0,0,1-4.54,2.48,9,9,0,0,1-4-.26,13.72,13.72,0,0,1-2.64-1.1,21.359,21.359,0,0,1-3.72-2.63,33.943,33.943,0,0,1-2.91-2.82c-.91-1-1.75-1.94-2.55-2.95a55.759,55.759,0,0,1-4.39-6.27l4.6-3.79a95.921,95.921,0,0,0,10.86,8.23,14.4,14.4,0,0,0,2.44,1.18,2,2,0,0,0,.75.16c.12,0,0-.12-.44-.08a2.65,2.65,0,0,0-1.46.71c-.15.15-.22.25-.26.28h0v-.09l.07-.19.16-.38.62-1.51.57-1.55a103.34,103.34,0,0,0,3.67-13.12c.51-2.26,1-4.53,1.39-6.81s.79-4.64,1.12-6.76Z" fill="#ff8b7b"/>
      <path id="Path_2586" data-name="Path 2586" d="M378.21,168.8c4.31,6.24-2.42,27.58-2.42,27.58l-19-4.53a109.511,109.511,0,0,1,4.6-19.42C365,162.36,373,161.24,378.21,168.8Z" fill="#8880f7"/>
      <path id="Path_2587" data-name="Path 2587" d="M345.78,192.55,341.11,186l-5.06,8.78s5.22,4.71,8,2.23Z" fill="#ff8b7b"/>
      <path id="Path_2588" data-name="Path 2588" d="M334.77,184.05l-3.84,7.46,5.13,3.25,5.05-8.78Z" fill="#ff8b7b"/>
      <path id="Path_2589" data-name="Path 2589" d="M314.3,187.72l4.93-6.37,4.69,9s-5.4,4.48-8.1,1.89Z" fill="#ff8b7b"/>
      <path id="Path_2590" data-name="Path 2590" d="M325.65,179.69l3.53,7.61-5.26,3.04-4.69-8.99Z" fill="#ff8b7b"/>
    </g>
    <g id="freepik--character-1--inject-3">
      <path id="Path_2591" data-name="Path 2591" d="M142.8,132c-1.72-3.25-.66-8.77,8.59-8.85s19.7.35,18.1-8.07c8,1.33,13.5,8.49,9.64,13.2-6.19,7.53-1.85,12.86-6.21,15.76-6.07,4.06-8,24-21.31,19.09C152.85,155.75,132.05,138.72,142.8,132Z" fill="#263238"/>
      <path id="Path_2592" data-name="Path 2592" d="M185.82,182c.22,2.39.51,5,.87,7.49s.72,5,1.22,7.52a101.1,101.1,0,0,0,3.82,14.54l.65,1.72.3.78c0,.05,0,0-.07,0a1.24,1.24,0,0,0-.73-.33c-.14,0,.06.07.37,0a9.91,9.91,0,0,0,2.63-1.12,27.8,27.8,0,0,0,3-1.92,73,73,0,0,0,5.91-4.71c1.93-1.67,3.87-3.43,5.72-5.17l3.32,2.8a77.318,77.318,0,0,1-10.7,12.34,37.577,37.577,0,0,1-3.38,2.73,16.821,16.821,0,0,1-4.45,2.3,8.39,8.39,0,0,1-3.52.36,6.38,6.38,0,0,1-2.24-.7,6.59,6.59,0,0,1-1.87-1.48,7.38,7.38,0,0,1-1.12-1.69,2.64,2.64,0,0,1-.15-.3l-.11-.24-.22-.48-.86-1.92a89.08,89.08,0,0,1-4.82-15.76c-.57-2.66-1.08-5.32-1.45-8s-.7-5.33-.87-8.18Z" fill="#ffc3bd"/>
      <path id="Path_2593" data-name="Path 2593" d="M182.5,172.06c3,.78,4.74,20.81,4.74,20.81l-8.06,4.85s-4.87-14.8-4.13-21.19C175.59,171.88,180.22,171.48,182.5,172.06Z" fill="#ffc3bd"/>
      <path id="Path_2594" data-name="Path 2594" d="M209.41,200.2l4.63-7.32,2.63,8.31s-3.8,4-7.24,3Z" fill="#ffc3bd"/>
      <path id="Path_2595" data-name="Path 2595" d="M220.84,190.45l1.82,7.09-5.99,3.65-2.63-8.31Z" fill="#ffc3bd"/>
      <path id="Path_2596" data-name="Path 2596" d="M165.28,407.52h8.58l3.64-31.51H165.73Z" fill="#ffc3bd"/>
      <path id="Path_2597" data-name="Path 2597" d="M111.4,395.94l8.31,2.15,12.76-28.92-11.5-3.25Z" fill="#ffc3bd"/>
      <path id="Path_2598" data-name="Path 2598" d="M121,396.71l-8.87-3.77a.67.67,0,0,0-.86.27l-4,6.59a1.38,1.38,0,0,0,.67,1.94c3.12,1.26,4.69,1.71,8.59,3.37,2.4,1,5.8,2.76,9.11,4.17s4.89-1.8,3.63-2.68c-5.62-4-5.82-6.21-7.16-8.85a2.24,2.24,0,0,0-1.11-1.04Z" fill="#263238"/>
      <path id="Path_2599" data-name="Path 2599" d="M174.15,406.52h-9.64a.68.68,0,0,0-.68.59l-1.1,7.63a1.38,1.38,0,0,0,1.38,1.52c3.36-.06,5-.25,9.22-.25,2.6,0,8,.27,11.6.27s3.79-3.56,2.29-3.89c-6.72-1.44-9.37-3.44-11.63-5.34a2.26,2.26,0,0,0-1.44-.53Z" fill="#263238"/>
      <path id="Path_2600" data-name="Path 2600" d="M183,172.05s4.08,1.44-4.1,51.78H144.09c.59-14.18.6-22.92-6.17-52a102.561,102.561,0,0,1,14.79-2,111.242,111.242,0,0,1,15.82,0C175.33,170.47,183,172.05,183,172.05Z" fill="#8880f7"/>
      <path id="Path_2601" data-name="Path 2601" d="M154.28,152c1,5.09,2,14.42-1.57,17.81a60.33,60.33,0,0,0,15.35,11.77c4.94-8,.47-11.77.47-11.77-5.67-1.35-5.53-5.56-4.54-9.52Z" fill="#ffc3bd"/>
      <path id="Path_2602" data-name="Path 2602" d="M154.68,165.53a42.79,42.79,0,0,0,9-.18.13.13,0,0,1,.14.08c.09.23.33.86.52,1.29a.12.12,0,0,1-.05.16c-1,.51-5.95,1.16-10,.4a.13.13,0,0,1-.1-.17c.16-.6.33-1.24.39-1.48a.11.11,0,0,1,.1-.1Z" fill="#407bff"/>
      <path id="Path_2603" data-name="Path 2603" d="M158.24,155.42l5.75,4.91a16.28,16.28,0,0,0-.49,2.8c-2.17-.31-5.15-2.69-5.38-5a7.85,7.85,0,0,1,.12-2.71Z" opacity="0.2"/>
      <path id="Path_2604" data-name="Path 2604" d="M148.91,142.7c2,8.28,2.66,11.82,7.65,15.37,7.5,5.33,17.23,1.07,17.75-7.63.47-7.84-2.88-20.06-11.66-21.94a11.61,11.61,0,0,0-13.74,14.2Z" fill="#ffc3bd"/>
      <path id="Path_2605" data-name="Path 2605" d="M178.94,223.83s6.76,66.09,6.2,92.25c-.58,27.22-6,60.87-6,60.87H164.18s.64-32.06-.39-58.79c-1.11-29.14-10.37-94.33-10.37-94.33Z" fill="#181c3a"/>
      <path id="Path_2606" data-name="Path 2606" d="M162.9,378.44h16.87L181,374.1l-18.89-.53Z" fill="#263238"/>
      <path id="Path_2607" data-name="Path 2607" d="M163.91,240.28c8.55,17.21,1.71,48.62-1.31,60.3-1.55-17.55-4.17-39-6.21-54.75C157.69,236.92,160,232.34,163.91,240.28Z" opacity="0.2"/>
      <path id="Path_2608" data-name="Path 2608" d="M169.73,223.83s-7.89,68.71-13.85,90.77c-7.08,26.18-21.54,55.1-21.54,55.1l-15-4.23s8.41-35.3,13.82-49.1c11.55-29.44,1.66-73.32,10.89-92.54Z" fill="#181c3a"/>
      <path id="Path_2609" data-name="Path 2609" d="M118.45,367.75,134,372.06l2.8-3.99-17.25-5.75Z" fill="#263238"/>
      <path id="Path_2610" data-name="Path 2610" d="M162.89,142.87c.12.68.58,1.17,1,1.09s.71-.7.59-1.38-.58-1.17-1-1.09S162.77,142.19,162.89,142.87Z" fill="#263238"/>
      <path id="Path_2611" data-name="Path 2611" d="M170.59,141.5c.13.68.58,1.17,1,1.09s.71-.69.59-1.37-.58-1.17-1-1.09S170.47,140.82,170.59,141.5Z" fill="#263238"/>
      <path id="Path_2612" data-name="Path 2612" d="M171,140.2l1.56-.76S171.93,140.86,171,140.2Z" fill="#263238"/>
      <path id="Path_2613" data-name="Path 2613" d="M168.41,143a18.61,18.61,0,0,0,3.2,3.92,3,3,0,0,1-2.35.88Z" fill="#ed847e"/>
      <path id="Path_2614" data-name="Path 2614" d="M165.66,151a6.911,6.911,0,0,0,1.16-.1.2.2,0,0,0,.16-.24.19.19,0,0,0-.23-.16,5.49,5.49,0,0,1-4.78-1.33.19.19,0,0,0-.28,0,.21.21,0,0,0,0,.29,5.7,5.7,0,0,0,3.97,1.54Z" fill="#263238"/>
      <path id="Path_2615" data-name="Path 2615" d="M146.13,130.83c4.92,2.42,9.83,1.37,10.08,7.48s-8.16,16-10.08,9S146.13,130.83,146.13,130.83Z" fill="#263238"/>
      <path id="Path_2616" data-name="Path 2616" d="M147.6,134c6.35,2.57,23.84,3.24,23.46-4.6s-15.5-4.37-19.83-2.69S147.6,134,147.6,134Z" fill="#263238"/>
      <path id="Path_2617" data-name="Path 2617" d="M148.56,148.94a6.2,6.2,0,0,0,3.37,3.35c2,.82,3.27-.94,2.91-3-.33-1.83-1.77-4.47-3.9-4.41a2.79,2.79,0,0,0-2.38,4.06Z" fill="#ffc3bd"/>
      <path id="Path_2618" data-name="Path 2618" d="M159.91,138.31a.37.37,0,0,0,.29-.13,3.28,3.28,0,0,1,2.74-1.06.407.407,0,1,0,.15-.8,4.06,4.06,0,0,0-3.48,1.3.42.42,0,0,0,0,.58A.43.43,0,0,0,159.91,138.31Z" fill="#263238"/>
      <path id="Path_2619" data-name="Path 2619" d="M172.52,137.26a.38.38,0,0,0,.28-.11.4.4,0,0,0,0-.57,4,4,0,0,0-3.48-1.29.4.4,0,0,0-.32.47.41.41,0,0,0,.47.33,3.23,3.23,0,0,1,2.74,1,.42.42,0,0,0,.31.17Z" fill="#263238"/>
      <path id="Path_2620" data-name="Path 2620" d="M142.27,184.29c-1.73,4.52-3.39,9.27-4.86,13.94A102.5,102.5,0,0,0,134,212.31c-.11.58-.16,1.15-.22,1.72l-.09.85v.36h0a4.65,4.65,0,0,0,.71,1.86,33.341,33.341,0,0,0,4.11,5.38c3.21,3.59,6.91,7,10.56,10.38l-2.53,3.54a84.369,84.369,0,0,1-12.79-9.07,35.21,35.21,0,0,1-5.74-6.16,11.75,11.75,0,0,1-2.16-5.12,7.43,7.43,0,0,1-.06-1c0-.21,0-.22,0-.33v-1.26a17.546,17.546,0,0,1,.14-2.07,87.682,87.682,0,0,1,3.13-15.59,135.352,135.352,0,0,1,5.08-14.8Z" fill="#ffc3bd"/>
      <path id="Path_2621" data-name="Path 2621" d="M138,171.8c-3.42,1.4-7.7,20.11-7.7,20.11l7.27,6s6.85-14,7.15-20.38C144.9,172.66,141,170.57,138,171.8Z" fill="#ffc3bd"/>
      <path id="Path_2622" data-name="Path 2622" d="M124.94,399.41a1.2,1.2,0,0,0,.62-.81.68.68,0,0,0-.15-.68c-.74-.81-3.8-.28-4.15-.22a.23.23,0,0,0-.16.16.2.2,0,0,0,.08.21c.92.67,2.62,1.75,3.64,1.39a.43.43,0,0,0,.12-.05ZM121.82,398c1.23-.17,2.9-.25,3.29.17a.29.29,0,0,1,0,.31.76.76,0,0,1-.47.58C124.13,399.27,123.08,398.88,121.82,398Z" fill="#407bff"/>
      <path id="Path_2623" data-name="Path 2623" d="M122.69,397.64c.89-.43,1.8-1.09,1.93-1.7a.71.71,0,0,0-.41-.79,1.09,1.09,0,0,0-.9-.09c-1.17.4-2.16,2.67-2.2,2.76a.2.2,0,0,0,0,.2.18.18,0,0,0,.18.08,4.759,4.759,0,0,0,1.4-.46Zm.63-2.14.12-.05a.67.67,0,0,1,.57.05c.22.13.23.26.21.35-.12.59-1.56,1.49-2.57,1.77A5.22,5.22,0,0,1,123.32,395.5Z" fill="#407bff"/>
      <path id="Path_2624" data-name="Path 2624" d="M177.37,408a3.23,3.23,0,0,0,2.09-.53,1.12,1.12,0,0,0,.36-1,.67.67,0,0,0-.34-.55c-1-.57-4.47,1.18-4.86,1.38a.2.2,0,0,0-.11.21.21.21,0,0,0,.16.17A15.137,15.137,0,0,0,177.37,408Zm1.53-1.77a.81.81,0,0,1,.38.07.25.25,0,0,1,.14.22.71.71,0,0,1-.24.65c-.52.47-1.93.55-3.83.24a11,11,0,0,1,3.55-1.16Z" fill="#407bff"/>
      <path id="Path_2625" data-name="Path 2625" d="M174.71,407.72h.09c1-.46,3-2.31,2.88-3.28,0-.23-.2-.52-.76-.58a1.52,1.52,0,0,0-1.12.35c-1.08.9-1.28,3.21-1.29,3.31a.21.21,0,0,0,.09.18A.15.15,0,0,0,174.71,407.72Zm2-3.48h.12c.37,0,.4.18.4.23.1.59-1.27,2-2.32,2.67a4.69,4.69,0,0,1,1.1-2.64,1,1,0,0,1,.75-.26Z" fill="#407bff"/>
      <path id="Path_2626" data-name="Path 2626" d="M143.57,221.79l-.89,3.12c-.12.24.16.48.57.48h35.86c.31,0,.57-.15.59-.35l.32-3.12c0-.21-.25-.39-.6-.39H144.14A.63.63,0,0,0,143.57,221.79Z" fill="#407bff"/>
      <path id="Path_2627" data-name="Path 2627" d="M143.57,221.79l-.89,3.12c-.12.24.16.48.57.48h35.86c.31,0,.57-.15.59-.35l.32-3.12c0-.21-.25-.39-.6-.39H144.14A.63.63,0,0,0,143.57,221.79Z" fill="#fff" opacity="0.8"/>
      <path id="Path_2628" data-name="Path 2628" d="M148.31,225.73h-.95c-.18,0-.33-.09-.31-.21l.44-4.06c0-.11.18-.21.36-.21h1c.19,0,.33.1.32.21l-.44,4.06A.484.484,0,0,1,148.31,225.73Z" fill="#407bff"/>
      <path id="Path_2629" data-name="Path 2629" d="M176.45,225.73h-.94c-.19,0-.33-.09-.32-.21l.44-4.06c0-.11.18-.21.37-.21h.94c.19,0,.33.1.32.21l-.44,4.06C176.81,225.64,176.64,225.73,176.45,225.73Z" fill="#407bff"/>
      <path id="Path_2630" data-name="Path 2630" d="M162.38,225.73h-.94c-.19,0-.34-.09-.32-.21l.44-4.06c0-.11.18-.21.37-.21h.94c.19,0,.33.1.32.21l-.44,4.06C162.73,225.64,162.57,225.73,162.38,225.73Z" fill="#407bff"/>
      <path id="Path_2631" data-name="Path 2631" d="M148.06,232.11l9.24.79-6.17,6.16s-5.29-1.53-6-5Z" fill="#ffc3bd"/>
      <path id="Path_2632" data-name="Path 2632" d="M210.3,189l-6,28.7a2.88,2.88,0,0,0,2.23,3.41l54.64,11.46a2.91,2.91,0,0,0,3.42-2.24l6-28.7a2.91,2.91,0,0,0-2.23-3.42l-54.64-11.45a2.93,2.93,0,0,0-2.08.36A2.87,2.87,0,0,0,210.3,189Z" fill="#407bff"/>
      <path id="Path_2633" data-name="Path 2633" d="M210.3,189l-6,28.7a2.88,2.88,0,0,0,2.23,3.41l54.64,11.46a2.91,2.91,0,0,0,3.42-2.24l6-28.7a2.91,2.91,0,0,0-2.23-3.42l-54.64-11.45a2.93,2.93,0,0,0-2.08.36A2.87,2.87,0,0,0,210.3,189Z" opacity="0.5"/>
      <path id="Path_2634" data-name="Path 2634" d="M270.12,199.41l-8.63,4.39-17.12,8.69a11.74,11.74,0,0,1-14.41-3L218.11,195l-6.48-7.89a3,3,0,0,1,2.09-.36l4.77,1,43.36,9.09,6.5,1.36a2.92,2.92,0,0,1,1.77,1.21Z" fill="#407bff"/>
      <path id="Path_2635" data-name="Path 2635" d="M263.56,164.49l-1.71,32.39-.36,6.92-17.12,8.69a11.74,11.74,0,0,1-14.41-3L218.11,195l.38-7.25,1.35-25.6a2.65,2.65,0,0,1,2.76-2.49l38.47,2a2.64,2.64,0,0,1,2.49,2.83Z" fill="#407bff"/>
      <path id="Path_2636" data-name="Path 2636" d="M263.56,164.49l-1.71,32.39-.36,6.92-17.12,8.69a11.74,11.74,0,0,1-14.41-3L218.11,195l.38-7.25,1.35-25.6a2.65,2.65,0,0,1,2.76-2.49l38.47,2a2.64,2.64,0,0,1,2.49,2.83Z" fill="#181c3a" opacity="0.9"/>
      <path id="Path_2637" data-name="Path 2637" d="M232,205.49,218.27,192l-.16,3L230,209.47a11.74,11.74,0,0,0,14.41,3l17.12-8.69.17-3.24-17.26,7.28A11.37,11.37,0,0,1,232,205.49Z" opacity="0.1"/>
      <path id="Path_2638" data-name="Path 2638" d="M224,171.92l.42-7.93,1.6.09L225.6,172Z" transform="translate(0 9)" fill="#8880f7"/>
      <path id="Path_2639" data-name="Path 2639" d="M227.14,172.09l.42-7.93,1.56.08,3,5.47.27-5.3,1.49.08-.42,7.93-1.6-.08L228.9,167l-.27,5.17Z" transform="translate(0 9)" fill="#8880f7"/>
      <path id="Path_2640" data-name="Path 2640" d="M237.15,172.62l-2.42-8.08,1.74.09,1.7,6,2.25-5.76,1.7.09-3.26,7.78Z" transform="translate(0 9)" fill="#8880f7"/>
      <path id="Path_2641" data-name="Path 2641" d="M242.47,172.9l.42-7.93,1.6.08-.42,7.93Z" transform="translate(0 9)" fill="#8880f7"/>
      <path id="Path_2642" data-name="Path 2642" d="M247.38,173.16l.35-6.59-2.35-.13.07-1.34,6.3.33-.07,1.34-2.35-.12-.35,6.59Z" transform="translate(0 9)" fill="#8880f7"/>
      <path id="Path_2643" data-name="Path 2643" d="M252.36,173.42l.42-7.93,5.88.31-.07,1.34-4.28-.23-.09,1.76,4,.21-.07,1.34-4-.21-.11,2.16,4.43.23-.07,1.34Z" transform="translate(0 9)" fill="#8880f7"/>
      <path id="Path_2644" data-name="Path 2644" d="M162.58,237.81l-5.45,4.88-7.32-4.12,7.49-5.67Z" fill="#ffc3bd"/>
      <path id="Path_2645" data-name="Path 2645" d="M163.29,141.56l1.55-.76S164.23,142.23,163.29,141.56Z" fill="#263238"/>
    </g>
  </g>
</svg>
