<svg xmlns="http://www.w3.org/2000/svg" xmlns:xlink="http://www.w3.org/1999/xlink" width="400" height="400" viewBox="0 0 400 400">
  <defs>
    <clipPath id="clip-Wizzard-4">
      <rect width="400" height="400"/>
    </clipPath>
  </defs>
  <g id="Wizzard-4" clip-path="url(#clip-Wizzard-4)">
    <rect width="400" height="400" fill="rgba(255,255,255,0)"/>
    <g id="Group_388" data-name="Group 388" transform="translate(-232.938 -32.202)">
      <g id="Group_349" data-name="Group 349" transform="translate(348.873 91.185)">
        <g id="Group_345" data-name="Group 345" transform="translate(0)">
          <path id="Path_1793" data-name="Path 1793" d="M367.452,186.179,385.1,175.994l-17.643-10.187-17.643,10.187h0l-17.643,10.186,17.643,10.187h0l17.643,10.186L385.1,196.366Z" transform="translate(-332.166 -65.737)" fill="#d4ecff"/>
          <path id="Path_1794" data-name="Path 1794" d="M361.382,176.275v-74.7l17.644-10.186v74.7Z" transform="translate(-326.094 -81.206)" fill="#173d7a"/>
          <path id="Path_1795" data-name="Path 1795" d="M364.418,101.579,346.775,91.392v74.7l17.643,10.186Z" transform="translate(-329.13 -81.206)" fill="#396caa"/>
          <path id="Path_1796" data-name="Path 1796" d="M382.061,93.145,364.418,82.959,346.775,93.145l17.643,10.187Z" transform="translate(-329.13 -82.959)" fill="#d4ecff"/>
        </g>
        <g id="Group_346" data-name="Group 346" transform="translate(35.289 88.279)">
          <path id="Path_1797" data-name="Path 1797" d="M379.026,166.231l-17.643-10.186v6.787l17.643,10.186Z" transform="translate(-361.383 -156.045)" fill="#95d359"/>
        </g>
        <g id="Group_347" data-name="Group 347" transform="translate(0 30.558)">
          <path id="Path_1798" data-name="Path 1798" d="M346.775,181.2V126.877l17.643-10.186v54.325Z" transform="translate(-329.13 -106.504)" fill="#c13d1a"/>
          <path id="Path_1799" data-name="Path 1799" d="M349.812,126.877l-17.643-10.186v54.325L349.812,181.2Z" transform="translate(-332.166 -106.504)" fill="#db5126"/>
          <path id="Path_1800" data-name="Path 1800" d="M367.452,118.445l-17.643-10.187-17.643,10.187,17.643,10.186Z" transform="translate(-332.166 -108.258)" fill="#ef602e"/>
          <path id="Path_1801" data-name="Path 1801" d="M346.775,181.2V126.877l17.643-10.186v54.325Z" transform="translate(-329.13 -106.504)" fill="#396caa"/>
          <path id="Path_1802" data-name="Path 1802" d="M349.812,126.877l-17.643-10.186v54.325L349.812,181.2Z" transform="translate(-332.166 -106.504)" fill="#5793ce"/>
          <path id="Path_1803" data-name="Path 1803" d="M367.452,118.445l-17.643-10.187-17.643,10.187,17.643,10.186Z" transform="translate(-332.166 -108.258)" fill="#d4ecff"/>
        </g>
        <g id="Group_348" data-name="Group 348" transform="translate(17.646 64.512)">
          <path id="Path_1804" data-name="Path 1804" d="M361.382,185.545V154.988L379.026,144.8v30.558Z" transform="translate(-343.739 -134.615)" fill="#173d7a"/>
          <path id="Path_1805" data-name="Path 1805" d="M364.418,154.988,346.775,144.8v30.558l17.643,10.187Z" transform="translate(-346.775 -134.615)" fill="#396caa"/>
          <path id="Path_1806" data-name="Path 1806" d="M382.061,146.554l-17.643-10.186-17.643,10.186,17.643,10.187Z" transform="translate(-346.775 -136.368)" fill="#d4ecff"/>
        </g>
      </g>
      <g id="Group_350" data-name="Group 350" transform="translate(600.065 244.266)">
        <rect id="Rectangle_481" data-name="Rectangle 481" width="2.114" height="6.141" transform="matrix(0.248, 0.969, -0.969, 0.248, 15.051, 0)" fill="#5793ce"/>
        <rect id="Rectangle_482" data-name="Rectangle 482" width="2.114" height="6.141" transform="matrix(0.248, 0.969, -0.969, 0.248, 12.016, 2.958)" fill="#5793ce"/>
        <rect id="Rectangle_483" data-name="Rectangle 483" width="2.114" height="6.14" transform="matrix(0.248, 0.969, -0.969, 0.248, 8.981, 5.918)" fill="#5793ce"/>
        <rect id="Rectangle_484" data-name="Rectangle 484" width="2.114" height="6.14" transform="matrix(0.248, 0.969, -0.969, 0.248, 5.947, 8.878)" fill="#5793ce"/>
      </g>
      <g id="Group_356" data-name="Group 356" transform="translate(322.481 104.967)">
        <g id="Group_353" data-name="Group 353" transform="translate(0 0)">
          <path id="Path_1807" data-name="Path 1807" d="M446.1,360.045,312.862,283.118c-3.768-2.177-3.3-5.977,1.056-8.49l90.727-52.364c4.356-2.513,10.94-2.786,14.706-.608l133.241,76.927c3.769,2.177,3.3,5.977-1.056,8.49l-90.727,52.362C456.456,361.948,449.872,362.221,446.1,360.045Z" transform="translate(-310.317 -68.216)" fill="#d4ecff"/>
          <g id="Group_351" data-name="Group 351" transform="translate(99.617)">
            <path id="Path_1808" data-name="Path 1808" d="M539.89,173.413,404.453,95.282a5.193,5.193,0,0,0-4.637-.623v-.014l-.222.1-.055.024-4.409,2.076,4.786,2.384c0,.089-.01.173-.01.264l.042,111.242c0,5.571,3.444,12.067,7.7,14.517L539.476,301.3l.749,6.2,4.814-2.3c1.586-.931,2.589-3.039,2.589-6.035l-.043-111.243C547.583,182.365,544.138,175.866,539.89,173.413Z" transform="translate(-392.303 -94.372)" fill="#173d7a"/>
            <path id="Path_1809" data-name="Path 1809" d="M539.89,173.413,404.453,95.282a5.193,5.193,0,0,0-4.637-.623v-.014l-.222.1-.055.024-4.409,2.076,4.786,2.384c0,.089-.01.173-.01.264l.026,73.316,61.639,48.7,83.694-42.121A15.188,15.188,0,0,0,539.89,173.413Z" transform="translate(-392.303 -94.372)" fill="#396caa"/>
            <path id="Path_1810" data-name="Path 1810" d="M519.134,161.258l-13.27,5.583,10.021,7.721L524.254,171A19.478,19.478,0,0,0,519.134,161.258Z" transform="translate(-369.285 -80.465)" fill="#274f89"/>
            <path id="Path_1811" data-name="Path 1811" d="M535.966,306.558,400.53,228.426c-4.246-2.45-7.693-8.951-7.7-14.516l-.042-111.243c0-5.571,3.444-8.094,7.689-5.643l135.436,78.132c4.249,2.449,7.7,8.949,7.7,14.516l.042,111.242C543.657,306.48,540.215,309.007,535.966,306.558Z" transform="translate(-392.79 -94.012)" fill="#d4ecff"/>
            <path id="Path_1812" data-name="Path 1812" d="M530.584,296.878,404.091,223.944c-3.888-2.243-7.04-8.192-7.043-13.286l-.037-101.795c0-5.1,3.147-7.407,7.036-5.166L530.54,176.632c3.887,2.242,7.041,8.191,7.042,13.284l.037,101.8C537.622,296.809,534.471,299.121,530.584,296.878Z" transform="translate(-391.913 -92.608)" fill="#fff"/>
            <path id="Path_1813" data-name="Path 1813" d="M530.584,296.878,404.091,223.944c-3.888-2.243-7.04-8.192-7.043-13.286l-.037-101.795c0-5.1,3.147-7.407,7.036-5.166L530.54,176.632c3.887,2.242,7.041,8.191,7.042,13.284l.037,101.8C537.622,296.809,534.471,299.121,530.584,296.878Z" transform="translate(-391.913 -92.608)" fill="#fff"/>
          </g>
          <path id="Path_1814" data-name="Path 1814" d="M555.131,285.545l-18.212-2.4L419.35,215.261c-3.768-2.177-10.353-1.9-14.706.608l-83.31,48.08-11.012-1.455v6.248h.011c-.073,1.445.751,2.836,2.532,3.861L446.107,349.53c3.769,2.177,10.354,1.9,14.706-.608l90.722-52.361c2.448-1.418,3.669-3.234,3.6-4.945h0Z" transform="translate(-310.316 -69.545)" fill="#173d7a"/>
          <path id="Path_1815" data-name="Path 1815" d="M466.794,238.516l-8.352-4.823H366.608l-45.273,26.122-11.012-1.455v6.248h.011c-.073,1.445.751,2.836,2.532,3.861L446.107,345.4a13.8,13.8,0,0,0,7.59,1.418Z" transform="translate(-310.316 -65.408)" fill="#396caa"/>
          <path id="Path_1816" data-name="Path 1816" d="M315.209,254.76l-4.887-.645v6.248h.011c-.073,1.445.751,2.836,2.532,3.861l2.348,1.355Z" transform="translate(-310.316 -61.162)" fill="#5793ce"/>
          <path id="Path_1817" data-name="Path 1817" d="M423.846,329.222a17.07,17.07,0,0,0,12.493-.776V314.508H423.846Z" transform="translate(-286.718 -48.608)" fill="#274f89"/>
          <path id="Path_1818" data-name="Path 1818" d="M446.1,345.076,312.862,268.149c-3.768-2.175-3.3-5.977,1.056-8.49L404.644,207.3c4.356-2.515,10.94-2.787,14.706-.608l133.241,76.926c3.769,2.177,3.3,5.977-1.056,8.49l-90.727,52.364C456.456,346.978,449.872,347.253,446.1,345.076Z" transform="translate(-310.317 -71.328)" fill="#d4ecff"/>
          <path id="Path_1819" data-name="Path 1819" d="M551.534,279.822l-90.727,52.364c-4.356,2.512-10.94,2.787-14.706.608L312.861,255.868a4.964,4.964,0,0,1-2.343-2.563c-.59,1.782.162,3.585,2.343,4.845L446.1,335.077c3.769,2.177,10.354,1.9,14.706-.608l90.727-52.364c2.926-1.689,4.088-3.96,3.4-5.927a7.091,7.091,0,0,1-3.4,3.644Z" transform="translate(-310.315 -61.33)" fill="#fff"/>
          <g id="Group_352" data-name="Group 352" transform="translate(52.859 138.624)">
            <path id="Path_1820" data-name="Path 1820" d="M360.434,237.773l-6.028-3.48c-.484-.281-.424-.767.136-1.091l7.115-4.108a2.1,2.1,0,0,1,1.888-.078l6.028,3.481c.485.279.423.767-.136,1.091l-7.115,4.108A2.1,2.1,0,0,1,360.434,237.773Z" transform="translate(-354.079 -205.043)" fill="#173d7a"/>
            <path id="Path_1821" data-name="Path 1821" d="M368.142,242.224l-6.028-3.481c-.485-.281-.424-.768.136-1.091l7.114-4.108a2.1,2.1,0,0,1,1.889-.077l6.028,3.479c.484.281.424.768-.136,1.092l-7.115,4.108A2.1,2.1,0,0,1,368.142,242.224Z" transform="translate(-352.477 -204.118)" fill="#173d7a"/>
            <path id="Path_1822" data-name="Path 1822" d="M375.849,246.674l-6.028-3.481c-.484-.281-.422-.768.136-1.09l7.117-4.11a2.1,2.1,0,0,1,1.888-.079l6.028,3.481c.484.279.424.767-.136,1.091l-7.117,4.108a2.1,2.1,0,0,1-1.888.08Z" transform="translate(-350.874 -203.194)" fill="#173d7a"/>
            <path id="Path_1823" data-name="Path 1823" d="M386.509,242.885l-6.027-3.481c-.485-.279-.423-.768.134-1.09l5.977-3.449a2.105,2.105,0,0,1,1.89-.078l6.027,3.481c.484.279.424.767-.136,1.091L388.4,242.8a2.1,2.1,0,0,1-1.888.082Z" transform="translate(-348.658 -203.844)" fill="#173d7a"/>
            <path id="Path_1824" data-name="Path 1824" d="M394.217,247.334l-6.028-3.48c-.484-.279-.423-.767.136-1.091l5.977-3.444a2.1,2.1,0,0,1,1.889-.079l6.028,3.481c.484.279.424.768-.136,1.09l-5.977,3.449A2.1,2.1,0,0,1,394.217,247.334Z" transform="translate(-347.057 -202.919)" fill="#173d7a"/>
            <path id="Path_1825" data-name="Path 1825" d="M401.925,251.784l-6.028-3.479c-.484-.281-.424-.768.136-1.092l5.977-3.444a2.1,2.1,0,0,1,1.889-.08l6.028,3.481c.483.281.424.768-.136,1.091l-5.977,3.444A2.1,2.1,0,0,1,401.925,251.784Z" transform="translate(-345.455 -201.993)" fill="#173d7a"/>
            <path id="Path_1826" data-name="Path 1826" d="M409.634,256.235l-6.028-3.48c-.485-.281-.424-.768.136-1.092l5.977-3.444a2.1,2.1,0,0,1,1.889-.079l6.028,3.481c.483.281.422.768-.136,1.091l-5.977,3.444a2.1,2.1,0,0,1-1.889.079Z" transform="translate(-343.852 -201.068)" fill="#173d7a"/>
            <path id="Path_1827" data-name="Path 1827" d="M417.34,260.685l-6.027-3.481c-.485-.281-.424-.767.134-1.09l5.977-3.45a2.1,2.1,0,0,1,1.888-.077l6.028,3.48c.484.281.424.767-.136,1.091l-5.977,3.444a2.1,2.1,0,0,1-1.887.083Z" transform="translate(-342.25 -200.143)" fill="#173d7a"/>
            <path id="Path_1828" data-name="Path 1828" d="M425.048,265.135l-6.028-3.481c-.484-.279-.424-.767.136-1.09l5.977-3.449a2.1,2.1,0,0,1,1.889-.077l6.028,3.481c.484.278.424.767-.136,1.09l-5.977,3.444A2.1,2.1,0,0,1,425.048,265.135Z" transform="translate(-340.648 -199.218)" fill="#173d7a"/>
            <path id="Path_1829" data-name="Path 1829" d="M432.756,269.585l-6.028-3.481c-.484-.279-.423-.767.136-1.09l5.977-3.449a2.106,2.106,0,0,1,1.889-.077l6.028,3.481c.484.278.424.767-.136,1.09l-5.977,3.449a2.1,2.1,0,0,1-1.889.077Z" transform="translate(-339.045 -198.293)" fill="#173d7a"/>
            <path id="Path_1830" data-name="Path 1830" d="M440.464,274.035l-6.028-3.48c-.485-.281-.424-.768.136-1.091l5.977-3.444a2.1,2.1,0,0,1,1.889-.08l6.028,3.482c.484.281.422.768-.136,1.091l-5.977,3.444A2.1,2.1,0,0,1,440.464,274.035Z" transform="translate(-337.443 -197.369)" fill="#173d7a"/>
            <path id="Path_1831" data-name="Path 1831" d="M448.171,278.486l-6.027-3.481c-.485-.281-.423-.768.134-1.091l5.977-3.444a2.1,2.1,0,0,1,1.889-.08l6.028,3.481c.485.281.423.768-.136,1.092l-5.977,3.444a2.1,2.1,0,0,1-1.888.079Z" transform="translate(-335.841 -196.444)" fill="#173d7a"/>
            <path id="Path_1832" data-name="Path 1832" d="M455.881,282.936l-6.028-3.482c-.484-.281-.424-.768.136-1.091l5.977-3.444a2.1,2.1,0,0,1,1.889-.078l6.028,3.48c.484.281.423.768-.136,1.091l-5.977,3.444A2.1,2.1,0,0,1,455.881,282.936Z" transform="translate(-334.238 -195.518)" fill="#173d7a"/>
            <path id="Path_1833" data-name="Path 1833" d="M397.866,240.778l-6.028-3.481c-.483-.279-.422-.767.136-1.091l5.977-3.444a2.1,2.1,0,0,1,1.888-.078l6.028,3.481c.484.281.423.768-.136,1.091l-5.977,3.444a2.1,2.1,0,0,1-1.888.078Z" transform="translate(-346.297 -204.282)" fill="#396caa"/>
            <path id="Path_1834" data-name="Path 1834" d="M390.043,236.261l-6.028-3.48c-.483-.279-.422-.768.136-1.091l5.977-3.444a2.1,2.1,0,0,1,1.888-.079l6.028,3.481c.485.279.424.767-.136,1.09l-5.977,3.444A2.1,2.1,0,0,1,390.043,236.261Z" transform="translate(-347.925 -205.22)" fill="#396caa"/>
            <path id="Path_1835" data-name="Path 1835" d="M383.406,232.428l-12.984-7.5c-.483-.279-.422-.767.136-1.091l5.977-3.444a2.1,2.1,0,0,1,1.888-.08l12.984,7.5c.484.281.424.768-.136,1.092l-5.977,3.444A2.1,2.1,0,0,1,383.406,232.428Z" transform="translate(-350.75 -206.852)" fill="#173d7a"/>
            <path id="Path_1836" data-name="Path 1836" d="M388.461,226.684,377.926,220.6c-.483-.279-.422-.767.136-1.09l5.977-3.444a2.1,2.1,0,0,1,1.888-.08l10.535,6.084c.484.281.422.768-.136,1.091l-5.977,3.444a2.1,2.1,0,0,1-1.888.079Z" transform="translate(-349.19 -207.752)" fill="#173d7a"/>
            <path id="Path_1837" data-name="Path 1837" d="M405.574,245.228l-6.028-3.481c-.484-.279-.422-.767.136-1.09l5.977-3.449a2.1,2.1,0,0,1,1.888-.077l6.028,3.48c.484.281.422.767-.136,1.091l-5.977,3.444a2.1,2.1,0,0,1-1.888.082Z" transform="translate(-344.696 -203.357)" fill="#396caa"/>
            <path id="Path_1838" data-name="Path 1838" d="M413.281,249.678l-6.028-3.481c-.483-.279-.421-.768.137-1.09l5.977-3.449a2.1,2.1,0,0,1,1.888-.077l6.029,3.481c.484.279.422.766-.137,1.09l-5.977,3.45A2.106,2.106,0,0,1,413.281,249.678Z" transform="translate(-343.094 -202.432)" fill="#173d7a"/>
            <path id="Path_1839" data-name="Path 1839" d="M420.989,254.128l-6.028-3.481c-.483-.279-.422-.767.137-1.09l5.977-3.444a2.1,2.1,0,0,1,1.888-.079l6.029,3.48c.483.279.422.768-.137,1.091l-5.977,3.449a2.1,2.1,0,0,1-1.889.074Z" transform="translate(-341.491 -201.507)" fill="#173d7a"/>
            <path id="Path_1840" data-name="Path 1840" d="M428.7,258.578l-6.028-3.481c-.483-.279-.422-.767.137-1.09l5.977-3.444a2.1,2.1,0,0,1,1.888-.078l6.029,3.48c.483.279.422.768-.137,1.091l-5.977,3.444A2.1,2.1,0,0,1,428.7,258.578Z" transform="translate(-339.889 -200.581)" fill="#173d7a"/>
            <path id="Path_1841" data-name="Path 1841" d="M436.405,263.029l-6.028-3.481c-.484-.281-.422-.768.137-1.091l5.977-3.444a2.1,2.1,0,0,1,1.888-.079l6.029,3.48c.483.281.421.768-.137,1.092l-5.977,3.444a2.1,2.1,0,0,1-1.889.079Z" transform="translate(-338.287 -199.656)" fill="#173d7a"/>
            <path id="Path_1842" data-name="Path 1842" d="M444.112,267.479,438.084,264c-.483-.281-.421-.768.137-1.091l5.977-3.444a2.092,2.092,0,0,1,1.888-.079l6.029,3.48c.484.281.422.768-.137,1.091L446,267.4a2.1,2.1,0,0,1-1.889.08Z" transform="translate(-336.684 -198.731)" fill="#173d7a"/>
            <path id="Path_1843" data-name="Path 1843" d="M451.82,271.928l-6.028-3.48c-.483-.279-.422-.768.137-1.091l5.977-3.444a2.1,2.1,0,0,1,1.888-.079l6.029,3.481c.483.279.422.767-.137,1.09l-5.977,3.449a2.1,2.1,0,0,1-1.889.074Z" transform="translate(-335.082 -197.806)" fill="#173d7a"/>
            <path id="Path_1844" data-name="Path 1844" d="M459.528,276.378,453.5,272.9c-.483-.278-.422-.767.137-1.09l5.977-3.444a2.1,2.1,0,0,1,1.888-.079l6.029,3.482c.483.279.422.768-.137,1.09l-5.977,3.449a2.1,2.1,0,0,1-1.889.073Z" transform="translate(-333.48 -196.881)" fill="#173d7a"/>
            <path id="Path_1845" data-name="Path 1845" d="M467.236,280.828l-6.028-3.48c-.484-.281-.422-.767.137-1.091l5.977-3.444a2.1,2.1,0,0,1,1.888-.079l6.028,3.481c.484.279.422.768-.136,1.09l-5.977,3.449a2.1,2.1,0,0,1-1.889.074Z" transform="translate(-331.877 -195.956)" fill="#173d7a"/>
            <path id="Path_1846" data-name="Path 1846" d="M482.166,289.448l-13.154-7.6c-.484-.279-.423-.767.136-1.09l5.977-3.449a2.1,2.1,0,0,1,1.886-.077l13.155,7.6c.483.281.422.768-.137,1.09l-5.977,3.449a2.1,2.1,0,0,1-1.886.077Z" transform="translate(-330.255 -195.02)" fill="#173d7a"/>
            <path id="Path_1847" data-name="Path 1847" d="M496.819,280.581l-11.1-6.41c-.483-.281-.422-.767.136-1.091l5.977-3.444a2.1,2.1,0,0,1,1.888-.079l11.1,6.41c.484.281.422.768-.137,1.09l-5.977,3.449A2.093,2.093,0,0,1,496.819,280.581Z" transform="translate(-326.783 -196.617)" fill="#173d7a"/>
            <path id="Path_1848" data-name="Path 1848" d="M419.072,244.358l-6.028-3.481c-.484-.281-.422-.768.137-1.091l5.977-3.444a2.088,2.088,0,0,1,1.888-.077l6.028,3.479c.484.281.422.768-.136,1.091l-5.977,3.444a2.1,2.1,0,0,1-1.889.079Z" transform="translate(-341.89 -203.538)" fill="#173d7a"/>
            <path id="Path_1849" data-name="Path 1849" d="M411.172,239.8l-6.028-3.481c-.484-.278-.422-.767.137-1.09l5.977-3.449a2.106,2.106,0,0,1,1.889-.077l6.027,3.481c.485.279.423.768-.136,1.09l-5.977,3.449a2.1,2.1,0,0,1-1.889.077Z" transform="translate(-343.532 -204.486)" fill="#173d7a"/>
            <path id="Path_1850" data-name="Path 1850" d="M403.273,235.236l-6.029-3.481c-.483-.281-.422-.767.137-1.091l5.977-3.444a2.1,2.1,0,0,1,1.889-.079l6.028,3.481c.484.281.422.767-.137,1.091l-5.977,3.444A2.1,2.1,0,0,1,403.273,235.236Z" transform="translate(-345.174 -205.433)" fill="#396caa"/>
            <path id="Path_1851" data-name="Path 1851" d="M395.373,230.675l-6.028-3.481c-.483-.279-.422-.768.136-1.09l5.977-3.449a2.1,2.1,0,0,1,1.888-.077l6.028,3.48c.485.279.424.767-.136,1.091l-5.977,3.444a2.1,2.1,0,0,1-1.888.082Z" transform="translate(-346.816 -206.382)" fill="#173d7a"/>
            <path id="Path_1852" data-name="Path 1852" d="M426.781,248.806l-6.028-3.48c-.483-.281-.422-.768.137-1.091l5.977-3.444a2.1,2.1,0,0,1,1.888-.079l6.029,3.481c.484.279.422.767-.137,1.09l-5.977,3.444A2.1,2.1,0,0,1,426.781,248.806Z" transform="translate(-340.288 -202.612)" fill="#173d7a"/>
            <path id="Path_1853" data-name="Path 1853" d="M434.487,253.257l-6.028-3.48c-.483-.279-.422-.768.137-1.091l5.977-3.444a2.1,2.1,0,0,1,1.888-.078l6.029,3.481c.483.279.422.767-.137,1.09l-5.977,3.449a2.1,2.1,0,0,1-1.889.073Z" transform="translate(-338.685 -201.687)" fill="#173d7a"/>
            <path id="Path_1854" data-name="Path 1854" d="M442.2,257.706l-6.028-3.481c-.483-.279-.422-.766.137-1.09l5.977-3.444a2.1,2.1,0,0,1,1.888-.079l6.029,3.481c.483.279.422.768-.137,1.09l-5.977,3.45A2.1,2.1,0,0,1,442.2,257.706Z" transform="translate(-337.083 -200.762)" fill="#173d7a"/>
            <path id="Path_1855" data-name="Path 1855" d="M449.9,262.157l-6.028-3.48c-.484-.281-.422-.768.137-1.091l5.977-3.444a2.1,2.1,0,0,1,1.888-.079l6.028,3.481c.484.281.422.767-.136,1.09l-5.977,3.449A2.1,2.1,0,0,1,449.9,262.157Z" transform="translate(-335.481 -199.837)" fill="#173d7a"/>
            <path id="Path_1856" data-name="Path 1856" d="M457.611,266.606l-6.029-3.481c-.483-.281-.422-.768.137-1.091l5.977-3.444a2.1,2.1,0,0,1,1.888-.077l6.029,3.48c.484.279.422.767-.137,1.091l-5.977,3.444A2.1,2.1,0,0,1,457.611,266.606Z" transform="translate(-333.878 -198.913)" fill="#173d7a"/>
            <path id="Path_1857" data-name="Path 1857" d="M465.319,271.058l-6.029-3.481c-.483-.281-.422-.768.137-1.09l5.977-3.449a2.1,2.1,0,0,1,1.888-.077l6.029,3.48c.483.279.422.767-.137,1.091l-5.977,3.444a2.1,2.1,0,0,1-1.888.082Z" transform="translate(-332.276 -197.988)" fill="#173d7a"/>
            <path id="Path_1858" data-name="Path 1858" d="M473.027,275.506,467,272.026c-.484-.279-.422-.768.137-1.09l5.977-3.449a2.1,2.1,0,0,1,1.888-.077l6.029,3.48c.483.279.422.767-.137,1.091l-5.977,3.444A2.1,2.1,0,0,1,473.027,275.506Z" transform="translate(-330.674 -197.062)" fill="#173d7a"/>
            <path id="Path_1859" data-name="Path 1859" d="M480.734,279.958l-6.028-3.482c-.484-.279-.422-.767.136-1.091l5.977-3.444a2.1,2.1,0,0,1,1.888-.08l6.028,3.482c.484.279.422.768-.136,1.09l-5.977,3.449A2.1,2.1,0,0,1,480.734,279.958Z" transform="translate(-329.071 -196.137)" fill="#173d7a"/>
            <path id="Path_1860" data-name="Path 1860" d="M488.442,284.406l-6.029-3.48c-.483-.281-.422-.768.137-1.092l5.977-3.444a2.1,2.1,0,0,1,1.888-.08l6.029,3.481c.484.281.422.768-.137,1.092l-5.977,3.444A2.1,2.1,0,0,1,488.442,284.406Z" transform="translate(-327.47 -195.212)" fill="#173d7a"/>
            <path id="Path_1861" data-name="Path 1861" d="M415.013,233.35l-6.027-3.48c-.485-.281-.424-.768.136-1.091l5.977-3.444a2.1,2.1,0,0,1,1.889-.078l6.027,3.481c.484.279.424.767-.134,1.09l-5.977,3.444A2.1,2.1,0,0,1,415.013,233.35Z" transform="translate(-342.734 -205.826)" fill="#173d7a"/>
            <path id="Path_1862" data-name="Path 1862" d="M407.344,228.922l-6.028-3.481c-.484-.279-.424-.767.136-1.09l5.977-3.449a2.1,2.1,0,0,1,1.889-.077l6.028,3.481c.483.279.424.767-.136,1.09l-5.977,3.449a2.1,2.1,0,0,1-1.889.077Z" transform="translate(-344.328 -206.746)" fill="#173d7a"/>
            <path id="Path_1863" data-name="Path 1863" d="M399.675,224.494l-6.028-3.481c-.485-.279-.424-.767.136-1.09l5.977-3.444a2.1,2.1,0,0,1,1.889-.078l6.027,3.481c.484.281.424.767-.134,1.09l-5.977,3.449A2.1,2.1,0,0,1,399.675,224.494Z" transform="translate(-345.922 -207.667)" fill="#173d7a"/>
            <path id="Path_1864" data-name="Path 1864" d="M392.005,220.067l-6.028-3.481c-.484-.281-.424-.768.136-1.091l5.977-3.444a2.1,2.1,0,0,1,1.889-.078l6.028,3.48c.484.281.424.768-.136,1.092l-5.977,3.444a2.1,2.1,0,0,1-1.889.078Z" transform="translate(-347.516 -208.587)" fill="#173d7a"/>
            <path id="Path_1865" data-name="Path 1865" d="M399.892,215.116l-6.028-3.484c-.484-.278-.424-.767.136-1.09l1.975-1.141a2.1,2.1,0,0,1,1.888-.078l6.028,3.481c.484.279.423.767-.136,1.09l-1.975,1.141a2.1,2.1,0,0,1-1.888.081Z" transform="translate(-345.877 -209.136)" fill="#173d7a"/>
            <path id="Path_1866" data-name="Path 1866" d="M409.9,220.894l-6.029-3.48c-.484-.279-.422-.767.137-1.091l1.973-1.139a2.1,2.1,0,0,1,1.889-.08l6.028,3.481c.484.279.422.768-.136,1.091l-1.975,1.141a2.1,2.1,0,0,1-1.887.077Z" transform="translate(-343.796 -207.935)" fill="#173d7a"/>
            <path id="Path_1867" data-name="Path 1867" d="M417.537,225.3l-6.028-3.481c-.483-.279-.422-.767.136-1.09l1.976-1.141a2.1,2.1,0,0,1,1.888-.078l6.028,3.48c.484.281.422.768-.136,1.092l-1.975,1.139a2.1,2.1,0,0,1-1.889.079Z" transform="translate(-342.209 -207.018)" fill="#173d7a"/>
            <path id="Path_1868" data-name="Path 1868" d="M425.175,229.714l-6.028-3.481c-.484-.281-.424-.768.136-1.091L421.258,224a2.1,2.1,0,0,1,1.888-.077l6.029,3.48c.483.281.422.768-.137,1.091l-1.975,1.141A2.1,2.1,0,0,1,425.175,229.714Z" transform="translate(-340.622 -206.102)" fill="#173d7a"/>
            <path id="Path_1869" data-name="Path 1869" d="M432.813,234.123l-6.029-3.48c-.483-.281-.422-.768.137-1.091l1.975-1.141a2.1,2.1,0,0,1,1.888-.079l6.028,3.481c.484.279.424.767-.136,1.09l-1.975,1.141a2.1,2.1,0,0,1-1.888.079Z" transform="translate(-339.033 -205.185)" fill="#173d7a"/>
            <path id="Path_1870" data-name="Path 1870" d="M475.451,258.741l-6.028-3.481c-.483-.279-.422-.768.136-1.09l1.975-1.142a2.1,2.1,0,0,1,1.889-.077l6.028,3.48c.483.279.422.767-.136,1.091l-1.975,1.139a2.1,2.1,0,0,1-1.889.08Z" transform="translate(-330.17 -200.068)" fill="#173d7a"/>
            <path id="Path_1871" data-name="Path 1871" d="M483.09,263.15l-6.028-3.481c-.485-.279-.424-.767.136-1.09l1.975-1.141a2.1,2.1,0,0,1,1.888-.079l6.029,3.481c.483.279.422.767-.137,1.09l-1.974,1.146a2.1,2.1,0,0,1-1.889.074Z" transform="translate(-328.583 -199.151)" fill="#173d7a"/>
            <path id="Path_1872" data-name="Path 1872" d="M490.726,267.559l-6.027-3.48c-.485-.279-.424-.767.134-1.091l1.975-1.139a2.1,2.1,0,0,1,1.889-.08l6.027,3.481c.485.281.424.768-.136,1.091l-1.975,1.141A2.1,2.1,0,0,1,490.726,267.559Z" transform="translate(-326.995 -198.235)" fill="#173d7a"/>
            <path id="Path_1873" data-name="Path 1873" d="M498.363,271.969l-6.028-3.48c-.483-.281-.422-.768.137-1.092l1.973-1.139a2.1,2.1,0,0,1,1.889-.078l6.028,3.48c.484.281.424.768-.136,1.092l-1.975,1.139A2.1,2.1,0,0,1,498.363,271.969Z" transform="translate(-325.407 -197.318)" fill="#173d7a"/>
            <path id="Path_1874" data-name="Path 1874" d="M422.721,237.8l-6.028-3.481c-.484-.278-.424-.767.136-1.09l5.977-3.449a2.106,2.106,0,0,1,1.889-.077l6.028,3.481c.484.279.424.768-.136,1.09l-5.977,3.449a2.1,2.1,0,0,1-1.889.077Z" transform="translate(-341.132 -204.901)" fill="#173d7a"/>
            <path id="Path_1875" data-name="Path 1875" d="M430.429,242.25,424.4,238.77c-.484-.279-.424-.766.136-1.09l5.977-3.444a2.1,2.1,0,0,1,1.889-.079l6.028,3.481c.483.279.424.767-.136,1.09l-5.977,3.449a2.1,2.1,0,0,1-1.889.074Z" transform="translate(-339.529 -203.976)" fill="#173d7a"/>
            <path id="Path_1876" data-name="Path 1876" d="M438.137,246.7l-6.028-3.48c-.485-.281-.424-.768.136-1.091l5.977-3.444a2.1,2.1,0,0,1,1.885-.083l6.028,3.481c.483.281.424.767-.136,1.09l-5.977,3.449a2.1,2.1,0,0,1-1.885.078Z" transform="translate(-337.927 -203.051)" fill="#173d7a"/>
            <path id="Path_1877" data-name="Path 1877" d="M445.844,251.151l-6.027-3.481c-.485-.281-.424-.768.136-1.091l5.977-3.444a2.1,2.1,0,0,1,1.889-.078l6.027,3.481c.484.279.424.767-.136,1.091l-5.977,3.444a2.1,2.1,0,0,1-1.889.078Z" transform="translate(-336.325 -202.126)" fill="#173d7a"/>
            <path id="Path_1878" data-name="Path 1878" d="M453.552,255.6l-6.028-3.481c-.484-.281-.424-.768.136-1.09l5.977-3.449a2.1,2.1,0,0,1,1.889-.077l6.028,3.481c.484.278.424.766-.136,1.09l-5.977,3.444a2.1,2.1,0,0,1-1.889.082Z" transform="translate(-334.722 -201.2)" fill="#173d7a"/>
            <path id="Path_1879" data-name="Path 1879" d="M461.26,260.051l-6.028-3.481c-.484-.279-.424-.768.136-1.09l5.977-3.449a2.1,2.1,0,0,1,1.889-.079l6.028,3.481c.483.279.424.768-.136,1.091l-5.977,3.444A2.1,2.1,0,0,1,461.26,260.051Z" transform="translate(-333.12 -200.275)" fill="#173d7a"/>
            <path id="Path_1880" data-name="Path 1880" d="M468.968,264.5l-6.028-3.481c-.485-.279-.424-.767.136-1.091l5.977-3.444a2.1,2.1,0,0,1,1.889-.078l6.028,3.481c.483.279.423.768-.136,1.09l-5.977,3.449a2.1,2.1,0,0,1-1.889.074Z" transform="translate(-331.518 -199.35)" fill="#173d7a"/>
            <path id="Path_1881" data-name="Path 1881" d="M476.675,268.95l-6.027-3.48c-.485-.279-.424-.767.134-1.091l5.977-3.444a2.1,2.1,0,0,1,1.889-.08l6.027,3.481c.484.281.423.768-.134,1.09l-5.977,3.449a2.092,2.092,0,0,1-1.889.075Z" transform="translate(-329.915 -198.425)" fill="#173d7a"/>
            <path id="Path_1882" data-name="Path 1882" d="M484.381,273.4l-6.028-3.481c-.484-.279-.424-.767.136-1.091l5.977-3.444a2.1,2.1,0,0,1,1.889-.079l6.028,3.482c.484.281.423.768-.136,1.091l-5.977,3.444a2.1,2.1,0,0,1-1.889.078Z" transform="translate(-328.313 -197.5)" fill="#173d7a"/>
            <path id="Path_1883" data-name="Path 1883" d="M380.673,239.515l-17.755-10.253c-.483-.281-.422-.768.137-1.092l5.977-3.444a2.1,2.1,0,0,1,1.888-.078L388.675,234.9c.484.279.422.767-.137,1.091l-5.977,3.444A2.1,2.1,0,0,1,380.673,239.515Z" transform="translate(-352.309 -205.952)" fill="#173d7a"/>
            <path id="Path_1884" data-name="Path 1884" d="M475.365,294.185,457.61,283.934c-.484-.279-.424-.767.136-1.09l5.977-3.444a2.1,2.1,0,0,1,1.889-.08l17.755,10.251c.484.281.423.768-.136,1.091l-5.977,3.444a2.1,2.1,0,0,1-1.889.079Z" transform="translate(-332.626 -194.587)" fill="#173d7a"/>
            <path id="Path_1885" data-name="Path 1885" d="M442.522,285.167l-6.029-3.482c-.483-.278-.422-.767.137-1.09l7.115-4.109a2.1,2.1,0,0,1,1.889-.077l6.028,3.481c.483.279.424.766-.135,1.09l-7.117,4.109A2.1,2.1,0,0,1,442.522,285.167Z" transform="translate(-337.015 -195.191)" fill="#173d7a"/>
            <path id="Path_1886" data-name="Path 1886" d="M387.171,253.208l-9.642-5.566c-.484-.279-.423-.768.136-1.09l7.117-4.11a2.1,2.1,0,0,1,1.888-.078l9.64,5.571c.485.279.424.767-.134,1.091l-7.115,4.108A2.1,2.1,0,0,1,387.171,253.208Z" transform="translate(-349.272 -202.269)" fill="#173d7a"/>
            <path id="Path_1887" data-name="Path 1887" d="M435.718,281.241l-9.642-5.571c-.484-.278-.422-.766.137-1.09l7.114-4.108a2.1,2.1,0,0,1,1.889-.079l9.642,5.571c.484.279.424.767-.136,1.09l-7.117,4.108a2.1,2.1,0,0,1-1.887.079Z" transform="translate(-339.18 -196.442)" fill="#173d7a"/>
            <path id="Path_1888" data-name="Path 1888" d="M398.292,259.629l-9.642-5.566c-.485-.279-.424-.768.136-1.091l7.115-4.11a2.1,2.1,0,0,1,1.888-.077l9.643,5.566c.483.281.422.768-.137,1.091l-7.115,4.108A2.092,2.092,0,0,1,398.292,259.629Z" transform="translate(-346.961 -200.933)" fill="#173d7a"/>
            <path id="Path_1889" data-name="Path 1889" d="M397.788,248.785l41.918,24.2a.574.574,0,0,1,0,1.088l-7.257,4.189a2.077,2.077,0,0,1-1.883,0l-41.919-24.2Z" transform="translate(-346.894 -200.894)" fill="#173d7a"/>
            <path id="Path_1890" data-name="Path 1890" d="M463.8,291.722l6.715,3.878c.4.23.346.63-.111.893l-2.911,1.682a1.722,1.722,0,0,1-1.547.064l-6.716-3.878c-.4-.23-.346-.629.111-.892l2.911-1.682a1.722,1.722,0,0,1,1.548-.065Z" transform="translate(-332.276 -192.001)" fill="#173d7a"/>
            <path id="Path_1891" data-name="Path 1891" d="M456.032,287.236l6.716,3.878c.4.228.346.628-.111.892l-2.911,1.682a1.722,1.722,0,0,1-1.547.064l-6.716-3.878c-.4-.23-.347-.629.111-.893l2.911-1.681a1.722,1.722,0,0,1,1.547-.064Z" transform="translate(-333.891 -192.934)" fill="#173d7a"/>
            <path id="Path_1892" data-name="Path 1892" d="M448.323,282.786l6.716,3.878c.4.228.346.628-.111.892l-2.911,1.682a1.722,1.722,0,0,1-1.547.064l-6.716-3.878c-.4-.23-.346-.629.111-.893l2.911-1.682a1.722,1.722,0,0,1,1.547-.063Z" transform="translate(-335.494 -193.859)" fill="#173d7a"/>
            <path id="Path_1893" data-name="Path 1893" d="M460.287,284.778,467,288.656c.4.228.346.629-.112.893l-2.909,1.682a1.722,1.722,0,0,1-1.55.063l-6.714-3.878c-.4-.228-.346-.628.111-.893l2.911-1.679a1.714,1.714,0,0,1,1.546-.066Z" transform="translate(-333.006 -193.444)" fill="#173d7a"/>
          </g>
        </g>
        <g id="Group_355" data-name="Group 355" transform="translate(169.644 83.626)">
          <g id="Group_354" data-name="Group 354" transform="translate(0 0)">
            <path id="Path_1894" data-name="Path 1894" d="M468.893,176.214l-5.767-3.33a2.378,2.378,0,0,1-.99-1.859h0c-.012-.718.412-1.05.948-.742l5.765,3.328a2.385,2.385,0,0,1,.991,1.861h0C469.852,176.19,469.427,176.522,468.893,176.214Z" transform="translate(-448.402 -162.239)" fill="#d4ecff"/>
            <path id="Path_1895" data-name="Path 1895" d="M480.735,183.051l-8.5-4.908a2.384,2.384,0,0,1-.991-1.86h0c-.011-.718.413-1.049.948-.743l8.5,4.91a2.383,2.383,0,0,1,.991,1.86h0C481.693,183.028,481.27,183.36,480.735,183.051Z" transform="translate(-446.509 -161.146)" fill="#d4ecff"/>
            <path id="Path_1896" data-name="Path 1896" d="M466.528,201.671l-5.766-3.33a2.381,2.381,0,0,1-.991-1.859h0c-.011-.718.413-1.05.949-.742l5.765,3.329a2.379,2.379,0,0,1,.99,1.86h0C467.487,201.646,467.063,201.981,466.528,201.671Z" transform="translate(-448.893 -156.947)" fill="#d4ecff"/>
            <path id="Path_1897" data-name="Path 1897" d="M477.135,207.8l-8.5-4.908a2.378,2.378,0,0,1-.99-1.86h0c-.012-.718.412-1.049.948-.742l8.5,4.909a2.382,2.382,0,0,1,.99,1.86h0C478.094,207.771,477.67,208.1,477.135,207.8Z" transform="translate(-447.258 -156.002)" fill="#d4ecff"/>
            <path id="Path_1898" data-name="Path 1898" d="M455.431,172.912l-3.6-2.08a2.386,2.386,0,0,1-.99-1.86h0c-.011-.718.413-1.05.948-.742l3.6,2.08a2.376,2.376,0,0,1,.991,1.86h0C456.39,172.888,455.966,173.22,455.431,172.912Z" transform="translate(-450.751 -162.666)" fill="#d4ecff"/>
            <path id="Path_1899" data-name="Path 1899" d="M466.888,184l-11.005-6.353a2.376,2.376,0,0,1-.99-1.86h0c-.012-.718.41-1.049.947-.742l11.005,6.353a2.377,2.377,0,0,1,.99,1.86h0C467.847,183.974,467.424,184.306,466.888,184Z" transform="translate(-449.908 -161.249)" fill="#d4ecff"/>
            <path id="Path_1900" data-name="Path 1900" d="M459.631,188.749l-3.6-2.082a2.374,2.374,0,0,1-.99-1.859h0c-.012-.718.412-1.05.947-.742l3.6,2.079a2.383,2.383,0,0,1,.988,1.861h0C460.59,188.724,460.166,189.056,459.631,188.749Z" transform="translate(-449.877 -159.374)" fill="#d4ecff"/>
            <path id="Path_1901" data-name="Path 1901" d="M480.846,218.877l-9.623-5.555a2.378,2.378,0,0,1-.991-1.859h0c-.011-.718.413-1.05.947-.742l9.623,5.555a2.38,2.38,0,0,1,.991,1.86h0C481.805,218.855,481.382,219.187,480.846,218.877Z" transform="translate(-446.718 -153.833)" fill="#d4ecff"/>
            <path id="Path_1902" data-name="Path 1902" d="M458.487,197.028l-2.312-1.335a2.385,2.385,0,0,1-.991-1.86h0c-.011-.718.413-1.05.949-.742l2.312,1.335a2.385,2.385,0,0,1,.99,1.86h0C459.448,197,459.022,197.338,458.487,197.028Z" transform="translate(-449.847 -157.498)" fill="#d4ecff"/>
            <path id="Path_1903" data-name="Path 1903" d="M459.193,206.376l-2.871-1.657a2.385,2.385,0,0,1-.99-1.86h0c-.012-.718.413-1.05.947-.742l2.873,1.658a2.381,2.381,0,0,1,.99,1.859h0C460.152,206.356,459.728,206.685,459.193,206.376Z" transform="translate(-449.816 -155.621)" fill="#d4ecff"/>
            <path id="Path_1904" data-name="Path 1904" d="M469.249,212.182l-7.57-4.37a2.385,2.385,0,0,1-.991-1.86h0c-.011-.718.413-1.049.949-.742l7.569,4.371a2.372,2.372,0,0,1,.99,1.86h0C470.208,212.159,469.785,212.495,469.249,212.182Z" transform="translate(-448.703 -154.978)" fill="#d4ecff"/>
            <path id="Path_1905" data-name="Path 1905" d="M461.836,212.375l-5.442-3.14a2.381,2.381,0,0,1-.991-1.859h0c-.012-.718.413-1.052.947-.743l5.443,3.14a2.38,2.38,0,0,1,.992,1.86h0C462.795,212.351,462.373,212.679,461.836,212.375Z" transform="translate(-449.801 -154.683)" fill="#d4ecff"/>
            <path id="Path_1906" data-name="Path 1906" d="M486.632,222.237l-3.5-2.018a2.382,2.382,0,0,1-.991-1.86h0c-.011-.718.413-1.049.948-.741l3.5,2.017a2.382,2.382,0,0,1,.991,1.86h0C487.59,222.212,487.164,222.546,486.632,222.237Z" transform="translate(-444.243 -152.399)" fill="#d4ecff"/>
            <path id="Path_1907" data-name="Path 1907" d="M471.76,195.75l-9.623-5.555a2.381,2.381,0,0,1-.991-1.86h0c-.011-.717.413-1.049.948-.742l9.623,5.555a2.376,2.376,0,0,1,.991,1.86h0C472.718,195.728,472.295,196.06,471.76,195.75Z" transform="translate(-448.607 -158.64)" fill="#d4ecff"/>
            <path id="Path_1908" data-name="Path 1908" d="M472.728,191.837l-16.768-9.681a2.379,2.379,0,0,1-.99-1.86h0c-.012-.717.413-1.05.947-.742l16.768,9.682a2.381,2.381,0,0,1,.99,1.859h0C473.683,191.814,473.257,192.146,472.728,191.837Z" transform="translate(-449.893 -160.311)" fill="#d4ecff"/>
            <path id="Path_1909" data-name="Path 1909" d="M465.723,196.734,456.1,191.18a2.382,2.382,0,0,1-.991-1.859h0c-.011-.718.413-1.05.948-.742l9.623,5.554a2.382,2.382,0,0,1,.991,1.86h0C466.682,196.713,466.258,197.044,465.723,196.734Z" transform="translate(-449.863 -158.436)" fill="#d4ecff"/>
            <path id="Path_1910" data-name="Path 1910" d="M476.747,198.629l-3.5-2.018a2.371,2.371,0,0,1-.99-1.859h0c-.012-.717.412-1.05.947-.742l3.495,2.018a2.38,2.38,0,0,1,.992,1.86h0C477.706,198.607,477.282,198.938,476.747,198.629Z" transform="translate(-446.297 -157.307)" fill="#d4ecff"/>
            <path id="Path_1911" data-name="Path 1911" d="M504.3,196.658,483.6,184.7a2.382,2.382,0,0,1-.991-1.86h0c-.012-.718.413-1.05.948-.742l20.7,11.953a2.379,2.379,0,0,1,.99,1.86h0C505.262,196.636,504.838,196.968,504.3,196.658Z" transform="translate(-444.146 -159.781)" fill="#d4ecff"/>
            <path id="Path_1912" data-name="Path 1912" d="M467.813,206.882,456.249,200.2a2.386,2.386,0,0,1-.99-1.86h0c-.012-.718.413-1.049.947-.742l11.565,6.678a2.383,2.383,0,0,1,.99,1.86h0C468.773,206.86,468.349,207.19,467.813,206.882Z" transform="translate(-449.831 -156.559)" fill="#d4ecff"/>
            <path id="Path_1913" data-name="Path 1913" d="M460.258,171.229l-8.5-4.909a2.376,2.376,0,0,1-.991-1.859h0c-.011-.718.412-1.05.948-.743l8.5,4.91a2.383,2.383,0,0,1,.99,1.86h0C461.217,171.205,460.793,171.538,460.258,171.229Z" transform="translate(-450.766 -163.604)" fill="#d4ecff"/>
            <path id="Path_1914" data-name="Path 1914" d="M462.339,217.13l-9.848-5.684a2.387,2.387,0,0,1-.99-1.86h0c-.011-.718.413-1.053.948-.743l9.848,5.686a2.386,2.386,0,0,1,.99,1.86h0C463.294,217.107,462.869,217.438,462.339,217.13Z" transform="translate(-450.613 -154.223)" fill="#d4ecff"/>
          </g>
        </g>
      </g>
      <g id="Group_363" data-name="Group 363" transform="translate(251.807 43.388)">
        <g id="Group_357" data-name="Group 357" transform="translate(0 0)">
          <path id="Path_1915" data-name="Path 1915" d="M252.077,228.736,302.8,199.206c10.047-5.8,19.523-6.718,26.682-2.588s11.1,12.8,11.1,24.4v3.716c-.359.243-.734.479-1.114.715v-4.431c0-11.185-3.748-19.506-10.535-23.43s-15.875-3.006-25.563,2.587L252.646,229.7a.559.559,0,1,1-.559-.968Z" transform="translate(-251.807 -12.065)" fill="#d4ecff"/>
          <path id="Path_1916" data-name="Path 1916" d="M387.309,224.882v-114.3c0-22.878,16.119-50.8,35.935-62.237,9.7-5.6,18.856-6.491,25.771-2.5s10.721,12.358,10.721,23.566v7.971L458.622,78.5V69.414c0-10.787-3.61-18.814-10.163-22.6s-15.308-2.9-24.654,2.5c-19.505,11.261-35.373,38.747-35.373,61.269v114.3c0,18.964-11.158,41.407-26.289,54.912v-1.5C376.671,264.94,387.309,243.25,387.309,224.882Z" transform="translate(-228.871 -43.388)" fill="#d4ecff"/>
          <path id="Path_1917" data-name="Path 1917" d="M443.131,76.393h0a44.89,44.89,0,0,1,22.893-11.211c14.153-2.164,20,14.384,20,14.384s1.637,8.6,1.578,13.685-.422,23.566-.422,23.566L442.322,90.977V90.97a.554.554,0,0,1-.3-.492V77.359C442.386,76.987,442.76,76.765,443.131,76.393Z" transform="translate(-212.266 -38.897)" fill="#173d7a"/>
        </g>
        <g id="Group_361" data-name="Group 361" transform="translate(0.206 0.208)">
          <g id="Group_359" data-name="Group 359" transform="translate(0 0)">
            <path id="Path_1918" data-name="Path 1918" d="M491.56,70.327,449.035,45.813l.167.608c-6.554-4.233-16.458-4.69-29.709,5.026-26.317,19.3-29.478,46.166-30.819,51.2s-.79,36.933-.79,36.933-.088,76.933-.175,85.88-2.694,18.987-7.721,29.827S362.05,279.28,362.05,279.28v15.659c2.06,16.93,9.254,20.878,19.956,21.843,8.638.778,17.841-5.457,25.194-12.257-.271.284-.446.463-.446.463v15.665c2.061,16.931,9.255,20.878,19.956,21.843s22.277-8.838,30.119-17.136,14.454-20.969,18.132-32.4,2.456-26.2,2.456-26.2.087-84.1.175-100.678.614-13.685,6.053-30.353S503.5,107.4,503.5,107.4l34.595-10.3Z" transform="translate(-229.095 -43.559)" fill="#d4ecff"/>
            <path id="Path_1919" data-name="Path 1919" d="M425.36,305.244c-.582-.793-8.16-5.875-10.089-14.822a69.821,69.821,0,0,1-.965-12.544s.03-4.209.132-8.035c.086-.074.173-.143.256-.219v-1.5c-.069.064-.141.122-.209.184.027-.864.061-1.675.1-2.361.219-3.978-2.719-12.46-2.719-12.46s-4.168-11.359-16.581-11.8c-11.02-.389-22.621,7.54-25.089,9.325v-5.13c-.164.111-.34.219-.506.327.012-.689.029-1.39.048-2.08.084-.075.171-.143.256-.219v-1.5c-.069.064-.141.122-.21.183.029-.862.062-1.672.1-2.361.218-3.978-2.72-12.46-2.72-12.46s-4.167-11.36-16.581-11.8c-11.02-.39-22.621,7.54-25.089,9.325v-5.13c-.359.243-.734.479-1.114.715v8.987c0,10.88,3.624,19.058,10.208,23.12l.027.029.23.133c.062.037.12.08.181.114.04.024.083.038.124.061l45.515,26.2c-.011-.016-.042-.043-.058-.062Z" transform="translate(-236.927 -7.719)" fill="#173d7a"/>
            <g id="Group_358" data-name="Group 358" transform="translate(0 182.277)">
              <path id="Path_1920" data-name="Path 1920" d="M374.145,222.245s-.34-.176-.941-.42c-.186-.088-.364-.193-.551-.277L329.44,196.536a23.191,23.191,0,0,0-17.543-.658c-9.6,3.516-59.921,33.7-59.921,33.7l44.953,25.9h.007a.687.687,0,0,0,.121.032L341.633,281.2s25.223-15.624,42.668-25.7l1.114-.645c7.133-4.1,12.8-7.164,14.576-7.635,10.759-2.851,18.243.622,20.191,1.691Z" transform="translate(-251.976 -194.466)" fill="#d4ecff"/>
              <path id="Path_1921" data-name="Path 1921" d="M391.238,239.528l.521.3S391.569,239.71,391.238,239.528Z" transform="translate(-223.027 -185.099)" fill="#d4ecff"/>
            </g>
          </g>
          <path id="Path_1922" data-name="Path 1922" d="M480.143,97.677h0a44.9,44.9,0,0,1,22.893-11.209c14.153-2.165,20,14.384,20,14.384s1.637,8.6,1.577,13.685-.422,23.564-.422,23.564L479.33,112.259v-.007a.554.554,0,0,1-.3-.491V98.646C479.4,98.272,479.772,98.051,480.143,97.677Z" transform="translate(-204.778 -34.68)" fill="#173d7a"/>
          <g id="Group_360" data-name="Group 360" transform="translate(89.349 51.358)">
            <path id="Path_1923" data-name="Path 1923" d="M433.772,334.282c4.946,0,10.423-1.651,16.087-4.923,19.67-11.356,35.673-39.075,35.673-61.786v-114.3c0-22.524,15.869-50.008,35.376-61.271,9.345-5.392,18.1-6.281,24.653-2.5s10.164,11.809,10.164,22.6v25.558a.558.558,0,1,0,1.114,0V112.1c0-11.2-3.807-19.575-10.722-23.566s-16.067-3.1-25.771,2.5c-19.814,11.439-35.935,39.359-35.935,62.238v114.3c0,22.357-15.752,49.636-35.114,60.819-9.273,5.354-17.962,6.236-24.469,2.479s-10.085-11.721-10.085-22.428V295.031c0-11.6-3.943-20.266-11.1-24.4s-16.631-3.213-26.681,2.589l-50.717,29.532a.559.559,0,1,0,.559.967l50.717-29.532c9.687-5.592,18.766-6.511,25.563-2.587s10.535,12.245,10.535,23.429v13.412c0,11.125,3.781,19.433,10.646,23.4A18.769,18.769,0,0,0,433.772,334.282Z" transform="translate(-325.945 -86.078)" fill="#396caa"/>
          </g>
        </g>
        <path id="Path_1924" data-name="Path 1924" d="M419.629,166.255l-7.5-4.33a3.1,3.1,0,0,1-1.288-2.418h0c-.014-.934.536-1.367,1.232-.964l7.5,4.329a3.093,3.093,0,0,1,1.286,2.417h0C420.876,166.224,420.322,166.656,419.629,166.255Z" transform="translate(-218.745 -19.481)" fill="#5793ce"/>
        <path id="Path_1925" data-name="Path 1925" d="M433.422,174.218l-11.057-6.382a3.1,3.1,0,0,1-1.286-2.417h0c-.016-.935.536-1.367,1.233-.965l11.056,6.382a3.094,3.094,0,0,1,1.286,2.418h0C434.669,174.189,434.118,174.62,433.422,174.218Z" transform="translate(-216.618 -18.252)" fill="#5793ce"/>
        <path id="Path_1926" data-name="Path 1926" d="M420.1,143.274l-14.31-8.262a3.1,3.1,0,0,1-1.288-2.419h0c-.014-.934.536-1.367,1.232-.964l14.311,8.263a3.093,3.093,0,0,1,1.288,2.418h0C421.345,143.245,420.794,143.676,420.1,143.274Z" transform="translate(-220.065 -25.076)" fill="#5793ce"/>
        <path id="Path_1927" data-name="Path 1927" d="M410.662,149.453l-4.684-2.7a3.1,3.1,0,0,1-1.287-2.419h0c-.014-.934.538-1.364,1.233-.964l4.684,2.7a3.1,3.1,0,0,1,1.286,2.418h0C411.91,149.422,411.357,149.853,410.662,149.453Z" transform="translate(-220.025 -22.636)" fill="#5793ce"/>
        <path id="Path_1928" data-name="Path 1928" d="M409.174,160.22l-3.007-1.737a3.1,3.1,0,0,1-1.286-2.418h0c-.016-.934.536-1.367,1.232-.965l3.007,1.737a3.094,3.094,0,0,1,1.286,2.418h0C410.421,160.188,409.871,160.62,409.174,160.22Z" transform="translate(-219.985 -20.196)" fill="#5793ce"/>
        <path id="Path_1929" data-name="Path 1929" d="M426.434,158.558l-12.511-7.223a3.094,3.094,0,0,1-1.286-2.418h0c-.016-.935.536-1.367,1.232-.965l12.51,7.224a3.092,3.092,0,0,1,1.287,2.418h0C427.68,158.527,427.13,158.959,426.434,158.558Z" transform="translate(-218.374 -21.682)" fill="#5793ce"/>
        <path id="Path_1930" data-name="Path 1930" d="M427.687,153.468l-21.8-12.588a3.09,3.09,0,0,1-1.286-2.418h0c-.016-.934.536-1.365,1.231-.964l21.8,12.588a3.094,3.094,0,0,1,1.286,2.418h0C428.934,153.438,428.382,153.87,427.687,153.468Z" transform="translate(-220.044 -23.856)" fill="#5793ce"/>
        <path id="Path_1931" data-name="Path 1931" d="M418.583,159.838l-12.508-7.222a3.1,3.1,0,0,1-1.288-2.419h0c-.016-.935.536-1.367,1.232-.964l12.51,7.222a3.1,3.1,0,0,1,1.286,2.418h0C419.83,159.807,419.278,160.243,418.583,159.838Z" transform="translate(-220.005 -21.416)" fill="#5793ce"/>
        <path id="Path_1932" data-name="Path 1932" d="M432.918,162.3l-4.546-2.625a3.1,3.1,0,0,1-1.286-2.418h0c-.014-.934.536-1.367,1.232-.965l4.545,2.625a3.1,3.1,0,0,1,1.288,2.418h0C434.165,162.272,433.614,162.7,432.918,162.3Z" transform="translate(-215.37 -19.949)" fill="#5793ce"/>
        <g id="Group_362" data-name="Group 362" transform="translate(177.954 88.619)">
          <path id="Path_1933" data-name="Path 1933" d="M422.7,133.153l-7.5-4.327a3.1,3.1,0,0,1-1.286-2.419h0c-.016-.935.536-1.367,1.231-.964l7.5,4.329a3.092,3.092,0,0,1,1.288,2.418h0C423.953,133.122,423.4,133.555,422.7,133.153Z" transform="translate(-396.06 -114.98)" fill="#5793ce"/>
          <path id="Path_1934" data-name="Path 1934" d="M438.1,142.043l-11.056-6.382a3.1,3.1,0,0,1-1.286-2.419h0c-.015-.934.536-1.364,1.231-.964l11.057,6.382a3.1,3.1,0,0,1,1.286,2.418h0C439.351,142.015,438.8,142.445,438.1,142.043Z" transform="translate(-393.598 -113.559)" fill="#5793ce"/>
          <path id="Path_1935" data-name="Path 1935" d="M419.629,166.255l-7.5-4.33a3.1,3.1,0,0,1-1.288-2.418h0c-.014-.934.536-1.367,1.232-.964l7.5,4.329a3.093,3.093,0,0,1,1.286,2.417h0C420.876,166.224,420.322,166.656,419.629,166.255Z" transform="translate(-396.699 -108.099)" fill="#5793ce"/>
          <path id="Path_1936" data-name="Path 1936" d="M433.422,174.218l-11.057-6.382a3.1,3.1,0,0,1-1.286-2.417h0c-.016-.935.536-1.367,1.233-.965l11.056,6.382a3.094,3.094,0,0,1,1.286,2.418h0C434.669,174.189,434.118,174.62,433.422,174.218Z" transform="translate(-394.572 -106.87)" fill="#5793ce"/>
          <path id="Path_1937" data-name="Path 1937" d="M405.2,128.859l-4.684-2.7a3.1,3.1,0,0,1-1.287-2.418h0c-.014-.935.538-1.367,1.233-.964l4.684,2.7a3.1,3.1,0,0,1,1.286,2.419h0C406.448,128.83,405.9,129.26,405.2,128.859Z" transform="translate(-399.114 -115.535)" fill="#5793ce"/>
          <path id="Path_1938" data-name="Path 1938" d="M420.1,143.274l-14.31-8.262a3.1,3.1,0,0,1-1.288-2.419h0c-.014-.934.536-1.367,1.232-.964l14.311,8.263a3.093,3.093,0,0,1,1.288,2.418h0C421.345,143.245,420.794,143.676,420.1,143.274Z" transform="translate(-398.018 -113.694)" fill="#5793ce"/>
          <path id="Path_1939" data-name="Path 1939" d="M410.662,149.453l-4.684-2.7a3.1,3.1,0,0,1-1.287-2.419h0c-.014-.934.538-1.364,1.233-.964l4.684,2.7a3.1,3.1,0,0,1,1.286,2.418h0C411.91,149.422,411.357,149.853,410.662,149.453Z" transform="translate(-397.979 -111.255)" fill="#5793ce"/>
          <path id="Path_1940" data-name="Path 1940" d="M438.249,188.631l-12.508-7.222a3.1,3.1,0,0,1-1.288-2.419h0c-.016-.934.536-1.364,1.232-.964l12.51,7.223a3.093,3.093,0,0,1,1.286,2.418h0C439.493,188.6,438.944,189.033,438.249,188.631Z" transform="translate(-393.871 -104.049)" fill="#5793ce"/>
          <path id="Path_1941" data-name="Path 1941" d="M409.174,160.22l-3.007-1.737a3.1,3.1,0,0,1-1.286-2.418h0c-.016-.934.536-1.367,1.232-.965l3.007,1.737a3.094,3.094,0,0,1,1.286,2.418h0C410.421,160.188,409.871,160.62,409.174,160.22Z" transform="translate(-397.939 -108.815)" fill="#5793ce"/>
          <path id="Path_1942" data-name="Path 1942" d="M410.091,172.373l-3.732-2.155a3.1,3.1,0,0,1-1.288-2.419h0c-.014-.934.538-1.365,1.232-.964l3.735,2.156a3.1,3.1,0,0,1,1.286,2.419h0C411.34,172.345,410.788,172.778,410.091,172.373Z" transform="translate(-397.9 -106.375)" fill="#5793ce"/>
          <path id="Path_1943" data-name="Path 1943" d="M423.169,179.925l-9.844-5.684a3.1,3.1,0,0,1-1.286-2.418h0c-.016-.935.536-1.367,1.232-.964l9.843,5.683a3.093,3.093,0,0,1,1.288,2.418h0C424.415,179.894,423.865,180.323,423.169,179.925Z" transform="translate(-396.451 -105.539)" fill="#5793ce"/>
          <path id="Path_1944" data-name="Path 1944" d="M413.53,180.174l-7.078-4.087a3.1,3.1,0,0,1-1.286-2.417h0c-.015-.935.536-1.367,1.232-.965l7.078,4.086a3.092,3.092,0,0,1,1.286,2.418h0C414.778,180.143,414.226,180.574,413.53,180.174Z" transform="translate(-397.879 -105.155)" fill="#5793ce"/>
          <path id="Path_1945" data-name="Path 1945" d="M426.434,158.558l-12.511-7.223a3.094,3.094,0,0,1-1.286-2.418h0c-.016-.935.536-1.367,1.232-.965l12.51,7.224a3.092,3.092,0,0,1,1.287,2.418h0C427.68,158.527,427.13,158.959,426.434,158.558Z" transform="translate(-396.327 -110.301)" fill="#5793ce"/>
          <path id="Path_1946" data-name="Path 1946" d="M427.687,153.468l-21.8-12.588a3.09,3.09,0,0,1-1.286-2.418h0c-.016-.934.536-1.365,1.231-.964l21.8,12.588a3.094,3.094,0,0,1,1.286,2.418h0C428.934,153.438,428.382,153.87,427.687,153.468Z" transform="translate(-397.998 -112.475)" fill="#5793ce"/>
          <path id="Path_1947" data-name="Path 1947" d="M418.583,159.838l-12.508-7.222a3.1,3.1,0,0,1-1.288-2.419h0c-.016-.935.536-1.367,1.232-.964l12.51,7.222a3.1,3.1,0,0,1,1.286,2.418h0C419.83,159.807,419.278,160.243,418.583,159.838Z" transform="translate(-397.958 -110.035)" fill="#5793ce"/>
          <path id="Path_1948" data-name="Path 1948" d="M432.918,162.3l-4.546-2.625a3.1,3.1,0,0,1-1.286-2.418h0c-.014-.934.536-1.367,1.232-.965l4.545,2.625a3.1,3.1,0,0,1,1.288,2.418h0C434.165,162.272,433.614,162.7,432.918,162.3Z" transform="translate(-393.323 -108.567)" fill="#5793ce"/>
          <path id="Path_1949" data-name="Path 1949" d="M421.3,173.035l-15.038-8.683a3.1,3.1,0,0,1-1.286-2.418h0c-.014-.934.536-1.367,1.232-.965l15.038,8.683a3.1,3.1,0,0,1,1.288,2.418h0C422.548,173,422,173.436,421.3,173.035Z" transform="translate(-397.919 -107.595)" fill="#5793ce"/>
          <path id="Path_1950" data-name="Path 1950" d="M411.476,126.67l-11.056-6.382a3.1,3.1,0,0,1-1.287-2.419h0c-.016-.935.536-1.367,1.231-.964l11.057,6.382a3.1,3.1,0,0,1,1.286,2.419h0C412.724,126.641,412.167,127.073,411.476,126.67Z" transform="translate(-399.134 -116.754)" fill="#5793ce"/>
          <path id="Path_1951" data-name="Path 1951" d="M414.181,186.358l-12.805-7.395a3.093,3.093,0,0,1-1.287-2.418h0c-.016-.934.535-1.365,1.231-.962l12.806,7.395a3.1,3.1,0,0,1,1.286,2.418h0C415.423,186.328,414.872,186.759,414.181,186.358Z" transform="translate(-398.936 -104.557)" fill="#5793ce"/>
        </g>
        <path id="Path_1952" data-name="Path 1952" d="M418.17,221.94l-7.5-4.329a3.1,3.1,0,0,1-1.287-2.419h0c-.014-.934.536-1.367,1.232-.964l7.493,4.331a3.1,3.1,0,0,1,1.288,2.418h0C419.417,221.908,418.866,222.341,418.17,221.94Z" transform="translate(-219.049 -7.906)" fill="#5793ce"/>
        <path id="Path_1953" data-name="Path 1953" d="M431.963,229.9l-11.057-6.382a3.1,3.1,0,0,1-1.286-2.419h0c-.016-.933.536-1.364,1.233-.964l11.055,6.382a3.1,3.1,0,0,1,1.286,2.419h0C433.21,229.874,432.659,230.3,431.963,229.9Z" transform="translate(-216.922 -6.677)" fill="#5793ce"/>
        <path id="Path_1954" data-name="Path 1954" d="M418.64,198.959,404.327,190.7a3.1,3.1,0,0,1-1.286-2.418h0c-.015-.934.536-1.367,1.232-.964l14.31,8.262a3.1,3.1,0,0,1,1.287,2.419h0C419.886,198.929,419.334,199.356,418.64,198.959Z" transform="translate(-220.367 -13.5)" fill="#5793ce"/>
        <path id="Path_1955" data-name="Path 1955" d="M409.2,205.138l-4.684-2.706a3.1,3.1,0,0,1-1.288-2.418h0c-.014-.934.538-1.364,1.233-.964l4.683,2.706a3.091,3.091,0,0,1,1.287,2.418h0C410.45,205.107,409.9,205.537,409.2,205.138Z" transform="translate(-220.328 -11.061)" fill="#5793ce"/>
        <path id="Path_1956" data-name="Path 1956" d="M407.716,215.9l-3.008-1.735a3.1,3.1,0,0,1-1.287-2.418h0c-.016-.935.536-1.367,1.231-.965l3.008,1.735a3.1,3.1,0,0,1,1.286,2.418h0C408.963,215.873,408.411,216.3,407.716,215.9Z" transform="translate(-220.288 -8.621)" fill="#5793ce"/>
        <path id="Path_1957" data-name="Path 1957" d="M424.977,214.238l-12.511-7.224a3.09,3.09,0,0,1-1.286-2.418h0c-.016-.934.536-1.367,1.231-.965l12.511,7.225a3.094,3.094,0,0,1,1.286,2.418h0C426.221,214.212,425.669,214.643,424.977,214.238Z" transform="translate(-218.676 -10.107)" fill="#5793ce"/>
        <path id="Path_1958" data-name="Path 1958" d="M426.227,209.153l-21.8-12.588a3.092,3.092,0,0,1-1.286-2.418h0c-.015-.934.536-1.367,1.231-.965l21.8,12.589a3.1,3.1,0,0,1,1.286,2.418h0C427.475,209.122,426.923,209.555,426.227,209.153Z" transform="translate(-220.348 -12.281)" fill="#5793ce"/>
        <path id="Path_1959" data-name="Path 1959" d="M417.124,215.523,404.617,208.3a3.088,3.088,0,0,1-1.287-2.418h0c-.016-.934.535-1.364,1.232-.962l12.51,7.222a3.1,3.1,0,0,1,1.286,2.418h0C418.371,215.491,417.819,215.924,417.124,215.523Z" transform="translate(-220.308 -9.841)" fill="#5793ce"/>
        <path id="Path_1960" data-name="Path 1960" d="M431.459,217.987l-4.546-2.625a3.1,3.1,0,0,1-1.286-2.419h0c-.016-.934.536-1.364,1.232-.964L431.4,214.6a3.1,3.1,0,0,1,1.288,2.418h0C432.706,217.956,432.154,218.384,431.459,217.987Z" transform="translate(-215.673 -8.373)" fill="#5793ce"/>
      </g>
      <g id="Group_369" data-name="Group 369" transform="translate(505.739 305.068)">
        <path id="Path_1961" data-name="Path 1961" d="M462.036,351.58l13.887-8.018,13.887,8.018L475.923,359.6Z" transform="translate(-462.036 -242.67)" fill="#d4ecff"/>
        <path id="Path_1962" data-name="Path 1962" d="M486.44,337.3l13.887-8.018,13.886,8.018-13.886,8.018Z" transform="translate(-456.963 -245.638)" fill="#d4ecff"/>
        <path id="Path_1963" data-name="Path 1963" d="M510.77,323.364l13.886-8.018,13.887,8.018-13.887,8.018Z" transform="translate(-451.905 -248.535)" fill="#d4ecff"/>
        <g id="Group_368" data-name="Group 368">
          <g id="Group_367" data-name="Group 367">
            <g id="Group_364" data-name="Group 364" transform="translate(29.477 40.888)">
              <path id="Path_1964" data-name="Path 1964" d="M500.327,344.661V301.9l-13.887-8.018v42.759Z" transform="translate(-486.44 -293.885)" fill="#8880f7"/>
              <path id="Path_1965" data-name="Path 1965" d="M497.937,301.9l13.886-8.018v42.759l-13.886,8.018Z" transform="translate(-484.05 -293.885)" fill="#8880f7"/>
              <path id="Path_1966" data-name="Path 1966" d="M500.327,344.661V301.9l-13.887-8.018v42.759Z" transform="translate(-486.44 -293.885)" fill="#8880f7"/>
            </g>
            <g id="Group_365" data-name="Group 365" transform="translate(0 68.822)">
              <path id="Path_1967" data-name="Path 1967" d="M475.923,355.719V331.667l-13.887-8.018V347.7Z" transform="translate(-462.036 -315.631)" fill="#8880f7"/>
              <path id="Path_1968" data-name="Path 1968" d="M473.533,331.667l13.887-8.018V347.7l-13.887,8.018Z" transform="translate(-459.646 -315.631)" fill="#8880f7"/>
              <path id="Path_1969" data-name="Path 1969" d="M462.036,325.029l13.887-8.018,13.887,8.018-13.887,8.018Z" transform="translate(-462.036 -317.011)" fill="#8880f7"/>
            </g>
            <g id="Group_366" data-name="Group 366" transform="translate(58.865)">
              <path id="Path_1970" data-name="Path 1970" d="M524.656,333.482V274.689l-13.886-8.018v58.795Z" transform="translate(-510.77 -258.653)" fill="#8a80f8"/>
              <path id="Path_1971" data-name="Path 1971" d="M522.267,274.689l13.887-8.018v58.795l-13.887,8.018Z" transform="translate(-508.381 -258.653)" fill="#8a80f8"/>
              <path id="Path_1972" data-name="Path 1972" d="M510.77,268.051l13.886-8.018,13.887,8.018-13.887,8.018Z" transform="translate(-510.77 -260.033)" fill="#8a80f8"/>
            </g>
          </g>
          <path id="Path_1973" data-name="Path 1973" d="M486.44,295.264l13.887-8.018,13.886,8.018-13.886,8.018Z" transform="translate(-456.963 -254.377)" fill="#8880f7"/>
        </g>
      </g>
      <g id="Group_375" data-name="Group 375" transform="translate(275.322 155.416)">
        <g id="Group_374" data-name="Group 374" transform="translate(0 0)">
          <g id="Group_371" data-name="Group 371" transform="translate(3.228)">
            <path id="Path_1974" data-name="Path 1974" d="M300.787,283.909s-4.287-2.162-6.919,1.057-6.4,10.818-6.512,15.952,4.064,4.788,6.548,3.573,9.743-11.745,10.183-13.807-.519-4.852-1.216-5.4S300.787,283.909,300.787,283.909Z" transform="translate(-271.159 -105.565)" fill="#5793ce"/>
            <path id="Path_1975" data-name="Path 1975" d="M300.646,283.113l.2,4.44a2.517,2.517,0,0,1-1.255,2.311,4.939,4.939,0,0,1-3.307.514c-3.228-.519-3.516-1.441-3.748-5.881S300.646,283.113,300.646,283.113Z" transform="translate(-270.083 -105.797)" fill="#d4ecff"/>
            <g id="Group_370" data-name="Group 370" transform="translate(0 78.792)">
              <path id="Path_1976" data-name="Path 1976" d="M287.8,276.84s-4.287-2.161-6.92,1.059-6.4,10.817-6.511,15.952,4.063,4.788,6.548,3.573,9.743-11.745,10.183-13.807-.519-4.852-1.216-5.4S287.8,276.84,287.8,276.84Z" transform="translate(-273.859 -185.826)" fill="#5793ce"/>
              <path id="Path_1977" data-name="Path 1977" d="M287.656,276.039l.2,4.441a2.517,2.517,0,0,1-1.255,2.31,4.934,4.934,0,0,1-3.306.515c-3.228-.52-3.517-1.44-3.748-5.881S287.656,276.039,287.656,276.039Z" transform="translate(-272.783 -186.058)" fill="#d4ecff"/>
              <path id="Path_1978" data-name="Path 1978" d="M327.068,209.815c-1.269-20.643-22.357,3.039-22.357,3.039L290.279,227l-13,14.277a12.81,12.81,0,0,0-3.228,10.291l5.257,40.031a3.934,3.934,0,0,0,3.945,3.42,13.315,13.315,0,0,0,1.948-.17,4.891,4.891,0,0,0,4.344-5.189l-.961-37.442,27.293-16.453S328.336,230.458,327.068,209.815Z" transform="translate(-273.946 -201.367)" fill="#171c3a"/>
            </g>
            <path id="Path_1979" data-name="Path 1979" d="M340.058,216.327c-1.269-20.644-22.357,3.039-22.357,3.039l-14.432,14.145-13,14.277a12.812,12.812,0,0,0-3.227,10.291l5.256,40.031a3.934,3.934,0,0,0,3.945,3.42,13.324,13.324,0,0,0,1.948-.171,4.888,4.888,0,0,0,4.344-5.187l-.96-37.442,27.292-16.454S341.326,236.973,340.058,216.327Z" transform="translate(-271.245 -121.222)" fill="#181c3a"/>
            <path id="Path_1980" data-name="Path 1980" d="M325.9,160.408c15.986,6.628,15.666,16.078,15.666,16.078s-3.131,34.644-2.061,57.784c.446,9.673-51.392,10.41-43.66-15.4,9.117-30.427,5.7-55.059,9.965-58.774S321.76,158.694,325.9,160.408Z" transform="translate(-269.559 -131.567)" fill="#8880f7"/>
            <path id="Path_1981" data-name="Path 1981" d="M327.62,168.376c-.837,3.247-5.089,4.958-9.5,3.821s-7.306-4.689-6.471-7.935,5.09-4.956,9.5-3.819S328.455,165.131,327.62,168.376Z" transform="translate(-266.139 -131.156)" fill="#ffc2b0"/>
            <path id="Path_1982" data-name="Path 1982" d="M320.95,173.44a11.591,11.591,0,0,1-2.89-.372,10.636,10.636,0,0,1-5.6-3.433,6.105,6.105,0,0,1-1.418-5.432c.939-3.647,5.617-5.612,10.434-4.37a10.636,10.636,0,0,1,5.6,3.433A6.106,6.106,0,0,1,328.5,168.7h0C327.742,171.6,324.62,173.44,320.95,173.44Zm-2.407-12.455c-2.969,0-5.451,1.381-6.023,3.6a4.629,4.629,0,0,0,1.121,4.083,9.112,9.112,0,0,0,4.8,2.919c3.989,1.028,7.837-.44,8.568-3.272h0a4.628,4.628,0,0,0-1.119-4.083,9.111,9.111,0,0,0-4.8-2.919,10.257,10.257,0,0,0-2.547-.327Z" transform="translate(-266.27 -131.287)" fill="#fff"/>
            <path id="Path_1983" data-name="Path 1983" d="M315.3,159.965a39.492,39.492,0,0,1-.139,5.707c-.087,1.592,5.489,3.08,6.931,1.639s.865-2.938,1.216-8.362S315.3,159.965,315.3,159.965Z" transform="translate(-265.377 -131.845)" fill="#ffc2b0"/>
            <path id="Path_1984" data-name="Path 1984" d="M323.3,158.575s-1.375,5.026-8.143,6.954l.1-4.567Z" transform="translate(-265.378 -131.471)" fill="#ea9c92"/>
            <path id="Path_1985" data-name="Path 1985" d="M329.626,149.593a12.306,12.306,0,1,1-14.992-8.834A12.306,12.306,0,0,1,329.626,149.593Z" transform="translate(-267.407 -135.256)" fill="#ffc2b0"/>
            <path id="Path_1986" data-name="Path 1986" d="M320.553,151.438s-6.776,2.9-11.468,2.938-3.658-3.895-3.658-3.895l13.926-2.013Z" transform="translate(-267.421 -133.572)" fill="#ea9c92"/>
            <path id="Path_1987" data-name="Path 1987" d="M308.608,154.767s5.9-2.505,11.08-1.461a5.434,5.434,0,0,1,3.129,1.86,1.848,1.848,0,0,0,.947.685c.918.208,2.421-3.6,4.2-3.689s2.976,1.178,1.512,3.52-.967,4.964-.295,5.34,7.815-5.093,1.519-17.572-22.3-5.757-24.789-3.228c0,0-2.623,2.285-4.754.251C301.159,140.474,298.773,158.378,308.608,154.767Z" transform="translate(-268.342 -136.136)" fill="#181c3a"/>
            <path id="Path_1988" data-name="Path 1988" d="M329.656,195.2v9.362a3.812,3.812,0,0,1-1.244,2.818L309.182,224.91l2.184,3.343,25.4-18.419a5.16,5.16,0,0,0,2.1-3.638l1.716-16.327Z" transform="translate(-266.622 -124.967)" fill="#ffc2b0"/>
            <path id="Path_1989" data-name="Path 1989" d="M333.989,169.448s5.835,8.775,8.009,31.871c0,0-9.966,3.222-15.622,1.393S333.989,169.448,333.989,169.448Z" transform="translate(-263.339 -129.211)" fill="#8880f7"/>
            <path id="Path_1990" data-name="Path 1990" d="M325.667,178.633s-2.284,12.225-2.413,17.969a3.666,3.666,0,0,0,2.413,3.545h0Z" transform="translate(-263.697 -127.302)" fill="#396caa"/>
          </g>
          <g id="Group_372" data-name="Group 372" transform="translate(3.068 92.956)">
            <path id="Path_1991" data-name="Path 1991" d="M330.952,231.839l-4.249-.56-27.44-15.841a3.814,3.814,0,0,0-3.432.141L276.389,226.8l-2.57-.339v2.56h0a1,1,0,0,0,.59.9l31.1,17.953a3.814,3.814,0,0,0,3.432-.143l21.171-12.22a1.386,1.386,0,0,0,.839-1.155h0Z" transform="translate(-273.813 -212.679)" fill="#5793ce"/>
            <path id="Path_1992" data-name="Path 1992" d="M310.338,220.863l-1.951-1.125H286.955l-10.565,6.1-2.57-.339v2.56h0a1,1,0,0,0,.59.9l31.1,17.953a3.221,3.221,0,0,0,1.771.332Z" transform="translate(-273.813 -211.713)" fill="#396caa"/>
            <path id="Path_1993" data-name="Path 1993" d="M274.961,224.655l-1.141-.151v2.56h0a1,1,0,0,0,.59.9l.548.316Z" transform="translate(-273.813 -210.722)" fill="#5793ce"/>
            <path id="Path_1994" data-name="Path 1994" d="M300.313,243.133a3.979,3.979,0,0,0,2.915-.182V238.6h-2.915Z" transform="translate(-268.306 -207.792)" fill="#fff"/>
            <path id="Path_1995" data-name="Path 1995" d="M305.506,245.732l-31.1-17.953c-.879-.507-.77-1.395.247-1.982l21.171-12.22a3.818,3.818,0,0,1,3.432-.143l31.1,17.953c.879.506.771,1.395-.245,1.982L308.94,245.59a3.817,3.817,0,0,1-3.434.143Z" transform="translate(-273.814 -213.095)" fill="#fff"/>
            <path id="Path_1996" data-name="Path 1996" d="M304.154,241.882,278.3,226.955c-.732-.422-.639-1.161.2-1.647l11.345-6.382a3.17,3.17,0,0,1,2.855-.119l25.855,14.928c.73.422.639,1.16-.2,1.647l-11.345,6.382a3.172,3.172,0,0,1-2.855.118Z" transform="translate(-272.985 -211.966)" fill="#d4ecff"/>
          </g>
          <path id="Path_1997" data-name="Path 1997" d="M293.125,213.192l-.323,2.15a15.857,15.857,0,0,0,.14,5.5l.383,1.89a2.661,2.661,0,0,0,2.127,2.09h0a1.468,1.468,0,0,0,1.722-1.28l.514-4.588s1.173,1.539,1.739,1.539-.634-4.594-1.915-7.192S293.125,213.192,293.125,213.192Z" transform="translate(-266.835 -120.342)" fill="#ffc2b0"/>
          <path id="Path_1998" data-name="Path 1998" d="M303.928,185.889l-3.336,6.6a12.966,12.966,0,0,0-1.367,5.012l-1.449,22.59-4.389-.1L291.4,194.627a9.294,9.294,0,0,1,.113-2.344l2.275-12.865Z" transform="translate(-267.097 -127.138)" fill="#ffc2b0"/>
          <g id="Group_373" data-name="Group 373" transform="translate(0 79.499)">
            <path id="Path_1999" data-name="Path 1999" d="M304.89,249.772l-2.606-3.4-27.418-15.876a3.814,3.814,0,0,1-1.589-3.046L273.3,205l-1.576-2.058,1.481-.859h0a1,1,0,0,1,1.075.062l31.072,17.992a3.814,3.814,0,0,1,1.589,3.039l-.026,24.447a1.391,1.391,0,0,1-.581,1.3h0Z" transform="translate(-271.181 -201.952)" fill="#173d7a"/>
            <path id="Path_2000" data-name="Path 2000" d="M285.929,236.9l-1.947-1.128L273.288,217.2,273.3,205l-1.576-2.058,1.481-.859h0a1,1,0,0,1,1.075.062l31.072,17.992a3.2,3.2,0,0,1,1.172,1.369Z" transform="translate(-271.181 -201.952)" fill="#396caa"/>
            <path id="Path_2001" data-name="Path 2001" d="M272.422,203.854l-.7-.912,1.481-.859h0a1,1,0,0,1,1.075.062l.547.316Z" transform="translate(-271.181 -201.952)" fill="#5793ce"/>
            <path id="Path_2002" data-name="Path 2002" d="M300.35,217.174a3.976,3.976,0,0,1,1.3,2.618l-3.039,1.753-1.456-2.532Z" transform="translate(-265.893 -198.788)" fill="#274f89"/>
            <path id="Path_2003" data-name="Path 2003" d="M303.967,220.848l-31.073-17.992c-.878-.507-1.592.03-1.594,1.2l-.025,24.448a3.816,3.816,0,0,0,1.588,3.045l31.073,17.992c.879.506,1.593-.03,1.594-1.2l.026-24.446A3.816,3.816,0,0,0,303.967,220.848Z" transform="translate(-271.274 -201.805)" fill="#5793ce"/>
          </g>
          <path id="Path_2004" data-name="Path 2004" d="M312.753,222.22l-.5,1.032a6.928,6.928,0,0,1-2.6,2.88l-3.088,1.9a3.077,3.077,0,0,1-3.15.073l-.1-.063a1.857,1.857,0,0,1-.262-2.855l3.225-3.316s-1.812,1.389-2.321.83c-.372-.41,1.758-2.41,3.392-2.475a6.469,6.469,0,0,0,3.218-1.35Z" transform="translate(-264.781 -118.935)" fill="#ffc2b0"/>
          <path id="Path_2005" data-name="Path 2005" d="M307.076,159.719s-11.826,12.865-16.595,24.668a24.14,24.14,0,0,0,13.94,10.143C314.32,197.389,307.076,159.719,307.076,159.719Z" transform="translate(-267.282 -131.233)" fill="#8880f7"/>
          <path id="Path_2006" data-name="Path 2006" d="M300.626,191.093l1.917-18.513-4.516,17.342a25.594,25.594,0,0,0,2.6,1.171Z" transform="translate(-265.713 -128.559)" fill="#396caa"/>
          <path id="Path_2007" data-name="Path 2007" d="M312.1,157.719l-3.178-.872a7.672,7.672,0,0,0,3.727,2.991c2.215.608,2.56-1.267,2.56-1.267Z" transform="translate(-263.448 -131.83)" fill="#fff"/>
        </g>
        <path id="Path_2008" data-name="Path 2008" d="M326.211,153.664a1.77,1.77,0,1,1-1.77-1.771,1.77,1.77,0,0,1,1.77,1.771Z" transform="translate(-260.589 -132.86)" fill="#fff"/>
      </g>
      <path id="Path_2009" data-name="Path 2009" d="M545.212,161.742,539.883,150.9l10.839-5.329,5.33,10.839Zm-2.1-9.739,3.2,6.5,6.5-3.2-3.2-6.5Z" transform="translate(59.886 21.241)" fill="#8880f7"/>
      <g id="Group_381" data-name="Group 381" transform="translate(319.832 353.471)">
        <path id="Path_2010" data-name="Path 2010" d="M363.914,330.822c-11.839-6.835-31.031-6.835-42.867,0s-11.835,17.914,0,24.748,31.029,6.835,42.866,0S375.751,337.653,363.914,330.822Zm-11.581,18.062c-5.442,3.14-14.263,3.14-19.7,0s-5.442-8.235,0-11.375,14.264-3.14,19.706,0S357.775,345.743,352.333,348.883Z" transform="translate(-307.283 -294.786)" fill="#d4ecff"/>
        <g id="Group_380" data-name="Group 380" transform="translate(0 0)">
          <g id="Group_376" data-name="Group 376" transform="translate(4.12)">
            <path id="Path_2011" data-name="Path 2011" d="M316.708,329.391l10.812.169a11.494,11.494,0,0,1,3.416-2.871c5.945-3.434,15.3-3.7,21.772-.8l6.424-6.043,9.894.155c-.489-.32-.992-.636-1.519-.942-13.748-7.937-36.038-7.937-49.786,0a26.116,26.116,0,0,0-6.185,4.82Z" transform="translate(-311.534 -297.404)" fill="#181c3a"/>
            <path id="Path_2012" data-name="Path 2012" d="M360.834,305.84v15.7l-9.893-.155v-15.7Z" transform="translate(-303.342 -298.945)" fill="#181c3a"/>
            <path id="Path_2013" data-name="Path 2013" d="M345.622,311.728v15.7l6.425-6.042v-15.7Z" transform="translate(-304.448 -298.945)" fill="#181c3a"/>
            <path id="Path_2014" data-name="Path 2014" d="M324.777,315.2v15.7L339,319.314l10.964,7.918v-15.7l-10.094-4.9s-13.9,4.255-14.621,4.435S324.777,315.2,324.777,315.2Z" transform="translate(-308.79 -298.749)" fill="#181c3a"/>
            <path id="Path_2015" data-name="Path 2015" d="M315.818,313.589v15.7l10.812.168v-15.7Z" transform="translate(-310.644 -297.303)" fill="#181c3a"/>
            <path id="Path_2016" data-name="Path 2016" d="M311.534,309.024v15.7l5.174,5.514v-15.7Z" transform="translate(-311.534 -298.252)" fill="#181c3a"/>
            <path id="Path_2017" data-name="Path 2017" d="M316.708,316.392l10.812.168a11.51,11.51,0,0,1,3.416-2.87c5.945-3.434,15.3-3.7,21.772-.8l6.424-6.044,9.894.156c-.489-.32-.992-.636-1.519-.942-13.748-7.937-36.038-7.937-49.786,0a26.116,26.116,0,0,0-6.185,4.82Z" transform="translate(-311.534 -300.106)" fill="#181c3a"/>
          </g>
          <g id="Group_378" data-name="Group 378" transform="translate(41.468 9.393)">
            <path id="Path_2018" data-name="Path 2018" d="M348.318,312.287V326.72l9.36-2.241s-.55-8.446-.749-8.672S348.318,312.287,348.318,312.287Z" transform="translate(-341.236 -306.967)" fill="#5793ce"/>
            <g id="Group_377" data-name="Group 377" transform="translate(0)">
              <path id="Path_2019" data-name="Path 2019" d="M342.455,324.236v15.7l1.013,1.079,6.6-3.8s-1.024-11.985-1.144-12.226S342.455,324.236,342.455,324.236Z" transform="translate(-342.455 -304.483)" fill="#173d7a"/>
              <path id="Path_2020" data-name="Path 2020" d="M355.2,320.881l-5.659,5.32c4.714,3.73,4.153,8.988-1.674,12.358a20.114,20.114,0,0,1-5.407,2.079l5.849,6.232-5.181,4.873a47.086,47.086,0,0,0,17.957-5.555c11.818-6.822,13.467-17.289,4.964-25.134Z" transform="translate(-342.455 -305.18)" fill="#396caa"/>
              <path id="Path_2021" data-name="Path 2021" d="M343.007,336.984v15.7l12.83-4.954,15.432-14.724-.058-16.672-16.326,12.941Z" transform="translate(-342.34 -306.125)" fill="#396caa"/>
              <path id="Path_2022" data-name="Path 2022" d="M355.2,307.882l-5.659,5.32c4.714,3.73,4.153,8.988-1.674,12.358a20.116,20.116,0,0,1-5.407,2.079l5.849,6.232-5.181,4.873a47.086,47.086,0,0,0,17.957-5.555c11.818-6.822,13.467-17.289,4.964-25.134Z" transform="translate(-342.455 -307.882)" fill="#d4ecff"/>
            </g>
          </g>
          <g id="Group_379" data-name="Group 379" transform="translate(0 13.833)">
            <path id="Path_2023" data-name="Path 2023" d="M350.216,346.02l-5.154-5.491a24.635,24.635,0,0,1-13.416-2.735c-3.79-2.187-5.349-5.172-4.686-8.018l-12.274-.19-4.722-5.028c-4.129,7.084-1.312,15.223,8.466,20.867,7.183,4.148,16.7,6.122,26.112,5.937Z" transform="translate(-308.123 -308.856)" fill="#396caa"/>
            <path id="Path_2024" data-name="Path 2024" d="M344.542,337.22v15.7l-36.416-20.18V317.033l5.317,2.15Z" transform="translate(-308.123 -310.419)" fill="#396caa"/>
            <path id="Path_2025" data-name="Path 2025" d="M343.948,329.328v15.7l-5.673,5.337v-15.7Z" transform="translate(-301.856 -307.864)" fill="#173d7a"/>
            <path id="Path_2026" data-name="Path 2026" d="M350.216,333.022l-5.154-5.492a24.635,24.635,0,0,1-13.416-2.735c-3.79-2.187-5.349-5.172-4.686-8.018l-12.274-.19-4.722-5.028c-4.129,7.086-1.312,15.223,8.466,20.868,7.183,4.148,16.7,6.124,26.112,5.937Z" transform="translate(-308.123 -311.558)" fill="#5793ce"/>
          </g>
        </g>
      </g>
      <g id="Group_384" data-name="Group 384" transform="translate(477.745 105.986)">
        <g id="Group_382" data-name="Group 382" transform="translate(0 0)">
          <path id="Path_2027" data-name="Path 2027" d="M476.776,114.159l-32.3-18.646a1.651,1.651,0,0,0-1.67-.133v-.021l-3.132,1.809,2.2.8v23.521a6.223,6.223,0,0,0,2.6,4.964l30.87,17.822v2.76l3.165-1.823-.017-.007a2.3,2.3,0,0,0,.878-2.071V119.125a6.227,6.227,0,0,0-2.6-4.966Z" transform="translate(-438.689 -95.214)" fill="#8a80f8"/>
          <path id="Path_2028" data-name="Path 2028" d="M473.755,146.629l-32.3-18.648a6.221,6.221,0,0,1-2.6-4.964V99c0-1.915,1.163-2.793,2.6-1.965l32.3,18.647a6.223,6.223,0,0,1,2.6,4.964v24.015C476.354,146.576,475.191,147.457,473.755,146.629Z" transform="translate(-438.86 -94.899)" fill="#8880f7"/>
        </g>
        <g id="Group_383" data-name="Group 383" transform="translate(9.104 20.735)">
          <path id="Path_2029" data-name="Path 2029" d="M450.756,116.452c0,1.389-.975,1.953-2.18,1.257a4.817,4.817,0,0,1-2.179-3.773c0-1.389.976-1.953,2.179-1.258a4.817,4.817,0,0,1,2.18,3.774Z" transform="translate(-446.397 -112.38)" fill="#fff"/>
          <path id="Path_2030" data-name="Path 2030" d="M456.219,119.607c0,1.39-.976,1.953-2.179,1.258a4.818,4.818,0,0,1-2.18-3.774c0-1.389.978-1.953,2.18-1.258a4.821,4.821,0,0,1,2.179,3.774Z" transform="translate(-445.261 -111.724)" fill="#fff"/>
          <path id="Path_2031" data-name="Path 2031" d="M461.685,122.764c0,1.388-.976,1.952-2.18,1.256a4.817,4.817,0,0,1-2.179-3.774c0-1.389.977-1.952,2.179-1.256A4.813,4.813,0,0,1,461.685,122.764Z" transform="translate(-444.125 -111.069)" fill="#fff"/>
        </g>
      </g>
      <g id="Group_387" data-name="Group 387" transform="translate(321.429 69.663)">
        <g id="Group_385" data-name="Group 385" transform="translate(0 0)">
          <path id="Path_2032" data-name="Path 2032" d="M346.643,83.727,314.96,65.435a1.621,1.621,0,0,0-1.637-.132v-.02l-3.072,1.776s1.36.5,2.16.79V90.921a6.1,6.1,0,0,0,2.55,4.871l30.288,17.484v2.707l3.1-1.788-.017-.006a2.257,2.257,0,0,0,.861-2.032V88.6a6.1,6.1,0,0,0-2.554-4.873Z" transform="translate(-309.278 -65.141)" fill="#5793ce"/>
          <path id="Path_2033" data-name="Path 2033" d="M343.68,115.58,312,97.287a6.1,6.1,0,0,1-2.55-4.871V68.858c0-1.877,1.142-2.741,2.55-1.925L343.68,85.225a6.11,6.11,0,0,1,2.549,4.872v23.56C346.229,115.527,345.087,116.393,343.68,115.58Z" transform="translate(-309.446 -64.832)" fill="#d4ecff"/>
        </g>
        <g id="Group_386" data-name="Group 386" transform="translate(8.928 20.341)">
          <path id="Path_2034" data-name="Path 2034" d="M321.114,85.976c0,1.362-.958,1.916-2.139,1.233a4.727,4.727,0,0,1-2.136-3.7c0-1.363.958-1.916,2.136-1.233a4.723,4.723,0,0,1,2.139,3.7Z" transform="translate(-316.838 -81.981)" fill="#fff"/>
          <path id="Path_2035" data-name="Path 2035" d="M326.475,89.072c0,1.362-.956,1.916-2.136,1.233a4.721,4.721,0,0,1-2.137-3.7c0-1.363.956-1.916,2.137-1.235a4.726,4.726,0,0,1,2.136,3.7Z" transform="translate(-315.723 -81.337)" fill="#fff"/>
          <path id="Path_2036" data-name="Path 2036" d="M331.838,92.166c0,1.363-.958,1.917-2.139,1.236a4.724,4.724,0,0,1-2.138-3.7c0-1.362.956-1.915,2.138-1.235a4.729,4.729,0,0,1,2.139,3.7Z" transform="translate(-314.609 -80.694)" fill="#fff"/>
        </g>
      </g>
    </g>
  </g>
</svg>
