<svg xmlns="http://www.w3.org/2000/svg" width="36.088" height="36.088" viewBox="0 0 36.088 36.088" fill="#FFFFFF">
  <g id="financial-advisor_5_" data-name="financial-advisor(5)" transform="translate(0 511.912)">
    <path id="Path_372" data-name="Path 372" d="M78.535-511.852a6.964,6.964,0,0,0-2.608,1.079,8.5,8.5,0,0,0-1.614,1.643,1.485,1.485,0,0,1-.663.55,3.906,3.906,0,0,0-1.882,2.5,7.259,7.259,0,0,0,.226,3.278l.106.247.127-.388a4.25,4.25,0,0,1,1.713-2.319,3.23,3.23,0,0,1,1.607-.338,14.343,14.343,0,0,1,3.222,1.149c2.185,1.008,2.615,1.121,4.279,1.114.642-.007,1.417-.042,1.727-.085a1.417,1.417,0,0,1,.79.021,3.6,3.6,0,0,1,1.149,1.156c.085.169.176.282.211.247a7.872,7.872,0,0,0,.331-2.122,3.689,3.689,0,0,0-1.022-3.137,7.277,7.277,0,0,0-2.94-1.847c-.677-.282-.712-.3-.874-.627a.647.647,0,0,1-.085-.613,1.763,1.763,0,0,1,.395-.592c.169-.176.289-.331.261-.352a12.108,12.108,0,0,0-1.819-.493A12.878,12.878,0,0,0,78.535-511.852Z" transform="translate(-66.621 -0.017)" fill="#7a6cff"/>
    <path id="Path_373" data-name="Path 373" d="M351.943-511.869a7.624,7.624,0,0,0-1.586.529,5.807,5.807,0,0,0-3.186,5.576,5.718,5.718,0,0,0,1.424,3.5l.458.522v1.572c0,.86.021,1.614.042,1.678.106.275.416.12,1.692-.832l1.262-.945.987-.035a5.4,5.4,0,0,0,2.538-.592,5.85,5.85,0,0,0,3.074-3.863,7.06,7.06,0,0,0-.078-3.031,5.851,5.851,0,0,0-4.187-3.983,4.965,4.965,0,0,0-1.41-.134C352.5-511.9,352.042-511.883,351.943-511.869Zm1.29,2.009a.542.542,0,0,1,.331.479c0,.134.078.219.352.367a1.516,1.516,0,0,1,.775.98.61.61,0,0,1-.6.585c-.219,0-.3-.042-.486-.261a1.315,1.315,0,0,0-.423-.331.663.663,0,0,0-.782.282c-.289.557.078,1.057.768,1.057a2.117,2.117,0,0,1,1.565,1.177,2.31,2.31,0,0,1,0,1.382,2.359,2.359,0,0,1-.9.973c-.2.1-.268.183-.268.31a.727.727,0,0,1-.493.564.63.63,0,0,1-.677-.486c-.035-.2-.106-.289-.338-.423a1.733,1.733,0,0,1-.74-.768.586.586,0,0,1,.338-.74c.282-.1.395-.056.761.282a.75.75,0,0,0,.571.268.658.658,0,0,0,.486-1.1.814.814,0,0,0-.606-.247,1.913,1.913,0,0,1-1.77-1.925,2.013,2.013,0,0,1,1.057-1.664c.155-.063.211-.134.211-.261a.8.8,0,0,1,.564-.585A.7.7,0,0,1,353.233-509.86Z" transform="translate(-322.687 0)" fill="#7a6cff"/>
    <path id="Path_374" data-name="Path 374" d="M58.349-404.866a2.293,2.293,0,0,0-1.008,1.234,7.214,7.214,0,0,0-.479,3.109,12.462,12.462,0,0,1-.106,1.748.6.6,0,0,1-.642.36.925.925,0,0,1-.31-.19c-.148-.134-.162-.2-.162-.874,0-.733,0-.733-.155-.691a1.924,1.924,0,0,0-.9.719,1.926,1.926,0,0,0,.183,2.418,1.956,1.956,0,0,0,1.311.634c.691.1.712.148.754,1.466.049,1.586-.071,1.4,2.39,3.56a25.317,25.317,0,0,0,2.333,1.91,3.573,3.573,0,0,0,1.445.169,5.031,5.031,0,0,0,2.178-.233,55.151,55.151,0,0,0,4.286-3.779,3.158,3.158,0,0,0,.338-1.861v-.867l.219-.183a.737.737,0,0,1,.444-.183,2.021,2.021,0,0,0,1.643-.966,1.7,1.7,0,0,0,.219-.839,1.767,1.767,0,0,0-.465-1.452,2.108,2.108,0,0,0-.825-.55,3.146,3.146,0,0,0-.035.677c0,.747-.049.9-.352,1.05a.539.539,0,0,1-.684-.12c-.113-.127-.134-.317-.162-1.6l-.035-1.452-.226-.465a2.986,2.986,0,0,0-.395-.613c-.162-.155-.19-.155-.938-.085a10.506,10.506,0,0,1-4-.282c-.268-.085-1.036-.409-1.713-.712A10.158,10.158,0,0,0,59.111-405,1.939,1.939,0,0,0,58.349-404.866Zm3.433,3.525a.5.5,0,0,1,.021.775l-.183.219H58.589l-.211-.211c-.176-.183-.2-.254-.169-.444a.755.755,0,0,1,.226-.388c.169-.148.226-.155,1.657-.155h1.487Zm6.331-.1a.563.563,0,0,1,.113.916c-.169.176-.169.176-1.692.176s-1.523,0-1.692-.176a.573.573,0,0,1,.141-.938A12.577,12.577,0,0,1,68.113-401.44Zm-7.155,1.9a.576.576,0,0,1,.007,1.072.594.594,0,0,0-.317.31.764.764,0,0,1-.592.423c-.162,0-.536-.353-.536-.5,0-.085-.063-.148-.176-.176a.9.9,0,0,1-.529-.585.893.893,0,0,1,.451-.571A4.558,4.558,0,0,1,60.958-399.544Zm6.641.134a.743.743,0,0,1,.169.395.688.688,0,0,1-.458.6c-.1.028-.176.092-.176.148a.716.716,0,0,1-.169.289.478.478,0,0,1-.43.2.478.478,0,0,1-.43-.2.716.716,0,0,1-.169-.289c0-.056-.078-.12-.176-.148a.621.621,0,0,1-.345-.931c.176-.254.352-.3,1.213-.275C67.408-399.607,67.43-399.6,67.6-399.41Zm-3.356,3.116a.566.566,0,0,1,.1.931c-.162.148-.24.162-1.036.162-.9-.007-1.008-.035-1.163-.331a.5.5,0,0,1,.12-.663c.2-.2.219-.2.994-.2A2.479,2.479,0,0,1,64.243-396.294Zm.726,2.644a.718.718,0,0,1,.219.317.659.659,0,0,1-.352.67,10.466,10.466,0,0,1-1.586.07H61.832l-.2-.2a.532.532,0,0,1-.028-.811l.169-.183h1.509C64.68-393.791,64.8-393.784,64.969-393.65Zm-.726,1.868a.566.566,0,0,1,.1.931c-.162.148-.24.162-1.036.162-.9-.007-1.008-.035-1.163-.331a.5.5,0,0,1,.12-.663c.2-.2.219-.2.994-.2A2.479,2.479,0,0,1,64.243-391.782Z" transform="translate(-50.426 -99.375)" fill="#7a6cff"/>
    <path id="Path_375" data-name="Path 375" d="M128.757-176.246c-.085.317-.247.8-.352,1.072l-.2.493.282.3a4.1,4.1,0,0,0,1.643.839,8.269,8.269,0,0,0,1.657.148,6.955,6.955,0,0,0,1.925-.106,6.722,6.722,0,0,0,1.128-.353c.458-.219,1.036-.67,1.036-.811a3.418,3.418,0,0,0-.2-.578c-.106-.275-.254-.733-.331-1.022s-.134-.536-.141-.55a1.73,1.73,0,0,0-.374.233c-.7.508-.966.564-2.756.564s-2.009-.042-2.693-.5c-.2-.134-.381-.261-.409-.275A1.523,1.523,0,0,0,128.757-176.246Z" transform="translate(-119.162 -311.471)" fill="#7a6cff"/>
    <path id="Path_376" data-name="Path 376" d="M105.537-131.485l-.437.508,1.121,1.128,1.128,1.128.916-.916.909-.909-.613-.127a5.372,5.372,0,0,1-2.164-1.015c-.211-.169-.395-.31-.4-.31S105.777-131.767,105.537-131.485Z" transform="translate(-97.691 -353.13)" fill="#7a6cff"/>
    <path id="Path_377" data-name="Path 377" d="M205.686-131.648a5.339,5.339,0,0,1-2.531,1.057c-.085,0-.155.021-.155.056a19.435,19.435,0,0,0,1.8,1.777,11.85,11.85,0,0,0,1.156-1.086c1.241-1.241,1.184-1.065.522-1.791l-.338-.367Z" transform="translate(-188.689 -353.13)" fill="#7a6cff"/>
    <path id="Path_378" data-name="Path 378" d="M6.38-130.506c-.423.092-2.425.783-3.109,1.072-1.713.726-2.059,1.065-2.531,2.5A22.21,22.21,0,0,0,0-121.892v.564H2.608v-2.763l.2-.2a.535.535,0,0,1,.818-.028c.176.169.176.176.176,1.586v1.41H6.274l-.063-.162c-.035-.085-.543-1.311-1.128-2.721-1.128-2.721-1.184-2.926-.938-3.37a16.521,16.521,0,0,1,1.142-1.41C6.7-130.619,6.669-130.57,6.38-130.506Z" transform="translate(0 -354.496)" fill="#7a6cff"/>
    <path id="Path_379" data-name="Path 379" d="M272-130.809c0,.021.557.677,1.234,1.459,1.283,1.473,1.438,1.734,1.346,2.192-.021.113-.529,1.389-1.135,2.841s-1.093,2.658-1.093,2.679a9.712,9.712,0,0,0,1.191.035h1.2l.021-1.417.021-1.417.2-.169a.559.559,0,0,1,.938.219,5.557,5.557,0,0,1,.1,1.516v1.269h2.63l-.056-.86c-.183-3.179-.761-5.527-1.551-6.3a12.364,12.364,0,0,0-3.969-1.762c-.451-.141-.881-.268-.945-.289S272-130.83,272-130.809Z" transform="translate(-252.825 -354.222)" fill="#7a6cff"/>
    <path id="Path_380" data-name="Path 380" d="M161.433-105.267l-.733.74.275.423.275.43h2l.254-.367a2.044,2.044,0,0,0,.247-.444A11.841,11.841,0,0,0,162.237-106,6.256,6.256,0,0,0,161.433-105.267Z" transform="translate(-149.371 -377.297)" fill="#7a6cff"/>
    <path id="Path_381" data-name="Path 381" d="M74.289-103.189a8.643,8.643,0,0,0-.691.853c0,.021.536,1.3,1.191,2.855l1.191,2.813h1.431c1.1,0,1.431-.021,1.431-.092.007-.042.127-1.029.275-2.185l.261-2.1-.24-.352c-.176-.268-.268-.345-.352-.3a1.39,1.39,0,0,1-1.008.169c-.261-.07-.493-.268-1.509-1.276-.663-.656-1.22-1.191-1.241-1.191S74.677-103.633,74.289-103.189Z" transform="translate(-68.41 -379.156)" fill="#7a6cff"/>
    <path id="Path_382" data-name="Path 382" d="M213.243-102.907a18.079,18.079,0,0,1-1.325,1.248,1.317,1.317,0,0,1-1.163.021.9.9,0,0,0-.289-.1c-.007.014-.12.176-.247.36l-.219.331.247,2.03c.141,1.114.268,2.1.289,2.192l.028.155,1.424-.014,1.417-.021,1.156-2.778c.627-1.53,1.149-2.82,1.149-2.876A15.436,15.436,0,0,0,214.35-104C214.343-104,213.842-103.507,213.243-102.907Z" transform="translate(-195.196 -379.156)" fill="#7a6cff"/>
    <path id="Path_383" data-name="Path 383" d="M165.586-54.958c0,.085-.423,3.447-.458,3.638l-.028.2h1.227a6.417,6.417,0,0,0,1.234-.056c.007-.028-.1-.9-.226-1.939L167.109-55h-.761A3.671,3.671,0,0,0,165.586-54.958Z" transform="translate(-153.461 -424.701)" fill="#7a6cff"/>
  </g>
</svg>
