<svg xmlns="http://www.w3.org/2000/svg" width="28.344" height="28.344" viewBox="0 0 28.344 28.344">
  <g id="bank_3_" data-name="bank(3)" transform="translate(-24 488)">
    <path id="Path_445" data-name="Path 445" d="M40-487.511v.489H66.389V-488H40Z" transform="translate(-15.023)" fill="#fff"/>
    <path id="Path_446" data-name="Path 446" d="M24-452.579v3.421H52.344V-456H24Zm8.338-2.3a1.589,1.589,0,0,1,.77.739,1.5,1.5,0,0,1-.171,1.448c-.092.1-.092.116,0,.22a1.5,1.5,0,0,1,.171,1.448,1.589,1.589,0,0,1-.77.739,8.63,8.63,0,0,1-2.547.092c-.4-.122-.415-.208-.415-2.376,0-2.083.018-2.23.33-2.37A8.314,8.314,0,0,1,32.338-454.876Zm10.721,2.022c0,2.376-.024,2.553-.33,2.633-.336.086-.421,0-1.509-1.454l-1.063-1.417-.018,1.478-.012,1.478h-.977V-452.3c0-2.376.024-2.553.33-2.633.336-.086.421,0,1.509,1.454l1.063,1.417.018-1.478.012-1.478h.977Zm1.955-1.344c0,.544.024.825.067.825a1.676,1.676,0,0,0,.385-.324,1.634,1.634,0,0,0,.525-1.124v-.2h.916v.244a2.891,2.891,0,0,1-1.222,2.089l-.153.11.153.1a2.883,2.883,0,0,1,1.222,2.1v.238h-.916v-.2a1.634,1.634,0,0,0-.525-1.124,1.675,1.675,0,0,0-.385-.324c-.043,0-.067.281-.067.825v.825h-.977v-4.887h.977Zm-7.953-.586a2.214,2.214,0,0,1,.861.849,5.665,5.665,0,0,1,.25,2.407v1.393h-.977V-451.6H35.24v1.466h-.99l.031-1.637a13.489,13.489,0,0,1,.1-1.857,2.161,2.161,0,0,1,1.252-1.271A2.7,2.7,0,0,1,37.06-454.784Z" transform="translate(0 -30.045)" fill="#fff"/>
    <path id="Path_447" data-name="Path 447" d="M128-423.511v.489h.855c.776,0,.867-.012.977-.122a.5.5,0,0,0,.122-.366.5.5,0,0,0-.122-.367c-.11-.11-.2-.122-.977-.122H128Z" transform="translate(-97.647 -60.091)" fill="#fff"/>
    <path id="Path_448" data-name="Path 448" d="M128-391.511v.489h.855c.776,0,.867-.012.977-.122a.5.5,0,0,0,.122-.367.5.5,0,0,0-.122-.367c-.11-.11-.2-.122-.977-.122H128Z" transform="translate(-97.647 -90.136)" fill="#fff"/>
    <path id="Path_449" data-name="Path 449" d="M208.44-423.878a.935.935,0,0,0-.44.928v.415h1.955v-.415c0-.69-.336-1.051-.977-1.051A.988.988,0,0,0,208.44-423.878Z" transform="translate(-172.76 -60.091)" fill="#fff"/>
    <path id="Path_450" data-name="Path 450" d="M40-327.511v.489H66.389V-328H40Z" transform="translate(-15.023 -150.226)" fill="#fff"/>
    <path id="Path_451" data-name="Path 451" d="M40-294.534v1.466h5.864V-296H40Z" transform="translate(-15.023 -180.272)" fill="#fff"/>
    <path id="Path_452" data-name="Path 452" d="M152-294.534v1.466h5.864V-296H152Z" transform="translate(-120.181 -180.272)" fill="#fff"/>
    <path id="Path_453" data-name="Path 453" d="M264-294.534v1.466h5.864V-296H264Z" transform="translate(-225.339 -180.272)" fill="#fff"/>
    <path id="Path_454" data-name="Path 454" d="M376-294.534v1.466h5.864V-296H376Z" transform="translate(-330.498 -180.272)" fill="#fff"/>
    <path id="Path_455" data-name="Path 455" d="M40-226.624v5.376h.977v-4.612c0-5.095-.012-4.96.367-5.095.287-.1,13.64-.1,13.928,0,.379.134.367,0,.367,5.095v4.612h1.955v-4.606c0-3.274.018-4.655.067-4.8.128-.367.116-.367,3.83-.367,2.346,0,3.415.018,3.555.067.379.134.367,0,.367,5.095v4.612h.977V-232H40Z" transform="translate(-15.023 -240.362)" fill="#fff"/>
    <path id="Path_456" data-name="Path 456" d="M72-195.6v4.4h.977v-3.635c0-4.026-.006-3.983.367-4.117.147-.049,1.582-.067,5.021-.067,5.314,0,5.162-.012,5.3.367.049.141.067,1.277.067,3.824v3.628h.977V-200H72Z" transform="translate(-45.068 -270.407)" fill="#fff"/>
    <path id="Path_457" data-name="Path 457" d="M344-195.6v4.4h5.864V-200H344Zm4.52-3.354c.33.116.367.293.367,1.875s-.031,1.753-.342,1.881a14.236,14.236,0,0,1-3.225,0c-.312-.128-.342-.3-.342-1.869,0-1.552.031-1.741.33-1.869A16.579,16.579,0,0,1,348.52-198.955Z" transform="translate(-300.453 -270.407)" fill="#fff"/>
    <path id="Path_458" data-name="Path 458" d="M376-167.023v.977h1.955V-168H376Z" transform="translate(-330.498 -300.453)" fill="#fff"/>
    <path id="Path_459" data-name="Path 459" d="M104-164.579v3.421h3.909V-168H104Z" transform="translate(-75.113 -300.453)" fill="#fff"/>
    <path id="Path_460" data-name="Path 460" d="M184-164.579v3.421h3.91V-168H184Z" transform="translate(-150.226 -300.453)" fill="#fff"/>
    <path id="Path_461" data-name="Path 461" d="M24-39.511v.489H52.344V-40H24Z" transform="translate(0 -420.634)" fill="#fff"/>
  </g>
</svg>
