<svg xmlns="http://www.w3.org/2000/svg" width="36.307" height="30.193" viewBox="0 0 36.307 30.193">
  <g id="heart-insurance-symbol" transform="translate(0.019 468.806)">
    <path id="Path_436" data-name="Path 436" d="M108.13-468.721a6.03,6.03,0,0,0-4.786,3.226,6.065,6.065,0,0,0-.546,2.737,6.68,6.68,0,0,0,.723,3.439c.872,1.737,2.34,3.46,5.829,6.843,2.262,2.184,2.787,2.652,3.326,2.943a1.589,1.589,0,0,0,.986.241c.957,0,1.248-.213,4.34-3.219,3.574-3.467,4.935-5.07,5.814-6.843a6.639,6.639,0,0,0,.709-3.4,5.368,5.368,0,0,0-.177-1.673,5.268,5.268,0,0,0-1.56-2.666,5.847,5.847,0,0,0-2.631-1.4,7.058,7.058,0,0,0-5.949.823l-.546.355-.546-.355a7.46,7.46,0,0,0-2.134-.943A8.51,8.51,0,0,0,108.13-468.721Zm2.17,1.858a1,1,0,0,1,.525.773,1,1,0,0,1-1.042.886,4.11,4.11,0,0,0-1.5.39,3.921,3.921,0,0,0-.766.56,3.019,3.019,0,0,0-.979,2.184.853.853,0,0,1-1.213.645c-.4-.206-.546-.525-.489-1.106a4.895,4.895,0,0,1,3.389-4.127A3.345,3.345,0,0,1,110.3-466.863Z" transform="translate(-95.525 0)" fill="#fff"/>
    <path id="Path_437" data-name="Path 437" d="M.557-360.726a.787.787,0,0,0-.149.234c0,.021-.035.234-.071.468A42.407,42.407,0,0,0,0-355.692a5.163,5.163,0,0,0,.113,2.07,43.98,43.98,0,0,0,3.042,6.573,4.54,4.54,0,0,0,.723.695c.667.5,2.716,1.8,4.4,2.8,1.631.964,2.12,1.39,2.46,2.12.177.39.191.475.213,1.744l.028,1.326h6.155v-1.057a16.914,16.914,0,0,1,.113-1.9,5.814,5.814,0,0,0-.121-2.453,9.4,9.4,0,0,0-4.141-5.19,11.385,11.385,0,0,0-3.794-.922,3.639,3.639,0,0,1-.745-.135,5.122,5.122,0,0,1-1.567-1.439,9.189,9.189,0,0,0-3.446-2.971c-.6-.248-1.135-.22-1.383.071a.664.664,0,0,0-.163.326,2.533,2.533,0,0,0,.376.667A30.327,30.327,0,0,0,4.762-350l.5.518-.425-.262a2.919,2.919,0,0,1-1.163-1.2c-.177-.291-.688-1-1.135-1.574a9.224,9.224,0,0,1-.893-1.29.809.809,0,0,1,.61-1.057c.262-.05.262.035-.014-2.383-.3-2.666-.475-3.262-1.064-3.56C.89-360.96.72-360.932.557-360.726Z" transform="translate(0 -100.252)" fill="#fff"/>
    <path id="Path_438" data-name="Path 438" d="M283.426-360.652c-.56.383-.681.815-.993,3.545-.269,2.375-.269,2.3-.007,2.347a.918.918,0,0,1,.638.589c.1.347-.057.652-.823,1.638a16.717,16.717,0,0,0-1.383,1.936,2.513,2.513,0,0,1-1.014.957l-.425.262.5-.518a30.883,30.883,0,0,0,2.5-3.368,2.657,2.657,0,0,0,.369-.667.664.664,0,0,0-.163-.326c-.135-.156-.241-.2-.553-.227-1.007-.078-2.638,1.071-4.042,2.858a7.017,7.017,0,0,1-1.7,1.652,2.915,2.915,0,0,1-.844.191,11.393,11.393,0,0,0-3.794.922,9.372,9.372,0,0,0-4.141,5.19,5.813,5.813,0,0,0-.121,2.453,16.915,16.915,0,0,1,.113,1.9v1.057H273.7l.028-1.326c.021-1.269.035-1.354.213-1.744.34-.73.83-1.149,2.46-2.12,1.737-1.028,3.872-2.39,4.474-2.858a4.066,4.066,0,0,0,.681-.667,46.8,46.8,0,0,0,3.014-6.545,5.144,5.144,0,0,0,.113-2.07,40.818,40.818,0,0,0-.34-4.368C284.22-360.737,283.908-360.978,283.426-360.652Z" transform="translate(-248.415 -100.354)" fill="#fff"/>
  </g>
</svg>
