<svg xmlns="http://www.w3.org/2000/svg" width="36.152" height="36.134" viewBox="0 0 36.152 36.134">
  <g id="insurance-agent" transform="translate(-16.9 494.85)">
    <path id="Path_384" data-name="Path 384" d="M48.422-494.748a4.1,4.1,0,0,0-2.639,1.293.96.96,0,0,1-.907.514,3.26,3.26,0,0,0-1.285.514,3.4,3.4,0,0,0-.839,1.369,4.366,4.366,0,0,0-.166,1.679,16.8,16.8,0,0,0,.227,2.775c.03.106.106.083.544-.144.28-.144.514-.272.529-.28s.091-.272.174-.582a4.734,4.734,0,0,1,2.42-2.934c1.059-.522,1.4-.514,1.936.068a2.962,2.962,0,0,0,.771.582,1.938,1.938,0,0,0,1.142.212,1.964,1.964,0,0,0,1.134-.2,3.506,3.506,0,0,0,.786-.59c.56-.582.862-.59,1.936-.068a4.7,4.7,0,0,1,2.442,3.093c.083.416.106.461.333.537a2.123,2.123,0,0,1,.522.265c.151.106.3.166.333.129a13.226,13.226,0,0,0,.272-2.533c.076-1.626-.113-2.45-.711-3.1a2.46,2.46,0,0,0-1.512-.756c-.28-.045-.544-.091-.6-.106a1.869,1.869,0,0,1-.393-.439,3.949,3.949,0,0,0-2.677-1.293A17.484,17.484,0,0,0,48.422-494.748Z" transform="translate(-23.741)" fill="#7a6cff"/>
    <path id="Path_385" data-name="Path 385" d="M54.832-425.8a4.176,4.176,0,0,0-.8.59,3.578,3.578,0,0,0-1.021,2.072,1.424,1.424,0,0,1-.817.93,1.286,1.286,0,0,0-1.059,1.429c.045.6.25.854.96,1.195.658.318.877.582.953,1.134a6.052,6.052,0,0,0,.582,1.906,5.338,5.338,0,0,0,3.161,2.6,6.372,6.372,0,0,0,2.306.129,5.252,5.252,0,0,0,4.31-4.6,1.3,1.3,0,0,1,.847-1.127c.824-.3,1.112-.688,1.066-1.429a1.142,1.142,0,0,0-.794-1.142,1.5,1.5,0,0,1-1.157-1.353,3.4,3.4,0,0,0-1.452-2.163c-.681-.439-.832-.446-1.233-.083a3.779,3.779,0,0,1-4.9.023,1.249,1.249,0,0,0-.446-.31A2.239,2.239,0,0,0,54.832-425.8Z" transform="translate(-31.641 -63.644)" fill="#7a6cff"/>
    <path id="Path_386" data-name="Path 386" d="M290.492-273.289a.751.751,0,0,0-.318.189l-.174.151v13.286h1.361V-266.2c0-5.724-.015-6.579-.113-6.768a1.373,1.373,0,0,0-.136-.227c-.008,0-.121-.03-.242-.06A.975.975,0,0,0,290.492-273.289Z" transform="translate(-252.449 -204.801)" fill="#7a6cff"/>
    <path id="Path_387" data-name="Path 387" d="M322.516-273.769c.038.076.083,4.386.106,9.573l.038,9.444.181.144a.711.711,0,0,0,.922-.053c.166-.181.181-.265.219-1.195.038-.945.053-1.021.242-1.27.4-.529.272-.514,4.741-.514h4.015V-273.5l-.2-.181-.2-.181-5.066-.023C322.69-273.9,322.455-273.9,322.516-273.769Zm6.064,2.095c.363.106,1.036.265,1.5.355,1.55.3,1.558.318,1.52,2.851a7.5,7.5,0,0,1-.2,2.4,6.157,6.157,0,0,1-2.972,3.607,1.091,1.091,0,0,1-1.255,0,5.913,5.913,0,0,1-2.556-2.624c-.537-1.1-.582-1.338-.612-3.418-.045-2.48-.03-2.518,1.527-2.813.461-.083,1.1-.242,1.437-.34A1.99,1.99,0,0,1,328.58-271.674Zm2.73,10.9a.54.54,0,0,1,.121.907l-.181.189h-6.9l-.181-.189a.558.558,0,0,1,.151-.93,27.385,27.385,0,0,1,3.463-.091C330.546-260.892,331.136-260.877,331.31-260.778Z" transform="translate(-282.5 -204.253)" fill="#7a6cff"/>
    <path id="Path_388" data-name="Path 388" d="M359.943-230.724c-.333.1-.9.234-1.27.3l-.673.129v1.414a5.668,5.668,0,0,0,.5,3,5.271,5.271,0,0,0,1.648,1.86l.446.287.31-.166a5.892,5.892,0,0,0,1.8-1.951,5.476,5.476,0,0,0,.514-2.994v-1.444l-.469-.091c-.265-.053-.862-.189-1.338-.318s-.862-.219-.87-.212S360.268-230.822,359.943-230.724Zm1.724,2.042c.295.287.242.5-.348,1.369s-.764,1.013-1.119.862a1.96,1.96,0,0,1-.839-.9.645.645,0,0,1,.771-.65c.166.045.219,0,.439-.333a1.993,1.993,0,0,1,.371-.461A.613.613,0,0,1,361.667-228.682Z" transform="translate(-315.308 -243.986)" fill="#7a6cff"/>
    <path id="Path_389" data-name="Path 389" d="M119-251.16v.681l.983.733c.628.469,1.013.711,1.074.673s.5-.363.991-.726l.885-.673v-.681c0-.681,0-.688-.166-.643a8.184,8.184,0,0,1-1.8.272,8.053,8.053,0,0,1-1.792-.272C119-251.841,119-251.833,119-251.16Z" transform="translate(-94.38 -224.661)" fill="#7a6cff"/>
    <path id="Path_390" data-name="Path 390" d="M89.709-219.388l-.809.6.2.242c.106.136.484.537.824.892l.628.65.56-.575c.3-.318.688-.718.847-.885l.287-.318-.817-.612a8.745,8.745,0,0,0-.862-.612A8.744,8.744,0,0,0,89.709-219.388Z" transform="translate(-66.556 -254.067)" fill="#7a6cff"/>
    <path id="Path_391" data-name="Path 391" d="M157.709-219.388l-.809.6.673.733c.378.4.764.809.862.9l.174.166.817-.87a11.766,11.766,0,0,0,.809-.923A14.114,14.114,0,0,0,158.586-220,7.286,7.286,0,0,0,157.709-219.388Z" transform="translate(-129.414 -254.067)" fill="#7a6cff"/>
    <path id="Path_392" data-name="Path 392" d="M19.864-194.763a4.7,4.7,0,0,0-2.745,2.745c-.174.469-.174.469-.2,5.081l-.023,4.62.174.257a1.942,1.942,0,0,0,.431.431l.257.174h3.176c2.526,0,3.153-.023,3.1-.091-.371-.469-5.573-7.683-5.656-7.849-.242-.469-.174-.7.945-3.123.582-1.263,1.059-2.321,1.059-2.352C20.386-194.937,20.31-194.922,19.864-194.763Z" transform="translate(0 -277.263)" fill="#7a6cff"/>
    <path id="Path_393" data-name="Path 393" d="M182.075-194.931c0,.03.484,1.089,1.066,2.367,1.021,2.208,1.066,2.337,1.036,2.715-.038.439.28-.03-4.045,5.936l-1.732,2.382,3.062.023c1.694.008,3.146,0,3.236-.023a1.6,1.6,0,0,0,.764-.673c.113-.212.129-.62.129-4.582,0-4.7,0-4.726-.416-5.633a4.542,4.542,0,0,0-2.216-2.231C182.476-194.878,182.075-195,182.075-194.931Z" transform="translate(-149.288 -277.223)" fill="#7a6cff"/>
    <path id="Path_394" data-name="Path 394" d="M128.628-192.044a5.091,5.091,0,0,0-.628.733.382.382,0,0,0,.136.2c.113.106.318.129,1.149.129.93,0,1.028-.015,1.18-.159l.174-.166L130-192c-.355-.378-.673-.7-.7-.7A4.691,4.691,0,0,0,128.628-192.044Z" transform="translate(-102.699 -279.301)" fill="#7a6cff"/>
    <path id="Path_395" data-name="Path 395" d="M87-181a26.064,26.064,0,0,0,.688,2.813,12.118,12.118,0,0,0,1.4,3.1c.023-.015.113-1,.212-2.178.2-2.465.219-2.412-.4-2.412-.454,0-.7-.159-1.293-.824C87.174-180.975,87-181.119,87-181Z" transform="translate(-64.799 -290.083)" fill="#7a6cff"/>
    <path id="Path_396" data-name="Path 396" d="M172.109-180.129c-.643.673-.643.673-1.013.673a.724.724,0,0,0-.537.151l-.159.151.174,1.981c.091,1.1.166,2.064.174,2.155s.03.174.06.174a15.033,15.033,0,0,0,1.331-2.949,21.022,21.022,0,0,0,.726-2.949C172.865-180.893,172.737-180.787,172.109-180.129Z" transform="translate(-141.893 -290.301)" fill="#7a6cff"/>
    <path id="Path_397" data-name="Path 397" d="M52.68-172.962c-.181.295-1.5,3.259-1.482,3.335.015.053,1.384,1.966,3.047,4.257L57.27-161.2H59.32l3.032-4.189c1.671-2.3,3.047-4.219,3.062-4.257A35.65,35.65,0,0,0,63.872-173a1.053,1.053,0,0,0-.136.431,17.694,17.694,0,0,1-3.335,7.433,13.049,13.049,0,0,1-1.83,1.868c-.31.159-.492.083-1.059-.431a16.254,16.254,0,0,1-4.476-8.091C52.771-172.917,52.733-173.045,52.68-172.962Z" transform="translate(-31.705 -297.513)" fill="#7a6cff"/>
    <path id="Path_398" data-name="Path 398" d="M129.434-151.187l-.234,2.82.181.227c.1.121.363.431.6.681l.416.454.423-.454c.234-.25.507-.56.6-.681l.174-.234-.219-2.677c-.129-1.475-.227-2.745-.227-2.82,0-.113-.083-.129-.741-.129h-.741Z" transform="translate(-103.808 -315.076)" fill="#7a6cff"/>
    <path id="Path_399" data-name="Path 399" d="M356.244-42.259a5.566,5.566,0,0,1-.068.983l-.076.242h10.178l.159-.174c.151-.159.166-.257.166-.983V-43H356.244Z" transform="translate(-313.551 -417.683)" fill="#7a6cff"/>
  </g>
</svg>
