<svg xmlns="http://www.w3.org/2000/svg" width="30" height="33.493" viewBox="0 0 30 33.493">
  <g id="financial-advisor_6_" data-name="financial-advisor(6)" transform="translate(-42 495)">
    <path id="Path_418" data-name="Path 418" d="M199.822-494.825c-.287.28-.238.5.561,2.278l.729,1.647-1.332.035-1.339.035-.168.2a.62.62,0,0,0,.007.855c.168.175.182.175,1.486.182h1.318l-.294.133a6.844,6.844,0,0,0-1.626,1.15,12.379,12.379,0,0,0-3.414,7.206l-.049.589,2.061.3c8.131,1.2,8.537,1.262,8.8,1.395a1.484,1.484,0,0,1,.68.694.656.656,0,0,0,.154.231,6.561,6.561,0,0,0,1.283-.827,8.444,8.444,0,0,0-.021-3.855c-.75-3-2.565-5.706-4.521-6.736l-.533-.28,1.269-.007c1.178,0,1.283-.014,1.458-.147.147-.112.182-.2.182-.442a.734.734,0,0,0-.3-.617c-.007-.007-.617-.028-1.353-.049l-1.339-.042.442-1.037c.512-1.192.561-1.493.266-1.724-.168-.133-.28-.147-1.058-.147-.806,0-.876.007-.827.119.182.477.119.813-.182.974a.4.4,0,0,1-.421.021c-.259-.105-.322-.224-.7-1.381l-.3-.925h-.378C200.06-495,199.955-494.965,199.822-494.825Zm2.874,7.22a.561.561,0,0,1,.175.343c0,.133.063.21.231.294.491.245.869.743.792,1.051a.636.636,0,0,1-.533.449.827.827,0,0,1-.477-.28c-.231-.231-.336-.28-.561-.28a.59.59,0,0,0-.568.848.8.8,0,0,0,.743.414,2.064,2.064,0,0,1,1.023.477,1.81,1.81,0,0,1,.47,1.731,2.156,2.156,0,0,1-.911,1.086c-.154.063-.21.133-.21.259a.563.563,0,0,1-.175.336.532.532,0,0,1-.918-.308.417.417,0,0,0-.2-.273,2.4,2.4,0,0,1-.778-.722.434.434,0,0,1,.105-.631c.294-.287.526-.266.841.077.364.4.687.449.988.154a.59.59,0,0,0,.21-.456c0-.385-.175-.533-.764-.652a1.813,1.813,0,0,1-1.269-.736,1.748,1.748,0,0,1,.5-2.467c.217-.133.343-.259.343-.343a.79.79,0,0,1,.6-.547A.577.577,0,0,1,202.7-487.605Z" transform="translate(-142.927)" fill="#fff"/>
    <path id="Path_419" data-name="Path 419" d="M42.2-392.8l-.2.2v19.563l.168.2.168.2,2.082.035,2.082.035.133.168c.126.154.133.308.133,2.769,0,2.923.007,2.937.442,2.972.252.021.371-.07,3.652-2.881,1.864-1.6,3.449-2.944,3.533-2.986.105-.056,2.544-.077,8.671-.077h8.53l.2-.2.2-.2v-19.584l-.2-.2-.2-.2H68.047c-1.949,0-3.547.014-3.547.028a7.493,7.493,0,0,0,.414.652,13.091,13.091,0,0,1,2.187,6.876,2.8,2.8,0,0,0,.049.764c.028-.014.379-.231.785-.477.722-.442.743-.449,1.241-.449a1.031,1.031,0,0,1,.8.21,1.507,1.507,0,0,1,.407,2.229c-.287.35-10.023,8.159-10.493,8.411a2.4,2.4,0,0,1-1.465.252c-.168-.035-2.432-.736-5.026-1.57s-4.745-1.507-4.787-1.507-.119.105-.168.224a2.211,2.211,0,0,1-.862.918c-.266.14-.386.154-1.654.154-1.549,0-1.7-.042-2.194-.589-.456-.5-.47-.631-.47-4.143,0-3.484.014-3.6.456-4.114a2.232,2.232,0,0,1,.575-.449c.315-.161.407-.168,1.633-.168s1.318.007,1.626.161a2.155,2.155,0,0,1,.834.785l.112.175.939-.435a5.571,5.571,0,0,1,2-.652h.217l.049-.512a15.543,15.543,0,0,1,.638-2.93,16.456,16.456,0,0,1,1.521-3.112c.21-.308.407-.6.435-.652A56.145,56.145,0,0,0,48.379-393H42.407Z" transform="translate(0 -94.85)" fill="#fff"/>
    <path id="Path_420" data-name="Path 420" d="M76.537-273.834c-.449.133-.449.126-.428,3.673l.021,3.182.161.161c.147.154.217.161,1.311.182l1.157.021.21-.21c.189-.182.21-.252.21-.624v-.421l-.736-.028c-.645-.021-.75-.042-.883-.175a.533.533,0,0,1,.007-.757c.154-.168.21-.175.89-.175h.722v-2.453h-.6c-.722,0-1.03-.112-1.15-.407a.4.4,0,0,1,.021-.428c.14-.266.442-.357,1.185-.357h.54v-.393c0-.75-.21-.869-1.521-.862A6.813,6.813,0,0,0,76.537-273.834Z" transform="translate(-31.712 -205.599)" fill="#fff"/>
    <path id="Path_421" data-name="Path 421" d="M138.383-272.81c-.133.035-.729.287-1.311.561l-1.072.5v2.376c0,2.278.007,2.369.133,2.369.07,0,2.3.694,4.949,1.542,5.215,1.675,5.3,1.689,5.79,1.381.449-.28,10.065-8.033,10.114-8.145a.848.848,0,0,0,.042-.217c0-.154-.266-.379-.442-.379-.1,0-2.138,1.22-4.745,2.839-2.523,1.563-4.689,2.86-4.808,2.881a1.419,1.419,0,0,1-.456-.007,16.516,16.516,0,0,1-1.829-1.129l-1.591-1.079h-.883c-.988,0-1.22-.07-1.36-.414a.4.4,0,0,1,.021-.421c.063-.119.126-.224.133-.231s2.131-.035,4.717-.056c4.507-.035,4.717-.042,4.857-.168a.407.407,0,0,0,.049-.568c-.077-.112-.862-.245-5.446-.918C139.827-272.9,139-272.985,138.383-272.81Z" transform="translate(-87.411 -206.545)" fill="#fff"/>
    <path id="Path_422" data-name="Path 422" d="M267.577-221.937c.1.091,1.563,1.058,1.6,1.058s1.724-1.037,1.787-1.093c.014-.014-.757-.028-1.71-.028A9.957,9.957,0,0,0,267.577-221.937Z" transform="translate(-209.764 -253.864)" fill="#fff"/>
  </g>
</svg>
