<svg xmlns="http://www.w3.org/2000/svg" width="28.018" height="28" viewBox="0 0 28.018 28">
  <g id="investment_1_" data-name="investment(1)" transform="translate(-23.9 488)">
    <path id="Path_429" data-name="Path 429" d="M65.547-487.517v.483h1.177l-2.275,2.275-2.281,2.281-2.04-2.04-2.04-2.034h-.531l-2.764,2.758L52.03-481.03l-1.557-1.557-1.557-1.551h-.537l-3.44,3.44-3.44,3.44.38.374.374.38,3.2-3.2,3.2-3.2,1.557,1.557,1.557,1.551H52.3l2.764-2.758,2.764-2.764,2.04,2.04,2.04,2.034h.531l2.522-2.516,2.522-2.522v1.177h.966v-1.328c0-1.249-.006-1.334-.121-1.448s-.2-.121-1.448-.121H65.547Z" transform="translate(-16.538)" fill="#fff"/>
    <path id="Path_430" data-name="Path 430" d="M376-340.138v3.862h2.414V-344H376Z" transform="translate(-330.853 -135.31)" fill="#fff"/>
    <path id="Path_431" data-name="Path 431" d="M232-324.621v3.379h2.414V-328H232Z" transform="translate(-195.542 -150.345)" fill="#fff"/>
    <path id="Path_432" data-name="Path 432" d="M304-293.586v2.414h2.414V-296H304Z" transform="translate(-263.197 -180.414)" fill="#fff"/>
    <path id="Path_433" data-name="Path 433" d="M160-278.069v1.931h2.414V-280H160Z" transform="translate(-127.887 -195.448)" fill="#fff"/>
    <path id="Path_434" data-name="Path 434" d="M128.169-212.585a16.955,16.955,0,0,0-1.629.766c-1.291.658-1.388.718-1.37.857.012.084.024.368.03.634a1.357,1.357,0,0,1-.151.815,2.4,2.4,0,0,1-.392.555c-.211.205-5.274,3.247-6.1,3.669a5.654,5.654,0,0,1-3.3.543c-.35-.054-5.226-1.207-5.274-1.243a1.987,1.987,0,0,1,.084-.447c.084-.338.127-.422.205-.4.054.018,1.195.3,2.541.616,2.444.591,2.444.591,3.228.591a3.93,3.93,0,0,0,2-.41c.386-.181,5.594-3.234,5.92-3.47a1.168,1.168,0,0,0,.253-.314c.471-.833-.465-1.949-1.738-2.082-.567-.06-.923.078-3.186,1.237-2.3,1.189-2.541,1.279-3.1,1.159a15.682,15.682,0,0,1-1.949-.935,8.863,8.863,0,0,0-3.023-1.243,6.652,6.652,0,0,0-2.468.145c-.634.187-1.515.616-1.472.718.012.042.362,1.672.766,3.633s.748,3.566.748,3.572.235-.048.519-.115c.784-.181,1.388-.151,4.707.223,3.983.447,4.484.441,5.612-.115.38-.187,10.023-6.62,10.307-6.879a.954.954,0,0,0,.326-.766,1.056,1.056,0,0,0-.416-.851A1.912,1.912,0,0,0,128.169-212.585Z" transform="translate(-78.344 -258.754)" fill="#fff"/>
    <path id="Path_435" data-name="Path 435" d="M25.734-209.5a14.846,14.846,0,0,0-1.834.459c0,.036.483,2.384,1.074,5.208.9,4.3,1.092,5.147,1.171,5.147.121,0,3.669-.76,3.7-.791.048-.054-2.166-10.434-2.227-10.428C27.587-209.9,26.736-209.719,25.734-209.5Zm.881,1.792a2.009,2.009,0,0,1,.042.447,1.781,1.781,0,0,1-.821.145,2.276,2.276,0,0,1-.145-.8,3.642,3.642,0,0,1,.754-.181C26.519-208.1,26.561-207.993,26.616-207.7Z" transform="translate(0 -261.318)" fill="#fff"/>
  </g>
</svg>
