<svg xmlns="http://www.w3.org/2000/svg" width="30.139" height="30.138" viewBox="0 0 30.139 30.138">
  <g id="money-bag" transform="translate(0.05 511.96)">
    <path id="Path_462" data-name="Path 462" d="M242.443-511.851a2.7,2.7,0,0,0-.5.33,2.473,2.473,0,0,1-1.954.571,2.79,2.79,0,0,1-.659-.212c-.442-.212-.536-.224-.765-.13-.312.13-.365.294-.277.871a6.388,6.388,0,0,0,.96,2.508,4.118,4.118,0,0,0,1.183,1.1,2.86,2.86,0,0,0,1.066.259,3.142,3.142,0,0,0-.283-.642,9.6,9.6,0,0,1-.783-2.013.367.367,0,0,1,.147-.4c.377-.377.677-.183.948.6a11.679,11.679,0,0,0,1,2.09l.241.371h.589l.271-.418a10.548,10.548,0,0,0,.989-2.1c.171-.518.341-.724.606-.724a.658.658,0,0,1,.489.483,8.15,8.15,0,0,1-.736,1.978l-.383.789.312-.041a2.718,2.718,0,0,0,1.531-.848,5.338,5.338,0,0,0,1.336-2.779c.147-.718.106-.93-.2-1.077-.265-.124-.288-.124-.724.082a2.311,2.311,0,0,1-1.33.265,2.453,2.453,0,0,1-1.36-.583,3.18,3.18,0,0,0-.589-.383A1.933,1.933,0,0,0,242.443-511.851Z" transform="translate(-224.27)" fill="#fff"/>
    <path id="Path_463" data-name="Path 463" d="M389.249-491.005c0,.012-.041.235-.088.489s-.088.489-.088.53.147.147.324.247a1.612,1.612,0,0,1,.759.954c.3,1.007-.859,1.937-2.325,1.866-.247-.012-.43.006-.441.041s.124.147.3.253.53.347.777.53a1.486,1.486,0,0,0,.989.412,5.372,5.372,0,0,1,2.861,1.13,2.188,2.188,0,0,0,.459.359.533.533,0,0,0,.712-.553c0-.224-.035-.277-.394-.63a4.536,4.536,0,0,0-1.872-1.071c-.353-.124-.659-.224-.671-.224a1.562,1.562,0,0,1,.188-.235,2.323,2.323,0,0,0,.577-1.949,2.817,2.817,0,0,0-1.5-1.966C389.449-491.011,389.249-491.07,389.249-491.005Z" transform="translate(-364.63 -19.698)" fill="#fff"/>
    <path id="Path_464" data-name="Path 464" d="M93.018-475.811a3.222,3.222,0,0,0-1.819.7c-.536.642.4,1.248,2.19,1.419a6.856,6.856,0,0,0,3.032-.394c.336-.171.571-.442.571-.648,0-.283-.047-.365-.324-.553A6.209,6.209,0,0,0,93.018-475.811Z" transform="translate(-85.736 -33.967)" fill="#fff"/>
    <path id="Path_465" data-name="Path 465" d="M91-430.034v1.96l.483.047A3.939,3.939,0,0,1,94.62-426.5c.112.224.118.394.135,4.456l.012,4.221h.783a6.451,6.451,0,0,1,2.2.306,3.385,3.385,0,0,1,1.448.865c.412.459.4.33.4,3.791v3.114l5.345-.024c5.952-.024,5.716-.012,6.994-.442A5.321,5.321,0,0,0,115.7-414.7a13.964,13.964,0,0,0-.088-3.585,19.91,19.91,0,0,0-2.92-7.447,15.8,15.8,0,0,0-4.586-4.562l-.565-.359-.453.165-.447.159.559.53a3.676,3.676,0,0,1,.606.671.538.538,0,0,1-.583.618,8.587,8.587,0,0,1-1.071-.9,8.26,8.26,0,0,0-1.036-.883c-.094,0-.106.077-.106.854,0,.96-.047,1.142-.353,1.266a.364.364,0,0,1-.347,0c-.294-.118-.359-.353-.359-1.289,0-.753-.012-.83-.1-.83a8.055,8.055,0,0,0-1.036.877,8.185,8.185,0,0,1-1.077.907c-.3.053-.659-.294-.589-.577a2.956,2.956,0,0,1,.606-.7l.565-.542-.453-.153-.447-.153-.483.3a14.924,14.924,0,0,0-3.95,3.585c-.389.506-.565.606-.848.489a.468.468,0,0,1-.312-.459,3.558,3.558,0,0,1,.812-1.189l.306-.353v-1.872c0-1.024-.012-1.866-.024-1.866s-.177.071-.365.153a7,7,0,0,1-5.216-.041,1.04,1.04,0,0,0-.283-.112A11.923,11.923,0,0,0,91-430.034Zm13.834,4.309c.112.112.147.212.165.518l.024.377.277.024a2.133,2.133,0,0,1,1.813,1.9c.029.347.024.389-.118.53a.508.508,0,0,1-.865-.412,1.147,1.147,0,0,0-.907-1.007l-.212-.035v2.237l.324.035a2.1,2.1,0,0,1,1.784,1.925,2.136,2.136,0,0,1-1.884,2.266c-.218.035-.224.041-.224.3,0,.571-.318.889-.712.724-.224-.088-.347-.353-.347-.724,0-.259-.006-.265-.218-.3a2.176,2.176,0,0,1-1.9-2.066.4.4,0,0,1,.182-.4.66.66,0,0,1,.33-.153.609.609,0,0,1,.489.542,1.106,1.106,0,0,0,.883,1.03l.235.035v-2.184l-.247-.041a2.149,2.149,0,0,1-1.648-1.2,1.521,1.521,0,0,1-.194-.924,1.492,1.492,0,0,1,.171-.877,2.156,2.156,0,0,1,1.631-1.2l.277-.024.024-.377C104-425.86,104.428-426.119,104.834-425.725Zm9.66,9.672a.514.514,0,0,1,.171.459,5.26,5.26,0,0,1-1.2,3.126,5.568,5.568,0,0,1-3.579,1.525c-.477.029-.595.018-.724-.065a.442.442,0,0,1-.182-.589c.1-.241.277-.312.895-.353a4.466,4.466,0,0,0,2.761-1.118,3.828,3.828,0,0,0,1.007-2.425c.041-.43.088-.547.288-.659A.437.437,0,0,1,114.494-416.053Z" transform="translate(-85.69 -75.253)" fill="#fff"/>
    <path id="Path_466" data-name="Path 466" d="M292.794-292.876a1.112,1.112,0,0,0-.318,1.713.985.985,0,0,0,.689.341h.147V-293h-.13A1.3,1.3,0,0,0,292.794-292.876Z" transform="translate(-275.051 -206.071)" fill="#fff"/>
    <path id="Path_467" data-name="Path 467" d="M329-236.905v1.1l.235-.035a1.1,1.1,0,0,0,.683-1.69,1.117,1.117,0,0,0-.771-.471H329Z" transform="translate(-309.679 -257.833)" fill="#fff"/>
    <path id="Path_468" data-name="Path 468" d="M38.22-347.543a3.255,3.255,0,0,0-1.848.695c-.153.171-.177.241-.147.412.041.271.206.436.612.624,1.642.736,4.9.441,5.286-.471.288-.689-.865-1.242-2.684-1.289A10.094,10.094,0,0,0,38.22-347.543Z" transform="translate(-34.129 -154.707)" fill="#fff"/>
    <path id="Path_469" data-name="Path 469" d="M36-297.984v6.022l.96.006a5.267,5.267,0,0,1,2.4.436c.23.094.43.177.442.177s.024-.96.035-2.131l.018-2.137.159-.271a2.641,2.641,0,0,1,.4-.489,4.434,4.434,0,0,1,1.4-.718l.194-.035v-3.438c0-1.89-.018-3.438-.047-3.438a3.95,3.95,0,0,0-.465.177,5.412,5.412,0,0,1-2.49.436,5.412,5.412,0,0,1-2.49-.436,3.95,3.95,0,0,0-.465-.177C36.018-304,36-301.292,36-297.984Z" transform="translate(-33.928 -195.718)" fill="#fff"/>
    <path id="Path_470" data-name="Path 470" d="M120.3-173.782c-1.095.194-1.7.547-1.7.995,0,.377.453.695,1.307.924a9.208,9.208,0,0,0,2.885.082c1.177-.206,1.778-.559,1.778-1.048a.844.844,0,0,0-.253-.371,3.187,3.187,0,0,0-1.648-.612A9.907,9.907,0,0,0,120.3-173.782Z" transform="translate(-111.665 -318.189)" fill="#fff"/>
    <path id="Path_471" data-name="Path 471" d="M118-128.163v2.832l.253.247c.865.824,3.573.989,5.069.306a2.067,2.067,0,0,0,.494-.33L124-125.3v-5.687l-.418.177a9.781,9.781,0,0,1-.989.324,4.751,4.751,0,0,1-1.536.153,5.808,5.808,0,0,1-2.837-.571L118-131Z" transform="translate(-111.101 -358.534)" fill="#fff"/>
    <path id="Path_472" data-name="Path 472" d="M2.019-82.535A3.723,3.723,0,0,0,.1-81.87a.563.563,0,0,0,0,.765c.871.936,4.6.965,5.569.041.318-.306.318-.53,0-.836a4.1,4.1,0,0,0-2.5-.671A8.473,8.473,0,0,0,2.019-82.535Z" transform="translate(0 -404.108)" fill="#fff"/>
    <path id="Path_473" data-name="Path 473" d="M0-38.311v.7l.188.182a4.206,4.206,0,0,0,2.767.724,4.327,4.327,0,0,0,2.761-.706l.23-.218v-.683A5.278,5.278,0,0,0,5.922-39c-.012,0-.212.082-.453.182a5.83,5.83,0,0,1-2.261.447,6.156,6.156,0,0,1-3.1-.6C.006-39.012,0-38.959,0-38.311Z" transform="translate(-0.047 -445.118)" fill="#fff"/>
  </g>
</svg>
