<svg xmlns="http://www.w3.org/2000/svg" width="17.376" height="24.296" viewBox="0 0 17.376 24.296">
  <g id="location_1_" data-name="location(1)" transform="translate(-96 479.703)">
    <path id="Path_356" data-name="Path 356" d="M103.148-479.611a8.638,8.638,0,0,0-4.565,2.377A8.423,8.423,0,0,0,96-471.052a13.175,13.175,0,0,0,1.406,5.6,44.316,44.316,0,0,0,6.122,9.221,5.555,5.555,0,0,0,.722.744,1.257,1.257,0,0,0,.868,0,38.833,38.833,0,0,0,4.315-5.536,28.076,28.076,0,0,0,3.121-5.862,10.219,10.219,0,0,0,.407-6.839,8.751,8.751,0,0,0-5.319-5.509,7.106,7.106,0,0,0-2.768-.467A7.586,7.586,0,0,0,103.148-479.611Zm2.708,1.764a7.4,7.4,0,0,1,.923.223,6.92,6.92,0,0,1,4.722,5.471,8.576,8.576,0,0,1-.109,2.822,28.087,28.087,0,0,1-5.026,9.531,19.814,19.814,0,0,1-1.677,2.008,21.7,21.7,0,0,1-1.824-2.193,27.887,27.887,0,0,1-4.89-9.346,8.576,8.576,0,0,1-.109-2.822,6.9,6.9,0,0,1,1.938-3.761,6.788,6.788,0,0,1,4.337-2A6.708,6.708,0,0,1,105.857-477.847Z" transform="translate(0)" fill="#796cff"/>
    <path id="Path_357" data-name="Path 357" d="M194.717-383.794a3.716,3.716,0,0,0-1.905,1.243,4.107,4.107,0,0,0-.668,1.384,5.125,5.125,0,0,0,.022,1.628A3.586,3.586,0,0,0,194.69-377a4.481,4.481,0,0,0,1.742,0,3.569,3.569,0,0,0,2.2-1.737,3.242,3.242,0,0,0,.407-1.655,3.209,3.209,0,0,0-.407-1.65,3.56,3.56,0,0,0-2.214-1.742A5.133,5.133,0,0,0,194.717-383.794Zm1.59,1.878a1.672,1.672,0,0,1,.776,2.252,1.691,1.691,0,0,1-3.018.076,1.994,1.994,0,0,1-.141-1.281,1.855,1.855,0,0,1,.678-.928,1.453,1.453,0,0,1,.988-.277A1.247,1.247,0,0,1,196.307-381.916Z" transform="translate(-90.874 -90.639)" fill="#796cff"/>
  </g>
</svg>
