<svg xmlns="http://www.w3.org/2000/svg" width="29.461" height="29.425" viewBox="0 0 29.461 29.425">
  <g id="mortgage" transform="translate(-24 488.025)">
    <path id="Path_423" data-name="Path 423" d="M37.778-487.877c-.324.114-1.765,1.06-6.857,4.514-3.543,2.406-6.514,4.432-6.591,4.508a1.03,1.03,0,0,0-.33.9c0,.756.387,1.137,1.1,1.092l.394-.025,6.559-4.552c3.606-2.5,6.61-4.552,6.68-4.552s3.079,2.051,6.686,4.552l6.553,4.552.394.025c.711.044,1.1-.337,1.1-1.092a1.037,1.037,0,0,0-.33-.9c-.076-.076-3.048-2.1-6.591-4.508-5.1-3.467-6.533-4.4-6.857-4.514A3.146,3.146,0,0,0,37.778-487.877Z" fill="#fff"/>
    <path id="Path_424" data-name="Path 424" d="M40-471.492v.508h4.064V-472H40Z" transform="translate(-14.984 -15.008)" fill="#fff"/>
    <path id="Path_425" data-name="Path 425" d="M56-438.1v1.911l1.016-.686,1.01-.686.006-1.225V-440H56Z" transform="translate(-29.968 -44.976)" fill="#fff"/>
    <path id="Path_426" data-name="Path 426" d="M54.889-434.178c-3.46,2.4-6.419,4.426-6.584,4.5l-.3.133v15.334h6.68l-.152-.2a7.83,7.83,0,0,1-1.257-2.908,5.686,5.686,0,0,1-.108-1.683,6.656,6.656,0,0,1,.578-2.768,13.358,13.358,0,0,1,2.279-3.257c.8-.984,1.473-1.816,1.486-1.86a21.253,21.253,0,0,0-1.3-1.841c-.73-.971-1.365-1.867-1.416-1.987a2.3,2.3,0,0,1-.1-.794,1.662,1.662,0,0,1,.47-1.321,2.094,2.094,0,0,1,1.816-.59,2.293,2.293,0,0,1,1.124,1.086c.419.717.54.857.756.857.311,0,.413-.1.775-.717a2.683,2.683,0,0,1,1.035-1.162,1.753,1.753,0,0,1,1.022-.019,2.653,2.653,0,0,1,.984,1.041c.444.768.533.857.813.857s.368-.1.813-.857a2.418,2.418,0,0,1,1.016-1.054,2.255,2.255,0,0,1,1.333.127,2.414,2.414,0,0,1,.914.908,1.5,1.5,0,0,1,.146.844,2.3,2.3,0,0,1-.1.794c-.051.121-.686,1.022-1.416,1.994-1.213,1.619-1.321,1.784-1.251,1.9.044.07.711.9,1.473,1.829,1.879,2.292,2.254,2.921,2.635,4.362a8.518,8.518,0,0,1,.083,3.308,7.755,7.755,0,0,1-1.257,2.9l-.152.21h6.68V-429.55l-.3-.133c-.165-.07-3.1-2.076-6.534-4.457s-6.267-4.343-6.318-4.362S58.464-436.655,54.889-434.178Zm-4.857,5.74v.508H49.016v-1.016h1.016Zm0,2.032v.508H49.016v-1.016h1.016Zm0,2.032v.508H49.016v-1.016h1.016ZM73.4-419.8v.508H72.382v-1.016H73.4Zm0,2.032v.508H72.382v-1.016H73.4Zm0,2.032v.508H72.382v-1.016H73.4Z" transform="translate(-22.476 -46.378)" fill="#fff"/>
    <path id="Path_427" data-name="Path 427" d="M168.457-343.873A.948.948,0,0,0,168-343a1.421,1.421,0,0,0,.07.476c.044.07.66.914,1.378,1.867l1.3,1.733h5.689l1.3-1.733c.717-.952,1.333-1.8,1.378-1.867a1.421,1.421,0,0,0,.07-.476.93.93,0,0,0-.965-1c-.343,0-.4.063-.864.857a2.653,2.653,0,0,1-.984,1.041,1.73,1.73,0,0,1-1.016-.019,2.642,2.642,0,0,1-1.01-1.117c-.419-.717-.47-.762-.756-.762s-.356.089-.787.825a2.78,2.78,0,0,1-.965,1.054,1.662,1.662,0,0,1-1.054,0,2.452,2.452,0,0,1-.946-1.022c-.464-.794-.521-.857-.864-.857A1.074,1.074,0,0,0,168.457-343.873Z" transform="translate(-134.857 -134.88)" fill="#fff"/>
    <path id="Path_428" data-name="Path 428" d="M148.128-247.829c-.356.387-2.737,3.333-3.01,3.721a7.005,7.005,0,0,0-.9,1.924,8.081,8.081,0,0,0-.121,3.079,6.5,6.5,0,0,0,1.708,3.276,6.553,6.553,0,0,0,3,1.841,6.009,6.009,0,0,0,2.3.171,6.009,6.009,0,0,0,2.3-.171,6.5,6.5,0,0,0,2.825-1.657,6.485,6.485,0,0,0,1.765-2.94,5.073,5.073,0,0,0,.2-1.575,5.876,5.876,0,0,0-.419-2.673,12.454,12.454,0,0,0-2.3-3.327L154-247.968l-2.857-.019L148.287-248Zm2.483,1.352c0,.451.013.508.121.508.063,0,.292.019.508.038l.387.044v-1.1h1.016v1.537l.286.317a2.487,2.487,0,0,1,.648,1.346l.038.356h-.971v-.19a1.52,1.52,0,0,0-.857-1.213,2.878,2.878,0,0,0-1.219-.121h-.971V-244c0,1.067.051,1.276.4,1.638.3.317.508.4,1.213.5a2.5,2.5,0,0,1,1.664.743c.648.654.781,1.181.787,3.1v1.194h-1.016v1.016h-1.016v-1l-.387-.044c-.679-.07-.629-.108-.629.5v.54h-1.016v-1.562l-.279-.292a2.4,2.4,0,0,1-.654-1.346l-.038-.356h.971v.2a1.525,1.525,0,0,0,.9,1.219,3.525,3.525,0,0,0,1.194.1h.952v-.952c0-1.067-.051-1.276-.4-1.638-.3-.317-.508-.4-1.213-.5a2.5,2.5,0,0,1-1.664-.743c-.648-.654-.781-1.181-.787-3.1v-1.187h1.016v-1.016h1.016Zm6.038,3.778a5.075,5.075,0,0,1,.5,2.318,5,5,0,0,1-.425,2.152,2.115,2.115,0,0,1-.432-.152c-.324-.14-.406-.2-.381-.279a5.133,5.133,0,0,0,.286-1.721,4.319,4.319,0,0,0-.54-2.21,2.589,2.589,0,0,1-.26-.565c.013-.013.171-.14.356-.273l.337-.254.159.229A8.13,8.13,0,0,1,156.649-242.7Zm-.94,5.422a1.045,1.045,0,0,1,.3.279,6.4,6.4,0,0,1-.99,1,1.372,1.372,0,0,1-.317-.349l-.26-.343.419-.432c.229-.241.451-.419.489-.4S155.544-237.4,155.709-237.276Z" transform="translate(-112.388 -224.785)" fill="#fff"/>
  </g>
</svg>
