<?xml version="1.0" encoding="utf-8"?>
<!-- Svg Vector Icons : http://www.onlinewebfonts.com/icon -->
<!DOCTYPE svg PUBLIC "-//W3C//DTD SVG 1.1//EN" "http://www.w3.org/Graphics/SVG/1.1/DTD/svg11.dtd">
<svg version="1.1" xmlns="http://www.w3.org/2000/svg" xmlns:xlink="http://www.w3.org/1999/xlink" x="0px" y="0px" viewBox="0 0 1000 1000" enable-background="new 0 0 1000 1000" xml:space="preserve" fill="#7a6cff">
<metadata> Svg Vector Icons : http://www.onlinewebfonts.com/icon </metadata>
<g><g transform="translate(0.000000,511.000000) scale(0.100000,-0.100000)"><path d="M3737.6,3715.2c-332.2-97.7-788.9-263.8-1025.8-376.1C1202.5,2621,286.6,1329,125.4-319.6c-144.1-1463,329.7-2559.6,1301.8-3009c349.3-158.8,532.4-192.9,1052.7-190.5c420.1,2.5,486,7.3,705.8,65.9C4228.6-3174.7,4822-2322.3,4756.1-1193.9c-19.5,337.1-85.5,595.9-227.1,884.1c-95.2,195.4-149,266.2-324.8,442.1c-366.4,363.9-759.6,515.3-1345.7,517.8c-593.5,2.4-996.5-146.5-1348.2-500.7c-105-105-195.4-190.5-202.7-190.5c-26.9,0-9.8,183.2,39.1,407.9c168.5,779.1,578.8,1465.4,1155.2,1927c378.6,302.8,823.1,539.8,1360.4,718c368.8,124.6,373.7,127,412.8,219.8c53.7,131.9-39.1,395.7-168.5,471.4C4028.3,3749.4,3872,3754.3,3737.6,3715.2z"/><path d="M8793.3,3683.5c-1416.6-390.8-2518.1-1257.8-3077.4-2417.9C5168.9,132.3,5098-1330.7,5545-2280.8c119.7-254,214.9-393.2,412.8-603.2c271.1-280.9,600.8-473.8,1003.8-581.3c180.7-48.8,266.2-56.2,647.2-56.2c341.9,0,483.6,9.8,635,46.4c862.1,197.8,1423.9,747.4,1616.8,1580.2c29.3,131.9,41.5,285.7,39.1,571.5c0,464-41.5,652.1-217.4,1013.6c-95.3,195.4-149,266.2-324.8,442.1c-368.8,363.9-762,515.3-1345.7,517.8c-620.4,2.4-1069.7-173.4-1397-544.6c-70.8-80.6-139.2-146.6-151.4-146.6c-34.2,0,0,261.3,70.8,539.8c251.6,991.6,847.5,1739,1770.7,2220.1c178.3,92.8,732.7,317.5,781.6,317.5c12.2,0,83,22,158.8,51.3c210,78.1,246.7,183.2,156.3,425C9311.1,3751.8,9179.2,3790.9,8793.3,3683.5z"/></g></g>
</svg>