<svg xmlns="http://www.w3.org/2000/svg" width="34.194" height="25.441" viewBox="0 0 34.194 25.441">
  <g id="money_2_1_" data-name="money(2)(1)" transform="translate(0 446.376)">
    <path id="Path_439" data-name="Path 439" d="M169.887-446.318c-.915.234-16.786,4.7-16.819,4.742-.02.02-.007.06.027.094.06.067,18.97-2.612,19.05-2.692a3.861,3.861,0,0,0-.187-1.055A1.68,1.68,0,0,0,169.887-446.318Z" transform="translate(-142.835 0)" fill="#fff"/>
    <path id="Path_440" data-name="Path 440" d="M158.153-398.441c-5.564.8-10.126,1.463-10.133,1.463s-.02.053-.02.107c0,.087,1.289.1,11.222.1,10.16,0,11.228-.007,11.268-.107a8.464,8.464,0,0,0-.227-1.9,1.294,1.294,0,0,0-.421-.681,1.455,1.455,0,0,0-1.2-.448C168.439-399.9,163.717-399.243,158.153-398.441Z" transform="translate(-138.114 -43.368)" fill="#fff"/>
    <path id="Path_441" data-name="Path 441" d="M.962-337.691a1.953,1.953,0,0,0-.835.808c-.12.254-.127.668-.127,8.182,0,7.534.007,7.929.127,8.182a1.712,1.712,0,0,0,.775.795l.267.14H33.03l.274-.147a2.515,2.515,0,0,0,.481-.361c.441-.454.421.067.4-8.723l-.02-7.955-.2-.287a2.476,2.476,0,0,0-.494-.494l-.287-.2-16-.013C3.9-337.777,1.136-337.764.962-337.691Zm10.594,2.244a.531.531,0,0,1-.007.708c-.134.12-.307.127-3.473.147l-3.333.02-.167.327a2.091,2.091,0,0,1-.969,1l-.4.214v8.71l.327.147a2.375,2.375,0,0,1,1.029,1.022,1.19,1.19,0,0,0,.207.347c.04.027,1.556.053,3.366.053,3.2,0,3.293.007,3.42.134a.531.531,0,0,1-.007.708c-.134.12-.294.127-3.8.127-4.161,0-3.894.04-3.981-.561a1.043,1.043,0,0,0-.975-1.009c-.681-.134-.621.354-.641-5.21-.02-5.357-.02-5.29.367-5.384a1.758,1.758,0,0,0,.875-.327,1.148,1.148,0,0,0,.381-.788.8.8,0,0,1,.174-.387c.12-.12.254-.127,3.8-.127C11.335-335.58,11.422-335.58,11.556-335.446Zm6.913-.007a6.484,6.484,0,0,1,3.507,1.937,6.217,6.217,0,0,1,1.576,2.4,5.867,5.867,0,0,1,.407,2.678,5.634,5.634,0,0,1-.681,2.779,6.69,6.69,0,0,1-3.139,3.139,6.569,6.569,0,0,1-2.371.708,6.513,6.513,0,0,1-3.707-.708,6.69,6.69,0,0,1-3.139-3.139,5.6,5.6,0,0,1-.681-2.779,5.973,5.973,0,0,1,.407-2.678,6.267,6.267,0,0,1,1.576-2.4,6.548,6.548,0,0,1,3.473-1.937A8.049,8.049,0,0,1,18.469-335.453Zm11.783,0a.8.8,0,0,1,.174.387,1.148,1.148,0,0,0,.381.788,1.758,1.758,0,0,0,.875.327c.387.093.387.027.367,5.384-.02,5.571.04,5.076-.648,5.21a1.025,1.025,0,0,0-.969,1c-.08.615.187.574-3.981.574-3.507,0-3.667-.007-3.8-.127a.531.531,0,0,1-.007-.708c.127-.127.22-.134,3.427-.134,1.8,0,3.32-.027,3.36-.053a1.19,1.19,0,0,0,.207-.347,2.375,2.375,0,0,1,1.029-1.022l.327-.147v-8.71l-.4-.214a2.091,2.091,0,0,1-.969-1l-.167-.327-3.333-.02c-3.166-.02-3.34-.027-3.473-.147a.531.531,0,0,1-.007-.708c.134-.134.22-.134,3.807-.134C30-335.58,30.131-335.573,30.251-335.453ZM7-330.129a1.724,1.724,0,0,1,.822.795,1.561,1.561,0,0,1-1.409,2.191,1.258,1.258,0,0,1-.741-.2,1.543,1.543,0,0,1,.728-2.892A1.821,1.821,0,0,1,7-330.129Zm21.374,0a1.724,1.724,0,0,1,.822.795,1.561,1.561,0,0,1-1.409,2.191,1.258,1.258,0,0,1-.741-.2,1.543,1.543,0,0,1,.728-2.892A1.821,1.821,0,0,1,28.374-330.129Z" transform="translate(0 -101.353)" fill="#fff"/>
    <path id="Path_442" data-name="Path 442" d="M172.655-289.772a5.92,5.92,0,0,0-4.575,4.542,7.446,7.446,0,0,0,.033,2.638,7.073,7.073,0,0,0,1.149,2.338,5.957,5.957,0,0,0,5.243,2.137,5.592,5.592,0,0,0,2.1-.648,5.683,5.683,0,0,0,2.525-2.592,5.045,5.045,0,0,0,.581-2.839,5.2,5.2,0,0,0-.568-2.438,5.952,5.952,0,0,0-4.141-3.146A7.925,7.925,0,0,0,172.655-289.772Zm1.47,1.1a.934.934,0,0,1,.267.761c0,.267.013.281.341.428a2.012,2.012,0,0,1,1.176,1.65c.04.494-.1.721-.434.721-.3,0-.474-.18-.521-.568a1.052,1.052,0,0,0-1.1-.989,1,1,0,0,0-1.069,1.069c0,.681.367,1.029,1.189,1.129a2.069,2.069,0,0,1,1.95,2.137,2.038,2.038,0,0,1-1.242,1.857c-.281.114-.294.134-.294.407,0,.588-.314.962-.688.822-.247-.094-.327-.247-.361-.695l-.033-.421-.287-.114a2.067,2.067,0,0,1-1.029-1c-.374-.735-.247-1.389.26-1.389.26,0,.448.194.5.514a1.1,1.1,0,0,0,.835,1.022,1.118,1.118,0,0,0,1.236-.534,1.407,1.407,0,0,0-.033-1.115c-.187-.314-.4-.421-.948-.494a2.207,2.207,0,0,1-1.864-1.236,1.414,1.414,0,0,1-.18-.975,1.958,1.958,0,0,1,1.182-1.8c.314-.14.341-.174.341-.387C173.323-288.563,173.67-288.91,174.124-288.67Z" transform="translate(-156.758 -146.059)" fill="#fff"/>
    <path id="Path_443" data-name="Path 443" d="M88.1-209.866a.678.678,0,0,0-.08.728.554.554,0,0,0,.668.207c.247-.1.334-.247.334-.561a.488.488,0,0,0-.534-.508A.6.6,0,0,0,88.1-209.866Z" transform="translate(-82.079 -220.587)" fill="#fff"/>
    <path id="Path_444" data-name="Path 444" d="M408.1-209.866a.678.678,0,0,0-.08.728.554.554,0,0,0,.668.207c.247-.1.334-.247.334-.561a.488.488,0,0,0-.534-.508A.6.6,0,0,0,408.1-209.866Z" transform="translate(-380.704 -220.587)" fill="#fff"/>
  </g>
</svg>
