<svg xmlns="http://www.w3.org/2000/svg" width="34.627" height="27.398" viewBox="0 0 34.627 27.398" fill="black">
  <path id="Path_216" data-name="Path 216" d="M2.109-457.654A2.092,2.092,0,0,0,.9-456.529l-.142.312-.02,9.905L.72-436.4H.489a.738.738,0,0,0-.407.142l-.183.142.02,1.843c.02,1.829.02,1.836.2,2.222a3.249,3.249,0,0,0,1.917,1.619c.508.142,29.776.142,30.285,0a3.359,3.359,0,0,0,1.829-1.43c.339-.657.373-.888.373-2.554v-1.592l-.2-.2a.575.575,0,0,0-.44-.2h-.244l-.014-9.912-.02-9.905-.142-.312a2.195,2.195,0,0,0-.955-1.009l-.325-.169-14.939-.014C5.909-457.729,2.265-457.715,2.109-457.654ZM31.7-456.313a.62.62,0,0,1,.386.285c.136.21.136.427.136,9.919v9.709H30.733v-8.909c0-9.553.007-9.262-.325-9.444-.1-.054-2.7-.075-8.706-.075H13.139l-.183.176a.762.762,0,0,0,0,1l.183.176H29.311V-436.4H5.056v-17.073H7.678l.183-.176a.762.762,0,0,0,0-1l-.183-.176H5.889a11.713,11.713,0,0,0-1.931.075c-.332.183-.325-.108-.325,9.444v8.909H2.143v-9.709c0-9.512,0-9.709.136-9.919a.653.653,0,0,1,.352-.285C2.956-456.407,31.363-456.407,31.7-456.313ZM10.354-434.056l.02.921.224.2.217.2H23.552l.217-.2.224-.2.02-.921.027-.921h9.153l-.034.962c-.041,1.077-.115,1.355-.481,1.741a2.3,2.3,0,0,1-.556.386l-.339.163H2.583l-.339-.163a2.447,2.447,0,0,1-.556-.386c-.366-.386-.44-.664-.481-1.741l-.034-.962h9.153Zm12.249-.515v.406H11.763v-.813H22.6Z" transform="translate(0.1 457.723)" fill="#fff"/>
</svg>
