<svg xmlns="http://www.w3.org/2000/svg" width="27.766" height="27.821" viewBox="0 0 27.766 27.821">
  <g id="star" transform="translate(0)">
    <path id="Path_358" data-name="Path 358" d="M55.861-469.831a2.94,2.94,0,0,0-1.684,1.119c-.1.124-.793,1.548-1.561,3.16a28.354,28.354,0,0,1-1.5,2.991c-.065.026-1.5.267-3.193.54s-3.2.54-3.349.6a3.063,3.063,0,0,0-1.736,1.814,3.14,3.14,0,0,0,.319,2.614c.1.156.956,1.08,1.905,2.048s1.97,2.035,2.283,2.361l.572.6-.52,3.173c-.644,3.993-.611,3.707-.533,4.188a3.022,3.022,0,0,0,2.985,2.53c.689-.007,1.066-.176,3.876-1.736,1.5-.839,2.777-1.509,2.835-1.489s1.288.683,2.738,1.489,2.777,1.509,2.952,1.567a2.884,2.884,0,0,0,2.283-.182,3.028,3.028,0,0,0,1.652-2.614c0-.182-.917-6.392-1-6.789a29.145,29.145,0,0,1,2.348-2.536c2.634-2.705,2.751-2.861,2.894-3.817a3.025,3.025,0,0,0-1.834-3.206c-.215-.078-1.554-.319-3.473-.611-1.9-.293-3.147-.514-3.193-.566s-.7-1.418-1.47-3.044c-1.379-2.946-1.392-2.959-1.814-3.388A2.862,2.862,0,0,0,55.861-469.831Z" transform="translate(-42.684 469.917)" fill="#ffd213"/>
  </g>
</svg>
