<svg xmlns="http://www.w3.org/2000/svg" width="26.261" height="24.507" viewBox="0 0 26.261 24.507">
  <g id="comment" transform="translate(-16 479.927)">
    <path id="Path_71" data-name="Path 71" d="M17.795-479.827a2.709,2.709,0,0,0-1.707,1.751c-.077.268-.088,1.111-.088,7.78,0,7.189.005,7.5.1,7.813a2.674,2.674,0,0,0,1.751,1.723,8.037,8.037,0,0,0,1.849.088h1.548v2.336c0,2.238.005,2.347.109,2.522a.817.817,0,0,0,.755.394,1.226,1.226,0,0,0,.41-.06c.066-.038,1.565-1.22,3.326-2.626l3.212-2.566h5.526c5.269,0,5.542-.005,5.86-.1a2.674,2.674,0,0,0,1.723-1.751c.077-.268.088-1.111.088-7.774s-.011-7.506-.088-7.774a2.674,2.674,0,0,0-1.723-1.751c-.323-.1-.684-.1-11.336-.1C18.593-479.925,18.09-479.92,17.795-479.827Zm21.972,1.7a.9.9,0,0,1,.607.443c.109.186.109.284.109,7.381s0,7.195-.109,7.381a.9.9,0,0,1-.607.443c-.12.033-2.643.055-5.8.055H28.381l-.191.131c-.1.071-1.3,1.018-2.659,2.106s-2.484,1.975-2.5,1.975S23-459.031,23-460.032c0-1.7-.005-1.827-.109-1.992-.224-.378-.186-.367-2.435-.4-1.915-.027-2.035-.033-2.216-.142a.952.952,0,0,1-.465-.75c-.016-.159-.027-3.414-.016-7.233.016-6.833.016-6.954.126-7.134a.916.916,0,0,1,.58-.443C18.73-478.185,39.5-478.191,39.767-478.125Z" fill="#fff"/>
    <path id="Path_72" data-name="Path 72" d="M112.394-351.891a.829.829,0,0,0-.394.766.829.829,0,0,0,.394.766c.175.109.29.109,7.484.109s7.309,0,7.484-.109a.829.829,0,0,0,.394-.766.829.829,0,0,0-.394-.766c-.175-.109-.29-.109-7.484-.109S112.569-352,112.394-351.891Z" transform="translate(-90.748 -120.928)" fill="#fff"/>
    <path id="Path_73" data-name="Path 73" d="M112.394-287.891a.829.829,0,0,0-.394.766.829.829,0,0,0,.394.766c.175.1.285.109,3.983.109s3.808-.005,3.983-.109a.829.829,0,0,0,.394-.766.829.829,0,0,0-.394-.766c-.175-.1-.284-.109-3.983-.109S112.569-287.995,112.394-287.891Z" transform="translate(-90.748 -181.426)" fill="#fff"/>
  </g>
</svg>
