<svg xmlns="http://www.w3.org/2000/svg" width="24.207" height="26.72" viewBox="0 0 24.207 26.72">
  <g id="notification_2_" data-name="notification(2)" transform="translate(-24.291 512.125)">
    <path id="Path_74" data-name="Path 74" d="M35.46-511.988a3,3,0,0,0-2.032,2.993l.016.376-.575.251a8.615,8.615,0,0,0-4.936,6.091,22.06,22.06,0,0,0-.209,4.482v2.758l-.115.073a1.713,1.713,0,0,1-.5.1,3.072,3.072,0,0,0-2.789,3.432,3.02,3.02,0,0,0,1.635,2.3c.606.3.637.308,3.724.308H32.5l.068.35a3.67,3.67,0,0,0,1.081,1.975,3.565,3.565,0,0,0,1.515.951,2.884,2.884,0,0,0,1.228.141,2.884,2.884,0,0,0,1.228-.141,3.565,3.565,0,0,0,1.515-.951,3.67,3.67,0,0,0,1.081-1.975l.068-.35h2.821c3.087,0,3.119-.005,3.724-.308a3.075,3.075,0,0,0,1.656-2.513,3.078,3.078,0,0,0-2.81-3.223,1.629,1.629,0,0,1-.491-.1l-.12-.073v-2.706c0-1.484-.026-2.967-.052-3.291a8.567,8.567,0,0,0-.919-3.223,8.871,8.871,0,0,0-3.056-3.463,9.926,9.926,0,0,0-1.645-.846c-.052,0-.063-.089-.042-.407a2.954,2.954,0,0,0-2.027-3.014A3.239,3.239,0,0,0,35.46-511.988Zm1.395,1.729a1.234,1.234,0,0,1,.726.992l.031.24-.256-.042a11.174,11.174,0,0,0-1.87,0l-.308.042.031-.24a1.268,1.268,0,0,1,.716-.992A1.419,1.419,0,0,1,36.854-510.259Zm.857,3.056a7.067,7.067,0,0,1,5.339,5.192c.193.752.2.982.235,4.179l.031,3.186.141.3a2.452,2.452,0,0,0,.794.914,2.188,2.188,0,0,0,1.081.329,1.382,1.382,0,0,1,.977.387,1.191,1.191,0,0,1-.021,1.807c-.387.334.35.313-9.9.313H27.024l-.225-.11a1.364,1.364,0,0,1-.721-1.29,1.451,1.451,0,0,1,.747-.977,2.65,2.65,0,0,1,.632-.131,2.188,2.188,0,0,0,1.081-.329,2.452,2.452,0,0,0,.794-.914l.141-.3.031-3.317a21.935,21.935,0,0,1,.141-3.813,6.813,6.813,0,0,1,1.828-3.458,6.861,6.861,0,0,1,4.372-2.1A8.455,8.455,0,0,1,37.711-507.2Zm.721,18.539a2.236,2.236,0,0,1-1.144,1.322,1.455,1.455,0,0,1-.893.167,1.437,1.437,0,0,1-.888-.167,2.26,2.26,0,0,1-1.149-1.322l-.047-.157h4.168Z" transform="translate(0)" fill="#181C3A"/>
  </g>
</svg>
