<svg xmlns="http://www.w3.org/2000/svg" width="30.176" height="20.943" viewBox="0 0 30.176 20.943">
  <g id="Personal_Luggage_4x" data-name="Personal Luggage@4x" transform="translate(-0.086 389)">
    <path id="Path_62" data-name="Path 62" d="M11.642-388.9c-.048.054-.393.754-.759,1.551l-.668,1.448-3.468.032c-3.376.027-3.473.032-3.855.145a3.864,3.864,0,0,0-2.638,2.515l-.145.431-.016,5.665c-.016,6.4-.032,6.085.4,6.962a2.937,2.937,0,0,0,.722.975,2.79,2.79,0,0,0,.969.711c.937.452-.118.42,13.192.4l11.819-.016.431-.151a3.79,3.79,0,0,0,2.267-2c.393-.824.372-.436.372-6.731,0-6.364.027-5.9-.42-6.811a2.815,2.815,0,0,0-.684-.915,3.5,3.5,0,0,0-2.261-1.125c-.275-.038-1.712-.059-3.608-.059h-3.15l-.695-1.513a13.566,13.566,0,0,0-.792-1.561c-.059-.027-1.47-.048-3.511-.048C11.911-389,11.723-388.995,11.642-388.9Zm6.951,1.858c.269.6.5,1.1.5,1.125s-1.766.043-3.931.043-3.931-.005-3.931-.016.21-.463.463-1.012.485-1.045.512-1.115l.048-.118h2.918l2.924.005Zm-13.5,2.364c.038.156.786,2.439,1.664,5.078,1.427,4.286,1.61,4.8,1.728,4.857a24.305,24.305,0,0,0,3.193.07h3.053v.307c.005.339.07.468.275.549.355.135.6-.07.63-.533l.022-.323h2.773a16.136,16.136,0,0,0,2.918-.075c.14-.075.232-.323,1.346-3.7.657-1.992,1.405-4.27,1.664-5.061l.468-1.438h.915a3.736,3.736,0,0,1,2.025.35,3.027,3.027,0,0,1,1.276,1.271c.345.705.339.555.323,6.574l-.016,5.449-.14.361a3.065,3.065,0,0,1-2.078,1.9c-.458.118-23.471.118-23.923,0a3.031,3.031,0,0,1-2.127-2.1A56.948,56.948,0,0,1,1-376.976v-5.5l.135-.42a2.613,2.613,0,0,1,.684-1.136,3.076,3.076,0,0,1,2.525-.921l.678-.005Zm18.28,1.238c-.269.84-.964,2.945-1.54,4.685l-1.045,3.166H15.643v-.716c0-.781-.043-.937-.291-1.05a.44.44,0,0,0-.517.1c-.1.1-.108.183-.108.888v.781H9.041l-1.524-4.615c-.84-2.541-1.54-4.647-1.551-4.685-.022-.059,1.691-.07,8.938-.07H23.87Z" transform="translate(0 0)" fill="#fff"/>
  </g>
</svg>
