<svg xmlns="http://www.w3.org/2000/svg" width="31.287" height="23" viewBox="0 0 31.287 23">
  <g id="Wallet_4x" data-name="Wallet@4x" transform="translate(-0.098 412.909)">
    <path id="Path_52" data-name="Path 52" d="M14.7-410.137l-8.282,2.76-1.645.039c-1.818.045-2,.073-2.733.429A3.965,3.965,0,0,0,.471-405.33c-.39.809-.385.653-.368,6.943l.017,5.633.145.4a3.569,3.569,0,0,0,1.918,2.108c.775.357-.106.335,12.827.335,11.3,0,11.84-.006,12.186-.1a3.618,3.618,0,0,0,2.565-2.582,6.919,6.919,0,0,0,.112-1.846v-1.411h.608c.513,0,.625-.017.736-.106l.134-.106.017-2.961.017-2.961-.139-.139c-.134-.134-.173-.139-.753-.139h-.608l-.022-1.1a4.653,4.653,0,0,0-.145-1.461,3.637,3.637,0,0,0-2.381-2.32,4.233,4.233,0,0,0-1.166-.178l-.714-.039-.915-2.677a22.8,22.8,0,0,0-1.032-2.777.529.529,0,0,0-.323-.089C23.075-412.9,19.26-411.66,14.7-410.137Zm8.343-1.322c.067.2.413,1.2.77,2.236l.641,1.885-7.568-.006-7.568-.006L16.07-409.6c3.714-1.238,6.77-2.242,6.8-2.236A1.039,1.039,0,0,1,23.047-411.459Zm3.8,5.153a2.552,2.552,0,0,1,1.255.692c.669.636.82,1.076.82,2.409v.943l-6.006.011-6.012.017-.307.123a2.656,2.656,0,0,0-1.405,1.411,3.781,3.781,0,0,0-.145,1.45,8.186,8.186,0,0,0,.045,1.45,2.539,2.539,0,0,0,1.2,1.628c.619.335.4.323,6.782.323h5.845v1.389a5.479,5.479,0,0,1-.112,1.74,2.712,2.712,0,0,1-1.924,1.807c-.29.072-1.684.084-11.879.084-12.587,0-11.884.017-12.537-.312A2.943,2.943,0,0,1,1.1-392.9c-.039-.156-.061-2.225-.061-5.711,0-4.445.017-5.521.078-5.75a2.8,2.8,0,0,1,2-1.952c.229-.056,2.8-.067,11.834-.073C24.954-406.39,26.543-406.378,26.85-406.306Zm3.58,7.222v2.286l-6.676-.011-6.681-.017-.223-.123a1.92,1.92,0,0,1-.775-.859A3.62,3.62,0,0,1,16-399.145c.017-.943.033-1.11.128-1.3a1.629,1.629,0,0,1,1.16-.859c.128-.028,3.14-.05,6.692-.056l6.452-.006Z" transform="translate(0)" fill="#fff"/>
    <path id="Path_53" data-name="Path 53" d="M320.28-172.905a.616.616,0,0,0-.156.307c-.028.178-.006.229.139.379l.167.167h.708c.92,0,1.087-.078,1.087-.507a.457.457,0,0,0-.139-.3c-.128-.134-.162-.139-.909-.139C320.52-173,320.38-172.983,320.28-172.905Z" transform="translate(-302.169 -226.53)" fill="#fff"/>
  </g>
</svg>
