<svg xmlns="http://www.w3.org/2000/svg" width="700" height="493" viewBox="0 0 700 493">
  <g id="logo_1_" data-name="logo(1)" transform="translate(0 493)">
    <path id="Path_707" data-name="Path 707" d="M122.7-370.2C55.2-302.7,0-247,0-246.5,0-245.2,245.2,0,246.5,0c.5,0,24.1-23.1,52.2-51.2L350-102.5l51.3,51.3C429.4-23.1,453,0,453.5,0,454.8,0,700-245.2,700-246.5S454.8-493,453.5-493c-.5,0-24.1,23.1-52.2,51.2L350-390.5l-51.3-51.3C270.6-469.9,247-493,246.5-493,245.9-493,190.3-437.8,122.7-370.2ZM258.5-299c-28.3,28.3-51.5,52-51.5,52.5,0,.6,23.2,24.2,51.5,52.5L310-142.5l-31.7,31.7L246.5-79l-83.7-83.7L79-246.5l83.7-83.7L246.5-414l31.7,31.7L310-350.5ZM537.3-162.8,453.5-79l-31.7-31.7L390-142.5,441.5-194c28.3-28.3,51.5-52,51.5-52.5,0-.6-23.2-24.2-51.5-52.5L390-350.5l31.7-31.7L453.5-414l83.7,83.7L621-246.5Zm-155.6-116c17.2,17.2,31.3,31.7,31.3,32.3s-14.2,15.2-31.5,32.5L350-182.5,327.4-205c-12.4-12.4-26.6-26.9-31.6-32.3l-9.1-9.8,31.4-31.5C335.3-295.9,349.7-310,350-310S364.6-295.9,381.7-278.8Z" fill="#181C3A"/>
  </g>
</svg>
