<svg xmlns="http://www.w3.org/2000/svg" xmlns:xlink="http://www.w3.org/1999/xlink" width="276" height="80" viewBox="0 0 276 80">
  <defs>
    <clipPath id="clip-Bitcoin">
      <rect width="276" height="80"/>
    </clipPath>
  </defs>
  <g id="Bitcoin" clip-path="url(#clip-Bitcoin)">
    <g id="Layer_x0020_1" transform="translate(12.001 14.491)">
      <g id="_1421487920208" transform="translate(-0.001 0.01)">
        <path id="Path_1" data-name="Path 1" d="M51.7,32.962A26.231,26.231,0,1,1,32.55,1.187l.071.018A26.231,26.231,0,0,1,51.7,32.962Z" transform="translate(0.001 -0.386)" fill="#f7931a"/>
        <path id="Path_2" data-name="Path 2" d="M236.409,167.788c-.82,3.279-5.82,1.6-7.443,1.2l1.434-5.738c1.6.394,6.829,1.147,5.984,4.541Zm-.894,9.272c-.885,3.573-6.9,1.64-8.853,1.155l1.582-6.336C230.2,172.37,236.441,173.329,235.515,177.06Zm6.558-9.223c.516-3.492-2.139-5.369-5.738-6.615l1.18-4.73-2.91-.721-1.147,4.607c-.754-.188-1.533-.369-2.3-.541l1.147-4.656-2.877-.721-1.18,4.73-1.836-.41-3.976-.992-.763,3.074s2.131.492,2.091.525a1.534,1.534,0,0,1,1.344,1.64l-1.344,5.386a1.548,1.548,0,0,1,.3.1l-.3-.082-1.877,7.55a1.049,1.049,0,0,1-1.319.68h0c0,.041-2.1-.516-2.1-.516l-1.427,3.279,3.746.927,2.049.533-1.189,4.779,2.877.721,1.18-4.73q1.163.32,2.287.59l-1.164,4.746,2.877.713,1.189-4.771c4.918.927,8.6.557,10.156-3.885,1.254-3.574-.066-5.632-2.648-6.976a4.585,4.585,0,0,0,3.681-4.23Z" transform="translate(-204.221 -145.344)" fill="#fff"/>
        <path id="Path_3" data-name="Path 3" d="M924.936,44.275a8.933,8.933,0,0,0,4.378-1.131,11.375,11.375,0,0,0,3.558-2.968,15.2,15.2,0,0,0,2.353-4.287,14.6,14.6,0,0,0,.869-4.984,9.741,9.741,0,0,0-1.066-4.976c-.7-1.189-2.017-1.795-3.918-1.795a12.266,12.266,0,0,0-2.459.336,5.931,5.931,0,0,0-2.689,1.393l-4.344,18.165.7.131a3.751,3.751,0,0,0,.631.1,5.6,5.6,0,0,0,.82.041l1.172-.025Zm8.632-28.4a12.576,12.576,0,0,1,5.508,1.131,10.973,10.973,0,0,1,3.853,3.058,12.768,12.768,0,0,1,2.3,4.533,20.666,20.666,0,0,1,.729,5.583,22.7,22.7,0,0,1-6.345,15.731,21.8,21.8,0,0,1-6.91,4.771,21.084,21.084,0,0,1-8.623,1.787h-2.1a31.718,31.718,0,0,1-3.41-.3,38.965,38.965,0,0,1-4.1-.82,20,20,0,0,1-4.1-1.459L921.887,1.65,932.175.01l-4.1,17.124a15.9,15.9,0,0,1,2.648-.926,11.826,11.826,0,0,1,2.861-.336l-.017.008Z" transform="translate(-856.639 -0.01)" fill="#4d4d4d"/>
        <path id="Path_4" data-name="Path 4" d="M1541.366,23.06a6.108,6.108,0,0,1-3.722-1.221,4.353,4.353,0,0,1-1.64-3.754,6.17,6.17,0,0,1,.565-2.615,6.954,6.954,0,0,1,1.5-2.131,7.4,7.4,0,0,1,2.156-1.427,6.57,6.57,0,0,1,2.623-.533,6.092,6.092,0,0,1,3.689,1.229,4.37,4.37,0,0,1,1.64,3.754,6.217,6.217,0,0,1-.557,2.623,7.044,7.044,0,0,1-1.492,2.123,7.264,7.264,0,0,1-2.156,1.427,6.462,6.462,0,0,1-2.623.525h.017Zm-4.779,39.176h-9.837l8.312-34.921h9.894l-8.37,34.921Z" transform="translate(-1436.64 -10.708)" fill="#4d4d4d"/>
        <path id="Path_5" data-name="Path 5" d="M1861.994,108.68l10.287-1.59-2.557,10.288h11.018l-1.985,8.1H1867.83l-2.918,12.181a14.2,14.2,0,0,0-.468,2.854,5.27,5.27,0,0,0,.336,2.294,2.849,2.849,0,0,0,1.427,1.484,6.439,6.439,0,0,0,2.951.541,15.4,15.4,0,0,0,3.09-.3,21.567,21.567,0,0,0,3.017-.82l.738,7.574a35.907,35.907,0,0,1-4.32,1.254,24.6,24.6,0,0,1-5.509.533,15.263,15.263,0,0,1-7.107-1.361,7.907,7.907,0,0,1-3.59-3.722,11.847,11.847,0,0,1-.926-5.41,35.434,35.434,0,0,1,.926-6.443l6.517-27.485v.033Z" transform="translate(-1745.07 -100.77)" fill="#4d4d4d"/>
        <path id="Path_6" data-name="Path 6" d="M2292.189,287.438a24.464,24.464,0,0,1,1.459-8.5,20.965,20.965,0,0,1,4.18-6.976,19.587,19.587,0,0,1,6.607-4.706,21.119,21.119,0,0,1,8.664-1.729,22.991,22.991,0,0,1,5.345.565,22.094,22.094,0,0,1,4.279,1.492l-3.418,7.681c-.885-.361-1.8-.671-2.754-.959a11.938,11.938,0,0,0-3.484-.434,9.749,9.749,0,0,0-7.763,3.41q-2.877,3.385-2.885,9.1a9.379,9.379,0,0,0,1.459,5.477q1.458,2.09,5.377,2.089a17.3,17.3,0,0,0,3.722-.4,18.241,18.241,0,0,0,3.189-.992l.729,7.9a38.3,38.3,0,0,1-4.1,1.294,22.884,22.884,0,0,1-5.378.558,18.27,18.27,0,0,1-7.033-1.189,13.229,13.229,0,0,1-4.705-3.221,12.155,12.155,0,0,1-2.7-4.755,19.566,19.566,0,0,1-.82-5.738l.025.033Z" transform="translate(-2156.878 -249.855)" fill="#4d4d4d"/>
        <path id="Path_7" data-name="Path 7" d="M2816.917,274.542a6.276,6.276,0,0,0-3.853,1.254,10.9,10.9,0,0,0-2.779,3.189,15.806,15.806,0,0,0-1.738,4.215,18.109,18.109,0,0,0-.557,4.343,10.66,10.66,0,0,0,1.058,5.181,4.061,4.061,0,0,0,3.853,1.861,6.19,6.19,0,0,0,3.853-1.262,10.968,10.968,0,0,0,2.787-3.188,15.637,15.637,0,0,0,1.7-4.215,18.564,18.564,0,0,0,.556-4.353,10.589,10.589,0,0,0-1.058-5.181,4.079,4.079,0,0,0-3.853-1.853l.033.008ZM2812,302.954a15.964,15.964,0,0,1-6.115-1.066,11.275,11.275,0,0,1-4.279-2.984,12.872,12.872,0,0,1-2.557-4.549,18.5,18.5,0,0,1-.82-5.8,25.651,25.651,0,0,1,1.288-7.968,22.591,22.591,0,0,1,3.786-7.14,20.336,20.336,0,0,1,6.172-5.213,17,17,0,0,1,8.361-2.025,16.224,16.224,0,0,1,6.083,1.066,11.427,11.427,0,0,1,4.3,2.943,13.037,13.037,0,0,1,2.55,4.549,18.323,18.323,0,0,1,.82,5.812,26.455,26.455,0,0,1-1.254,7.968,23.035,23.035,0,0,1-3.722,7.173,19.555,19.555,0,0,1-6.14,5.206A17.349,17.349,0,0,1,2812,302.954Z" transform="translate(-2633.071 -250.491)" fill="#4d4d4d"/>
        <path id="Path_8" data-name="Path 8" d="M3393.867,23.058a6.062,6.062,0,0,1-3.713-1.221,4.351,4.351,0,0,1-1.64-3.754,6.188,6.188,0,0,1,.565-2.615,7.076,7.076,0,0,1,1.459-2.131,7.545,7.545,0,0,1,2.164-1.427,6.558,6.558,0,0,1,2.616-.533,6.1,6.1,0,0,1,3.722,1.229,4.371,4.371,0,0,1,1.64,3.754,6.212,6.212,0,0,1-.575,2.623,6.886,6.886,0,0,1-1.483,2.123,7.263,7.263,0,0,1-2.156,1.427,6.475,6.475,0,0,1-2.6.525Zm-4.77,39.176h-9.837l8.3-34.921h9.9Z" transform="translate(-3179.813 -10.705)" fill="#4d4d4d"/>
        <path id="Path_9" data-name="Path 9" d="M3679.373,269.769c.746-.213,1.574-.476,2.459-.762s1.918-.549,3.057-.82a36.876,36.876,0,0,1,3.78-.6,43.074,43.074,0,0,1,4.746-.238q7.771,0,10.722,4.517a11.937,11.937,0,0,1,1.788,6.6v.187a24.077,24.077,0,0,1-.756,5.564l-4.517,18.854h-9.87l4.385-18.461c.262-1.147.476-2.262.632-3.352a8.022,8.022,0,0,0,0-2.852,3.425,3.425,0,0,0-1.229-1.992,4.743,4.743,0,0,0-2.959-.763,19.552,19.552,0,0,0-3.91.4l-6.443,27.051h-9.928Z" transform="translate(-3454.646 -251.571)" fill="#4d4d4d"/>
      </g>
    </g>
  </g>
</svg>
