<svg xmlns="http://www.w3.org/2000/svg" xmlns:xlink="http://www.w3.org/1999/xlink" width="276" height="80" viewBox="0 0 276 80">
  <defs>
    <clipPath id="clip-Bitcoin_cash">
      <rect width="276" height="80"/>
    </clipPath>
  </defs>
  <g id="Bitcoin_cash" data-name="Bitcoin cash" clip-path="url(#clip-Bitcoin_cash)">
    <g id="bitcoin-cash-logo-horizontal-wt" transform="translate(14 23)">
      <g id="Group_1" data-name="Group 1" transform="translate(38.674)">
        <path id="Path_1" data-name="Path 1" d="M587.429,77.8c-1.614,0-3.234-.047-4.828-.154a35.955,35.955,0,0,1-5-.7V48.363a42.449,42.449,0,0,1,4.479-.569c1.614-.134,3.12-.194,4.52-.194a29.479,29.479,0,0,1,5.176.415,12.159,12.159,0,0,1,4.064,1.373,7.2,7.2,0,0,1,2.665,2.578,7.581,7.581,0,0,1,.964,3.93,6.24,6.24,0,0,1-3.408,5.571,6.9,6.9,0,0,1,3.823,2.886,8.392,8.392,0,0,1,1.024,4.124,7.912,7.912,0,0,1-3.388,6.97C595.23,77.041,591.888,77.8,587.429,77.8Zm-3.361-18.279H587.3a9.1,9.1,0,0,0,4.392-.783,2.738,2.738,0,0,0,1.312-2.531,2.606,2.606,0,0,0-1.352-2.511,8.8,8.8,0,0,0-4-.723c-.569,0-1.178,0-1.835.02s-1.225.047-1.747.107c-.007,0-.007,6.421-.007,6.421Zm0,5.069v7.62c.482.067,1,.107,1.573.134s1.2.047,1.882.047a11.476,11.476,0,0,0,4.807-.85,3.149,3.149,0,0,0,1.835-3.147,3.058,3.058,0,0,0-1.527-2.906,8.935,8.935,0,0,0-4.392-.87h-4.171v-.027Z" transform="translate(-577.6 -44.413)" fill="#4a4a4a"/>
        <path id="Path_2" data-name="Path 2" d="M960.906,9.951a3.463,3.463,0,0,1-1.138,2.752,3.83,3.83,0,0,1-2.665,1,3.877,3.877,0,0,1-2.665-1A3.522,3.522,0,0,1,953.3,9.951,3.464,3.464,0,0,1,954.438,7.2a4.037,4.037,0,0,1,5.33,0A3.485,3.485,0,0,1,960.906,9.951ZM960.3,38.8h-6.334V16.412H960.3Z" transform="translate(-928.145 -5.78)" fill="#4a4a4a"/>
        <path id="Path_3" data-name="Path 3" d="M1108.324,61.324l6.334-1.024v6.6h7.62v5.283h-7.62v7.861a6.355,6.355,0,0,0,.7,3.187,3.042,3.042,0,0,0,2.839,1.2,12.2,12.2,0,0,0,2.1-.194,12.785,12.785,0,0,0,1.989-.522l.9,4.935a17.193,17.193,0,0,1-2.558.81,15.124,15.124,0,0,1-3.448.348,11.678,11.678,0,0,1-4.305-.7,6.447,6.447,0,0,1-2.732-1.969,7.231,7.231,0,0,1-1.419-3.033,18.241,18.241,0,0,1-.415-3.95V61.324Z" transform="translate(-1072.763 -56.263)" fill="#4a4a4a"/>
        <path id="Path_4" data-name="Path 4" d="M1330.493,162.071a13.13,13.13,0,0,1,.783-4.566,10.667,10.667,0,0,1,5.892-6.267,11.729,11.729,0,0,1,4.848-.937,14.979,14.979,0,0,1,3.274.328,16.077,16.077,0,0,1,2.886.917l-1.312,5.069a16.64,16.64,0,0,0-1.968-.589,10.2,10.2,0,0,0-2.384-.261,5.021,5.021,0,0,0-4.192,1.748,7.17,7.17,0,0,0-1.372,4.586,7.493,7.493,0,0,0,1.285,4.674c.871,1.111,2.384,1.661,4.52,1.661a13.9,13.9,0,0,0,2.471-.221,10.521,10.521,0,0,0,2.424-.676l.9,5.2a14.778,14.778,0,0,1-2.772.81,18.766,18.766,0,0,1-3.669.348,13.788,13.788,0,0,1-5.283-.917,9.981,9.981,0,0,1-3.649-2.491,9.488,9.488,0,0,1-2.076-3.716A19.111,19.111,0,0,1,1330.493,162.071Z" transform="translate(-1280.082 -140.237)" fill="#4a4a4a"/>
        <path id="Path_5" data-name="Path 5" d="M1619.6,162.031a14.75,14.75,0,0,1-.763,4.828,10.334,10.334,0,0,1-2.2,3.736,10.158,10.158,0,0,1-3.475,2.4,12.382,12.382,0,0,1-9.019,0,10,10,0,0,1-3.475-2.4,10.741,10.741,0,0,1-2.25-3.736,13.682,13.682,0,0,1-.81-4.828,13.413,13.413,0,0,1,.83-4.807,10.693,10.693,0,0,1,2.29-3.689,10.34,10.34,0,0,1,3.5-2.384,11.244,11.244,0,0,1,4.412-.85,11.374,11.374,0,0,1,4.453.85,9.967,9.967,0,0,1,3.475,2.384,10.675,10.675,0,0,1,2.25,3.689A14.362,14.362,0,0,1,1619.6,162.031Zm-6.461,0a7.866,7.866,0,0,0-1.178-4.607,4.181,4.181,0,0,0-6.7,0,9.542,9.542,0,0,0,0,9.26,4.114,4.114,0,0,0,6.7,0A8.188,8.188,0,0,0,1613.134,162.031Z" transform="translate(-1529.305 -140.237)" fill="#4a4a4a"/>
        <path id="Path_6" data-name="Path 6" d="M1961.706,9.951a3.463,3.463,0,0,1-1.138,2.752,3.83,3.83,0,0,1-2.665,1,3.878,3.878,0,0,1-2.665-1,3.523,3.523,0,0,1-1.138-2.752,3.464,3.464,0,0,1,1.138-2.752,4.038,4.038,0,0,1,5.33,0A3.485,3.485,0,0,1,1961.706,9.951Zm-.589,28.851h-6.334V16.412h6.334Z" transform="translate(-1861.935 -5.78)" fill="#4a4a4a"/>
        <path id="Path_7" data-name="Path 7" d="M2112.7,152.286a34.334,34.334,0,0,1,4.171-.87,34.854,34.854,0,0,1,5.35-.415,12.925,12.925,0,0,1,4.741.743,7.121,7.121,0,0,1,2.993,2.1,8.158,8.158,0,0,1,1.573,3.234,17.456,17.456,0,0,1,.455,4.171v12.648h-6.334V162.008a8.425,8.425,0,0,0-.81-4.345,3.308,3.308,0,0,0-3.013-1.265c-.455,0-.937.02-1.439.067s-.964.087-1.353.154v17.275H2112.7V152.286Z" transform="translate(-2009.916 -140.89)" fill="#4a4a4a"/>
        <path id="Path_8" data-name="Path 8" d="M2454.317,73.546c-4.808,0-8.45-1.332-10.961-4s-3.756-6.441-3.756-11.356a17.51,17.51,0,0,1,1.158-6.528,13.9,13.9,0,0,1,3.147-4.848,13.222,13.222,0,0,1,4.76-2.993,17.267,17.267,0,0,1,6.006-1.024,18.417,18.417,0,0,1,3.408.281,19.314,19.314,0,0,1,2.685.636,14.257,14.257,0,0,1,1.922.743c.5.261.87.455,1.111.589l-1.922,5.35a15.819,15.819,0,0,0-3.167-1.225,14.82,14.82,0,0,0-4.1-.5,9.3,9.3,0,0,0-2.993.5,7.06,7.06,0,0,0-2.6,1.64,8.406,8.406,0,0,0-1.814,2.906,12.265,12.265,0,0,0-.676,4.345,16.183,16.183,0,0,0,.435,3.8,8.331,8.331,0,0,0,1.44,3.033,6.942,6.942,0,0,0,2.618,2.029,9.2,9.2,0,0,0,3.91.743,18.75,18.75,0,0,0,2.6-.174,15.33,15.33,0,0,0,2.056-.415,10.857,10.857,0,0,0,1.573-.522c.455-.194.871-.4,1.225-.549l1.834,5.33a15.522,15.522,0,0,1-3.95,1.527A23.5,23.5,0,0,1,2454.317,73.546Z" transform="translate(-2314.928 -39.934)" fill="#0ac18e"/>
        <path id="Path_9" data-name="Path 9" d="M2822.641,150a14.889,14.889,0,0,1,4.674.636,6.953,6.953,0,0,1,2.993,1.835,6.779,6.779,0,0,1,1.594,2.886,14.493,14.493,0,0,1,.455,3.776v13.19c-.917.194-2.163.435-3.776.7a37.284,37.284,0,0,1-5.872.415,18.2,18.2,0,0,1-3.93-.4,8.808,8.808,0,0,1-3.033-1.245,5.859,5.859,0,0,1-1.969-2.27,7.817,7.817,0,0,1-.676-3.448,6.573,6.573,0,0,1,.783-3.321,5.852,5.852,0,0,1,2.1-2.163,9.2,9.2,0,0,1,3.013-1.178,17,17,0,0,1,3.535-.368c.83,0,1.553.047,2.183.107a8.047,8.047,0,0,1,1.553.281v-.589a3.52,3.52,0,0,0-.984-2.6,4.733,4.733,0,0,0-3.408-.984,21.215,21.215,0,0,0-3.187.241,13.3,13.3,0,0,0-2.732.656l-.811-5.109c.368-.107.831-.241,1.373-.368s1.158-.241,1.815-.348,1.332-.174,2.055-.261C2821.155,150.047,2821.9,150,2822.641,150Zm.5,18.54c.636,0,1.225-.02,1.788-.047a8.34,8.34,0,0,0,1.353-.134v-4.807a11.466,11.466,0,0,0-1.158-.174,10.833,10.833,0,0,0-1.4-.087,15.623,15.623,0,0,0-1.681.107,3.709,3.709,0,0,0-1.373.415,2.195,2.195,0,0,0-1.285,2.076,2.146,2.146,0,0,0,1,2.056A5.184,5.184,0,0,0,2823.144,168.54Z" transform="translate(-2663.42 -139.957)" fill="#0ac18e"/>
        <path id="Path_10" data-name="Path 10" d="M3140.313,168.433a6.071,6.071,0,0,0,2.471-.348,1.314,1.314,0,0,0,.723-1.312,1.589,1.589,0,0,0-.937-1.332,16.627,16.627,0,0,0-2.859-1.286,25.225,25.225,0,0,1-2.7-1.158,7.6,7.6,0,0,1-2.056-1.419,5.665,5.665,0,0,1-1.312-1.989,7.392,7.392,0,0,1-.455-2.772,6.014,6.014,0,0,1,2.337-4.982A10.1,10.1,0,0,1,3141.94,150a21.3,21.3,0,0,1,3.91.368,18.1,18.1,0,0,1,2.973.783l-1.112,4.935a20,20,0,0,0-2.4-.676,13.266,13.266,0,0,0-2.906-.308c-1.989,0-2.973.549-2.973,1.661a1.571,1.571,0,0,0,.134.676,1.473,1.473,0,0,0,.5.569,7.047,7.047,0,0,0,1.051.589,14.8,14.8,0,0,0,1.681.7,26.637,26.637,0,0,1,3.448,1.527,8.517,8.517,0,0,1,2.143,1.614,5.225,5.225,0,0,1,1.112,1.922,8.241,8.241,0,0,1,.328,2.471,5.639,5.639,0,0,1-2.491,5,12.328,12.328,0,0,1-7.03,1.7,20.8,20.8,0,0,1-4.955-.5,25.159,25.159,0,0,1-2.752-.85l1.071-5.156a22.079,22.079,0,0,0,3.321,1A13.589,13.589,0,0,0,3140.313,168.433Z" transform="translate(-2961.528 -139.957)" fill="#0ac18e"/>
        <path id="Path_11" data-name="Path 11" d="M3425,33.023v-32L3431.334,0V10.726a15.053,15.053,0,0,1,1.64-.415,9.946,9.946,0,0,1,1.942-.194,11.77,11.77,0,0,1,4.52.743,7.185,7.185,0,0,1,2.886,2.1,8.273,8.273,0,0,1,1.527,3.234,17.524,17.524,0,0,1,.435,4.171V33.009h-6.334V21.118a8.774,8.774,0,0,0-.783-4.345,3.145,3.145,0,0,0-2.906-1.265,7.483,7.483,0,0,0-1.594.154,12.123,12.123,0,0,0-1.332.328V33H3425v.02Z" transform="translate(-3234.35)" fill="#0ac18e"/>
      </g>
      <g id="Group_2" data-name="Group 2" transform="translate(0 0.402)">
        <circle id="Ellipse_1" data-name="Ellipse 1" cx="16.685" cy="16.685" r="16.685" transform="translate(0)" fill="#0ac18e"/>
        <path id="symbol_1_" d="M135.819,104.341c-.837-1.9-2.759-2.3-5.115-1.908l-.757-2.933-1.788.462.743,2.926c-.469.121-.951.221-1.426.355l-.75-2.906-1.788.462.757,2.933c-.382.107-3.6.937-3.6.937l.5,1.908s1.312-.368,1.3-.335a.96.96,0,0,1,1.232.516l2.076,8.035a.649.649,0,0,1-.516.763c.027.013-1.3.335-1.3.335l.194,2.223s3.18-.817,3.6-.917l.77,2.966,1.781-.462-.763-2.986c.5-.114.964-.234,1.433-.355l.763,2.973,1.788-.462-.763-2.959c2.745-.67,4.687-2.4,4.285-5.048a4.118,4.118,0,0,0-3.448-3.053,2.994,2.994,0,0,0,.79-3.468Zm-.864,6.99c.355,2.625-3.288,2.946-4.5,3.261l-1.051-3.924C130.624,110.347,134.36,109.014,134.956,111.331Zm-2.2-5.343c.375,2.33-2.738,2.6-3.75,2.866l-.951-3.562C129.07,105.031,132,103.832,132.759,105.988Z" transform="translate(-113.925 -93.24)" fill="#fff"/>
      </g>
    </g>
  </g>
</svg>
