<svg xmlns="http://www.w3.org/2000/svg" xmlns:xlink="http://www.w3.org/1999/xlink" viewBox="0 0 309 85">
  <defs>
    <clipPath id="clip-Bscscan_">
      <rect width="309" height="85"/>
    </clipPath>
  </defs>
  <g id="Bscscan_" data-name="Bscscan " clip-path="url(#clip-Bscscan_)">
    <g id="bscscan-logo" transform="translate(-211.695 -207.182)">
      <g id="bscscan-logo-circle" transform="translate(219.377 213.516)">
        <path id="Path_1" data-name="Path 1" d="M234.329,247.651a3.049,3.049,0,0,1,3.064-3.049l5.079.017a3.053,3.053,0,0,1,3.053,3.053v19.206c.572-.17,1.3-.35,2.11-.54a2.544,2.544,0,0,0,1.962-2.476V240.04a3.054,3.054,0,0,1,3.053-3.054h5.094a3.054,3.054,0,0,1,3.053,3.053v22.112s1.274-.516,2.515-1.04a2.549,2.549,0,0,0,1.556-2.346V232.406a3.053,3.053,0,0,1,3.053-3.053h5.089a3.054,3.054,0,0,1,3.05,3.053v21.706a59.684,59.684,0,0,0,12.432-11.668,5.125,5.125,0,0,0,.78-4.785,35.944,35.944,0,1,0-65.121,29.7,4.545,4.545,0,0,0,4.337,2.247c.963-.085,2.161-.2,3.586-.372a2.543,2.543,0,0,0,2.256-2.524V247.651" transform="translate(-219.377 -213.516)" fill="#12161c"/>
        <path id="Path_2" data-name="Path 2" d="M244.417,301.392a35.956,35.956,0,0,0,57.109-29.083c0-.83-.039-1.647-.094-2.461-13.138,19.595-37.4,28.755-57.015,31.544" transform="translate(-229.574 -236.455)" fill="#f0b90b"/>
      </g>
      <path id="Path_87" data-name="Path 87" d="M22.972-40.556a8.286,8.286,0,0,1,4.908,2.893,8.108,8.108,0,0,1,1.873,5.311,8.332,8.332,0,0,1-2.8,6.616q-2.8,2.442-8.109,2.442H5.52V-56.775H18.609q5.027,0,7.706,2.253a7.653,7.653,0,0,1,2.679,6.189,7.71,7.71,0,0,1-1.66,5.145A8.044,8.044,0,0,1,22.972-40.556Zm-12.045-1.8h6.687a6.334,6.334,0,0,0,4.339-1.328,4.692,4.692,0,0,0,1.494-3.7,4.634,4.634,0,0,0-1.494-3.652,6.651,6.651,0,0,0-4.529-1.328h-6.5Zm6.829,14.606a7.261,7.261,0,0,0,4.766-1.4A4.806,4.806,0,0,0,24.2-33.064,4.845,4.845,0,0,0,22.5-37a7.275,7.275,0,0,0-4.79-1.423H10.926v10.67Zm25.656-22a11.035,11.035,0,0,1,7.374,2.347,9.932,9.932,0,0,1,3.391,6.284H49.054a5.528,5.528,0,0,0-1.826-3.438,5.806,5.806,0,0,0-3.96-1.3,4.647,4.647,0,0,0-3.154.972A3.314,3.314,0,0,0,39-42.264a2.608,2.608,0,0,0,.806,1.992,5.627,5.627,0,0,0,2.015,1.186,34.711,34.711,0,0,0,3.438.948,34.353,34.353,0,0,1,4.766,1.375,7.722,7.722,0,0,1,3.13,2.253,6.291,6.291,0,0,1,1.3,4.2A6.541,6.541,0,0,1,51.971-25a10.273,10.273,0,0,1-6.71,2.039,12.755,12.755,0,0,1-7.9-2.276,9.37,9.37,0,0,1-3.628-6.355H39a4.969,4.969,0,0,0,1.9,3.462A6.775,6.775,0,0,0,45.26-26.8a4.36,4.36,0,0,0,3.059-1.02,3.35,3.35,0,0,0,1.114-2.585,2.857,2.857,0,0,0-.854-2.181,5.92,5.92,0,0,0-2.134-1.257,29.646,29.646,0,0,0-3.509-.925A38.879,38.879,0,0,1,38.313-36.1a7.207,7.207,0,0,1-3.035-2.158,6.1,6.1,0,0,1-1.257-4.055,6.657,6.657,0,0,1,2.49-5.382A10.507,10.507,0,0,1,43.411-49.756Zm28.074,0a12.936,12.936,0,0,1,8.394,2.679A11.556,11.556,0,0,1,84-39.8H78.267a6.135,6.135,0,0,0-2.3-3.865,7.3,7.3,0,0,0-4.576-1.4,6.884,6.884,0,0,0-5.217,2.205q-2.087,2.205-2.087,6.473t2.087,6.5a6.849,6.849,0,0,0,5.217,2.229,7.221,7.221,0,0,0,4.576-1.423,6.232,6.232,0,0,0,2.3-3.889H84a11.654,11.654,0,0,1-4.126,7.3,12.861,12.861,0,0,1-8.394,2.7,13.64,13.64,0,0,1-6.71-1.612A11.468,11.468,0,0,1,60.2-29.222a14.7,14.7,0,0,1-1.66-7.161A14.6,14.6,0,0,1,60.2-43.5a11.468,11.468,0,0,1,4.576-4.647,13.64,13.64,0,0,1,6.71-1.612Zm39.74,17.546a9.188,9.188,0,0,1-1.186,4.576,8.62,8.62,0,0,1-3.6,3.391,12.543,12.543,0,0,1-5.928,1.28,14.828,14.828,0,0,1-6.118-1.209,10.645,10.645,0,0,1-4.315-3.391,9.626,9.626,0,0,1-1.849-5.027h5.786a5.935,5.935,0,0,0,1.873,3.746,6.081,6.081,0,0,0,4.387,1.565,5.217,5.217,0,0,0,3.818-1.328,4.579,4.579,0,0,0,1.352-3.414,4.393,4.393,0,0,0-1-2.964,6.982,6.982,0,0,0-2.466-1.826q-1.47-.664-4.031-1.518a35.133,35.133,0,0,1-5.1-1.992,9.271,9.271,0,0,1-3.343-2.893,8.291,8.291,0,0,1-1.375-4.979,8.495,8.495,0,0,1,1.328-4.742,8.632,8.632,0,0,1,3.794-3.154A13.693,13.693,0,0,1,98.943-57.2a12.455,12.455,0,0,1,8.133,2.466,9.293,9.293,0,0,1,3.438,6.45h-5.833a5.691,5.691,0,0,0-1.778-3.248,5.572,5.572,0,0,0-3.96-1.352,5.47,5.47,0,0,0-3.652,1.162,4.133,4.133,0,0,0-1.375,3.343,4.2,4.2,0,0,0,.948,2.822A6.593,6.593,0,0,0,97.26-43.8q1.446.64,3.96,1.494a34.789,34.789,0,0,1,5.193,2.015,9.407,9.407,0,0,1,3.414,2.964A8.579,8.579,0,0,1,111.226-32.21Zm17.025-17.546a12.936,12.936,0,0,1,8.394,2.679A11.556,11.556,0,0,1,140.77-39.8h-5.738a6.135,6.135,0,0,0-2.3-3.865,7.3,7.3,0,0,0-4.576-1.4,6.884,6.884,0,0,0-5.217,2.205q-2.087,2.205-2.087,6.473t2.087,6.5a6.849,6.849,0,0,0,5.217,2.229,7.221,7.221,0,0,0,4.576-1.423,6.232,6.232,0,0,0,2.3-3.889h5.738a11.654,11.654,0,0,1-4.126,7.3,12.861,12.861,0,0,1-8.394,2.7,13.64,13.64,0,0,1-6.71-1.612,11.468,11.468,0,0,1-4.576-4.647,14.7,14.7,0,0,1-1.66-7.161,14.6,14.6,0,0,1,1.66-7.113,11.468,11.468,0,0,1,4.576-4.647A13.64,13.64,0,0,1,128.251-49.756Zm28.217,0A10.337,10.337,0,0,1,162.537-48a9.443,9.443,0,0,1,3.557,4.647v-6.07H171.5v26.13h-5.406v-6.07a9.443,9.443,0,0,1-3.557,4.647,10.337,10.337,0,0,1-6.07,1.755,11.586,11.586,0,0,1-6.094-1.612,11.019,11.019,0,0,1-4.2-4.647,15.834,15.834,0,0,1-1.518-7.161,15.721,15.721,0,0,1,1.518-7.113,11.019,11.019,0,0,1,4.2-4.647A11.586,11.586,0,0,1,156.467-49.756Zm1.66,4.742a7.528,7.528,0,0,0-5.762,2.3,8.886,8.886,0,0,0-2.158,6.331,8.886,8.886,0,0,0,2.158,6.331,7.528,7.528,0,0,0,5.762,2.3,7.851,7.851,0,0,0,4.078-1.067,7.579,7.579,0,0,0,2.845-3.011,9.489,9.489,0,0,0,1.043-4.553,9.525,9.525,0,0,0-1.043-4.529,7.542,7.542,0,0,0-2.845-3.035A7.851,7.851,0,0,0,158.127-45.014ZM192.6-49.851a9.528,9.528,0,0,1,7.3,2.94q2.751,2.94,2.751,8.394v15.223h-5.406V-37.948a7.633,7.633,0,0,0-1.8-5.43,6.435,6.435,0,0,0-4.932-1.921,6.769,6.769,0,0,0-5.169,2.063q-1.944,2.063-1.944,6.046v13.895H178v-26.13H183.4v5.738a8.767,8.767,0,0,1,3.509-4.553,10.163,10.163,0,0,1,5.691-1.612Z" transform="translate(299.303 289.262)" fill="#12161c"/>
    </g>
  </g>
</svg>