<svg xmlns="http://www.w3.org/2000/svg" xmlns:xlink="http://www.w3.org/1999/xlink" width="276" height="80" viewBox="0 0 276 80">
  <defs>
    <clipPath id="clip-BscScan">
      <rect width="276" height="80"/>
    </clipPath>
  </defs>
  <g id="BscScan" clip-path="url(#clip-BscScan)">
    <g id="bscscan-logo" transform="translate(-206.627 -205.065)">
      <g id="bscscan-logo-circle" transform="translate(219.377 213.516)">
        <path id="Path_1" data-name="Path 1" d="M232.369,243.176a2.65,2.65,0,0,1,2.662-2.649l4.413.014a2.653,2.653,0,0,1,2.653,2.653v16.689c.5-.147,1.133-.3,1.833-.469a2.211,2.211,0,0,0,1.7-2.151v-20.7a2.654,2.654,0,0,1,2.653-2.654h4.427a2.654,2.654,0,0,1,2.653,2.653v19.213s1.107-.448,2.185-.9a2.215,2.215,0,0,0,1.352-2.038v-22.9a2.653,2.653,0,0,1,2.653-2.653h4.422a2.653,2.653,0,0,1,2.651,2.653v18.861a51.861,51.861,0,0,0,10.8-10.138,4.453,4.453,0,0,0,.678-4.158,31.232,31.232,0,1,0-56.584,25.81,3.95,3.95,0,0,0,3.768,1.952c.836-.074,1.878-.178,3.116-.323a2.21,2.21,0,0,0,1.96-2.193V243.176" transform="translate(-219.377 -213.516)" fill="#12161c"/>
        <path id="Path_2" data-name="Path 2" d="M244.417,297.257a31.243,31.243,0,0,0,49.622-25.27c0-.721-.033-1.431-.081-2.139-11.416,17.026-32.494,24.986-49.541,27.409" transform="translate(-231.52 -240.832)" fill="#f0b90b"/>
      </g>
      <g id="words" transform="translate(295.272 230.403)">
        <path id="Path_123" data-name="Path 123" d="M20.933-36.967A7.1,7.1,0,0,1,25.18-34.46a7.116,7.116,0,0,1,1.6,4.62,7.3,7.3,0,0,1-2.465,5.822q-2.465,2.134-7.148,2.134H4.608V-51.138H16.914q4.431,0,6.816,1.947a6.657,6.657,0,0,1,2.383,5.467,6.82,6.82,0,0,1-1.43,4.475A6.648,6.648,0,0,1,20.933-36.967ZM10.45-38.873h5.26a5.007,5.007,0,0,0,3.338-.974,3.477,3.477,0,0,0,1.139-2.8,3.573,3.573,0,0,0-1.119-2.82,5.062,5.062,0,0,0-3.439-.994H10.45ZM16-26.65a5.5,5.5,0,0,0,3.563-1.015,3.6,3.6,0,0,0,1.243-2.963,3.7,3.7,0,0,0-1.266-3,5.438,5.438,0,0,0-3.584-1.057H10.45v8.038ZM38.792-45.13A10.124,10.124,0,0,1,45.5-43.016a9.15,9.15,0,0,1,3.149,5.635H43.186a4.546,4.546,0,0,0-1.492-2.652,4.485,4.485,0,0,0-3.025-.994,3.476,3.476,0,0,0-2.323.7,2.372,2.372,0,0,0-.829,1.906,1.938,1.938,0,0,0,.663,1.533,4.776,4.776,0,0,0,1.657.912q.994.331,2.859.787a29.4,29.4,0,0,1,4.247,1.222,7.027,7.027,0,0,1,2.82,2.03,5.6,5.6,0,0,1,1.181,3.75,5.793,5.793,0,0,1-2.3,4.765A9.707,9.707,0,0,1,40.449-21.6,11.714,11.714,0,0,1,33.281-23.6a8.448,8.448,0,0,1-3.273-5.739H35.6a3.78,3.78,0,0,0,1.492,2.673,5.41,5.41,0,0,0,3.356.974,3.248,3.248,0,0,0,2.279-.725,2.445,2.445,0,0,0,.787-1.885,2.083,2.083,0,0,0-.684-1.616,4.615,4.615,0,0,0-1.7-.953q-1.015-.331-2.877-.787a32.457,32.457,0,0,1-4.164-1.181,6.649,6.649,0,0,1-2.735-1.927,5.413,5.413,0,0,1-1.139-3.646A5.97,5.97,0,0,1,32.5-43.265a9.662,9.662,0,0,1,6.3-1.865Zm24.82,0a11.36,11.36,0,0,1,7.4,2.4,10.5,10.5,0,0,1,3.708,6.547H68.54a4.767,4.767,0,0,0-1.7-2.877,5.217,5.217,0,0,0-3.356-1.057,5.007,5.007,0,0,0-3.874,1.72,7.276,7.276,0,0,0-1.554,5.034,7.276,7.276,0,0,0,1.554,5.034,5.007,5.007,0,0,0,3.874,1.72,5.217,5.217,0,0,0,3.356-1.057,4.767,4.767,0,0,0,1.7-2.877h6.174a10.5,10.5,0,0,1-3.708,6.547,11.36,11.36,0,0,1-7.394,2.4,12.219,12.219,0,0,1-5.967-1.427,10.049,10.049,0,0,1-4.061-4.081,12.845,12.845,0,0,1-1.45-6.257,12.966,12.966,0,0,1,1.45-6.277,9.884,9.884,0,0,1,4.061-4.081,12.364,12.364,0,0,1,5.967-1.409Zm35.344,15.25a7.932,7.932,0,0,1-1.119,4.123,8.035,8.035,0,0,1-3.315,3.025A11.493,11.493,0,0,1,89.177-21.6a13.869,13.869,0,0,1-5.552-1.057A9.388,9.388,0,0,1,79.711-25.7a8.785,8.785,0,0,1-1.678-4.641h6.215a4.749,4.749,0,0,0,1.429,2.963A4.483,4.483,0,0,0,88.93-26.2a3.786,3.786,0,0,0,2.8-.974,3.4,3.4,0,0,0,.974-2.507,3.284,3.284,0,0,0-.787-2.258,5.745,5.745,0,0,0-1.989-1.43q-1.2-.539-3.315-1.243a32.767,32.767,0,0,1-4.475-1.8A8.272,8.272,0,0,1,79.173-39a7.419,7.419,0,0,1-1.222-4.431,7.209,7.209,0,0,1,2.714-5.946,11.155,11.155,0,0,1,7.189-2.175,11.386,11.386,0,0,1,7.4,2.237,8.445,8.445,0,0,1,3.126,5.964h-6.3a4.386,4.386,0,0,0-1.324-2.59,4.117,4.117,0,0,0-2.942-1.015,3.88,3.88,0,0,0-2.61.849,3.063,3.063,0,0,0-1,2.468,3.066,3.066,0,0,0,.767,2.134,5.849,5.849,0,0,0,1.947,1.388,31.961,31.961,0,0,0,3.211,1.2,42.694,42.694,0,0,1,4.579,1.865,8.068,8.068,0,0,1,3,2.61,7.671,7.671,0,0,1,1.243,4.556Zm14.627-15.25a11.36,11.36,0,0,1,7.4,2.4,10.5,10.5,0,0,1,3.708,6.547h-6.174a4.767,4.767,0,0,0-1.7-2.877,5.217,5.217,0,0,0-3.356-1.057,5.007,5.007,0,0,0-3.874,1.72,7.275,7.275,0,0,0-1.554,5.034,7.275,7.275,0,0,0,1.554,5.034,5.007,5.007,0,0,0,3.874,1.72,5.217,5.217,0,0,0,3.356-1.057,4.767,4.767,0,0,0,1.7-2.877h6.174A10.5,10.5,0,0,1,120.978-24a11.359,11.359,0,0,1-7.4,2.4,12.219,12.219,0,0,1-5.967-1.427,10.048,10.048,0,0,1-4.061-4.081,12.845,12.845,0,0,1-1.45-6.257,12.966,12.966,0,0,1,1.45-6.277,9.884,9.884,0,0,1,4.061-4.081,12.364,12.364,0,0,1,5.967-1.409Zm24.239,0a8.822,8.822,0,0,1,4.972,1.367,7.447,7.447,0,0,1,2.942,3.688V-44.84h5.8v22.955h-5.8v-4.806a7.557,7.557,0,0,1-2.942,3.708,8.724,8.724,0,0,1-4.972,1.386,9.86,9.86,0,0,1-5.221-1.409,9.518,9.518,0,0,1-3.626-4.081,14.154,14.154,0,0,1-1.305-6.277,14.154,14.154,0,0,1,1.305-6.277,9.517,9.517,0,0,1,3.626-4.081A9.86,9.86,0,0,1,137.822-45.13Zm1.823,5.1a5.715,5.715,0,0,0-4.392,1.784,6.906,6.906,0,0,0-1.657,4.892,6.821,6.821,0,0,0,1.657,4.869,5.749,5.749,0,0,0,4.392,1.761,5.78,5.78,0,0,0,4.374-1.8,6.7,6.7,0,0,0,1.72-4.827,6.761,6.761,0,0,0-1.72-4.869A5.78,5.78,0,0,0,139.645-40.033Zm30.869-5.138a8.128,8.128,0,0,1,6.34,2.61q2.359,2.61,2.359,7.334v13.342h-5.8V-34.564A5.994,5.994,0,0,0,172-38.811a5.007,5.007,0,0,0-3.856-1.512,5.153,5.153,0,0,0-3.978,1.616,6.6,6.6,0,0,0-1.492,4.641v12.182H156.84V-44.84h5.842v4.6a7.314,7.314,0,0,1,3-3.626,8.93,8.93,0,0,1,4.829-1.3Z" transform="translate(-4.608 51.552)" fill="#12161c"/>
      </g>
    </g>
  </g>
</svg>
