<svg xmlns="http://www.w3.org/2000/svg" xmlns:xlink="http://www.w3.org/1999/xlink" width="309" height="85" viewBox="0 0 309 85">
  <defs>
    <clipPath id="clip-path">
      <rect id="Rectangle_1" data-name="Rectangle 1" width="274.74" height="76.34" fill="#051221"/>
    </clipPath>
    <clipPath id="clip-Cronos">
      <rect width="309" height="85"/>
    </clipPath>
  </defs>
  <g id="Cronos" clip-path="url(#clip-Cronos)">
    <g id="index" transform="translate(17.985 4.66)" clip-path="url(#clip-path)">
      <path id="Path_1" data-name="Path 1" d="M33.064,0,0,19.091v38.17L33.064,76.34,66.1,57.261V19.091Zm23.25,51.606L33.064,65.028,9.8,51.606V24.734L33.064,11.312l23.25,13.423Z" transform="translate(0 0)" fill="#051221"/>
      <path id="Path_2" data-name="Path 2" d="M44.636,42.643,29.2,51.549,13.76,42.643V24.819L29.2,15.9l15.432,8.919-6.424,3.711L29.2,23.322,20.2,28.529V38.92L29.2,44.128l9.008-5.208Z" transform="translate(3.847 4.445)" fill="#051221"/>
      <path id="Path_3" data-name="Path 3" d="M70.78,35.47v-.1A15.189,15.189,0,0,1,86.135,20.012a14.881,14.881,0,0,1,11.759,5.118l-4.235,4.517c-2.06-2.124-4.235-3.685-7.575-3.685-4.9,0-8.522,4.235-8.522,9.367v.115c0,5.234,3.621,9.4,8.791,9.4a10.377,10.377,0,0,0,7.678-3.621L98.1,45.246a15.419,15.419,0,0,1-27.242-9.7Z" transform="translate(19.789 5.593)" fill="#051221"/>
      <path id="Path_4" data-name="Path 4" d="M96.86,20.6h6.795v6.628c1.843-4.4,5.234-7.409,10.416-7.191v7.14h-.384c-5.912,0-10.032,3.839-10.032,11.631V50H96.86Z" transform="translate(27.081 5.598)" fill="#051221"/>
      <path id="Path_5" data-name="Path 5" d="M112.84,35.456v-.1a15.688,15.688,0,0,1,31.363-.115v.115a15.681,15.681,0,1,1-31.363.1Zm24.619,0v-.1a9.1,9.1,0,0,0-9.021-9.482c-5.413,0-8.868,4.235-8.868,9.367v.115a9.06,9.06,0,0,0,8.957,9.4C134,44.758,137.459,40.523,137.459,35.456Z" transform="translate(31.548 5.606)" fill="#051221"/>
      <path id="Path_6" data-name="Path 6" d="M142.666,20.6h6.769v4.517a10.661,10.661,0,0,1,9.2-5.118c6.628,0,10.467,4.453,10.467,11.248V50.019h-6.743V33.3c0-4.568-2.278-7.178-6.3-7.178s-6.628,2.738-6.628,7.294V50.045H142.64Z" transform="translate(39.88 5.592)" fill="#051221"/>
      <path id="Path_7" data-name="Path 7" d="M168.44,35.456v-.1a15.688,15.688,0,0,1,31.363-.115v.115a15.681,15.681,0,1,1-31.363.1Zm24.619,0v-.1a9.1,9.1,0,0,0-9.021-9.482c-5.413,0-8.868,4.235-8.868,9.367v.115a9.06,9.06,0,0,0,8.957,9.4C189.566,44.758,193.059,40.523,193.059,35.456Z" transform="translate(47.093 5.606)" fill="#051221"/>
      <path id="Path_8" data-name="Path 8" d="M196.43,46.145l3.007-4.568a16.636,16.636,0,0,0,9.635,3.621c2.9,0,4.568-1.28,4.568-3.173V41.91c0-2.278-3.109-3.058-6.564-4.12-4.351-1.28-9.2-3.007-9.2-8.573V29.1c0-5.63,4.632-9.021,10.48-9.021a20.361,20.361,0,0,1,10.8,3.34l-2.674,4.786a17.031,17.031,0,0,0-8.292-2.777c-2.559,0-4.12,1.28-4.12,2.892v.115c0,2.175,3.173,3.058,6.628,4.171,4.287,1.344,9.136,3.289,9.136,8.586v.1c0,6.193-4.8,9.251-10.928,9.251A20.3,20.3,0,0,1,196.43,46.145Z" transform="translate(54.919 5.614)" fill="#051221"/>
    </g>
  </g>
</svg>