<svg xmlns="http://www.w3.org/2000/svg" xmlns:xlink="http://www.w3.org/1999/xlink" width="276" height="80" viewBox="0 0 276 80">
  <defs>
    <clipPath id="clip-Dash">
      <rect width="276" height="80"/>
    </clipPath>
  </defs>
  <g id="Dash" clip-path="url(#clip-Dash)">
    <g id="Artboard_1_copy_2" data-name="Artboard 1 copy 2" transform="translate(10.92 -15.11)">
      <path id="Path_1" data-name="Path 1" d="M119.14,26.11H92.7L90.5,38.359l23.862.029c11.752,0,15.227,4.266,15.128,11.349a51.014,51.014,0,0,1-2.3,11.75c-1.811,5.3-5.531,11.349-19.479,11.325l-23.2-.01-2.2,12.254H108.7c9.306,0,13.267-1.082,17.455-3.02,9.292-4.29,14.821-13.461,17.035-25.429C146.494,38.788,142.386,26.11,119.14,26.11Z" transform="translate(-56.492 0)" fill="#008de4"/>
      <path id="Path_2" data-name="Path 2" d="M824.28,167.413l1.864-10.651h22.59a3.134,3.134,0,0,0,3.283-2.841,2.13,2.13,0,0,0-2.307-2.841h-10.8c-8.521,0-12.6-4.97-11.1-13.491s7.367-13.49,15.887-13.49h24.542l-1.952,10.651H844.662a3.134,3.134,0,0,0-3.285,2.839,2.13,2.13,0,0,0,2.308,2.841h10.8c8.52,0,12.6,4.971,11.1,13.491s-7.28,13.491-15.8,13.491Z" transform="translate(-679.85 -82.326)" fill="#008de4"/>
      <path id="Path_3" data-name="Path 3" d="M512.495,167.377c-14.025,0-20.328-7.634-17.842-21.66,2.4-14.024,11.452-21.658,25.475-21.658h24.855l-7.634,43.319Zm16.154-32.665h-6.394c-7.633,0-12.149,3.373-13.474,11.006-1.419,7.634,1.421,11.007,9.054,11.007h6.995Z" transform="translate(-402.468 -82.293)" fill="#008de4"/>
      <path id="Path_4" data-name="Path 4" d="M1140.176,85.085l4.439-25.21c.8-4.971-1.218-7.1-6.189-7.1h-7.068l-5.681,32.31H1111.29l10.4-58.975h14.386l-2.769,15.665h10.774c12.6,0,17.131,5.5,14.912,18.108l-4.439,25.21Z" transform="translate(-920.982 0)" fill="#008de4"/>
      <path id="Path_5" data-name="Path 5" d="M24.794,172c-6.926,0-7.919,4.514-8.574,7.241-.858,3.573-1.14,5.019-1.14,5.019H42.155c6.926,0,7.919-4.514,8.574-7.241.858-3.573,1.14-5.019,1.14-5.019Z" transform="translate(0 -122.57)" fill="#008de4"/>
    </g>
  </g>
</svg>
