<svg xmlns="http://www.w3.org/2000/svg" xmlns:xlink="http://www.w3.org/1999/xlink" width="276" height="80" viewBox="0 0 276 80">
  <defs>
    <clipPath id="clip-path">
      <path id="Path_3" data-name="Path 3" d="M720.6,306.4h32.385v16.934H720.6Z" transform="translate(-720.6 -306.4)"/>
    </clipPath>
    <clipPath id="clip-path-2">
      <path id="Path_5" data-name="Path 5" d="M720.6,0h16.2V36.44H720.6Z" transform="translate(-720.6)"/>
    </clipPath>
    <clipPath id="clip-path-3">
      <path id="Path_7" data-name="Path 7" d="M975,0h16.2V36.44H975Z" transform="translate(-975)"/>
    </clipPath>
    <clipPath id="clip-path-4">
      <path id="Path_9" data-name="Path 9" d="M720.6,470.3h16.2v22.816H720.6Z" transform="translate(-720.6 -470.3)"/>
    </clipPath>
    <clipPath id="clip-path-5">
      <path id="Path_11" data-name="Path 11" d="M975,470.3h16.2v22.816H975Z" transform="translate(-975 -470.3)"/>
    </clipPath>
    <clipPath id="clip-etherrum">
      <rect width="276" height="80"/>
    </clipPath>
  </defs>
  <g id="etherrum" clip-path="url(#clip-etherrum)">
    <g id="ethereum" transform="translate(-16.467 5.188)">
      <path id="Path_1" data-name="Path 1" d="M14.756,1019.686a.666.666,0,0,1-.667.658H1.242c.321,3.174,2.709,6.069,6.069,6.069a6.01,6.01,0,0,0,5.284-2.709.645.645,0,0,1,.819-.262.619.619,0,0,1,.363.464.649.649,0,0,1-.084.448,7.245,7.245,0,0,1-6.39,3.359c-4.322,0-7.4-3.866-7.4-8s3.081-8,7.4-8,7.445,3.849,7.453,7.977m-1.376-.625c-.279-3.174-2.709-6.069-6.069-6.069s-5.748,2.9-6.069,6.069Zm16.966-7.04a.652.652,0,0,1,.641.641.626.626,0,0,1-.641.642H26.9v13.514a.641.641,0,0,1-1.283,0V1013.3H22.31a.626.626,0,0,1-.641-.642.658.658,0,0,1,.641-.641h3.309v-4.946a.647.647,0,0,1,.515-.65.637.637,0,0,1,.768.633v4.963Zm21.009,6.533v8.188a.652.652,0,0,1-.641.641.626.626,0,0,1-.641-.641v-8.188c0-2.76-1.562-5.52-4.642-5.52-3.95,0-5.655,3.452-5.427,6.989,0,.093.042.506.042.549v6.145a.647.647,0,0,1-.515.65.637.637,0,0,1-.768-.633V999.841a.641.641,0,0,1,1.283,0v15.219a6.194,6.194,0,0,1,5.377-3.309c3.773,0,5.934,3.309,5.934,6.8m23.035,1.131a.666.666,0,0,1-.667.658H60.867c.321,3.174,2.709,6.069,6.069,6.069a6.01,6.01,0,0,0,5.284-2.709.645.645,0,0,1,.819-.262.619.619,0,0,1,.363.464.649.649,0,0,1-.084.448,7.245,7.245,0,0,1-6.39,3.359c-4.322,0-7.4-3.866-7.4-8s3.081-8,7.4-8,7.453,3.849,7.462,7.977m-1.384-.625c-.279-3.174-2.709-6.069-6.069-6.069s-5.748,2.9-6.069,6.069Zm17.152-6.44a.636.636,0,0,1-.6.692c-3.773.549-5.47,3.629-5.47,7.217v6.145a.647.647,0,0,1-.515.65.637.637,0,0,1-.768-.633v-14a.647.647,0,0,1,.515-.65.637.637,0,0,1,.768.633v2.853c1.055-1.789,3.174-3.494,5.377-3.494a.654.654,0,0,1,.692.591m21.1,7.065a.667.667,0,0,1-.667.658H97.745c.321,3.174,2.709,6.069,6.069,6.069a6.01,6.01,0,0,0,5.284-2.709.645.645,0,0,1,.819-.262.619.619,0,0,1,.363.464.649.649,0,0,1-.084.448,7.245,7.245,0,0,1-6.39,3.359c-4.322,0-7.4-3.866-7.4-8s3.081-8,7.4-8,7.445,3.849,7.453,7.977m-1.376-.625c-.279-3.174-2.709-6.069-6.069-6.069s-5.748,2.9-6.069,6.069Zm22.115-6.28v14.037a.652.652,0,0,1-.641.641.626.626,0,0,1-.641-.641v-2.667a6.015,6.015,0,0,1-5.335,3.63c-3.815,0-5.934-3.309-5.934-6.8v-8.23a.641.641,0,0,1,1.283,0v8.23c0,2.76,1.562,5.52,4.642,5.52,4.322,0,5.335-4.043,5.335-8.508v-5.242a.649.649,0,0,1,.827-.616.69.69,0,0,1,.464.65m32.5,5.723v8.23a.652.652,0,0,1-.641.641.626.626,0,0,1-.641-.641v-8.23c0-2.76-1.562-5.469-4.642-5.469-3.866,0-5.335,4.136-5.335,7.352v6.348a.652.652,0,0,1-.641.641.626.626,0,0,1-.642-.641v-8.23c0-2.76-1.562-5.469-4.642-5.469-3.908,0-5.52,3.081-5.377,7.175,0,.093.042.279,0,.321v6.187a.646.646,0,0,1-.523.65.637.637,0,0,1-.768-.633v-14.045a.647.647,0,0,1,.515-.65.637.637,0,0,1,.768.633v2.347a6.153,6.153,0,0,1,5.377-3.266,5.71,5.71,0,0,1,5.47,4.094,6.358,6.358,0,0,1,5.79-4.094c3.773,0,5.934,3.258,5.934,6.752" transform="translate(100.473 -981.283)" fill="#3c3c3b"/>
      <g id="Group_2" data-name="Group 2" transform="translate(49.147 27.94)" opacity="0.6">
        <g id="Group_1" data-name="Group 1" clip-path="url(#clip-path)">
          <path id="Path_2" data-name="Path 2" d="M736.8,306.4l-16.2,7.366,16.2,9.568,16.189-9.568Z" transform="translate(-720.6 -306.4)" fill="#010101"/>
        </g>
      </g>
      <g id="Group_4" data-name="Group 4" transform="translate(49.147 8.434)" opacity="0.45">
        <g id="Group_3" data-name="Group 3" clip-path="url(#clip-path-2)">
          <path id="Path_4" data-name="Path 4" d="M720.6,26.872l16.2,9.568V0Z" transform="translate(-720.6)" fill="#010101"/>
        </g>
      </g>
      <g id="Group_6" data-name="Group 6" transform="translate(65.342 8.434)" opacity="0.8">
        <g id="Group_5" data-name="Group 5" clip-path="url(#clip-path-3)">
          <path id="Path_6" data-name="Path 6" d="M975,0V36.44l16.189-9.568Z" transform="translate(-975)" fill="#010101"/>
        </g>
      </g>
      <g id="Group_8" data-name="Group 8" transform="translate(49.147 38.374)" opacity="0.45">
        <g id="Group_7" data-name="Group 7" clip-path="url(#clip-path-4)">
          <path id="Path_8" data-name="Path 8" d="M720.6,470.3l16.2,22.816V479.868Z" transform="translate(-720.6 -470.3)" fill="#010101"/>
        </g>
      </g>
      <g id="Group_10" data-name="Group 10" transform="translate(65.342 38.374)" opacity="0.8">
        <g id="Group_9" data-name="Group 9" clip-path="url(#clip-path-5)">
          <path id="Path_10" data-name="Path 10" d="M975,479.868v13.248L991.2,470.3Z" transform="translate(-975 -470.3)" fill="#010101"/>
        </g>
      </g>
    </g>
  </g>
</svg>
