<?xml version="1.0" encoding="utf-8"?>
<!-- Generator: Adobe Illustrator 23.0.3, SVG Export Plug-In . SVG Version: 6.00 Build 0)  -->
<svg version="1.1" xmlns="http://www.w3.org/2000/svg" xmlns:xlink="http://www.w3.org/1999/xlink" x="0px" y="0px"
	 viewBox="0 0 4352.9 1107" style="enable-background:new 0 0 4352.9 1107;" xml:space="preserve">
<style type="text/css">
	.st0{fill:#8A92B2;}
	.st1{fill:#62688F;}
	.st2{fill:#454A75;}
</style>
<g id="Layer_1">
	<g>
		<polygon class="st0" points="339.7,0 0,563.8 339.7,409.4 		"/>
		<polygon class="st1" points="339.7,409.4 0,563.8 339.7,764.7 		"/>
		<polygon class="st1" points="679.6,563.8 339.7,0 339.7,409.4 		"/>
		<polygon class="st2" points="339.7,764.7 679.6,563.8 339.7,409.4 		"/>
		<polygon class="st0" points="0,628.2 339.7,1107 339.7,829 		"/>
		<polygon class="st1" points="339.7,829 339.7,1107 679.7,628.2 		"/>
	</g>
</g>
<g id="Layer_2">
	<path class="st0" d="M1219.1,646.7c0,7.6-6.4,13.8-14,13.8H936.3c6.7,66.4,56.7,127,127,127c48,0,83.7-18.4,110.6-56.7
		c3.9-5.3,9.7-8.7,17.1-5.5c4.1,1.8,6.9,5.5,7.6,9.7c0.7,4.4-0.5,6.9-1.8,9.4c-27,47.2-80.9,70.3-133.7,70.3
		c-90.4,0-154.9-80.9-154.9-167.5s64.5-167.5,154.9-167.5C1153.6,479.6,1218.9,560.4,1219.1,646.7 M1190.3,633.7
		c-5.8-66.4-56.7-127-127-127s-120.3,60.6-127,127H1190.3z M1545.4,486.4c7.8,0,13.4,6.7,13.4,13.4c0,7.8-5.8,13.4-13.4,13.4h-72.1
		V796c0,6.7-5.8,13.4-13.4,13.4c-7.8,0-13.4-6.7-13.4-13.4V513.2h-69.2c-7.8,0-13.4-5.8-13.4-13.4c0-6.7,5.8-13.4,13.4-13.4h69.2
		V382.8c0-6.5,4.4-12.5,10.8-13.6c9-1.4,16.1,4.8,16.1,13.2v103.9L1545.4,486.4L1545.4,486.4z M1985.1,623.1v171.4
		c0,7.8-6.7,13.4-13.4,13.4c-7.8,0-13.4-5.8-13.4-13.4V623.1c0-57.8-32.7-115.5-97.2-115.5c-82.7,0-118.4,72.3-113.6,146.3
		c0,1.9,0.9,10.6,0.9,11.5v128.6c0,6.5-4.4,12.5-10.8,13.6c-9,1.4-16.1-4.8-16.1-13.2V231.4c0-6.7,5.8-13.4,13.4-13.4
		c7.8,0,13.4,6.7,13.4,13.4v318.5c23.1-41.3,64.5-69.2,112.5-69.2C1939.9,480.7,1985.1,549.9,1985.1,623.1 M2467.2,646.7
		c0,7.6-6.4,13.8-14,13.8h-269c6.7,66.4,56.7,127,127,127c48,0,83.7-18.4,110.6-56.7c3.9-5.3,9.7-8.7,17.1-5.5
		c4.1,1.8,6.9,5.5,7.6,9.7c0.7,4.4-0.5,6.9-1.8,9.4c-27,47.2-80.9,70.3-133.7,70.3c-90.4,0-154.9-80.9-154.9-167.5
		s64.5-167.5,154.9-167.5C2401.6,479.6,2467,560.4,2467.2,646.7 M2438.2,633.7c-5.8-66.4-56.7-127-127-127s-120.3,60.6-127,127
		H2438.2z M2797.1,498.9c0,8.7-4.8,13.4-12.5,14.5c-79,11.5-114.5,76-114.5,151V793c0,6.5-4.4,12.5-10.8,13.6
		c-9,1.4-16.1-4.8-16.1-13.2V500.3c0-6.5,4.4-12.5,10.8-13.6c9-1.4,16.1,4.8,16.1,13.2v59.7c22.1-37.4,66.4-73.1,112.5-73.1
		C2789.4,486.4,2797.1,491.3,2797.1,498.9 M3238.8,646.7c0,7.6-6.4,13.8-14,13.8H2956c6.7,66.4,56.7,127,127,127
		c48,0,83.7-18.4,110.6-56.7c3.9-5.3,9.7-8.7,17.1-5.5c4.1,1.8,6.9,5.5,7.6,9.7c0.7,4.4-0.5,6.9-1.8,9.4
		c-27,47.2-80.9,70.3-133.7,70.3c-90.4,0-154.9-80.9-154.9-167.5s64.5-167.5,154.9-167.5C3173.2,479.6,3238.6,560.4,3238.8,646.7
		 M3210,633.7c-5.8-66.4-56.7-127-127-127s-120.3,60.6-127,127H3210z M3672.8,502.2V796c0,7.8-6.7,13.4-13.4,13.4
		c-7.8,0-13.4-5.8-13.4-13.4v-55.8c-22.1,44.3-61.7,76-111.6,76c-79.8,0-124.2-69.2-124.2-142.4V501.5c0-6.7,5.8-13.4,13.4-13.4
		c7.8,0,13.4,6.7,13.4,13.4v172.2c0,57.8,32.7,115.5,97.2,115.5c90.4,0,111.6-84.6,111.6-178.1V501.5c0-7.8,7.8-15.7,17.3-12.9
		C3668.9,490.6,3672.8,496.2,3672.8,502.2 M4352.9,622v172.2c0,7.8-6.7,13.4-13.4,13.4c-7.8,0-13.4-5.8-13.4-13.4V622
		c0-57.8-32.7-114.5-97.2-114.5c-80.9,0-111.6,86.6-111.6,153.9v132.8c0,7.8-6.7,13.4-13.4,13.4c-7.8,0-13.4-5.8-13.4-13.4V622
		c0-57.8-32.7-114.5-97.2-114.5c-81.8,0-115.5,64.5-112.5,150.2c0,1.9,0.9,5.8,0,6.7v129.5c0,6.5-4.4,12.5-11,13.6
		c-9,1.4-16.1-4.8-16.1-13.2V500.3c0-6.5,4.4-12.5,10.8-13.6c9-1.4,16.1,4.8,16.1,13.2v49.1c23.1-41.3,64.5-68.4,112.5-68.4
		c54.8,0,97.2,34.6,114.5,85.7c22.1-50,65.4-85.7,121.2-85.7C4307.7,480.7,4352.9,548.9,4352.9,622"/>
</g>
</svg>
