<svg xmlns="http://www.w3.org/2000/svg" xmlns:xlink="http://www.w3.org/1999/xlink" width="276" height="80" viewBox="0 0 276 80">
  <defs>
    <clipPath id="clip-HitBTC">
      <rect width="276" height="80"/>
    </clipPath>
  </defs>
  <g id="HitBTC" clip-path="url(#clip-HitBTC)">
    <g id="Group_2" data-name="Group 2" transform="translate(-0.542 9)">
      <path id="Path_25" data-name="Path 25" d="M15.978,44.471l3.486,1.786,3.508-1.786v20.12H15.978Zm-.538-6.8a3.787,3.787,0,0,1,4.024-3.508,3.551,3.551,0,1,1,0,7.015,3.744,3.744,0,0,1-4.024-3.443Z" transform="translate(52.327 -3.184)" fill="#545454"/>
      <path id="Path_26" data-name="Path 26" d="M17.344,34V45.771H7.618V34H0V64.729H7.618V52.915h9.727V64.729h7.618V34Z" transform="translate(34.542 -3.322)" fill="#545454"/>
      <path id="Path_27" data-name="Path 27" d="M31.64,63.934H24.6V48.656H21.87V42.049H24.6V34.69H31.64v7.359h2.733v6.606H31.64Z" transform="translate(59.733 -2.527)" fill="#545454"/>
      <path id="Path_28" data-name="Path 28" d="M38.618,57.671h6.219c2.432,0,3.185-1.485,3.185-2.754s-.8-2.711-3.185-2.711H38.618Zm0-11.857H44.3a2.389,2.389,0,0,0,2.711-2.023,1.85,1.85,0,0,0,0-.344c0-.818-.452-2.367-2.733-2.367H38.618ZM43.459,34c9.275,0,10.759,5.509,10.759,8.306a6.714,6.714,0,0,1-3.873,6.456,6.757,6.757,0,0,1,4.8,6.929c0,4.82-2.776,8.973-11.964,8.973H31V34Z" transform="translate(70.25 -3.322)" fill="#42acdb"/>
      <path id="Path_29" data-name="Path 29" d="M59.724,64.729H52.107V41.058H44.08V34H67.751v6.994H59.724Z" transform="translate(85.317 -3.322)" fill="#42acdb"/>
      <path id="Path_30" data-name="Path 30" d="M84.518,38.967,79.59,43.421a10.2,10.2,0,0,0-6.908-2.539,8.134,8.134,0,0,0-8.328,7.962,3.229,3.229,0,0,0,0,.646A8.134,8.134,0,0,0,71.994,58.1h.689a10.136,10.136,0,0,0,6.908-2.475l4.928,4.454a16.29,16.29,0,0,1-11.835,5.078,15.623,15.623,0,0,1,0-31.245,16.182,16.182,0,0,1,11.835,5.057Z" transform="translate(100.268 -3.426)" fill="#42acdb"/>
      <g id="hitbtc-2" data-name="hitbtc" transform="translate(178.948)">
        <path id="Path_2" data-name="Path 2" d="M84.265,10.08,81.346,21.452,61.34,24.046Z" transform="translate(-61.34 2.025)" fill="#57bae5"/>
        <path id="Path_3" data-name="Path 3" d="M85.187,52.181l4.972-20.655L83.71,28.86Z" transform="translate(-56.847 5.797)" fill="#005472"/>
        <path id="Path_4" data-name="Path 4" d="M81.336,19.54,76.089,30.348l-14.7-8.166Z" transform="translate(-61.33 3.925)" fill="#34afe4"/>
        <path id="Path_5" data-name="Path 5" d="M87.222,52.251,85.745,28.93,73.58,28.51Z" transform="translate(-58.881 5.727)" fill="#0076a7"/>
        <path id="Path_6" data-name="Path 6" d="M78.878,19.54l6.917,11.18L73.63,30.312Z" transform="translate(-58.871 3.925)" fill="#009de2"/>
        <g id="Group_1" data-name="Group 1" transform="translate(20.006)">
          <path id="Path_7" data-name="Path 7" d="M80.918,10.08l16.56,2.078L78,21.452Z" transform="translate(-78 2.025)" fill="#7acdf2"/>
          <path id="Path_8" data-name="Path 8" d="M111.042,5.77l-10.412,12.1.733-11.192Z" transform="translate(-73.454 1.159)" fill="#7acdf2"/>
          <path id="Path_9" data-name="Path 9" d="M115.076,0,109.3,6.929l4.515.552Z" transform="translate(-71.713)" fill="#7acdf2"/>
        </g>
        <path id="Path_10" data-name="Path 10" d="M104.63,12.053l10.123-5.74-4.515-.552Z" transform="translate(-52.644 1.157)" fill="#00abe7"/>
        <path id="Path_11" data-name="Path 11" d="M90.159,33.4l.492-13.894L83.71,30.738Z" transform="translate(-56.847 3.919)" fill="#0076a7"/>
        <path id="Path_12" data-name="Path 12" d="M91.8,19.51,84.857,30.738,78,19.558Z" transform="translate(-57.993 3.919)" fill="#008dbe"/>
        <path id="Path_13" data-name="Path 13" d="M97.478,11.81,91.8,21.057,78,21.1Z" transform="translate(-57.993 2.372)" fill="#57bae5"/>
        <path id="Path_14" data-name="Path 14" d="M89.572,19.51,89.08,33.4,101.785,46.4Z" transform="translate(-55.768 3.919)" fill="#00698d"/>
        <path id="Path_15" data-name="Path 15" d="M106.313,38.632,99.6,22l.072,23.909Z" transform="translate(-53.655 4.419)" fill="#09a1cb"/>
        <path id="Path_16" data-name="Path 16" d="M102.868,15.85l-1.237,7.385L89.49,20.245Z" transform="translate(-55.686 3.184)" fill="#09a1cb"/>
        <path id="Path_17" data-name="Path 17" d="M106.985,25.863,99.6,23.233l1.2-7.373Z" transform="translate(-53.655 3.186)" fill="#8bdaff"/>
        <path id="Path_18" data-name="Path 18" d="M109.346,37.627,101.3,24.73h4.6Z" transform="translate(-53.313 4.968)" fill="#7acdf2"/>
        <path id="Path_19" data-name="Path 19" d="M95.48,10.121l6.184,7.6L102.4,6.53Z" transform="translate(-54.482 1.312)" fill="#57bae5"/>
        <path id="Path_20" data-name="Path 20" d="M101.631,22.5,89.49,19.51,101.7,46.4Z" transform="translate(-55.686 3.919)" fill="#008dbe"/>
        <path id="Path_21" data-name="Path 21" d="M106.3,35.85l2.678,1.5L99.68,43.115Z" transform="translate(-53.639 7.201)" fill="#0076a7"/>
        <path id="Path_22" data-name="Path 22" d="M109.687,38.02,99.6,22l6.713,16.644Z" transform="translate(-53.655 4.419)" fill="#57bae5"/>
        <path id="Path_23" data-name="Path 23" d="M96.685,9.52,89.48,21.529l13.378-4.4Z" transform="translate(-55.688 1.912)" fill="#7acdf2"/>
      </g>
    </g>
  </g>
</svg>
