<svg xmlns="http://www.w3.org/2000/svg" xmlns:xlink="http://www.w3.org/1999/xlink" width="276" height="80" viewBox="0 0 276 80">
  <defs>
    <clipPath id="clip-path">
      <rect id="Rectangle_1" data-name="Rectangle 1" width="247.56" height="36.929" fill="#fff"/>
    </clipPath>
    <clipPath id="clip-Huobi_global">
      <rect width="276" height="80"/>
    </clipPath>
  </defs>
  <g id="Huobi_global" data-name="Huobi global" clip-path="url(#clip-Huobi_global)">
    <g id="be67df6" transform="translate(14 22)" clip-path="url(#clip-path)">
      <path id="Path_1" data-name="Path 1" d="M33.3,5.6v10.6H22.843V6.968A1.364,1.364,0,0,0,21.478,5.6H17.947V30.867a1.364,1.364,0,0,0,1.365,1.364h3.531V20.481H33.3V30.867a1.364,1.364,0,0,0,1.365,1.364H38.2V6.968A1.364,1.364,0,0,0,36.833,5.6Z" transform="translate(12.532 3.913)" fill="#282e5b" fill-rule="evenodd"/>
      <path id="Path_2" data-name="Path 2" d="M44.067,9.3V21.918a3.23,3.23,0,0,1-1.578,2.807,3.653,3.653,0,0,1-5.64-3.036V10.664A1.364,1.364,0,0,0,35.484,9.3H31.939V22.139a7.534,7.534,0,0,0,7.514,7.511h2.009a7.534,7.534,0,0,0,7.514-7.511V10.664A1.364,1.364,0,0,0,47.612,9.3Z" transform="translate(22.302 6.494)" fill="#282e5b" fill-rule="evenodd"/>
      <path id="Path_3" data-name="Path 3" d="M71.7,29.19h3.531V11.322A1.364,1.364,0,0,0,73.87,9.958H70.339V27.826A1.364,1.364,0,0,0,71.7,29.19Z" transform="translate(49.115 6.953)" fill="#2483ff" fill-rule="evenodd"/>
      <path id="Path_4" data-name="Path 4" d="M72.9,11.064a2.731,2.731,0,1,0-2.732-2.731A2.731,2.731,0,0,0,72.9,11.064Z" transform="translate(48.998 3.912)" fill="#2483ff" fill-rule="evenodd"/>
      <path id="Path_5" data-name="Path 5" d="M57.769,21.206a4.125,4.125,0,0,1-4.415,4.043,4.126,4.126,0,0,1-4.416-4.043V17.742A4.126,4.126,0,0,1,53.354,13.7a4.125,4.125,0,0,1,4.415,4.044ZM53.354,9.293c-5.135,0-9.336,3.671-9.336,8.8v2.776c0,5.132,4.2,8.782,9.336,8.782s9.336-3.65,9.336-8.782V18.1C62.69,12.965,58.488,9.293,53.354,9.293Z" transform="translate(30.736 6.489)" fill="#282e5b" fill-rule="evenodd"/>
      <path id="Path_6" data-name="Path 6" d="M70.853,23.791a4.433,4.433,0,0,1-8.831,0V20.327a4.433,4.433,0,0,1,8.831,0ZM66.437,11.879A10.055,10.055,0,0,0,62,12.887V6.955a1.364,1.364,0,0,0-1.365-1.364H57.1V23.458c0,5.132,4.2,8.782,9.336,8.782s9.336-3.649,9.336-8.782V20.682C75.773,15.55,71.572,11.879,66.437,11.879Z" transform="translate(39.872 3.904)" fill="#2483ff" fill-rule="evenodd"/>
      <path id="Path_7" data-name="Path 7" d="M128.271,23.868a4.387,4.387,0,0,1-8.741,0V20.439a4.387,4.387,0,0,1,8.741,0Zm-4.37-11.79h0a9.953,9.953,0,0,0-4.4,1V6.951a1.35,1.35,0,0,0-1.352-1.35h-3.493V23.538c0,5.079,4.157,8.691,9.24,8.691h0c5.081,0,9.239-3.612,9.239-8.691V20.791C133.14,15.711,128.982,12.078,123.9,12.078Z" transform="translate(80.063 3.911)" fill="#282e5b" fill-rule="evenodd"/>
      <path id="Path_8" data-name="Path 8" d="M150.111,32.129V29.057a1.312,1.312,0,0,0-1.316-1.314c-.737,0-1.661,0-2.44,0-1.989,0-1.9-.994-1.9-3.57V6.928a1.313,1.313,0,0,0-1.313-1.314H139.56V24.767c0,4.638,1.2,7.362,6.205,7.362,1.936,0,3.339-.055,4.346,0Z" transform="translate(97.449 3.92)" fill="#282e5b" fill-rule="evenodd"/>
      <path id="Path_9" data-name="Path 9" d="M98.594,16.3H89.121v2.58a1.4,1.4,0,0,0,1.4,1.4h4.5v2.281a5.125,5.125,0,0,1-1.289,3.8,6.21,6.21,0,0,1-8.226.244c-1.284-1.258-1.56-2.623-1.56-7.692,0-5.04.277-6.4,1.56-7.656A6.841,6.841,0,0,1,89.835,9.64c5.178,0,6.917,1.837,8.215,3.51h.17V9.41a1.819,1.819,0,0,0-.7-1.415c-2.169-1.735-4.332-2.37-8.056-2.37a11.038,11.038,0,0,0-7.643,2.807c-2.85,2.572-2.85,5.474-2.849,10.282v.409c0,4.808,0,7.71,2.849,10.282a11.846,11.846,0,0,0,15.569-.221h0c1.849-1.775,2.6-5.173,2.6-8.707v-2.77A1.4,1.4,0,0,0,98.594,16.3Z" transform="translate(55.146 3.928)" fill="#282e5b" fill-rule="evenodd"/>
      <path id="Path_10" data-name="Path 10" d="M103.954,32.129V29.057a1.312,1.312,0,0,0-1.317-1.314c-.736,0-1.66,0-2.44,0-1.989,0-1.9-.994-1.9-3.57V6.928a1.314,1.314,0,0,0-1.314-1.314H93.4V24.767c0,4.638,1.2,7.362,6.2,7.362,1.935,0,3.339-.055,4.346,0Z" transform="translate(65.22 3.92)" fill="#282e5b" fill-rule="evenodd"/>
      <path id="Path_11" data-name="Path 11" d="M115.307,21.205a4.387,4.387,0,0,1-8.739,0V17.777a4.387,4.387,0,0,1,8.739,0Zm-4.37-11.79c-5.081,0-9.24,3.633-9.24,8.713v2.748c0,5.08,4.159,8.691,9.24,8.691s9.24-3.612,9.24-8.691V18.128C120.177,13.049,116.02,9.415,110.937,9.415Z" transform="translate(71.011 6.574)" fill="#282e5b" fill-rule="evenodd"/>
      <path id="Path_12" data-name="Path 12" d="M139.538,20.459v5.056c-.377.073-.795.131-1.247.173a16.9,16.9,0,0,1-3.256.018,3.482,3.482,0,0,1-1.24-.34,2.367,2.367,0,0,1-.9-.776,2.47,2.47,0,0,1-.348-1.43,2.328,2.328,0,0,1,1.058-2.125,6.4,6.4,0,0,1,3.417-.738q.609,0,1.488.07C138.9,20.4,139.241,20.428,139.538,20.459Zm2.62-9.317a9.961,9.961,0,0,0-6.311-1.747,24.154,24.154,0,0,0-3.177.22c-.875.117-2.114.284-2.974.482-.348.08-.413.354-.413.682v2.614c0,.466.005.89.5.769.92-.224,2.705-.62,3.191-.7a15.358,15.358,0,0,1,2.481-.19,5.458,5.458,0,0,1,3.1.727,2.947,2.947,0,0,1,.978,2.568v.151c-.245-.022-.511-.044-.8-.064q-.82-.055-2.1-.056a14.074,14.074,0,0,0-3.354.393,9.3,9.3,0,0,0-2.877,1.219,6.346,6.346,0,0,0-2.019,2.094,5.67,5.67,0,0,0-.749,2.928,6.131,6.131,0,0,0,.64,2.893,5.433,5.433,0,0,0,1.831,2,8.024,8.024,0,0,0,2.819,1.118,17.8,17.8,0,0,0,3.592.334c.958,0,7.86-.1,7.86-3.38V16.71C144.376,14.191,143.631,12.318,142.159,11.142Z" transform="translate(89.122 6.56)" fill="#282e5b" fill-rule="evenodd"/>
      <path id="Path_13" data-name="Path 13" d="M15.822,11.365c0-5.3-2.584-9.862-4.55-11.347-.008,0-.15-.085-.138.127l0,.007c-.163,10.237-5.4,13.012-8.272,16.75-6.638,8.626-.465,18.082,5.822,19.83,3.518.978-.812-1.73-1.37-7.451C6.637,22.367,15.822,17.089,15.822,11.365Z" transform="translate(0 0)" fill="#282e5b" fill-rule="evenodd"/>
      <path id="Path_14" data-name="Path 14" d="M13.734,8.755c-.04-.027-.1-.046-.137.019-.108,1.289-1.425,4.045-3.094,6.577C4.841,23.937,8.068,28.076,9.882,30.3c1.053,1.291,0,0,2.633-1.319a11.865,11.865,0,0,0,5.671-9.165A13.275,13.275,0,0,0,13.734,8.755Z" transform="translate(5.104 6.096)" fill="#2483ff" fill-rule="evenodd"/>
    </g>
  </g>
</svg>
