<svg xmlns="http://www.w3.org/2000/svg" xmlns:xlink="http://www.w3.org/1999/xlink" width="276" height="80" viewBox="0 0 276 80">
  <defs>
    <clipPath id="clip-Kucoin">
      <rect width="276" height="80"/>
    </clipPath>
  </defs>
  <g id="Kucoin" clip-path="url(#clip-Kucoin)">
    <g id="页面-1" transform="translate(32 9.202)">
      <g id="导航栏下拉最小宽度备份-4" transform="translate(-13.5 -14.027)">
        <g id="编组-27备份-2" transform="translate(0 0)">
          <g id="kucoin-logo">
            <rect id="矩形" width="240" height="90" transform="translate(0.5 -0.175)" fill="none"/>
            <g id="KUCOIN-logo-3.0" transform="translate(21.933 22.43)">
              <path id="形状" d="M102.681,19.048c0-1.143,0-2.217-.037-3.21a19.466,19.466,0,0,0-.277-2.793,9.419,9.419,0,0,0-.783-2.433,7.878,7.878,0,0,0-1.545-2.141A9.884,9.884,0,0,0,96.9,6.306a10.3,10.3,0,0,0-4.012-.752,10.439,10.439,0,0,0-4.028.752A9.8,9.8,0,0,0,85.7,8.46,7.81,7.81,0,0,0,84.161,10.6a9.318,9.318,0,0,0-.771,2.433,19.505,19.505,0,0,0-.267,2.793c-.025.993-.037,2.067-.031,3.21s0,2.209.031,3.208a19.505,19.505,0,0,0,.267,2.793,9.317,9.317,0,0,0,.771,2.433A7.906,7.906,0,0,0,85.7,29.613a9.7,9.7,0,0,0,3.159,2.15,10.365,10.365,0,0,0,4.028.756,10.221,10.221,0,0,0,4.012-.756,9.772,9.772,0,0,0,3.14-2.15,7.975,7.975,0,0,0,1.545-2.141,9.418,9.418,0,0,0,.783-2.433,19.51,19.51,0,0,0,.273-2.785c.031-1,.045-2.067.037-3.208Zm-5.179,0c0,1.266-.019,2.32-.062,3.159a16.009,16.009,0,0,1-.205,2.055,5.075,5.075,0,0,1-.411,1.309,3.741,3.741,0,0,1-.616.919,3.978,3.978,0,0,1-1.4,1.028,4.794,4.794,0,0,1-1.913.386,4.877,4.877,0,0,1-1.924-.386,3.991,3.991,0,0,1-1.438-1.028,3.613,3.613,0,0,1-.617-.919,4.933,4.933,0,0,1-.39-1.309,17.117,17.117,0,0,1-.205-2.055q-.056-1.258-.056-3.159c0-1.266.018-2.322.056-3.161a17.182,17.182,0,0,1,.205-2.055,4.933,4.933,0,0,1,.39-1.309,3.647,3.647,0,0,1,.617-.919,4.015,4.015,0,0,1,1.438-1.028,4.768,4.768,0,0,1,1.924-.386,4.689,4.689,0,0,1,1.913.386,4,4,0,0,1,1.4,1.028,3.781,3.781,0,0,1,.616.919,5.072,5.072,0,0,1,.411,1.309,16.068,16.068,0,0,1,.205,2.055C97.486,16.723,97.5,17.78,97.5,19.048Z" transform="translate(49.855 3.327)" fill="#23af91"/>
              <path id="路径" d="M128.739,6.153a.459.459,0,0,0-.454-.454h-4.272a.455.455,0,0,0-.454.454V21.936L113.139,5.826c-.07-.109-.131-.127-.286-.127h-3.962a.46.46,0,0,0-.454.454v25.61a.458.458,0,0,0,.454.452h4.27a.452.452,0,0,0,.451-.452V15.939l10.422,16.146c.072.109.13.128.285.128h3.96a.456.456,0,0,0,.454-.452Z" transform="translate(65.062 3.414)" fill="#23af91"/>
              <path id="路径-2" data-name="路径" d="M105.167,6.153a.455.455,0,0,0-.454-.454h-4.267a.456.456,0,0,0-.455.454V31.761a.456.456,0,0,0,.455.454h4.267a.455.455,0,0,0,.454-.454Z" transform="translate(59.994 3.414)" fill="#23af91"/>
              <path id="路径-3" data-name="路径" d="M73.231,19.042c0-1.274.014-2.335.051-3.179a16.332,16.332,0,0,1,.206-2.055,4.494,4.494,0,0,1,7.988-1.852,5.878,5.878,0,0,1,.822,1.874.138.138,0,0,0,.148.113h5.025c.072,0,.1-.049.086-.119a9.557,9.557,0,0,0-5.138-7.285,10.562,10.562,0,0,0-4.6-.976,9.717,9.717,0,0,0-7.149,2.906A7.672,7.672,0,0,0,68.5,12.448a36.612,36.612,0,0,0-.448,6.593,35.585,35.585,0,0,0,.448,6.591,7.684,7.684,0,0,0,2.16,3.987,9.717,9.717,0,0,0,7.149,2.9,10.59,10.59,0,0,0,4.6-.974,9.558,9.558,0,0,0,5.138-7.285c.012-.072-.014-.119-.086-.119H82.438a.136.136,0,0,0-.148.113,5.881,5.881,0,0,1-.822,1.872,4.494,4.494,0,0,1-7.988-1.85,16.423,16.423,0,0,1-.205-2.055C73.246,21.375,73.231,20.312,73.231,19.042Z" transform="translate(40.834 3.332)" fill="#23af91"/>
              <path id="路径-4" data-name="路径" d="M40.064,6.153a.456.456,0,0,0-.454-.454H35.341a.456.456,0,0,0-.454.454v25.61a.456.456,0,0,0,.454.452h4.268a.457.457,0,0,0,.454-.452V24.246l3.426-4.1,7.036,11.93a.286.286,0,0,0,.255.136h5.187c.238,0,.281-.148.162-.352L46.917,16.245,55.37,6.106c.171-.206.1-.4-.168-.4h-5.67a.205.205,0,0,0-.177.082L40.064,16.93Z" transform="translate(20.932 3.414)" fill="#23af91"/>
              <path id="路径-5" data-name="路径" d="M61.217,27.821a4.849,4.849,0,0,1-4.581-4.879V6.153a.456.456,0,0,0-.454-.454H51.914a.456.456,0,0,0-.454.454V22.877c0,5.847,4.373,9.562,9.757,9.562s9.757-3.716,9.757-9.562V6.153A.458.458,0,0,0,70.52,5.7H66.25a.456.456,0,0,0-.452.454v16.79A4.852,4.852,0,0,1,61.217,27.821Z" transform="translate(30.876 3.414)" fill="#23af91"/>
              <path id="形状-2" data-name="形状" d="M12.914,22.378,26.165,35.631l8.364-8.364a3.783,3.783,0,0,1,5.343,5.343L28.834,43.649a3.81,3.81,0,0,1-5.343,0L7.567,27.721v9.468a3.783,3.783,0,0,1-7.567,0V7.555a3.783,3.783,0,0,1,7.567,0v9.468L23.489,1.1a3.808,3.808,0,0,1,5.343,0L39.878,12.135a3.783,3.783,0,0,1-5.343,5.343L26.171,9.114ZM26.171,18.59h0A3.784,3.784,0,1,0,28.848,19.7a3.787,3.787,0,0,0-2.677-1.109Z" transform="translate(0 -0.003)" fill="#23af91" fill-rule="evenodd"/>
            </g>
          </g>
        </g>
      </g>
    </g>
  </g>
</svg>
