<svg xmlns="http://www.w3.org/2000/svg" xmlns:xlink="http://www.w3.org/1999/xlink" width="276" height="80" viewBox="0 0 276 80">
  <defs>
    <clipPath id="clip-Zcash">
      <rect width="276" height="80"/>
    </clipPath>
  </defs>
  <g id="Zcash" clip-path="url(#clip-Zcash)">
    <g id="zcash-logo-horizontal-fullcolor" transform="translate(48.7 -2.3)">
      <path id="Path_1" data-name="Path 1" d="M559.895,155.6v2.081L543.633,178.3h16.6v2.01H541v-2.081l16.262-20.621H542.1V155.6Z" transform="translate(-457.306 -125.594)"/>
      <path id="Path_2" data-name="Path 2" d="M697.832,203.286a4.744,4.744,0,0,0-3.4-1.146,5.572,5.572,0,0,0-2.732.665,6.02,6.02,0,0,0-1.953,1.727,7.756,7.756,0,0,0-1.175,2.434,10.093,10.093,0,0,0,0,5.576,8.077,8.077,0,0,0,1.175,2.434A6.169,6.169,0,0,0,691.7,216.7a5.41,5.41,0,0,0,2.732.651,4.951,4.951,0,0,0,1.911-.382,5.03,5.03,0,0,0,1.585-1.061,5.673,5.673,0,0,0,1.146-1.613,5.974,5.974,0,0,0,.552-2.038h2.18a8.152,8.152,0,0,1-2.392,5.067,7.05,7.05,0,0,1-4.982,1.812,8.558,8.558,0,0,1-3.609-.736,7.563,7.563,0,0,1-2.647-2.024,8.661,8.661,0,0,1-1.628-2.986,12.354,12.354,0,0,1,0-7.3,8.661,8.661,0,0,1,1.628-2.986,7.774,7.774,0,0,1,2.647-2.038,8.15,8.15,0,0,1,3.609-.764,7.71,7.71,0,0,1,4.855,1.529,6.434,6.434,0,0,1,2.364,4.6h-2.18A5.888,5.888,0,0,0,697.832,203.286Z" transform="translate(-581.784 -163.967)"/>
      <path id="Path_3" data-name="Path 3" d="M811.482,203.676a5.077,5.077,0,0,1,1.5-1.868,6.545,6.545,0,0,1,2.236-1.076,10.617,10.617,0,0,1,2.831-.34,13.238,13.238,0,0,1,2.364.226,5.708,5.708,0,0,1,2.109.849,4.581,4.581,0,0,1,1.529,1.755,6.244,6.244,0,0,1,.594,2.916v9.483a1.145,1.145,0,0,0,1.274,1.316,1.69,1.69,0,0,0,.694-.142v1.826c-.255.042-.481.085-.679.1a4.271,4.271,0,0,1-.736.028,3.3,3.3,0,0,1-1.33-.226,1.791,1.791,0,0,1-.778-.637,2.471,2.471,0,0,1-.368-.991,9.4,9.4,0,0,1-.085-1.26h-.071a17.891,17.891,0,0,1-1.189,1.543,5.953,5.953,0,0,1-1.345,1.118,6.132,6.132,0,0,1-1.7.693,9.986,9.986,0,0,1-4.6-.057,5.173,5.173,0,0,1-1.9-.934,4.473,4.473,0,0,1-1.274-1.628,5.514,5.514,0,0,1-.467-2.335,4.582,4.582,0,0,1,.835-2.916,5.287,5.287,0,0,1,2.194-1.613,12.818,12.818,0,0,1,3.085-.778c1.146-.156,2.293-.3,3.482-.425a11.485,11.485,0,0,0,1.217-.17,2.132,2.132,0,0,0,.863-.368,1.662,1.662,0,0,0,.538-.708,3.051,3.051,0,0,0,.184-1.175,3.961,3.961,0,0,0-.368-1.812,2.837,2.837,0,0,0-1-1.118,4.048,4.048,0,0,0-1.486-.566,9.687,9.687,0,0,0-1.812-.156,5.467,5.467,0,0,0-3.4.991,3.907,3.907,0,0,0-1.387,3.17h-2.18A6.873,6.873,0,0,1,811.482,203.676ZM822.38,209a1.264,1.264,0,0,1-.793.552,9.086,9.086,0,0,1-1.033.241c-.92.156-1.868.311-2.859.425a15.5,15.5,0,0,0-2.675.566,5.2,5.2,0,0,0-2,1.09,2.573,2.573,0,0,0-.778,2.024,3.111,3.111,0,0,0,.326,1.472,3.334,3.334,0,0,0,.878,1.1,4.024,4.024,0,0,0,1.274.708,4.8,4.8,0,0,0,1.486.241,7.687,7.687,0,0,0,2.392-.382,6,6,0,0,0,2-1.1,5.272,5.272,0,0,0,1.854-4.119v-2.831Z" transform="translate(-688.314 -164.046)"/>
      <path id="Path_4" data-name="Path 4" d="M945.294,204.213a3.577,3.577,0,0,0-1.019-1.231,4.3,4.3,0,0,0-1.472-.708,6.816,6.816,0,0,0-1.769-.226,7.32,7.32,0,0,0-1.472.156,4.376,4.376,0,0,0-1.373.524,2.805,2.805,0,0,0-1.005.948,2.65,2.65,0,0,0-.382,1.458,2.033,2.033,0,0,0,.368,1.231,3.294,3.294,0,0,0,.92.849,5.816,5.816,0,0,0,1.2.566c.439.156.849.269,1.217.368l2.9.651a9.188,9.188,0,0,1,1.854.5,6.049,6.049,0,0,1,1.628.948,4.485,4.485,0,0,1,1.161,1.458,4.423,4.423,0,0,1,.453,2.038,4.493,4.493,0,0,1-.665,2.477,5.419,5.419,0,0,1-1.684,1.67,7.1,7.1,0,0,1-2.307.92,11.649,11.649,0,0,1-2.519.283,8.189,8.189,0,0,1-5.1-1.486,6.364,6.364,0,0,1-2.236-4.77h2.18a4.35,4.35,0,0,0,1.613,3.34,5.814,5.814,0,0,0,3.651,1.118,7.982,7.982,0,0,0,1.642-.17,5.151,5.151,0,0,0,1.571-.594,3.719,3.719,0,0,0,1.189-1.061,2.626,2.626,0,0,0,.467-1.571,2.543,2.543,0,0,0-.326-1.33,2.975,2.975,0,0,0-.878-.906,6.076,6.076,0,0,0-1.26-.609c-.467-.156-.948-.3-1.444-.41l-2.8-.623a16.22,16.22,0,0,1-1.982-.651,6.218,6.218,0,0,1-1.571-.906,4,4,0,0,1-1.062-1.316,4.5,4.5,0,0,1-.382-1.925,4.2,4.2,0,0,1,.609-2.321,4.722,4.722,0,0,1,1.571-1.557,7.379,7.379,0,0,1,2.166-.863,10.278,10.278,0,0,1,2.364-.283,8.771,8.771,0,0,1,2.505.34,5.541,5.541,0,0,1,2.038,1.076,5.249,5.249,0,0,1,1.4,1.8,6.505,6.505,0,0,1,.594,2.519h-2.18a3.828,3.828,0,0,0-.382-1.713Z" transform="translate(-794.683 -163.875)"/>
      <path id="Path_5" data-name="Path 5" d="M1058.28,155.6v9.936h.071a5.328,5.328,0,0,1,2.208-2.618,6.507,6.507,0,0,1,3.5-.991,8.7,8.7,0,0,1,3.128.481,4.961,4.961,0,0,1,2.024,1.373,5.121,5.121,0,0,1,1.076,2.165,12.319,12.319,0,0,1,.311,2.873v11.492h-2.179V169.173a10.707,10.707,0,0,0-.212-2.123,4.706,4.706,0,0,0-.722-1.713,3.469,3.469,0,0,0-1.4-1.146,5.06,5.06,0,0,0-2.194-.41,5.515,5.515,0,0,0-2.335.467,4.983,4.983,0,0,0-1.727,1.288,5.754,5.754,0,0,0-1.1,1.939,7.949,7.949,0,0,0-.439,2.434v10.417h-2.18V155.6Z" transform="translate(-899.502 -125.594)"/>
      <path id="Path_6" data-name="Path 6" d="M74.57,48a27.663,27.663,0,1,0,27.67,27.67A27.7,27.7,0,0,0,74.57,48Zm0,53.782a26.12,26.12,0,1,1,26.113-26.127A26.112,26.112,0,0,1,74.57,101.782Z" transform="translate(-33.137 -33.223)" fill="none"/>
      <path id="Path_7" data-name="Path 7" d="M84.013,58.9a26.12,26.12,0,1,0,26.113,26.127A26.112,26.112,0,0,0,84.013,58.9ZM95.831,74.7l-2.548,3.241L81.819,93.717H95.831v6.694H86.787v5.534h-.665v.028H81.9v-.028h-.665v-5.534H72.195V95.359l2.548-3.241L86.206,76.337H72.195V69.642h9.044V64.08h5.548v5.548h9.044Z" transform="translate(-42.58 -42.58)" fill="#f4b728"/>
      <path id="Path_8" data-name="Path 8" d="M41.433,9.3A33.133,33.133,0,1,0,74.565,42.433,33.167,33.167,0,0,0,41.433,9.3Zm0,60.8A27.663,27.663,0,1,1,69.1,42.447,27.7,27.7,0,0,1,41.433,70.1Zm2.774-43.04h9.044v5.053L39.239,51.137H53.251v6.694H44.207v5.534H38.659V57.831H29.615V52.779L43.626,33.757H29.615V27.062h9.044V21.5h5.548Z" fill="#231f20"/>
    </g>
  </g>
</svg>
