<svg xmlns="http://www.w3.org/2000/svg" xmlns:xlink="http://www.w3.org/1999/xlink" width="300" height="300" viewBox="0 0 300 300">
  <defs>
    <clipPath id="clip-Amp_">
      <rect width="300" height="300"/>
    </clipPath>
  </defs>
  <g id="Amp_" data-name="Amp " clip-path="url(#clip-Amp_)">
    <rect width="300" height="300" fill="rgba(255,255,255,0)"/>
    <path id="Path_3" data-name="Path 3" d="M20,0H270a20,20,0,0,1,20,20V270a20,20,0,0,1-20,20H20A20,20,0,0,1,0,270V20A20,20,0,0,1,20,0Z" transform="translate(5 5)" fill="#d9327c"/>
    <g id="amp-amp-logo" transform="translate(-18.613 -13.625)">
      <path id="Path_4" data-name="Path 4" d="M128.793,50.827a15.081,15.081,0,0,0-4.816,7.706c-1.284,4.174-8.348,24.722-17.338,50.407h60.039c-8.99-25.685-16.053-46.233-17.338-50.407a15.081,15.081,0,0,0-4.816-7.706c-1.605-1.284-3.853-2.247-8.027-2.247S130.4,49.543,128.793,50.827ZM40.179,108.94H80.955c9.953-29.217,18.622-53.618,19.906-58.113,2.569-7.706,6.742-14.448,13.164-19.264A36.456,36.456,0,0,1,136.178,24.5c8.027,0,15.732,1.926,22.154,7.063,6.421,4.816,10.6,11.558,13.164,19.264C173.1,55.322,181.448,79.4,191.4,108.94h41.417a12.2,12.2,0,1,1,0,24.4H40.179a11.925,11.925,0,0,1-11.879-12.2A12.131,12.131,0,0,1,40.179,108.94Zm0,48.16A11.925,11.925,0,0,0,28.3,169.3a12.131,12.131,0,0,0,11.879,12.2H56.233l-6.421,18.622L43.39,218.745l-2.569,7.063a12.084,12.084,0,1,0,22.8,8.027l2.569-7.063,6.421-18.622c2.569-7.706,5.779-16.7,9.311-26.648h109.8c3.211,9.632,6.421,18.943,9.311,26.648l6.421,18.622,2.569,7.063a12.084,12.084,0,1,0,22.8-8.027h0l-2.569-7.063-6.421-18.622L217.407,181.5h16.053a12.2,12.2,0,1,0,0-24.4H40.179Zm180.76,72.24,11.237-3.853Zm0,0L209.7,233.192Zm-168.559,0,11.237,3.853Zm0,0-11.237-3.853Z" transform="translate(31.952 27.661)" fill="#fff" fill-rule="evenodd"/>
    </g>
  </g>
</svg>
