<svg xmlns="http://www.w3.org/2000/svg" xmlns:xlink="http://www.w3.org/1999/xlink" width="300" height="300" viewBox="0 0 300 300">
  <defs>
    <clipPath id="clip-path">
      <rect id="Rectangle_2" data-name="Rectangle 2" width="300" height="300"/>
    </clipPath>
  </defs>
  <g id="Bitcoin" clip-path="url(#clip-path)">
    <rect id="Rectangle_1" data-name="Rectangle 1" width="300" height="300" fill="rgba(255,255,255,0)"/>
    <path id="Path_7" data-name="Path 7" d="M20,0H270a20,20,0,0,1,20,20V270a20,20,0,0,1-20,20H20A20,20,0,0,1,0,270V20A20,20,0,0,1,20,0Z" transform="translate(5 5)" fill="#f7931a"/>
    <path id="bitcoin_5_" data-name="bitcoin(5)" d="M140.008,100.584c-1.063-7.574-4.783-13.423-11.427-17.273a95.4,95.4,0,0,0-9.833-4.385c.4-.266.664-.531.93-.664,16.609-8.5,15.147-34.148,3.056-42.917a43.718,43.718,0,0,0-16.078-7.175c-4.119-.93-8.238-1.595-12.49-2.259,0-7.44.133-17.672.133-25.91H78.754c-.133,8.105-.133,18.071-.266,25.378H66c0-7.309.133-17.273.133-25.378H50.72c-.133,8.238-.133,18.469-.266,25.777-10.63-.133-20.861-.133-31.491-.266,0,5.714-.133,11.028-.133,16.609,2.259,0,4.252,0,6.114.133,1.993,0,3.986,0,5.847.133,5.448.4,8.238,3.455,8.238,8.769-.266,22.189-.531,44.512-.664,66.7,0,4.92-2.126,6.776-6.909,6.776H21.088c-1.063,6.245-2.126,12.224-3.189,18.469,10.5.133,20.861.266,31.491.4,0,7.972-.133,18.07-.133,26.441H64.8c.133-8.371.133-18.2.266-26.043,4.385.133,8.371.266,12.49.4,0,7.972-.133,17.672-.133,25.777H92.971c.133-8.371.133-18.2.266-25.91.531-.133.93-.133,1.329-.266,7.44-1.195,15.014-1.86,22.189-3.584,9.434-2.389,16.875-7.84,20.861-17.14a44.806,44.806,0,0,0,2.389-22.588ZM66.265,43.714c9.7,0,19.133-.8,27.9,3.189,5.847,2.524,8.769,7.309,8.371,13.021-.4,6.114-3.853,10.5-10.1,12.49-8.5,2.79-17.406,2.657-26.575,2.259.133-10.1.266-20.2.4-30.959Zm33.882,77.6c-8.637,3.853-17.672,3.853-26.84,3.986-2.524,0-5.049-.133-7.84-.133l.4-34.414c11.826,0,23.518-.93,34.546,3.986,5.714,2.524,9.035,6.909,9.035,13.423C109.315,114.668,105.86,118.787,100.147,121.312Z" transform="translate(88.623 51.415) rotate(11)" fill="#f5f5f5"/>
  </g>
</svg>
