<svg xmlns="http://www.w3.org/2000/svg" xmlns:xlink="http://www.w3.org/1999/xlink" viewBox="0 0 100 100">
  <defs>
    <clipPath id="clip-BNB">
      <rect width="100" height="100"/>
    </clipPath>
  </defs>
  <g id="BNB" clip-path="url(#clip-BNB)">
    <rect width="100" height="100" fill="rgba(255,255,255,0)"/>
    <rect id="rectangle" width="90" height="90" rx="10" transform="translate(5 5)" fill="#f3ba2f"/>
    <g id="Layer_2" data-name="Layer 2" transform="translate(20 20)">
      <g id="Layer_1" data-name="Layer 1">
        <path id="Path_5" data-name="Path 5" d="M18.348,25.212,30,13.56,41.658,25.218l6.78-6.78L30,0,11.568,18.432l6.78,6.78M0,30l6.78-6.781L13.56,30l-6.78,6.78Zm18.348,4.788L30,46.44,41.658,34.783l6.784,6.776,0,0L30,60,11.568,41.568l-.01-.01,6.79-6.771M46.44,30l6.78-6.78L60,30l-6.78,6.78Z" fill="#fff"/>
        <path id="Path_6" data-name="Path 6" d="M976.95,970.07h0l-6.879-6.88-5.085,5.083h0l-.584.584-1.2,1.205-.01.009.01.01,6.874,6.875,6.88-6.88,0,0-.006,0" transform="translate(-940.073 -940.073)" fill="#fff"/>
      </g>
    </g>
  </g>
</svg>