<svg xmlns="http://www.w3.org/2000/svg" xmlns:xlink="http://www.w3.org/1999/xlink" width="300" height="300" viewBox="0 0 300 300">
  <defs>
    <clipPath id="clip-PancakeSwap_">
      <rect width="300" height="300"/>
    </clipPath>
  </defs>
  <g id="PancakeSwap_" data-name="PancakeSwap " clip-path="url(#clip-PancakeSwap_)">
    <rect width="300" height="300" fill="rgba(255,255,255,0)"/>
    <g id="pancakeswap-cake-logo" transform="translate(9 9)">
      <path id="Path_4" data-name="Path 4" d="M50.707,44.063A37.141,37.141,0,0,1,87.18,0c20.461,0,37.363,16.744,37.363,37.013V82.838c5.338,0,10.675-.881,16.013-.881a87.113,87.113,0,0,1,15.123.881V37.013C155.678,16.744,172.58,0,193.041,0,216.17,0,233.962,21.15,230.4,44.063l-9.786,53.756C255.312,112.8,282,139.238,282,171.844v20.269c0,27.319-17.792,50.231-43.59,65.212-25.8,15.862-59.6,24.675-97.855,24.675S68.5,273.188,42.7,257.325C17.792,242.344,0,219.431,0,192.113V171.844C0,139.238,25.8,112.8,60.492,97.819Zm156.568,60.806,11.565-63.45c2.669-15.863-8.9-30.844-25.8-30.844a25.7,25.7,0,0,0-25.8,25.556V94.294c-3.558-.881-8.006-.881-11.565-.881-5.338,0-9.785-.881-15.123-.881a97.59,97.59,0,0,0-16.013.881c-3.558,0-8.006.881-11.565.881V37.013a25.7,25.7,0,0,0-25.8-25.556c-16.013,0-28.467,14.981-24.909,30.844l11.565,63.45c-37.363,14.1-62.271,38.775-62.271,66.975v20.269c0,43.181,57.823,78.431,128.991,78.431s128.991-35.25,128.991-78.431V172.725C270.435,143.644,245.527,118.969,207.274,104.869Z" fill="#633001" fill-rule="evenodd"/>
      <path id="Path_5" data-name="Path 5" d="M259.6,39.769c0,43.181-57.872,78.431-129.1,78.431S1.4,82.95,1.4,39.769V19.5H260.487V39.769Z" transform="translate(10.937 152.344)" fill="#fedc90"/>
      <path id="Path_6" data-name="Path 6" d="M51.261,32.144C47.7,16.281,60.164,1.3,76.191,1.3a25.708,25.708,0,0,1,25.821,25.556V85.019a272.392,272.392,0,0,1,27.6-1.762c8.9,0,17.807.881,26.711,1.762V26.856A25.708,25.708,0,0,1,182.144,1.3c16.027,0,28.492,14.981,25.821,30.844L196.39,95.594c37.4,14.1,63.216,38.775,63.216,66.975,0,43.181-57.874,78.431-129.1,78.431S1.4,205.75,1.4,162.569c0-28.2,24.93-52.875,62.326-66.975Z" transform="translate(10.938 10.156)" fill="#d1884f" fill-rule="evenodd"/>
      <path id="Path_7" data-name="Path 7" d="M36.8,37.65c0,11.456-6.169,21.15-14.1,21.15S8.6,49.106,8.6,37.65,14.769,16.5,22.7,16.5,36.8,26.194,36.8,37.65Z" transform="translate(67.985 128.906)" fill="#633001"/>
      <path id="Path_8" data-name="Path 8" d="M47.9,37.65c0,11.456-6.169,21.15-14.1,21.15S19.7,49.106,19.7,37.65,25.869,16.5,33.8,16.5,47.9,26.194,47.9,37.65Z" transform="translate(155.734 128.906)" fill="#633001"/>
    </g>
  </g>
</svg>
