<svg xmlns="http://www.w3.org/2000/svg" xmlns:xlink="http://www.w3.org/1999/xlink" width="300" height="300" viewBox="0 0 300 300">
  <defs>
    <linearGradient id="linear-gradient" x1="0.5" x2="1.108" y2="1.808" gradientUnits="objectBoundingBox">
      <stop offset="0" stop-color="#262761"/>
      <stop offset="1" stop-color="#a234b8"/>
    </linearGradient>
    <clipPath id="clip-Celsius_">
      <rect width="300" height="300"/>
    </clipPath>
  </defs>
  <g id="Celsius_" data-name="Celsius " clip-path="url(#clip-Celsius_)">
    <rect width="300" height="300" fill="rgba(255,255,255,0)"/>
    <g id="Page-1" transform="translate(6.8 6.8)">
      <g id="Celsius_Website_Logo_Filled">
        <circle id="Oval" cx="6.981" cy="6.981" r="6.981" transform="translate(208.92 105.208)" fill="#262761"/>
        <path id="Shape" d="M144.1,0A144.1,144.1,0,1,0,288.2,144.1C288.2,64.321,223.38,0,144.1,0Zm65.319,203.934A89.206,89.206,0,0,1,143.1,233.352h0a89.954,89.954,0,0,1-66.815-29.917c-17.452-19.446-24.931-43.878-22.438-69.806,4.488-41.385,37.4-74.294,78.781-79.28a73.639,73.639,0,0,1,10.471-.5A88.234,88.234,0,0,1,197.951,72.8a3.554,3.554,0,0,1,1.5,2.992,4.527,4.527,0,0,1-1.5,3.49l-9.474,8.476a5.662,5.662,0,0,1-3.989,1.5,5.346,5.346,0,0,1-2.992-1,67.087,67.087,0,0,0-88.754,10.97,65.937,65.937,0,0,0-16.454,52.853,67.791,67.791,0,0,0,59.335,59.335,40.3,40.3,0,0,0,7.978.5,67.159,67.159,0,0,0,47.867-19.945,5.662,5.662,0,0,1,3.989-1.5,7.087,7.087,0,0,1,2.992,1l10.471,6.981c1,.5,1.5,1.5,1.994,2.992A10.9,10.9,0,0,0,209.419,203.934Zm6.482-69.806a21.939,21.939,0,1,1,21.939-21.939A22.134,22.134,0,0,1,215.9,134.128Z" transform="translate(0)" fill="url(#linear-gradient)"/>
      </g>
    </g>
  </g>
</svg>
