<svg xmlns="http://www.w3.org/2000/svg" xmlns:xlink="http://www.w3.org/1999/xlink" width="300" height="300" viewBox="0 0 300 300">
  <defs>
    <clipPath id="clip-Dai">
      <rect width="300" height="300"/>
    </clipPath>
  </defs>
  <g id="Dai" clip-path="url(#clip-Dai)">
    <rect width="300" height="300" fill="rgba(255,255,255,0)"/>
    <rect id="Rectangle_1" data-name="Rectangle 1" width="290" height="290" rx="20" transform="translate(5 5)" fill="#f5ac37"/>
    <g id="Layer_x0020_1" transform="translate(35 30)">
      <path id="Path_2" data-name="Path 2" d="M213,221.609H287.56c1.589,0,2.34,0,2.455-2.084a142.53,142.53,0,0,0,0-22.807c0-1.475-.733-2.084-2.331-2.084H139.3c-1.837,0-2.331.609-2.331,2.331v21.827c0,2.817,0,2.817,2.94,2.817Zm68.686-52.483a2.387,2.387,0,0,0,0-1.713,48.49,48.49,0,0,0-4.432-7.726,62.561,62.561,0,0,0-9.077-11.408,30.09,30.09,0,0,0-5.642-5.519,88.149,88.149,0,0,0-36.793-18.639,91.459,91.459,0,0,0-20.847-2.207H139.045c-1.837,0-2.084.733-2.084,2.331v43.53c0,1.837,0,2.331,2.331,2.331H280.8s1.227-.247,1.475-.98h-.6Zm0,77.992a28.617,28.617,0,0,0-6.269,0H139.425c-1.837,0-2.455,0-2.455,2.455v42.559c0,1.96,0,2.455,2.455,2.455h62.788a31.36,31.36,0,0,0,8.944-.609,93.468,93.468,0,0,0,26.621-5.889,48.726,48.726,0,0,0,8.944-4.168h.857a79.669,79.669,0,0,0,34.215-34.444s.857-1.854-.106-2.34ZM112.327,316.651V248.84c0-1.6,0-1.837-1.96-1.837H83.754c-1.475,0-2.084,0-2.084-1.96v-23.3h28.449c1.589,0,2.207,0,2.207-2.084V196.6c0-1.475,0-1.837-1.96-1.837H83.754c-1.475,0-2.084,0-2.084-1.96v-21.58c0-1.351,0-1.713,1.96-1.713H110c1.837,0,2.331,0,2.331-2.331v-66.1c0-1.96,0-2.455,2.455-2.455h91.97a140.125,140.125,0,0,1,19.867,2.207A119.87,119.87,0,0,1,265,115.062a108.17,108.17,0,0,1,21.58,16.679A118.171,118.171,0,0,1,299.7,148.049a98.36,98.36,0,0,1,9.58,18.763,3.193,3.193,0,0,0,3.664,2.578H334.9c2.817,0,2.817,0,2.94,2.7v20.114c0,1.96-.733,2.455-2.7,2.455H318.207c-1.713,0-2.207,0-2.084,2.207a125.269,125.269,0,0,1,0,22.436c0,2.084,0,2.331,2.34,2.331h19.363c.856,1.1,0,2.207,0,3.32a24.775,24.775,0,0,1,0,4.282v14.843c0,2.084-.609,2.7-2.455,2.7H312.194a3.068,3.068,0,0,0-3.558,2.331A98.063,98.063,0,0,1,282.88,286.64a147.706,147.706,0,0,1-13.121,10.543c-4.909,2.826-9.686,5.766-14.719,8.1a132.592,132.592,0,0,1-28.944,9.192,150.893,150.893,0,0,1-28.7,2.331H112.291v-.124Z" transform="translate(-89.207 -89.523)" fill="#fefefd"/>
    </g>
  </g>
</svg>
