<svg xmlns="http://www.w3.org/2000/svg" viewBox="0 0 29.633 28.002">
  <g id="Group_1951" data-name="Group 1951" transform="translate(-1271.287 -332.765)">
    <path id="Path_1282" data-name="Path 1282" d="M1341.742,402.09a9.335,9.335,0,1,1,9.3,9.332A9.341,9.341,0,0,1,1341.742,402.09Zm1.867-.007a7.468,7.468,0,1,0,7.486-7.464A7.474,7.474,0,0,0,1343.609,402.082Z" transform="translate(-64.973 -55.319)" fill="currentColor" fill-rule="evenodd"/>
    <path id="Path_1283" data-name="Path 1283" d="M1272.761,517.034l-1.474.219,1.748-4.508,3.031,3.767-1.434.231c.194.453.354.9.571,1.317a12.05,12.05,0,0,0,9.59,6.745,12.513,12.513,0,0,0,1.251.073.948.948,0,0,1,.993.956.927.927,0,0,1-1,.909,13.838,13.838,0,0,1-12.695-8.286C1273.117,518.007,1272.959,517.526,1272.761,517.034Z" transform="translate(0 -165.977)" fill="currentColor" fill-rule="evenodd"/>
    <path id="Path_1284" data-name="Path 1284" d="M1464,342.481l1.488-.222-1.746,4.506L1460.737,343l1.4-.228c-.118-.3-.212-.582-.338-.851a12.007,12.007,0,0,0-9.559-7.178,14.2,14.2,0,0,0-1.51-.111.952.952,0,0,1-.985-.937.94.94,0,0,1,1.013-.933,14.009,14.009,0,0,1,13.114,9.356C1463.9,342.23,1463.947,342.338,1464,342.481Z" transform="translate(-164.569)" fill="currentColor" fill-rule="evenodd"/>
    <path id="Path_1285" data-name="Path 1285" d="M1614.955,538.63a.923.923,0,0,1-.9-.912.954.954,0,1,1,.9.912Z" transform="translate(-316.095 -188.128)" fill="currentColor" fill-rule="evenodd"/>
    <path id="Path_1286" data-name="Path 1286" d="M1303.623,420.395a.936.936,0,1,1-.935.944A.936.936,0,0,1,1303.623,420.395Z" transform="translate(-28.958 -80.812)" fill="currentColor" fill-rule="evenodd"/>
    <path id="Path_1287" data-name="Path 1287" d="M1598.377,581.643a.939.939,0,0,1,.958.923.921.921,0,0,1-.935.939.931.931,0,1,1-.023-1.862Z" transform="translate(-300.79 -229.514)" fill="currentColor" fill-rule="evenodd"/>
    <path id="Path_1288" data-name="Path 1288" d="M1332.22,382.245a.932.932,0,0,1-.028,1.863.932.932,0,1,1,.028-1.863Z" transform="translate(-55.313 -45.63)" fill="currentColor" fill-rule="evenodd"/>
    <path id="Path_1289" data-name="Path 1289" d="M1568.824,620.8a.914.914,0,0,1,.909-.936.931.931,0,0,1,.95.932.95.95,0,0,1-.932.931A.933.933,0,0,1,1568.824,620.8Z" transform="translate(-274.387 -264.757)" fill="currentColor" fill-rule="evenodd"/>
    <path id="Path_1290" data-name="Path 1290" d="M1287.664,465.925a.912.912,0,0,1-.913.932.928.928,0,0,1-.946-.934.944.944,0,0,1,.934-.925A.929.929,0,0,1,1287.664,465.925Z" transform="translate(-13.388 -121.944)" fill="currentColor" fill-rule="evenodd"/>
    <path id="Path_1291" data-name="Path 1291" d="M1423.96,450.981c-.091.61-.433.958-.93.968s-.845-.317-.972-.933c-.429,0-.865,0-1.3,0a.936.936,0,1,1,0-1.866c.875,0,1.75,0,2.625,0a.944.944,0,0,0,1.028-.948.96.96,0,0,0-1.028-.923,7.727,7.727,0,0,1-1.561-.116,2.74,2.74,0,0,1-2.065-2.679,2.806,2.806,0,0,1,2.057-2.7l.224-.062c.19-.7.489-.989,1-.977.475.012.784.314.939.933.431,0,.868,0,1.3,0a.935.935,0,1,1,0,1.865c-.875,0-1.75,0-2.625,0a.94.94,0,1,0,0,1.868,8.97,8.97,0,0,1,1.25.047,2.765,2.765,0,0,1,2.358,2.646,2.8,2.8,0,0,1-2.066,2.8Z" transform="translate(-136.906 -99.582)" fill="currentColor" fill-rule="evenodd"/>
  </g>
</svg>
