<svg xmlns="http://www.w3.org/2000/svg" xmlns:xlink="http://www.w3.org/1999/xlink" width="300" height="300" viewBox="0 0 300 300">
  <defs>
    <clipPath id="clip-Radix">
      <rect width="300" height="300"/>
    </clipPath>
  </defs>
  <g id="Radix" clip-path="url(#clip-Radix)">
    <rect width="300" height="300" fill="rgba(255,255,255,0)"/>
    <path id="Path_3" data-name="Path 3" d="M20,0H270a20,20,0,0,1,20,20V270a20,20,0,0,1-20,20H20A20,20,0,0,1,0,270V20A20,20,0,0,1,20,0Z" transform="translate(5 5)" fill="#052cc0"/>
    <path id="Path_4" data-name="Path 4" d="M82.963,166.332a11.282,11.282,0,0,1-9.133-4.643L29.141,100.362H0V78.039H34.91a11.321,11.321,0,0,1,5.131,1.221,11.208,11.208,0,0,1,4,3.407L80.56,132.759,136.273,6.682a11.177,11.177,0,0,1,4.154-4.866A11.328,11.328,0,0,1,146.593,0h69.714V22.323H153.968L93.3,159.636a11.162,11.162,0,0,1-3.684,4.542,9.9,9.9,0,0,1-6.7,2.081" transform="translate(42 67)" fill="#00c389"/>
  </g>
</svg>
