<svg xmlns="http://www.w3.org/2000/svg" xmlns:xlink="http://www.w3.org/1999/xlink" width="300" height="300" viewBox="0 0 300 300">
  <defs>
    <clipPath id="clip-Helium_">
      <rect width="300" height="300"/>
    </clipPath>
  </defs>
  <g id="Helium_" data-name="Helium " clip-path="url(#clip-Helium_)">
    <rect width="300" height="300" fill="rgba(255,255,255,0)"/>
    <path id="Path_3" data-name="Path 3" d="M20,0H270a20,20,0,0,1,20,20V270a20,20,0,0,1-20,20H20A20,20,0,0,1,0,270V20A20,20,0,0,1,20,0Z" transform="translate(5 5)" fill="#38a2ff"/>
    <circle id="Ellipse_1" data-name="Ellipse 1" cx="126.5" cy="126.5" r="126.5" transform="translate(32 36)" fill="#fff"/>
    <path id="helium-hnt-logo" d="M182.983,75.17a21.6,21.6,0,0,1,30.547,30.547,21.414,21.414,0,0,1-18.268,6.139h-1.048a11.231,11.231,0,0,0-6.139.9,11.406,11.406,0,0,0-5.84,6.289,10.876,10.876,0,0,0,.3,8.385,41.463,41.463,0,0,1-54.955,54.955,10.621,10.621,0,0,0-8.535-.3,10.91,10.91,0,0,0-6.139,5.69,11.809,11.809,0,0,0-1.048,5.54v1.048a21.921,21.921,0,0,1-5.99,18.867,21.691,21.691,0,0,1-30.547,0,21.392,21.392,0,0,1-6.289-15.274,21.651,21.651,0,0,1,6.289-15.274,21.414,21.414,0,0,1,18.268-6.139h.3a11.559,11.559,0,0,0,2.246.3,10.033,10.033,0,0,0,4.642-1.048,10.823,10.823,0,0,0,5.69-6.139,10.98,10.98,0,0,0-.3-8.685,41.463,41.463,0,0,1,54.955-54.955,10.6,10.6,0,0,0,8.535.3,11.106,11.106,0,0,0,7.188-12.429h0A21.863,21.863,0,0,1,182.983,75.17ZM161.57,161.421a23.93,23.93,0,1,0-33.841,0A24.041,24.041,0,0,0,161.57,161.421ZM144.5,0A144.5,144.5,0,1,1,0,144.5,144.491,144.491,0,0,1,144.5,0Zm76.967,113.8a32.718,32.718,0,0,0-46.27-46.27,33.718,33.718,0,0,0-8.984,16.621,63.489,63.489,0,0,0-81.759,82.058A32.419,32.419,0,0,0,67.683,175.2a32.718,32.718,0,1,0,55.254,29.349,63.034,63.034,0,0,0,22.162,4.043,63.534,63.534,0,0,0,59.747-85.652A36.589,36.589,0,0,0,221.467,113.8Z" transform="translate(6 6)" fill="#38a2ff"/>
  </g>
</svg>
