<svg xmlns="http://www.w3.org/2000/svg" xmlns:xlink="http://www.w3.org/1999/xlink" width="300" height="300" viewBox="0 0 300 300">
  <defs>
    <linearGradient id="linear-gradient" x1="0.254" y1="1.717" x2="0.941" y2="0.889" gradientUnits="objectBoundingBox">
      <stop offset="0.21" stop-color="#f15a24"/>
      <stop offset="0.684" stop-color="#fbb03b"/>
    </linearGradient>
    <linearGradient id="linear-gradient-2" x1="0.746" y1="0.511" x2="0.059" y2="1.339" gradientUnits="objectBoundingBox">
      <stop offset="0.21" stop-color="#ed1e79"/>
      <stop offset="0.893" stop-color="#522785"/>
    </linearGradient>
    <clipPath id="clip-Internet_Computer">
      <rect width="300" height="300"/>
    </clipPath>
  </defs>
  <g id="Internet_Computer" data-name="Internet Computer" clip-path="url(#clip-Internet_Computer)">
    <rect width="300" height="300" fill="rgba(255,255,255,0)"/>
    <g id="internet-computer-icp-logo" transform="translate(5.7 78.394)">
      <path id="Path_1" data-name="Path 1" d="M253.7,0c-16.13,0-33.793,8.791-52.424,26.131A229.869,229.869,0,0,0,179.1,50.166s9.033,10.4,18.953,21.615A222.758,222.758,0,0,1,220.071,47.5c16.534-15.485,27.341-18.631,33.551-18.631,23.228,0,42.1,19.518,42.1,43.633,0,23.873-18.873,43.391-42.1,43.633a20.792,20.792,0,0,1-4.033-.484c6.775,3.145,14.114,5.4,20.97,5.4,42.584,0,50.972-29.438,51.456-31.535a77.123,77.123,0,0,0,1.936-16.856C323.871,32.584,292.417,0,253.7,0Z" transform="translate(-34.652)" fill="url(#linear-gradient)"/>
      <path id="Path_2" data-name="Path 2" d="M70.248,150.759c16.13,0,33.793-8.791,52.424-26.131a229.866,229.866,0,0,0,22.179-24.034s-9.033-10.4-18.953-21.615a222.755,222.755,0,0,1-22.018,24.276c-16.534,15.324-27.422,18.631-33.551,18.631-23.228,0-42.1-19.518-42.1-43.633,0-23.873,18.873-43.391,42.1-43.633a20.793,20.793,0,0,1,4.033.484c-6.775-3.145-14.114-5.4-20.97-5.4C10.807,29.619,2.42,59.057,1.936,61.235A77.122,77.122,0,0,0,0,78.091C0,118.176,31.454,150.759,70.248,150.759Z" transform="translate(0 -5.746)" fill="url(#linear-gradient-2)"/>
      <path id="Path_3" data-name="Path 3" d="M103.193,48.149c-4.678-4.517-27.422-22.986-49.2-23.631C15.12,23.55,3.748,51.779,2.7,55.408,10.2,23.792,37.945.161,70.851,0c26.857,0,54.037,26.373,74.12,50.166l.081-.081S154.085,60.489,164,71.7c0,0,11.291,13.308,23.228,25,4.678,4.517,27.341,22.744,49.117,23.389,39.923,1.129,50.972-28.712,51.537-30.971-7.339,31.858-35.164,55.569-68.232,55.731-26.857,0-54.037-26.373-74.2-50.166,0,.081-.081.081-.081.161,0,0-9.033-10.4-18.953-21.615C126.5,73.232,115.21,59.844,103.193,48.149ZM2.7,55.731a.3.3,0,0,1,.081-.242A.3.3,0,0,0,2.7,55.731Z" transform="translate(-0.522)" fill="#29abe2" fill-rule="evenodd"/>
    </g>
  </g>
</svg>
