<svg xmlns="http://www.w3.org/2000/svg" xmlns:xlink="http://www.w3.org/1999/xlink" width="300" height="300" viewBox="0 0 300 300">
  <defs>
    <linearGradient id="linear-gradient" x1="0.5" x2="0.5" y2="1" gradientUnits="objectBoundingBox">
      <stop offset="0" stop-color="#4fa89b"/>
      <stop offset="1" stop-color="#6acebb"/>
    </linearGradient>
    <clipPath id="clip-Maker_">
      <rect width="300" height="300"/>
    </clipPath>
  </defs>
  <g id="Maker_" data-name="Maker " clip-path="url(#clip-Maker_)">
    <rect width="300" height="300" fill="rgba(255,255,255,0)"/>
    <path id="Path_3" data-name="Path 3" d="M20,0H270a20,20,0,0,1,20,20V270a20,20,0,0,1-20,20H20A20,20,0,0,1,0,270V20A20,20,0,0,1,20,0Z" transform="translate(5 5)" fill="url(#linear-gradient)"/>
    <g id="Layer_2" data-name="Layer 2" transform="translate(-8.951 0.281)">
      <g id="Layer_1" data-name="Layer 1" transform="translate(58.333 98.035)">
        <path id="Path_4" data-name="Path 4" d="M140.712,313.478V232.33l61.539,46.315v34.833h15.707v-38.1a9.161,9.161,0,0,0-3.649-7.3l-74.631-56.189A9.2,9.2,0,0,0,125,219.227v94.251Zm170.193,0V232.33l-61.539,46.315v34.833H233.659v-38.1a9.161,9.161,0,0,1,3.649-7.3l74.631-56.166a9.2,9.2,0,0,1,14.678,7.316v94.251Z" transform="translate(-125 -210.075)" fill="#fff"/>
      </g>
    </g>
  </g>
</svg>
