<svg xmlns="http://www.w3.org/2000/svg" xmlns:xlink="http://www.w3.org/1999/xlink" width="300" height="300" viewBox="0 0 300 300">
  <defs>
    <clipPath id="clip-Polkadot_">
      <rect width="300" height="300"/>
    </clipPath>
  </defs>
  <g id="Polkadot_" data-name="Polkadot " clip-path="url(#clip-Polkadot_)">
    <rect width="300" height="300" fill="rgba(255,255,255,0)"/>
    <rect id="Rectangle_1" data-name="Rectangle 1" width="290" height="290" rx="20" transform="translate(5 5)" fill="none"/>
    <g id="polkadot" transform="translate(46.081 11)">
      <path id="Path_1" data-name="Path 1" d="M105.315,0A105.741,105.741,0,0,0,0,105.315a108.18,108.18,0,0,0,5.553,34.209,15.062,15.062,0,0,0,18.526,9.23,14.991,14.991,0,0,0,8.952-18.46,69.489,69.489,0,0,1-4.1-26.845,75.972,75.972,0,1,1,80.547,78.114s-14.783.9-22.136,1.8a76.457,76.457,0,0,0-8.052,1.6.969.969,0,0,1-1.377.011l-.011-.011a.967.967,0,0,1,0-1.177L80.191,171.3l13.884-62.443a14.436,14.436,0,1,0-28.234-6.042S32.821,255.657,32.821,257.045A13.876,13.876,0,0,0,42.85,273.916a1.94,1.94,0,0,0,.244.056h.766a13.868,13.868,0,0,0,16.9-9.963,3.758,3.758,0,0,0,.089-.378,3.566,3.566,0,0,1,0-.689c.411-1.8,4.576-22.136,4.576-22.136a37.463,37.463,0,0,1,31.01-29.489c3.188-.489,16.582-1.388,16.582-1.388A105.242,105.242,0,0,0,105.315,0Z" fill="#1e1e1e"/>
      <path id="Path_2" data-name="Path 2" d="M835.877,2183.322a17.55,17.55,0,0,0-20.759,13.606c-.022.089-.033.178-.055.267a17.48,17.48,0,0,0,13.361,20.8.041.041,0,0,1,.033.011h.489a17.2,17.2,0,0,0,20.759-12.684c.022-.067.033-.144.055-.211v-.966A18.2,18.2,0,0,0,835.877,2183.322Z" transform="translate(-724.176 -1940.493)" fill="#e6007a"/>
    </g>
  </g>
</svg>
