<svg xmlns="http://www.w3.org/2000/svg" xmlns:xlink="http://www.w3.org/1999/xlink" width="300" height="300" viewBox="0 0 300 300">
  <defs>
    <clipPath id="clip-Quant_">
      <rect width="300" height="300"/>
    </clipPath>
  </defs>
  <g id="Quant_" data-name="Quant " clip-path="url(#clip-Quant_)">
    <rect width="300" height="300" fill="rgba(255,255,255,0)"/>
    <g id="quant-qnt-logo" transform="translate(17.005 5.537)">
      <path id="Path_4" data-name="Path 4" d="M102.3,17.189l73.523,86.142L225.174,74.3S165.633-5.324,149.755.3C134.825,5.992,102.3,17.189,102.3,17.189Z" transform="translate(-41.709 0)"/>
      <path id="Path_5" data-name="Path 5" d="M312.8,93.815A177.089,177.089,0,0,0,329.566,47.9s55.868,22.454,34.421,78.677Z" transform="translate(-127.499 -19.514)"/>
      <path id="Path_6" data-name="Path 6" d="M399.2,180.7l4.68,59.008,21.387-2.785s5.569-1.9,4.68-12.145c-.948-11.257-2.784-34.658-2.784-34.658s.948-5.628-12.086-7.465C399.2,179.75,399.2,180.7,399.2,180.7Z" transform="translate(-162.711 -73.576)"/>
      <path id="Path_7" data-name="Path 7" d="M377.534,280.4,334.7,315.058l19.551,38.391s4.68,14.989,18.6-1.9c13.034-16.885,18.6-19.669,17.655-29.978C389.679,311.267,386.835,286.917,377.534,280.4Z" transform="translate(-136.424 -114.27)"/>
      <path id="Path_8" data-name="Path 8" d="M257.3,320.745,198.647,294.5,147.46,398.475s-3.732,7.465,9.3,8.413c13.034,1.9,34.421,6.576,45.619-4.68C213.577,391.958,257.3,320.745,257.3,320.745Z" transform="translate(-59.912 -120.016)"/>
      <path id="Path_9" data-name="Path 9" d="M138.735,245.316,133.166,176,6.56,184.472s-7.465.948-6.517,14.989C.991,218.182,2.827,238.8,2.827,238.8s-.948,8.413,15.818,9.361C35.412,249.049,136.9,249.049,138.735,245.316Z" transform="translate(0 -71.721)"/>
    </g>
  </g>
</svg>
