<svg xmlns="http://www.w3.org/2000/svg" xmlns:xlink="http://www.w3.org/1999/xlink" viewBox="0 0 300 300">
  <defs>
    <clipPath id="clip-Tether_">
      <rect width="300" height="300"/>
    </clipPath>
  </defs>
  <g id="Tether_" data-name="Tether " clip-path="url(#clip-Tether_)">
    <rect width="300" height="300" fill="rgba(255,255,255,0)"/>
    <rect id="Rectangle_1" data-name="Rectangle 1" width="290" height="290" rx="20" transform="translate(5 5)" fill="#26a17b"/>
    <path id="Path_1" data-name="Path 1" d="M144.881,130.52v-.027c-1.15.08-7.09.428-20.307.428-10.568,0-17.979-.294-20.6-.428v.027c-40.641-1.793-70.954-8.856-70.954-17.337,0-8.455,30.34-15.545,70.954-17.337v27.638c2.649.187,10.274.642,20.789.642,12.628,0,18.943-.535,20.12-.642V95.872c40.561,1.819,70.794,8.883,70.794,17.337s-30.26,15.518-70.794,17.337m0-37.537V68.288h56.587V30.59H47.413v37.7H104V93.01C58.008,95.123,23.44,104.22,23.44,115.136S58.034,135.149,104,137.289v79.248h40.908V137.289c45.912-2.114,80.426-11.21,80.426-22.126,0-10.889-34.514-20.013-80.426-22.126" transform="translate(25.613 34.586)" fill="#fff"/>
  </g>
</svg>
