<svg xmlns="http://www.w3.org/2000/svg" xmlns:xlink="http://www.w3.org/1999/xlink" width="300" height="300" viewBox="0 0 300 300">
  <defs>
    <clipPath id="clip-TRON_">
      <rect width="300" height="300"/>
    </clipPath>
  </defs>
  <g id="TRON_" data-name="TRON " clip-path="url(#clip-TRON_)">
    <rect width="300" height="300" fill="rgba(255,255,255,0)"/>
    <g id="tron" transform="translate(16.756 11.002)">
      <path id="Path_1" data-name="Path 1" d="M262.171,83.749c-13.031-12.032-31.057-30.406-45.739-43.437l-.869-.608a16.593,16.593,0,0,0-4.821-2.693h0C175.341,30.409,10.585-.388,7.371,0A6.081,6.081,0,0,0,4.851.958l-.825.652A9.686,9.686,0,0,0,1.767,5.259l-.217.565V9.385C20.1,61.032,93.332,230.218,107.753,269.919c.869,2.693,2.519,7.819,5.6,8.079h.695c1.651,0,8.687-9.3,8.687-9.3s125.793-152.55,138.52-168.8a41.089,41.089,0,0,0,4.344-6.429A10.468,10.468,0,0,0,262.171,83.749ZM155.012,101.515,208.7,56.992l31.492,29.016Zm-20.85-2.91L41.729,22.851,191.282,50.433Zm8.34,19.851,94.605-15.246L128.95,233.519ZM29.176,30.409l97.255,82.53L112.357,233.606Z" transform="translate(0 0)" fill="#ff060a"/>
    </g>
  </g>
</svg>
