<svg xmlns="http://www.w3.org/2000/svg" xmlns:xlink="http://www.w3.org/1999/xlink" width="300" height="300" viewBox="0 0 300 300">
  <defs>
    <linearGradient id="linear-gradient" y1="-0.175" x2="1" y2="-0.175" gradientUnits="objectBoundingBox">
      <stop offset="0" stop-color="#9d4abe"/>
      <stop offset="0.03" stop-color="#9055c4"/>
      <stop offset="0.15" stop-color="#6b74d6"/>
      <stop offset="0.26" stop-color="#4c8fe5"/>
      <stop offset="0.39" stop-color="#34a3f0"/>
      <stop offset="0.52" stop-color="#22b2f9"/>
      <stop offset="0.66" stop-color="#18bafd"/>
      <stop offset="0.83" stop-color="#15bdff"/>
      <stop offset="1" stop-color="#28bad5"/>
    </linearGradient>
    <clipPath id="clip-VeChain_">
      <rect width="300" height="300"/>
    </clipPath>
  </defs>
  <g id="VeChain_" data-name="VeChain " clip-path="url(#clip-VeChain_)">
    <rect width="300" height="300" fill="rgba(255,255,255,0)"/>
    <g id="Layer_2" data-name="Layer 2" transform="translate(6.997 15)">
      <g id="Layer_1" data-name="Layer 1" transform="translate(0.003)">
        <path id="Path_1" data-name="Path 1" d="M122.648,257.192.629,8.659A6.027,6.027,0,0,1,6.021,0H48.3a6.07,6.07,0,0,1,5.392,3.267L142.8,183.572a21.634,21.634,0,0,0,38.871,0L270.5,3.409A6.07,6.07,0,0,1,275.894.143h5.249a4.1,4.1,0,0,1,3.695,5.963l-123.3,251.087a21.654,21.654,0,0,1-38.885,0Z" transform="translate(-0.003)" fill="url(#linear-gradient)"/>
        <path id="Path_2" data-name="Path 2" d="M122.9,258.049,53.949,4.267A5.866,5.866,0,0,0,48.842,1H6.419A6.041,6.041,0,0,0,.885,9.659Z" transform="translate(-0.259 -0.857)" fill="#fff" opacity="0.1"/>
        <path id="Path_3" data-name="Path 3" d="M143.359,183.7,1.183,8.659A6.119,6.119,0,0,1,6,0H49A6.365,6.365,0,0,1,54.1,3.267Z" transform="translate(-0.557)" fill="#fff" opacity="0.1"/>
      </g>
    </g>
  </g>
</svg>
