<svg xmlns="http://www.w3.org/2000/svg" xmlns:xlink="http://www.w3.org/1999/xlink" width="300" height="300" viewBox="0 0 300 300">
  <defs>
    <clipPath id="clip-Filecoin_">
      <rect width="300" height="300"/>
    </clipPath>
  </defs>
  <g id="Filecoin_" data-name="Filecoin " clip-path="url(#clip-Filecoin_)">
    <rect width="300" height="300" fill="rgba(255,255,255,0)"/>
    <rect id="Rectangle_1" data-name="Rectangle 1" width="290" height="290" rx="20" transform="translate(5 5)" fill="#0090ff"/>
    <g id="filecoin-fil-logo" transform="translate(18.003 18.002)">
      <path id="Path_2" data-name="Path 2" d="M118.567,112.643l-5.643,30.1,53.613,7.525-3.762,14.109L110.1,156.851c-3.762,12.228-5.643,25.4-10.346,36.683-4.7,13.168-9.406,26.336-15.049,38.564-7.525,15.99-20.693,27.277-38.564,30.1-10.346,1.881-21.633.941-30.1-5.643-2.822-1.881-5.643-5.643-5.643-8.465,0-3.762,1.881-8.465,4.7-10.346,1.881-.941,6.584,0,9.406.941a41.763,41.763,0,0,1,7.525,10.346c5.643,7.525,13.168,8.465,20.693,2.822,8.465-7.525,13.168-17.871,15.99-28.217C74.36,201.058,80,179.425,84.706,156.851v-3.762l-49.851-7.525,1.881-14.109,51.732,7.525,6.584-29.158-53.613-8.465L43.32,86.307l55.494,7.525c1.881-5.644,2.822-10.346,4.7-15.049,4.7-16.93,9.406-33.861,20.693-48.91S148.665,5.417,168.418,6.358c8.465,0,16.93,2.822,22.574,9.406.941.941,2.822,2.822,2.822,4.7,0,3.762,0,8.465-2.822,11.287-3.762,2.822-8.465,1.881-12.228-1.881-2.822-2.822-4.7-5.643-7.525-8.465-5.644-7.525-14.109-8.465-20.693-1.881A60.247,60.247,0,0,0,138.319,37.4c-6.584,19.752-11.287,40.445-17.871,61.138l51.732,7.525-3.762,14.109-49.851-7.525" transform="translate(30.88 -3.053)" fill="#fff" fill-rule="evenodd"/>
    </g>
  </g>
</svg>
