<svg xmlns="http://www.w3.org/2000/svg" xmlns:xlink="http://www.w3.org/1999/xlink" width="300" height="300" viewBox="0 0 300 300">
  <defs>
    <clipPath id="clip-Olympus_">
      <rect width="300" height="300"/>
    </clipPath>
  </defs>
  <g id="Olympus_" data-name="Olympus " clip-path="url(#clip-Olympus_)">
    <rect width="300" height="300" fill="rgba(255,255,255,0)"/>
    <path id="Path_3" data-name="Path 3" d="M20,0H270a20,20,0,0,1,20,20V270a20,20,0,0,1-20,20H20A20,20,0,0,1,0,270V20A20,20,0,0,1,20,0Z" transform="translate(5 5)" fill="#708b96"/>
    <g id="Olympus_1_" data-name="Olympus(1)" transform="translate(29 249.434)">
      <path id="Path_4" data-name="Path 4" d="M100.309-211.389a113.635,113.635,0,0,0-39.432,16.931C40.888-180.914,26.469-160.6,18.714-134.928c-2.731,8.957-2.949,11.36-2.949,27.854s.218,18.9,2.949,27.745C24.831-59.013,33.023-45.14,46.786-31.377l8.52,8.411H15V6.526H96.923V-33.889l-5.9-2.622c-35.282-15.62-54.288-56.035-43.255-91.863,4.369-13.872,9.394-22.065,20.1-32.769,11.36-11.251,20.754-16.6,35.828-20.426,7.428-1.857,11.251-2.185,21.628-1.748,10.923.546,13.872,1.092,22.392,4.26,12.562,4.806,20.317,9.94,29.711,19.88,8.3,8.738,14.091,18.9,18.023,31.349,3.6,11.688,3.6,29.82,0,41.508-4.478,14.418-9.5,22.5-20.317,33.315-8.083,8.083-11.688,10.814-19.443,14.637l-9.612,4.7v40.2H228V-22.966H187.694l8.629-8.629c14.091-13.982,23.048-29.82,28.618-50.137,1.966-6.991,2.294-11.469,2.294-25.888,0-15.838-.218-18.351-2.949-27.308-11.36-37.466-37.029-63.463-73.512-74.386-8.192-2.512-12.125-2.949-26.543-3.277C112.215-212.919,105.225-212.482,100.309-211.389Z" fill="#fff"/>
    </g>
  </g>
</svg>
