<svg xmlns="http://www.w3.org/2000/svg" xmlns:xlink="http://www.w3.org/1999/xlink" width="300" height="300" viewBox="0 0 300 300">
  <defs>
    <clipPath id="clip-Polygon_">
      <rect width="300" height="300"/>
    </clipPath>
  </defs>
  <g id="Polygon_" data-name="Polygon " clip-path="url(#clip-Polygon_)">
    <rect width="300" height="300" fill="rgba(255,255,255,0)"/>
    <rect id="Rectangle_1" data-name="Rectangle 1" width="290" height="290" rx="20" transform="translate(5 5)" fill="#8247e5"/>
    <g id="polygon-matic-logo" transform="translate(17.8 34.496)">
      <path id="Path_1" data-name="Path 1" d="M200.426,71.086a17.609,17.609,0,0,0-16.587,0l-38.7,22.807-26.263,14.514L80.861,131.213a17.609,17.609,0,0,1-16.587,0L34.556,113.244a16.846,16.846,0,0,1-8.293-14.514V64.174a17.047,17.047,0,0,1,8.293-14.514L64.274,32.383a17.609,17.609,0,0,1,16.587,0L110.58,50.352a16.846,16.846,0,0,1,8.293,14.514V87.673l26.263-15.2V48.97a17.047,17.047,0,0,0-8.293-14.514L81.552,1.973a17.609,17.609,0,0,0-16.587,0L8.293,35.147A15.2,15.2,0,0,0,0,48.97v64.966a17.047,17.047,0,0,0,8.293,14.514l55.981,32.483a17.609,17.609,0,0,0,16.587,0l38.012-22.116,26.263-15.2L183.148,101.5a17.609,17.609,0,0,1,16.587,0l29.718,17.278a16.846,16.846,0,0,1,8.293,14.514v34.556a17.047,17.047,0,0,1-8.293,14.514l-29.027,17.278a17.609,17.609,0,0,1-16.587,0L154.12,182.356a16.846,16.846,0,0,1-8.293-14.514V145.727l-26.263,15.2v22.807a17.047,17.047,0,0,0,8.293,14.514l55.981,32.483a17.609,17.609,0,0,0,16.587,0l55.981-32.483a16.846,16.846,0,0,0,8.293-14.514V118.082a17.047,17.047,0,0,0-8.293-14.514Z" transform="translate(0 0)" fill="#fff"/>
    </g>
  </g>
</svg>
