<svg xmlns="http://www.w3.org/2000/svg" xmlns:xlink="http://www.w3.org/1999/xlink" width="300" height="300" viewBox="0 0 300 300">
  <defs>
    <clipPath id="clip-TerraUSD">
      <rect width="300" height="300"/>
    </clipPath>
  </defs>
  <g id="TerraUSD" clip-path="url(#clip-TerraUSD)">
    <rect width="300" height="300" fill="rgba(255,255,255,0)"/>
    <g id="TerraUSD_UST_" data-name="TerraUSD (UST)" transform="translate(-78.333 -195.745)">
      <path id="Path_1" data-name="Path 1" d="M192.911,427.585c7.416,28.209,34.025,49.729,47.4,48.857.436,0,50.892-9.742,78.52-57.29,21.52-36.933,14.1-72.7-14.977-73.43-10.615.727-124.9,28.063-110.945,81.864M218.357,215a131.688,131.688,0,0,0-53.364,11.342,73.089,73.089,0,0,0-8.288,4.071c-1.89,1.018-3.635,2.036-5.525,3.054l.436.145a60.374,60.374,0,0,0-13.959,13.232c-37.806,50.02,88.843,86.372,156.6,86.517,31.117,22.393,39.841-63.107,9.451-86.808A129.935,129.935,0,0,0,218.357,215Z" transform="translate(19.025 3)" fill="#0e3ca5"/>
      <path id="Path_2" data-name="Path 2" d="M184.363,241.693c-17.158,25.155-74.157,42.895-83.463,40.132v-.145l1.163-2.327a135.723,135.723,0,0,1,40.714-46.385c3.49-2.472,7.125-4.944,10.906-7.125a41.138,41.138,0,0,1,18.9-4.944c25.446.436,12.069,20.357,11.923,20.648" transform="translate(5.471 2.679)" fill="#5493f7"/>
      <g id="Group_1" data-name="Group 1" transform="translate(88.852 302.099)">
        <path id="Path_3" data-name="Path 3" d="M175.439,405.621c1.309,8.288,0,40.859-1.745,43.622-1.454.145-4.508.291-13.377-4.653a141.426,141.426,0,0,1-44.2-38.824,136.278,136.278,0,0,1-20.066-38.387A139.185,139.185,0,0,1,97.5,274.9h0c10.178,13.377,21.956,25.446,31.989,38.969,9.742,12.8,22.829,33.88,25.446,38.387,16.576,27.918,19.194,45.076,20.5,53.364" transform="translate(-88.852 -274.9)" fill="#5493f7"/>
      </g>
      <path id="Path_4" data-name="Path 4" d="M343.212,343.8a137.2,137.2,0,0,1-9.6,50.6c-16.14,17.449-125.2-25.446-126.213-25.882-14.977-6.543-60.344-26.464-64.415-57.872C137.025,265.571,228.2,234.163,268.328,233c4.8,0,19.484.291,27.918,7.125A137.552,137.552,0,0,1,343.212,343.8M247.825,455.327c6.543-23.12,63.543-46.676,76.048-47.984,1.6-.145,2.181.872,1.6,2.181A142.72,142.72,0,0,1,269.491,465.8C257.568,471.467,244.481,467.25,247.825,455.327Z" transform="translate(24.455 8.174)" fill="#5493f7"/>
    </g>
  </g>
</svg>
