<svg xmlns="http://www.w3.org/2000/svg" xmlns:xlink="http://www.w3.org/1999/xlink" width="300" height="300" viewBox="0 0 300 300">
  <defs>
    <clipPath id="clip-Terra_">
      <rect width="300" height="300"/>
    </clipPath>
  </defs>
  <g id="Terra_" data-name="Terra " clip-path="url(#clip-Terra_)">
    <rect width="300" height="300" fill="rgba(255,255,255,0)"/>
    <rect id="Rectangle_1" data-name="Rectangle 1" width="290" height="290" rx="20" transform="translate(5 5)" fill="#172852"/>
    <g id="terra-luna-luna-logo" transform="translate(5.333 5.333)">
      <g id="Group_1" data-name="Group 1" transform="translate(47.815 46.936)">
        <path id="Path_1" data-name="Path 1" d="M753.371,418.605c19.506-7.3,41.461-7.313,61.334-1.316,25.87,8.029,47.708,27.552,59.119,52.056,3.148,6.98,6.163,14.259,6.463,22.022-14.542-8.429-30.484-13.893-46.459-18.873-25.553-9.212-52.306-15.608-76.493-28.268-5.63-3.365-12.81-6.813-14.342-13.826-.616-6.063,5.8-9.445,10.378-11.794" transform="translate(-688.93 -412.95)" fill="#ffd83d"/>
        <path id="Path_2" data-name="Path 2" d="M424.2,600.3c5.647-15.325,14.909-29.551,27.485-40.1,3.2,26.3,14.392,51.723,32.883,70.846,22.172,23.038,53.755,37.18,85.888,36.647,12.76.4,25.237-2.549,37.68-4.931C595.9,707.005,547.406,736.373,502.48,729.31c-27.119-3.465-52.156-19.523-67.264-42.194C418.174,662.063,413.877,628.8,424.2,600.3Z" transform="translate(-418.649 -535.671)" fill="#ffd83d"/>
      </g>
      <path id="Path_3" data-name="Path 3" d="M1288.5,770.4c15.975,4.981,31.916,10.444,46.459,18.873l.983.516c1.349,10.145,2.332,20.489.533,30.65-7.313-3.1-13.243-8.545-19.44-13.36-11.927-9.928-24.1-21.289-28.535-36.68" transform="translate(-1095.787 -663.921)" fill="#ff6f03"/>
    </g>
  </g>
</svg>
