<svg xmlns="http://www.w3.org/2000/svg" xmlns:xlink="http://www.w3.org/1999/xlink" width="300" height="300" viewBox="0 0 300 300">
  <defs>
    <clipPath id="clip-Tezos_">
      <rect width="300" height="300"/>
    </clipPath>
  </defs>
  <g id="Tezos_" data-name="Tezos " clip-path="url(#clip-Tezos_)">
    <rect width="300" height="300" fill="rgba(255,255,255,0)"/>
    <g id="Layer_2" data-name="Layer 2" transform="translate(50 14)">
      <path id="Path_1" data-name="Path 1" d="M129.257,272.478q-29.165,0-42.575-14.05a43.378,43.378,0,0,1-13.367-30.275,20.079,20.079,0,0,1,2.342-10.006,17.312,17.312,0,0,1,6.385-6.39,22.274,22.274,0,0,1,19.883,0,17.028,17.028,0,0,1,6.349,6.39,19.67,19.67,0,0,1,2.425,10.006,19.111,19.111,0,0,1-3.406,11.708,15.87,15.87,0,0,1-8.092,5.922,22.1,22.1,0,0,0,12.772,7.962,63.287,63.287,0,0,0,17.413,2.511,38.813,38.813,0,0,0,21.927-6.556,38.315,38.315,0,0,0,14.3-19.371,84.155,84.155,0,0,0,4.683-28.993,79.549,79.549,0,0,0-5.109-30.144,37.21,37.21,0,0,0-14.773-18.733,39.286,39.286,0,0,0-21.283-6.088,40.5,40.5,0,0,0-18.435,6.259l-13.67,6.854v-6.854l61.435-82.416H73.314v85.524A30.6,30.6,0,0,0,78,173.237a16.137,16.137,0,0,0,14.3,6.854,23.921,23.921,0,0,0,14.134-4.981,51.036,51.036,0,0,0,11.836-12.177,4.252,4.252,0,0,1,1.539-2.042,3.147,3.147,0,0,1,2.053-.766,7.107,7.107,0,0,1,4,1.7,8.522,8.522,0,0,1,2.171,5.79,33.845,33.845,0,0,1-.766,4.257A41.222,41.222,0,0,1,112.667,190a36.224,36.224,0,0,1-20.485,6.223q-27.653,0-38.315-10.9a40.824,40.824,0,0,1-10.559-29.8V70.215H0V54.325H43.511V18.093L33.549,8.125V0H62.456L73.314,5.621v48.7L185.8,53.983l11.2,11.24-68.971,69.307a46.353,46.353,0,0,1,13.027-3.151,56.463,56.463,0,0,1,25.209,7.2,51.776,51.776,0,0,1,21.714,19.378,68.381,68.381,0,0,1,9.792,23.374,98.46,98.46,0,0,1,2.342,20.013,83.709,83.709,0,0,1-8.515,37.081,54.379,54.379,0,0,1-25.546,25.546A82.663,82.663,0,0,1,129.257,272.478Z" fill="#2c7df7"/>
    </g>
  </g>
</svg>
