<svg xmlns="http://www.w3.org/2000/svg" xmlns:xlink="http://www.w3.org/1999/xlink" width="300" height="300" viewBox="0 0 300 300">
  <defs>
    <clipPath id="clip-Uniswap_">
      <rect width="300" height="300"/>
    </clipPath>
  </defs>
  <g id="Uniswap_" data-name="Uniswap " clip-path="url(#clip-Uniswap_)">
    <rect width="300" height="300" fill="rgba(255,255,255,0)"/>
    <g id="uniswap-uni-logo" transform="translate(29.004 11)">
      <path id="Path_1" data-name="Path 1" d="M66.788,44.361c-3.012-.43-3.155-.574-1.721-.717,2.725-.43,9.036.143,13.482,1.147C88.875,47.229,98.2,53.54,108.094,64.584l2.582,3.012,3.729-.574c15.92-2.582,32.27-.574,45.9,5.737,3.729,1.721,9.609,5.163,10.327,6.024a13.863,13.863,0,0,1,1,4.016c1,6.741.574,11.761-1.578,15.633-1.147,2.151-1.147,2.725-.43,4.59a4.319,4.319,0,0,0,3.872,2.438c3.442,0,7.028-5.45,8.749-13.052l.717-3.012,1.291,1.434c7.315,8.175,13.052,19.506,13.912,27.537l.287,2.151-1.291-1.865a24.217,24.217,0,0,0-6.884-7.315c-4.876-3.3-10.04-4.3-23.665-5.02-12.335-.717-19.362-1.721-26.247-4.016-11.761-3.872-17.785-8.892-31.7-27.394-6.167-8.175-10.04-12.621-13.912-16.35C86.294,50.385,77.832,46.082,66.788,44.361Z" transform="translate(27.874 18.889)" fill="#ff007a"/>
      <path id="Path_2" data-name="Path 2" d="M146.365,61.273c.287-5.45,1-9.036,2.582-12.335a9.886,9.886,0,0,1,1.291-2.438c.143,0-.143,1-.574,2.151-1.147,3.155-1.291,7.6-.574,12.621,1,6.454,1.434,7.315,8.319,14.342,3.155,3.3,6.884,7.458,8.319,9.179l2.438,3.155-2.438-2.295c-3.012-2.868-9.9-8.319-11.474-9.036-1-.574-1.147-.574-1.865.143-.574.574-.717,1.434-.717,5.594-.143,6.454-1,10.47-3.155,14.629-1.147,2.151-1.291,1.721-.287-.717.717-1.865.861-2.725.861-8.892,0-12.478-1.434-15.49-10.183-20.51-2.151-1.291-5.88-3.155-8.032-4.159A31.76,31.76,0,0,1,127,60.842c.287-.287,8.749,2.151,12.048,3.586,5.02,2.008,5.88,2.151,6.454,2.008C145.935,66.006,146.221,64.858,146.365,61.273Z" transform="translate(55.148 20.192)" fill="#ff007a"/>
      <path id="Path_3" data-name="Path 3" d="M72.872,81.948c-6.024-8.319-9.9-21.227-9.036-30.836l.287-3.012,1.434.287a33.658,33.658,0,0,1,9.179,3.442C80.473,55.271,83.055,60,85.493,71.765c.717,3.442,1.721,7.458,2.151,8.749A51.777,51.777,0,0,0,93.382,90.84c1.578,2.295.574,3.442-3.012,3.155C84.92,93.422,77.6,88.4,72.872,81.948Z" transform="translate(27.671 20.887)" fill="#ff007a"/>
      <path id="Path_4" data-name="Path 4" d="M147.038,128.1c-28.4-11.474-38.438-21.37-38.438-38.151,0-2.438.143-4.446.143-4.446a26.944,26.944,0,0,1,2.438,1.865c5.737,4.59,12.191,6.6,30.119,9.179,10.47,1.578,16.494,2.725,21.944,4.59,17.354,5.737,28.111,17.5,30.693,33.418a58.009,58.009,0,0,1-.861,17.928c-1,3.586-3.872,10.183-4.59,10.327-.143,0-.43-.717-.43-1.865-.287-6.024-3.3-11.761-8.319-16.207C173.715,139.571,165.97,135.7,147.038,128.1Z" transform="translate(47.161 37.128)" fill="#ff007a"/>
      <path id="Path_5" data-name="Path 5" d="M139.859,120.975a33.974,33.974,0,0,0-1.434-6.024l-.717-2.151L139,114.378a25.251,25.251,0,0,1,4.59,8.319c1,2.725,1,3.586,1,8.032,0,4.3-.143,5.307-1,7.745a25.952,25.952,0,0,1-6.024,9.609c-5.163,5.307-11.9,8.175-21.514,9.466-1.721.143-6.6.574-10.9.861-10.757.574-17.928,1.721-24.382,4.016-.861.287-1.721.574-1.865.43-.287-.287,4.159-2.868,7.745-4.59,5.02-2.438,10.183-3.729,21.514-5.737a98.262,98.262,0,0,0,12.765-2.582C135.126,145.5,142.154,134.457,139.859,120.975Z" transform="translate(34.26 48.983)" fill="#ff007a"/>
      <path id="Path_6" data-name="Path 6" d="M131.6,142.069q-5.594-12.263-2.582-23.235c.287-.717.574-1.434.861-1.434a6.17,6.17,0,0,1,2.008,1c1.721,1.147,5.307,3.155,14.486,8.175,11.617,6.311,18.215,11.187,22.8,16.781a35.471,35.471,0,0,1,7.6,17.354c.717,3.872.287,13.2-.717,17.068-3.155,12.191-10.327,21.944-20.8,27.537a19.935,19.935,0,0,1-3.012,1.434,11.4,11.4,0,0,1,1.291-3.155,28.467,28.467,0,0,0,1.291-22.231c-1.578-4.876-4.876-10.757-11.474-20.653C135.473,149.24,133.609,146.228,131.6,142.069Z" transform="translate(55.57 50.98)" fill="#ff007a"/>
      <path id="Path_7" data-name="Path 7" d="M56.912,170.56c10.613-8.892,23.665-15.2,35.713-17.211,5.163-.861,13.769-.574,18.5.717,7.6,2.008,14.486,6.311,18.071,11.617,3.442,5.163,5.02,9.609,6.6,19.506.574,3.872,1.291,7.888,1.434,8.749,1.147,5.163,3.442,9.179,6.311,11.331,4.446,3.3,12.191,3.442,19.793.574a9.639,9.639,0,0,1,2.438-.717c.287.287-3.586,2.868-6.167,4.159a20.306,20.306,0,0,1-10.327,2.438c-6.884,0-12.765-3.586-17.5-10.757a80.63,80.63,0,0,1-4.733-9.466c-5.02-11.617-7.6-15.06-13.482-18.932-5.163-3.3-11.761-4.016-16.781-1.578-6.6,3.155-8.319,11.617-3.729,16.781a14.664,14.664,0,0,0,8.175,4.3,8.75,8.75,0,0,0,9.9-8.749c0-3.442-1.291-5.45-4.733-7.028-4.59-2.008-9.609.287-9.466,4.733,0,1.865.861,3.012,2.725,3.872,1.147.574,1.147.574.287.43-4.159-.861-5.163-6.024-1.865-9.323,4.016-4.016,12.478-2.295,15.346,3.3,1.147,2.295,1.291,6.884.287,9.753-2.438,6.311-9.323,9.609-16.35,7.745-4.733-1.291-6.741-2.582-12.478-8.462-10.04-10.327-13.912-12.335-28.255-14.486l-2.725-.43Z" transform="translate(23.408 66.377)" fill="#ff007a"/>
      <path id="Path_8" data-name="Path 8" d="M4.878,6.167C38.3,46.756,89.786,109.863,92.367,113.305c2.151,2.868,1.291,5.594-2.295,7.6A21.947,21.947,0,0,1,81.9,123.2a10.349,10.349,0,0,1-6.884-3.012c-1.291-1.291-6.884-9.466-19.506-29.115C45.9,76.015,37.723,63.537,37.579,63.394c-.574-.287-.574-.287,16.924,30.98,11.044,19.649,14.629,26.677,14.629,27.537,0,1.865-.574,2.868-2.868,5.45-3.872,4.3-5.594,9.179-6.884,19.362-1.434,11.331-5.307,19.362-16.35,32.988-6.454,8.032-7.458,9.466-9.036,12.765-2.008,4.016-2.582,6.311-2.868,11.474a35.884,35.884,0,0,0,1.865,14.056c1.434,4.59,3.012,7.6,6.884,13.482,3.3,5.163,5.307,9.036,5.307,10.47,0,1.147.287,1.147,5.45,0,12.335-2.868,22.518-7.745,28.111-13.769,3.442-3.729,4.3-5.737,4.3-10.9,0-3.3-.143-4.016-1-6.024-1.434-3.155-4.159-5.737-10.04-9.753-7.745-5.307-11.044-9.609-11.9-15.346-.717-4.876.143-8.175,4.446-17.211,4.446-9.323,5.594-13.2,6.311-22.661.43-6.024,1.147-8.462,2.868-10.327,1.865-2.008,3.442-2.725,7.888-3.3,7.315-1,12.048-2.868,15.777-6.454a13.48,13.48,0,0,0,4.876-10.47l.143-3.3-1.865-2.008C93.8,102.692.432,0,0,0-.141,0,2.153,2.725,4.878,6.167ZM48.91,210.117a5.921,5.921,0,0,0-1.865-7.888c-2.438-1.578-6.167-.861-6.167,1.291a1.464,1.464,0,0,0,1.147,1.434c1.291.717,1.434,1.434.43,3.012s-1,3.012.287,4.016C44.75,213.559,47.475,212.7,48.91,210.117Z" transform="translate(0)" fill="#ff007a" fill-rule="evenodd"/>
      <path id="Path_9" data-name="Path 9" d="M77.033,94.006c-3.442,1-6.741,4.733-7.745,8.462-.574,2.295-.287,6.454.717,7.745,1.578,2.008,3.012,2.582,7.028,2.582,7.888,0,14.629-3.442,15.346-7.6.717-3.442-2.295-8.175-6.454-10.327A14.58,14.58,0,0,0,77.033,94.006Zm9.179,7.171c1.147-1.721.717-3.586-1.434-4.876-3.872-2.438-9.753-.43-9.753,3.3,0,1.865,3.012,3.872,5.88,3.872A7.922,7.922,0,0,0,86.213,101.177Z" transform="translate(29.963 40.669)" fill="#ff007a" fill-rule="evenodd"/>
    </g>
  </g>
</svg>
