<svg xmlns="http://www.w3.org/2000/svg" width="22.542" height="23.074" viewBox="0 0 22.542 23.074">
  <g id="Account_4x" data-name="Account@4x" transform="translate(0 560.926)">
    <path id="Path_67" data-name="Path 67" d="M351.974-560.876c-.177.091-.206.206-.206.921v.67h-.757c-.415,0-.79.012-.827.025-.189.074-.185.025-.185,4.068v3.813l.119.119.119.119h1.526l.012.675c.012.65.016.679.111.782a.321.321,0,0,0,.477,0c.1-.1.1-.111.1-.782v-.679h2.756v.679c0,.671,0,.683.1.782a.356.356,0,0,0,.44.045c.128-.095.156-.267.156-.893v-.613h.2a2.012,2.012,0,0,0,1.946-1.473,3.792,3.792,0,0,0,.016-1.444,2.066,2.066,0,0,0-.518-.925l-.239-.243.218-.218a2.143,2.143,0,0,0,.539-.942,3.993,3.993,0,0,0,0-1.4,1.965,1.965,0,0,0-1.9-1.5h-.259v-.67c0-.728-.025-.835-.218-.926a.384.384,0,0,0-.44.115,4.2,4.2,0,0,0-.041.777v.7h-2.756v-.7a4.2,4.2,0,0,0-.041-.777.343.343,0,0,0-.169-.119C352.1-560.942,352.1-560.942,351.974-560.876Zm4.619,2.357a1.486,1.486,0,0,1,.708.642c.119.214.123.234.123.794s0,.58-.123.794a1.83,1.83,0,0,1-.317.4c-.358.321-.226.308-3.435.308H350.7v-3h2.851A19.222,19.222,0,0,1,356.594-558.519Zm.09,3.76a1.5,1.5,0,0,1,.642.638c.09.189.1.255.1.761s-.008.572-.1.761a1.556,1.556,0,0,1-.654.65c-.193.091-.218.091-3.081.1l-2.892.012v-3.052l2.892.012,2.888.012Z" transform="translate(-335.603)" fill="currentColor"/>
    <path id="Path_68" data-name="Path 68" d="M7.672-486.829a4.805,4.805,0,0,0-3.5,2.645,4.106,4.106,0,0,0-.457,1.9,4.476,4.476,0,0,0,.424,2.271,5.063,5.063,0,0,0,1.65,1.937c.185.123.333.226.329.23s-.206.058-.448.115A7.4,7.4,0,0,0,.062-471.5,22.433,22.433,0,0,0,0-469.038v2l.1.1.1.1H8.474c5.319,0,8.3-.012,8.35-.041.152-.082.165-.251.165-1.974a11.077,11.077,0,0,0-.4-4.007,8.666,8.666,0,0,0-.987-1.958,9.653,9.653,0,0,0-1.74-1.736,7.826,7.826,0,0,0-2.645-1.185l-.4-.095.317-.206a5.618,5.618,0,0,0,1.353-1.366,4.876,4.876,0,0,0-.107-5.487,5.159,5.159,0,0,0-1.748-1.5,5.987,5.987,0,0,0-1.255-.415A7.409,7.409,0,0,0,7.672-486.829Zm1.666.72a4.25,4.25,0,0,1,2.916,2.419,3.422,3.422,0,0,1,.309,1.608,2.952,2.952,0,0,1-.107,1.057,4.1,4.1,0,0,1-1.082,1.868A4.1,4.1,0,0,1,9.5-478.063a3.169,3.169,0,0,1-1.049.09,2.739,2.739,0,0,1-1.053-.111,4.122,4.122,0,0,1-1.8-1.061,4.113,4.113,0,0,1-.383-5.409,4.125,4.125,0,0,1,2.908-1.637A5.679,5.679,0,0,1,9.338-486.109Zm.9,8.906a6.74,6.74,0,0,1,5.685,4.558,8.894,8.894,0,0,1,.37,3.488v1.617H.7l.016-1.966a11.047,11.047,0,0,1,.1-2.361A6.792,6.792,0,0,1,6.87-477.22C7.24-477.257,9.881-477.244,10.234-477.2Z" transform="translate(0 -71.011)" fill="currentColor"/>
  </g>
</svg>
