<svg xmlns="http://www.w3.org/2000/svg" viewBox="0 0 21.146 10.541">
  <g id="Group_1862" data-name="Group 1862" transform="translate(-1270.449 -512.443)">
    <path id="Path_1082" data-name="Path 1082" d="M1270.7,517.533a.92.92,0,0,1,1.005-.651q8.292.013,16.585.005h.288c-.08-.084-.132-.139-.185-.193q-1.306-1.3-2.614-2.6a.789.789,0,0,1-.221-.83.76.76,0,0,1,.591-.547.8.8,0,0,1,.785.253q1.463,1.458,2.929,2.913c.362.36.733.712,1.081,1.085a4.888,4.888,0,0,1,.4.566v.323a4.045,4.045,0,0,1-.4.566q-1.99,2-4,3.982a.807.807,0,1,1-1.168-1.108q1.3-1.3,2.613-2.6a1.5,1.5,0,0,1,.177-.131l-.031-.062h-.229q-8.3,0-16.6.005a.921.921,0,0,1-1.006-.65Z" fill="currentColor" stroke="#181c3a" stroke-width="0.5" fill-rule="evenodd"/>
  </g>
</svg>
