<svg xmlns="http://www.w3.org/2000/svg" xmlns:xlink="http://www.w3.org/1999/xlink" width="300" height="300" viewBox="0 0 300 300">
  <defs>
    <clipPath id="clip-Arweave_">
      <rect width="300" height="300"/>
    </clipPath>
  </defs>
  <g id="Arweave_" data-name="Arweave " clip-path="url(#clip-Arweave_)">
    <rect width="300" height="300" fill="rgba(255,255,255,0)"/>
    <g id="arweave-ar-logo" transform="translate(13.2 13.2)">
      <circle id="Ellipse_1" data-name="Ellipse 1" cx="136.3" cy="136.3" r="136.3" transform="translate(1.2 1.2)" fill="none" stroke="#222326" stroke-width="2.5"/>
      <path id="Path_4" data-name="Path 4" d="M80.741,119.638c-.927-.927-.927-2.782-1.854-4.636,0-1.854-.927-3.709-.927-5.563-1.854,1.854-3.709,2.782-5.563,4.636s-4.636,2.782-6.49,3.709a87.52,87.52,0,0,1-8.345,2.782c-2.782.927-6.49.927-9.272.927a38.438,38.438,0,0,1-14.835-2.782A49.956,49.956,0,0,1,21.4,112.22c-3.709-2.782-5.563-6.49-7.418-10.2A29.615,29.615,0,0,1,11.2,89.04c0-11.127,4.636-20.4,12.981-25.962,8.345-6.49,21.326-9.272,38.016-9.272H77.959v-6.49c0-5.563-1.854-9.272-4.636-12.054a23.593,23.593,0,0,0-14.835-4.636c-5.563,0-9.272.927-12.054,3.709a11.9,11.9,0,0,0-3.709,9.272H14.909A29.615,29.615,0,0,1,17.69,30.626,32.851,32.851,0,0,1,26.963,19.5a49.142,49.142,0,0,1,13.908-7.418A61.641,61.641,0,0,1,60.342,9.3a53.984,53.984,0,0,1,17.617,2.782c5.563,1.854,10.2,3.709,14.835,7.418a30.123,30.123,0,0,1,9.272,12.054,44.287,44.287,0,0,1,3.709,16.69V94.6c0,5.563,0,10.2.927,13.908s1.854,7.418,2.782,9.272v1.854ZM53.852,100.167c2.782,0,5.563,0,7.418-.927a45.206,45.206,0,0,0,6.49-2.782c1.854-.927,3.709-1.854,4.636-3.709L76.1,89.04V70.5H62.2c-4.636,0-8.345,0-11.127.927s-5.563,1.854-7.418,3.709-3.709,2.782-4.636,5.563c-.927,1.854-.927,4.636-.927,6.49A11.9,11.9,0,0,0,41.8,96.458C44.58,99.239,49.216,100.167,53.852,100.167Z" transform="translate(82.721 67.004)" fill="#222326"/>
    </g>
  </g>
</svg>
