<svg xmlns="http://www.w3.org/2000/svg" viewBox="0 0 10.341 22.048">
  <g id="Group_4331" data-name="Group 4331" transform="translate(-645.673 -37.75)">
    <path id="Path_2652" data-name="Path 2652" d="M649.165,59.8c-.23-.052-.463-.093-.689-.158a3.853,3.853,0,0,1-2.8-3.692q-.009-6.533,0-13.067a5.155,5.155,0,0,1,4.548-5.093.958.958,0,0,0,.142-.039h.947c.376.085.76.143,1.126.26a5.128,5.128,0,0,1,3.563,4.83c.014,4.32,0,8.641,0,12.961,0,.029,0,.057-.006.1H654.72V55.64q0-6.33,0-12.66a3.874,3.874,0,0,0-7.71-.593,4.584,4.584,0,0,0-.038.536q0,6.492,0,12.983a2.582,2.582,0,1,0,5.164.036c.008-2.218,0-4.435,0-6.653,0-1.263.005-2.526,0-3.789a1.289,1.289,0,0,0-2.083-1.012,1.29,1.29,0,0,0-.5,1.092q0,3.843,0,7.686v2.641h-1.28c0-.06-.011-.122-.011-.185q0-5.1,0-10.206a2.582,2.582,0,0,1,5.163-.076c.012,1.112,0,2.225,0,3.337q0,3.542,0,7.084a3.872,3.872,0,0,1-3.174,3.872l-.314.065Z" transform="translate(0 0)" fill="currentColor" fill-rule="evenodd"/>
  </g>
</svg>
