<svg xmlns="http://www.w3.org/2000/svg" xmlns:xlink="http://www.w3.org/1999/xlink" width="300" height="300" viewBox="0 0 300 300">
  <defs>
    <clipPath id="clip-Axie_Infinity">
      <rect width="300" height="300"/>
    </clipPath>
  </defs>
  <g id="Axie_Infinity" data-name="Axie Infinity" clip-path="url(#clip-Axie_Infinity)">
    <rect width="300" height="300" fill="rgba(255,255,255,0)"/>
    <rect id="Rectangle_1" data-name="Rectangle 1" width="290" height="290" rx="20" transform="translate(5 5)" fill="#0055d5"/>
    <g id="axie-infinity-axs-logo" transform="translate(8.78 6.495)">
      <g id="Group_4" data-name="Group 4" transform="translate(23.22 56.505)">
        <g id="Group_3" data-name="Group 3">
          <path id="SVGID_3_" d="M236.6,307.545s-21.535-17.212-23.016,25.3c-1.481,32.943-1.441,96.908,13.81,127.129,6.445,11.368,15.051,7.886,31.062-3.442,13.93-10.287,64.325-56.72,85.66-77.094s64.605-78.815,73.612-39.108c3.563,16.692,7.966,30.862,4.6,67.888-1.041,11.408-5.924,20.054-28.18,4.6-16.812-10.808-32.783-22.416-32.783-22.416s-3.082-5.524-10.367,3.442c-5.724,7.165-8.606,8.926.56,14.37,9.207,5.444,55.759,37.546,73.612,42.55,14.73,4.283,23.136,4.2,23.577-24.737-.08-22.976-1.4-88.742-9.767-116.762-6.324-17.452-15.611-25.378-35.665-5.764s-83.3,80.937-117.883,108.716c-22.936,17.212-32.743,32.743-41.389,4.043-6.084-21.735-13.97-89.383,10.928-76.494,15.571,7.445,23.336,7.405,17.252,12.089-6.084,4.643-23.577,20.695-23.577,20.695s-5.4,4.363-2.882,13.81c2.522,6.6,2.522,9.887,16.091-2.882s23.577-22.416,23.577-22.416,2.161-3.4,8.606,2.882,7.485,8.046,7.485,8.046,1.721,4.683,8.606-3.442c6.925-8.126,11.368-13.089-1.721-20.695-13.049-7.685-71.811-40.308-71.811-40.308Z" transform="translate(-212.965 -292.024)" fill="#fff" fill-rule="evenodd"/>
        </g>
      </g>
    </g>
  </g>
</svg>
