<svg viewBox="0 0 24 24" fill="none" xmlns="http://www.w3.org/2000/svg"><path clip-rule="evenodd" d="M11.3356 3.25259C11.7145 2.9158 12.2855 2.9158 12.6644 3.25259L18.3698 8.32409H5.63021L11.3356 3.25259ZM2.01903 9.519C1.95253 9.18266 2.06087 8.82093 2.33565 8.57668L10.0069 1.75777C11.1436 0.747409 12.8564 0.747409 13.9931 1.75777L21.6644 8.57668C21.9391 8.82093 22.0475 9.18266 21.981 9.519C21.9935 9.59503 22 9.67309 22 9.75266C22 9.88188 21.9972 10.0104 21.9915 10.1383C21.9971 10.1994 22 10.2614 22 10.3241V20.3241C22 21.4287 21.1046 22.3241 20 22.3241H4.00001C2.89544 22.3241 2.00001 21.4287 2.00001 20.3241V10.3241C2.00001 10.2614 2.00289 10.1994 2.00853 10.1383C2.00287 10.0104 2.00001 9.88188 2.00001 9.75266C2.00001 9.67309 2.00652 9.59503 2.01903 9.519ZM13.4286 18.3241C16.0674 18.3241 18.4277 17.1316 20 15.2562V20.3241H4.00001V15.2562C5.57234 17.1316 7.93264 18.3241 10.5714 18.3241H13.4286ZM10.5714 16.3241C7.13466 16.3241 4.31408 13.6858 4.02451 10.3241H19.9755C19.6859 13.6858 16.8654 16.3241 13.4286 16.3241H10.5714Z" fill="currentColor" fill-rule="evenodd"/></svg>
