<svg xmlns="http://www.w3.org/2000/svg" viewBox="0 0 25.952 25.952">
  <g id="Group_1972" data-name="Group 1972" transform="translate(-1063.75 -313.75)">
    <path id="Path_1323" data-name="Path 1323" d="M1063.75,334.126V318.363a1.973,1.973,0,0,0,.046-.192,5.1,5.1,0,0,1,3.88-4.27c.244-.058.491-.1.737-.15h16.727a.809.809,0,0,0,.14.045,5.053,5.053,0,0,1,4.227,3.663c.083.3.131.6.195.9v1.723a.75.75,0,0,0-.046.088,1.012,1.012,0,0,1-1.982-.337c0-.3,0-.608,0-.912a3.049,3.049,0,0,0-3.151-3.147h-8.008c-2.559,0-5.119-.012-7.678.006a3.04,3.04,0,0,0-2.678,4.5,2.967,2.967,0,0,0,2.779,1.58q7.818,0,15.635,0a5.07,5.07,0,0,1,5.005,3.971c.049.211.083.426.124.639v8.617c-.016.072-.036.143-.049.216a5.01,5.01,0,0,1-3.607,4.189c-.293.1-.6.14-.907.208h-15.865a.809.809,0,0,0-.141-.044,6.082,6.082,0,0,1-5.159-4.421C1063.874,334.874,1063.823,334.5,1063.75,334.126Zm2.028-11.24v.181q0,5.3,0,10.591a3.719,3.719,0,0,0,.075.729,4.046,4.046,0,0,0,4.029,3.286q7.335,0,14.671,0a3.046,3.046,0,0,0,3.117-3.129q0-3.737,0-7.475a3.052,3.052,0,0,0-3.193-3.18q-7.83,0-15.659-.006a6.222,6.222,0,0,1-1.177-.139A4.861,4.861,0,0,1,1065.778,322.886Z" fill="currentColor" fill-rule="evenodd"/>
    <path id="Path_1324" data-name="Path 1324" d="M1132.743,375.8q-3.913,0-7.826,0a1.014,1.014,0,1,1-.149-2.023c.067-.006.135,0,.2,0h15.552a1.043,1.043,0,0,1,1.065.656,1.009,1.009,0,0,1-.941,1.368c-.844.011-1.689,0-2.533,0Z" transform="translate(-56.006 -55.961)" fill="currentColor" fill-rule="evenodd"/>
    <path id="Path_1325" data-name="Path 1325" d="M1351.543,549.535a1.266,1.266,0,1,1,.022-2.532,1.266,1.266,0,0,1-.022,2.532Z" transform="translate(-267.156 -217.487)" fill="currentColor" fill-rule="evenodd"/>
  </g>
</svg>
