<svg xmlns="http://www.w3.org/2000/svg" viewBox="0 0 27.167 24.668">
  <g id="Group_1926" data-name="Group 1926" transform="translate(-1276.34 -378.68)">
    <path id="Path_1235" data-name="Path 1235" d="M1331.168,382.017c0-.579,0-1.1,0-1.619a1.321,1.321,0,0,1,.831-1.358,1.339,1.339,0,0,1,1.547.382c1.6,1.611,3.214,3.213,4.818,4.823a1.323,1.323,0,0,1,.007,2.035q-2.43,2.441-4.869,4.872a1.337,1.337,0,0,1-2.334-.956c0-.542,0-1.083,0-1.673h-14.189c-.118,0-.237,0-.355,0-.483-.012-.635-.171-.627-.653a5.987,5.987,0,0,1,4.677-5.7,7.183,7.183,0,0,1,1.442-.147c2.864-.013,5.728-.007,8.592-.007Zm-14.153,5.512h14.373c.664,0,.771.106.773.756,0,.6-.015,1.208.01,1.81.007.164.1.408.217.46s.355-.064.47-.178q2.386-2.359,4.751-4.74c.31-.311.312-.429.007-.734q-2.371-2.374-4.751-4.74a.591.591,0,0,0-.473-.181c-.116.044-.212.291-.219.453-.025.614-.009,1.23-.01,1.846,0,.593-.138.729-.73.729-3.148,0-6.3-.013-9.445.006a4.872,4.872,0,0,0-4.184,2.273A4.557,4.557,0,0,0,1317.015,387.529Z" transform="translate(-35.632)" fill="currentColor" stroke="#181c3a" stroke-width="0.5" fill-rule="evenodd"/>
    <path id="Path_1236" data-name="Path 1236" d="M1284.3,509.778c0,.591,0,1.133,0,1.675a1.329,1.329,0,0,1-2.32.963q-2.432-2.438-4.868-4.872a1.323,1.323,0,0,1,0-2.032q2.419-2.426,4.845-4.845a1.334,1.334,0,0,1,2.344.986c0,.529,0,1.059,0,1.631h14.406c.681,0,.81.136.778.814a5.984,5.984,0,0,1-5.8,5.666c-2.97.04-5.941.012-8.911.013Zm14.145-5.5h-14.4c-.583,0-.735-.155-.736-.738,0-.627.013-1.255-.01-1.881a.57.57,0,0,0-.214-.422c-.088-.05-.32.04-.418.137-1.624,1.606-3.235,3.225-4.853,4.837a.388.388,0,0,0,0,.637c1.617,1.613,3.229,3.231,4.853,4.837a.347.347,0,0,0,.632-.254c.022-.626.009-1.254.01-1.881s.14-.766.775-.766c3.065,0,6.13.007,9.195-.007a6.386,6.386,0,0,0,1.474-.162A4.95,4.95,0,0,0,1298.445,504.278Z" transform="translate(0 -109.775)" fill="currentColor" stroke="#181c3a" stroke-width="0.5" fill-rule="evenodd"/>
  </g>
</svg>
