<svg xmlns="http://www.w3.org/2000/svg" viewBox="0 0 8.437 11.8">
  <g id="two-arrows" transform="translate(-95.9 479.9)">
    <path id="Path_37" data-name="Path 37" d="M97.984-477.434c-1.223,1.457-2.071,2.49-2.076,2.527l-.008.063h8.437l-.008-.063c-.005-.037-.854-1.07-2.076-2.527a26.808,26.808,0,0,0-2.134-2.466A26.808,26.808,0,0,0,97.984-477.434Z" fill="currentColor"/>
    <path id="Path_38" data-name="Path 38" d="M95.908-223.937c.005.037.854,1.07,2.076,2.527a26.809,26.809,0,0,0,2.134,2.466,26.809,26.809,0,0,0,2.134-2.466c1.223-1.457,2.071-2.49,2.076-2.527l.008-.063H95.9Z" transform="translate(0 -249.157)" fill="currentColor"/>
  </g>
</svg>
