<svg xmlns="http://www.w3.org/2000/svg" viewBox="0 0 32.032 30.506">
  <g id="Group_1904" data-name="Group 1904" transform="translate(-1367.963 -293.549)">
    <path id="Path_1157" data-name="Path 1157" d="M1400,301.609c-.088.426-.153.858-.268,1.277a7.383,7.383,0,0,1-7.161,5.416h-.337v.393q0,5.612,0,11.224a4.046,4.046,0,0,1-3.315,4.048,6.867,6.867,0,0,1-1.306.083q-7.738.008-15.477,0a4.1,4.1,0,0,1-4.109-3.407c-.013-.069-.039-.137-.058-.2V317.5a.725.725,0,0,1,.69-.328c1.042.01,2.085,0,3.127,0h.367c.007-.135.017-.245.017-.356q.061-8.786.12-17.573c0-.681.146-.824.825-.824,4.044,0,8.088,0,12.133.009a.551.551,0,0,0,.614-.393,7.358,7.358,0,0,1,14.082,1.989,1.314,1.314,0,0,0,.058.2Zm-26.672-2.125c-.04,5.909-.079,11.783-.119,17.692h11.1c.674,0,.785.109.785.772s-.01,1.355,0,2.033a3.045,3.045,0,0,0,3.059,3.027,3.01,3.01,0,0,0,3.02-3.023c.014-3.857,0-7.714.009-11.571,0-.19-.053-.264-.246-.311a7.215,7.215,0,0,1-4.351-2.991.4.4,0,0,0-.382-.2c-1.418.006-2.835,0-4.253,0-.323,0-.647.011-.969-.006a.509.509,0,0,1-.513-.521.518.518,0,0,1,.518-.518c.083-.007.167,0,.25,0h4.556a10.629,10.629,0,0,1-.5-4.385Zm25.629,1.455a6.328,6.328,0,1,0-6.326,6.32A6.323,6.323,0,0,0,1398.952,300.939Zm-13.537,22.069a4.255,4.255,0,0,1-1.37-3.406c.016-.455,0-.91,0-1.371h-15a16.748,16.748,0,0,0,.017,2.24,2.988,2.988,0,0,0,3.06,2.536q6.472,0,12.944,0Z" transform="translate(0 0)" fill="currentColor" fill-rule="evenodd"/>
    <path id="Path_1158" data-name="Path 1158" d="M1564.441,593.213c-1.126,0-2.252,0-3.378,0-.354,0-.57-.176-.6-.466-.032-.334.2-.566.587-.571.615-.008,1.23,0,1.845,0h4.723c.094,0,.188-.005.281,0a.521.521,0,0,1,.509.527.513.513,0,0,1-.53.5c-.615.01-1.23,0-1.845,0Z" transform="translate(-179.992 -279.219)" fill="currentColor" fill-rule="evenodd"/>
    <path id="Path_1159" data-name="Path 1159" d="M1564.443,522.428q1.674,0,3.346,0c.407,0,.641.2.634.522s-.231.5-.624.5q-3.346,0-6.693,0c-.415,0-.637-.194-.631-.526s.227-.5.651-.5Q1562.786,522.426,1564.443,522.428Z" transform="translate(-180.005 -214.007)" fill="currentColor" fill-rule="evenodd"/>
    <path id="Path_1160" data-name="Path 1160" d="M1494.8,437.766a1.659,1.659,0,1,1-1.634-1.624A1.639,1.639,0,0,1,1494.8,437.766Zm-1.656.552a.568.568,0,1,0,0-1.13.567.567,0,1,0,0,1.13Z" transform="translate(-115.496 -133.328)" fill="currentColor" fill-rule="evenodd"/>
    <path id="Path_1161" data-name="Path 1161" d="M1494.8,507.2a1.636,1.636,0,0,1-1.638,1.621,1.611,1.611,0,1,1-.019-3.22A1.632,1.632,0,0,1,1494.8,507.2Zm-1.658.571a.6.6,0,0,0,.627-.559.608.608,0,0,0-.62-.571.6.6,0,0,0-.622.564A.585.585,0,0,0,1493.147,507.771Z" transform="translate(-115.498 -198.273)" fill="currentColor" fill-rule="evenodd"/>
    <path id="Path_1162" data-name="Path 1162" d="M1494.8,576.722a1.66,1.66,0,1,1-1.64-1.61A1.634,1.634,0,0,1,1494.8,576.722Zm-1.668.554a.6.6,0,0,0,.637-.548.611.611,0,0,0-.61-.583.6.6,0,0,0-.632.555A.583.583,0,0,0,1493.134,577.276Z" transform="translate(-115.495 -263.268)" fill="currentColor" fill-rule="evenodd"/>
    <path id="Path_1163" data-name="Path 1163" d="M1716.076,333.619a8.266,8.266,0,0,1,.88.489,2.117,2.117,0,0,1,.848,1.509c.053.408-.122.689-.45.731s-.543-.181-.589-.61a1.154,1.154,0,0,0-2.283-.122,1.165,1.165,0,0,0,1.185,1.385,2.189,2.189,0,0,1,.688,4.251c-.215.076-.306.17-.276.393a1.187,1.187,0,0,1-.007.312.486.486,0,0,1-.521.435c-.277-.013-.508-.173-.474-.435.066-.512-.2-.692-.6-.909a1.994,1.994,0,0,1-1.047-1.773.5.5,0,0,1,.463-.59c.318-.024.523.164.559.529a1.145,1.145,0,0,0,.783,1.066,1.152,1.152,0,1,0,.562-2.225c-.256-.042-.522-.046-.771-.112a2.184,2.184,0,0,1-.3-4.1.436.436,0,0,0,.332-.524.523.523,0,0,1,.36-.618.5.5,0,0,1,.656.438A4.6,4.6,0,0,1,1716.076,333.619Z" transform="translate(-323.019 -36.583)" fill="currentColor" fill-rule="evenodd"/>
  </g>
</svg>
