<svg xmlns="http://www.w3.org/2000/svg" viewBox="0 0 70 94">
  <g id="bitcoin-logo_3_" data-name="bitcoin-logo(3)" transform="translate(-14 97)">
    <path id="Path_555" data-name="Path 555" d="M43.6-93.3c-.4,2.1-.9,5-1.2,6.4l-.5,2.5-8-1.4c-4.4-.8-8.1-1.3-8.3-1.1a26.016,26.016,0,0,0-1.1,5l-.7,4.6,4.5,1.1c2.5.7,4.7,1.7,5,2.4.4,1.2-5.6,36.5-6.8,39.5-.3.9-1.8,1.1-4.8.7l-4.4-.6-1.7,4.8A39.668,39.668,0,0,0,14-23.9c0,.4,3.4,1.3,7.6,2,4.3.7,7.8,1.8,8.1,2.5.2.7-.1,3.8-.7,6.9s-1,5.8-.8,6c.1.1,2.4.5,4.9.9l4.7.7.6-3.8C40-17.8,40.1-18,42.6-18c2.7,0,2.9.7,1.3,8.1-1.3,6-.6,6.9,5.2,6.9h3.7L54-9.2l1.1-6.3,7.7-.1c8.2,0,12-1.4,15.9-5.6C82-24.7,84-30.3,84-36.1c0-4.6-.4-5.5-3.9-9L76.3-49l2.4-1.6c3.2-2,5.3-7.2,5.3-12.8,0-5.8-4.3-10.9-11.9-14.3-5.9-2.6-5.5-1.3-3.5-12.6.5-3.2.4-3.7-1.4-3.7a38.3,38.3,0,0,1-5.1-.6c-2.4-.5-3.1-.3-3.1.9C59-89.9,56.7-82,55.7-82c-3.2-.1-3.7-1.5-2.6-7.5,1.2-6.7.7-7.5-5.2-7.5C44.4-97,44.2-96.8,43.6-93.3ZM62.1-68.5c3.6,1.9,5.2,5.5,3.9,9s-5.3,4.8-12.8,4c-5.2-.6-6.2-1-5.8-2.3.2-1,.7-3.5,1.1-5.7,1.2-7.8,1.2-7.8,6.1-7.1A30.214,30.214,0,0,1,62.1-68.5ZM59.9-42.7c5.2,2.6,7.1,6.5,5.1,10.3-1.8,3.3-7,4.8-14.2,4-9-1.1-8.6-.5-6.9-10l1.5-8.3,5.1.9A43.182,43.182,0,0,1,59.9-42.7Z" fill="currentColor"/>
  </g>
</svg>