<svg xmlns="http://www.w3.org/2000/svg" xmlns:xlink="http://www.w3.org/1999/xlink" width="300" height="300" viewBox="0 0 300 300">
  <defs>
    <clipPath id="clip-Bitcoin_SV">
      <rect width="300" height="300"/>
    </clipPath>
  </defs>
  <g id="Bitcoin_SV" data-name="Bitcoin SV" clip-path="url(#clip-Bitcoin_SV)">
    <rect width="300" height="300" fill="rgba(255,255,255,0)"/>
    <path id="Path_3" data-name="Path 3" d="M20,0H270a20,20,0,0,1,20,20V270a20,20,0,0,1-20,20H20A20,20,0,0,1,0,270V20A20,20,0,0,1,20,0Z" transform="translate(5 5)" fill="#eab300"/>
    <g id="bitcoin-sv-bsv-logo" transform="translate(-9.945 -14.254)">
      <g id="Group_1" data-name="Group 1" transform="translate(85.69 56.347)">
        <path id="Path_5" data-name="Path 5" d="M861.36,538.163c-2.258-23.476-22.522-31.343-48.129-33.587V472H793.415v31.707c-5.2,0-10.532.1-15.819.21V472H757.781l-.014,32.549c-4.291.084-8.512.168-12.621.168v-.1l-27.332-.014v21.176s14.641-.281,14.388-.014c8.036,0,10.644,4.656,11.4,8.681v37.106a15.271,15.271,0,0,1,2.09.14H743.6l-.014,51.986c-.351,2.524-1.837,6.549-7.447,6.563.252.224-14.4,0-14.4,0L717.8,653.914h25.8c4.8,0,9.522.084,14.15.112l.014,32.942h19.8V654.377c5.427.112,10.686.154,15.833.154l-.014,32.437H813.2V654.1c33.32-1.907,56.669-10.307,59.558-41.608,2.342-25.2-9.508-36.461-28.426-41.005,11.513-5.834,18.708-16.141,17.025-33.32ZM833.621,608.59c0,24.611-42.141,21.821-55.59,21.821V586.755C791.48,586.783,833.621,582.927,833.621,608.59Zm-9.228-61.578c0,22.4-35.171,19.773-46.362,19.787V527.225C789.236,527.225,824.408,523.663,824.394,547.012Z" transform="translate(-717.8 -472)" fill="#fff"/>
        <path id="Path_6" data-name="Path 6" d="M902,1175.7h2.945v2.174H902Z" transform="translate(-876.168 -1077.016)" fill="#fff"/>
      </g>
    </g>
  </g>
</svg>
