<svg xmlns="http://www.w3.org/2000/svg" xmlns:xlink="http://www.w3.org/1999/xlink" viewBox="0 0 300 300">
  <defs>
    <clipPath id="clip-Bitcoin">
      <rect width="300" height="300"/>
    </clipPath>
  </defs>
  <g id="Bitcoin" clip-path="url(#clip-Bitcoin)">
    <rect width="300" height="300" fill="rgba(255,255,255,0)"/>
    <path id="Path_7" data-name="Path 7" d="M20,0H270a20,20,0,0,1,20,20V270a20,20,0,0,1-20,20H20A20,20,0,0,1,0,270V20A20,20,0,0,1,20,0Z" transform="translate(5 5)" fill="#f7931a"/>
    <path id="bitcoin_5_" data-name="bitcoin(5)" d="M191.648,143.12c-1.513-10.777-6.806-19.1-16.259-24.578-4.348-2.458-9.075-4.159-13.991-6.239.567-.378.945-.756,1.323-.945,23.633-12.1,21.553-48.589,4.348-61.067a62.207,62.207,0,0,0-22.877-10.209c-5.861-1.323-11.722-2.269-17.772-3.214,0-10.587.189-25.145.189-36.867h-22.12c-.189,11.533-.189,25.713-.378,36.111H86.341c0-10.4.189-24.578.189-36.111H64.6c-.189,11.722-.189,26.28-.378,36.678-15.125-.189-29.683-.189-44.808-.378,0,8.13-.189,15.692-.189,23.633,3.214,0,6.05,0,8.7.189,2.836,0,5.672,0,8.319.189,7.752.567,11.722,4.916,11.722,12.478-.378,31.573-.756,63.336-.945,94.909,0,7-3.025,9.642-9.831,9.642H22.437c-1.513,8.886-3.025,17.394-4.538,26.28,14.936.189,29.683.378,44.808.567,0,11.344-.189,25.712-.189,37.623h22.12c.189-11.911.189-25.9.378-37.056,6.239.189,11.911.378,17.772.567,0,11.344-.189,25.145-.189,36.678h22.12c.189-11.911.189-25.9.378-36.867.756-.189,1.323-.189,1.891-.378,10.587-1.7,21.364-2.647,31.573-5.1,13.423-3.4,24.011-11.155,29.683-24.389a63.755,63.755,0,0,0,3.4-32.141ZM86.719,62.2c13.8,0,27.225-1.134,39.7,4.538,8.319,3.592,12.478,10.4,11.911,18.528-.567,8.7-5.483,14.936-14.369,17.772-12.1,3.97-24.767,3.781-37.813,3.214.189-14.369.378-28.738.567-44.052ZM134.93,172.614c-12.289,5.483-25.145,5.483-38.191,5.672-3.592,0-7.184-.189-11.155-.189l.567-48.967c16.827,0,33.464-1.323,49.156,5.672,8.13,3.592,12.856,9.831,12.856,19.1C147.975,163.161,143.059,169.022,134.93,172.614Z" transform="translate(70.034 11.166) rotate(11)" fill="#f5f5f5"/>
  </g>
</svg>