<svg xmlns="http://www.w3.org/2000/svg" xmlns:xlink="http://www.w3.org/1999/xlink" width="300" height="300" viewBox="0 0 300 300">
  <defs>
    <clipPath id="clip-Bitcoin_Cash_">
      <rect width="300" height="300"/>
    </clipPath>
  </defs>
  <g id="Bitcoin_Cash_" data-name="Bitcoin Cash " clip-path="url(#clip-Bitcoin_Cash_)">
    <rect width="300" height="300" fill="rgba(255,255,255,0)"/>
    <rect id="Rectangle_1" data-name="Rectangle 1" width="290" height="290" rx="20" transform="translate(5 5)" fill="#0ac18e"/>
    <g id="bitcoin-cash-bch-logo" transform="translate(-22.8 -29.976)">
      <path id="symbol_1_" d="M358.31,205.675c-10.12-22.95-33.377-27.857-61.847-23.1L287.314,147.1l-21.57,5.571,9,35.37c-5.674,1.431-11.5,2.658-17.276,4.294l-9-35.166-21.57,5.571,9.149,35.472c-4.651,1.329-43.548,11.3-43.548,11.3l5.929,23.1s15.845-4.447,15.692-4.089c8.791-2.3,12.932,2.1,14.874,6.236l25.148,97.217c.307,2.811-.2,7.616-6.236,9.251.358.2-15.692,4.038-15.692,4.038l2.351,26.936s38.539-9.865,43.6-11.143l9.251,35.881,21.57-5.571-9.251-36.137q8.894-2.07,17.327-4.293l9.2,35.932,21.57-5.571-9.251-35.83c33.223-8.076,56.684-29.032,51.88-61.08-3.067-19.321-24.176-35.166-41.708-36.955,10.785-9.558,16.254-23.512,9.558-41.759Zm-10.376,84.592c4.293,31.741-39.817,35.626-54.384,39.459l-12.676-47.484C295.493,278.409,340.676,262.309,347.934,290.267Zm-26.579-64.658c4.549,28.214-33.172,31.486-45.337,34.6l-11.552-43.088C276.683,214.109,312.1,199.491,321.356,225.609Z" transform="translate(-121.656 -92.964)" fill="#fff"/>
    </g>
  </g>
</svg>
