<svg xmlns="http://www.w3.org/2000/svg" xmlns:xlink="http://www.w3.org/1999/xlink" width="300" height="300" viewBox="0 0 300 300">
  <defs>
    <clipPath id="clip-BitTorrent_">
      <rect width="300" height="300"/>
    </clipPath>
  </defs>
  <g id="BitTorrent_" data-name="BitTorrent " clip-path="url(#clip-BitTorrent_)">
    <rect width="300" height="300" fill="rgba(255,255,255,0)"/>
    <path id="Path_3" data-name="Path 3" d="M20,0H270a20,20,0,0,1,20,20V270a20,20,0,0,1-20,20H20A20,20,0,0,1,0,270V20A20,20,0,0,1,20,0Z" transform="translate(5 5)"/>
    <g id="bittorrent-btt-logo" transform="translate(-8.547 -8.548)">
      <g id="Group_1" data-name="Group 1" transform="translate(35.444 34.496)">
        <path id="Path_4" data-name="Path 4" d="M248.622,102.7A122.971,122.971,0,0,0,241.4,79.51,125.206,125.206,0,0,0,230,58.476a124.9,124.9,0,0,0-33.324-33.314,129.51,129.51,0,0,0-21.023-11.4A123.751,123.751,0,0,0,25.272,58.476a129.509,129.509,0,0,0-11.4,21.033,122.972,122.972,0,0,0,0,96.032,125.751,125.751,0,0,0,11.4,21.023A124.737,124.737,0,0,0,58.6,229.889a129.572,129.572,0,0,0,21.023,11.4,122.972,122.972,0,0,0,96.032,0,125.754,125.754,0,0,0,21.023-11.4A124.737,124.737,0,0,0,230,196.564a129.576,129.576,0,0,0,11.4-21.023,122.972,122.972,0,0,0,7.222-72.846ZM127.749,235.59a107.94,107.94,0,1,1,107.94-107.94A107.944,107.944,0,0,1,127.749,235.59Z" transform="translate(-4.109 -3.999)" fill="#fff"/>
        <path id="Path_5" data-name="Path 5" d="M96.583,183.295H99.5a5.746,5.746,0,0,0,1.511-.135h.135a5.246,5.246,0,0,0,1.386-.124h.383a3.531,3.531,0,0,0,1.138-.124h.383c.383,0,.766-.124,1.273-.124h.248c.507,0,1.014-.135,1.521-.135a5.51,5.51,0,0,0,1.4-.248h.248c.383,0,.766-.124,1.138-.124h.259c.507-.134.89-.134,1.4-.259a20.3,20.3,0,0,0,2.907-.631h.259c.372-.124.879-.124,1.262-.259h.124c1.014-.248,1.9-.507,2.918-.755a113.267,113.267,0,0,1-28.245-2.659c-13.946-3.042-27.241-8.484-38.518-17.868A78.05,78.05,0,0,1,24.5,99.171a73.736,73.736,0,0,1,17.35-47.126,75.246,75.246,0,0,1,55.993-26.61h2.918V8.592h-3.29a95.037,95.037,0,0,0-19.006,2.276,91.353,91.353,0,0,0-18.24,6.208A93.361,93.361,0,0,0,43.5,27.215,89.162,89.162,0,0,0,28.931,41.151,86.215,86.215,0,0,0,18.419,56.732a89.08,89.08,0,0,0-6.973,16.843A92.08,92.08,0,0,0,8.032,91.194l-.383,5.566v3.29a95.355,95.355,0,0,0,2.276,19.006,91.453,91.453,0,0,0,6.208,18.25c3.176,6.963,8.877,17.226,17.361,24.955a97.977,97.977,0,0,0,60.8,21.033h2.286Z" transform="translate(28.971 38.922)" fill="#fff"/>
        <path id="Path_6" data-name="Path 6" d="M104.769,147.389a128.846,128.846,0,0,1-18.623-2.028c-26.093-4.687-48.523-20.651-56.748-44.715C19.383,71.377,34.716,39.708,63.85,30.086a53.9,53.9,0,0,1,17.226-2.793,58.227,58.227,0,0,1,21.8,4.3l7.087-15.074q-3.2-1.282-6.456-2.4A74.627,74.627,0,0,0,81.076,10.7,71.555,71.555,0,0,0,33.7,28.814a72.628,72.628,0,0,0-9.5,10.263,68.9,68.9,0,0,0-7.222,11.784,72.151,72.151,0,0,0-3.3,55.1,70.042,70.042,0,0,0,15.209,25.213c6.208,6.715,13.429,11.784,22.161,16.471,9.125,4.811,20.4,7.346,32.176,9a204.858,204.858,0,0,0,23.692,1.262c5.194-1.9,7.346-2.793,10.139-3.931,2.411-1.138,4.811-2.276,7.222-3.673s2.793-1.655,6.839-4.3a7.032,7.032,0,0,0,1.014-.766c-13.936,2.411-17.485,2.276-27.365,2.152Z" transform="translate(48.399 58.605)" fill="#fff"/>
        <path id="Path_7" data-name="Path 7" d="M116.7,109.523c-3.931.248-9.508.621-15.84.621-11.277,0-25.089-1-36.863-4.935C45.743,99.135,28.516,83.554,28.516,64.29A34.715,34.715,0,0,1,93.51,47.312l15.074-7.47a48.978,48.978,0,0,0-9-12.032,51.435,51.435,0,0,0-87.8,36.356,50.7,50.7,0,0,0,4.449,20.526,61.7,61.7,0,0,0,11.018,16.347A77.47,77.47,0,0,0,58.8,121.048c11.525,3.8,28.5,5.194,44.974,4.056a94.287,94.287,0,0,0,13.8-2.028A95.058,95.058,0,0,0,132.783,108C128.852,108.385,121.63,109.14,116.7,109.523Z" transform="translate(67.645 77.6)" fill="#fff"/>
      </g>
    </g>
  </g>
</svg>
