<svg xmlns="http://www.w3.org/2000/svg" viewBox="0 0 25.951 25.951">
  <g id="Group_1956" data-name="Group 1956" transform="translate(-1324.75 -296.752)">
    <path id="Path_1292" data-name="Path 1292" d="M1336.915,296.752h1.622c.065.014.13.032.2.042.666.1,1.342.165,2,.315a12.952,12.952,0,0,1,9.776,10.382c.079.473.132.951.2,1.426v1.622c-.015.065-.033.13-.043.2-.088.6-.144,1.207-.267,1.8a12.978,12.978,0,0,1-10.406,9.968c-.481.078-.966.134-1.449.2h-1.622c-.056-.014-.112-.032-.17-.04-.592-.087-1.19-.144-1.776-.261a12.977,12.977,0,0,1-10.016-10.388c-.079-.49-.136-.984-.2-1.476v-1.622c.083-.575.145-1.153.251-1.723a12.975,12.975,0,0,1,10.463-10.242C1335.946,296.872,1336.431,296.818,1336.915,296.752Zm9.533,12.965a8.722,8.722,0,1,0-8.706,8.732A8.723,8.723,0,0,0,1346.448,309.717Zm1.561.785c-.871,5.478-4.025,8.635-9.509,9.508v1.116a11.36,11.36,0,0,0,10.628-10.623Zm-9.513-11.058c5.5.88,8.65,4.038,9.51,9.5h1.129a11.35,11.35,0,0,0-10.639-10.607ZM1326.329,310.5a11.148,11.148,0,0,0,3.669,7.681,11.314,11.314,0,0,0,6.95,2.972v-1.2a10.3,10.3,0,0,1-9.446-9.449Zm10.624-12.183a11.349,11.349,0,0,0-10.613,10.633h1.1c.878-5.493,4.038-8.644,9.509-9.505Z" fill="currentColor" fill-rule="evenodd"/>
    <path id="Path_1293" data-name="Path 1293" d="M1457.432,415.535c0,.819,0,1.638,0,2.457a.334.334,0,0,1-.2.336q-2.119,1.213-4.229,2.442a.353.353,0,0,1-.412,0q-2.11-1.229-4.23-2.441a.336.336,0,0,1-.2-.336q.01-2.457,0-4.914a.319.319,0,0,1,.178-.322q2.141-1.226,4.274-2.466a.318.318,0,0,1,.368,0c1.422.827,2.849,1.645,4.268,2.476a.4.4,0,0,1,.168.291C1457.437,413.88,1457.432,414.707,1457.432,415.535Zm-2.277-2.237c-.779-.45-1.513-.877-2.251-1.3a.219.219,0,0,0-.182-.009c-.745.423-1.485.854-2.234,1.287.028.033.039.058.059.069.714.414,1.427.829,2.146,1.235a.272.272,0,0,0,.227,0C1453.65,414.167,1454.378,413.745,1455.154,413.3Zm-5.461,1.318c0,.912,0,1.763.007,2.614,0,.066.091.152.161.193.675.4,1.355.788,2.034,1.18a1.12,1.12,0,0,0,.146.057c0-.613,0-1.2,0-1.794,0-.295.087-.644-.041-.868s-.474-.323-.728-.47C1450.764,415.23,1450.253,414.938,1449.694,414.616Zm3.869,4.073c.779-.45,1.518-.871,2.248-1.306a.345.345,0,0,0,.1-.257c.007-.76,0-1.519,0-2.279a2.13,2.13,0,0,0-.024-.216c-.764.442-1.5.865-2.233,1.3a.216.216,0,0,0-.087.159C1453.561,416.937,1453.562,417.789,1453.562,418.688Z" transform="translate(-115.076 -105.805)" fill="currentColor" fill-rule="evenodd"/>
  </g>
</svg>
