<svg xmlns="http://www.w3.org/2000/svg" viewBox="0 0 57.204 52.726">
  <g id="Group_3758" data-name="Group 3758" transform="translate(-744.801 -29.941)">
    <path id="Path_12996" data-name="Path 12996" d="M744.8,32.9a3.614,3.614,0,0,1,1.877-2.5,5.206,5.206,0,0,1,1.982-.445q24.745-.036,49.491-.015A3.573,3.573,0,0,1,802,33.825q0,22.483,0,44.966a3.569,3.569,0,0,1-3.857,3.871q-9.524.013-19.048,0a3.21,3.21,0,0,1-.611-.046,1.088,1.088,0,0,1-.061-2.11,4.155,4.155,0,0,1,.886-.073q9.273-.006,18.545,0a6.045,6.045,0,0,0,.779-.038,1.158,1.158,0,0,0,1.051-.932,3.57,3.57,0,0,0,.079-.828q.006-17.54,0-35.079v-.643H747.035v.624q0,17.568,0,35.135c0,1.33.436,1.764,1.78,1.764q10.055,0,20.109,0a4.228,4.228,0,0,1,.831.067,1.083,1.083,0,0,1,.846,1.045,1.1,1.1,0,0,1-.882,1.073,4.58,4.58,0,0,1-.779.046q-9.831,0-19.662,0c-2.691,0-3.469-.512-4.479-2.948Zm2.238,7.688h52.727c0-2.386.017-4.73-.009-7.073a1.277,1.277,0,0,0-1.3-1.325c-.2-.02-.409-.015-.614-.015H748.966c-.2,0-.41-.006-.614.014a1.277,1.277,0,0,0-1.3,1.325C747.022,35.861,747.039,38.2,747.039,40.591Z" fill="currentColor" fill-rule="evenodd"/>
    <path id="Path_12997" data-name="Path 12997" d="M831.105,192.066a4.019,4.019,0,0,1,1.037,4.046,3.962,3.962,0,0,1-3.939,2.87c-1.153.037-2.308.022-3.462,0a1.157,1.157,0,0,1-1.311-1.309q-.02-5.612,0-11.224c0-.843.4-1.288,1.2-1.3,1.3-.024,2.606-.032,3.907.028a3.749,3.749,0,0,1,3.456,2.417,3.844,3.844,0,0,1-.685,4.219C831.246,191.884,831.191,191.958,831.105,192.066Zm-5.445-1.143c.984,0,1.891.04,2.794-.011a1.759,1.759,0,0,0,.016-3.508c-.813-.054-1.633-.039-2.448-.015a.5.5,0,0,0-.346.342C825.648,188.767,825.66,189.8,825.66,190.923Zm.034,5.769c1.041,0,2.061.072,3.065-.023a1.752,1.752,0,0,0-.043-3.413c-.989-.082-1.991-.02-3.022-.02Z" transform="translate(-67.641 -133.519)" fill="currentColor" fill-rule="evenodd"/>
    <path id="Path_12998" data-name="Path 12998" d="M841.155,349.012q-7.954,0-15.909,0a4.455,4.455,0,0,1-.777-.052,1.082,1.082,0,0,1,0-2.128,4.068,4.068,0,0,1,.721-.052q15.992,0,31.985,0a3.865,3.865,0,0,1,.776.061,1.085,1.085,0,0,1,0,2.109,4.281,4.281,0,0,1-.832.061Q849.137,349.014,841.155,349.012Z" transform="translate(-67.781 -272.59)" fill="currentColor" fill-rule="evenodd"/>
    <path id="Path_12999" data-name="Path 12999" d="M1023.795,234.093a4.1,4.1,0,0,1-3.9-.165,4.033,4.033,0,0,1,2.375-7.474,3.9,3.9,0,0,1,3.681,3.561c.093,2.1.1,4.2,0,6.3a3.9,3.9,0,0,1-3.912,3.556A4.01,4.01,0,0,1,1018,236.43a2.692,2.692,0,0,1-.008-.824,1.067,1.067,0,0,1,1.074-.873,1.122,1.122,0,0,1,1.058.911c.045.218.058.444.114.659a1.8,1.8,0,0,0,3.5-.123,3.336,3.336,0,0,0,.052-.555C1023.8,235.146,1023.795,234.667,1023.795,234.093Zm-1.824-1.815a1.806,1.806,0,0,0,1.813-1.809,1.811,1.811,0,1,0-1.813,1.809Z" transform="translate(-235.008 -169.054)" fill="currentColor" fill-rule="evenodd"/>
    <path id="Path_13000" data-name="Path 13000" d="M950.745,234.5a4.034,4.034,0,0,1,.243-8.065,4.084,4.084,0,0,1,3.934,4.164A4.043,4.043,0,0,1,950.745,234.5Zm.136-2.225a1.813,1.813,0,0,0,1.812-1.813,1.808,1.808,0,0,0-3.615,0A1.792,1.792,0,0,0,950.881,232.271Z" transform="translate(-173.829 -169.048)" fill="currentColor" fill-rule="evenodd"/>
    <path id="Path_13001" data-name="Path 13001" d="M902.2,191.064c0-1.507,0-3.013,0-4.519a1.176,1.176,0,0,1,.613-1.162,1.081,1.081,0,0,1,1.544.7,3.279,3.279,0,0,1,.076.773c.005,2.734,0,5.467,0,8.2,0,1.158.375,1.61,1.5,1.83.711.139,1.12.6,1.055,1.2a1.12,1.12,0,0,1-1.308.99,3.593,3.593,0,0,1-3.452-3.434c-.057-1.523-.012-3.049-.012-4.573Z" transform="translate(-135.415 -133.631)" fill="currentColor" fill-rule="evenodd"/>
    <path id="Path_13002" data-name="Path 13002" d="M949.43,392.766a1.114,1.114,0,0,1-1.094,1.108,1.094,1.094,0,1,1-.032-2.188A1.121,1.121,0,0,1,949.43,392.766Z" transform="translate(-174.147 -311.229)" fill="currentColor" fill-rule="evenodd"/>
    <path id="Path_13003" data-name="Path 13003" d="M949.885,70.462q-5.109,0-10.219,0a5.094,5.094,0,0,1-.668-.029,1.084,1.084,0,0,1-.974-1.045,1.065,1.065,0,0,1,.9-1.1,3.5,3.5,0,0,1,.664-.057q10.3,0,20.6,0a3.547,3.547,0,0,1,.774.073,1.051,1.051,0,0,1,.81,1.064,1.064,1.064,0,0,1-.841,1.044,4.1,4.1,0,0,1-.778.049Q955.023,70.464,949.885,70.462Z" transform="translate(-166.24 -32.939)" fill="currentColor" fill-rule="evenodd"/>
    <path id="Path_13004" data-name="Path 13004" d="M792.733,69.493a1.1,1.1,0,0,1-1.093,1.1,1.1,1.1,0,1,1,1.093-1.1Z" transform="translate(-39.324 -33.083)" fill="currentColor" fill-rule="evenodd"/>
    <path id="Path_13005" data-name="Path 13005" d="M830.269,69.473a1.1,1.1,0,0,1,1.093-1.1,1.1,1.1,0,1,1-.012,2.2A1.086,1.086,0,0,1,830.269,69.473Z" transform="translate(-73.533 -33.069)" fill="currentColor" fill-rule="evenodd"/>
    <path id="Path_13006" data-name="Path 13006" d="M870.9,68.377a1.106,1.106,0,0,1,1.081,1.113,1.094,1.094,0,0,1-1.16,1.082,1.116,1.116,0,0,1-1.062-1.132A1.133,1.133,0,0,1,870.9,68.377Z" transform="translate(-107.511 -33.069)" fill="currentColor" fill-rule="evenodd"/>
  </g>
</svg>
