<svg id="Group_1939" data-name="Group 1939" xmlns="http://www.w3.org/2000/svg" viewBox="0 0 63.231 66.667">
  <path id="Path_1259" data-name="Path 1259" d="M1036.237,339.974c0-1.078,0-2.069,0-3.061s.371-1.381,1.321-1.382q4.775-.006,9.549,0h.752a16.825,16.825,0,0,1,6.3-12.21,15.009,15.009,0,0,1,9.959-3.344c7.635.144,14.955,6.809,15.326,15.554h.7q4.742,0,9.484,0c1.075,0,1.41.357,1.414,1.5,0,.9,0,1.805.005,2.708a2.172,2.172,0,0,0,.04.241c.891,0,1.8,0,2.714,0,1.125,0,1.455.345,1.455,1.521q0,21.8,0,43.606c0,1.187-.328,1.538-1.441,1.538h-60.326c-1.131,0-1.463-.343-1.463-1.513q0-21.838,0-43.676c0-1.124.343-1.474,1.43-1.477C1034.349,339.972,1035.247,339.974,1036.237,339.974Zm43.2-2.2c-.037.224-.068.382-.088.541-.8,6.637-4.153,11.233-9.969,13.871a1.6,1.6,0,0,0-.694.656c-1.326,2.45-2.627,4.914-3.928,7.378-.255.483-.522.921-1.125.919s-.865-.449-1.119-.929c-1.281-2.423-2.557-4.85-3.871-7.253a2.034,2.034,0,0,0-.876-.828,16.288,16.288,0,0,1-9.578-12.043c-.165-.757-.245-1.534-.363-2.291h-9.432v42.123h24.192c0-5.009,0-9.962,0-14.914a4.854,4.854,0,0,1,.013-.693,1.037,1.037,0,0,1,1.012-.993,1.055,1.055,0,0,1,1.07,1,5.481,5.481,0,0,1,.011.624q0,7.117,0,14.234v.748h24.187V337.773Zm-15.8,19.929c.152-.256.271-.44.374-.634,1.009-1.9,2.03-3.783,3.012-5.693a2.268,2.268,0,0,1,1.293-1.172,14.549,14.549,0,0,0,8.858-15.818c-1.2-7.72-7.778-12.94-15.216-12.068-6.614.775-11.885,6.858-12.02,13.872a14.5,14.5,0,0,0,9.134,14.093,2.357,2.357,0,0,1,1.088.993c1.071,1.909,2.073,3.863,3.1,5.8C1063.366,357.265,1063.487,357.448,1063.638,357.7Zm-29.478,26.666h58.952V342.239h-2.075v.863q0,18.714,0,37.428c0,1.366-.285,1.665-1.584,1.665h-51.635c-1.3,0-1.58-.3-1.58-1.668q0-18.749,0-37.5v-.8h-2.077Z" transform="translate(-1032.021 -319.973)" fill="currentColor" fill-rule="evenodd"/>
  <path id="Path_1260" data-name="Path 1260" d="M1240,559.948q4.313,0,8.628,0c1.033,0,1.382.369,1.383,1.457q0,4.1,0,8.194c0,1.088-.352,1.458-1.384,1.458q-8.628,0-17.255,0c-1.032,0-1.381-.37-1.382-1.459q0-4.1,0-8.194c0-1.09.348-1.456,1.383-1.456Q1235.689,559.945,1240,559.948Zm-7.856,2.252v6.582h15.725V562.2Z" transform="translate(-1195.214 -515.503)" fill="currentColor" fill-rule="evenodd"/>
  <path id="Path_1261" data-name="Path 1261" d="M1082.148,454.224v11.065h16.3a3.563,3.563,0,0,1,.657.017,1.112,1.112,0,0,1,.005,2.186,2.606,2.606,0,0,1-.525.017h-17.113c-1.13,0-1.463-.343-1.463-1.511q0-6.28,0-12.56c0-1.13.34-1.481,1.422-1.483,1.558,0,3.116-.005,4.673,0,.786,0,1.256.41,1.275,1.078.019.692-.472,1.135-1.283,1.141-1.272.01-2.544.01-3.817.016A1.087,1.087,0,0,0,1082.148,454.224Z" transform="translate(-1071.582 -427.51)" fill="currentColor" fill-rule="evenodd"/>
  <path id="Path_1262" data-name="Path 1262" d="M1251.031,526.167c-2.591,0-5.181,0-7.771,0a1.107,1.107,0,0,1-1.239-1.185,1.082,1.082,0,0,1,1.184-1.031c1.471-.011,2.942,0,4.413,0,3.644,0,7.288-.007,10.932.012a1.363,1.363,0,0,1,.965.281,1.437,1.437,0,0,1,.306,1.144,1.41,1.41,0,0,1-.957.749,15.438,15.438,0,0,1-2.3.037Z" transform="translate(-1205.129 -486.166)" fill="currentColor" fill-rule="evenodd"/>
  <path id="Path_1263" data-name="Path 1263" d="M1261.87,502.177q-3.26,0-6.52,0c-.837,0-1.317-.4-1.326-1.1s.474-1.123,1.3-1.124q6.586,0,13.172,0c.837,0,1.318.4,1.327,1.094.01.711-.485,1.125-1.365,1.126Q1265.164,502.18,1261.87,502.177Z" transform="translate(-1215.027 -466.62)" fill="currentColor" fill-rule="evenodd"/>
  <path id="Path_1264" data-name="Path 1264" d="M1117.414,559.947q3.029,0,6.059,0c.831,0,1.313.417,1.313,1.109s-.484,1.109-1.313,1.11q-6.059,0-12.118,0c-.83,0-1.312-.418-1.312-1.111s.48-1.107,1.313-1.108Q1114.385,559.942,1117.414,559.947Z" transform="translate(-1096.337 -515.502)" fill="currentColor" fill-rule="evenodd"/>
  <path id="Path_1265" data-name="Path 1265" d="M1117.376,586.167q-3,0-5.993,0c-.845,0-1.323-.391-1.343-1.077-.021-.713.476-1.142,1.346-1.142q6.026,0,12.052,0c.845,0,1.324.39,1.344,1.076.021.71-.48,1.142-1.347,1.144Q1120.406,586.171,1117.376,586.167Z" transform="translate(-1096.334 -535.055)" fill="currentColor" fill-rule="evenodd"/>
  <path id="Path_1266" data-name="Path 1266" d="M1117.415,610.164c-2.02,0-4.039,0-6.059,0-.831,0-1.313-.416-1.313-1.109s.48-1.109,1.311-1.11q6.059,0,12.118,0c.832,0,1.313.415,1.314,1.108s-.483,1.109-1.312,1.111C1121.454,610.167,1119.435,610.164,1117.415,610.164Z" transform="translate(-1096.337 -554.608)" fill="currentColor" fill-rule="evenodd"/>
  <path id="Path_1267" data-name="Path 1267" d="M1289.27,478.177c-1.3,0-2.59,0-3.885,0-.88,0-1.373-.414-1.363-1.126.01-.691.488-1.093,1.326-1.094q3.951-.005,7.9,0c.823,0,1.308.43,1.3,1.124s-.492,1.092-1.328,1.1C1291.9,478.181,1290.587,478.177,1289.27,478.177Z" transform="translate(-1239.754 -447.065)" fill="currentColor" fill-rule="evenodd"/>
  <path id="Path_1268" data-name="Path 1268" d="M1300.23,454.175c-.988,0-1.975.007-2.963,0a1.116,1.116,0,1,1,0-2.217q2.964-.011,5.927,0a1.116,1.116,0,1,1,0,2.217C1302.205,454.181,1301.218,454.175,1300.23,454.175Z" transform="translate(-1249.645 -427.507)" fill="currentColor" fill-rule="evenodd"/>
  <path id="Path_1269" data-name="Path 1269" d="M1081.635,559.945c.11,0,.219,0,.329,0a1.108,1.108,0,0,1,1.232,1.125c-.009.669-.483,1.083-1.261,1.1-.263,0-.527.011-.79,0a1.108,1.108,0,1,1,.028-2.216C1081.328,559.939,1081.482,559.946,1081.635,559.945Z" transform="translate(-1071.61 -515.499)" fill="currentColor" fill-rule="evenodd"/>
  <path id="Path_1270" data-name="Path 1270" d="M1081.634,583.942c.11,0,.22,0,.329,0a1.107,1.107,0,0,1,1.234,1.124c-.008.669-.482,1.084-1.26,1.1-.263,0-.527.011-.79,0a1.108,1.108,0,1,1,.026-2.216C1081.327,583.936,1081.48,583.943,1081.634,583.942Z" transform="translate(-1071.61 -535.052)" fill="currentColor" fill-rule="evenodd"/>
  <path id="Path_1271" data-name="Path 1271" d="M1081.594,610.142c-.132,0-.263,0-.395,0a1.11,1.11,0,1,1-.016-2.218c.285-.011.571-.011.856,0a1.11,1.11,0,1,1,.016,2.218C1081.9,610.147,1081.748,610.141,1081.594,610.142Z" transform="translate(-1071.609 -554.586)" fill="currentColor" fill-rule="evenodd"/>
  <path id="Path_1272" data-name="Path 1272" d="M1184.1,409.063v-8.894c-.354,0-.678.016-1,0a1.08,1.08,0,0,1-1.07-1.084,1.062,1.062,0,0,1,1.094-1.125q3.1-.025,6.19,0c.774.006,1.138.458,1.14,1.36q.008,4.444,0,8.887v.86c.371,0,.714-.019,1.053,0a1.076,1.076,0,0,1,1.049,1.1,1.053,1.053,0,0,1-1.051,1.1q-4.215.026-8.429,0a1.05,1.05,0,0,1-1.047-1.1,1.074,1.074,0,0,1,1.05-1.1C1183.406,409.045,1183.732,409.063,1184.1,409.063Zm2.186-8.861V409h2.026v-8.8Z" transform="translate(-1155.68 -383.503)" fill="currentColor" fill-rule="evenodd"/>
  <path id="Path_1273" data-name="Path 1273" d="M1194.017,359.319a3.162,3.162,0,1,1,3.113,3.341A3.256,3.256,0,0,1,1194.017,359.319Zm3.15-1.1a1.109,1.109,0,1,0,1.058,1.079A1.087,1.087,0,0,0,1197.167,358.223Z" transform="translate(-1165.56 -349.328)" fill="currentColor" fill-rule="evenodd"/>
</svg>
