<svg xmlns="http://www.w3.org/2000/svg" viewBox="0 0 27.952 27.952">
  <g id="Group_1925" data-name="Group 1925" transform="translate(-1367.75 -328.69)">
    <path id="Path_1230" data-name="Path 1230" d="M1389.205,356.642h-18.071a.639.639,0,0,0-.122-.048,3.734,3.734,0,0,1-2.805-2.015,8.925,8.925,0,0,1-.457-1.322V331.8a1.149,1.149,0,0,0,.05-.151,3.489,3.489,0,0,1,2.255-2.722,7.568,7.568,0,0,1,.861-.239h19.108q0,6.794,0,13.589c0,.241.044.346.309.421a7,7,0,0,1,5.164,5.21c.092.339.139.69.207,1.035V350.2a1.23,1.23,0,0,0-.048.181,7.037,7.037,0,0,1-5.12,5.988C1390.1,356.488,1389.649,356.552,1389.205,356.642Zm-7.693-7.718a7.147,7.147,0,0,1,6.86-6.451V330.3h-14.016v18.629Zm7.08-4.807a5.467,5.467,0,1,0,5.47,5.462A5.459,5.459,0,0,0,1388.593,344.118Zm-15.92,4.831V330.28c-.435,0-.844,0-1.253,0a1.963,1.963,0,0,0-2.03,2.032q0,8.525,0,17.051c0,.075.011.151.021.272A4.8,4.8,0,0,1,1372.673,348.949Zm8.861,1.631h-.193q-4.859,0-9.718,0a2.209,2.209,0,1,0,0,4.418q6.06.008,12.12,0a1.57,1.57,0,0,0,.18-.019c-.343-.388-.685-.753-1-1.142a.514.514,0,0,0-.454-.219q-5.1.009-10.209,0h-.338v-1.644h9.953Z" fill-rule="evenodd"/>
    <path id="Path_1231" data-name="Path 1231" d="M1502.356,443.582v1.605H1493.2v-1.605Z" transform="translate(-116.316 -106.528)" fill-rule="evenodd"/>
    <path id="Path_1232" data-name="Path 1232" d="M1518.682,394.561h5.438v1.615h-5.438Z" transform="translate(-139.944 -61.076)" fill-rule="evenodd"/>
    <path id="Path_1233" data-name="Path 1233" d="M1642.935,606.6v-4.145h1.6V606.6Z" transform="translate(-255.151 -253.838)" fill-rule="evenodd"/>
    <path id="Path_1234" data-name="Path 1234" d="M1643.584,564.787a.834.834,0,0,1,.81.851.817.817,0,1,1-1.632-.077A.814.814,0,0,1,1643.584,564.787Z" transform="translate(-254.991 -218.909)" fill-rule="evenodd"/>
  </g>
</svg>
