<svg xmlns="http://www.w3.org/2000/svg" viewBox="0 0 33.001 28.991">
  <g id="calendar_2_" transform="translate(0 480.792)">
    <path id="Path_981" data-name="Path 981" d="M9.275-480.69a3.064,3.064,0,0,0-2.159,2.172,14.283,14.283,0,0,0-.09,2.4v2.082H0v3.352H33v-3.352H26.04v-2a21.71,21.71,0,0,0-.071-2.333,3.052,3.052,0,0,0-3.423-2.385,3.048,3.048,0,0,0-2.43,2.056,7.812,7.812,0,0,0-.135,2.533v2.127h-6.89l-.019-2.211c-.019-2.133-.026-2.217-.174-2.578a3.277,3.277,0,0,0-1.876-1.811A3.352,3.352,0,0,0,9.275-480.69Zm1.147,1.889a1.268,1.268,0,0,1,.367.238c.348.329.361.419.361,2.559v1.966H8.959v-4.016l.161-.271A1.094,1.094,0,0,1,10.422-478.8Zm12.91-.006a1.245,1.245,0,0,1,.7.664A15.954,15.954,0,0,1,24.106-476v1.959h-2.2l.019-2.082c.019-2.03.019-2.082.161-2.275a1.362,1.362,0,0,1,.857-.477A1.929,1.929,0,0,1,23.333-478.807Z" fill="currentColor"/>
    <path id="Path_982" data-name="Path 982" d="M0-285.524v8.476l11.75-.013,11.744-.019.58-.18a5.993,5.993,0,0,0,2.784-1.792,5.367,5.367,0,0,0,.483-.8l.213-.451.019-1.727.019-1.721H33V-294H0Zm17.467-.1v6.13l-.947-.019-.954-.019-.019-5.143-.013-5.137h-1.16v-1.934h3.094Zm-11.6,5.092v.967H2.32v-.922a5.519,5.519,0,0,1,.045-.967c.019-.026.819-.045,1.773-.045H5.865Z" transform="translate(0 -174.753)" fill="currentColor"/>
    <path id="Path_983" data-name="Path 983" d="M438.541-104.085a5.645,5.645,0,0,1-1.1,3.39c-.335.451-.329.458.342.3a6.435,6.435,0,0,0,1.895-.889,6.088,6.088,0,0,0,1.882-2.256,7.076,7.076,0,0,0,.419-1.373c0-.064-.367-.084-1.7-.084h-1.7Z" transform="translate(-409.04 -351.571)" fill="currentColor"/>
  </g>
</svg>
