<svg xmlns="http://www.w3.org/2000/svg" viewBox="0 0 28.736 30.544">
  <g id="calendar" transform="translate(-128.5 389.519)">
    <path id="Path_170" data-name="Path 170" d="M135.437-389.416c-.594.258-.717.549-.717,1.7v1.031l-1.423.045a6.123,6.123,0,0,0-2.085.3,5,5,0,0,0-2.387,2.275l-.325.706v21.069l.3.639a4.719,4.719,0,0,0,3.205,2.544c.829.168,20.733.168,21.562,0a4.566,4.566,0,0,0,3.575-3.889c.123-1.009.123-18.828-.011-19.724a4.719,4.719,0,0,0-2.185-3.328,5.755,5.755,0,0,0-2.936-.616h-1.154V-387.7c0-1.177-.123-1.457-.74-1.715a1.1,1.1,0,0,0-1.334.314c-.258.3-.28.426-.28,1.39v1.053H137.073v-1.065c0-1.009-.022-1.076-.3-1.39A1.136,1.136,0,0,0,135.437-389.416Zm-.717,6.119a4.508,4.508,0,0,0,.134,1.289,1.211,1.211,0,0,0,1.659.448c.482-.247.56-.482.56-1.67v-1.076H148.5v1.076c0,1.188.078,1.423.56,1.67a1.284,1.284,0,0,0,1.177.034c.471-.213.616-.628.616-1.782v-1.031l1.177.056a2.685,2.685,0,0,1,1.692.381,2.218,2.218,0,0,1,.8.818l.258.493v9.705c0,9.212-.011,9.728-.213,10.154a2.355,2.355,0,0,1-1.166,1.166c-.437.168-20.789.168-21.226,0a2.354,2.354,0,0,1-1.166-1.166c-.2-.426-.213-.941-.213-10.131,0-9.649,0-9.694.235-10.187a2.37,2.37,0,0,1,1.468-1.143,9.5,9.5,0,0,1,1.3-.1l.919-.011Z" fill="currentColor"/>
    <path id="Path_171" data-name="Path 171" d="M184.917-276.544a1.814,1.814,0,0,0-.773,2.342,1.755,1.755,0,0,0,3.328-.762,2.242,2.242,0,0,0-.179-.874A1.788,1.788,0,0,0,184.917-276.544Z" transform="translate(-49.256 -100.141)" fill="currentColor"/>
    <path id="Path_172" data-name="Path 172" d="M241.35-276.933a1.791,1.791,0,0,0-.639,2.835,1.755,1.755,0,0,0,2.622,0A1.78,1.78,0,0,0,241.35-276.933Z" transform="translate(-99.234 -99.853)" fill="currentColor"/>
    <path id="Path_173" data-name="Path 173" d="M297.943-276.932a1.763,1.763,0,0,0-1.143,1.726,1.625,1.625,0,0,0,.986,1.558,1.749,1.749,0,0,0,2.264-2.477A1.907,1.907,0,0,0,297.943-276.932Z" transform="translate(-149.439 -99.898)" fill="currentColor"/>
    <path id="Path_174" data-name="Path 174" d="M185.322-220.57a2.143,2.143,0,0,0-1.132,1,1.761,1.761,0,0,0,1.771,2.488,1.668,1.668,0,0,0,1.569-1.76,1.651,1.651,0,0,0-.751-1.468A2.338,2.338,0,0,0,185.322-220.57Z" transform="translate(-49.313 -149.985)" fill="currentColor"/>
    <path id="Path_175" data-name="Path 175" d="M241.368-220.4a1.727,1.727,0,0,0-.628,2.869,1.777,1.777,0,0,0,2.936-.65A1.778,1.778,0,0,0,241.368-220.4Z" transform="translate(-99.195 -150.063)" fill="currentColor"/>
    <path id="Path_176" data-name="Path 176" d="M297.874-220.608a1.805,1.805,0,0,0-.538,3.183,1.892,1.892,0,0,0,1.86.078,1.852,1.852,0,0,0,.751-2.353A1.885,1.885,0,0,0,297.874-220.608Z" transform="translate(-149.257 -149.924)" fill="currentColor"/>
  </g>
</svg>
