<svg xmlns="http://www.w3.org/2000/svg" viewBox="0 0 65.907 65.874">
  <g id="Group_3283" data-name="Group 3283" transform="translate(-1266.078 -333.651)">
    <path id="Path_10295" data-name="Path 10295" d="M1266.178,409.127c.2-1.046.342-2.106.607-3.135a18.916,18.916,0,1,1-.459,7.153c-.04-.314-.1-.625-.148-.937Zm18.5-15.492a17,17,0,1,0,17.422,16.344A16.982,16.982,0,0,0,1284.679,393.635Z" transform="translate(0 -48.04)" fill="currentColor" stroke="currentColor" stroke-width="0.2" fill-rule="evenodd"/>
    <path id="Path_10296" data-name="Path 10296" d="M1518.91,450.579c-.129.646-.238,1.3-.389,1.938a13.539,13.539,0,0,1-26.54-1.1,12.751,12.751,0,0,1,.2-5.09,1.276,1.276,0,0,1,.53-.805,1.212,1.212,0,0,1,1.046.053,1.289,1.289,0,0,1,.406,1.032,14.934,14.934,0,0,0-.171,4.272,11.518,11.518,0,1,0,15.393-12.373c-.221-.08-.448-.146-.663-.239a1.014,1.014,0,0,1,.613-1.932,3.733,3.733,0,0,1,.611.19,13.355,13.355,0,0,1,8.849,11.007,2.309,2.309,0,0,0,.115.354Z" transform="translate(-187.025 -85.002)" fill="currentColor" stroke="currentColor" stroke-width="0.2" fill-rule="evenodd"/>
    <path id="Path_10297" data-name="Path 10297" d="M1454.293,333.751c.99.247,2.006.417,2.964.755a12.324,12.324,0,0,1-2.316,23.782,12.134,12.134,0,0,1-4.4-.115,1.014,1.014,0,1,1,.393-1.986,11.469,11.469,0,0,0,4.643-.093,10.258,10.258,0,1,0-12.488-12.166c-.033.146-.062.293-.1.436a1.038,1.038,0,0,1-1.262.8.989.989,0,0,1-.729-1.242,19.916,19.916,0,0,1,1.286-3.665,11.93,11.93,0,0,1,9.211-6.4,2.522,2.522,0,0,0,.36-.109Z" transform="translate(-144.866 0)" fill="currentColor" stroke="currentColor" stroke-width="0.2" fill-rule="evenodd"/>
    <path id="Path_10298" data-name="Path 10298" d="M1435.027,621.431a15.369,15.369,0,0,1-15.211-13.754,21.426,21.426,0,0,1-.033-2.627c.016-.759.442-1.193,1.069-1.165s1.018.5.969,1.256a13.261,13.261,0,0,0,26.348,2.9,13.585,13.585,0,0,0-.2-4.906c-.185-.827.082-1.37.738-1.512.605-.131,1.064.259,1.249,1.063a15.285,15.285,0,0,1-12.7,18.539C1436.52,621.325,1435.771,621.362,1435.027,621.431Z" transform="translate(-127.299 -222.006)" fill="currentColor" stroke="currentColor" stroke-width="0.2" fill-rule="evenodd"/>
    <path id="Path_10299" data-name="Path 10299" d="M1532.2,476.447c-.427-2.145.135-3.744,1.634-4.745a4.2,4.2,0,0,1,4.6,0c1.5,1,2.064,2.605,1.638,4.727a4.128,4.128,0,0,1,3.262,4.238,3.8,3.8,0,0,1-2.389,3.579,12.734,12.734,0,0,0-9.732-.052,3.831,3.831,0,0,1-2.272-3.846A4.083,4.083,0,0,1,1532.2,476.447Zm3.885.764a2.078,2.078,0,0,0,2.141-2.006,2.1,2.1,0,0,0-2.026-2.133,2.071,2.071,0,1,0-.115,4.14Zm-3.071,5.37a2.065,2.065,0,1,0,.024-4.13,2.065,2.065,0,1,0-.024,4.13Zm6.222-.015a2.059,2.059,0,0,0,.014-4.118,2.059,2.059,0,1,0-.014,4.118Z" transform="translate(-217.783 -113.774)" fill="currentColor" stroke="currentColor" stroke-width="0.2" fill-rule="evenodd"/>
    <path id="Path_10300" data-name="Path 10300" d="M1482.353,579.865c.187.176.6.4.754.733,1.523,3.412,3,6.843,4.5,10.268a1.237,1.237,0,0,1-.149,1.269c-1.462,2.159-2.913,4.326-4.382,6.479a1.04,1.04,0,0,1-1.906-.025c-1.455-2.138-2.893-4.288-4.347-6.426a1.361,1.361,0,0,1-.117-1.441q2.207-5.012,4.376-10.041A1.3,1.3,0,0,1,1482.353,579.865Zm-3.441,10.912c.875.3,1.7.585,2.519.86.241.081.522.241.731.18,1.051-.308,2.084-.678,3.157-1.037l-3.207-7.355Zm1.211,2.635,1.991,2.947,1.989-2.952a8.05,8.05,0,0,1-1.963.517A8.689,8.689,0,0,1,1480.123,593.412Z" transform="translate(-174.37 -203.996)" fill="currentColor" stroke="currentColor" stroke-width="0.2" fill-rule="evenodd"/>
    <path id="Path_10301" data-name="Path 10301" d="M1489.26,359.631c0-.549-.014-1.081,0-1.611a1,1,0,0,1,.974-1.055A1.009,1.009,0,0,1,1491.3,358c.026.53.005,1.063.005,1.588a9.753,9.753,0,0,1,1.387.352,3.228,3.228,0,0,1,2.076,2.843,1.031,1.031,0,0,1-.9,1.248c-.616.062-1.031-.311-1.139-1.025a1.3,1.3,0,0,0-1.4-1.276q-1.057-.023-2.116,0a1.275,1.275,0,0,0-1.377,1.286,1.253,1.253,0,0,0,1.365,1.285c.705.016,1.411,0,2.116.007a3.363,3.363,0,0,1,3.466,3.161,3.33,3.33,0,0,1-3.155,3.514c-.082.009-.162.028-.318.056,0,.514.011,1.021,0,1.527a1.057,1.057,0,0,1-1.026,1.156,1.039,1.039,0,0,1-1.022-1.147c-.007-.256,0-.513,0-.769v-.776c-.225-.026-.429-.046-.632-.072a3.319,3.319,0,0,1-2.841-3.221,1.023,1.023,0,0,1,.934-1.1,1.048,1.048,0,0,1,1.091.883c.285,1.243.5,1.413,1.777,1.414.62,0,1.24.014,1.859-.007a1.252,1.252,0,0,0,1.286-1.238,1.27,1.27,0,0,0-1.221-1.315c-.724-.048-1.452-.018-2.179-.021a3.342,3.342,0,0,1-.429-6.671C1489,359.67,1489.106,359.654,1489.26,359.631Z" transform="translate(-182.022 -19.241)" fill="currentColor" stroke="currentColor" stroke-width="0.2" fill-rule="evenodd"/>
    <path id="Path_10302" data-name="Path 10302" d="M1349.273,453.879h-2.138c0,.552.013,1.08,0,1.607a1,1,0,0,1-1,1.093,1.009,1.009,0,0,1-1.04-1.066c-.027-.528-.006-1.059-.006-1.663-.72,0-1.377.009-2.034,0-.846-.015-1.222-.379-1.222-1.213q-.007-8.148,0-16.3c0-.832.376-1.187,1.23-1.2.62-.011,1.24-.011,1.86-.016a1.146,1.146,0,0,0,.166-.06c0-.416-.01-.875,0-1.334.021-.767.406-1.2,1.04-1.2s.995.432,1.008,1.215c.008.443,0,.887,0,1.36h2.133c0-.491-.009-.974,0-1.457a1,1,0,0,1,.974-1.117,1.018,1.018,0,0,1,1.071,1.1c.02.531,0,1.064,0,1.582a5.275,5.275,0,0,1,1.945,9.365,2.132,2.132,0,0,1,.463.251,5.169,5.169,0,0,1-1.911,8.749c-.418.139-.529.325-.5.721a9.709,9.709,0,0,1,0,1.219,1.014,1.014,0,0,1-1.043,1.063,1,1,0,0,1-1-1.091C1349.262,454.977,1349.273,454.466,1349.273,453.879Zm-5.369-10.412h.612c1.839,0,3.678,0,5.517,0a3.145,3.145,0,1,0,.022-6.276c-1.86-.008-3.721,0-5.581,0-.185,0-.369.023-.571.036Zm.016,8.3c.156.012.28.029.4.029,1.944,0,3.887.016,5.831,0a3.137,3.137,0,1,0-.042-6.27c-1.751-.009-3.5,0-5.254,0h-.938Z" transform="translate(-62.703 -81.873)" fill="currentColor" stroke="currentColor" stroke-width="0.2" fill-rule="evenodd"/>
  </g>
</svg>
