<svg xmlns="http://www.w3.org/2000/svg" viewBox="0 0 34.801 34.818">
  <g id="clock" transform="translate(-0.6 511.646)">
    <path id="Path_979" data-name="Path 979" d="M16.774-511.629c-.129.014-.531.061-.886.1a17.441,17.441,0,0,0-6.745,2.289,17.655,17.655,0,0,0-6.159,6.159,17.624,17.624,0,0,0-2.3,6.745,27.321,27.321,0,0,0,0,4.224,17.4,17.4,0,0,0,5.587,10.771,17.033,17.033,0,0,0,6.282,3.672,15.736,15.736,0,0,0,5.45.845,14.885,14.885,0,0,0,3.611-.341,17.5,17.5,0,0,0,11.4-8.2,17.623,17.623,0,0,0,2.3-6.745,27.321,27.321,0,0,0,0-4.224,17.624,17.624,0,0,0-2.3-6.745,17.655,17.655,0,0,0-6.159-6.159,17.642,17.642,0,0,0-6.677-2.289A31.088,31.088,0,0,0,16.774-511.629Zm3.27,3.543a14.08,14.08,0,0,1,6.493,2.766,17.418,17.418,0,0,1,2.555,2.555,13.736,13.736,0,0,1,2.9,8.537,13.123,13.123,0,0,1-.838,4.8,13.689,13.689,0,0,1-3.27,5.089,13.952,13.952,0,0,1-7.876,3.986,17.243,17.243,0,0,1-4.02,0,14.218,14.218,0,0,1-6.527-2.78,17.419,17.419,0,0,1-2.555-2.555,14.218,14.218,0,0,1-2.78-6.527,17.244,17.244,0,0,1,0-4.02,14.29,14.29,0,0,1,2.78-6.527,17.418,17.418,0,0,1,2.555-2.555A13.986,13.986,0,0,1,20.044-508.086Z" fill="currentColor"/>
    <path id="Path_980" data-name="Path 980" d="M94.088-430.346c0,.749-.1,1.029-.436,1.274a1.21,1.21,0,0,1-1.179.007c-.327-.238-.429-.531-.429-1.247v-.64l-.47.048a10.813,10.813,0,0,0-3.652,1.138,11.067,11.067,0,0,0-2.991,2.105,11.754,11.754,0,0,0-3.543,6.861l-.089.634h.64c.729,0,1,.089,1.26.4a.96.96,0,0,1,.129,1.063c-.211.477-.443.586-1.281.586a2.921,2.921,0,0,0-.722.048,3.07,3.07,0,0,0,.055.668,11.888,11.888,0,0,0,6.472,8.986,11.2,11.2,0,0,0,3.679,1.165c.225.027.463.061.525.075.109.034.123-.034.123-.756,0-.838.055-1.029.354-1.308a1.036,1.036,0,0,1,1.594.334,2.687,2.687,0,0,1,.1.974c0,.722.014.79.123.756.061-.014.313-.055.552-.075a12.637,12.637,0,0,0,2.684-.715,11.539,11.539,0,0,0,3.849-2.487,11.891,11.891,0,0,0,3.659-7.413l.041-.388h-.811c-.729,0-.831-.014-1.042-.157a1.138,1.138,0,0,1-.443-1.022,1.157,1.157,0,0,1,.634-.77,2.925,2.925,0,0,1,.913-.1h.695l-.048-.429a12.19,12.19,0,0,0-2.562-5.873,11.974,11.974,0,0,0-7.6-4.292c-.375-.055-.7-.1-.729-.1A1.889,1.889,0,0,0,94.088-430.346ZM87.6-426.027c.1.041,1.41,1.294,2.9,2.78l2.712,2.7,1.41-1.41c1.519-1.519,1.73-1.669,2.214-1.587a1.172,1.172,0,0,1,.838.838c.082.511-.068.715-2.085,2.718-1.6,1.587-1.9,1.853-2.119,1.894-.627.116-.5.218-3.931-3.188-1.8-1.8-3.2-3.243-3.25-3.366A1.025,1.025,0,0,1,87.6-426.027Z" transform="translate(-75.202 -75.151)" fill="currentColor"/>
  </g>
</svg>
