<svg xmlns="http://www.w3.org/2000/svg" viewBox="0 0 20.88 20.878">
  <g id="Group_3797" data-name="Group 3797" transform="translate(-709.331 -69.002)">
    <path id="Path_13019" data-name="Path 13019" d="M719.775,69a10.439,10.439,0,1,1-10.443,10.371A10.454,10.454,0,0,1,719.775,69Zm-.01,11.922c.082.077.144.134.2.194q1.43,1.427,2.86,2.854a.576.576,0,0,0,.951,0c.165-.162.328-.327.492-.491.37-.371.371-.637,0-1.006l-2.835-2.842c-.059-.059-.113-.122-.2-.22.091-.074.176-.133.248-.2q1.419-1.42,2.835-2.843a.566.566,0,0,0,0-.915c-.161-.166-.326-.329-.491-.492-.4-.4-.647-.4-1.042-.007q-1.3,1.3-2.6,2.6c-.132.132-.26.269-.4.413-.09-.085-.159-.147-.225-.212q-1.422-1.416-2.844-2.833a.583.583,0,0,0-.969.005q-.247.244-.492.491c-.36.363-.361.627,0,.987q1.418,1.42,2.841,2.836a1,1,0,0,0,.252.134c-.109.119-.136.152-.167.182q-1.48,1.486-2.96,2.972a.56.56,0,0,0-.008.9c.161.166.328.328.491.492.418.421.655.421,1.078,0Z" transform="translate(0)" fill="currentColor" fill-rule="evenodd"/>
  </g>
</svg>
