<svg xmlns="http://www.w3.org/2000/svg" viewBox="0 0 27.651 27.663">
  <g id="coin-stack" transform="translate(-0.05 511.659)">
    <path id="Path_187" data-name="Path 187" d="M8.321-511.624c-4.477.416-7.57,1.844-8.165,3.774a2.849,2.849,0,0,0,0,1.536c.573,1.866,3.466,3.255,7.76,3.731a39.87,39.87,0,0,0,5.272-.027c3.672-.454,6.219-1.53,7.2-3.034a2.642,2.642,0,0,0,0-2.877c-.979-1.5-3.472-2.558-7.122-3.028A46.982,46.982,0,0,0,8.321-511.624Zm3.9,1.19a14.21,14.21,0,0,1,6.219,1.7,3.654,3.654,0,0,1,1.027,1.044,1.524,1.524,0,0,1,0,1.249c-1.152,2.2-7.441,3.418-12.875,2.493-2.628-.449-4.645-1.417-5.191-2.487-.579-1.13.5-2.336,2.8-3.131a18.14,18.14,0,0,1,4.694-.881C9.424-510.494,11.56-510.483,12.219-510.434Z" transform="translate(0 0)" fill="currentColor"/>
    <path id="Path_188" data-name="Path 188" d="M48.589-469.74a14.072,14.072,0,0,0-5.689,1.3,1.706,1.706,0,0,0-.725.833c-.211,1.119,2.2,2.093,5.943,2.4a40.59,40.59,0,0,0,4.293,0c3.839-.314,6.262-1.33,5.916-2.477a2.224,2.224,0,0,0-1.109-.979C55.456-469.5,51.952-469.94,48.589-469.74Z" transform="translate(-39.836 -39.607)" fill="currentColor"/>
    <path id="Path_189" data-name="Path 189" d="M.376-398.7l.005,2.087.233.47c.573,1.152,1.985,2.071,4.158,2.7a21.24,21.24,0,0,0,4.234.708l.568.032.3-.53a9.278,9.278,0,0,1,1.73-2.19l.746-.741H10.883a21.186,21.186,0,0,1-5.5-.6C2.415-397.5.6-398.838.409-400.406A8.217,8.217,0,0,0,.376-398.7Z" transform="translate(-0.307 -105.189)" fill="currentColor"/>
    <path id="Path_190" data-name="Path 190" d="M178.809-341.824a9.272,9.272,0,0,0-4.7,1.709,11.154,11.154,0,0,0-2.022,1.985,9.259,9.259,0,0,0,3.412,13.875,8.123,8.123,0,0,0,3.747.876,7.34,7.34,0,0,0,1.774-.087,9.443,9.443,0,0,0,3.661-1.449,10.2,10.2,0,0,0,2.5-2.5,9.776,9.776,0,0,0,1.4-3.326,6.972,6.972,0,0,0,.119-1.839,7.146,7.146,0,0,0-.119-1.849,9.3,9.3,0,0,0-6.905-7.159A10.471,10.471,0,0,0,178.809-341.824Zm1.784,1.271a8.045,8.045,0,0,1,6.559,5.51,6.329,6.329,0,0,1,.357,2.46,6.4,6.4,0,0,1-.119,1.579,8.08,8.08,0,0,1-2.114,3.985,8.2,8.2,0,0,1-3.158,2.028,6.639,6.639,0,0,1-2.606.406,6.329,6.329,0,0,1-2.46-.357,8.067,8.067,0,0,1-5.516-6.527,10.385,10.385,0,0,1,.027-2.423,8.638,8.638,0,0,1,1.341-3.288,9.436,9.436,0,0,1,2.012-2.006A7.923,7.923,0,0,1,180.594-340.553Z" transform="translate(-160.999 -160.628)" fill="currentColor"/>
    <path id="Path_191" data-name="Path 191" d="M218.959-298.829A6.9,6.9,0,0,0,213.3-293.6a8.055,8.055,0,0,0-.108,2.72,7.371,7.371,0,0,0,1.13,2.839,8.968,8.968,0,0,0,2,1.941,6.958,6.958,0,0,0,8.636-.963,7.043,7.043,0,0,0,1.952-3.737,8.555,8.555,0,0,0-.054-2.6,6.82,6.82,0,0,0-1.99-3.574,6.815,6.815,0,0,0-4.883-1.936A8.555,8.555,0,0,0,218.959-298.829Zm2.217,1.676v.568H223.5v2.271h-4.6v1.19H220c.6,0,1.265.027,1.471.054a2.311,2.311,0,0,1,1.968,1.828,7.728,7.728,0,0,1-.022,2.093,2.42,2.42,0,0,1-1.027,1.422,2.517,2.517,0,0,1-1.033.335h-.184v1.19H218.9v-1.19h-2.271v-2.271h4.6v-1.19h-1.319a5.224,5.224,0,0,1-1.665-.108,2.342,2.342,0,0,1-1.465-1.352c-.108-.276-.119-.384-.119-1.406v-1.109l.168-.357a2.323,2.323,0,0,1,1.357-1.244,2.1,2.1,0,0,1,.514-.1h.205v-1.19h2.271Z" transform="translate(-201.554 -201.25)" fill="currentColor"/>
    <path id="Path_192" data-name="Path 192" d="M.075-313.61a7.752,7.752,0,0,0,.1,2.3c.546,1.768,3.255,3.136,7.208,3.645.86.108.795.124.795-.184a11.907,11.907,0,0,1,.508-2.812c.135-.368.216-.33-.86-.438a15.461,15.461,0,0,1-5.245-1.379,3.861,3.861,0,0,1-2.46-2.774A10.993,10.993,0,0,0,.075-313.61Z" transform="translate(-0.023 -185.76)" fill="currentColor"/>
    <path id="Path_193" data-name="Path 193" d="M.075-228.355a7.885,7.885,0,0,0,.1,2.325c.573,1.855,3.547,3.282,7.668,3.693,1.136.114,1.363.124,1.363.054a2.886,2.886,0,0,0-.184-.465,10.942,10.942,0,0,1-.762-2.747l-.038-.3-.93-.124a18.185,18.185,0,0,1-3.3-.735C1.638-227.435.3-228.6.124-230.009A10.7,10.7,0,0,0,.075-228.355Z" transform="translate(-0.023 -266.393)" fill="currentColor"/>
  </g>
</svg>
