<svg xmlns="http://www.w3.org/2000/svg" xmlns:xlink="http://www.w3.org/1999/xlink" width="300" height="300" viewBox="0 0 300 300">
  <defs>
    <linearGradient id="linear-gradient" x1="0.44" y1="0.952" x2="0.631" y2="0.083" gradientUnits="objectBoundingBox">
      <stop offset="0" stop-color="#27d3a2"/>
      <stop offset="1" stop-color="#9388fd"/>
    </linearGradient>
    <clipPath id="clip-Compound_USD_Coin">
      <rect width="300" height="300"/>
    </clipPath>
  </defs>
  <g id="Compound_USD_Coin" data-name="Compound USD Coin" clip-path="url(#clip-Compound_USD_Coin)">
    <rect width="300" height="300" fill="rgba(255,255,255,0)"/>
    <g id="compound-usd-coin-cusdc-logo" transform="translate(6.656 6.642)">
      <g id="Group_1" data-name="Group 1" transform="translate(0.172 0.18)">
        <circle id="Ellipse_1" data-name="Ellipse 1" cx="144.07" cy="144.07" r="144.07" transform="translate(0.031 0.136)" fill="#edf0f2"/>
        <path id="Path_1" data-name="Path 1" d="M235.74,255.564a142.625,142.625,0,0,1-77.273,31.991A144.04,144.04,0,1,1,235.515,32.869L206.453,68.352A98.322,98.322,0,0,0,97.865,57.763a98.149,98.149,0,1,0,108.7,162.319Z" transform="translate(-0.172 -0.18)" fill="url(#linear-gradient)"/>
        <path id="Path_2" data-name="Path 2" d="M141.712,259.311A117.656,117.656,0,1,0,24,141.712,117.612,117.612,0,0,0,141.712,259.311Z" transform="translate(2.84 2.832)" fill="#fff"/>
      </g>
      <g id="Group_2" data-name="Group 2" transform="translate(87.051 89.597)">
        <path id="Path_3" data-name="Path 3" d="M150.7,142.287c0-11.039-6.759-14.756-19.938-16.446-9.687-1.352-11.6-3.6-11.6-8.11s3.267-7.209,9.575-7.209c5.745,0,9.011,1.915,10.363,6.533a2.362,2.362,0,0,0,.9,1.239,2.264,2.264,0,0,0,1.464.451h5.069a2.122,2.122,0,0,0,.9-.225,2.02,2.02,0,0,0,.788-.563,2.823,2.823,0,0,0,.451-.788,1.563,1.563,0,0,0,0-1.014c-1.577-7.209-6.533-11.49-14.193-12.841V95.766a2.31,2.31,0,0,0-2.366-2.366h-4.844a2.31,2.31,0,0,0-2.365,2.366v7.322c-9.575,1.352-15.657,7.547-15.657,15.545,0,10.363,6.421,14.306,19.713,16.108,9.124,1.464,11.715,3.379,11.715,8.448s-4.393,8.448-10.588,8.448c-8.336,0-11.152-3.6-12.165-8.223a2.7,2.7,0,0,0-.788-1.352,2.652,2.652,0,0,0-1.464-.563h-5.52a2.122,2.122,0,0,0-.9.225,2.021,2.021,0,0,0-.788.563,2.823,2.823,0,0,0-.451.788,1.234,1.234,0,0,0,0,.9c1.352,7.885,6.533,13.63,17.009,14.982v7.434a2.31,2.31,0,0,0,2.366,2.366h4.844a2.31,2.31,0,0,0,2.366-2.366v-7.434C144.393,157.381,150.7,150.735,150.7,142.287Z" transform="translate(-73.428 -77.811)" fill="#283947"/>
        <path id="Path_4" data-name="Path 4" d="M118.189,177.83A47.7,47.7,0,0,1,95.548,160.6a46.349,46.349,0,0,1-8.561-26.922,47.17,47.17,0,0,1,8.561-26.922,47.7,47.7,0,0,1,22.641-17.234,3.114,3.114,0,0,0,1.464-1.239,3.4,3.4,0,0,0,.563-1.8V82.083a2.031,2.031,0,0,0-.225-1.126,2,2,0,0,0-.788-.9,3.373,3.373,0,0,0-1.126-.451,1.31,1.31,0,0,0-1.126.225,57.208,57.208,0,0,0-28.724,20.5,56.336,56.336,0,0,0,0,66.685,56.921,56.921,0,0,0,28.724,20.5,4,4,0,0,0,1.126.225,2.379,2.379,0,0,0,1.126-.451,3.036,3.036,0,0,0,.788-.9,4,4,0,0,0,.225-1.126v-4.393a3.4,3.4,0,0,0-.563-1.8,2.664,2.664,0,0,0-1.464-1.239Z" transform="translate(-77.3 -79.561)" fill="#657786"/>
        <path id="Path_5" data-name="Path 5" d="M142.967,79.925a4,4,0,0,0-1.126-.225,2.379,2.379,0,0,0-1.126.451,3.036,3.036,0,0,0-.788.9,4,4,0,0,0-.225,1.126v4.393a3.4,3.4,0,0,0,.563,1.8,3.922,3.922,0,0,0,1.464,1.239,47.7,47.7,0,0,1,22.641,17.234,46.349,46.349,0,0,1,8.561,26.922,47.17,47.17,0,0,1-8.561,26.922,47.7,47.7,0,0,1-22.641,17.234,3.66,3.66,0,0,0-1.464,1.126,3.4,3.4,0,0,0-.563,1.8v4.393a2.031,2.031,0,0,0,.225,1.126,2,2,0,0,0,.788.9,3.373,3.373,0,0,0,1.126.451,2.031,2.031,0,0,0,1.126-.225A57.208,57.208,0,0,0,171.691,167a56.336,56.336,0,0,0,0-66.685,57.678,57.678,0,0,0-28.724-20.388Z" transform="translate(-69.411 -79.543)" fill="#657786"/>
      </g>
    </g>
  </g>
</svg>
