<svg xmlns="http://www.w3.org/2000/svg" viewBox="0 0 44.714 44.714">
  <g id="Group_3670" data-name="Group 3670" transform="translate(-763.75 61.846)">
    <path id="Path_12793" data-name="Path 12793" d="M782.09-17.132h-6.812a1.2,1.2,0,0,0-.156-.074,2.215,2.215,0,0,1-1.68-2.264c0-.96-.009-1.921,0-2.881a2.177,2.177,0,0,1,2.17-2.215c2.023-.023,4.045-.016,6.068,0a2.06,2.06,0,0,1,1.881,1.139.583.583,0,0,0,.606.35q6.439-.012,12.879-.009a5.226,5.226,0,0,0,.912-.074,3.74,3.74,0,0,0,2.983-4.4c-.688,0-1.385.007-2.081,0a2.159,2.159,0,0,1-2.133-1.376,2.956,2.956,0,0,1-.184-1.106c-.013-3.813-.008-7.625-.006-11.438a4.448,4.448,0,0,1,.035-.566,2.188,2.188,0,0,1,2.075-1.894c.64-.021,1.281-.005,1.921-.01.123,0,.247-.018.39-.029-.01-.217-.007-.392-.028-.564a14.02,14.02,0,0,0-8.57-11.7,15.743,15.743,0,0,0-7.173-1.134,14.133,14.133,0,0,0-9.61,3.962c-.613.582-1.143,1.253-1.711,1.883l.079.118h.511q7.946,0,15.891,0a4.453,4.453,0,0,1,4.692,4.686c.007,4.832.018,9.663-.017,14.494a5.135,5.135,0,0,1-.42,2.066,4.348,4.348,0,0,1-4.276,2.6q-7.727,0-15.455.011a1.425,1.425,0,0,0-.787.262c-1.735,1.274-3.453,2.572-5.174,3.866-.312.235-.62.455-1.03.242-.389-.2-.4-.561-.4-.939.007-1.033-.008-2.067.009-3.1,0-.3-.078-.413-.381-.5a4.4,4.4,0,0,1-3.271-3.448c-.023-.1-.058-.192-.088-.288V-47.524a.472.472,0,0,0,.061-.114,4.411,4.411,0,0,1,4.416-3.763.674.674,0,0,0,.65-.436A18.372,18.372,0,0,1,781.14-61.33c1-.244,2.029-.347,3.045-.516h3.843c.617.085,1.237.15,1.85.259a18.382,18.382,0,0,1,12.829,8.629,17.692,17.692,0,0,1,2.712,8.544.609.609,0,0,0,.5.664,3.492,3.492,0,0,1,2.2,1.975c.143.312.232.649.345.975v10.043a.252.252,0,0,0-.046.073,3.755,3.755,0,0,1-2.72,3c-.1.03-.19.225-.2.351-.058.621-.026,1.256-.138,1.866a8.173,8.173,0,0,1-8.242,6.845q-4.144.006-8.288,0c-1.57,0-3.141,0-4.711.005-.145,0-.381.033-.418.119A2.658,2.658,0,0,1,782.09-17.132Zm-13.116-8.221c.209-.148.339-.235.464-.329,1.3-.977,2.615-1.944,3.9-2.94a2.016,2.016,0,0,1,1.319-.445q7.814.021,15.628.008a2.981,2.981,0,0,0,3.262-3.247q0-3.951,0-7.9c0-2.212-.006-4.424,0-6.635a2.969,2.969,0,0,0-1.1-2.412,3.2,3.2,0,0,0-2.158-.669q-10.892.009-21.784,0c-.116,0-.233,0-.349.006a2.956,2.956,0,0,0-2.921,3.02q-.013,7.4,0,14.8a2.952,2.952,0,0,0,2.78,3.022c.754.068.951.285.953,1.057C768.975-27.159,768.974-26.3,768.974-25.354Zm1.384-26.112a1.192,1.192,0,0,0,.19.044c.364,0,.729-.012,1.091.011a.629.629,0,0,0,.634-.338,15.425,15.425,0,0,1,7.548-6.086,18.329,18.329,0,0,1,9.673-.779,15.53,15.53,0,0,1,12.7,12.447c.135.723.213,1.456.316,2.176h1.487c-.082-.691-.12-1.346-.242-1.984a16.916,16.916,0,0,0-11.482-13.491,18.718,18.718,0,0,0-6.927-.894,17.129,17.129,0,0,0-12.632,5.606A15.456,15.456,0,0,0,770.358-51.465Zm32.188,9.012v13.382c.807,0,1.579.033,2.347-.008a2.153,2.153,0,0,0,2.071-2.132q.034-4.56,0-9.12a2.155,2.155,0,0,0-1.955-2.111C804.2-42.5,803.385-42.453,802.547-42.453ZM801-42.465c-.674,0-1.324,0-1.974,0-.758,0-.987.227-.989.989,0,1.454,0,2.909,0,4.363q0,3.513,0,7.025c0,.815.218,1.026,1.041,1.029.48,0,.961-.023,1.439.008.393.026.516-.091.514-.5-.016-4.145-.009-8.29-.01-12.435C801.018-42.131,801.006-42.273,801-42.465ZM783.9-21.6v1.465c.1.01.172.023.243.023,4.436,0,8.872.024,13.307-.014a6.379,6.379,0,0,0,4.87-2.276,6.788,6.788,0,0,0,1.664-5.129h-1.42a15.344,15.344,0,0,1-.181,1.762,5.2,5.2,0,0,1-5.208,4.167q-6.37.01-12.74,0Zm-5.259-1.489c-.959,0-1.918-.006-2.877,0a.739.739,0,0,0-.831.835c-.008.915-.006,1.831,0,2.746a.769.769,0,0,0,.884.881q2.833.007,5.666,0c.629,0,.888-.268.892-.911q.008-1.329,0-2.659c0-.646-.252-.891-.9-.894C780.527-23.09,779.583-23.086,778.638-23.086Z" fill="currentColor" fill-rule="evenodd"/>
    <path id="Path_12794" data-name="Path 12794" d="M807.8,123.708H818.58c.751,0,1.111.241,1.116.742s-.359.753-1.1.753H796.945a3.3,3.3,0,0,1-.392-.013.717.717,0,0,1-.691-.751.709.709,0,0,1,.68-.716,3.957,3.957,0,0,1,.479-.015Z" transform="translate(-28.372 -163.945)" fill="currentColor" fill-rule="evenodd"/>
    <path id="Path_12795" data-name="Path 12795" d="M803.647,86.763q-3.45,0-6.9,0c-.542,0-.837-.223-.884-.642a.721.721,0,0,1,.607-.823,2.593,2.593,0,0,1,.478-.023q6.724,0,13.449,0a2.333,2.333,0,0,1,.519.037.73.73,0,0,1-.11,1.442c-.144.014-.291.009-.436.009Z" transform="translate(-28.369 -129.986)" fill="currentColor" fill-rule="evenodd"/>
    <path id="Path_12796" data-name="Path 12796" d="M801.4,162.189h4.534a2.99,2.99,0,0,1,.435.016.73.73,0,0,1,.164,1.4,1.169,1.169,0,0,1-.425.073q-4.709.006-9.417,0a1.062,1.062,0,0,1-.463-.1.681.681,0,0,1-.379-.8.693.693,0,0,1,.754-.584q2.4,0,4.8,0Z" transform="translate(-28.342 -197.944)" fill="currentColor" fill-rule="evenodd"/>
    <path id="Path_12797" data-name="Path 12797" d="M946.335,86.75c-.828,0-1.657,0-2.485,0-.558,0-.88-.286-.874-.747s.339-.738.894-.74q2.442-.008,4.883,0c.577,0,.931.3.924.76s-.349.726-.944.729C947.934,86.752,947.135,86.75,946.335,86.75Z" transform="translate(-158.354 -129.973)" fill="currentColor" fill-rule="evenodd"/>
  </g>
</svg>
