<svg xmlns="http://www.w3.org/2000/svg" xmlns:xlink="http://www.w3.org/1999/xlink" width="300" height="300" viewBox="0 0 300 300">
  <defs>
    <clipPath id="clip-Cosmos_">
      <rect width="300" height="300"/>
    </clipPath>
  </defs>
  <g id="Cosmos_" data-name="Cosmos " clip-path="url(#clip-Cosmos_)">
    <rect width="300" height="300" fill="rgba(255,255,255,0)"/>
    <rect id="Rectangle_1" data-name="Rectangle 1" width="290" height="290" rx="20" transform="translate(5 5)" fill="#2e3148"/>
    <g id="cosmos-atom-logo" transform="translate(2.709 1.634)">
      <circle id="Ellipse_2" data-name="Ellipse 2" cx="86.731" cy="86.731" r="86.731" transform="translate(60.54 61.615)" fill="#1b1e36"/>
      <path id="Path_1" data-name="Path 1" d="M1037.448,159.47c-16.135,0-29.218,58.521-29.218,130.712s13.083,130.712,29.218,130.712,29.218-58.521,29.218-130.712S1053.582,159.47,1037.448,159.47Zm2.017,254.047c-1.845,2.461-3.69.615-3.69.615-7.431-8.61-11.146-24.6-11.146-24.6-13-41.827-9.9-131.634-9.9-131.634,6.108-71.3,17.219-88.14,21-91.879a2.307,2.307,0,0,1,2.958-.239c5.486,3.887,10.087,20.145,10.087,20.145,13.588,50.439,12.357,97.8,12.357,97.8,1.231,41.212-6.809,87.346-6.809,87.346C1048.132,406.129,1039.465,413.517,1039.465,413.517Z" transform="translate(-889.87 -141.527)" fill="#6f7390"/>
      <path id="Path_2" data-name="Path 2" d="M524.209,673.372c-8.033-14-65.3,3.776-127.948,39.7s-106.839,76.4-98.812,90.391,65.3-3.776,127.948-39.7,106.839-76.4,98.812-90.391ZM304.86,801.543c-3.076-.387-2.381-2.915-2.381-2.915,3.773-10.727,15.778-21.91,15.778-21.91,29.826-32.09,109.269-74.1,109.269-74.1,64.876-30.184,85.027-28.91,90.139-27.5a2.306,2.306,0,0,1,1.674,2.461c-.615,6.7-12.456,18.774-12.456,18.774-36.964,36.9-78.662,59.407-78.662,59.407-35.136,21.584-79.152,37.558-79.152,37.558-33.493,12.069-44.208,8.225-44.208,8.225h0Z" transform="translate(-263.253 -589.766)" fill="#6f7390"/>
      <path id="Path_3" data-name="Path 3" d="M525.932,800.827c8.1-13.963-35.985-54.622-98.413-90.816s-119.688-54.19-127.776-40.2,35.985,54.622,98.448,90.816S517.844,814.816,525.932,800.827ZM305.108,675.2c-1.2-2.835,1.328-3.518,1.328-3.518,11.176-2.111,26.874,2.7,26.874,2.7,42.707,9.725,118.86,57.427,118.86,57.427,58.633,41.028,67.625,59.1,68.973,64.23a2.307,2.307,0,0,1-1.279,2.682c-6.114,2.8-22.489-1.372-22.489-1.372-50.47-13.533-90.834-38.327-90.834-38.327-36.267-19.56-72.128-49.658-72.128-49.658-27.249-22.943-29.3-34.132-29.3-34.132Z" transform="translate(-265.26 -586.665)" fill="#6f7390"/>
      <circle id="Ellipse_3" data-name="Ellipse 3" cx="15.378" cy="15.378" r="15.378" transform="translate(131.893 132.968)" fill="#b7b9c8"/>
      <ellipse id="Ellipse_4" data-name="Ellipse 4" cx="8.919" cy="9.227" rx="8.919" ry="9.227" transform="translate(201.4 80.068)" fill="#b7b9c8"/>
      <ellipse id="Ellipse_5" data-name="Ellipse 5" cx="8.919" cy="9.227" rx="8.919" ry="9.227" transform="translate(55.003 111.44)" fill="#b7b9c8"/>
      <ellipse id="Ellipse_6" data-name="Ellipse 6" cx="8.919" cy="9.227" rx="8.919" ry="9.227" transform="translate(120.205 224.62)" fill="#b7b9c8"/>
    </g>
  </g>
</svg>
