<svg xmlns="http://www.w3.org/2000/svg" viewBox="0 0 28.707 28.287">
  <g id="Group_3256" data-name="Group 3256" transform="translate(-482.386 -45.831)">
    <path id="Path_2489" data-name="Path 2489" d="M491.676,71.685c-.2-.185-.4-.366-.59-.557q-3.448-3.445-6.892-6.892a2.709,2.709,0,0,1,0-4.131l12.857-12.857a2.765,2.765,0,0,1,4.173-.006q4.033,4.03,8.063,8.063a2.712,2.712,0,0,1,0,4.133l-12.039,12.04c-.078.078-.15.16-.27.289h.392q6.138,0,12.276,0a1,1,0,0,1,1.032,1.328.972.972,0,0,1-.864.666,2.76,2.76,0,0,1-.312,0H483.973a2.154,2.154,0,0,1-.435-.023,1,1,0,0,1,.208-1.973c.968-.008,1.937,0,2.905,0h4.989Zm-3.741-6.434a1.384,1.384,0,0,1,.271.173q2.732,2.723,5.458,5.453c.51.51.839.512,1.345.006l12.855-12.855c.5-.5.5-.817-.007-1.319l-5.478-5.478c-.078-.078-.16-.15-.219-.2Zm-1.448-1.584,14.177-14.178c-.255-.248-.549-.527-.837-.813-.546-.542-.838-.542-1.385.006L485.614,61.51a2.785,2.785,0,0,0-.194.2.65.65,0,0,0,0,.907C485.78,63,486.163,63.349,486.488,63.667Z" transform="translate(0)" fill="currentColor" stroke="#fff" stroke-width="0.7" fill-rule="evenodd"/>
    <path id="Path_2490" data-name="Path 2490" d="M615.588,243.715a1.168,1.168,0,0,1-.963-.647.969.969,0,0,1,.206-1.123c.642-.653,1.293-1.3,1.941-1.944.5-.5,1-1,1.5-1.5a1,1,0,1,1,1.417,1.4c-1.137,1.144-2.274,2.288-3.427,3.415A3.182,3.182,0,0,1,615.588,243.715Z" transform="translate(-120.806 -175.872)" fill="currentColor" stroke="#fff" stroke-width="0.7" fill-rule="evenodd"/>
  </g>
</svg>
