<svg xmlns="http://www.w3.org/2000/svg" viewBox="0 0 48.448 39.557">
  <g id="Group_4348" data-name="Group 4348" transform="translate(-608.801 -23.118)">
    <path id="Path_13357" data-name="Path 13357" d="M657.249,33.243v1.136a4.324,4.324,0,0,0-.091.455q-.353,3.765-.7,7.53-.456,4.894-.917,9.788c-.235,2.51-.5,5.017-.7,7.53a3.3,3.3,0,0,1-3.737,2.973c-3.133-.33-6.262-.7-9.393-1.051q-6.5-.736-13.006-1.475-7.3-.822-14.605-1.633a2.925,2.925,0,0,1-2.74-2.051,2.6,2.6,0,0,0-1.321-1.771,3.177,3.177,0,0,1-1.24-1.937V25.862c.8-2.18,1.617-2.744,3.986-2.744h31.272q2.484,0,4.968,0a3.254,3.254,0,0,1,2.736,1.339,3.5,3.5,0,0,1,.635,2.182c0,1.18,0,2.36,0,3.584.533.065,1.028.148,1.526.182a3.335,3.335,0,0,1,2.849,1.67A8.8,8.8,0,0,1,657.249,33.243Zm-46.836,2.006v.524q0,8.017,0,16.035c0,1.4.582,1.977,1.982,1.978h36.42c1.369,0,1.965-.589,1.965-1.952q0-8.041,0-16.082v-.5ZM612.794,55.4a1.6,1.6,0,0,0,1.534,1.479c1.189.144,2.38.266,3.571.4l9.631,1.084,9.63,1.09,8.925,1.009c1.738.2,3.475.4,5.215.586a1.621,1.621,0,0,0,1.9-1.523c.082-.736.145-1.475.214-2.212q.453-4.825.905-9.651.406-4.331.812-8.662c.166-1.773.341-3.546.5-5.32a1.536,1.536,0,0,0-1.155-1.722c-.662-.11-1.339-.132-2.07-.2v.648c0,6.45.009,12.9-.014,19.35a4.458,4.458,0,0,1-.338,1.784,3.2,3.2,0,0,1-3.221,1.866q-17.694-.016-35.388-.006Zm37.961-26.584h-40.3V33.59h40.3Zm-.016-1.679a1.866,1.866,0,0,0-2.056-2.423q-18.167.046-36.334.017a1.772,1.772,0,0,0-1.868,2.405Z" fill="currentColor" fill-rule="evenodd"/>
    <path id="Path_13358" data-name="Path 13358" d="M827.62,188.969q-3.072,0-6.144,0c-.857,0-1.1-.236-1.1-1.09q-.007-3.356,0-6.711c0-.819.264-1.079,1.075-1.08q6.191,0,12.383,0c.821,0,1.074.257,1.075,1.075q0,3.379,0,6.759c0,.794-.253,1.046-1.046,1.047Q830.74,188.971,827.62,188.969Zm-5.6-1.646h11.242V181.73H822.018Z" transform="translate(-186.553 -138.408)" fill="currentColor" fill-rule="evenodd"/>
    <path id="Path_13359" data-name="Path 13359" d="M642.165,181.694q-2.529,0-5.058,0a.857.857,0,0,1-.854-.384.8.8,0,0,1,.553-1.2,2.718,2.718,0,0,1,.517-.032q4.869,0,9.738,0c.11,0,.221,0,.331,0,.54.044.85.349.843.823s-.311.779-.87.782C645.632,181.7,643.9,181.694,642.165,181.694Z" transform="translate(-24.107 -138.403)" fill="currentColor" fill-rule="evenodd"/>
    <path id="Path_13360" data-name="Path 13360" d="M640.156,154.407c-1.009,0-2.018,0-3.027,0-.658,0-1-.29-1-.811.006-.5.347-.8.968-.8q3.074-.009,6.148,0c.628,0,.939.289.935.817s-.318.788-.954.791C642.206,154.411,641.181,154.407,640.156,154.407Z" transform="translate(-24.1 -114.342)" fill="currentColor" fill-rule="evenodd"/>
    <path id="Path_13361" data-name="Path 13361" d="M722.227,154.405c-1.041,0-2.081.005-3.121,0-.623,0-.939-.29-.932-.814.007-.5.315-.79.913-.792q3.1-.012,6.2,0c.609,0,.955.318.944.822s-.346.783-.973.786C724.245,154.409,723.236,154.405,722.227,154.405Z" transform="translate(-96.441 -114.341)" fill="currentColor" fill-rule="evenodd"/>
    <path id="Path_13362" data-name="Path 13362" d="M754.209,181.708c-.409,0-.818.015-1.225,0a.749.749,0,0,1-.779-.773.735.735,0,0,1,.7-.8c.862-.039,1.728-.041,2.59-.007a.746.746,0,0,1,.731.82.764.764,0,0,1-.8.76c-.031,0-.063,0-.094,0h-1.132Z" transform="translate(-126.449 -138.425)" fill="currentColor" fill-rule="evenodd"/>
  </g>
</svg>
