<?xml version="1.0" standalone="no"?>
<!DOCTYPE svg PUBLIC "-//W3C//DTD SVG 20010904//EN"
 "http://www.w3.org/TR/2001/REC-SVG-20010904/DTD/svg10.dtd">
<svg version="1.0" xmlns="http://www.w3.org/2000/svg" viewBox="0 0 1187.000000 293.000000" preserveAspectRatio="xMidYMid meet">
<metadata>
Created by potrace 1.16, written by Peter Selinger 2001-2019
</metadata>
<g transform="translate(0.000000,293.000000) scale(0.100000,-0.100000)"
fill="#000000" stroke="none">
<path d="M1170 2715 c-264 -42 -503 -161 -688 -344 l-77 -76 263 -3 c169 -1
278 2 304 9 56 15 118 81 255 272 l113 157 -43 -1 c-23 -1 -80 -7 -127 -14z"/>
<path d="M1455 2528 c-135 -188 -178 -232 -261 -270 -48 -22 -58 -23 -446 -26
l-398 -3 -53 -82 c-30 -45 -57 -90 -60 -99 -6 -17 18 -18 421 -18 l427 0 50
24 c28 13 65 39 83 58 18 19 122 158 231 309 203 280 207 287 151 288 -8 0
-73 -81 -145 -181z"/>
<path d="M1822 2578 c-21 -29 -104 -145 -185 -258 -169 -237 -211 -283 -287
-319 l-55 -26 -550 -5 -549 -5 -33 -95 c-17 -52 -32 -101 -33 -108 0 -10 102
-12 532 -10 583 3 570 2 660 64 49 34 67 58 358 463 212 297 230 326 214 338
-27 19 -30 17 -72 -39z"/>
<path d="M1935 2273 c-350 -494 -354 -498 -495 -546 -64 -21 -77 -22 -697 -25
-588 -3 -633 -4 -634 -20 0 -9 -4 -56 -7 -104 l-7 -88 580 0 c625 0 651 2 753
54 26 13 64 39 84 58 20 18 170 219 332 447 279 391 295 416 279 433 -9 10
-19 18 -22 18 -3 -1 -78 -103 -166 -227z"/>
<path d="M2074 1958 c-131 -183 -264 -358 -295 -389 -31 -31 -82 -69 -113 -84
l-55 -27 60 -30 c33 -17 81 -51 107 -77 26 -26 157 -199 291 -384 134 -185
247 -337 252 -337 21 0 136 166 189 275 208 421 159 951 -120 1308 -34 42 -65
77 -69 77 -5 0 -116 -150 -247 -332z"/>
<path d="M6111 2249 c-89 -15 -232 -67 -306 -111 -38 -23 -103 -75 -142 -115
-59 -60 -82 -93 -122 -176 -69 -142 -86 -227 -85 -407 2 -172 21 -260 85 -388
72 -144 211 -271 367 -336 232 -97 546 -98 784 -2 139 56 270 165 341 283 49
81 92 198 107 295 18 111 8 322 -20 418 -58 200 -193 366 -370 453 -146 72
-224 89 -420 93 -91 1 -189 -2 -219 -7z m344 -84 c220 -46 377 -200 446 -437
27 -93 38 -341 19 -456 -44 -276 -203 -464 -445 -527 -82 -22 -262 -21 -346 0
-210 54 -358 205 -419 428 -41 149 -43 378 -6 540 55 236 223 408 444 452 90
18 222 18 307 0z"/>
<path d="M7318 1933 c4 -399 -20 -1067 -44 -1223 l-5 -35 79 0 79 0 -5 608
c-3 334 -3 607 0 607 13 0 804 -854 1017 -1098 73 -83 139 -152 147 -152 12 0
14 78 12 547 -2 502 3 663 28 966 l7 77 -78 0 -78 0 7 -47 c3 -27 9 -293 12
-593 l6 -545 -67 65 c-84 81 -446 464 -805 850 -156 168 -283 296 -295 298
-20 3 -20 -1 -17 -325z"/>
<path d="M9366 2245 c-227 -47 -405 -161 -516 -331 -64 -98 -109 -236 -118
-365 -29 -384 111 -664 403 -810 161 -79 361 -112 553 -91 145 16 209 35 327
92 178 86 301 226 364 414 116 350 18 743 -232 932 -79 60 -200 118 -302 145
-104 28 -373 36 -479 14z m362 -81 c120 -24 195 -65 282 -153 129 -130 179
-264 187 -506 8 -237 -27 -393 -120 -533 -110 -164 -277 -244 -507 -243 -179
0 -303 47 -422 159 -56 53 -77 83 -113 156 -68 143 -79 201 -79 411 0 153 4
192 22 260 32 118 84 216 154 291 135 144 366 205 596 158z"/>
<path d="M10825 2241 c-162 -46 -272 -151 -309 -296 -40 -150 -1 -301 101
-396 61 -58 110 -86 253 -147 156 -67 197 -88 249 -130 137 -111 121 -362 -30
-472 -97 -70 -245 -79 -361 -22 -68 33 -144 102 -174 158 -29 53 -50 45 -57
-24 -3 -31 -13 -76 -21 -99 l-15 -41 37 -26 c130 -89 281 -121 447 -94 165 27
290 103 367 222 54 83 79 172 79 276 1 200 -90 301 -366 410 -209 83 -300 152
-329 251 -33 111 -11 207 68 286 63 63 135 88 231 81 103 -9 178 -63 228 -164
11 -24 27 -44 34 -44 7 0 17 19 23 43 11 42 32 108 44 138 9 20 -85 72 -169
94 -81 21 -252 19 -330 -4z"/>
<path d="M11543 2240 c-63 -38 -88 -142 -47 -197 38 -50 72 -68 128 -68 148 2
203 185 80 266 -39 26 -119 25 -161 -1z m147 -15 c62 -32 80 -129 35 -184 -49
-57 -127 -63 -185 -15 -115 97 14 269 150 199z"/>
<path d="M4408 2077 c9 -196 9 -1023 0 -1237 l-8 -165 111 0 111 0 -6 170 c-3
94 -9 261 -12 373 l-7 202 52 0 51 0 105 -123 c115 -135 264 -327 391 -505
l82 -115 131 -1 c72 -1 131 0 131 1 0 2 -35 45 -78 95 -151 182 -527 660 -522
667 2 3 33 14 69 23 156 40 291 139 347 253 37 76 45 196 19 280 -34 108 -144
195 -283 224 -32 7 -178 11 -372 11 l-320 0 8 -153z m557 59 c148 -39 214
-116 223 -257 6 -104 -15 -172 -72 -236 -83 -92 -196 -133 -371 -133 -55 0
-110 3 -123 7 l-24 6 6 206 c4 113 9 252 12 308 5 94 7 102 27 106 54 10 275
6 322 -7z"/>
<path d="M3178 2035 c9 -234 9 -950 -1 -1177 l-7 -177 111 0 111 0 -5 57 c-4
31 -9 207 -13 390 -6 300 -5 332 9 332 22 0 323 -348 622 -717 l49 -62 129 0
129 1 -20 21 c-10 12 -135 155 -278 317 -142 162 -298 339 -346 393 -48 55
-88 103 -88 108 0 28 493 511 702 688 4 3 -38 6 -93 5 l-101 0 -110 -125
c-155 -174 -575 -592 -590 -586 -10 3 -12 66 -11 283 2 153 5 313 8 354 l6 75
-110 0 -111 0 8 -180z"/>
<path d="M102 1343 c3 -49 7 -96 7 -105 1 -16 46 -17 629 -20 597 -4 630 -5
693 -24 92 -28 153 -66 198 -124 21 -27 135 -183 252 -347 117 -164 214 -300
216 -302 2 -3 12 4 23 15 20 19 18 22 -276 434 -162 228 -312 430 -332 448
-20 19 -58 45 -84 58 -102 52 -128 54 -753 54 l-580 0 7 -87z"/>
<path d="M130 1156 c1 -6 16 -54 33 -106 l33 -95 549 -5 550 -5 56 -26 c31
-15 76 -47 100 -73 24 -25 125 -160 224 -300 99 -140 185 -255 191 -255 5 -1
18 5 28 12 16 12 1 36 -175 282 -313 439 -351 488 -404 523 -27 18 -65 37 -84
42 -55 15 -1101 21 -1101 6z"/>
<path d="M246 858 c9 -18 36 -63 61 -100 l44 -67 392 -3 c339 -3 398 -6 436
-21 88 -34 136 -81 273 -270 72 -100 133 -184 135 -186 1 -2 16 0 32 5 l29 9
-195 270 c-107 149 -211 287 -231 309 -20 21 -59 49 -87 62 l-50 24 -428 0
-428 0 17 -32z"/>
<path d="M435 595 c64 -83 261 -227 399 -290 126 -59 358 -115 474 -115 l32 0
-106 148 c-143 197 -186 246 -237 271 -41 20 -60 21 -316 21 l-272 0 26 -35z"/>
</g>
</svg>
