<svg xmlns="http://www.w3.org/2000/svg" viewBox="0 0 20.002 19.992">
  <g id="Group_4348" data-name="Group 4348" transform="translate(-577.183 -40.269)">
    <path id="Path_12136" data-name="Path 12136" d="M597.185,50.292a10,10,0,1,1-9.939-10.022A9.976,9.976,0,0,1,597.185,50.292Zm-9.993-8.643a8.621,8.621,0,1,0,8.614,8.606A8.626,8.626,0,0,0,587.192,41.649Z" fill="currentColor" fill-rule="evenodd"/>
    <path id="Path_12137" data-name="Path 12137" d="M677.608,139.8c.088-.084.145-.137.2-.192l3.091-3.095a.676.676,0,0,1,.7-.205.655.655,0,0,1,.488.522.708.708,0,0,1-.236.679q-1.534,1.528-3.064,3.061c-.056.056-.12.1-.2.17.071.075.122.132.176.185q1.546,1.547,3.094,3.092a.707.707,0,0,1,.229.7.687.687,0,0,1-1.112.363c-.055-.046-.1-.1-.155-.15l-3.017-3.017c-.055-.055-.112-.107-.178-.17-.064.06-.121.112-.176.166q-1.547,1.546-3.094,3.092a.691.691,0,1,1-.969-.979q1.538-1.54,3.078-3.077a1.819,1.819,0,0,0,.228-.243.846.846,0,0,1-.21-.114q-1.559-1.549-3.112-3.1a.678.678,0,0,1-.2-.706.653.653,0,0,1,.526-.484.712.712,0,0,1,.678.241q1.528,1.534,3.061,3.064C677.494,139.651,677.541,139.715,677.608,139.8Z" transform="translate(-90.443 -90.487)" fill="currentColor" fill-rule="evenodd"/>
  </g>
</svg>
