<svg xmlns="http://www.w3.org/2000/svg" viewBox="0 0 28.578 31.175">
  <g id="Group_1943" data-name="Group 1943" transform="translate(-1267.738 -320.706)">
    <path id="Path_1231" data-name="Path 1231" d="M1272.934,331.1v-.381q0-3.62,0-7.24a2.6,2.6,0,0,1,2.761-2.768q7.273,0,14.545-.006a1.122,1.122,0,0,1,.859.361q2.424,2.442,4.867,4.867a1.089,1.089,0,0,1,.349.832q-.01,11.185-.006,22.37a2.6,2.6,0,0,1-2.752,2.745q-8.928,0-17.857,0a2.606,2.606,0,0,1-2.767-2.763c0-.582,0-1.164,0-1.782h-1.477a3.537,3.537,0,0,1-3.718-3.7q0-4.935,0-9.87a2.594,2.594,0,0,1,2.641-2.659C1271.214,331.1,1272.047,331.1,1272.934,331.1Zm16.883-9.091h-14.123a1.317,1.317,0,0,0-1.462,1.465q0,5.583,0,11.166V335h16.374a2.28,2.28,0,0,1,2.457,2.446q0,3.684,0,7.369a2.3,2.3,0,0,1-2.51,2.523h-16.321c0,.625,0,1.2,0,1.771a1.324,1.324,0,0,0,1.485,1.475h17.821a1.324,1.324,0,0,0,1.473-1.488q0-10.761,0-21.521v-.367h-4.254c-.76,0-.941-.18-.941-.933C1289.817,324.867,1289.817,323.461,1289.817,322.01Zm-20.779,13.939v.361q0,3.652,0,7.3a2.243,2.243,0,0,0,2.431,2.422h19.121c.807,0,1.175-.363,1.176-1.161q0-3.7,0-7.4c0-.82-.362-1.177-1.192-1.177q-9.755,0-19.51,0A3.776,3.776,0,0,1,1269.037,335.949Zm3.88-3.549c-.856,0-1.7,0-2.538,0a1.3,1.3,0,1,0-.01,2.594c.779.007,1.558,0,2.337,0a1.747,1.747,0,0,0,.212-.025Zm18.215-9.382v2.866h2.84Z" fill="currentColor" fill-rule="evenodd"/>
    <path id="Path_1232" data-name="Path 1232" d="M1371.1,403.231q2.546,0,5.091,0a.672.672,0,0,1,.74.537.653.653,0,0,1-.551.75,2.189,2.189,0,0,1-.324.009h-9.923c-.086,0-.173,0-.259,0a.651.651,0,0,1-.618-.664.636.636,0,0,1,.623-.624c.475-.016.951-.006,1.427-.006Z" transform="translate(-89.076 -75.377)" fill="currentColor" fill-rule="evenodd"/>
    <path id="Path_1233" data-name="Path 1233" d="M1371.1,433.244h4.962a2.292,2.292,0,0,1,.324.009.646.646,0,0,1,.008,1.279,1.644,1.644,0,0,1-.259.01H1366.08c-.054,0-.108,0-.162,0a.648.648,0,1,1-.008-1.3c.108-.006.216,0,.324,0Z" transform="translate(-89.078 -102.792)" fill="currentColor" fill-rule="evenodd"/>
    <path id="Path_1234" data-name="Path 1234" d="M1368.54,373.26c.81,0,1.62,0,2.43,0,.475,0,.771.245.779.635s-.3.662-.785.662q-2.462,0-4.925,0c-.476,0-.77-.244-.779-.635s.294-.661.784-.662C1366.877,373.258,1367.709,373.26,1368.54,373.26Z" transform="translate(-89.078 -48.003)" fill="currentColor" fill-rule="evenodd"/>
    <path id="Path_1235" data-name="Path 1235" d="M1389.4,529.676c-.324,0-.649,0-.973,0a.65.65,0,1,1-.011-1.3c.594-.007,1.189,0,1.784,0,.467,0,.765-.262.761-.655s-.3-.633-.773-.645a5.4,5.4,0,0,1-.966-.062,1.924,1.924,0,0,1-1.5-2.063,1.944,1.944,0,0,1,1.85-1.762c.67-.02,1.341-.011,2.011,0a.648.648,0,1,1-.021,1.293c-.595.008-1.189,0-1.784,0-.467,0-.765.261-.761.654s.3.633.772.646a5.407,5.407,0,0,1,.966.062,1.925,1.925,0,0,1,1.5,2.063,1.957,1.957,0,0,1-1.85,1.765c-.334.014-.67,0-1.005,0Z" transform="translate(-109.59 -184.938)" fill="currentColor" fill-rule="evenodd"/>
    <path id="Path_1236" data-name="Path 1236" d="M1457.963,527.2l1.227-3.266c.038-.1.073-.2.119-.3a.631.631,0,0,1,.828-.359.624.624,0,0,1,.371.822c-.334.924-.685,1.843-1.029,2.763q-.432,1.153-.865,2.305c-.146.386-.362.566-.672.55a.7.7,0,0,1-.642-.55c-.614-1.65-1.237-3.3-1.854-4.945a.68.68,0,0,1,.245-.907.654.654,0,0,1,.957.411c.38,1,.75,2,1.126,3C1457.82,526.856,1457.875,526.983,1457.963,527.2Z" transform="translate(-171.388 -184.98)" fill="currentColor" fill-rule="evenodd"/>
    <path id="Path_1237" data-name="Path 1237" d="M1334.541,523.295c.531-.009.833.243.845.625s-.268.642-.716.67a1.948,1.948,0,0,0-.009,3.893c.466.03.751.3.724.693a.671.671,0,0,1-.776.6,3.243,3.243,0,0,1-.459-6.43C1334.309,523.323,1334.469,523.3,1334.541,523.295Z" transform="translate(-58.234 -185.046)" fill="currentColor" fill-rule="evenodd"/>
  </g>
</svg>
