<svg xmlns="http://www.w3.org/2000/svg" width="29.804" height="21.899" viewBox="0 0 29.804 21.899">
  <g id="Computer_4x" data-name="Computer@4x" transform="translate(-0.138 412.101)">
    <path id="Path_60" data-name="Path 60" d="M2.31-412.01a2.882,2.882,0,0,0-2.131,2.386c-.032.276-.048,2.5-.037,6.4l.016,5.978.117.345a3.022,3.022,0,0,0,1.871,1.876l.351.117,6.047.016,6.042.016v3.768H8.894l-.128.133a.5.5,0,0,0-.1.531c.1.244-.053.239,6.382.239,4.767,0,6.074-.016,6.18-.069a.434.434,0,0,0,.218-.526c-.112-.319.011-.3-3.1-.308H15.488v-3.768l6.047-.016c5.686-.016,6.058-.021,6.334-.117a2.922,2.922,0,0,0,2.014-2.147c.043-.2.058-2.163.058-6.377,0-5.3-.011-6.138-.08-6.409a2.912,2.912,0,0,0-2.11-2.078C27.253-412.133,2.756-412.127,2.31-412.01Zm25.571.988a2.015,2.015,0,0,1,.962.941l.17.351v12.488l-.149.3a2.4,2.4,0,0,1-1.084,1.01l-.308.122H15.063c-12.158,0-12.413,0-12.684-.1a2.133,2.133,0,0,1-.983-.776c-.383-.558-.367-.25-.351-6.967l.016-6.026.143-.308a2.051,2.051,0,0,1,1.164-1.1c.282-.1.526-.1,12.748-.09l12.461.011Z" transform="translate(0 0)" fill="currentColor"/>
    <path id="Path_61" data-name="Path 61" d="M197.078-365.915c-.1.128-.112.213-.112.845v.707l-.856.021-.856.016-.128.149-.128.149v4.156a42.338,42.338,0,0,0,.069,4.241c.138.175.292.207,1.095.207h.8v.712c0,.808.043.914.377.967a.345.345,0,0,0,.345-.1l.154-.133.016-.723.021-.723h2.859v.664c0,.712.042.882.25.978a.376.376,0,0,0,.5-.1l.154-.154v-1.392h.213a2.262,2.262,0,0,0,2.152-1.61,3.034,3.034,0,0,0,.069-.988,1.781,1.781,0,0,0-.191-1.026,2.789,2.789,0,0,0-.4-.59l-.229-.234.239-.26a3.065,3.065,0,0,0,.4-.606c.159-.34.165-.361.165-1.143s0-.8-.17-1.158a2.211,2.211,0,0,0-1.8-1.27l-.452-.058v-.712c0-.686-.005-.717-.133-.84a.443.443,0,0,0-.638,0c-.128.122-.133.154-.133.85v.717H197.88l-.021-.749c-.016-.712-.021-.755-.143-.85A.477.477,0,0,0,197.078-365.915Zm5.415,2.657a1.554,1.554,0,0,1,.723,1.589,1.463,1.463,0,0,1-1.031,1.3c-.122.032-1.334.053-3.236.053H195.9v-3.141l3.151.016,3.146.016Zm-.138,3.922a1.691,1.691,0,0,1,.733.712,1.432,1.432,0,0,1,.122.755,1.236,1.236,0,0,1-.159.8,1.5,1.5,0,0,1-.813.691c-.122.032-1.318.053-3.263.053H195.9v-3.082h3.135A22.738,22.738,0,0,1,202.355-359.336Z" transform="translate(-184.507 -43.598)" fill="currentColor"/>
  </g>
</svg>
