<svg xmlns="http://www.w3.org/2000/svg" viewBox="0 0 46.962 55.952">
  <g id="Group_4420" data-name="Group 4420" transform="translate(424.425 -16.048)">
    <path id="Path_13637" data-name="Path 13637" d="M-377.992,16.048c.682.576.7.981.07,1.616-1.348,1.352-2.7,2.7-4.125,4.124.432.411.823.809,1.242,1.177a6.845,6.845,0,0,1,2.295,7.024c-.628,3.063-1.108,6.156-1.633,9.239a6.68,6.68,0,0,1-1.95,3.7q-5.243,5.225-10.472,10.463a5.771,5.771,0,0,1-.513.409l.069.14c.168.009.336.025.5.025,2.021,0,4.042,0,6.063,0a2.914,2.914,0,0,1,3.113,3.105q.011,5.681,0,11.362c0,2.093-.5,2.828-2.425,3.567h-5.355c-.4-.251-.685-.579-.515-1.079s.593-.57,1.065-.565c1.311.013,2.621.005,3.932,0,1.209,0,1.657-.438,1.657-1.631q0-5.735,0-11.469c0-1.239-.425-1.656-1.683-1.656h-29.6c-1.266,0-1.708.439-1.709,1.7q0,5.68,0,11.36c0,1.253.45,1.695,1.719,1.695q10.349,0,20.7,0c.461,0,.882.038,1.077.544s-.122.812-.466,1.1h-22.293a9.251,9.251,0,0,1-1.362-.756,2.8,2.8,0,0,1-1.012-2.319c0-3.95-.008-7.9,0-11.852,0-1.78,1.087-2.9,3.074-3.141-.164-.176-.287-.317-.419-.449q-2.76-2.763-5.521-5.524a6.317,6.317,0,0,1-.02-9.134q9.069-9.081,18.142-18.16a7.761,7.761,0,0,1,4.505-2.1c3.051-.494,6.091-1.056,9.138-1.576a6.147,6.147,0,0,1,5.535,1.64c.659.625,1.267,1.3,1.937,2,.2-.189.341-.319.477-.455q1.8-1.794,3.594-3.589c.192-.191.409-.356.615-.534Zm-6.456,8.166a3.722,3.722,0,0,1-1.009,4.915,3.682,3.682,0,0,1-4.627-.336,3.677,3.677,0,0,1-.539-4.65c1.054-1.6,2.889-2.021,4.933-1.151l1.3-1.295c-.6-.594-1.209-1.216-1.834-1.824a4.585,4.585,0,0,0-4.164-1.281c-3.336.564-6.667,1.159-10,1.742a4.861,4.861,0,0,0-2.671,1.378q-9.134,9.141-18.272,18.278a4.658,4.658,0,0,0,0,6.784q3.426,3.451,6.886,6.868a1.184,1.184,0,0,0,.749.309c2.659.022,5.318.014,7.977.013.135,0,.271-.012.5-.022-.205-.215-.336-.359-.474-.5l-10.393-10.394c-.749-.749-.746-1.036.016-1.8q3.825-3.825,7.651-7.649a2.533,2.533,0,0,1,.451-.392.664.664,0,0,1,.934.135,1.389,1.389,0,0,1,.173.887c-.023.2-.259.38-.424.546q-3.473,3.482-6.959,6.95a1.378,1.378,0,0,1-.448.228l11.234,11.234,13.177-13.171L-401.4,28.887c-.763.77-1.567,1.588-2.379,2.4-.464.463-.92.5-1.29.14s-.322-.834.129-1.288q1.385-1.4,2.78-2.784c.711-.711,1.025-.713,1.726-.013l11.746,11.745c.761.761.76,1.04-.005,1.8l-12.556,12.558c-.143.143-.278.294-.488.517,2.1,0,4.068.006,6.034-.011a.827.827,0,0,0,.506-.248q6.055-6.038,12.095-12.091a4.621,4.621,0,0,0,1.32-2.522c.6-3.422,1.221-6.841,1.8-10.267a4.133,4.133,0,0,0-.876-3.5,30.742,30.742,0,0,0-2.412-2.277Zm-2.487.09a1.94,1.94,0,0,0-2.31.745,2,2,0,0,0,.24,2.5,2,2,0,0,0,2.45.323,1.947,1.947,0,0,0,.833-2.4c-.457.477-.962.943-1.571.341C-387.926,25.193-387.273,24.761-386.935,24.3Z" transform="translate(0)" fill="currentColor" fill-rule="evenodd"/>
    <path id="Path_13638" data-name="Path 13638" d="M-254.364,309.241a3.015,3.015,0,0,1,.456,4.364,2.767,2.767,0,0,1-2.106.992c-.891.022-1.782.018-2.673.011a.849.849,0,0,1-.949-.941q-.011-3.846,0-7.692c0-.617.276-.914.89-.931.781-.021,1.566-.037,2.344.017a2.627,2.627,0,0,1,2.148,3.982C-254.287,309.1-254.322,309.165-254.364,309.241Zm-3.613,3.717c.685,0,1.319.029,1.95-.008a1.255,1.255,0,0,0,1.213-1.238,1.231,1.231,0,0,0-1.09-1.341c-.679-.06-1.367-.013-2.073-.013Zm.008-4.272c.532,0,1.038.031,1.539-.008a.951.951,0,0,0,.9-.927.9.9,0,0,0-.725-1.005,15.566,15.566,0,0,0-1.717-.015Z" transform="translate(-140.77 -246.866)" fill="currentColor" fill-rule="evenodd"/>
    <path id="Path_13639" data-name="Path 13639" d="M-361.717,311.485c0-1.219-.006-2.437,0-3.655,0-.756.263-1.01,1.016-1.017.6-.006,1.2,0,1.8,0a3.656,3.656,0,0,1,3.815,2.787,5.694,5.694,0,0,1-.359,4.5,3.557,3.557,0,0,1-3.3,2.03c-.654.01-1.309.011-1.964.008-.694,0-1-.287-1.006-.992C-361.726,313.922-361.716,312.7-361.717,311.485Zm1.686-3v6.007c.423,0,.8-.006,1.182,0a2.066,2.066,0,0,0,2.033-1.292,4.039,4.039,0,0,0,.073-3.381,1.935,1.935,0,0,0-1.538-1.321A13.942,13.942,0,0,0-360.031,308.48Z" transform="translate(-53.567 -248.389)" fill="currentColor" fill-rule="evenodd"/>
    <path id="Path_13640" data-name="Path 13640" d="M-302.534,311.122v2.3c.775,0,1.52,0,2.264,0,.645.005,1.014.308,1.016.817s-.365.815-1.009.819q-1.475.009-2.949,0c-.7-.005-.992-.288-.994-1q-.013-3.741,0-7.483c0-.732.3-1.014,1.042-1.019q1.447-.011,2.895,0c.644.005,1.013.314,1.015.822s-.363.809-1.009.814c-.744,0-1.488,0-2.269,0v2.3c.7,0,1.372-.007,2.043,0,.639.009.991.322.976.847-.014.51-.342.782-.971.788C-301.156,311.127-301.827,311.122-302.534,311.122Z" transform="translate(-102.693 -247.31)" fill="currentColor" fill-rule="evenodd"/>
    <path id="Path_13641" data-name="Path 13641" d="M-209.245,307.04c0,1.476,0,2.875,0,4.275,0,.929.014,1.858-.008,2.786a.8.8,0,0,1-.86.852.784.784,0,0,1-.766-.88c-.008-2.094,0-4.189,0-6.283v-.749c-.416,0-.806.006-1.2,0-.651-.013-.992-.31-.981-.843.01-.505.343-.789.966-.792q2.049-.01,4.1,0c.593,0,.951.333.941.827a.831.831,0,0,1-.918.805C-208.372,307.051-208.77,307.04-209.245,307.04Z" transform="translate(-180.562 -247.185)" fill="currentColor" fill-rule="evenodd"/>
    <path id="Path_13642" data-name="Path 13642" d="M-306.541,148.7c.931-.786,1.3-.893,1.7-.493.383.385.288.734-.405,1.607.22.634.463,1.218.621,1.825a.809.809,0,0,1-.612,1.092c-.487.1-.858-.178-.971-.773a2.687,2.687,0,0,0-1.066-1.718,1.667,1.667,0,0,0-1.945-.084,1.025,1.025,0,0,0-.593,1.27,21.3,21.3,0,0,0,.978,2.65,3.629,3.629,0,0,1-2.779,5.239,3.405,3.405,0,0,1-2.271-.388.432.432,0,0,0-.61.076c-.68.664-1.125.742-1.522.316-.381-.41-.28-.8.381-1.482.051-.052.1-.107.083-.091-.333-.788-.686-1.516-.948-2.275-.218-.632.032-1.1.541-1.224.492-.124.889.182,1.031.853a3.642,3.642,0,0,0,1.48,2.159,2.142,2.142,0,0,0,3.348-1.176,2.68,2.68,0,0,0-.2-1.207c-.321-.925-.774-1.81-1.034-2.75a2.89,2.89,0,0,1,2.847-3.809,4.429,4.429,0,0,1,1.028.082A7.448,7.448,0,0,1-306.541,148.7Z" transform="translate(-92.13 -112.702)" fill="currentColor" fill-rule="evenodd"/>
  </g>
</svg>
