<svg xmlns="http://www.w3.org/2000/svg" viewBox="0 0 21.369 28.252">
  <g id="Group_3250" data-name="Group 3250" transform="translate(-506.314 -35.6)">
    <path id="Path_2471" data-name="Path 2471" d="M514.917,63.7c-.174-.045-.349-.086-.521-.136a3.554,3.554,0,0,1-2.584-3.454q-.006-6.111,0-12.222v-.346c-.1.088-.158.137-.212.191-.6.6-1.194,1.2-1.8,1.793a.826.826,0,0,1-1.29,0q-.678-.673-1.35-1.351a1.9,1.9,0,0,1,0-2.8c.479-.484.963-.962,1.487-1.484-.25-.233-.488-.442-.711-.666a2.179,2.179,0,0,1,0-3.264q1.416-1.42,2.836-2.836a2.18,2.18,0,0,1,3.246-.008c.226.224.441.458.691.719.321-.325.616-.628.915-.928a6.344,6.344,0,0,1,.745-.718,6,6,0,0,1,.89-.445h.655a3.039,3.039,0,0,1,1.457,1c.281.3.577.58.867.87a.877.877,0,0,1,0,1.467l-5.383,5.384c-.066.066-.13.136-.224.234h5a.271.271,0,0,0,.025-.067c0-.455,0-.91.007-1.364a1.369,1.369,0,0,1,1.022-1.353q2.526-.727,5.055-1.446a1.35,1.35,0,0,1,1.782,1.341q.005,9.2,0,18.394a3.518,3.518,0,0,1-2.589,3.363c-.173.048-.35.087-.524.131Zm-1.469-17.327v.306q0,6.644,0,13.288a1.93,1.93,0,0,0,2.085,2.095h8.295a1.914,1.914,0,0,0,2.067-2.051q0-6.671,0-13.343c0-.1-.008-.192-.013-.295Zm5.2-8.067c-.228-.218-.467-.441-.7-.67-.346-.34-.388-.343-.723-.008l-8.8,8.8c-.045.045-.092.089-.135.135a.282.282,0,0,0,0,.434c.279.286.56.569.826.838Zm7.233,6.419V42.152c-1.5.42-2.973.834-4.447,1.254a.2.2,0,0,0-.117.149c-.01.379-.005.758-.005,1.172Zm-12.323-5.783c-.25-.242-.494-.485-.747-.719a.54.54,0,0,0-.822.01c-.153.143-.3.294-.444.442q-1.234,1.234-2.466,2.468c-.26.262-.317.546-.116.774.255.289.548.546.814.806Z" transform="translate(0)" fill="currentColor" stroke="#fff" stroke-width="0.3" fill-rule="evenodd"/>
    <path id="Path_2472" data-name="Path 2472" d="M725.655,216.459q0-2.387,0-4.774a.827.827,0,1,1,1.637.009q0,4.788,0,9.576a.844.844,0,0,1-.485.843.767.767,0,0,1-.886-.14.851.851,0,0,1-.271-.686Q725.659,218.874,725.655,216.459Z" transform="translate(-203.151 -162.258)" fill="currentColor" stroke="#fff" stroke-width="0.3" fill-rule="evenodd"/>
    <path id="Path_2473" data-name="Path 2473" d="M677.164,216.479q0,2.442,0,4.883a.8.8,0,0,1-.543.8.732.732,0,0,1-.878-.245,1.272,1.272,0,0,1-.206-.653c-.014-2.3-.009-4.6-.009-6.9,0-.909-.006-1.819,0-2.728a.819.819,0,1,1,1.635.017Q677.166,214.065,677.164,216.479Z" transform="translate(-156.672 -162.278)" fill="currentColor" stroke="#fff" stroke-width="0.3" fill-rule="evenodd"/>
    <path id="Path_2474" data-name="Path 2474" d="M627.149,216.509q0,2.346,0,4.692a1.7,1.7,0,0,1-.039.432.809.809,0,0,1-1.565-.049,1.632,1.632,0,0,1-.032-.352q0-4.746,0-9.493c0-.641.4-1.048.94-.958a.8.8,0,0,1,.693.817c.011.618,0,1.237,0,1.855Q627.149,214.981,627.149,216.509Z" transform="translate(-110.3 -162.278)" fill="currentColor" stroke="#fff" stroke-width="0.3" fill-rule="evenodd"/>
  </g>
</svg>
