<svg xmlns="http://www.w3.org/2000/svg" viewBox="0 0 24 24">
  <g id="deposit-box" transform="translate(-32 480)">
    <path id="Path_183" data-name="Path 183" d="M33.029-479.887a1.752,1.752,0,0,0-.916.932c-.112.3-.112.311-.112,8.812s0,8.513.112,8.813a1.727,1.727,0,0,0,.932.932l.3.112H54.655l.3-.112a1.727,1.727,0,0,0,.932-.932c.113-.3.113-.311.113-8.813s0-8.512-.113-8.812a1.728,1.728,0,0,0-.932-.932l-.3-.113-10.671.005C33.393-479.995,33.313-479.995,33.029-479.887ZM52.7-477.375a.879.879,0,0,1,.595.434c.107.182.107.279.107,6.8s0,6.616-.107,6.8a.879.879,0,0,1-.595.434c-.279.064-17.121.064-17.4,0a.879.879,0,0,1-.595-.434c-.1-.171-.107-.295-.123-1.993l-.016-1.805h-.187a.6.6,0,0,1-.605-.321,2.348,2.348,0,0,1,.016-1.093.588.588,0,0,1,.6-.3h.182v-2.571h-.182c-.5,0-.675-.22-.675-.857s.171-.857.675-.857h.177l.016-1.811c.016-1.693.021-1.816.123-1.987a.9.9,0,0,1,.568-.434C35.53-477.434,52.443-477.439,52.7-477.375Z" fill="currentColor"/>
    <path id="Path_184" data-name="Path 184" d="M112-398.714v1.286h.188a.6.6,0,0,1,.611.321,2.348,2.348,0,0,1-.016,1.093.588.588,0,0,1-.6.3H112v2.571h.182c.5,0,.675.22.675.857s-.171.857-.675.857H112v2.571h15.429V-400H112Zm13.393,2.2c.305.107.321.22.321,2.084s-.016,1.977-.321,2.084a7.742,7.742,0,0,1-1.929,0c-.305-.107-.321-.22-.321-2.073,0-1.827.016-1.961.289-2.079A7.263,7.263,0,0,1,125.393-396.513Z" transform="translate(-75.714 -75.714)" fill="currentColor"/>
    <path id="Path_185" data-name="Path 185" d="M64-78.821c0,1.109.005,1.184.107,1.286s.177.107,1.607.107,1.505-.005,1.607-.107.107-.177.107-1.286V-80H64Z" transform="translate(-30.286 -378.571)" fill="currentColor"/>
    <path id="Path_186" data-name="Path 186" d="M384-78.821c0,1.109.005,1.184.107,1.286s.177.107,1.607.107,1.505-.005,1.607-.107.107-.177.107-1.286V-80H384Z" transform="translate(-333.143 -378.571)" fill="currentColor"/>
  </g>
</svg>
