<svg xmlns="http://www.w3.org/2000/svg" xmlns:xlink="http://www.w3.org/1999/xlink" width="300" height="300" viewBox="0 0 300 300">
  <defs>
    <clipPath id="clip-Dogecoin_">
      <rect width="300" height="300"/>
    </clipPath>
  </defs>
  <g id="Dogecoin_" data-name="Dogecoin " clip-path="url(#clip-Dogecoin_)">
    <rect width="300" height="300" fill="rgba(255,255,255,0)"/>
    <g id="Rectangle_1" data-name="Rectangle 1" transform="translate(7 7)" fill="#ba9f33" stroke="#988430" stroke-width="4">
      <rect width="288" height="288" rx="20" stroke="none"/>
      <rect x="2" y="2" width="284" height="284" rx="18" fill="none"/>
    </g>
    <g id="Path_122" data-name="Path 122" transform="translate(11 11)" fill="#ba9f33">
      <path d="M 260.405029296875 278.6000061035156 L 20.00499153137207 278 L 19.90933609008789 277.999755859375 L 19.81414413452148 278.0086364746094 C 18.78491401672363 278.104736328125 17.7822208404541 278.1534118652344 16.83387565612793 278.1534118652344 C 11.48491382598877 278.1534118652344 7.470683097839355 276.6266784667969 4.902683258056641 273.6156005859375 C 3.738990783691406 272.2510986328125 2.85164475440979 270.5580749511719 2.26529860496521 268.58349609375 C 1.691106200218201 266.6498107910156 1.399990797042847 264.434814453125 1.399990797042847 262 L 1.999966263771057 20.01486587524414 C 2.045931816101074 16.40740203857422 2.55729603767395 13.32415294647217 3.519952297210693 10.850266456604 C 4.385144710540771 8.626766204833984 5.593644618988037 6.888266086578369 7.214452266693115 5.535419940948486 C 10.06468296051025 3.156458377838135 14.24687576293945 1.999996900558472 19.99999046325684 1.999996900558472 L 260 1.999996900558472 L 260.0624084472656 1.999996900558472 L 260.124755859375 1.99611234664917 C 260.8891906738281 1.948304653167725 261.6402893066406 1.924112319946289 262.357177734375 1.924112319946289 C 265.2179260253906 1.924112319946289 267.7198486328125 2.308112382888794 269.79345703125 3.065535306930542 C 271.6668701171875 3.749804735183716 273.236328125 4.758996963500977 274.4583129882813 6.065150737762451 C 277.2247619628906 9.022150993347168 278.4178466796875 13.6657657623291 278.0044250488281 19.86695861816406 L 277.9998779296875 19.93503570556641 L 278 20.00326538085938 L 278.4000244140625 264.4032592773438 C 278.4000244140625 268.986328125 276.70263671875 272.5635986328125 273.3550720214844 275.0325317382813 C 271.7819213867188 276.1927795410156 269.8645629882813 277.0879516601563 267.65625 277.6931762695313 C 265.4620361328125 278.2945556640625 263.0220947265625 278.5996704101563 260.4042663574219 278.6000061035156 L 260.405029296875 278.6000061035156 Z" stroke="none"/>
      <path d="M 262.357177734375 3.924102783203125 C 261.6818237304688 3.924102783203125 260.9726867675781 3.947021484375 260.2494201660156 3.992218017578125 L 260.1248474121094 4 L 260 4 L 20 4 C 14.73471069335938 4 10.97171020507813 5.004486083984375 8.496002197265625 7.070892333984375 C 7.14129638671875 8.201568603515625 6.123291015625 9.675079345703125 5.3837890625 11.57553100585938 C 4.509246826171875 13.822998046875 4.043701171875 16.66741943359375 3.99993896484375 20.02975463867188 L 3.399993896484375 262.0083618164063 C 3.400634765625 264.2470092773438 3.6639404296875 266.2675170898438 4.18255615234375 268.01416015625 C 4.688873291015625 269.7192687988281 5.443145751953125 271.167236328125 6.4244384765625 272.3178100585938 C 7.447235107421875 273.5170593261719 8.70989990234375 274.4103698730469 10.28460693359375 275.0487365722656 C 12.09280395507813 275.7817687988281 14.29629516601563 276.1534118652344 16.8338623046875 276.1534118652344 C 17.72048950195313 276.1534118652344 18.66064453125 276.1076049804688 19.62826538085938 276.0173034667969 L 19.81869506835938 275.9995422363281 L 20.00997924804688 276 L 260.4084777832031 276.6000061035156 C 262.8461303710938 276.5993347167969 265.1067504882813 276.3182067871094 267.1275939941406 275.7643127441406 C 269.0977172851563 275.2243347167969 270.7935180664063 274.4366149902344 272.1679382324219 273.4229736328125 C 273.51220703125 272.4315490722656 274.5479125976563 271.21630859375 275.2462463378906 269.81103515625 C 276.0112915039063 268.2716369628906 276.3994445800781 266.4526062011719 276.4000244140625 264.4065246582031 L 276 20.00653076171875 L 275.999755859375 19.87008666992188 L 276.0088500976563 19.73391723632813 C 276.3839416503906 14.107177734375 275.3709106445313 9.968048095703125 272.997802734375 7.43145751953125 C 271.97802734375 6.341461181640625 270.7054138183594 5.52783203125 269.1072998046875 4.944122314453125 C 267.2541809082031 4.26727294921875 264.983154296875 3.924102783203125 262.3572082519531 3.924102783203125 L 262.357177734375 3.924102783203125 M 262.357177734375 -0.075897216796875 C 276.4743041992188 -0.075958251953125 280.75927734375 8.61083984375 280 20 L 280.4000244140625 264.3999938964844 C 280.4000244140625 275.4456787109375 271.4457092285156 280.6000061035156 260.4000244140625 280.6000061035156 L 20 280 C 18.89404296875 280.1032104492188 17.83914184570313 280.1534118652344 16.8338623046875 280.1534118652344 C 4.204620361328125 280.1534118652344 -0.600006103515625 272.2312927246094 -0.600006103515625 262 L 0 20 C 0.199981689453125 4 8.95428466796875 0 20 0 L 260 0 C 260.814453125 -0.0509033203125 261.6000366210938 -0.075897216796875 262.357177734375 -0.075897216796875 Z" stroke="none" fill="#7a6a2a"/>
    </g>
    <g id="Layer_2" data-name="Layer 2" transform="translate(9.364 0.364)">
      <g id="Layer_1" data-name="Layer 1" transform="translate(-0.364 -0.364)">
        <g id="Layer_1-2" data-name="Layer_1" transform="translate(0.109 -3.041)">
          <path id="Path_1" data-name="Path 1" d="M174.68,737.251c-.816-.745-1.678-1.492-2.471-2.237s-1.607-1.492-2.423-2.237l-2.425-2.305c-.4-.4-.816-.745-1.213-1.143-.4-.349-.862-.745-1.259-1.1-3.218-3.053-6.454-6.107-9.628-9.162,3.287,3.007,6.505,5.993,9.792,9.045l1.142,1.143c.4.395.816.745,1.213,1.142l2.423,2.238c.816.745,1.609,1.492,2.425,2.305s1.609,1.561,2.425,2.305Zm-42.708-.461s11.7,1.211,17.415,2.027c5.291.747,21.843,3.287,21.843,3.287Zm0,0c3.287.28,6.574.629,9.861.979,1.678.163,3.287.349,4.9.512l2.47.281c.816.115,1.609.232,2.425.349l9.792,1.561,4.895.816c1.609.28,3.218.584,4.9.864-1.609-.163-3.287-.4-4.9-.63l-4.895-.7-9.792-1.445c-.816-.117-1.609-.281-2.425-.4l-2.471-.284c-1.609-.163-3.287-.4-4.9-.584-3.287-.395-6.574-.816-9.861-1.328Zm38.093,8.363s-12.5,3.172-16.715,4.384c-4.149,1.142-16.715,4.965-16.715,4.965l33.429-9.348Z" transform="translate(-111.26 -608.137)" fill="#cfb66c" fill-rule="evenodd"/>
          <path id="Path_2" data-name="Path 2" d="M196.265,888.8c-2.774.816-5.532,1.609-8.346,2.356l-8.346,2.238c-2.774.816-5.532,1.609-8.3,2.425l-4.149,1.142c-1.375.4-2.774.745-4.2,1.143,1.374-.461,2.774-.933,4.149-1.329l4.149-1.328c2.774-.864,5.532-1.68,8.3-2.542,2.82-.7,5.6-1.446,8.415-2.122,2.68-.676,5.5-1.351,8.323-1.981h0Zm-31.68,17.043c1.374-.513,17.227-7.9,20.911-9.628,1.844-.864,7.2-2.766,7.2-2.766Z" transform="translate(-137.463 -751.784)" fill="#cfb66c" fill-rule="evenodd"/>
          <path id="Path_3" data-name="Path 3" d="M173.692,932.172c1.211-.461,2.354-1.025,3.519-1.561l3.45-1.609,6.925-3.333c2.305-1.1,4.546-2.305,6.923-3.335,1.212-.512,2.425-.931,3.636-1.328l1.844-.582c.629-.163,1.213-.35,1.844-.513-2.305,1.1-4.732,2.029-7.04,3.1-2.305,1.143-4.663,2.076-7.041,3.1l-7.04,3.1c-2.364.957-4.669,1.982-7.021,2.961h0Zm1.537,6.454s14.359-8.415,19.3-11.12c2.588-1.445,10.957-5.6,10.957-5.6Z" transform="translate(-146.569 -778.113)" fill="#cfb66c" fill-rule="evenodd"/>
          <path id="Path_4" data-name="Path 4" d="M183.71,949.411c2.423-1.492,4.895-3.007,7.366-4.546l3.688-2.239c1.259-.745,2.471-1.445,3.754-2.19,1.259-.747,2.471-1.492,3.753-2.191a13.449,13.449,0,0,1,1.912-.979l1.958-.979c2.588-1.259,5.176-2.542,7.9-3.637-2.471,1.563-5.013,2.892-7.553,4.266-1.259.7-2.542,1.329-3.8,2.029s-2.471,1.446-3.754,2.122c-1.259.745-2.471,1.444-3.753,2.121l-3.8,2.075-7.67,4.149h0Zm30.142-14.874s-8.929,6.854-11.819,9.045-11.4,8.346-11.4,8.346Z" transform="translate(-155.049 -788.895)" fill="#cfb66c" fill-rule="evenodd"/>
          <path id="Path_5" data-name="Path 5" d="M688.129,782.208l-4.569-8.649,2.657-10.817,18.953-7.32L697.1,738.871l3.986-16.715,7.484-14.968,23.127-3.636,16.994-16.2,36.695,2.774,7.2,39.235-13.871,49.4-7.9,25.575-32.032,1.212-14.873-10.3L706.5,787.966Z" transform="translate(-578.809 -581.292)" fill="#e2cc85" fill-rule="evenodd"/>
          <path id="Path_6" data-name="Path 6" d="M498.447,1118.173s-4.43,2.028-11.987,1.561c-2.187-2.937-17.5-4.312-17.5-4.312s-1.912-.583-5.293.816c-3.4,1.383-6.62,1.213-9.628,1.958s-5.993-3.17-8.3-3.986a32.4,32.4,0,0,1-5.362-2.937l-6.454-.63-12.961-5.479-20.591-20.514-5.6,8.76-1.726,10.84,6.225,12.846,16.761,15.269,32.684,8.3,19.372-5.708,24.268-10.258,6.086-6.527Z" transform="translate(-332.603 -917.537)" fill="#f1d789" fill-rule="evenodd"/>
          <path id="Path_7" data-name="Path 7" d="M307.1,709.808l4.149-12.565,4.944-8.114,15.921-1.329-4.779,13.941-13.31,23.686,5.525,21.144-9.791,4.895-3.009-4.615-2.423-10.584-.163-11.89Z" transform="translate(-256.989 -581.673)" fill="#f4ecb4" fill-rule="evenodd"/>
          <path id="Path_8" data-name="Path 8" d="M329.177,916.512l-3.054-4.266a7,7,0,0,1-.349-3.8c.461-1.795.395-1.912.163-2.588s-2.191-3.007-2.075-5.013c.115-2.028-.163-2.7,1.328-4.312,1.561-1.561,1.1-4.266,1.1-4.266l2.029,1.259.461-.7a2.075,2.075,0,0,1,.745,1.492c.163-1.259-.513-7.088,1.025-8.415s4.266,6.224,4.266,6.224l-1.678-10.957-4.314-11.235-7.67-10.258-.461-11.307v-.979s-3.521,5.409-4.5,9.682c-.7,2.937.979,6.5.63,10.723-.281,4.2-.63,3.87.395,5.532s3.521,5.082,2.542,7.553c-.862,2.122-3.8.63-3.8.63a6.379,6.379,0,0,1-1.375,2.354,5.219,5.219,0,0,0-1.142-2.305c-.048.4-.163.933-.163.933s-.513-1.609-1.027-3.638c-.7-2.7-1.445-6.27-2.121-8.182-.28,1.1-.979,4.429-.979,4.429l.4,5.13,1.912,7.04,1.844,4.61,1.795,5.641,1.56,3.79,1.259,2.891,1.1,6.505L324.3,916.3l2.821,1.26,2.05-1.05h0Z" transform="translate(-261.212 -716.738)" fill="#f3e19d" fill-rule="evenodd"/>
          <path id="Path_9" data-name="Path 9" d="M305.477,723.609a44.321,44.321,0,0,0-4.895,12.961,85.717,85.717,0,0,0-1.383,22.24,92.109,92.109,0,0,0,3.1,18.324c1.844,6.505,6.62,15.55,6.62,15.55l.163-.35a24.567,24.567,0,0,1-1.912-4.779c-.63-2.471-.864-5.408-1.446-6.737a32.156,32.156,0,0,1-1.795-4.1c-.4-1.561-.461-4.032-1.678-5.873a11.907,11.907,0,0,1-1.329-4.663c-.234-2.938.117-6.225-.163-8.928-.513-4.5-.862-7.553-.4-9.909s2.892-9.044,4.384-14.359c.979-3.4.395-6.271,2.19-9.233a26.07,26.07,0,0,0,3.287-7.32c.461-1.632-4.755,7.18-4.755,7.18h0Z" transform="translate(-252.595 -605.732)" fill="#f2e8b0" fill-rule="evenodd"/>
          <path id="Path_10" data-name="Path 10" d="M387.735,747.42a7.621,7.621,0,0,0-2.891,1.609,42.08,42.08,0,0,0-2.588,3.45c-1.259,1.655-1.329,3.007-2.356,5.082-1.025,2.029-3.287,5.082-3.567,6.178s-.745,6.224-1.328,8.649a11.642,11.642,0,0,0,.582,5.409l1.328-.281a4.187,4.187,0,0,0,1.329,2.892c1.328,1.142,1.561-3.871,1.561-3.871l4.965-16.761,7.482-5.082.816-4.1-5.339-3.17h0Z" transform="translate(-317.071 -632.131)" fill="#f5eec0" fill-rule="evenodd"/>
          <path id="Path_11" data-name="Path 11" d="M408.525,785.819s-3.521.232-5.245,1.492c-.7.512-.979.931-1.724,1.561-1.375,1.142-2.775,2.191-3.45,3.688a24.457,24.457,0,0,0-2.122,8.019c-.234,1.795-.234,3.45-.4,4.9a20.394,20.394,0,0,0-.4,4.61c.234,2.238,2.542,3.4,2.766,5.944l4.779-2.423,4.5-17.742,9.559-5.993-5.409-6.061-2.866,2h0Z" transform="translate(-334.243 -662.928)" fill="#e6db9d" fill-rule="evenodd"/>
          <path id="Path_12" data-name="Path 12" d="M318.172,1263.63c.02-.175.04-.35.06-.53.7-5.993.816-10.536,1.328-13.381.745-4.032,1.259-5.532,1.142-7.041a31.673,31.673,0,0,1-.115-6.061c.349-2.471,2.774-5.408,2.7-7.436a6.3,6.3,0,0,0-1.563-3.636c-.7-.979-1.259-1.795-1.259-1.795s4.779-3.287,4.733-16.529a1.268,1.268,0,0,1,.28.117l2.354,6.689,1.609,1.958,6.178,11.516,7.95,7.718,11.749,7.9,7.367,8.017.745,21.378-9.628,12.5-1.577,2.855a136.939,136.939,0,0,1-34.059-24.238Z" transform="translate(-269.067 -1021.271)" fill="#e5cb7a" fill-rule="evenodd"/>
          <path id="Path_13" data-name="Path 13" d="M509.56,1365.472a6.586,6.586,0,0,1,2.354-4.383,2.617,2.617,0,0,1,.513,1.562,13.9,13.9,0,0,1,9.442-6.341c6.271-1.142,7.787-5.711,7.787-5.711l13.31-12.1,15.223-14.011,18.51-6.505,8.65-2.122a4.78,4.78,0,0,1-.163,2.029,42.092,42.092,0,0,0,8.881-2.238c1.492-.582,2.892-.816,3.638-.046,1.1,1.025,1.259,3.45,1.328,4.895,1.795-.4,3.87-2.121,5.532-1.958,2.659.28,5.013,3.4,7.718,3.4,3.567,0,5.174-2.191,7.67-3.917,1.492-1.025,3.636-2.305,4.849-3.17,2.891-2.122,33.477-11.47,33.477-11.47l10.724.7,1.726,11.516-.922,30.105c-.114.109-.227.223-.343.332L620.7,1371.508l-67.587,10.361a135.555,135.555,0,0,1-43.207-14.862l-.346-1.537h0Z" transform="translate(-431.594 -1102.661)" fill="#d8c173" fill-rule="evenodd"/>
          <path id="Path_14" data-name="Path 14" d="M344.85,1575.589c.96-2.009,1.824-3.688,1.976-4.289.12,1.211.34,3.868.782,6.693q-1.394-1.185-2.758-2.405Z" transform="translate(-291.426 -1329.4)" fill="#f1d789" fill-rule="evenodd"/>
          <path id="Path_15" data-name="Path 15" d="M666.061,1478.66l8.741-2.431.745.234s.4.234.4,1.025c1.1-.629,2.029-.513,2.7-.931.349.745.7,3.217,2.237,3.519,1.607.351,3.333-.7,5.082-2.027a33.93,33.93,0,0,1,5.174-3.8,27.757,27.757,0,0,1,1.446,3.1c1.958-1.561,5.362-7.9,10.21-7.787a18.4,18.4,0,0,1,6.734-8.135c4.5-3.053,7.32-3.287,10.84-3.007a18.534,18.534,0,0,1,5.082-4.546,4.681,4.681,0,0,0,4.2.28c2.029-.931,4.312-4.546,7.32-5.011a7.07,7.07,0,0,1,4.663.979s8.76-8.7,14.8-11.587c-.234-.7-.7-3.333,6.387-9.162.4.35.117,1.329.4,1.383a16.464,16.464,0,0,0,4.032-2.425c2.7-2.027,5.944-4.149,7.9-4.732,3.688-1.1,7.6,1.142,7.6,1.142a3.506,3.506,0,0,1,1.1-.513,14.416,14.416,0,0,0,2.121-.461c-.046,1.213.63,3.287,0,5.082a11.33,11.33,0,0,0,2.305.979c-.395.862-1.259,3.053-2.7,4.1,1.211.583,1.374,1.259,3.1,1.844a34.2,34.2,0,0,0-2.354,3.688c-.513,1.1-2.356,5.641-3.172,7.366-.862,1.726-2.027,4.9-2.588,5.532a44.286,44.286,0,0,1-4.149,4.661c1.383-.513,7.041-2.237,9.442-2.891-.715,1.048-4.337,6.422-7.819,11.59a136.794,136.794,0,0,1-111.984,12.964Z" transform="translate(-564.033 -1204.14)" fill="#e0cd81" fill-rule="evenodd"/>
          <path id="Path_16" data-name="Path 16" d="M472.414,716.027a8.434,8.434,0,0,0-2.423.28c-.4.28,2.029.864,2.774,1.143a6.37,6.37,0,0,1,2.774,2.588c.4.979,14.57,6.69,14.57,6.69l10.024-.513,3.456-4.775-6.574-5.758,4.61-13.591-6.107.979-14.687,8.76-7.367,2.821-1.05,1.377Z" transform="translate(-397.628 -593.767)" fill="#dfc57c" fill-rule="evenodd"/>
          <path id="Path_17" data-name="Path 17" d="M629.081,797.017a1.572,1.572,0,0,0,1.383.745c2.075,0,3.985.513,4.778,1.561,1.329,1.68,5.013,7.041,5.013,7.041l8.812,3.17.569-10.376-9.628-6.69L629.05,796.5v.513h.025Z" transform="translate(-532.381 -670.258)" fill="#e5cc7c" fill-rule="evenodd"/>
          <path id="Path_18" data-name="Path 18" d="M588.785,833.335a9.581,9.581,0,0,0,3.636-.63c2.029-.747,5.362-2.354,6.808-1.724,2.027.862,1.607,3.567,3.8,5.993,1.328,1.492,3.753,1.446,5.128,3.055s6.107.862,6.107.862l1.795,9.682-7.2,9.233L606.5,871.275h-9.74l-8.9-3.53-4.383-10.6,2.191-10.724,3.113-13.082Z" transform="translate(-493.8 -702.729)" fill="#d2c281" fill-rule="evenodd"/>
          <path id="Path_19" data-name="Path 19" d="M739.2,773a2.636,2.636,0,0,0,.745.117,1.93,1.93,0,0,0-.63,2.075c.234,1.329.979,3.007.35,4.032a5.041,5.041,0,0,1,1.1,1.912c.4,1.143.513,2.191,3.1,2.356a5.446,5.446,0,0,0-1.025.816,17.031,17.031,0,0,1,2.7,3.006,22.258,22.258,0,0,0,3.4-.808l.513.35,1.1-.461s-1.025-.4-.28-2.891c.7-2.191,1.329-2.075,1.383-2.238a22.918,22.918,0,0,0,.513-3.4,40.846,40.846,0,0,0,.629-4.895l-.745-8.136-4.2-2.542L744.44,759l-3.218,6.061-2.119,2.113-.163,5.245.255.584Z" transform="translate(-625.452 -641.931)" fill="#e2c270" fill-rule="evenodd"/>
          <path id="Path_20" data-name="Path 20" d="M806.28,558.306a28.506,28.506,0,0,1,1.027,3.753,3.61,3.61,0,0,0,.163-.979s.582,3.218.7,4.547c.234-.048.461-.117.513.115a19.355,19.355,0,0,1,.461,4.266,11.626,11.626,0,0,1,3.916-3.916,6.847,6.847,0,0,1,3.172-1.26c1.795-.046,3.1,1.143,5.245,1.143,5.174,0,9.861-3.8,13.311-4.965,2.54-.864,4.732-1.492,6.27-2.892a16.383,16.383,0,0,0,3.287-4.1c1.609-2.766,3.287-5.174,4.967-5.477A10.422,10.422,0,0,1,847,548.7s.513-.513,1.383-1.213a5.376,5.376,0,0,1,3.4-1.561c2.659,0,3.986.395,5.479.395a7.455,7.455,0,0,0,2.354-.395s1.563,1.1,5.082,1.1c3.521.046,5.875.349,7.718.513s8.019-.513,9.791-.461a8.577,8.577,0,0,1,3.335.816l-5.712-16.6L859.317,513.36,847.1,522.009,828.31,540.8l-18.183,6.737-3.8,4.266v6.5Z" transform="translate(-682.677 -434.04)" fill="#ccb360" fill-rule="evenodd"/>
          <path id="Path_21" data-name="Path 21" d="M1030.29,576.019s.513-.512,1.374-1.211a5.358,5.358,0,0,1,3.4-1.563c2.657,0,3.986.4,5.479.4a7.419,7.419,0,0,0,2.354-.4s1.564,1.094,5.082,1.094c3.521.046,5.875.349,7.718.512s8.019-.512,9.791-.461a8.532,8.532,0,0,1,3.333.816l-2.588-7.484-3.006-5.711-8.58-9.4-10.375-6.107c-.046-.046-3.567-.979-3.567-.979l-9.325,5.641-8.461,21.891-.163,4.61,5.477,2.588c1.375-2.305,2.892-4.149,4.314-4.383-1.283.14-2.262.14-2.262.14h0Z" transform="translate(-865.961 -461.266)" fill="#d5b457" fill-rule="evenodd"/>
          <path id="Path_22" data-name="Path 22" d="M888.754,736.251c-.816.046-1.491-.117-1.678-.7-.7-1.958-1.259-2.238-1.844-2.238s-1.375,1.259-1.844,1.374-1.025-1.445-1.025-1.445l-.513-.234a31.239,31.239,0,0,0-5.128,4.266c-2.121,2.308-5.6,6.225-7.157,6.923s-6.925.933-8.76,1.329a11.35,11.35,0,0,0-4.149,2.029c-.28.3.818.629.98.931.163.28-1.8.163-1.959.461a7.534,7.534,0,0,0,.747,2.237,3.8,3.8,0,0,1,1.607-.4c1.795-.046,3.1,1.143,5.245,1.143,5.176,0,9.861-3.8,13.311-4.967,2.542-.862,4.733-1.492,6.272-2.891a16.488,16.488,0,0,0,3.287-4.1,29.178,29.178,0,0,1,2.612-3.73h0Z" transform="translate(-724.368 -619.935)" fill="#d2b257" fill-rule="evenodd"/>
          <path id="Path_23" data-name="Path 23" d="M411.457,1280.35s-.461-1.726-4.733-6.178c-1.212-1.259-1.958-2.305-2.774-3.053a37.324,37.324,0,0,0-4.663-3.521c-3.17-2.354-6.62-2.354-9.277-5.245s-5.754-8.414-7.905-14.058c-2.121-5.641-2.7-7.436-2.7-7.6s.584-1.259,1.329-1.1.745,1.607.933,1.958a11.552,11.552,0,0,0,1.259,1.608,15.322,15.322,0,0,1,3.45,5.013,22.653,22.653,0,0,0-.816-4.032s4.1,2.588,7.6,5.291c3.521,2.7,4.965,3.638,5.993,5.362s3.45,6.271,4.61,7.6,17.058,6.341,17.058,6.341l7.562,5.638,3.754,8.229-2.938,4.61-5.641,1.212-9.162-4.1-2.934-3.979h0Z" transform="translate(-320.947 -1048.66)" fill="#d2b159" fill-rule="evenodd"/>
          <path id="Path_24" data-name="Path 24" d="M455.55,1283.245a21.365,21.365,0,0,0,6.574,5.944c4.2,2.542,10.84,4.85,16.763,6.225a46.924,46.924,0,0,0,9.86,1.492c8.229.115,13.894-2.237,20.912-3.007a100.454,100.454,0,0,0,13.311-1.844,68.479,68.479,0,0,0,14.92-5.532c3.636-1.678,6.971-2.937,9.674-4.546,3.8-2.238,6.574-4.732,9.792-5.477a8.309,8.309,0,0,1-3.986,5.082c1.678-.048,3.986-.163,3.986-.163a74.811,74.811,0,0,0-6.178,4.312c-2.425,1.844-5.641,4.965-8.929,7.04-2.122,1.329-4.43,2.305-5.946,3.1a26.68,26.68,0,0,0-7.6,5.532,3.282,3.282,0,0,1,.933,0,18.161,18.161,0,0,0-5.245,1.561,7.093,7.093,0,0,0-2.659.234c-1.1.349-2.542,1.143-4.032,1.561-2.122.63-2.82.35-2.82.35l.349.7s-2.766-.048-3.688.046c.163.046.117.117.117.117a1.415,1.415,0,0,0-.461.163,4.81,4.81,0,0,1-1.445.629c-.28.046-.513.046-.864.117.117.28,1.027,1.844,1.446,2.766-.349.234-5.6,4.2-5.6,4.2a4,4,0,0,1,.4.816c.163.512.234,1.259.4,1.608.395.7.629.816.629.816s-.629.117-1.726.4a30.243,30.243,0,0,1-3.688.862,14.6,14.6,0,0,1-1.492.117,4.071,4.071,0,0,1-.63,4.732c-1.889,2.261-2.471,2.589-3.054,4.034a6.255,6.255,0,0,0-.933-.584,3.914,3.914,0,0,1-1.795-1.259,14.96,14.96,0,0,1-.7,2.191,27.248,27.248,0,0,0-1.607,4.266c-.63-.7-1.795-2.075-3.4-1.8s-2.891,2.471-3.17,3.1c0-.4-.28-.7-.349-.234a17.716,17.716,0,0,1-5.875,10.21c-.046-1.1-.046-3.521-.163-4.312-.461.461-1.025,1.142-4.383,2.588-3.287,1.445-2.766,2.891-2.766,2.891a7.228,7.228,0,0,1,1.492-4.733c1.795-2.423,2.891-3.567,2.891-3.753a1.037,1.037,0,0,0-.234-.513c-.234-.234-.7-.513-.7-.7.28-.115,3.054-1.444,2.891-4.2a7.44,7.44,0,0,0-1.958-4.661c-.115-.117,1.1-.979.933-1.259-.117-.163-1.607-1.26-1.795-1.844a5.359,5.359,0,0,1,.234-1.025,2.908,2.908,0,0,0,.234-1.213,9.7,9.7,0,0,0-.933-2.354,12.636,12.636,0,0,0,1.328,0,11.562,11.562,0,0,1-1.1-2.191,28.345,28.345,0,0,0-.7-2.891c.4.046,1.375.115,1.375,0,.048-.35-.862-.933-.461-1.383a2.344,2.344,0,0,1,1.328.933c-.28-.747-.745-2.191-1.726-2.774a4.234,4.234,0,0,1,3.4.232,4.575,4.575,0,0,1,1.844,1.958s.816.63,2.076,1.563a22.615,22.615,0,0,0,6.224,3.916,6.457,6.457,0,0,0,3.4.117,5.236,5.236,0,0,0,1.445-.582,2.686,2.686,0,0,1,.513-.234,11.174,11.174,0,0,0-.862-1.446c.4,0,.862.048.862.048s.28-.63-.979-1.844c.28-.28.63-.461.63-.933a2.755,2.755,0,0,1-1.259-.862c.232-.163.582-.7.979-.862-.35-.28-1.213-1.446-1.609-1.561a7.35,7.35,0,0,0,1.1-.513,13.42,13.42,0,0,1-2.588-.933,15.4,15.4,0,0,0-2.121-1.492c-.584-.234-1.609-.349-2.029-.816a6.367,6.367,0,0,0,1.492,0c.349,0,.513.046.629.046-.046-.163-.046-.513.864-.629a4.26,4.26,0,0,0,1.259-.4,3.223,3.223,0,0,1-1.844-.979,7.174,7.174,0,0,0-2.354-1.795c-.582-.117-1.678.4-2.354.349a2.123,2.123,0,0,1-1.329-.583s-3.1.28-9.977-3.916a35.169,35.169,0,0,1-8.534-6.854,10.208,10.208,0,0,1-1.607-.747c-2.238-1.165-5.339-3.59-5.245-6.762h0Z" transform="translate(-385.558 -1079.904)" fill="#c2a44d" fill-rule="evenodd"/>
          <path id="Path_25" data-name="Path 25" d="M1009.283,393.319a3.025,3.025,0,0,1,1.383.933c1.1,1.259,1.795,3.636-.7,6.178a3.984,3.984,0,0,0,2.238.349c-.862,1.027-2.82,3.218-2.937,5.13a1.955,1.955,0,0,0,.862,2.029,7.756,7.756,0,0,0-1.561,4.61,18.685,18.685,0,0,1,2.305-2.191,61.23,61.23,0,0,1,5.712-3.916,3.285,3.285,0,0,0,.163,1.211s3.006-2.471,5.532-1.374c1.142.513.629,2.121.629,2.121a2.666,2.666,0,0,1,2.659.513c1.1,1.1,2.645,3.922,3.439,5.018a36.678,36.678,0,0,1,2.19,3.007,38.03,38.03,0,0,1,3.172,6.69c.046-1.212.349-3.1,3.8-1.912a21.168,21.168,0,0,1,10.653,8.759c3.287,5.005,4.1,10.656,5.757,12.807,1.678,2.075,3.4,5.525,3.521,6.971s-.513,6.107,2.937,18.719c.979-3.916,2.471-12.612,2.471-12.612l.816-7.67.933-23.732-24.782-20.588L1021.1,390.31l-12.612,1.212.791,1.795h0Z" transform="translate(-853.911 -329.9)" fill="#caa13e" fill-rule="evenodd"/>
          <path id="Path_26" data-name="Path 26" d="M1137.149,294.477s-.35-2.305-6.178-6.224c-5.829-3.87-10.375-3.87-14.57-7.157-3.218-2.588-6.574-8.534-8.76-10.491-2.122-1.935-2.471-7.53-2.471-7.53l7.156-5.993L1122.97,241.7l9-9.907,4.312,5.993,5.993,7.04,3.333,14.127,1.213,20.679-9.682,14.85Z" transform="translate(-935.758 -195.741)" fill="#b59544" fill-rule="evenodd"/>
          <path id="Path_27" data-name="Path 27" d="M1316.661,558.443a26.278,26.278,0,0,0-1.143-9.277,170.946,170.946,0,0,0-6.454-16.443c-.63-3.521-.163-3.8.513-4.2s3.218-1.844,4.61-6.923,5.712-5.245,5.712-5.245l2.657-1.958,4.034,10.093,3.519,9.116,1.1,6.971.816,5.944-1.912,12.566-9.44,8.532-4.009-9.179h0Z" transform="translate(-1108.156 -434.92)" fill="#c89d3a" fill-rule="evenodd"/>
          <path id="Path_28" data-name="Path 28" d="M502.89,1702.2v-.258a1.986,1.986,0,0,0,.512-.461c.163-.234.281-.513.4-.583a4.387,4.387,0,0,1,1.912-.35,14.727,14.727,0,0,0,2.938.7c1.678-.046,3.636-1.329,6.737-.745,4.663.862,5.758,4.032,8.463,5.827a5.36,5.36,0,0,0,4.032.7h.629c.117,0,.979-.979,1.446-.931.933.046,1.025.816,1.607.862,1.375.163,4.034-.7,5.363-.349a2.562,2.562,0,0,1,1.678,1.677,2.589,2.589,0,0,1-.63,2.588c-1.445,1.328-2.82,2.588-3.1,3.688a13.1,13.1,0,0,1,1.023.867,135.721,135.721,0,0,1-33.008-13.216Z" transform="translate(-425.537 -1438.619)" fill="#ceb052" fill-rule="evenodd"/>
          <path id="Path_29" data-name="Path 29" d="M1310.68,796.12a80.612,80.612,0,0,0,4.9-7.25c1.258-2.476-3.986-33.826-3.986-33.826l10.537-34.525-.281-11.237s.513-10.375,1.726-14.874c1.446,2.588,5.946,5.712,6.925,7.367.461-3.172,2.027-9.861,1.795-16.995.862,1.328,2.937,14.687,2.937,14.687l2.075,9,2.7,9.559,3.007,10.095,1.8,6.971,1.025,1.678.864,2.937.816,3.172,2.354,7.436,1.383,6.107,1.1,11.074a16.881,16.881,0,0,1,.513,2.588,10.815,10.815,0,0,1-.163,2.122,25.434,25.434,0,0,1,.234,4.5c-.234,1.844-.234,3.287-1.68,4.61s-2.354,9.231-2.354,9.231l-2.588-1.724a7.025,7.025,0,0,0-.7-4.5,4.547,4.547,0,0,0-4.9-2.237c-1.328.28-3.985.7-4.848,1.445-.816.745-2.82,3.054-4.663,4.1-2.305,1.383-6.061,1.492-8.065,1.958a21.523,21.523,0,0,0-6.622,3.45,36.958,36.958,0,0,1-5.828,3.074h0Z" transform="translate(-1110.049 -579.117)" fill="#cca847" fill-rule="evenodd"/>
          <path id="Path_30" data-name="Path 30" d="M1310.68,1352.118s.154.1.45.263a136.925,136.925,0,0,0,43.644-32.349c-.134-4.718-.307-9.554-.5-11.346-.395-3.8-.115-7.67-.232-9.907s-1.375-11.354-1.958-13.708c-.63-2.354-1.844-3.521-2.029-3.521a28.105,28.105,0,0,0-1.143,5.532c0,1.1-.234,3.754-.234,4.43-.163-.048-.232-.461-.232-.63-.234.582-.513,1.609-.63,1.726s.163-.979,0-1.212-.461-.117-.4-.7a6.658,6.658,0,0,1,.163-1.025,10.685,10.685,0,0,0-1.211,3.636c-.513,2.588-.513,2.659-.7,2.891-.163.281-1.1,1.213-1.143,1.563-.046.629.864,1.259.933,1.607.046.584-.816,3.287-1.1,4.61s-.163,3.916-.461,5.245c-.234,1.212-.461,1.912-1.259,2.423.582.117,1.142.28,1.142.28a8.615,8.615,0,0,1-1.259,6.388c-.745,1.025-.931,1.492-1.724,2.425-1.563,1.724-2.776,3.688-2.892,4.965a8.361,8.361,0,0,1-.163-1.144,55.16,55.16,0,0,0-3.45,4.431c-1.328,2.075-3.17,1.958-3.688,2.471a2.454,2.454,0,0,0-.461,2.191c-.461.115-1.328.28-1.912,2.075a4.364,4.364,0,0,1-2.075,2.471,11.034,11.034,0,0,1-3.1.979,3.765,3.765,0,0,1,1.1.349c-.349.582-1.958,1.492-3.753,2.659a7.846,7.846,0,0,0-3.1,3.753,2.688,2.688,0,0,1-2.238,1.726c.461.28,1.143.931,1.492,1.142a5.191,5.191,0,0,0-2.937,1.446c-1.632,1.352-2.191,1.749-2.938,1.866h0Z" transform="translate(-1110.049 -1084.178)" fill="#c39d3c" fill-rule="evenodd"/>
          <path id="Path_31" data-name="Path 31" d="M1099.558,1782.622a13.192,13.192,0,0,1,2.878-1.526c3.636-1.445,7.482-1.724,9-2.19a32.882,32.882,0,0,1,4.383-1.446c-.048.409-.088.793-.13,1.156a135.842,135.842,0,0,1-16.136,4.006Z" transform="translate(-930.913 -1503.879)" fill="#d2ba6b" fill-rule="evenodd"/>
          <path id="Path_32" data-name="Path 32" d="M1243.273,859.8a28.653,28.653,0,0,1-2.075,6.574c-1.329,2.542-2.766,6.061-2.766,6.061a11.084,11.084,0,0,1,.28-2.356,66.2,66.2,0,0,0-6.916,4.383,23.427,23.427,0,0,0-3.4,3.521,70.353,70.353,0,0,0,2.425-7.436,149.8,149.8,0,0,0-13.591,11.936l-12.706,10.281a43.992,43.992,0,0,1-4.523,2.118c-2.19.931-4.778,1.724-6.69,2.471a10.6,10.6,0,0,1,2.471-3.754c1.212-1.142,4.848-5.082,5.408-6.915a6.289,6.289,0,0,0-.046-4.662c-.63.163-2.075.234-3.054.513a5.966,5.966,0,0,0-2.029,1.328,47.749,47.749,0,0,1,2.354-8.3c-1.212.046-3.287.395-3.287.395a29.575,29.575,0,0,1,7.837-8.228,25.477,25.477,0,0,0-4.429,1.374c-2.891,1.213-6.061,3.007-8.415,3.986,1.328-1.844,10.653-15.152,16.2-27.556,5.532-12.379,7.6-15.549,8.812-22.192.628-3.287.461-8.145.628-12.5.163-4.314.7-8.183.35-10.771,1.444,1.795,6.854,6.854,7.04,18.161.163,11.306-5.174,26.577-10.84,34.8,1.383.4,4.967.864,8.649-5.532s3.638-8.182,4.967-10.84a9.625,9.625,0,0,1,.115,1.795,48.832,48.832,0,0,0,7.9-14.687c.513,3.521,2.028,6.622-.35,13.079-2.121,5.827-4.895,7.25-4.895,7.25a11.02,11.02,0,0,0,3.4-1.446c.35.862.281,1.844.864,2.191s1.375.933,1.492,1.492a17.07,17.07,0,0,0,1.912-3.007c-.234,1.844-.4,9.907.461,14.011,1.8-.163,3.638-.28,4.9-3.521a14.417,14.417,0,0,0-.28,7.787,9.17,9.17,0,0,0,1.818-1.818h0Z" transform="translate(-1007.77 -676.698)" fill="#c0993a" fill-rule="evenodd"/>
          <path id="Path_33" data-name="Path 33" d="M900.064,351.01a13.741,13.741,0,0,1-4.849.745c-2.657,0-1.912-1.025-6.061-1.025-6.387,0-28.7,3.688-32.615,3.636-2.542-.046,8.578,1.1,8.578,1.1l28.419.4,5.711-.461,2.122-4.318Z" transform="translate(-724.825 -296.402)" fill="#a88f33" fill-rule="evenodd"/>
          <path id="Path_34" data-name="Path 34" d="M611.219,685.783a32.457,32.457,0,0,0-5.176,4.9,36.11,36.11,0,0,1-4.1,5.245,3.582,3.582,0,0,0,1.213-.163s0,.461-.28.582a1.63,1.63,0,0,1,1.328.461,2.37,2.37,0,0,0-.816,3.335,3.587,3.587,0,0,0,2.542,1.374s-.4,1.143,1.259,1.026c3.567-.163,7.553-1.726,9.394-1.329,1.844.461,2.892.63,4.2,2.892,1.383,2.237,2.588,2.588,2.588,2.588a13.232,13.232,0,0,0,.63-5.176,15.393,15.393,0,0,0,1.1-5.245l-1.213-8.929-5.291-6.691-6.854,3.8-.513,1.328Z" transform="translate(-509.421 -575.622)" fill="#e3c571" fill-rule="evenodd"/>
          <path id="Path_35" data-name="Path 35" d="M704.64,510.627s.513,1.213,2.659,1.328a1.205,1.205,0,0,0-.163.979c.046.4.115.979.115.979a2.168,2.168,0,0,0,.63-.461c.117.513-.117,1.328,0,1.912a4.249,4.249,0,0,0,.349,1.025,2.083,2.083,0,0,1,.117-.232,9.168,9.168,0,0,0,1.609,2.305.957.957,0,0,1,.115-.461,1.618,1.618,0,0,0,.28.816.851.851,0,0,1-.232-.163,26.617,26.617,0,0,0,.745,5.6,2.615,2.615,0,0,0,.28-.4c0-.115-.046,1.027-.163,1.844a8.06,8.06,0,0,0-.046,1.958,6.12,6.12,0,0,1,1.374-.816,4.979,4.979,0,0,0,2.542-3.055,20.417,20.417,0,0,0,.933-3.333,4.655,4.655,0,0,1,.461,1.383c.048.582,1.143.28,1.143.28l.234-2.542L719,513.813l1.259-3.567,6.061-9.44,10.951-8.434,9.559,2.191,8.065-10.957L741,475.26l-13.149,1.375-11.933,16.528-9.557,14.991-1.726,2.471h0Z" transform="translate(-596.476 -401.795)" fill="#d8b65b" fill-rule="evenodd"/>
          <path id="Path_36" data-name="Path 36" d="M845.9,425.156a15.183,15.183,0,0,0-3.17,1.383c-2.354,1.22-3.986,1.607-4.9,3.4a8.818,8.818,0,0,0-.979,3.218,22.274,22.274,0,0,1,2.542-.933c.979-.232,2.075-.163,1.958.234a2.7,2.7,0,0,1-.461.745s1.844-.046,1.795.864a4.807,4.807,0,0,1-.7,2.354c-.35.461-1.795,1.143-1.958,1.68-.4,1.1.163,1.142-.048,2.027-.163.864-.931,2.542-3.45,5.479a29.407,29.407,0,0,0-3.688,5.013,31.969,31.969,0,0,1-1.912-4.383c-.461.232-2.937,1.607-2.937,1.607l-5.735-19.978.115-1.329a3.564,3.564,0,0,0,.63-1.795c-.862-.28-.979-.513-2.122-1.607s-2.075-2.425-3.985-3.335a2.534,2.534,0,0,0-2.029-1.492c-1.4-.281-2.238-.512-2.238-.512a2.439,2.439,0,0,0,1.1-.864,14.434,14.434,0,0,1-3.45.35,14.45,14.45,0,0,0-3.17.046c-1.048.163-2.305.63-2.774-.979-.513-.4-1.609-.046-2.542,1.328s-1.259,2.471-3.054,3.007a6.256,6.256,0,0,1-.816,2.238,25.6,25.6,0,0,1-2.425,3.007c-1.726,2.029-1.446,5.362-4.2,7.9-2.774,2.54.461-7.041.461-7.041l4.429-10.6L808.8,403.858l19.583-1.328,1.912,10.143,9.559,3.287,6.038,9.208h0Z" transform="translate(-668.956 -340.242)" fill="#d3ae4d" fill-rule="evenodd"/>
          <path id="Path_37" data-name="Path 37" d="M1034.168,427.6l-8.229-11.865-5.758-4.43s-4.1-7.552-4.383-7.785a54.277,54.277,0,0,0-6.574-.745l.461,1.142a3.026,3.026,0,0,1,1.383.933c1.1,1.259,1.795,3.636-.7,6.178a3.984,3.984,0,0,0,2.238.349c-.862,1.027-2.82,3.218-2.937,5.13a1.952,1.952,0,0,0,.862,2.027,7.761,7.761,0,0,0-1.561,4.61,18.68,18.68,0,0,1,2.305-2.191,59.8,59.8,0,0,1,5.712-3.917,3.29,3.29,0,0,0,.163,1.212s3.006-2.471,5.532-1.375c1.142.513.628,2.122.628,2.122a2.666,2.666,0,0,1,2.659.513,49.334,49.334,0,0,1,3.45,5.013,36.934,36.934,0,0,1,2.19,3.006,38.009,38.009,0,0,1,3.172,6.691c.046-.933.234-2.237,1.844-2.237l-2.448-4.383Z" transform="translate(-854.219 -340.445)" fill="#caa13e" fill-rule="evenodd"/>
          <path id="Path_38" data-name="Path 38" d="M368.724,644.392a8.035,8.035,0,0,1,0-4.266c.582-2.82,1.492-4.149,1.795-8.3s3.007-9.325,3.007-9.325l7.482-3.4,5.293,1.445,1.561,7.087-6.691,3.688a5.136,5.136,0,0,1-2.238,2.82c-1.889,1.259-4.5,2.238-5.128,3.521a10.264,10.264,0,0,0-.816,2.471,3.5,3.5,0,0,0-3.053.862,4.474,4.474,0,0,0-1.213,3.4Z" transform="translate(-311.648 -523.53)" fill="#f4efc8" fill-rule="evenodd"/>
          <path id="Path_39" data-name="Path 39" d="M357.26,534.5a3.406,3.406,0,0,0-1.1,1.383,28.081,28.081,0,0,1-1.609-9.162c-.046-3.986-.284-4.974.638-6.348s4.538-2.821,4.025-5.3c-.513-2.354-2.659-3.333-5.293-2.657-1.844.461-3.216,4.383-5.128,6.341-1.446,1.492-3.17,1.259-3.636,2.075-.63,1.1-.048,2.191-.234,2.891a13.949,13.949,0,0,1-1.68,3.007c-2.121,3.054-5.711,7.367-6.178,11.237a19.223,19.223,0,0,1,.63-4.663l-.35-.582,2.305-7.553,1.492-6.224,3.335-10.422,5.874-10.653,5.712-6.388,5.944.4.7,8.929,3.4,16.763,7.157,8.812L361.8,534.1l-4.546.4h0Z" transform="translate(-285.069 -415.522)" fill="#ebcc73" fill-rule="evenodd"/>
          <path id="Path_40" data-name="Path 40" d="M465.983,715.986a2.9,2.9,0,0,1-1.329.048c-.35-.186-.7-.4-.582-.63s.745-.629.745-.816a.653.653,0,0,0-.582-.7.633.633,0,0,0-.7.28,2.638,2.638,0,0,0-.931-.461,6.459,6.459,0,0,1,.745-.048,7.266,7.266,0,0,0-2.029-.582c.582-.349,1.726-1.375,2.471-1.375s1.213-.115,1.1-.512a2.376,2.376,0,0,0-1.328-1.212c.232-.28.4-.7-.163-1.844a2.214,2.214,0,0,1-.163-2.19,14.823,14.823,0,0,1,1.025-1.375,3.751,3.751,0,0,1,.979-1.212,12.248,12.248,0,0,1,1.726-.745c.816-.28,1.492-.63,1.958-.28a.639.639,0,0,1,.28.816,4.206,4.206,0,0,1,3.054.163,23.107,23.107,0,0,0,4.967,1.142l1.262,2.542-8.346,7.157-3.45,1.726-.7.115h0Z" transform="translate(-390.299 -593.846)" fill="#e5c66b" fill-rule="evenodd"/>
          <path id="Path_41" data-name="Path 41" d="M503.626,622.275a32.211,32.211,0,0,0-3.17,2.354c.349.048.931.281.7.63a37.622,37.622,0,0,0-2.891,2.7,17.831,17.831,0,0,0-2.237,3.287,11.822,11.822,0,0,1-3.916,2.7c1.912,0,5.758-2.354,7.2-2.354a1.421,1.421,0,0,0,1.213,1.561,9.058,9.058,0,0,0,6.341-1.445c3.17-1.912,2.122-3.335,3.45-4.266,2.542-1.68,3.567-3.172,4.965-4.1A9.07,9.07,0,0,1,517.4,622.2s.046-.7.461-.629a.627.627,0,0,1,.513.4,14.3,14.3,0,0,1,5.532-2.191.323.323,0,0,1-.163-.163s.232-.117.28-.234c0,0,.163-.234.28-.117s.28.979.513,1.329c.513-.234,1.492-2.425,1.492-2.425l2.356-6.737V605.28l-1.844.35L512.993,611.5l-8.394,8.7-.979,2.075Z" transform="translate(-416.406 -511.834)" fill="#e6bd62" fill-rule="evenodd"/>
          <path id="Path_42" data-name="Path 42" d="M723.085,491.644a7.818,7.818,0,0,0,2.128-.864,9.624,9.624,0,0,1-1.492,3.335,28.155,28.155,0,0,0-2.237,3.87c-.979,1.912-1.1,4.663-2.029,5.874a4.262,4.262,0,0,1,1.328-.395,6.153,6.153,0,0,0-1.328,1.678,7.968,7.968,0,0,1-2.82,3.754c-1.724,1.1-3.917,1.795-6.272,4.383-2.356,2.54-4.779,5.758-5.993,6.915a17.263,17.263,0,0,0,1.726-4.732c.234-1.445-.048-3.172.349-5.082a16.606,16.606,0,0,1,2.305-6.622c1.909-3.335,5.176-14.92,5.176-14.92l7.04-2.238,2.122,5.036h0Z" transform="translate(-596.183 -411.392)" fill="#b6933f" fill-rule="evenodd"/>
          <path id="Path_43" data-name="Path 43" d="M775.148,412.224a19.634,19.634,0,0,0-2.7,5.758c-.582,2.7-.048,2.471-.4,3.8a4.957,4.957,0,0,0,0,2.471,8.773,8.773,0,0,1,2.934-2.892,24.055,24.055,0,0,0,4.61-3.1c.979-1.1,1.795-2.891,3.916-4.266-.862-.117-2.075-.513-2.305-.461.864-.979,3.45-2.471,6.061-4.266,2.588-1.844,2.425-2.588,6.622-4.429-1.375.234-2.029-.117-3.172,0,.461-.979,2.075-1.446,3.688-3.053s-1.025-3.986-1.025-3.986l-12.294,7.436-5.944,6.994Z" transform="translate(-653.383 -336.239)" fill="#c49937" fill-rule="evenodd"/>
          <path id="Path_44" data-name="Path 44" d="M576,199.165l.28-2.238,3.521-5.641,3.684-9.907V167.833L583.2,160l.582-5.13.443-1.631.467-.63,3.006,1.561,4.151,5.641.4,10.888-4.034,17.181L576.7,200.448Z" transform="translate(-487.438 -128.729)" fill="#dfc068" fill-rule="evenodd"/>
          <path id="Path_45" data-name="Path 45" d="M381.8,148.192s-1.844.048-2.238,7.718-.584,11.7-.864,15.5a83.319,83.319,0,0,1-1.259,8.346c-.327,2.239-.513,5.291-1.561,7.157a16.456,16.456,0,0,1-3.754,5.6,23.138,23.138,0,0,1-7.04,3.917c-1.027.232-6.225.745-8.346,1.912a12.687,12.687,0,0,0-3.45,2.191,44.027,44.027,0,0,0-9.279,12.565c-4.149,8.183-8.3,31.285-8.3,31.285l.933-1.561s.117-2.075,2.191-5.712c2.029-3.636,1.446-7.716,4.266-14.687a80.064,80.064,0,0,1,4.149-9.045c2.659-4.779,5.875-8.882,9.116-11.12a28.815,28.815,0,0,1,11.12-4.429l6.272-4.149s1.1-2.121,2.542-4.546c2.027-3.4,4.61-7.2,5.174-12.727.864-8.183-1.212-13.545-1.1-18.393s.163-8.415,1.143-9.279.28-.536.28-.536h0Z" transform="translate(-283.927 -124.941)" fill="#a88f33" fill-rule="evenodd"/>
          <path id="Path_46" data-name="Path 46" d="M632.116,183.142a89.037,89.037,0,0,0,4.032-12.846c.234-1.212.7-2.423.816-3.4.582-5.712.745-8.066,0-11.191-.582-2.305-2.82-4.383-3.986-5.993-1.142-1.68-1.678-2.305-1.445-2.659a2.583,2.583,0,0,1,2.027-.862,6.941,6.941,0,0,1,4.967,2.305c1.795,2.075,3.216,9.116,3.216,9.116l1.5,9.291,3.8,11.7-14.92,4.547h0Z" transform="translate(-534.431 -123.289)" fill="#c99e3d" fill-rule="evenodd"/>
          <path id="Path_47" data-name="Path 47" d="M683.685,181.876a2.366,2.366,0,0,1-1.445,0,2.079,2.079,0,0,1-.933,1.958c-.979-.4-10.143.4-10.143.4s-4.266-.747-5.6-6.388c-.931-3.754.7-8.929.163-12.332-.816-5.013-1.958-5.993-2.075-7.553s-.234-1.958-.234-2.937a5.407,5.407,0,0,0-1.328-.28c-.117-.461.115-.864-.4-1.68a9.275,9.275,0,0,1,4.429,2.471,8.342,8.342,0,0,1,2.122,2.7,21.671,21.671,0,0,1,4.383,5.176c1.212,2.41,3.567,10.093,4.1,11.352a8.361,8.361,0,0,0,1.383,2.191c1.352,1.68,3.333,4.457,5.571,4.918h0Z" transform="translate(-560.041 -129.109)" fill="#b58634" fill-rule="evenodd"/>
          <path id="Path_48" data-name="Path 48" d="M706.47,187.5a64.6,64.6,0,0,1,3.8,7.088c1.375,3.1,2.191,5.641,3.917,7.716-.933-2.7-2.588-8.019-3.567-9.907a22.714,22.714,0,0,0-4.149-4.895h0Z" transform="translate(-597.937 -158.257)" fill="#a88f33" fill-rule="evenodd"/>
          <path id="Path_49" data-name="Path 49" d="M471.732,436.892A34.072,34.072,0,0,0,465,439.782c-1.446.745-2.82,1.374-4.149,1.958a72.415,72.415,0,0,1-10.095,3.8c.234.28.349.395.349.395a2.937,2.937,0,0,0,.63,1.795c-.349.35-5.013,3.521-3.636,14.127.931-.349,2.027-.816,2.19-.816.281.048.35.816.7.816s1.492-.461,2.7-2.029c-.046.63-.745,6.971,3.007,11.237.7-.816,2.471-3.521,2.471-3.521l.046-.862a23.4,23.4,0,0,1,1.143-5.758,15.308,15.308,0,0,1,2.891-4.779l9.975-14.244-1.492-5.011h0Z" transform="translate(-378.89 -369.322)" fill="#e6c367" fill-rule="evenodd"/>
          <path id="Path_50" data-name="Path 50" d="M533.723,388.992a5.51,5.51,0,0,1-1.492.745,5.768,5.768,0,0,1,.979-4.546c1.609-2.356,5.128-5.409,6.107-7.837.63-1.563.35-5.479,5.946-10.491s7.785-6.737,7.785-6.737l9.045-4.546,11.12,4.383-5.525,21.653L563.4,391.758l-17.058-3.216-12.62.45h0Z" transform="translate(-450.295 -300.507)" fill="#dcba5a" fill-rule="evenodd"/>
          <path id="Path_51" data-name="Path 51" d="M585,451.981l2.122-2.657v-1.889a12.059,12.059,0,0,0,4.895-3.218c2.54-2.588,6.061-7.553,9.162-7.25,3.1.35,3.4,6.737,3.521,8.534a49.047,49.047,0,0,0,1.142,8.066c.7,2.191-7.553,10.49-7.553,10.49l-5.6,4.266L585,451.981Z" transform="translate(-495.068 -369.376)" fill="#e9ce77" fill-rule="evenodd"/>
          <path id="Path_52" data-name="Path 52" d="M627.73,551.472s1.726-2.7.461-3.287a19.935,19.935,0,0,1,2.121-3.45,17.419,17.419,0,0,1,4.149-5.408c3.17-2.984,5.13-4.967,5.643-6.971a18.365,18.365,0,0,0,.513-3.986,7.573,7.573,0,0,0,1.1.745c.513.234,2.937,2.237,2.588,6.271s-1.844,5.712-1.844,5.712a27.428,27.428,0,0,1-2.47,2.191c-1.1.745-1.492,1.607-3.335,1.678a2.2,2.2,0,0,1,.63-.35,4.285,4.285,0,0,0-2.938.7c-1.027.931-3.209,3.8-4.3,4.664-1.1.7-2.305,1.492-2.305,1.492h0Z" transform="translate(-531.256 -446.743)" fill="#cdae50" fill-rule="evenodd"/>
          <path id="Path_53" data-name="Path 53" d="M749.414,348.692a28.075,28.075,0,0,0-8.578-1.678c-4.9-.163-12.053.117-19.07.163-7.553.046-14.407-2.588-23.918-3.054-1.561-.933-5.532-5.013-17.928,3.636.745-.046,9-1.912,11.865,1.68,2.891,3.567,2.075,9.628,1.68,11.072-.747,3.218-3.172,7.9-4.149,11.191s-.747,5.014-1.446,7.32-2.237,3.45-1.329,6.107c1.213-.745,1.844-.745,3.87-5.291s1.609-7.787,4.967-11.633c3.287-3.87,8.759-9.162,10.84-10.491s18.6-9.908,35.9-1.724c4.172-.443,7.3-7.3,7.3-7.3h0Z" transform="translate(-575.584 -289.307)" fill="#d2a83e" fill-rule="evenodd"/>
          <path id="Path_54" data-name="Path 54" d="M607.77,351.963a2.136,2.136,0,0,0-.115-.513,3.743,3.743,0,0,0-.63-.933,29.916,29.916,0,0,0-6.178-.513c-3.638.4-6.925,4.9-8.463,7.2s-3.45,5.873-5.525,7.716a.769.769,0,0,0-.117-.513s.117.163-.115.4-.234.349-.117.461l.35.349c.115,0,3.333-1.446,7.716-5.532,4.662-4.266,8.229-6.454,10.095-7.2a14.2,14.2,0,0,1,3.1-.917h0Z" transform="translate(-496.284 -295.749)" fill="#c29637" fill-rule="evenodd"/>
          <path id="Path_55" data-name="Path 55" d="M1104.391,248.94s-.747.931-1.68,1.958c-2.075,2.191-4.779,4.661-7.088,7.2-2.19,2.425-4.661,4.314-7.436,7.484s-5.993,6.69-6.808,7.716a7.6,7.6,0,0,0-1.328,3.567c-.4-.28-.862-.582-.862-.582a5.859,5.859,0,0,0,.7,1.027c.583.816,1.491,1.844,1.958,2.471a7.529,7.529,0,0,1,1.211,2.657c.28.046,2.075.4,4.314-3.287s5.174-7.716,5.174-7.716l4.662-6.925,2.938-5.873,3.688-6.574.561-3.124h0Z" transform="translate(-913.694 -210.255)" fill="#ac8132" fill-rule="evenodd"/>
          <path id="Path_56" data-name="Path 56" d="M1232.4,218.3a35.532,35.532,0,0,0-3.917,3.688c-1.1,1.383-3.688,5.013-3.688,5.013l.933-.117,4.733-4.2,1.844-3.287.094-1.1Z" transform="translate(-1036.969 -184.324)" fill="#a88f33" fill-rule="evenodd"/>
          <path id="Path_57" data-name="Path 57" d="M1268.592,1188.234a4.868,4.868,0,0,1,1.026-3.054,22.181,22.181,0,0,0,6.574-9.116,59.892,59.892,0,0,0,3.006-7.716s-4.849,4.149-7.837,5.128c.7-1.446,1.1-2.471,1.446-3.218-.4-.349-2.074-.745-2.237-.931.931-.933,1.444-3.218,3.333-4.733,2.425-1.844,6.854-5.013,10.3-7.838s10.21-9.394,11.074-11.306a4.219,4.219,0,0,1,.629,1.211s-3.4,4.43-5.174,7.25c-1.563,2.425-1.446,3.8-1.446,3.8l3.218-1.383s.931,3.45-3.287,8.7c1.844-.7,2.588-.28,3.636-.864a16.344,16.344,0,0,0-6.341,6.691c-2.192,4.1-5.176,8.882-10.21,11.865a84.646,84.646,0,0,0-7.718,5.5h0Z" transform="translate(-1074.13 -968.993)" fill="#a67a2e" fill-rule="evenodd"/>
          <path id="Path_58" data-name="Path 58" d="M1137,310.591a25.725,25.725,0,0,0-2.191,7.086c-.046.747-.234,1.329-.234,2.191-.046,2.774.163,5.875-.461,7.32a3.866,3.866,0,0,0-.584-1.211c-.349.979-.979,4.032-1.492,5.174a24.323,24.323,0,0,1-.7-6.387c.047-3.053.115-3.637.115-4.266a18.69,18.69,0,0,1-.979,2.937c-.349-.629-.745-1.445-1.213-2.121a13.2,13.2,0,0,1-.931,1.492c-.048-.28-.163-1.027-.234-2.075a29.538,29.538,0,0,1-.046-3.1,14.048,14.048,0,0,1,3.17-5.362c2.471-2.7,5.013-7.9,5.758-9.511s3.916-8.3,3.916-8.3h2.425l-3.521,8.019s-2.121,4.383-3.216,5.993-3.4,6.225-4.43,8.02c.745-.979,1.375-1.492,2.122-2.425a38.386,38.386,0,0,0,2.726-3.473h0Z" transform="translate(-955.029 -248.78)" fill="#8c6228" fill-rule="evenodd"/>
          <path id="Path_59" data-name="Path 59" d="M1213.359,216.32a10.04,10.04,0,0,1-1.844,3.335c-1.446,1.726-4.547,4.032-6.061,5.874a15.882,15.882,0,0,0-2.892,12.5,20.955,20.955,0,0,1,3.637-6.574,50.442,50.442,0,0,0,5.993-8.578,14.426,14.426,0,0,0,1.374-4.546l.461-.582-.28-1.329-.4-.094Z" transform="translate(-1017.884 -182.648)" fill="#cba94c" fill-rule="evenodd"/>
          <path id="Path_60" data-name="Path 60" d="M1421.772,614.641a25.456,25.456,0,0,1-1.212-4.848c-.28-2.308.461-2.766-.4-5.408-.513-1.609-1.444-1.383-1.678-1.609a13.722,13.722,0,0,1-.35-3.986,14.926,14.926,0,0,0-.28-3.8c-.349-.28-.583-.513-1.1-2.238a24.693,24.693,0,0,0-1.142-3.1c-.28-.512-1.1-.979-1.1-1.492,0-1.027.933-1.561.933-1.844-.046-.582-.745-.115-.933-.28-.232-.28.584-1.958.281-2.191-.117-.115-.933.864-1.143.584-.234-.281-.513-3.055-.933-4.9-.4-1.795-.816-3.1-.862-3.636-.046-.513-3.218-9.559-3.986-11.75a55.569,55.569,0,0,1-1.561-5.641,29.09,29.09,0,0,0-.513-3.1c-.117.234-.046,1.375-.234,1.329-.163-.048-.745-4.033-.931-4.663a32.413,32.413,0,0,1-1.383-4.312c-.234-1.563-.745-5.643-1.1-8.417s-.513-3.916-.513-4.61a28.734,28.734,0,0,0-.28-5.082,47.356,47.356,0,0,0-2.192-8.578c-1.561-3.917-5.712-13.941-6.454-16.436,0-.63.816-.28.816-.28s2.027,5.082,3.519,9a60.334,60.334,0,0,0,3.172,7.718,28.966,28.966,0,0,1,3.45,10.49c.979,6.295,1.328,12.1,1.912,15.968a41.506,41.506,0,0,0,1.1,5.758c.628,2.122,1.607,4.314,2.891,7.67a50.736,50.736,0,0,1,2.354,7.2c.513,2.588.513,4.546.816,5.829.281,1.1.7,3.286,1.68,6.454s2.423,7.25,3.4,9.791a54.194,54.194,0,0,1,3.055,11.587c.255,2.331,1.119,10.4.885,12.821h0Z" transform="translate(-1179.482 -426.337)" fill="#a88f33" fill-rule="evenodd"/>
          <path id="Path_61" data-name="Path 61" d="M1253.733,213.23l-.117.28a.492.492,0,0,1,.28.584,13.961,13.961,0,0,1-.117,1.912c-.115.816-.349,1.445-.4,1.958,0,1.1.163,2.354-1.383,5.479-.461.862-.745,1.607-.979,2.121a6.284,6.284,0,0,1-1.213,2.029c.816-.461,3.754-2.305,5.245-2.029a10.938,10.938,0,0,0-3.567,3.218,8.02,8.02,0,0,0,2.766,0c2.588-.4,5.479-1.329,8.019-1.143,2.775.163,1.68-3.333,1.68-3.333l-3.2-7.04L1254.689,213l-.956.232Z" transform="translate(-1058.184 -179.838)" fill="#be9c44" fill-rule="evenodd"/>
          <path id="Path_62" data-name="Path 62" d="M1291.272,245.421s-2.7-2.7-3.8-11.987a215.747,215.747,0,0,1-.862-23.051l-2.191-5.362s-.461-3.567-1.609-4.895-3.4-3.567-4.429-4.663-2.191-2.588-2.891-2.821c.349-.582,1.912-3.87,7.9-3.916s7.837,3.287,8.463,4.5,3.45,6.454,4.5,16.443c.979,9.977,1.026,10.724.864,14.174a80.254,80.254,0,0,1-1.844,11.072c-1,4.011-2.1,8.487-4.1,10.514Z" transform="translate(-1079.963 -159.295)" fill="#a17c34" fill-rule="evenodd"/>
          <path id="Path_63" data-name="Path 63" d="M1317.522,591.277a4.578,4.578,0,0,0,2.588-.584,7.281,7.281,0,0,0,6.387-2.7,5.448,5.448,0,0,1-.513,4.266,9.774,9.774,0,0,1,1.563-.979c.046.862.862,3.519-2.588,9.977a4.072,4.072,0,0,1,3.006-1.1c.048,1.212.7,5.291-1.025,7.484a3.037,3.037,0,0,1-3.007,1.025,5.865,5.865,0,0,0,0-.979c-.046-.63-.28-1.259-.115-1.678a8.364,8.364,0,0,1-2.425-1.68c-2.028-1.912-4.662-5.174-4.848-7.6a3,3,0,0,1,2.191-3.287,2.6,2.6,0,0,1-.513-.63,3.538,3.538,0,0,0-.7-1.537Z" transform="translate(-1114.687 -497.201)" fill="#8c6228" fill-rule="evenodd"/>
          <path id="Path_64" data-name="Path 64" d="M1201.9,313.621s-.117-.163-.745.582c.117-.745.233-1.446.28-2.122a7.318,7.318,0,0,1,1.144-1.724c-.351.7-.584,1.328-.584,1.328a9.393,9.393,0,0,1,2.122-2.588c.862-.7,1.958-1.025,2.424-1.678a4.306,4.306,0,0,0,.513-.933,14.5,14.5,0,0,0,2.892-2.938c.232-.28.583-.582.816-.862.395-.163,1.328-.582,2.424-1.143,1.143-.629,2.425-1.491,3.218-1.844,1.561-.7,3.218-.629,3.986-1.726.583-.163,1.211-1.912,1.1-3.4a14.119,14.119,0,0,1,6.808,9.115c1.1,4.266-.864,10.84-1.68,14.012s-.931,5.525-2.074,6.969c-1.446,1.913-6.107,4.61-7.25,5.946-.979,1.1-3.916,3.87-3.8,5.873.117,1.492,1.958,2.305,2.356,2.588s.4.63,1.142.461,1.025-.513,1.329-.513c.349.046.349.117.512.117a1.685,1.685,0,0,0,.35-.048s-.117,2.122-5.082,2.766c-.35.048-.7.163-1.144.234a2.843,2.843,0,0,0,1.563-1.142c-.7-.117-2.7-.234-3.218-.4a6.207,6.207,0,0,1,1.142-1.375c.4-.349-.046-.461-.4-.28a18.656,18.656,0,0,0-1.726,1.328,16.8,16.8,0,0,1-2.029,1.844,4.545,4.545,0,0,1,.864-3.986c-.281.046-.818.862-1.329.7a7.427,7.427,0,0,1,.163-2.542,11.631,11.631,0,0,1,1.795-2.891l7.32-13.079,1.562-9.908-16.762,3.256h0Z" transform="translate(-1017.012 -248.873)" fill="#92723a" fill-rule="evenodd"/>
          <path id="Path_65" data-name="Path 65" d="M1170.3,411.5s-.4.28.4.816a8.893,8.893,0,0,1-.747,1.142c-.395.461-.816.747-.979,1.143a6.368,6.368,0,0,0-.629,1.726,8.5,8.5,0,0,1-1.1,4.032,17.221,17.221,0,0,0-1.027,1.958,14.511,14.511,0,0,0-1.212,2.305,24.14,24.14,0,0,0-.4,3.054s.513-.63.7-.862a6.558,6.558,0,0,1-1.026,1.678c.28-.234,1.1-.816,2.471-2.029a61.342,61.342,0,0,1,8.534-6.454,12.473,12.473,0,0,1-2.774.513c.582-.582,5.827-6.737,8.578-7.32a1.1,1.1,0,0,0,.234-.747l-2.356-.232-4.779,1.025-.7-3.688-3.195,1.935Z" transform="translate(-985.753 -346.192)" fill="#b18e3e" fill-rule="evenodd"/>
          <path id="Path_66" data-name="Path 66" d="M1206.257,411.06a6.473,6.473,0,0,0-1.212,2.191,7.351,7.351,0,0,1-1.143-1.563c-.862-1.445-2.19-3.287-5.291-2.238a9.764,9.764,0,0,1,0-2.191,12.077,12.077,0,0,0,3.636-3.216,14.885,14.885,0,0,0,2.822-4.546c.461-.35,1.258-.933,2.305-1.609,1.492-1.025,3.287-2.425,3.567-3.986a9.531,9.531,0,0,1-4.431.864c.864-.4,2.192-.816,2.029-2.542.35-.234.63-.4.63-.4a2.305,2.305,0,0,0-.816-.117c-.048-.163-.117-.395-.513-.28s-.461.117-.513.28a2.479,2.479,0,0,0-1.1.281,16.885,16.885,0,0,1-1.912,1.374c.163-.28.395-.7.395-.7a8.1,8.1,0,0,0-1.958.461,40.69,40.69,0,0,0-4.965,2.354c.163-.28.234-.461.349-.513s.4-.115.4-.163a1.688,1.688,0,0,1-.046-.629,21.392,21.392,0,0,1,1.844-3.17,6.177,6.177,0,0,0,.979-2.659l3.567-1.795,10.024-2.305,6.505.4-.816,4.5L1216.75,397l-3.287,7.157-3.754,4.384-3.45,2.517h0Z" transform="translate(-1014.152 -324.771)" fill="#543e26" fill-rule="evenodd"/>
          <path id="Path_67" data-name="Path 67" d="M1226.321,366.681s-3.917,4.848-5.013,5.6c.7-1.492,5.013-10.375,6.574-12.846-.349-.28-.816-.28.28-4.61-.931,2.19-1.259,3.333-2.027,3.916a1.444,1.444,0,0,1-1.383.4.975.975,0,0,0,.115-.582s-3.287-.4-5.532-.4a33.027,33.027,0,0,0-9.162,2.191c-1.958.816-3.054.816-3.753,1.328-.7.582-1.1,1.212-1.446,1.375-.28.163-1.607.582-1.912,1.025-.28.461-.745.979-.745,1.1s-.117.281.234.163c.115-.046.979-.513,1.958-1.1,1.328-.745,2.937-1.607,4.1-2.121a19,19,0,0,1,5.874-1.375,36.6,36.6,0,0,1,5.291-.933,44.38,44.38,0,0,1,4.967.117c-.28.234-.513.513-.4,1.492a7.276,7.276,0,0,1-.461,1.259c-.7,1.912-2.027,5.082-2.766,6.691-1.025,2.19-2.19,4.032-2.766,5.174a37.651,37.651,0,0,1-3.1,5.758c-1.255,1.609-1.912,2.588-2.305,2.938s-3.218,2.423-3.007,3.17a15.567,15.567,0,0,0,6.107-4.032c2.353-2.649,2.821-4.266,4.662-5.712a15.58,15.58,0,0,0,4.149-5.873c.722-1.866.559-2.448,1.468-4.1h0Z" transform="translate(-1017.979 -299.864)" fill="#806031" fill-rule="evenodd"/>
          <path id="Path_68" data-name="Path 68" d="M781.2,665.161a7.323,7.323,0,0,1-1.68,3.17c-1.142,1.027-3.17,1.912-3.4,3.638-.28,1.724,2.028,2.588,2.028,2.588a8.969,8.969,0,0,0-1.26,3.636,24.062,24.062,0,0,0,.117,3.45,1.536,1.536,0,0,0-.461.461,3.8,3.8,0,0,0,1.259,2.423c1.143.931,2.121,1.492,2.7,1.259a5.514,5.514,0,0,1,.234.584s.864-2.191,1.446-4.1c.582-1.958,1.1-1.68,1.328-4.314s2.766-7.157,2.766-7.157l1.729-3.865-2.82-2.191-3.986.42Z" transform="translate(-656.922 -562.157)" fill="#b6903c" fill-rule="evenodd"/>
          <path id="Path_69" data-name="Path 69" d="M811.729,692.2a16.965,16.965,0,0,0-1.606,1.912,5.6,5.6,0,0,1-2.423,2.356c-1.1.4-1.795.395-1.726,1.492s1.1,1.561,1.678,2.121a2.728,2.728,0,0,1,.864,2.659,2.666,2.666,0,0,0,1.561-1.609c.582-1.259,4.656-8.929,4.656-8.929h-3Z" transform="translate(-682.219 -585.397)" fill="#685026" fill-rule="evenodd"/>
          <path id="Path_70" data-name="Path 70" d="M825.094,544.983a2.3,2.3,0,0,0,0-1.607c-.35-.7-2.471-.933-3.521-1.726a4.171,4.171,0,0,0-3.521-1.025c.163-.4.816-1.26.28-1.446-.513-.163-2.423.7-2.937,1.1s-1.68.862-1.912,1.143-.63.816-.864.582c-.234-.163-.349-.582-.745-.35a9.475,9.475,0,0,0-2.657,2.7A13.838,13.838,0,0,1,805.7,549.6c-2.377,2.307-3.4,3.8-2.7,4.663s1.026.234,1.143.979a6.287,6.287,0,0,1-.117,2.191c-.28,1.212-.745,2.354-.117,2.588,1.609.513,3.172-.461,3.521-.163.7.629-.4,2.891,1.259,3.333a5.145,5.145,0,0,0,3.335-.4l6.107-3.287,5.875-3.1L827,550.461l-1.612-4.965-.307-.513Z" transform="translate(-679.547 -455.874)" fill="#d4b968" fill-rule="evenodd"/>
          <path id="Path_71" data-name="Path 71" d="M908.329,569.533a2.449,2.449,0,0,1,.234-2.938c1.26-1.377,3.053-1.958,3.753-2.82a1.075,1.075,0,0,0-.513-.349,4.642,4.642,0,0,1,2.028-1.913,1.94,1.94,0,0,0-1.328-.629c-1.143,0-1.844.7-2.892.7-1.025,0-1.142-.513-1.142-.513s1.726-.163,1.561-.933c-.163-.816-.461-.816-.461-.816s3.333-1.383,3.916-2.121a4.263,4.263,0,0,0,.63-1.958c.395,0,2.7-1.213,3.636-.7s.28,1.912.28,1.912a22.982,22.982,0,0,0,4.261-4.2c1.259.117,1.844-.862,2.766-.862,1.143,0,2.938,1.561,3.287,4.895a20.932,20.932,0,0,1,.234,6.388,29.475,29.475,0,0,0,.461,8.019c.395,1.609,1.328,1.446,1.328,1.446a2.613,2.613,0,0,1-.816,1.259,3.9,3.9,0,0,0-.63,2.7,11.494,11.494,0,0,0,.35,1.259,5.829,5.829,0,0,0-.933,1.446,1.637,1.637,0,0,1-1.492.979,7.241,7.241,0,0,0-1.025,0c-.745.048-.979.163-1.446,0s-.816-.35-.629-1.844c.163-1.492-5.758-4.965-5.758-4.965l-9.682-3.45h0Z" transform="translate(-768.62 -466.226)" fill="#cca849" fill-rule="evenodd"/>
          <path id="Path_72" data-name="Path 72" d="M838.1,715s2.121,2.821,10.84,2.821a21.936,21.936,0,0,0,6.454-.63c.933-.234,4.429-1.607,7.95-5.758,3.17-3.753,2.471-5.291,2.471-5.291l-1.844-.28-5.993.816-17.734,7.553L838.09,715Z" transform="translate(-709.469 -596.958)" fill="#585136" fill-rule="evenodd"/>
          <path id="Path_73" data-name="Path 73" d="M838.863,685.255s-7.553,1.68-7.553-3.1c0-4.663,4.663-9.559,5.829-10.421a21.892,21.892,0,0,1,4.1-1.844h6.971l1.328,3.521-.582,7.6-10.1,4.243Z" transform="translate(-703.703 -566.515)" fill="#252211" fill-rule="evenodd"/>
          <path id="Path_74" data-name="Path 74" d="M866.081,676.546s-1.444-1.329-4.732.461-5.946,5.532-6.109,8.93c-.163,3.006,2.471,5.245,6.574,5.362a20.9,20.9,0,0,0,5.829-.461c-.234-.28-1.446-1.795-1.446-1.795l-.115-12.5h0Z" transform="translate(-723.955 -571.746)" fill="#c3b378" fill-rule="evenodd"/>
          <path id="Path_75" data-name="Path 75" d="M872.359,683.615s-.349-.28-1.383.28a22.63,22.63,0,0,0-3.1,2.542,12.584,12.584,0,0,0-1.383,1.142c-1.446,1.726-2.659,4.547-1.958,5.946s3.007,3.007,8.882,1.912l-1.076-11.819h.017Z" transform="translate(-731.653 -578.072)" fill="#e6d89c" fill-rule="evenodd"/>
          <path id="Path_76" data-name="Path 76" d="M874.213,665.724a7.424,7.424,0,0,0-.933,3.754,6.182,6.182,0,0,0,6.225,6.387c3.753.234,6.27-5.408,9-7.6,2.075-1.678,3.333-1.726,3.333-1.726s-2.121-2.305-7.785-5.291c-5.6-3.007-11.867-3.4-15.271,1.212,1.609-.117,6.808-1.446,6.808-1.446l2.542.816-3.917,3.894h0Z" transform="translate(-735.454 -557.288)" fill="#252211" fill-rule="evenodd"/>
          <path id="Path_77" data-name="Path 77" d="M944.9,698.426c-.163-.349-.28-.816.4-.931s.979-.048,1.213.461.461.933.115,1.143a1.613,1.613,0,0,1-1.726-.676Zm-1.1-3.287s-.234.163-.117-.163c.046-.395.35-1.1,1.1-.931s.584.979.461,1.212a1.211,1.211,0,0,1-1.212.461.389.389,0,0,1-.234-.582Z" transform="translate(-798.831 -586.937)" fill="#6f674d" fill-rule="evenodd"/>
          <path id="Path_78" data-name="Path 78" d="M534,669.53a7.209,7.209,0,0,0,3.986,1.329c2.121-.048,4.849-2.237,6.107-3.638.745-.816,1.383-1.678,2.075-2.354a12.367,12.367,0,0,0,1.259-1.259c.4-.461.816-1.328,1.026-1.609a21.359,21.359,0,0,1-2.029,1.563,24.005,24.005,0,0,1-3.007,1.561c-.629.234-7.157,3.688-7.157,3.688L534,669.53Z" transform="translate(-451.859 -559.838)" fill="#ac924c" fill-rule="evenodd"/>
          <path id="Path_79" data-name="Path 79" d="M552.34,588.119a9.391,9.391,0,0,1,3.007-1.143,56.12,56.12,0,0,1,5.758-.816l3.17,1.383,1.259,4.779-2.305,4.967-2.937,1.844-3.335-5.362-4.61-5.643h0Z" transform="translate(-467.392 -495.652)" fill="#9f8e57" fill-rule="evenodd"/>
          <path id="Path_80" data-name="Path 80" d="M519.3,545.037l-1.1.819a7.128,7.128,0,0,0,.513-2.075,19.212,19.212,0,0,1,3.218-7.553,23.9,23.9,0,0,1,1.726-2.075,1.167,1.167,0,0,0-.933.232,11.165,11.165,0,0,1,3.218-3.282c1.492-.922,2.075-1.212,3.636-.461s1.958,1.142,3.1,1.1a3.5,3.5,0,0,0,2.121-1.259s.234.745-.629,2.471-4.266,5.245-4.266,5.245l-7.088,4.849-3.521,2h0Z" transform="translate(-438.479 -448.304)" fill="#eac970" fill-rule="evenodd"/>
          <path id="Path_81" data-name="Path 81" d="M559.426,541.33s5.13.7,6.691-.745c.046.163.234.163.234.28a.408.408,0,0,1-.117.232,3.748,3.748,0,0,1,.513-.046,3.024,3.024,0,0,0,.63.117,3.635,3.635,0,0,0,.513-.048.872.872,0,0,1-.35.584c.234,0,.461.046.461.232s.046.747-.234.864a1.057,1.057,0,0,1-.7-.048,2.877,2.877,0,0,0,.35,1.26,2.631,2.631,0,0,0,2.766,1.561s.7,1.678-2.239,5.408c-.4.513-.816,1.212-1.328,1.795a6.8,6.8,0,0,0-.461,1.375s4.967-1.912,6.388-6.271a32.931,32.931,0,0,0,1.446-12.727,6.554,6.554,0,0,0-.513-2.542c-.7-1.446-2.659-1.213-3.45-.4-1.143,1.143-3.055,3.986-5.712,5.944-2.7,1.958-2.82,2.305-4.9,3.172h0Z" transform="translate(-473.391 -449.446)" fill="#d7bc6b" fill-rule="evenodd"/>
          <path id="Path_82" data-name="Path 82" d="M510.405,634.4s-.979.582-1.492,2.766A9.039,9.039,0,0,0,509.938,643c.564.862,1.844,3.218,4.5,3.335a4.934,4.934,0,0,0,1.912-.4,12.1,12.1,0,0,0,2.588-1.609c1.143-.862,2.075-1.607,1.958-1.678-.28-.117-7.04-5.712-7.04-5.712l-2.542-2.837-.91.307Z" transform="translate(-430.484 -536.225)" fill="#585136" fill-rule="evenodd"/>
          <path id="Path_83" data-name="Path 83" d="M546.748,659.609a5.917,5.917,0,0,0,2.191-.629c.816-.513-4.779-6.061-4.779-6.061l.4,5.993Z" transform="translate(-460.452 -552.153)" fill="#453a25" fill-rule="evenodd"/>
          <path id="Path_84" data-name="Path 84" d="M518.322,616.126a8.074,8.074,0,0,0-.7,1.68,29.4,29.4,0,0,0,.513,5.874,4.255,4.255,0,0,0,3.754,3.053,5.315,5.315,0,0,0,2.891-.931c0-.234-1.726-.461-2.191-1.329a7.839,7.839,0,0,1-.461-2.766c-.046-.745-.046-1.561.234-1.844a5.994,5.994,0,0,0,.745-2.7L525.345,613H522.4l-3.521,2.191Z" transform="translate(-437.959 -518.368)" fill="#84754b" fill-rule="evenodd"/>
          <path id="Path_85" data-name="Path 85" d="M516.69,603.021s2.305-3.054,4.383-3.754,3.007-.28,3.007-.28l-1.213,3.1L521.142,604l.117.979a5.974,5.974,0,0,0,1.445,4.383,4.516,4.516,0,0,0,3.754,1.726,4.888,4.888,0,0,0,3.986-3.218c.979-2.423,1.795-5.532-.163-8.649A7.044,7.044,0,0,0,524.335,596c-.653,0-5.781.257-7.645,7.017h0Z" transform="translate(-437.197 -503.98)" fill="#252211" fill-rule="evenodd"/>
          <path id="Path_86" data-name="Path 86" d="M899.83,680.024c-.862-.4-.046-2.82.816-3.567a6.076,6.076,0,0,1,3.871-1.726c.7-.046,1.374.4,1.259.864-.163.862-1.375,2.075-2.471,2.937C901.789,679.722,900.808,680.467,899.83,680.024Z" transform="translate(-761.405 -570.61)" fill="#f7f7e7" fill-rule="evenodd"/>
          <path id="Path_87" data-name="Path 87" d="M590.232,623.164a1.664,1.664,0,0,1,1.609,1.143c.163.745-.4,2.237-1.609,2.237-.979,0-1.492-1.212-1.492-1.561a1.782,1.782,0,0,1,.234-.816A1.333,1.333,0,0,1,590.232,623.164Z" transform="translate(-498.21 -526.967)" fill="#f8f6de" fill-rule="evenodd"/>
          <path id="Path_88" data-name="Path 88" d="M523.214,626.67a5.414,5.414,0,0,0-2.354,2.305,6.117,6.117,0,0,0-.461,3.688,9.028,9.028,0,0,0,1.1,2.54,1.756,1.756,0,0,0,1.329.816,2.356,2.356,0,0,0,1.211-1.724,12.293,12.293,0,0,1,.816-4.733c.676-1.445-1.632-2.891-1.632-2.891h0Z" transform="translate(-440.238 -529.937)" fill="#d4c38b" fill-rule="evenodd"/>
          <path id="Path_89" data-name="Path 89" d="M537.241,615.888c-.28.163-.745.4-.63.7.117.28,1.1.461,1.446,1.143a2.442,2.442,0,0,1,.28,1.795,2.838,2.838,0,0,0,.816-.584c.513-.582,1.142-1.374,1.678-1.374.35,0,.7.163,1.026.163.513,0,1.025-.163,1.1-.7.115-.7-.979-1.329-1.609-1.213a1.529,1.529,0,0,0-.234-1.609c-.513-.467-2.121.35-2.471.584s-1.4,1.1-1.4,1.1h0Z" transform="translate(-454.045 -519.271)" fill="#e2d59d" fill-rule="evenodd"/>
          <path id="Path_90" data-name="Path 90" d="M697.9,939.019l3.45-1.019.979.7s.7,1.492,1.8,1.678c-.35.745-1.26,1.383-1.213,1.912a1.615,1.615,0,0,0,.513.933s-3.1,5.128,3.007,10.3c-1.446.582-3.287,1.383-4.266,1.844a7.548,7.548,0,0,1,2.82,1.027c.63.565.63.745,1.213,1.1s.931.816.816,1.025c-.4-.234-1.726-.931-1.958-.28s-5.758.4-5.758.4l-9.325,1.8a1.685,1.685,0,0,0-.63-1.8c-1.142-1.025-2.54.046-4.032-1.1-1.958-1.492-2.029-3.218-2.657-3.87.629-.4,1.912-.979,4.965-1.383a2.056,2.056,0,0,1-.28-1.561c.28-.816,1.444-1.329,1.1-2.305.513-.117.745-.117,2.028-1.726,1.213-1.609,1.958-1.958,2.891-2.075s1.492,0,3.218-1.609c1.211-1.142.816-2.121.816-2.121s.791-.257.513-1.865h0Z" transform="translate(-577.791 -793.423)" fill="#cbac5a" fill-rule="evenodd"/>
          <path id="Path_91" data-name="Path 91" d="M715.153,941.614c.046-.234.234-.35,1.492-.234s9.231-.745,11.4-.862a71.38,71.38,0,0,1,13.662.745c3.754.793,7.553,1.726,9.394,2.192,1.844.513,2.425.7,2.354.931a.675.675,0,0,1-.7.4c-.232-.046-6.341-1.912-8.228-2.305a74.455,74.455,0,0,0-11.987-1.383,62.784,62.784,0,0,0-7.482.28,60.02,60.02,0,0,1-8.883.63c-1.383-.163-1.1-.163-1.026-.4h0Z" transform="translate(-605.289 -795.501)" fill="#d6bc6f" fill-rule="evenodd"/>
          <path id="Path_92" data-name="Path 92" d="M507.994,1064.725s4.779,2.588,6.505,5.758a2.5,2.5,0,0,1-.745,3.521s2.7,0,2.354,1.492c-.163.931-4.663,3.448-7.67,4.778-3.053,1.329-2.937,1.26-4.429,1.492-1.446.234-5.409-.461-6.225.7a2.275,2.275,0,0,0-.234,2.542,13.174,13.174,0,0,0,2.122.4s-.4,1.1-4.312,1.213-4.9.4-5.13.816c-.234.395.745.163,2.542.461,1.795.28,4.312.461,4.312.461a7.947,7.947,0,0,1-2.937,1.259c-2.425.629-6.225,1.213-7.367,1.912a6.8,6.8,0,0,0,1.844,1.025,11.684,11.684,0,0,0-2.588.933c.349.234.816.513.816.513a16.12,16.12,0,0,1-3.1,2.938c-1.142.584-7.716,3.636-9.978,3.054-5.641-1.492-6.341-7.67-7.716-8.136-2.075-.7-3.054.7-4.9-.281a11.5,11.5,0,0,1,2.122-1.328c-.933-.461-5.758-3.521-5.758-3.521a35.732,35.732,0,0,0-1.678-3.216c-.933-1.609-2.305-3.754-3.335-5.643-2.238-4.149-2.354-6.061-4.383-8.415.35-.461,1.561-.4,1.561-.4l17,5.6,30.137.873,7.837-11.189,3.333.4Z" transform="translate(-379.199 -900.339)" fill="#dfc677" fill-rule="evenodd"/>
          <path id="Path_93" data-name="Path 93" d="M547.18,1129.031a2.646,2.646,0,0,0,.628.513,9.131,9.131,0,0,1,2.029,1.561c.234-.349.816-.979,1.844,0s2.305.281,3.1.513c.816.281.862.4.862.4a5.841,5.841,0,0,1,1.492-.816c.63-.234,1.375-.4,2.191-.629a12.257,12.257,0,0,1,2.122-.4c.513.349,2.354,2.305,9.745-.582,6.971-2.7,8.578-3.007,9.745-2.589.117-.28.234-.816,2.028-.745a13.879,13.879,0,0,0-1.492-3.287l-8.229-2.82h-4.5l-13.5,2.471-7.479,4.268-.583,2.151Z" transform="translate(-463.056 -947.581)" fill="#c4a859" fill-rule="evenodd"/>
          <path id="Path_94" data-name="Path 94" d="M517.9,1087.078a4.364,4.364,0,0,0,2.029,2.588,11.678,11.678,0,0,1,2.423,2.121s.35-.461.63-.931c.28-.513.513-1.1.979-1.259.933-.4,3.054.349,3.521.232.4-.115.28-.931.7-.931.979-.048,1.607.629,1.958.629s1.211-.046,1.328-.232.163-2.122,1.492-3.055a3.987,3.987,0,0,1,3.688-.349c0,.349.046,1.212.979,1.259a4.748,4.748,0,0,1,1.844.163c.819.28,1.795-.046,2.237,1.328.4-.115,1.329-.232,1.1-1.561a6.775,6.775,0,0,0,1.844-1.958c.234-.349.629-.745.933-1.259a3.8,3.8,0,0,1,3.1.979c-.4.28-.63.461-.745.745a8.389,8.389,0,0,1,.931,1.1c.35.461.584,1.027,1.026,1.143.979.28,2.588-.117,4.383,0a8.82,8.82,0,0,1,3.8,1.142c.234-.115.234-.163.816-.046s1.025.163.4-.582c.349.163.745.513,1.1.163a2.285,2.285,0,0,1,1.607-.979c.979-.117,1.329.046,1.726-.979.513-1.259-1.259-1.259-1.259-1.259s.816-.747,1.726-1.726a7.864,7.864,0,0,0,2.657-3.986,2.812,2.812,0,0,0-2.423-3.4l-14.244,4.383-17.415-.864-14.85,7.39h0Z" transform="translate(-438.274 -910.36)" fill="#927d49" fill-rule="evenodd"/>
          <path id="Path_95" data-name="Path 95" d="M415.845,853.577a5,5,0,0,0-.745,1.958c-.284,1.375-.163,1.212-.4,2.191s-3.1,10.723-2.027,14.011,2.938,4.5,4.1,7.157a10.344,10.344,0,0,1,.582,1.446c.4,1.724.048,3.054.513,4.779a5.284,5.284,0,0,0,1.213,1.958c1.383,1.445,3.637,2.82,4.61,3.8,1.374,1.446,3.333,4.384,5.827,4.662a8.4,8.4,0,0,0,4.779-1.328c1.383-.864,2.238-2.075,3.688-2.766a13.759,13.759,0,0,1,3.1-.933,14.038,14.038,0,0,1,4.967-.234c1.678.35,5.641,1.563,7.837,1.563a21.321,21.321,0,0,0,5.082-.7c3.333-.979,7.366-2.659,10.024-3.4,1.561-.461,2.82-.582,4.1-.862,2.191-.513,4.032-1.213,5.082-2.542-.7-.816-1.561-2.075-6.225-2.028-5.291.117-11.4,3.053-14.407,3.521s-4.312.862-7.67-.35c-3.292-1.225-3.4-2.035-3.4-2.035s-3.456-2.417-4.9-8.58,0-10.653,3.754-14.92a2.466,2.466,0,0,0,.745-2.075s2.471-3.333,1.795-6.454c-.745-3.1-5.525-2.471-5.525-2.471l-26.506,4.636h0Z" transform="translate(-348.953 -718.005)" fill="#6e6342" fill-rule="evenodd"/>
          <path id="Path_96" data-name="Path 96" d="M459,946.91a2.416,2.416,0,0,0-.28,1.259c.046.629.234,1.444,2.121,3.287a4.024,4.024,0,0,1,1.259,3.4s.81.163,3.007-.865c1.726-.816,2.305.63,2.305.63a4.871,4.871,0,0,1,1.609-.513,3.523,3.523,0,0,0,1.445-.461,20.775,20.775,0,0,0,3.8,3.053c1.609.864,2.542,1.446,3.335.864a2.206,2.206,0,0,0,.7-2.028,6.051,6.051,0,0,0-.7-1.213c-.513-.745-1.329-1.609-1.383-2.305-.117-1.607,1.212-3.521.931-3.986s-1.328-.582-3.916.35c-2.68.885-14.244-1.469-14.244-1.469h0Z" transform="translate(-388.099 -800.964)" fill="#39331f" fill-rule="evenodd"/>
          <path id="Path_97" data-name="Path 97" d="M495.007,974.143s-1.328-1.259-.862-7.367a7.591,7.591,0,0,1,1.678.163S496.547,971.672,495.007,974.143Z" transform="translate(-418.001 -817.776)" fill="#292311" fill-rule="evenodd"/>
          <path id="Path_98" data-name="Path 98" d="M433.132,815.647a3.644,3.644,0,0,0,.513-.461,11.576,11.576,0,0,0-.864,9.745c1.726,5.408,6.061,9.44,11.4,9.628s8.145-2.425,11.354-6.341c1.259-1.561,2.7-3.521,3.986-4.849,1.912-2.076,3.4-2.659,3.4-4.662,0-4.1-4.2-5.946-10.375-7.787s-11.75-1.614-14.641-.353c-2.82,1.374-4.032,2.82-4.779,5.082h0Z" transform="translate(-365.578 -684.738)" fill="#252211" fill-rule="evenodd"/>
          <path id="Path_99" data-name="Path 99" d="M567.785,1015.523l.461-.234s.115-1.844.862-1.795a1.445,1.445,0,0,1,1.025,1.446.865.865,0,0,1-.979.862,2.292,2.292,0,0,1-1.374-.28Z" transform="translate(-480.456 -857.315)" fill="#3f3824" fill-rule="evenodd"/>
          <path id="Path_100" data-name="Path 100" d="M554.31,975.609s.461-.163,1.025.4c.461,0,2.471-.234,3.1.163a2.36,2.36,0,0,1,.816.745,8.1,8.1,0,0,1-3.637,0C554.31,976.471,554.31,975.609,554.31,975.609Z" transform="translate(-469.05 -825.234)" fill="#2d2815" fill-rule="evenodd"/>
          <path id="Path_101" data-name="Path 101" d="M599.88,969.52a5.769,5.769,0,0,0-2.588-1.26c-.234-.046-.281.117-.461.117-.117-.046-.163-.4-.163-.4l-.756.4s-.117.163.28.461c.349.28.933.513,1.1.979a4.013,4.013,0,0,0,.234.7,2.494,2.494,0,0,0,1.259-.234c.4-.234,1.143-.615,1.1-.768h0Z" transform="translate(-504.272 -818.796)" fill="#82764f" fill-rule="evenodd"/>
          <path id="Path_102" data-name="Path 102" d="M545.21,999.524a1.962,1.962,0,0,1,1.795-1.678,1.8,1.8,0,0,1,1.912,1.445l-.933.933c0-.023-.7-1-2.766-.7Z" transform="translate(-461.34 -844.067)" fill="#2d2816" fill-rule="evenodd"/>
          <path id="Path_103" data-name="Path 103" d="M594.444,957.875a4.871,4.871,0,0,1-2.774,1.213,1.1,1.1,0,0,1,0-1.445c.513-.745,1.1-.979,1.678-.747A1.365,1.365,0,0,1,594.444,957.875Z" transform="translate(-500.464 -809.343)" fill="#574f35" fill-rule="evenodd"/>
          <path id="Path_104" data-name="Path 104" d="M631.925,955.388c.048-.234-.115-.28,0-.4s.747-.349.864-.234c.046.048,0,.234,0,.461a1.105,1.105,0,0,1-.117.629.943.943,0,0,1-.862.281c-.234-.069-.28-.4-.28-.461C631.645,955.621,631.925,955.5,631.925,955.388Zm3.98-2.517c0-.117.4-.35.63-.35.349,0,.349.28.4.35.115.046.115-.048.232.163s.281.582.163.816a.851.851,0,0,1-.7.349A6.21,6.21,0,0,1,635.905,952.87Z" transform="translate(-534.458 -805.712)" fill="#82764f" fill-rule="evenodd"/>
          <path id="Path_105" data-name="Path 105" d="M607.86,974.661a3.253,3.253,0,0,1,1.213.7c-.234.163-.584.349-.584.349a1.746,1.746,0,0,0-.629-1.05Z" transform="translate(-514.402 -824.449)" fill="#6e6342" fill-rule="evenodd"/>
          <path id="Path_106" data-name="Path 106" d="M600.328,903c-.117-.115.349-.4.629-.349s.4.234.7.28.35-.117.461-.234.513-.046.582,0a1.289,1.289,0,0,1,.117.163.645.645,0,0,1,.232-.461.736.736,0,0,1,.63-.117,3.459,3.459,0,0,1,.234.862c-.046.117-.745.281-.864.163a8.284,8.284,0,0,0,.7.979c.069.115-.513.4-.745.35a9.511,9.511,0,0,1-2.68-1.632Zm3.054-3.87a.541.541,0,0,0-.234-.28c-.163-.046-.7,0-.7.28a8.656,8.656,0,0,0,.979,2.659c.584.816.979,1.491,1.375,1.678a.541.541,0,0,0,.7-.234,14.109,14.109,0,0,0,.117-3.007,27.643,27.643,0,0,0-.234-4.1.621.621,0,0,0-.745.117,21.785,21.785,0,0,0-1.26,2.891h0Z" transform="translate(-508.013 -757.915)" fill="#585136" fill-rule="evenodd"/>
          <path id="Path_107" data-name="Path 107" d="M594.085,992.209a1.888,1.888,0,0,0-1.609-.163c-.745.35-.7,1.726-.7,1.726a1.105,1.105,0,0,0,1.027-.117,3.131,3.131,0,0,0,1.282-1.445Z" transform="translate(-500.781 -839.06)" fill="#574f35" fill-rule="evenodd"/>
          <path id="Path_108" data-name="Path 108" d="M614.271,949.591c-.046-.461-.461-.461-.461-.7a.524.524,0,0,1,.512-.4c.234,0,.461.28.747.461.28.163.7.461.745.816s-.461,1.328-1.025,1.328-.4-1.05-.513-1.515Zm4.5-.63s-.933.28-.864,0,.281-.349.584-.349a.922.922,0,0,1,.582-.281.505.505,0,0,1,.349.117s.63-.28.816-.117.048.163.163.35a1.639,1.639,0,0,1,.281.7c0,.186-.7.582-1.26.513C618.771,949.754,618.886,949.078,618.771,948.961Zm5.431-1.05s.28.163.048.35a3.8,3.8,0,0,1-1.68.513c-.7,0-1.328.115-1.328-.117s.582-.7.931-.816a.744.744,0,0,1,.584-.28c.28,0,1.374-.117,1.678-.163.28-.048.513.115.349.349C624.715,947.911,624.2,947.911,624.2,947.911Zm1.609-7.2s-.35.745-.745.745c-.4-.046-.4-.163-.4-.28,0-.163.4-.582.349-.7-.115,0-.4,0-.349-.28,0-.234.4-.513.745-.461a1.536,1.536,0,0,1,.933-.349c.4,0,.745.115.745.349s-.461.745-.63.864c-.186.186-.42.307-.652.115Zm-5.316,13.777s-.461.048-.461.28c0,.117.115.117.28.048a1.278,1.278,0,0,0,.28-.048c.046.048.046.28.4.28a2.215,2.215,0,0,0,.816-.28c.28-.115.513-.234.513-.461a.694.694,0,0,0-.7-.584.932.932,0,0,0-.513.117s-.117-.234-.513,0-.35.234-.234.35c.209.186.14.307.14.307Zm-2.634,2.425c0-.117.583-.35.745-.28a2.97,2.97,0,0,1,.629,1.025c0,.117-.582.4-.816.4a1.08,1.08,0,0,1-.629-.461c0-.046.28-.115.28-.163.069-.115-.209-.4-.209-.513Zm-1.844-3.4c.117-.046.117-.163.28-.28a.4.4,0,0,1,.35-.046.567.567,0,0,1,.4-.281c.28-.046.513,0,.461.117,0,.35.234.582.234.862s-.163.63-.745.864a4.124,4.124,0,0,1-1.492.117.768.768,0,0,1-.117-.747,1.933,1.933,0,0,1,.63-.605h0Z" transform="translate(-519.46 -794.6)" fill="#82764f" fill-rule="evenodd"/>
          <path id="Path_109" data-name="Path 109" d="M630.558,1032.31s-.4.234-.4.35a1.037,1.037,0,0,0-.046.349c0,.069.513-.046.582-.117C630.721,1032.846,630.558,1032.431,630.558,1032.31Z" transform="translate(-533.252 -873.24)" fill="#6e6342" fill-rule="evenodd"/>
          <path id="Path_110" data-name="Path 110" d="M604.773,1024.509a4.906,4.906,0,0,1,.931.117c.234.117.4.35.163.63s-.461.7-.979.628c-.582-.046-1.142-.349-1.142-.582a1.117,1.117,0,0,1,.28-.816c.234-.186.349-.069.745.023h0Z" transform="translate(-510.918 -866.534)" fill="#585136" fill-rule="evenodd"/>
          <path id="Path_111" data-name="Path 111" d="M590.614,1026.7a6.586,6.586,0,0,0-.933.864c-.234.28-1.375,1.724-1.724,2.027a4.4,4.4,0,0,1,.395-.583,2.385,2.385,0,0,0-.979,1.259c-.28.864,1.563,1.329,2.774,1.68s1.68.461,1.68.461a13.019,13.019,0,0,1-1.143-2.121c-.461-1.1-.7-1.213-.4-1.726.234-.513.584-.862.584-1.258C590.731,1026.934,590.614,1026.7,590.614,1026.7Z" transform="translate(-497.03 -868.492)" fill="#574f35" fill-rule="evenodd"/>
          <path id="Path_112" data-name="Path 112" d="M435.663,1032.235a1.428,1.428,0,0,0,.513,0,23.74,23.74,0,0,1,7.787-1.143,41.647,41.647,0,0,1,8.415,1.383c4.779,1.259,10.724,3.753,14.57,5.176,1.025.395,2.029,1.1,2.766,1.374a17.608,17.608,0,0,0,4.779,1.446c2.029.28,4.1-.4,6.272-.862,2.657-.584,7.2-.864,11.189-1.446a22.838,22.838,0,0,0,3.8-.862s-3.17,3.17-10.771,4.312a33.7,33.7,0,0,1-9.277.117,28.3,28.3,0,0,1-5.245-.933c-1.375-.4-4.2-1.446-7.67-2.3-2.425-.63-5.13-1.1-8.229-1.678-7.647-1.4-15.945-3.007-18.9-4.569Z" transform="translate(-368.62 -872.184)" fill="#252211" fill-rule="evenodd"/>
          <line id="Line_1" data-name="Line 1" x1="19.42" y1="18.137" transform="translate(43.999 112.353)" fill="none"/>
          <path id="Path_113" data-name="Path 113" d="M251.581,944.94c-1.844,1.561-3.8,3.054-5.711,4.5l-5.758,4.424c-1.958,1.445-3.87,2.937-5.829,4.383s-3.916,2.82-5.993,4.149c1.844-1.561,3.8-3.007,5.758-4.429s3.988-2.815,5.877-4.257l5.758-4.43c1.981-1.445,3.893-2.937,5.9-4.335Zm-10.187,16.319s2.075-1.726,4.663-4.149c3.216-3.006,7.157-6.854,8.415-7.552l-13.079,11.7Z" transform="translate(-192.778 -799.297)" fill="#cfb66c" fill-rule="evenodd"/>
          <path id="Path_114" data-name="Path 114" d="M313.56,986.41c1.027-1.025,2.122-2.027,3.218-3.007l1.678-1.444c.513-.461,1.1-.979,1.609-1.492,1.025-1.025,2.029-2.122,3.053-3.17a19.592,19.592,0,0,1,1.609-1.492,4.349,4.349,0,0,1,.931-.63,2.727,2.727,0,0,1,.979-.513c-.232.35-.512.513-.745.816-.28.234-.513.513-.745.745-.513.513-1.1.979-1.609,1.446-1.1.933-2.237,1.844-3.333,2.82s-2.121,2.029-3.218,3.007c-1.188,1-2.284,1.982-3.427,2.92Zm13.941-9.325s-7.6,7.438-9.162,8.649Z" transform="translate(-264.944 -824.449)" fill="#cfb66c" fill-rule="evenodd"/>
          <path id="Path_115" data-name="Path 115" d="M353.822,990.44a24.831,24.831,0,0,1-2.195,2.237l-2.305,2.191c-.745.745-1.446,1.492-2.238,2.238-.816.7-1.561,1.383-2.425,2.029l2.237-2.191c.747-.745,1.563-1.374,2.356-2.121l2.237-2.191C352.259,991.863,353.006,991.116,353.822,990.44Zm.349,4.032a48.452,48.452,0,0,1-2.471,5.712c-1.958,3.917-4.895,8.812-6.178,11.307Z" transform="translate(-291.475 -837.805)" fill="#cfb66c" fill-rule="evenodd"/>
          <path id="Path_116" data-name="Path 116" d="M359.046,1016.69a6.546,6.546,0,0,1-.513,2.354,23.17,23.17,0,0,1-.931,2.191c-.35.7-.747,1.446-1.143,2.122s-.862,1.374-1.212,2.075l-2.354,4.149c-.816,1.383-1.609,2.774-2.471,4.1a38.022,38.022,0,0,1,2.122-4.266c.816-1.383,1.561-2.766,2.305-4.2a23.629,23.629,0,0,0,.979-2.19c.349-.747.7-1.446.979-2.122.349-.745.629-1.446.979-2.121a13.732,13.732,0,0,1,1.259-2.1Z" transform="translate(-296.353 -860.02)" fill="#cfb66c" fill-rule="evenodd"/>
          <path id="Path_117" data-name="Path 117" d="M449.045,1141.08a11.54,11.54,0,0,0-2.075,6.923C447.6,1145.976,448.392,1142.875,449.045,1141.08Zm2.191,3.061s-.816,8.3-1.492,12.379C450.7,1151.8,450.886,1152.2,451.237,1144.141Zm15.269,12.869s-3.45,10.143-3.521,12.961c.747-2.9,2.191-8.819,3.521-12.969Z" transform="translate(-378.133 -965.295)" fill="#dec270" fill-rule="evenodd"/>
          <path id="Path_118" data-name="Path 118" d="M626.67,1137s5.6,9.231,9.792,17.11A38.817,38.817,0,0,0,626.67,1137Z" transform="translate(-530.348 -961.842)" fill="#cbaf59" fill-rule="evenodd"/>
          <path id="Path_119" data-name="Path 119" d="M724.52,1225.43a169.752,169.752,0,0,1,8.3,16.761A25.617,25.617,0,0,0,724.52,1225.43Z" transform="translate(-613.227 -1036.682)" fill="#e3c677" fill-rule="evenodd"/>
          <path id="Path_120" data-name="Path 120" d="M893.87,1034.426c.931-.582,2.774-3.754,4.383-4.546,1.607-.816,2.82-.979,4.266-2.588,1.445-1.68,1.844-2.7,5.011-4.032,4.431-1.913,1.383-4.384,1.383-4.384a14.314,14.314,0,0,1,1.561-1.328c1.143-.862,2.471-1.912,2.356-3.754-.163-3.1-.745-7.6-3.287-10.21,2.471-.513,7.2-.862,10.143-1.607a14.5,14.5,0,0,0,4.965-2.076,5.66,5.66,0,0,1,1.213-6.69c3.17-3.356,5.758-5.362,7.67-9.116-2.191-.28-5.532-1.445-14.058,1.8a10.69,10.69,0,0,1,1.329.745s-5.245,1.446-7.157,3.055c-3.335,2.82-3.754,5.128-7.367,6.854s-7.25,1.259-10.256,2.657-3.45,2.588-4.547,3.1c.234.28-.046.745.4,1.142-.28.4-1.912,3.053-3.567,3.053.163.63,1.561,1.1,1.561,1.1a7.518,7.518,0,0,1-3.636.933,26.473,26.473,0,0,0,6.061,5.082c-.28.583-1.446,1.446-.979,2.542.513,1.1,1.844,2.588,7.156,3.8-2.7.115-5.873.745-10.143.163-4.266-.513-4.965-.816-7.6-.163.28.28,1.025.28,1.678,1.025-.7.046-5.082-.513-6.574,1.446a12.711,12.711,0,0,0-2.121,7.6,1.984,1.984,0,0,0-1.212,2.542c.4,1.446,2.471,1.912,3.8,2.82,1.328.979,1.444,1.328,2.7,1.1,1.328-.28,3.286-1.608,4.429-1.608a2.978,2.978,0,0,1,1.958.862s3.1-1.492,3.4-1.213c.28.28.046,2.075.349,2.354.307.211,3.8-1.864,4.733-2.448Z" transform="translate(-738.627 -832.067)" fill="#ecd592" fill-rule="evenodd"/>
          <path id="Path_121" data-name="Path 121" d="M608.592,461.317C594.022,423.691,558,416.72,558,416.72H455.242l.4,38.325H476.1v85.581H455.24v38.256h99.918c24.081,0,43.384-24.2,43.384-24.2,30.912-43.873,10.047-93.366,10.047-93.366Zm-52.9,67.582s-7.837,11.307-16.365,11.307H522.272l-.4-85.067h21.891s10.143,2.121,17.229,22.192C560.987,477.331,570.382,506.069,555.695,528.9Z" transform="translate(-385.526 -352.251)" fill="rgba(255,255,255,0.8)" fill-rule="evenodd"/>
        </g>
      </g>
    </g>
  </g>
</svg>
