<svg xmlns="http://www.w3.org/2000/svg" viewBox="0 0 29 29">
  <g id="download" transform="translate(0.215 0.031)">
    <rect id="Rectangle_6" data-name="Rectangle 6" width="29" height="29" rx="5" transform="translate(-0.215 -0.031)" fill="#fff"/>
    <path id="Path_584" data-name="Path 584" d="M151.579-459.933a.619.619,0,0,0-.175.175c-.067.108-.067.178-.067,4.183v4.072l-1.117-1.117A9.447,9.447,0,0,0,149-453.757c-.054-.013-.118-.027-.138-.034a.655.655,0,0,0-.441.158.522.522,0,0,0-.162.491c.02.155.054.188,1.676,1.817,1.787,1.79,1.747,1.753,2.056,1.706.128-.02.252-.138,1.777-1.659s1.642-1.646,1.669-1.78a.61.61,0,0,0-.084-.474.617.617,0,0,0-.673-.172c-.05.017-.582.522-1.178,1.117l-1.087,1.084v-4.072c0-4,0-4.076-.067-4.183a.51.51,0,0,0-.471-.242A.544.544,0,0,0,151.579-459.933Z" transform="translate(-137.217 467.015)" fill="currentColor"/>
    <path id="Path_585" data-name="Path 585" d="M36.482-203.84a.493.493,0,0,0-.33.316,11.916,11.916,0,0,0-.024,1.35,4.65,4.65,0,0,0,.091,1.464,2.765,2.765,0,0,0,2.023,1.885c.33.074,10.238.074,10.568,0a2.788,2.788,0,0,0,1.652-1.114,3.751,3.751,0,0,0,.39-.838,6.723,6.723,0,0,0,.071-1.413,11.529,11.529,0,0,0-.024-1.336.575.575,0,0,0-.633-.343.65.65,0,0,0-.414.377,11.384,11.384,0,0,0-.034,1.168,6.426,6.426,0,0,1-.05,1.245,1.629,1.629,0,0,1-1.4,1.195c-.374.044-9.306.044-9.679,0a1.629,1.629,0,0,1-1.4-1.195,6.426,6.426,0,0,1-.05-1.245,11.409,11.409,0,0,0-.034-1.161.616.616,0,0,0-.374-.37A.411.411,0,0,0,36.482-203.84Z" transform="translate(-28.868 219.521)" fill="currentColor"/>
  </g>
</svg>
