<svg xmlns="http://www.w3.org/2000/svg" viewBox="0 0 17.983 17.98">
  <g id="edit" transform="translate(-63.992 448.013)">
    <path id="Path_205" data-name="Path 205" d="M66.8-447.836a3.784,3.784,0,0,0-2.411,1.943c-.426.852-.4.379-.4,6.953s-.028,6.1.4,6.976a2.785,2.785,0,0,0,.693.913,2.8,2.8,0,0,0,.918.693c.876.435.389.407,6.976.407s6.1.028,6.976-.407a2.785,2.785,0,0,0,.913-.693,2.786,2.786,0,0,0,.693-.913c.421-.843.407-.707.407-4.584,0-3.31,0-3.4-.094-3.554a.8.8,0,0,0-1.3-.023c-.08.117-.084.351-.108,3.455-.023,3.226-.028,3.334-.126,3.614a2.337,2.337,0,0,1-1.536,1.5c-.267.08-.59.084-5.829.084s-5.562,0-5.829-.084a2.317,2.317,0,0,1-1.55-1.564c-.084-.3-.089-.59-.089-5.843,0-5.22,0-5.539.084-5.806a2.337,2.337,0,0,1,1.5-1.536c.281-.1.389-.1,3.614-.126,3.1-.023,3.338-.028,3.455-.108a.708.708,0,0,0,.314-.641.709.709,0,0,0-.337-.655c-.15-.089-.243-.094-3.572-.089A20.889,20.889,0,0,0,66.8-447.836Z" transform="translate(0 -0.082)" fill="currentColor"/>
    <path id="Path_206" data-name="Path 206" d="M201.022-447.918a2.272,2.272,0,0,0-.515.248c-.295.2-8.376,8.133-8.451,8.3a8.63,8.63,0,0,0-.056,1.484c0,1.283,0,1.376.094,1.522a.861.861,0,0,0,.243.243c.145.089.239.094,1.522.094a8.637,8.637,0,0,0,1.484-.056c.164-.07,8.1-8.147,8.3-8.442a2.416,2.416,0,0,0,.07-2.364,2.312,2.312,0,0,0-1.259-1.025A2.705,2.705,0,0,0,201.022-447.918Zm1.082,1.545a.748.748,0,0,1,.272.932c-.033.061-1.789,1.868-3.9,4.017l-3.835,3.9H193.5v-1.147l3.9-3.834c2.149-2.107,3.956-3.863,4.017-3.9A.825.825,0,0,1,202.1-446.373Z" transform="translate(-122.015 0)" fill="currentColor"/>
  </g>
</svg>
