<svg xmlns="http://www.w3.org/2000/svg" xmlns:xlink="http://www.w3.org/1999/xlink" width="300" height="300" viewBox="0 0 300 300">
  <defs>
    <clipPath id="clip-Elrond_">
      <rect width="300" height="300"/>
    </clipPath>
  </defs>
  <g id="Elrond_" data-name="Elrond " clip-path="url(#clip-Elrond_)">
    <rect width="300" height="300" fill="rgba(255,255,255,0)"/>
    <g id="elrond-egld-egld-logo" transform="translate(5 5)">
      <path id="Path_1" data-name="Path 1" d="M103.191,29.94a4.664,4.664,0,0,1,0-7.188,6.072,6.072,0,0,1,7.823,0,4.664,4.664,0,0,1,0,7.188,6.586,6.586,0,0,1-3.806,1.48A4.266,4.266,0,0,1,103.191,29.94Z" transform="translate(129.498 27.115)" fill="#0d022b" fill-rule="evenodd"/>
      <path id="Path_2" data-name="Path 2" d="M96.68,36.84a5.516,5.516,0,0,1-1.48-3.594,5.517,5.517,0,0,1,1.48-3.594,5.24,5.24,0,0,1,7.188,0,5.516,5.516,0,0,1,1.48,3.594A5.083,5.083,0,0,1,96.68,36.84Z" transform="translate(121.398 35.887)" fill="#0d022b" fill-rule="evenodd"/>
      <path id="Path_3" data-name="Path 3" d="M89.68,43.44a5.1,5.1,0,0,1-1.48-3.594,5.517,5.517,0,0,1,1.48-3.594,5.239,5.239,0,0,1,7.188,0,5.1,5.1,0,0,1,1.48,3.594,5.517,5.517,0,0,1-1.48,3.594,4.637,4.637,0,0,1-3.594,1.48A5.1,5.1,0,0,1,89.68,43.44Z" transform="translate(112.471 44.279)" fill="#0d022b" fill-rule="evenodd"/>
      <path id="Path_4" data-name="Path 4" d="M83.091,50.14A4.516,4.516,0,0,1,81.4,46.546a4.84,4.84,0,0,1,1.691-3.594,6.072,6.072,0,0,1,7.823,0,4.664,4.664,0,0,1,0,7.188,5.427,5.427,0,0,1-3.806,1.48A5.064,5.064,0,0,1,83.091,50.14Z" transform="translate(103.854 52.797)" fill="#0d022b" fill-rule="evenodd"/>
      <path id="Path_5" data-name="Path 5" d="M76.58,56.84a4.355,4.355,0,0,1-1.48-3.594,5.517,5.517,0,0,1,1.48-3.594,5.239,5.239,0,0,1,7.188,0,4.355,4.355,0,0,1,1.48,3.594,5.1,5.1,0,0,1-1.48,3.594,4.355,4.355,0,0,1-3.594,1.48A3.576,3.576,0,0,1,76.58,56.84Z" transform="translate(95.767 61.318)" fill="#0d022b" fill-rule="evenodd"/>
      <path id="Path_6" data-name="Path 6" d="M68.1,59.946a5.517,5.517,0,0,1,1.48-3.594,5.239,5.239,0,0,1,7.188,0,4.637,4.637,0,0,1,1.48,3.594,5.517,5.517,0,0,1-1.48,3.594,5.1,5.1,0,0,1-3.594,1.48,5.516,5.516,0,0,1-3.594-1.48A4.355,4.355,0,0,1,68.1,59.946Z" transform="translate(86.84 69.835)" fill="#0d022b" fill-rule="evenodd"/>
      <path id="Path_7" data-name="Path 7" d="M56.38,76.64a5.1,5.1,0,0,1-1.48-3.594,5.516,5.516,0,0,1,1.48-3.594,5.239,5.239,0,0,1,7.188,0,4.637,4.637,0,0,1,1.48,3.594,5.516,5.516,0,0,1-1.48,3.594,4.355,4.355,0,0,1-3.594,1.48A3.732,3.732,0,0,1,56.38,76.64Z" transform="translate(70.008 86.493)" fill="#0d022b" fill-rule="evenodd"/>
      <path id="Path_8" data-name="Path 8" d="M49.591,83.34A4.516,4.516,0,0,1,47.9,79.746a4.84,4.84,0,0,1,1.691-3.594,6.072,6.072,0,0,1,7.823,0,4.664,4.664,0,0,1,0,7.188,5.427,5.427,0,0,1-3.806,1.48A4.6,4.6,0,0,1,49.591,83.34Z" transform="translate(61.113 95.012)" fill="#0d022b" fill-rule="evenodd"/>
      <path id="Path_9" data-name="Path 9" d="M42.98,90.14a5.1,5.1,0,0,1,0-7.188,5.239,5.239,0,0,1,7.188,0,5.1,5.1,0,0,1,1.48,3.594,5.516,5.516,0,0,1-1.48,3.594,4.637,4.637,0,0,1-3.594,1.48C45.094,91.62,44.248,90.986,42.98,90.14Z" transform="translate(52.92 103.656)" fill="#0d022b" fill-rule="evenodd"/>
      <path id="Path_10" data-name="Path 10" d="M36.28,96.84a4.355,4.355,0,0,1-1.48-3.594,5.516,5.516,0,0,1,1.48-3.594,5.239,5.239,0,0,1,7.188,0,5.516,5.516,0,0,1,1.48,3.594,5.1,5.1,0,0,1-1.48,3.594,5.1,5.1,0,0,1-7.188,0Z" transform="translate(44.377 112.175)" fill="#0d022b" fill-rule="evenodd"/>
      <path id="Path_11" data-name="Path 11" d="M29.491,103.54A4.516,4.516,0,0,1,27.8,99.946a4.84,4.84,0,0,1,1.691-3.594,5.508,5.508,0,0,1,7.4,0,4.84,4.84,0,0,1,1.691,3.594,4.516,4.516,0,0,1-1.691,3.594,6.586,6.586,0,0,1-3.806,1.48A4.355,4.355,0,0,1,29.491,103.54Z" transform="translate(35.461 120.693)" fill="#0d022b" fill-rule="evenodd"/>
      <path id="Path_12" data-name="Path 12" d="M22.78,110.24a4.637,4.637,0,0,1-1.48-3.594,5.516,5.516,0,0,1,1.48-3.594,5.239,5.239,0,0,1,7.188,0,4.637,4.637,0,0,1,1.48,3.594,5.516,5.516,0,0,1-1.48,3.594,5.1,5.1,0,0,1-3.594,1.48C25.317,111.932,24.048,111.3,22.78,110.24Z" transform="translate(27.161 129.215)" fill="#0d022b" fill-rule="evenodd"/>
      <path id="Path_13" data-name="Path 13" d="M29.968,29.94a5.516,5.516,0,0,0,1.48-3.594,5.516,5.516,0,0,0-1.48-3.594,5.239,5.239,0,0,0-7.188,0,4.637,4.637,0,0,0-1.48,3.594,5.516,5.516,0,0,0,1.48,3.594,5.1,5.1,0,0,0,3.594,1.48A3.43,3.43,0,0,0,29.968,29.94Z" transform="translate(27.161 27.115)" fill="#0d022b" fill-rule="evenodd"/>
      <path id="Path_14" data-name="Path 14" d="M37.114,36.84a4.664,4.664,0,0,0,0-7.188,6.072,6.072,0,0,0-7.823,0,4.664,4.664,0,0,0,0,7.188A6.586,6.586,0,0,0,33.1,38.32,8.372,8.372,0,0,0,37.114,36.84Z" transform="translate(35.213 35.887)" fill="#0d022b" fill-rule="evenodd"/>
      <path id="Path_15" data-name="Path 15" d="M43.468,43.44a5.1,5.1,0,0,0,1.48-3.594,5.516,5.516,0,0,0-1.48-3.594,5.24,5.24,0,0,0-7.188,0,5.1,5.1,0,0,0-1.48,3.594,5.516,5.516,0,0,0,1.48,3.594,4.637,4.637,0,0,0,3.594,1.48A6,6,0,0,0,43.468,43.44Z" transform="translate(44.377 44.279)" fill="#0d022b" fill-rule="evenodd"/>
      <path id="Path_16" data-name="Path 16" d="M50.168,50.14a5.1,5.1,0,0,0,1.48-3.594,5.516,5.516,0,0,0-1.48-3.594,5.239,5.239,0,0,0-7.188,0,5.1,5.1,0,0,0,0,7.188,4.637,4.637,0,0,0,3.594,1.48A4.242,4.242,0,0,0,50.168,50.14Z" transform="translate(52.92 52.797)" fill="#0d022b" fill-rule="evenodd"/>
      <path id="Path_17" data-name="Path 17" d="M56.991,56.84a4.516,4.516,0,0,0,1.691-3.594,4.84,4.84,0,0,0-1.691-3.594,5.51,5.51,0,0,0-7.4,0,4.664,4.664,0,0,0,0,7.188A5.427,5.427,0,0,0,53.4,58.32,3.576,3.576,0,0,0,56.991,56.84Z" transform="translate(61.1 61.318)" fill="#0d022b" fill-rule="evenodd"/>
      <path id="Path_18" data-name="Path 18" d="M65.048,59.946a5.516,5.516,0,0,0-1.48-3.594,5.24,5.24,0,0,0-7.188,0,4.637,4.637,0,0,0-1.48,3.594,5.516,5.516,0,0,0,1.48,3.594,5.1,5.1,0,0,0,3.594,1.48,5.516,5.516,0,0,0,3.594-1.48A4.355,4.355,0,0,0,65.048,59.946Z" transform="translate(70.008 69.835)" fill="#0d022b" fill-rule="evenodd"/>
      <path id="Path_19" data-name="Path 19" d="M70.268,70.34a4.637,4.637,0,0,0,1.48-3.594,5.517,5.517,0,0,0-1.48-3.594,5.239,5.239,0,0,0-7.188,0,4.637,4.637,0,0,0-1.48,3.594,5.516,5.516,0,0,0,1.48,3.594,5.1,5.1,0,0,0,7.188,0Z" transform="translate(78.552 78.481)" fill="#0d022b" fill-rule="evenodd"/>
      <path id="Path_20" data-name="Path 20" d="M77.191,76.64a4.516,4.516,0,0,0,1.691-3.594,4.84,4.84,0,0,0-1.691-3.594,5.508,5.508,0,0,0-7.4,0,4.664,4.664,0,0,0,0,7.188A5.427,5.427,0,0,0,73.6,78.12,3.9,3.9,0,0,0,77.191,76.64Z" transform="translate(86.867 86.493)" fill="#0d022b" fill-rule="evenodd"/>
      <path id="Path_21" data-name="Path 21" d="M83.768,83.34a5.1,5.1,0,0,0,1.48-3.594,5.517,5.517,0,0,0-1.48-3.594,5.239,5.239,0,0,0-7.188,0,5.1,5.1,0,0,0,0,7.188,4.637,4.637,0,0,0,3.594,1.48A4.48,4.48,0,0,0,83.768,83.34Z" transform="translate(95.767 95.012)" fill="#0d022b" fill-rule="evenodd"/>
      <path id="Path_22" data-name="Path 22" d="M90.468,90.14a5.1,5.1,0,0,0,0-7.188,5.239,5.239,0,0,0-7.188,0,5.1,5.1,0,0,0-1.48,3.594,5.516,5.516,0,0,0,1.48,3.594,4.637,4.637,0,0,0,3.594,1.48A5.516,5.516,0,0,0,90.468,90.14Z" transform="translate(104.31 103.656)" fill="#0d022b" fill-rule="evenodd"/>
      <path id="Path_23" data-name="Path 23" d="M96.768,96.84a4.355,4.355,0,0,0,1.48-3.594,5.517,5.517,0,0,0-1.48-3.594,5.239,5.239,0,0,0-7.188,0,5.516,5.516,0,0,0-1.48,3.594,5.1,5.1,0,0,0,1.48,3.594,5.1,5.1,0,0,0,7.188,0Z" transform="translate(112.344 112.175)" fill="#0d022b" fill-rule="evenodd"/>
      <path id="Path_24" data-name="Path 24" d="M103.868,103.54a4.355,4.355,0,0,0,1.48-3.594,5.517,5.517,0,0,0-1.48-3.594,5.24,5.24,0,0,0-7.188,0,4.637,4.637,0,0,0-1.48,3.594,5.053,5.053,0,0,0,5.074,5.074A4.355,4.355,0,0,0,103.868,103.54Z" transform="translate(121.398 120.693)" fill="#0d022b" fill-rule="evenodd"/>
      <path id="Path_25" data-name="Path 25" d="M110.791,110.24a4.664,4.664,0,0,0,0-7.188,5.508,5.508,0,0,0-7.4,0,4.664,4.664,0,0,0,0,7.188,6.586,6.586,0,0,0,3.806,1.48C108.254,111.932,109.523,111.3,110.791,110.24Z" transform="translate(129.727 129.215)" fill="#0d022b" fill-rule="evenodd"/>
      <path id="Path_26" data-name="Path 26" d="M61.065,57.718C77.263,48.2,95.13,43.764,114.9,43.553a106.538,106.538,0,0,1,53.837,14.165l34.3-30.444C176.123,9.091,147.061,0,114.9,0S53.2,9.091,27,27.273Z" transform="translate(30.083)" fill="#0d022b" fill-rule="evenodd"/>
      <path id="Path_27" data-name="Path 27" d="M56.872,167.789A103.188,103.188,0,0,1,42.5,114.541c0-19.255,4.651-37.083,14.377-53.248L26.639,27.3C8.88,53.449,0,82.45,0,114.779A153.4,153.4,0,0,0,26.85,202.5Z" transform="translate(0 30.418)" fill="#0d022b" fill-rule="evenodd"/>
      <path id="Path_28" data-name="Path 28" d="M168.66,100.7a104.351,104.351,0,0,1-53.368,15.011c-19.775,0-37.882-4.651-54.083-14.8L26.9,131.144c26.446,18.394,55.989,27.485,88.391,27.273a154.422,154.422,0,0,0,87.438-27.273Z" transform="translate(29.972 131.579)" fill="#0d022b" fill-rule="evenodd"/>
      <path id="Path_29" data-name="Path 29" d="M100.5,57.667c9.725,14.8,14.8,30.867,14.377,48.2A84.965,84.965,0,0,1,100.5,152.383l30.444,30.233c17.971-23.256,27.273-49.049,27.273-77.38.211-28.753-8.88-54.969-27.273-78.437Z" transform="translate(131.779 39.425)" fill="#0d022b" fill-rule="evenodd"/>
      <path id="Path_30" data-name="Path 30" d="M126.753,105.2A21.353,21.353,0,1,1,105.4,126.553,21.43,21.43,0,0,1,126.753,105.2Z" transform="translate(137.238 136.593)" fill="#0d022b" fill-rule="evenodd"/>
      <path id="Path_31" data-name="Path 31" d="M23.642,105.2A21.354,21.354,0,1,1,2.5,126.553,21.25,21.25,0,0,1,23.642,105.2Z" transform="translate(2.785 136.593)" fill="#0d022b" fill-rule="evenodd"/>
      <path id="Path_32" data-name="Path 32" d="M126.842,2.2A21.354,21.354,0,1,1,105.7,23.553,21.25,21.25,0,0,1,126.842,2.2Z" transform="translate(137.573 2.451)" fill="#0d022b" fill-rule="evenodd"/>
      <path id="Path_33" data-name="Path 33" d="M23.553,2.2A21.386,21.386,0,0,1,44.907,23.342,21.354,21.354,0,1,1,23.553,2.2Z" transform="translate(2.451 2.451)" fill="#0d022b" fill-rule="evenodd"/>
    </g>
  </g>
</svg>
