<svg xmlns="http://www.w3.org/2000/svg" viewBox="0 0 38.565 38.565">
  <g id="Group_3676" data-name="Group 3676" transform="translate(-763.701 -6.19)">
    <path id="Path_12807" data-name="Path 12807" d="M763.8,70.107a6.261,6.261,0,0,1,.543-.61q2.258-1.97,4.531-3.922a2.049,2.049,0,0,1,.329-.244.729.729,0,0,1,.943,1.068,2.9,2.9,0,0,1-.4.4q-1.843,1.619-3.691,3.233c-.082.072-.16.15-.267.251l13.041,9.488,3.433-2.5c.634-.461.8-.461,1.427,0l3.435,2.5,2.73-1.985c.878-.639,1.761-1.27,2.628-1.925a.656.656,0,0,0,.226-.45c.022-.861.008-1.723.012-2.584,0-.565.311-.926.767-.912s.726.361.729.913c0,.568,0,1.137,0,1.782l5.992-4.358c-.55-.482-1.072-.938-1.591-1.4-.271-.24-.533-.49-.808-.724a1.17,1.17,0,0,0-.29-.135c-.438-.193-.873-.394-1.318-.572a.55.55,0,0,0-.391-.014,3.439,3.439,0,1,1,.627-5.708.988.988,0,0,1,.4.837c-.005,1-.007,2,0,3a.987.987,0,0,0,.744.961.958.958,0,0,0,1.052-.536.476.476,0,0,0,.065-.174,5.859,5.859,0,0,0-.851-4.115,4.49,4.49,0,0,0-8.079,3.128,4.459,4.459,0,0,0,3.783,3.975c.2.031.4.046.595.06.526.038.836.329.822.779s-.351.722-.874.719a5.993,5.993,0,1,1,6.11-6.236,10.6,10.6,0,0,1-.124,2.193,5.085,5.085,0,0,1-.711,1.3,1.381,1.381,0,0,1,.246.157c.681.587,1.362,1.174,2.03,1.775a6.034,6.034,0,0,1,.51.587v21.73H763.8Zm3.107,20.212h32.151c-.142-.112-.234-.19-.331-.26q-7.706-5.606-15.409-11.218a.471.471,0,0,0-.67,0q-7.7,5.618-15.409,11.218C767.143,90.128,767.051,90.206,766.908,90.319Zm10.655-9.625-12.241-8.905V89.6Zm10.842,0,12.235,8.9v-17.8Zm6.943-16.353c0-.461.014-.923-.01-1.383a.479.479,0,0,0-.2-.337,1.915,1.915,0,0,0-2.368.466,1.937,1.937,0,0,0,2.367,2.973.478.478,0,0,0,.206-.336C795.361,65.264,795.347,64.8,795.347,64.341Z" transform="translate(0 -47.182)" fill="currentColor" stroke="currentColor" stroke-width="0.2" fill-rule="evenodd"/>
    <path id="Path_12808" data-name="Path 12808" d="M860.071,6.29q1.891,1.614,3.783,3.23c.645.552,1.284,1.111,1.924,1.669.392.342.5.633.36.971a.872.872,0,0,1-.92.5H850.1v.447q0,4.645,0,9.289c0,.677-.263,1.044-.747,1.046s-.752-.367-.752-1.042q0-5.094,0-10.188c0-.815.236-1.052,1.047-1.052h13.8l-3.613-3.13L857.784,9.8a.837.837,0,0,1-.81.272.727.727,0,0,1-.411-1.156.952.952,0,0,1,.148-.168q1.453-1.233,2.91-2.462Z" transform="translate(-76.862)" fill="currentColor" stroke="currentColor" stroke-width="0.2" fill-rule="evenodd"/>
    <path id="Path_12809" data-name="Path 12809" d="M886.331,140.6q-1.741,0-3.483,0a1.721,1.721,0,0,1-.408-.037.73.73,0,0,1-.012-1.417,1.634,1.634,0,0,1,.407-.041q3.52,0,7.04,0a1.89,1.89,0,0,1,.336.018.738.738,0,0,1,.012,1.458,2.016,2.016,0,0,1-.373.021Q888.092,140.6,886.331,140.6Z" transform="translate(-107.021 -120.372)" fill="currentColor" stroke="currentColor" stroke-width="0.2" fill-rule="evenodd"/>
    <path id="Path_12810" data-name="Path 12810" d="M886.32,100.6c-1.147,0-2.294,0-3.442,0a1.774,1.774,0,0,1-.443-.043.7.7,0,0,1-.541-.716.687.687,0,0,1,.528-.688,1.643,1.643,0,0,1,.443-.047q3.46,0,6.921,0h.075c.545.009.895.3.9.742s-.346.751-.885.755c-.848.005-1.7,0-2.544,0Z" transform="translate(-107.033 -84.115)" fill="currentColor" stroke="currentColor" stroke-width="0.2" fill-rule="evenodd"/>
    <path id="Path_12811" data-name="Path 12811" d="M884.571,179.915c-.636,0-1.272.005-1.908,0-.53-.006-.856-.29-.861-.731a.764.764,0,0,1,.841-.76q1.945-.019,3.891,0a.772.772,0,0,1,.846.76c-.006.438-.336.726-.864.732C885.868,179.92,885.22,179.915,884.571,179.915Z" transform="translate(-106.95 -156.001)" fill="currentColor" stroke="currentColor" stroke-width="0.2" fill-rule="evenodd"/>
    <path id="Path_12812" data-name="Path 12812" d="M1000.576,180.148c-.274,0-.549.018-.821,0a.724.724,0,0,1-.667-.686.687.687,0,0,1,.59-.743,11.616,11.616,0,0,1,1.782,0,.656.656,0,0,1,.571.75.706.706,0,0,1-.671.677c-.259.021-.522,0-.783,0Z" transform="translate(-213.249 -156.246)" fill="currentColor" stroke="currentColor" stroke-width="0.2" fill-rule="evenodd"/>
    <path id="Path_12813" data-name="Path 12813" d="M965.216,179.3a.749.749,0,0,1-.723.75.728.728,0,0,1-.764-.7.751.751,0,0,1,.733-.779A.772.772,0,0,1,965.216,179.3Z" transform="translate(-181.202 -156.149)" fill="currentColor" stroke="currentColor" stroke-width="0.2" fill-rule="evenodd"/>
    <path id="Path_12814" data-name="Path 12814" d="M849.406,207.321a.745.745,0,0,1-.74-.737.744.744,0,0,1,1.488.007A.746.746,0,0,1,849.406,207.321Z" transform="translate(-76.917 -180.866)" fill="currentColor" stroke="currentColor" stroke-width="0.2" fill-rule="evenodd"/>
  </g>
</svg>
