<svg xmlns="http://www.w3.org/2000/svg" viewBox="0 0 22.237 16.331">
  <path id="Path_13262" data-name="Path 13262" d="M403.038,16.5V28.231c-.047.181-.083.366-.144.542a2.608,2.608,0,0,1-2.552,1.76H383.5c-.058,0-.116,0-.174,0a2.594,2.594,0,0,1-1.993-1.033,3,3,0,0,1-.53-1.266V16.5c.047-.181.083-.366.144-.542A2.608,2.608,0,0,1,383.5,14.2h16.845c.058,0,.116,0,.174,0a2.6,2.6,0,0,1,1.993,1.033A3,3,0,0,1,403.038,16.5Zm-1.737.84c-.111.081-.181.131-.249.182q-4.45,3.31-8.9,6.626a.325.325,0,0,1-.474,0q-4.442-3.32-8.9-6.626c-.072-.053-.145-.1-.247-.177v.281q0,5.06,0,10.119c0,.723.324,1.047,1.044,1.047h16.677c.719,0,1.041-.325,1.041-1.05q0-5.06,0-10.119Zm-1.04-1.4H383.579l8.34,6.2Z" transform="translate(-380.801 -14.202)" fill="currentColor" fill-rule="evenodd"/>
</svg>
