<svg xmlns="http://www.w3.org/2000/svg" viewBox="0 0 19.635 19.635">
  <g id="Group_4332" data-name="Group 4332" transform="translate(-520.801 -59.8)">
    <path id="Path_2653" data-name="Path 2653" d="M520.8,70.193v-1.15c.012-.068.026-.135.035-.2.047-.354.074-.712.141-1.062a9.817,9.817,0,0,1,7.95-7.826c.37-.064.745-.1,1.117-.151h1.151c.259.031.519.057.777.094a9.824,9.824,0,0,1,8.314,8.035c.064.369.1.743.151,1.114v1.15c-.012.068-.026.135-.035.2-.047.354-.074.712-.141,1.062a9.818,9.818,0,0,1-7.95,7.826c-.37.064-.744.1-1.117.151h-1.151c-.259-.031-.519-.057-.777-.094a9.823,9.823,0,0,1-8.314-8.034C520.887,70.938,520.851,70.564,520.8,70.193Zm9.811-9.224a8.648,8.648,0,1,0,8.655,8.642A8.662,8.662,0,0,0,530.612,60.969Z" transform="translate(0)" fill="currentColor" fill-rule="evenodd"/>
    <path id="Path_2654" data-name="Path 2654" d="M611.264,273.508h5.023c.534,0,.743.216.726.747a5.753,5.753,0,0,1-10.338,3.326,5.71,5.71,0,0,1-1.175-3.358c-.012-.489.2-.715.7-.715Zm4.534,1.185h-9.082a4.578,4.578,0,0,0,9.082,0Z" transform="translate(-80.639 -203.464)" fill="currentColor" fill-rule="evenodd"/>
    <path id="Path_2655" data-name="Path 2655" d="M607.247,195.627a2.426,2.426,0,0,1,1.69.655.587.587,0,0,1,.1.85.575.575,0,0,1-.852.033,1.3,1.3,0,0,0-1.557-.192,3.519,3.519,0,0,0-.306.229.584.584,0,0,1-.811-.067.577.577,0,0,1,.034-.8A2.4,2.4,0,0,1,607.247,195.627Z" transform="translate(-80.508 -129.316)" fill="currentColor" fill-rule="evenodd"/>
    <path id="Path_2656" data-name="Path 2656" d="M768.484,195.639a2.321,2.321,0,0,1,1.48.662.584.584,0,1,1-.763.882,1.284,1.284,0,0,0-1.817-.01.586.586,0,1,1-.762-.886A2.579,2.579,0,0,1,768.484,195.639Z" transform="translate(-233.808 -129.328)" fill="currentColor" fill-rule="evenodd"/>
  </g>
</svg>
