<svg xmlns="http://www.w3.org/2000/svg" xmlns:xlink="http://www.w3.org/1999/xlink" width="300" height="300" viewBox="0 0 300 300">
  <defs>
    <clipPath id="clip-Enjin">
      <rect width="300" height="300"/>
    </clipPath>
  </defs>
  <g id="Enjin" clip-path="url(#clip-Enjin)">
    <rect width="300" height="300" fill="rgba(255,255,255,0)"/>
    <path id="Path_3" data-name="Path 3" d="M20,0H270a20,20,0,0,1,20,20V270a20,20,0,0,1-20,20H20A20,20,0,0,1,0,270V20A20,20,0,0,1,20,0Z" transform="translate(5 5)" fill="#7866d5"/>
    <g id="enjin-coin-enj-logo" transform="translate(71 72.62)">
      <g id="Group_1" data-name="Group 1" transform="translate(-40.569 -17.461)">
        <path id="Path_4" data-name="Path 4" d="M217.809,36.558c6.183.773,12.623,1.288,18.806,2.319,12.108,2.319,16.23,8.5,14.169,20.867a10.383,10.383,0,0,1-8.759,9.016,33.405,33.405,0,0,1-8.759.515c-40.187,0-80.117.258-120.3.258a106.545,106.545,0,0,0-18.033,1.546c-19.836,3.091-27.564,11.335-29.11,31.429-.773,9.274-.773,9.274,8.759,9.274H238.933a14.572,14.572,0,0,1,7.213,2.061c7.213,4.637,5.41,12.108,5.152,18.806-.258,5.41-3.607,8.5-9.274,9.532a32.833,32.833,0,0,1-7.213.515H70.97c-5.925,0-5.925,0-5.41,5.925a87.464,87.464,0,0,0,2.061,16.23c2.576,9.789,8.5,15.972,18.548,18.806,10.82,3.091,22.155,3.607,33.232,3.864H236.615c4.895,0,9.532.515,12.623,5.152a16.422,16.422,0,0,1-5.41,22.67,7.984,7.984,0,0,1-3.349,1.546c-8.5,2.834-17.26,3.349-26.276,3.607-36.839.773-73.419.773-110,0a185.575,185.575,0,0,1-33.747-3.864c-26.019-5.41-39.157-18.806-43.536-45.082-1.03-5.925-1.546-12.108-2.319-18.29V105.34c.515-4.637,1.03-9.532,1.546-14.169C29.495,61.546,42.89,46.862,72,40.164c10.3-2.319,21.124-2.834,31.429-3.864Z" transform="translate(-19.963 -31.663)" fill="#fff"/>
        <path id="Path_5" data-name="Path 5" d="M161.91,228.482c-18.548,0-36.838-.258-55.129-.515a173.144,173.144,0,0,1-34.52-4.122c-28.08-5.925-42.506-20.867-47.143-48.689a116.716,116.716,0,0,1-1.546-12.881c-.258-1.8-.515-3.607-.773-5.667V107.662l.515-4.637c.258-3.349.773-6.44,1.03-9.532,3.607-31.686,18.548-47.916,49.719-54.871A202.3,202.3,0,0,1,98.28,35.273l7.728-.773h115.41a42.126,42.126,0,0,0,5.667.515,127.918,127.918,0,0,1,13.4,1.8c14.684,2.834,20.351,11.077,17.775,26.019a15.025,15.025,0,0,1-12.881,12.881,57.13,57.13,0,0,1-9.532.773c-39.93.258-80.117.515-120.047.515a97.723,97.723,0,0,0-17.26,1.546c-17.775,2.834-23.7,9.274-25.246,27.307,0,1.546-.258,3.091-.258,4.379H241.77a20.283,20.283,0,0,1,9.532,2.576c8.759,5.667,7.986,14.169,7.471,20.351,0,.773-.258,1.8-.258,2.576-.515,7.213-4.895,12.108-12.881,13.653a42.965,42.965,0,0,1-7.986.515H73.034v1.03A79.545,79.545,0,0,0,75.1,166.655c2.061,7.986,6.956,12.881,15.2,15.2,11.077,3.091,22.412,3.607,32.2,3.607,30.4.258,61.312.258,91.452.258h25.761c3.864,0,11.85,0,16.487,7.471a20.628,20.628,0,0,1,2.576,15.972,21.316,21.316,0,0,1-9.532,13.138,22.837,22.837,0,0,1-4.379,2.061c-9.532,3.091-19.321,3.607-27.564,3.864C199.007,228.224,180.458,228.482,161.91,228.482ZM32.074,155.835a38.432,38.432,0,0,1,.515,5.41l1.546,12.365c4.122,24.216,15.714,36.066,39.93,41.218a177.294,177.294,0,0,0,32.974,3.864c36.323.773,73.419.773,110,0,7.471-.258,16.487-.773,24.731-3.349.773-.258,1.546-.773,2.319-1.03a13.213,13.213,0,0,0,5.41-7.471,11.283,11.283,0,0,0-1.546-9.016c-1.546-2.319-3.607-3.091-8.5-3.091H213.69c-29.883,0-61.054,0-91.452-.258-10.3,0-22.412-.515-34.52-4.122-11.593-3.091-18.806-10.562-21.639-22.155a78.986,78.986,0,0,1-2.061-17.26v-.258c-.258-3.607-.515-6.183,1.546-8.5s4.895-2.319,8.5-2.319H237.906a27.189,27.189,0,0,0,6.44-.515c4.122-.773,5.152-2.576,5.41-5.152,0-1.03.258-1.8.258-2.834.515-6.44.515-9.532-3.091-11.85a9.641,9.641,0,0,0-4.637-1.288H77.414c-5.667,0-9.016,0-11.593-2.576s-2.061-6.183-1.8-11.593C65.821,81.9,75.1,71.854,96.992,68.5A150,150,0,0,1,115.8,66.7c40.187,0,80.117-.258,120.3-.258a40.3,40.3,0,0,0,7.986-.515,5.486,5.486,0,0,0,4.895-4.895c1.8-10.3-.773-13.653-10.562-15.714a101.343,101.343,0,0,0-12.365-1.546,42.126,42.126,0,0,0-5.667-.515H106.524l-7.728.773C90.81,44.8,83.339,45.32,75.61,47.123c-27.049,6.7-38.9,19.836-41.991,47.658-.258,3.091-.773,6.183-1.03,9.532l-.515,4.379v47.143Z" transform="translate(-22.8 -34.5)" fill="#fff"/>
      </g>
    </g>
  </g>
</svg>
