<svg xmlns="http://www.w3.org/2000/svg" viewBox="0 0 63.317 62.716">
  <g id="Group_1866" data-name="Group 1866" transform="translate(-1408.376 805.269) rotate(-40)">
    <path id="Path_1104" data-name="Path 1104" d="M1577,326.055a16.091,16.091,0,0,1,.828-2.509,7.075,7.075,0,0,1,6.258-4.025c1.163-.063,2.333-.019,3.5-.019h31.394l-5.7-5.7,2.157-2.156c.067.061.18.156.284.259q3.909,3.907,7.817,7.816a1.531,1.531,0,0,1-.006,2.5q-3.89,3.893-7.783,7.785c-.106.106-.219.2-.3.284l-2.063-2.062,5.772-5.753c-.283-.013-.429-.026-.575-.026q-16.949,0-33.9,0A4.314,4.314,0,0,0,1580.41,325a5.479,5.479,0,0,0-.442,2.087c-.059,1.87-.02,3.743-.02,5.7H1577Z" transform="translate(0 0)" fill="currentColor" fill-rule="evenodd"/>
    <path id="Path_1105" data-name="Path 1105" d="M1577,552.606a11.307,11.307,0,0,1,.863-1.109q3.747-3.778,7.517-7.533a2.8,2.8,0,0,0,.276-.374l2.146,2.152-5.736,5.724c.232.01.377.022.522.022q16.954,0,33.907,0a4.4,4.4,0,0,0,4.563-3.324,5.4,5.4,0,0,0,.164-1.409c.018-1.84.007-3.681.007-5.553h2.948v.917q0,2.349,0,4.7a7.384,7.384,0,0,1-7.619,7.619q-16.931.008-33.861,0h-.584l5.7,5.683-2.21,2.2a1.317,1.317,0,0,0-.209-.353c-2.481-2.492-4.973-4.974-7.45-7.47a14.6,14.6,0,0,1-.944-1.159Z" transform="translate(0 -208.398)" fill="currentColor" fill-rule="evenodd"/>
  </g>
</svg>
