<svg xmlns="http://www.w3.org/2000/svg" viewBox="0 0 23.952 23.952">
  <g id="Group_1918" data-name="Group 1918" transform="translate(-1290.75 -329.138)">
    <path id="Path_1190" data-name="Path 1190" d="M1290.75,459.307c.092-.5.156-1.014.282-1.508a8.152,8.152,0,1,1,9.314,10.122c-.282.049-.566.09-.849.134h-1.216c-.175-.029-.349-.061-.525-.085a8.148,8.148,0,0,1-6.767-6.121c-.1-.437-.161-.884-.239-1.326Zm15.286.6a7.129,7.129,0,1,0-7.156,7.119A7.151,7.151,0,0,0,1306.036,459.907Z" transform="translate(0 -114.965)" fill="currentColor" fill-rule="evenodd"/>
    <path id="Path_1191" data-name="Path 1191" d="M1475.6,336.3c-.078.4-.133.813-.238,1.209a6.608,6.608,0,0,1-6.292,4.882c-.388,0-.633-.217-.607-.543a.527.527,0,0,1,.585-.481,5.6,5.6,0,1,0-5.668-5.767c-.013.447-.2.69-.53.684s-.506-.251-.5-.7a6.619,6.619,0,0,1,5.561-6.351c.176-.027.352-.058.528-.088h1.076a1.1,1.1,0,0,0,.156.04,6.6,6.6,0,0,1,5.707,4.923c.1.367.147.745.219,1.118Z" transform="translate(-160.898)" fill="currentColor" fill-rule="evenodd"/>
    <path id="Path_1192" data-name="Path 1192" d="M1544.513,545.39c-.077.483-.131.972-.236,1.449a8.934,8.934,0,0,1-7.016,6.944c-.268.048-.539.08-.81.108a.512.512,0,0,1-.6-.454.5.5,0,0,1,.489-.564,8.019,8.019,0,0,0,7.047-6.948,13.308,13.308,0,0,0,.087-1.514c.01-.411.1-.6.387-.68.264-.07.457.047.65.4Z" transform="translate(-229.811 -201.189)" fill="currentColor" fill-rule="evenodd"/>
    <path id="Path_1193" data-name="Path 1193" d="M1306.409,329.138a1.564,1.564,0,0,0,.178.04.519.519,0,0,1,.519.544.54.54,0,0,1-.606.482,13.115,13.115,0,0,0-1.376.006,7.874,7.874,0,0,0-6.938,5.819c-.113.419-.166.855-.239,1.284a.515.515,0,1,1-1.018-.135,8.979,8.979,0,0,1,4.305-6.752,8.383,8.383,0,0,1,3.78-1.246,1.274,1.274,0,0,0,.178-.041Z" transform="translate(-5.788)" fill="currentColor" fill-rule="evenodd"/>
    <path id="Path_1194" data-name="Path 1194" d="M1539.894,371.839a1.938,1.938,0,0,1-1.228,1.8.405.405,0,0,0-.31.427.5.5,0,0,1-1.009.032.428.428,0,0,0-.335-.432,1.959,1.959,0,0,1-1.135-1.082.515.515,0,0,1,.231-.715.5.5,0,0,1,.683.262,1.144,1.144,0,0,0,1.687.444.744.744,0,0,0,.163-1.2,3.263,3.263,0,0,0-.88-.592,4.719,4.719,0,0,1-1.307-.8,1.818,1.818,0,0,1,.556-3.1.474.474,0,0,0,.338-.483.5.5,0,0,1,1.008.017.4.4,0,0,0,.3.407,1.976,1.976,0,0,1,1.173,1.105.509.509,0,0,1-.247.707.488.488,0,0,1-.675-.275,1.167,1.167,0,0,0-1.574-.51.816.816,0,0,0-.171,1.4c.29.206.615.363.923.544.375.221.768.416,1.118.672A1.624,1.624,0,0,1,1539.894,371.839Z" transform="translate(-229.777 -34.487)" fill="currentColor" fill-rule="evenodd"/>
    <path id="Path_1195" data-name="Path 1195" d="M1370.524,504.447c-.05.171-.115.467-.224.745-.119.3-.128.337.126.525a2.038,2.038,0,0,1-1.1,3.693c-.261.015-.324.08-.327.346,0,.2,0,.405,0,.608a.532.532,0,0,1-.517.576.521.521,0,0,1-.507-.578c0-.2,0-.405,0-.608,0-.257-.085-.338-.334-.341-.211,0-.421,0-.632,0a.262.262,0,0,0-.3.3c0,.226.006.452,0,.678a.525.525,0,0,1-.529.561.518.518,0,0,1-.494-.567c0-.195,0-.39,0-.585,0-.316-.072-.387-.381-.389-.211,0-.421,0-.632,0a.512.512,0,1,1-.006-1.024c.218-.007.437,0,.655,0,.283,0,.363-.078.364-.359,0-.709,0-1.419,0-2.129q0-1.1,0-2.2c0-.329-.072-.4-.4-.4-.21,0-.421.005-.631,0a.507.507,0,0,1-.021-1.014c.233-.017.468,0,.7-.008.268-.005.342-.081.346-.354,0-.21,0-.421,0-.632a.508.508,0,0,1,1.016-.041c.019.24.009.483.008.725,0,.2.094.3.3.3s.437,0,.655,0,.311-.11.312-.317c0-.226,0-.452,0-.678a.509.509,0,1,1,1.018-.02,6.069,6.069,0,0,1,0,.748.414.414,0,0,0,.3.458A2.057,2.057,0,0,1,1370.524,504.447Zm-2.335,1.913c-.389,0-.779,0-1.168,0-.253,0-.317.066-.319.322q-.006.689,0,1.378c0,.247.077.321.323.322.74,0,1.479.006,2.219,0a1.01,1.01,0,0,0,0-2.021C1368.89,506.355,1368.539,506.36,1368.189,506.36Zm-.422-3.04V503.3c-.257,0-.513,0-.77,0-.184,0-.295.088-.3.283q0,.735,0,1.47a.244.244,0,0,0,.251.277c.575,0,1.152.019,1.724-.029a.913.913,0,0,0,.8-.985.93.93,0,0,0-.8-.986A7.457,7.457,0,0,0,1367.767,503.319Z" transform="translate(-68.807 -160.906)" fill="currentColor" fill-rule="evenodd"/>
  </g>
</svg>
