<svg xmlns="http://www.w3.org/2000/svg" viewBox="0 0 17.957 23.938">
  <g id="Group_4412" data-name="Group 4412" transform="translate(-490.988 9.711)">
    <path id="Path_13609" data-name="Path 13609" d="M501.414-9.711a3.352,3.352,0,0,1,1.793,1.139c1.639,1.688,3.295,3.36,4.95,5.033a2.619,2.619,0,0,1,.787,1.931q-.009,6.7,0,13.394a2.308,2.308,0,0,1-2.451,2.44H493.423a2.307,2.307,0,0,1-2.435-2.433q0-9.526,0-19.051a2.3,2.3,0,0,1,1.947-2.424.3.3,0,0,0,.063-.03ZM491.982,2.258q0,4.769,0,9.537a1.323,1.323,0,0,0,1.421,1.437q6.569,0,13.137,0a1.314,1.314,0,0,0,1.407-1.4q0-6.744,0-13.488a1.551,1.551,0,0,0-.46-1.137q-2.692-2.729-5.379-5.463a1.457,1.457,0,0,0-1.086-.458c-2.556,0-5.112-.007-7.667.01a1.649,1.649,0,0,0-.79.229,1.278,1.278,0,0,0-.586,1.2Q491.985-2.511,491.982,2.258Z" fill="currentColor" fill-rule="evenodd"/>
    <path id="Path_13610" data-name="Path 13610" d="M560.965,216.753c0-.666,0-1.3,0-1.94a.505.505,0,0,1,.392-.537.56.56,0,0,1,.538.21q1.4,1.407,2.81,2.81.752.752,1.5,1.5a.535.535,0,0,1,0,.9q-2.148,2.149-4.3,4.3a.552.552,0,0,1-.644.192.536.536,0,0,1-.305-.576c.007-.614,0-1.228,0-1.872h-5.337c-.48,0-.648-.166-.648-.645q0-1.835,0-3.67c0-.509.163-.675.667-.676h5.318Zm.994-.736c0,.363,0,.7,0,1.044,0,.547-.149.7-.69.7H555.99v2.992h5.337c.473,0,.63.158.631.631,0,.362,0,.725,0,1.076l3.221-3.221Z" transform="translate(-61 -213.501)" fill="currentColor" fill-rule="evenodd"/>
    <path id="Path_13611" data-name="Path 13611" d="M694.677,54.582c0,.829,0,1.638,0,2.448a.938.938,0,0,0,1.027,1.032c.973,0,1.946,0,2.939,0v.994h-.214q-1.367,0-2.734,0a1.914,1.914,0,0,1-2.011-1.988c-.005-.763,0-1.527,0-2.29,0-.061.006-.122.01-.2Z" transform="translate(-193.217 -61.287)" fill="currentColor" fill-rule="evenodd"/>
  </g>
</svg>
