<svg xmlns="http://www.w3.org/2000/svg" viewBox="0 0 23.228 19.931">
  <g id="Group_3268" data-name="Group 3268" transform="translate(-1130.746 -228.88)" opacity="0.19">
    <path id="Path_2728" data-name="Path 2728" d="M1130.746,238.981v-.272a3.7,3.7,0,0,1,.342-.579c.586-.682,1.161-1.377,1.792-2.015a17.518,17.518,0,0,1,5.464-3.861,9.726,9.726,0,0,1,4.023-.868,10.187,10.187,0,0,1,4.656,1.176.385.385,0,0,0,.549-.094c.819-.838,1.654-1.66,2.483-2.488.289-.288.573-.582.869-.863a.826.826,0,0,1,1.4.543.891.891,0,0,1-.318.72q-1.511,1.5-3.016,3.014c-.057.057-.111.117-.177.187.085.064.155.119.228.17a21.63,21.63,0,0,1,4.581,4.363,5.5,5.5,0,0,1,.358.6v.272a3.693,3.693,0,0,1-.342.579c-.586.682-1.16,1.377-1.792,2.015a17.514,17.514,0,0,1-5.464,3.861,9.726,9.726,0,0,1-4.023.868,10.189,10.189,0,0,1-4.656-1.176.385.385,0,0,0-.549.094c-.819.838-1.654,1.66-2.483,2.488-.289.288-.572.582-.869.863a.827.827,0,0,1-1.4-.543.891.891,0,0,1,.318-.72q1.512-1.5,3.016-3.014c.057-.057.111-.117.177-.187-.085-.064-.155-.119-.228-.17a21.632,21.632,0,0,1-4.581-4.363A5.5,5.5,0,0,1,1130.746,238.981Zm8.121,2.139a4.181,4.181,0,0,1,5.759-5.774l1.407-1.411c-.026-.014-.071-.042-.118-.064a8.5,8.5,0,0,0-3.319-.823,8.742,8.742,0,0,0-4.384,1.108,16.112,16.112,0,0,0-3.8,2.8c-.617.6-1.193,1.237-1.795,1.865a20.609,20.609,0,0,0,4.48,4.063Zm6.967-4.582a4.051,4.051,0,0,1-.328,4.973c-1.537,1.76-3.429,1.882-5.407.838l-1.406,1.409c.017.009.056.032.1.051a8.46,8.46,0,0,0,3.339.832,8.73,8.73,0,0,0,4.384-1.11,17.008,17.008,0,0,0,4.209-3.191c.472-.475.914-.981,1.375-1.48a20.6,20.6,0,0,0-4.5-4.071c-.057.052-.108.1-.156.143Zm-2.468.059a2.447,2.447,0,0,0-3.251,3.251Zm-2.011,4.5a2.447,2.447,0,0,0,3.251-3.251Z" transform="translate(0 0)" fill-rule="evenodd"/>
  </g>
</svg>
