<svg xmlns="http://www.w3.org/2000/svg" viewBox="0 0 22.365 22.365">
  <g id="Group_3766" data-name="Group 3766" transform="translate(-597.801 -4.8)">
    <path id="Path_13008" data-name="Path 13008" d="M597.8,24.238V7.727c.015-.055.033-.109.043-.165a3.179,3.179,0,0,1,1.814-2.423,7.487,7.487,0,0,1,1.07-.339h16.512a.871.871,0,0,0,.123.039,3.183,3.183,0,0,1,2.495,1.877,7.162,7.162,0,0,1,.309,1.011V24.238c-.015.055-.033.109-.043.165a3.179,3.179,0,0,1-1.814,2.423,7.484,7.484,0,0,1-1.07.338H611.6V19.257h3.32l.656-3.938h-3.965v-2.66h3.948V8.731c-1.3,0-2.592,0-3.88,0a3.935,3.935,0,0,0-4.009,4.01c0,.779,0,1.558,0,2.337v.256h-2.61v3.927h2.61v7.9h-6.945a.866.866,0,0,0-.123-.039,3.183,3.183,0,0,1-2.495-1.877A7.168,7.168,0,0,1,597.8,24.238Z" fill="currentColor" fill-rule="evenodd"/>
  </g>
</svg>
