<svg xmlns="http://www.w3.org/2000/svg" xmlns:xlink="http://www.w3.org/1999/xlink" viewBox="0 0 53.952 53.952">
  <defs>
    <clipPath id="clip-path">
      <rect id="Rectangle_700" data-name="Rectangle 700" width="53.952" height="53.952" transform="translate(0)" fill="currentColor"/>
    </clipPath>
  </defs>
  <g id="Group_3741" data-name="Group 3741" transform="translate(-470 -23)">
    <g id="Group_3740" data-name="Group 3740" transform="translate(470 23)" clip-path="url(#clip-path)">
      <g id="Group_3739" data-name="Group 3739" transform="translate(0.105 1.387)">
        <path id="Path_12966" data-name="Path 12966" d="M470.75,47.921a10.212,10.212,0,0,1,.516-1.312,3.787,3.787,0,0,1,2.827-1.976c.137-.022.273-.054.464-.093v-.569c0-1.721-.007-3.441,0-5.162a5.762,5.762,0,0,1,5.965-5.937q8.664-.01,17.329,0a6.684,6.684,0,0,1,1.411.137,5.453,5.453,0,0,1,4.463,4.959,78.008,78.008,0,0,1-.014,8.733,5.51,5.51,0,0,1-5.47,5c-3.125.041-6.25.013-9.376.014q-4.135,0-8.27,0a5.725,5.725,0,0,1-6-5.177c-.018-.117-.052-.232-.078-.345a2.3,2.3,0,0,0-2.186,2.288c-.021,1.352-.013,2.7,0,4.056,0,.453-.061.861-.54,1.031s-.794-.112-1.044-.486Zm18.387,2.217q4.32,0,8.64,0a4.183,4.183,0,0,0,4.46-4.444q.007-3.4,0-6.8a4.2,4.2,0,0,0-4.466-4.444q-8.587,0-17.174,0a4.2,4.2,0,0,0-4.459,4.45q-.005,3.372,0,6.743a4.19,4.19,0,0,0,4.465,4.491Q484.87,50.141,489.137,50.137Z" transform="translate(-470.75 -32.869)" fill="currentColor" fill-rule="evenodd"/>
        <path id="Path_12967" data-name="Path 12967" d="M524.7,211.073c-.069.214-.137.429-.208.643a3.963,3.963,0,0,1-3.756,2.711c-.859.02-1.721.029-2.579,0a1.131,1.131,0,0,0-1.135.669c-.859,1.528-1.819,3-2.6,4.571a1.752,1.752,0,0,1-3.291.022c-.761-1.517-1.7-2.943-2.518-4.436a1.407,1.407,0,0,0-1.413-.831q-15.822.031-31.644.014c-2.82,0-3.861-.727-4.808-3.359V192.317c.269-.344.558-.648,1.055-.459s.529.59.529,1.037q-.007,8.64,0,17.281A2.418,2.418,0,0,0,475,212.851q17.913,0,35.826,0c.176,0,.351,0,.527,0a.769.769,0,0,1,.845.745.784.784,0,0,1-.829.827c-.435.02-.872,0-1.414,0l2.8,4.871c.135-.218.236-.373.329-.533.877-1.519,1.762-3.034,2.626-4.561a2.463,2.463,0,0,1,2.369-1.36c.842.021,1.686.012,2.529,0a2.388,2.388,0,0,0,2.508-2.522c0-.632.009-1.265,0-1.9-.008-.443.027-.855.51-1.049s.787.1,1.074.425Z" transform="translate(-470.75 -169.467)" fill="currentColor" fill-rule="evenodd"/>
        <path id="Path_12968" data-name="Path 12968" d="M737.265,140.13a.834.834,0,0,1-1.031.513c-.487-.154-.554-.562-.554-1.017q.009-9.611,0-19.222a2.418,2.418,0,0,0-2.7-2.7H719.3a4.721,4.721,0,0,1-.526-.012.777.777,0,0,1-.108-1.53,2.306,2.306,0,0,1,.575-.037q6.846,0,13.692,0a3.981,3.981,0,0,1,4.276,3.269.312.312,0,0,0,.06.084Z" transform="translate(-683.313 -104.425)" fill="currentColor" fill-rule="evenodd"/>
        <path id="Path_12969" data-name="Path 12969" d="M678.246,202.9h8.316a3.962,3.962,0,0,1,.473.009.738.738,0,0,1,.721.762.749.749,0,0,1-.689.8,2.565,2.565,0,0,1-.472.014H669.858a3.815,3.815,0,0,1-.421-.006.781.781,0,0,1-.748-.8.762.762,0,0,1,.768-.769c.367-.02.737-.007,1.105-.007Z" transform="translate(-640.875 -179.002)" fill="currentColor" fill-rule="evenodd"/>
        <path id="Path_12970" data-name="Path 12970" d="M678.195,237.224h8.368c.175,0,.4-.056.515.031.244.184.575.43.6.677s-.246.561-.457.778c-.1.108-.364.09-.553.09q-8.474.006-16.947,0a1.755,1.755,0,0,1-.568-.074.642.642,0,0,1-.477-.818,1.641,1.641,0,0,1,.634-.659c.119-.084.341-.027.516-.027Z" transform="translate(-640.833 -208.493)" fill="currentColor" fill-rule="evenodd"/>
        <path id="Path_12971" data-name="Path 12971" d="M523.2,191.791a12.144,12.144,0,0,1,1.79.429,3.057,3.057,0,0,1,1.319,4.761,5.925,5.925,0,0,1-1.3,1.431,2.872,2.872,0,0,0-1.22,2.529c.009.653-.223.844-.856.856s-.884-.2-.914-.821a3.713,3.713,0,0,1,1.265-3.252,4.7,4.7,0,0,0,.94-.836,4,4,0,0,0,.69-1.478,1.283,1.283,0,0,0-1.023-1.5,2.232,2.232,0,0,0-2.611.675.818.818,0,0,1-1.116.271.931.931,0,0,1-.414-1.179,2.565,2.565,0,0,1,1.7-1.535A13.275,13.275,0,0,1,523.2,191.791Z" transform="translate(-512.802 -169.46)" fill="currentColor" fill-rule="evenodd"/>
        <path id="Path_12972" data-name="Path 12972" d="M620.289,195.607q0,3.262,0,6.524a3.972,3.972,0,0,1-.017.525.724.724,0,0,1-.746.676.715.715,0,0,1-.767-.588,2.451,2.451,0,0,1-.048-.573q0-6.577,0-13.154a2.616,2.616,0,0,1,.03-.523.724.724,0,0,1,.824-.641.71.71,0,0,1,.712.7,5.026,5.026,0,0,1,.013.526Q620.289,192.345,620.289,195.607Z" transform="translate(-597.917 -166.073)" fill="currentColor" fill-rule="evenodd"/>
        <path id="Path_12973" data-name="Path 12973" d="M674.193,271.7c1.387,0,2.773,0,4.16,0,.636,0,.989.275,1.006.755.018.5-.356.82-1,.821q-4.16.008-8.32,0c-.388,0-.79-.057-.906-.472a1.015,1.015,0,0,1,.116-.811,1.153,1.153,0,0,1,.789-.285C671.419,271.683,672.806,271.7,674.193,271.7Z" transform="translate(-641.223 -238.134)" fill="currentColor" fill-rule="evenodd"/>
        <path id="Path_12974" data-name="Path 12974" d="M535.492,272.678a1.272,1.272,0,0,1,1.273,1.266,1.3,1.3,0,0,1-1.24,1.259,1.183,1.183,0,0,1-1.169-1.279A1.152,1.152,0,0,1,535.492,272.678Z" transform="translate(-525.418 -238.98)" fill="currentColor" fill-rule="evenodd"/>
        <path id="Path_12975" data-name="Path 12975" d="M623.548,69.774c.041-.786.041-1.578.134-2.358a1.959,1.959,0,0,1,1.407-1.677,3.629,3.629,0,0,1,2.423-.007,2.164,2.164,0,0,1,1.509,2.179c.039,1.261.049,2.526,0,3.787a2.179,2.179,0,0,1-1.866,2.275c-.32.074-.4.214-.378.5a.719.719,0,0,1-.032.412c-.1.152-.28.347-.429.351a.672.672,0,0,1-.458-.321c-.081-.13,0-.355-.057-.509s-.19-.363-.33-.4a2.265,2.265,0,0,1-1.877-2.386c-.026-.613,0-1.227,0-1.841Zm3.434,2.891c.164-.266.461-.527.47-.8.047-1.381.055-2.766,0-4.146-.023-.565-.57-.888-1.2-.866s-1.073.332-1.093.914c-.047,1.346-.034,2.7-.007,4.043a.759.759,0,0,0,.633.785c.073-.411-.123-.991.523-.99S626.69,72.227,626.982,72.665Z" transform="translate(-602.077 -60.938)" fill="currentColor" fill-rule="evenodd"/>
        <path id="Path_12976" data-name="Path 12976" d="M573.829,71.808c-.134.471-.25.909-.384,1.342-.146.471-.486.6-1.056.425-.529-.165-.708-.416-.568-.88.7-2.313,1.417-4.621,2.116-6.935a.934.934,0,0,1,1.057-.663.95.95,0,0,1,1.027.713c.685,2.281,1.394,4.555,2.091,6.832.16.522.012.787-.506.944s-.773.016-.94-.519c-.129-.412-.158-.965-.442-1.188-.264-.208-.806-.067-1.225-.072C574.615,71.8,574.232,71.808,573.829,71.808Zm2.329-1.215L575.2,67.24l-.1.019-.919,3.334Z" transform="translate(-557.58 -60.569)" fill="currentColor" fill-rule="evenodd"/>
        <path id="Path_12977" data-name="Path 12977" d="M543.5,69.269c.59,0,1.1.007,1.6,0a.541.541,0,0,1,.63.6.534.534,0,0,1-.628.6c-.386-.013-.773.016-1.158-.007-.341-.02-.464.1-.455.448.021.825.011,1.65,0,2.475,0,.541-.187.715-.729.721-.568.006-.773-.182-.774-.736,0-2.335.006-4.669-.007-7,0-.5.214-.714.687-.714,1.316,0,2.633,0,3.95,0,.427,0,.533.275.533.625s-.088.676-.544.676c-.878,0-1.755.011-2.632-.011-.359-.009-.5.093-.487.472C543.524,68,543.5,68.6,543.5,69.269Z" transform="translate(-531.981 -61.04)" fill="currentColor" fill-rule="evenodd"/>
      </g>
    </g>
  </g>
</svg>
