<svg xmlns="http://www.w3.org/2000/svg" xmlns:xlink="http://www.w3.org/1999/xlink" width="300" height="300" viewBox="0 0 300 300">
  <defs>
    <linearGradient id="linear-gradient" x1="0.794" y1="2.69" x2="0.799" y2="2.694" gradientUnits="objectBoundingBox">
      <stop offset="0" stop-color="#00aee9"/>
      <stop offset="1" stop-color="#69fabd"/>
    </linearGradient>
    <clipPath id="clip-Harmony_">
      <rect width="300" height="300"/>
    </clipPath>
  </defs>
  <g id="Harmony_" data-name="Harmony " clip-path="url(#clip-Harmony_)">
    <rect width="300" height="300" fill="rgba(255,255,255,0)"/>
    <path id="Shape" d="M268.523,60.062a57.326,57.326,0,0,0-57.37,57.178v63.4c-5.908.4-11.95.65-18.212.65s-12.275.251-18.213.606V117.24a57.366,57.366,0,1,0-114.733,0L60,268.76a57.366,57.366,0,1,0,114.733,0l-.007-63.4c5.908-.4,11.95-.65,18.213-.65s12.275-.251,18.212-.606V268.76a57.366,57.366,0,1,0,114.733,0l-.007-151.52a57.326,57.326,0,0,0-57.355-57.178ZM117.358,83.489a33.84,33.84,0,0,1,33.855,33.751v67.134a192.971,192.971,0,0,0-48.744,13.781A88.628,88.628,0,0,0,83.562,209.44v-92.2a33.84,33.84,0,0,1,33.8-33.751ZM151.213,268.76a33.855,33.855,0,1,1-67.71,0v-15.2c0-13.427,10.635-26.144,28.464-34.062a166.912,166.912,0,0,1,39.246-11.477V268.76Zm117.31,33.751a33.84,33.84,0,0,1-33.855-33.751V201.626a192.965,192.965,0,0,0,48.744-13.781,88.623,88.623,0,0,0,18.907-11.285v92.2A33.84,33.84,0,0,1,268.523,302.511Zm5.391-136.1a166.911,166.911,0,0,1-39.246,11.477V117.24a33.855,33.855,0,0,1,67.71,0v15.2C302.378,145.807,291.743,158.525,273.914,166.412Z" transform="translate(-41.935 -40.87)" fill="url(#linear-gradient)"/>
  </g>
</svg>
