<svg xmlns="http://www.w3.org/2000/svg" viewBox="0 0 16.42 14.211">
  <g id="Group_3930" data-name="Group 3930" transform="translate(-521.75 -41.754)">
    <path id="Path_13249" data-name="Path 13249" d="M538.17,46.2v.738a.744.744,0,0,0-.027.108,5.169,5.169,0,0,1-.342,1.362,9.356,9.356,0,0,1-1.777,2.778,25.246,25.246,0,0,1-5.791,4.693.492.492,0,0,1-.572-.017c-.891-.606-1.8-1.184-2.668-1.826a18.361,18.361,0,0,1-3.667-3.516,7.73,7.73,0,0,1-1.369-2.552c-.091-.316-.139-.644-.207-.966v-.77a1.366,1.366,0,0,0,.029-.139,4.956,4.956,0,0,1,1.064-2.652,4.223,4.223,0,0,1,6.681-.069c.157.185.291.389.428.573a10.2,10.2,0,0,1,.678-.828,4.07,4.07,0,0,1,4.473-1.1,4.47,4.47,0,0,1,2.872,3.171C538.07,45.516,538.106,45.864,538.17,46.2Z" fill="currentColor" fill-rule="evenodd"/>
  </g>
</svg>
