<svg xmlns="http://www.w3.org/2000/svg" width="22.734" height="20.422" viewBox="0 0 22.734 20.422">
  <g id="Group_3924" data-name="Group 3924" transform="translate(-478.201 -0.332)">
    <path id="Path_13248" data-name="Path 13248" d="M500.334,7.895c-.074.419-.126.844-.227,1.257a8.176,8.176,0,0,1-1.467,2.951,23.925,23.925,0,0,1-3.572,3.668q-2.284,1.987-4.583,3.956a1.254,1.254,0,0,1-1.785.038c-2-1.731-4-3.456-5.968-5.214a15.035,15.035,0,0,1-2.633-3.017,7.548,7.548,0,0,1-1.268-3.5,1.087,1.087,0,0,0-.031-.142V6.927c.012-.068.029-.135.036-.2a6.584,6.584,0,0,1,1.233-3.347,5.679,5.679,0,0,1,4.17-2.386A5.528,5.528,0,0,1,489.1,2.973c.162.18.311.37.457.544.32-.346.607-.7.94-1.009a5.419,5.419,0,0,1,5.651-1.253,5.86,5.86,0,0,1,3.975,4.436c.1.4.145.824.215,1.236ZM489.561,18.846c.05-.04.084-.064.115-.091,1.586-1.368,3.178-2.731,4.757-4.108a22.026,22.026,0,0,0,3.134-3.217,6.664,6.664,0,0,0,1.438-3.177,5.529,5.529,0,0,0-1.178-4.412,4.425,4.425,0,0,0-6.713-.164c-.332.367-.605.786-.906,1.182a.782.782,0,0,1-1.276,0c-.089-.117-.164-.244-.246-.366a5.888,5.888,0,0,0-1.343-1.437,4.438,4.438,0,0,0-6.271,1.095,5.636,5.636,0,0,0-.251,6.125,10.615,10.615,0,0,0,2.236,2.822c1.3,1.208,2.63,2.377,3.958,3.551C487.85,17.392,488.7,18.108,489.561,18.846Z" transform="translate(0)" fill="#181c3a" stroke="#181c3a" stroke-width="1.2" fill-rule="evenodd"/>
  </g>
</svg>
