<svg xmlns="http://www.w3.org/2000/svg" viewBox="0 0 42.836 39.158">
  <g id="Group_3678" data-name="Group 3678" transform="translate(-797.159 -26.751)">
    <path id="Path_12815" data-name="Path 12815" d="M839.9,47.764a12.746,12.746,0,0,1-.557,1.813,6.082,6.082,0,0,1-5.717,3.67c-.415.012-.83,0-1.307,0,0,.528,0,1.035,0,1.543a6.224,6.224,0,0,1-6.362,6.287q-5.724,0-11.448,0h-.559v.469c0,1.041,0,2.081,0,3.122,0,.447-.021.878-.51,1.081s-.815-.065-1.134-.384c-1.345-1.344-2.689-2.688-4.052-4.013a1.042,1.042,0,0,0-.643-.263c-1.636-.041-3.282.05-4.907-.094a6.053,6.053,0,0,1-5.366-5.174,1.366,1.366,0,0,0-.077-.23V39.353a13.241,13.241,0,0,1,.625-1.965,6.012,6.012,0,0,1,5.265-3.51c.538-.04,1.081-.006,1.651-.006.038-.569.047-1.12.116-1.663a6.077,6.077,0,0,1,5.732-5.314c2.745-.085,5.495-.031,8.242-.027a.836.836,0,1,1-.033,1.661c-2.581.006-5.162-.005-7.743.005a4.485,4.485,0,0,0-4.478,3.507,5.338,5.338,0,0,0-.123,1.2q-.012,6.807,0,13.613a4.526,4.526,0,0,0,4.713,4.725q6.224.009,12.447,0c.958,0,1.207.249,1.208,1.206,0,.746,0,1.493,0,2.322.149-.127.242-.2.324-.277.907-.9,1.826-1.785,2.709-2.707a1.689,1.689,0,0,1,1.362-.553c1.4.029,2.8.012,4.2.009a4.533,4.533,0,0,0,4.751-4.77q0-6.765,0-13.53a4.526,4.526,0,0,0-4.731-4.744q-3.955,0-7.91,0a.867.867,0,0,1-.927-.555.713.713,0,0,1,.246-.891,1.5,1.5,0,0,1,.776-.215c2.637-.015,5.273-.011,7.91-.006a7.341,7.341,0,0,1,.953.068,6.148,6.148,0,0,1,5.274,5.19,1.42,1.42,0,0,0,.076.232Zm-16.687,5.485h-.552c-3.788,0-7.576.019-11.363-.016a7.5,7.5,0,0,1-2.286-.354,6.1,6.1,0,0,1-4.165-5.953c-.008-3.621,0-7.243,0-10.864V35.53c-.441,0-.839,0-1.238,0a4.521,4.521,0,0,0-4.675,4.675q-.007,7.242.006,14.485a5.52,5.52,0,0,0,.164,1.357,4.362,4.362,0,0,0,2.164,2.778v-.474c0-1.263-.006-2.525,0-3.788,0-.645.38-1.026.926-.972a.834.834,0,0,1,.738.943c.006,1.457,0,2.914,0,4.371,0,.146.012.293.021.5h.735c1.471,0,2.942.008,4.412-.005a1.3,1.3,0,0,1,1,.413c.938.946,1.886,1.881,2.832,2.82.09.089.184.174.3.282a.954.954,0,0,0,.041-.15q0-1.061.006-2.123c0-1,.234-1.237,1.218-1.237,4.121,0,8.242.011,12.362-.012a5.01,5.01,0,0,0,1.792-.281c2.69-1.071,3.245-3.291,2.936-5.868a6.224,6.224,0,0,1-.781-.006,1.207,1.207,0,0,0-1.089.437c-1.3,1.327-2.632,2.627-3.95,3.937a.907.907,0,0,1-1,.319c-.387-.137-.551-.407-.553-.964C823.2,55.752,823.208,54.533,823.208,53.248Z" transform="translate(0)" fill="currentColor" stroke="currentColor" stroke-width="0.2" fill-rule="evenodd"/>
    <path id="Path_12816" data-name="Path 12816" d="M1089.3,106.219c0,.721.029,1.444-.011,2.163a11.53,11.53,0,0,1-.24,1.171.7.7,0,0,0,.084.42c.1.179.28.314.367.5a.8.8,0,0,1-.279.961.757.757,0,0,1-1.027-.057.579.579,0,0,0-.809-.11,3.316,3.316,0,0,1-4.758-2.8c-.068-1.579-.056-3.164,0-4.744a3.333,3.333,0,0,1,6.6-.407,21.22,21.22,0,0,1,.024,2.908Zm-1.79,2.225c.082-.1.112-.122.112-.142,0-1.551.034-3.1-.03-4.651a1.6,1.6,0,0,0-1.7-1.389,1.636,1.636,0,0,0-1.6,1.511c-.037,1.551-.051,3.1,0,4.654a1.592,1.592,0,0,0,2.292,1.313c-.238-.221-.474-.412-.676-.634a.827.827,0,1,1,1.174-1.164A5.075,5.075,0,0,1,1087.512,108.444Z" transform="translate(-255.625 -66.071)" fill="currentColor" stroke="currentColor" stroke-width="0.2" fill-rule="evenodd"/>
    <path id="Path_12817" data-name="Path 12817" d="M982.751,110.788c.049-.172.086-.348.149-.515q1.655-4.434,3.315-8.866c.02-.052.043-.1.063-.154a.832.832,0,0,1,.8-.616.817.817,0,0,1,.813.6q1.722,4.586,3.437,9.175a.837.837,0,1,1-1.559.573q-.553-1.433-1.075-2.878a.4.4,0,0,0-.45-.31q-1.164.024-2.329,0a.373.373,0,0,0-.419.293q-.53,1.464-1.093,2.915c-.222.572-.739.815-1.179.522a2.874,2.874,0,0,1-.541-.658Zm3.491-4.673h1.7l-.85-2.269Z" transform="translate(-166.124 -66.108)" fill="currentColor" stroke="currentColor" stroke-width="0.2" fill-rule="evenodd"/>
    <path id="Path_12818" data-name="Path 12818" d="M922.483,107.72c0,.914,0,1.773,0,2.631a3,3,0,0,1-.044.579.811.811,0,0,1-1.575.008,2.54,2.54,0,0,1-.048-.537q0-3.746,0-7.492a2.1,2.1,0,0,1,2.353-2.36c.666,0,1.332,0,2,0,.641,0,1.027.325,1.021.841s-.392.821-1.04.825q-1.082.005-2.164,0c-.273,0-.482.094-.485.389-.011,1.134,0,2.268,0,3.447h2.522c.759,0,1.16.282,1.172.822.012.557-.39.845-1.182.845Z" transform="translate(-110.692 -66.029)" fill="currentColor" stroke="currentColor" stroke-width="0.2" fill-rule="evenodd"/>
    <path id="Path_12819" data-name="Path 12819" d="M1032.29,27.923a.818.818,0,1,1-.8-.842A.831.831,0,0,1,1032.29,27.923Z" transform="translate(-209.103 -0.208)" fill="currentColor" stroke="currentColor" stroke-width="0.2" fill-rule="evenodd"/>
    <path id="Path_12820" data-name="Path 12820" d="M837.43,254.4a.828.828,0,0,1-.818.817.845.845,0,0,1-.837-.8.87.87,0,0,1,.845-.847A.849.849,0,0,1,837.43,254.4Z" transform="translate(-34.507 -203.119)" fill="currentColor" stroke="currentColor" stroke-width="0.2" fill-rule="evenodd"/>
  </g>
</svg>
