<svg xmlns="http://www.w3.org/2000/svg" viewBox="0 0 58.57 57.225">
  <g id="Group_3823" data-name="Group 3823" transform="translate(-637.402 -16.635)">
    <path id="Path_13042" data-name="Path 13042" d="M689.562,59.847a11.819,11.819,0,0,1-1.655-.675,3.565,3.565,0,0,1-1.87-3.162c-.024-3.771-.031-7.542,0-11.312a3.769,3.769,0,0,1,2.976-3.639c.151-.037.3-.078.447-.117a22.837,22.837,0,0,0-45.589-.019l.587.151a3.774,3.774,0,0,1,2.881,3.54c.038,3.809.056,7.62,0,11.429a3.9,3.9,0,0,1-4.851,3.647,5.768,5.768,0,0,1-4.955-5.22,65.669,65.669,0,0,1,0-8.325,5.428,5.428,0,0,1,3.063-4.473.778.778,0,0,0,.46-.7c1.012-11.061,6.628-18.835,17.009-22.74,14.64-5.507,30.918,3.862,33.818,19.218.219,1.161.319,2.346.443,3.523a.735.735,0,0,0,.406.68,5.913,5.913,0,0,1,3.218,5.424q.039,3.265,0,6.531a5.925,5.925,0,0,1-3.2,5.435.678.678,0,0,0-.386.688,30.77,30.77,0,0,1-.125,4.129,8.4,8.4,0,0,1-8.3,7.17c-1.263.02-2.527.013-3.79,0a.618.618,0,0,0-.664.395,4.116,4.116,0,0,1-3.871,2.43q-2.128.024-4.257,0a4.207,4.207,0,0,1-4.249-4.141,4.16,4.16,0,0,1,4.02-4.289c1.57-.079,3.149-.061,4.721-.007a4.063,4.063,0,0,1,3.677,2.452c.077.155.282.352.427.352a46.354,46.354,0,0,0,4.773-.1,5.536,5.536,0,0,0,4.825-5.314C689.588,61.8,689.562,60.788,689.562,59.847Zm-.741-9.535c0,1.807-.009,3.614,0,5.421a1.091,1.091,0,0,0,1.277,1.218,3.182,3.182,0,0,0,3.041-3.1q.069-3.5,0-6.995a3.2,3.2,0,0,0-2.857-3.105c-1-.088-1.461.315-1.465,1.316C688.815,46.815,688.82,48.563,688.821,50.312Zm-44.257.013c0-1.788.008-3.575,0-5.363a1.1,1.1,0,0,0-1.276-1.222,3.188,3.188,0,0,0-3.043,3.1c-.044,2.331-.041,4.664,0,6.995a3.193,3.193,0,0,0,2.913,3.107c.97.067,1.405-.329,1.409-1.314C644.57,53.862,644.565,52.094,644.564,50.325Zm28.916,20.728h2.158A1.408,1.408,0,0,0,677.1,69.64a1.378,1.378,0,0,0-1.433-1.436q-2.157-.036-4.315,0a1.384,1.384,0,0,0-1.439,1.432,1.407,1.407,0,0,0,1.467,1.412C672.081,71.064,672.781,71.052,673.481,71.053Z" fill="currentColor" fill-rule="evenodd"/>
    <path id="Path_13043" data-name="Path 13043" d="M723.557,96.417a15.89,15.89,0,1,1,15.872,15.925A15.882,15.882,0,0,1,723.557,96.417Zm28.982.056a13.091,13.091,0,1,0-13.1,13.07A13.076,13.076,0,0,0,752.539,96.472Z" transform="translate(-72.755 -53.982)" fill="currentColor" fill-rule="evenodd"/>
    <path id="Path_13044" data-name="Path 13044" d="M801.011,132.5a5.97,5.97,0,0,1,2.9.732,3.248,3.248,0,0,1,1.378,4.458,8.465,8.465,0,0,1-1.9,2.309,3.321,3.321,0,0,0-1.424,2.885.824.824,0,0,1-.733.905c-1.183.289-1.754-.142-1.775-1.353a4.152,4.152,0,0,1,1.644-3.556,11.007,11.007,0,0,0,1.3-1.157,1.562,1.562,0,0,0,.388-1.719,1.606,1.606,0,0,0-1.487-.947,2.338,2.338,0,0,0-2.493,1.111,1,1,0,0,1-1.4.437,1.211,1.211,0,0,1-.753-1.415,2.791,2.791,0,0,1,1.715-2.074,21.814,21.814,0,0,1,2.594-.761Z" transform="translate(-134.462 -97.722)" fill="currentColor" fill-rule="evenodd"/>
    <path id="Path_13045" data-name="Path 13045" d="M814.871,213.124a1.5,1.5,0,0,1,1.5,1.464,1.526,1.526,0,0,1-1.482,1.491,1.483,1.483,0,0,1-1.45-1.445A1.457,1.457,0,0,1,814.871,213.124Z" transform="translate(-148.655 -165.927)" fill="currentColor" fill-rule="evenodd"/>
  </g>
</svg>
