<svg xmlns="http://www.w3.org/2000/svg" viewBox="0 0 27.532 31.381">
  <g id="Group_3983" data-name="Group 3983" transform="translate(-613.248 41.25)">
    <path id="Path_13306" data-name="Path 13306" d="M621.747-9.869h-.061a.282.282,0,0,0-.031-.082c-1.036-1.276-2.071-2.553-3.117-3.821a.522.522,0,0,0-.34-.143c-1.121-.074-2.242-.133-3.363-.2-.517-.03-1.034-.065-1.587-.1.061-.127.1-.218.149-.307,1.109-2.171,2.214-4.343,3.333-6.508a.478.478,0,0,0-.04-.572,12.27,12.27,0,0,1-2.155-8.327,12.178,12.178,0,0,1,3.2-7.2,12.283,12.283,0,0,1,6.95-3.893c.488-.093.983-.153,1.475-.228h1.716c.612.1,1.23.169,1.834.3a12.54,12.54,0,0,1,7.619,19.372.432.432,0,0,0-.035.519q1.682,3.263,3.345,6.536c.045.089.087.18.14.29-.107.014-.186.03-.265.035-1.559.094-3.119.183-4.677.285a.554.554,0,0,0-.358.164c-1.027,1.244-2.043,2.5-3.061,3.749a.72.72,0,0,0-.068.13h-.061a.175.175,0,0,0-.007-.059q-1.586-3.1-3.169-6.207c-.1-.189-.215-.167-.372-.145a12.029,12.029,0,0,1-3.445,0,.32.32,0,0,0-.4.2c-.579,1.157-1.174,2.306-1.76,3.46C622.669-11.706,622.209-10.787,621.747-9.869Zm15.984-18.808A10.73,10.73,0,0,0,627.09-39.411,10.732,10.732,0,0,0,616.3-28.73,10.726,10.726,0,0,0,626.976-18,10.726,10.726,0,0,0,637.731-28.677ZM616.158-15.888c1.011.063,1.968.129,2.927.175a.562.562,0,0,1,.456.244c.3.386.615.764.925,1.144.293.36.588.718.907,1.108l1.808-3.538a12.755,12.755,0,0,1-5.014-3.061Zm19.724-3.906a13.366,13.366,0,0,1-5.014,3.064l1.8,3.515c.516-.635,1.043-1.2,1.468-1.829a1.556,1.556,0,0,1,1.453-.717c.75,0,1.5-.074,2.294-.119Z" transform="translate(0)" fill="currentColor" fill-rule="evenodd"/>
    <path id="Path_13307" data-name="Path 13307" d="M690.725,13.083a8.106,8.106,0,1,1-8.1,8.1A8.107,8.107,0,0,1,690.725,13.083Zm-.01,1.838a6.268,6.268,0,1,0,6.27,6.245A6.265,6.265,0,0,0,690.714,14.921Z" transform="translate(-63.705 -49.892)" fill="currentColor" fill-rule="evenodd"/>
    <path id="Path_13308" data-name="Path 13308" d="M747.544,84.9l-2.534-2.524,1.281-1.277,1.242,1.308,2.587-2.589,1.253,1.254Z" transform="translate(-120.993 -111.174)" fill="currentColor" fill-rule="evenodd"/>
  </g>
</svg>
