<svg xmlns="http://www.w3.org/2000/svg" xmlns:xlink="http://www.w3.org/1999/xlink" width="309" height="85" viewBox="0 0 309 85">
  <defs>
    <clipPath id="clip-HitBTC_">
      <rect width="309" height="85"/>
    </clipPath>
  </defs>
  <g id="HitBTC_" data-name="HitBTC " clip-path="url(#clip-HitBTC_)">
    <g id="hitbtc" transform="translate(23.221 -49.622)">
      <path id="Path_2" data-name="Path 2" d="M86.532,10.08l-3.207,12.5L61.34,25.427Z" transform="translate(112.135 54.434)" fill="#57bae5"/>
      <path id="Path_3" data-name="Path 3" d="M85.333,54.487,90.8,31.79,83.71,28.86Z" transform="translate(119.285 60.437)" fill="#005472"/>
      <path id="Path_4" data-name="Path 4" d="M83.309,19.54,77.542,31.417,61.39,22.443Z" transform="translate(112.151 57.458)" fill="#34afe4"/>
      <path id="Path_5" data-name="Path 5" d="M88.571,54.6,86.948,28.972,73.58,28.51Z" transform="translate(116.047 60.325)" fill="#0076a7"/>
      <path id="Path_6" data-name="Path 6" d="M79.4,19.54,87,31.826,73.63,31.377Z" transform="translate(116.063 57.458)" fill="#009de2"/>
      <g id="Group_1" data-name="Group 1" transform="translate(195.46 51.212)">
        <path id="Path_7" data-name="Path 7" d="M81.207,10.08l18.2,2.283L78,22.577Z" transform="translate(-78 3.222)" fill="#7acdf2"/>
        <path id="Path_8" data-name="Path 8" d="M112.071,5.77l-11.441,13.3.8-12.3Z" transform="translate(-70.767 1.844)" fill="#7acdf2"/>
        <path id="Path_9" data-name="Path 9" d="M115.647,0,109.3,7.614l4.962.607Z" transform="translate(-67.995)" fill="#7acdf2"/>
      </g>
      <path id="Path_10" data-name="Path 10" d="M104.63,12.675l11.125-6.308-4.962-.607Z" transform="translate(125.972 53.053)" fill="#00abe7"/>
      <path id="Path_11" data-name="Path 11" d="M90.8,34.778l.541-15.268L83.71,31.849Z" transform="translate(119.285 57.448)" fill="#0076a7"/>
      <path id="Path_12" data-name="Path 12" d="M93.163,19.51,85.535,31.849,78,19.563Z" transform="translate(117.46 57.448)" fill="#008dbe"/>
      <path id="Path_13" data-name="Path 13" d="M99.4,11.81,93.163,21.971,78,22.024Z" transform="translate(117.46 54.987)" fill="#57bae5"/>
      <path id="Path_14" data-name="Path 14" d="M89.621,19.51,89.08,34.778l13.962,14.278Z" transform="translate(121.002 57.448)" fill="#00698d"/>
      <path id="Path_15" data-name="Path 15" d="M106.977,40.277,99.6,22l.079,26.274Z" transform="translate(124.364 58.244)" fill="#09a1cb"/>
      <path id="Path_16" data-name="Path 16" d="M104.191,15.85l-1.359,8.116L89.49,20.68Z" transform="translate(121.133 56.278)" fill="#09a1cb"/>
      <path id="Path_17" data-name="Path 17" d="M107.716,26.853,99.6,23.963l1.32-8.1Z" transform="translate(124.364 56.282)" fill="#8bdaff"/>
      <path id="Path_18" data-name="Path 18" d="M110.142,38.9,101.3,24.73h5.054Z" transform="translate(124.908 59.117)" fill="#7acdf2"/>
      <path id="Path_19" data-name="Path 19" d="M95.48,10.476l6.8,8.353.8-12.3Z" transform="translate(123.047 53.299)" fill="#57bae5"/>
      <path id="Path_20" data-name="Path 20" d="M102.832,22.8,89.49,19.51l13.421,29.547Z" transform="translate(121.133 57.448)" fill="#008dbe"/>
      <path id="Path_21" data-name="Path 21" d="M106.951,35.85l2.943,1.65L99.68,43.834Z" transform="translate(124.39 62.671)" fill="#0076a7"/>
      <path id="Path_22" data-name="Path 22" d="M110.685,39.6,99.6,22l7.377,18.29Z" transform="translate(124.364 58.244)" fill="#57bae5"/>
      <path id="Path_23" data-name="Path 23" d="M97.4,9.52l-7.918,13.2,14.7-4.83Z" transform="translate(121.13 54.255)" fill="#7acdf2"/>
      <path id="Path_24" data-name="Path 24" d="M16.089,46.6l4.2,2.154,4.23-2.154V70.865H16.089Zm-.649-8.2a4.567,4.567,0,0,1,4.853-4.23,4.282,4.282,0,1,1,0,8.46A4.515,4.515,0,0,1,15.44,38.48Z" transform="translate(24.626 54.42)" fill="#404040"/>
      <path id="Path_25" data-name="Path 25" d="M20.915,34V48.195H9.186V34H0V71.056H9.186V56.81H20.915V71.056H30.1V34Z" transform="translate(0 54.229)" fill="#404040"/>
      <path id="Path_26" data-name="Path 26" d="M33.651,69.956H25.166V51.531h-3.3V43.565h3.3V34.69h8.486v8.875h3.3v7.967h-3.3Z" transform="translate(34.882 55.33)" fill="#404040"/>
      <path id="Path_27" data-name="Path 27" d="M40.186,62.545h7.5c2.932,0,3.841-1.791,3.841-3.322s-.96-3.27-3.841-3.27h-7.5Zm0-14.3h6.851a2.88,2.88,0,0,0,3.27-2.439,2.232,2.232,0,0,0,0-.415c0-.986-.545-2.854-3.3-2.854H40.186ZM46.025,34C57.209,34,59,40.643,59,44.017A8.1,8.1,0,0,1,54.329,51.8a8.148,8.148,0,0,1,5.787,8.356c0,5.813-3.348,10.821-14.428,10.821H31V34Z" transform="translate(49.444 54.229)" fill="#42acdb"/>
      <path id="Path_28" data-name="Path 28" d="M62.945,71.056H53.759V42.512H44.08V34H72.625v8.434H62.945Z" transform="translate(70.306 54.229)" fill="#42acdb"/>
      <path id="Path_29" data-name="Path 29" d="M90.172,40.008,84.229,45.38a12.3,12.3,0,0,0-8.33-3.062,9.809,9.809,0,0,0-10.043,9.6,3.893,3.893,0,0,0,0,.778,9.809,9.809,0,0,0,9.212,10.38h.83a12.222,12.222,0,0,0,8.33-2.984l5.942,5.372A19.644,19.644,0,0,1,75.9,71.589a18.84,18.84,0,0,1,0-37.679,19.514,19.514,0,0,1,14.272,6.1Z" transform="translate(91.009 54.085)" fill="#42acdb"/>
    </g>
  </g>
</svg>
