<svg xmlns="http://www.w3.org/2000/svg" width="20.097" height="17.606" viewBox="0 0 20.097 17.606">
  <g id="Group_4333" data-name="Group 4333" transform="translate(-730.672 -107.833)">
    <path id="Path_2657" data-name="Path 2657" d="M750.769,111.06v.549a.84.84,0,0,0-.036.129q-.243,2.153-.484,4.306c-.194,1.721-.393,3.442-.583,5.163a1.938,1.938,0,0,1-1.449,1.878c-.192.052-.229.135-.22.308a1.777,1.777,0,0,1-.453,1.317,2.179,2.179,0,0,1-1.729.729q-3.09-.006-6.181,0-3.5,0-7.005,0a1.8,1.8,0,0,1-1.611-.8,4.582,4.582,0,0,1-.346-.859V113.337a.287.287,0,0,0,.029-.07,1.936,1.936,0,0,1,2-1.738c.2.012.4,0,.607,0,.079-.647.163-1.269.229-1.892a1.952,1.952,0,0,1,2.255-1.787c.979.122,1.96.229,2.94.34q2.5.283,5.006.564c1.707.193,3.413.4,5.123.577a2.037,2.037,0,0,1,1.874,1.663A.235.235,0,0,0,750.769,111.06Zm-19.119,9.448.242-.174q1.452-1.055,2.9-2.11a2.181,2.181,0,0,1,2.889.136q1.237,1.089,2.474,2.179a1.259,1.259,0,0,0,1.636.164q2.533-1.474,5.066-2.948a.291.291,0,0,0,.17-.29c-.006-1.236,0-2.472,0-3.709a1.135,1.135,0,0,0-1.255-1.247H732.723c-.065,0-.131,0-.2,0a.794.794,0,0,0-.558.249,1.185,1.185,0,0,0-.319.877q0,3.336,0,6.672Zm15.376-1.7c-.1.054-.158.087-.218.121q-2.24,1.3-4.479,2.59a2.953,2.953,0,0,1-.436.22,2.237,2.237,0,0,1-2.388-.462c-.84-.728-1.667-1.471-2.5-2.2a1.15,1.15,0,0,0-1.555-.127c-1.239.9-2.468,1.808-3.7,2.717a.252.252,0,0,0-.093.173c-.006.6-.011,1.2,0,1.8a.846.846,0,0,0,.669.8,1.973,1.973,0,0,0,.391.027h13.067c.078,0,.157,0,.235-.009a1,1,0,0,0,1.009-1.088q0-2.158,0-4.317Zm.973,3.337a.861.861,0,0,0,.621-.727q.153-1.3.3-2.61.226-1.948.452-3.9c.135-1.162.276-2.324.4-3.487a.952.952,0,0,0-.833-1.075c-.445-.07-.895-.11-1.343-.162q-3.136-.366-6.271-.73c-1.876-.217-3.753-.429-5.63-.647a1.013,1.013,0,0,0-1.219.964c-.023.214-.05.428-.074.643-.041.366-.081.733-.122,1.114h.257q5.642,0,11.283,0a2.094,2.094,0,0,1,.985.217A2.073,2.073,0,0,1,748,113.713q0,4.082,0,8.163Z" fill="#b9b9b9" fill-rule="evenodd"/>
    <path id="Path_2658" data-name="Path 2658" d="M871.9,218.284a2.048,2.048,0,1,1,2.05-2.044A2.062,2.062,0,0,1,871.9,218.284Zm-1.068-2.045a1.072,1.072,0,1,0,1.07-1.072A1.075,1.075,0,0,0,870.83,216.239Z" transform="translate(-131.052 -100.144)" fill="#b9b9b9" fill-rule="evenodd"/>
  </g>
</svg>
