<svg xmlns="http://www.w3.org/2000/svg" viewBox="0 0 63.185 62.459">
  <g id="Group_3810" data-name="Group 3810" transform="translate(-538.75 -42.218)">
    <path id="Path_13027" data-name="Path 13027" d="M538.75,62.1c.105-.349.2-.7.318-1.046a6.248,6.248,0,0,1,3.216-3.723.718.718,0,0,0,.468-.743,3.3,3.3,0,0,1,3.642-3.566c.308,0,.617-.009.925,0a1.756,1.756,0,0,0,1.652-.54,1.579,1.579,0,0,1,1.062-.374,25.27,25.27,0,0,1,3.2.01,4.363,4.363,0,0,1,1.362.585c.174.083.325.3.49.3,1.292.026,2.585.014,3.947.014.014-.264.035-.48.035-.7,0-1.954-.007-3.907,0-5.861a3.988,3.988,0,0,1,4.25-4.244c3.66-.009,7.32,0,10.981,0,.1,0,.206,0,.308,0a.921.921,0,0,1,.032,1.843c-.492.03-.987.009-1.48.009q-4.9,0-9.809,0a2.163,2.163,0,0,0-2.423,2.439q0,9.716,0,19.432c0,1.679.808,2.47,2.511,2.47H583.8c1.739,0,2.415.683,2.416,2.435,0,2.012,0,4.023,0,6.156.537-.146,1.011-.237,1.458-.4a7.552,7.552,0,0,0,5-7.039c.036-7.773.02-15.546.012-23.319a2.1,2.1,0,0,0-2.254-2.171c-3.681-.009-7.362,0-11.043,0a2.49,2.49,0,0,1-.613-.032.872.872,0,0,1-.725-.94.863.863,0,0,1,.862-.874c.143-.013.288-.01.432-.01q5.429,0,10.857,0a4.006,4.006,0,0,1,4.346,4.334c0,2.117,0,4.234,0,6.382a3.792,3.792,0,0,0,.415.113,3.223,3.223,0,0,1,2.956,3.356,1,1,0,0,0,.637,1.02,6.226,6.226,0,0,1,3.249,4.344,2.516,2.516,0,0,0,.124.333V76.543c-.276.463-.649.776-1.215.592s-.658-.661-.645-1.2c.019-.76.005-1.522,0-2.283,0-3.558.02-7.116-.011-10.673a4.4,4.4,0,0,0-2.126-3.775v.907q0,16.627,0,33.255a3.324,3.324,0,0,1-3.673,3.663c-6.889,0-13.779-.01-20.668.01a4.172,4.172,0,0,1-3.264-.99,3.282,3.282,0,0,1-2.252.974q-11.075.009-22.149,0a3.176,3.176,0,0,1-3.043-2.36,5.807,5.807,0,0,1-.144-1.465q-.012-16.566-.006-33.131V59.19a4.643,4.643,0,0,0-2.139,4.03q.005,15.61,0,31.219a4.533,4.533,0,0,0,4.845,4.807c6.458,0,12.915.013,19.372-.01a2.777,2.777,0,0,1,2.845,1.815,2.741,2.741,0,0,0,2.653,1.773,2.712,2.712,0,0,0,2.665-1.748,2.82,2.82,0,0,1,2.894-1.841c6.416.026,12.833.012,19.25.011a4.556,4.556,0,0,0,4.95-4.95q0-6.694,0-13.388c0-.455.042-.881.488-1.114.6-.312,1,.024,1.37.452v15.3a.379.379,0,0,0-.066.1c-.909,3.718-3.122,5.451-6.964,5.451-6.313,0-12.626.009-18.94-.013a1.241,1.241,0,0,0-1.322.819,4.735,4.735,0,0,1-8.609.014,1.243,1.243,0,0,0-1.312-.834q-9.747.034-19.5.01a6.338,6.338,0,0,1-6.37-5.265,1.831,1.831,0,0,0-.106-.285Zm16.3-7.178v.8q0,7.186,0,14.373a1.461,1.461,0,0,1-.817,1.464,1.415,1.415,0,0,1-1.649-.294c-.306-.264-.625-.514-.945-.776-.273.227-.517.416-.744.623a1.548,1.548,0,0,1-1.84.447,1.587,1.587,0,0,1-.816-1.652c.013-4.75.007-9.5.007-14.249v-.771c-.654,0-1.227,0-1.8,0-1.38,0-1.841.465-1.841,1.86q0,18.29,0,36.579c0,1.374.48,1.845,1.861,1.845h21.1c1.377,0,1.837-.463,1.837-1.86q0-11.165,0-22.33c0-.218-.021-.435-.036-.708h-.726c-1.727,0-3.458-.068-5.181.016a4.154,4.154,0,0,1-4.4-4.375c.082-3.411.02-6.826.02-10.239v-.755ZM571.3,70.315c-.013.23-.033.43-.033.631q0,11.2,0,22.395c0,1.368.483,1.837,1.868,1.837h20.976c1.54,0,1.975-.434,1.975-1.98q0-18.169,0-36.338a4.308,4.308,0,0,0-.07-.919,1.23,1.23,0,0,0-1.455-.954c0,.237,0,.481,0,.725,0,4.689.043,9.378-.024,14.066a9.485,9.485,0,0,1-7.606,8.985,1.92,1.92,0,0,1-2.566-2.087c-.008-1.892,0-3.784,0-5.676,0-.22-.019-.44-.031-.685ZM550.143,53.977v15.38a1.792,1.792,0,0,1,3.014-.03V53.977Z" fill="currentColor" fill-rule="evenodd"/>
    <path id="Path_13028" data-name="Path 13028" d="M737.555,112.46v-4.776c-.124-.019-.239-.038-.354-.054a2.206,2.206,0,0,1-1.982-2.457,2.167,2.167,0,0,1,2.236-2.086c1.007-.013,2.014-.017,3.02,0a2.569,2.569,0,0,1,2.83,2.873c0,2.135,0,4.271,0,6.5.272,0,.509-.006.746,0a2.185,2.185,0,0,1,2.214,2.3,2.161,2.161,0,0,1-2.2,2.249q-3.637.028-7.274,0a2.161,2.161,0,0,1-2.2-2.248,2.184,2.184,0,0,1,2.211-2.3C737.031,112.454,737.255,112.46,737.555,112.46Zm3.89-3.092c0-1.192-.02-2.384.01-3.575.012-.487-.173-.779-.635-.8-1.128-.042-2.258-.05-3.386-.032-.122,0-.332.261-.332.4a.558.558,0,0,0,.343.394,3.289,3.289,0,0,0,.734.028,1.2,1.2,0,0,1,1.239,1.2q.049,3.05,0,6.1a1.212,1.212,0,0,1-1.282,1.223c-.41.016-.827-.031-1.23.025-.164.023-.3.245-.45.376.151.149.3.427.454.429q3.513.041,7.027,0c.155,0,.307-.275.461-.422-.147-.134-.277-.351-.444-.383a5.411,5.411,0,0,0-.983-.02c-1.043-.009-1.513-.46-1.524-1.494C741.437,111.669,741.446,110.519,741.445,109.368Z" transform="translate(-163.616 -50.843)" fill="currentColor" fill-rule="evenodd"/>
    <path id="Path_13029" data-name="Path 13029" d="M757.942,65.479a2.944,2.944,0,1,1-5.887.019A2.955,2.955,0,0,1,755,62.554,2.914,2.914,0,0,1,757.942,65.479ZM755,66.616a1.124,1.124,0,0,0,1.083-1.118,1.078,1.078,0,1,0-2.157-.013A1.129,1.129,0,0,0,755,66.616Z" transform="translate(-178.203 -16.989)" fill="currentColor" fill-rule="evenodd"/>
    <path id="Path_13030" data-name="Path 13030" d="M602.829,276.2q4.037,0,8.075,0c.674,0,1.1.353,1.1.9a.9.9,0,0,1-.753.923,2.664,2.664,0,0,1-.613.033h-15.78c-.1,0-.206,0-.308,0-.651-.034-1.059-.42-1.034-.976a.935.935,0,0,1,1.057-.875Q598.7,276.2,602.829,276.2Z" transform="translate(-45.749 -195.477)" fill="currentColor" fill-rule="evenodd"/>
    <path id="Path_13031" data-name="Path 13031" d="M602.767,300.275h7.891a2.933,2.933,0,0,1,.553.018.92.92,0,0,1-.023,1.822,3.333,3.333,0,0,1-.554.014H594.853c-.144,0-.288.007-.431-.005a.923.923,0,0,1,.023-1.846c.164-.012.328,0,.493,0Z" transform="translate(-45.749 -215.587)" fill="currentColor" fill-rule="evenodd"/>
    <path id="Path_13032" data-name="Path 13032" d="M603.021,326.243h-7.89c-.205,0-.468.066-.6-.035-.287-.214-.677-.5-.709-.788s.273-.669.523-.917c.138-.137.465-.113.707-.113q7.952-.008,15.9,0a2.256,2.256,0,0,1,.61.053.911.911,0,0,1-.157,1.792c-.183.017-.37.011-.554.011Z" transform="translate(-46.004 -235.733)" fill="currentColor" fill-rule="evenodd"/>
    <path id="Path_13033" data-name="Path 13033" d="M602.734,229.667q-3.883,0-7.765,0a3.7,3.7,0,0,1-.675-.038.9.9,0,0,1-.065-1.763,2.716,2.716,0,0,1,.671-.059q7.889,0,15.777,0a2.929,2.929,0,0,1,.612.041.907.907,0,0,1-.052,1.792,4.9,4.9,0,0,1-.676.028Q606.647,229.669,602.734,229.667Z" transform="translate(-45.785 -155.045)" fill="currentColor" fill-rule="evenodd"/>
    <path id="Path_13034" data-name="Path 13034" d="M602.726,251.955q3.944,0,7.889,0c.226,0,.51-.067.664.043.29.207.676.5.7.792s-.28.676-.541.909c-.162.145-.508.112-.771.112q-7.889.008-15.778,0a2.577,2.577,0,0,1-.67-.064.9.9,0,0,1,.122-1.773,5.044,5.044,0,0,1,.615-.02Z" transform="translate(-45.778 -175.206)" fill="currentColor" fill-rule="evenodd"/>
    <path id="Path_13035" data-name="Path 13035" d="M765.275,276.1h7.887c.205,0,.462-.065.6.032a1.9,1.9,0,0,1,.716.729.747.747,0,0,1-.452.963,1.561,1.561,0,0,1-.653.128q-8.072.01-16.144,0a1.644,1.644,0,0,1-.487-.045.868.868,0,0,1-.68-.967.848.848,0,0,1,.83-.832,5.01,5.01,0,0,1,.554-.011Z" transform="translate(-181.549 -195.373)" fill="currentColor" fill-rule="evenodd"/>
    <path id="Path_13036" data-name="Path 13036" d="M765.19,302.128c-2.711,0-5.423,0-8.134,0-.793,0-1.266-.553-1.043-1.211.181-.532.616-.647,1.133-.646q6.008.012,12.016,0h3.944c.892,0,1.326.3,1.336.912.011.639-.427.943-1.364.943Z" transform="translate(-181.463 -215.584)" fill="currentColor" fill-rule="evenodd"/>
    <path id="Path_13037" data-name="Path 13037" d="M765.226,326.238c-2.711,0-5.422,0-8.134,0a.963.963,0,0,1-1.063-.649.9.9,0,0,1,.694-1.174,3.211,3.211,0,0,1,.674-.036q7.825,0,15.651,0c.1,0,.205,0,.308,0,.7.021,1.121.388,1.1.966-.017.561-.4.887-1.1.888Q769.293,326.244,765.226,326.238Z" transform="translate(-181.484 -235.728)" fill="currentColor" fill-rule="evenodd"/>
    <path id="Path_13038" data-name="Path 13038" d="M760.219,229.649c-1.008,0-2.016.009-3.023,0-.754-.008-1.135-.328-1.138-.918s.387-.936,1.122-.939q3.023-.013,6.046,0c.709,0,1.134.385,1.12.953-.014.544-.42.892-1.1.9C762.235,229.659,761.227,229.649,760.219,229.649Z" transform="translate(-181.547 -155.028)" fill="currentColor" fill-rule="evenodd"/>
    <path id="Path_13039" data-name="Path 13039" d="M760.035,253.889c-1.028,0-2.057.021-3.085-.006-.837-.022-1.329-.751-.908-1.366a1.22,1.22,0,0,1,.855-.464c2.1-.039,4.2-.028,6.293-.017a.918.918,0,0,1,1.016.919.944.944,0,0,1-1.024.927C762.133,253.9,761.084,253.888,760.035,253.889Z" transform="translate(-181.405 -175.28)" fill="currentColor" fill-rule="evenodd"/>
  </g>
</svg>
