<svg xmlns="http://www.w3.org/2000/svg" viewBox="0 0 24.43 18.611">
  <g id="Group_1894" data-name="Group 1894" transform="translate(-1419.801 -332.589)">
    <path id="Path_1146" data-name="Path 1146" d="M1444.231,334.5V349.29a4.6,4.6,0,0,1-.218.675,2.151,2.151,0,0,1-2.087,1.234q-9.91,0-19.82,0h-.119a2.045,2.045,0,0,1-1.754-.892,5.736,5.736,0,0,1-.432-1.017V334.5a4.552,4.552,0,0,1,.218-.675,2.152,2.152,0,0,1,2.087-1.234q9.911,0,19.82,0h.12a2.045,2.045,0,0,1,1.754.892A5.766,5.766,0,0,1,1444.231,334.5Zm-21.968-.465,9.737,9.652,9.657-9.652Zm12.647,8.907a.215.215,0,0,0-.039.025l-2.195,2.19a.752.752,0,0,1-1.232,0q-1.059-1.049-2.116-2.1c-.059-.059-.122-.115-.134-.125l-6.821,6.821h19.345Zm-13.667,5.732,6.847-6.846-6.847-6.79Zm21.545-13.554-6.77,6.769,6.77,6.769Z" transform="translate(0 0)" fill="currentColor" fill-rule="evenodd"/>
  </g>
</svg>
