<svg xmlns="http://www.w3.org/2000/svg" width="11.421" height="11.421" viewBox="0 0 11.421 11.421">
  <g id="information_1_" data-name="information(1)" transform="translate(-0.063 511.85)">
    <path id="Path_30" data-name="Path 30" d="M5.032-511.82a5.912,5.912,0,0,0-3.509,1.734,5.225,5.225,0,0,0-1.4,2.706,6.325,6.325,0,0,0-.031,1.53,5.027,5.027,0,0,0,.828,2.189l.212.317L.608-502.1a8.064,8.064,0,0,0-.529,1.343.336.336,0,0,0,.156.29c.149.087.181.076,1.771-.533l1.49-.569.3.1a5.653,5.653,0,0,0,2.166.319,5.051,5.051,0,0,0,1.254-.161,5.789,5.789,0,0,0,3.016-1.829,5.22,5.22,0,0,0,1.218-2.684,6.477,6.477,0,0,0,0-1.348,5.56,5.56,0,0,0-4.957-4.647A8.85,8.85,0,0,0,5.032-511.82Zm1.12.667a5.046,5.046,0,0,1,1.986.54,4.685,4.685,0,0,1,2.621,3.514,5.68,5.68,0,0,1,0,1.2A4.71,4.71,0,0,1,8.1-502.369a5.225,5.225,0,0,1-2.338.533,5.237,5.237,0,0,1-2-.384.887.887,0,0,0-.257-.067,11.689,11.689,0,0,0-1.258.448c-.645.245-1.174.444-1.178.442s.176-.431.4-.95.406-.968.413-1c.029-.109-.016-.21-.194-.444a4.438,4.438,0,0,1-.712-1.319,3.636,3.636,0,0,1-.216-1.24A3.939,3.939,0,0,1,.978-507.9a4.731,4.731,0,0,1,1.87-2.4,6.743,6.743,0,0,1,1.1-.558,7.2,7.2,0,0,1,1-.254,6.474,6.474,0,0,1,.89-.062C5.867-511.166,6.012-511.157,6.152-511.153Z" transform="translate(0)" fill="currentColor"/>
    <path id="Path_31" data-name="Path 31" d="M212.16-420.765a1.037,1.037,0,0,0-.589.535.692.692,0,0,0-.071.426.692.692,0,0,0,.071.426,1.016,1.016,0,0,0,.6.535.837.837,0,0,0,.366.038.705.705,0,0,0,.39-.085,1.056,1.056,0,0,0,.482-.48.693.693,0,0,0,.076-.435.694.694,0,0,0-.076-.435,1.057,1.057,0,0,0-.482-.48.692.692,0,0,0-.4-.083A.839.839,0,0,0,212.16-420.765Zm.5.692a.313.313,0,0,1,.147.27.341.341,0,0,1-.042.165.313.313,0,0,1-.27.147.305.305,0,0,1-.312-.312.3.3,0,0,1,.312-.312A.341.341,0,0,1,212.658-420.074Z" transform="translate(-206.72 -89.015)" fill="currentColor"/>
    <path id="Path_32" data-name="Path 32" d="M211.147-300.958a.468.468,0,0,0-.1.1,6.978,6.978,0,0,0-.042,1.693,6.978,6.978,0,0,0,.042,1.693.468.468,0,0,0,.1.1c.06.04.118.042.857.042s.8,0,.857-.042a.467.467,0,0,0,.1-.1,6.975,6.975,0,0,0,.042-1.693,6.975,6.975,0,0,0-.042-1.693.468.468,0,0,0-.1-.1c-.06-.04-.118-.042-.857-.042S211.207-301,211.147-300.958Zm1.191,1.8v1.171h-.669v-2.343h.669Z" transform="translate(-206.231 -206.146)" fill="currentColor"/>
  </g>
</svg>
