<svg xmlns="http://www.w3.org/2000/svg" viewBox="0 0 20.619 20.631">
  <g id="Group_4354" data-name="Group 4354" transform="translate(-530.055 -69.097)">
    <path id="Path_12141" data-name="Path 12141" d="M540.58,89.728a10.316,10.316,0,1,1,10.091-10.541A10.27,10.27,0,0,1,540.58,89.728Zm-.216-19.174a8.847,8.847,0,1,0,8.841,8.858A8.794,8.794,0,0,0,540.364,70.554Z" fill="currentColor" fill-rule="evenodd"/>
    <path id="Path_12142" data-name="Path 12142" d="M685.78,144.9c0-1.1,0-2.2,0-3.295a.735.735,0,0,1,1.468-.065c.011.261,0,.522,0,.783q0,2.914,0,5.829a.728.728,0,0,1-.887.788.713.713,0,0,1-.584-.769C685.778,147.085,685.78,145.994,685.78,144.9Z" transform="translate(-146.152 -67.337)" fill="currentColor" fill-rule="evenodd"/>
    <path id="Path_12143" data-name="Path 12143" d="M681.335,297.286a1.079,1.079,0,1,1-.067,2.156,1.078,1.078,0,0,1,.067-2.156Z" transform="translate(-140.94 -214.162)" fill="currentColor" fill-rule="evenodd"/>
  </g>
</svg>
