<svg xmlns="http://www.w3.org/2000/svg" width="23.817" height="28.235" viewBox="0 0 23.817 28.235">
  <g id="add-user" transform="translate(-40.091 511.913)">
    <path id="Path_75" data-name="Path 75" d="M102.242-511.835a6.682,6.682,0,0,0-5.025,4.374,7.027,7.027,0,0,0-.022,4.2,6.7,6.7,0,0,0,4.12,4.164,6.608,6.608,0,0,0,8.5-4.434,6.931,6.931,0,0,0,.127-3.133,6.593,6.593,0,0,0-5.267-5.163A9.2,9.2,0,0,0,102.242-511.835Zm1.848,1.1a5.494,5.494,0,0,1,4.313,3.116,5.4,5.4,0,0,1-.976,5.984,5.377,5.377,0,0,1-5.229,1.577,5.545,5.545,0,0,1-3.982-3.861,6.945,6.945,0,0,1-.11-2.306,5.527,5.527,0,0,1,4.881-4.534c.243-.017.5-.028.579-.022S103.88-510.754,104.09-510.737Z" transform="translate(-53.662)" fill="currentColor"/>
    <path id="Path_76" data-name="Path 76" d="M43.092-252.888A3.6,3.6,0,0,0,40.478-251c-.408.833-.4.629-.381,6.514l.017,5.245.154.132.154.132h9.57c10.6,0,9.967.022,10.849-.359a4.257,4.257,0,0,0,1.611-1.1,4.421,4.421,0,0,0,1.169-1.8,4.976,4.976,0,0,0-3.911-6.58l-.21-.033v-.557a3.132,3.132,0,0,0-.359-1.583,3.431,3.431,0,0,0-2.416-1.848c-.37-.077-1.186-.088-6.944-.083C46.192-252.915,43.186-252.9,43.092-252.888Zm4.308,1.213c-.149.513-1.357,5.069-1.357,5.124,0,.215.276.48,1.831,1.793s1.721,1.429,1.908,1.429a.758.758,0,0,0,.386-.121c.436-.309,3.26-2.73,3.315-2.846a.8.8,0,0,0,.061-.281c0-.088-.3-1.258-.662-2.6s-.662-2.482-.662-2.521a29,29,0,0,1,4.319.017,2.386,2.386,0,0,1,1.594,1.291,1.677,1.677,0,0,1,.2.949l.022.585-.524.121a4.891,4.891,0,0,0-2.471,1.423,4.9,4.9,0,0,0-1.291,4.291c.044.243.083.447.083.452s-2.068.017-4.6.017H44.945l-.154.132c-.132.116-.154.176-.154.408a.492.492,0,0,0,.408.563c.127.033,1.936.055,4.9.055h4.7l.176.259a6.069,6.069,0,0,0,.568.667l.381.4H41.244v-4.788c0-5.284-.006-5.146.347-5.742a2.5,2.5,0,0,1,1.528-1.1c.138-.028,1.164-.05,2.278-.055C47.306-251.768,47.427-251.762,47.4-251.674Zm4.236,2.35c.359,1.34.662,2.46.673,2.493a14.758,14.758,0,0,1-1.23,1.1c-1.18.987-1.252,1.037-1.368.965-.21-.132-2.4-2-2.4-2.041s1.219-4.594,1.3-4.865c.028-.083.132-.094,1.2-.094h1.169Zm8.2,1.726a4.6,4.6,0,0,1,.827.309,3.161,3.161,0,0,1,.943.706,2.949,2.949,0,0,1,.728.993,3.565,3.565,0,0,1,0,3.365,3.836,3.836,0,0,1-2.526,2.013,4.524,4.524,0,0,1-.855.088,3.592,3.592,0,0,1-2.653-1.109,2.916,2.916,0,0,1-.734-.993,3.7,3.7,0,0,1-.419-1.682,3.7,3.7,0,0,1,.419-1.682,2.933,2.933,0,0,1,.739-1,2.855,2.855,0,0,1,.943-.7A3.642,3.642,0,0,1,59.832-247.6Z" transform="translate(0 -244.706)" fill="currentColor"/>
    <path id="Path_77" data-name="Path 77" d="M83.085-64.84a.556.556,0,0,0-.022.767.567.567,0,0,0,.91-.061.525.525,0,0,0,.028-.59A.488.488,0,0,0,83.476-65,.457.457,0,0,0,83.085-64.84Z" transform="translate(-40.467 -422.263)" fill="currentColor"/>
    <path id="Path_78" data-name="Path 78" d="M341.057-132.89c-.232.138-.292.37-.292,1.114v.6H340.1c-.9,0-1.1.11-1.1.579s.2.579,1.1.579h.662l.006.618a3.711,3.711,0,0,0,.066.816.576.576,0,0,0,.954.193c.127-.127.132-.165.132-.882v-.745h.689c.927,0,1.131-.1,1.131-.579s-.2-.579-1.131-.579h-.689v-.723a3.658,3.658,0,0,0-.061-.833.8.8,0,0,0-.529-.265A.725.725,0,0,0,341.057-132.89Z" transform="translate(-282.422 -358.014)" fill="currentColor"/>
  </g>
</svg>
