<svg xmlns="http://www.w3.org/2000/svg" xmlns:xlink="http://www.w3.org/1999/xlink" width="300" height="300" viewBox="0 0 300 300">
  <defs>
    <clipPath id="clip-IOTA_">
      <rect width="300" height="300"/>
    </clipPath>
  </defs>
  <g id="IOTA_" data-name="IOTA " clip-path="url(#clip-IOTA_)">
    <rect width="300" height="300" fill="rgba(255,255,255,0)"/>
    <path id="Path_3" data-name="Path 3" d="M20,0H270a20,20,0,0,1,20,20V270a20,20,0,0,1-20,20H20A20,20,0,0,1,0,270V20A20,20,0,0,1,20,0Z" transform="translate(5 5)" fill="none"/>
    <g id="Layer_2" data-name="Layer 2" transform="translate(20.587 25.9)">
      <g id="Layer_1" data-name="Layer 1">
        <path id="Path_4" data-name="Path 4" d="M187.872,29.011A14.418,14.418,0,0,0,202.166,14.5a14.3,14.3,0,1,0-28.587.041A14.382,14.382,0,0,0,187.872,29.011Zm4.217,37.7a12.2,12.2,0,0,0,12.1-12.287h0a12.1,12.1,0,1,0-12.1,12.287Zm33.227,4.806a12.259,12.259,0,1,0-12.071-12.257A12.173,12.173,0,0,0,225.316,71.519Zm-3.989,32.256A10.471,10.471,0,1,0,211,93.306,10.4,10.4,0,0,0,221.327,103.775Zm26.6,10.459a10.543,10.543,0,1,0-10.4-10.542h0A10.476,10.476,0,0,0,247.93,114.234ZM187.893,99.414a10.645,10.645,0,0,0,10.583-10.707h0v-.021a10.584,10.584,0,1,0-10.583,10.728ZM178.3,125.076a8.982,8.982,0,0,0,.032-17.962H178.3a8.982,8.982,0,0,0,0,17.962Zm33.279,4.537a8.856,8.856,0,0,0,8.8-8.917h0v-.022a8.8,8.8,0,1,0-8.88,8.939Zm26.53,10.418a8.848,8.848,0,1,0-.042,0Zm-13.1,19.471a7.6,7.6,0,1,0-7.493-7.6A7.554,7.554,0,0,0,225.006,159.5ZM198.352,149.25a7.783,7.783,0,1,0-7.669-7.782A7.744,7.744,0,0,0,198.352,149.25ZM165.114,144.5a7.711,7.711,0,1,0,.01-15.421h-.01a7.711,7.711,0,1,0-.01,15.421Zm18.479,18.293a6.688,6.688,0,0,0,.053-13.374h-.053a6.688,6.688,0,0,0-.073,13.374Zm26.644,10.428a6.759,6.759,0,1,0-6.759-6.759A6.733,6.733,0,0,0,210.237,173.217Zm-15.007,7.824a5.344,5.344,0,1,0-5.271-5.343A5.315,5.315,0,0,0,195.231,181.041Zm-14.221,4.2a4.794,4.794,0,0,0,4.764-4.824V180.4a4.765,4.765,0,1,0-9.529-.012v.012a4.754,4.754,0,0,0,4.67,4.836Zm-12.454-13.911a5.747,5.747,0,1,0-5.674-5.746A5.719,5.719,0,0,0,168.556,171.326Zm-18.273-13.177a6.687,6.687,0,1,0-6.614-6.687A6.65,6.65,0,0,0,150.283,158.148Zm54.187,83.777a14.44,14.44,0,1,0-14.221-14.438,14.334,14.334,0,0,0,14.221,14.438Zm-36.121-18.272a12.031,12.031,0,1,0-11.854-12.03A11.945,11.945,0,0,0,168.349,223.652ZM147.71,250.1a12.145,12.145,0,1,0-11.958-12.144A12.032,12.032,0,0,0,147.71,250.1ZM141.5,201.37a10.439,10.439,0,0,0,10.366-10.511h0A10.438,10.438,0,0,0,141.5,180.348h0a10.439,10.439,0,0,0-10.366,10.511h0A10.47,10.47,0,0,0,141.5,201.37Zm-20.588,26.809a10.295,10.295,0,1,0-.063,0Zm-22.19,18.19a10.44,10.44,0,1,0-10.294-10.438,10.366,10.366,0,0,0,10.294,10.438ZM80.252,222.691a8.909,8.909,0,1,0-8.91-8.909,8.877,8.877,0,0,0,8.91,8.909Zm22.231-18.273a8.631,8.631,0,1,0-.031,0Zm20.743-26.8a8.856,8.856,0,0,0,8.8-8.917h0v-.022a8.8,8.8,0,1,0-17.59-.023h0v.022A8.86,8.86,0,0,0,123.226,177.62ZM91.5,181.309a7.742,7.742,0,1,0-7.638-7.741A7.682,7.682,0,0,0,91.5,181.309ZM69.38,199.51a7.607,7.607,0,0,0,7.565-7.648h0v-.021a7.6,7.6,0,0,0-7.523-7.669H69.38a7.607,7.607,0,0,0-7.565,7.648h0v.021a7.617,7.617,0,0,0,7.565,7.669Zm-5.085-21.332a6.615,6.615,0,1,0-6.542-6.614A6.594,6.594,0,0,0,64.295,178.178Zm-.186-18.717a5.653,5.653,0,0,0,5.6-5.7h0a5.6,5.6,0,1,0-5.6,5.705Zm3.08-15.565a4.837,4.837,0,1,0-4.764-4.837A4.795,4.795,0,0,0,67.189,143.9Zm19.068-2.6a5.747,5.747,0,1,0-5.674-5.746,5.719,5.719,0,0,0,5.674,5.746Zm20.929-8.154a6.688,6.688,0,0,0,.053-13.374h-.053a6.687,6.687,0,0,0-.031,13.374Zm4.982,21.228a7.51,7.51,0,1,0-.031,0Zm-25.641,5.653a6.657,6.657,0,1,0-6.542-6.688v.032a6.562,6.562,0,0,0,6.468,6.655h.074Zm-72.346-9.87a14.367,14.367,0,0,0,0-28.732,14.367,14.367,0,0,0,0,28.732ZM46.363,124.5A12.331,12.331,0,1,0,34.22,112.146v.022A12.23,12.23,0,0,0,46.363,124.5ZM33.806,92.872A12.259,12.259,0,1,0,21.735,80.592v.022A12.135,12.135,0,0,0,33.743,92.872ZM64.832,77.886A10.512,10.512,0,1,0,54.466,67.375,10.443,10.443,0,0,0,64.832,77.886Zm12.681,31.553A10.543,10.543,0,1,0,67.116,98.9,10.47,10.47,0,0,0,77.514,109.439Zm28.236-6.552a8.91,8.91,0,0,0,8.837-8.98h0a8.838,8.838,0,0,0-17.673-.271v.271h0a8.879,8.879,0,0,0,8.774,8.981Zm24.391.083a7.71,7.71,0,1,0-7.71-7.71A7.675,7.675,0,0,0,130.14,102.969Zm20.154,4.64a6.512,6.512,0,1,0-6.439-6.511A6.489,6.489,0,0,0,150.294,107.609Zm2.625-23.75a5.674,5.674,0,1,0-5.6-5.674A5.642,5.642,0,0,0,152.919,83.859Zm-15.5-7.772a6.455,6.455,0,1,0-.032,0ZM117.5,71.374a7.556,7.556,0,1,0-.021,0Zm-24.35.031a8.982,8.982,0,1,0-8.868-8.981,8.924,8.924,0,0,0,8.868,8.981ZM60.357,48.947a10.181,10.181,0,1,0-10.035-10.18A10.091,10.091,0,0,0,60.357,48.947Zm28.225-6.17A8.982,8.982,0,1,0,79.715,33.8,8.924,8.924,0,0,0,88.582,42.777Zm24.381.114a7.742,7.742,0,1,0-7.638-7.762h0v.021A7.709,7.709,0,0,0,112.963,42.891ZM132.972,47.5a6.511,6.511,0,1,0-6.511-6.511A6.462,6.462,0,0,0,132.972,47.5Zm15.368,7.979a5.819,5.819,0,1,0-5.746-5.819A5.788,5.788,0,0,0,148.34,55.479Zm11.276,9.157a4.754,4.754,0,0,0,4.723-4.785h0v-.01a4.754,4.754,0,0,0-4.713-4.8h-.01a4.754,4.754,0,0,0-4.723,4.785h0v.01a4.722,4.722,0,0,0,4.651,4.794h.074Z"/>
      </g>
    </g>
  </g>
</svg>
