<svg xmlns="http://www.w3.org/2000/svg" xmlns:xlink="http://www.w3.org/1999/xlink" width="100" height="100" viewBox="0 0 100 100">
  <defs>
    <clipPath id="clip-SPRK_default_preset_name_custom_1">
      <rect width="100" height="100"/>
    </clipPath>
  </defs>
  <g id="SPRK_default_preset_name_custom_1" data-name="SPRK_default_preset_name_custom – 1" clip-path="url(#clip-SPRK_default_preset_name_custom_1)">
    <rect width="100" height="100" fill="#fff"/>
    <g id="kraken" transform="translate(1 102.101)">
      <path id="Path_1" data-name="Path 1" d="M37-88.1a50.961,50.961,0,0,0-27.9,21C3.3-58,2-51.9,2-33.7,2-15.2,2.5-14,9.2-14c5.9,0,6.8-1.9,6.8-15.3,0-6.3.4-12.7,1-14.1,1.7-4.7,6.8-5.6,10.5-2,1.2,1.2,1.5,4.3,1.5,14.5,0,11.6.2,13.1,2,14.9,2.7,2.7,8.3,2.7,11-.2,1.8-1.9,2-3.5,2-14.6,0-6.8.4-13.2,1-14.2,1.4-2.6,5.7-3.4,8.5-1.6,2.2,1.5,2.4,2.2,2.7,15C56.6-16.1,57.5-14,64-14c6.3,0,7-1.7,7-16.4,0-12.1.1-12.8,2.5-15.1,2.9-3,4.5-3.1,7.9-.4,2.6,2,2.6,2.2,2.6,14.8,0,15,.8,17.1,6.9,17.1,6.9,0,7.3-1.2,6.9-22.1l-.3-18.4-3.7-7.7C83.7-83.5,58.4-95,37-88.1Z" fill="#fff"/>
    </g>
  </g>
</svg>
