<svg xmlns="http://www.w3.org/2000/svg" xmlns:xlink="http://www.w3.org/1999/xlink" viewBox="0 0 309 85">
  <defs>
    <clipPath id="clip-Kucoin">
      <rect width="309" height="85"/>
    </clipPath>
  </defs>
  <g id="Kucoin" clip-path="url(#clip-Kucoin)">
    <g id="图层_x0020_1" transform="translate(25 4)">
      <g id="_155962480" transform="translate(0 0)">
        <path id="_157067296" d="M22.169,38.415l22.75,22.753L59.277,46.81a6.495,6.495,0,0,1,9.185,9.185L49.511,74.946a6.538,6.538,0,0,1-9.185,0L12.99,47.606V63.86A6.495,6.495,0,1,1,0,63.86V12.972a6.495,6.495,0,0,1,12.989,0V29.225L40.327,1.884a6.538,6.538,0,0,1,9.185,0L68.462,20.836a6.495,6.495,0,0,1-9.185,9.185L44.919,15.662,22.169,38.416Zm22.76-6.5a6.5,6.5,0,1,1-6.5,6.5A6.5,6.5,0,0,1,44.928,31.914Z" transform="translate(0 0)" fill="#0093dd" fill-rule="evenodd"/>
        <g id="Group_1" data-name="Group 1" transform="translate(89.556 12.278)">
          <path id="_155810984" d="M24.918,0A3.334,3.334,0,0,0,21.61,3.309v39.9a3.309,3.309,0,1,0,6.617,0V3.309A3.328,3.328,0,0,0,24.918,0ZM50.631.964a3.334,3.334,0,0,0-4.679,0l-14.8,14.8a3.2,3.2,0,0,0-.464,3.65L45.418,44.869a3.31,3.31,0,0,0,5.739-3.3L37.792,18.481,50.631,5.642a3.324,3.324,0,0,0,0-4.679Z" transform="translate(-21.61 0)" fill="#68b92e" fill-rule="evenodd"/>
          <path id="_155810504" d="M32.936,3.1A3.335,3.335,0,0,0,29.627,6.41V23.865A12.322,12.322,0,0,0,41.943,36.182H52.317a3.339,3.339,0,0,0,3.308-3.308V6.41a3.309,3.309,0,0,0-6.617,0V29.564H41.943a5.7,5.7,0,0,1-5.7-5.7V6.41A3.328,3.328,0,0,0,32.936,3.1Z" transform="translate(5.118 10.342)" fill="#68b92e" fill-rule="evenodd"/>
          <path id="_154065184" d="M65.285,3.309A3.334,3.334,0,0,0,61.976,0H49.422A12.319,12.319,0,0,0,37.106,12.317v21.89A12.319,12.319,0,0,0,49.422,46.523H61.977a3.309,3.309,0,0,0,0-6.617H49.422a5.7,5.7,0,0,1-5.7-5.7V12.317a5.7,5.7,0,0,1,5.7-5.7H61.977a3.329,3.329,0,0,0,3.308-3.309Z" transform="translate(30.055 0)" fill="#68b92e" fill-rule="evenodd"/>
          <path id="_154067296" d="M55.068,0a3.309,3.309,0,1,0,3.308,3.309A3.325,3.325,0,0,0,55.068,0Zm0,13.445a3.324,3.324,0,0,0-3.309,3.308V43.215a3.309,3.309,0,1,0,6.617,0V16.753a3.328,3.328,0,0,0-3.308-3.308Z" transform="translate(78.911 0)" fill="#68b92e" fill-rule="evenodd"/>
          <path id="_157070392" d="M77.2,36.181a3.334,3.334,0,0,0,3.309-3.308V15.418A12.318,12.318,0,0,0,68.195,3.1H57.82a3.339,3.339,0,0,0-3.308,3.308V32.873a3.309,3.309,0,0,0,6.617,0V9.72h7.065a5.7,5.7,0,0,1,5.7,5.7V32.873A3.328,3.328,0,0,0,77.2,36.181Z" transform="translate(88.089 10.341)" fill="#68b92e" fill-rule="evenodd"/>
          <path id="_157071040" d="M44.706,15.417A12.3,12.3,0,0,1,56.952,3.1h.824A12.277,12.277,0,0,1,69.963,15.417v8.449A12.277,12.277,0,0,1,57.776,36.181h-.824A12.291,12.291,0,0,1,44.706,23.866V15.417Zm18.64,0a5.7,5.7,0,0,0-5.687-5.7h-.649a5.7,5.7,0,0,0-5.686,5.7v8.448a5.7,5.7,0,0,0,5.686,5.7h.649a5.7,5.7,0,0,0,5.687-5.7Z" transform="translate(55.394 10.341)" fill="#68b92e" fill-rule="evenodd"/>
        </g>
      </g>
    </g>
  </g>
</svg>