<svg xmlns="http://www.w3.org/2000/svg" viewBox="0 0 30.804 28.174">
  <g id="Group_3952" data-name="Group 3952" transform="translate(-571.75 -73.094)">
    <path id="Path_13265" data-name="Path 13265" d="M602.554,94.1a7.258,7.258,0,0,1-.4,1.122,3.133,3.133,0,0,1-2.785,1.7c-.449.019-.9,0-1.36,0-.338,1.207-.666,2.392-1,3.574a.893.893,0,0,1-1.284.666,1.331,1.331,0,0,1-.478-.512c-.634-1.148-1.25-2.306-1.86-3.466a.422.422,0,0,0-.436-.266c-1.513.011-3.027.006-4.54.005a3.234,3.234,0,0,1-3.393-3.376c-.008-1.814,0-3.628,0-5.442v-.374H584.7c-1.123,0-2.245,0-3.368,0a.379.379,0,0,0-.395.235c-.626,1.186-1.266,2.365-1.9,3.549a.919.919,0,0,1-.823.559.9.9,0,0,1-.92-.749c-.308-1.088-.617-2.176-.91-3.267-.064-.239-.155-.332-.419-.33a7.485,7.485,0,0,1-1.7-.085,3.126,3.126,0,0,1-2.451-2.485c-.021-.086-.043-.171-.065-.257V75.929c.021-.076.046-.152.061-.229a3.2,3.2,0,0,1,3.053-2.592q5.652-.025,11.3,0a3.15,3.15,0,0,1,3.093,2.975c.055,1.2.023,2.4.028,3.606,0,.782.005,1.563,0,2.345,0,.192.053.283.255.258a2.019,2.019,0,0,1,.24,0q4.735,0,9.469,0a3.207,3.207,0,0,1,3.146,2.241c.058.178.1.36.156.54Zm-6.71,3.857c.209-.746.392-1.411.581-2.075a.919.919,0,0,1,1-.763c.581,0,1.163,0,1.744,0a1.441,1.441,0,0,0,1.577-1.563q0-3.954,0-7.908A1.423,1.423,0,0,0,599.2,84.1q-5.412,0-10.824,0a1.417,1.417,0,0,0-1.551,1.55q-.006,3.954,0,7.908a1.437,1.437,0,0,0,1.577,1.563c1.654,0,3.308.031,4.961-.014a1.347,1.347,0,0,1,1.434.873C595.091,96.626,595.462,97.245,595.843,97.955ZM585,85.923c.008-.1.015-.159.017-.219a3.23,3.23,0,0,1,2.308-3.289.312.312,0,0,0,.156-.234c.008-1.954.018-3.908,0-5.862A1.386,1.386,0,0,0,586,74.905q-5.487,0-10.974,0a1.413,1.413,0,0,0-1.472,1.48q0,4.029,0,8.057a1.412,1.412,0,0,0,1.472,1.479c.631.006,1.263,0,1.894,0a.9.9,0,0,1,.933.7c.141.469.265.944.4,1.416.062.22.129.439.211.719.428-.8.828-1.524,1.211-2.259a1,1,0,0,1,.969-.578c.992.006,1.984,0,2.976,0Z" fill="currentColor" fill-rule="evenodd"/>
    <path id="Path_13266" data-name="Path 13266" d="M801.387,237.458c-.71,0-1.348.007-1.986,0a.672.672,0,0,1-.722-.736.691.691,0,0,1,.761-.647c.581-.009,1.162,0,1.743,0,.281,0,.561,0,.842,0,.672,0,.943.319.859.99a5.847,5.847,0,0,1-2.373,4.025,8.578,8.578,0,0,1-.77.522.7.7,0,0,1-1.031-.251.688.688,0,0,1,.286-1,4.9,4.9,0,0,0,2.02-2C801.154,238.087,801.25,237.794,801.387,237.458Z" transform="translate(-208.649 -149.898)" fill="currentColor" fill-rule="evenodd"/>
    <path id="Path_13267" data-name="Path 13267" d="M861.923,231.144c.2,0,.379-.008.556,0a.689.689,0,1,1,.024,1.379c-.178.015-.359,0-.58,0v.345c0,.862,0,1.724,0,2.586a.725.725,0,1,1-1.443,0q0-3.232,0-6.465a.7.7,0,0,1,.715-.784c.457,0,.726.289.728.8C861.925,229.7,861.923,230.4,861.923,231.144Z" transform="translate(-265.564 -142.665)" fill="currentColor" fill-rule="evenodd"/>
    <path id="Path_13268" data-name="Path 13268" d="M644.85,117.481a.752.752,0,0,1,.838.579q1.114,2.932,2.224,5.865c.185.487.053.888-.363,1.02a.84.84,0,0,1-1.155-.488c-.132-.409-.284-.812-.449-1.209a.345.345,0,0,0-.249-.179c-.561-.016-1.122,0-1.683-.013-.18,0-.243.076-.295.224-.146.415-.293.83-.459,1.238a.886.886,0,0,1-1.343.31.716.716,0,0,1-.16-.876q.808-2.149,1.62-4.3c.2-.524.393-1.049.592-1.573A.767.767,0,0,1,644.85,117.481Zm.466,4.018-.471-1.32-.468,1.32Z" transform="translate(-64.32 -40.826)" fill="currentColor" fill-rule="evenodd"/>
  </g>
</svg>
