<svg xmlns="http://www.w3.org/2000/svg" xmlns:xlink="http://www.w3.org/1999/xlink" width="300" height="300" viewBox="0 0 300 300">
  <defs>
    <linearGradient id="linear-gradient" x1="0.695" y1="6.319" x2="0.695" y2="7.318" gradientUnits="objectBoundingBox">
      <stop offset="0" stop-color="#f6e93d"/>
      <stop offset="0.13" stop-color="#f8e330"/>
      <stop offset="0.35" stop-color="#f7c730"/>
      <stop offset="0.64" stop-color="#f59c2e"/>
      <stop offset="0.98" stop-color="#eb5e2c"/>
      <stop offset="1" stop-color="#eb5c2c"/>
    </linearGradient>
    <linearGradient id="linear-gradient-2" x1="0.711" y1="7.606" x2="0.711" y2="8.605" xlink:href="#linear-gradient"/>
    <linearGradient id="linear-gradient-3" x1="0.624" y1="6.814" x2="0.624" y2="7.815" xlink:href="#linear-gradient"/>
    <linearGradient id="linear-gradient-4" x1="0.656" y1="8.751" x2="0.656" y2="9.751" xlink:href="#linear-gradient"/>
    <linearGradient id="linear-gradient-5" x1="0.799" y1="5.763" x2="0.799" y2="6.763" xlink:href="#linear-gradient"/>
    <linearGradient id="linear-gradient-6" x1="0.695" y1="5.6" x2="0.695" y2="6.601" xlink:href="#linear-gradient"/>
    <linearGradient id="linear-gradient-7" x1="0.917" y1="23.973" x2="0.917" y2="24.973" xlink:href="#linear-gradient"/>
    <clipPath id="clip-LEO_Token">
      <rect width="300" height="300"/>
    </clipPath>
  </defs>
  <g id="LEO_Token" data-name="LEO Token" clip-path="url(#clip-LEO_Token)">
    <rect width="300" height="300" fill="rgba(255,255,255,0)"/>
    <rect id="Rectangle_1" data-name="Rectangle 1" width="290" height="290" rx="20" transform="translate(5 5)" fill="#0f031d"/>
    <g id="LEO" transform="translate(52 39)">
      <path id="Path_1" data-name="Path 1" d="M46.1,95.2h.1l1.7.6,1.6.6,1.7.5,1.6.7,1.7.6,1.6.6,1.7.6,1.6.6,1.6.6,1.6.6,1.7.6,1.6.7,1.7.5,1.6.6,1.7.6,1.6.7,1.7.6,1.6.5,1.6.6,1.7.7,1.7.6v-5.1h0V84.5H43.9l-1.6.8-3.8,2-3.9,2.1-3.9,1.9-3.7,2-3.9,2.1-3.9,1.9-3.8,2.1-3.9,2-3.8,1.9-3.8,2.1L.4,107.2,0,164.5l3.9,2.7,3.8,2.7,3.8,2.6,3.9,2.8,3.8,2.7,3.9,2.7,1.7,1.3,2.2-2.8,3.7-5,.4-.5-.4-.3L27,170.7,23.1,168l-3.9-2.7-3.8-2.7-3.9-2.8-1-.6.3-46.4.7-.4,3.9-1.9,3.8-1.9,3.9-1.9,3.9-1.9,3.7-2,3.9-1.9,3.9-1.8,3.8-2Z" fill="url(#linear-gradient)"/>
      <path id="Path_2" data-name="Path 2" d="M112.3,204.5l-3.2,1.3-3.6,1.5-3.6,1.4-3.6,1.5-1.6.6-1.9-.9L91.2,208l-3.6-1.7-3.5-1.9-3.6-1.8-3.6-1.7L73.3,199l-3.6-1.8-3.6-1.8-3.6-1.8-3.6-1.9L55.5,190l-3.6-1.8-.4-.2V141.2H41.1v53.2l3.6,1.7,3.6,1.8,3.6,1.9,3.6,1.7,3.4,1.9,3.6,1.8,3.6,1.8,3.6,1.8,3.6,1.8,3.6,1.8,3.6,1.8,3.6,1.9,3.5,1.7,3.6,1.9,3.6,1.7,1.4.8,2.1-1,3.6-1.3,3.6-1.5,3.6-1.5,3.5-1.4,3.6-1.4-3.6-9Z" fill="url(#linear-gradient-2)"/>
      <path id="Path_3" data-name="Path 3" d="M176.2,139.5l.2,22-.9.8-6.1,4.2-6.1,4.4-6.1,4.4-6.1,4.3-6.1,4.3-6,4.4-6.1,4.3-3.6,2.6-2.5-1.9-6-4.7-6.1-4.6-6.1-4.7-6-4.6-1.1-.8V150.2l1.1-1,6-6.4,6.1-6.3,6.1-6.4,6-6.3,5.9-6.2H60l6.1,6.4,6,6.3,6.1,6.3,6.1,6.4,6,6.3.9.9v28.7l5.2,4.1,6.2,4.7,6,4.6,6.1,4.7,6.1,4.6,6,4.7L129,208l3.9-2.8L139,201l6-4.4,6.1-4.4,6.1-4.2,6.1-4.4,6.1-4.4,6.1-4.2,6.1-4.4,5-3.7,1-27-6-.2Z" fill="url(#linear-gradient-3)"/>
      <path id="Path_4" data-name="Path 4" d="M9.9,88.3h.7l.1-29.4,3.9-2.5,4.9-2.9,4.8-2.9,4.8-3,4.8-2.9,4.9-3,4.7-2.9,4.9-2.9,4.8-3,4.9-3h.1l4.6,2.7,4.9,2.7,4.8,2.8,4.8,2.7,4.8,2.7,4.8,2.7L91.7,49l4.7,2.7.2-.4,4.8-8.7-4.8-2.8-4.9-2.7-4.8-2.7-4.8-2.7-4.8-2.8-4.8-2.7-4.8-2.7-4.9-2.8L58.1,18l-.2-.1-4.7,2.8-4.8,3-4.9,3-4.7,3-4.9,2.9-4.8,2.9-4.8,3-4.8,2.9-4.9,3L9.9,47.3,5,50.2.4,53.1.2,88.2H5Z" fill="url(#linear-gradient-4)"/>
      <path id="Path_5" data-name="Path 5" d="M197.9,61.4l-2.5-2-2.5-2-2.5-2.1-2.5-2-2.5-2-2.6-2-2.5-2-2.5-2-2.6-2.1-1.9-1.4-.7.8-2.5,3.1-2.5,3.2-.7.8.7.7,2.5,2.1,2.5,2.1,2.6,2.1,2.6,2.1,2.5,2.2,2.5,2.1,2.6,2.1,1.2,1,.1,47.3-1.3.9-2.6,1.6-2.5,1.6-2.5,1.6-2.6,1.6-2.6,1.6-2.5,1.6-2.5,1.6-2.5,1.6-2.5,1.6-2.5,1.6-2.6,1.6-2.5,1.6-2.5,1.6-2.5,1.6-2.6,1.6-2.5,1.6,2.5,4,2.6,4,.4.7,2.1-1.3,2.5-1.5,2.5-1.6,2.6-1.5,2.5-1.7,2.5-1.5,2.5-1.6,2.5-1.5,2.5-1.6,2.6-1.5,2.6-1.7,2.5-1.5,2.5-1.6,2.6-1.5,2.5-1.6,2.5-1.5,2.5-1.7,2.5-1.5,2.5-1.6Z" fill="url(#linear-gradient-5)"/>
      <path id="Path_6" data-name="Path 6" d="M115.4,89.6V110l.8-.3,3.4-1.3L123,107l3.3-1.3,3.4-1.4,3.4-1.4,3.3-1.3,3.4-1.4,3.4-1.3,3.3-1.4,3.4-1.3,3.3-1.4V92.2h0V32.9l-3.8-2.4-3.9-2.2-3.9-2.2-3.8-2.4-3.9-2.2L130,19.3,126.2,17l-3.9-2.3-3.8-2.3-3.9-2.2-3.9-2.3-3.8-2.3-3.8-2.2L99.2,1.2,97.1,0,95.3,1,91.4,3.1l-3.9,2L83.8,7.3,79.9,9.4l-3.9,2-3.9,2.2L76,15.8,79.9,18l2.4,1.5,1.5-.8,3.7-2,3.9-2.1,3.9-2,1.5-.8,2.4,1.4,3.9,2.2,3.8,2.2,3.8,2.3,3.9,2.3,3.9,2.2,3.8,2.3,3.9,2.3,3.8,2.2,3.9,2.2,3.9,2.4,3.8,2.2,1.3.7V84.3H115.6" fill="url(#linear-gradient-6)"/>
      <path id="Path_7" data-name="Path 7" d="M115.4,110l37.8-15.2L115.4,84.3" fill="url(#linear-gradient-7)"/>
      <path id="Path_8" data-name="Path 8" d="M80.8,110V84.7L46.2,95l34.6,14.9" fill="#f6e93d"/>
    </g>
  </g>
</svg>
