<svg xmlns="http://www.w3.org/2000/svg" viewBox="0 0 34.872 43.316">
  <g id="_1st-place" data-name="1st-place" transform="translate(-56 504.844)">
    <path id="Path_517" data-name="Path 517" d="M72.521-504.8a16.922,16.922,0,0,0-8.387,2.79,16.716,16.716,0,0,0-7.157,10.662,11.681,11.681,0,0,0-.227,3.313,12.432,12.432,0,0,0,.227,3.313,17.086,17.086,0,0,0,4.507,8.474l.558.6-3.016,3.025c-3.016,3.025-3.025,3.034-3.025,3.4a.709.709,0,0,0,.174.541c.166.166.288.174,3.487.174h3.313v3.313c0,3.2.009,3.322.174,3.487a.709.709,0,0,0,.541.174h.375l4.682-4.682,4.69-4.69,4.69,4.69,4.682,4.682h.375a.709.709,0,0,0,.541-.174c.166-.166.174-.288.174-3.487V-468.5H87.21c3.2,0,3.322-.009,3.487-.174a.709.709,0,0,0,.174-.541c0-.366-.009-.375-3.025-3.4l-3.016-3.025.558-.6a17,17,0,0,0,4.49-8.43,20.791,20.791,0,0,0,.174-5.7,16.75,16.75,0,0,0-13.2-14.089,22.355,22.355,0,0,0-3.635-.375C73.078-504.831,72.765-504.814,72.521-504.8Zm.218,2.842v1.343l-.846.1a12.583,12.583,0,0,0-10.976,11.185l-.061.593h-2.7l.061-.724a15.51,15.51,0,0,1,8.465-12.293,15.823,15.823,0,0,1,5.649-1.534l.41-.009Zm3.705-1.064a15.42,15.42,0,0,1,11.5,10.192,15.377,15.377,0,0,1,.715,3.374l.061.724h-2.7l-.1-.863A12.55,12.55,0,0,0,75-500.507l-.863-.1v-2.7l.724.061C75.249-503.219,75.964-503.114,76.444-503.018Zm-1.1,4.054a11.122,11.122,0,0,1,8.666,7.585,9.357,9.357,0,0,1,.471,3.7,9.57,9.57,0,0,1-.793,3.888,11.153,11.153,0,0,1-9.363,6.826,11.142,11.142,0,0,1-11.159-6.861,9.477,9.477,0,0,1-.776-3.81,9.765,9.765,0,0,1,.5-3.81,11.291,11.291,0,0,1,6.408-6.879A11.337,11.337,0,0,1,75.345-498.964ZM60.952-486.48a12.56,12.56,0,0,0,10.941,10.924l.846.1v2.7l-.724-.061a15.456,15.456,0,0,1-11.586-7.219,15.5,15.5,0,0,1-2.214-6.591l-.061-.715h2.694Zm27.706-.14a15.5,15.5,0,0,1-2.214,6.591,15.456,15.456,0,0,1-11.586,7.219l-.724.061v-2.7l.863-.1a12.567,12.567,0,0,0,10.915-10.915l.1-.863h2.7ZM66.043-472.966a18.836,18.836,0,0,0,5.37,1.6c.27.026.183.122-3.383,3.688l-3.662,3.662v-2.772c0-2.65-.009-2.772-.174-2.938s-.288-.174-2.938-.174H58.485l2.389-2.389,2.38-2.38.95.628A17.834,17.834,0,0,0,66.043-472.966Zm19.5,3.069c-2.642.044-2.8.052-2.921.209a11.155,11.155,0,0,0-.122,2.921v2.755l-3.662-3.662c-3.566-3.566-3.653-3.662-3.383-3.688a20.763,20.763,0,0,0,3.426-.8,18.843,18.843,0,0,0,3.975-2l.732-.514,2.38,2.371,2.371,2.363Z" transform="translate(0 0)" fill="currentColor"/>
    <path id="Path_518" data-name="Path 518" d="M216.436-374.8v1.2H217.6v5.01H216v2.4h5.736v-2.4h-1.6V-376h-3.7Z" transform="translate(-145.477 -116.91)" fill="currentColor"/>
  </g>
</svg>
