<svg xmlns="http://www.w3.org/2000/svg" viewBox="0 0 33.517 41.632">
  <g id="_2nd--place" data-name="2nd--place" transform="translate(-56 504.844)">
    <path id="Path_519" data-name="Path 519" d="M71.879-504.8a16.265,16.265,0,0,0-8.061,2.681,16.066,16.066,0,0,0-6.879,10.248,11.226,11.226,0,0,0-.218,3.184,11.948,11.948,0,0,0,.218,3.184,16.422,16.422,0,0,0,4.332,8.145l.536.578-2.9,2.908C56.008-470.963,56-470.955,56-470.6a.681.681,0,0,0,.168.52c.159.159.277.168,3.352.168H62.7v3.184c0,3.075.008,3.193.168,3.352a.681.681,0,0,0,.52.168h.36l4.5-4.5,4.508-4.508,4.508,4.508,4.5,4.5h.36a.681.681,0,0,0,.52-.168c.159-.159.168-.276.168-3.352v-3.184H86c3.075,0,3.192-.008,3.352-.168a.681.681,0,0,0,.168-.52c0-.352-.008-.36-2.908-3.268l-2.9-2.908.536-.578a16.344,16.344,0,0,0,4.315-8.1,19.982,19.982,0,0,0,.168-5.48A16.1,16.1,0,0,0,76.043-504.48a21.481,21.481,0,0,0-3.494-.36C72.415-504.832,72.113-504.815,71.879-504.8Zm.209,2.732v1.29l-.813.1a12.094,12.094,0,0,0-10.549,10.751l-.059.57h-2.6l.059-.7a14.907,14.907,0,0,1,8.136-11.815,15.208,15.208,0,0,1,5.43-1.475l.394-.008Zm3.561-1.022a14.821,14.821,0,0,1,11.052,9.8,14.779,14.779,0,0,1,.687,3.243l.059.7h-2.6l-.1-.83a12.062,12.062,0,0,0-10.491-10.491l-.83-.1v-2.6l.7.059C74.5-503.282,75.188-503.181,75.649-503.089Zm-1.056,3.9a10.689,10.689,0,0,1,8.329,7.29,8.993,8.993,0,0,1,.452,3.553,9.2,9.2,0,0,1-.763,3.737,10.719,10.719,0,0,1-9,6.561,10.709,10.709,0,0,1-10.725-6.594,9.108,9.108,0,0,1-.746-3.662,9.386,9.386,0,0,1,.478-3.662,10.852,10.852,0,0,1,6.159-6.611A10.9,10.9,0,0,1,74.594-499.193Zm-13.834,12a12.072,12.072,0,0,0,10.516,10.5l.813.1v2.6l-.7-.059a14.855,14.855,0,0,1-11.136-6.938,14.9,14.9,0,0,1-2.128-6.335l-.059-.687h2.589Zm26.629-.134a14.9,14.9,0,0,1-2.128,6.335,14.855,14.855,0,0,1-11.136,6.938l-.7.059v-2.6l.83-.1a12.079,12.079,0,0,0,10.491-10.491l.1-.83h2.6ZM65.653-474.206a18.1,18.1,0,0,0,5.162,1.542c.26.025.176.117-3.251,3.544L64.044-465.6v-2.665c0-2.547-.008-2.665-.168-2.824s-.277-.168-2.824-.168H58.388l2.3-2.3,2.288-2.288.913.6A17.15,17.15,0,0,0,65.653-474.206Zm18.744,2.95c-2.539.042-2.69.05-2.807.2a10.722,10.722,0,0,0-.117,2.807v2.648l-3.519-3.519c-3.427-3.427-3.511-3.519-3.251-3.544A19.969,19.969,0,0,0,78-473.435a18.111,18.111,0,0,0,3.821-1.919l.7-.494,2.288,2.279,2.279,2.271Z" transform="translate(0 0)" fill="currentColor"/>
    <path id="Path_520" data-name="Path 520" d="M217.855-375.137l-.855.855v2.22h2.933v-1.173h2.095v.83l-2.514,2.153L217-368.1v3.41h7.96v-2.765l-2.237-.017-2.237-.025,2.237-1.877,2.237-1.869v-3.125l-.821-.821-.813-.813h-4.609Z" transform="translate(-147.509 -118.048)" fill="currentColor"/>
  </g>
</svg>
