<svg xmlns="http://www.w3.org/2000/svg" viewBox="0 0 41.333 41.333">
  <g id="group" transform="translate(0 512)">
    <path id="Path_521" data-name="Path 521" d="M246.21-511.79a.685.685,0,0,0-.21.6.685.685,0,0,0,.21.6.685.685,0,0,0,.6.21.685.685,0,0,0,.6-.21.685.685,0,0,0,.21-.6.685.685,0,0,0-.21-.6.685.685,0,0,0-.6-.21A.685.685,0,0,0,246.21-511.79Z" transform="translate(-226.141)" fill="currentColor"/>
    <path id="Path_522" data-name="Path 522" d="M189.452-489.8a.725.725,0,0,0-.452.759c0,.339.024.379.791,1.138a3.517,3.517,0,0,0,1.009.823.8.8,0,0,0,1.025-.807c0-.347-.032-.388-.7-1.082C190.179-489.936,189.945-490.049,189.452-489.8Z" transform="translate(-173.742 -20.304)" fill="currentColor"/>
    <path id="Path_523" data-name="Path 523" d="M288.153-489.217c-.9.9-.993,1.122-.751,1.623a.671.671,0,0,0,.452.4c.452.153.7.008,1.574-.88.7-.727.743-.791.743-1.106a.779.779,0,0,0-.856-.815C288.944-490,288.919-489.984,288.153-489.217Z" transform="translate(-264.095 -20.224)" fill="currentColor"/>
    <path id="Path_524" data-name="Path 524" d="M67.25-485.766c-.242.226-.25.258-.25.88,0,.573.016.662.2.848a.854.854,0,0,0,1.461-.557c.121-.807-.234-1.4-.84-1.4A.733.733,0,0,0,67.25-485.766Z" transform="translate(-61.591 -23.901)" fill="currentColor"/>
    <path id="Path_525" data-name="Path 525" d="M424.412-485.842c-.3.161-.4.444-.412,1.033,0,.484.024.573.226.8a.608.608,0,0,0,.565.258c.654,0,.953-.444.888-1.3a.787.787,0,0,0-.3-.678A.819.819,0,0,0,424.412-485.842Z" transform="translate(-389.771 -23.946)" fill="currentColor"/>
    <path id="Path_526" data-name="Path 526" d="M246.25-473.79l-.25.21v1.4c0,1.582.04,1.728.533,1.889a.718.718,0,0,0,.549,0c.492-.161.533-.307.533-1.889v-1.4l-.25-.21a.8.8,0,0,0-.557-.21A.8.8,0,0,0,246.25-473.79Z" transform="translate(-226.141 -34.932)" fill="currentColor"/>
    <path id="Path_527" data-name="Path 527" d="M39.4-457.806a.827.827,0,0,0,0,1.227c.17.169.266.194.807.194.71,0,.953-.121,1.09-.533a.719.719,0,0,0,0-.549c-.137-.412-.379-.533-1.09-.533C39.664-458,39.567-457.976,39.4-457.806Z" transform="translate(-35.966 -49.641)" fill="currentColor"/>
    <path id="Path_528" data-name="Path 528" d="M88.049-457.79a.909.909,0,0,0,0,1.195c.194.194.274.21.856.21.605,0,.654-.016.88-.234a.669.669,0,0,0,.234-.573.669.669,0,0,0-.234-.573c-.226-.218-.274-.234-.88-.234C88.324-458,88.243-457.984,88.049-457.79Z" transform="translate(-80.735 -49.641)" fill="currentColor"/>
    <path id="Path_529" data-name="Path 529" d="M396.77-457.855a.864.864,0,0,0-.266.936c.137.412.379.533,1.09.533.541,0,.638-.024.807-.194a.873.873,0,0,0,.25-.823,1.149,1.149,0,0,0-.25-.4c-.17-.169-.266-.194-.823-.194C397.109-458,396.9-457.96,396.77-457.855Z" transform="translate(-364.454 -49.641)" fill="currentColor"/>
    <path id="Path_530" data-name="Path 530" d="M445.234-457.766a.669.669,0,0,0-.234.573.669.669,0,0,0,.234.573c.226.218.274.234.88.234.581,0,.662-.016.856-.21a.685.685,0,0,0,.21-.6.685.685,0,0,0-.21-.6c-.194-.194-.274-.21-.856-.21C445.509-458,445.46-457.984,445.234-457.766Z" transform="translate(-409.076 -49.641)" fill="currentColor"/>
    <path id="Path_531" data-name="Path 531" d="M67.589-437.492a.928.928,0,0,0-.379.242c-.194.186-.21.266-.21.848,0,.622.008.654.25.88a.733.733,0,0,0,.573.234c.605,0,.961-.6.84-1.4-.057-.355-.363-.775-.581-.775a1.022,1.022,0,0,1-.21-.032A.852.852,0,0,0,67.589-437.492Z" transform="translate(-61.591 -68.477)" fill="currentColor"/>
    <path id="Path_532" data-name="Path 532" d="M424.589-437.526a.909.909,0,0,0-.387.274.954.954,0,0,0-.2.759c0,.614.113.9.412,1.058a.813.813,0,0,0,.969-.113.787.787,0,0,0,.3-.678C425.752-437.147,425.324-437.655,424.589-437.526Z" transform="translate(-389.771 -68.443)" fill="currentColor"/>
    <path id="Path_533" data-name="Path 533" d="M19.456-406.521a8.479,8.479,0,0,0-2.382.888,8.163,8.163,0,0,0-2.18,1.962,9.072,9.072,0,0,0-1.009,1.962c0,.161-.04.137-.581-.307a6.429,6.429,0,0,0-2.285-1.13,7.366,7.366,0,0,0-2.382,0,7.713,7.713,0,0,0-1.2.468A5,5,0,0,0,5.1-400.393a6.059,6.059,0,0,0-.638,3.318c-.065,2.438.089,3.625.605,4.642a5.841,5.841,0,0,0,1.38,1.679l.492.4v1.009l-1.267.291c-2.236.525-2.93.823-3.851,1.671a5.372,5.372,0,0,0-1.671,2.777c-.137.509-.153.9-.153,3.883v3.318l.21.218.218.21H7.185v1.106c0,1.372.048,1.663.307,1.921l.2.2h9.6l.234-.234a.669.669,0,0,0,.234-.573.669.669,0,0,0-.234-.573l-.234-.234H13.4v-1.679c0-1.954-.032-2.2-.307-2.478a.9.9,0,0,0-1.179.008l-.21.218v3.932H8.856l.048-2.244c.048-2.519.1-2.874.622-3.932a5.834,5.834,0,0,1,2.809-2.761,31.523,31.523,0,0,1,5.021-1.259c.032.032.557,1.211,1.171,2.608,1.437,3.286,1.453,3.334,1.663,3.463a.9.9,0,0,0,1.041-.129,25.194,25.194,0,0,0,1.453-3.052c.678-1.558,1.259-2.85,1.284-2.89a44.326,44.326,0,0,1,4.569,1.074,6.1,6.1,0,0,1,3.56,3.641l.234.678.024,2.4.024,2.406H29.628V-379.3l-.21-.218a.9.9,0,0,0-1.179-.008c-.274.275-.307.525-.307,2.478v1.679H23.678l-.218.21a.909.909,0,0,0,0,1.195l.218.21H33.6l.234-.234.234-.234v-2.761h6.838l.218-.21.21-.218v-3.318c0-2.979-.016-3.374-.153-3.883a5.372,5.372,0,0,0-1.671-2.777c-.92-.848-1.615-1.146-3.843-1.671l-1.276-.291v-1.009l.492-.4a5.841,5.841,0,0,0,1.38-1.679c.517-1.017.67-2.2.605-4.642a6.059,6.059,0,0,0-.638-3.318,5,5,0,0,0-2.333-2.285,7.713,7.713,0,0,0-1.2-.468,7.366,7.366,0,0,0-2.382,0,6.323,6.323,0,0,0-2.285,1.138,3.489,3.489,0,0,1-.533.388c-.008-.016-.1-.242-.2-.509a7.341,7.341,0,0,0-3.455-3.746,6.644,6.644,0,0,0-2.93-.694A9.163,9.163,0,0,0,19.456-406.521Zm2.785,1.849a5.071,5.071,0,0,1,2.268,1.413,5.363,5.363,0,0,1,1.59,3.4l.032.412-.9-.525c-2.333-1.364-2.244-1.324-2.583-1.276-.258.032-.428.145-.888.589A5.3,5.3,0,0,1,20-399.384a6.615,6.615,0,0,1-3.181.581l-1.558.048v-.718a5.034,5.034,0,0,1,.573-2.43,5.607,5.607,0,0,1,3.738-2.9A6.4,6.4,0,0,1,22.241-404.672ZM11.06-401.338a3.485,3.485,0,0,1,1.453.953c.428.444.88,1.324.751,1.453a11.064,11.064,0,0,1-2.317.92,12.654,12.654,0,0,1-3.5.363H6.135l.048-.468a3.757,3.757,0,0,1,1.082-2.357A3.588,3.588,0,0,1,11.06-401.338Zm21.5-.048a3.726,3.726,0,0,1,2.591,3.27l.048.468H33.89a12.654,12.654,0,0,1-3.5-.363,11.064,11.064,0,0,1-2.317-.92c-.129-.129.323-1.009.751-1.453A3.6,3.6,0,0,1,32.558-401.386Zm-7.984,3.011,1.6.928-.04,1.493a5.922,5.922,0,0,1-.638,3.148,5.27,5.27,0,0,1-2.414,2.365,5.018,5.018,0,0,1-3.439.492,5.512,5.512,0,0,1-4.117-3.6,5.028,5.028,0,0,1-.25-2.051l-.032-1.461,1.647-.048a8.279,8.279,0,0,0,3.536-.6,8.768,8.768,0,0,0,2.22-1.389.884.884,0,0,1,.283-.234C22.959-399.311,23.7-398.884,24.574-398.375Zm-11.092,2.688a5.221,5.221,0,0,1-.161,1.873,3.589,3.589,0,0,1-1.76,2.115,3.225,3.225,0,0,1-1.937.412,2.587,2.587,0,0,1-1.316-.323,3.961,3.961,0,0,1-2.172-3.907v-.412l1.8-.048a12.1,12.1,0,0,0,4.941-.888,4.837,4.837,0,0,1,.549-.218A8.575,8.575,0,0,1,13.482-395.687Zm14.959-1.187a12.239,12.239,0,0,0,4.965.9l1.792.048v.412a3.961,3.961,0,0,1-2.172,3.907,2.587,2.587,0,0,1-1.316.323,3.225,3.225,0,0,1-1.937-.412,3.589,3.589,0,0,1-1.76-2.115,5.221,5.221,0,0,1-.161-1.873,11.675,11.675,0,0,1,.04-1.4C27.916-397.083,28.166-396.986,28.441-396.873Zm-13.78,5.417a6.82,6.82,0,0,0,1.655,1.816l.638.492v.517a2.176,2.176,0,0,1-.032.509c-.016,0-.258-.1-.541-.242a26.716,26.716,0,0,0-3.358-.928c-.266-.056-.266-.056-.266-.557v-.509l.468-.371a5.44,5.44,0,0,0,.775-.783,3.5,3.5,0,0,1,.339-.4A3.624,3.624,0,0,1,14.66-391.456Zm12.674-.057a5.44,5.44,0,0,0,.775.783l.468.371v.509c0,.5,0,.5-.258.557a21.927,21.927,0,0,0-3.431.969l-.589.275v-.541l.008-.541.484-.323a7.64,7.64,0,0,0,1.889-1.986,3.816,3.816,0,0,1,.323-.476C27.012-391.917,27.165-391.731,27.335-391.513ZM9.849-389.559a7.76,7.76,0,0,0,.912-.057l.3-.057v.468a4.6,4.6,0,0,1-.581,1.865,12.2,12.2,0,0,1-.638,1.4,15.289,15.289,0,0,1-.63-1.4,4.708,4.708,0,0,1-.573-1.865v-.468l.3.057A7.76,7.76,0,0,0,9.849-389.559Zm21.635,0a7.76,7.76,0,0,0,.912-.057l.3-.057v.468a4.788,4.788,0,0,1-.581,1.865,12.194,12.194,0,0,1-.638,1.4,15.289,15.289,0,0,1-.63-1.4,4.708,4.708,0,0,1-.573-1.865v-.468l.3.057A7.76,7.76,0,0,0,31.484-389.559Zm-11.3,1.389a8.866,8.866,0,0,0,2.164-.161l.258-.057v1.639l-.928,2.115c-.517,1.171-.961,2.147-.993,2.18a20.014,20.014,0,0,1-1.041-2.2l-.993-2.26v-1.51l.468.1A8.874,8.874,0,0,0,20.182-388.171ZM8.049-385.684l.807,1.954-.266.379a9.981,9.981,0,0,0-1.114,2.39,15.76,15.76,0,0,0-.291,2.26c0,.081-.291.1-1.171.1H4.844v-1.962c0-2.18-.008-2.228-.525-2.4a.76.76,0,0,0-.565,0c-.517.17-.525.218-.525,2.4v1.962H1.6l.04-2.6c.04-2.753.065-2.963.468-3.818a4.844,4.844,0,0,1,1.687-1.7,24.4,24.4,0,0,1,3.318-.928A7.892,7.892,0,0,1,8.049-385.684Zm5.942-1.623a10.486,10.486,0,0,1,1.324.371c-.024.016-.622.178-1.324.347s-1.493.387-1.744.476a1.412,1.412,0,0,1-.46.121,8.652,8.652,0,0,1,.759-1.647C12.594-387.638,13.248-387.493,13.99-387.307Zm15.185.412c.17.412.323.791.347.848s-.17.024-.517-.089c-.3-.1-1.058-.307-1.679-.452s-1.179-.291-1.243-.323a15.46,15.46,0,0,1,2.664-.719C28.828-387.638,28.974-387.4,29.175-386.9Zm6.507-.4a12.426,12.426,0,0,1,1.857.581,4.844,4.844,0,0,1,1.687,1.7c.4.856.428,1.066.468,3.818l.04,2.6H38.1v-1.962c0-2.18-.008-2.228-.525-2.4a.76.76,0,0,0-.565,0c-.517.17-.525.218-.525,2.4v1.962H34.068v-.63a7.533,7.533,0,0,0-1.211-3.923l-.387-.6.815-1.946a14.919,14.919,0,0,1,.9-1.946C34.229-387.638,34.907-387.477,35.682-387.291Z" transform="translate(0 -96.914)" fill="currentColor"/>
    <path id="Path_534" data-name="Path 534" d="M212.433-280.913a.8.8,0,0,0-.274.815.827.827,0,0,0,1.51.258.7.7,0,0,0,.032-.815A.829.829,0,0,0,212.433-280.913Z" transform="translate(-195.012 -212.253)" fill="currentColor"/>
    <path id="Path_535" data-name="Path 535" d="M279.38-280.9a.819.819,0,0,0-.129,1.235.827.827,0,0,0,1.356-.912A.846.846,0,0,0,279.38-280.9Z" transform="translate(-256.501 -212.303)" fill="currentColor"/>
    <path id="Path_536" data-name="Path 536" d="M233.592-247.325a.842.842,0,0,0-.42,1.308,2.3,2.3,0,0,0,2.906.347c.428-.283.581-.509.581-.864a.849.849,0,0,0-1.389-.654.68.68,0,0,1-.856.024A.912.912,0,0,0,233.592-247.325Z" transform="translate(-214.193 -243.266)" fill="currentColor"/>
    <path id="Path_537" data-name="Path 537" d="M245.632-19.79a.8.8,0,0,0,.573,1.4.691.691,0,0,0,.589-.234.8.8,0,0,0-.6-1.38A.669.669,0,0,0,245.632-19.79Z" transform="translate(-225.555 -452.281)" fill="currentColor"/>
  </g>
</svg>
