<svg xmlns="http://www.w3.org/2000/svg" viewBox="0 0 21.637 21.637">
  <g id="Group_3769" data-name="Group 3769" transform="translate(-670.75 -36.75)">
    <path id="Path_13014" data-name="Path 13014" d="M670.75,55.767V39.37c.014-.053.031-.105.041-.159a2.865,2.865,0,0,1,1.64-2.165,6.717,6.717,0,0,1,.939-.3h16.4a1.06,1.06,0,0,0,.12.037,2.906,2.906,0,0,1,2.394,2.135c.046.146.072.3.107.448v16.4c-.014.054-.031.107-.042.161a2.907,2.907,0,0,1-2.09,2.339c-.159.051-.325.081-.488.12h-16.4a1.047,1.047,0,0,0-.119-.037,2.91,2.91,0,0,1-2.4-2.136C670.81,56.068,670.785,55.916,670.75,55.767Zm11.525-9.437c0-.2,0-.376,0-.551-.005-.354-.152-.5-.5-.505q-.929,0-1.859,0c-.354,0-.5.148-.5.5q0,4.024,0,8.047c0,.359.153.508.519.508q.866,0,1.732,0c.477,0,.6-.122.6-.6,0-1.352,0-2.7,0-4.055a2.62,2.62,0,0,1,.384-1.428,1.389,1.389,0,0,1,1.475-.639,1.186,1.186,0,0,1,1.068.943,6.227,6.227,0,0,1,.16,1.353c.019,1.3,0,2.6.005,3.907,0,.367.148.511.514.512q.951,0,1.9,0c.36,0,.512-.155.512-.518,0-1.486.017-2.972-.014-4.456a10.224,10.224,0,0,0-.209-1.84,2.77,2.77,0,0,0-1.353-1.974,3.929,3.929,0,0,0-2.629-.328,2.578,2.578,0,0,0-1.743,1.087C682.332,46.306,682.317,46.309,682.275,46.33Zm-7,3.457q0,2.006,0,4.013a.465.465,0,0,0,.533.53q.887,0,1.774,0c.374,0,.548-.165.549-.538q0-3.992,0-7.983c0-.376-.167-.537-.546-.54q-.876-.005-1.753,0c-.4,0-.557.163-.557.569Q675.27,47.812,675.27,49.787Zm3.266-7.125a1.842,1.842,0,1,0-1.867,1.828A1.839,1.839,0,0,0,678.537,42.662Z" fill="currentColor" fill-rule="evenodd"/>
  </g>
</svg>
