<svg xmlns="http://www.w3.org/2000/svg" width="19.043" height="19.565" viewBox="0 0 19.043 19.565">
  <g id="list" transform="translate(-7 511.736)">
    <path id="Path_6" data-name="Path 6" d="M9-511.689a3.29,3.29,0,0,0-.6.229,2.516,2.516,0,0,0-1.121,3.377,2.514,2.514,0,0,0,1.511,1.3,2.968,2.968,0,0,0,1.319.054,2.562,2.562,0,0,0,1.874-1.824A3.108,3.108,0,0,0,12-509.815a2.608,2.608,0,0,0-1.675-1.8A2.859,2.859,0,0,0,9-511.689Zm.8,1.013a1.483,1.483,0,0,1,1.086.841,1.085,1.085,0,0,1,.119.631,1.113,1.113,0,0,1-.107.616,1.555,1.555,0,0,1-.306.425,1.4,1.4,0,0,1-1.079.44,1.481,1.481,0,0,1-1.071-2.486A1.428,1.428,0,0,1,9.8-510.675Z" transform="translate(-0.01)" fill="currentColor"/>
    <path id="Path_7" data-name="Path 7" d="M172.272-458.931a.551.551,0,0,0-.272.448.59.59,0,0,0,.275.44c.126.076.207.076,6.085.076,5.4,0,5.974-.008,6.093-.061a.517.517,0,0,0,.042-.9c-.119-.076-.237-.076-6.108-.076C172.662-459,172.394-459,172.272-458.931Z" transform="translate(-158.689 -50.719)" fill="currentColor"/>
    <path id="Path_8" data-name="Path 8" d="M8.882-321.689a2.38,2.38,0,0,0-1.136.669A2.43,2.43,0,0,0,7-319.242a2.534,2.534,0,0,0,1.9,2.448,2.915,2.915,0,0,0,1.121.038,2.59,2.59,0,0,0,1.97-1.874,3.118,3.118,0,0,0,.061-.612A2.255,2.255,0,0,0,11.322-321a2.416,2.416,0,0,0-1.021-.654A3.054,3.054,0,0,0,8.882-321.689Zm1.113,1.029a1.553,1.553,0,0,1,.914.83,1.168,1.168,0,0,1,.088.589,1.168,1.168,0,0,1-.088.589,1.5,1.5,0,0,1-2,.761,1.507,1.507,0,0,1-.731-.73,1.061,1.061,0,0,1-.122-.62,1.061,1.061,0,0,1,.122-.62A1.5,1.5,0,0,1,9.995-320.661Z" transform="translate(0 -182.713)" fill="currentColor"/>
    <path id="Path_9" data-name="Path 9" d="M172.682-269.614a.562.562,0,0,0-.386.356.5.5,0,0,0,.184.562l.138.107h6.012c5.725,0,6.012,0,6.112-.069a.526.526,0,0,0,0-.895c-.1-.065-.386-.069-6.035-.073C175.447-269.629,172.736-269.622,172.682-269.614Z" transform="translate(-158.951 -232.849)" fill="currentColor"/>
    <path id="Path_10" data-name="Path 10" d="M9.345-132.5A2.535,2.535,0,0,0,7.2-129.865a2.465,2.465,0,0,0,1.377,2.126,2.352,2.352,0,0,0,1.27.275,2.553,2.553,0,0,0,2.333-1.92,2.789,2.789,0,0,0-.21-1.771,2.641,2.641,0,0,0-1.645-1.3A3.406,3.406,0,0,0,9.345-132.5Zm.788,1.082a1.554,1.554,0,0,1,.945.811,1.113,1.113,0,0,1,.107.616,1.085,1.085,0,0,1-.119.631,1.477,1.477,0,0,1-2.444.375,1.481,1.481,0,0,1,.467-2.352A1.454,1.454,0,0,1,10.133-131.421Z" transform="translate(-0.188 -364.713)" fill="currentColor"/>
    <path id="Path_11" data-name="Path 11" d="M172.275-79.924a.589.589,0,0,0-.275.44.551.551,0,0,0,.272.447c.122.065.39.069,6.116.069,5.871,0,5.989,0,6.108-.076a.517.517,0,0,0-.042-.895c-.119-.054-.7-.061-6.093-.061C172.482-80,172.4-80,172.275-79.924Z" transform="translate(-158.689 -415.224)" fill="currentColor"/>
  </g>
</svg>
