<svg xmlns="http://www.w3.org/2000/svg" viewBox="0 0 43.019 39.704">
  <g id="Group_3674" data-name="Group 3674" transform="translate(-635.75 -14.665)">
    <path id="Path_12798" data-name="Path 12798" d="M678.769,27.8a8.122,8.122,0,0,1-.255.794,3.327,3.327,0,0,1-2.6,2.073l-.428.075v.484q0,5.4,0,10.791a2.75,2.75,0,0,1-3.009,2.992h-1.042c0,.42,0,.794,0,1.168a2.722,2.722,0,0,1-2.909,2.877q-8.167,0-16.334.009a1.644,1.644,0,0,0-.748.192q-4.5,2.435-8.986,4.895c-.887.484-1.486.133-1.487-.871,0-1.385,0-2.771,0-4.224h-.5c-.672,0-1.344.006-2.016,0a2.715,2.715,0,0,1-2.6-1.949c-.033-.106-.07-.21-.1-.315V27.132c.055-.14.113-.279.164-.42a2.672,2.672,0,0,1,2.466-1.772c.447-.009.893,0,1.415,0,0-.462-.008-.9,0-1.343a2.69,2.69,0,0,1,2.066-2.632,4,4,0,0,1,.916-.082c1.61-.008,3.22,0,4.83,0h.5c0-.936,0-1.827,0-2.719a3.388,3.388,0,0,1,1.1-2.586,3.138,3.138,0,0,1,2.161-.891q4.116-.017,8.233-.008a.836.836,0,0,1,.9.841.861.861,0,0,1-.965.831c-2.184.007-4.368,0-6.553,0-.448,0-.9,0-1.344,0a1.722,1.722,0,0,0-1.855,1.864q-.006,3.381,0,6.762c0,.742,0,1.484,0,2.226a1.732,1.732,0,0,0,1.843,1.844q11.8.005,23.606,0a1.728,1.728,0,0,0,1.846-1.878q0-4.453,0-8.9a1.732,1.732,0,0,0-1.928-1.914q-3.759-.006-7.519,0c-.126,0-.252.005-.378,0a.835.835,0,0,1-.877-.869.811.811,0,0,1,.891-.8c2.73-.006,5.461-.025,8.19.012a3.3,3.3,0,0,1,3.225,2.679,1.291,1.291,0,0,0,.076.188ZM642.648,52.121c.2-.1.348-.176.49-.254,2.577-1.407,5.15-2.823,7.737-4.213a2.279,2.279,0,0,1,1.028-.264q8.254-.024,16.508-.011c.978,0,1.339-.36,1.34-1.342q0-7.414,0-14.828V30.73h-8.163c-3.318,0-6.637.005-9.955,0a3.392,3.392,0,0,1-3.495-3.071,8.546,8.546,0,0,1-.006-1,1.9,1.9,0,0,0-.22-.032q-4.725,0-9.451,0a1,1,0,0,0-1.03,1.122q0,9.241,0,18.482a1.037,1.037,0,0,0,1.14,1.15c.952.006,1.9,0,2.857,0,.992,0,1.219.223,1.219,1.2C642.648,49.736,642.648,50.893,642.648,52.121Zm28.813-21.373V43.333h1.027c.94,0,1.315-.38,1.315-1.329q0-5.4,0-10.795v-.461Zm-29.966-5.84h6.588V22.559h-.568c-1.706.005-3.412,0-5.119.025a.906.906,0,0,0-.892.851C641.46,23.916,641.494,24.4,641.494,24.908Z" fill-rule="evenodd"/>
    <path id="Path_12799" data-name="Path 12799" d="M941.2,50.479V52.2c.6,0,1.185-.018,1.768,0a.825.825,0,0,1,.8,1.128.846.846,0,0,1-.865.542c-.557,0-1.114,0-1.7,0v1.712c.624,0,1.236,0,1.847,0s.986.326.978.846a.859.859,0,0,1-.961.831q-1.3.011-2.6,0a.863.863,0,0,1-.963-.964q-.008-3.277,0-6.553a.856.856,0,0,1,.942-.942q1.323-.017,2.647,0a.854.854,0,0,1,.941.852c-.005.5-.363.818-.959.823C942.459,50.484,941.846,50.479,941.2,50.479Z" transform="translate(-269.715 -30.305)" fill-rule="evenodd"/>
    <path id="Path_12800" data-name="Path 12800" d="M870.846,53.665l1.3-3.884c.075-.225.143-.453.225-.675a.842.842,0,1,1,1.584.543c-.229.718-.472,1.432-.71,2.148q-.713,2.147-1.428,4.293a1.013,1.013,0,0,1-2,.038c-.742-2.137-1.487-4.272-2.211-6.415a1.362,1.362,0,0,1-.028-.768.719.719,0,0,1,.75-.5.792.792,0,0,1,.8.569c.342.96.673,1.924,1.008,2.887l.617,1.772Z" transform="translate(-205.816 -29.997)" fill-rule="evenodd"/>
    <path id="Path_12801" data-name="Path 12801" d="M787.448,55.272c.534,0,1.008,0,1.482,0a.837.837,0,1,1,.04,1.671c-.769.021-1.54.02-2.31,0a.84.84,0,0,1-.889-.907q-.012-3.339,0-6.678a.842.842,0,1,1,1.676.023c0,1.792,0,3.584,0,5.376Z" transform="translate(-133.208 -29.998)" fill-rule="evenodd"/>
    <path id="Path_12802" data-name="Path 12802" d="M834.344,52.675c0-1.09,0-2.181,0-3.271,0-.6.307-.955.809-.967.521-.013.866.355.867.962q.009,3.272,0,6.543c0,.6-.344,1-.843,1s-.833-.385-.835-.994C834.341,54.856,834.344,53.766,834.344,52.675Z" transform="translate(-176.342 -29.988)" fill-rule="evenodd"/>
    <path id="Path_12803" data-name="Path 12803" d="M876.372,14.785a.831.831,0,0,1,.828.829.845.845,0,0,1-.828.836.829.829,0,0,1-.839-.858A.808.808,0,0,1,876.372,14.785Z" transform="translate(-212.917 -0.107)" fill-rule="evenodd"/>
    <path id="Path_12804" data-name="Path 12804" d="M685.111,189.712a3.06,3.06,0,0,1,6.119-.02,3.06,3.06,0,1,1-6.119.02Zm1.681-.015a1.379,1.379,0,0,0,1.367,1.4,1.406,1.406,0,0,0,1.391-1.392,1.388,1.388,0,0,0-1.359-1.373A1.363,1.363,0,0,0,686.792,189.7Z" transform="translate(-43.831 -152.719)" fill-rule="evenodd"/>
    <path id="Path_12805" data-name="Path 12805" d="M850.227,189.716a3.063,3.063,0,1,1,3.078,3.062A3.06,3.06,0,0,1,850.227,189.716Zm1.681-.006a1.383,1.383,0,1,0,1.391-1.379A1.377,1.377,0,0,0,851.907,189.711Z" transform="translate(-190.447 -152.716)" fill-rule="evenodd"/>
    <path id="Path_12806" data-name="Path 12806" d="M767.674,189.692a3.063,3.063,0,0,1,6.126.018,3.063,3.063,0,1,1-6.126-.018Zm1.68,0a1.384,1.384,0,0,0,1.37,1.4,1.411,1.411,0,0,0,1.395-1.391,1.39,1.39,0,0,0-1.36-1.374A1.367,1.367,0,0,0,769.354,189.695Z" transform="translate(-117.143 -152.718)" fill-rule="evenodd"/>
  </g>
</svg>
