<svg xmlns="http://www.w3.org/2000/svg" viewBox="0 0 18.123 21.579">
  <g id="Group_3948" data-name="Group 3948" transform="translate(-361.26 -34.673)">
    <path id="Path_13258" data-name="Path 13258" d="M370.319,34.773a9,9,0,0,1,8.885,7.844,8.736,8.736,0,0,1-2.568,7.513c-1.884,1.921-3.8,3.81-5.7,5.712a.768.768,0,0,1-1.214,0c-1.9-1.9-3.813-3.8-5.707-5.71a8.831,8.831,0,0,1-2.65-6.5,8.954,8.954,0,0,1,7.415-8.679C369.285,34.865,369.8,34.83,370.319,34.773Zm0,19.529c.039-.032.059-.046.075-.062,1.746-1.747,3.513-3.474,5.233-5.247a7.219,7.219,0,0,0,2.061-6.242,7.443,7.443,0,0,0-14.816,1.05,7.324,7.324,0,0,0,2.228,5.292q2.524,2.533,5.056,5.057C370.21,54.2,370.262,54.245,370.323,54.3Z" fill="currentColor" stroke="currentColor" stroke-width="0.2" fill-rule="evenodd"/>
    <path id="Path_13259" data-name="Path 13259" d="M447.523,118.111a3.776,3.776,0,1,1,3.782-3.731A3.771,3.771,0,0,1,447.523,118.111Zm-.018-1.513a2.264,2.264,0,1,0-2.243-2.283A2.257,2.257,0,0,0,447.505,116.6Z" transform="translate(-77.205 -71.015)" fill="currentColor" stroke="currentColor" stroke-width="0.2" fill-rule="evenodd"/>
  </g>
</svg>
