<svg xmlns="http://www.w3.org/2000/svg" viewBox="0 0 19.295 22.253">
  <g id="Group_3257" data-name="Group 3257" transform="translate(-508.729 -31.417)">
    <path id="Path_2491" data-name="Path 2491" d="M522.263,31.567a.81.81,0,0,1,.478.841c-.012,2.387-.006,4.773-.006,7.16v.273h2.874c-.064-.07-.108-.122-.156-.17-.363-.364-.731-.725-1.09-1.093a.64.64,0,1,1,.906-.9q1.188,1.176,2.365,2.364a.627.627,0,0,1,0,.936q-1.169,1.18-2.349,2.35a.642.642,0,1,1-.9-.911c.356-.361.717-.718,1.076-1.077.048-.048.093-.1.162-.175h-2.883v.253q0,3.623,0,7.246c0,.545-.238.785-.78.785h-4.579v.232c0,1-.012,2,.006,3a.8.8,0,0,1-.478.842h-.343l-.33-.189q-3.439-1.945-6.879-3.886a.833.833,0,0,1-.472-.81q.011-8.114,0-16.227a.807.807,0,0,1,.478-.842ZM516.09,51.773v-.185q0-7.373,0-14.745a.264.264,0,0,0-.152-.27q-2.8-1.575-5.591-3.16c-.052-.029-.107-.051-.178-.084v.135q0,7.394,0,14.788a.263.263,0,0,0,.161.263c.909.508,1.815,1.023,2.722,1.536Zm5.345-11.912V32.872h-9.425l.341.2c1.515.857,3.028,1.72,4.548,2.567a.845.845,0,0,1,.483.825q-.013,5.711-.005,11.422v.265h4.058v-7h-.291c-.414,0-.829.007-1.243-.009a.621.621,0,0,1-.582-.512.608.608,0,0,1,.315-.668,1.08,1.08,0,0,1,.431-.093C520.518,39.854,520.973,39.861,521.434,39.861Z" transform="translate(0)" fill="currentColor" stroke="#fff" stroke-width="0.3" fill-rule="evenodd"/>
  </g>
</svg>
