<svg xmlns="http://www.w3.org/2000/svg" viewBox="0 0 31.054 30.907">
  <g id="markets" transform="translate(-1.5 556.643)">
    <path id="Path_98" data-name="Path 98" d="M293.657-556.607a8.763,8.763,0,0,0-2.805.944,7.7,7.7,0,0,0-3.716,5.328,9.793,9.793,0,0,0-.006,2.55,7.613,7.613,0,0,0,6.361,6.261,7.738,7.738,0,0,0,4.428-.639,7.683,7.683,0,0,0,4.216-5.333,6.877,6.877,0,0,0,.106-1.528,6.137,6.137,0,0,0-.333-2.394A7.581,7.581,0,0,0,296.2-556.5,10.609,10.609,0,0,0,293.657-556.607Zm2.072.972a6.535,6.535,0,0,1,3.566,1.817,6.473,6.473,0,0,1,2.022,4.205A6.434,6.434,0,0,1,300.59-546a6.673,6.673,0,0,1-9.05,2.85,6.727,6.727,0,0,1-3.439-7.277,6.806,6.806,0,0,1,4.55-4.983,7.984,7.984,0,0,1,.889-.222A7.808,7.808,0,0,1,295.729-555.635Z" transform="translate(-269.686)" fill="currentColor"/>
    <path id="Path_99" data-name="Path 99" d="M369.373-495.872c-.106.111-.122.194-.122.583v.456h-.528c-.822,0-.75-.306-.75,3.083v2.844l.128.117c.111.106.194.122.639.122h.511v.444c0,.533.089.667.433.667s.456-.161.456-.683v-.428h1.555v.444c0,.533.089.667.433.667s.456-.161.456-.683v-.428h.183a1.977,1.977,0,0,0,1.011-.511,1.609,1.609,0,0,0,.406-1.139,1.759,1.759,0,0,0-.3-1.244l-.139-.206.161-.228a1.7,1.7,0,0,0,.278-1.211,1.637,1.637,0,0,0-.172-.772,1.569,1.569,0,0,0-1.217-.855h-.211v-.467c0-.439-.011-.478-.144-.583a.566.566,0,0,0-.3-.117.566.566,0,0,0-.3.117c-.133.106-.144.144-.144.583v.467h-1.555v-.467c0-.439-.011-.478-.144-.583A.465.465,0,0,0,369.373-495.872Zm3.561,2.061a.777.777,0,0,1,.317.728.783.783,0,0,1-.35.75c-.167.106-.289.111-2.078.111h-1.905v-1.728l1.933.017C372.633-493.917,372.789-493.911,372.933-493.811Zm.1,2.75c.211.206.217.228.217.589,0,.417-.089.628-.333.772a7.022,7.022,0,0,1-2.078.089h-1.922v-1.667h3.9Z" transform="translate(-346.112 -57.274)" fill="currentColor"/>
    <path id="Path_100" data-name="Path 100" d="M124.79-540.665a.479.479,0,0,0-.261.667c.061.111.239.233.644.433a3.622,3.622,0,0,1,.561.306,1.8,1.8,0,0,1-.4.161,8.083,8.083,0,0,0-.906.383,6.5,6.5,0,0,0-3.278,4.094,5.756,5.756,0,0,0-.172,1.828.483.483,0,0,0,.811.089,4.035,4.035,0,0,0,.111-.7,5.062,5.062,0,0,1,.556-1.994,5.648,5.648,0,0,1,4.155-3.055c.128-.022.233-.017.233.011s-.061.394-.139.822a4.436,4.436,0,0,0-.106.928.463.463,0,0,0,.761.194c.106-.1.161-.322.333-1.322a4.6,4.6,0,0,0,.156-1.344c-.05-.122-.3-.272-1.45-.844C125.018-540.7,124.951-540.726,124.79-540.665Z" transform="translate(-112.819 -15.07)" fill="currentColor"/>
    <path id="Path_101" data-name="Path 101" d="M10.272-349.616a9.563,9.563,0,0,0-5.877,2.711,9.615,9.615,0,0,0-2.767,5.039,7.594,7.594,0,0,0-.128,1.911,8.495,8.495,0,0,0,.1,1.778,9.6,9.6,0,0,0,2.589,4.966,9.659,9.659,0,0,0,9.111,2.722,9.7,9.7,0,0,0,7.394-11.427,9.706,9.706,0,0,0-7.527-7.533A9.615,9.615,0,0,0,10.272-349.616Zm-1.144,1.233a9.822,9.822,0,0,0-2.189,3.561l-.161.483-.389-.039a24.011,24.011,0,0,1-2.578-.328,3.36,3.36,0,0,1,.372-.539,8.924,8.924,0,0,1,4.539-3.128C9.277-348.539,9.311-348.539,9.127-348.383Zm5.133.228a8.978,8.978,0,0,1,2.978,1.889,8.682,8.682,0,0,1,1.289,1.544,15.484,15.484,0,0,1-2.583.35l-.389.039-.161-.489a12.155,12.155,0,0,0-1.233-2.444c-.172-.239-.472-.617-.672-.839l-.356-.4.389.106C13.738-348.339,14.066-348.233,14.261-348.155ZM12-348.15a7.1,7.1,0,0,1,2.022,2.522,6.249,6.249,0,0,1,.533,1.328c-.022.022-2,.111-2.622.117l-.294.006v-2.083c0-1.144.017-2.083.033-2.083A2.961,2.961,0,0,1,12-348.15Zm-1.305,1.944v2.033l-1.205-.033c-1.45-.039-1.478-.044-1.433-.211A15.362,15.362,0,0,1,9.2-346.594a8.712,8.712,0,0,1,1.444-1.639C10.672-348.233,10.694-347.322,10.694-346.205Zm8.75,3.316a9.12,9.12,0,0,1,.444,1.855,4.768,4.768,0,0,0,.061.506l.022.128H16.194v-.128a20.554,20.554,0,0,0-.367-2.833c-.028-.078.006-.094.211-.094.289,0,2.017-.194,2.6-.294l.417-.072.122.267C19.244-343.411,19.366-343.105,19.444-342.889Zm-15.272-.794c.4.061,1.083.139,1.528.178s.806.072.811.078a4.763,4.763,0,0,1-.089.561,18.4,18.4,0,0,0-.256,2.033l-.039.433H2.417v-.244c0-.867.678-3.144.939-3.144C3.405-343.789,3.772-343.739,4.172-343.683Zm6.4.428.122.022v2.833H7.078l.039-.294a14.745,14.745,0,0,1,.356-1.978c.094-.35.167-.639.167-.65S10.427-343.283,10.572-343.255Zm4.311.006a16.981,16.981,0,0,1,.367,2.611v.239H11.638v-1.417c0-.778.006-1.422.017-1.428s.539-.022,1.178-.044C15.01-343.35,14.849-343.355,14.883-343.25Zm-8.716,4.333c.033.533.194,1.844.283,2.283l.033.161-.522.039c-.283.022-.972.1-1.528.178s-1.044.133-1.089.133c-.233,0-.822-1.9-.906-2.933l-.039-.456H6.128Zm4.528.85v1.444H9.788c-.5,0-1.211.017-1.578.033l-.672.039-.139-.606a13.654,13.654,0,0,1-.317-2.139v-.217h3.611Zm4.539-.822a16.36,16.36,0,0,1-.267,2.039l-.061.3-.756-.033c-.411-.022-1.144-.039-1.633-.039h-.878v-2.889h3.628Zm4.716-.5a5.094,5.094,0,0,0-.061.517,9.558,9.558,0,0,1-.583,2.2l-.228.583-.594-.094c-.328-.056-1.05-.144-1.611-.2l-1.022-.1.039-.167a21.8,21.8,0,0,0,.278-2.211l.039-.65h3.766Zm-9.255,5.822a12.349,12.349,0,0,1-.061,2.167,3.627,3.627,0,0,1-.578-.517,9.68,9.68,0,0,1-1.944-3.061,3.043,3.043,0,0,1-.222-.633c.028-.033,1.255-.089,2.378-.111l.428-.011Zm2.661-2.111c.683.028,1.25.061,1.261.072a6.643,6.643,0,0,1-.561,1.478,12.426,12.426,0,0,1-.622,1.111,6.96,6.96,0,0,1-1.561,1.605l-.233.128v-4.45h.239C12.005-335.728,12.672-335.706,13.355-335.678Zm-6.45.683A10.846,10.846,0,0,0,8.6-331.834c.144.178.239.322.211.322a9.059,9.059,0,0,1-1.678-.678,8.845,8.845,0,0,1-2.95-2.478,3.358,3.358,0,0,1-.372-.539c.056-.05,2.239-.328,2.8-.356C6.705-335.567,6.75-335.473,6.905-334.995Zm9.844-.456a15.121,15.121,0,0,1,1.767.244,5.905,5.905,0,0,1-1.178,1.444,8.023,8.023,0,0,1-2.239,1.633,9.237,9.237,0,0,1-1.578.617,1.618,1.618,0,0,1,.311-.439,10.168,10.168,0,0,0,1.583-2.989c.094-.267.183-.522.194-.561s.094-.067.261-.044C16-335.528,16.4-335.484,16.749-335.45Z" transform="translate(0 -195.486)" fill="currentColor"/>
    <path id="Path_102" data-name="Path 102" d="M397.211-263.58c-.178.1-.183.122-.261.922a5.539,5.539,0,0,1-3.6,4.661,6.45,6.45,0,0,1-1.322.322,7.641,7.641,0,0,1,.117-.767c.167-.939.167-1.028-.006-1.194a.46.46,0,0,0-.778.206c-.1.472-.361,2.078-.361,2.255a.4.4,0,0,0,.128.328,13.815,13.815,0,0,0,1.355.733c1.378.689,1.578.739,1.789.472a.454.454,0,0,0,.011-.583,2.937,2.937,0,0,0-.661-.406l-.556-.272.478-.161a6.489,6.489,0,0,0,4.178-4.522,6,6,0,0,0,.172-1.755A.475.475,0,0,0,397.211-263.58Z" transform="translate(-367.862 -276.722)" fill="currentColor"/>
  </g>
</svg>
