<svg xmlns="http://www.w3.org/2000/svg" viewBox="0 0 39.948 39.958">
  <g id="magic" transform="translate(-0.133 512)">
    <path id="Path_562" data-name="Path 562" d="M155.594-511.8a1.765,1.765,0,0,0-.546.554c-.187.32-.211.445-.242,1.358l-.039,1.007h-.976c-.905,0-1,.016-1.311.2a1.613,1.613,0,0,0,0,2.732c.312.179.406.2,1.311.2h.976l.039,1.007c.031.913.055,1.038.25,1.358a1.452,1.452,0,0,0,1.374.757,1.463,1.463,0,0,0,1.366-.734c.18-.312.2-.406.2-1.358v-1.03h1.03c.952,0,1.046-.016,1.358-.2a1.463,1.463,0,0,0,.734-1.366,1.463,1.463,0,0,0-.734-1.366c-.312-.18-.406-.2-1.358-.2h-1.03v-1.03c0-.952-.016-1.046-.2-1.358a1.468,1.468,0,0,0-1.374-.734A1.283,1.283,0,0,0,155.594-511.8Z" transform="translate(-139.761)" fill="currentColor"/>
    <path id="Path_563" data-name="Path 563" d="M395.594-511.8a1.765,1.765,0,0,0-.546.554c-.187.32-.211.445-.242,1.358l-.039,1.007h-.976c-.905,0-1,.016-1.311.2a1.613,1.613,0,0,0,0,2.732c.312.179.406.2,1.311.2h.976l.039,1.007c.031.913.055,1.038.25,1.358a1.452,1.452,0,0,0,1.374.757,1.463,1.463,0,0,0,1.366-.734c.18-.312.2-.406.2-1.358v-1.03h1.03c.952,0,1.046-.016,1.358-.2a1.463,1.463,0,0,0,.734-1.366,1.463,1.463,0,0,0-.734-1.366c-.312-.18-.406-.2-1.358-.2h-1.03v-1.03c0-.952-.016-1.046-.2-1.358a1.468,1.468,0,0,0-1.374-.734A1.283,1.283,0,0,0,395.594-511.8Z" transform="translate(-361.031)" fill="currentColor"/>
    <path id="Path_564" data-name="Path 564" d="M24.745-391.763c-1.233.359-.445-.375-12.51,11.667-6.111,6.1-11.223,11.262-11.363,11.48a4.138,4.138,0,0,0-.734,2.38,4.237,4.237,0,0,0,1.35,3.551,4.3,4.3,0,0,0,3.317,1.366,4.465,4.465,0,0,0,2.216-.523c.523-.258,1.163-.874,11.73-11.441s11.184-11.207,11.441-11.73a4.465,4.465,0,0,0,.523-2.216,4.3,4.3,0,0,0-1.366-3.317,4.186,4.186,0,0,0-2.123-1.241A6.039,6.039,0,0,0,24.745-391.763Zm1.974,3.2a1.371,1.371,0,0,1,.671.687,1.768,1.768,0,0,1,0,1.3c-.164.32-21.345,21.54-21.8,21.836a1.543,1.543,0,0,1-1.834-.156,1.636,1.636,0,0,1-.289-1.787c.179-.343,21.556-21.719,21.9-21.9A1.837,1.837,0,0,1,26.72-388.563Z" transform="translate(0 -110.724)" fill="currentColor"/>
    <path id="Path_565" data-name="Path 565" d="M395.594-271.8a1.765,1.765,0,0,0-.546.554c-.187.32-.211.445-.242,1.358l-.039,1.007h-.976c-.905,0-1,.016-1.311.2a1.613,1.613,0,0,0,0,2.732c.312.179.406.2,1.311.2h.976l.039,1.007c.031.913.055,1.038.25,1.358a1.452,1.452,0,0,0,1.374.757,1.463,1.463,0,0,0,1.366-.734c.18-.312.2-.406.2-1.358v-1.03h1.03c.952,0,1.046-.016,1.358-.2a1.463,1.463,0,0,0,.734-1.366,1.463,1.463,0,0,0-.734-1.366c-.312-.18-.406-.2-1.358-.2h-1.03v-1.03c0-.952-.016-1.046-.2-1.358a1.468,1.468,0,0,0-1.374-.734A1.283,1.283,0,0,0,395.594-271.8Z" transform="translate(-361.031 -221.27)" fill="currentColor"/>
  </g>
</svg>
