<svg xmlns="http://www.w3.org/2000/svg" viewBox="0 0 39.132 39.115">
  <path id="Path_543" data-name="Path 543" d="M23.2-511.657a2.931,2.931,0,0,0-1.147.657,2.718,2.718,0,0,1-.78.428,1.465,1.465,0,0,1-.956-.015,4.957,4.957,0,0,1-.65-.428c-.887-.658-1.391-.8-1.957-.566a1.53,1.53,0,0,0-.787.933,10.545,10.545,0,0,0,.2,2.638,8.2,8.2,0,0,0,1.682,3.67l.39.443-.6.4a16.776,16.776,0,0,0-1.95,1.514l-.291.268v-2.523a19.357,19.357,0,0,0-.092-2.791c-.291-.856-1.216-1.521-2.676-1.9a11.262,11.262,0,0,0-3.93-.092,4.314,4.314,0,0,0-2.9,1.575l-.229.375-.023,3.54L6.491-500l-.413.054a4.666,4.666,0,0,0-3.3,1.736c-.13.237-.138.749-.176,8.808l-.038,8.555-.382.13a3.47,3.47,0,0,0-2.034,1.491c-.13.275-.145.535-.145,2.393,0,1.9.015,2.11.145,2.37a4.27,4.27,0,0,0,2.913,1.7,7.373,7.373,0,0,0,2.141.13,8.073,8.073,0,0,0,1.9-.191A4.167,4.167,0,0,0,9.6-474.416c.076-.145.176-.252.222-.237a9.354,9.354,0,0,0,1.865.619,11.939,11.939,0,0,0,3.869-.107,3.933,3.933,0,0,0,2.561-1.644c.145-.313.153-.443.153-5.008,0-4.442-.008-4.694-.145-4.962a3.256,3.256,0,0,0-1.223-1.154,8.769,8.769,0,0,0-3.922-.749l-.52.046v-4.954c0-5.665.015-5.474-.6-6.116a5.418,5.418,0,0,0-2.951-1.269c-.206-.023-.528-.061-.711-.084l-.321-.038v-4.572l.336.145a8.756,8.756,0,0,0,6.308.031c.222-.1.42-.183.436-.183s.031.963.031,2.141v2.141l-.68.841a5.546,5.546,0,0,0-.711,1.017.681.681,0,0,0,.367.78c.436.206.665.061,1.414-.879a18.423,18.423,0,0,1,4.434-3.983l.627-.39.428.138c.237.076.436.145.451.153a6.706,6.706,0,0,1-.573.573c-1.246,1.193-1.17,1.093-1.17,1.437a.633.633,0,0,0,.642.7c.313,0,.375-.046,1.965-1.544a12.153,12.153,0,0,1,1.208-1.055c.061,0,.084.344.084,1.109,0,1.086.008,1.124.191,1.3a.654.654,0,0,0,.963-.031l.222-.222v-1.078a4.264,4.264,0,0,1,.069-1.078,17.5,17.5,0,0,1,1.353,1.208c.711.673,1.369,1.254,1.46,1.3a.679.679,0,0,0,1.017-.589c0-.252-.069-.344-.91-1.154l-.91-.879.451-.138c.528-.153.55-.145,1.491.489a20.462,20.462,0,0,1,7.317,9.435,24.944,24.944,0,0,1,1.506,5.8,14.677,14.677,0,0,1-.145,3.937c-.68,2.691-2.454,4.35-5.436,5.084-.619.153-.917.161-6.1.2l-5.459.046-.183.214a.767.767,0,0,0-.183.405.765.765,0,0,0,.405.68c.092.023,2.63.031,5.635.015,5.956-.031,5.7-.008,7.225-.489a7.786,7.786,0,0,0,5.176-4.954,9.72,9.72,0,0,0,.5-3.937,23.8,23.8,0,0,0-5.153-13.609,29.511,29.511,0,0,0-2.584-2.676L31-502.536l.459.054a6.678,6.678,0,0,1,3.463,1.391c.382.344.5.413.742.413.367,0,.535-.1.65-.375.122-.313.054-.566-.275-.925a6.6,6.6,0,0,0-2.814-1.56l-.428-.13.306-.4a2.858,2.858,0,0,0,.344-3.089,3.836,3.836,0,0,0-1.514-1.552,3.224,3.224,0,0,0-.55-.229c-.069,0-.084-.222-.054-.872.038-.841.031-.887-.161-1.216a1.384,1.384,0,0,0-1.17-.665,2.562,2.562,0,0,0-1.376.642,1.686,1.686,0,0,1-2.439.038,2.7,2.7,0,0,0-1.95-.734A3.569,3.569,0,0,0,23.2-511.657Zm1.567,1.384a6.466,6.466,0,0,1,.711.489,2.79,2.79,0,0,0,1.927.642,2.929,2.929,0,0,0,1.965-.711,3.422,3.422,0,0,1,.55-.382,8.155,8.155,0,0,1-.42,2.905,5.9,5.9,0,0,1-2.087,2.943,3.8,3.8,0,0,1-1.239.4c-.008-.008.168-.39.39-.849a6.944,6.944,0,0,0,.849-2.515.621.621,0,0,0-.642-.512c-.443,0-.589.153-.826.856a11.525,11.525,0,0,1-1.1,2.4c-.39.635-.4.642-.7.642-.283,0-.321-.023-.612-.482a12.422,12.422,0,0,1-1.177-2.462c-.26-.765-.42-.956-.818-.956a.635.635,0,0,0-.673.642,8.915,8.915,0,0,0,.872,2.439l.405.818-.275-.046a2.92,2.92,0,0,1-1.537-.772,6.537,6.537,0,0,1-1.835-3.479,6.433,6.433,0,0,1-.183-1.973,3.422,3.422,0,0,1,.55.382,2.929,2.929,0,0,0,1.965.711,2.759,2.759,0,0,0,1.919-.642,8.02,8.02,0,0,1,.7-.482A1.988,1.988,0,0,1,24.771-510.273Zm-11.346,2.729c1.07.321,1.674.78,1.483,1.132a2.479,2.479,0,0,1-1.323.8,7.117,7.117,0,0,1-5.161-.344c-.5-.291-.627-.52-.443-.8a3.455,3.455,0,0,1,1.957-.925A10.259,10.259,0,0,1,13.425-507.543Zm18.043.206a1.959,1.959,0,0,1,.826,1.07c.313,1.063-.642,2.064-2.156,2.271a3.137,3.137,0,0,1-.658,0l-.268-.054.421-.55a9.483,9.483,0,0,0,.711-1.124A9.008,9.008,0,0,0,31-507.467C31.048-507.6,31.14-507.582,31.469-507.337ZM8.532-498.606c1.307.184,2.408.7,2.462,1.162.054.421-.757.887-1.965,1.139A9.525,9.525,0,0,1,5.7-496.35a3.972,3.972,0,0,1-1.537-.742c-.183-.191-.2-.252-.138-.428C4.289-498.3,6.659-498.866,8.532-498.606Zm2.554,7.133v4.083l-.4.138a3.452,3.452,0,0,0-2.011,1.414l-.229.413-.023,2.508c-.023,2.317-.038,2.508-.153,2.462a7.2,7.2,0,0,0-3.265-.65H3.976v-7.187c0-3.953.008-7.187.023-7.187s.313.107.673.237a7.244,7.244,0,0,0,2.844.451,7.22,7.22,0,0,0,3-.52c.3-.122.543-.229.558-.237S11.086-493.72,11.086-491.473Zm4.044,5.4c.994.237,1.766.7,1.766,1.063,0,.206-.543.65-1.04.833a6.314,6.314,0,0,1-2.775.375,4.629,4.629,0,0,1-3-.841c-.4-.367-.237-.7.52-1.07A7.406,7.406,0,0,1,15.13-486.075Zm-3.494,3.547a12.62,12.62,0,0,0,3.479,0,9.083,9.083,0,0,0,1.651-.528c.122-.054.13.138.13,3.31v3.364l-.275.245a3.324,3.324,0,0,1-1.391.65,11.409,11.409,0,0,1-3.119.122c-1.154-.206-2.087-.658-2.24-1.093a32.534,32.534,0,0,1-.084-3.463v-3.226l.635.252A8.086,8.086,0,0,0,11.636-482.527Zm-5.252,2.913a3.879,3.879,0,0,1,1.713.7c.528.443.4.734-.535,1.17a5.808,5.808,0,0,1-2.668.482,5.808,5.808,0,0,1-2.668-.482c-.749-.352-1-.658-.787-.963a3.689,3.689,0,0,1,1.9-.9A10.679,10.679,0,0,1,6.384-479.615Zm-3.807,3.471a8.713,8.713,0,0,0,5.5-.3l.336-.145v.765c0,.734-.008.772-.206.963a3.286,3.286,0,0,1-1.376.65,5.672,5.672,0,0,1-1.934.176,5.672,5.672,0,0,1-1.934-.176,3.2,3.2,0,0,1-1.369-.65c-.206-.191-.214-.229-.214-.963v-.765l.336.145C1.9-476.365,2.294-476.228,2.577-476.143Z" transform="translate(0 511.744)" fill="currentColor"/>
</svg>
