<svg xmlns="http://www.w3.org/2000/svg" viewBox="0 0 29.554 29.57">
  <g id="coin_1_" transform="translate(-0.55 511.696)">
    <path id="Path_984" data-name="Path 984" d="M14.217-511.679c-.11.012-.451.052-.751.087a14.893,14.893,0,0,0-11.121,7.543,15.48,15.48,0,0,0-1.717,5.283,21.961,21.961,0,0,0,0,3.7,14.847,14.847,0,0,0,6.624,10.555,14.8,14.8,0,0,0,12.081,1.832,14.82,14.82,0,0,0,10.514-11.485,14.709,14.709,0,0,0-4.075-13.208,14.654,14.654,0,0,0-8.375-4.2A25.134,25.134,0,0,0,14.217-511.679Zm2.2,3.491a11.377,11.377,0,0,1,10.167,10.167,11.385,11.385,0,0,1-2.393,8.127,14.033,14.033,0,0,1-1.855,1.85,11.345,11.345,0,0,1-8.121,2.4,11.344,11.344,0,0,1-7.034-3.416,10.948,10.948,0,0,1-2.069-2.954,11.263,11.263,0,0,1-.543-8.456,11.332,11.332,0,0,1,5.809-6.624A11.349,11.349,0,0,1,16.42-508.188Z" fill="currentColor"/>
    <path id="Path_985" data-name="Path 985" d="M98.608-421.534a9.661,9.661,0,0,0-6.994,4.335,9.562,9.562,0,0,0,0,10.4,9.61,9.61,0,0,0,9.081,4.329,9.632,9.632,0,0,0,7.641-5.445,9.556,9.556,0,0,0-.624-9.289,9.629,9.629,0,0,0-6.4-4.248A13.791,13.791,0,0,0,98.608-421.534Zm1.925,3.179v.867l.162.035a3.207,3.207,0,0,1,2.457,2.283,4.848,4.848,0,0,1,.127.584l.035.277h-1.74l-.035-.231a1.638,1.638,0,0,0-.682-1.011l-.283-.173H98.758l-.283.173a1.654,1.654,0,0,0-.688,1.04,1.541,1.541,0,0,0,.8,1.491,2.8,2.8,0,0,0,1.191.162,3.266,3.266,0,0,1,1.821.387,3.139,3.139,0,0,1,1.665,2.786,3.19,3.19,0,0,1-2.572,3.144l-.162.035v1.734H98.8v-1.734l-.156-.035a3.206,3.206,0,0,1-2.462-2.283,4.7,4.7,0,0,1-.127-.59l-.035-.272h1.74l.035.231a1.638,1.638,0,0,0,.682,1.012c.277.168.312.173,1.069.191a5.178,5.178,0,0,0,.994-.04,1.46,1.46,0,0,0,1-1.329,1.358,1.358,0,0,0-.358-1c-.37-.41-.549-.468-1.63-.514a5.335,5.335,0,0,1-1.243-.139,3.179,3.179,0,0,1-2.2-3.584,3.222,3.222,0,0,1,2.537-2.6l.156-.035v-1.734h1.734Z" transform="translate(-84.35 -84.919)" fill="currentColor"/>
  </g>
</svg>
