<svg xmlns="http://www.w3.org/2000/svg" viewBox="0 0 37.294 41">
  <g id="commission_2_" data-name="commission(2)" transform="translate(-45.237 488)">
    <path id="Path_538" data-name="Path 538" d="M67.209-487.328a15.181,15.181,0,0,1-3.588,1.414c-1.016.194-1.4.062-2.333-.8a3.208,3.208,0,0,0-3.048-1.025,3,3,0,0,0-1.591,1.52,2.506,2.506,0,0,0-.256,1.352c0,.769.027.875.866,3.367l.866,2.58-.468.468a2.054,2.054,0,0,0-.186,2.907l.309.353-.389.424c-.318.362-3.367,4.975-3.481,5.275-.027.071-.247.035-.654-.106a5.567,5.567,0,0,0-3.835.15,5.505,5.505,0,0,0-2.077,8.562c.4.495.415.539.23.539a2.675,2.675,0,0,0-2.068,1.484,2.126,2.126,0,0,0-.247,1.211A1.971,1.971,0,0,0,45.5-456.5a2.558,2.558,0,0,0,.415.61l.186.168-.3.406a2.636,2.636,0,0,0,.1,3.375l.212.23-.23.274a2.788,2.788,0,0,0-.38,2.845,2.33,2.33,0,0,0,1.237,1.317l.539.274H77.6l.442-.212a2.729,2.729,0,0,0,1.4-3.331,2.9,2.9,0,0,0-1.6-1.617c-.4-.133-.459-.186-.459-.389,0-.247.274-2.978.292-2.978s.318-.23.68-.495a10.131,10.131,0,0,0,4.18-8.3,10.118,10.118,0,0,0-4.171-8.288,9.813,9.813,0,0,0-6.053-1.962H71.239l-.327-.336-.336-.345.221-.2a2.031,2.031,0,0,0,.574-1.5,1.98,1.98,0,0,0-.716-1.617l-.345-.3.884-2.624c.769-2.3.884-2.7.884-3.225a3.368,3.368,0,0,0-1.8-3.11A2.463,2.463,0,0,0,69.242-488C68.57-488,68.544-487.991,67.209-487.328Zm2.669,1.069a2.387,2.387,0,0,1,.7,1.484,21.1,21.1,0,0,1-.813,2.783,9.827,9.827,0,0,1-1.052,2.669l-.239.247H64.232c-4.109,0-4.241-.009-4.462-.177-.177-.141-.389-.672-1.069-2.722a18.937,18.937,0,0,1-.848-2.916c0-.68.539-1.431,1.034-1.431a2.829,2.829,0,0,1,1.484.884,5.535,5.535,0,0,0,1.025.751c1.343.68,3.216.345,6.106-1.1C69.074-486.577,69.418-486.648,69.878-486.259Zm-.247,8.872a.6.6,0,0,1-.035.822l-.177.23H64.046c-5.275,0-5.372,0-5.558-.177a.653.653,0,0,1,.009-.945c.194-.15.495-.159,5.593-.133C69.436-477.573,69.471-477.573,69.63-477.388Zm-.663,2.819a1.454,1.454,0,0,1,.371.336c0,.044-.168.133-.371.194a10.187,10.187,0,0,0-3.976,2.545,10.139,10.139,0,0,0-2.9,7.175A10.268,10.268,0,0,0,70.5-454.2a11.558,11.558,0,0,0,4.975-.309,2.4,2.4,0,0,1,.557-.15c.018.018-.035.627-.106,1.352-.239,2.35-.221,2.4.884,2.509.645.062.716.088.981.38a1.051,1.051,0,0,1,.247,1.264,1.756,1.756,0,0,1-.415.512c-.247.186-.327.186-8.474.212l-8.218.018.415-.459a5.657,5.657,0,0,0,1.14-2.165,7.117,7.117,0,0,0,0-2.8,5.653,5.653,0,0,0-3.906-3.888c-.663-.15-.725-.194-.725-.433a2.96,2.96,0,0,0-.8-1.467,2.979,2.979,0,0,0-1.5-.716c-.15,0-.115-.08.23-.5a6.029,6.029,0,0,0,1.149-2.395,6.272,6.272,0,0,0-.088-2.7,6.675,6.675,0,0,0-1.211-2.121c-.336-.371-.433-.548-.389-.68.1-.309,3.048-4.8,3.384-5.16a7.31,7.31,0,0,1,.725-.636l.4-.3h8.854Zm5.611,1.811a8.807,8.807,0,0,1,6.009,11.036,8.885,8.885,0,0,1-7.811,6.2,9.048,9.048,0,0,1-4.453-.919,8.185,8.185,0,0,1-2.43-1.785,8.719,8.719,0,0,1-1.016-10.922A8.8,8.8,0,0,1,74.579-472.758Zm-22.135,4.506a3.471,3.471,0,0,1,1.723.91,4.1,4.1,0,0,1,1.113,1.635,3.928,3.928,0,0,1-2.05,4.878,3.935,3.935,0,0,1-5.5-2.607,3.978,3.978,0,0,1,2.872-4.789A3.286,3.286,0,0,1,52.444-468.251Zm2.978,9.411c.353.08.928.583.928.822,0,.062-.327.212-.8.353a5.121,5.121,0,0,0-1.5.725l-.716.486H47.531l-.283-.23a1.106,1.106,0,0,1-.345-1.529,1.172,1.172,0,0,1,.831-.636C48.123-458.938,55.007-458.938,55.422-458.841Zm2.739,2.527a4.059,4.059,0,0,1,2.96,4.339,3.9,3.9,0,0,1-2.359,3.137,3.861,3.861,0,0,1-2.757.159,4.62,4.62,0,0,1-1.705-1.034,4.1,4.1,0,0,1-1.06-3.225A4.038,4.038,0,0,1,58.161-456.313Zm-6.053,1.758a8.5,8.5,0,0,0-.442,1.9c0,.177-.044.177-2.068.177H47.531l-.283-.23a1.121,1.121,0,0,1-.345-1.537c.406-.654.557-.689,3.19-.7l2.183-.009Zm-.053,4.038a4.776,4.776,0,0,0,1.06,1.732l.362.38-2.889-.027c-2.766-.026-2.9-.035-3.137-.212a1.544,1.544,0,0,1-.645-1.043,1.649,1.649,0,0,1,.521-1c.292-.23.725-.274,2.616-.283l1.944-.009Z" transform="translate(0)" fill="currentColor"/>
    <path id="Path_539" data-name="Path 539" d="M272.824-303.745a7.536,7.536,0,0,0-5.4,4.047,6.319,6.319,0,0,0-.725,3.322,5.408,5.408,0,0,0,.239,2.032,7.406,7.406,0,0,0,4.825,5.01,5.033,5.033,0,0,0,2.342.292,4.866,4.866,0,0,0,2.3-.283,7.216,7.216,0,0,0,2.757-1.644,7.125,7.125,0,0,0,2.35-5.54,7.33,7.33,0,0,0-6.026-7.193A8.672,8.672,0,0,0,272.824-303.745Zm3.048,1.705a6.017,6.017,0,0,1,3.985,4.215,6.885,6.885,0,0,1,0,2.819,6.077,6.077,0,0,1-4.383,4.365,7.56,7.56,0,0,1-2.783.009,6.032,6.032,0,0,1-3.87-3.137,5.727,5.727,0,0,1,1.1-6.8,6.012,6.012,0,0,1,3.2-1.688A6.66,6.66,0,0,1,275.872-302.04Z" transform="translate(-201.894 -167.899)" fill="currentColor"/>
    <path id="Path_540" data-name="Path 540" d="M329.6-263.77a.853.853,0,0,0-.186.442c0,.124-.053.212-.115.212a1.5,1.5,0,0,0-.495.274,2.182,2.182,0,0,0-.8,1.493,1.973,1.973,0,0,0,1.67,1.988c.627.088.707.124.769.353.115.477-.38.751-.8.442a.848.848,0,0,0-1.007.071.889.889,0,0,0,.512,1.4c.186.062.265.141.265.292a.857.857,0,0,0,.186.433.769.769,0,0,0,1.317-.477c0-.194.088-.345.345-.574a2.814,2.814,0,0,0,.486-.61,2.436,2.436,0,0,0-.026-1.714,1.971,1.971,0,0,0-1.6-1.078c-.274,0-.619-.265-.619-.468a.6.6,0,0,1,.442-.415,1.871,1.871,0,0,1,.495.177c.345.168.4.177.68.062a.767.767,0,0,0,.035-1.378.38.38,0,0,1-.239-.406.958.958,0,0,0-.186-.521c-.141-.186-.256-.23-.565-.23S329.741-263.956,329.6-263.77Z" transform="translate(-257.777 -204.207)" fill="currentColor"/>
    <path id="Path_541" data-name="Path 541" d="M83.567-255.666a3.734,3.734,0,0,0-1.4.919,3.168,3.168,0,0,0,1.1,4.948,2.365,2.365,0,0,0,1.281.239,2.464,2.464,0,0,0,1.3-.247,3.105,3.105,0,0,0,1.785-2.342,3.118,3.118,0,0,0-1.688-3.331,2.439,2.439,0,0,0-1.264-.274A3.37,3.37,0,0,0,83.567-255.666ZM85.5-253.96a1.611,1.611,0,0,1-.035,2.633,1.6,1.6,0,0,1-2.492-.99,1.661,1.661,0,0,1,.831-1.8A1.709,1.709,0,0,1,85.5-253.96Z" transform="translate(-32.979 -211.719)" fill="currentColor"/>
    <path id="Path_542" data-name="Path 542" d="M147.6-120.649a2.994,2.994,0,0,0-1.352.9,2.539,2.539,0,0,0-.751,2.112,2.155,2.155,0,0,0,.3,1.44,3.11,3.11,0,0,0,1.5,1.414,2.341,2.341,0,0,0,1.29.239,2.391,2.391,0,0,0,1.3-.239,3.4,3.4,0,0,0,1.555-1.555,2.391,2.391,0,0,0,.239-1.3,2.391,2.391,0,0,0-.239-1.3,3.328,3.328,0,0,0-1.467-1.546,2.509,2.509,0,0,0-1.246-.265A3.6,3.6,0,0,0,147.6-120.649Zm1.705,1.555a1.6,1.6,0,0,1,.345,2.633,1.579,1.579,0,0,1-2.527-.486A1.625,1.625,0,0,1,149.308-119.094Z" transform="translate(-91.404 -334.799)" fill="currentColor"/>
  </g>
</svg>
