<svg xmlns="http://www.w3.org/2000/svg" xmlns:xlink="http://www.w3.org/1999/xlink" width="300" height="300" viewBox="0 0 300 300">
  <defs>
    <clipPath id="clip-Near">
      <rect width="300" height="300"/>
    </clipPath>
  </defs>
  <g id="Near" clip-path="url(#clip-Near)">
    <rect width="300" height="300" fill="rgba(255,255,255,0)"/>
    <path id="near-protocol-near-logo" d="M225.976,14.413l-58.841,87.42c-4.069,5.953,3.756,13.16,9.39,8.147l57.9-50.447a2.263,2.263,0,0,1,3.756,1.88V219.02a2.342,2.342,0,0,1-4.069,1.567L58.841,10.653A28.946,28.946,0,0,0,35.993,0h-6.26A30.006,30.006,0,0,0,0,30.08V251.92a30.05,30.05,0,0,0,55.711,15.667l58.841-87.42c4.069-5.953-3.756-13.16-9.39-8.147l-57.9,50.133a2.263,2.263,0,0,1-3.756-1.88V62.98a2.342,2.342,0,0,1,4.069-1.567L222.846,271.347A29.4,29.4,0,0,0,245.694,282h6.26A30.071,30.071,0,0,0,282,251.92V30.08a30.251,30.251,0,0,0-56.024-15.667Z" transform="translate(9 9)" opacity="0.9"/>
  </g>
</svg>
