<svg xmlns="http://www.w3.org/2000/svg" viewBox="0 0 65.604 58.81">
  <g id="Group_4413" data-name="Group 4413" transform="translate(462.589 -28.016)">
    <path id="Path_13612" data-name="Path 13612" d="M-462.589,55.48c.165-1.135.287-2.278.5-3.4a28.85,28.85,0,0,1,12.665-19.168,28.41,28.41,0,0,1,16.239-4.88c3.2,0,6.416-.085,9.6.165a27.949,27.949,0,0,1,17.058,7.549,28.947,28.947,0,0,1,9.24,17.468c.121.8.2,1.6.3,2.4V59.2c-.163,1.156-.281,2.32-.5,3.465A28.834,28.834,0,0,1-409.159,81.2a28.618,28.618,0,0,1-17.3,5.584c-2.754,0-5.519.132-8.261-.064-11.014-.785-19.183-6.095-24.542-15.738a.972.972,0,0,1,.3-1.441c.532-.291,1.051-.093,1.406.575A27.619,27.619,0,0,0-447.8,80.663a27.472,27.472,0,0,0,35.3-5.21,26.935,26.935,0,0,0,6.645-20.676,27.409,27.409,0,0,0-22.607-24.424A27.391,27.391,0,0,0-459.345,49a26.955,26.955,0,0,0,.012,16.871c.064.2.145.4.2.608a.981.981,0,0,1-.629,1.284.93.93,0,0,1-1.18-.7c-.448-1.643-.879-3.291-1.249-4.953-.2-.91-.268-1.851-.395-2.778Zm63.071-4.2h-4.828c.166,1.611.339,3.2.487,4.781.034.364.235.389.517.387,1-.007,2,0,3,0h1.5Zm-4.242,7.133-.614,5.1h4.854l.666-5.1Zm-3.169,12.235c1.534,0,2.959.014,4.382-.019.161,0,.382-.248.462-.431.617-1.4,1.209-2.815,1.8-4.227a2.934,2.934,0,0,0,.108-.5c-1.458,0-2.844.017-4.229-.01-.422-.008-.561.148-.7.533-.477,1.343-1.015,2.665-1.533,3.994C-406.709,70.182-406.8,70.365-406.928,70.651Zm.075-26.5,2,5.139h4.83c-.626-1.462-1.244-2.812-1.781-4.194a1.356,1.356,0,0,0-1.59-.966C-404.534,44.209-405.681,44.149-406.853,44.149Zm3.277-1.926c-.04-.139-.041-.211-.076-.252q-2.039-2.373-4.089-4.736a.582.582,0,0,0-.378-.191c-1.245-.014-2.491-.008-3.825-.008.728.872,1.409,1.631,2.024,2.439s1.169,1.679,1.762,2.512a.533.533,0,0,0,.348.225C-406.411,42.228-405.011,42.222-403.576,42.222Zm-8.352,35.543h1.508c2.678,0,2.694.014,4.473-2.018.848-.968,1.621-2,2.428-3l-.1-.165a21.5,21.5,0,0,1-2.59-.02,2.268,2.268,0,0,0-2.734,1.423,4.581,4.581,0,0,1-.737,1.039C-410.4,75.91-411.127,76.79-411.928,77.765Zm1.384-42.651a24.06,24.06,0,0,0-10.538-4.6.316.316,0,0,0,.175.178,29.532,29.532,0,0,1,6.617,4.2.8.8,0,0,0,.443.208C-412.747,35.123-411.646,35.115-410.544,35.115ZM-421.1,84.358a25.941,25.941,0,0,0,10.577-4.6c-.554-.066-1.1-.012-1.64-.078a3.531,3.531,0,0,0-3.221,1.087,3.883,3.883,0,0,1-.818.611C-417.815,82.363-419.431,83.341-421.1,84.358Z" transform="translate(0)" fill="currentColor" fill-rule="evenodd"/>
    <path id="Path_13613" data-name="Path 13613" d="M-382.431,84.022a23.881,23.881,0,0,1-19.107,23.331,23.931,23.931,0,0,1-27.974-17.914A23.672,23.672,0,0,1-413.49,61.287c9.181-2.84,17.352-.682,24.271,6.037.537.521.562,1.094.116,1.511s-.961.354-1.512-.2a22.041,22.041,0,0,0-11.728-6.244A22.049,22.049,0,0,0-427.6,78.766a21.919,21.919,0,0,0,11.474,24.806,21.962,21.962,0,0,0,31.171-14.543,21.685,21.685,0,0,0-2.971-17.046c-.057-.09-.122-.176-.174-.268a.959.959,0,0,1,.235-1.358.914.914,0,0,1,1.372.338c.82,1.468,1.675,2.927,2.344,4.464A22.4,22.4,0,0,1-382.431,84.022Z" transform="translate(-26.911 -26.574)" fill="currentColor" fill-rule="evenodd"/>
    <path id="Path_13614" data-name="Path 13614" d="M-359.465,148.368c-.423.454-.853.957-1.326,1.417a2.723,2.723,0,0,1-3.951.023,2.735,2.735,0,0,1,.065-3.908c.46-.472.961-.9,1.437-1.348a12.653,12.653,0,0,1-.008-13.42c-.431-.406-.891-.818-1.326-1.255a2.753,2.753,0,0,1-.138-4.046,2.75,2.75,0,0,1,4.043.174c.423.42.819.868,1.127,1.2,1.381-.515,2.6-1.091,3.886-1.424a11.816,11.816,0,0,1,9.021,1.23c.4.225.654.255.97-.115a11.538,11.538,0,0,1,1.182-1.171,2.711,2.711,0,0,1,3.763.132,2.73,2.73,0,0,1,.083,3.769c-.4.444-.861.833-1.246,1.288a.7.7,0,0,0-.1.626,12.393,12.393,0,0,1,.009,12.58.7.7,0,0,0,.08.631c.352.426.779.789,1.16,1.192a2.75,2.75,0,0,1,.034,3.864,2.729,2.729,0,0,1-3.908.036c-.406-.378-.768-.806-1.194-1.159a.707.707,0,0,0-.629-.095,12.34,12.34,0,0,1-12.683-.084A3.257,3.257,0,0,0-359.465,148.368Zm-3.314-21.526c-.269.2-.618.332-.691.553a1.182,1.182,0,0,0,.1.93,11.321,11.321,0,0,0,1.15,1.2c1.069,1.114,1.6,1.072.443,3.036a10.065,10.065,0,0,0,.321,11.132c.553.877.543,1.15-.19,1.885-.483.484-.967.965-1.449,1.45-.58.582-.665,1.028-.276,1.43s.851.339,1.427-.233c.531-.527,1.056-1.059,1.587-1.584a1.051,1.051,0,0,1,1.63-.173,10.353,10.353,0,0,0,12.015-.013,1.035,1.035,0,0,1,1.582.159c.61.6,1.206,1.21,1.816,1.808a.8.8,0,0,0,1.2.062.835.835,0,0,0-.045-1.247c-.425-.45-.872-.879-1.31-1.318-1.173-1.177-1.173-1.177-.309-2.563.034-.054.068-.109.1-.165a10.363,10.363,0,0,0-.327-11.213c-.557-.884-.55-1.131.195-1.878.513-.514,1.029-1.025,1.538-1.543.476-.484.542-.98.191-1.345-.37-.384-.842-.338-1.338.146-.443.432-.877.875-1.315,1.313-1.085,1.086-1.1,1.087-2.42.247-.09-.057-.181-.114-.274-.164a10.357,10.357,0,0,0-11.155.36c-.885.559-1.139.549-1.879-.189-.529-.528-1.048-1.066-1.591-1.58A5.92,5.92,0,0,0-362.779,126.842Z" transform="translate(-80.473 -80.434)" fill="currentColor" fill-rule="evenodd"/>
    <path id="Path_13615" data-name="Path 13615" d="M-324.764,157.528a8.328,8.328,0,0,1-1.216,3.958c-.394.671-.952.875-1.472.553s-.572-.823-.188-1.513a6.923,6.923,0,0,0-4.215-10.218,6.945,6.945,0,0,0-8.553,5.307,6.946,6.946,0,0,0,5.593,8.208,6.8,6.8,0,0,0,4.407-.677,1.022,1.022,0,0,1,1.344.1.951.951,0,0,1-.4,1.57,8.583,8.583,0,0,1-9-.424,8.783,8.783,0,0,1-3.5-10.346,8.908,8.908,0,0,1,9.17-5.867A9.006,9.006,0,0,1-324.764,157.528Z" transform="translate(-99.591 -99.605)" fill="currentColor" fill-rule="evenodd"/>
  </g>
</svg>
