<svg xmlns="http://www.w3.org/2000/svg" viewBox="0 0 37.971 32.671">
  <g id="Group_1923" data-name="Group 1923" transform="translate(-1053.113 -334.248)">
    <path id="Path_1222" data-name="Path 1222" d="M1054.422,354.593c2.214-2.848,5.022-4.105,8.487-3.26,3.6.877,5.513,3.383,6.087,7.042.537,0,1.09,0,1.644,0,.495,0,.783.231.8.624s-.3.676-.793.683c-.45.006-.9.013-1.349,0-.248-.009-.354.055-.39.325a7.913,7.913,0,0,1-15.714-.133c-.056-.579,0-1.168-.011-1.752-.008-.42-.063-.839-.063-1.259q-.007-9.9,0-19.793a2.629,2.629,0,0,1,2.813-2.811q7.28,0,14.559,0a2.99,2.99,0,0,1,.327.005.659.659,0,0,1,.624.68.646.646,0,0,1-.64.618c-.136.011-.273.005-.409.005h-14.4c-1.088,0-1.57.482-1.57,1.571q0,8.506,0,17.013Zm6.6-2.191a6.625,6.625,0,1,0,6.651,6.6A6.628,6.628,0,0,0,1061.022,352.4Z" transform="translate(0 -0.005)" fill="currentColor" fill-rule="evenodd"/>
    <path id="Path_1223" data-name="Path 1223" d="M1247.088,352.246h-.464q-3.231,0-6.462,0a2.632,2.632,0,0,1-2.847-2.856q0-2.474,0-4.948a2.615,2.615,0,0,1,2.778-2.758q3.251,0,6.5,0h.495c.006-.151.018-.282.018-.412q0-2.086,0-4.171a1.359,1.359,0,0,0-1.53-1.539h-11.41c-.136,0-.273.005-.409-.007a.647.647,0,0,1-.052-1.288,1.83,1.83,0,0,1,.367-.013q5.767,0,11.533,0a2.635,2.635,0,0,1,2.809,2.78c.008,1.391,0,2.781,0,4.172v.441a9.366,9.366,0,0,1,1.008.111,2.557,2.557,0,0,1,2.035,2.49c.016,1.813.019,3.626,0,5.439a2.591,2.591,0,0,1-2.561,2.559c-.135,0-.27,0-.456,0-.009.162-.023.3-.023.447,0,1.377,0,2.754,0,4.131a2.652,2.652,0,0,1-2.86,2.857q-5.746,0-11.492,0a1.572,1.572,0,0,1-.482-.055.591.591,0,0,1-.435-.659.607.607,0,0,1,.578-.586,3.447,3.447,0,0,1,.409-.007h11.369c1.111,0,1.6-.488,1.6-1.592q0-2.045,0-4.09C1247.108,352.555,1247.1,352.423,1247.088,352.246Zm-2.665-1.309c1.444,0,2.889.005,4.333,0a1.3,1.3,0,0,0,1.4-1.408q.006-2.555,0-5.11a1.311,1.311,0,0,0-1.423-1.425q-4.333,0-8.666,0a1.312,1.312,0,0,0-1.442,1.446q0,2.514,0,5.028a1.324,1.324,0,0,0,1.465,1.469C1241.534,350.94,1242.978,350.937,1244.423,350.937Z" transform="translate(-160.39)" fill="currentColor" fill-rule="evenodd"/>
    <path id="Path_1224" data-name="Path 1224" d="M1087.05,523.45c0,1.048,0,2.041,0,3.034a3.076,3.076,0,0,1-.01.409.641.641,0,0,1-.7.594.618.618,0,0,1-.593-.654c-.011-.927,0-1.854-.005-2.781,0-.176,0-.353,0-.58-.16-.008-.3-.021-.445-.021-.955,0-1.909.007-2.863,0-.6-.007-.967-.549-.647-.978a.943.943,0,0,1,.649-.313c.939-.034,1.881-.014,2.822-.015h.485c0-.844,0-1.644,0-2.445,0-.3-.005-.6,0-.9a.66.66,0,0,1,.622-.721.674.674,0,0,1,.68.714c.014.559,0,1.118,0,1.677v1.675h2.52c.286,0,.573-.008.859,0a.626.626,0,0,1,.66.631.636.636,0,0,1-.672.669c-.613.018-1.227.006-1.841.006Z" transform="translate(-25.439 -163.771)" fill="currentColor" fill-rule="evenodd"/>
    <path id="Path_1225" data-name="Path 1225" d="M1304.575,433.946a1.838,1.838,0,1,1-.042,3.675,1.838,1.838,0,0,1,.042-3.675Z" transform="translate(-222.387 -88.82)" fill="currentColor" fill-rule="evenodd"/>
  </g>
</svg>
