<svg xmlns="http://www.w3.org/2000/svg" viewBox="0 0 34.61 31.626">
  <g id="Signing_Checks_4x" data-name="Signing Checks@4x" transform="translate(0 0)">
    <path id="Path_50" data-name="Path 50" d="M26.135-512.446a3.885,3.885,0,0,0-3.32,1.784l-.2.407-.019,5.566-.019,5.573-11.17.012-11.176.019-.117.148c-.117.142-.117.37-.117,8.979v8.843l.142.13.142.136H17.3c16.86,0,17.014,0,17.137-.123a.672.672,0,0,0,.154-.259c.019-.08.025-4.067.019-8.862l-.019-8.726-.173-.148-.173-.148H30.918l-.012-5.634-.019-5.628-.154-.309a3.172,3.172,0,0,0-1.2-1.185,5.977,5.977,0,0,0-1.87-.543A6.837,6.837,0,0,0,26.135-512.446ZM27.5-511.39a3.036,3.036,0,0,1,2.228,1.086l.173.3.019,7.233.012,7.239H23.636v-7.208c0-6.832.006-7.214.117-7.449C24.148-511.07,25.87-511.619,27.5-511.39Zm-4.912,16.977v3.66L24.21-488.1l1.623,2.654-10.361.031c-10.164.031-10.361.031-10.448.148a.615.615,0,0,0,.049.7l.13.142H27.024l.16-.2c.086-.1.963-1.518,1.944-3.129l1.79-2.931v-7.375h2.654v16.23H1.049v-16.23H22.587ZM29.93-492.8v1.691l-1.518,2.487c-.833,1.37-1.549,2.53-1.592,2.567-.056.062-.42-.5-1.629-2.475l-1.555-2.549v-3.413H29.93Z" transform="translate(0 512.475)" fill="currentColor"/>
    <path id="Path_51" data-name="Path 51" d="M81.685-203.671a2.391,2.391,0,0,0-1.53,1.629,7.575,7.575,0,0,0-.049,1.37c.019,1.006.025,1.061.191,1.4a2.416,2.416,0,0,0,1.142,1.117l.413.2h6.48l.339-.16a2.42,2.42,0,0,0,1.351-1.746,7.65,7.65,0,0,0,0-1.987,2.4,2.4,0,0,0-1.339-1.74l-.352-.167-3.147-.012C82.278-203.782,82.012-203.776,81.685-203.671Zm6.727,1.129a1.71,1.71,0,0,1,.426.463c.167.29.173.321.173,1.222s-.006.932-.173,1.222a1.709,1.709,0,0,1-.426.463l-.259.167-2.931.018a30.081,30.081,0,0,1-3.172-.049,1.485,1.485,0,0,1-.8-.7,4.251,4.251,0,0,1-.117-1.895,1.513,1.513,0,0,1,.741-.981c.21-.117.358-.117,3.252-.1l3.024.012Z" transform="translate(-75.156 222.825)" fill="currentColor"/>
  </g>
</svg>
