<svg xmlns="http://www.w3.org/2000/svg" viewBox="0 0 24.849 24.849">
  <g id="Group_1957" data-name="Group 1957" transform="translate(-1318.75 -297.512)">
    <path id="Path_1294" data-name="Path 1294" d="M1330.4,297.512h1.553c.062.013.124.03.187.04.638.1,1.284.158,1.912.3a12.4,12.4,0,0,1,9.36,9.941c.076.453.126.91.188,1.365v1.553c-.014.063-.031.124-.041.188-.084.575-.138,1.156-.255,1.724a12.427,12.427,0,0,1-9.964,9.545c-.461.075-.925.128-1.388.192H1330.4c-.054-.013-.107-.031-.162-.039-.567-.083-1.139-.138-1.7-.25a12.426,12.426,0,0,1-9.591-9.946c-.076-.469-.13-.942-.194-1.413V309.16c.079-.55.139-1.1.241-1.65a12.424,12.424,0,0,1,10.018-9.807C1329.47,297.627,1329.935,297.575,1330.4,297.512Zm11.745,12.414a10.968,10.968,0,1,0-10.964,10.978A10.985,10.985,0,0,0,1342.142,309.926Z" transform="translate(0 0)" fill="currentColor" fill-rule="evenodd"/>
    <path id="Path_1295" data-name="Path 1295" d="M1387,457.924a2.183,2.183,0,1,1,2.159,2.2A2.19,2.19,0,0,1,1387,457.924Zm2.192-.715a.727.727,0,1,0,.719.73A.736.736,0,0,0,1389.195,457.209Z" transform="translate(-63.836 -148)" fill="currentColor" fill-rule="evenodd"/>
    <path id="Path_1296" data-name="Path 1296" d="M1479.173,460.119a2.183,2.183,0,1,1,2.185-2.169A2.19,2.19,0,0,1,1479.173,460.119Zm0-2.91a.727.727,0,1,0,.724.724A.736.736,0,0,0,1479.178,457.209Z" transform="translate(-148.001 -148)" fill="currentColor" fill-rule="evenodd"/>
    <path id="Path_1297" data-name="Path 1297" d="M1569.155,460.119a2.183,2.183,0,1,1,2.19-2.164A2.19,2.19,0,0,1,1569.155,460.119Zm.734-2.186a.727.727,0,1,0-.718.73A.736.736,0,0,0,1569.89,457.933Z" transform="translate(-232.165 -148)" fill="currentColor" fill-rule="evenodd"/>
  </g>
</svg>
