<svg xmlns="http://www.w3.org/2000/svg" viewBox="0 0 28.548 28.548">
  <g id="Group_1907" data-name="Group 1907" transform="translate(-1013.251 -328.032)">
    <path id="Path_1164" data-name="Path 1164" d="M1013.251,464.268c.031-.065.065-.128.092-.194a1.384,1.384,0,0,1,1.241-.926c.083-.007.167-.009.251-.009.672,0,.919-.2,1.019-.867a.72.72,0,0,0-.152-.448c-.119-.174-.3-.306-.432-.471a1.358,1.358,0,0,1-.011-1.746,20,20,0,0,1,1.591-1.6,1.348,1.348,0,0,1,1.768.013c.157.13.3.28.444.423a.509.509,0,0,0,.587.125c.138-.055.276-.11.411-.17a.505.505,0,0,0,.329-.5c0-.176-.005-.353,0-.529a1.393,1.393,0,0,1,1.36-1.356c.677-.022,1.357-.022,2.034,0a1.381,1.381,0,0,1,1.347,1.335c0,.074.007.148.007.223.006.69.169.9.86,1.024a.7.7,0,0,0,.449-.14c.182-.124.32-.31.494-.447a1.354,1.354,0,0,1,1.768.024c.536.486,1.05,1,1.537,1.535a1.362,1.362,0,0,1,.014,1.791c-.134.165-.29.313-.439.466a.5.5,0,0,0-.117.564c.04.1.093.2.126.309a.613.613,0,0,0,.68.449,2.774,2.774,0,0,1,.77.072,1.328,1.328,0,0,1,.981,1.249c.021.687.025,1.375,0,2.062a1.4,1.4,0,0,1-1.355,1.362c-.065,0-.13,0-.195,0-.7,0-.895.145-1.029.847a.735.735,0,0,0,.149.472c.116.175.3.305.432.471a1.339,1.339,0,0,1,.019,1.723,19.607,19.607,0,0,1-1.633,1.633,1.351,1.351,0,0,1-1.7-.006c-.174-.138-.329-.3-.489-.455a.492.492,0,0,0-.585-.117c-.127.056-.255.112-.385.161a.514.514,0,0,0-.351.515c0,.149,0,.3,0,.446a1.414,1.414,0,0,1-1.012,1.382.806.806,0,0,0-.116.063h-2.453a1.156,1.156,0,0,0-.124-.056,1.428,1.428,0,0,1-1.046-1.413,1.98,1.98,0,0,0-.011-.471.735.735,0,0,0-.239-.4c-.613-.4-.8-.372-1.321.137-.02.02-.039.04-.059.059a1.429,1.429,0,0,1-2.07.01c-.445-.42-.872-.86-1.3-1.3a1.306,1.306,0,0,1-.384-1.35,2.624,2.624,0,0,1,.554-.874c.358-.409.388-.448.175-.955-.022-.051-.046-.1-.065-.154a.52.52,0,0,0-.556-.37,4.248,4.248,0,0,1-.529-.007,1.486,1.486,0,0,1-1.331-1.162Zm4.473-5.679a3.293,3.293,0,0,0-.439.3c-.369.353-.725.72-1.086,1.082-.4.4-.408.6.008,1a1.533,1.533,0,0,1,.6,1.341,3.682,3.682,0,0,1-.262.816,1.442,1.442,0,0,1-1.449.968c-.111,0-.223,0-.334,0-.385.01-.557.18-.561.57q-.008.85,0,1.7c0,.4.182.57.584.582a5.459,5.459,0,0,1,.694.034,1.894,1.894,0,0,1,1.333,1.822,1.557,1.557,0,0,1-.643,1.3c-.359.343-.355.572-.01.919s.709.71,1.065,1.064c.4.4.6.408,1-.008a1.544,1.544,0,0,1,1.314-.6,2.485,2.485,0,0,1,1.337.571,1.324,1.324,0,0,1,.462,1.008c0,.148,0,.3,0,.446.008.4.18.581.579.586.446.006.892-.006,1.338,0,.695.015.979.019.941-.925a1.34,1.34,0,0,1,.759-1.328c.821-.411,1.5-.715,2.435.325a.794.794,0,0,0,.081.077.471.471,0,0,0,.677,0q.684-.656,1.339-1.341a.454.454,0,0,0-.007-.675c-.116-.133-.249-.25-.37-.379a1.188,1.188,0,0,1-.384-1.062,4.818,4.818,0,0,1,.537-1.322,1.174,1.174,0,0,1,1.008-.507c.167-.008.334,0,.5,0a.492.492,0,0,0,.552-.55c.006-.455,0-.911,0-1.366,0-.9-.018-.917-.917-.936a1.46,1.46,0,0,1-1.417-.939c-.066-.153-.13-.308-.187-.465a1.393,1.393,0,0,1,.291-1.476c.116-.133.251-.248.369-.38a.471.471,0,0,0,0-.718q-.638-.662-1.3-1.3a.472.472,0,0,0-.719.006c-.145.13-.283.269-.421.406-.82.814-2.65,0-2.789-.939-.023-.156-.038-.313-.048-.47-.008-.12,0-.242,0-.362a.458.458,0,0,0-.487-.493q-.933-.015-1.868,0a.466.466,0,0,0-.491.466c-.012.12,0,.241,0,.362a1.849,1.849,0,0,1-2.107,1.768,1.909,1.909,0,0,1-1.05-.636A3.577,3.577,0,0,0,1017.724,458.589Z" transform="translate(0 -118.449)" fill="currentColor" fill-rule="evenodd"/>
    <path id="Path_1165" data-name="Path 1165" d="M1106.389,342.585a4.209,4.209,0,0,1-.287.563,1.438,1.438,0,0,1-1.258.589c-.427,0-.855.006-1.282,0a.542.542,0,0,0-.572.388c-.146.381-.3.76-.47,1.13a.554.554,0,0,0,.134.7c.307.3.608.6.907.907a1.43,1.43,0,0,1,0,2.169q-.931.942-1.874,1.872a1.428,1.428,0,0,1-2.149,0c-.479-.467-.95-.942-1.421-1.417-.258-.26-.281-.558-.07-.759s.481-.171.737.082c.457.45.907.906,1.362,1.358.353.35.575.352.921.008q.9-.9,1.794-1.794c.327-.328.327-.552,0-.88-.3-.3-.606-.6-.9-.909a1.417,1.417,0,0,1-.312-1.709q.24-.563.467-1.131a1.415,1.415,0,0,1,1.387-.971c.446-.007.892,0,1.338,0s.6-.178.6-.618q0-1.282,0-2.565c0-.451-.173-.623-.625-.627s-.874,0-1.31,0a1.4,1.4,0,0,1-1.378-.939c-.166-.4-.33-.807-.5-1.208a1.4,1.4,0,0,1,.307-1.638c.31-.321.632-.63.944-.949a.5.5,0,0,0,0-.84q-.922-.931-1.853-1.853a.5.5,0,0,0-.84,0c-.313.305-.617.619-.929.924a1.412,1.412,0,0,1-1.684.32c-.384-.163-.771-.321-1.157-.478a1.413,1.413,0,0,1-.968-1.416c-.005-.437,0-.874,0-1.31-.006-.419-.182-.6-.595-.6q-1.31-.006-2.621,0c-.416,0-.586.174-.593.6s0,.855,0,1.282a1.429,1.429,0,0,1-1.021,1.464c-.38.149-.755.31-1.13.47a1.39,1.39,0,0,1-1.617-.291c-.33-.313-.645-.643-.97-.962a.5.5,0,0,0-.839,0q-.931.922-1.853,1.853a.508.508,0,0,0,0,.841c.443.451.893.894,1.338,1.343a1.325,1.325,0,0,1,.2.233.425.425,0,0,1-.075.56.43.43,0,0,1-.56.072,1,1,0,0,1-.194-.157c-.468-.465-.938-.929-1.4-1.4a1.429,1.429,0,0,1,0-2.15q.929-.944,1.872-1.873a1.432,1.432,0,0,1,2.17,0c.3.293.591.592.888.886a.525.525,0,0,0,.744.141c.358-.153.714-.313,1.08-.445a.562.562,0,0,0,.415-.61c-.011-.418-.008-.836,0-1.254a1.437,1.437,0,0,1,1.086-1.5.285.285,0,0,0,.065-.047h3.4a1.591,1.591,0,0,1,1.168,1.813c-.021.342,0,.687-.005,1.03a.526.526,0,0,0,.376.551c.387.154.774.31,1.154.481a.54.54,0,0,0,.678-.13c.3-.313.613-.621.926-.925a1.427,1.427,0,0,1,2.148,0q.955.935,1.892,1.889a1.426,1.426,0,0,1,0,2.148c-.3.312-.612.622-.926.926a.539.539,0,0,0-.13.677c.172.379.325.768.478,1.155a.526.526,0,0,0,.551.375c.445-.009.891-.006,1.337,0a1.426,1.426,0,0,1,1.242.619,3.982,3.982,0,0,1,.264.544Z" transform="translate(-64.59)" fill="currentColor" fill-rule="evenodd"/>
    <path id="Path_1166" data-name="Path 1166" d="M1174.546,423.73a6.254,6.254,0,0,1-1.743,4.473.489.489,0,0,1-.713.091.478.478,0,0,1,.023-.735,5.325,5.325,0,0,0,1.425-2.752,5.227,5.227,0,0,0-8.674-4.788,2.738,2.738,0,0,1-.209.184.475.475,0,0,1-.674-.039.462.462,0,0,1,.061-.671,8.087,8.087,0,0,1,.953-.767,6.181,6.181,0,0,1,9.446,4.04C1174.511,423.137,1174.524,423.52,1174.546,423.73Z" transform="translate(-139.414 -83.022)" fill="currentColor" fill-rule="evenodd"/>
    <path id="Path_1167" data-name="Path 1167" d="M1087.982,526.486a4.272,4.272,0,0,1,4.271,4.3,4.133,4.133,0,0,1-4.281,4.245,4.272,4.272,0,1,1,.01-8.544Zm3.314,4.28a3.324,3.324,0,1,0-3.28,3.322A3.312,3.312,0,0,0,1091.3,530.766Z" transform="translate(-65.211 -183.698)" fill="currentColor" fill-rule="evenodd"/>
  </g>
</svg>
