<svg xmlns="http://www.w3.org/2000/svg" viewBox="0 0 26.261 21.797">
  <g id="Group_3254" data-name="Group 3254" transform="translate(-668.65 -79.144)">
    <path id="Path_2482" data-name="Path 2482" d="M694.811,95.528V96.5a.8.8,0,0,0-.046.141,4.822,4.822,0,0,1-9.359.876c-.029-.085-.059-.17-.09-.26h-8.973c-1.688,0-3.376,0-5.063,0a2.458,2.458,0,0,1-2.4-1.669c-.052-.151-.089-.308-.133-.461V81.378c.017-.056.037-.111.049-.168a2.443,2.443,0,0,1,2.422-1.966q9.223-.007,18.446.008a2.552,2.552,0,0,1,1.052.237,2.4,2.4,0,0,1,1.416,2.357c0,3.163,0,6.327-.007,9.49a.486.486,0,0,0,.277.5,4.657,4.657,0,0,1,2.158,2.662C694.671,94.831,694.73,95.184,694.811,95.528Zm-3.709-4.3V86.435H669.768v.292q0,3.957,0,7.913a1.454,1.454,0,0,0,1.6,1.593H685.1l.322-2h-.267q-2.163,0-4.326,0c-.46,0-.633-.175-.634-.629q0-1.018,0-2.036c0-.507.162-.668.671-.668,2.434,0,4.868,0,7.3,0,.33,0,.611.043.709.333Zm-.008-5.84v-2.1H669.781v2.1Zm-.008-3.141a1.563,1.563,0,0,0-1.645-2q-9.034.037-18.068,0a1.541,1.541,0,0,0-1.569,2ZM686.183,96a3.8,3.8,0,1,0,3.794-3.81A3.812,3.812,0,0,0,686.183,96Zm-4.956-2.783h.274c1.434,0,2.867,0,4.3,0a.466.466,0,0,0,.387-.175c.309-.335.65-.64.98-.956.051-.048.107-.091.186-.156h-6.127Z" transform="translate(0 0)" fill="currentColor" stroke="currentColor" stroke-width="0.2" fill-rule="evenodd"/>
    <path id="Path_2483" data-name="Path 2483" d="M721.572,222.91c0,.7,0,1.391,0,2.086,0,.419-.184.612-.6.613q-2.01.006-4.019,0a.518.518,0,0,1-.593-.595q-.006-2.124,0-4.248c0-.407.189-.582.6-.583q2.01,0,4.019,0a.517.517,0,0,1,.594.59C721.574,221.485,721.572,222.2,721.572,222.91Zm-4.185,1.663h3.148v-3.359h-3.148Z" transform="translate(-44.373 -131.377)" fill="currentColor" stroke="currentColor" stroke-width="0.2" fill-rule="evenodd"/>
    <path id="Path_2484" data-name="Path 2484" d="M902.676,220.18c.551,0,1.1,0,1.653,0a.512.512,0,0,1,.57.485.519.519,0,0,1-.558.529q-1.653.008-3.306,0a.51.51,0,0,1-.565-.518c0-.308.219-.5.579-.5C901.591,220.179,902.133,220.18,902.676,220.18Z" transform="translate(-215.995 -131.375)" fill="currentColor" stroke="currentColor" stroke-width="0.2" fill-rule="evenodd"/>
    <path id="Path_2485" data-name="Path 2485" d="M958.369,288.924c0-.358.008-.651-.007-.944,0-.06-.082-.137-.145-.168a1.268,1.268,0,0,1-.826-1.227,1.342,1.342,0,0,1,.857-1.243.347.347,0,0,0,.151-.174.5.5,0,0,1,.481-.348.511.511,0,0,1,.478.319.612.612,0,0,0,.2.186,5.066,5.066,0,0,1,.583.393.5.5,0,0,1,.063.709.509.509,0,0,1-.706.076c-.027-.016-.056-.028-.115-.057a5.3,5.3,0,0,0,.008.6c.008.067.1.132.164.182a4.309,4.309,0,0,1,.68.515,1.364,1.364,0,0,1-.612,2.224.744.744,0,0,0-.319.239.522.522,0,0,1-.877-.041.9.9,0,0,0-.263-.233,6.826,6.826,0,0,1-.729-.49.487.487,0,0,1-.005-.724.51.51,0,0,1,.728.023Zm1.037-.569v.575C959.624,288.738,959.624,288.617,959.406,288.355Z" transform="translate(-268.947 -191.628)" fill="currentColor" stroke="currentColor" stroke-width="0.2" fill-rule="evenodd"/>
  </g>
</svg>
