<svg xmlns="http://www.w3.org/2000/svg" viewBox="0 0 31.991 24.849">
  <g id="Group_1902" data-name="Group 1902" transform="translate(-1305.744 -380.687)">
    <path id="Path_1153" data-name="Path 1153" d="M1319.982,380.688h10.995a2.979,2.979,0,0,1,3.2,3.217c0,3,.006,6-.008,9,0,.327.095.465.411.5.771.08,1.54.194,2.313.258.678.057.839.2.839.887,0,1.271.013,2.542,0,3.813a7.562,7.562,0,0,1-5.629,7.146,1.162,1.162,0,0,1-.574,0,7.438,7.438,0,0,1-5.021-4.342.467.467,0,0,0-.509-.337q-8.514.013-17.029.007a2.983,2.983,0,0,1-3.221-3.233q0-6.848,0-13.7a2.98,2.98,0,0,1,3.206-3.21Zm13,10.1h-26.053v.356q0,3.276,0,6.552a1.789,1.789,0,0,0,1.959,1.95h17.027v-5.331c-.634,0-1.177,0-1.719,0a.6.6,0,0,1-.678-.576c-.01-.361.255-.6.685-.605.642-.005,1.284.014,1.925-.007.438-.014.816.04.974.541.688-.112,1.353-.181,2-.335.765-.183,1.52-.417,2.264-.673a1.123,1.123,0,0,1,.921.022c.214.1.447.168.7.26Zm.01-4.784c0-.733,0-1.423,0-2.114a1.8,1.8,0,0,0-2-2.014h-14.282q-3.978,0-7.955,0a1.724,1.724,0,0,0-1.793,1.53c-.065.855-.014,1.718-.014,2.6Zm3.573,8.847a15.273,15.273,0,0,1-4.568-.992.8.8,0,0,0-.454.016c-.832.22-1.654.483-2.492.675-.643.147-1.3.211-1.981.316,0,1.164-.012,2.322,0,3.479a6.359,6.359,0,0,0,4.416,5.906,1.148,1.148,0,0,0,.669-.007,6.222,6.222,0,0,0,4.089-4.154C1336.8,398.379,1336.441,396.615,1336.565,394.847Zm-3.582-7.613h-26.029v2.311h26.029Z" fill="currentColor" fill-rule="evenodd"/>
    <path id="Path_1154" data-name="Path 1154" d="M1345.876,506.667c1.135,0,2.271,0,3.406,0,.531,0,.739.208.74.739q0,1.629,0,3.258c0,.531-.209.74-.74.74q-3.406,0-6.811,0c-.531,0-.738-.208-.74-.74q0-1.629,0-3.258c0-.532.207-.738.739-.74C1343.606,506.665,1344.741,506.667,1345.876,506.667Zm2.946,1.211h-5.877V510.2h5.877Z" transform="translate(-32.432 -113.541)" fill="currentColor" fill-rule="evenodd"/>
    <path id="Path_1155" data-name="Path 1155" d="M1439.509,507.829c-.37,0-.74.007-1.11,0a.592.592,0,1,1,.012-1.18q1.129-.011,2.258,0a.59.59,0,0,1,.639.577.6.6,0,0,1-.651.6h-1.147Z" transform="translate(-118.981 -113.518)" fill="currentColor" fill-rule="evenodd"/>
    <path id="Path_1156" data-name="Path 1156" d="M1545.945,540.393a2.445,2.445,0,0,1-.285.443q-1.546,1.565-3.109,3.113a.6.6,0,0,1-.891.085q-.82-.536-1.629-1.088a.593.593,0,1,1,.639-.99c.364.23.73.46,1.075.718.195.145.305.11.462-.05q1.3-1.318,2.612-2.617c.355-.352.784-.333,1,.037A2.141,2.141,0,0,1,1545.945,540.393Z" transform="translate(-210.852 -143.36)" fill="currentColor" fill-rule="evenodd"/>
  </g>
</svg>
