<svg xmlns="http://www.w3.org/2000/svg" viewBox="0 0 19.95 19.95">
  <g id="Group_3949" data-name="Group 3949" transform="translate(-613.652 -51.652)">
    <path id="Path_13260" data-name="Path 13260" d="M618.094,51.652c.348.116.707.206,1.04.355a2.465,2.465,0,0,1,.887.773c.511.646,1.026,1.289,1.533,1.939a3.512,3.512,0,0,1-.14,4.524.555.555,0,0,0,.027.907l3.675,3.676a.556.556,0,0,0,.918.008,3.423,3.423,0,0,1,4.487-.228c.7.544,1.381,1.12,2.063,1.689a2.715,2.715,0,0,1,.987,1.734.54.54,0,0,0,.03.091v.584a.464.464,0,0,0-.032.088,2.73,2.73,0,0,1-.682,1.437,6.852,6.852,0,0,1-4.171,2.259c-.254.04-.51.075-.765.112h-.9c-.326-.046-.653-.085-.977-.14a8,8,0,0,1-2.564-1.037,18.747,18.747,0,0,1-3.162-2.291A24.741,24.741,0,0,1,614.437,61a6.132,6.132,0,0,1-.585-1.539c-.083-.391-.134-.789-.2-1.184V57.3a.743.743,0,0,0,.034-.128,7.124,7.124,0,0,1,1.17-3.443,5.151,5.151,0,0,1,1.7-1.714,6.114,6.114,0,0,1,1.035-.365Zm9.471,17.906A5.044,5.044,0,0,0,631.256,68a.713.713,0,0,0-.056-1.2q-.909-.749-1.822-1.494a1.411,1.411,0,0,0-2,.074,2.537,2.537,0,0,1-3.622-.025q-1.936-1.907-3.843-3.842a2.487,2.487,0,0,1-.685-2.434,2.93,2.93,0,0,1,.7-1.238,1.411,1.411,0,0,0,.085-1.751c-.543-.728-1.114-1.436-1.689-2.139a.585.585,0,0,0-.923-.051,5.093,5.093,0,0,0-1.5,5.324,8.265,8.265,0,0,0,1.308,2.484,22.8,22.8,0,0,0,2.83,3.362A20.469,20.469,0,0,0,625.178,69,5.224,5.224,0,0,0,627.565,69.558Z" transform="translate(0 0)" fill="currentColor" fill-rule="evenodd"/>
  </g>
</svg>
