<svg xmlns="http://www.w3.org/2000/svg" viewBox="0 0 21.812 23.263">
  <g id="Group_1920" data-name="Group 1920" transform="translate(-1209.831 -301.843)">
    <path id="Path_1207" data-name="Path 1207" d="M1219.383,302.043c.408.1.828.175,1.224.315a4.763,4.763,0,0,1,3.1,4.27c.014.5,0,1,.012,1.5a.546.546,0,0,0,.084.286,1.6,1.6,0,0,1-1.05,2.539l-.141.026c-.144.408-.258.808-.424,1.185a3.241,3.241,0,0,1-.9,1.151.342.342,0,0,0-.119.215c-.012.342-.005.684-.005,1.047.468.183.936.366,1.4.547.215.083.447.251.642.216s.343-.278.515-.427a4.633,4.633,0,0,1,2.079-1.023c.263-.057.453.041.492.25s-.089.346-.35.406a3.918,3.918,0,0,0-2.881,2.4,3.985,3.985,0,1,0,5.153-2.2,7.022,7.022,0,0,0-.7-.207c-.223-.064-.343-.218-.307-.4a.342.342,0,0,1,.447-.258,4.657,4.657,0,0,1,.376,9.045c-.035.01-.069.024-.122.042,0,.317-.017.637,0,.955a.883.883,0,0,1-.585.985h-16.7a.823.823,0,0,1-.6-.838c.005-1.5-.01-2.99.006-4.485a3.375,3.375,0,0,1,2.29-3.284c1.4-.543,2.8-1.086,4.2-1.621.183-.07.281-.147.257-.363a4.081,4.081,0,0,1,0-.646.342.342,0,0,0-.151-.32,2.992,2.992,0,0,1-.939-1.144c-.174-.389-.294-.8-.447-1.229l-.22-.041a1.584,1.584,0,0,1-.989-2.458.628.628,0,0,0,.107-.324,18.442,18.442,0,0,1,.075-2.025,4.6,4.6,0,0,1,3.032-3.765,9.668,9.668,0,0,1,1.245-.321Zm-4.218,13.87c-.989.389-1.985.723-2.929,1.169a2.517,2.517,0,0,0-1.522,2.362c-.021,1.532-.008,3.065-.013,4.6,0,.161.07.2.218.2.6-.006,1.205,0,1.808,0h.4v-.273q0-1.774,0-3.549a.966.966,0,0,1,.018-.243.282.282,0,0,1,.326-.239.649.649,0,0,1,.3.245c.042.052.021.158.021.239q0,1.785,0,3.571v.236h3.239c.009-.039.017-.067.021-.1.266-1.56.514-3.124.809-4.679a1.093,1.093,0,0,0-.311-.922l-.1.065a.659.659,0,0,1-1.1-.294q-.319-.638-.636-1.277Zm.794-7.987c-.006.068-.014.118-.014.168,0,.833,0,1.666,0,2.5a2.684,2.684,0,0,0,.068.574,2.981,2.981,0,0,0,5.864-.295c.07-1.022.03-2.051.037-3.077a.227.227,0,0,0-.041-.143c-.323-.357-.652-.709-.98-1.064A8.418,8.418,0,0,1,1215.96,307.926Zm7.085-.085c0-.4.009-.781,0-1.159a4.124,4.124,0,0,0-3.881-3.96c-2.459-.117-4.753,1.86-4.316,5.16.16-.061.4-.079.449-.185.173-.389.468-.431.836-.445a13.646,13.646,0,0,0,1.771-.156,7.264,7.264,0,0,0,2.589-1.04.648.648,0,0,1,.936.121c.292.307.588.612.86.936a5.1,5.1,0,0,1,.378.6l-.053.041Zm1.1,16.389c0-.514-.02-1,.007-1.493a.77.77,0,0,0-.337-.7,4.509,4.509,0,0,1-1.677-4.111,11.406,11.406,0,0,1,.257-1.237c-.045.086-.082.154-.116.222-.25.5-.493,1-.75,1.494a.618.618,0,0,1-.939.26c-.068-.043-.134-.088-.2-.128a.958.958,0,0,0-.3,1,12.054,12.054,0,0,1,.228,1.317.337.337,0,0,1-.284.427c-.184.021-.33-.106-.376-.334-.022-.109-.036-.22-.054-.33-.073-.43-.147-.859-.22-1.285h-.832l-.828,4.892h2.484c-.016-.106-.028-.2-.043-.3-.072-.433-.147-.865-.215-1.3-.038-.241.065-.409.261-.444s.341.092.393.334c.029.138.049.278.073.417l.22,1.29Zm-6.673-10.365a1.18,1.18,0,0,0,.3,1.227l.575.71.623.765c.5-.622.991-1.22,1.475-1.821a.249.249,0,0,0,.048-.141c0-.251,0-.5,0-.782A3.889,3.889,0,0,1,1217.473,313.865Zm-.47,4.226,1.482-1.053c-.479-.593-.936-1.16-1.4-1.721a.208.208,0,0,0-.175-.068c-.369.132-.733.278-1.114.426Zm2.452-1.055,1.485,1.055,1.205-2.417c-.382-.148-.747-.293-1.116-.427a.186.186,0,0,0-.161.052C1220.4,315.867,1219.939,316.44,1219.455,317.037Zm5.372,7.2c.767,0,1.522,0,2.278,0,.046,0,.128-.07.129-.109.01-.345.006-.69.006-1-.435-.03-.838-.029-1.23-.093s-.783-.194-1.182-.3Zm-5.027-6.131c-.233-.166-.478-.345-.729-.514a.2.2,0,0,0-.172-.017c-.264.175-.52.363-.775.545.245.466.3.537.467.529C1219.058,318.627,1219.629,318.847,1219.8,318.105Zm2.8-7.816a.922.922,0,0,0,0-1.839Zm-7.333-1.809a.919.919,0,0,0-.854.868.9.9,0,0,0,.854.934Z" transform="translate(0 0)" fill="currentColor" stroke="#7a6cff" stroke-width="0.4" fill-rule="evenodd"/>
    <path id="Path_1208" data-name="Path 1208" d="M1450.815,533.632a3.476,3.476,0,1,1-3.477,3.484A3.487,3.487,0,0,1,1450.815,533.632Zm.036.67a2.806,2.806,0,1,0,2.776,2.911A2.82,2.82,0,0,0,1450.85,534.3Z" transform="translate(-224.063 -218.663)" fill="currentColor" stroke="#7a6cff" stroke-width="0.4" fill-rule="evenodd"/>
    <path id="Path_1209" data-name="Path 1209" d="M1487.281,578.234c.383-.415.76-.837,1.156-1.24a.554.554,0,0,1,.365-.152.332.332,0,0,1,.239.215.471.471,0,0,1-.1.356c-.216.245-.462.462-.7.691-.25.244-.5.49-.751.732-.227.217-.385.216-.613,0s-.437-.425-.652-.642c-.183-.185-.2-.384-.055-.528s.341-.122.53.059c.151.144.3.29.448.435a.163.163,0,0,0,.039.021Z" transform="translate(-260.642 -259.461)" fill="currentColor" stroke="#7a6cff" stroke-width="0.4" fill-rule="evenodd"/>
  </g>
</svg>
