<svg xmlns="http://www.w3.org/2000/svg" viewBox="0 0 34.997 27.556">
  <path id="Path_12599" data-name="Path 12599" d="M5.285-66.974l7.819-8.2,7.765,7.711Q17.957-53.925,6.579-48.1l-1.294-2a23.12,23.12,0,0,0,4.26-4.314,8.5,8.5,0,0,0,1.186-4.206,7.236,7.236,0,0,0-1.078-3.64A21.345,21.345,0,0,0,5.285-66.974Zm19.413.485,7.819-8.2,7.765,7.711Q37.37-53.439,25.992-47.615l-1.294-2a23.12,23.12,0,0,0,4.26-4.314,8.5,8.5,0,0,0,1.186-4.206,7.236,7.236,0,0,0-1.078-3.64A21.345,21.345,0,0,0,24.7-66.489Z" transform="translate(-5.285 75.171)" fill="currentColor" opacity="0.08"/>
</svg>
