<svg xmlns="http://www.w3.org/2000/svg" viewBox="0 0 34 34">
  <g id="receive" transform="translate(0 512)">
    <path id="Path_207" data-name="Path 207" d="M152.048-511.807l-.193.193v1.74h-1.2a7.413,7.413,0,0,0-1.328.066c-.279.153-.325.385-.325,1.74,0,1.408.02,1.481.4,1.68a1.654,1.654,0,0,0,.6.1h.4v8.434h-.471c-.445,0-.485.013-.7.226L149-497.4v2.683l.226.226.226.226h2.4v.837a4.763,4.763,0,0,0,.066.963c.153.279.385.325,1.74.325,1.056,0,1.315-.02,1.434-.106.279-.193.345-.432.345-1.255v-.764h.664v.837a4.763,4.763,0,0,0,.066.963c.153.279.385.325,1.74.325,1.813,0,1.78.033,1.78-1.806v-1.215l.325-.266a5.017,5.017,0,0,0,1.746-4.416,5.581,5.581,0,0,0-.637-1.919l-.179-.286.266-.511a4.58,4.58,0,0,0,.564-2.364,4.715,4.715,0,0,0-.12-1.222,5.119,5.119,0,0,0-1.534-2.5l-.432-.385v-1.175c0-1.235-.033-1.421-.272-1.647-.146-.133-.219-.139-1.541-.139h-1.388l-.193.193-.193.193v1.74h-.664v-.757c0-.823-.04-1.016-.272-1.229-.146-.133-.219-.139-1.541-.139h-1.388Zm1.932,2.118v.85l.206.2.2.193,1.288.02c1.826.027,1.893-.02,1.893-1.348v-.764h.664v1.089a11.35,11.35,0,0,0,.04,1.2,2.6,2.6,0,0,0,.525.458,3.4,3.4,0,0,1,1.142,1.335,3.1,3.1,0,0,1,.339,1.753,3.16,3.16,0,0,1-.684,1.9c-.465.618-.471.823-.033,1.395a3.284,3.284,0,0,1,.73,2.158,3.343,3.343,0,0,1-1.328,2.743c-.2.146-.445.345-.545.438l-.186.166v2.3h-.664v-.764c0-.823-.066-1.062-.345-1.255-.12-.086-.379-.106-1.434-.106-1.355,0-1.587.047-1.74.325a4.763,4.763,0,0,0-.066.963v.837h-.664v-.764c0-.823-.066-1.062-.345-1.255-.12-.086-.365-.106-1.328-.106h-1.182v-.664h.432c.471,0,.777-.113.9-.325.046-.086.066-1.906.066-5.386v-5.259l-.193-.193c-.179-.179-.232-.193-.7-.193h-.5v-.664h1.129c1.647,0,1.727-.06,1.727-1.361v-.764h.664Z" transform="translate(-139.105)" fill="currentColor"/>
    <path id="Path_208" data-name="Path 208" d="M213-435.935v2.165l2.079-.02c1.952-.02,2.092-.027,2.377-.159a2.213,2.213,0,0,0,1.036-1.009,1.734,1.734,0,0,0,.186-.976,1.723,1.723,0,0,0-.153-.91,2.359,2.359,0,0,0-1.062-1.036l-.379-.179-2.039-.02L213-438.1Zm3.646-.657a.685.685,0,0,1,.5.95c-.179.359-.365.405-1.594.405h-1.1v-1.395h.989C215.995-436.632,216.526-436.612,216.646-436.593Z" transform="translate(-198.855 -68.993)" fill="currentColor"/>
    <path id="Path_209" data-name="Path 209" d="M213-349.875v2.125h2.012c2.371,0,2.444-.013,3.041-.6a2.089,2.089,0,0,0,0-3.061c-.591-.578-.657-.591-3.041-.591H213Zm4-.471a.5.5,0,0,1,.219.471.5.5,0,0,1-.219.471l-.212.193h-2.324v-1.328h2.324Z" transform="translate(-198.855 -149.375)" fill="currentColor"/>
    <path id="Path_210" data-name="Path 210" d="M2.286-464.436a12.17,12.17,0,0,0-1.634,3.971A9.208,9.208,0,0,0,.5-458.227a8.891,8.891,0,0,0,.153,2.271,11.715,11.715,0,0,0,1.607,3.931,4.022,4.022,0,0,0,.458.638c.033,0,1.1-.744,1.182-.823a2.133,2.133,0,0,0-.279-.478,10.648,10.648,0,0,1-1.507-3.566,11.56,11.56,0,0,1,0-3.885,10.12,10.12,0,0,1,1.72-3.9c.086-.133.06-.166-.478-.551A4.87,4.87,0,0,0,2.725-465,2.46,2.46,0,0,0,2.286-464.436Z" transform="translate(-0.467 -43.879)" fill="currentColor"/>
    <path id="Path_211" data-name="Path 211" d="M66.286-464.436a12.17,12.17,0,0,0-1.634,3.971,9.208,9.208,0,0,0-.153,2.238,8.891,8.891,0,0,0,.153,2.271,11.715,11.715,0,0,0,1.607,3.931,4.022,4.022,0,0,0,.458.638c.033,0,1.1-.744,1.182-.823a2.134,2.134,0,0,0-.279-.478,10.648,10.648,0,0,1-1.507-3.566,11.559,11.559,0,0,1,0-3.885,10.12,10.12,0,0,1,1.72-3.9c.086-.133.06-.166-.478-.551a4.869,4.869,0,0,0-.631-.405A2.46,2.46,0,0,0,66.286-464.436Z" transform="translate(-60.217 -43.879)" fill="currentColor"/>
    <path id="Path_212" data-name="Path 212" d="M396.738-464.509a2.345,2.345,0,0,0-.518.458c.013.033.186.319.385.631a9.77,9.77,0,0,1,1.375,3.387,11.836,11.836,0,0,1,0,3.871,10.647,10.647,0,0,1-1.507,3.566,2.877,2.877,0,0,0-.286.471c.179.146,1.149.83,1.189.83a10.477,10.477,0,0,0,1.155-1.879,13.645,13.645,0,0,0,.91-2.676,8.81,8.81,0,0,0,.146-2.251,9.019,9.019,0,0,0-.491-3.566,10.292,10.292,0,0,0-1.74-3.234A3.333,3.333,0,0,0,396.738-464.509Z" transform="translate(-369.877 -43.971)" fill="currentColor"/>
    <path id="Path_213" data-name="Path 213" d="M460.738-464.509a2.344,2.344,0,0,0-.518.458c.013.033.186.319.385.631a9.77,9.77,0,0,1,1.375,3.387,11.836,11.836,0,0,1,0,3.871,10.648,10.648,0,0,1-1.507,3.566,2.872,2.872,0,0,0-.286.471c.179.146,1.149.83,1.189.83a10.475,10.475,0,0,0,1.155-1.879,13.643,13.643,0,0,0,.91-2.676,8.812,8.812,0,0,0,.146-2.251,9.019,9.019,0,0,0-.491-3.566,10.291,10.291,0,0,0-1.74-3.234A3.333,3.333,0,0,0,460.738-464.509Z" transform="translate(-429.627 -43.971)" fill="currentColor"/>
    <path id="Path_214" data-name="Path 214" d="M366.027-233.473l-1.527,1.527.551.545.545.551,1.348-1.348,1.341-1.341h1.1V-235h-1.826Z" transform="translate(-340.295 -258.605)" fill="currentColor"/>
    <path id="Path_215" data-name="Path 215" d="M30.434-215.8a4.007,4.007,0,0,0-1.673.89c-.173.166-1.7,1.806-3.387,3.639l-3.075,3.34H19.523l-.837-1.049-.837-1.043,2.377-.033c2.676-.04,2.63-.027,3.181-.538a2.641,2.641,0,0,0,.485-.624,1.561,1.561,0,0,0,.179-.963,1.584,1.584,0,0,0-.179-.97,2.867,2.867,0,0,0-.518-.644c-.584-.525-.438-.511-4.881-.511H14.563l-1.414,1.063-1.414,1.063H7.105v-.73H0v11.355H7.105v-.664h4.821l.989.332.989.332h4.5c2.477,0,4.549-.02,4.609-.04s2.338-2.57,5.067-5.664,5.173-5.864,5.439-6.163c.471-.531.485-.558.485-.9s-.02-.359-.312-.638a4.178,4.178,0,0,0-.85-.545A3.491,3.491,0,0,0,30.434-215.8Zm1.461,1.507c.139.033.246.093.232.126s-2.218,2.557-4.9,5.6l-4.881,5.538-4.051.007H14.238l-.989-.332-.989-.332H7.105v-7.032l2.61-.02,2.61-.02,1.4-1.049,1.395-1.043H22.18l.213.193a.5.5,0,0,1,.219.471.5.5,0,0,1-.219.471l-.213.193H19.138c-2.849,0-3.048.007-3.241.126a.736.736,0,0,0-.332.75,31.405,31.405,0,0,0,3.274,4.1,11.427,11.427,0,0,0,2.158.06c1.853-.02,1.972-.027,2.118-.153.08-.073,1.58-1.687,3.334-3.586s3.274-3.539,3.393-3.646A2.131,2.131,0,0,1,31.895-214.289ZM5.645-207.23v4.217H1.461v-8.434H5.645Z" transform="translate(0 -276.447)" fill="currentColor"/>
  </g>
</svg>
