<svg xmlns="http://www.w3.org/2000/svg" viewBox="0 0 65.919 61.769">
  <g id="Group_3565" data-name="Group 3565" transform="translate(-1237.941 -317.435)">
    <path id="Path_11813" data-name="Path 11813" d="M1237.941,337.65a24,24,0,0,1,.564-2.427,9.937,9.937,0,0,1,5.163-5.637c.374-.2.755-.38,1.141-.573-2.931-4-1.425-7.818.636-9.71a7.005,7.005,0,0,1,11.676,4.314,7.083,7.083,0,0,1-1.607,5.348c.788.443,1.554.823,2.269,1.284a9.469,9.469,0,0,1,4.527,9.486c-.241,2.56-1.758,3.908-4.342,3.768-1.622-.088-3.236-.363-4.85-.58a30.646,30.646,0,0,0-8.264.306,17.224,17.224,0,0,1-3.9.072,3.121,3.121,0,0,1-2.751-2.6c-.1-.369-.177-.743-.265-1.115Zm22.3.684a7,7,0,0,0-1.17-3.826,9.791,9.791,0,0,0-5.268-3.685,1.019,1.019,0,0,0-.649.1,7.33,7.33,0,0,1-5.989-.007,1.05,1.05,0,0,0-.769-.044,23.338,23.338,0,0,0-3.444,1.827,7.191,7.191,0,0,0-2.744,7.294,1.465,1.465,0,0,0,1.635,1.4,10.91,10.91,0,0,0,1.73-.089,42.484,42.484,0,0,1,5.851-.737,75.055,75.055,0,0,1,7.789.758C1259.61,341.6,1260.326,340.99,1260.239,338.334Zm-10.164-8.914a4.884,4.884,0,1,0-4.791-4.969A4.96,4.96,0,0,0,1250.075,329.42Z" transform="translate(0 0)" fill="currentColor" fill-rule="evenodd"/>
    <path id="Path_11814" data-name="Path 11814" d="M1516.027,340.217c-.083.35-.171.7-.25,1.051a3.372,3.372,0,0,1-3.248,2.79,21.739,21.739,0,0,1-4.023-.3,29.969,29.969,0,0,0-10.106.111,15.326,15.326,0,0,1-2.88.194c-2.278-.048-3.566-1.28-3.854-3.584a9.77,9.77,0,0,1,5.5-10.209c.419-.209.837-.42,1.306-.655a7.112,7.112,0,0,1-1.536-5.938,6.931,6.931,0,0,1,2.817-4.308,6.862,6.862,0,0,1,8.847.623c2.182,2.054,3.346,5.838.553,9.627.379.192.751.376,1.119.568,3.156,1.651,5.236,4.09,5.66,7.74a2.587,2.587,0,0,0,.094.36Zm-2.147-1.138a7.509,7.509,0,0,0-1.145-4.023,9.9,9.9,0,0,0-5.315-3.733.91.91,0,0,0-.594.081,7.273,7.273,0,0,1-6.047.008.969.969,0,0,0-.71-.05,24.371,24.371,0,0,0-3.552,1.895,7.179,7.179,0,0,0-2.657,7.326,1.235,1.235,0,0,0,1.41,1.206,18.123,18.123,0,0,0,2.432-.109,44.923,44.923,0,0,1,5.675-.624c2.495.055,4.985.465,7.471.769C1513.24,342.118,1513.979,341.473,1513.881,339.079Zm-10.075-9.154a4.883,4.883,0,1,0-.01-9.766,4.883,4.883,0,1,0,.01,9.766Z" transform="translate(-212.167 -0.506)" fill="currentColor" fill-rule="evenodd"/>
    <path id="Path_11815" data-name="Path 11815" d="M1382.451,547.5c.851.488,1.668.911,2.437,1.406a9.608,9.608,0,0,1,4.15,10.46,3.473,3.473,0,0,1-3.523,2.65,25.84,25.84,0,0,1-4.214-.4,29.939,29.939,0,0,0-9.852.205,11.831,11.831,0,0,1-3,.108A3.378,3.378,0,0,1,1365,558.6a9.412,9.412,0,0,1,4.193-9.629c.786-.541,1.654-.965,2.535-1.473a6.983,6.983,0,0,1,1.21-10.131,6.918,6.918,0,0,1,8.209-.074,7.035,7.035,0,0,1,2.892,4.824A7.157,7.157,0,0,1,1382.451,547.5Zm-15.46,9.541c.027.427.022.859.086,1.281.173,1.132.61,1.556,1.757,1.519a24.307,24.307,0,0,0,3.447-.328,24.818,24.818,0,0,1,8.184-.192c1.626.25,3.267.441,4.909.542,1.079.066,1.524-.345,1.694-1.435a7.43,7.43,0,0,0-.99-5.25,9.31,9.31,0,0,0-5.026-3.694,1.639,1.639,0,0,0-1.071.029,7.221,7.221,0,0,1-5.688,0,1.359,1.359,0,0,0-1.269-.014c-.227.118-.479.183-.715.286C1369.141,551.177,1367.071,553.371,1366.992,557.039Zm14.987-14.087a4.887,4.887,0,1,0-4.864,4.913A4.967,4.967,0,0,0,1381.979,542.952Z" transform="translate(-106.191 -182.811)" fill="currentColor" fill-rule="evenodd"/>
    <path id="Path_11816" data-name="Path 11816" d="M1299.144,507.552c-.087.207-.154.385-.235.556-.218.461-.441.919-.661,1.377-8.579-3.951-14.23-13.333-14.293-21.856h2.007C1286.755,496.59,1291.062,503.279,1299.144,507.552Z" transform="translate(-38.49 -142.366)" fill="currentColor" fill-rule="evenodd"/>
    <path id="Path_11817" data-name="Path 11817" d="M1508.976,508.845l-1.041-1.872c7.416-4.4,11.555-10.817,12.238-19.407h2.071a25.6,25.6,0,0,1-13.268,21.279Z" transform="translate(-225.847 -142.313)" fill="currentColor" fill-rule="evenodd"/>
    <path id="Path_11818" data-name="Path 11818" d="M1366.645,329.546l-1-1.786a25.136,25.136,0,0,1,24.277-.035l-1.01,1.826A23.343,23.343,0,0,0,1366.645,329.546Z" transform="translate(-106.826 -6.009)" fill="currentColor" fill-rule="evenodd"/>
    <path id="Path_11819" data-name="Path 11819" d="M1409.374,461.235V463.3h-2.028v-2.067Z" transform="translate(-141.705 -120.287)" fill="currentColor" fill-rule="evenodd"/>
    <path id="Path_11820" data-name="Path 11820" d="M1435.413,463.372h-1.992v-2.066h1.992Z" transform="translate(-163.517 -120.347)" fill="currentColor" fill-rule="evenodd"/>
    <path id="Path_11821" data-name="Path 11821" d="M1461.382,461.237V463.3h-2.028v-2.066Z" transform="translate(-185.21 -120.289)" fill="currentColor" fill-rule="evenodd"/>
  </g>
</svg>
