<svg xmlns="http://www.w3.org/2000/svg" viewBox="0 0 31.691 27.529">
  <g id="Group_3774" data-name="Group 3774" transform="translate(-754.75 -53.487)">
    <path id="Path_13015" data-name="Path 13015" d="M786.441,54.62c-.31.991-.626,1.979-.929,2.972Q782.2,68.433,778.9,79.274a.948.948,0,0,1-1.622.534q-4.025-2.984-8.047-5.971c-.082-.061-.166-.119-.275-.2-.059.111-.111.207-.16.3q-1.613,3.2-3.224,6.4a1.067,1.067,0,0,1-.671.637.924.924,0,0,1-1.169-.926c-.009-.8,0-1.609,0-2.413,0-2.475,0-4.95.006-7.426a.393.393,0,0,0-.3-.444c-2.626-1-5.244-2.023-7.869-3.025a1.276,1.276,0,0,1-.811-.74v-.433a1.3,1.3,0,0,1,.841-.748q14.673-5.589,29.339-11.195c.771-.294,1.146-.159,1.511.554ZM770.012,72.106l7.445,5.524,5.969-19.572-.065-.034Zm-11.718-6.317c.136.061.224.106.317.142,1.873.724,3.747,1.443,5.617,2.174a.519.519,0,0,0,.561-.073q6.9-4.924,13.8-9.836c.087-.062.17-.13.254-.194l-.026-.046ZM778,60.974l-.041-.041c-.05.032-.1.062-.149.1q-6.031,4.294-12.057,8.6a.529.529,0,0,0-.169.38c-.011,1.938-.007,3.876-.007,5.815v.226a.681.681,0,0,0,.2-.255c.65-1.286,1.3-2.574,1.953-3.858a1.862,1.862,0,0,1,.3-.427q2.729-2.89,5.465-5.772Z" fill="currentColor" fill-rule="evenodd"/>
  </g>
</svg>
