<svg xmlns="http://www.w3.org/2000/svg" viewBox="0 0 59.742 59.86">
  <path id="Path_1103" data-name="Path 1103" d="M1205.579,405.545c0,1.345.005,2.533,0,3.721a5.554,5.554,0,0,1-5.832,5.819q-14.9.007-29.806,0a5.575,5.575,0,0,1-5.62-4.01,5.721,5.721,0,0,1-.182-1.434q-.015-19.931-.005-39.862a5.521,5.521,0,0,1,5.639-5.7c1.069-.015,2.137,0,3.3,0,0-.543,0-1.058,0-1.573a3.539,3.539,0,0,1,3.573-3.635c1.07-.019,2.141.012,3.21-.02a.716.716,0,0,0,.524-.332,4.8,4.8,0,0,1,8.966.184c.039.091.089.178.146.29,1.191,0,2.382,0,3.572,0a3.367,3.367,0,0,1,3.588,3.55c.008.482,0,.965,0,1.534,1.029,0,2.013-.039,2.993.013a8.685,8.685,0,0,1,2.2.315,5.339,5.339,0,0,1,3.719,5.069c.03,2,.018,4,0,6a.7.7,0,0,0,.453.74,15.756,15.756,0,0,1,7.566,19.874.687.687,0,0,0,.184.886c2.655,2.628,5.282,5.284,7.936,7.913a5.46,5.46,0,0,1,1.415,6.259,5.915,5.915,0,0,1-9.849,2.066q-3.569-3.585-7.153-7.154C1205.984,405.916,1205.837,405.786,1205.579,405.545Zm-32.626-38.993c-1.047,0-2.015.04-2.978-.008a3.236,3.236,0,0,0-3.494,3.479c.054,13.027.027,26.054.027,39.081,0,.162,0,.323,0,.485a2.833,2.833,0,0,0,1.252,2.365,3.654,3.654,0,0,0,2.286.638q14.815-.013,29.629-.006c.182,0,.364,0,.545-.01a3,3,0,0,0,2.895-3.042c0-1.03,0-2.06,0-3.09,0-.168-.026-.336-.042-.528-.29.062-.526.11-.761.163a15.8,15.8,0,0,1-10.114-1.047,2.68,2.68,0,0,0-1.038-.23q-8.452-.021-16.905-.012a4.6,4.6,0,0,1-.785-.036,1.142,1.142,0,0,1-1-1.236c.009-.814.513-1.232,1.526-1.232q6.574-.006,13.148,0h.618c-.8-1.01-1.6-1.961-2.328-2.963a.987.987,0,0,0-.913-.5c-3.454.019-6.907.011-10.361.008a4.122,4.122,0,0,1-.723-.046,1.111,1.111,0,0,1-.963-1.08c-.063-.873.444-1.364,1.443-1.366q4.635-.008,9.27,0h.643l-.9-3.592h-.679c-2.767,0-5.534,0-8.3,0-.854,0-1.308-.3-1.45-.909a1.224,1.224,0,0,1,1.331-1.566c2.828-.009,5.655,0,8.483,0h.606c.128-1.239.249-2.4.374-3.609h-.664q-4.393,0-8.785,0c-.834,0-1.294-.376-1.364-1.065a1.184,1.184,0,0,1,1.338-1.391c3.171-.007,6.342-.012,9.513.007a.9.9,0,0,0,.964-.582c.457-.918,1.023-1.781,1.542-2.668.063-.107.112-.222.188-.377h-5.28c-2.363,0-4.726.005-7.089,0a1.155,1.155,0,0,1-1.3-1.191c-.018-.785.433-1.234,1.285-1.27.2-.009.4,0,.606,0,4.544,0,9.089.008,13.633-.015a1.876,1.876,0,0,0,1.036-.349,15.775,15.775,0,0,1,10.215-3.316c1.321.051,2.636.278,3.97.427,0-1.833.072-3.75-.027-5.658a2.637,2.637,0,0,0-1.986-2.432c-1.429-.445-2.906-.128-4.417-.22,0,.514,0,.915,0,1.316a3.448,3.448,0,0,1-3.754,3.773q-4.817.005-9.634,0c-2.3,0-4.605.019-6.907-.008a3.311,3.311,0,0,1-3.409-3.408C1172.95,367.691,1172.954,367.167,1172.954,366.552ZM1185.3,390.3a13.463,13.463,0,1,0,26.926-.128,13.733,13.733,0,0,0-13.452-13.512A13.584,13.584,0,0,0,1185.3,390.3Zm-.379-21.13q4,0,7.991,0c1.1,0,1.376-.274,1.377-1.338q0-2.543,0-5.085c0-.96-.3-1.274-1.254-1.28-1.352-.009-2.7,0-4.056,0-1.381,0-1.521-.118-1.778-1.477a2.358,2.358,0,0,0-2.548-1.847,2.073,2.073,0,0,0-2.014,2.02c-.078.926-.453,1.291-1.4,1.3-1.493.014-2.987,0-4.48.008-.886.007-1.206.334-1.209,1.209q-.008,2.6,0,5.206c0,.979.314,1.285,1.316,1.286Q1180.9,369.171,1184.924,369.168Zm27.218,29.811a15.214,15.214,0,0,1-4.753,4.769c.026.062.031.108.057.133,2.692,2.649,5.352,5.331,8.091,7.93a3.282,3.282,0,0,0,4.639-.28,3.228,3.228,0,0,0-.021-4.584c-2.58-2.619-5.192-5.2-7.792-7.8A2.246,2.246,0,0,0,1212.141,398.979Z" transform="translate(-1163.98 -355.378)" fill="currentColor" stroke="#181c3a" stroke-width="0.3" fill-rule="evenodd"/>
</svg>
