<svg xmlns="http://www.w3.org/2000/svg" viewBox="0 0 91.208 94">
  <g id="Group_4485" data-name="Group 4485" transform="translate(568.8 -148.292)">
    <path id="Path_13703" data-name="Path 13703" d="M-313.115,469.649a3.362,3.362,0,0,1-2.03-3.7c.073-.912.014-1.835.013-2.753a3.038,3.038,0,0,1,1.406-2.72,1.354,1.354,0,0,0,.408-.974,20.405,20.405,0,0,1,2.51-9.562,12.521,12.521,0,0,1,7.054-5.807.814.814,0,0,1,.089-.024,18.757,18.757,0,0,0,8.83-5.1c1.452-1.4,3.061-2.632,4.6-3.934s3.1-1.511,4.541-.612c1.4.875,1.88,2.321,1.406,4.269a1.927,1.927,0,0,0,.025.353,4.973,4.973,0,0,0,.764-.594c1.2-1.425,2.428-2.837,3.562-4.317a8.3,8.3,0,0,0,.893-1.89c.47-1.127.855-2.294,1.382-3.392a3.7,3.7,0,0,1,4.735-1.841,3.593,3.593,0,0,1,2.22,4.468c-.975,2.914-1.795,5.9-3.648,8.456a46.613,46.613,0,0,0-2.748,4.229,20.5,20.5,0,0,1-9.476,8.345,22.273,22.273,0,0,0-6.841,4.531,8.4,8.4,0,0,0-1.337,2.15,1.442,1.442,0,0,0,.292,1.932,3.034,3.034,0,0,1,.655,1.826c.1,1.061-.03,2.143.047,3.209a3.133,3.133,0,0,1-2.1,3.461Zm2.51-9.536c4.23,0,8.294.008,12.357-.025.185,0,.491-.341.532-.562a9.266,9.266,0,0,1,4.409-6.174c2.381-1.536,4.913-2.839,7.373-4.253a15.975,15.975,0,0,0,5.822-5.329c1.41-2.255,3.043-4.385,4.289-6.725a44.414,44.414,0,0,0,2.47-6.292c.1-.277-.312-.934-.642-1.092-.266-.128-.87.129-1.134.4a4.187,4.187,0,0,0-.56,1.238,28.084,28.084,0,0,1-2.76,5.536,17.771,17.771,0,0,1-8.808,6.655,6.9,6.9,0,0,0-3.33,2.455,31.22,31.22,0,0,1-2.115,2.416,1.369,1.369,0,0,1-2.031.191,1.391,1.391,0,0,1-.036-1.977c.2-.266.432-.516.657-.766q3.347-3.717,6.7-7.431c.391-.433.935-.885.352-1.472s-1.05-.022-1.484.344c-1.5,1.261-3.066,2.451-4.466,3.813a22.068,22.068,0,0,1-9.758,5.7,9.192,9.192,0,0,0-3.554,1.992C-309.661,451.724-310.389,455.755-310.6,460.113Zm-1.743,6.736H-296.6v-3.914h-15.743Z" transform="translate(-207.069 -227.357)" fill="currentColor"/>
    <path id="Path_13704" data-name="Path 13704" d="M-543.5,469.632a3.2,3.2,0,0,1-2.1-3.555c.073-1.066-.069-2.151.057-3.207a3.641,3.641,0,0,1,.767-1.881,1.3,1.3,0,0,0,.341-1.355,7.034,7.034,0,0,0-3.3-4.133,49.146,49.146,0,0,0-5.052-2.958,23.8,23.8,0,0,1-7.3-5.3,10.327,10.327,0,0,1-.9-1.151c-.979-1.478-1.856-3.031-2.92-4.444a33.376,33.376,0,0,1-4.646-9.7,3.811,3.811,0,0,1,1.223-4.442,3.7,3.7,0,0,1,4.369-.084,6.585,6.585,0,0,1,1.175,1.26,2.041,2.041,0,0,1,.346.743c.953,3.527,3.087,6.327,5.5,8.954a2.066,2.066,0,0,0,.932.6c-.082-.336-.191-.668-.242-1.009a3.482,3.482,0,0,1,1.683-3.591,3.473,3.473,0,0,1,4.1.387c1.979,1.638,4,3.237,5.864,5a16.466,16.466,0,0,0,7.056,4.032,12.7,12.7,0,0,1,7.434,5.188,18.767,18.767,0,0,1,2.847,7.857,8.211,8.211,0,0,1,.182,1.453,2.771,2.771,0,0,0,1.105,2.82c.476.322.63,1.279.717,1.974.118.934-.033,1.9.043,2.84a3.348,3.348,0,0,1-2.033,3.7Zm14.647-9.535a15.388,15.388,0,0,0-.763-5.786,10.7,10.7,0,0,0-7.431-7.8c-1.285-.388-2.557-.831-3.807-1.323a6.356,6.356,0,0,1-1.722-1c-2.843-2.37-5.655-4.778-8.476-7.174-.407-.346-.911-.615-1.248-.078a1.309,1.309,0,0,0,.173,1.173c.634.82,1.393,1.542,2.087,2.316,1.777,1.982,3.554,3.962,5.312,5.961.706.8.707,1.632.07,2.183s-1.43.407-2.154-.4c-.675-.751-1.38-1.481-1.987-2.284a6.664,6.664,0,0,0-3.261-2.4,16.164,16.164,0,0,1-8.815-6.758,34.247,34.247,0,0,1-1.879-3.208c-.513-1.037-.865-2.152-1.3-3.229a.982.982,0,0,0-1.376-.68.963.963,0,0,0-.543,1.362c.049.145.1.289.147.434a31.179,31.179,0,0,0,4.663,9.386c.708.957,1.336,1.976,1.949,3a12.59,12.59,0,0,0,4.222,4.266c2.154,1.329,4.467,2.4,6.631,3.711,3.089,1.875,6.051,3.913,6.755,7.873.033.182.419.429.641.431C-536.958,460.1-532.952,460.1-528.853,460.1Zm-13.922,2.8v3.916h15.751V462.9Z" transform="translate(0 -227.34)"  fill="currentColor"/>
    <path id="Path_13705" data-name="Path 13705" d="M-359.328,148.292c1.318.774,1.495,2.217,2,3.458.581,1.436.552,1.443,2.115,1.494.763.025,1.527.056,2.288.117a1.86,1.86,0,0,1,1.747,1.385,1.874,1.874,0,0,1-.717,2.115q-1.155.975-2.367,1.883a.9.9,0,0,0-.386,1.162c.293.866.506,1.759.741,2.643a2.02,2.02,0,0,1-.663,2.461,2.013,2.013,0,0,1-2.467-.135c-.96-.649-1.938-1.272-2.933-1.924l-3,1.971a1.979,1.979,0,0,1-2.392.093,2,2,0,0,1-.7-2.373c.245-.945.566-1.873.756-2.827a1.239,1.239,0,0,0-.322-.983c-.739-.682-1.563-1.272-2.343-1.91a1.924,1.924,0,0,1-.788-2.174,1.882,1.882,0,0,1,1.832-1.4c.945-.065,1.893-.13,2.838-.113a1.088,1.088,0,0,0,1.26-.883c.178-.644.5-1.248.69-1.89a3.733,3.733,0,0,1,1.522-2.171Zm-3.4,13.139a4.226,4.226,0,0,0,.688-.431,2.666,2.666,0,0,1,4.1-.025,3.934,3.934,0,0,0,.725.437l.263-.092c-1.454-2.362-.711-4.025,1.607-5.21a12.2,12.2,0,0,0-2.123-.226,1.656,1.656,0,0,1-1.742-1.312c-.2-.622-.472-1.22-.771-1.977-.312.812-.579,1.46-.809,2.119a1.553,1.553,0,0,1-1.566,1.159c-.708.016-1.415.094-2.122.144l-.194.191C-362.072,157.3-361.7,159.116-362.725,161.431Z" transform="translate(-163.243)" fill="currentColor"/>
    <path id="Path_13706" data-name="Path 13706" d="M-423.79,306.532a23.315,23.315,0,0,1-23.224-23.255,23.253,23.253,0,0,1,23.234-23.21,23.252,23.252,0,0,1,23.223,23.22A23.318,23.318,0,0,1-423.79,306.532Zm.031-2.754a20.554,20.554,0,0,0,20.449-20.543,20.492,20.492,0,0,0-20.545-20.413,20.482,20.482,0,0,0-20.4,20.464A20.552,20.552,0,0,0-423.759,303.778Z" transform="translate(-99.427 -91.254)"  fill="currentColor"/>
    <path id="Path_13707" data-name="Path 13707" d="M-196.918,251.049c.231-.856.5-1.984.847-3.087a1.036,1.036,0,0,0-.422-1.386c-.781-.532-1.5-1.162-2.23-1.761a1.931,1.931,0,0,1-.764-2.185,1.957,1.957,0,0,1,1.939-1.4c.915-.061,1.833-.107,2.749-.1a1.084,1.084,0,0,0,1.242-.9,24.57,24.57,0,0,1,.888-2.4c.435-1.124,1.042-1.614,1.982-1.6a2,2,0,0,1,1.916,1.557,20.723,20.723,0,0,1,.824,2.23,1.327,1.327,0,0,0,1.562,1.128c.824-.018,1.651.032,2.474.081a1.98,1.98,0,0,1,1.97,1.369,1.954,1.954,0,0,1-.791,2.259c-.717.572-1.418,1.165-2.161,1.7a1.03,1.03,0,0,0-.471,1.371c.33.915.53,1.878.783,2.821a1.883,1.883,0,0,1-.673,2.13,1.9,1.9,0,0,1-2.311.046c-.235-.143-.458-.305-.691-.451-.825-.517-1.655-1.436-2.478-1.431s-1.646.934-2.471,1.454a8.11,8.11,0,0,1-1.021.609A1.959,1.959,0,0,1-196.918,251.049Zm10.911-6.976-.233-.163c-.631-.042-1.263-.129-1.893-.115a1.682,1.682,0,0,1-1.822-1.33c-.193-.611-.468-1.2-.772-1.958-.291.774-.528,1.337-.713,1.916a1.737,1.737,0,0,1-1.893,1.375c-.612-.023-1.23.075-2.084.135.706.563,1.191.973,1.7,1.351a1.632,1.632,0,0,1,.679,1.995c-.213.658-.362,1.337-.587,2.186.713-.466,1.288-.806,1.823-1.2a1.661,1.661,0,0,1,2.183,0c.515.377,1.076.69,1.617,1.031l.3-.041C-189.114,246.882-188.419,245.2-186.007,244.073Z" transform="translate(-301.431 -71.79)"  fill="currentColor"/>
    <path id="Path_13708" data-name="Path 13708" d="M-520.374,243.522a6.6,6.6,0,0,1-.894,1.284,20.129,20.129,0,0,1-2.282,1.84.9.9,0,0,0-.394,1.155c.279.9.518,1.82.76,2.734a1.983,1.983,0,0,1-.663,2.377,2,2,0,0,1-2.469-.121c-.782-.533-1.6-1.016-2.366-1.572a.825.825,0,0,0-1.135-.011c-.766.556-1.581,1.043-2.366,1.573a2.026,2.026,0,0,1-2.471.145,2.05,2.05,0,0,1-.674-2.462c.239-.915.546-1.816.728-2.741a1.225,1.225,0,0,0-.3-.975c-.715-.663-1.517-1.232-2.275-1.85a1.977,1.977,0,0,1-.859-2.316,2.069,2.069,0,0,1,2.075-1.365c.916-.04,1.832-.1,2.749-.1a.959.959,0,0,0,1.057-.764c.3-.93.666-1.836,1.022-2.745a1.907,1.907,0,0,1,1.854-1.378,1.9,1.9,0,0,1,1.871,1.352c.371.936.735,1.876,1.059,2.829a.857.857,0,0,0,.911.7c1.008.007,2.018.048,3.023.125A2.088,2.088,0,0,1-520.374,243.522Zm-11.884,5.758.326.007a6.636,6.636,0,0,0,.913-.584,2.315,2.315,0,0,1,3.487-.021,7.392,7.392,0,0,0,1.073.682c-.188-1.087-.713-2.205-.439-3.069.284-.9,1.343-1.547,2.138-2.384-.718-.045-1.4-.114-2.086-.123a1.547,1.547,0,0,1-1.58-1.138c-.235-.66-.507-1.307-.841-2.16-.327.866-.577,1.516-.818,2.17a1.554,1.554,0,0,1-1.589,1.13c-.685,0-1.369.079-2.053.122l-.23.188C-531.453,245.194-530.932,246.935-532.257,249.28Z" transform="translate(-25.025 -71.792)"  fill="currentColor"/>
    <path id="Path_13709" data-name="Path 13709" d="M-399.956,411.014c-9.318-.17-16.728-6.289-18.339-14.682-.24-1.252.062-1.964.914-2.157.9-.2,1.531.347,1.793,1.611a15.187,15.187,0,0,0,6.925,10.055,15.493,15.493,0,0,0,23.422-9.941c.037-.179.082-.357.132-.534.26-.918.869-1.357,1.655-1.194a1.314,1.314,0,0,1,.991,1.765,28.39,28.39,0,0,1-1.9,5.41A17.765,17.765,0,0,1-399.956,411.014Z" transform="translate(-122.808 -200.706)"  fill="currentColor"/>
    <path id="Path_13710" data-name="Path 13710" d="M-382.37,302.533a1.36,1.36,0,0,1-1.205,1.455,1.327,1.327,0,0,1-1.5-1.06,34.384,34.384,0,0,0-1.558-4.576,15.427,15.427,0,0,0-15.455-8.368A15.528,15.528,0,0,0-415.558,302.2c-.284,1.383-.847,1.951-1.755,1.771-.926-.184-1.237-.926-.959-2.287a18.263,18.263,0,0,1,18.057-14.526,18.214,18.214,0,0,1,17.745,14.889C-382.438,302.229-382.4,302.407-382.37,302.533Z" transform="translate(-122.811 -113.371)"  fill="currentColor"/>
    <path id="Path_13711" data-name="Path 13711" d="M-342.566,347.4l-.981,1.028-1-1.111a26.816,26.816,0,0,1-2.87-.964,3.717,3.717,0,0,1-1.333-1.205,1.2,1.2,0,0,1,.307-1.714c.509-.446.954-.119,1.376.229a4.639,4.639,0,0,0,2.866,1.276c0-1.687.019-3.331-.024-4.974-.005-.209-.3-.48-.523-.6-.562-.3-1.184-.493-1.742-.8a3.8,3.8,0,0,1-2.053-3.8,3.807,3.807,0,0,1,2.651-3.6,6.822,6.822,0,0,0,1.438-.574l.9-1.027,1.2,1.123c.592.153,1.519.338,2.406.64a1.1,1.1,0,0,1,.8,1.508.979.979,0,0,1-1.431.687c-.674-.262-1.359-.5-2.224-.808,0,1.625-.034,3.076.036,4.521.011.22.478.48.782.611a4.9,4.9,0,0,1,3.09,2.917c.986,3.036-.413,5.392-3.785,6.391Zm-.346-2.593a2.069,2.069,0,0,0,1.969-2.118,2.389,2.389,0,0,0-2.012-2.435c0,1.375,0,2.742,0,4.11C-342.952,344.51-342.926,344.657-342.912,344.806Zm-1.156-11.836c-1.422.119-2.169.762-2.181,1.82a2.217,2.217,0,0,0,2.181,2.1Z" transform="translate(-179.449 -147.992)"  fill="currentColor"/>
  </g>
</svg>
