<svg xmlns="http://www.w3.org/2000/svg" viewBox="0 0 69.411 49.9">
  <g id="Group_3806" data-name="Group 3806" transform="translate(552.87 -6.068)">
    <path id="Path_13021" data-name="Path 13021" d="M-483.459,84.824a1.708,1.708,0,0,1-1.571.689q-33.135-.021-66.269,0a1.7,1.7,0,0,1-1.571-.689V84.01c2.555-2.92,5.1-5.852,7.685-8.744a2.07,2.07,0,0,1,1.27-.583c1.027-.085,2.065-.027,3.135-.027l-1.981-4.31,2.08-.726c.51,1.093,1.057,2.127,1.483,3.209a2.54,2.54,0,0,0,3.071,1.858,23.739,23.739,0,0,1,3.406-.031,19.451,19.451,0,0,1-4.6-16.464,18.888,18.888,0,0,1,7.111-11.869,19.508,19.508,0,0,1,25.3.965,19.67,19.67,0,0,1,1.367,27.367h2a15.444,15.444,0,0,1,2.1.018,1.684,1.684,0,0,0,1.977-1.16c.579-1.291,1.238-2.547,1.9-3.887l2.006.715-1.982,4.314c1.07,0,2.109-.058,3.136.027a2.069,2.069,0,0,1,1.27.584c2.587,2.891,5.128,5.823,7.683,8.743Zm-34.73-40.535a17.363,17.363,0,0,0-17.328,17.343,17.366,17.366,0,0,0,17.309,17.363,17.362,17.362,0,0,0,17.4-17.412A17.363,17.363,0,0,0-518.189,44.289Zm31.135,39.01a.96.96,0,0,0-.094-.208c-1.752-2.009-3.5-4.021-5.27-6.014a.949.949,0,0,0-.644-.242q-6.2-.021-12.4,0a1.434,1.434,0,0,0-.795.265,19.426,19.426,0,0,1-23.789.012,1.435,1.435,0,0,0-.791-.277q-6.2-.026-12.4,0a1.108,1.108,0,0,0-.739.324c-1.684,1.888-3.342,3.8-5,5.706a5.007,5.007,0,0,0-.3.43Z" transform="translate(0 -29.545)" fill="currentColor" fill-rule="evenodd"/>
    <path id="Path_13022" data-name="Path 13022" d="M-493.921,53.374a24.1,24.1,0,0,0-5.93,11.408l-2.155-.443a26.012,26.012,0,0,1,6.494-12.432Z" transform="translate(-41.671 -37.554)" fill="currentColor" fill-rule="evenodd"/>
    <path id="Path_13023" data-name="Path 13023" d="M-256.239,64.1l-2.1.5a24.1,24.1,0,0,0-5.909-11.356l1.52-1.564A26.039,26.039,0,0,1-256.239,64.1Z" transform="translate(-236.454 -37.366)" fill="currentColor" fill-rule="evenodd"/>
    <path id="Path_13024" data-name="Path 13024" d="M-385.642,7.023l-.513,1.863c-2.2-.22-4.336-.6-6.476-.6-2.122,0-4.245.38-6.483.606l-.531-1.851A25.938,25.938,0,0,1-385.642,7.023Z" transform="translate(-125.533 0)" fill="currentColor" fill-rule="evenodd"/>
    <path id="Path_13025" data-name="Path 13025" d="M-376.676,129.864q.244,3.817.487,7.634c.02.315.053.631.046.946a1.051,1.051,0,0,1-1.091,1.128c-2.166.019-4.334.022-6.5,0-.731-.008-1.114-.512-1.067-1.347.132-2.343.282-4.685.43-7.027q.311-4.9.629-9.8c.063-.991.4-1.335,1.38-1.339,1.309,0,2.618-.01,3.927,0a1.089,1.089,0,0,1,1.216,1.151q.281,4.323.55,8.647Zm-1.7,7.512c-.317-5.057-.631-10.071-.946-15.1h-2.307c-.316,5.051-.629,10.062-.944,15.1Z" transform="translate(-137.691 -93.387)" fill="currentColor" fill-rule="evenodd"/>
    <path id="Path_13026" data-name="Path 13026" d="M-372.332,75.318a3.265,3.265,0,0,1-3.255,3.281,3.261,3.261,0,0,1-3.245-3.22,3.263,3.263,0,0,1,3.254-3.28A3.26,3.26,0,0,1-372.332,75.318Zm-2.169.014a1.087,1.087,0,0,0-1.078-1.063A1.088,1.088,0,0,0-376.66,75.4a1.09,1.09,0,0,0,1.112,1.03A1.091,1.091,0,0,0-374.5,75.332Z" transform="translate(-142.584 -54.097)" fill="currentColor" fill-rule="evenodd"/>
  </g>
</svg>
