<svg xmlns="http://www.w3.org/2000/svg" viewBox="0 0 35.925 35.929">
  <g id="Group_3308" data-name="Group 3308" transform="translate(-1205 -235.191)">
    <path id="Path_10340" data-name="Path 10340" d="M1255.412,235.191c.788.091,1.579.159,2.363.281.76.119,1.513.291,2.267.446a.75.75,0,0,1,.609.6,23.52,23.52,0,0,1-4.021,19.932.567.567,0,0,0-.079.434,7.856,7.856,0,0,1-2.013,8.14c-1.372,1.422-2.789,2.8-4.188,4.2a.766.766,0,0,1-1.289,0c-1.7-1.694-3.4-3.385-5.079-5.092a.738.738,0,0,0-.712-.226c-1.179.17-2.365.3-3.54.5a1.086,1.086,0,0,1-1.117-.394c-.081-.1-.15-.207-.249-.345-.478.489-.882.911-1.3,1.324q-2.21,2.206-4.426,4.405a2.417,2.417,0,0,1-.341.3.7.7,0,0,1-.868-.088.684.684,0,0,1-.092-.838,2.026,2.026,0,0,1,.292-.346q2.708-2.7,5.422-5.394a2.036,2.036,0,0,1,.3-.211l-3.6-3.6a1.778,1.778,0,0,1-.2.3q-1.85,1.871-3.709,3.733a1.684,1.684,0,0,1-.376.31.683.683,0,0,1-.924-.924,1.766,1.766,0,0,1,.31-.376q1.851-1.87,3.707-3.735c.089-.09.175-.182.3-.316-.818-.445-.755-1.139-.621-1.9.175-.988.27-1.991.422-2.984a.793.793,0,0,0-.258-.768c-1.681-1.659-3.347-3.335-5.017-5.006-.523-.523-.526-.849-.011-1.364,1.448-1.446,2.859-2.932,4.355-4.327a7.725,7.725,0,0,1,7.923-1.834.537.537,0,0,0,.533-.126,22.924,22.924,0,0,1,9.138-4.167c1.128-.237,2.287-.326,3.431-.484.114-.016.228-.038.342-.058Zm4.554,7.049a21.334,21.334,0,0,0-.555-4.794.441.441,0,0,0-.268-.284c-1-.176-2-.387-3.008-.473a21.2,21.2,0,0,0-10.183,1.592,21.854,21.854,0,0,0-12.477,13.015.367.367,0,0,0,.088.457q5.638,5.624,11.26,11.262a.347.347,0,0,0,.427.087A22.233,22.233,0,0,0,1259.966,242.24Zm-21.358-1.054a6.215,6.215,0,0,0-5.49,1.339c-1.532,1.35-2.925,2.856-4.378,4.295-.013.013-.012.042,0,0l3.576,3.576A23.511,23.511,0,0,1,1238.608,241.186Zm16.77,16.78a23.5,23.5,0,0,1-9.19,6.281l3.579,3.578c1.192-1.193,2.425-2.405,3.631-3.644a8.661,8.661,0,0,0,1.125-1.381A6.416,6.416,0,0,0,1255.377,257.966Zm-13.1,4.664-8.336-8.336c-.105.754-.229,1.586-.331,2.42a.546.546,0,0,0,.113.4q2.851,2.876,5.725,5.73a.425.425,0,0,0,.3.126C1240.618,262.864,1241.493,262.738,1242.274,262.63Z" transform="translate(-20.447 0)" fill="currentColor" fill-rule="evenodd"/>
    <path id="Path_10341" data-name="Path 10341" d="M1205,654.3c.208-.234.4-.48.624-.7q2.45-2.461,4.908-4.913c.476-.476.877-.538,1.209-.19s.253.717-.214,1.184l-5.135,5.132c-.559.559-.929.533-1.392-.091Z" transform="translate(0 -384.092)" fill="currentColor" fill-rule="evenodd"/>
    <path id="Path_10342" data-name="Path 10342" d="M1221.632,648.969a.7.7,0,0,1-.705.68.713.713,0,0,1-.683-.708.725.725,0,0,1,.71-.684A.712.712,0,0,1,1221.632,648.969Z" transform="translate(-14.174 -384.075)" fill="currentColor" fill-rule="evenodd"/>
    <path id="Path_10343" data-name="Path 10343" d="M1444.922,353.553l1.844-6.873-6.907,1.851c.351.329.646.594.927.874a.74.74,0,0,1,.02,1.212q-1.519,1.532-3.051,3.051a.711.711,0,1,1-.993-.989c.873-.879,1.753-1.751,2.67-2.666-.453-.448-.895-.876-1.326-1.315-.3-.3-.365-.641-.131-.909a1.3,1.3,0,0,1,.608-.365c2.466-.673,4.937-1.329,7.407-1.99.485-.13.968-.267,1.454-.391.7-.18,1.144.251.959.948q-1.19,4.467-2.393,8.93c-.2.752-.776.9-1.331.353-.4-.394-.8-.79-1.2-1.184-.015-.015-.042-.017-.1-.037-.417.421-.843.855-1.272,1.284q-1.8,1.8-3.6,3.6a2.07,2.07,0,0,1-.346.294.653.653,0,0,1-.834-.111.643.643,0,0,1-.114-.806,1.558,1.558,0,0,1,.262-.326q2.638-2.645,5.282-5.286a.781.781,0,0,1,1.315,0C1444.345,352.96,1444.6,353.228,1444.922,353.553Z" transform="translate(-215.221 -102.104)" fill="currentColor" fill-rule="evenodd"/>
    <path id="Path_10344" data-name="Path 10344" d="M1403.786,487.589a.7.7,0,1,1,0-1.4.707.707,0,0,1,.685.7A.721.721,0,0,1,1403.786,487.589Z" transform="translate(-184.178 -233.386)" fill="currentColor" fill-rule="evenodd"/>
  </g>
</svg>
