<svg xmlns="http://www.w3.org/2000/svg" viewBox="0 0 23.906 23.907">
  <g id="cut_1_" data-name="cut(1)" transform="translate(23.906 -488.231) rotate(180)" opacity="0.39">
    <path id="Path_317" data-name="Path 317" d="M64.125-512.01a4.057,4.057,0,0,0-1.769,2.026,3.763,3.763,0,0,0-.247,1.653,3.152,3.152,0,0,0,.173,1.064,3.387,3.387,0,0,0,.345.747c.107.163,1.424,1.961,2.927,4,2.007,2.726,2.778,3.739,2.913,3.828a1.094,1.094,0,0,0,1.013.014c.121-.075,1.368-1.695,4.314-5.621l4.146-5.513.112.135a1.73,1.73,0,0,1,.317,1.162,1.5,1.5,0,0,1-.154.859.99.99,0,0,0,.1,1.209.78.78,0,0,0,.686.289.965.965,0,0,0,.714-.266,3.555,3.555,0,0,0,.458-1.008,5.089,5.089,0,0,0,.075-1.877,4.1,4.1,0,0,0-1.172-2.115,2.09,2.09,0,0,0-1.228-.7c-.584-.037-.345-.308-3.711,4.174-1.648,2.19-3,3.978-3.006,3.973s-1.284-1.741-2.838-3.861-2.9-3.922-2.983-4.01A.974.974,0,0,0,64.125-512.01Zm3.123,6.018,2.68,3.637-.467.626a3.084,3.084,0,0,1-.5.584c-.023-.019-1.1-1.485-2.4-3.249-2.6-3.529-2.558-3.464-2.554-4.118a2.186,2.186,0,0,1,.313-1.116c.121-.177.131-.182.187-.093C64.545-509.676,65.778-508,67.248-505.992Z" transform="translate(-59.204)" fill="currentColor"/>
    <path id="Path_318" data-name="Path 318" d="M16.76-348.8c-.187.1-.607.649-3.9,5.1-2.031,2.745-3.707,4.991-3.725,5a1.376,1.376,0,0,1-.187-.355,4.575,4.575,0,0,0-2.334-2.423,4.013,4.013,0,0,0-1.783-.4,4.278,4.278,0,0,0-1.723.229,4.913,4.913,0,0,0-2.077,1.466A4.508,4.508,0,0,0,0-337.256,4.473,4.473,0,0,0,.966-334.4a4.729,4.729,0,0,0,2.442,1.648,6.5,6.5,0,0,0,2.017.1,5.261,5.261,0,0,0,1.811-.719c.677-.457.929-.756,3.109-3.711.812-1.1,1.513-2.031,1.555-2.073.07-.075.173.056,1.522,1.886,2.255,3.072,2.563,3.441,3.245,3.9a5.3,5.3,0,0,0,1.811.719,6.5,6.5,0,0,0,2.017-.1,4.749,4.749,0,0,0,2.866-2.292,4.823,4.823,0,0,0,.3-3.753,4.8,4.8,0,0,0-2.213-2.572,4.251,4.251,0,0,0-2.372-.518,4.374,4.374,0,0,0-2.46.78,5.71,5.71,0,0,0-1.209,1.209,7.311,7.311,0,0,0-.579,1.144c-.019.051-.047.075-.07.047s-.392-.518-.817-1.1l-.784-1.064,2.4-3.231c1.317-1.779,2.442-3.329,2.5-3.441a.951.951,0,0,0-.28-1.19.666.666,0,0,0-.49-.159A.791.791,0,0,0,16.76-348.8ZM5.527-339.857a2.758,2.758,0,0,1,1.489,3.978,2.92,2.92,0,0,1-1.793,1.307,3.484,3.484,0,0,1-1.461-.084,2.845,2.845,0,0,1-1.718-1.718,3.484,3.484,0,0,1-.084-1.461,2.873,2.873,0,0,1,1.989-2.082A3.676,3.676,0,0,1,5.527-339.857Zm14.612,0a2.913,2.913,0,0,1,1.723,1.718,2.178,2.178,0,0,1,.1.882,2.178,2.178,0,0,1-.1.882,2.888,2.888,0,0,1-1.723,1.718,3.484,3.484,0,0,1-1.461.084,2.824,2.824,0,0,1-2.082-2,3.355,3.355,0,0,1-.019-1.293,2.866,2.866,0,0,1,2-2.054A3.693,3.693,0,0,1,20.14-339.857Z" transform="translate(0 -155.618)" fill="currentColor"/>
  </g>
</svg>
