<svg xmlns="http://www.w3.org/2000/svg" viewBox="0 0 24.014 27.592">
  <g id="Group_1898" data-name="Group 1898" transform="translate(-1181.992 -237)">
    <path id="Path_1148" data-name="Path 1148" d="M1194.445,237a4.71,4.71,0,0,1,.54.465,5.95,5.95,0,0,0,2.468,1.582,17.619,17.619,0,0,0,4.531,1.016c1.017.106,2.042.145,3.064.2.675.035.95.306.95.991q0,5.081,0,10.162c0,.782-.018,1.564,0,2.345a7.972,7.972,0,0,1-2.35,5.862,16.169,16.169,0,0,1-5.3,3.58,18.935,18.935,0,0,1-4.157,1.368,2.648,2.648,0,0,1-1.21-.18,19.61,19.61,0,0,1-7.269-3.507,9.661,9.661,0,0,1-3.364-4.545,7.072,7.072,0,0,1-.359-2.224q0-6.469,0-12.938a.815.815,0,0,1,.895-.908,27.137,27.137,0,0,0,6.636-.841,9.623,9.623,0,0,0,3.575-1.628c.155-.122.288-.271.44-.4.171-.141.352-.268.53-.4Zm-10.822,4.889c-.005.084-.014.154-.014.224q0,6.01,0,12.02a5.674,5.674,0,0,0,.462,2.226,8.4,8.4,0,0,0,2.983,3.5,20.642,20.642,0,0,0,6.781,3.061.762.762,0,0,0,.391-.017c.568-.164,1.139-.326,1.7-.522a17.5,17.5,0,0,0,5.891-3.222,6.812,6.812,0,0,0,2.576-5.371c-.034-3.845-.009-7.69-.009-11.535v-.371c-.165-.01-.307-.013-.447-.027-1.24-.127-2.488-.207-3.719-.4a13.242,13.242,0,0,1-4.623-1.535c-.487-.279-.941-.616-1.406-.924C1191.02,241.219,1187.373,241.727,1183.623,241.889Z" transform="translate(0 0)" fill="currentColor" fill-rule="evenodd"/>
    <path id="Path_1149" data-name="Path 1149" d="M1302.992,364.278h7.064c.718,0,1.018.3,1.018,1.013q0,3.059,0,6.117c0,.694-.306,1-1.006,1h-9.324c-.689,0-.99-.3-.991-.977q0-3.086,0-6.171c0-.681.3-.977.99-.979h.63v-.3c0-.71,0-1.419,0-2.129a4.038,4.038,0,0,1,8.018-.7,3.353,3.353,0,0,1,.055.67.8.8,0,0,1-1.609.034,2.422,2.422,0,0,0-4.843-.09C1302.977,362.588,1302.992,363.414,1302.992,364.278Zm6.444,6.486v-4.845h-8.052v4.845Z" transform="translate(-111.411 -114.278)" fill="currentColor" fill-rule="evenodd"/>
    <path id="Path_1150" data-name="Path 1150" d="M1390.583,538.449a.81.81,0,1,1-.017,1.62.81.81,0,0,1,.017-1.62Z" transform="translate(-196.584 -285.196)" fill="currentColor" fill-rule="evenodd"/>
  </g>
</svg>
