<svg xmlns="http://www.w3.org/2000/svg" viewBox="0 0 57.278 41.477">
  <g id="Group_4345" data-name="Group 4345" transform="translate(-721.736 -183.724)">
    <path id="Path_13351" data-name="Path 13351" d="M946.473,280.346c-.287-.484-.612-.949-.853-1.455-.394-.828-.734-1.682-1.12-2.578-1.513.692-2.963,1.357-4.415,2.019-.336.153-.669.318-1.016.443a.97.97,0,0,1-1.355-.885c-.013-.143-.006-.288-.006-.432V251.116c0-.1,0-.206,0-.308a1,1,0,0,1,1.734-.738c.454.417.9.841,1.354,1.262q9.021,8.417,18.038,16.838a8.086,8.086,0,0,1,.6.7v.617a7.414,7.414,0,0,1-1.012.747c-.638.327-1.314.58-1.973.868-.971.424-1.941.851-2.935,1.288.494,1.153.974,2.243,1.428,3.342a1,1,0,0,1-.58,1.458c-.333.16-.677.3-1.015.448l-6.135,2.712Zm10.2-11.507-16.953-15.812V276.3c.218-.087.4-.152.585-.234q1.936-.878,3.869-1.761c1.1-.5,1.473-.36,1.949.747.427.991.856,1.98,1.3,3.009l5.38-2.348c-.47-1.1-.918-2.13-1.359-3.167-.378-.888-.206-1.325.669-1.71C953.593,270.187,955.077,269.538,956.67,268.839Z" transform="translate(-180.421 -55.144)" fill="currentColor" fill-rule="evenodd"/>
    <path id="Path_13352" data-name="Path 13352" d="M753.338,196.615v.655q0,7.341,0,14.682c0,1.1-.3,1.4-1.379,1.4h-26.9c-1.043,0-1.349-.311-1.349-1.366q0-7.341,0-14.682v-.745c-.241,0-.44.014-.636,0a1.372,1.372,0,0,1-1.328-1.366q-.025-5.058,0-10.117a1.369,1.369,0,0,1,1.352-1.341c.164-.012.329-.006.493-.006h29.8c1.448,0,1.92.471,1.92,1.917q0,4.38,0,8.76C755.313,196.1,755.037,196.421,753.338,196.615Zm-27.624,14.717h25.6V196.6h-25.6Zm-1.975-16.788h18.685v-8.81H723.739Zm29.572-8.8H744.5v8.81h8.811Z" transform="translate(0)" fill="currentColor" fill-rule="evenodd"/>
    <path id="Path_13353" data-name="Path 13353" d="M768.619,287.676h-9.381a4.689,4.689,0,0,1-.555-.01.968.968,0,0,1-.9-1,.953.953,0,0,1,.878-.954,3.017,3.017,0,0,1,.493-.011H778.1a2.765,2.765,0,0,1,.554.018.979.979,0,0,1,.018,1.933,2.987,2.987,0,0,1-.615.022Z" transform="translate(-30.115 -85.187)" fill="currentColor" fill-rule="evenodd"/>
    <path id="Path_13354" data-name="Path 13354" d="M764.741,315.713q2.808,0,5.616,0c.778,0,1.23.371,1.229.986s-.454.986-1.231.986q-5.678,0-11.355,0c-.778,0-1.229-.372-1.229-.988s.451-.983,1.23-.985Q761.871,315.708,764.741,315.713Z" transform="translate(-30.103 -110.262)" fill="currentColor" fill-rule="evenodd"/>
    <path id="Path_13355" data-name="Path 13355" d="M752.187,218.7c-1.728,0-3.456,0-5.184,0-.778,0-1.23-.37-1.23-.986s.45-.986,1.229-.986q5.184,0,10.368,0c.779,0,1.23.37,1.231.985s-.453.985-1.23.987C755.643,218.7,753.915,218.7,752.187,218.7Z" transform="translate(-20.08 -27.568)" fill="currentColor" fill-rule="evenodd"/>
    <path id="Path_13356" data-name="Path 13356" d="M871.715,209.979c-.472.51-.819.918-1.2,1.288a.979.979,0,0,1-1.474.068.989.989,0,0,1,.1-1.474q.88-.907,1.788-1.787a.983.983,0,0,1,1.565,0q.913.874,1.787,1.787a.983.983,0,1,1-1.387,1.388C872.515,210.88,872.171,210.473,871.715,209.979Z" transform="translate(-122.82 -20.017)" fill="currentColor" fill-rule="evenodd"/>
  </g>
</svg>
