<svg xmlns="http://www.w3.org/2000/svg" width="34.627" height="27.398" viewBox="0 0 34.627 27.398">
  <g id="bitcoins" transform="translate(0.1 457.723)">
    <path id="Path_216" data-name="Path 216" d="M2.109-457.654A2.092,2.092,0,0,0,.9-456.529l-.142.312-.02,9.905L.72-436.4H.489a.738.738,0,0,0-.407.142l-.183.142.02,1.843c.02,1.829.02,1.836.2,2.222a3.249,3.249,0,0,0,1.917,1.619c.508.142,29.776.142,30.285,0a3.359,3.359,0,0,0,1.829-1.43c.339-.657.373-.888.373-2.554v-1.592l-.2-.2a.575.575,0,0,0-.44-.2h-.244l-.014-9.912-.02-9.905-.142-.312a2.195,2.195,0,0,0-.955-1.009l-.325-.169-14.939-.014C5.909-457.729,2.265-457.715,2.109-457.654ZM31.7-456.313a.62.62,0,0,1,.386.285c.136.21.136.427.136,9.919v9.709H30.733v-8.909c0-9.553.007-9.262-.325-9.444-.1-.054-2.7-.075-8.706-.075H13.139l-.183.176a.762.762,0,0,0,0,1l.183.176H29.311V-436.4H5.056v-17.073H7.678l.183-.176a.762.762,0,0,0,0-1l-.183-.176H5.889a11.713,11.713,0,0,0-1.931.075c-.332.183-.325-.108-.325,9.444v8.909H2.143v-9.709c0-9.512,0-9.709.136-9.919a.653.653,0,0,1,.352-.285C2.956-456.407,31.363-456.407,31.7-456.313ZM10.354-434.056l.02.921.224.2.217.2H23.552l.217-.2.224-.2.02-.921.027-.921h9.153l-.034.962c-.041,1.077-.115,1.355-.481,1.741a2.3,2.3,0,0,1-.556.386l-.339.163H2.583l-.339-.163a2.447,2.447,0,0,1-.556-.386c-.366-.386-.44-.664-.481-1.741l-.034-.962h9.153Zm12.249-.515v.406H11.763v-.813H22.6Z" transform="translate(0 0)" fill="currentColor"/>
    <path id="Path_217" data-name="Path 217" d="M144.377-414.837a.676.676,0,0,0,.474,1.192.586.586,0,0,0,.5-.2.674.674,0,0,0-.5-1.159A.6.6,0,0,0,144.377-414.837Z" transform="translate(-134.463 -39.829)" fill="currentColor"/>
    <path id="Path_218" data-name="Path 218" d="M92.264-362.39a6.6,6.6,0,0,0-4.173,2.005,6.456,6.456,0,0,0-1.87,4.39,6.649,6.649,0,0,0,4.959,6.741,8.379,8.379,0,0,0,2.744.142,6.667,6.667,0,0,0,5.047-3.821l.2-.447,1.714-.007H102.6v.569c0,.711.129.915.61.969.3.034.339.014,2.846-1.606,1.4-.894,2.622-1.721,2.73-1.836a.679.679,0,0,0-.108-1.016c-.224-.163-4.871-3.144-5.041-3.232a.716.716,0,0,0-.84.115c-.19.19-.2.23-.2.779v.583H99.215l-.278-.569a6.769,6.769,0,0,0-2.229-2.608,6.774,6.774,0,0,0-3.015-1.131c-.264-.02-.556-.041-.65-.054S92.6-362.417,92.264-362.39Zm2.168,1.619a5.3,5.3,0,0,1,3.184,2.744,4.6,4.6,0,0,1,.535,2.3,4.592,4.592,0,0,1-.5,2.249,5.189,5.189,0,0,1-2.473,2.459,4.775,4.775,0,0,1-2.568.528,5.262,5.262,0,0,1-4.573-7.283,5.351,5.351,0,0,1,4.35-3.2A5.982,5.982,0,0,1,94.432-360.771Zm11.233,4.234,1.26.806-.657.427c-.359.23-1.009.644-1.436.921l-.779.5-.061-.3a.747.747,0,0,0-.257-.461l-.2-.169H99.567l.007-.915v-.908l2.026-.02,2.026-.02.163-.19a1.056,1.056,0,0,0,.2-.461l.047-.264.183.115C104.323-357.4,104.974-356.983,105.665-356.536Z" transform="translate(-80.467 -88.841)" fill="currentColor"/>
    <path id="Path_219" data-name="Path 219" d="M147.5-333.426a.741.741,0,0,0-.366.657c0,.115-.061.129-.644.129a2.8,2.8,0,0,0-.874.095.593.593,0,0,0-.176.976c.129.108.135.21.135,2.812v2.7l-.149.122a.623.623,0,0,0,.007.84c.156.169.2.176.935.176.759,0,.766,0,.766.163a.733.733,0,0,0,.366.677.575.575,0,0,0,.854-.535v-.285l.339-.047a2.207,2.207,0,0,0,1.673-1.152,1.978,1.978,0,0,0,.21-.928,1.581,1.581,0,0,0-.156-1,2.409,2.409,0,0,0-.346-.562l-.156-.149.19-.224a2.416,2.416,0,0,0,.257-2.439,2.277,2.277,0,0,0-1.667-1.172c-.312-.041-.312-.047-.332-.318A.6.6,0,0,0,147.5-333.426Zm1.375,2.182a1,1,0,0,1,.007,1.721c-.2.115-.346.136-1.152.136H146.8v-2.046l.949.027C148.566-331.387,148.715-331.366,148.878-331.244Zm-.318,3.15a.988.988,0,0,1,.325,1.823c-.2.115-.346.135-1.152.135H146.8v-2.033h.732A6.054,6.054,0,0,1,148.56-328.094Z" transform="translate(-135.509 -115.82)" fill="currentColor"/>
  </g>
</svg>
