<svg xmlns="http://www.w3.org/2000/svg" viewBox="0 0 25.287 18.232">
  <g id="Data_4x" data-name="Data@4x" transform="translate(-1 403.944)">
    <path id="Path_69" data-name="Path 69" d="M2.9-403.9a2.616,2.616,0,0,0-1.752,1.725l-.122.33-.014,7.975L1-385.9l.095.086c.095.086.312.086,10.016.1,7.017,0,9.952,0,10.034-.041a.319.319,0,0,0,.167-.149c.023-.054.546-1.711,1.161-3.685s1.72-5.545,2.466-7.934,1.35-4.4,1.35-4.475a.467.467,0,0,0-.086-.239l-.086-.108-2.452-.014-2.447-.014-.664.659-.664.659-.027-.352a3.428,3.428,0,0,0-.361-1.255,3.265,3.265,0,0,0-1-1.03c-.551-.275-.014-.257-8.078-.253C6.369-403.937,2.982-403.919,2.9-403.9Zm15.168.853a2.169,2.169,0,0,1,.786.817A2.676,2.676,0,0,1,19.1-400.8l-.014.628-6.078.023c-5.7.023-6.087.027-6.168.1-.059.054-.741,2.181-2.186,6.832l-2.1,6.751H1.722v-7.374c0-4.832.018-7.469.045-7.663a2.161,2.161,0,0,1,1.061-1.544l.271-.126,7.383.009,7.383.014Zm7.32,1.477c0,.014-.587,1.919-1.31,4.231s-1.77,5.7-2.339,7.527l-1.03,3.319-8.679.014-8.674.009.063-.19c.036-.108.872-2.786,1.851-5.952s1.86-5.988,1.946-6.268l.158-.506h5.992l5.992,0,1.084-1.111,1.079-1.106h1.933C24.513-401.6,25.384-401.585,25.384-401.571Z" fill="currentColor"/>
    <path id="Path_70" data-name="Path 70" d="M220.207-274.959c-.163.068-.194.194-.194.763v.546h-.65c-.573,0-.664.009-.754.086l-.108.086v6.462l.1.1c.095.095.145.1.754.117l.655.014v.519c0,.492,0,.524.113.628a.4.4,0,0,0,.524.027c.1-.081.108-.122.122-.632l.018-.546h2.158v.519c0,.5,0,.528.113.632a.4.4,0,0,0,.524.027c.1-.081.108-.122.122-.628l.018-.546.253-.027a1.732,1.732,0,0,0,1.508-1.084,1.665,1.665,0,0,0,.1-.835c0-.573-.009-.623-.126-.862a2.445,2.445,0,0,0-.3-.452l-.176-.2.185-.2a2.3,2.3,0,0,0,.3-.452c.108-.23.117-.294.117-.858,0-.587,0-.619-.14-.9a1.684,1.684,0,0,0-1.4-.984l-.33-.023v-.537c0-.537,0-.542-.131-.673a.343.343,0,0,0-.524-.018c-.108.1-.113.135-.113.677v.564H220.78v-.546c0-.542,0-.546-.131-.677A.365.365,0,0,0,220.207-274.959Zm4.078,2.154a1.113,1.113,0,0,1,.519.592,2.38,2.38,0,0,1,.036.564c-.018.343-.032.406-.154.578a1.065,1.065,0,0,1-.379.321l-.239.126h-4.823v-2.307l2.429.014C224.072-272.9,224.1-272.9,224.284-272.805Zm.023,3.075a.842.842,0,0,1,.393.37.9.9,0,0,1,.145.641,1.147,1.147,0,0,1-.09.573,1.151,1.151,0,0,1-.655.542c-.131.032-.975.05-2.524.05h-2.33v-2.3h4.823Z" transform="translate(-207.679 -123.117)" fill="currentColor"/>
  </g>
</svg>
