<svg xmlns="http://www.w3.org/2000/svg" viewBox="0 0 26.541 26.553">
  <g id="settings" transform="translate(-0.5 511.719)">
    <path id="Path_986" data-name="Path 986" d="M12.134-511.687a1.916,1.916,0,0,0-.784.457c-.338.332-.421.608-.577,1.839a9.186,9.186,0,0,1-.187,1.174.56.56,0,0,1-.234.119c-.1.036-.431.166-.727.3l-.535.239-.192-.156a19.38,19.38,0,0,0-1.776-1.314,1.814,1.814,0,0,0-1.226-.078c-.3.083-.348.13-1.511,1.288S3.18-506.608,3.1-506.311a1.812,1.812,0,0,0,.078,1.226,12.377,12.377,0,0,0,.727,1.013c.826,1.054.769.935.587,1.3a7.477,7.477,0,0,0-.3.7,2.277,2.277,0,0,1-.2.447,8.134,8.134,0,0,1-1.174.2c-1.236.156-1.5.239-1.833.571a2.258,2.258,0,0,0-.338.462l-.14.27v3.324l.135.291a2.123,2.123,0,0,0,.332.488c.343.343.623.431,1.8.577a11.642,11.642,0,0,1,1.158.171.6.6,0,0,1,.2.322c.052.156.192.483.306.732.14.317.192.478.156.519s-.332.431-.675.873a12,12,0,0,0-.743,1.039,1.812,1.812,0,0,0-.078,1.226c.083.3.13.348,1.288,1.511S5.6-487.847,5.9-487.764a1.814,1.814,0,0,0,1.226-.078A19.38,19.38,0,0,0,8.9-489.156l.192-.156.535.239c.3.13.623.26.727.3a.56.56,0,0,1,.234.119,9.187,9.187,0,0,1,.187,1.174c.156,1.236.239,1.506.582,1.849a2.123,2.123,0,0,0,.488.332l.291.135h3.272l.291-.135a2.123,2.123,0,0,0,.488-.332c.348-.348.431-.623.582-1.854a7.593,7.593,0,0,1,.192-1.163,2.278,2.278,0,0,1,.447-.2,7.474,7.474,0,0,0,.7-.3c.364-.182.244-.239,1.3.587a12.373,12.373,0,0,0,1.013.727,1.812,1.812,0,0,0,1.226.078c.3-.083.348-.13,1.511-1.288s1.2-1.215,1.288-1.511a1.812,1.812,0,0,0-.078-1.226,23.7,23.7,0,0,0-1.418-1.906c-.031-.047.026-.234.187-.6.13-.3.26-.623.3-.727a.56.56,0,0,1,.119-.234,9.188,9.188,0,0,1,1.174-.187c1.236-.156,1.506-.239,1.849-.582a2.123,2.123,0,0,0,.332-.488l.135-.291v-3.272l-.135-.291a2.123,2.123,0,0,0-.332-.488c-.343-.343-.618-.426-1.865-.592a8.97,8.97,0,0,1-1.169-.192,2.635,2.635,0,0,1-.187-.436,7.477,7.477,0,0,0-.3-.7c-.182-.364-.239-.244.587-1.3a12.377,12.377,0,0,0,.727-1.013,1.812,1.812,0,0,0,.078-1.226c-.083-.3-.13-.348-1.288-1.511s-1.215-1.2-1.511-1.288a1.812,1.812,0,0,0-1.226.078,12.376,12.376,0,0,0-1.013.727c-1.054.826-.935.769-1.3.587a7.474,7.474,0,0,0-.7-.3,2.277,2.277,0,0,1-.447-.2,7.586,7.586,0,0,1-.192-1.169c-.156-1.236-.239-1.5-.582-1.849a2.122,2.122,0,0,0-.488-.332l-.291-.135-1.558-.01C12.991-511.724,12.223-511.708,12.134-511.687Zm3.085,1.112c.28.14.317.255.5,1.672a5.324,5.324,0,0,0,.265,1.465,1.9,1.9,0,0,0,.727.353c.343.119.878.343,1.189.493.493.239.582.265.722.223a11.26,11.26,0,0,0,1.226-.878c1.428-1.112,1.2-1.132,2.529.2s1.319,1.091.187,2.55a11.484,11.484,0,0,0-.878,1.236c-.021.119.031.275.239.706.151.3.364.805.478,1.117.244.686.27.743.416.821a12.468,12.468,0,0,0,1.439.234c1.4.177,1.511.213,1.652.493a15.009,15.009,0,0,1,0,2.9c-.14.28-.255.317-1.657.493-.727.1-1.371.2-1.434.234-.145.078-.177.135-.421.826-.109.317-.327.821-.473,1.127-.244.493-.27.571-.223.722a11.259,11.259,0,0,0,.878,1.226c1.112,1.428,1.132,1.2-.2,2.529s-1.091,1.319-2.55.187a11.488,11.488,0,0,0-1.236-.878c-.119-.021-.275.031-.706.239-.3.151-.81.364-1.127.478a6.289,6.289,0,0,0-.686.28c-.161.1-.2.3-.374,1.678-.161,1.283-.2,1.408-.478,1.548a15.007,15.007,0,0,1-2.9,0c-.28-.145-.317-.254-.493-1.667a5.14,5.14,0,0,0-.27-1.47,1.859,1.859,0,0,0-.722-.353c-.348-.119-.878-.343-1.184-.488-.436-.213-.587-.265-.706-.239a8.834,8.834,0,0,0-1.153.81c-.556.431-1.075.821-1.153.862-.306.156-.405.088-1.491-1-1.314-1.319-1.3-1.086-.171-2.54a10.5,10.5,0,0,0,.873-1.231c.026-.109-.031-.28-.234-.7-.145-.306-.364-.815-.473-1.132a5.6,5.6,0,0,0-.286-.7c-.1-.161-.3-.2-1.678-.374-1.283-.161-1.408-.2-1.548-.478a15.009,15.009,0,0,1,0-2.9c.14-.28.265-.317,1.548-.478,1.382-.171,1.574-.213,1.678-.374a6.293,6.293,0,0,0,.28-.686c.114-.317.327-.826.478-1.132.244-.5.27-.582.223-.727a10.59,10.59,0,0,0-.878-1.231c-1.112-1.428-1.132-1.2.2-2.529s1.1-1.314,2.529-.2a11.26,11.26,0,0,0,1.226.878c.145.047.234.021.758-.239.322-.156.831-.369,1.132-.478a6.328,6.328,0,0,0,.66-.26c.161-.109.2-.3.374-1.683.161-1.283.2-1.408.478-1.548a6.51,6.51,0,0,1,1.449-.068A6.51,6.51,0,0,1,15.22-510.576Z" fill="currentColor"/>
    <path id="Path_987" data-name="Path 987" d="M154.4-362.584a5.588,5.588,0,0,0-4.379,3.184,5.5,5.5,0,0,0,1.158,6.28,5.48,5.48,0,0,0,6.165,1.06,5.438,5.438,0,0,0,2.7-2.7,5.526,5.526,0,0,0-2.95-7.459A5.92,5.92,0,0,0,154.4-362.584Zm1.517,1.163a4.482,4.482,0,0,1,2.8,1.9,4.213,4.213,0,0,1,.732,2.462,4.335,4.335,0,0,1-1.979,3.662,4.635,4.635,0,0,1-1.688.686,5.4,5.4,0,0,1-.976.036,4.094,4.094,0,0,1-2.031-.6,5.29,5.29,0,0,1-1.47-1.413,5.02,5.02,0,0,1-.613-1.506,5.6,5.6,0,0,1,0-1.766,4.483,4.483,0,0,1,3.433-3.454A5.921,5.921,0,0,1,155.916-361.421Z" transform="translate(-141.263 -141.359)" fill="currentColor"/>
  </g>
</svg>
