<svg xmlns="http://www.w3.org/2000/svg" viewBox="0 0 46.927 46.892">
  <g id="network" transform="translate(0.071 511.609)">
    <path id="Path_558" data-name="Path 558" d="M36.083-511.59a10.933,10.933,0,0,0-2.037.6.934.934,0,0,0-.532,1.119c.248.725.661.826,1.853.459a5.738,5.738,0,0,1,2.184-.257,5.8,5.8,0,0,1,2.982.569,7.658,7.658,0,0,1,3.807,3.752,7.625,7.625,0,0,1,.073,5.973,2.876,2.876,0,0,1-.33.67c-.037,0-.138-.174-.239-.376a4.529,4.529,0,0,0-.706-.945,3.987,3.987,0,0,0-1.807-1.165c-.3-.092-.376-.147-.33-.257a4.436,4.436,0,0,0,.4-2.174,3.961,3.961,0,0,0-.725-2.7,3.669,3.669,0,0,0-3.129-1.56,3.632,3.632,0,0,0-2.743,1.11,3.789,3.789,0,0,0-1.11,3.156,4.4,4.4,0,0,0,.4,2.165c.046.11-.028.174-.33.257a5.485,5.485,0,0,0-.761.3,5.374,5.374,0,0,0-1.706,1.725,1.556,1.556,0,0,1-.284.459,2.876,2.876,0,0,1-.33-.67,7.79,7.79,0,0,1-.193-5.385c.211-.706.165-1.009-.211-1.33a.952.952,0,0,0-1.477.339,9.956,9.956,0,0,0-.174,6.45,1.3,1.3,0,0,1,.128.606c-.11.092-8.211,4.4-8.23,4.376s-.22-.294-.468-.624a11.261,11.261,0,0,0-7.285-4.321,14.077,14.077,0,0,0-4.44.229,10.236,10.236,0,0,0-2.551,1.009,1,1,0,0,0-.4,1.2,1.088,1.088,0,0,0,.835.6,9.067,9.067,0,0,0,1.174-.422,8.983,8.983,0,0,1,3.651-.771,9.275,9.275,0,0,1,9.184,7.431,7.541,7.541,0,0,1,.138,2.156,7.787,7.787,0,0,1-.734,3.385l-.3.642-.266-.55a6.23,6.23,0,0,0-2.312-2.266,7.369,7.369,0,0,0-1.174-.44,1.225,1.225,0,0,1-.486-.165c.018-.028.138-.275.284-.532a5.458,5.458,0,0,0,.523-2.606,5.283,5.283,0,0,0-.5-2.624,4.891,4.891,0,0,0-4.239-2.688,4.856,4.856,0,0,0-4.67,3.642,9.725,9.725,0,0,0,0,3.22,5.542,5.542,0,0,0,.385,1.055c.147.257.266.5.284.532a1.225,1.225,0,0,1-.486.165,7.369,7.369,0,0,0-1.174.44,6.2,6.2,0,0,0-2.3,2.266l-.266.532-.165-.3a9.6,9.6,0,0,1-.908-4.028,9.573,9.573,0,0,1,.963-4.211c.22-.523.239-.633.147-.945a.855.855,0,0,0-.9-.642c-.477.018-.725.22-1.037.844a11.774,11.774,0,0,0-.5,8.734,11.287,11.287,0,0,0,7.808,7.1,14.005,14.005,0,0,0,4.431.229,11.525,11.525,0,0,0,4.67-1.817,13.454,13.454,0,0,0,2.762-2.67c.174-.266.349-.468.376-.45s1.9,1.009,4.156,2.211c3.284,1.761,4.083,2.229,4.037,2.339a10.137,10.137,0,0,0-.569,4.3,9.39,9.39,0,0,0,6.954,8.2,7.455,7.455,0,0,0,2.385.211,7.454,7.454,0,0,0,2.385-.211,9.857,9.857,0,0,0,5.275-3.633,11.906,11.906,0,0,0,1.44-3.046,7.761,7.761,0,0,0,.2-2.376,7.427,7.427,0,0,0-.2-2.431c-.294-1.064-.541-1.486-.936-1.615a1.034,1.034,0,0,0-1.046.239c-.257.248-.239.752.064,1.872a7.41,7.41,0,0,1-.257,4.642c-.239.624-.385.9-.431.826-.018-.028-.11-.211-.211-.413a4.664,4.664,0,0,0-2.5-2.073c-.3-.092-.376-.147-.33-.257a4.436,4.436,0,0,0,.4-2.174,3.961,3.961,0,0,0-.725-2.7,3.669,3.669,0,0,0-3.129-1.56,3.632,3.632,0,0,0-2.743,1.11,3.789,3.789,0,0,0-1.11,3.156,4.42,4.42,0,0,0,.4,2.165c.046.11-.046.174-.422.294a4.378,4.378,0,0,0-2.385,2,1.515,1.515,0,0,1-.275.45,7.047,7.047,0,0,1-.761-2.018,8.787,8.787,0,0,1,.046-3.284,7.551,7.551,0,0,1,5.367-5.5,6.319,6.319,0,0,1,1.881-.165,5.739,5.739,0,0,1,2.184.257c.982.3,1.275.275,1.624-.138a.92.92,0,0,0-.33-1.45,6.338,6.338,0,0,0-1.1-.385,7.33,7.33,0,0,0-2.422-.2,7.76,7.76,0,0,0-2.376.2,11.9,11.9,0,0,0-3.046,1.44,11.484,11.484,0,0,0-2.073,2.028.953.953,0,0,1-.284.312c-.064,0-8.119-4.285-8.22-4.367a2.352,2.352,0,0,1,.156-.56,10.675,10.675,0,0,0,.661-3.817,10.52,10.52,0,0,0-.661-3.945,2.352,2.352,0,0,1-.156-.56c.1-.083,8.174-4.367,8.23-4.367a1,1,0,0,1,.284.33,10.858,10.858,0,0,0,.844.954,9.294,9.294,0,0,0,7.56,2.734,9.349,9.349,0,0,0,8.266-7.138,8.364,8.364,0,0,0,.165-2.294,6.339,6.339,0,0,0-.257-2.431,9.146,9.146,0,0,0-2.376-4.064,8.071,8.071,0,0,0-2.587-1.853,7.476,7.476,0,0,0-3.853-.872C36.973-511.617,36.211-511.608,36.083-511.59Zm2.5,5.936a3.556,3.556,0,0,1,.587.587c.248.321.257.376.257,1.4,0,1.009-.009,1.092-.248,1.45a1.963,1.963,0,0,1-3.266,0c-.22-.339-.248-.477-.275-1.321-.037-1.037.064-1.385.541-1.862a1.686,1.686,0,0,1,1.468-.541A1.388,1.388,0,0,1,38.587-505.654Zm-1.817,6.165a3.546,3.546,0,0,0,2.037-.1,1.581,1.581,0,0,1,1.147.009c1.578.385,2.34,1.128,2.44,2.395l.046.569-.661.459a7.13,7.13,0,0,1-4.321,1.312,7.53,7.53,0,0,1-4.349-1.44l-.45-.33.046-.569a2.327,2.327,0,0,1,.807-1.651,2.761,2.761,0,0,1,1.468-.706A2.736,2.736,0,0,1,36.771-499.489Zm-24.413,6.046a3.087,3.087,0,0,1,1.376,1.422,3.356,3.356,0,0,1,.193,1.615c0,1.395-.128,1.78-.8,2.45a2.557,2.557,0,0,1-2,.853,2.1,2.1,0,0,1-1.22-.275,2.978,2.978,0,0,1-1.376-1.413,5.794,5.794,0,0,1-.119-2.872A2.817,2.817,0,0,1,12.357-493.443Zm-2.706,8.055a4.865,4.865,0,0,0,3.284-.11l.385-.165,1.083.294a8.875,8.875,0,0,1,1.569.56,3.38,3.38,0,0,1,1.734,2.651l.046.569-.624.514a9.715,9.715,0,0,1-3.661,1.927,6.966,6.966,0,0,1-2.339.211,6.9,6.9,0,0,1-2.33-.211A10.037,10.037,0,0,1,5-481.167l-.5-.431.046-.56a3.38,3.38,0,0,1,1.6-2.578,9.474,9.474,0,0,1,2.872-.881C9.091-485.589,9.376-485.479,9.651-485.387ZM38.587-477.4a3.551,3.551,0,0,1,.587.587c.248.321.257.376.257,1.4,0,1.009-.009,1.092-.248,1.45a1.963,1.963,0,0,1-3.266,0c-.22-.339-.248-.477-.275-1.321-.037-1.037.064-1.385.541-1.862a1.685,1.685,0,0,1,1.468-.541A1.388,1.388,0,0,1,38.587-477.4Zm-1.817,6.165a3.546,3.546,0,0,0,2.037-.1,1.581,1.581,0,0,1,1.147.009,3.08,3.08,0,0,1,1.642.752,2.315,2.315,0,0,1,.8,1.642l.046.56-.606.431a7.478,7.478,0,0,1-8.468.073l-.633-.44.009-.587a2.075,2.075,0,0,1,.771-1.688,2.761,2.761,0,0,1,1.468-.706A2.735,2.735,0,0,1,36.771-471.231Z" fill="currentColor"/>
    <path id="Path_559" data-name="Path 559" d="M335.311-485.35a1,1,0,0,0-.688,1.165.948.948,0,0,0,1.587.422A.955.955,0,0,0,335.311-485.35Z" transform="translate(-303.972 -23.836)" fill="currentColor"/>
    <path id="Path_560" data-name="Path 560" d="M32.952-345.366a.985.985,0,0,0-.514,1.046.951.951,0,0,0,1.606.477A.955.955,0,0,0,32.952-345.366Z" transform="translate(-29.512 -150.911)" fill="currentColor"/>
    <path id="Path_561" data-name="Path 561" d="M465.647-177.45a.968.968,0,0,0-.4,1.6.793.793,0,0,0,.679.266.921.921,0,0,0,.789-1.431A1.075,1.075,0,0,0,465.647-177.45Z" transform="translate(-422.381 -303.488)" fill="currentColor"/>
  </g>
</svg>
