<svg xmlns="http://www.w3.org/2000/svg" xmlns:xlink="http://www.w3.org/1999/xlink" width="300" height="300" viewBox="0 0 300 300">
  <defs>
    <clipPath id="clip-SHIBA_INU">
      <rect width="300" height="300"/>
    </clipPath>
  </defs>
  <g id="SHIBA_INU" data-name="SHIBA INU" clip-path="url(#clip-SHIBA_INU)">
    <rect width="300" height="300" fill="rgba(255,255,255,0)"/>
    <rect id="Rectangle_1" data-name="Rectangle 1" width="290" height="290" rx="20" transform="translate(5 5)" fill="#f00500"/>
    <g id="Group_938" transform="translate(-930.989 -204.463)">
      <g id="Group_931" transform="translate(953.47 240.566)">
        <path id="Path_8573" d="M1245.771,267.744a167.41,167.41,0,0,0-18.477,21.921l-1.742-.567a126.482,126.482,0,0,0-30.957-6c-3.161-.243-14.952-.243-18.8,0a109.349,109.349,0,0,0-30.674,6.038c-.405.162-.77.284-1.135.405a164.948,164.948,0,0,0-19.085-21.759,132.663,132.663,0,0,1,108.188-5.713c3.768,1.418,7.456,3.08,11.062,4.862Z" transform="translate(-1055.436 -253.196)" fill="#f00500"/>
        <path id="Path_8574" d="M1206.529,499.417a126.531,126.531,0,0,1-22.691,39.791,141.03,141.03,0,0,1-17.748,17.383,130.94,130.94,0,0,1-51.177,25.244,134.119,134.119,0,0,1-62.887,0,130.669,130.669,0,0,1-51.177-25.244A141.034,141.034,0,0,1,983.1,539.208a125.056,125.056,0,0,1-22.691-121.884,132.4,132.4,0,0,1,10.333-22.286c1.9-3.242,4.255-6.888,5.389-8.388,3.89,16.735,8.671,31.444,10.454,36.752a9.159,9.159,0,0,1-.446.891c-9.441,19.125-14.547,37.562-15.762,57.174,0,.243-.041.527-.041.77-.324,5.875-.162,8.671.81,12.359,3.039,11.548,12.4,24.271,27.067,36.752,24.028,20.422,56.606,35.171,81.283,36.873,25.73,1.742,63.7-13.291,88.982-35.252a127.078,127.078,0,0,0,11.184-11.224c2.512-2.917,6.24-7.942,5.956-7.942-.081,0,0-.081.162-.162.122-.081.243-.2.162-.284-.041-.04.041-.162.162-.2s.2-.122.162-.2,0-.162.162-.2a.181.181,0,0,0,.122-.243c-.041-.081,0-.162.081-.162s.162-.122.162-.2.081-.2.162-.2a.174.174,0,0,0,.162-.162,4.249,4.249,0,0,1,.527-.932c.608-.932,3.039-5.268,3.363-6a55.892,55.892,0,0,0,4.458-14.547,41.4,41.4,0,0,0,.365-7.294c-.041-.162-.041-.446-.081-.891-.081-.81-.121-2.026-.2-3.242-.081-1.823-.243-4.376-.365-5.632a118.864,118.864,0,0,0-15.357-49.353,14.052,14.052,0,0,1-.891-1.7,2.386,2.386,0,0,1-.162-.324h0c1.256-3.768,6.4-19.531,10.495-37.562l.081.081.608.81c1.053,1.418,3.849,5.632,5.105,7.658a124.461,124.461,0,0,1,11.467,106.568Z" transform="translate(-953.47 -331.177)" fill="#f00500"/>
        <path id="Path_8575" d="M1383.428,528.773c-.122.648-2.026,2.593-3.93,4.011-5.592,4.092-15.6,7.9-25.771,9.725-5.794,1.054-11.589,1.216-13.331.365-1.135-.567-1.3-1.013-.891-2.472.851-3.039,3.606-6.362,7.9-9.482,2.188-1.58,11.062-6.969,15.2-9.239,6.807-3.728,12.318-5.956,16.046-6.483a8.239,8.239,0,0,1,3.039,0c.73.284,1.54,2.431,1.864,5.025A66.122,66.122,0,0,1,1383.428,528.773Z" transform="translate(-1182.963 -408.953)"/>
        <path id="Path_8576" d="M1146.633,542.8c-.243.486-1.459,1.013-2.836,1.216a45.828,45.828,0,0,1-7.982-.2,83.89,83.89,0,0,1-24.353-7.01,30.665,30.665,0,0,1-8.388-5.632L1101.94,530l-.122-1.54a42.347,42.347,0,0,1,.162-8.388,11.009,11.009,0,0,1,1.256-3.566c.324-.405.324-.405,1.783-.405a17.539,17.539,0,0,1,5.713,1.053c4.984,1.54,12.4,5.268,21.435,10.7,7.456,4.457,10.251,6.645,12.4,9.644C1146.025,539.358,1147,541.992,1146.633,542.8Z" transform="translate(-1041.634 -409.571)"/>
        <path id="Path_8577" d="M1267.359,665.348c0,.121-.486,2.067-1.094,4.376s-1.094,4.173-1.094,4.255a6.938,6.938,0,0,1-1.3.041h-1.3l-1.783,4.214c-.973,2.31-1.864,4.457-1.985,4.781l-.243.567-.851-1.378-.851-1.378V669.6l-.324.081c-.689.162-5.592.81-7.74,1.013a110.437,110.437,0,0,1-26.621-.567c-1.418-.2-2.634-.365-2.674-.324s0,2.634.081,5.835l.122,5.754-.689,1.054c-.365.567-.729,1.054-.729,1.094-.121.122-.527-.527-1.459-2.391a27.391,27.391,0,0,1-2.269-6.159l-.284-1.175-1.256.081-1.256.122-.324-1.5c-.162-.81-.365-2.067-.446-2.755l-.121-1.3-1.054-.932c-.608-.527-1.216-1.054-1.337-1.135a.889.889,0,0,1-.284-.689v-.486l5.065.04,5.065.041.162.527.162.527,1.742.081c.972.041,4.052.122,6.807.2l5.065.122,1.3-2.026,1.337-2.026h1.7l-.041-4.214-.04-4.214-2.229-.972c-7.172-3.161-11.386-6.767-12.966-11.143-.324-.891-.324-1.216-.405-5.268-.04-4.011-.04-4.376.243-5.268a5.89,5.89,0,0,1,4.174-4.133c.689-.2,2.512-.2,12.075-.2l11.264.04,1.256.608a7.045,7.045,0,0,1,3.039,2.391c.973,1.3,1.256,2.31,1.256,4.781a35.69,35.69,0,0,1-.608,7.78,16.81,16.81,0,0,1-2.35,4.66,21.584,21.584,0,0,1-9.076,6.362l-.973.365.041,4.255.041,4.255.891.081.891.081,1.216,1.823,1.175,1.823h5.43c3,0,5.632.041,5.875.081.405.081.486.041.891-.648l.486-.729h4.66C1266.306,665.145,1267.359,665.227,1267.359,665.348Z" transform="translate(-1104.983 -475.713)"/>
        <path id="Path_8578" d="M1272.2,744.844c-.77.446-1.3.648-1.418.567-.122-.041-.689-.527-1.3-.972l-1.094-.892-1.135,1.216c-2.472,2.674-2.553,2.8-3.282,2.836-1.135.122-1.378-.081-2.755-2.148-.729-1.053-1.3-1.945-1.3-1.945s-.527-.081-1.135-.122l-1.135-.121-.527,1.094-.527,1.094-.932-.284a19.718,19.718,0,0,1-2.148-.851l-1.216-.608V741.4l10.778.04,10.778.041.041,1.094C1273.938,743.872,1273.978,743.831,1272.2,744.844Z" transform="translate(-1131.214 -543.58)"/>
      </g>
      <path id="Path_8579" d="M1220.29,599.409c-.041-.162-.041-.446-.081-.891a86.17,86.17,0,0,0-63.252,19.571S1148.651,580,1109.751,580s-53.324,38.089-53.324,38.089c-21.8-23.461-50.974-21.759-61.509-20.219,0,.243-.041.527-.041.77-.324,5.875-.162,8.671.81,12.359,3.039,11.548,12.4,24.272,27.067,36.752,24.028,20.422,56.606,35.171,81.283,36.873,25.73,1.742,63.7-13.291,88.982-35.252a127.094,127.094,0,0,0,11.184-11.224c2.512-2.917,6.24-7.942,5.956-7.942-.081,0,0-.081.162-.162.121-.081.243-.2.162-.284-.041-.041.041-.162.162-.2s.2-.122.162-.2,0-.162.162-.2a.181.181,0,0,0,.122-.243c-.041-.081,0-.162.081-.162s.162-.122.162-.2.081-.2.162-.2a.174.174,0,0,0,.162-.162,4.237,4.237,0,0,1,.527-.932c.608-.932,3.039-5.268,3.363-6a55.893,55.893,0,0,0,4.457-14.547A49.13,49.13,0,0,0,1220.29,599.409Zm-101.3,49.434c-.77.446-1.3.648-1.418.567-.122-.041-.689-.527-1.3-.972l-1.094-.891-1.135,1.216c-2.472,2.674-2.553,2.8-3.282,2.836-1.135.122-1.378-.081-2.755-2.148-.729-1.053-1.3-1.945-1.3-1.945s-.527-.081-1.135-.122l-1.135-.122-.527,1.094-.527,1.094-.932-.284a19.76,19.76,0,0,1-2.148-.851l-1.216-.608V645.4l10.778.04,10.778.041.041,1.094C1120.732,647.871,1120.773,647.83,1118.99,648.843Zm20.26-7.294c-.608,2.31-1.094,4.174-1.094,4.255a6.939,6.939,0,0,1-1.3.04h-1.3l-1.743,4.255c-.972,2.31-1.864,4.457-1.985,4.781l-.243.567-.851-1.378-.851-1.378V641.469l-.324.081c-.689.162-5.592.81-7.739,1.013A110.433,110.433,0,0,1,1095.2,642c-1.418-.2-2.634-.365-2.674-.324s0,2.634.081,5.835l.121,5.754-.689,1.054c-.365.567-.729,1.054-.729,1.094-.122.122-.527-.527-1.459-2.391a27.387,27.387,0,0,1-2.269-6.159l-.284-1.175-1.256.081-1.256.122-.324-1.5c-.162-.81-.365-2.066-.446-2.755l-.122-1.3-1.053-.932c-.608-.527-1.216-1.054-1.337-1.134a.889.889,0,0,1-.284-.689v-.486l5.065.04,5.065.041.162.527.162.527,1.742.081c.973.041,4.052.122,6.807.2l5.065.122,1.3-2.026,1.337-2.026h1.7l-.041-4.214-.041-4.214-2.228-.972c-7.172-3.161-11.386-6.767-12.967-11.143-.324-.891-.324-1.216-.405-5.268-.041-4.012-.041-4.376.243-5.268a5.89,5.89,0,0,1,4.174-4.133c.689-.2,2.512-.2,12.075-.2l11.265.041,1.256.608A7.049,7.049,0,0,1,1126,602.2c.972,1.3,1.256,2.31,1.256,4.781a35.672,35.672,0,0,1-.608,7.78,16.807,16.807,0,0,1-2.35,4.66,21.587,21.587,0,0,1-9.077,6.362l-.973.365.041,4.255.041,4.255.891.081.891.081,1.216,1.823,1.175,1.823h5.43c3,0,5.632.041,5.875.081.405.081.486.041.891-.648l.486-.729h4.66c3.606,0,4.66.04,4.66.162A27.98,27.98,0,0,0,1139.25,641.55Z" transform="translate(-24.539 -207.013)" fill="#fff"/>
      <path id="Path_8580" d="M989.052,624.1a37.5,37.5,0,0,0-4.052.77" transform="translate(-18.754 -233.243)" fill="none"/>
      <path id="Path_8581" d="M1554.806,626.227s-1.3-.284-3.606-.527" transform="translate(-355.53 -234.195)" fill="none"/>
      <path id="Path_8582" d="M1220.129,388.263c-.081-1.823-.243-4.376-.365-5.632a118.866,118.866,0,0,0-15.357-49.353,14.065,14.065,0,0,1-.891-1.7,2.392,2.392,0,0,1-.162-.324h0c1.256-3.768,6.4-19.531,10.495-37.562,5.551-24.474,9.077-53.081-1.7-61.671,0,0-18.639-1.378-43.6,23.1a167.421,167.421,0,0,0-18.477,21.921l-1.743-.567a126.48,126.48,0,0,0-30.957-6c-3.161-.243-14.952-.243-18.8,0a109.354,109.354,0,0,0-30.674,6.037c-.405.162-.77.284-1.135.405a164.919,164.919,0,0,0-19.085-21.759c-25.973-24.6-45.3-23.177-45.3-23.177-11.427,8.874-7.537,38.778-1.621,64.062,3.89,16.735,8.671,31.443,10.454,36.752a9.156,9.156,0,0,1-.446.891c-9.441,19.125-14.547,37.562-15.762,57.174,10.576-1.54,39.71-3.282,61.55,20.22,0,0,14.425-38.089,53.324-38.089s47.206,38.089,47.206,38.089a86.361,86.361,0,0,1,63.252-19.571C1220.291,390.695,1220.21,389.479,1220.129,388.263Zm-201.263-70.748s-15.155-37.886-11.265-59.524h0a20.88,20.88,0,0,1,3.768-9.279s17.181,1.7,44.9,32.5a79.212,79.212,0,0,0-12.318,7.982.142.142,0,0,1-.081.041,97.419,97.419,0,0,0-25,28.283Zm64.305,56.282c-.243.486-1.459,1.013-2.836,1.216a45.831,45.831,0,0,1-7.982-.2A83.887,83.887,0,0,1,1048,367.8a30.67,30.67,0,0,1-8.388-5.632l-1.135-1.175-.122-1.54a42.346,42.346,0,0,1,.162-8.388,11,11,0,0,1,1.256-3.566c.324-.405.324-.405,1.783-.405a17.536,17.536,0,0,1,5.713,1.054c4.984,1.54,12.4,5.268,21.435,10.7,7.455,4.457,10.251,6.645,12.4,9.644C1082.563,370.353,1083.536,372.987,1083.171,373.8Zm95.465-13.412c-.122.648-2.026,2.593-3.93,4.011-5.592,4.093-15.6,7.9-25.771,9.725-5.794,1.053-11.589,1.216-13.331.365-1.134-.567-1.3-1.013-.891-2.472.851-3.039,3.606-6.362,7.9-9.482,2.188-1.58,11.062-6.969,15.2-9.239,6.807-3.728,12.318-5.956,16.046-6.483a8.241,8.241,0,0,1,3.039,0c.729.284,1.54,2.431,1.864,5.025A66.1,66.1,0,0,1,1178.636,360.386Zm-6.726-71.194-.081-.041a75.651,75.651,0,0,0-11.913-7.982c26.784-30.8,43.356-32.5,43.356-32.5a21.979,21.979,0,0,1,3.647,9.279h0c3.768,21.638-10.859,59.564-10.859,59.564a96.515,96.515,0,0,0-24.15-28.323Z" transform="translate(-24.702 0)" fill="#ffa409"/>
      <path id="Path_8583" d="M1377.3,343.2c-.081.081-.122.2-.2.284" transform="translate(-251.975 -66.164)" fill="none"/>
      <path id="Path_8584" d="M1508.684,476.9c-.2.567-.284.851-.284.851" transform="translate(-330.073 -145.689)" fill="none"/>
      <g id="Group_934" transform="translate(1135.214 248.672)">
        <g id="Group_933" transform="translate(0)">
          <g id="Group_932">
            <path id="Path_8585" d="M1449.044,282.479c-3.161-.405-18.112-.486-35.05,31.241l-.081-.041A75.665,75.665,0,0,0,1402,305.7c26.784-30.8,43.356-32.5,43.356-32.5A21.5,21.5,0,0,1,1449.044,282.479Z" transform="translate(-1402 -273.2)" fill="#ff9300"/>
          </g>
          <path id="Path_8586" d="M1455.791,355.546a96.142,96.142,0,0,0-24.19-28.323c16.937-31.727,31.849-31.646,35.05-31.241h0C1470.418,317.66,1455.791,355.546,1455.791,355.546Z" transform="translate(-1419.606 -286.703)" fill="#ff8300"/>
          <path id="Path_8587" d="M1518.708,296.222l-.608-.122Z" transform="translate(-1471.056 -286.821)" fill="#ff8300"/>
        </g>
      </g>
      <path id="Path_8588" d="M1173.256,344.6c-.405-.567-.851-1.135-1.256-1.7" transform="translate(-129.982 -65.986)" fill="none"/>
      <path id="Path_8589" d="M1035,480.8c.446,1.378.729,2.107.729,2.107" transform="translate(-48.494 -148.008)" fill="none"/>
      <g id="Group_937" transform="translate(982.251 248.672)">
        <g id="Group_936" transform="translate(0)">
          <g id="Group_935" transform="translate(0.608)">
            <path id="Path_8590" d="M1074.7,305.7a79.213,79.213,0,0,0-12.318,7.982.14.14,0,0,1-.081.041c-17.545-31.768-32.983-31.646-36.306-31.241a20.877,20.877,0,0,1,3.768-9.279C1029.809,273.2,1046.989,274.9,1074.7,305.7Z" transform="translate(-1026 -273.2)" fill="#ff9300"/>
          </g>
          <path id="Path_8591" d="M1061.469,327.223a97.122,97.122,0,0,0-25.042,28.323s-15.154-37.886-11.264-59.564h0C1028.445,295.577,1043.923,295.5,1061.469,327.223Z" transform="translate(-1024.514 -286.703)" fill="#ff8300"/>
          <path id="Path_8592" d="M1025.148,296.1c-.2.041-.446.081-.648.122Z" transform="translate(-1024.5 -286.821)" fill="#ff8300"/>
        </g>
      </g>
      <path id="Path_8593" d="M1373.24,465.164s-12.966.81-11.345-9.32,11.751-11.346,14.587-10.94,14.182,4.457,12.156,12.966-4.862,6.888-6.483,7.294S1373.24,465.164,1373.24,465.164Z" transform="translate(-242.848 -126.618)" fill="#fff"/>
      <path id="Path_8594" d="M1137.24,465.164s-12.966.81-11.346-9.32,11.751-11.346,14.587-10.94,14.182,4.457,12.156,12.966-4.862,6.888-6.483,7.294S1137.24,465.164,1137.24,465.164Z" transform="translate(-102.475 -126.618)" fill="#fff"/>
    </g>
  </g>
</svg>
