<svg xmlns="http://www.w3.org/2000/svg" viewBox="0 0 53.94 53.94">
  <g id="Group_3564" data-name="Group 3564" transform="translate(-1152.938 -255.938)">
    <path id="Path_11801" data-name="Path 11801" d="M1192.023,255.938a2.82,2.82,0,0,1,2.152,2.014,4.328,4.328,0,0,1,.1,1.043q.009,8.059,0,16.117a3.654,3.654,0,0,1-.022.473.876.876,0,0,1-1.747.017,4.1,4.1,0,0,1-.031-.629q0-7.927,0-15.854c0-1.142-.242-1.38-1.4-1.38H1156.11c-1.115,0-1.378.259-1.378,1.355q0,23.807,0,47.614c0,1.115.256,1.376,1.355,1.376h35.026c1.114,0,1.367-.249,1.367-1.355q0-4.029,0-8.059a2.828,2.828,0,0,1,.069-.729.87.87,0,0,1,1.682.058,3.328,3.328,0,0,1,.046.681c0,2.563-.052,5.128.021,7.689.049,1.7-.478,2.94-2.173,3.51H1155.15a3.066,3.066,0,0,1-2.212-2.212V258.15a3.122,3.122,0,0,1,2.212-2.212Z" fill="currentColor" fill-rule="evenodd"/>
    <path id="Path_11802" data-name="Path 11802" d="M1377.38,355.264l-.766,1.651c.571.507.385,1.061.029,1.653-.676,1.125-1.318,2.27-2,3.444.247.149.469.281.688.415a2.675,2.675,0,0,1,1.042,3.767c-1.138,2.036-2.32,4.047-3.492,6.063a.912.912,0,0,1-1.277.462c-.476-.268-.58-.782-.243-1.373,1.061-1.858,2.133-3.709,3.2-5.563.7-1.211.561-1.6-.8-2.193-.095.155-.2.313-.29.476-2.154,3.738-4.336,7.46-6.445,11.223a32.408,32.408,0,0,1-2.956,4.081q-1.182,1.507-2.25,3.1a2.888,2.888,0,0,1-2.833,1.442.76.76,0,0,0-.551.253c-.6.712-1.155,1.458-1.743,2.179a1.8,1.8,0,0,1-3.251-.468c-.155-.369-.3-.741-.48-1.177-.114.147-.2.244-.27.35a1.881,1.881,0,0,1-2.05.946,1.914,1.914,0,0,1-1.4-1.889,30.266,30.266,0,0,0-.356-3.051c-.058.147-.123.291-.172.44-.636,1.912-1.264,3.826-1.907,5.736-.244.724-.825.959-1.382.579a.865.865,0,0,1-.345-1.066c.731-2.213,1.456-4.427,2.216-6.629a1.779,1.779,0,0,1,3.436.373c.142,1.163.224,2.332.34,3.593.2-.262.336-.471.5-.663a1.75,1.75,0,0,1,2.891.237c.282.5.473,1.049.725,1.622.635-.778,1.251-1.518,1.845-2.277a.465.465,0,0,0,.01-.408,2.745,2.745,0,0,1,.078-2.81,45.52,45.52,0,0,0,2.536-6.109,7.828,7.828,0,0,1,.446-.949q3.53-6.133,7.071-12.259c.095-.165.186-.332.278-.5-1.171-.826-1.384-1.17-1.071-1.7s.7-.514,1.992.081c.087-.134.185-.272.269-.416.631-1.073,1.264-2.146,1.887-3.224a1.073,1.073,0,0,1,1.108-.63.667.667,0,0,0,.473-.331,2.971,2.971,0,0,1,1.958-1.629,2.7,2.7,0,0,1,3.184,1.857c.036.114.08.226.121.338Zm-8.306,5.583-7.19,12.459L1365,375.1l7.186-12.452Zm5.806-2.867-3.11-1.794-1.8,3.107,3.109,1.8Zm-13.241,21.409,2.327-2.81-2.828-1.634-1.272,3.409Zm13.387-23.406c.255-.6.834-1.067.377-1.691a1.153,1.153,0,0,0-.882-.387c-.665.055-.753.715-1.082,1.17ZM1359.12,380.03c-.288.577-.817,1.051-.392,1.674a1.1,1.1,0,0,0,.827.4c.694-.035.807-.694,1.127-1.178Z" transform="translate(-170.502 -85.315)" fill="currentColor" fill-rule="evenodd"/>
    <path id="Path_11803" data-name="Path 11803" d="M1226.807,305.722v1.8h.7q10.587,0,21.173,0a3.674,3.674,0,0,1,.783.062.869.869,0,0,1-.042,1.694,3.642,3.642,0,0,1-.629.041q-11.245,0-22.49,0c-1.082,0-1.321-.245-1.322-1.34q0-1.343,0-2.686c0-1.114.254-1.372,1.354-1.372h11.535q5.451,0,10.9,0a2.935,2.935,0,0,1,.728.074.793.793,0,0,1,.619.866.811.811,0,0,1-.736.828,4.641,4.641,0,0,1-.683.028h-21.893Z" transform="translate(-63.946 -42.592)" fill="currentColor" fill-rule="evenodd"/>
    <path id="Path_11804" data-name="Path 11804" d="M1192.549,567.794a7.862,7.862,0,0,1,4.385,1.451.912.912,0,0,1,.356,1.271.882.882,0,0,1-1.331.222,6.182,6.182,0,0,0-3.448-1.123,5.838,5.838,0,1,0,5.724,6.845c.051-.31.067-.626.1-.94a.921.921,0,0,1,.971-.951c.51.037.817.423.82,1.032a7.631,7.631,0,1,1-8.776-7.682C1191.747,567.869,1192.149,567.835,1192.549,567.794Z" transform="translate(-28.323 -276.807)" fill="currentColor" fill-rule="evenodd"/>
    <path id="Path_11805" data-name="Path 11805" d="M1291.845,425.683q-4.684,0-9.369,0a3.624,3.624,0,0,1-.63-.028.873.873,0,0,1-.136-1.681,2.2,2.2,0,0,1,.673-.085q9.5-.006,19,0a2.45,2.45,0,0,1,.623.067.8.8,0,0,1,.643.9.811.811,0,0,1-.754.809,3.969,3.969,0,0,1-.578.022Z" transform="translate(-113.785 -149.072)" fill="currentColor" fill-rule="evenodd"/>
    <path id="Path_11806" data-name="Path 11806" d="M1218.9,473.7h-8.365a5.226,5.226,0,0,1-.578-.017.884.884,0,0,1,0-1.767,4.038,4.038,0,0,1,.525-.019q8.5,0,16.993,0a2.862,2.862,0,0,1,.729.067.87.87,0,0,1-.045,1.682,3.252,3.252,0,0,1-.679.05Q1223.193,473.7,1218.9,473.7Z" transform="translate(-49.851 -191.687)" fill="currentColor" fill-rule="evenodd"/>
    <path id="Path_11807" data-name="Path 11807" d="M1258.995,368h8.419c.175,0,.351-.006.526.008a.9.9,0,0,1,.925.881.913.913,0,0,1-.91.9,4.873,4.873,0,0,1-.526.011q-8.445,0-16.89,0a3.855,3.855,0,0,1-.731-.056.87.87,0,0,1,.035-1.705,3.9,3.9,0,0,1,.629-.038Q1254.733,368,1258.995,368Z" transform="translate(-85.377 -99.466)" fill="currentColor" fill-rule="evenodd"/>
    <path id="Path_11808" data-name="Path 11808" d="M1214.424,513.647c-1.439,0-2.878,0-4.318,0-.583,0-.935-.259-1.022-.711a.9.9,0,0,1,.98-1.077c.772-.019,1.544-.005,2.317-.005h6.108a3.886,3.886,0,0,1,.474.011.915.915,0,0,1,.86.9.88.88,0,0,1-.923.878c-1,.018-2,.007-3,.008Z" transform="translate(-49.82 -227.147)" fill="currentColor" fill-rule="evenodd"/>
    <path id="Path_11809" data-name="Path 11809" d="M1223.772,615.941c.971-.979,1.892-1.91,2.816-2.838a3.071,3.071,0,0,1,.423-.392.838.838,0,0,1,1.149.073.823.823,0,0,1,.1,1.144,4.24,4.24,0,0,1-.5.54c-.853.858-1.7,1.718-2.563,2.567a1.828,1.828,0,0,1-2.822.006q-.827-.809-1.635-1.636a.932.932,0,0,1-.128-1.391c.387-.393.9-.361,1.387.117C1222.582,614.706,1223.148,615.3,1223.772,615.941Z" transform="translate(-59.839 -316.504)" fill="currentColor" fill-rule="evenodd"/>
    <path id="Path_11810" data-name="Path 11810" d="M1405.135,473.7c-.929,0-1.857,0-2.786,0a2.707,2.707,0,0,1-.574-.048.873.873,0,0,1-.056-1.685,2.041,2.041,0,0,1,.571-.066q2.839-.007,5.678,0a2.222,2.222,0,0,1,.468.049.833.833,0,0,1,.7.9.792.792,0,0,1-.748.808c-.469.045-.944.036-1.417.04C1406.362,473.7,1405.748,473.7,1405.135,473.7Z" transform="translate(-220.271 -191.685)" fill="currentColor" fill-rule="evenodd"/>
    <path id="Path_11811" data-name="Path 11811" d="M1324.934,513.666c-.982,0-1.964.005-2.946,0-.661,0-1.082-.364-1.076-.9s.425-.891,1.09-.894q2.946-.011,5.892,0c.67,0,1.086.349,1.1.882.014.551-.412.906-1.113.91C1326.9,513.67,1325.916,513.666,1324.934,513.666Z" transform="translate(-149.095 -227.166)" fill="currentColor" fill-rule="evenodd"/>
  </g>
</svg>
