<svg xmlns="http://www.w3.org/2000/svg" viewBox="0 0 65.5 65.5">
  <g id="Group_3285" data-name="Group 3285" transform="translate(-1317.688 -196.704)">
    <path id="Path_10313" data-name="Path 10313" d="M1357.674,196.954h13.71c.833.644.906.971.424,1.938-.339.681-.683,1.359-1.022,2.04-.428.858-.854,1.717-1.29,2.6a2.223,2.223,0,0,0,.308.107,11.993,11.993,0,0,1,9.894,12.249c-.1,4.461-.01,8.926-.03,13.389a1.038,1.038,0,0,0,.574,1.068,5.017,5.017,0,0,1,2.7,3.178v1.4l-.49,1.194.49.583v1.4c-.042.161-.1.319-.124.483a9.539,9.539,0,0,1-1.956,4.463c-.415.521-.893.99-1.436,1.584.717,0,1.337.028,1.954-.008a1.58,1.58,0,0,1,1.562.714v16.631h-39.355a2.107,2.107,0,0,0-.358-.1,13.324,13.324,0,0,1-4.542-1.321q-6.414-3.183-12.809-6.4a4.333,4.333,0,0,1-2.427-3.226,4.748,4.748,0,0,1,1.356-4.475c-.062-.057-.088-.095-.123-.109-.116-.049-.237-.089-.354-.134a9.513,9.513,0,0,1-5.551-5.26,23.719,23.719,0,0,1-.836-2.836V216.124a10.32,10.32,0,0,1,.718-.79q5.064-4.572,10.134-9.136a2.135,2.135,0,0,1,1.537-.6c5.67.015,11.34.05,17.009-.022a3.835,3.835,0,0,1,2.917,1.4l-1.227,1.5a5.458,5.458,0,0,0-1.685-.68c-4.654-.05-9.308-.029-13.962-.027-.173,0-.346.025-.575.042a1.95,1.95,0,0,0,.167.223q3.937,3.546,7.886,7.08a1.212,1.212,0,0,0,.739.234c1.629.02,3.258.01,4.887.01h.655v2.167h-5.315v18.411h4.643c-.745-2.518-.237-3.905,1.9-5.326a3.254,3.254,0,0,1,.426-.274.994.994,0,0,0,.573-1.069q-.027-6.855-.006-13.709a11.918,11.918,0,0,1,9.321-11.828l.877-.2c-.8-1.6-1.565-3.125-2.328-4.655C1356.745,197.919,1356.826,197.579,1357.674,196.954Zm2.145,2.195c.115.255.2.465.3.667.661,1.323,1.332,2.641,1.988,3.967.537,1.085.128,1.782-1.072,1.833a9.792,9.792,0,0,0-9.511,9.962c0,4.845-.009,9.69.008,14.536a1.609,1.609,0,0,1-.838,1.572c-.531.3-1.028.668-1.534,1.014a1.738,1.738,0,0,0,.986,3.243c.317.006.635,0,.952,0q13.838,0,27.675,0a1.758,1.758,0,0,0,1-3.322c-.437-.3-.861-.621-1.324-.872a1.766,1.766,0,0,1-.956-1.767c.024-4.972.054-9.945-.01-14.916a9.59,9.59,0,0,0-7.052-9.061,15.523,15.523,0,0,0-2.563-.386c-.991-.1-1.442-.783-1.013-1.675.587-1.218,1.208-2.419,1.813-3.629.186-.372.366-.748.571-1.166Zm6.838,60.642c.013-.169.028-.271.028-.372,0-4.21,0-8.421.01-12.631a.624.624,0,0,0-.441-.657,14.242,14.242,0,0,0-12.725.139,4.779,4.779,0,0,1-2.239.532c-2.369-.031-4.74-.04-7.108.011a3.218,3.218,0,0,0-1.589.48,2.013,2.013,0,0,0-.714,2.322,2.168,2.168,0,0,0,2.187,1.51c2.666.014,5.332,0,8,.006a4.994,4.994,0,0,1,.7.022,1.061,1.061,0,0,1,.249,2.031,2.122,2.122,0,0,1-.745.109c-3.385.007-6.771.013-10.156-.008a2.965,2.965,0,0,1-1.153-.273c-1.967-.878-3.92-1.789-5.879-2.685-2.017-.923-4.027-1.863-6.055-2.759a2.437,2.437,0,0,0-3.461,1.778,2.572,2.572,0,0,0,1.524,2.967q6.146,3.082,12.3,6.151a12.607,12.607,0,0,0,5.75,1.331q10.41-.015,20.82,0Zm14.013-21.637h-60.457c.032.213.047.379.083.54a7.575,7.575,0,0,0,7.686,5.918q11.771.009,23.542-.028a2.153,2.153,0,0,0,.9-.208,16.476,16.476,0,0,1,15.192.024,2.036,2.036,0,0,0,.844.206c1.523.02,3.046.006,4.569.009a7.51,7.51,0,0,0,5.076-1.828A7.382,7.382,0,0,0,1380.671,238.154Zm-60.57-2.267h5.432c0-2.466,0-4.875,0-7.285,0-.937.375-1.308,1.3-1.31q3.014-.007,6.029,0c.927,0,1.316.387,1.319,1.307.006,2.179,0,4.358,0,6.536v.772h5.388c.015-.2.037-.362.038-.526,0-5.986.007-11.973-.016-17.96a1.3,1.3,0,0,0-.406-.842c-2.767-2.522-5.554-5.021-8.338-7.525-.326-.293-.661-.576-1.005-.876-.217.19-.394.34-.565.5q-4.363,3.926-8.732,7.846a1.236,1.236,0,0,0-.459,1.029q.022,8.853.01,17.706Zm60.641,23.87v-12.92h-11.858v12.92Zm-48.761-23.84V229.5h-4.236v6.419Zm.951,10.9-.021.132,6.62,3.031.441-3.163Z" transform="translate(0 0)" fill="currentColor" stroke="#181c3a" stroke-width="0.5" fill-rule="evenodd"/>
    <path id="Path_10314" data-name="Path 10314" d="M1794.566,478.337l-.3-.363.3-.743Z" transform="translate(-411.628 -241.915)" fill="currentColor" stroke="#181c3a" stroke-width="0.5" fill-rule="evenodd"/>
    <path id="Path_10315" data-name="Path 10315" d="M1625.895,318.666v1.305h-1.334v-1.308h-2V317.3h.419c1.027,0,2.053,0,3.08,0a1.035,1.035,0,0,0,1.173-1c.009-.619-.455-1.025-1.184-1.03-.619,0-1.238.008-1.856,0a2.349,2.349,0,0,1-.113-4.7c.141-.01.283-.018.463-.029v-1.307h1.329v1.3h2.016v1.372h-2.26c-.448,0-.9-.007-1.343,0a1.006,1.006,0,1,0,0,2.006c.605.007,1.211,0,1.816,0a2.365,2.365,0,1,1,.045,4.726C1626.086,318.651,1626.021,318.657,1625.895,318.666Z" transform="translate(-259.638 -94.998)" fill="currentColor" stroke="#181c3a" stroke-width="0.5" fill-rule="evenodd"/>
    <path id="Path_10316" data-name="Path 10316" d="M1385.848,351.189c0,.539.01,1.079,0,1.618a.679.679,0,0,1-.763.753q-1.263.013-2.526,0a.678.678,0,0,1-.749-.732q-.019-1.638,0-3.276a.669.669,0,0,1,.729-.711q1.283-.017,2.566,0a.668.668,0,0,1,.742.732C1385.859,350.11,1385.848,350.65,1385.848,351.189Zm-2.674.978h1.292v-1.961h-1.292Z" transform="translate(-58.478 -130.278)" fill="currentColor" stroke="#181c3a" stroke-width="0.5" fill-rule="evenodd"/>
    <path id="Path_10317" data-name="Path 10317" d="M1711.2,613.012a1.319,1.319,0,0,1,1.345,1.343,1.343,1.343,0,0,1-1.353,1.346,1.367,1.367,0,0,1-1.336-1.334A1.341,1.341,0,0,1,1711.2,613.012Z" transform="translate(-334.337 -356.441)" fill="currentColor" stroke="#181c3a" stroke-width="0.5" fill-rule="evenodd"/>
  </g>
</svg>
