<svg xmlns="http://www.w3.org/2000/svg" width="24.442" height="23.411" viewBox="0 0 24.442 23.411">
  <g id="Group_3923" data-name="Group 3923" transform="translate(0 0)">
    <path id="Path_13247" data-name="Path 13247" d="M505-6.924c.065-.133.12-.272.2-.4a1.412,1.412,0,0,1,1.207-.645c2.193-.192,4.385-.393,6.578-.582a.38.38,0,0,0,.362-.269c.874-2.061,1.758-4.119,2.633-6.179a1.29,1.29,0,0,1,1.253-.893,1.287,1.287,0,0,1,1.232.888c.87,2.046,1.75,4.087,2.614,6.136a.457.457,0,0,0,.449.322q3.373.294,6.743.612a1.215,1.215,0,0,1,1.109.909,1.229,1.229,0,0,1-.393,1.361q-2.137,1.888-4.285,3.762c-.3.262-.6.528-.9.785a.262.262,0,0,0-.1.3q.762,3.319,1.508,6.642a1.307,1.307,0,0,1-2,1.452c-1.928-1.157-3.86-2.308-5.786-3.468a.338.338,0,0,0-.405,0c-1.927,1.159-3.864,2.3-5.785,3.469a1.313,1.313,0,0,1-2.006-.7,1.447,1.447,0,0,1,0-.73c.5-2.19.995-4.382,1.5-6.57a.406.406,0,0,0-.152-.464c-1.68-1.462-3.349-2.935-5.029-4.4A1.9,1.9,0,0,1,505-6.4Z" transform="translate(-504.998 15.891)" fill="#fec007" fill-rule="evenodd"/>
  </g>
</svg>
