<svg xmlns="http://www.w3.org/2000/svg" viewBox="0 0 44.82 38.154">
  <g id="Group_4350" data-name="Group 4350" transform="translate(-585.674 -75.12)">
    <path id="Path_13363" data-name="Path 13363" d="M630.494,148.184c-.067.219-.13.439-.2.657a4.017,4.017,0,0,1-3.6,2.74c-.146.009-.292.009-.437.009q-18.171,0-36.341,0a4.039,4.039,0,0,1-4.022-2.708c-.08-.23-.146-.465-.218-.7V127.262c.23-.276.469-.531.882-.369s.432.5.432.866q0,9.76,0,19.52a2.718,2.718,0,0,0,3.013,3h36.194a2.713,2.713,0,0,0,2.989-2.98q0-12.254,0-24.509a2.718,2.718,0,0,0-2.934-2.956c-.2,0-.462.009-.579-.106a1.012,1.012,0,0,1-.3-.658c0-.321.276-.49.6-.534a4.079,4.079,0,0,1,4.355,2.85c.061.207.115.416.173.624Z" transform="translate(0 -38.317)" fill="currentColor" fill-rule="evenodd"/>
    <path id="Path_13364" data-name="Path 13364" d="M585.674,78.527a4.621,4.621,0,0,1,1.248-2.3,3.881,3.881,0,0,1,2.688-1.1q6.5-.02,12.995,0a4.127,4.127,0,0,1,2.031.6c2.386,1.345,4.779,2.677,7.163,4.025a3.348,3.348,0,0,0,1.749.462q1.356-.024,2.713,0c.61.011.968.56.639.991a.854.854,0,0,1-.581.3,31.128,31.128,0,0,1-3.279-.019,4.623,4.623,0,0,1-1.77-.548c-2.42-1.312-4.814-2.674-7.21-4.03a3.607,3.607,0,0,0-1.833-.48q-6.148.013-12.295,0a2.7,2.7,0,0,0-2.945,2.933q0,3.413,0,6.826c0,.536-.223.875-.618.816-.247-.037-.463-.278-.693-.428Z" transform="translate(0)" fill="currentColor" fill-rule="evenodd"/>
    <path id="Path_13365" data-name="Path 13365" d="M696.2,180.979a9.511,9.511,0,0,1,12.074-9.123c.444.13.66.411.58.782a.622.622,0,0,1-.657.526,1.9,1.9,0,0,1-.469-.1,8.086,8.086,0,0,0-9.377,4.4,8.146,8.146,0,0,0,9.411,11.375,7.861,7.861,0,0,0,5.972-6.411,7.653,7.653,0,0,0-.063-3.257c-.119-.548.039-.883.44-.983s.7.155.832.683a9.468,9.468,0,1,1-18.547,3.8C696.289,182.114,696.265,181.543,696.2,180.979Z" transform="translate(-97.625 -85.111)" fill="currentColor" fill-rule="evenodd"/>
    <path id="Path_13366" data-name="Path 13366" d="M745.389,156.458l-1.412-1.3c-.078.073-.214.2-.345.323l-8.121,7.964c-.827.81-1.255.8-2.039-.028l-.9-.956c-.091.074-.162.125-.225.184-.446.417-.891.836-1.371,1.287.436.471.858.927,1.28,1.381a7.848,7.848,0,0,1,.771.834,1.634,1.634,0,0,0,1.678.731,1.14,1.14,0,0,0,.765-.322c1.072-1.072,2.151-2.139,3.251-3.182a1.051,1.051,0,0,1,.717-.3.625.625,0,0,1,.3,1.1c-.6.618-1.222,1.212-1.836,1.814-.593.582-1.19,1.161-1.781,1.746a1.341,1.341,0,0,1-1.1.434,8.112,8.112,0,0,0-1.18,0,1.336,1.336,0,0,1-1.129-.459c-.957-1.022-1.921-2.037-2.867-3.068a.989.989,0,0,1,.057-1.511q.945-.911,1.916-1.794a1.014,1.014,0,0,1,1.576.072c.364.377.717.765,1.2,1.277a9.842,9.842,0,0,1,.7-.862q3.91-3.854,7.836-7.693c.695-.681,1.167-.673,1.859.03.542.551,1.088,1.1,1.624,1.655a1.043,1.043,0,0,1-.016,1.644q-2.353,2.318-4.716,4.626c-.372.364-.747.39-1.036.092s-.234-.654.124-1.033C742.428,159.6,743.887,158.053,745.389,156.458Z" transform="translate(-127.056 -69.35)" fill="currentColor" fill-rule="evenodd"/>
    <path id="Path_13367" data-name="Path 13367" d="M737.259,216.08a12.171,12.171,0,0,1-12.984,12.083,11.827,11.827,0,0,1-5.554-1.806c-.528-.33-.671-.689-.426-1.059.234-.353.6-.372,1.113-.056a10.778,10.778,0,0,0,15.98-5.871,10.563,10.563,0,0,0-.087-6.828c-.042-.124-.089-.247-.128-.372a.66.66,0,0,1,.351-.871.639.639,0,0,1,.871.431,18.37,18.37,0,0,1,.606,2.14C737.143,214.6,737.177,215.342,737.259,216.08Z" transform="translate(-117.036 -120.238)" fill="currentColor" fill-rule="evenodd"/>
    <path id="Path_13368" data-name="Path 13368" d="M861.233,87.5a3.559,3.559,0,0,1,.644-.861,6.593,6.593,0,0,0,1.683-1.693,1.1,1.1,0,0,1,1.9.038,5.269,5.269,0,0,0,1.712,1.656,1.113,1.113,0,0,1,.05,1.972,6.62,6.62,0,0,0-1.737,1.7,1.1,1.1,0,0,1-1.919-.075,4.484,4.484,0,0,0-1.671-1.687,1.045,1.045,0,0,1-.552-.978Zm1.947.049,1.5,1.452,1.374-1.479-1.469-1.4Z" transform="translate(-243.392 -8.213)" fill="currentColor" fill-rule="evenodd"/>
    <path id="Path_13369" data-name="Path 13369" d="M886.653,313.925a3.3,3.3,0,0,1-.609.838,7.458,7.458,0,0,0-1.8,1.767,1.1,1.1,0,0,1-1.894-.074,4.892,4.892,0,0,0-1.7-1.723,1.093,1.093,0,0,1-.023-1.893,6.088,6.088,0,0,0,1.72-1.715,1.083,1.083,0,0,1,1.842,0A5.434,5.434,0,0,0,886,312.871,1.414,1.414,0,0,1,886.653,313.925Zm-4.719-.151,1.515,1.438,1.226-1.316-1.348-1.533Z" transform="translate(-260.054 -208.004)" fill="currentColor" fill-rule="evenodd"/>
    <path id="Path_13370" data-name="Path 13370" d="M675.629,205.566c.539-.012.793.463.612,1a18.354,18.354,0,0,0-.8,2.623,10.514,10.514,0,0,0,2.408,8.894c.093.112.2.217.28.336a.642.642,0,0,1-.105.9.591.591,0,0,1-.866-.053,10.959,10.959,0,0,1-1.043-1.291A11.96,11.96,0,0,1,675,206.118C675.13,205.815,675.305,205.586,675.629,205.566Z" transform="translate(-77.952 -115.219)" fill="currentColor" fill-rule="evenodd"/>
    <path id="Path_13371" data-name="Path 13371" d="M680.285,154.78a3.86,3.86,0,0,1-.842-.682,4.388,4.388,0,0,0-1.342-1.343,1.046,1.046,0,0,1-.062-1.762,13.013,13.013,0,0,0,1.407-1.4,1.039,1.039,0,0,1,1.71.035,4.813,4.813,0,0,0,1.464,1.407,1.038,1.038,0,0,1,.059,1.735c-.53.466-1,1-1.525,1.473A6.045,6.045,0,0,1,680.285,154.78Zm.049-3.976-1.043,1.055,1.162,1.09.987-1.094Z" transform="translate(-81.184 -65.397)" fill="currentColor" fill-rule="evenodd"/>
    <path id="Path_13372" data-name="Path 13372" d="M739.13,149.21a11.861,11.861,0,0,1,4.718.961c.314.133.561.358.476.687a1.169,1.169,0,0,1-.5.572c-.106.07-.341,0-.495-.063a10.79,10.79,0,0,0-8.3-.053.677.677,0,0,1-.957-.316c-.156-.379.029-.714.5-.908A11.776,11.776,0,0,1,739.13,149.21Z" transform="translate(-131.024 -65.441)" fill="currentColor" fill-rule="evenodd"/>
  </g>
</svg>
