<svg xmlns="http://www.w3.org/2000/svg" viewBox="0 0 21.747 21.741">
  <g id="Group_4352" data-name="Group 4352" transform="translate(-786.5 -62.706)">
    <path id="Path_12139" data-name="Path 12139" d="M786.5,73.608a10.873,10.873,0,0,1,8.99-10.728,10.644,10.644,0,0,1,4.5.147.853.853,0,0,1,.71,1.012.841.841,0,0,1-1.089.613,9.18,9.18,0,1,0,6.843,10.367,9.368,9.368,0,0,0-.157-3.678.842.842,0,0,1,.609-1.092.854.854,0,0,1,1.015.706,10.852,10.852,0,1,1-21.2,4.594C786.61,74.908,786.572,74.255,786.5,73.608Z" transform="translate(0 0)" fill="currentColor" fill-rule="evenodd"/>
    <path id="Path_12140" data-name="Path 12140" d="M884.2,97.986a2.637,2.637,0,0,1,.216-.3q4.548-4.553,9.1-9.1a.945.945,0,0,1,.651-.341.834.834,0,0,1,.7,1.344,2.064,2.064,0,0,1-.215.228L885.1,99.359c-.111.111-.216.227-.329.336a.822.822,0,0,1-1.191,0q-1.756-1.752-3.5-3.512a.836.836,0,1,1,1.191-1.168q1.342,1.335,2.677,2.676C884.016,97.759,884.073,97.836,884.2,97.986Z" transform="translate(-86.799 -23.758)" fill="currentColor" fill-rule="evenodd"/>
  </g>
</svg>
