<svg xmlns="http://www.w3.org/2000/svg" viewBox="0 0 30.302 30.296">
  <g id="Convert_4x" data-name="Convert@4x" transform="translate(-0.094 560.643)">
    <path id="Path_54" data-name="Path 54" d="M13.861-560.608a15.163,15.163,0,0,0-9.338,4.38,15.005,15.005,0,0,0-4.191,7.976,15.91,15.91,0,0,0,.168,6.31,16.808,16.808,0,0,0,1.887,4.5,16.735,16.735,0,0,0,3.233,3.661,15.145,15.145,0,0,0,12.231,3.206,13.944,13.944,0,0,0,4.109-1.352,15.067,15.067,0,0,0,8.105-10.4,15.367,15.367,0,0,0-1.011-9.452,14.677,14.677,0,0,0-3.169-4.5,14.79,14.79,0,0,0-8.468-4.223A21.154,21.154,0,0,0,13.861-560.608Zm2.963.946a14.115,14.115,0,0,1,8.489,4.1,13.5,13.5,0,0,1,2.709,3.79,14.075,14.075,0,0,1,1.265,8.673A14.356,14.356,0,0,1,25.27-535.4,14.222,14.222,0,0,1,11.3-531.81a14.527,14.527,0,0,1-7.273-4.915,14.278,14.278,0,0,1-2.871-6.559,19.314,19.314,0,0,1-.027-4.293,18.621,18.621,0,0,1,.714-2.79,15.761,15.761,0,0,1,2.336-4.1,18.364,18.364,0,0,1,2.287-2.255,14.447,14.447,0,0,1,7.137-2.936A17.756,17.756,0,0,1,16.824-559.662Z" transform="translate(0)" fill="currentColor"/>
    <path id="Path_55" data-name="Path 55" d="M141.211-451.807c-.184.178-.173.319.076,1.157a4.774,4.774,0,0,1,.178.708,4.966,4.966,0,0,1-.487-.195,9.441,9.441,0,0,0-2.217-.568,10.876,10.876,0,0,0-2.725.108,8.581,8.581,0,0,0-4.418,2.471,8.474,8.474,0,0,0-2,8.143c.141.525.281.692.562.692.362,0,.524-.314.384-.741a7.711,7.711,0,0,1-.054-4.374,9.3,9.3,0,0,1,.962-2.066,7.724,7.724,0,0,1,3.309-2.763,7.107,7.107,0,0,1,3-.6,7.153,7.153,0,0,1,2.157.3,6.275,6.275,0,0,1,1.406.616,5.294,5.294,0,0,1-.633.46c-.833.546-.881.595-.881.844,0,.287.151.454.411.449.178,0,.368-.1,1.211-.665,1.217-.811,1.244-.838,1.244-1.076a13.466,13.466,0,0,0-.379-1.492c-.308-1.06-.406-1.325-.519-1.427A.413.413,0,0,0,141.211-451.807Z" transform="translate(-122.224 -102.826)" fill="currentColor"/>
    <path id="Path_56" data-name="Path 56" d="M195.6-342.876c-.151.162-.151.292.016.914a6.721,6.721,0,0,1,.249,1.99,7.107,7.107,0,0,1-.708,3.174,7.642,7.642,0,0,1-4.731,4.044,7.589,7.589,0,0,1-4.547-.114,5.809,5.809,0,0,1-1.157-.53c0-.011.33-.233.73-.5.752-.5.881-.643.816-.914a.489.489,0,0,0-.406-.351c-.178,0-.46.168-1.546.9-.622.422-.881.627-.914.73s.027.422.351,1.541a11.3,11.3,0,0,0,.492,1.487.451.451,0,0,0,.741-.141c.065-.141.054-.222-.151-.919-.124-.416-.222-.779-.222-.806s.092.005.205.065a9.937,9.937,0,0,0,1.92.611,9.88,9.88,0,0,0,3.217-.005,8.108,8.108,0,0,0,4.342-2.33,8.2,8.2,0,0,0,2.325-4.272,6.633,6.633,0,0,0,.124-1.73,5.752,5.752,0,0,0-.151-1.811c-.243-1.044-.314-1.163-.7-1.163A.4.4,0,0,0,195.6-342.876Z" transform="translate(-173.382 -205.875)" fill="currentColor"/>
  </g>
</svg>
