<svg xmlns="http://www.w3.org/2000/svg" viewBox="0 0 33.938 37.133">
  <g id="Group_105" data-name="Group 105" transform="translate(-1355.746 -294.807)">
    <path id="Path_1228" data-name="Path 1228" d="M1384.922,294.825a8.967,8.967,0,0,0-1.061.528,3.173,3.173,0,0,0-1.447,2.8q0,6.97,0,13.941v.472a8.867,8.867,0,0,0-6.94,3.362,8.641,8.641,0,0,0-1.923,6.175,8.923,8.923,0,0,0,8.837,8.278v1.561h-26.643v-.406q0-16.649,0-33.3a3.22,3.22,0,0,1,3.406-3.427q12.71,0,25.419,0C1384.68,294.809,1384.788,294.819,1384.922,294.825Zm-18.659,13.621a.807.807,0,0,0,.579.865.776.776,0,0,0,.909-.363,3.017,3.017,0,0,0,.19-.452c.286-.77.285-.77,1.086-.77.2,0,.4,0,.606,0,.364.008.807-.1,1.067.066.242.158.289.615.42.942a.813.813,0,1,0,1.514-.567c-.782-2.1-1.561-4.2-2.373-6.294a1.167,1.167,0,0,0-.589-.573c-.4-.169-.8.1-.98.593q-1.173,3.112-2.337,6.227A3.129,3.129,0,0,0,1366.263,308.446Zm9.686-4.956c-.287-.568-.545-1.085-.807-1.6a.814.814,0,1,0-1.439.722c.39.792.777,1.585,1.186,2.367a.637.637,0,0,1,0,.663c-.431.828-.841,1.666-1.253,2.5a.784.784,0,0,0,.1.919.713.713,0,0,0,.853.234,1.188,1.188,0,0,0,.5-.477c.306-.531.568-1.086.869-1.673.095.181.171.323.245.466.232.448.452.9.7,1.341a.706.706,0,0,0,.833.37.8.8,0,0,0,.521-1.217c-.414-.851-.852-1.689-1.254-2.545a.681.681,0,0,1,0-.514c.392-.833.831-1.643,1.212-2.48a1.248,1.248,0,0,0,.054-.756.666.666,0,0,0-.659-.48.778.778,0,0,0-.8.465C1376.526,302.346,1376.25,302.9,1375.949,303.49Zm-10.51,18.783H1361.2c-.479,0-.96-.016-1.438.012a.777.777,0,0,0-.77.779.8.8,0,0,0,.76.83,1.909,1.909,0,0,0,.227.008q5.471,0,10.942,0a1.556,1.556,0,0,0,.411-.05.763.763,0,0,0,.567-.758.754.754,0,0,0-.558-.763,2.067,2.067,0,0,0-.524-.053Q1368.127,322.27,1365.439,322.273Zm-3.234-19.4v.476q0,2.442,0,4.883a2.525,2.525,0,0,0,.021.415.8.8,0,0,0,1.587-.008,2.6,2.6,0,0,0,.02-.415q0-2.442,0-4.884c0-.146.012-.292.02-.468.517,0,.994.013,1.471-.006a1.3,1.3,0,0,0,.572-.144.755.755,0,0,0,.309-.894.805.805,0,0,0-.845-.563q-2.328-.006-4.656,0a.809.809,0,1,0-.022,1.607C1361.172,302.882,1361.662,302.876,1362.2,302.876Zm3.222,16.972h4.165c.517,0,1.035.011,1.552-.01a.759.759,0,0,0,.754-.785.793.793,0,0,0-.739-.81,2.214,2.214,0,0,0-.227-.005h-10.98a1.725,1.725,0,0,0-.3.014.794.794,0,0,0-.658.842.769.769,0,0,0,.718.743c.125.012.252.009.378.01Zm.039,6.478h-3.748c-.656,0-1.313-.01-1.969.01a.758.758,0,0,0-.759.78.794.794,0,0,0,.734.814,2.46,2.46,0,0,0,.265.006h10.9a1.993,1.993,0,0,0,.34-.014.794.794,0,0,0,.663-.838.767.767,0,0,0-.714-.747c-.138-.014-.277-.01-.416-.01Zm-2.406-12.118v0c-1.072,0-2.145-.007-3.217,0a.779.779,0,0,0-.848.881.808.808,0,0,0,.9.724q3.122,0,6.245,0c.05,0,.1,0,.151,0a.8.8,0,0,0,.756-.831.755.755,0,0,0-.772-.766C1365.2,314.2,1364.131,314.208,1363.059,314.208Z" transform="translate(0)" fill="currentColor" fill-rule="evenodd"/>
    <path id="Path_1229" data-name="Path 1229" d="M1555.173,501.3a7.273,7.273,0,1,1,7.082-7.642A7.306,7.306,0,0,1,1555.173,501.3Zm-2.78-3.1a4.069,4.069,0,0,0,.726-.545c1.143-1.4,2.266-2.807,3.394-4.214.561-.7,1.13-1.39,1.678-2.1a.816.816,0,0,0-.512-1.354.89.89,0,0,0-.835.417q-2.088,2.618-4.183,5.231c-.307.384-.62.765-.915,1.158a.679.679,0,0,0-.047.847A3.823,3.823,0,0,0,1552.394,498.2Zm-1.428-6.634a1.605,1.605,0,1,0,1.644-1.579A1.606,1.606,0,0,0,1550.965,491.566Zm4.849,4.9a1.606,1.606,0,1,0,1.593-1.63A1.607,1.607,0,0,0,1555.814,496.465Z" transform="translate(-172.58 -172.558)" fill="currentColor" fill-rule="evenodd"/>
    <path id="Path_1230" data-name="Path 1230" d="M1635.96,315.572a25.16,25.16,0,0,1,.023-2.915,2.343,2.343,0,0,1,2.534-1.906,2.39,2.39,0,0,1,2.214,2.238c.032.853.006,1.708.006,2.583Z" transform="translate(-251.873 -14.327)" fill="currentColor" fill-rule="evenodd"/>
    <path id="Path_1231" data-name="Path 1231" d="M1485.971,389.572l.644,1.719h-1.292Z" transform="translate(-116.486 -85.19)" fill="currentColor" fill-rule="evenodd"/>
  </g>
</svg>
