<svg xmlns="http://www.w3.org/2000/svg" width="38.41" height="38.418" viewBox="0 0 38.41 38.418">
  <g id="Group_116" data-name="Group 116" transform="translate(-1107 -266)">
    <path id="Path_1240" data-name="Path 1240" d="M1141.883,266h19.743a7.081,7.081,0,0,0-1.139,4.374c.046,2.926.013,5.853.013,8.78v.441h-6.771v13.474h-15.737c-.006-.068-.011-.105-.011-.143,0-7.492-.01-14.985.01-22.477a4.395,4.395,0,0,1,1.677-3.426A5.314,5.314,0,0,1,1141.883,266Zm6.219,5.909V269.48h-2.242V271.9c-.108.047-.2.086-.29.128a3.375,3.375,0,0,0,1.437,6.433,1.12,1.12,0,0,1,.536,2.1,1.1,1.1,0,0,1-1.372-.2,1.35,1.35,0,0,1-.145-.214l-1.95,1.132a2.676,2.676,0,0,0,1.293,1.231.72.72,0,0,1,.5.841c-.041.617-.01,1.238-.01,1.852h2.252c0-.692.016-1.366-.007-2.037a.509.509,0,0,1,.344-.559,3.363,3.363,0,0,0-1.427-6.391,1.146,1.146,0,0,1-1.157-1.015,1.133,1.133,0,0,1,.9-1.213,1.194,1.194,0,0,1,1.219.527l1.923-1.113A3.478,3.478,0,0,0,1148.1,271.909Zm-6.727,17.786h8.961V287.49h-8.961Z" transform="translate(-28.652 0)" fill="currentColor" fill-rule="evenodd"/>
    <path id="Path_1241" data-name="Path 1241" d="M1107,656.95h18.069v4.5h-14.454a3.372,3.372,0,0,1-3.559-2.791,1.02,1.02,0,0,0-.056-.136Z" transform="translate(0 -361.598)" fill="currentColor" fill-rule="evenodd"/>
    <path id="Path_1242" data-name="Path 1242" d="M1471.73,266a3.7,3.7,0,0,1,2.123,1.236,3.229,3.229,0,0,1,.786,1.947c.036,1.2.01,2.4.01,3.621H1467.9c0-.194,0-.389,0-.584,0-.962-.014-1.925.007-2.887a3.443,3.443,0,0,1,2.532-3.214c.131-.036.259-.08.389-.12Z" transform="translate(-333.801 0)" fill="currentColor" fill-rule="evenodd"/>
    <path id="Path_1243" data-name="Path 1243" d="M1396.27,499.914h-18.047V477.365h18.047Zm-14.661-19.184v6.71h11.214v-6.71Zm9.008,9.009v6.709h2.206v-6.709Zm-9.018,2.208h2.206v-2.2H1381.6Zm4.5,0h2.206v-2.2H1386.1Zm-4.506,4.5h2.218v-2.2H1381.6Zm6.721.013v-2.21h-2.2v2.21Z" transform="translate(-250.86 -195.496)" fill="currentColor" fill-rule="evenodd"/>
    <path id="Path_1244" data-name="Path 1244" d="M1453.052,554.557v-2.2h6.722v2.2Z" transform="translate(-320.071 -264.858)" fill="currentColor" fill-rule="evenodd"/>
  </g>
</svg>
