<svg xmlns="http://www.w3.org/2000/svg" viewBox="0 0 39.699 23.193">
  <g id="Group_3248" data-name="Group 3248" transform="translate(-182.101 -272.109)">
    <path id="Path_2467" data-name="Path 2467" d="M186.143,294.7a12.167,12.167,0,0,1-1.985-1.027,3.715,3.715,0,0,1-1.445-3.059c-.012-4.6-.021-9.2,0-13.805a4.073,4.073,0,0,1,4.112-4.1q15.11-.02,30.221,0a4.107,4.107,0,0,1,4,2.984c.047.151.1.3.157.449v15.123a4.53,4.53,0,0,1-3.437,3.437Zm15.741-2.75q7.424,0,14.848,0c1.229,0,1.717-.484,1.717-1.7q0-6.53,0-13.06c0-1.263-.477-1.734-1.751-1.734q-14.745,0-29.489,0c-1.275,0-1.752.471-1.753,1.733q0,6.5,0,12.992c0,1.31.465,1.771,1.787,1.772Q194.563,291.953,201.884,291.952Z" fill="currentColor" stroke="#fff" stroke-width="1.2" fill-rule="evenodd"/>
    <path id="Path_2468" data-name="Path 2468" d="M269.771,311h-2.752c0,.4.012.782,0,1.162-.036.958-.574,1.549-1.39,1.545s-1.346-.585-1.352-1.559c-.011-1.739-.018-3.479,0-5.218a4.114,4.114,0,1,1,8.227-.151c.06,1.806.032,3.616.009,5.424a1.374,1.374,0,0,1-1.425,1.5c-.8-.028-1.291-.592-1.313-1.53C269.764,311.815,269.771,311.451,269.771,311Zm.016-2.812c-.093-.932.254-1.9-.687-2.5a1.264,1.264,0,0,0-1.54.071c-.838.655-.464,1.57-.53,2.433Z" transform="translate(-66.61 -24.519)" fill="currentColor" stroke="#fff" stroke-width="1.2" fill-rule="evenodd"/>
    <path id="Path_2469" data-name="Path 2469" d="M321.926,311.036c-.368.629-.714,1.247-1.086,1.85a1.377,1.377,0,1,1-2.375-1.377c.538-.957,1.085-1.911,1.666-2.843a.817.817,0,0,0-.011-.993c-.566-.914-1.1-1.849-1.628-2.785a1.38,1.38,0,1,1,2.358-1.4c.369.6.715,1.217,1.143,1.947.393-.664.733-1.241,1.076-1.815.543-.909,1.311-1.182,2.048-.729a1.431,1.431,0,0,1,.325,2.108c-.524.913-1.04,1.832-1.6,2.724a.766.766,0,0,0,.012.932c.564.916,1.1,1.85,1.629,2.785a1.406,1.406,0,0,1-.384,2.042,1.392,1.392,0,0,1-1.974-.634c-.359-.584-.706-1.176-1.061-1.763C322.059,311.067,322.028,311.067,321.926,311.036Z" transform="translate(-110.686 -24.476)" fill="currentColor" stroke="#fff" stroke-width="1.2" fill-rule="evenodd"/>
    <path id="Path_2470" data-name="Path 2470" d="M221.324,305.423c0,2.266,0,4.439,0,6.611a1.485,1.485,0,0,1-.715,1.456,1.364,1.364,0,0,1-2.031-1.3c-.02-2.015-.006-4.03-.006-6.044v-.723c-.361,0-.693.017-1.024,0a1.335,1.335,0,0,1-1.362-1.412,1.308,1.308,0,0,1,1.377-1.322q2.369-.035,4.739,0a1.3,1.3,0,0,1,1.391,1.371,1.322,1.322,0,0,1-1.4,1.367C222,305.435,221.706,305.423,221.324,305.423Z" transform="translate(-27.349 -24.471)" fill="currentColor" stroke="#fff" stroke-width="1.2" fill-rule="evenodd"/>
  </g>
</svg>
