<svg xmlns="http://www.w3.org/2000/svg" viewBox="0 0 23.313 25.417">
  <g id="Group_3235" data-name="Group 3235" transform="translate(-1296.627 -352.9)">
    <path id="Path_2452" data-name="Path 2452" d="M1298.952,352.9h18.169c.02.013.039.035.06.038a2.651,2.651,0,0,1,2.226,2.746c-.015.6,0,1.207,0,1.811,0,.521-.18.7-.7.7H1315.2a.631.631,0,0,0-.023.1q0,3.585,0,7.17c0,.146.066.171.192.189a5.306,5.306,0,0,1,.621,10.385c-.26.069-.528.113-.81.172,0,.467-.01.929,0,1.391a.683.683,0,0,1-.388.707h-17.772a.711.711,0,0,1-.389-.731q.008-9.018,0-18.036,0-1.947,0-3.895a2.551,2.551,0,0,1,1.145-2.266A6.556,6.556,0,0,1,1298.952,352.9Zm-1.253,24.347h16.388v-1.039c-.222-.034-.427-.057-.628-.1a5.29,5.29,0,0,1,.4-10.445c.21-.02.253-.091.251-.285-.01-1.712-.019-3.425-.013-5.137.005-1.629.024-3.258.046-4.887a2.044,2.044,0,0,1,.418-1.3c.016-.02.015-.055.026-.1h-.191q-7.507,0-15.014,0a2.024,2.024,0,0,0-.538.07,1.579,1.579,0,0,0-1.143,1.657q0,10.634,0,21.268Zm12.71-6.345a4.23,4.23,0,1,0,4.25-4.237A4.232,4.232,0,0,0,1310.409,370.9Zm7.927-13.786c.005-.088.014-.16.013-.233-.008-.528.02-1.06-.037-1.583a1.548,1.548,0,0,0-1.615-1.341,1.571,1.571,0,0,0-1.517,1.508c-.017.5-.006.991-.006,1.487a1.159,1.159,0,0,0,.022.162Zm-.568,13.572v.269c-.012.1-.026.2-.034.3a.288.288,0,0,1-.213.269c-.1.035-.206.08-.312.108a.24.24,0,0,0-.2.193c0,.021-.022.04-.025.062a.162.162,0,0,0,0,.084c.062.137.128.273.193.409a.29.29,0,0,1-.038.326,3.369,3.369,0,0,1-.621.621.291.291,0,0,1-.326.038,2.064,2.064,0,0,1-.247-.12.331.331,0,0,0-.4-.013.163.163,0,0,0-.063.065c-.052.137-.1.275-.149.414a.289.289,0,0,1-.268.213c-.095.009-.19.023-.284.035h-.294c-.095-.012-.19-.026-.285-.035a.288.288,0,0,1-.268-.213c-.036-.106-.08-.21-.11-.317a.23.23,0,0,0-.186-.2c-.023,0-.044-.024-.067-.028a.155.155,0,0,0-.084,0c-.137.062-.273.128-.409.192a.29.29,0,0,1-.325-.038,3.375,3.375,0,0,1-.621-.621.29.29,0,0,1-.038-.325,2.161,2.161,0,0,1,.122-.253.328.328,0,0,0,.01-.392.159.159,0,0,0-.065-.063c-.137-.053-.275-.1-.414-.149a.288.288,0,0,1-.213-.269c-.009-.1-.023-.2-.035-.3v-.269c.012-.1.026-.2.035-.3a.288.288,0,0,1,.213-.268c.108-.036.213-.083.323-.112a.227.227,0,0,0,.19-.184c0-.023.024-.044.028-.067a.157.157,0,0,0,0-.084c-.062-.138-.128-.273-.192-.409a.291.291,0,0,1,.038-.325,3.365,3.365,0,0,1,.621-.621.29.29,0,0,1,.325-.038,2.885,2.885,0,0,1,.275.133.29.29,0,0,0,.342.011c.008-.005.021-.005.028-.011.022-.021.052-.039.062-.065.053-.137.1-.275.149-.414a.289.289,0,0,1,.269-.213c.1-.009.189-.023.284-.035h.294c.095.012.189.026.284.035a.289.289,0,0,1,.269.213c.036.108.084.213.112.323a.227.227,0,0,0,.183.19c.023,0,.044.024.067.028a.155.155,0,0,0,.084,0c.138-.062.273-.128.409-.192a.29.29,0,0,1,.325.038,3.365,3.365,0,0,1,.621.621.29.29,0,0,1,.038.325,2.078,2.078,0,0,1-.12.247.331.331,0,0,0-.013.4.162.162,0,0,0,.064.063c.137.053.275.1.414.149a.289.289,0,0,1,.213.268C1317.743,370.49,1317.757,370.589,1317.769,370.688Zm-5.135,1.807c.1.1.206.192.308.292a.059.059,0,0,0,.08.009c.122-.06.247-.116.369-.176a.31.31,0,0,1,.282,0c.122.055.247.106.372.153a.313.313,0,0,1,.2.206c.043.129.091.257.135.386.011.031.024.047.06.047q.192,0,.385,0a.06.06,0,0,0,.064-.049c.044-.129.092-.257.135-.386a.31.31,0,0,1,.2-.2c.128-.048.254-.1.378-.155a.312.312,0,0,1,.282,0c.122.06.247.116.37.176.029.014.049.018.075-.008.091-.094.183-.186.276-.277a.05.05,0,0,0,.01-.069c-.06-.122-.117-.247-.177-.369a.319.319,0,0,1,0-.293c.055-.12.1-.243.15-.367a.313.313,0,0,1,.205-.2c.126-.042.249-.09.375-.132.039-.013.062-.028.061-.075q0-.183,0-.366c0-.046-.022-.062-.061-.075-.125-.042-.249-.09-.375-.132a.316.316,0,0,1-.208-.207c-.043-.12-.092-.24-.146-.355a.326.326,0,0,1,0-.3c.06-.12.115-.243.175-.363a.05.05,0,0,0-.01-.069c-.093-.091-.186-.183-.276-.277-.025-.026-.046-.022-.074-.008-.123.06-.247.116-.37.176a.313.313,0,0,1-.287,0c-.12-.055-.243-.105-.367-.151a.312.312,0,0,1-.2-.2q-.066-.2-.14-.391a.076.076,0,0,0-.053-.042c-.13,0-.261,0-.391,0-.035,0-.049.015-.06.047-.045.131-.093.261-.138.392a.31.31,0,0,1-.2.2q-.188.07-.373.153a.311.311,0,0,1-.282,0q-.186-.092-.376-.177a.072.072,0,0,0-.062,0c-.108.1-.214.2-.318.3.071.149.133.284.2.416a.328.328,0,0,1,0,.3c-.054.114-.1.231-.144.35a.317.317,0,0,1-.211.211c-.124.041-.245.089-.369.13-.042.014-.065.031-.064.079q0,.18,0,.36c0,.047.022.065.064.079.124.041.245.089.369.13a.317.317,0,0,1,.211.211,3.515,3.515,0,0,0,.142.344.334.334,0,0,1,0,.316C1312.764,372.213,1312.7,372.347,1312.633,372.495Zm2-2.98a1.243,1.243,0,1,1-1.246,1.24A1.25,1.25,0,0,1,1314.637,369.515Zm.006,1.95a.706.706,0,1,0-.715-.695A.709.709,0,0,0,1314.643,371.466Z" transform="translate(0 0)" fill="currentColor" fill-rule="evenodd"/>
    <path id="Path_2453" data-name="Path 2453" d="M1408.813,429.5a1.332,1.332,0,0,1,.047-.2q.775-2.076,1.555-4.151a.516.516,0,0,1,.815-.281.715.715,0,0,1,.211.3q.782,2.06,1.549,4.126a.533.533,0,1,1-.995.364c-.086-.214-.118-.514-.276-.616s-.462-.035-.7-.041h-.074c-.264,0-.587-.087-.777.033s-.228.447-.335.683a.524.524,0,0,1-.595.335A.53.53,0,0,1,1408.813,429.5Zm1.688-1.562h.85l-.425-1.124Z" transform="translate(-104.76 -67.1)" fill="currentColor" fill-rule="evenodd"/>
    <path id="Path_2454" data-name="Path 2454" d="M1482.715,426.817c.186-.37.355-.709.526-1.046a.534.534,0,1,1,.946.467c-.263.533-.537,1.061-.789,1.6a.447.447,0,0,0,0,.337c.252.538.526,1.067.789,1.6a.534.534,0,1,1-.946.47c-.171-.337-.34-.675-.527-1.048-.19.377-.358.715-.531,1.052a.534.534,0,1,1-.942-.475c.26-.526.518-1.052.788-1.573a.378.378,0,0,0,0-.39c-.269-.521-.528-1.047-.788-1.573a.537.537,0,0,1,.2-.784c.29-.145.571-.027.746.317S1482.526,426.443,1482.715,426.817Z" transform="translate(-172.312 -67.693)" fill="currentColor" fill-rule="evenodd"/>
    <path id="Path_2455" data-name="Path 2455" d="M1341.115,632.8q1.786,0,3.573,0c.38,0,.607.185.627.492a.5.5,0,0,1-.4.547,1.458,1.458,0,0,1-.32.026q-3.51,0-7.021,0a1.429,1.429,0,0,1-.32-.027.52.52,0,0,1-.007-1.009,1.4,1.4,0,0,1,.319-.029Q1339.341,632.8,1341.115,632.8Z" transform="translate(-37.569 -261.368)" fill="currentColor" fill-rule="evenodd"/>
    <path id="Path_2456" data-name="Path 2456" d="M1347.4,425.907c0,.265,0,.487,0,.709,0,.984,0,1.968,0,2.951a.539.539,0,0,1-.544.582.548.548,0,0,1-.52-.582c0-.066,0-.132,0-.2v-3.46c-.354,0-.689,0-1.025,0a.524.524,0,1,1-.054-1.048c1.074-.014,2.15-.011,3.224,0a.522.522,0,0,1,0,1.043C1348.131,425.915,1347.785,425.907,1347.4,425.907Z" transform="translate(-44.939 -67.189)" fill="currentColor" fill-rule="evenodd"/>
    <path id="Path_2457" data-name="Path 2457" d="M1341.094,593.924q-1.811,0-3.622,0c-.37,0-.586-.175-.608-.478a.522.522,0,0,1,.465-.571.975.975,0,0,1,.124,0q3.634,0,7.268,0a.534.534,0,0,1,.589.42.518.518,0,0,1-.545.632c-.761.007-1.521,0-2.282,0Z" transform="translate(-37.572 -224.084)" fill="currentColor" fill-rule="evenodd"/>
    <path id="Path_2458" data-name="Path 2458" d="M1341.082,672.9c1.191,0,2.381,0,3.572,0a.588.588,0,0,1,.544.229.529.529,0,0,1-.359.82,1.069,1.069,0,0,1-.173.007h-7.219a.547.547,0,0,1-.611-.424.509.509,0,0,1,.5-.624c.4-.013.794-.005,1.191-.006Z" transform="translate(-37.538 -298.81)" fill="currentColor" fill-rule="evenodd"/>
    <path id="Path_2459" data-name="Path 2459" d="M1339.522,552.927c.7,0,1.405-.006,2.108,0a.5.5,0,0,1,.506.5.521.521,0,0,1-.5.545c-.033,0-.066,0-.1,0q-2.046,0-4.092,0a.53.53,0,0,1-.591-.474.511.511,0,0,1,.555-.578c.7-.006,1.405,0,2.108,0Z" transform="translate(-37.566 -186.782)" fill="currentColor" fill-rule="evenodd"/>
  </g>
</svg>
