<svg xmlns="http://www.w3.org/2000/svg" viewBox="0 0 38.349 38.349">
  <g id="Group_3957" data-name="Group 3957" transform="translate(-618.399 -34.06)">
    <path id="Path_13277" data-name="Path 13277" d="M633.412,34.21c.865.2,1.733.385,2.594.6a8.14,8.14,0,0,1,.9.338.958.958,0,0,1,.111,1.782c-.075.04-.147.087-.266.157a4.011,4.011,0,0,1,.4.178,23.013,23.013,0,0,1,2.273,1.383,4.961,4.961,0,0,1,1.97,4.421,9.5,9.5,0,0,1-.641,3.145c-.031.079-.059.159-.095.256.084.048.154.093.227.131a3.154,3.154,0,0,1-.469,5.847c-.254.079-.331.187-.311.437a3.472,3.472,0,0,1-1.431,3.168c-.582.46-1.129.965-1.675,1.469a.67.67,0,0,0-.2.437,4.858,4.858,0,0,0,.45,2.049.6.6,0,0,0,.455.373,35.891,35.891,0,0,1,5.18,1.673,4.647,4.647,0,0,1,2.849,3.364,25.531,25.531,0,0,1,.717,6.141.855.855,0,0,1-.4.7h-27.5V70.252c.021-.145.044-.29.063-.435.154-1.2.28-2.406.468-3.6a5.012,5.012,0,0,1,3.614-4.4c1.545-.477,3.089-.958,4.628-1.453a.733.733,0,0,0,.4-.318,4.3,4.3,0,0,0,.478-2.038.774.774,0,0,0-.217-.5c-.513-.484-1.031-.966-1.588-1.4a3.571,3.571,0,0,1-1.508-3.247c.017-.231-.051-.337-.294-.412a3.152,3.152,0,0,1-.328-5.921c.086-.039.169-.084.266-.133-.044-.113-.075-.205-.114-.294a11.277,11.277,0,0,1-.858-3.059,5.217,5.217,0,0,1,2.612-5.4,1.369,1.369,0,0,0,.366-.352,7.671,7.671,0,0,1,4.232-2.839c.4-.1.821-.164,1.231-.244Zm6.715,13.49a.393.393,0,0,0-.015.063c0,.3,0,.594-.006.891-.005.474-.235.764-.614.776s-.649-.293-.652-.779c0-.644.038-1.291-.015-1.93a3.82,3.82,0,0,0-.324-1.16.723.723,0,0,0-.937-.5,1.9,1.9,0,0,1-.369.037,9.516,9.516,0,0,1-5.274-.858c-.927-.461-1.9-.828-2.869-1.2a1.6,1.6,0,0,0-2.148.772,7.718,7.718,0,0,0-.613,1.851,10.3,10.3,0,0,0-.135,1.7c-.02.457,0,.916-.007,1.374a.639.639,0,0,1-.612.7.654.654,0,0,1-.651-.707c-.012-.338,0-.677,0-1.016l-.108-.06a5.019,5.019,0,0,0-.722.6,1.76,1.76,0,0,0-.289,1.913,1.8,1.8,0,0,0,1.594,1.157c.63.058.79.232.793.87,0,.359,0,.718,0,1.077a1.994,1.994,0,0,0,.714,1.568c1.139.991,2.273,1.989,3.411,2.982a1.877,1.877,0,0,0,1.29.483c.607-.005,1.213-.009,1.82,0a1.946,1.946,0,0,0,1.358-.5q1.706-1.491,3.409-2.984a1.925,1.925,0,0,0,.685-1.541c-.006-.421-.009-.842,0-1.263a.63.63,0,0,1,.6-.674c.11-.017.222-.016.333-.03a1.877,1.877,0,0,0,1.589-1.671A1.8,1.8,0,0,0,640.127,47.7Zm-14.956-3.266a13.707,13.707,0,0,1,.737-1.422,2.862,2.862,0,0,1,3.628-1.157q.956.352,1.9.741c.822.339,1.617.758,2.46,1.028a9.066,9.066,0,0,0,3.939.123,1.085,1.085,0,0,1,.991.273c.34.351.656.724.98,1.083a7.959,7.959,0,0,0,.255-3.154,3.632,3.632,0,0,0-1.775-2.583,19.16,19.16,0,0,0-2.4-1.218.964.964,0,0,1-.417-1.571c.127-.157.269-.3.4-.452l-.01-.13c-.883-.165-1.759-.4-2.65-.481a6,6,0,0,0-5.465,2.311,3.467,3.467,0,0,1-1.216,1.1,2.56,2.56,0,0,0-.579.459C624.535,40.643,624.6,43,625.171,44.434Zm.762,26.544c-.064-.165-.1-.279-.151-.392-.624-1.506-1.239-3.017-1.879-4.516a1.462,1.462,0,0,1,.286-1.733c.685-.742,1.328-1.524,2.058-2.368a26.411,26.411,0,0,0-3.893,1.378,3.047,3.047,0,0,0-1.74,2.035,19.879,19.879,0,0,0-.727,4.342c-.03.413-.043.828-.064,1.249h2.526c0-.287,0-.556,0-.825,0-.557-.011-1.114.005-1.67a.631.631,0,1,1,1.259.013c.008.222,0,.445,0,.668,0,.6,0,1.2,0,1.819Zm13.135-.011h2.3v-.5c0-.656-.009-1.313,0-1.969a.642.642,0,0,1,.643-.675.636.636,0,0,1,.617.657c.007.148,0,.3,0,.446,0,.678,0,1.355,0,2.044h2.541c-.036-.6-.055-1.164-.106-1.729a17.084,17.084,0,0,0-.793-4.143,2.52,2.52,0,0,0-1.456-1.635c-1.229-.483-2.472-.928-3.71-1.386a3.033,3.033,0,0,0-.339-.074c.718.826,1.362,1.593,2.035,2.334a1.469,1.469,0,0,1,.286,1.735c-.591,1.36-1.143,2.737-1.711,4.108C639.279,70.435,639.177,70.7,639.068,70.967Zm-9.033.026c.162-1.28.291-2.521.488-3.751a1.358,1.358,0,0,0-.415-1.188,1.368,1.368,0,0,1-1.911-.373c-.376-.376-.759-.745-1.125-1.131-.235-.248-.443-.521-.68-.8-.5.573-.91,1.034-1.3,1.51a.381.381,0,0,0-.052.324q1.092,2.615,2.211,5.218a.363.363,0,0,0,.262.186C628.337,71,629.165,70.992,630.035,70.992Zm4.926,0c.868,0,1.684.007,2.5-.009a.4.4,0,0,0,.291-.2q1.1-2.6,2.161-5.2a.388.388,0,0,0-.028-.328c-.39-.478-.8-.939-1.224-1.431l-1.854,1.856a1.373,1.373,0,0,1-1.911.374,1.348,1.348,0,0,0-.4,1.3C634.693,68.547,634.809,69.755,634.961,70.992ZM629.48,58.821c-.222.632-.448,1.241-.644,1.86a.384.384,0,0,0,.117.342,7.091,7.091,0,0,0,1.3.755,7.216,7.216,0,0,0,3.192.279,4.471,4.471,0,0,0,2.269-.732c.534-.377.541-.413.31-1.008-.04-.1-.078-.208-.111-.315-.12-.395-.238-.79-.368-1.223a3.439,3.439,0,0,1-2.555.788c-.507-.022-1.015,0-1.522-.007a3.067,3.067,0,0,1-1.706-.546C629.66,58.948,629.562,58.879,629.48,58.821Zm4.2,12.153c-.158-1.266-.313-2.51-.467-3.751h-1.425l-.468,3.751Zm.349-7.7L635.66,64.9l2.114-2.118-.788-.9A5.137,5.137,0,0,1,634.029,63.273ZM629.295,64.9l1.627-1.633a5.148,5.148,0,0,1-2.913-1.382l-.8.927Zm3.236-1.174-1.453,1.448a2.848,2.848,0,0,1,.218.339.672.672,0,0,0,.76.424c.366-.039.74,0,1.109-.015a.522.522,0,0,0,.345-.139,6.447,6.447,0,0,0,.431-.633Z" transform="translate(0)" fill="currentColor" stroke="currentColor" stroke-width="0.3" fill-rule="evenodd"/>
    <path id="Path_13278" data-name="Path 13278" d="M875.713,41.864c-.094.42-.166.848-.286,1.26a6.981,6.981,0,0,1-6.9,5.043.954.954,0,0,0-.534.177c-.6.43-1.194.881-1.784,1.332a1.519,1.519,0,0,1-1.7.22,1.494,1.494,0,0,1-.843-1.489c.011-.705.015-1.411-.006-2.116a.914.914,0,0,0-.187-.525,6.975,6.975,0,0,1,3.65-11.361c.309-.078.624-.131.936-.2H869.4a1.779,1.779,0,0,0,.211.06,6.862,6.862,0,0,1,5.838,5.035c.126.4.18.814.267,1.222Zm-10.778,5.222c0,.421-.01.843.006,1.263.005.136.049.363.121.383a.57.57,0,0,0,.423-.109c.7-.508,1.381-1.048,2.09-1.545a1.136,1.136,0,0,1,.68-.2,5.706,5.706,0,1,0-4.307-8.789,5.537,5.537,0,0,0,.2,6.435A3.064,3.064,0,0,1,864.934,47.086Z" transform="translate(-219.115)" fill="currentColor" stroke="currentColor" stroke-width="0.3" fill-rule="evenodd"/>
    <path id="Path_13279" data-name="Path 13279" d="M774.1,156.979c-.407,0-.815.008-1.222,0a.63.63,0,1,1-.024-1.258q1.258-.02,2.517,0a.628.628,0,1,1-.013,1.256C774.944,156.988,774.524,156.979,774.1,156.979Z" transform="translate(-138.44 -109.459)" fill="currentColor" stroke="currentColor" stroke-width="0.3" fill-rule="evenodd"/>
    <path id="Path_13280" data-name="Path 13280" d="M710.073,156.983c-.395,0-.79.006-1.184,0a.632.632,0,1,1-.011-1.26q1.221-.017,2.443,0a.634.634,0,1,1-.026,1.262C710.887,156.988,710.48,156.984,710.073,156.983Z" transform="translate(-80.775 -109.462)" fill="currentColor" stroke="currentColor" stroke-width="0.3" fill-rule="evenodd"/>
    <path id="Path_13281" data-name="Path 13281" d="M742.02,233.846c-.4,0-.793.011-1.189,0a.648.648,0,0,1-.7-.654.637.637,0,0,1,.7-.608c.8-.01,1.61-.011,2.415,0a.609.609,0,0,1,.674.628.62.62,0,0,1-.677.633C742.838,233.857,742.429,233.845,742.02,233.846Z" transform="translate(-109.532 -178.706)" fill="currentColor" stroke="currentColor" stroke-width="0.3" fill-rule="evenodd"/>
    <path id="Path_13282" data-name="Path 13282" d="M716.929,175.717c-.038.071-.09.321-.2.349-.488.124-.487.87-1.081.818a.473.473,0,0,1-.279-.075c-.285-.3-.6-.578-.869-.882a.577.577,0,0,1,.44-.909,12.134,12.134,0,0,1,1.446,0C716.705,175.031,716.922,175.3,716.929,175.717Z" transform="translate(-86.337 -126.834)" fill="currentColor" stroke="currentColor" stroke-width="0.3" fill-rule="evenodd"/>
    <path id="Path_13283" data-name="Path 13283" d="M779.878,175.062c.21,0,.421-.008.631,0a.573.573,0,0,1,.591.51.62.62,0,0,1-.366.7c-.123.067-.2.219-.31.306-.176.134-.373.345-.555.339-.2-.007-.4-.213-.586-.35-.116-.085-.192-.229-.313-.3a.62.62,0,0,1-.36-.7.582.582,0,0,1,.6-.5C779.432,175.056,779.655,175.062,779.878,175.062Z" transform="translate(-144.186 -126.892)" fill="currentColor" stroke="currentColor" stroke-width="0.3" fill-rule="evenodd"/>
    <path id="Path_13284" data-name="Path 13284" d="M747.895,252.917c-.21,0-.421.009-.63,0a.627.627,0,0,1-.035-1.251,12.35,12.35,0,0,1,1.372,0,.623.623,0,0,1,.571.661.639.639,0,0,1-.609.589c-.025,0-.049,0-.074,0h-.594Z" transform="translate(-115.405 -195.889)" fill="currentColor" stroke="currentColor" stroke-width="0.3" fill-rule="evenodd"/>
    <path id="Path_13285" data-name="Path 13285" d="M747.871,208.27c-.222,0-.446.017-.667,0a.59.59,0,0,1-.559-.583.567.567,0,0,1,.495-.636,10.623,10.623,0,0,1,1.515,0,.59.59,0,0,1,.515.626.628.628,0,0,1-.558.6.745.745,0,0,1-.111.011h-.63Z" transform="translate(-115.402 -155.684)" fill="currentColor" stroke="currentColor" stroke-width="0.3" fill-rule="evenodd"/>
    <path id="Path_13286" data-name="Path 13286" d="M914.82,66.286a.65.65,0,0,1,.635.532.831.831,0,0,0,.242.319,7.508,7.508,0,0,1,.726.671.627.627,0,1,1-1.016.73.643.643,0,0,0-.824-.3.626.626,0,0,0,.115,1.187c.144.031.3.032.441.057a1.887,1.887,0,0,1,.617,3.51.6.6,0,0,0-.337.434.563.563,0,0,1-.635.453.627.627,0,0,1-.578-.492,1.056,1.056,0,0,0-.28-.374,7.834,7.834,0,0,1-.7-.65.588.588,0,0,1,.121-.855.612.612,0,0,1,.864.092.491.491,0,0,1,.048.057.625.625,0,0,0,.838.255.571.571,0,0,0,.337-.674c-.075-.381-.354-.5-.706-.531a1.89,1.89,0,0,1-1.766-1.486,1.919,1.919,0,0,1,1.024-2.111.524.524,0,0,0,.212-.3A.624.624,0,0,1,914.82,66.286Z" transform="translate(-265.203 -28.897)" fill="currentColor" stroke="currentColor" stroke-width="0.3" fill-rule="evenodd"/>
  </g>
</svg>
