<svg xmlns="http://www.w3.org/2000/svg" width="15.874" height="23.487" viewBox="0 0 15.874 23.487">
  <g id="Statistical_Tables_4x" data-name="Statistical Tables@4x" transform="translate(0 560.513)">
    <path id="Path_63" data-name="Path 63" d="M7.635-560.487a1.734,1.734,0,0,0-1.374,1.869l.029.264H3.851l-.1.1c-.1.1-.1.126-.1.624v.524l-1.722.013L.2-557.076l-.1.117-.1.117.008,9.83.013,9.826.1.08c.1.08.281.08,7.823.08,7.6,0,7.727,0,7.806-.08a.481.481,0,0,0,.109-.222c.013-.075.017-4.509.013-9.847l-.013-9.709-.1-.1-.1-.1-1.714-.013-1.718-.013v-.524c0-.5,0-.528-.1-.624l-.1-.1H9.566l.038-.214a1.435,1.435,0,0,0,0-.482A1.686,1.686,0,0,0,7.635-560.487Zm.771.813a1.046,1.046,0,0,1,.478.649.96.96,0,0,1-.109.721c-.13.256-.13.427,0,.557l.1.1h2.644v1.8H4.316v-1.8H7l.1-.1c.138-.134.134-.31,0-.545A.988.988,0,0,1,8.406-559.674Zm-4.76,3.813c0,.469.008.532.084.608s.138.084,4.2.084h4.115l.1-.092c.092-.084.1-.122.1-.608v-.515h2.933v18.647H.712v-18.647H3.646Z" fill="currentColor"/>
    <path id="Path_64" data-name="Path 64" d="M64.168-358.891a.327.327,0,0,0,.017.457l.1.1H73.16l.088-.1a.38.38,0,0,0,.008-.49c-.084-.084-.138-.084-4.542-.084H64.252Z" transform="translate(-61.398 -193.069)" fill="currentColor"/>
    <path id="Path_65" data-name="Path 65" d="M68.041-333.68c-.034.008-1.165,1.307-2.51,2.883s-2.46,2.87-2.476,2.87-.49-.2-1.043-.44-1.043-.44-1.081-.44a.468.468,0,0,0-.163.054c-.071.042-4.173,5.426-4.429,5.82a.368.368,0,0,0,.071.474.39.39,0,0,0,.461-.029c.059-.054,1.022-1.316,2.145-2.8L61.051-328l1.006.436a9.109,9.109,0,0,0,1.127.436.4.4,0,0,0,.268-.138c.239-.226,4.978-5.812,5.041-5.938C68.631-333.491,68.367-333.768,68.041-333.68Z" transform="translate(-53.924 -217.312)" fill="currentColor"/>
    <path id="Path_66" data-name="Path 66" d="M64.383-288.689a.349.349,0,0,0-.122.566l.1.1h2.594c2.9,0,2.749.017,2.8-.3a.272.272,0,0,0-.08-.272l-.1-.121-2.552-.008C65.619-288.723,64.429-288.71,64.383-288.689Z" transform="translate(-61.475 -260.405)" fill="currentColor"/>
  </g>
</svg>
