<svg xmlns="http://www.w3.org/2000/svg" width="409.634" height="409.636" viewBox="0 0 409.634 409.636">
  <g id="Group_1" data-name="Group 1" transform="translate(-1068.801 -270.8)">
    <path id="Path_1" data-name="Path 1" d="M1478.435,406.812V544.424a5.566,5.566,0,0,1-3.671,1.349c-.932.061-1.865.072-2.8.072q-198.348.009-396.7-.013c-2.237,0-4.582.289-6.469-1.408V406.812a5.566,5.566,0,0,1,3.672-1.349c.931-.061,1.864-.071,2.8-.071q198.348-.01,396.7.012C1474.2,405.4,1476.548,405.115,1478.435,406.812Z" fill="#f4f4f4" fill-rule="evenodd"/>
    <path id="Path_2" data-name="Path 2" d="M1068.8,544.424c1.457-.08,2.914-.231,4.371-.231q200.446-.015,400.893,0c1.457,0,2.914.151,4.37.231v56.8a80.521,80.521,0,0,1-12.78,37.652q-20.017,31.344-56.266,40.178c-3.606.875-7.374.387-10.96,1.377H1148.007a80.422,80.422,0,0,1-37.308-12.577q-31.44-19.877-40.431-56.079c-.863-3.479-.377-7.12-1.467-10.551Z" fill="#fe4b55" fill-rule="evenodd"/>
    <path id="Path_3" data-name="Path 3" d="M1478.435,406.812c-1.456.081-2.913.231-4.37.231q-200.446.015-400.893,0c-1.457,0-2.914-.15-4.371-.231V350.007a80.532,80.532,0,0,1,12.779-37.651q20.021-31.345,56.267-40.178c3.606-.876,7.374-.388,10.96-1.378h249.622c7.765.854,15.467,1.911,22.787,4.931,29.3,12.085,48.028,33.336,55.838,64.117.912,3.6.4,7.372,1.381,10.959Z" fill="#fe4b55" fill-rule="evenodd"/>
  </g>
</svg>
