<svg xmlns="http://www.w3.org/2000/svg" width="409.634" height="409.636" viewBox="0 0 409.634 409.636">
  <g id="Group_1" data-name="Group 1" transform="translate(-1116.801 -323.8)">
    <path id="Path_1" data-name="Path 1" d="M1526.435,459.812V596.624a4.891,4.891,0,0,1-3.863,1.752c-1.865.093-3.73.109-5.6.109q-195.358.008-390.716-.046c-3.2,0-6.746,1.042-9.459-1.815V459.812a4.886,4.886,0,0,1,3.862-1.752c1.866-.093,3.732-.11,5.6-.11q195.357-.008,390.716.047C1520.176,458,1523.723,456.956,1526.435,459.812Z" fill="#fe4b55" fill-rule="evenodd"/>
    <path id="Path_2" data-name="Path 2" d="M1116.8,596.624c1.463.044,2.926.128,4.389.128q200.429.009,400.856,0c1.463,0,2.927-.084,4.389-.128v57.6c-.9,2.672-.7,5.48-.977,8.226-1.533,15.166-8.828,27.7-18.084,39.272-10.835,13.549-24.747,22.765-41.008,28.611-5.862,2.107-12.006,2.014-18.055,2.691-.645.074-1.335-.109-1.882.407H1196.007c-2.673-.9-5.48-.7-8.226-.978-15.17-1.526-27.711-8.824-39.275-18.08-13.537-10.834-22.77-24.739-28.609-41.009-2.059-5.739-1.953-11.749-2.688-17.657a2.324,2.324,0,0,0-.408-1.483Z" fill="#fee05a" fill-rule="evenodd"/>
    <path id="Path_3" data-name="Path 3" d="M1526.435,459.812c-1.723.086-3.447.249-5.17.249q-199.647.018-399.293,0c-1.724,0-3.449-.163-5.171-.249V403.007c.9-2.673.7-5.48.976-8.226,1.534-15.167,8.828-27.7,18.084-39.272,10.836-13.549,24.748-22.765,41.008-28.611,5.862-2.107,12.006-2.013,18.055-2.691.646-.073,1.337.109,1.883-.407h249.622c2.955.809,6.013.7,9.025.976,13.469,1.233,24.841,7.434,35.505,15.138,15.7,11.343,26.284,26.522,32.658,44.7,1.957,5.58,1.823,11.509,2.413,17.309.066.647-.109,1.336.405,1.883Z" fill="#464655" fill-rule="evenodd"/>
  </g>
</svg>
