<svg xmlns="http://www.w3.org/2000/svg" width="409.634" height="409.636" viewBox="0 0 409.634 409.636">
  <g id="Group_1" data-name="Group 1" transform="translate(-1234.801 -310.8)">
    <path id="Path_1" data-name="Path 1" d="M1552.428,720.436H1326.809a5.565,5.565,0,0,1-1.35-3.672c-.062-.932-.072-1.865-.072-2.8q-.009-198.35.013-396.7c0-2.238-.289-4.582,1.409-6.47h225.619a5.569,5.569,0,0,1,1.348,3.672c.063.932.073,1.864.073,2.8q.008,198.348-.013,396.7C1553.836,716.2,1554.125,718.548,1552.428,720.436Z" fill="#f4f4f4" fill-rule="evenodd"/>
    <path id="Path_2" data-name="Path 2" d="M1326.809,310.8c-.043,1.33-.121,2.66-.121,3.99q-.008,200.827,0,401.656c0,1.33.078,2.66.121,3.99h-12.8a80.422,80.422,0,0,1-37.308-12.577q-31.441-19.877-40.431-56.079c-.863-3.479-.377-7.12-1.467-10.551V390.007a80.532,80.532,0,0,1,12.779-37.651q20.021-31.345,56.267-40.178c3.606-.876,7.374-.388,10.96-1.378Z" fill="#fe4b55" fill-rule="evenodd"/>
    <path id="Path_3" data-name="Path 3" d="M1552.428,720.436c.042-1.2.12-2.393.12-3.59q.008-201.228,0-402.456c0-1.2-.078-2.393-.12-3.59h12c7.765.854,15.467,1.911,22.787,4.931,29.3,12.084,48.028,33.336,55.838,64.117.912,3.6.4,7.372,1.381,10.959V641.229a80.521,80.521,0,0,1-12.78,37.652q-20.017,31.344-56.266,40.178c-3.606.875-7.374.387-10.96,1.377Z" fill="#fe4b55" fill-rule="evenodd"/>
    <path id="Path_4" data-name="Path 4" d="M1393.561,479.487c4.747,5.556,9.036,10.768,13.552,15.775,1.9,2.1,3.285,6,7.192,4.179,3.81-1.778,1.57-5.25,1.159-7.856-1.907-12.073-4.094-24.1-6.291-36.791,3.524.906,6.64,1.728,9.767,2.507,4.712,1.176,7.276.184,9.638-4.059,3.043-5.466,5.889-11.042,8.887-16.533.607-1.113.875-2.51,2.5-3.415,3.137,5.883,6.247,11.7,9.345,17.534,3.887,7.309,5.435,7.983,13.325,5.821,2.279-.626,4.574-1.19,7.39-1.919-1.449,8.629-2.815,16.843-4.211,25.051-.849,4.984-1.683,9.972-2.652,14.934-.4,2.046-.26,3.8,1.759,4.771,1.978.954,3.545.134,4.9-1.468q6.45-7.634,13-15.18c.842-.971,1.4-2.284,2.986-2.729.506,2.093.93,4.148,1.5,6.161,1.5,5.248,4.716,7.144,9.955,5.748q6.94-1.85,13.791-4.024c2.444-.779,3.033-.285,2.612,2.31-1.024,6.3-1.746,12.657-2.643,18.981-.6,4.218.879,7.256,4.78,9.116,2.615,1.247,5.17,2.62,7.766,3.943-.614,1.654-2.058,1.928-3.152,2.557-11.773,6.776-23.584,13.48-35.364,20.243-7.76,4.455-9.134,8.412-5.979,16.863.735,1.972,1.454,3.95,2.4,6.538-5.383-.4-10.237-.735-15.085-1.128-6.371-.516-12.737-1.1-19.109-1.61-4.215-.334-5.322.64-5.228,4.871.244,11.057.519,22.115.939,33.167.1,2.651-.43,3.76-3.4,3.767-3.016.008-3.467-1.188-3.369-3.8.413-10.918.685-21.842.937-32.767.109-4.719-.889-5.594-5.656-5.2-10.087.826-20.176,1.64-30.254,2.566-2.711.248-3.668-.253-2.382-3.094,6.438-14.227,1.387-16.905-8.516-22.412-11.618-6.461-23.1-13.161-35.049-19.989,2.637-2.231,5.523-3.175,8.149-4.494,3.877-1.947,5.346-4.951,4.759-9.147-.886-6.327-1.627-12.676-2.658-18.979-.429-2.618.2-3.071,2.618-2.3,4.309,1.369,8.673,2.571,13.034,3.775,6.35,1.754,9.545-.182,11.066-6.635C1392.673,483.485,1393.033,481.828,1393.561,479.487Z" fill="#fe4b55" fill-rule="evenodd"/>
  </g>
</svg>
