<svg xmlns="http://www.w3.org/2000/svg" viewBox="0 0 57.952 57.952">
  <g id="Group_3751" data-name="Group 3751" transform="translate(-878.755 -27.096)">
    <path id="Path_12981" data-name="Path 12981" d="M936.707,34.566v5.659c-.395-.012-.789-.025-1.184-.035a.884.884,0,0,0-.933.591.92.92,0,0,0,.285,1.074c.279.246.558.491.763.671L931.586,46.6c-.205-.236-.432-.513-.676-.773a.917.917,0,0,0-1.122-.273.93.93,0,0,0-.557.96c.011.369,0,.738,0,1.158h-1.88V59.539q0,9.786,0,19.573a2.143,2.143,0,0,1-.521,1.618,2.2,2.2,0,0,1-1.707.588q-13.492-.01-26.983,0h-.715v3.735H882.49c0-1.81-.025-3.621.02-5.43a2.627,2.627,0,0,1,.413-1.3.865.865,0,0,0,.113-.864c-1.139-3.39-2.3-6.773-3.379-10.182-.406-1.284-.607-2.632-.9-3.951V60.6a2.593,2.593,0,0,0,.1-.378,16.242,16.242,0,0,1,4-9.11c1.016-1.165,2.06-2.3,3.064-3.48a1.339,1.339,0,0,0,.3-.794c.023-2.28.032-4.562,0-6.842a2.533,2.533,0,0,1,.82-1.956q3.2-3.156,6.356-6.36a2.732,2.732,0,0,1,2.11-.861c7.427.019,14.854.006,22.281.023a1.392,1.392,0,0,0,1.124-.478c.715-.763,1.469-1.49,2.259-2.284a4.716,4.716,0,0,0,.827.868,1.657,1.657,0,0,0,1.021.243.767.767,0,0,0,.59-.855c-.006-.414-.02-.827-.03-1.24h5.659a5.077,5.077,0,0,0,.018,1.181,1.627,1.627,0,0,0,.538.894.8.8,0,0,0,1.069-.2c.266-.283.516-.581.7-.792l4.069,4.06a4.311,4.311,0,0,0-.852.8,1.238,1.238,0,0,0-.137.972,1.155,1.155,0,0,0,.767.53A6.27,6.27,0,0,0,936.707,34.566ZM925.461,79.4V47.645h-1.849c0-.431,0-.787,0-1.142a.917.917,0,0,0-.566-.952.892.892,0,0,0-1.076.256c-.256.276-.489.573-.7.824l-4.108-4.1c.27-.226.585-.467.872-.738a.865.865,0,0,0,.218-1.034.891.891,0,0,0-.9-.565H916.18V34.57c.385,0,.723,0,1.062,0,.672-.01,1.105-.389,1.1-.953-.01-.548-.45-.91-1.113-.91q-10.5,0-20.991,0c-.2,0-.4.018-.61.028v3.718h.7q7.893,0,15.786,0a1.914,1.914,0,0,1,2.176,2.193q0,1.556,0,3.112a1.936,1.936,0,0,1-2.159,2.173q-9.053.007-18.105,0a1.91,1.91,0,0,1-2.168-2.149c0-.518,0-1.035,0-1.552h-3.7V57.278c2.292-.571,3.389-.111,4.6,1.9.485.808.954,1.625,1.455,2.423a19.727,19.727,0,0,1,2.591,15.928.807.807,0,0,0,.054.521c.226.44.493.858.782,1.35ZM886.229,50.213a1.369,1.369,0,0,0-.182.119c-.578.647-1.167,1.284-1.729,1.945a14.028,14.028,0,0,0-3.155,13.447c1.078,3.9,2.5,7.7,3.788,11.534a.568.568,0,0,0,.427.3q4.554.026,9.109,0a.6.6,0,0,0,.439-.349,18.122,18.122,0,0,0,.195-8.782c-.743-3.358-2.691-6.111-4.426-8.972a1.419,1.419,0,0,0-2.56.839,9.436,9.436,0,0,0,.335,2.106c.307,1.026.728,2.017,1.1,3.023.418,1.124.837,2.247,1.27,3.408l-1.746.649c-.765-2.04-1.5-4.014-2.247-5.984a9.456,9.456,0,0,1-.622-3.426c.01-2.942,0-5.884,0-8.826Zm26.165-11.879H895.578v1.873h-1.835v1.8h18.651V38.334ZM931.67,30.76c-1.656.7-3.219.4-3.85-.947a1.341,1.341,0,0,0-1.612-.843,1.178,1.178,0,0,1-.282,0c-.357-.058-.518.1-.654.435a2.637,2.637,0,0,1-3.257,1.631,1.234,1.234,0,0,0-1.633.484,1.5,1.5,0,0,1-.28.28.51.51,0,0,0-.148.722,2.8,2.8,0,0,1-1.233,3.6c-.216.113-.449.192-.673.287v1.964a2.731,2.731,0,0,1,2.036,3.416,1.244,1.244,0,0,0,.487,1.639.926.926,0,0,1,.159.16.632.632,0,0,0,.949.216,1.839,1.839,0,0,1,.817-.183c1.372-.073,2.258.572,2.975,2.147h1.921c.074-.178.142-.352.218-.522a2.672,2.672,0,0,1,3.227-1.524,1.233,1.233,0,0,0,1.639-.489,1.556,1.556,0,0,1,.28-.279c.268-.2.272-.4.13-.715a2.612,2.612,0,0,1,1.063-3.436,1.4,1.4,0,0,0,.886-1.7,1.2,1.2,0,0,1,0-.283c.04-.312-.094-.452-.393-.57a2.772,2.772,0,0,1-1.786-2.853A8.5,8.5,0,0,1,933,32.129ZM895.552,79.47H884.415v3.671h11.137Zm-1.875-45.2-4.011,4h4.011Z" transform="translate(0)" fill="currentColor" fill-rule="evenodd"/>
    <path id="Path_12982" data-name="Path 12982" d="M1023.975,267.6c.126-.585.218-1.085.342-1.577a2.229,2.229,0,0,1,1.945-1.719,2.2,2.2,0,0,1,2.2,1.2c.434.813.834,1.644,1.293,2.553.092-.189.155-.307.208-.43a2.318,2.318,0,0,1,4.1-.382c.331.5.628,1.024,1.033,1.691.124-.934.227-1.716.33-2.5.04-.3.063-.6.122-.9a1.825,1.825,0,0,1,2.569-1.328,19.846,19.846,0,0,1,1.842,1.162l-1.038,1.559-1.543-1.016c-.129,1.04-.254,2.015-.372,2.991a1.9,1.9,0,0,1-2.018,1.913,1.786,1.786,0,0,1-1.482-.9c-.311-.494-.586-1.013-.916-1.493a.727.727,0,0,0-.518-.321.666.666,0,0,0-.429.42,1.854,1.854,0,0,1-1.715,1.485,1.893,1.893,0,0,1-1.937-1.276c-.347-.732-.707-1.458-1.09-2.171-.084-.157-.289-.25-.438-.373-.129.162-.331.307-.375.49-.186.768-.346,1.545-.465,2.326a.915.915,0,0,0,.2.644c.556.666,1.154,1.3,1.728,1.946a2.3,2.3,0,0,1,.306,2.862,2.366,2.366,0,0,1-2.794.9,2.9,2.9,0,0,1-1.935-3.455,8.4,8.4,0,0,1,.228-1.106,1.38,1.38,0,0,0-.4-1.548c-1.313-1.379-2.546-2.835-3.849-4.223a2.642,2.642,0,0,0-1.126-.683c-.686-.205-1.09.252-.9.95.54,1.941,1.093,3.878,1.64,5.818.03.106.053.215.1.4l-1.776.5-.642-2.262c-.38-1.34-.776-2.677-1.137-4.023a2.557,2.557,0,0,1,3.069-3.253,3.814,3.814,0,0,1,2.154,1.264c1.016,1.141,2.042,2.272,3.066,3.407C1023.664,267.274,1023.783,267.393,1023.975,267.6Zm1.115,4.066c-.075.362-.143.594-.167.83a.972.972,0,0,0,.758,1.089.719.719,0,0,0,.573-.171c.078-.084.017-.4-.084-.53C1025.864,272.483,1025.509,272.126,1025.09,271.662Z" transform="translate(-115.816 -199.804)" fill="currentColor" fill-rule="evenodd"/>
    <path id="Path_12983" data-name="Path 12983" d="M988.165,175.9V177.7H965.809V175.9Z" transform="translate(-73.914 -126.343)" fill="currentColor" fill-rule="evenodd"/>
    <path id="Path_12984" data-name="Path 12984" d="M1002.662,153.012v-1.786h16.789v1.786Z" transform="translate(-105.205 -105.394)" fill="currentColor" fill-rule="evenodd"/>
    <path id="Path_12985" data-name="Path 12985" d="M980.689,200.673v1.8H965.812v-1.8Z" transform="translate(-73.917 -147.378)" fill="currentColor" fill-rule="evenodd"/>
    <path id="Path_12986" data-name="Path 12986" d="M1082.718,202.521h-5.542v-1.815h5.542Z" transform="translate(-168.472 -147.406)" fill="currentColor" fill-rule="evenodd"/>
    <path id="Path_12987" data-name="Path 12987" d="M965.857,151.049h3.636v1.819h-3.636Z" transform="translate(-73.955 -105.244)" fill="currentColor" fill-rule="evenodd"/>
    <path id="Path_12988" data-name="Path 12988" d="M1004.607,225.53v1.8h-1.826v-1.8Z" transform="translate(-105.306 -168.483)" fill="currentColor" fill-rule="evenodd"/>
    <path id="Path_12989" data-name="Path 12989" d="M1027.58,225.312h1.8v1.827h-1.8Z" transform="translate(-126.362 -168.298)" fill="currentColor" fill-rule="evenodd"/>
    <path id="Path_12990" data-name="Path 12990" d="M1052.336,225.414h1.8v1.814h-1.8Z" transform="translate(-147.382 -168.385)" fill="currentColor" fill-rule="evenodd"/>
    <path id="Path_12991" data-name="Path 12991" d="M1157.785,51.872a6.545,6.545,0,1,1-6.572,6.531A6.565,6.565,0,0,1,1157.785,51.872Zm-.021,1.88a4.664,4.664,0,1,0,4.657,4.681A4.651,4.651,0,0,0,1157.764,53.752Z" transform="translate(-231.334 -21.036)" fill="currentColor" fill-rule="evenodd"/>
    <path id="Path_12992" data-name="Path 12992" d="M1079.979,323.659c.418.464.774.821,1.079,1.218.1.132.163.447.084.53a.719.719,0,0,1-.573.171.972.972,0,0,1-.758-1.089C1079.836,324.253,1079.9,324.021,1079.979,323.659Z" transform="translate(-170.704 -251.801)" fill="currentColor" fill-rule="evenodd"/>
    <path id="Path_12993" data-name="Path 12993" d="M1178.8,76.63a2.806,2.806,0,1,1-2.807,2.8A2.821,2.821,0,0,1,1178.8,76.63Zm.916,2.811a.894.894,0,0,0-.927-.923.907.907,0,0,0-.915.884.921.921,0,0,0,.9.957A.908.908,0,0,0,1179.718,79.441Z" transform="translate(-252.376 -42.058)" fill="currentColor" fill-rule="evenodd"/>
  </g>
</svg>
