<svg xmlns="http://www.w3.org/2000/svg" width="28.322" height="21.914" viewBox="0 0 28.322 21.914">
  <path id="Path_13302" data-name="Path 13302" d="M37.072,52.189v16.65c-1.686,0-3.373.033-5.058-.016a2.175,2.175,0,0,0-1.791.662c-.448.467-.98.854-1.48,1.28-.7-.6-1.389-1.191-2.077-1.775a.507.507,0,0,0-.253-.144c-.328-.017-.657-.007-1.014-.007v3.328h-.355c-1.815,0-3.63,0-5.445.007a.777.777,0,0,0-.44.157c-.356.276-.69.581-1.034.874l-1.048.893c-.67-.574-1.327-1.124-1.968-1.692a.923.923,0,0,0-.667-.244c-1.9.007-3.8,0-5.693,0V55.508l11.5,0a1.334,1.334,0,0,0,.182-.028v-3.3h5.5ZM23.733,57.2H10.425V70.509h.314c1.355,0,2.711.017,4.065-.01a1.394,1.394,0,0,1,1.109.407c.361.361.773.671,1.168,1.008.5-.428.969-.843,1.456-1.236a.764.764,0,0,1,.439-.162c1.484-.012,2.969-.007,4.453-.007h.3Zm-1.643-1.677h3.318V60.5l1.183-.778a2.5,2.5,0,0,1,3.587-3.33,2.441,2.441,0,0,1,.942,1.294,2.519,2.519,0,0,1-.241,2.044,5.146,5.146,0,0,1,2.82,5.366h-8.28V67.18c.494,0,.972-.012,1.449.007a.747.747,0,0,1,.414.155c.492.4.969.82,1.46,1.24.475-.406.943-.795,1.4-1.2a.743.743,0,0,1,.541-.208c1.475.009,2.95,0,4.425,0h.284V53.859h-13.3Zm3.455,7.89h6.4a3.3,3.3,0,0,0-6.4,0Zm3.2-5.811a.841.841,0,0,0-.842.841.837.837,0,0,0,1.674-.02A.835.835,0,0,0,28.747,57.6Z" transform="translate(-8.75 -52.185)" fill="currentColor" fill-rule="evenodd"/>
</svg>
