<svg xmlns="http://www.w3.org/2000/svg" width="19.72" height="19.738" viewBox="0 0 19.72 19.738">
  <g id="grid" transform="translate(-64.103 447.83)">
    <path id="Path_2" data-name="Path 2" d="M65.6-447.69a1.649,1.649,0,0,0-.916.787l-.185.334v6.892l.144.293a1.7,1.7,0,0,0,.89.813c.273.1.391.1,3.611.1a18.559,18.559,0,0,0,3.58-.087,1.909,1.909,0,0,0,.895-.808l.139-.262v-7l-.118-.221a1.762,1.762,0,0,0-.772-.766l-.293-.144-3.369-.01A21.581,21.581,0,0,0,65.6-447.69Zm6.769,1.065c.35.149.339.031.324,3.58l-.015,3.189-.144.139-.139.144-3.189.015a17.534,17.534,0,0,1-3.348-.067c-.3-.159-.3-.134-.3-3.5a16.871,16.871,0,0,1,.082-3.235c.159-.339.077-.334,3.482-.334A21.368,21.368,0,0,1,72.37-446.626Z" transform="translate(-0.377 -0.061)" fill="currentColor"/>
    <path id="Path_3" data-name="Path 3" d="M268.222-447.741a1.878,1.878,0,0,0-.463.247,1.956,1.956,0,0,0-.576.844c-.036.129-.051,1.353-.041,3.58l.015,3.384.123.231a1.878,1.878,0,0,0,.751.761l.257.139h7l.221-.118a1.762,1.762,0,0,0,.766-.772l.144-.293v-6.892l-.139-.267a1.826,1.826,0,0,0-.777-.777l-.267-.139-3.369-.01C268.7-447.839,268.48-447.834,268.222-447.741Zm6.8,1.065c.339.159.334.087.334,3.487,0,3.369,0,3.343-.3,3.5a17.535,17.535,0,0,1-3.348.067l-3.189-.015-.139-.144-.144-.139-.015-3.189a17.586,17.586,0,0,1,.067-3.348c.159-.3.118-.3,3.487-.3A16.943,16.943,0,0,1,275.027-446.676Z" transform="translate(-192.593)" fill="currentColor"/>
    <path id="Path_4" data-name="Path 4" d="M65.25-244.677a2.009,2.009,0,0,0-.828.6c-.329.437-.329.406-.314,4.1l.015,3.338.139.267a1.826,1.826,0,0,0,.777.777l.267.139H72.2l.293-.144a1.762,1.762,0,0,0,.772-.766l.118-.221v-7l-.139-.257a1.878,1.878,0,0,0-.761-.751l-.231-.123-3.42-.01C66.86-244.723,65.342-244.708,65.25-244.677Zm6.908,1.193.144.139.015,3.189a17.535,17.535,0,0,1-.067,3.348c-.159.3-.134.3-3.5.3-3.4,0-3.328.005-3.487-.334a16.777,16.777,0,0,1-.082-3.23c0-2.14.015-3.107.057-3.22a.653.653,0,0,1,.221-.267c.154-.093.283-.1,3.359-.087l3.2.015Z" transform="translate(0 -192.664)" fill="currentColor"/>
    <path id="Path_5" data-name="Path 5" d="M268.518-244.842a1.972,1.972,0,0,0-.88.808l-.139.262v7l.159.283a2.057,2.057,0,0,0,.427.5c.468.391.381.381,4.151.365l3.338-.015.231-.118a1.578,1.578,0,0,0,.777-.741l.175-.324v-6.892l-.144-.293a1.7,1.7,0,0,0-.89-.813c-.273-.1-.386-.1-3.636-.1A22.942,22.942,0,0,0,268.518-244.842Zm6.882,1.075c.3.154.3.134.3,3.5a16.817,16.817,0,0,1-.082,3.235c-.159.339-.087.334-3.487.334-3.369,0-3.343,0-3.5-.3a17.5,17.5,0,0,1-.067-3.343c.015-3.1.021-3.184.118-3.3a.8.8,0,0,1,.206-.159c.057-.021,1.512-.041,3.23-.041A16.806,16.806,0,0,1,275.4-243.768Z" transform="translate(-192.936 -192.468)" fill="currentColor"/>
  </g>
</svg>
