<svg xmlns="http://www.w3.org/2000/svg" viewBox="0 0 66.252 66.252">
  <g id="Group_1865" data-name="Group 1865" transform="translate(-1178.6 -279.481)">
    <path id="Path_1096" data-name="Path 1096" d="M1225.509,345.583c-1.942-1.087-3.9-2.152-5.823-3.266-3.507-2.028-6.982-4.112-10.5-6.116a3.334,3.334,0,0,1-1.865-3.231c.051-4.076.018-8.154.018-12.231v-.769c-.194.05-.351.079-.5.13-7.448,2.54-14.319,1.428-20.452-3.482a20.123,20.123,0,0,1-7.518-13.952,4.1,4.1,0,0,0-.116-.493v-3.349a2.751,2.751,0,0,0,.113-.426,20.817,20.817,0,0,1,15.746-18.137c1.1-.272,2.222-.423,3.333-.63h3.349a2.8,2.8,0,0,0,.426.11,19.464,19.464,0,0,1,9.134,3.18c7,4.733,10.2,11.345,9.518,19.785-.083,1.028-.319,2.044-.5,3.155,1.509-.879,2.967-1.691,4.385-2.566a3.1,3.1,0,0,1,3.5-.015q7.446,4.393,14.931,8.719a3.827,3.827,0,0,1,2.017,2.282v19.837a4.227,4.227,0,0,1-2.145,2.252c-3.158,1.807-6.281,3.674-9.432,5.494-2.183,1.261-4.39,2.481-6.586,3.719Zm-25.943-26.39a18.6,18.6,0,0,0,7.146-1.412c.463-.188.688-.4.637-.928-.055-.574.009-1.159-.017-1.737a2.958,2.958,0,0,1,1.651-2.893q3.738-2.145,7.437-4.356a1.709,1.709,0,0,0,.674-.79,17.894,17.894,0,0,0,1.031-9.231,18.678,18.678,0,1,0-18.559,21.347Zm42.941,5.009c0-3.026-.007-6.052.007-9.079a1,1,0,0,0-.549-.989q-7.7-4.481-15.381-8.991a.987.987,0,0,0-1.127-.005q-7.681,4.511-15.38,8.992a1,1,0,0,0-.554.983q.018,9.047,0,18.093a1,1,0,0,0,.571.973q7.672,4.463,15.327,8.956a1.027,1.027,0,0,0,1.182.011q7.625-4.48,15.271-8.925a1.145,1.145,0,0,0,.645-1.133C1242.5,330.126,1242.507,327.164,1242.507,324.2Z" transform="translate(0 0)" fill="currentColor" stroke="#181c3a" stroke-width="0.3" fill-rule="evenodd"/>
    <path id="Path_1097" data-name="Path 1097" d="M1467.192,298.18c-.968,1.326-1.977,2.624-2.894,3.983-1.524,2.258-3.781,2.146-5.206-.008-.613-.926-1.384-1.747-2.082-2.618-1.437-1.792-.912-3.68,1.3-4.5a8.918,8.918,0,0,0-1.346-4.015,9.738,9.738,0,0,0-7.093-4.716c-1.87-.284-2.474-.971-2.475-2.86,0-.343.02-.688,0-1.03a2.464,2.464,0,0,1,1.764-2.786h1.159a4.9,4.9,0,0,0,.491.125,16.614,16.614,0,0,1,14.1,14.719c.023.209.12.55.248.584a3.026,3.026,0,0,1,2.036,1.961ZM1449.664,284c.144.036.286.082.432.106a12.151,12.151,0,0,1,10.489,11.4c.1,1.288-.238,1.654-1.522,1.732-.21.013-.527.105-.587.248s.073.444.2.611c.818,1.048,1.656,2.082,2.494,3.115.429.53.612.53,1.042,0,.826-1.016,1.652-2.031,2.457-3.062a2.749,2.749,0,0,0,.282-.672,2.553,2.553,0,0,0-.68-.239c-1.15-.061-1.431-.341-1.482-1.465a14.221,14.221,0,0,0-5.691-11.061,13.9,13.9,0,0,0-7.437-2.868Z" transform="translate(-222.49 0)" fill="currentColor" stroke="#181c3a" stroke-width="0.3" fill-rule="evenodd"/>
    <path id="Path_1098" data-name="Path 1098" d="M1178.75,528.432c.969-1.325,1.982-2.62,2.9-3.982,1.52-2.268,3.789-2.138,5.205,0,.613.926,1.385,1.747,2.082,2.617,1.435,1.79.909,3.688-1.3,4.5a8.217,8.217,0,0,0,.969,3.336,9.773,9.773,0,0,0,7.46,5.4c1.911.306,2.48.963,2.481,2.92,0,.322-.019.645,0,.965a2.466,2.466,0,0,1-1.764,2.787h-1.159a3.28,3.28,0,0,0-.426-.119,15.85,15.85,0,0,1-6.835-2.607,16.365,16.365,0,0,1-7.328-12.12c-.024-.208-.122-.547-.251-.582a3.038,3.038,0,0,1-2.036-1.961Zm17.53,14.179c-.155-.037-.3-.082-.444-.106a12.149,12.149,0,0,1-10.477-11.341c-.109-1.339.214-1.7,1.529-1.786a.844.844,0,0,0,.585-.262c.07-.1-.055-.406-.174-.557-.847-1.081-1.72-2.141-2.574-3.216-.345-.435-.632-.415-.971.017-.822,1.046-1.673,2.069-2.492,3.117a2.627,2.627,0,0,0-.271.671,2.658,2.658,0,0,0,.685.231c1.139.059,1.416.346,1.473,1.474a14.2,14.2,0,0,0,6.7,11.75,13.634,13.634,0,0,0,6.426,2.166Z" transform="translate(0 -201.398)" fill="currentColor" stroke="#181c3a" stroke-width="0.3" fill-rule="evenodd"/>
    <path id="Path_1099" data-name="Path 1099" d="M1262.539,320.153a1.918,1.918,0,0,1-.86,1.651q-4.054,2.55-8.12,5.082a1.694,1.694,0,0,1-1.889-.021c-2.674-1.665-5.35-3.328-8.01-5.015a1.8,1.8,0,0,1-.548-2.684q3.935-6.486,7.891-12.959a1.8,1.8,0,0,1,3.289.04q3.686,6.035,7.355,12.081c.2.33.427.646.6.992A6.588,6.588,0,0,1,1262.539,320.153Zm-11-10.32-.149-.044-5.211,8.563c1.762-.543,3.431-1.191,5.091-1.86a.506.506,0,0,0,.258-.375C1251.546,314.022,1251.542,311.928,1251.542,309.833Zm2.358-.009-.155.046v4.814c0,1.713,0,1.713,1.62,2.349q1.812.71,3.625,1.418l.093-.108Zm-2.38,8.947-5.316,2.085,5.316,3.315Zm7.556,2.078-5.29-2.065v5.377Z" transform="translate(-53 -21.142)" fill="currentColor" stroke="#181c3a" stroke-width="0.3" fill-rule="evenodd"/>
    <path id="Path_1100" data-name="Path 1100" d="M1252.561,433.643a2.269,2.269,0,0,1-1.789-.9q-3.817-4.779-7.621-9.568a1.572,1.572,0,0,1-.025-2.12,1.685,1.685,0,0,1,2.164-.341c1.778.993,3.553,1.994,5.306,3.03a3.723,3.723,0,0,0,4.072,0c1.719-1.011,3.453-2,5.186-2.981a1.729,1.729,0,0,1,2.094.122,1.592,1.592,0,0,1,.1,2.352q-2.758,3.482-5.532,6.952-1,1.259-2.006,2.517A2.368,2.368,0,0,1,1252.561,433.643Zm-5.655-9.416-.062.062,4.647,5.828v-3.479Zm6.857,5.887,4.623-5.8-.077-.059-4.547,2.389Z" transform="translate(-52.987 -116.646)" fill="currentColor" stroke="#181c3a" stroke-width="0.3" fill-rule="evenodd"/>
    <path id="Path_1101" data-name="Path 1101" d="M1370.649,459.672c0-2.253.025-4.506-.011-6.759a2.555,2.555,0,0,1,1.4-2.467q5.791-3.343,11.547-6.748a2.458,2.458,0,0,1,2.72,0q5.819,3.424,11.658,6.814a2.387,2.387,0,0,1,1.277,2.217q-.011,6.952,0,13.9a2.423,2.423,0,0,1-1.314,2.259q-5.782,3.359-11.545,6.752a2.587,2.587,0,0,1-2.891-.009q-5.642-3.343-11.328-6.613a2.719,2.719,0,0,1-1.526-2.659C1370.686,464.136,1370.649,461.9,1370.649,459.672Zm2.194,3.3c1.694-1.417,3.253-2.726,4.818-4.028a3.247,3.247,0,0,1,4.634.13c.821.755,1.636,1.517,2.455,2.275.245.227.495.45.718.652a1.077,1.077,0,0,0,.134-.062c1.2-1,2.4-2.008,3.609-3.006a3.253,3.253,0,0,1,4.592.1c.921.837,1.824,1.693,2.739,2.537.129.119.278.215.5.382,0-3.12.008-6.121-.019-9.121,0-.187-.235-.436-.425-.548-3.73-2.2-7.473-4.374-11.2-6.573a.788.788,0,0,0-.926.018q-5.57,3.276-11.159,6.519a.849.849,0,0,0-.474.867c.019,2.232.009,4.463.009,6.694Zm18.289,7.3-2.8-2.6q-3.749-3.482-7.5-6.965c-.6-.558-1.069-.642-1.6-.208q-3.1,2.56-6.17,5.16a.923.923,0,0,0,.145,1.409q5.688,3.329,11.39,6.635a.867.867,0,0,0,.728-.022c1.827-1.035,3.637-2.1,5.45-3.161C1390.885,470.461,1390.982,470.38,1391.132,470.275Zm-4.014-6.727,6.016,5.588,3.343-1.947a1.84,1.84,0,0,0,.3-2.391q-2.25-2.12-4.532-4.205a1.013,1.013,0,0,0-1.506-.061C1389.542,461.508,1388.364,462.507,1387.118,463.548Z" transform="translate(-158.923 -135.547)" fill="currentColor" stroke="#181c3a" stroke-width="0.3" fill-rule="evenodd"/>
    <path id="Path_1102" data-name="Path 1102" d="M1442.321,490.287c.551.211,1.1.446,1.658.622a1.43,1.43,0,0,0,.724-.007,17.605,17.605,0,0,1,1.833-.489,1,1,0,0,1,1.1.931,1.024,1.024,0,0,1-.912,1.19c-.848.071-1.277.417-1.327,1.3a1.026,1.026,0,0,1-1.123.927,1.066,1.066,0,0,1-1.024-.977c-.145-.954-.253-1.062-1.174-1.213a1.093,1.093,0,0,1-1.028-1.233C1441.113,490.733,1441.572,490.379,1442.321,490.287Z" transform="translate(-217.239 -174.471)" fill="currentColor" stroke="#181c3a" stroke-width="0.3" fill-rule="evenodd"/>
  </g>
</svg>
