<svg xmlns="http://www.w3.org/2000/svg" viewBox="0 0 40 40.155">
  <g id="transaction" transform="translate(-8 506)">
    <path id="Path_115" data-name="Path 115" d="M38.733-505.427a6.4,6.4,0,0,1-2.363,1.121c-.645.1-.815.073-3.145-.6-1.008-.3-1.855-.532-1.871-.532s-.04,1.944-.04,4.315v4.315h-9.25c-9.1,0-9.266,0-9.524.161a1.484,1.484,0,0,0-.419.419c-.153.258-.161.427-.161,6.6l-.008,6.331-.589.492a10.052,10.052,0,0,0-3.04,4.952,12.251,12.251,0,0,0-.073,4.274,9.679,9.679,0,0,0,7.815,7.621,12.955,12.955,0,0,0,3.444,0,9.505,9.505,0,0,0,5.032-2.613,9.564,9.564,0,0,0,2.8-5.427l.145-.871h7.3c7.137,0,7.306-.008,7.565-.161a1.483,1.483,0,0,0,.419-.419c.153-.258.161-.427.161-6.758l.008-6.492,1.573-1.169c1.806-1.331,2.444-1.976,2.927-2.9.661-1.266.653-1.169.653-7.274,0-5.1-.008-5.4-.137-5.355-1.371.4-3.685,1.04-3.992,1.1a3.262,3.262,0,0,1-1.79-.258c-.177-.089-.806-.452-1.387-.8S39.7-506,39.693-506,39.241-505.742,38.733-505.427Zm1.879,1.589c1.79,1.065,2.782,1.177,4.976.54l1.113-.323a84.418,84.418,0,0,1-.081,9.194c-.452,1.5-.694,1.758-4.048,4.282L39.7-487.992l-2.871-2.153c-3.016-2.266-3.347-2.581-3.766-3.516-.4-.9-.4-.9-.435-5.581l-.032-4.411.387.113c.21.056.718.2,1.113.323a5.286,5.286,0,0,0,3.323.073,15.69,15.69,0,0,0,2.25-1.234C39.677-504.387,40.1-504.137,40.612-503.839Zm-9.3,8.75a5.87,5.87,0,0,0,.444,1.9l.129.25H13.249v-2.581H31.314Zm1.661,3.694c.129.137.815.694,1.524,1.226s1.323,1,1.363,1.032-4.935.073-11.266.073H13.249v-2.581H32.733Zm5.677,4.347a9.5,9.5,0,0,0,1.048.726,18.811,18.811,0,0,0,1.839-1.315c.073-.056.1,1.089.1,5.7v5.774H27.483l-.145-.871a9.679,9.679,0,0,0-7.887-8.048,9.431,9.431,0,0,0-2.048-.089,8.139,8.139,0,0,0-3.492.742c-.331.153-.613.282-.629.282s-.032-.815-.032-1.815v-1.815H37.693Zm-19.315,3.355a8.419,8.419,0,0,1,6.468,5.96,5.835,5.835,0,0,1,.218,2.218,5.835,5.835,0,0,1-.218,2.218,8.376,8.376,0,0,1-8.79,6.073,8.42,8.42,0,0,1-7.29-6.073,5.835,5.835,0,0,1-.218-2.218,5.835,5.835,0,0,1,.218-2.218A8.364,8.364,0,0,1,19.338-483.694Z" transform="translate(-0.088)" fill="currentColor"/>
    <path id="Path_116" data-name="Path 116" d="M333.444-465.79a7.709,7.709,0,0,1-1.952,1.169,5.538,5.538,0,0,1-2.863.016l-.629-.169v3.1c0,3.1,0,3.1.2,3.7.427,1.274.7,1.556,3.282,3.508,1.234.927,2.274,1.685,2.323,1.685s1.089-.758,2.323-1.685c2.581-1.952,2.855-2.234,3.282-3.508.2-.6.2-.6.2-3.7v-3.1l-.581.153a4.667,4.667,0,0,1-4.484-.887,4.23,4.23,0,0,0-.766-.492A1.18,1.18,0,0,0,333.444-465.79Zm.734,1.734a6.071,6.071,0,0,0,3.492,1.024l.653-.024v1.734c0,2.516-.129,3.137-.782,3.935a20.993,20.993,0,0,1-2.016,1.645l-1.718,1.29-1.718-1.29a20.985,20.985,0,0,1-2.016-1.645c-.653-.8-.782-1.419-.782-3.935v-1.734l.653.024a6.213,6.213,0,0,0,3.54-1.056,3.267,3.267,0,0,1,.306-.218A3.252,3.252,0,0,1,334.177-464.056Z" transform="translate(-294.194 -36.774)" fill="currentColor"/>
    <path id="Path_117" data-name="Path 117" d="M364.992-412.331l-1.677,1.677-.4-.4-.4-.4-.508.508-.5.5.911.9.9.911,2.194-2.194,2.2-2.2-.484-.484A4.636,4.636,0,0,0,366.7-414C366.677-414,365.911-413.25,364.992-412.331Z" transform="translate(-324.992 -84.581)" fill="currentColor"/>
    <path id="Path_118" data-name="Path 118" d="M314.645-247.824a3.865,3.865,0,0,0-1.613,1.04A3.565,3.565,0,0,0,312-244.106a3.565,3.565,0,0,0,1.032,2.677,3.642,3.642,0,0,0,2.839,1.194,3.642,3.642,0,0,0,2.839-1.194,3.565,3.565,0,0,0,1.032-2.677,3.565,3.565,0,0,0-1.032-2.677,3.816,3.816,0,0,0-1.637-1.04A4.947,4.947,0,0,0,314.645-247.824Zm2.339,1.452a3.066,3.066,0,0,1,1.161,1.153,1.974,1.974,0,0,1,.185,1.113,2.027,2.027,0,0,1-.685,1.774,2.027,2.027,0,0,1-1.774.685,1.974,1.974,0,0,1-1.113-.185,3.124,3.124,0,0,1-1.153-1.161,3.209,3.209,0,0,1-.161-1.815,2.732,2.732,0,0,1,1.653-1.718A3.562,3.562,0,0,1,316.984-246.372Z" transform="translate(-279.484 -237.216)" fill="currentColor"/>
    <path id="Path_119" data-name="Path 119" d="M90.4-215.355v.645H87.808l.024,2.073.024,2.081.234.484a3.287,3.287,0,0,0,2.645,1.823,2.242,2.242,0,0,1,1.54.548c.532.476.645.831.685,2.177l.04,1.161-1.161-.04c-1.29-.04-1.613-.129-2.081-.573-.484-.46-.6-.839-.637-2.137l-.04-1.145H87.8l.032,1.427c.024,1.371.032,1.452.242,1.879a3.342,3.342,0,0,0,1.944,1.734l.339.1.024.661.024.653h1.282v-1.29h2.589l-.024-2.081-.024-2.073-.234-.484a4.576,4.576,0,0,0-.645-.9,3.135,3.135,0,0,0-1.984-.919c-.911-.113-1.169-.2-1.556-.556-.532-.476-.645-.831-.685-2.177l-.04-1.161,1.161.04c1.306.04,1.685.153,2.145.637.435.468.532.79.573,2.065l.04,1.153h1.282l-.032-1.435c-.024-1.363-.032-1.452-.242-1.871a3.342,3.342,0,0,0-1.944-1.734l-.339-.1-.024-.661L91.679-216H90.4Z" transform="translate(-73.365 -266.613)" fill="currentColor"/>
    <path id="Path_120" data-name="Path 120" d="M24.79-502.467a4.593,4.593,0,0,0-.387.556c-.032.081.411.476,1.411,1.274a10.2,10.2,0,0,1,1.452,1.282.192.192,0,0,1-.121.185c-.073.024-4.089.048-8.927.048-8.4,0-8.823.008-9.129.153a2.415,2.415,0,0,0-.581.419c-.476.5-.508.677-.508,2.734v1.855H9.29v-1.573c0-1.8.056-2.056.484-2.21.194-.065,2.7-.089,9.048-.089,7.508,0,8.815-.016,9.008-.113a1.989,1.989,0,0,0,.782-.9,2.258,2.258,0,0,0-.194-1.387c-.145-.2-3.177-2.694-3.258-2.669A4.237,4.237,0,0,0,24.79-502.467Z" transform="translate(0 -2.848)" fill="currentColor"/>
    <path id="Path_121" data-name="Path 121" d="M8-375.355v.645H9.29V-376H8Z" transform="translate(0 -119.516)" fill="currentColor"/>
    <path id="Path_122" data-name="Path 122" d="M8-342.71v1.29H9.29V-344H8Z" transform="translate(0 -148.935)" fill="currentColor"/>
    <path id="Path_123" data-name="Path 123" d="M488-198.71v1.29h1.29V-200H488Z" transform="translate(-441.29 -281.323)" fill="currentColor"/>
    <path id="Path_124" data-name="Path 124" d="M488-151.355v.645h1.29V-152H488Z" transform="translate(-441.29 -325.452)" fill="currentColor"/>
    <path id="Path_125" data-name="Path 125" d="M267.355-118.435a10.5,10.5,0,0,1-.089,1.823c-.177.508.258.484-9.427.484-9.581,0-9-.024-9.444.46a1.21,1.21,0,0,0-.4,1.032c0,.766.113.9,1.871,2.315.887.71,1.621,1.274,1.629,1.258s.185-.234.4-.492a2.974,2.974,0,0,0,.379-.548,16.915,16.915,0,0,0-1.444-1.218,10.2,10.2,0,0,1-1.452-1.282.192.192,0,0,1,.121-.185c.073-.024,4.081-.048,8.911-.048,9.694,0,9.089.032,9.661-.508.532-.508.573-.685.573-2.782V-120h-1.29Z" transform="translate(-220.645 -354.871)" fill="currentColor"/>
  </g>
</svg>
