<svg xmlns="http://www.w3.org/2000/svg" viewBox="0 0 66.451 66.451">
  <g id="Group_3444" data-name="Group 3444" transform="translate(-1476.5 -161.203)">
    <path id="Path_11597" data-name="Path 11597" d="M1514.878,161.453c1.639,1.012,3.29,2,4.911,3.044a2.237,2.237,0,0,1,.924,2.074q-.018,9.141-.006,18.282v.744c1.2.063,2.337.069,3.459.189a20.753,20.753,0,0,1,17.753,15.187c.314,1.174.448,2.4.667,3.6.034.185.077.368.115.551v2.834c-.08.525-.166,1.048-.238,1.574a20.822,20.822,0,0,1-15.184,17.1c-1.4.361-2.856.522-4.285.775h-2.319a4.766,4.766,0,0,0-.562-.11,18.755,18.755,0,0,1-7.5-2.1c-1.67-.9-3.235-1.993-4.936-3.056-.662.42-1.488.919-2.286,1.457a2.4,2.4,0,0,1-2.929-.017c-1.086-.729-2.209-1.4-3.3-2.121a.654.654,0,0,0-.851-.01c-1.088.726-2.218,1.388-3.3,2.119a2.433,2.433,0,0,1-2.985.009c-1.085-.73-2.211-1.4-3.3-2.118a.656.656,0,0,0-.851-.011c-1.088.725-2.218,1.388-3.3,2.118a2.432,2.432,0,0,1-2.985.01q-1.6-1.079-3.257-2.071a3.424,3.424,0,0,1-1.574-1.7V165.7a5.167,5.167,0,0,1,.974-1.219c1.578-1.055,3.211-2.028,4.823-3.032h1.031c1.382.851,2.782,1.674,4.136,2.568a.927.927,0,0,0,1.192-.024c1.345-.869,2.715-1.7,4.075-2.545h1.031c1.4.861,2.815,1.7,4.2,2.6a.848.848,0,0,0,1.08-.015c1.362-.881,2.75-1.723,4.127-2.58h1.031c1.42.871,2.849,1.727,4.253,2.624a.761.761,0,0,0,.97-.008c1.379-.894,2.784-1.748,4.18-2.616Zm-8.652,59c-5.138-6.285-6.766-13.277-4.046-20.928s8.408-12.034,16.291-13.65a1.551,1.551,0,0,0,.033-.212q0-9.5-.013-19a.926.926,0,0,0-.39-.635c-1.086-.728-2.208-1.4-3.3-2.129a.663.663,0,0,0-.854.025c-1.112.729-2.248,1.422-3.359,2.151a2.366,2.366,0,0,1-2.823.01c-1.076-.7-2.183-1.364-3.251-2.082a.85.85,0,0,0-1.131-.016c-1.056.733-2.167,1.388-3.244,2.091a2.38,2.38,0,0,1-2.826,0c-1.114-.727-2.25-1.419-3.356-2.157a.7.7,0,0,0-.912.006c-1.089.724-2.211,1.4-3.3,2.122a2.43,2.43,0,0,1-2.936-.01c-1.053-.7-2.151-1.336-3.191-2.055a.845.845,0,0,0-1.13.018c-.973.666-1.97,1.3-2.983,1.9a1.02,1.02,0,0,0-.572,1.014c.023,4.465.013,8.929.013,13.394q0,19.093-.014,38.186a1.154,1.154,0,0,0,.623,1.186c1.006.571,1.972,1.215,2.933,1.861a.855.855,0,0,0,1.134.026c1.073-.747,2.2-1.417,3.3-2.126a2.321,2.321,0,0,1,2.713-.006c1.155.741,2.322,1.465,3.47,2.217a.622.622,0,0,0,.8,0c1.127-.745,2.281-1.449,3.412-2.187a2.37,2.37,0,0,1,2.823,0q1.7,1.111,3.422,2.174c.156.1.434.186.56.113C1504.845,221.354,1505.537,220.889,1506.226,220.45Zm-3.084-13.962a18.682,18.682,0,1,0,18.752-18.645A18.678,18.678,0,0,0,1503.142,206.488Z" fill="#181c3a" stroke="#181c3a" stroke-width="0.5" fill-rule="evenodd"/>
    <path id="Path_11598" data-name="Path 11598" d="M1519.528,221.39c0-.393-.019-.757,0-1.119a1.088,1.088,0,0,1,1.14-1.133,1,1,0,0,1,1.027,1.144c-.1.893.284,1.181,1.07,1.508a5.221,5.221,0,0,1,3.344,4.846,1.092,1.092,0,0,1-.992,1.267,1.068,1.068,0,0,1-1.179-1.085,3.406,3.406,0,0,0-2.142-3.079,2.7,2.7,0,0,0-.073.413c0,1.867,0,3.734-.011,5.6a.516.516,0,0,0,.425.589,5.475,5.475,0,0,1,.047,10.528c-.355.113-.5.253-.47.617a4.477,4.477,0,0,1-.01.772,1.06,1.06,0,0,1-1.03,1.031c-.539.022-1.148-.347-1.081-.871.165-1.277-.647-1.556-1.555-2.007a5.212,5.212,0,0,1-2.9-4.488,1.161,1.161,0,0,1,.992-1.408c.649-.068,1.112.4,1.194,1.21a3.363,3.363,0,0,0,2.143,2.954v-6.442c-2.788-.87-4.4-2.722-4.318-5.74C1515.223,224.054,1516.75,222.349,1519.528,221.39Zm2.259,11.191v6.043a3.207,3.207,0,0,0,0-6.043Zm-2.325-2.749v-6.044a3.274,3.274,0,0,0-2.133,3.064A3.239,3.239,0,0,0,1519.462,229.831Z" transform="translate(-31.793 -47.776)" fill="#181c3a" fill-rule="evenodd"/>
    <path id="Path_11599" data-name="Path 11599" d="M1607.141,251.012c2.424,0,4.847-.008,7.27.008a1.592,1.592,0,0,1,.971.206,1.356,1.356,0,0,1,.474,1.01c-.06.341-.446.667-.762.9-.174.13-.5.077-.753.077q-7.206.005-14.412,0c-.107,0-.215,0-.322,0-.78-.032-1.258-.434-1.278-1.072-.02-.659.48-1.123,1.284-1.127C1602.123,251,1604.632,251.012,1607.141,251.012Z" transform="translate(-100.696 -74.174)" fill="#181c3a" fill-rule="evenodd"/>
    <path id="Path_11600" data-name="Path 11600" d="M1607.117,219.084q3.7,0,7.4,0c.865,0,1.378.416,1.375,1.093s-.523,1.1-1.381,1.1q-7.432,0-14.863,0c-1.025,0-1.618-.773-1.226-1.57a1.153,1.153,0,0,1,1.168-.627C1602.1,219.089,1604.608,219.084,1607.117,219.084Z" transform="translate(-100.671 -47.728)" fill="#181c3a" fill-rule="evenodd"/>
    <path id="Path_11601" data-name="Path 11601" d="M1607.078,285.18c-2.509,0-5.019,0-7.528,0a1.1,1.1,0,0,1-1.217-1.053,1.139,1.139,0,0,1,1.214-1.137c.15-.006.3,0,.45,0h14.348a4.93,4.93,0,0,1,.514.008,1.117,1.117,0,0,1,1.058,1.094,1.084,1.084,0,0,1-1.119,1.086c-1.136.02-2.273.008-3.41.008Z" transform="translate(-100.698 -100.655)" fill="#181c3a" fill-rule="evenodd"/>
    <path id="Path_11602" data-name="Path 11602" d="M1516.476,451.605c-2.122,0-4.243,0-6.365,0-.838,0-1.309-.467-1.251-1.2.05-.626.5-.991,1.264-.993,2.143-.006,4.286,0,6.429,0q3.15,0,6.3,0c.874,0,1.362.4,1.359,1.1s-.49,1.087-1.371,1.088Q1519.659,451.609,1516.476,451.605Z" transform="translate(-26.59 -238.495)" fill="#181c3a" fill-rule="evenodd"/>
    <path id="Path_11603" data-name="Path 11603" d="M1516.5,385.48q3.054,0,6.107,0a4.183,4.183,0,0,1,.642.023,1,1,0,0,1,.9.939,1.012,1.012,0,0,1-.666,1.125,1.477,1.477,0,0,1-.562.105q-6.428.009-12.857,0a1.123,1.123,0,0,1-1.227-.824,1.073,1.073,0,0,1,1.168-1.367C1512.167,385.472,1514.331,385.481,1516.5,385.48Z" transform="translate(-26.536 -185.544)" fill="#181c3a" fill-rule="evenodd"/>
    <path id="Path_11604" data-name="Path 11604" d="M1516.571,419.558q-3.059,0-6.118,0a3.922,3.922,0,0,1-.706-.033,1.075,1.075,0,0,1-.172-2.066,2.612,2.612,0,0,1,.823-.1q6.15-.008,12.3,0a3,3,0,0,1,.7.06,1.037,1.037,0,0,1,.816,1.147,1.009,1.009,0,0,1-.95.967,6.447,6.447,0,0,1-.772.023Q1519.533,419.559,1516.571,419.558Z" transform="translate(-26.603 -211.948)" fill="#181c3a" fill-rule="evenodd"/>
    <path id="Path_11605" data-name="Path 11605" d="M1602.757,315.079c1.049,0,2.1-.009,3.148,0a1.065,1.065,0,0,1,1.2,1.052,1.082,1.082,0,0,1-1.194,1.135q-3.181.021-6.361,0a1.123,1.123,0,0,1-1.216-1.13,1.106,1.106,0,0,1,1.211-1.056C1600.615,315.071,1601.686,315.08,1602.757,315.079Z" transform="translate(-100.698 -127.235)" fill="#181c3a" fill-rule="evenodd"/>
    <path id="Path_11606" data-name="Path 11606" d="M1600.541,347.094a10.929,10.929,0,0,1,1.219.009,1.015,1.015,0,0,1,.948,1.095.968.968,0,0,1-.939,1.034,19.84,19.84,0,0,1-2.5,0,1.027,1.027,0,0,1-.934-1.053,1.051,1.051,0,0,1,.925-1.063,10.712,10.712,0,0,1,1.282-.01Z" transform="translate(-100.7 -153.742)" fill="#181c3a" fill-rule="evenodd"/>
    <path id="Path_11607" data-name="Path 11607" d="M1708.509,374.967h-4.531c-2.4,0-4.808,0-7.213,0a2.227,2.227,0,0,1-2.493-2.505c0-.558,0-1.116,0-1.674a2.228,2.228,0,0,1,2.411-2.408q5.635-.009,11.27,0h.572a2.4,2.4,0,0,1,1.356-1.96,2.246,2.246,0,0,1,2.428.259c1.416,1.08,2.825,2.17,4.2,3.3a2.14,2.14,0,0,1-.034,3.449c-1.25,1.013-2.583,1.931-3.78,3A2.446,2.446,0,0,1,1708.509,374.967Zm2.281-.009,4.357-3.281-4.365-3.275c-.013.261-.021.367-.023.473-.021,1.474-.247,1.7-1.734,1.7h-12.517v2.2h12.067C1710.624,372.768,1710.676,372.816,1710.79,374.958Z" transform="translate(-180.156 -169.557)" fill="#181c3a" fill-rule="evenodd"/>
    <path id="Path_11608" data-name="Path 11608" d="M1664.472,426.156c-1.888,0-3.776.01-5.664-.008-.4,0-.586.086-.7.52a2.264,2.264,0,0,1-3.5,1.272c-1.531-1.1-3.013-2.276-4.459-3.487a2.1,2.1,0,0,1,.067-3.271q2.091-1.711,4.253-3.335a2.277,2.277,0,0,1,3.662,1.274c.122.457.385.423.709.423q5.471,0,10.942,0c1.932,0,2.727.8,2.729,2.74,0,.451,0,.9,0,1.352a2.259,2.259,0,0,1-2.5,2.518C1668.162,426.163,1666.317,426.156,1664.472,426.156Zm5.795-4.409h-12.5c-.193,0-.387.007-.579,0a1.083,1.083,0,0,1-1.166-1.167c-.014-.291,0-.582,0-1.029l-4.389,3.306,4.343,3.264c.022-.223.039-.323.042-.424.05-1.566.223-1.737,1.764-1.738h12.485Z" transform="translate(-142.988 -211.934)" fill="#181c3a" fill-rule="evenodd"/>
  </g>
</svg>
