<svg id="Buy_And_Sell_4x" data-name="Buy And Sell@4x" xmlns="http://www.w3.org/2000/svg" viewBox="0 0 56.062 43.196">
  <path id="Path_44" data-name="Path 44" d="M125.46-431.715c-.05.02-4.242,1.3-9.3,2.852s-9.395,2.871-9.635,2.961a3.312,3.312,0,0,0-.74.42,2.692,2.692,0,0,0-.78,1.691c0,.5,3.092,10.035,3.382,10.425a3.45,3.45,0,0,0,.61.56,1.724,1.724,0,0,0,1.141.33c.75.04.52.1,5.483-1.441.13-.03.18.05.22.36a2.269,2.269,0,0,0,1.051,1.571l.47.28,2.311.03c2.141.03,2.351.02,2.941-.18a4.45,4.45,0,0,0,2.4-2,14.529,14.529,0,0,1,1-1.251,30.29,30.29,0,0,1,3.282,1.481c1.741.85,3.262,1.581,3.372,1.621a7.128,7.128,0,0,0,2.331.15c.37-.05,2.011-.52,3.662-1.05s3.042-.951,3.112-.951.18.43.3,1.221c.2,1.391.38,1.681.971,1.681.18,0,1.851-.24,3.712-.54,3.782-.59,3.832-.61,3.8-1.341-.01-.2-.51-3.452-1.131-7.224-1.241-7.634-1.151-7.3-1.941-7.294-.23,0-1.911.24-3.752.53-4.122.65-3.912.5-3.562,2.461.08.47.15.9.15.951,0,.16-1.2.45-1.821.45a2.4,2.4,0,0,1-1.041-.24c-.54-.25-.98-.7-3.442-3.592a12.061,12.061,0,0,0-1.921-1.961,4.184,4.184,0,0,0-2.721-.69l-.86.04-.16-.5a2.272,2.272,0,0,0-2.171-1.821A2.948,2.948,0,0,0,125.46-431.715Zm.971,1.821c.19.17,3.182,9.125,3.182,9.515a.92.92,0,0,1-.66.62c-.08,0-1.7-.59-3.612-1.321-3.272-1.241-3.522-1.321-4.192-1.321a1.84,1.84,0,0,0-1.171.27,1.976,1.976,0,0,0-1.051,1.781,1.914,1.914,0,0,0,.17,1.12c.28.59.54.81,1.511,1.321l.83.42-.49.16c-.27.09-2.781.86-5.573,1.721-4.592,1.4-5.113,1.541-5.353,1.431s-.41-.57-1.791-4.782c-.84-2.561-1.531-4.722-1.531-4.812a.73.73,0,0,1,.13-.33c.08-.12,3.182-1.111,9.525-3.062,5.173-1.591,9.515-2.891,9.645-2.891A.622.622,0,0,1,126.431-429.895Zm4.092,2.251c.58.17.991.57,3.132,3.062a25.381,25.381,0,0,0,2.441,2.6,4.727,4.727,0,0,0,3.842.53l.67-.19.11.66c.58,3.522.86,5.343.81,5.363-.27.16-6.543,2.071-6.943,2.121a3.109,3.109,0,0,1-1.121-.09c-.34-.09-3.222-1.451-6.653-3.151-6.273-3.112-6.423-3.192-6.243-3.672a.71.71,0,0,1,.6-.35c.1,0,1.8.61,3.782,1.361s3.672,1.371,3.732,1.391a4.257,4.257,0,0,0,1.741-.59,2.427,2.427,0,0,0,.89-1.771,24.3,24.3,0,0,0-1.1-3.832c-.6-1.841-1.1-3.4-1.1-3.462C129.112-427.8,130.043-427.793,130.523-427.643Zm16.348,2.4c.21,1.181,1.851,11.456,1.851,11.576s-.46.23-2.461.54c-1.351.21-2.471.37-2.491.35-.04-.05-1.961-12.006-1.931-12.036s4.492-.73,4.752-.74C146.761-425.562,146.821-425.492,146.871-425.242Zm-22.811,9.055c.19.09.35.2.35.24a20.843,20.843,0,0,1-1.6,2.071,2.975,2.975,0,0,1-.55.32c-.35.17-.63.2-2.411.2-1.881,0-2.021-.01-2.191-.2s-.17-.24-.05-.6c.13-.4.14-.4,1.141-.71.56-.17,1.841-.57,2.861-.89s1.9-.58,1.971-.59A1.514,1.514,0,0,1,124.06-416.188Z" transform="translate(-94.495 431.739)" fill="currentColor"/>
  <path id="Path_45" data-name="Path 45" d="M3.762-189.5C1.9-188.679.29-187.928.19-187.838a.712.712,0,0,0-.19.5c0,.29,3.042,6.813,6.753,14.457.35.74.61.99,1.011.99.15,0,6.143-2.591,6.953-3,.58-.3.63-.65.24-1.541-.14-.31-.25-.58-.25-.6a43.855,43.855,0,0,1,4.542,1.841,13.7,13.7,0,0,0,4.842,1.431,12.84,12.84,0,0,0,4.322-.36c.47-.12,3.562-1.3,6.883-2.621,6.513-2.581,6.593-2.621,7.034-3.532a3.178,3.178,0,0,0-.08-2.641,2.935,2.935,0,0,0-2.421-1.851c-.47-.03-1.291.14-4.912,1.051l-4.352,1.081-.23-.41a2.314,2.314,0,0,0-1.271-1.131c-1.921-.96-11.736-5.543-12.256-5.713a8.6,8.6,0,0,0-4.692-.11,18.611,18.611,0,0,0-1.891.71c-.63.27-1.161.48-1.171.47s-.24-.46-.48-1c-.46-.991-.65-1.181-1.141-1.181C7.284-191,5.633-190.32,3.762-189.5Zm6.373,6.923c1.691,3.532,3.032,6.453,2.992,6.493-.1.11-4.932,2.221-4.973,2.171-.08-.09-6.163-12.906-6.133-12.937.07-.07,4.842-2.141,4.942-2.151C7.014-189,8.444-186.108,10.135-182.576Zm6.023-5.743c.92.31,12.486,5.8,12.636,5.993.42.57-.24,1.891-1.041,2.091-.18.05-1.321-.46-4.382-1.951C21.1-183.3,19.12-184.2,18.99-184.2a.991.991,0,0,0-.52.21.873.873,0,0,0-.08,1.171c.09.11,2.061,1.121,4.362,2.231,4.172,2.021,4.2,2.031,4.852,2.031a2.988,2.988,0,0,0,2.661-1.811c.17-.34.34-.55.48-.58.12-.03,2.131-.52,4.472-1.1S39.57-183.1,39.69-183.1c.47,0,1.221.96,1.231,1.581,0,.5-.27.79-1.031,1.1-3.192,1.331-11.566,4.572-12.256,4.752a8.632,8.632,0,0,1-2.471.21,10.239,10.239,0,0,1-5.3-1.341c-.99-.46-2.781-1.211-4-1.671s-2.231-.87-2.271-.91c-.09-.09-3.792-7.854-3.752-7.874a24.516,24.516,0,0,1,2.921-1.171A7.354,7.354,0,0,1,16.158-188.319Z" transform="translate(0 215.086)" fill="currentColor"/>
</svg>
