<svg xmlns="http://www.w3.org/2000/svg" width="40.048" height="40.048" viewBox="0 0 40.048 40.048">
  <g id="Group_114" data-name="Group 114" transform="translate(-1487.435 -281.034)">
    <path id="Path_1234" data-name="Path 1234" d="M1542.929,281.034h24.091c.033.019.065.051.1.055a4.339,4.339,0,0,1,3.664,4.468c-.037,3.947-.009,7.894-.01,11.841q0,6.722-.006,13.443l.011-.011h-8.258l-.05-.1c.338-.32.687-.629,1.012-.961a1.173,1.173,0,1,0-1.642-1.668q-1.55,1.517-3.067,3.066a1.154,1.154,0,0,0,0,1.681c.258.276.532.536.8.8.764.764,1.525,1.532,2.3,2.291a1.132,1.132,0,0,0,1.219.3,1.1,1.1,0,0,0,.776-.9,1.253,1.253,0,0,0-.429-1.157c-.314-.313-.627-.628-1-1h8.346l-.011-.011c0,1.235.04,2.472-.006,3.706a4.144,4.144,0,0,1-2.459,3.777,9.306,9.306,0,0,1-1.283.423h-24.091a4.753,4.753,0,0,0,.473-2.146c-.007-2.963,0-5.925,0-8.888l-.011.011h8.426c-.012.059-.01.074-.017.081-.319.326-.64.649-.957.976a1.182,1.182,0,0,0-.072,1.71,1.162,1.162,0,0,0,1.684-.015q1.583-1.539,3.123-3.122a1.142,1.142,0,0,0-.024-1.652c-.222-.238-.458-.463-.688-.693-.8-.8-1.6-1.605-2.407-2.4a1.13,1.13,0,0,0-1.22-.3,1.1,1.1,0,0,0-.774.9,1.225,1.225,0,0,0,.406,1.128l1.028,1.029h-8.506l.011.011c0-.169-.006-.338-.006-.508q0-12.01,0-24.02A4.77,4.77,0,0,0,1542.929,281.034Zm14.156,9.464q-3.849,0-7.7,0a1.192,1.192,0,0,0-1.2.713,1.173,1.173,0,0,0,1.178,1.635q5.568.005,11.136,0h4.337a1.151,1.151,0,0,0,1.143-.729,1.169,1.169,0,0,0-1.165-1.615Q1560.954,290.493,1557.085,290.5Zm.007,4.693q-3.849,0-7.7,0a1.2,1.2,0,0,0-1.2.707,1.171,1.171,0,0,0,1.167,1.641q4.747.006,9.495,0,2.97,0,5.939,0a1.18,1.18,0,0,0,1.17-.689,1.167,1.167,0,0,0-1.138-1.657C1562.25,295.188,1559.671,295.192,1557.093,295.192Zm-1.96-7.04c1.914,0,3.828,0,5.742,0a1.188,1.188,0,0,0,1.194-.713,1.172,1.172,0,0,0-1.177-1.634q-5.743,0-11.485,0a1.182,1.182,0,1,0,.022,2.345Q1552.28,288.154,1555.132,288.152Zm3.9,11.733c-1.914,0-3.828,0-5.742,0a1.188,1.188,0,0,0-1.192.716,1.173,1.173,0,0,0,1.183,1.631q5.723,0,11.446,0a1.184,1.184,0,1,0,.01-2.346Q1561.889,299.883,1559.037,299.885Z" transform="translate(-49.706)" fill="currentColor" fill-rule="evenodd"/>
    <path id="Path_1235" data-name="Path 1235" d="M1489.782,281.034a2.082,2.082,0,0,1,1.52,1.563,1.354,1.354,0,0,1,.039.269c0,2.237,0,4.475,0,6.772h-.968c-.455,0-.913-.029-1.366.007a1.436,1.436,0,0,1-1.573-.867V282.6a2.265,2.265,0,0,1,1.564-1.564Z" transform="translate(0)" fill="currentColor" fill-rule="evenodd"/>
    <path id="Path_1236" data-name="Path 1236" d="M1487.435,583.241a1.457,1.457,0,0,1,1.573-.87c.763.041,1.529.009,2.338.009v.448c0,1.9-.036,3.8.013,5.7a2.212,2.212,0,0,1-1.577,2.457H1489a2.28,2.28,0,0,1-1.564-1.564Z" transform="translate(0 -269.903)" fill="currentColor" fill-rule="evenodd"/>
    <path id="Path_1237" data-name="Path 1237" d="M1816.258,568.188a1.486,1.486,0,0,1-1.574.871c-1.615-.037-3.23-.014-4.845-.016l.011.011V566.7l-.011.011c1.732,0,3.465,0,5.2-.007a1.324,1.324,0,0,1,1.223.862Z" transform="translate(-288.775 -255.866)" fill="currentColor" fill-rule="evenodd"/>
    <path id="Path_1238" data-name="Path 1238" d="M1493.7,538.991c-1.563,0-3.127-.021-4.689.016a1.489,1.489,0,0,1-1.575-.871v-.626a1.487,1.487,0,0,1,1.575-.871c1.562.038,3.126.014,4.689.016l-.011-.011V539Z" transform="translate(0 -228.943)" fill="currentColor" fill-rule="evenodd"/>
  </g>
</svg>
