<svg xmlns="http://www.w3.org/2000/svg" viewBox="0 0 26.05 26.05">
  <g id="Group_1877" data-name="Group 1877" transform="translate(-332.749 -332.751)">
    <path id="Path_1140" data-name="Path 1140" d="M345.762,358.8a13.025,13.025,0,1,1,13.037-13A13.049,13.049,0,0,1,345.762,358.8Zm.019-24.189a11.164,11.164,0,1,0,11.157,11.178A11.179,11.179,0,0,0,345.781,334.612Z" fill="currentColor" fill-rule="evenodd"/>
    <path id="Path_1142" data-name="Path 1142" d="M419.359,431.489h.438q4.448,0,8.9,0a.929.929,0,0,1,.962,1.235.906.906,0,0,1-.8.621,1.729,1.729,0,0,1-.2,0q-5.451,0-10.9,0a.965.965,0,0,1-.985-.576.88.88,0,0,1,.091-.885c.616-.928,1.229-1.857,1.856-2.778a.91.91,0,0,1,1.279-.26.92.92,0,0,1,.266,1.28C419.978,430.574,419.681,431,419.359,431.489Z" transform="translate(-77.425 -88.504)" fill="currentColor" fill-rule="evenodd"/>
    <path id="Path_1143" data-name="Path 1143" d="M427,514.577h-.3q-4.488,0-8.976,0a.93.93,0,0,1-.955-1.24.906.906,0,0,1,.776-.614,1.414,1.414,0,0,1,.2-.005h10.923a1.569,1.569,0,0,1,.318.02.921.921,0,0,1,.583,1.43c-.6.934-1.225,1.858-1.851,2.778a.913.913,0,0,1-1.3.257.922.922,0,0,1-.242-1.283c.274-.433.56-.858.84-1.288C427.024,514.626,427.015,514.613,427,514.577Z" transform="translate(-77.453 -166.01)" fill="currentColor" fill-rule="evenodd"/>
  </g>
</svg>

