<svg xmlns="http://www.w3.org/2000/svg" xmlns:xlink="http://www.w3.org/1999/xlink" width="300" height="300" viewBox="0 0 300 300">
  <defs>
    <clipPath id="clip-USD_Coin">
      <rect width="300" height="300"/>
    </clipPath>
  </defs>
  <g id="USD_Coin" data-name="USD Coin" clip-path="url(#clip-USD_Coin)">
    <rect width="300" height="300" fill="rgba(255,255,255,0)"/>
    <rect id="Rectangle_1" data-name="Rectangle 1" width="290" height="290" rx="20" transform="translate(5 5)" fill="#2775ca"/>
    <g id="usd-coin-usdc-logo" transform="translate(10 6)">
      <path id="Path_1" data-name="Path 1" d="M140,280A140,140,0,1,0,0,140,139.663,139.663,0,0,0,140,280Z" fill="#2775ca"/>
      <path id="Path_2" data-name="Path 2" d="M794.836,599.33c0-20.416-12.25-27.416-36.75-30.332-17.5-2.334-21-7-21-15.168s5.834-13.416,17.5-13.416c10.5,0,16.334,3.5,19.25,12.25a4.387,4.387,0,0,0,4.084,2.916h9.332a3.987,3.987,0,0,0,4.084-4.082v-.584A29.143,29.143,0,0,0,765.087,527V513c0-2.334-1.75-4.084-4.666-4.667h-8.75c-2.334,0-4.084,1.75-4.668,4.667v13.416c-17.5,2.334-28.582,14-28.582,28.584,0,19.25,11.666,26.832,36.166,29.75,16.334,2.916,21.584,6.416,21.584,15.75s-8.168,15.75-19.25,15.75c-15.168,0-20.418-6.418-22.168-15.168a4.26,4.26,0,0,0-4.082-3.5h-9.918a3.987,3.987,0,0,0-4.082,4.084v.584c2.332,14.582,11.666,25.082,30.916,28v14c0,2.333,1.75,4.082,4.666,4.666H761c2.334,0,4.084-1.75,4.668-4.666v-14C783.17,627.33,794.836,615.08,794.836,599.33Z" transform="translate(-616.337 -437.164)" fill="#fff"/>
      <path id="Path_3" data-name="Path 3" d="M323.5,474.252c-45.5-16.332-68.834-67.082-51.916-112A86.292,86.292,0,0,1,323.5,310.336,5.855,5.855,0,0,0,327,304.5v-8.166a4.434,4.434,0,0,0-3.5-4.666,3.513,3.513,0,0,0-2.334.582,104.972,104.972,0,0,0,0,200.084,3.547,3.547,0,0,0,5.25-2.334c.584-.582.584-1.166.584-2.332V479.5C327,477.752,325.25,475.42,323.5,474.252Zm61.834-182a3.547,3.547,0,0,0-5.25,2.334c-.584.584-.584,1.166-.584,2.334v8.166c0,2.334,1.75,4.666,3.5,5.834,45.5,16.332,68.834,67.082,51.916,112A86.292,86.292,0,0,1,383,474.836a5.855,5.855,0,0,0-3.5,5.834v8.166A4.434,4.434,0,0,0,383,493.5a3.513,3.513,0,0,0,2.334-.582,105.422,105.422,0,0,0,0-200.668Z" transform="translate(-213.25 -250.836)" fill="#fff"/>
    </g>
  </g>
</svg>
