<svg xmlns="http://www.w3.org/2000/svg" viewBox="0 0 23.172 26.364">
  <g id="Group_1891" data-name="Group 1891" transform="translate(-1052.595 -282.986)">
    <path id="Path_1144" data-name="Path 1144" d="M1052.6,534.57c0-1.818,0-3.637.006-5.455a.792.792,0,0,1,.132-.421,11.3,11.3,0,0,1,5.242-4.23,11.086,11.086,0,0,1,4.069-.758c1.424,0,2.848-.017,4.271,0a11.069,11.069,0,0,1,9.357,5.048.659.659,0,0,1,.09.358q.008,2.728,0,5.455Zm21.627-1.557v-.264c0-1.055,0-2.11-.006-3.165a.745.745,0,0,0-.138-.417,9.5,9.5,0,0,0-7.763-3.913c-1.424-.022-2.848-.008-4.272,0a9.092,9.092,0,0,0-1.129.063,9.527,9.527,0,0,0-6.648,3.873.668.668,0,0,0-.121.372c-.01,1.072-.005,2.144-.005,3.217v.236Z" transform="translate(0 -225.22)" fill-rule="evenodd" fill="currentColor"/>
    <path id="Path_1145" data-name="Path 1145" d="M1131.691,282.986a14.782,14.782,0,0,1,2.011.5,6.59,6.59,0,0,1,4.143,4.565,6.661,6.661,0,0,1-2.15,7.143,6.513,6.513,0,0,1-5.543,1.6,6.937,6.937,0,0,1-4.666-10.825,6.732,6.732,0,0,1,4.365-2.851c.267-.055.539-.089.809-.132Zm-.524,1.546a5.406,5.406,0,1,0,5.415,5.4A5.423,5.423,0,0,0,1131.167,284.532Z" transform="translate(-66.995 0)" fill-rule="evenodd" fill="currentColor"/>
  </g>
</svg>
