<svg xmlns="http://www.w3.org/2000/svg" viewBox="0 0 38.5 38.5">
  <g id="wallet_4_3_" data-name="wallet(4)(3)" transform="translate(0 512)">
    <path id="Path_972" data-name="Path 972" d="M76.949-511.8c0,.211-.038.226-6.414,2.534-3.519,1.278-6.617,2.421-6.88,2.542a1.409,1.409,0,0,0-.857.932,7,7,0,0,0,.346,1.135l.368,1h9.881l.045-1.752c.038-1.82.075-2.038.429-2.79a4.6,4.6,0,0,1,1.346-1.466,3.825,3.825,0,0,1,2.136-.586,3.619,3.619,0,0,0,.88-.1,2.18,2.18,0,0,0-.406-.8,1.292,1.292,0,0,0-.421-.323c-.18-.075-.226-.143-.226-.308,0-.143-.038-.218-.113-.218S76.949-511.925,76.949-511.8Z" transform="translate(-58.075)" fill="currentColor"/>
    <path id="Path_973" data-name="Path 973" d="M245.053-449.852a1.544,1.544,0,0,0-.9.737c-.135.263-.15.444-.15,1.579v1.278h12.407v-1.278c0-1.135-.015-1.316-.15-1.579a1.519,1.519,0,0,0-.94-.744C254.926-449.965,245.429-449.965,245.053-449.852Z" transform="translate(-225.652 -57.395)" fill="currentColor"/>
    <path id="Path_974" data-name="Path 974" d="M2.669-361.927a3.153,3.153,0,0,0-1.4.775,3.116,3.116,0,0,0-.82,1.391c0,.1-.06.135-.226.135H0v22.107H.218c.188,0,.226.038.263.256a3.4,3.4,0,0,0,.917,1.384,3.393,3.393,0,0,0,1.188.617c.083,0,.12.068.12.226v.226h29.7v-.218c0-.188.038-.226.256-.263a3.4,3.4,0,0,0,1.384-.917,4.237,4.237,0,0,0,.451-.707l.2-.414.023-2.617.023-2.609h-2.8c-3.03-.008-3.512-.045-4.452-.406a5.48,5.48,0,0,1-3.015-2.767,5.325,5.325,0,0,1-.549-3.083,4.375,4.375,0,0,1,.263-1.917,5.126,5.126,0,0,1,1.376-2.128,5.166,5.166,0,0,1,2.158-1.384l.662-.233,3.181-.023,3.181-.023-.023-2.647-.023-2.647-.2-.429a3.166,3.166,0,0,0-2.151-1.707C31.747-362.077,3.181-362.055,2.669-361.927Z" transform="translate(0 -138.688)" fill="currentColor"/>
    <path id="Path_975" data-name="Path 975" d="M359.728-222.837a4.544,4.544,0,0,0-1.323.662,3.26,3.26,0,0,0-1.188,2.466,3.493,3.493,0,0,0,2.752,2.8c.233.045,1.91.075,3.985.075,3.376,0,3.594-.015,3.9-.15a1.082,1.082,0,0,0,.451-.376.346.346,0,0,1,.338-.226h.2v-4.587h-.226c-.135,0-.226-.038-.226-.1,0-.113-.338-.444-.579-.571C367.616-222.934,360.164-222.942,359.728-222.837Zm1.293,1.609a1.672,1.672,0,0,1,.414.338c.18.218.2.293.2.947,0,.8-.083,1.045-.466,1.323-.218.15-.338.173-.962.173s-.744-.023-.962-.173c-.384-.278-.466-.519-.466-1.323,0-.7.008-.722.241-.993a1.479,1.479,0,0,1,.391-.331A3.77,3.77,0,0,1,361.021-221.228Z" transform="translate(-330.349 -267.349)" fill="currentColor"/>
  </g>
</svg>
