<svg xmlns="http://www.w3.org/2000/svg" viewBox="0 0 28.075 28.085">
  <g id="wallet_2_" data-name="wallet(2)" transform="translate(0 512.1)">
    <path id="Path_12" data-name="Path 12" d="M8.369-510.257c-3.674,1.338-5.106,1.887-5.287,2.018a1.994,1.994,0,0,0-.7.987,2.247,2.247,0,0,0,.159,1.585l.241.7H2.638a2.82,2.82,0,0,0-1.1.356,3.091,3.091,0,0,0-1.453,1.832c-.077.269-.088,1.1-.088,8.292,0,7.788.005,8,.11,8.336A3.092,3.092,0,0,0,2.249-484.1c.258.071,1.821.082,10.963.082,11.775,0,10.952.022,11.659-.345a3.56,3.56,0,0,0,1.217-1.223c.329-.614.346-.773.346-2.907v-1.93l.181-.038a2.056,2.056,0,0,0,1.305-1.069l.132-.247.016-2.693c.016-2.66.011-2.7-.1-3.016a1.979,1.979,0,0,0-1.053-1.053,2.167,2.167,0,0,0-.395-.121c-.071,0-.082-.269-.082-1.908a10.428,10.428,0,0,0-.088-2.21,2.942,2.942,0,0,0-.784-1.311,2.76,2.76,0,0,0-1.706-.866l-.3-.038-.027-1.289c-.027-1.228-.033-1.3-.165-1.563a2.16,2.16,0,0,0-1.015-.965c-.329-.132-.335-.132-3.175-.159L16.332-509l-.367-1.015c-.389-1.08-.494-1.294-.784-1.574a1.785,1.785,0,0,0-1.278-.494l-.494-.022Zm5.7.055c.044.11.159.428.263.707l.181.516-.384.038a1.9,1.9,0,0,0-1.272.543,2.408,2.408,0,0,0-.411.554c-.132.263-.137.324-.154,1.552l-.016,1.272-3.844-.011-3.844-.016-.3-.79c-.159-.433-.291-.817-.291-.856a.227.227,0,0,1,.088-.143c.132-.1,9.564-3.548,9.745-3.554C13.963-510.394,14.007-510.362,14.072-510.2Zm7.678,3.011c.093.071.1.165.121,1.124l.016,1.047H13.924l.016-1.047c.016-.96.027-1.053.121-1.124C14.221-507.307,21.591-507.307,21.75-507.192Zm2.166,3.987a1.566,1.566,0,0,1,.713.7c.126.252.132.3.148,2.018l.022,1.766-1.832.022a8.735,8.735,0,0,0-2.254.143,4.145,4.145,0,0,0-2.643,2.177,3.554,3.554,0,0,0-.4,1.985,3.643,3.643,0,0,0,1.2,2.759,3.768,3.768,0,0,0,1.574,1.009l.483.17,1.936.016,1.936.016-.016,1.821a6.747,6.747,0,0,1-.115,2.035,1.309,1.309,0,0,1-.653.713l-.285.143H2.709l-.285-.143a1.309,1.309,0,0,1-.653-.713c-.093-.2-.1-.658-.115-7.7-.011-4.716.005-7.618.038-7.837a1.342,1.342,0,0,1,.982-1.135c.2-.055,2.408-.066,10.65-.06C22.787-503.292,23.736-503.287,23.917-503.2Zm2.386,6.268c.1.077.1.176.121,2.309a8.675,8.675,0,0,1-.071,2.364l-.082.132H23.807c-2.314,0-2.473-.005-2.775-.11a2.476,2.476,0,0,1-1.47-1.311,1.651,1.651,0,0,1-.175-1,1.614,1.614,0,0,1,.2-1.042,2.589,2.589,0,0,1,1.782-1.366c.143-.022,1.289-.044,2.545-.049A10.4,10.4,0,0,1,26.3-496.936Z" fill="currentColor"/>
    <path id="Path_13" data-name="Path 13" d="M382.521-207.431c-.121.044-.225.082-.23.082a1.971,1.971,0,0,0-.154.2.789.789,0,0,0-.137.526.585.585,0,0,0,.214.548c.214.23.219.23.609.23s.395,0,.609-.23a.58.58,0,0,0,.214-.543.771.771,0,0,0-.356-.735A.869.869,0,0,0,382.521-207.431Z" transform="translate(-361.05 -287.909)" fill="currentColor"/>
  </g>
</svg>
