<svg xmlns="http://www.w3.org/2000/svg" viewBox="0 0 23.378 20.094">
  <g id="Group_4356" data-name="Group 4356" transform="translate(438.2 -28.771)">
    <path id="Path_12144" data-name="Path 12144" d="M-438.2,46.44a6.537,6.537,0,0,1,.877-1.711q4.465-7.414,8.935-14.825a2.1,2.1,0,0,1,1.922-1.133,1.959,1.959,0,0,1,1.7.945c.589.931,1.148,1.882,1.718,2.825q3.9,6.474,7.8,12.951a8.2,8.2,0,0,1,.422.947v.639a4.846,4.846,0,0,1-.175.51,2.089,2.089,0,0,1-2.054,1.276q-9.46,0-18.919,0c-.061,0-.122,0-.182,0A1.905,1.905,0,0,1-437.7,48.1a6.263,6.263,0,0,1-.5-1.025Zm11.664.908h9.4a1.579,1.579,0,0,0,.318-.02.565.565,0,0,0,.416-.788,2.005,2.005,0,0,0-.143-.259l-4.921-8.164q-2.231-3.7-4.466-7.4a1.044,1.044,0,0,0-.354-.37c-.3-.164-.582-.021-.814.365l-9.231,15.311a5.552,5.552,0,0,0-.284.493.564.564,0,0,0,.422.815,1.637,1.637,0,0,0,.3.016Z" fill="currentColor" fill-rule="evenodd"/>
    <path id="Path_12145" data-name="Path 12145" d="M-249.286,142.046c-.03.942-.065,1.884-.088,2.827a.609.609,0,0,1-.422.608,1.158,1.158,0,0,1-.824.014.551.551,0,0,1-.406-.545q-.1-2.838-.193-5.676a.822.822,0,0,1,.629-.91,1.107,1.107,0,0,1,1.282.38,1.158,1.158,0,0,1,.117.544c-.013.92-.046,1.839-.072,2.759Z" transform="translate(-176.309 -103.285)" fill="currentColor" fill-rule="evenodd"/>
    <path id="Path_12146" data-name="Path 12146" d="M-251.932,283.689a1.077,1.077,0,0,1,1.089-1.078,1.1,1.1,0,0,1,1.063,1.092,1.114,1.114,0,0,1-1.077,1.082A1.085,1.085,0,0,1-251.932,283.689Z" transform="translate(-175.637 -239.352)" fill="currentColor" fill-rule="evenodd"/>
  </g>
</svg>
