<svg xmlns="http://www.w3.org/2000/svg" width="26.856" height="29.062" viewBox="0 0 26.856 29.062">
  <g id="watchlist" transform="translate(-19 512)">
    <path id="Path_92" data-name="Path 92" d="M19.216-511.858a.794.794,0,0,0-.182.358c-.045.272-.045,27.79,0,28.062a.794.794,0,0,0,.182.358l.142.142h8.98c9.962,0,9.4.023,10.6-.38a14.216,14.216,0,0,0,5.875-4.3c1.164-1.357,1.232-1.527.789-2.14a18.584,18.584,0,0,0-4.535-4.274l-.386-.227v-6.7c0-3.684-.017-6.8-.034-6.925-.034-.2-.2-.4-1.975-2.174L36.732-512H19.358ZM35.858-509.2v1.663l.148.153.153.148h3.332v6.193c0,4.932-.017,6.187-.068,6.159a11.453,11.453,0,0,0-1.612-.46,9.4,9.4,0,0,0-1.254-.085,7.359,7.359,0,0,0-3.3.772l-.534.25H23.444l-.153.148a.639.639,0,0,0,0,.84l.153.148h7.549l-.165.125a21.685,21.685,0,0,0-1.953,1.8l-.522.568h-4.91l-.153.148a.639.639,0,0,0,0,.84l.153.148h4.019l-.085.125c-.165.233-.114.511.153.874a20.478,20.478,0,0,0,3.1,3.269,20.119,20.119,0,0,0,1.737,1.22c.085.051-1.26.068-6.034.068l-6.147.006v-26.791H35.858Zm1.958.034.738.738h-1.5v-.738a7.239,7.239,0,0,1,.017-.738C37.073-509.9,37.413-509.571,37.816-509.162ZM37.72-494a5.008,5.008,0,0,1,3.474,3.02,4.95,4.95,0,0,1-4.592,6.743,4.77,4.77,0,0,1-2.764-.829,4.874,4.874,0,0,1-2.2-4.115A4.937,4.937,0,0,1,37.72-494Zm-6.948,2.764a5.3,5.3,0,0,0-.324,2.055,5.373,5.373,0,0,0,.324,2.055l.142.4-.352-.335a21.423,21.423,0,0,1-1.595-1.708l-.329-.409.159-.216a20.518,20.518,0,0,1,1.521-1.669c.307-.307.568-.556.573-.556A2.319,2.319,0,0,1,30.772-491.237Zm12.294.392a8.388,8.388,0,0,1,1.408,1.686,15.758,15.758,0,0,1-2.168,2.356,1.989,1.989,0,0,1,.119-.448,6.415,6.415,0,0,0-.006-3.905C42.238-491.68,42.278-491.663,43.067-490.845Z" transform="translate(0)" fill="currentColor"/>
    <path id="Path_93" data-name="Path 93" d="M92.148-393.852a.481.481,0,0,0-.148.42.5.5,0,0,0,.568.568.5.5,0,0,0,.568-.568.481.481,0,0,0-.148-.42.481.481,0,0,0-.42-.148A.482.482,0,0,0,92.148-393.852Z" transform="translate(-68.856 -111.302)" fill="currentColor"/>
    <path id="Path_94" data-name="Path 94" d="M137.148-393.852a.481.481,0,0,0-.148.42.482.482,0,0,0,.148.42l.153.148h10.24l.153-.148a.639.639,0,0,0,0-.84L147.54-394H137.3Z" transform="translate(-111.302 -111.302)" fill="currentColor"/>
    <path id="Path_95" data-name="Path 95" d="M91.983-329.852a.639.639,0,0,0,0,.84l.153.148H104.93l.153-.148a.639.639,0,0,0,0-.84L104.93-330H92.136Z" transform="translate(-68.691 -171.67)" fill="currentColor"/>
    <path id="Path_96" data-name="Path 96" d="M91.983-265.852a.639.639,0,0,0,0,.84l.153.148H104.93l.153-.148a.639.639,0,0,0,0-.84L104.93-266H92.136Z" transform="translate(-68.691 -232.037)" fill="currentColor"/>
    <path id="Path_97" data-name="Path 97" d="M274.927-165.773a3.265,3.265,0,0,0-2.225,2.214,3.84,3.84,0,0,0,0,1.76,3.253,3.253,0,0,0,2.248,2.214,4.374,4.374,0,0,0,1.674,0,3.341,3.341,0,0,0,2.032-1.674,3.151,3.151,0,0,0-.607-3.667,3.052,3.052,0,0,0-1.436-.846A4.674,4.674,0,0,0,274.927-165.773Zm1.578,1.226a2.182,2.182,0,0,1,1.061.971,1.341,1.341,0,0,1,.193.9,1.341,1.341,0,0,1-.193.9,2.169,2.169,0,0,1-1.073.976,2.208,2.208,0,0,1-1.6-.079,2.1,2.1,0,0,1-1.1-1.487,2.069,2.069,0,0,1,1.43-2.242A2.63,2.63,0,0,1,276.505-164.547Z" transform="translate(-239.205 -326.502)" fill="currentColor"/>
  </g>
</svg>
