<svg xmlns="http://www.w3.org/2000/svg" viewBox="0 0 25.023 25.023">
  <path id="Path_13263" data-name="Path 13263" d="M440.539,41.294v1.466c-.02.176-.04.352-.06.527a12.55,12.55,0,0,1-10.3,11.056c-.471.083-.948.131-1.422.195h-1.466a1.349,1.349,0,0,0-.189-.04,11.9,11.9,0,0,1-5.459-1.722,12.349,12.349,0,0,1-5.936-8.6c-.088-.469-.131-.946-.195-1.419V41.294q.03-.264.06-.528a12.55,12.55,0,0,1,10.3-11.056c.471-.083.948-.131,1.422-.195h1.466a1.329,1.329,0,0,0,.189.04,11.907,11.907,0,0,1,5.459,1.722,12.349,12.349,0,0,1,5.936,8.6C440.432,40.344,440.475,40.821,440.539,41.294Zm-3.173-3.478a19.611,19.611,0,0,1-4.515,1.2c.037,1.022.1,2.02.1,3.018s-.064,1.993-.1,2.979c.765.162,1.526.3,2.271.49s1.487.452,2.262.691A10.307,10.307,0,0,0,437.366,37.816Zm-14.132,1.2a19.618,19.618,0,0,1-4.546-1.2,10.336,10.336,0,0,0,0,8.417,19.709,19.709,0,0,1,4.542-1.2A35.224,35.224,0,0,1,423.233,39.018Zm2.258,5.714h5.072a31.964,31.964,0,0,0,0-5.411h-5.07A32.3,32.3,0,0,0,425.491,44.733Zm4.765-7.726a13.647,13.647,0,0,0-1.142-3.913,6.227,6.227,0,0,0-.633-.98c-.334-.419-.551-.408-.905-.013a3.105,3.105,0,0,0-.268.347,8.2,8.2,0,0,0-1.035,2.409c-.194.7-.341,1.414-.515,2.148A30.579,30.579,0,0,0,430.257,37.007Zm-4.478,10.042c.022.106.035.17.047.233A14.62,14.62,0,0,0,426.86,50.8a3.894,3.894,0,0,0,.86,1.29c.237.216.381.22.612,0a2.819,2.819,0,0,0,.422-.5,12.575,12.575,0,0,0,1.519-4.54A30.417,30.417,0,0,0,425.779,47.049Zm-5.892-11.211a14.464,14.464,0,0,0,3.633.885,18.376,18.376,0,0,1,1.258-4.4A10.339,10.339,0,0,0,419.887,35.838Zm4.893,15.9a18.45,18.45,0,0,1-1.269-4.439,17.237,17.237,0,0,0-3.632.916A10.366,10.366,0,0,0,424.78,51.733Zm11.4-3.526a16.967,16.967,0,0,0-3.607-.905c-.176.763-.32,1.505-.523,2.231s-.468,1.442-.71,2.177A10.279,10.279,0,0,0,436.176,48.207Zm-4.9-15.885a18.522,18.522,0,0,1,1.269,4.437,17.188,17.188,0,0,0,3.633-.914A10.362,10.362,0,0,0,431.275,32.323Z" transform="translate(-415.516 -29.516)" fill="currentColor" fill-rule="evenodd"/>
</svg>
