<svg xmlns="http://www.w3.org/2000/svg" viewBox="0 0 60.079 60.062">
  <g id="Group_1864" data-name="Group 1864" transform="translate(-1266.053 -243.532)">
    <path id="Path_1091" data-name="Path 1091" d="M1266.053,259.955V244.822l1.291-1.29h57.481a2.254,2.254,0,0,1,1.307,2.365c-.04,4.4-.016,8.8-.017,13.195,0,1.5-.643,2.153-2.128,2.154q-3.958,0-7.917,0h-.629v40.091c0,1.653-.6,2.257-2.26,2.257h-34.19c-1.656,0-2.261-.6-2.261-2.256q0-19.675,0-39.351v-.742h-.687c-2.542,0-5.083-.036-7.624.017A2.238,2.238,0,0,1,1266.053,259.955Zm45.827,40.093V254.254h-31.6v45.794Zm10.69-52.955H1269.6v3.563h52.969ZM1269.6,257.686h7.082v-3.448H1269.6Zm52.971-3.437h-7.082V257.7h7.082Z" transform="translate(0 0)" fill="currentColor" fill-rule="evenodd"/>
    <path id="Path_1092" data-name="Path 1092" d="M1416.961,383.859c0-4.672.013-9.345-.009-14.017a2.065,2.065,0,0,1,1.348-2.162,3.375,3.375,0,0,0,1.9-1.9,2.066,2.066,0,0,1,2.162-1.35q6.921.034,13.841,0a2.064,2.064,0,0,1,2.161,1.349,3.378,3.378,0,0,0,1.9,1.9,2.067,2.067,0,0,1,1.35,2.161q-.024,14.017,0,28.034a2.068,2.068,0,0,1-1.348,2.162,3.377,3.377,0,0,0-1.9,1.9,2.064,2.064,0,0,1-2.161,1.351q-6.92-.033-13.841,0a2.066,2.066,0,0,1-2.163-1.348,3.375,3.375,0,0,0-1.894-1.9,2.065,2.065,0,0,1-1.35-2.161C1416.974,393.2,1416.961,388.531,1416.961,383.859Zm3.519,0q0,6.393-.007,12.787a.955.955,0,0,0,.407.818,20.557,20.557,0,0,1,1.895,1.889.913.913,0,0,0,.756.41c3.832-.013,7.664,0,11.5-.024a1.2,1.2,0,0,0,.7-.357q1.017-.956,1.975-1.975a1.192,1.192,0,0,0,.357-.7q.027-12.845,0-25.691a1.192,1.192,0,0,0-.357-.7q-.956-1.017-1.974-1.975a1.194,1.194,0,0,0-.7-.357c-3.832-.022-7.664-.01-11.5-.024a.908.908,0,0,0-.756.41,18.3,18.3,0,0,1-1.847,1.855,1.055,1.055,0,0,0-.456.911C1420.487,375.373,1420.48,379.615,1420.48,383.858Z" transform="translate(-133.195 -106.717)" fill="currentColor" fill-rule="evenodd"/>
    <path id="Path_1093" data-name="Path 1093" d="M1487.608,489.828a5.275,5.275,0,1,1-5.244-5.29A5.324,5.324,0,0,1,1487.608,489.828Zm-5.273,1.739a1.755,1.755,0,1,0-1.757-1.753A1.772,1.772,0,0,0,1482.335,491.567Z" transform="translate(-186.249 -212.729)" fill="currentColor" fill-rule="evenodd"/>
    <path id="Path_1094" data-name="Path 1094" d="M1510.569,426.327a1.755,1.755,0,1,1-1.729-1.782A1.772,1.772,0,0,1,1510.569,426.327Z" transform="translate(-212.73 -159.776)" fill="currentColor" fill-rule="evenodd"/>
    <path id="Path_1095" data-name="Path 1095" d="M1508.833,605.523a1.755,1.755,0,1,1-1.773,1.737A1.771,1.771,0,0,1,1508.833,605.523Z" transform="translate(-212.731 -319.521)" fill="currentColor" fill-rule="evenodd"/>
  </g>
</svg>
