<svg xmlns="http://www.w3.org/2000/svg" xmlns:xlink="http://www.w3.org/1999/xlink" width="300" height="300" viewBox="0 0 300 300">
  <defs>
    <clipPath id="clip-Wrapped_Bitcoin">
      <rect width="300" height="300"/>
    </clipPath>
  </defs>
  <g id="Wrapped_Bitcoin" data-name="Wrapped Bitcoin" clip-path="url(#clip-Wrapped_Bitcoin)">
    <rect width="300" height="300" fill="rgba(255,255,255,0)"/>
    <g id="Layer_2" data-name="Layer 2" transform="translate(5 5)">
      <g id="Layer_1" data-name="Layer 1" transform="translate(0 0)">
        <g id="Page-1">
          <g id="wbtc_colour" data-name="wbtc colour">
            <path id="Shape" d="M94.293,23.042l-8.2,7.789c40.569,42.128,40.569,106.694,0,148.822l8.2,7.789c45.136-46.49,45.136-118.092,0-164.582Z" transform="translate(140.558 39.644)" fill="#5a5564"/>
            <path id="Shape-2" data-name="Shape" d="M30.9,49.864c42.128-40.569,106.694-40.569,148.822,0l7.789-8.2C141.022-3.475,69.419-3.475,22.93,41.661Z" transform="translate(39.766 13.543)" fill="#5a5564"/>
            <path id="Shape-3" data-name="Shape" d="M49.864,179.523C9.344,137.406,9.344,72.9,49.864,30.779l-8.2-7.789c-45.136,46.49-45.136,118.092,0,164.582Z" transform="translate(13.543 39.87)" fill="#5a5564"/>
            <path id="Shape-4" data-name="Shape" d="M179.571,86.05c-42.128,40.569-106.694,40.569-148.822,0l-7.789,8.2c46.49,45.136,118.092,45.136,164.582,0Z" transform="translate(39.818 140.489)" fill="#5a5564"/>
            <path id="Shape-5" data-name="Shape" d="M139.956,75.177c-1.641-17.116-16.405-22.858-35.08-24.608V27H90.439V50.131H78.9V27H64.573V50.733H35.29V66.181s10.663-.191,10.5,0a7.464,7.464,0,0,1,8.2,6.343V137.49a5.058,5.058,0,0,1-1.75,3.527,5,5,0,0,1-3.719,1.258c.191.164-10.5,0-10.5,0L35.29,159.527H64.3v24.116H78.737v-23.76H90.275v23.651h14.464V159.691c24.389-1.476,41.4-7.492,43.529-30.322,1.723-18.374-6.918-26.577-20.725-29.885C135.936,95.355,141.131,87.7,139.956,75.177Zm-20.233,51.349c0,17.936-30.733,15.886-40.521,15.886V110.585C88.99,110.612,119.722,107.8,119.722,126.525Zm-6.7-44.841c0,16.405-25.647,14.409-33.795,14.409V67.166C87.377,67.166,113.024,64.6,113.024,81.684Z" transform="translate(56.655 42.283)" fill="#f09242"/>
            <path id="Shape-6" data-name="Shape" d="M144.973,290a145.035,145.035,0,1,0-.018,0Zm0-278.693A133.613,133.613,0,1,0,239.54,50.423a133.613,133.613,0,0,0-94.566-39.116Z" transform="translate(0 0)" fill="#282138"/>
          </g>
        </g>
      </g>
    </g>
  </g>
</svg>
