<svg xmlns="http://www.w3.org/2000/svg" width="39.634" height="36.336" viewBox="0 0 39.634 36.336">
  <g id="Group_120" data-name="Group 120" transform="translate(-1122.801 -280.788)">
    <path id="Path_1249" data-name="Path 1249" d="M1122.8,316.534V283.712a.377.377,0,0,0,.05-.1,3.334,3.334,0,0,1,3.441-2.821q14.687.007,29.375,0a3.551,3.551,0,0,1,1.781.437.9.9,0,0,1,.56.811c-.006.41-.283.613-.61.817a10.29,10.29,0,0,0-1.72,1.219c-1.582,1.518-3.117,3.086-4.662,4.642-.272.274-.506.582-.957.344-.061-.032-.153-.008-.23-.008q-8.863,0-17.726,0a1.667,1.667,0,0,0-.457.055.8.8,0,0,0,.131,1.568,3.924,3.924,0,0,0,.5.02h16.754c-1.081,1.079-2.07,2.058-3.046,3.049a.8.8,0,0,1-.635.266q-6.579-.015-13.159,0a2.1,2.1,0,0,0-.535.053.769.769,0,0,0-.581.845.779.779,0,0,0,.686.724,3.688,3.688,0,0,0,.5.021h12.757c-.017.142-.023.242-.043.34-.209,1.049-.422,2.1-.63,3.145a2.5,2.5,0,0,0,3.082,3.039c1.211-.25,2.422-.5,3.638-.726a3.163,3.163,0,0,0,1.743-.92c1.578-1.6,3.173-3.176,4.756-4.767a.921.921,0,0,1,1.036-.324.872.872,0,0,1,.525.94c-.005,3.019.013,6.038-.018,9.056a3.831,3.831,0,0,1-.342,1.564,3.225,3.225,0,0,1-3.166,1.869q-11.494,0-22.989-.006a.86.86,0,0,0-.673.279q-3.753,3.773-7.521,7.53C1123.776,317.317,1123.283,317.273,1122.8,316.534Zm14.053-15.926q2.3,0,4.6,0a3.259,3.259,0,0,0,.463-.021.808.808,0,0,0,.689-.728.8.8,0,0,0-.555-.831,1.915,1.915,0,0,0-.533-.062q-4.678-.006-9.355,0a1.93,1.93,0,0,0-.533.061.769.769,0,0,0-.553.827.782.782,0,0,0,.676.732,3.18,3.18,0,0,0,.463.022Q1134.535,300.608,1136.854,300.607Z" fill="currentColor" fill-rule="evenodd"/>
    <path id="Path_1250" data-name="Path 1250" d="M1378.423,318.6a4.627,4.627,0,0,1-1.494,2.413q-4.643,4.6-9.249,9.242a1.747,1.747,0,0,1-.96.521c-1.215.225-2.424.484-3.636.727-.817.164-1.287-.3-1.127-1.111.249-1.263.492-2.528.768-3.786a1.484,1.484,0,0,1,.373-.7q4.91-4.938,9.844-9.851a3.137,3.137,0,0,1,5.156.783,6.963,6.963,0,0,1,.326.984Zm-4.5,2.926,1.089-1.021-2.052-2.045-1.082,1.021Z" transform="translate(-215.988 -30.938)" fill="currentColor" fill-rule="evenodd"/>
  </g>
</svg>
