<svg xmlns="http://www.w3.org/2000/svg" xmlns:xlink="http://www.w3.org/1999/xlink" width="300" height="300" viewBox="0 0 300 300">
  <defs>
    <linearGradient id="linear-gradient" x1="0.028" y1="0.024" x2="0.952" y2="0.976" gradientUnits="objectBoundingBox">
      <stop offset="0" stop-color="#cf8724"/>
      <stop offset="1" stop-color="#fdce58"/>
    </linearGradient>
    <clipPath id="clip-Zcash">
      <rect width="300" height="300"/>
    </clipPath>
  </defs>
  <g id="Zcash" clip-path="url(#clip-Zcash)">
    <rect width="300" height="300" fill="rgba(255,255,255,0)"/>
    <g id="Path_3" data-name="Path 3" transform="translate(5 5)" fill="url(#linear-gradient)">
      <path d="M 270 279 L 20 279 C 15.0374002456665 279 11 274.9625854492188 11 270 L 11 20 C 11 15.0374002456665 15.0374002456665 11 20 11 L 270 11 C 274.9625854492188 11 279 15.0374002456665 279 20 L 279 270 C 279 274.9625854492188 274.9625854492188 279 270 279 Z" stroke="none"/>
      <path d="M 22 22 L 22 268 L 268 268 L 268 22 L 22 22 M 20 0 L 270 0 C 281.0457153320313 0 290 8.95428466796875 290 20 L 290 270 C 290 281.0457153320313 281.0457153320313 290 270 290 L 20 290 C 8.95428466796875 290 0 281.0457153320313 0 270 L 0 20 C 0 8.95428466796875 8.95428466796875 0 20 0 Z" stroke="none" fill="#000"/>
    </g>
    <g id="Layer_2" data-name="Layer 2" transform="translate(-8.279 -1.489)">
      <g id="Layer_1" data-name="Layer 1" transform="translate(108.687 57.295)">
        <path id="Path_6" data-name="Path 6" d="M874.219,591.559H938.63v32.206h-38v27.25h-33.05V624.61H827.938c0-10.754-1.633-21.452.844-31.361.844-4.955,6.588-9.91,10.753-14.864,12.387-14.864,24.774-29.728,38.005-44.592,4.954-5.8,9.909-10.754,15.708-17.341H831.316V484.246h36.315V457h32.206v26.4h39.637c0,10.753,1.633,21.452-.844,31.361-.844,4.955-6.588,9.909-10.754,14.864-12.386,14.864-24.773,29.728-38,44.592C884.915,580.018,879.962,585.76,874.219,591.559Z" transform="translate(-827.41 -457)"/>
      </g>
    </g>
  </g>
</svg>
