<svg xmlns="http://www.w3.org/2000/svg" xmlns:xlink="http://www.w3.org/1999/xlink" width="155.534" height="155.534" viewBox="0 0 155.534 155.534">
  <defs>
    <filter id="Rectangle_170" x="0" y="0" width="155.534" height="155.534" filterUnits="userSpaceOnUse">
      <feOffset dy="3" input="SourceAlpha"/>
      <feGaussianBlur stdDeviation="3" result="blur"/>
      <feFlood flood-opacity="0"/>
      <feComposite operator="in" in2="blur"/>
      <feComposite in="SourceGraphic"/>
    </filter>
  </defs>
  <g id="Group_3647" data-name="Group 3647" transform="translate(-184.147 -1083.208)">
    <g transform="matrix(1, 0, 0, 1, 184.15, 1083.21)" filter="url(#Rectangle_170)">
      <rect id="Rectangle_170-2" data-name="Rectangle 170" width="99.745" height="94.758" rx="10" transform="translate(76 6) rotate(45)" fill="#786afd" opacity="0.08"/>
    </g>
    <g id="Group_3695" data-name="Group 3695" transform="translate(-222.018 1115.373)">
      <path id="Path_12852" data-name="Path 12852" d="M673.232,49.058a.4.4,0,0,0-.07.106c-.832,3.158-2.739,4.633-5.992,4.634-1.763,0-3.526.018-5.288-.015a1.562,1.562,0,0,1-1.045-.348,1.48,1.48,0,0,1-.266-1.094c.082-.525.538-.741,1.065-.742,1.7,0,3.4,0,5.1,0,.408,0,.819.014,1.224-.026a3.291,3.291,0,0,0,3.079-3.357c.005-.318,0-.637,0-1.032h-.814q-6.127,0-12.254,0a3.973,3.973,0,0,1-.77-.044,1.074,1.074,0,0,1-.062-2.089,3.272,3.272,0,0,1,.83-.069q6.127-.006,12.254,0H671V40.567H648.058c-1.189,0-1.461-.235-1.631-1.416-.22-1.531-.465-3.059-.634-4.6a3.293,3.293,0,0,1,.194-1.433c.476-1.31,1.007-2.6,1.548-3.887a.955.955,0,0,0-.133-1.106c-.816-1.025-1.569-2.1-2.377-3.132a1.511,1.511,0,0,1-.257-1.616c.27-.7.481-1.416.732-2.169l-3.49-2.331c-.7-.465-1.4-.926-2.091-1.4-1.065-.72-1.094-1.422-.1-2.227h28.767c.237.08.473.163.712.239a5.422,5.422,0,0,1,3.61,3.443c.132.355.216.727.322,1.091ZM671.01,38.367c.012-.2.023-.306.023-.411,0-5.719.01-11.438-.005-17.156a3.271,3.271,0,0,0-3.365-3.337q-11.61-.017-23.219,0a4.109,4.109,0,0,0-.491.071c1.169.783,2.243,1.494,3.307,2.218a1.136,1.136,0,0,1,.538,1.541c-.222.695-.444,1.391-.7,2.072a.855.855,0,0,0,.153.934c.832,1.068,1.619,2.171,2.452,3.238a1.49,1.49,0,0,1,.213,1.67c-.472,1.081-.839,2.209-1.334,3.279a4.62,4.62,0,0,0-.406,3.286,8.84,8.84,0,0,1,.269,1.912c.026.56.235.7.784.7q10.546-.029,21.091-.013Z" transform="translate(-153.601)" fill-rule="evenodd"/>
      <path id="Path_12853" data-name="Path 12853" d="M475.9,15.26q3.381,2.245,6.76,4.493a1.143,1.143,0,0,1,.522,1.549,16.723,16.723,0,0,1-.617,1.828,1.185,1.185,0,0,0,.235,1.383c.779.972,1.509,1.983,2.254,2.983.6.8.594,1.177-.019,1.945-1.18,1.478-2.376,2.944-3.532,4.44a1.217,1.217,0,0,0-.2.855c.231,1.354.524,2.7.783,4.046s-.1,1.785-1.463,1.785h-24.8v4.406h.772q6.126,0,12.253,0a4.09,4.09,0,0,1,.706.038,1.047,1.047,0,0,1,.919,1.134,1.025,1.025,0,0,1-.984,1.01,6.148,6.148,0,0,1-.708.022H455.85c-.391,2.739,1.046,4.412,3.717,4.415,1.806,0,3.611,0,5.417,0,.865,0,1.375.433,1.357,1.115-.017.656-.522,1.08-1.341,1.083-1.935.009-3.87.027-5.8,0a5.492,5.492,0,0,1-5.511-4.5,1.426,1.426,0,0,0-.1-.234V19.9a5.528,5.528,0,0,1,1.94-3.285,20.842,20.842,0,0,1,2.7-1.359ZM455.78,38.309h23.962c-.258-1.3-.48-2.543-.761-3.776a1.659,1.659,0,0,1,.388-1.541c1.222-1.494,2.416-3.011,3.642-4.546-.892-1.19-1.758-2.363-2.646-3.52a1.387,1.387,0,0,1-.23-1.443c.2-.541.33-1.114.558-1.644a.669.669,0,0,0-.316-.986c-1.572-1.01-3.107-2.075-4.678-3.087a1.972,1.972,0,0,0-1.007-.3q-7.64-.027-15.279-.012a3.338,3.338,0,0,0-3.633,3.656q0,6.9,0,13.8Z" fill-rule="evenodd"/>
      <path id="Path_12854" data-name="Path 12854" d="M548.713,208.376c-1.26-.246-2.54-.413-3.775-.751a19.758,19.758,0,1,1,8.831.441c-.65.124-1.307.207-1.961.31Zm-16.064-19.79A17.612,17.612,0,1,0,550.2,170.957,17.628,17.628,0,0,0,532.649,188.586Z" transform="translate(-63.654 -127.068)" fill="#7a6cff" fill-rule="evenodd"/>
      <path id="Path_12855" data-name="Path 12855" d="M729.523,60.11c1.935,0,3.869,0,5.8,0,.885,0,1.357.4,1.346,1.109-.011.677-.49,1.086-1.321,1.088q-5.836.008-11.671,0a1.128,1.128,0,0,1-1.239-.812.972.972,0,0,1,.424-1.18,1.733,1.733,0,0,1,.855-.2C725.655,60.1,727.589,60.11,729.523,60.11Z" transform="translate(-222.565 -37.133)" fill-rule="evenodd"/>
      <path id="Path_12856" data-name="Path 12856" d="M729.568,94.206q-2.772,0-5.544,0a3.876,3.876,0,0,1-.706-.04,1.077,1.077,0,0,1-.09-2.091,2.348,2.348,0,0,1,.637-.07q5.705-.006,11.411,0a2.474,2.474,0,0,1,.638.063,1.078,1.078,0,0,1-.094,2.105,4.225,4.225,0,0,1-.707.034Q732.34,94.209,729.568,94.206Z" transform="translate(-222.614 -63.539)" fill-rule="evenodd"/>
      <path id="Path_12857" data-name="Path 12857" d="M639.122,221.914c0-2.279-.005-4.558,0-6.837,0-.809.328-1.241.945-1.32a1.048,1.048,0,0,1,1.22.88,3.962,3.962,0,0,1,.04.706q0,6.643,0,13.287a4.643,4.643,0,0,1-.02.58,1.068,1.068,0,0,1-1.056,1.014,1.047,1.047,0,0,1-1.107-1.022c-.045-.879-.024-1.762-.025-2.643Q639.118,224.236,639.122,221.914Z" transform="translate(-153.619 -164.342)" fill="#7a6cff" fill-rule="evenodd"/>
      <path id="Path_12858" data-name="Path 12858" d="M641.3,325.277c0,.537.024,1.075-.006,1.61A1.064,1.064,0,0,1,640.208,328a1.048,1.048,0,0,1-1.094-1.1q-.047-1.641,0-3.284a1.087,1.087,0,0,1,2.174-.009c.034.556.007,1.116.007,1.674Z" transform="translate(-153.596 -254.415)" fill="#7a6cff" fill-rule="evenodd"/>
    </g>
  </g>
</svg>
