<svg xmlns="http://www.w3.org/2000/svg" width="563.666" height="382.422" viewBox="0 0 563.666 382.422">
  <g id="Group_3622" data-name="Group 3622" transform="translate(-1044 -88.73)" opacity="0.06">
    <g id="Path_2649" data-name="Path 2649" transform="translate(1235.211 88.73) rotate(45)" fill="none">
      <path d="M0,0,270.413,0l0,270.409L0,270.413Z" stroke="none"/>
      <path d="M 225.4124450683594 45.0006103515625 L 45.00306701660156 45.00306701660156 L 45.0006103515625 225.4124450683594 L 225.4099273681641 225.4099273681641 L 225.4124450683594 45.0006103515625 M 270.4130554199219 0 L 270.4093017578125 270.4093017578125 L 0 270.4130554199219 L 0.003692626953125 0.003692626953125 L 270.4130554199219 0 Z" stroke="none" fill="#fff"/>
    </g>
    <g id="Path_2650" data-name="Path 2650" transform="translate(1416.455 88.73) rotate(45)" fill="none">
      <path d="M0,0,270.413,0l0,270.409L0,270.413Z" stroke="none"/>
      <path d="M 225.4124450683594 45.0006103515625 L 45.00306701660156 45.00306701660156 L 45.0006103515625 225.4124450683594 L 225.4099273681641 225.4099273681641 L 225.4124450683594 45.0006103515625 M 270.4130554199219 0 L 270.4093017578125 270.4093017578125 L 0 270.4130554199219 L 0.003692626953125 0.003692626953125 L 270.4130554199219 0 Z" stroke="none" fill="#fff"/>
    </g>
  </g>
</svg>
