<svg xmlns="http://www.w3.org/2000/svg" xmlns:xlink="http://www.w3.org/1999/xlink" width="155.534" height="155.534" viewBox="0 0 155.534 155.534">
  <defs>
    <filter id="Rectangle_170" x="0" y="0" width="155.534" height="155.534" filterUnits="userSpaceOnUse">
      <feOffset dy="3" input="SourceAlpha"/>
      <feGaussianBlur stdDeviation="3" result="blur"/>
      <feFlood flood-opacity="0"/>
      <feComposite operator="in" in2="blur"/>
      <feComposite in="SourceGraphic"/>
    </filter>
  </defs>
  <g id="Group_3647" data-name="Group 3647" transform="translate(-184.147 -1083.208)">
    <g transform="matrix(1, 0, 0, 1, 184.15, 1083.21)" filter="url(#Rectangle_170)">
      <rect id="Rectangle_170-2" data-name="Rectangle 170" width="99.745" height="94.758" rx="10" transform="translate(76 6) rotate(45)" fill="#786afd" opacity="0.08"/>
    </g>
    <g id="Group_3693" data-name="Group 3693" transform="translate(-216.222 1167.38)">
      <path id="Path_12830" data-name="Path 12830" d="M457.821-5.716c.284-.337.58-.648,1.086-.45s.531.611.53,1.064q-.006,9.649,0,19.3v.685h45.4V4.227a15.9,15.9,0,0,1-16.032-.27,6.488,6.488,0,0,1-1.272.288c-4.05.019-8.1.012-12.149.012-.09,0-.179,0-.269,0-.579-.026-.942-.344-.938-.82s.367-.787.955-.788q4.515-.008,9.031,0h2.662l.116-.176a1.433,1.433,0,0,1-.329-.164,15.59,15.59,0,0,1-4.329-6.188.58.58,0,0,0-.651-.451c-2.079.019-4.157.009-6.236.009a4.17,4.17,0,0,1-.43-.006.825.825,0,0,1-.79-.8.8.8,0,0,1,.833-.8c1.433-.013,2.867-.006,4.3-.006h2.3L481.346-7.4h-1.409c-1.577,0-3.154,0-4.73,0-.645,0-1.01-.285-1.029-.771-.019-.51.365-.835,1.026-.837,1.792-.006,3.584,0,5.376,0h.642a16.038,16.038,0,0,1,1.317-6.925c-.251-.011-.435-.027-.619-.027q-3.252,0-6.5,0a2.68,2.68,0,0,1-.639-.055.725.725,0,0,1-.589-.79.724.724,0,0,1,.7-.746c.41-.032.823-.017,1.235-.018,2.222,0,4.444-.012,6.666.009a.846.846,0,0,0,.9-.492,9.9,9.9,0,0,1,.616-.956c-.249-.011-.435-.026-.622-.026q-4.166,0-8.332,0a3.459,3.459,0,0,1-.43-.007.761.761,0,0,1-.736-.78.76.76,0,0,1,.655-.8,2.41,2.41,0,0,1,.535-.024c3.3,0,6.594.007,9.891-.015a1.252,1.252,0,0,0,.785-.319,15.823,15.823,0,0,1,18.316-2.621c.137.072.282.13.475.218V-29.8H494.88a2.289,2.289,0,0,1-.482-.015.76.76,0,0,1-.67-.785.757.757,0,0,1,.661-.791,2.464,2.464,0,0,1,.536-.02h9.918v-4.361H459.47v4.361h31.124a3.931,3.931,0,0,1,.59.012.755.755,0,0,1,.721.792.754.754,0,0,1-.714.8,3.416,3.416,0,0,1-.537.011H459.434V-9.664c0,.125-.005.251,0,.376.023.451-.019.882-.505,1.08s-.811-.079-1.108-.411V-36.9a1.2,1.2,0,0,1,1.188-.541q23.134.013,46.268.007c1,0,1.213.221,1.213,1.245,0,4.425.008,8.849-.011,13.273a1.172,1.172,0,0,0,.5,1.03,15.332,15.332,0,0,1,5.271,7.973c.275.992.418,2.02.622,3.032V-8.4a3.536,3.536,0,0,0-.092.406,15.6,15.6,0,0,1-5.932,10.8.925.925,0,0,0-.361.824q.011,5.857,0,11.714c0,.948-.239,1.191-1.16,1.191q-23.187,0-46.374.008A1.185,1.185,0,0,1,457.821,16Zm25-3.869a14.215,14.215,0,0,0,14.231,14.2,14.226,14.226,0,0,0,14.2-14.188A14.221,14.221,0,0,0,497.046-23.8,14.21,14.21,0,0,0,482.826-9.585Z" transform="translate(0)" stroke="#181c3a" stroke-width="0.5" fill-rule="evenodd"/>
      <path id="Path_12831" data-name="Path 12831" d="M498.89,62.18c0-.966-.006-1.933,0-2.9.006-.7.266-.966.98-.969q2.872-.011,5.744,0c.731,0,1.007.276,1.01,1.008q.012,2.845,0,5.69c0,.755-.284,1.034-1.05,1.038q-2.818.012-5.636,0c-.8,0-1.045-.267-1.049-1.077C498.887,64.041,498.89,63.11,498.89,62.18Zm6.09,2.234V59.953h-4.433v4.462Z" transform="translate(-35.179 -82.017)" stroke="#181c3a" stroke-width="0.5" fill-rule="evenodd"/>
      <path id="Path_12832" data-name="Path 12832" d="M498.891,143.367c0-.966-.006-1.933,0-2.9.006-.7.28-.968.982-.97q2.872-.008,5.745,0c.722,0,1,.281,1.007,1.014q.011,2.845,0,5.691c0,.751-.294,1.031-1.051,1.033q-2.819.006-5.637,0c-.768,0-1.041-.269-1.046-1.023C498.886,145.264,498.891,144.315,498.891,143.367Zm6.086,2.226v-4.454h-4.433v4.454Z" transform="translate(-35.18 -151.564)" stroke="#181c3a" stroke-width="0.5" fill-rule="evenodd"/>
      <path id="Path_12833" data-name="Path 12833" d="M502.74,228.367c-.966,0-1.933,0-2.9,0-.669,0-.949-.274-.952-.941q-.011-2.926,0-5.852c0-.654.3-.937.966-.939q2.9-.011,5.8,0c.656,0,.963.3.966.954q.017,2.926,0,5.852c0,.655-.307.922-.98.926C504.673,228.371,503.706,228.367,502.74,228.367Zm2.253-6.078h-4.46v4.421h4.46Z" transform="translate(-35.176 -221.066)" stroke="#181c3a" stroke-width="0.5" fill-rule="evenodd"/>
      <path id="Path_12834" data-name="Path 12834" d="M579.153,264.962c-2.094,0-4.187,0-6.28,0a.841.841,0,0,1-.9-.526.776.776,0,0,1,.551-1.044,2.37,2.37,0,0,1,.585-.044q6.065,0,12.131,0c.107,0,.215,0,.322,0a.811.811,0,0,1,.867.823c-.006.485-.327.782-.889.785-1.5.007-3.006,0-4.509,0Z" transform="translate(-97.737 -257.66)" stroke="#181c3a" stroke-width="0.5" fill-rule="evenodd"/>
      <path id="Path_12835" data-name="Path 12835" d="M574.976,222.241c-.715,0-1.43.006-2.145,0-.576-.007-.942-.329-.938-.8s.369-.8.948-.8q2.119-.013,4.237,0c.622,0,.968.324.951.841-.017.492-.347.762-.961.767C576.37,222.246,575.673,222.241,574.976,222.241Z" transform="translate(-97.717 -221.063)" stroke="#181c3a" stroke-width="0.5" fill-rule="evenodd"/>
      <path id="Path_12836" data-name="Path 12836" d="M574.968,139.495c.715,0,1.431-.007,2.146,0,.584.008.923.321.913.818a.8.8,0,0,1-.894.788q-2.172.014-4.345,0a.821.821,0,0,1-.9-.8c-.007-.476.358-.8.933-.81C573.537,139.488,574.252,139.495,574.968,139.495Z" transform="translate(-97.713 -151.562)" stroke="#181c3a" stroke-width="0.5" fill-rule="evenodd"/>
      <path id="Path_12837" data-name="Path 12837" d="M575,58.311c.715,0,1.43-.011,2.144,0,.572.011.881.3.884.787a.782.782,0,0,1-.868.813q-2.2.026-4.4,0a.8.8,0,1,1,.037-1.6C573.538,58.3,574.271,58.311,575,58.311Z" transform="translate(-97.721 -82.017)" stroke="#181c3a" stroke-width="0.5" fill-rule="evenodd"/>
      <path id="Path_12838" data-name="Path 12838" d="M619.737-14.872a4.647,4.647,0,0,1-.588,0,.757.757,0,0,1-.73-.78.741.741,0,0,1,.7-.8,6.266,6.266,0,0,1,1.122-.011.789.789,0,0,1,.787.785.8.8,0,0,1-.81.816c-.16.01-.321,0-.482,0Z" transform="translate(-137.572 -17.943)" fill="#7a6cff" stroke="#7a6cff" stroke-width="0.5" fill-rule="evenodd"/>
      <path id="Path_12839" data-name="Path 12839" d="M650.124-14.858a4.994,4.994,0,0,1-.534,0,.757.757,0,0,1-.75-.757.766.766,0,0,1,.722-.835,7.532,7.532,0,0,1,1.069-.007.8.8,0,0,1,.814.815.811.811,0,0,1-.84.789c-.16.009-.321,0-.481,0Z" transform="translate(-163.63 -17.956)" fill="#7a6cff" stroke="#7a6cff" stroke-width="0.5" fill-rule="evenodd"/>
      <path id="Path_12840" data-name="Path 12840" d="M589.377-14.855c-.161,0-.322.01-.481,0a.786.786,0,0,1-.79-.775.785.785,0,0,1,.794-.827,8.161,8.161,0,0,1,1.015,0,.8.8,0,0,1,.8.829.8.8,0,0,1-.8.772C589.734-14.844,589.555-14.855,589.377-14.855Z" transform="translate(-111.605 -17.957)" fill="#7a6cff" stroke="#7a6cff" stroke-width="0.5" fill-rule="evenodd"/>
      <path id="Path_12841" data-name="Path 12841" d="M676.474,90.722a11.033,11.033,0,0,1-21.883,2.119,11.035,11.035,0,0,1,10.586-13.06,10.652,10.652,0,0,1,7.288,2.54,1.312,1.312,0,0,1,.469.883c-.016.69-.811.9-1.417.4a9.736,9.736,0,0,0-4.528-2.091,9.44,9.44,0,1,0,6.756,4.842c-.042-.079-.085-.157-.121-.239a.792.792,0,0,1,.329-1.105.781.781,0,0,1,1.09.368,10.78,10.78,0,0,1,1.384,4.366C676.46,90.1,676.462,90.46,676.474,90.722Z" transform="translate(-168.401 -100.409)" fill="#7a6cff" stroke="#7a6cff" stroke-width="0.5" fill-rule="evenodd"/>
      <path id="Path_12842" data-name="Path 12842" d="M711.938,115.872c0-.438-.013-.831,0-1.223a.766.766,0,0,1,.757-.808.786.786,0,0,1,.841.788c.026.405.005.813.005,1.277.312,0,.559-.012.8,0a1.729,1.729,0,0,1,1.562,1.4.869.869,0,0,1-.569,1.073c-.459.12-.82-.11-1.01-.644-.023-.064-.042-.129-.07-.218-.746,0-1.48-.015-2.212,0a.868.868,0,0,0-.886.887.887.887,0,0,0,.843.935c.41.031.824.009,1.236.012a2.542,2.542,0,0,1,.539,5.049l-.233.054c0,.371.007.727,0,1.083-.014.59-.317.94-.8.945s-.8-.337-.807-.927c-.007-.354,0-.709,0-1.1-.313-.014-.577-.019-.839-.04a1.7,1.7,0,0,1-1.549-1.638.753.753,0,0,1,.609-.831.721.721,0,0,1,.928.52.413.413,0,0,0,.489.355c.591-.018,1.183.006,1.774-.011a.906.906,0,0,0,.968-.926.929.929,0,0,0-.99-.912c-.394-.012-.788,0-1.182,0a2.541,2.541,0,0,1-.58-5.027C711.665,115.916,711.772,115.9,711.938,115.872Z" transform="translate(-215.635 -129.588)" fill="#7a6cff" stroke="#7a6cff" stroke-width="0.5" fill-rule="evenodd"/>
    </g>
  </g>
</svg>
