<svg xmlns="http://www.w3.org/2000/svg" viewBox="0 0 21.796 21.794">
  <g id="Group_3768" data-name="Group 3768" transform="translate(-441 20)">
    <path id="Path_13011" data-name="Path 13011" d="M441-3.49V-14.723c.014-.068.033-.135.04-.2a5.751,5.751,0,0,1,4.014-4.813c.4-.116.814-.175,1.222-.26H457.51a1.4,1.4,0,0,0,.164.037,5.727,5.727,0,0,1,5.106,5.608q.031,5.233,0,10.466a5.717,5.717,0,0,1-5.671,5.67q-5.212.028-10.424,0A5.7,5.7,0,0,1,441.3-2.149,13.731,13.731,0,0,1,441-3.49ZM458.957-9.1q0-1.585,0-3.17a3.827,3.827,0,0,0-3.909-3.9q-3.159,0-6.318,0a3.828,3.828,0,0,0-3.9,3.908q0,3.159,0,6.318a3.827,3.827,0,0,0,3.887,3.9q3.18,0,6.361,0a3.827,3.827,0,0,0,3.879-3.887C458.959-6.987,458.957-8.044,458.957-9.1Z" fill="currentColor" fill-rule="evenodd"/>
    <path id="Path_13012" data-name="Path 13012" d="M572.538,105.748q0,1.585,0,3.169a2.554,2.554,0,0,1-2.623,2.619q-3.169,0-6.338,0a2.554,2.554,0,0,1-2.613-2.607q0-3.18,0-6.359a2.553,2.553,0,0,1,2.612-2.607q3.18,0,6.359,0a2.552,2.552,0,0,1,2.6,2.6C572.54,103.622,572.538,104.685,572.538,105.748Zm-8.978,0a3.191,3.191,0,1,0,3.188-3.194A3.2,3.2,0,0,0,563.56,105.752Zm6.848-3.025a.638.638,0,1,0-.635-.635A.645.645,0,0,0,570.408,102.727Z" transform="translate(-114.858 -114.856)" fill="currentColor" fill-rule="evenodd"/>
    <path id="Path_13013" data-name="Path 13013" d="M655.816,192.909a1.914,1.914,0,1,1-1.9-1.921A1.917,1.917,0,0,1,655.816,192.909Z" transform="translate(-202.008 -202.009)" fill="currentColor" fill-rule="evenodd"/>
  </g>
</svg>
