<svg xmlns="http://www.w3.org/2000/svg" viewBox="0 0 21.952 21.952">
  <g id="Group_3767" data-name="Group 3767" transform="translate(-697.75 -36.75)">
    <path id="Path_13009" data-name="Path 13009" d="M697.75,56.044V39.408c.014-.054.031-.107.042-.161a2.907,2.907,0,0,1,1.664-2.2,6.81,6.81,0,0,1,.953-.3h16.635a1.078,1.078,0,0,0,.121.037,2.948,2.948,0,0,1,2.428,2.166c.046.148.073.3.108.455V56.044c-.014.054-.031.108-.042.163a2.949,2.949,0,0,1-2.12,2.373c-.162.052-.33.082-.5.122H700.408a1.07,1.07,0,0,0-.121-.038,2.953,2.953,0,0,1-2.43-2.167C697.811,56.349,697.785,56.195,697.75,56.044ZM714.529,43.65c.206-.357.421-.715.617-1.084.042-.079.009-.2.011-.3a1.3,1.3,0,0,0-.292.044c-.4.156-.79.324-1.185.486a.549.549,0,0,1-.59-.117,2.874,2.874,0,0,0-3.2-.345A2.8,2.8,0,0,0,708.271,45c-.008.465,0,.466-.46.4a7.75,7.75,0,0,1-4.9-2.721c-.17-.2-.255-.192-.375.039a2.807,2.807,0,0,0-.167,2.361,8.966,8.966,0,0,0,.594,1.106c-.14-.057-.312-.12-.479-.2-.237-.108-.324-.063-.313.194a2.914,2.914,0,0,0,1.411,2.455l.217.137a.961.961,0,0,1-.333,0c-.3-.045-.374.037-.257.325a2.942,2.942,0,0,0,1.966,1.8c.091.028.184.052.31.088a5.221,5.221,0,0,1-2.235.852c-.36.046-.727.03-1.088.069a.366.366,0,0,0-.263.185c-.023.062.092.177.15.266.014.021.048.029.073.043a8.132,8.132,0,0,0,5.171.944,7.556,7.556,0,0,0,4.863-2.62,8.187,8.187,0,0,0,2.029-5.2,1.092,1.092,0,0,1,.4-.846,10.088,10.088,0,0,0,.912-1.018c.052-.062.041-.175.06-.264a.865.865,0,0,0-.272-.008C715.015,43.469,714.757,43.569,714.529,43.65Z" fill="currentColor" fill-rule="evenodd"/>
    <path id="Path_13010" data-name="Path 13010" d="M782.8,130.283c.228-.08.486-.18.75-.26a.865.865,0,0,1,.272.008c-.018.089-.008.2-.06.264a10.088,10.088,0,0,1-.912,1.018,1.092,1.092,0,0,0-.4.846,8.187,8.187,0,0,1-2.029,5.2,7.556,7.556,0,0,1-4.863,2.62,8.132,8.132,0,0,1-5.171-.944c-.025-.014-.059-.022-.073-.043-.059-.088-.174-.2-.15-.266a.366.366,0,0,1,.263-.185c.361-.039.729-.023,1.088-.069a5.221,5.221,0,0,0,2.235-.852c-.126-.036-.218-.06-.31-.088a2.942,2.942,0,0,1-1.966-1.8c-.116-.288-.045-.371.257-.325a.961.961,0,0,0,.333,0l-.217-.137a2.914,2.914,0,0,1-1.411-2.455c-.01-.257.076-.3.313-.194.167.076.339.139.479.2a8.958,8.958,0,0,1-.594-1.106,2.806,2.806,0,0,1,.167-2.361c.12-.231.205-.239.375-.039a7.75,7.75,0,0,0,4.9,2.721c.462.07.452.069.46-.4a2.8,2.8,0,0,1,1.62-2.666,2.874,2.874,0,0,1,3.2.345.549.549,0,0,0,.59.117c.395-.163.787-.33,1.185-.486a1.3,1.3,0,0,1,.292-.044c0,.1.031.218-.011.3C783.226,129.568,783.01,129.926,782.8,130.283Z" transform="translate(-68.276 -86.634)" fill="#fff" fill-rule="evenodd"/>
  </g>
</svg>
