<svg xmlns="http://www.w3.org/2000/svg" width="1395" height="147" viewBox="0 0 1395 147">
  <g id="_1" data-name="1" transform="translate(-104 -317)">
    <g id="Rectangle_140" data-name="Rectangle 140" transform="translate(104 317)" fill="#fff" stroke="#ebebeb" stroke-width="1">
      <rect width="330" height="147" rx="5" stroke="none"/>
      <rect x="0.5" y="0.5" width="329" height="146" rx="4.5" fill="none"/>
    </g>
    <circle id="Ellipse_33" data-name="Ellipse 33" cx="14" cy="14" r="14" transform="translate(126 337)" fill="#0ecc00"/>
    <path id="Path_12666" data-name="Path 12666" d="M7.616-9.884v1.568H4.886V0H2.912V-8.316H.2V-9.884Zm4.676,2.03a4.3,4.3,0,0,1,2.037.476A3.484,3.484,0,0,1,15.75-6a4.189,4.189,0,0,1,.518,2.121,4.151,4.151,0,0,1-.518,2.114A3.543,3.543,0,0,1,14.329-.385,4.25,4.25,0,0,1,12.292.1a4.25,4.25,0,0,1-2.037-.483A3.543,3.543,0,0,1,8.834-1.764a4.151,4.151,0,0,1-.518-2.114A4.189,4.189,0,0,1,8.834-6a3.484,3.484,0,0,1,1.421-1.379A4.3,4.3,0,0,1,12.292-7.854Zm0,1.708a1.893,1.893,0,0,0-1.4.581,2.3,2.3,0,0,0-.574,1.687,2.3,2.3,0,0,0,.574,1.687,1.893,1.893,0,0,0,1.4.581,1.893,1.893,0,0,0,1.4-.581,2.3,2.3,0,0,0,.574-1.687,2.3,2.3,0,0,0-.574-1.687A1.893,1.893,0,0,0,12.292-6.146Zm9.52,4.452V0H20.776a2.866,2.866,0,0,1-1.995-.63,2.727,2.727,0,0,1-.693-2.1V-6.09H17.01V-7.756h1.078V-9.674h1.974v1.918H21.8V-6.09H20.062V-2.7a1.093,1.093,0,0,0,.224.784,1.046,1.046,0,0,0,.756.224Zm4.452-6.16a2.981,2.981,0,0,1,1.68.462,2.516,2.516,0,0,1,.994,1.246v-1.61H30.9V0h-1.96V-1.624a2.553,2.553,0,0,1-.994,1.253A2.948,2.948,0,0,1,26.264.1,3.332,3.332,0,0,1,24.5-.378a3.216,3.216,0,0,1-1.225-1.379,4.782,4.782,0,0,1-.441-2.121A4.782,4.782,0,0,1,23.275-6,3.216,3.216,0,0,1,24.5-7.378,3.332,3.332,0,0,1,26.264-7.854Zm.616,1.722a1.931,1.931,0,0,0-1.484.6,2.331,2.331,0,0,0-.56,1.652,2.3,2.3,0,0,0,.56,1.645,1.942,1.942,0,0,0,1.484.595,1.953,1.953,0,0,0,1.477-.609,2.265,2.265,0,0,0,.581-1.631,2.284,2.284,0,0,0-.581-1.645A1.953,1.953,0,0,0,26.88-6.132Zm7.784-4.228V0H32.69V-10.36ZM44.66,0,42.35-3.85h-.868V0H39.508V-9.884h3.766a3.719,3.719,0,0,1,2.625.84,2.879,2.879,0,0,1,.9,2.212,2.852,2.852,0,0,1-.623,1.876,3.074,3.074,0,0,1-1.8,1.008L46.844,0ZM41.482-5.208h1.624q1.694,0,1.694-1.5a1.475,1.475,0,0,0-.413-1.113,1.786,1.786,0,0,0-1.281-.4H41.482ZM55.426-4.172a3.737,3.737,0,0,1-.07.672H49.672a2.138,2.138,0,0,0,.56,1.526,1.8,1.8,0,0,0,1.288.49,1.869,1.869,0,0,0,1.141-.336,1.488,1.488,0,0,0,.581-.91h2.086a3.337,3.337,0,0,1-.658,1.456A3.438,3.438,0,0,1,53.375-.266,4.153,4.153,0,0,1,51.618.1,4.128,4.128,0,0,1,49.6-.385,3.4,3.4,0,0,1,48.23-1.764a4.34,4.34,0,0,1-.49-2.114A4.381,4.381,0,0,1,48.23-6,3.34,3.34,0,0,1,49.6-7.378a4.177,4.177,0,0,1,2.016-.476,4.086,4.086,0,0,1,2.009.476,3.355,3.355,0,0,1,1.33,1.309A3.8,3.8,0,0,1,55.426-4.172Zm-1.988-.2a1.74,1.74,0,0,0-.5-1.442,1.9,1.9,0,0,0-1.323-.49,1.939,1.939,0,0,0-1.344.49,2.006,2.006,0,0,0-.6,1.442ZM60.97-1.694V0H59.934a2.866,2.866,0,0,1-2-.63,2.727,2.727,0,0,1-.693-2.1V-6.09H56.168V-7.756h1.078V-9.674H59.22v1.918h1.736V-6.09H59.22V-2.7a1.093,1.093,0,0,0,.224.784,1.046,1.046,0,0,0,.756.224ZM69.8-7.756V0H67.83V-1.568A2.471,2.471,0,0,1,66.815-.343,3.017,3.017,0,0,1,65.184.1a2.746,2.746,0,0,1-2.142-.882,3.541,3.541,0,0,1-.8-2.464V-7.756H64.2v4.284a2.025,2.025,0,0,0,.476,1.435,1.675,1.675,0,0,0,1.288.511,1.758,1.758,0,0,0,1.358-.546,2.23,2.23,0,0,0,.5-1.568V-7.756ZM73.57-6.272a3.244,3.244,0,0,1,1.148-1.169,3.05,3.05,0,0,1,1.6-.427v2.114H75.74q-2.17,0-2.17,2.016V0H71.6V-7.756H73.57Zm8.456-1.6a2.746,2.746,0,0,1,2.142.882,3.563,3.563,0,0,1,.8,2.478V0h-1.96V-4.284a2.025,2.025,0,0,0-.476-1.435,1.692,1.692,0,0,0-1.3-.511,1.741,1.741,0,0,0-1.344.546,2.23,2.23,0,0,0-.5,1.568V0H77.406V-7.756H79.38V-6.2a2.471,2.471,0,0,1,1.015-1.225A3.017,3.017,0,0,1,82.026-7.868Z" transform="translate(165 355)" fill="#303544"/>
    <rect id="Rectangle_141" data-name="Rectangle 141" width="90" height="35" rx="6" transform="translate(265 331)" fill="#0ecc00"/>
    <path id="Path_12667" data-name="Path 12667" d="M7.532-4.074H4.914v2.66H3.01v-2.66H.392V-5.88H3.01V-8.554h1.9V-5.88H7.532Zm3.612-3.962V-9.884H14.7V0H12.628V-8.036Zm4.62,0V-9.884H19.32V0H17.248V-8.036ZM27.02-8.5,23.408,0H21.364l3.654-8.274H20.44V-9.968h6.58Zm2.842,6.44V0H27.734V-2.058Zm3.164-.882q.224,1.456,1.512,1.456a1.472,1.472,0,0,0,1.414-.861A5.889,5.889,0,0,0,36.33-5.04a1.962,1.962,0,0,1-.875,1.071,2.848,2.848,0,0,1-1.519.4,2.953,2.953,0,0,1-2.247-.861,3.406,3.406,0,0,1-.819-2.443A3.729,3.729,0,0,1,31.262-8.6a2.833,2.833,0,0,1,1.169-1.2,3.808,3.808,0,0,1,1.883-.434,3.211,3.211,0,0,1,2.968,1.309,6.883,6.883,0,0,1,.812,3.633,7.952,7.952,0,0,1-.819,4.018A2.933,2.933,0,0,1,34.538.1a3.581,3.581,0,0,1-1.757-.406,2.889,2.889,0,0,1-1.134-1.1,3.637,3.637,0,0,1-.469-1.533Zm3.136-3.794a1.875,1.875,0,0,0-.455-1.295A1.7,1.7,0,0,0,34.37-8.54a1.627,1.627,0,0,0-1.2.448,1.684,1.684,0,0,0-.448,1.246,1.752,1.752,0,0,0,.455,1.3A1.655,1.655,0,0,0,34.4-5.1a1.9,1.9,0,0,0,1.239-.427A1.472,1.472,0,0,0,36.162-6.734Zm3.122,4.746V-3.626L44.016-10H46.13v6.3h1.288v1.708H46.13V0H44.142V-1.988Zm5.012-5.7-3,3.99h3Zm6.188-2.352a2.226,2.226,0,0,1,1.6.595A2.167,2.167,0,0,1,52.71-7.8a2.167,2.167,0,0,1-.623,1.645,2.226,2.226,0,0,1-1.6.6,2.226,2.226,0,0,1-1.6-.6A2.167,2.167,0,0,1,48.258-7.8a2.167,2.167,0,0,1,.623-1.645A2.226,2.226,0,0,1,50.484-10.038Zm6.328.126L51.31,0h-1.9l5.5-9.912ZM49.588-7.8a1.157,1.157,0,0,0,.238.763.793.793,0,0,0,.644.287.834.834,0,0,0,.658-.287A1.115,1.115,0,0,0,51.38-7.8a1.115,1.115,0,0,0-.252-.763.834.834,0,0,0-.658-.287.793.793,0,0,0-.644.287A1.157,1.157,0,0,0,49.588-7.8Zm6.16,3.444a2.2,2.2,0,0,1,1.6.6,2.18,2.18,0,0,1,.616,1.645,2.18,2.18,0,0,1-.616,1.645,2.2,2.2,0,0,1-1.6.6,2.226,2.226,0,0,1-1.6-.6,2.167,2.167,0,0,1-.623-1.645,2.167,2.167,0,0,1,.623-1.645A2.226,2.226,0,0,1,55.748-4.354Zm-.9,2.24a1.18,1.18,0,0,0,.238.777.793.793,0,0,0,.644.287.834.834,0,0,0,.658-.287,1.136,1.136,0,0,0,.252-.777,1.142,1.142,0,0,0-.252-.77.825.825,0,0,0-.658-.294.793.793,0,0,0-.644.287A1.18,1.18,0,0,0,54.852-2.114Z" transform="translate(280 353)" fill="#fff"/>
    <g id="information_1_" data-name="information(1)" transform="translate(367.938 851.847)">
      <path id="Path_178" data-name="Path 178" d="M5.246-511.819a6.167,6.167,0,0,0-3.661,1.808,5.45,5.45,0,0,0-1.457,2.823,6.6,6.6,0,0,0-.033,1.6,5.243,5.243,0,0,0,.863,2.283l.221.33-.549,1.3a8.413,8.413,0,0,0-.552,1.4.35.35,0,0,0,.163.3c.156.091.188.079,1.848-.556l1.555-.593.31.1a5.9,5.9,0,0,0,2.26.333,5.268,5.268,0,0,0,1.308-.168,6.039,6.039,0,0,0,3.146-1.908,5.445,5.445,0,0,0,1.271-2.8,6.756,6.756,0,0,0,0-1.406,5.8,5.8,0,0,0-5.171-4.847A9.229,9.229,0,0,0,5.246-511.819Zm1.168.7a5.264,5.264,0,0,1,2.071.563,4.887,4.887,0,0,1,2.734,3.665,5.925,5.925,0,0,1,0,1.252,4.913,4.913,0,0,1-2.769,3.682,5.45,5.45,0,0,1-2.439.556,5.462,5.462,0,0,1-2.087-.4.926.926,0,0,0-.268-.07,12.188,12.188,0,0,0-1.313.468c-.673.256-1.224.463-1.229.461s.184-.449.414-.991.424-1.01.431-1.04c.03-.114-.016-.219-.2-.463a4.629,4.629,0,0,1-.742-1.375A3.793,3.793,0,0,1,.79-506.11a4.108,4.108,0,0,1,.228-1.615,4.935,4.935,0,0,1,1.95-2.5,7.035,7.035,0,0,1,1.143-.582,7.512,7.512,0,0,1,1.038-.265,6.759,6.759,0,0,1,.929-.065C6.117-511.137,6.268-511.127,6.415-511.123Z" transform="translate(0)" fill="#727272"/>
      <path id="Path_179" data-name="Path 179" d="M212.189-420.764a1.082,1.082,0,0,0-.614.559.722.722,0,0,0-.074.444.722.722,0,0,0,.074.444,1.059,1.059,0,0,0,.626.559.873.873,0,0,0,.382.04.735.735,0,0,0,.407-.088,1.1,1.1,0,0,0,.5-.5.723.723,0,0,0,.079-.454.723.723,0,0,0-.079-.454,1.1,1.1,0,0,0-.5-.5.721.721,0,0,0-.419-.086A.876.876,0,0,0,212.189-420.764Zm.519.721a.326.326,0,0,1,.154.282.356.356,0,0,1-.044.172.326.326,0,0,1-.282.154.318.318,0,0,1-.326-.326.318.318,0,0,1,.326-.326A.356.356,0,0,1,212.708-420.042Z" transform="translate(-206.517 -88.928)" fill="#727272"/>
      <path id="Path_180" data-name="Path 180" d="M211.154-300.956a.487.487,0,0,0-.109.109A7.277,7.277,0,0,0,211-299.08a7.277,7.277,0,0,0,.044,1.766.487.487,0,0,0,.109.109c.063.042.123.044.894.044s.831,0,.894-.044a.487.487,0,0,0,.109-.109,7.279,7.279,0,0,0,.044-1.766,7.279,7.279,0,0,0-.044-1.766.487.487,0,0,0-.109-.109c-.063-.042-.123-.044-.894-.044S211.216-301,211.154-300.956Zm1.243,1.876v1.222h-.7V-300.3h.7Z" transform="translate(-206.028 -205.943)" fill="#727272"/>
    </g>
    <path id="Path_12668" data-name="Path 12668" d="M1.517-4.551q13.9-9.635,13.9-15.99a4.6,4.6,0,0,0-.922-3.034A3.552,3.552,0,0,0,11.6-24.682q-4.059,0-4.305,5.535H1.681q.246-5.125,3.116-7.77a10.3,10.3,0,0,1,7.257-2.644q4.469,0,6.868,2.316a8.183,8.183,0,0,1,2.4,6.171,11.992,11.992,0,0,1-1.784,6.088,24.718,24.718,0,0,1-4.53,5.617A35.573,35.573,0,0,1,9.225-4.961H21.894V-.246H1.517ZM25.133-14.719Q25.133,0,36.2,0q5.863,0,8.446-3.936t2.583-10.783q0-6.806-2.583-10.742T36.2-29.4Q25.133-29.4,25.133-14.719Zm16.4,0a17.172,17.172,0,0,1-1.087,6.868q-1.087,2.4-4.243,2.4-3.2,0-4.285-2.4a17.172,17.172,0,0,1-1.087-6.868,17.041,17.041,0,0,1,1.087-6.826q1.086-2.4,4.285-2.4,3.157,0,4.243,2.4A17.041,17.041,0,0,1,41.533-14.719ZM55.391-3.731A10.914,10.914,0,0,1,56.375.738,6.418,6.418,0,0,1,55.043,4.92a5,5,0,0,1-4.12,1.64V4.346a2.077,2.077,0,0,0,1.558-.513,2.628,2.628,0,0,0,.492-1.825V1.6H50.348v-5.33ZM60.68-22.345a7.03,7.03,0,0,1,1.168-3.9,8.253,8.253,0,0,1,3.485-2.911,12.892,12.892,0,0,1,5.6-1.107,12.892,12.892,0,0,1,5.6,1.107,8.253,8.253,0,0,1,3.485,2.911,7.03,7.03,0,0,1,1.169,3.9,6.927,6.927,0,0,1-1.148,4.038,6.809,6.809,0,0,1-3.444,2.481,8.518,8.518,0,0,1,3.957,2.849,7.43,7.43,0,0,1,1.373,4.53,8.456,8.456,0,0,1-1.435,4.941A8.93,8.93,0,0,1,76.568-.369,14.154,14.154,0,0,1,70.93.7,14.154,14.154,0,0,1,65.293-.369,8.8,8.8,0,0,1,61.4-3.506a8.544,8.544,0,0,1-1.415-4.941,7.43,7.43,0,0,1,1.374-4.53,8.518,8.518,0,0,1,3.956-2.849,6.877,6.877,0,0,1-3.464-2.5A6.862,6.862,0,0,1,60.68-22.345Zm5.7.943a3.8,3.8,0,0,0,1.23,3.034A4.9,4.9,0,0,0,70.93-17.3a4.961,4.961,0,0,0,3.362-1.066,3.8,3.8,0,0,0,1.23-3.034,3.83,3.83,0,0,0-1.25-3.055,4.916,4.916,0,0,0-3.341-1.087,4.853,4.853,0,0,0-3.3,1.087A3.83,3.83,0,0,0,66.379-21.4ZM65.6-8.774A4.368,4.368,0,0,0,67.035-5.33a5.664,5.664,0,0,0,3.9,1.271A5.744,5.744,0,0,0,74.846-5.33,4.338,4.338,0,0,0,76.3-8.774a4.034,4.034,0,0,0-1.5-3.382,6.112,6.112,0,0,0-3.874-1.168A6.044,6.044,0,0,0,67.1-12.157,4.034,4.034,0,0,0,65.6-8.774Zm20.336-5.945Q85.936,0,97.006,0q5.863,0,8.446-3.936t2.583-10.783q0-6.806-2.583-10.742T97.006-29.4Q85.936-29.4,85.936-14.719Zm16.4,0a17.172,17.172,0,0,1-1.087,6.868q-1.087,2.4-4.243,2.4-3.2,0-4.285-2.4a17.172,17.172,0,0,1-1.087-6.868,17.041,17.041,0,0,1,1.087-6.826q1.087-2.4,4.285-2.4,3.157,0,4.243,2.4A17.041,17.041,0,0,1,102.336-14.719Zm24.846-6.355q-.656-4.264-4.346-4.264a4.393,4.393,0,0,0-4.182,2.521q-1.312,2.522-1.148,7.893a5.745,5.745,0,0,1,2.563-3.137,8.341,8.341,0,0,1,4.449-1.168,8.649,8.649,0,0,1,6.58,2.521q2.4,2.521,2.4,7.155a10.887,10.887,0,0,1-1.148,5.084,8.326,8.326,0,0,1-3.424,3.485A11.152,11.152,0,0,1,123.41.287q-6.314,0-8.692-3.915t-2.378-10.8q0-7.913,2.563-11.726t8.3-3.813q4.387,0,6.724,2.5a10.327,10.327,0,0,1,2.665,6.4ZM118-9.963a5.491,5.491,0,0,0,1.332,3.792,4.969,4.969,0,0,0,3.915,1.5,4.765,4.765,0,0,0,3.526-1.312,4.932,4.932,0,0,0,1.312-3.649,5.059,5.059,0,0,0-1.332-3.772,4.891,4.891,0,0,0-3.588-1.312,5.611,5.611,0,0,0-3.649,1.23A4.277,4.277,0,0,0,118-9.963Z" transform="translate(150 430)" fill="#303544"/>
    <path id="Path_12669" data-name="Path 12669" d="M7.32-9.48a27.742,27.742,0,0,1,2.9,1.032,4.713,4.713,0,0,1,1.8,1.428,4.126,4.126,0,0,1,.768,2.628A4.433,4.433,0,0,1,12.2-2.16,4.358,4.358,0,0,1,10.392-.48a6.348,6.348,0,0,1-3,.648H7.32v1.92H6.576V.12a6.316,6.316,0,0,1-3.72-1.5A4.675,4.675,0,0,1,1.248-4.56H3.576a3.273,3.273,0,0,0,.876,1.884A3.476,3.476,0,0,0,6.576-1.584V-7.728a26.7,26.7,0,0,1-2.868-1,4.576,4.576,0,0,1-1.776-1.4A4.037,4.037,0,0,1,1.176-12.7a4.1,4.1,0,0,1,.672-2.328,4.373,4.373,0,0,1,1.9-1.56,6.828,6.828,0,0,1,2.832-.552V-19.2H7.32v2.088a5.752,5.752,0,0,1,3.552,1.368,4.714,4.714,0,0,1,1.56,2.9H10.08a3.132,3.132,0,0,0-.864-1.632,3.266,3.266,0,0,0-1.9-.912ZM3.528-12.792a2.367,2.367,0,0,0,.78,1.9A6.85,6.85,0,0,0,6.576-9.72v-5.712a3.378,3.378,0,0,0-2.22.684A2.393,2.393,0,0,0,3.528-12.792ZM7.344-1.536a3.172,3.172,0,0,0,2.3-.792,2.689,2.689,0,0,0,.816-2.016,2.445,2.445,0,0,0-.816-1.968A6.711,6.711,0,0,0,7.32-7.488v5.952Z" transform="translate(131 412)" fill="#303544"/>
    <path id="Path_181" data-name="Path 181" d="M22110,2194s13-15.5,20-16.667,5.334,15.333,8,12,2-45,12.334-17.667,15-17,23-7-5.332,22,4,24.667,13.332.667,20.666-12,15.334-14.667,17.334-15.333" transform="translate(-21782 -1768)" fill="none" stroke="#0ecc00" stroke-width="1"/>
    <g id="left-arrow" transform="translate(-315.744 344.5) rotate(90)">
      <path id="Path_182" data-name="Path 182" d="M2-458.5-.5-456,2-453.5l2.507,2.507.444-.446.446-.444-1.744-1.744-1.744-1.744H12v-1.268H1.915l1.744-1.744L5.4-460.122l-.439-.439C4.722-460.8,4.52-461,4.512-461S3.376-459.876,2-458.5Z" fill="#fff" stroke="#fff" stroke-width="1"/>
    </g>
  </g>
  <g id="_2" data-name="2" transform="translate(256 -317)">
    <g id="Rectangle_140-2" data-name="Rectangle 140" transform="translate(104 317)" fill="#fff" stroke="#ebebeb" stroke-width="1">
      <rect width="330" height="147" rx="5" stroke="none"/>
      <rect x="0.5" y="0.5" width="329" height="146" rx="4.5" fill="none"/>
    </g>
    <circle id="Ellipse_33-2" data-name="Ellipse 33" cx="14" cy="14" r="14" transform="translate(126 337)" fill="#e14039"/>
    <path id="Path_12670" data-name="Path 12670" d="M7.616-9.884v1.568H4.886V0H2.912V-8.316H.2V-9.884Zm4.676,2.03a4.3,4.3,0,0,1,2.037.476A3.484,3.484,0,0,1,15.75-6a4.189,4.189,0,0,1,.518,2.121,4.151,4.151,0,0,1-.518,2.114A3.543,3.543,0,0,1,14.329-.385,4.25,4.25,0,0,1,12.292.1a4.25,4.25,0,0,1-2.037-.483A3.543,3.543,0,0,1,8.834-1.764a4.151,4.151,0,0,1-.518-2.114A4.189,4.189,0,0,1,8.834-6a3.484,3.484,0,0,1,1.421-1.379A4.3,4.3,0,0,1,12.292-7.854Zm0,1.708a1.893,1.893,0,0,0-1.4.581,2.3,2.3,0,0,0-.574,1.687,2.3,2.3,0,0,0,.574,1.687,1.893,1.893,0,0,0,1.4.581,1.893,1.893,0,0,0,1.4-.581,2.3,2.3,0,0,0,.574-1.687,2.3,2.3,0,0,0-.574-1.687A1.893,1.893,0,0,0,12.292-6.146Zm9.52,4.452V0H20.776a2.866,2.866,0,0,1-1.995-.63,2.727,2.727,0,0,1-.693-2.1V-6.09H17.01V-7.756h1.078V-9.674h1.974v1.918H21.8V-6.09H20.062V-2.7a1.093,1.093,0,0,0,.224.784,1.046,1.046,0,0,0,.756.224Zm4.452-6.16a2.981,2.981,0,0,1,1.68.462,2.516,2.516,0,0,1,.994,1.246v-1.61H30.9V0h-1.96V-1.624a2.553,2.553,0,0,1-.994,1.253A2.948,2.948,0,0,1,26.264.1,3.332,3.332,0,0,1,24.5-.378a3.216,3.216,0,0,1-1.225-1.379,4.782,4.782,0,0,1-.441-2.121A4.782,4.782,0,0,1,23.275-6,3.216,3.216,0,0,1,24.5-7.378,3.332,3.332,0,0,1,26.264-7.854Zm.616,1.722a1.931,1.931,0,0,0-1.484.6,2.331,2.331,0,0,0-.56,1.652,2.3,2.3,0,0,0,.56,1.645,1.942,1.942,0,0,0,1.484.595,1.953,1.953,0,0,0,1.477-.609,2.265,2.265,0,0,0,.581-1.631,2.284,2.284,0,0,0-.581-1.645A1.953,1.953,0,0,0,26.88-6.132Zm7.784-4.228V0H32.69V-10.36ZM44.66,0,42.35-3.85h-.868V0H39.508V-9.884h3.766a3.719,3.719,0,0,1,2.625.84,2.879,2.879,0,0,1,.9,2.212,2.852,2.852,0,0,1-.623,1.876,3.074,3.074,0,0,1-1.8,1.008L46.844,0ZM41.482-5.208h1.624q1.694,0,1.694-1.5a1.475,1.475,0,0,0-.413-1.113,1.786,1.786,0,0,0-1.281-.4H41.482ZM55.426-4.172a3.737,3.737,0,0,1-.07.672H49.672a2.138,2.138,0,0,0,.56,1.526,1.8,1.8,0,0,0,1.288.49,1.869,1.869,0,0,0,1.141-.336,1.488,1.488,0,0,0,.581-.91h2.086a3.337,3.337,0,0,1-.658,1.456A3.438,3.438,0,0,1,53.375-.266,4.153,4.153,0,0,1,51.618.1,4.128,4.128,0,0,1,49.6-.385,3.4,3.4,0,0,1,48.23-1.764a4.34,4.34,0,0,1-.49-2.114A4.381,4.381,0,0,1,48.23-6,3.34,3.34,0,0,1,49.6-7.378a4.177,4.177,0,0,1,2.016-.476,4.086,4.086,0,0,1,2.009.476,3.355,3.355,0,0,1,1.33,1.309A3.8,3.8,0,0,1,55.426-4.172Zm-1.988-.2a1.74,1.74,0,0,0-.5-1.442,1.9,1.9,0,0,0-1.323-.49,1.939,1.939,0,0,0-1.344.49,2.006,2.006,0,0,0-.6,1.442ZM60.97-1.694V0H59.934a2.866,2.866,0,0,1-2-.63,2.727,2.727,0,0,1-.693-2.1V-6.09H56.168V-7.756h1.078V-9.674H59.22v1.918h1.736V-6.09H59.22V-2.7a1.093,1.093,0,0,0,.224.784,1.046,1.046,0,0,0,.756.224ZM69.8-7.756V0H67.83V-1.568A2.471,2.471,0,0,1,66.815-.343,3.017,3.017,0,0,1,65.184.1a2.746,2.746,0,0,1-2.142-.882,3.541,3.541,0,0,1-.8-2.464V-7.756H64.2v4.284a2.025,2.025,0,0,0,.476,1.435,1.675,1.675,0,0,0,1.288.511,1.758,1.758,0,0,0,1.358-.546,2.23,2.23,0,0,0,.5-1.568V-7.756ZM73.57-6.272a3.244,3.244,0,0,1,1.148-1.169,3.05,3.05,0,0,1,1.6-.427v2.114H75.74q-2.17,0-2.17,2.016V0H71.6V-7.756H73.57Zm8.456-1.6a2.746,2.746,0,0,1,2.142.882,3.563,3.563,0,0,1,.8,2.478V0h-1.96V-4.284a2.025,2.025,0,0,0-.476-1.435,1.692,1.692,0,0,0-1.3-.511,1.741,1.741,0,0,0-1.344.546,2.23,2.23,0,0,0-.5,1.568V0H77.406V-7.756H79.38V-6.2a2.471,2.471,0,0,1,1.015-1.225A3.017,3.017,0,0,1,82.026-7.868Z" transform="translate(165 355)" fill="#303544"/>
    <rect id="Rectangle_141-2" data-name="Rectangle 141" width="90" height="35" rx="6" transform="translate(265 331)" fill="#e14039"/>
    <path id="Path_12671" data-name="Path 12671" d="M7.532-4.074H4.914v2.66H3.01v-2.66H.392V-5.88H3.01V-8.554h1.9V-5.88H7.532Zm3.612-3.962V-9.884H14.7V0H12.628V-8.036Zm4.62,0V-9.884H19.32V0H17.248V-8.036ZM27.02-8.5,23.408,0H21.364l3.654-8.274H20.44V-9.968h6.58Zm2.842,6.44V0H27.734V-2.058Zm3.164-.882q.224,1.456,1.512,1.456a1.472,1.472,0,0,0,1.414-.861A5.889,5.889,0,0,0,36.33-5.04a1.962,1.962,0,0,1-.875,1.071,2.848,2.848,0,0,1-1.519.4,2.953,2.953,0,0,1-2.247-.861,3.406,3.406,0,0,1-.819-2.443A3.729,3.729,0,0,1,31.262-8.6a2.833,2.833,0,0,1,1.169-1.2,3.808,3.808,0,0,1,1.883-.434,3.211,3.211,0,0,1,2.968,1.309,6.883,6.883,0,0,1,.812,3.633,7.952,7.952,0,0,1-.819,4.018A2.933,2.933,0,0,1,34.538.1a3.581,3.581,0,0,1-1.757-.406,2.889,2.889,0,0,1-1.134-1.1,3.637,3.637,0,0,1-.469-1.533Zm3.136-3.794a1.875,1.875,0,0,0-.455-1.295A1.7,1.7,0,0,0,34.37-8.54a1.627,1.627,0,0,0-1.2.448,1.684,1.684,0,0,0-.448,1.246,1.752,1.752,0,0,0,.455,1.3A1.655,1.655,0,0,0,34.4-5.1a1.9,1.9,0,0,0,1.239-.427A1.472,1.472,0,0,0,36.162-6.734Zm3.122,4.746V-3.626L44.016-10H46.13v6.3h1.288v1.708H46.13V0H44.142V-1.988Zm5.012-5.7-3,3.99h3Zm6.188-2.352a2.226,2.226,0,0,1,1.6.595A2.167,2.167,0,0,1,52.71-7.8a2.167,2.167,0,0,1-.623,1.645,2.226,2.226,0,0,1-1.6.6,2.226,2.226,0,0,1-1.6-.6A2.167,2.167,0,0,1,48.258-7.8a2.167,2.167,0,0,1,.623-1.645A2.226,2.226,0,0,1,50.484-10.038Zm6.328.126L51.31,0h-1.9l5.5-9.912ZM49.588-7.8a1.157,1.157,0,0,0,.238.763.793.793,0,0,0,.644.287.834.834,0,0,0,.658-.287A1.115,1.115,0,0,0,51.38-7.8a1.115,1.115,0,0,0-.252-.763.834.834,0,0,0-.658-.287.793.793,0,0,0-.644.287A1.157,1.157,0,0,0,49.588-7.8Zm6.16,3.444a2.2,2.2,0,0,1,1.6.6,2.18,2.18,0,0,1,.616,1.645,2.18,2.18,0,0,1-.616,1.645,2.2,2.2,0,0,1-1.6.6,2.226,2.226,0,0,1-1.6-.6,2.167,2.167,0,0,1-.623-1.645,2.167,2.167,0,0,1,.623-1.645A2.226,2.226,0,0,1,55.748-4.354Zm-.9,2.24a1.18,1.18,0,0,0,.238.777.793.793,0,0,0,.644.287.834.834,0,0,0,.658-.287,1.136,1.136,0,0,0,.252-.777,1.142,1.142,0,0,0-.252-.77.825.825,0,0,0-.658-.294.793.793,0,0,0-.644.287A1.18,1.18,0,0,0,54.852-2.114Z" transform="translate(280 353)" fill="#fff"/>
    <g id="information_1_2" data-name="information(1)" transform="translate(367.938 851.847)">
      <path id="Path_178-2" data-name="Path 178" d="M5.246-511.819a6.167,6.167,0,0,0-3.661,1.808,5.45,5.45,0,0,0-1.457,2.823,6.6,6.6,0,0,0-.033,1.6,5.243,5.243,0,0,0,.863,2.283l.221.33-.549,1.3a8.413,8.413,0,0,0-.552,1.4.35.35,0,0,0,.163.3c.156.091.188.079,1.848-.556l1.555-.593.31.1a5.9,5.9,0,0,0,2.26.333,5.268,5.268,0,0,0,1.308-.168,6.039,6.039,0,0,0,3.146-1.908,5.445,5.445,0,0,0,1.271-2.8,6.756,6.756,0,0,0,0-1.406,5.8,5.8,0,0,0-5.171-4.847A9.229,9.229,0,0,0,5.246-511.819Zm1.168.7a5.264,5.264,0,0,1,2.071.563,4.887,4.887,0,0,1,2.734,3.665,5.925,5.925,0,0,1,0,1.252,4.913,4.913,0,0,1-2.769,3.682,5.45,5.45,0,0,1-2.439.556,5.462,5.462,0,0,1-2.087-.4.926.926,0,0,0-.268-.07,12.188,12.188,0,0,0-1.313.468c-.673.256-1.224.463-1.229.461s.184-.449.414-.991.424-1.01.431-1.04c.03-.114-.016-.219-.2-.463a4.629,4.629,0,0,1-.742-1.375A3.793,3.793,0,0,1,.79-506.11a4.108,4.108,0,0,1,.228-1.615,4.935,4.935,0,0,1,1.95-2.5,7.035,7.035,0,0,1,1.143-.582,7.512,7.512,0,0,1,1.038-.265,6.759,6.759,0,0,1,.929-.065C6.117-511.137,6.268-511.127,6.415-511.123Z" transform="translate(0)" fill="#727272"/>
      <path id="Path_179-2" data-name="Path 179" d="M212.189-420.764a1.082,1.082,0,0,0-.614.559.722.722,0,0,0-.074.444.722.722,0,0,0,.074.444,1.059,1.059,0,0,0,.626.559.873.873,0,0,0,.382.04.735.735,0,0,0,.407-.088,1.1,1.1,0,0,0,.5-.5.723.723,0,0,0,.079-.454.723.723,0,0,0-.079-.454,1.1,1.1,0,0,0-.5-.5.721.721,0,0,0-.419-.086A.876.876,0,0,0,212.189-420.764Zm.519.721a.326.326,0,0,1,.154.282.356.356,0,0,1-.044.172.326.326,0,0,1-.282.154.318.318,0,0,1-.326-.326.318.318,0,0,1,.326-.326A.356.356,0,0,1,212.708-420.042Z" transform="translate(-206.517 -88.928)" fill="#727272"/>
      <path id="Path_180-2" data-name="Path 180" d="M211.154-300.956a.487.487,0,0,0-.109.109A7.277,7.277,0,0,0,211-299.08a7.277,7.277,0,0,0,.044,1.766.487.487,0,0,0,.109.109c.063.042.123.044.894.044s.831,0,.894-.044a.487.487,0,0,0,.109-.109,7.279,7.279,0,0,0,.044-1.766,7.279,7.279,0,0,0-.044-1.766.487.487,0,0,0-.109-.109c-.063-.042-.123-.044-.894-.044S211.216-301,211.154-300.956Zm1.243,1.876v1.222h-.7V-300.3h.7Z" transform="translate(-206.028 -205.943)" fill="#727272"/>
    </g>
    <path id="Path_12672" data-name="Path 12672" d="M.492-23.534v-5.412H10.906V0H4.838V-23.534ZM19.8-3.731A10.914,10.914,0,0,1,20.787.738,6.418,6.418,0,0,1,19.455,4.92a5,5,0,0,1-4.12,1.64V4.346a2.077,2.077,0,0,0,1.558-.513,2.628,2.628,0,0,0,.492-1.825V1.6H14.76v-5.33Zm5.289-18.614a7.03,7.03,0,0,1,1.169-3.9,8.253,8.253,0,0,1,3.485-2.911,12.892,12.892,0,0,1,5.6-1.107,12.892,12.892,0,0,1,5.6,1.107,8.253,8.253,0,0,1,3.485,2.911,7.03,7.03,0,0,1,1.169,3.9,6.927,6.927,0,0,1-1.148,4.038A6.809,6.809,0,0,1,41-15.826a8.518,8.518,0,0,1,3.957,2.849,7.43,7.43,0,0,1,1.374,4.53A8.456,8.456,0,0,1,44.9-3.506,8.93,8.93,0,0,1,40.979-.369,14.154,14.154,0,0,1,35.342.7,14.154,14.154,0,0,1,29.7-.369a8.8,8.8,0,0,1-3.9-3.137A8.544,8.544,0,0,1,24.4-8.446a7.43,7.43,0,0,1,1.374-4.53,8.518,8.518,0,0,1,3.957-2.849,6.877,6.877,0,0,1-3.465-2.5A6.862,6.862,0,0,1,25.092-22.345Zm5.7.943a3.8,3.8,0,0,0,1.23,3.034A4.9,4.9,0,0,0,35.342-17.3,4.961,4.961,0,0,0,38.7-18.368a3.8,3.8,0,0,0,1.23-3.034,3.83,3.83,0,0,0-1.25-3.055,4.916,4.916,0,0,0-3.341-1.087,4.853,4.853,0,0,0-3.3,1.087A3.83,3.83,0,0,0,30.791-21.4ZM30.012-8.774A4.368,4.368,0,0,0,31.447-5.33a5.664,5.664,0,0,0,3.9,1.271A5.744,5.744,0,0,0,39.257-5.33a4.338,4.338,0,0,0,1.456-3.444,4.034,4.034,0,0,0-1.5-3.382,6.112,6.112,0,0,0-3.874-1.168,6.044,6.044,0,0,0-3.834,1.168A4.034,4.034,0,0,0,30.012-8.774Zm35.67-12.3q-.656-4.264-4.346-4.264a4.393,4.393,0,0,0-4.182,2.521q-1.312,2.522-1.148,7.893a5.746,5.746,0,0,1,2.563-3.137,8.341,8.341,0,0,1,4.448-1.168A8.649,8.649,0,0,1,69.6-16.708Q72-14.186,72-9.553a10.887,10.887,0,0,1-1.148,5.084A8.326,8.326,0,0,1,67.424-.984,11.152,11.152,0,0,1,61.91.287q-6.314,0-8.692-3.915t-2.378-10.8q0-7.913,2.563-11.726t8.3-3.813q4.387,0,6.724,2.5a10.327,10.327,0,0,1,2.665,6.4ZM56.5-9.963a5.491,5.491,0,0,0,1.333,3.792,4.969,4.969,0,0,0,3.916,1.5,4.765,4.765,0,0,0,3.526-1.312,4.932,4.932,0,0,0,1.312-3.649,5.059,5.059,0,0,0-1.332-3.772,4.891,4.891,0,0,0-3.588-1.312,5.611,5.611,0,0,0-3.649,1.23A4.277,4.277,0,0,0,56.5-9.963Zm40.18-14.473H82.943v7.3a6.622,6.622,0,0,1,2.6-1.784,9.639,9.639,0,0,1,3.669-.677A8.969,8.969,0,0,1,94.2-18.307a7.853,7.853,0,0,1,2.952,3.444,11.561,11.561,0,0,1,.964,4.776,10.436,10.436,0,0,1-2.6,7.421Q92.906.123,88.068.123A12.517,12.517,0,0,1,82.574-1a8.771,8.771,0,0,1-3.649-3.157A9.335,9.335,0,0,1,77.49-8.9h5.617a5.024,5.024,0,0,0,1.517,2.931,4.5,4.5,0,0,0,3.157,1.087,4.275,4.275,0,0,0,3.547-1.456A6.008,6.008,0,0,0,92.5-10.209a4.917,4.917,0,0,0-1.23-3.567,4.625,4.625,0,0,0-3.485-1.271,5.158,5.158,0,0,0-2.788.717,4.274,4.274,0,0,0-1.681,1.907H77.7v-17.1H96.678Z" transform="translate(152 430)" fill="#303544"/>
    <path id="Path_12673" data-name="Path 12673" d="M7.32-9.48a27.742,27.742,0,0,1,2.9,1.032,4.713,4.713,0,0,1,1.8,1.428,4.126,4.126,0,0,1,.768,2.628A4.433,4.433,0,0,1,12.2-2.16,4.358,4.358,0,0,1,10.392-.48a6.348,6.348,0,0,1-3,.648H7.32v1.92H6.576V.12a6.316,6.316,0,0,1-3.72-1.5A4.675,4.675,0,0,1,1.248-4.56H3.576a3.273,3.273,0,0,0,.876,1.884A3.476,3.476,0,0,0,6.576-1.584V-7.728a26.7,26.7,0,0,1-2.868-1,4.576,4.576,0,0,1-1.776-1.4A4.037,4.037,0,0,1,1.176-12.7a4.1,4.1,0,0,1,.672-2.328,4.373,4.373,0,0,1,1.9-1.56,6.828,6.828,0,0,1,2.832-.552V-19.2H7.32v2.088a5.752,5.752,0,0,1,3.552,1.368,4.714,4.714,0,0,1,1.56,2.9H10.08a3.132,3.132,0,0,0-.864-1.632,3.266,3.266,0,0,0-1.9-.912ZM3.528-12.792a2.367,2.367,0,0,0,.78,1.9A6.85,6.85,0,0,0,6.576-9.72v-5.712a3.378,3.378,0,0,0-2.22.684A2.393,2.393,0,0,0,3.528-12.792ZM7.344-1.536a3.172,3.172,0,0,0,2.3-.792,2.689,2.689,0,0,0,.816-2.016,2.445,2.445,0,0,0-.816-1.968A6.711,6.711,0,0,0,7.32-7.488v5.952Z" transform="translate(131 412)" fill="#303544"/>
    <path id="Path_181-2" data-name="Path 181" d="M22110,2194s13-15.5,20-16.667,5.334,15.333,8,12,2.668-27.333,13,0,10-16.333,18-6.333-1,3.667,8.334,6.333,13.332.667,20.666-12,15.334-14.667,17.334-15.333" transform="translate(-21782 -1768)" fill="none" stroke="#e14039" stroke-width="1"/>
    <g id="left-arrow-2" data-name="left-arrow" transform="translate(-315.744 344.5) rotate(90)">
      <path id="Path_182-2" data-name="Path 182" d="M2-458.5-.5-456,2-453.5l2.507,2.507.444-.446.446-.444-1.744-1.744-1.744-1.744H12v-1.268H1.915l1.744-1.744L5.4-460.122l-.439-.439C4.722-460.8,4.52-461,4.512-461S3.376-459.876,2-458.5Z" fill="#fff" stroke="#fff" stroke-width="1"/>
    </g>
  </g>
  <g id="_3" data-name="3" transform="translate(608 -317)">
    <g id="Rectangle_140-3" data-name="Rectangle 140" transform="translate(104 317)" fill="#fff" stroke="#ebebeb" stroke-width="1">
      <rect width="330" height="147" rx="5" stroke="none"/>
      <rect x="0.5" y="0.5" width="329" height="146" rx="4.5" fill="none"/>
    </g>
    <path id="Path_12675" data-name="Path 12675" d="M9.268,0H7.294L2.87-6.72V0H.9V-9.884H2.87L7.294-3.108V-9.884H9.268Zm9.086-4.172a3.737,3.737,0,0,1-.07.672H12.6a2.138,2.138,0,0,0,.56,1.526,1.8,1.8,0,0,0,1.288.49,1.869,1.869,0,0,0,1.141-.336,1.488,1.488,0,0,0,.581-.91h2.086A3.337,3.337,0,0,1,17.6-1.274,3.438,3.438,0,0,1,16.3-.266,4.153,4.153,0,0,1,14.546.1,4.128,4.128,0,0,1,12.53-.385a3.4,3.4,0,0,1-1.372-1.379,4.34,4.34,0,0,1-.49-2.114A4.381,4.381,0,0,1,11.158-6,3.34,3.34,0,0,1,12.53-7.378a4.177,4.177,0,0,1,2.016-.476,4.086,4.086,0,0,1,2.009.476,3.355,3.355,0,0,1,1.33,1.309A3.8,3.8,0,0,1,18.354-4.172Zm-1.988-.2a1.74,1.74,0,0,0-.5-1.442,1.9,1.9,0,0,0-1.323-.49,1.939,1.939,0,0,0-1.344.49,2.006,2.006,0,0,0-.6,1.442ZM23.9-1.694V0H22.862a2.866,2.866,0,0,1-1.995-.63,2.727,2.727,0,0,1-.693-2.1V-6.09H19.1V-7.756h1.078V-9.674h1.974v1.918h1.736V-6.09H22.148V-2.7a1.093,1.093,0,0,0,.224.784,1.046,1.046,0,0,0,.756.224Zm13.16-3.262a5.287,5.287,0,0,1-.616,2.59A4.287,4.287,0,0,1,34.657-.623,5.831,5.831,0,0,1,31.878,0H28.364V-9.884h3.514a5.941,5.941,0,0,1,2.779.609,4.212,4.212,0,0,1,1.785,1.722A5.277,5.277,0,0,1,37.058-4.956ZM31.71-1.764a3.424,3.424,0,0,0,2.471-.84,3.107,3.107,0,0,0,.875-2.352,3.125,3.125,0,0,0-.875-2.366,3.424,3.424,0,0,0-2.471-.84H30.338v6.4ZM45.836-4.172a3.737,3.737,0,0,1-.07.672H40.082a2.138,2.138,0,0,0,.56,1.526,1.8,1.8,0,0,0,1.288.49,1.869,1.869,0,0,0,1.141-.336,1.488,1.488,0,0,0,.581-.91h2.086a3.337,3.337,0,0,1-.658,1.456A3.438,3.438,0,0,1,43.785-.266,4.153,4.153,0,0,1,42.028.1a4.128,4.128,0,0,1-2.016-.483A3.4,3.4,0,0,1,38.64-1.764a4.34,4.34,0,0,1-.49-2.114A4.381,4.381,0,0,1,38.64-6a3.34,3.34,0,0,1,1.372-1.379,4.177,4.177,0,0,1,2.016-.476,4.086,4.086,0,0,1,2.009.476,3.355,3.355,0,0,1,1.33,1.309A3.8,3.8,0,0,1,45.836-4.172Zm-1.988-.2a1.74,1.74,0,0,0-.5-1.442,1.9,1.9,0,0,0-1.323-.49,1.939,1.939,0,0,0-1.344.49,2.006,2.006,0,0,0-.6,1.442ZM51.87-7.854a3.332,3.332,0,0,1,1.764.476A3.216,3.216,0,0,1,54.859-6,4.782,4.782,0,0,1,55.3-3.878a4.782,4.782,0,0,1-.441,2.121A3.216,3.216,0,0,1,53.634-.378,3.332,3.332,0,0,1,51.87.1,2.914,2.914,0,0,1,50.2-.371a2.566,2.566,0,0,1-.987-1.253V3.7H47.236V-7.756H49.21v1.61A2.528,2.528,0,0,1,50.2-7.392,2.947,2.947,0,0,1,51.87-7.854Zm-.616,1.722a1.953,1.953,0,0,0-1.477.609A2.284,2.284,0,0,0,49.2-3.878a2.265,2.265,0,0,0,.581,1.631,1.953,1.953,0,0,0,1.477.609,1.942,1.942,0,0,0,1.484-.595,2.3,2.3,0,0,0,.56-1.645,2.331,2.331,0,0,0-.56-1.652A1.931,1.931,0,0,0,51.254-6.132Zm9.03-1.722a4.3,4.3,0,0,1,2.037.476A3.484,3.484,0,0,1,63.742-6a4.189,4.189,0,0,1,.518,2.121,4.151,4.151,0,0,1-.518,2.114A3.543,3.543,0,0,1,62.321-.385,4.25,4.25,0,0,1,60.284.1a4.25,4.25,0,0,1-2.037-.483,3.543,3.543,0,0,1-1.421-1.379,4.151,4.151,0,0,1-.518-2.114A4.189,4.189,0,0,1,56.826-6a3.484,3.484,0,0,1,1.421-1.379A4.3,4.3,0,0,1,60.284-7.854Zm0,1.708a1.893,1.893,0,0,0-1.4.581,2.3,2.3,0,0,0-.574,1.687,2.3,2.3,0,0,0,.574,1.687,1.893,1.893,0,0,0,1.4.581,1.893,1.893,0,0,0,1.4-.581,2.3,2.3,0,0,0,.574-1.687,2.3,2.3,0,0,0-.574-1.687A1.893,1.893,0,0,0,60.284-6.146Zm8.05-1.708A3.421,3.421,0,0,1,70.6-7.14a3.092,3.092,0,0,1,1.064,1.9H69.818a1.536,1.536,0,0,0-.5-.9,1.515,1.515,0,0,0-1.022-.336,1.174,1.174,0,0,0-.784.238.8.8,0,0,0-.28.644.655.655,0,0,0,.224.518,1.614,1.614,0,0,0,.56.308q.336.112.966.266a9.934,9.934,0,0,1,1.435.413,2.374,2.374,0,0,1,.952.686,1.891,1.891,0,0,1,.4,1.267,1.957,1.957,0,0,1-.777,1.61A3.277,3.277,0,0,1,68.894.1a3.955,3.955,0,0,1-2.422-.679A2.854,2.854,0,0,1,65.366-2.52h1.89a1.277,1.277,0,0,0,.5.9,1.828,1.828,0,0,0,1.134.329,1.1,1.1,0,0,0,.77-.245.826.826,0,0,0,.266-.637.7.7,0,0,0-.231-.546,1.559,1.559,0,0,0-.574-.322q-.343-.112-.973-.266a10.967,10.967,0,0,1-1.407-.4,2.247,2.247,0,0,1-.924-.651,1.829,1.829,0,0,1-.385-1.232,2.017,2.017,0,0,1,.77-1.638A3.268,3.268,0,0,1,68.334-7.854ZM73.01-9.982a1,1,0,0,1,.336-.777,1.272,1.272,0,0,1,.882-.3,1.272,1.272,0,0,1,.882.3,1,1,0,0,1,.336.777.98.98,0,0,1-.336.763,1.272,1.272,0,0,1-.882.3,1.272,1.272,0,0,1-.882-.3A.98.98,0,0,1,73.01-9.982Zm2.2,2.226V0H73.234V-7.756Zm5.936,6.062V0H80.108a2.866,2.866,0,0,1-1.995-.63,2.727,2.727,0,0,1-.693-2.1V-6.09H76.342V-7.756H77.42V-9.674h1.974v1.918H81.13V-6.09H79.394V-2.7a1.093,1.093,0,0,0,.224.784,1.046,1.046,0,0,0,.756.224Zm4.088-6.16A3.421,3.421,0,0,1,87.5-7.14a3.092,3.092,0,0,1,1.064,1.9H86.716a1.536,1.536,0,0,0-.5-.9,1.515,1.515,0,0,0-1.022-.336,1.174,1.174,0,0,0-.784.238.8.8,0,0,0-.28.644.655.655,0,0,0,.224.518,1.614,1.614,0,0,0,.56.308q.336.112.966.266a9.934,9.934,0,0,1,1.435.413,2.374,2.374,0,0,1,.952.686,1.891,1.891,0,0,1,.4,1.267,1.957,1.957,0,0,1-.777,1.61A3.277,3.277,0,0,1,85.792.1,3.955,3.955,0,0,1,83.37-.581,2.854,2.854,0,0,1,82.264-2.52h1.89a1.277,1.277,0,0,0,.5.9,1.828,1.828,0,0,0,1.134.329,1.1,1.1,0,0,0,.77-.245.826.826,0,0,0,.266-.637.7.7,0,0,0-.231-.546,1.559,1.559,0,0,0-.574-.322Q85.68-3.15,85.05-3.3a10.967,10.967,0,0,1-1.407-.4,2.247,2.247,0,0,1-.924-.651,1.829,1.829,0,0,1-.385-1.232,2.017,2.017,0,0,1,.77-1.638A3.268,3.268,0,0,1,85.232-7.854Z" transform="translate(165 355)" fill="#303544"/>
    <g id="information_1_3" data-name="information(1)" transform="translate(265.938 855.847)">
      <path id="Path_178-3" data-name="Path 178" d="M5.246-511.819a6.167,6.167,0,0,0-3.661,1.808,5.45,5.45,0,0,0-1.457,2.823,6.6,6.6,0,0,0-.033,1.6,5.243,5.243,0,0,0,.863,2.283l.221.33-.549,1.3a8.413,8.413,0,0,0-.552,1.4.35.35,0,0,0,.163.3c.156.091.188.079,1.848-.556l1.555-.593.31.1a5.9,5.9,0,0,0,2.26.333,5.268,5.268,0,0,0,1.308-.168,6.039,6.039,0,0,0,3.146-1.908,5.445,5.445,0,0,0,1.271-2.8,6.756,6.756,0,0,0,0-1.406,5.8,5.8,0,0,0-5.171-4.847A9.229,9.229,0,0,0,5.246-511.819Zm1.168.7a5.264,5.264,0,0,1,2.071.563,4.887,4.887,0,0,1,2.734,3.665,5.925,5.925,0,0,1,0,1.252,4.913,4.913,0,0,1-2.769,3.682,5.45,5.45,0,0,1-2.439.556,5.462,5.462,0,0,1-2.087-.4.926.926,0,0,0-.268-.07,12.188,12.188,0,0,0-1.313.468c-.673.256-1.224.463-1.229.461s.184-.449.414-.991.424-1.01.431-1.04c.03-.114-.016-.219-.2-.463a4.629,4.629,0,0,1-.742-1.375A3.793,3.793,0,0,1,.79-506.11a4.108,4.108,0,0,1,.228-1.615,4.935,4.935,0,0,1,1.95-2.5,7.035,7.035,0,0,1,1.143-.582,7.512,7.512,0,0,1,1.038-.265,6.759,6.759,0,0,1,.929-.065C6.117-511.137,6.268-511.127,6.415-511.123Z" transform="translate(0)" fill="#727272"/>
      <path id="Path_179-3" data-name="Path 179" d="M212.189-420.764a1.082,1.082,0,0,0-.614.559.722.722,0,0,0-.074.444.722.722,0,0,0,.074.444,1.059,1.059,0,0,0,.626.559.873.873,0,0,0,.382.04.735.735,0,0,0,.407-.088,1.1,1.1,0,0,0,.5-.5.723.723,0,0,0,.079-.454.723.723,0,0,0-.079-.454,1.1,1.1,0,0,0-.5-.5.721.721,0,0,0-.419-.086A.876.876,0,0,0,212.189-420.764Zm.519.721a.326.326,0,0,1,.154.282.356.356,0,0,1-.044.172.326.326,0,0,1-.282.154.318.318,0,0,1-.326-.326.318.318,0,0,1,.326-.326A.356.356,0,0,1,212.708-420.042Z" transform="translate(-206.517 -88.928)" fill="#727272"/>
      <path id="Path_180-3" data-name="Path 180" d="M211.154-300.956a.487.487,0,0,0-.109.109A7.277,7.277,0,0,0,211-299.08a7.277,7.277,0,0,0,.044,1.766.487.487,0,0,0,.109.109c.063.042.123.044.894.044s.831,0,.894-.044a.487.487,0,0,0,.109-.109,7.279,7.279,0,0,0,.044-1.766,7.279,7.279,0,0,0-.044-1.766.487.487,0,0,0-.109-.109c-.063-.042-.123-.044-.894-.044S211.216-301,211.154-300.956Zm1.243,1.876v1.222h-.7V-300.3h.7Z" transform="translate(-206.028 -205.943)" fill="#727272"/>
    </g>
    <path id="Path_12674" data-name="Path 12674" d="M.492-23.534v-5.412H10.906V0H4.838V-23.534ZM15.047-4.551q13.9-9.635,13.9-15.99a4.6,4.6,0,0,0-.922-3.034,3.552,3.552,0,0,0-2.891-1.107q-4.059,0-4.305,5.535H15.211q.246-5.125,3.116-7.77a10.3,10.3,0,0,1,7.257-2.644q4.469,0,6.868,2.316a8.183,8.183,0,0,1,2.4,6.171,11.992,11.992,0,0,1-1.784,6.088,24.718,24.718,0,0,1-4.53,5.617,35.573,35.573,0,0,1-5.781,4.408H35.424V-.246H15.047Zm27.962.82A10.914,10.914,0,0,1,43.993.738,6.418,6.418,0,0,1,42.66,4.92a5,5,0,0,1-4.12,1.64V4.346A2.077,2.077,0,0,0,40.1,3.834a2.628,2.628,0,0,0,.492-1.825V1.6H37.966v-5.33ZM68.142-24.436H54.407v7.3a6.622,6.622,0,0,1,2.6-1.784A9.639,9.639,0,0,1,60.68-19.6a8.969,8.969,0,0,1,4.981,1.292,7.853,7.853,0,0,1,2.952,3.444,11.562,11.562,0,0,1,.964,4.776,10.436,10.436,0,0,1-2.6,7.421Q64.37.123,59.532.123A12.517,12.517,0,0,1,54.038-1a8.771,8.771,0,0,1-3.649-3.157A9.335,9.335,0,0,1,48.954-8.9h5.617a5.024,5.024,0,0,0,1.517,2.931,4.5,4.5,0,0,0,3.157,1.087,4.275,4.275,0,0,0,3.547-1.456,6.008,6.008,0,0,0,1.168-3.875,4.917,4.917,0,0,0-1.23-3.567,4.625,4.625,0,0,0-3.485-1.271,5.158,5.158,0,0,0-2.788.717,4.274,4.274,0,0,0-1.681,1.907H49.159v-17.1H68.142Zm6.109,2.091a7.03,7.03,0,0,1,1.168-3.9A8.253,8.253,0,0,1,78.9-29.151a12.892,12.892,0,0,1,5.6-1.107,12.892,12.892,0,0,1,5.6,1.107,8.253,8.253,0,0,1,3.485,2.911,7.03,7.03,0,0,1,1.169,3.9A6.927,6.927,0,0,1,93.6-18.307a6.809,6.809,0,0,1-3.444,2.481,8.518,8.518,0,0,1,3.957,2.849,7.43,7.43,0,0,1,1.373,4.53,8.456,8.456,0,0,1-1.435,4.941A8.93,8.93,0,0,1,90.139-.369,14.154,14.154,0,0,1,84.5.7,14.154,14.154,0,0,1,78.864-.369a8.8,8.8,0,0,1-3.895-3.137,8.544,8.544,0,0,1-1.414-4.941,7.43,7.43,0,0,1,1.373-4.53,8.518,8.518,0,0,1,3.956-2.849,6.877,6.877,0,0,1-3.465-2.5A6.862,6.862,0,0,1,74.251-22.345Zm5.7.943a3.8,3.8,0,0,0,1.23,3.034A4.9,4.9,0,0,0,84.5-17.3a4.961,4.961,0,0,0,3.362-1.066,3.8,3.8,0,0,0,1.23-3.034,3.83,3.83,0,0,0-1.25-3.055A4.916,4.916,0,0,0,84.5-25.543a4.853,4.853,0,0,0-3.3,1.087A3.83,3.83,0,0,0,79.95-21.4ZM79.171-8.774A4.368,4.368,0,0,0,80.606-5.33a5.664,5.664,0,0,0,3.9,1.271A5.744,5.744,0,0,0,88.417-5.33a4.338,4.338,0,0,0,1.456-3.444,4.034,4.034,0,0,0-1.5-3.382A6.112,6.112,0,0,0,84.5-13.325a6.044,6.044,0,0,0-3.834,1.168A4.034,4.034,0,0,0,79.171-8.774Zm35.67-12.3q-.656-4.264-4.346-4.264a4.393,4.393,0,0,0-4.182,2.521q-1.312,2.522-1.148,7.893a5.745,5.745,0,0,1,2.563-3.137,8.341,8.341,0,0,1,4.449-1.168,8.649,8.649,0,0,1,6.58,2.521q2.4,2.521,2.4,7.155a10.887,10.887,0,0,1-1.148,5.084,8.326,8.326,0,0,1-3.424,3.485A11.152,11.152,0,0,1,111.069.287q-6.314,0-8.692-3.915T100-14.432q0-7.913,2.563-11.726t8.3-3.813q4.387,0,6.724,2.5a10.327,10.327,0,0,1,2.665,6.4ZM105.657-9.963a5.491,5.491,0,0,0,1.332,3.792,4.969,4.969,0,0,0,3.915,1.5,4.765,4.765,0,0,0,3.526-1.312,4.932,4.932,0,0,0,1.312-3.649,5.059,5.059,0,0,0-1.332-3.772,4.891,4.891,0,0,0-3.588-1.312,5.611,5.611,0,0,0-3.649,1.23A4.277,4.277,0,0,0,105.657-9.963Z" transform="translate(150 430)" fill="#303544"/>
    <path id="Path_12676" data-name="Path 12676" d="M7.32-9.48a27.742,27.742,0,0,1,2.9,1.032,4.713,4.713,0,0,1,1.8,1.428,4.126,4.126,0,0,1,.768,2.628A4.433,4.433,0,0,1,12.2-2.16,4.358,4.358,0,0,1,10.392-.48a6.348,6.348,0,0,1-3,.648H7.32v1.92H6.576V.12a6.316,6.316,0,0,1-3.72-1.5A4.675,4.675,0,0,1,1.248-4.56H3.576a3.273,3.273,0,0,0,.876,1.884A3.476,3.476,0,0,0,6.576-1.584V-7.728a26.7,26.7,0,0,1-2.868-1,4.576,4.576,0,0,1-1.776-1.4A4.037,4.037,0,0,1,1.176-12.7a4.1,4.1,0,0,1,.672-2.328,4.373,4.373,0,0,1,1.9-1.56,6.828,6.828,0,0,1,2.832-.552V-19.2H7.32v2.088a5.752,5.752,0,0,1,3.552,1.368,4.714,4.714,0,0,1,1.56,2.9H10.08a3.132,3.132,0,0,0-.864-1.632,3.266,3.266,0,0,0-1.9-.912ZM3.528-12.792a2.367,2.367,0,0,0,.78,1.9A6.85,6.85,0,0,0,6.576-9.72v-5.712a3.378,3.378,0,0,0-2.22.684A2.393,2.393,0,0,0,3.528-12.792ZM7.344-1.536a3.172,3.172,0,0,0,2.3-.792,2.689,2.689,0,0,0,.816-2.016,2.445,2.445,0,0,0-.816-1.968A6.711,6.711,0,0,0,7.32-7.488v5.952Z" transform="translate(131 412)" fill="#303544"/>
    <g id="deposit-box" transform="translate(96 820)">
      <path id="Path_183" data-name="Path 183" d="M33.029-479.887a1.752,1.752,0,0,0-.916.932c-.112.3-.112.311-.112,8.812s0,8.513.112,8.813a1.727,1.727,0,0,0,.932.932l.3.112H54.655l.3-.112a1.727,1.727,0,0,0,.932-.932c.113-.3.113-.311.113-8.813s0-8.512-.113-8.812a1.728,1.728,0,0,0-.932-.932l-.3-.113-10.671.005C33.393-479.995,33.313-479.995,33.029-479.887ZM52.7-477.375a.879.879,0,0,1,.595.434c.107.182.107.279.107,6.8s0,6.616-.107,6.8a.879.879,0,0,1-.595.434c-.279.064-17.121.064-17.4,0a.879.879,0,0,1-.595-.434c-.1-.171-.107-.295-.123-1.993l-.016-1.805h-.187a.6.6,0,0,1-.605-.321,2.348,2.348,0,0,1,.016-1.093.588.588,0,0,1,.6-.3h.182v-2.571h-.182c-.5,0-.675-.22-.675-.857s.171-.857.675-.857h.177l.016-1.811c.016-1.693.021-1.816.123-1.987a.9.9,0,0,1,.568-.434C35.53-477.434,52.443-477.439,52.7-477.375Z" fill="#7a6cff"/>
      <path id="Path_184" data-name="Path 184" d="M112-398.714v1.286h.188a.6.6,0,0,1,.611.321,2.348,2.348,0,0,1-.016,1.093.588.588,0,0,1-.6.3H112v2.571h.182c.5,0,.675.22.675.857s-.171.857-.675.857H112v2.571h15.429V-400H112Zm13.393,2.2c.305.107.321.22.321,2.084s-.016,1.977-.321,2.084a7.742,7.742,0,0,1-1.929,0c-.305-.107-.321-.22-.321-2.073,0-1.827.016-1.961.289-2.079A7.263,7.263,0,0,1,125.393-396.513Z" transform="translate(-75.714 -75.714)" fill="#7a6cff"/>
      <path id="Path_185" data-name="Path 185" d="M64-78.821c0,1.109.005,1.184.107,1.286s.177.107,1.607.107,1.505-.005,1.607-.107.107-.177.107-1.286V-80H64Z" transform="translate(-30.286 -378.571)" fill="#7a6cff"/>
      <path id="Path_186" data-name="Path 186" d="M384-78.821c0,1.109.005,1.184.107,1.286s.177.107,1.607.107,1.505-.005,1.607-.107.107-.177.107-1.286V-80H384Z" transform="translate(-333.143 -378.571)" fill="#7a6cff"/>
    </g>
  </g>
  <g id="_4" data-name="4" transform="translate(961 -317)">
    <g id="Rectangle_140-4" data-name="Rectangle 140" transform="translate(104 317)" fill="#fff" stroke="#ebebeb" stroke-width="1">
      <rect width="330" height="147" rx="5" stroke="none"/>
      <rect x="0.5" y="0.5" width="329" height="146" rx="4.5" fill="none"/>
    </g>
    <path id="Path_12679" data-name="Path 12679" d="M9.268,0H7.294L2.87-6.72V0H.9V-9.884H2.87L7.294-3.108V-9.884H9.268Zm9.086-4.172a3.737,3.737,0,0,1-.07.672H12.6a2.138,2.138,0,0,0,.56,1.526,1.8,1.8,0,0,0,1.288.49,1.869,1.869,0,0,0,1.141-.336,1.488,1.488,0,0,0,.581-.91h2.086A3.337,3.337,0,0,1,17.6-1.274,3.438,3.438,0,0,1,16.3-.266,4.153,4.153,0,0,1,14.546.1,4.128,4.128,0,0,1,12.53-.385a3.4,3.4,0,0,1-1.372-1.379,4.34,4.34,0,0,1-.49-2.114A4.381,4.381,0,0,1,11.158-6,3.34,3.34,0,0,1,12.53-7.378a4.177,4.177,0,0,1,2.016-.476,4.086,4.086,0,0,1,2.009.476,3.355,3.355,0,0,1,1.33,1.309A3.8,3.8,0,0,1,18.354-4.172Zm-1.988-.2a1.74,1.74,0,0,0-.5-1.442,1.9,1.9,0,0,0-1.323-.49,1.939,1.939,0,0,0-1.344.49,2.006,2.006,0,0,0-.6,1.442ZM23.9-1.694V0H22.862a2.866,2.866,0,0,1-1.995-.63,2.727,2.727,0,0,1-.693-2.1V-6.09H19.1V-7.756h1.078V-9.674h1.974v1.918h1.736V-6.09H22.148V-2.7a1.093,1.093,0,0,0,.224.784,1.046,1.046,0,0,0,.756.224Zm6.44-1.974V0H28.364V-9.884h3.6a3.71,3.71,0,0,1,2.639.84,2.989,2.989,0,0,1,.889,2.282,2.908,2.908,0,0,1-.917,2.254,3.729,3.729,0,0,1-2.611.84ZM31.752-5.25q1.736,0,1.736-1.512A1.5,1.5,0,0,0,33.082-7.9a1.872,1.872,0,0,0-1.33-.392H30.338V-5.25Zm7-1.022A3.244,3.244,0,0,1,39.9-7.441a3.05,3.05,0,0,1,1.6-.427v2.114h-.574q-2.17,0-2.17,2.016V0H36.778V-7.756h1.974Zm7.42-1.582a4.3,4.3,0,0,1,2.037.476A3.484,3.484,0,0,1,49.63-6a4.189,4.189,0,0,1,.518,2.121,4.151,4.151,0,0,1-.518,2.114A3.543,3.543,0,0,1,48.209-.385,4.25,4.25,0,0,1,46.172.1a4.25,4.25,0,0,1-2.037-.483,3.543,3.543,0,0,1-1.421-1.379A4.151,4.151,0,0,1,42.2-3.878,4.189,4.189,0,0,1,42.714-6a3.484,3.484,0,0,1,1.421-1.379A4.3,4.3,0,0,1,46.172-7.854Zm0,1.708a1.893,1.893,0,0,0-1.4.581A2.3,2.3,0,0,0,44.2-3.878a2.3,2.3,0,0,0,.574,1.687,1.893,1.893,0,0,0,1.4.581,1.893,1.893,0,0,0,1.4-.581,2.3,2.3,0,0,0,.574-1.687,2.3,2.3,0,0,0-.574-1.687A1.893,1.893,0,0,0,46.172-6.146Zm8.862-1.708a3.838,3.838,0,0,1,2.5.812A3.547,3.547,0,0,1,58.786-4.83H56.7a1.61,1.61,0,0,0-.574-.973,1.763,1.763,0,0,0-1.134-.357,1.692,1.692,0,0,0-1.309.581,2.458,2.458,0,0,0-.525,1.7,2.458,2.458,0,0,0,.525,1.7,1.692,1.692,0,0,0,1.309.581,1.763,1.763,0,0,0,1.134-.357,1.61,1.61,0,0,0,.574-.973h2.086A3.547,3.547,0,0,1,57.533-.714a3.838,3.838,0,0,1-2.5.812,4.128,4.128,0,0,1-2.016-.483,3.4,3.4,0,0,1-1.372-1.379,4.34,4.34,0,0,1-.49-2.114A4.381,4.381,0,0,1,51.646-6a3.34,3.34,0,0,1,1.372-1.379A4.177,4.177,0,0,1,55.034-7.854ZM67.48-4.172a3.737,3.737,0,0,1-.07.672H61.726a2.138,2.138,0,0,0,.56,1.526,1.8,1.8,0,0,0,1.288.49,1.869,1.869,0,0,0,1.141-.336,1.488,1.488,0,0,0,.581-.91h2.086a3.337,3.337,0,0,1-.658,1.456A3.439,3.439,0,0,1,65.429-.266,4.153,4.153,0,0,1,63.672.1a4.128,4.128,0,0,1-2.016-.483,3.4,3.4,0,0,1-1.372-1.379,4.34,4.34,0,0,1-.49-2.114A4.381,4.381,0,0,1,60.284-6a3.34,3.34,0,0,1,1.372-1.379,4.177,4.177,0,0,1,2.016-.476,4.086,4.086,0,0,1,2.009.476,3.355,3.355,0,0,1,1.33,1.309A3.8,3.8,0,0,1,67.48-4.172Zm-1.988-.2A1.74,1.74,0,0,0,65-5.81a1.9,1.9,0,0,0-1.323-.49,1.939,1.939,0,0,0-1.344.49,2.006,2.006,0,0,0-.6,1.442Zm10.682.2a3.737,3.737,0,0,1-.07.672H70.42a2.138,2.138,0,0,0,.56,1.526,1.8,1.8,0,0,0,1.288.49,1.869,1.869,0,0,0,1.141-.336,1.488,1.488,0,0,0,.581-.91h2.086a3.337,3.337,0,0,1-.658,1.456A3.438,3.438,0,0,1,74.123-.266,4.153,4.153,0,0,1,72.366.1,4.128,4.128,0,0,1,70.35-.385a3.4,3.4,0,0,1-1.372-1.379,4.34,4.34,0,0,1-.49-2.114A4.381,4.381,0,0,1,68.978-6,3.34,3.34,0,0,1,70.35-7.378a4.177,4.177,0,0,1,2.016-.476,4.086,4.086,0,0,1,2.009.476,3.355,3.355,0,0,1,1.33,1.309A3.8,3.8,0,0,1,76.174-4.172Zm-1.988-.2a1.74,1.74,0,0,0-.5-1.442,1.9,1.9,0,0,0-1.323-.49,1.939,1.939,0,0,0-1.344.49,2.006,2.006,0,0,0-.6,1.442Zm6.426-3.486a2.947,2.947,0,0,1,1.673.462,2.608,2.608,0,0,1,1,1.246V-10.36h1.96V0h-1.96V-1.624a2.648,2.648,0,0,1-1,1.253A2.914,2.914,0,0,1,80.612.1a3.332,3.332,0,0,1-1.764-.476,3.216,3.216,0,0,1-1.225-1.379,4.782,4.782,0,0,1-.441-2.121A4.782,4.782,0,0,1,77.623-6a3.216,3.216,0,0,1,1.225-1.379A3.332,3.332,0,0,1,80.612-7.854Zm.616,1.722a1.931,1.931,0,0,0-1.484.6,2.331,2.331,0,0,0-.56,1.652,2.3,2.3,0,0,0,.56,1.645,1.942,1.942,0,0,0,1.484.595,1.953,1.953,0,0,0,1.477-.609,2.265,2.265,0,0,0,.581-1.631,2.284,2.284,0,0,0-.581-1.645A1.953,1.953,0,0,0,81.228-6.132Zm8.484-1.722a3.421,3.421,0,0,1,2.268.714,3.092,3.092,0,0,1,1.064,1.9H91.2a1.536,1.536,0,0,0-.5-.9,1.515,1.515,0,0,0-1.022-.336,1.174,1.174,0,0,0-.784.238.8.8,0,0,0-.28.644.655.655,0,0,0,.224.518,1.614,1.614,0,0,0,.56.308q.336.112.966.266a9.934,9.934,0,0,1,1.435.413,2.374,2.374,0,0,1,.952.686,1.891,1.891,0,0,1,.4,1.267,1.957,1.957,0,0,1-.777,1.61A3.277,3.277,0,0,1,90.272.1,3.955,3.955,0,0,1,87.85-.581,2.854,2.854,0,0,1,86.744-2.52h1.89a1.277,1.277,0,0,0,.5.9,1.828,1.828,0,0,0,1.134.329,1.1,1.1,0,0,0,.77-.245.826.826,0,0,0,.266-.637.7.7,0,0,0-.231-.546,1.559,1.559,0,0,0-.574-.322Q90.16-3.15,89.53-3.3a10.967,10.967,0,0,1-1.407-.4,2.247,2.247,0,0,1-.924-.651,1.829,1.829,0,0,1-.385-1.232,2.017,2.017,0,0,1,.77-1.638A3.268,3.268,0,0,1,89.712-7.854Z" transform="translate(165 355)" fill="#303544"/>
    <g id="information_1_4" data-name="information(1)" transform="translate(267.938 853.847)">
      <path id="Path_178-4" data-name="Path 178" d="M5.246-511.819a6.167,6.167,0,0,0-3.661,1.808,5.45,5.45,0,0,0-1.457,2.823,6.6,6.6,0,0,0-.033,1.6,5.243,5.243,0,0,0,.863,2.283l.221.33-.549,1.3a8.413,8.413,0,0,0-.552,1.4.35.35,0,0,0,.163.3c.156.091.188.079,1.848-.556l1.555-.593.31.1a5.9,5.9,0,0,0,2.26.333,5.268,5.268,0,0,0,1.308-.168,6.039,6.039,0,0,0,3.146-1.908,5.445,5.445,0,0,0,1.271-2.8,6.756,6.756,0,0,0,0-1.406,5.8,5.8,0,0,0-5.171-4.847A9.229,9.229,0,0,0,5.246-511.819Zm1.168.7a5.264,5.264,0,0,1,2.071.563,4.887,4.887,0,0,1,2.734,3.665,5.925,5.925,0,0,1,0,1.252,4.913,4.913,0,0,1-2.769,3.682,5.45,5.45,0,0,1-2.439.556,5.462,5.462,0,0,1-2.087-.4.926.926,0,0,0-.268-.07,12.188,12.188,0,0,0-1.313.468c-.673.256-1.224.463-1.229.461s.184-.449.414-.991.424-1.01.431-1.04c.03-.114-.016-.219-.2-.463a4.629,4.629,0,0,1-.742-1.375A3.793,3.793,0,0,1,.79-506.11a4.108,4.108,0,0,1,.228-1.615,4.935,4.935,0,0,1,1.95-2.5,7.035,7.035,0,0,1,1.143-.582,7.512,7.512,0,0,1,1.038-.265,6.759,6.759,0,0,1,.929-.065C6.117-511.137,6.268-511.127,6.415-511.123Z" transform="translate(0)" fill="#727272"/>
      <path id="Path_179-4" data-name="Path 179" d="M212.189-420.764a1.082,1.082,0,0,0-.614.559.722.722,0,0,0-.074.444.722.722,0,0,0,.074.444,1.059,1.059,0,0,0,.626.559.873.873,0,0,0,.382.04.735.735,0,0,0,.407-.088,1.1,1.1,0,0,0,.5-.5.723.723,0,0,0,.079-.454.723.723,0,0,0-.079-.454,1.1,1.1,0,0,0-.5-.5.721.721,0,0,0-.419-.086A.876.876,0,0,0,212.189-420.764Zm.519.721a.326.326,0,0,1,.154.282.356.356,0,0,1-.044.172.326.326,0,0,1-.282.154.318.318,0,0,1-.326-.326.318.318,0,0,1,.326-.326A.356.356,0,0,1,212.708-420.042Z" transform="translate(-206.517 -88.928)" fill="#727272"/>
      <path id="Path_180-4" data-name="Path 180" d="M211.154-300.956a.487.487,0,0,0-.109.109A7.277,7.277,0,0,0,211-299.08a7.277,7.277,0,0,0,.044,1.766.487.487,0,0,0,.109.109c.063.042.123.044.894.044s.831,0,.894-.044a.487.487,0,0,0,.109-.109,7.279,7.279,0,0,0,.044-1.766,7.279,7.279,0,0,0-.044-1.766.487.487,0,0,0-.109-.109c-.063-.042-.123-.044-.894-.044S211.216-301,211.154-300.956Zm1.243,1.876v1.222h-.7V-300.3h.7Z" transform="translate(-206.028 -205.943)" fill="#727272"/>
    </g>
    <path id="Path_12677" data-name="Path 12677" d="M1.517-4.551q13.9-9.635,13.9-15.99a4.6,4.6,0,0,0-.922-3.034A3.552,3.552,0,0,0,11.6-24.682q-4.059,0-4.305,5.535H1.681q.246-5.125,3.116-7.77a10.3,10.3,0,0,1,7.257-2.644q4.469,0,6.868,2.316a8.183,8.183,0,0,1,2.4,6.171,11.992,11.992,0,0,1-1.784,6.088,24.718,24.718,0,0,1-4.53,5.617A35.573,35.573,0,0,1,9.225-4.961H21.894V-.246H1.517ZM45.838-24.436H32.1v7.3a6.622,6.622,0,0,1,2.6-1.784,9.639,9.639,0,0,1,3.669-.677,8.969,8.969,0,0,1,4.982,1.292,7.853,7.853,0,0,1,2.952,3.444,11.561,11.561,0,0,1,.964,4.776,10.436,10.436,0,0,1-2.6,7.421Q42.066.123,37.228.123A12.517,12.517,0,0,1,31.734-1a8.771,8.771,0,0,1-3.649-3.157A9.335,9.335,0,0,1,26.65-8.9h5.617a5.024,5.024,0,0,0,1.517,2.931,4.5,4.5,0,0,0,3.157,1.087,4.275,4.275,0,0,0,3.547-1.456,6.008,6.008,0,0,0,1.168-3.875,4.917,4.917,0,0,0-1.23-3.567,4.625,4.625,0,0,0-3.485-1.271,5.158,5.158,0,0,0-2.788.717,4.274,4.274,0,0,0-1.681,1.907H26.855v-17.1H45.838ZM66.42-21.074q-.656-4.264-4.346-4.264a4.393,4.393,0,0,0-4.182,2.521q-1.312,2.522-1.148,7.893a5.746,5.746,0,0,1,2.563-3.137,8.341,8.341,0,0,1,4.449-1.168,8.649,8.649,0,0,1,6.58,2.521q2.4,2.521,2.4,7.155a10.887,10.887,0,0,1-1.148,5.084A8.326,8.326,0,0,1,68.163-.984,11.152,11.152,0,0,1,62.648.287q-6.314,0-8.692-3.915t-2.378-10.8q0-7.913,2.563-11.726t8.3-3.813q4.387,0,6.724,2.5a10.327,10.327,0,0,1,2.665,6.4ZM57.236-9.963a5.491,5.491,0,0,0,1.333,3.792,4.969,4.969,0,0,0,3.916,1.5A4.765,4.765,0,0,0,66.01-5.986a4.932,4.932,0,0,0,1.312-3.649,5.059,5.059,0,0,0-1.333-3.772A4.891,4.891,0,0,0,62.4-14.719a5.611,5.611,0,0,0-3.649,1.23A4.277,4.277,0,0,0,57.236-9.963ZM81.057-3.731A10.914,10.914,0,0,1,82.041.738,6.418,6.418,0,0,1,80.709,4.92a5,5,0,0,1-4.12,1.64V4.346a2.077,2.077,0,0,0,1.558-.513,2.628,2.628,0,0,0,.492-1.825V1.6H76.014v-5.33ZM106.19-24.436H92.455v7.3a6.622,6.622,0,0,1,2.6-1.784,9.639,9.639,0,0,1,3.669-.677,8.969,8.969,0,0,1,4.981,1.292,7.853,7.853,0,0,1,2.952,3.444,11.562,11.562,0,0,1,.964,4.776,10.436,10.436,0,0,1-2.6,7.421Q102.418.123,97.58.123A12.517,12.517,0,0,1,92.086-1a8.771,8.771,0,0,1-3.649-3.157A9.335,9.335,0,0,1,87-8.9h5.617a5.024,5.024,0,0,0,1.517,2.931,4.5,4.5,0,0,0,3.157,1.087,4.275,4.275,0,0,0,3.547-1.456,6.008,6.008,0,0,0,1.169-3.875,4.917,4.917,0,0,0-1.23-3.567,4.625,4.625,0,0,0-3.485-1.271,5.158,5.158,0,0,0-2.788.717,4.274,4.274,0,0,0-1.681,1.907H87.207v-17.1H106.19Zm20.582,3.362q-.656-4.264-4.346-4.264a4.393,4.393,0,0,0-4.182,2.521q-1.312,2.522-1.148,7.893a5.745,5.745,0,0,1,2.563-3.137,8.341,8.341,0,0,1,4.449-1.168,8.649,8.649,0,0,1,6.581,2.521q2.4,2.521,2.4,7.155a10.887,10.887,0,0,1-1.148,5.084,8.326,8.326,0,0,1-3.424,3.485A11.152,11.152,0,0,1,123,.287q-6.314,0-8.692-3.915t-2.378-10.8q0-7.913,2.563-11.726t8.3-3.813q4.387,0,6.724,2.5a10.327,10.327,0,0,1,2.665,6.4ZM117.588-9.963a5.491,5.491,0,0,0,1.332,3.792,4.969,4.969,0,0,0,3.916,1.5,4.765,4.765,0,0,0,3.526-1.312,4.932,4.932,0,0,0,1.312-3.649,5.059,5.059,0,0,0-1.333-3.772,4.891,4.891,0,0,0-3.587-1.312,5.611,5.611,0,0,0-3.649,1.23A4.277,4.277,0,0,0,117.588-9.963ZM143.172-8.61q.656,4.264,4.428,4.264a4.31,4.31,0,0,0,4.141-2.522q1.271-2.522,1.107-7.892a5.746,5.746,0,0,1-2.562,3.136,8.341,8.341,0,0,1-4.449,1.168,8.649,8.649,0,0,1-6.581-2.521q-2.4-2.522-2.4-7.155a10.92,10.92,0,0,1,1.148-5.064A8.3,8.3,0,0,1,141.43-28.7a11.152,11.152,0,0,1,5.514-1.271q6.314,0,8.692,3.833t2.378,10.64q0,7.749-2.4,11.767T147.6.287A10.488,10.488,0,0,1,142.455-.9a8.46,8.46,0,0,1-3.321-3.219,10.652,10.652,0,0,1-1.374-4.49Zm9.184-11.111a5.491,5.491,0,0,0-1.333-3.793,4.969,4.969,0,0,0-3.915-1.5,4.765,4.765,0,0,0-3.526,1.312,4.932,4.932,0,0,0-1.312,3.649,5.13,5.13,0,0,0,1.333,3.793,4.848,4.848,0,0,0,3.587,1.332,5.574,5.574,0,0,0,3.628-1.251A4.311,4.311,0,0,0,152.356-19.721Z" transform="translate(150 430)" fill="#303544"/>
    <path id="Path_12678" data-name="Path 12678" d="M7.32-9.48a27.742,27.742,0,0,1,2.9,1.032,4.713,4.713,0,0,1,1.8,1.428,4.126,4.126,0,0,1,.768,2.628A4.433,4.433,0,0,1,12.2-2.16,4.358,4.358,0,0,1,10.392-.48a6.348,6.348,0,0,1-3,.648H7.32v1.92H6.576V.12a6.316,6.316,0,0,1-3.72-1.5A4.675,4.675,0,0,1,1.248-4.56H3.576a3.273,3.273,0,0,0,.876,1.884A3.476,3.476,0,0,0,6.576-1.584V-7.728a26.7,26.7,0,0,1-2.868-1,4.576,4.576,0,0,1-1.776-1.4A4.037,4.037,0,0,1,1.176-12.7a4.1,4.1,0,0,1,.672-2.328,4.373,4.373,0,0,1,1.9-1.56,6.828,6.828,0,0,1,2.832-.552V-19.2H7.32v2.088a5.752,5.752,0,0,1,3.552,1.368,4.714,4.714,0,0,1,1.56,2.9H10.08a3.132,3.132,0,0,0-.864-1.632,3.266,3.266,0,0,0-1.9-.912ZM3.528-12.792a2.367,2.367,0,0,0,.78,1.9A6.85,6.85,0,0,0,6.576-9.72v-5.712a3.378,3.378,0,0,0-2.22.684A2.393,2.393,0,0,0,3.528-12.792ZM7.344-1.536a3.172,3.172,0,0,0,2.3-.792,2.689,2.689,0,0,0,.816-2.016,2.445,2.445,0,0,0-.816-1.968A6.711,6.711,0,0,0,7.32-7.488v5.952Z" transform="translate(131 412)" fill="#303544"/>
    <g id="coin-stack" transform="translate(125.799 849.616)">
      <path id="Path_187" data-name="Path 187" d="M8.321-511.624c-4.477.416-7.57,1.844-8.165,3.774a2.849,2.849,0,0,0,0,1.536c.573,1.866,3.466,3.255,7.76,3.731a39.87,39.87,0,0,0,5.272-.027c3.672-.454,6.219-1.53,7.2-3.034a2.642,2.642,0,0,0,0-2.877c-.979-1.5-3.472-2.558-7.122-3.028A46.982,46.982,0,0,0,8.321-511.624Zm3.9,1.19a14.21,14.21,0,0,1,6.219,1.7,3.654,3.654,0,0,1,1.027,1.044,1.524,1.524,0,0,1,0,1.249c-1.152,2.2-7.441,3.418-12.875,2.493-2.628-.449-4.645-1.417-5.191-2.487-.579-1.13.5-2.336,2.8-3.131a18.14,18.14,0,0,1,4.694-.881C9.424-510.494,11.56-510.483,12.219-510.434Z" transform="translate(0 0)" fill="#7a6cff"/>
      <path id="Path_188" data-name="Path 188" d="M48.589-469.74a14.072,14.072,0,0,0-5.689,1.3,1.706,1.706,0,0,0-.725.833c-.211,1.119,2.2,2.093,5.943,2.4a40.59,40.59,0,0,0,4.293,0c3.839-.314,6.262-1.33,5.916-2.477a2.224,2.224,0,0,0-1.109-.979C55.456-469.5,51.952-469.94,48.589-469.74Z" transform="translate(-39.836 -39.607)" fill="#7a6cff"/>
      <path id="Path_189" data-name="Path 189" d="M.376-398.7l.005,2.087.233.47c.573,1.152,1.985,2.071,4.158,2.7a21.24,21.24,0,0,0,4.234.708l.568.032.3-.53a9.278,9.278,0,0,1,1.73-2.19l.746-.741H10.883a21.186,21.186,0,0,1-5.5-.6C2.415-397.5.6-398.838.409-400.406A8.217,8.217,0,0,0,.376-398.7Z" transform="translate(-0.307 -105.189)" fill="#7a6cff"/>
      <path id="Path_190" data-name="Path 190" d="M178.809-341.824a9.272,9.272,0,0,0-4.7,1.709,11.154,11.154,0,0,0-2.022,1.985,9.259,9.259,0,0,0,3.412,13.875,8.123,8.123,0,0,0,3.747.876,7.34,7.34,0,0,0,1.774-.087,9.443,9.443,0,0,0,3.661-1.449,10.2,10.2,0,0,0,2.5-2.5,9.776,9.776,0,0,0,1.4-3.326,6.972,6.972,0,0,0,.119-1.839,7.146,7.146,0,0,0-.119-1.849,9.3,9.3,0,0,0-6.905-7.159A10.471,10.471,0,0,0,178.809-341.824Zm1.784,1.271a8.045,8.045,0,0,1,6.559,5.51,6.329,6.329,0,0,1,.357,2.46,6.4,6.4,0,0,1-.119,1.579,8.08,8.08,0,0,1-2.114,3.985,8.2,8.2,0,0,1-3.158,2.028,6.639,6.639,0,0,1-2.606.406,6.329,6.329,0,0,1-2.46-.357,8.067,8.067,0,0,1-5.516-6.527,10.385,10.385,0,0,1,.027-2.423,8.638,8.638,0,0,1,1.341-3.288,9.436,9.436,0,0,1,2.012-2.006A7.923,7.923,0,0,1,180.594-340.553Z" transform="translate(-160.999 -160.628)" fill="#7a6cff"/>
      <path id="Path_191" data-name="Path 191" d="M218.959-298.829A6.9,6.9,0,0,0,213.3-293.6a8.055,8.055,0,0,0-.108,2.72,7.371,7.371,0,0,0,1.13,2.839,8.968,8.968,0,0,0,2,1.941,6.958,6.958,0,0,0,8.636-.963,7.043,7.043,0,0,0,1.952-3.737,8.555,8.555,0,0,0-.054-2.6,6.82,6.82,0,0,0-1.99-3.574,6.815,6.815,0,0,0-4.883-1.936A8.555,8.555,0,0,0,218.959-298.829Zm2.217,1.676v.568H223.5v2.271h-4.6v1.19H220c.6,0,1.265.027,1.471.054a2.311,2.311,0,0,1,1.968,1.828,7.728,7.728,0,0,1-.022,2.093,2.42,2.42,0,0,1-1.027,1.422,2.517,2.517,0,0,1-1.033.335h-.184v1.19H218.9v-1.19h-2.271v-2.271h4.6v-1.19h-1.319a5.224,5.224,0,0,1-1.665-.108,2.342,2.342,0,0,1-1.465-1.352c-.108-.276-.119-.384-.119-1.406v-1.109l.168-.357a2.323,2.323,0,0,1,1.357-1.244,2.1,2.1,0,0,1,.514-.1h.205v-1.19h2.271Z" transform="translate(-201.554 -201.25)" fill="#7a6cff"/>
      <path id="Path_192" data-name="Path 192" d="M.075-313.61a7.752,7.752,0,0,0,.1,2.3c.546,1.768,3.255,3.136,7.208,3.645.86.108.795.124.795-.184a11.907,11.907,0,0,1,.508-2.812c.135-.368.216-.33-.86-.438a15.461,15.461,0,0,1-5.245-1.379,3.861,3.861,0,0,1-2.46-2.774A10.993,10.993,0,0,0,.075-313.61Z" transform="translate(-0.023 -185.76)" fill="#7a6cff"/>
      <path id="Path_193" data-name="Path 193" d="M.075-228.355a7.885,7.885,0,0,0,.1,2.325c.573,1.855,3.547,3.282,7.668,3.693,1.136.114,1.363.124,1.363.054a2.886,2.886,0,0,0-.184-.465,10.942,10.942,0,0,1-.762-2.747l-.038-.3-.93-.124a18.185,18.185,0,0,1-3.3-.735C1.638-227.435.3-228.6.124-230.009A10.7,10.7,0,0,0,.075-228.355Z" transform="translate(-0.023 -266.393)" fill="#7a6cff"/>
    </g>
  </g>
</svg>
