<svg xmlns="http://www.w3.org/2000/svg" width="172" height="64" viewBox="0 0 172 64">
  <g id="页面-1" transform="translate(13.956 13.877)">
    <g id="导航栏下拉最小宽度备份-4" transform="translate(-14 -14)">
      <g id="编组-27备份-2" transform="translate(0 0)">
        <g id="kucoin-logo">
          <rect id="矩形" width="172" height="64" transform="translate(0.044 0.123)" fill="none"/>
          <g id="KUCOIN-logo-3.0" transform="translate(16.062 16.065)">
            <path id="形状" d="M97.138,15.229c0-.819,0-1.59-.027-2.3a13.958,13.958,0,0,0-.2-2,6.754,6.754,0,0,0-.561-1.745,5.649,5.649,0,0,0-1.108-1.535,7.087,7.087,0,0,0-2.251-1.552,7.383,7.383,0,0,0-2.876-.539,7.485,7.485,0,0,0-2.888.539,7.03,7.03,0,0,0-2.265,1.544,5.6,5.6,0,0,0-1.1,1.535,6.681,6.681,0,0,0-.553,1.745,13.988,13.988,0,0,0-.192,2c-.018.712-.027,1.482-.022,2.3s0,1.584.022,2.3a13.988,13.988,0,0,0,.192,2,6.681,6.681,0,0,0,.553,1.745,5.669,5.669,0,0,0,1.1,1.535,6.953,6.953,0,0,0,2.265,1.541,7.432,7.432,0,0,0,2.888.542,7.329,7.329,0,0,0,2.876-.542A7.007,7.007,0,0,0,95.243,22.8a5.718,5.718,0,0,0,1.108-1.535,6.753,6.753,0,0,0,.561-1.745,13.99,13.99,0,0,0,.2-2c.022-.716.032-1.482.026-2.3Zm-3.713,0c0,.908-.013,1.664-.044,2.265a11.477,11.477,0,0,1-.147,1.474,3.639,3.639,0,0,1-.295.939,2.683,2.683,0,0,1-.442.659,2.852,2.852,0,0,1-1,.737,3.437,3.437,0,0,1-1.372.277A3.5,3.5,0,0,1,88.74,21.3a2.862,2.862,0,0,1-1.031-.737,2.59,2.59,0,0,1-.442-.659,3.537,3.537,0,0,1-.28-.939,12.275,12.275,0,0,1-.147-1.474q-.04-.9-.04-2.265c0-.908.013-1.665.04-2.266a12.322,12.322,0,0,1,.147-1.474,3.537,3.537,0,0,1,.28-.939,2.615,2.615,0,0,1,.442-.659,2.879,2.879,0,0,1,1.031-.737,3.419,3.419,0,0,1,1.379-.277,3.362,3.362,0,0,1,1.372.277,2.87,2.87,0,0,1,1,.737,2.711,2.711,0,0,1,.442.659,3.637,3.637,0,0,1,.295.939,11.52,11.52,0,0,1,.147,1.474C93.413,13.563,93.425,14.32,93.425,15.229Z" transform="translate(12.235 0.814)" fill="#bbbbcf"/>
            <path id="路径" d="M122.994,6.025a.329.329,0,0,0-.326-.326h-3.063a.326.326,0,0,0-.326.326V17.341L111.809,5.79c-.05-.078-.094-.091-.205-.091h-2.841a.33.33,0,0,0-.326.326V24.388a.328.328,0,0,0,.326.324h3.062a.324.324,0,0,0,.324-.324V13.042l7.473,11.577c.052.078.093.091.2.091h2.839a.327.327,0,0,0,.326-.324Z" transform="translate(15.968 0.836)" fill="#bbbbcf"/>
            <path id="路径-2" data-name="路径" d="M103.7,6.025a.326.326,0,0,0-.326-.326h-3.06a.327.327,0,0,0-.326.326V24.386a.327.327,0,0,0,.326.326h3.06a.326.326,0,0,0,.326-.326Z" transform="translate(14.724 0.836)" fill="#bbbbcf"/>
            <path id="路径-3" data-name="路径" d="M71.767,15.228c0-.914.01-1.674.037-2.28a11.71,11.71,0,0,1,.147-1.474,3.222,3.222,0,0,1,5.728-1.328,4.214,4.214,0,0,1,.589,1.344.1.1,0,0,0,.106.081h3.6c.052,0,.071-.035.062-.085a6.853,6.853,0,0,0-3.684-5.224,7.573,7.573,0,0,0-3.3-.7,6.967,6.967,0,0,0-5.126,2.084A5.5,5.5,0,0,0,68.378,10.5a26.25,26.25,0,0,0-.321,4.727,25.515,25.515,0,0,0,.321,4.726,5.51,5.51,0,0,0,1.549,2.859,6.967,6.967,0,0,0,5.126,2.082,7.594,7.594,0,0,0,3.3-.7,6.853,6.853,0,0,0,3.684-5.224c.009-.052-.01-.085-.062-.085h-3.6a.1.1,0,0,0-.106.081,4.217,4.217,0,0,1-.589,1.342,3.222,3.222,0,0,1-5.728-1.326,11.776,11.776,0,0,1-.147-1.474C71.777,16.9,71.767,16.138,71.767,15.228Z" transform="translate(10.021 0.815)" fill="#bbbbcf"/>
            <path id="路径-4" data-name="路径" d="M38.6,6.025a.327.327,0,0,0-.326-.326H35.213a.327.327,0,0,0-.326.326V24.388a.327.327,0,0,0,.326.324h3.061a.327.327,0,0,0,.326-.324V19l2.456-2.937L46.1,24.615a.2.2,0,0,0,.183.1H50c.171,0,.2-.106.116-.252l-6.606-11.2,6.061-7.27c.122-.147.071-.287-.121-.287H45.387a.147.147,0,0,0-.127.059L38.6,13.752Z" transform="translate(5.137 0.836)" fill="#bbbbcf"/>
            <path id="路径-5" data-name="路径" d="M58.456,21.561a3.477,3.477,0,0,1-3.285-3.5V6.025a.327.327,0,0,0-.326-.326H51.785a.327.327,0,0,0-.326.326V18.016a6.683,6.683,0,0,0,7,6.856,6.683,6.683,0,0,0,7-6.856V6.025a.329.329,0,0,0-.326-.326H62.065a.327.327,0,0,0-.324.326V18.063A3.479,3.479,0,0,1,58.456,21.561Z" transform="translate(7.578 0.836)" fill="#bbbbcf"/>
            <path id="形状-2" data-name="形状" d="M9.26,16.046l9.5,9.5,6-6a2.713,2.713,0,0,1,3.831,3.831L20.675,31.3a2.732,2.732,0,0,1-3.831,0L5.426,19.878v6.789a2.713,2.713,0,0,1-5.426,0V5.418a2.713,2.713,0,0,1,5.426,0v6.789L16.842.788a2.731,2.731,0,0,1,3.831,0L28.594,8.7a2.713,2.713,0,0,1-3.831,3.831l-6-6Zm9.506-2.716h0a2.713,2.713,0,1,0,1.92.795,2.716,2.716,0,0,0-1.92-.795Z" transform="translate(0 -0.003)" fill="#bbbbcf" fill-rule="evenodd"/>
          </g>
        </g>
      </g>
    </g>
  </g>
</svg>
