<?xml version="1.0" encoding="utf-8"?>
<!-- Generator: Adobe Illustrator 16.0.0, SVG Export Plug-In . SVG Version: 6.00 Build 0)  -->
<!DOCTYPE svg PUBLIC "-//W3C//DTD SVG 1.1//EN" "http://www.w3.org/Graphics/SVG/1.1/DTD/svg11.dtd">
<svg version="1.1" id="Layer_1" xmlns="http://www.w3.org/2000/svg" xmlns:xlink="http://www.w3.org/1999/xlink" x="0px" y="0px"
	 width="195.563px" height="55.123px" viewBox="0 0 195.563 55.123" enable-background="new 0 0 195.563 55.123"
	 xml:space="preserve">
<g id="Group_3563" transform="translate(-816.438 -933)">
	<g id="Ethereum" transform="translate(816.438 933)">
		<g>
			<defs>
				<rect id="SVGID_1_" x="0" width="55.123" height="55.123"/>
			</defs>
			<clipPath id="SVGID_2_">
				<use xlink:href="#SVGID_1_"  overflow="visible"/>
			</clipPath>
			<g id="Ethereum-2" transform="translate(0 0)" clip-path="url(#SVGID_2_)">
				<g id="Group_2" transform="translate(13.759 4.567)">
					<g id="Group_1" transform="translate(0 0)">
						<g id="Ethereum-Icon-Purple-Logo.wine_1_">
							<path id="Path_1" fill="#BBBBCF" d="M14.148,17.047V0L0,23.478L14.148,17.047z"/>
							<path id="Path_2" fill="#BBBBCF" d="M14.148,31.843v-14.8L0,23.473L14.148,31.843z M14.148,17.043l14.15,6.43L14.148,0
								V17.043z"/>
							<path id="Path_3" fill="#BBBBCF" d="M14.148,17.047v14.8l14.15-8.365L14.148,17.047z"/>
							<path id="Path_4" fill="#BBBBCF" d="M14.148,34.522L0,26.162L14.148,46.1V34.522z"/>
							<path id="Path_5" fill="#BBBBCF" d="M28.306,26.162l-14.158,8.359V46.1L28.306,26.162z"/>
						</g>
					</g>
				</g>
			</g>
		</g>
	</g>
	<g enable-background="new    ">
		<path fill="#BBBBCF" d="M872.74,953.368v5.124h7v3.023h-7v5.32h7.84V970h-11.788v-19.768h11.788v3.136H872.74z"/>
		<path fill="#BBBBCF" d="M891.78,966.612V970h-2.072c-1.736,0-3.066-0.42-3.99-1.26s-1.386-2.24-1.386-4.2v-6.72h-2.156v-3.332
			h2.156v-3.836h3.948v3.836h3.472v3.332h-3.472v6.775c0,0.747,0.149,1.27,0.448,1.568c0.298,0.299,0.803,0.448,1.512,0.448H891.78z
			"/>
		<path fill="#BBBBCF" d="M908.131,956.028c1.064,1.176,1.596,2.828,1.596,4.956V970h-3.92v-8.568c0-1.231-0.318-2.188-0.952-2.87
			c-0.635-0.681-1.503-1.021-2.604-1.021c-1.12,0-2.016,0.364-2.688,1.092c-0.672,0.729-1.008,1.773-1.008,3.136V970h-3.948v-20.72
			h3.948v8.315c0.41-1.045,1.087-1.861,2.03-2.449c0.942-0.589,2.03-0.883,3.262-0.883
			C905.639,954.264,907.067,954.852,908.131,956.028z"/>
		<path fill="#BBBBCF" d="M927.647,963H916.28c0.056,1.382,0.429,2.398,1.119,3.052c0.691,0.654,1.549,0.98,2.576,0.98
			c0.914,0,1.676-0.225,2.282-0.672c0.606-0.448,0.994-1.055,1.162-1.82h4.172c-0.206,1.083-0.644,2.054-1.315,2.912
			c-0.673,0.858-1.536,1.53-2.591,2.016c-1.055,0.486-2.226,0.729-3.514,0.729c-1.513,0-2.856-0.322-4.032-0.966
			c-1.176-0.645-2.091-1.563-2.744-2.759c-0.653-1.194-0.98-2.604-0.98-4.228s0.327-3.038,0.98-4.242s1.568-2.123,2.744-2.758
			s2.52-0.952,4.032-0.952c1.53,0,2.87,0.317,4.019,0.952c1.147,0.635,2.033,1.508,2.659,2.618s0.938,2.375,0.938,3.794
			C927.787,962.048,927.74,962.496,927.647,963z M922.817,958.38c-0.719-0.653-1.601-0.979-2.646-0.979
			c-1.063,0-1.96,0.326-2.688,0.979c-0.728,0.653-1.129,1.615-1.203,2.884h7.531C923.867,959.995,923.535,959.033,922.817,958.38z"
			/>
		<path fill="#BBBBCF" d="M936.83,955.118c0.952-0.569,2.016-0.854,3.192-0.854v4.229h-1.147c-2.895,0-4.34,1.344-4.34,4.032V970
			h-3.949v-15.512h3.949v2.968C935.114,956.467,935.879,955.688,936.83,955.118z"/>
		<path fill="#BBBBCF" d="M956.655,963h-11.368c0.056,1.382,0.429,2.398,1.12,3.052c0.69,0.654,1.549,0.98,2.576,0.98
			c0.914,0,1.675-0.225,2.281-0.672c0.607-0.448,0.994-1.055,1.162-1.82h4.172c-0.205,1.083-0.644,2.054-1.315,2.912
			c-0.673,0.858-1.536,1.53-2.591,2.016c-1.055,0.486-2.226,0.729-3.514,0.729c-1.512,0-2.855-0.322-4.031-0.966
			c-1.176-0.645-2.092-1.563-2.744-2.759c-0.654-1.194-0.98-2.604-0.98-4.228s0.326-3.038,0.98-4.242
			c0.652-1.204,1.568-2.123,2.744-2.758s2.52-0.952,4.031-0.952c1.531,0,2.87,0.317,4.019,0.952
			c1.147,0.635,2.034,1.508,2.659,2.618c0.626,1.11,0.938,2.375,0.938,3.794C956.794,962.048,956.747,962.496,956.655,963z
			 M951.824,958.38c-0.719-0.653-1.602-0.979-2.646-0.979c-1.063,0-1.959,0.326-2.688,0.979s-1.13,1.615-1.204,2.884h7.532
			C952.874,959.995,952.543,959.033,951.824,958.38z"/>
		<path fill="#BBBBCF" d="M974.434,954.488V970h-3.947v-3.136c-0.412,1.045-1.088,1.861-2.031,2.45
			c-0.941,0.588-2.029,0.882-3.262,0.882c-1.791,0-3.22-0.588-4.283-1.765c-1.064-1.176-1.596-2.818-1.596-4.928v-9.016h3.92v8.567
			c0,1.232,0.316,2.189,0.951,2.87c0.635,0.682,1.493,1.022,2.576,1.022c1.139,0,2.044-0.364,2.716-1.092
			c0.673-0.729,1.009-1.773,1.009-3.137v-8.231H974.434z"/>
		<path fill="#BBBBCF" d="M1002.224,956.014c1.092,1.167,1.638,2.824,1.638,4.971V970h-3.92v-8.568c0-1.194-0.303-2.113-0.91-2.758
			c-0.606-0.644-1.441-0.966-2.506-0.966c-1.102,0-1.979,0.346-2.632,1.036s-0.979,1.698-0.979,3.023V970h-3.92v-8.568
			c0-1.194-0.305-2.113-0.91-2.758c-0.607-0.644-1.442-0.966-2.506-0.966c-1.102,0-1.979,0.346-2.633,1.036
			s-0.979,1.698-0.979,3.023V970h-3.948v-15.512h3.948v2.939c0.41-1.008,1.06-1.787,1.946-2.338c0.886-0.55,1.918-0.826,3.094-0.826
			c1.25,0,2.338,0.299,3.262,0.896s1.619,1.456,2.086,2.576c0.485-1.064,1.209-1.909,2.17-2.534s2.039-0.938,3.234-0.938
			C999.643,954.264,1001.131,954.848,1002.224,956.014z"/>
	</g>
</g>
</svg>
