<svg xmlns="http://www.w3.org/2000/svg" width="60.365" height="40.201" viewBox="0 0 60.365 40.201">
  <g id="Group_3608" data-name="Group 3608" transform="translate(-1357.801 -386.211)">
    <path id="Path_12060" data-name="Path 12060" d="M1649.123,390.3v32.187a.452.452,0,0,0-.087.277c.062,1.765-2.072,3.386-3.693,3.552a16.586,16.586,0,0,1-1.7.111c-4.5,0-8.992,0-13.488-.007a1.862,1.862,0,0,1-1.2-.18,1.145,1.145,0,0,1-.27-.76c0-.177-.01-.353-.01-.53q0-18.607,0-37.214a1.834,1.834,0,0,1,.259-1.3,1.119,1.119,0,0,1,.837-.189c4.861-.013,9.722-.028,14.583.005a4.851,4.851,0,0,1,4.083,1.957,2.885,2.885,0,0,1,.558,1.4A2.547,2.547,0,0,0,1649.123,390.3Z" transform="translate(-230.956 -0.019)" fill="#fe4b55" fill-rule="evenodd"/>
    <path id="Path_12061" data-name="Path 12061" d="M1357.8,422.465V390.16a.457.457,0,0,0,.087-.277c-.06-1.768,2.068-3.381,3.685-3.552a16.574,16.574,0,0,1,1.757-.112c4.49,0,8.98,0,13.471.009.394,0,.834-.117,1.161.246a3.087,3.087,0,0,1,.166,1.448q.006,15.812,0,31.625c0,1.826,0,3.651,0,5.477a2.377,2.377,0,0,1-.154,1.1c-.188.309-.507.264-.792.272-.961.026-1.924.011-2.886.011h-11.25a6.283,6.283,0,0,1-2.319-.329,3.87,3.87,0,0,1-2.838-3.333A.546.546,0,0,0,1357.8,422.465Z" transform="translate(0 0)" fill="#41479a" fill-rule="evenodd"/>
    <path id="Path_12062" data-name="Path 12062" d="M1513.979,427.855l-20.315,0a1.686,1.686,0,0,0,.062-.7q0-19.1,0-38.2a1.687,1.687,0,0,0-.062-.7l20.315,0a.926.926,0,0,0-.1.626q0,19.175,0,38.349A.926.926,0,0,0,1513.979,427.855Z" transform="translate(-115.842 -1.743)" fill="#f4f4f4" fill-rule="evenodd"/>
  </g>
</svg>
