<svg xmlns="http://www.w3.org/2000/svg" width="61.066" height="40.629" viewBox="0 0 61.066 40.629">
  <g id="Group_3609" data-name="Group 3609" transform="translate(-1344.801 -376.345)">
    <path id="Path_12063" data-name="Path 12063" d="M1344.8,480.75V467.511a.708.708,0,0,1,.55-.177l.477,0q29.506,0,59.012,0c.347,0,.723-.1,1.027.175V480.75a.729.729,0,0,1-.576.261c-.278.014-.556.016-.834.016q-29.123,0-58.246-.007C1345.734,481.02,1345.205,481.176,1344.8,480.75Z" transform="translate(0 -77.411)" fill="#fe4b55" fill-rule="evenodd"/>
    <path id="Path_12064" data-name="Path 12064" d="M1344.8,557.387q12.124,0,24.247-.006,18.409,0,36.818.006v9.661a.464.464,0,0,0-.087.281c.069,1.767-2.145,3.447-3.747,3.586-.574.05-1.145.107-1.721.107q-24.977,0-49.954,0a6.876,6.876,0,0,1-2.641-.346,3.925,3.925,0,0,1-2.826-3.347.563.563,0,0,0-.089-.281Z" transform="translate(0 -154.048)" fill="#fee05a" fill-rule="evenodd"/>
    <path id="Path_12065" data-name="Path 12065" d="M1344.8,389.981V380.32a.467.467,0,0,0,.088-.281c-.069-1.767,2.144-3.447,3.747-3.586.574-.05,1.145-.107,1.721-.107q24.977,0,49.953,0a7.191,7.191,0,0,1,2.473.288,3.977,3.977,0,0,1,3.016,3.521.512.512,0,0,0,.069.285v9.541a1.26,1.26,0,0,1-.643.057q-29.889,0-59.779,0A1.26,1.26,0,0,1,1344.8,389.981Z" fill="#464655" fill-rule="evenodd"/>
    <path id="Path_12066" data-name="Path 12066" d="M1344.8,467.814h61.066v.119H1344.8Z" transform="translate(0 -77.833)" fill="#fc5a63" fill-rule="evenodd"/>
  </g>
</svg>
