<svg xmlns="http://www.w3.org/2000/svg" width="62.702" height="41.568" viewBox="0 0 62.702 41.568">
  <g id="Group_3611" data-name="Group 3611" transform="translate(-1491.801 -387.834)">
    <path id="Path_12088" data-name="Path 12088" d="M1491.8,425.028v-32.82a4.206,4.206,0,0,1,1.9-3.443,5.685,5.685,0,0,1,3.065-.921c.265-.017.53-.007.8-.007q25.59,0,51.181,0a10.424,10.424,0,0,1,1.95.149,4.782,4.782,0,0,1,3.46,2.568,7.063,7.063,0,0,1,.35,1.657v32.82a4.206,4.206,0,0,1-1.9,3.443,5.686,5.686,0,0,1-3.065.921c-.265.017-.53.008-.8.008q-25.59,0-51.181,0a10.429,10.429,0,0,1-1.95-.149,4.781,4.781,0,0,1-3.46-2.569A7.041,7.041,0,0,1,1491.8,425.028Z" fill="#f4f4f4" fill-rule="evenodd"/>
    <path id="Path_12089" data-name="Path 12089" d="M1630.924,445.987a11.883,11.883,0,1,1-11.935,11.814A11.885,11.885,0,0,1,1630.924,445.987Z" transform="translate(-107.719 -49.252)" fill="#fe4b55" fill-rule="evenodd"/>
  </g>
</svg>
