<svg xmlns="http://www.w3.org/2000/svg" width="62.007" height="41.103" viewBox="0 0 62.007 41.103">
  <g id="Group_3610" data-name="Group 3610" transform="translate(-1043.801 -364.857)">
    <path id="Path_12067" data-name="Path 12067" d="M1105.808,369.18v32.457a4.528,4.528,0,0,1-.754,2.312,5.207,5.207,0,0,1-4.1,2c-.222.011-.444.009-.666.009h-50.972a6.06,6.06,0,0,1-3.631-.927,4.148,4.148,0,0,1-1.886-3.4V369.18a4.526,4.526,0,0,1,.754-2.311,5.208,5.208,0,0,1,4.1-2c.222-.011.444-.008.666-.008h50.972a6.06,6.06,0,0,1,3.631.927A4.147,4.147,0,0,1,1105.808,369.18Z" transform="translate(0)" fill="#f4f4f4" fill-rule="evenodd"/>
    <path id="Path_12068" data-name="Path 12068" d="M1198.265,480.074a9.347,9.347,0,0,1-4.783,4.977,10.637,10.637,0,0,1-15.22-7.433,10.412,10.412,0,0,1,.576-6.167c.064-.16.1-.359.3-.429.237.252.086.541.057.807a5.014,5.014,0,0,0,2.267,5,5.114,5.114,0,0,0,6.57-.8,17.8,17.8,0,0,1,1.756-1.91,5.518,5.518,0,0,1,8.784,3.322A3.918,3.918,0,0,1,1198.265,480.074Z" transform="translate(-113.912 -90.094)" fill="#41479a" fill-rule="evenodd"/>
    <path id="Path_12069" data-name="Path 12069" d="M1203.555,445.189a5.337,5.337,0,0,0-9.14-5.07,8.2,8.2,0,0,1-2.452,2.289,5.342,5.342,0,0,1-7.674-4.12,9.091,9.091,0,0,1,.138-2.15,5.938,5.938,0,0,1,1.43-2.407,10.688,10.688,0,0,1,18.627,4.826,10.109,10.109,0,0,1-.618,6.159C1203.8,444.885,1203.785,445.116,1203.555,445.189Z" transform="translate(-119.202 -55.21)" fill="#fe4b55" fill-rule="evenodd"/>
    <path id="Path_12070" data-name="Path 12070" d="M1113.776,404.126a1.539,1.539,0,0,1-.871-.595c-.2-.289,0-.539.152-.772q2.309-3.477,4.626-6.949c.39-.584.6-.615,1.184-.219.544.37.585.562.2,1.14q-2.307,3.479-4.622,6.951C1114.3,403.9,1114.162,404.136,1113.776,404.126Z" transform="translate(-58.57 -25.858)" fill="#464655" fill-rule="evenodd"/>
    <path id="Path_12071" data-name="Path 12071" d="M1334.3,412.445c-.059.513-.461.668-.811.845a.53.53,0,0,1-.72-.255q-2.415-3.621-4.829-7.242c-.333-.5-.009-.763.372-1.022s.738-.325,1.034.119q2.4,3.6,4.786,7.2A2.519,2.519,0,0,1,1334.3,412.445Z" transform="translate(-241.012 -33.696)" fill="#464655" fill-rule="evenodd"/>
    <path id="Path_12072" data-name="Path 12072" d="M1133.19,405.236a.917.917,0,0,1-.209.607q-2.343,3.521-4.684,7.043c-.329.5-.673.454-1.116.163s-.6-.609-.276-1.1q2.372-3.538,4.727-7.087c.184-.277.417-.484.75-.323C1132.733,404.714,1133.123,404.882,1133.19,405.236Z" transform="translate(-70.376 -33.631)" fill="#464655" fill-rule="evenodd"/>
    <path id="Path_12073" data-name="Path 12073" d="M1119.463,555.8c-.1.434-.482.6-.843.765s-.565-.081-.74-.345q-1.444-2.16-2.884-4.323c-.6-.9-1.2-1.816-1.815-2.711a.669.669,0,0,1,.227-1.1c.591-.373.8-.371,1.152.159q2.353,3.515,4.693,7.039A.972.972,0,0,1,1119.463,555.8Z" transform="translate(-58.711 -155.269)" fill="#464655" fill-rule="evenodd"/>
    <path id="Path_12074" data-name="Path 12074" d="M1141.334,422.435a1.538,1.538,0,0,1-.9-.6c-.182-.267-.026-.531.139-.778q2.333-3.489,4.66-6.983c.367-.548.563-.561,1.142-.191.459.293.579.611.253,1.1-1.573,2.339-3.129,4.689-4.693,7.035A.739.739,0,0,1,1141.334,422.435Z" transform="translate(-81.936 -41.392)" fill="#464655" fill-rule="evenodd"/>
    <path id="Path_12075" data-name="Path 12075" d="M1141.678,529.486a.639.639,0,0,1,.534.344q2.4,3.592,4.792,7.185c.324.485.071.767-.326,1.036-.412.281-.756.343-1.072-.133-1.583-2.381-3.177-4.754-4.754-7.138A.9.9,0,0,1,1141.678,529.486Z" transform="translate(-82.264 -139.709)" fill="#464655" fill-rule="evenodd"/>
    <path id="Path_12076" data-name="Path 12076" d="M1364.85,428.616c-.1.5-.5.656-.849.828a.517.517,0,0,1-.673-.252q-.924-1.38-1.841-2.765c-.3-.457-.06-.737.325-.987s.729-.407,1.042.053c.623.916,1.233,1.84,1.842,2.765A2.035,2.035,0,0,1,1364.85,428.616Z" transform="translate(-269.482 -51.21)" fill="#464655" fill-rule="evenodd"/>
    <path id="Path_12077" data-name="Path 12077" d="M1149.9,571.753c-.034.51-.452.657-.792.84a.528.528,0,0,1-.726-.241q-.92-1.383-1.843-2.765c-.261-.392-.113-.681.24-.914.338-.223.725-.548,1.055-.093.7.961,1.331,1.967,1.987,2.958A.935.935,0,0,1,1149.9,571.753Z" transform="translate(-87.072 -172.692)" fill="#464655" fill-rule="evenodd"/>
    <path id="Path_12078" data-name="Path 12078" d="M1330.441,568.537a1.5,1.5,0,0,1,.852.592c.209.292-.008.536-.161.768-.554.842-1.125,1.672-1.669,2.52-.326.508-.68.447-1.117.156s-.618-.6-.275-1.093c.586-.844,1.145-1.707,1.715-2.562A.667.667,0,0,1,1330.441,568.537Z" transform="translate(-241.087 -172.847)" fill="#464655" fill-rule="evenodd"/>
    <path id="Path_12079" data-name="Path 12079" d="M1342.794,395.34a.651.651,0,0,1,.536.339c.6.9,1.2,1.806,1.8,2.707.3.452.1.736-.288.994s-.75.443-1.083-.051c-.617-.916-1.237-1.83-1.831-2.76C1341.622,396.083,1342.148,395.356,1342.794,395.34Z" transform="translate(-252.925 -25.869)" fill="#464655" fill-rule="evenodd"/>
    <path id="Path_12080" data-name="Path 12080" d="M1351.235,539.59a3.067,3.067,0,0,1-.195.4c-.565.857-1.13,1.713-1.709,2.559-.363.532-.571.54-1.15.168a.674.674,0,0,1-.233-1.1c.6-.86,1.168-1.735,1.746-2.607a.541.541,0,0,1,.719-.266C1350.768,538.913,1351.165,539.072,1351.235,539.59Z" transform="translate(-257.945 -147.517)" fill="#464655" fill-rule="evenodd"/>
    <path id="Path_12081" data-name="Path 12081" d="M1129.151,543.069a.592.592,0,0,1-.539-.326q-.907-1.351-1.808-2.707c-.32-.484-.058-.766.343-1.029.418-.273.762-.325,1.071.15.548.842,1.115,1.672,1.667,2.511A.885.885,0,0,1,1129.151,543.069Z" transform="translate(-70.317 -147.613)" fill="#464655" fill-rule="evenodd"/>
    <path id="Path_12082" data-name="Path 12082" d="M1317.588,416.957c-.066.486-.468.634-.817.818-.315.167-.545-.012-.714-.263q-.926-1.38-1.838-2.77a.566.566,0,0,1,.217-.873c.327-.209.713-.6,1.052-.143.716.972,1.356,2,2.023,3.007A.9.9,0,0,1,1317.588,416.957Z" transform="translate(-229.379 -41.29)" fill="#464655" fill-rule="evenodd"/>
    <path id="Path_12083" data-name="Path 12083" d="M1342.449,581.929a1.643,1.643,0,0,1-.912-.612c-.2-.3.006-.535.161-.768.558-.839,1.13-1.67,1.675-2.518.324-.5.67-.459,1.113-.161s.618.6.274,1.092c-.587.844-1.146,1.707-1.715,2.564A.741.741,0,0,1,1342.449,581.929Z" transform="translate(-252.597 -180.58)" fill="#464655" fill-rule="evenodd"/>
    <path id="Path_12084" data-name="Path 12084" d="M1334.908,443.394a.657.657,0,0,1,.523.309q.9,1.358,1.809,2.711c.318.474.1.767-.309,1.041s-.759.357-1.075-.122c-.565-.856-1.138-1.707-1.711-2.559-.163-.242-.327-.511-.148-.779A1.486,1.486,0,0,1,1334.908,443.394Z" transform="translate(-246.203 -66.649)" fill="#464655" fill-rule="evenodd"/>
    <path id="Path_12085" data-name="Path 12085" d="M1337.464,530.183a.875.875,0,0,1-.186.606c-.571.854-1.149,1.7-1.709,2.564-.3.464-.635.468-1.066.182s-.671-.58-.331-1.085c.6-.886,1.183-1.778,1.778-2.664.167-.249.389-.458.7-.3C1337,529.669,1337.41,529.809,1337.464,530.183Z" transform="translate(-246.281 -139.663)" fill="#464655" fill-rule="evenodd"/>
    <path id="Path_12086" data-name="Path 12086" d="M1364.936,548.679a4.147,4.147,0,0,1-.229.443q-.83,1.26-1.675,2.511c-.356.524-.576.536-1.152.177a.661.661,0,0,1-.231-1.094c.595-.861,1.16-1.741,1.741-2.611.171-.255.411-.438.713-.28C1364.449,548,1364.857,548.154,1364.936,548.679Z" transform="translate(-269.568 -155.221)" fill="#464655" fill-rule="evenodd"/>
    <path id="Path_12087" data-name="Path 12087" d="M1317.694,560.119a4.609,4.609,0,0,1-.235.446c-.554.84-1.109,1.679-1.675,2.511-.363.532-.553.537-1.149.158a.666.666,0,0,1-.222-1.1c.6-.859,1.161-1.74,1.746-2.608.17-.252.4-.428.713-.262C1317.219,559.45,1317.619,559.6,1317.694,560.119Z" transform="translate(-229.48 -164.925)" fill="#464655" fill-rule="evenodd"/>
  </g>
</svg>
