<svg xmlns="http://www.w3.org/2000/svg" width="409.635" height="409.636" viewBox="0 0 409.635 409.636">
  <g id="Group_1" data-name="Group 1" transform="translate(-1415.65 -321.8)">
    <path id="Path_1" data-name="Path 1" d="M1587.664,321.8h65.607a5.242,5.242,0,0,1,1.836,4.243c.117,2.264.1,4.53.1,6.8q.006,74.764.006,149.529c0,8.965.539,9.5,9.5,9.5q75.963.016,151.928.048c2.955,0,6.226-.832,8.638,1.9v65.606a5.241,5.241,0,0,1-4.242,1.836c-2.265.117-4.53.1-6.795.1q-74.766.008-149.529.005c-8.965,0-9.5.54-9.5,9.505q-.016,75.965-.049,151.928c0,2.955.832,6.226-1.9,8.639h-65.607a5.249,5.249,0,0,1-1.836-4.243c-.117-2.264-.1-4.53-.1-6.795q-.008-74.763-.006-149.529c0-8.965-.539-9.5-9.5-9.505q-75.965-.015-151.928-.047c-2.955,0-6.226.832-8.639-1.9V493.815a5.241,5.241,0,0,1,4.243-1.836c2.263-.117,4.529-.1,6.8-.1q74.763-.008,149.528-.006c8.966,0,9.5-.539,9.505-9.5q.015-75.963.048-151.927C1585.772,327.485,1584.936,324.213,1587.664,321.8Z" fill="#fe4b55" fill-rule="evenodd"/>
    <path id="Path_2" data-name="Path 2" d="M1587.664,321.8c.091,1.456.26,2.914.26,4.37q.021,81.373.01,162.748c0,5.159-.007,5.166-5.166,5.167q-81.375,0-162.748-.011c-1.457,0-2.914-.169-4.37-.259v-20.8c1.268-1.711,3.112-1.868,5.02-1.874q25.4-.089,50.8,0a11.472,11.472,0,0,1,4.682.891c-4.085-1.2-7.432-3.781-10.9-6.059-14.925-9.81-29.8-19.693-44.853-29.3a13.373,13.373,0,0,1-4.748-5.258v-16.8c2.17-1.565,3.806,0,5.42,1.043q14.748,9.559,29.487,19.133c17.407,11.332,34.871,22.575,52.218,34a11.315,11.315,0,0,0,6.258,2.324c9.586.045,19.17,0,29.59.033a91.054,91.054,0,0,0-7.944-5.495q-37.266-24.012-74.388-48.245c-11.611-7.545-23.211-15.109-34.873-22.575a9.376,9.376,0,0,1-3.844-3.932,15.48,15.48,0,0,1,1.612-11.119c2.453-4.551,4.593-9.222,6.614-13.964.849-1.994,1.927-3.807,4.485-3.858a18.341,18.341,0,0,1,5.383,2.556c25.654,17.017,51.522,33.707,77.217,50.662,15.461,10.2,31.027,20.244,46.48,30.459,1.367.9,2.793,2.714,4.58,1.614,1.689-1.038.981-3.177.983-4.843q.059-56.591.057-113.179c0-2.583-.649-5.432,1.878-7.419Z" fill="#f4f4f4" fill-rule="evenodd"/>
    <path id="Path_3" data-name="Path 3" d="M1653.271,731.436c-.091-1.456-.259-2.913-.259-4.371q-.021-81.374-.011-162.747c0-5.159.007-5.166,5.167-5.166q81.374,0,162.748.01c1.456,0,2.913.169,4.369.259v20.8c-1.266,1.711-3.111,1.868-5.018,1.874q-25.4.089-50.8,0a11.5,11.5,0,0,1-4.683-.893c4.086,1.2,7.434,3.781,10.9,6.06,14.924,9.809,29.8,19.693,44.853,29.3a13.359,13.359,0,0,1,4.748,5.258v20c-2.045,1.248-3.533-.131-5.079-1.108-13.836-8.75-27.508-17.754-41.239-26.664q-22.945-14.891-45.889-29.786a11.366,11.366,0,0,0-6.309-2.152c-9.452-.023-18.9.009-28.785-.019,1.822,2.292,4.216,3.077,6.2,4.4,17.942,11.959,36.142,23.522,54.2,35.308,19.5,12.733,39.091,25.34,58.617,38.039a32.045,32.045,0,0,1,6.165,5.012c1.112,2.741.027,5.319-.993,7.679-2.21,5.112-4.684,10.114-7.009,15.181-.816,1.779-1.89,3.592-4.3,3.652a18.265,18.265,0,0,1-5.391-2.513c-25.418-16.856-51.05-33.388-76.507-50.186-15.785-10.417-31.7-20.644-47.438-31.128a23.583,23.583,0,0,0-2.386-1.457c-1.775-.9-2.822-.323-3.061,1.629a36.349,36.349,0,0,0-.095,4.392q-.008,55.958-.033,111.915c0,2.581.649,5.427-1.877,7.413Z" fill="#f4f4f4" fill-rule="evenodd"/>
    <path id="Path_4" data-name="Path 4" d="M1415.65,559.421c1.455-.09,2.913-.259,4.37-.259q81.372-.021,162.742-.011c5.152,0,5.16.008,5.16,5.17q0,81.372-.01,162.743c0,1.457-.162,2.915-.248,4.372h-20.8c-2.411-1.858-1.875-4.551-1.881-7.017q-.075-37.387-.027-74.776c0-13.2.018-26.392-.022-39.587-.005-1.418.491-3.206-.958-4.074-1.693-1.012-3.011.553-4.268,1.392-19.834,13.25-39.9,26.151-59.814,39.274-21.364,14.075-42.841,27.976-64.2,42.058a19.5,19.5,0,0,1-5.365,2.6,3.4,3.4,0,0,1-3.57-2.006,101.882,101.882,0,0,1-6.384-13.59,2.864,2.864,0,0,1,.1-1.941c4.455-4.9,10.364-7.851,15.8-11.385q20.765-13.5,41.545-26.976c27.334-17.7,54.643-35.447,82.153-53.314-9.581.024-18.907.035-28.231-.006a13.207,13.207,0,0,0-7.513,2.183q-36.918,23.822-73.717,47.824c-9.606,6.234-19.186,12.509-28.854,18.648-1.65,1.048-3.486,2.94-5.544.461-.358-2.046.441-4.176-.464-6.179v-23.2a13.083,13.083,0,0,1,4.42-5.029c17-10.765,33.608-22.148,50.59-32.945a18.6,18.6,0,0,1,5.284-2.557,14.252,14.252,0,0,1-5.675.827q-24.2.018-48.4-.016c-2.238-.005-4.611.272-6.219-1.883Z" fill="#f4f4f4" fill-rule="evenodd"/>
    <path id="Path_5" data-name="Path 5" d="M1825.285,493.815c-1.456.09-2.913.259-4.369.259q-81.375.021-162.748.01c-5.16,0-5.167-.007-5.167-5.166q0-81.373.011-162.748c0-1.456.168-2.914.259-4.37h20.8c2.411,1.857,1.875,4.552,1.88,7.017q.077,37.391.028,74.78c0,13.2-.017,26.393.023,39.59,0,1.418-.491,3.206.963,4.07,1.693,1.006,3.011-.559,4.267-1.4,19.72-13.183,39.673-26.01,59.481-39.062,21.475-14.149,43.066-28.122,64.539-42.276a18.219,18.219,0,0,1,5.379-2.564,3.443,3.443,0,0,1,3.528,2.085,142.527,142.527,0,0,1,6.309,13.149,2.971,2.971,0,0,1-.109,2.311c-7.221,6.375-15.741,10.885-23.721,16.152q-21.518,14.2-43.239,28.106c-23.864,15.363-47.56,30.986-71.453,46.3a11.054,11.054,0,0,1-2.029,1.207c8.82-.322,18.076-.167,27.326-.088a17.944,17.944,0,0,0,10.467-3.108c32.658-21.4,65.5-42.509,98.159-63.908,1.564-1.024,3.193-1.947,4.836-2.813,1.448-.763,3.07-1.184,4.136.759.291,2.291-.407,4.643.443,6.9v22.4a13.082,13.082,0,0,1-4.42,5.029c-17,10.764-33.607,22.147-50.591,32.946a18.611,18.611,0,0,1-5.284,2.555,14.245,14.245,0,0,1,5.677-.825q24.2-.02,48.4.014c2.239.007,4.611-.272,6.219,1.884Z" fill="#f4f4f4" fill-rule="evenodd"/>
    <path id="Path_6" data-name="Path 6" d="M1429.973,690.623c.471-1.247,1.695-1.643,2.669-2.281q65.3-42.816,130.63-85.59c.862-.564,1.788-1.029,2.757-1.582,1.05,1.63.564,3.257.565,4.776q.049,60.36.036,120.718c0,1.591.152,3.181.233,4.772h-72.007c-2.665-.894-5.46-.785-8.2-.955-11.949-.75-22.148-6.129-31.854-12.405a82.061,82.061,0,0,1-22.924-21.826C1430.727,694.606,1428.762,693.116,1429.973,690.623Z" fill="#41479a" fill-rule="evenodd"/>
    <path id="Path_7" data-name="Path 7" d="M1566.863,321.8c-.081,1.591-.232,3.181-.233,4.772q-.02,60.159-.01,120.32v4.666c-1.484.722-2.2-.356-3-.881q-65.68-42.969-131.32-86c-.866-.568-1.949-.937-2.325-2.073-1.2-2.131.4-3.589,1.419-5,11.675-16.107,27.158-27.078,45.943-33.341,5.263-1.755,10.937-1.535,16.441-2.062.645-.062,1.333.111,1.877-.4Z" fill="#41479a" fill-rule="evenodd"/>
    <path id="Path_8" data-name="Path 8" d="M1810.96,362.608c-.464,1.253-1.69,1.646-2.664,2.285q-65.3,42.814-130.631,85.59c-.864.565-1.793,1.032-2.759,1.583-1.052-1.628-.563-3.255-.564-4.774q-.05-60.361-.037-120.72c0-1.591-.152-3.181-.233-4.772h71.206c2.948.808,5.995.777,9,.96,11.95.728,22.142,6.128,31.844,12.381a81.629,81.629,0,0,1,22.931,21.838C1810.2,358.625,1812.169,360.114,1810.96,362.608Z" fill="#41479a" fill-rule="evenodd"/>
    <path id="Path_9" data-name="Path 9" d="M1674.072,731.436c.081-1.591.233-3.181.233-4.772q.019-60.159.01-120.32v-4.666c1.485-.722,2.2.356,3,.881q65.681,42.967,131.32,86c.865.567,1.949.936,2.324,2.072,1.2,2.133-.4,3.59-1.418,5-11.677,16.106-27.159,27.078-45.944,33.341-5.262,1.755-10.937,1.535-16.441,2.062-.645.062-1.333-.111-1.878.4Z" fill="#41479a" fill-rule="evenodd"/>
    <path id="Path_10" data-name="Path 10" d="M1416.426,651.378c1.713-.119,2.837-1.377,4.146-2.225q51.131-33.132,102.2-66.354a13.861,13.861,0,0,1,8.188-2.4c9.858.15,19.721.056,29.581.056h4.066c-.711,2.014-2.255,2.382-3.4,3.124q-68,44.2-136.055,88.314c-1.186.769-2.209,2-3.869,1.807-3.6-1.059-3.408-4.361-3.97-7.053-.934-4.48-.616-9.138-1.669-13.621v-1.6Q1415.985,650.605,1416.426,651.378Z" fill="#fe4b55" fill-rule="evenodd"/>
    <path id="Path_11" data-name="Path 11" d="M1822.1,665.052a30.014,30.014,0,0,1-2.811-1.445q-62.381-40.46-124.742-80.951c-.651-.422-1.29-.859-1.967-1.311.774-1.49,1.975-.847,2.872-.852,10.666-.054,21.333.018,32-.076a10.879,10.879,0,0,1,6.309,1.973q45.728,29.769,91.522,59.438v2.4a6.3,6.3,0,0,0,0,4.8v3.2c-.906,3.127-.545,6.4-1.089,9.572C1823.952,663.227,1823.984,664.727,1822.1,665.052Z" fill="#fe4b55" fill-rule="evenodd"/>
    <path id="Path_12" data-name="Path 12" d="M1418.852,390.594q26.41,17.252,52.824,34.5,34.319,22.335,68.677,44.6c1.094.712,2.184,1.432,3.26,2.138-.588,1.492-1.679.909-2.459.912-10.925.045-21.851-.023-32.775.074a10.224,10.224,0,0,1-5.894-1.99q-41.693-27.109-83.434-54.151c-1.113-.722-2.267-1.383-3.4-2.072v-13.6a37.767,37.767,0,0,0,.829-7.252C1416.543,392.217,1416.539,390.5,1418.852,390.594Z" fill="#fe4b55" fill-rule="evenodd"/>
    <path id="Path_13" data-name="Path 13" d="M1415.65,431.41c5.709,3.635,11.451,7.22,17.121,10.915q21.063,13.732,42.069,27.549c1.057.694,2.057,1.475,3.264,2.346-1.573.921-2.91.526-4.164.529q-26.961.048-53.922.032c-1.455,0-2.913.152-4.368.232Z" fill="#41479a" fill-rule="evenodd"/>
    <path id="Path_14" data-name="Path 14" d="M1825.285,473.013q-24.951-.12-49.9-.24c-4.059-.018-8.118,0-12.171,0-.009-1.468.961-1.621,1.555-2.011q29.522-19.388,59.088-38.71a9.839,9.839,0,0,1,1.429-.64Z" fill="#41479a" fill-rule="evenodd"/>
    <path id="Path_15" data-name="Path 15" d="M1415.65,580.223q24.949.12,49.9.24c4.058.018,8.117,0,12.171,0,.007,1.468-.961,1.62-1.555,2.011q-29.349,19.289-58.744,38.508a13.857,13.857,0,0,1-1.774.842Z" fill="#41479a" fill-rule="evenodd"/>
    <path id="Path_16" data-name="Path 16" d="M1825.285,621.826c-5.709-3.636-11.451-7.22-17.121-10.916q-21.061-13.728-42.059-27.562c-1.042-.686-2.421-1.056-2.982-2.5,1.281-.75,2.617-.356,3.873-.359q26.961-.048,53.921-.032c1.456,0,2.912-.152,4.368-.232Z" fill="#41479a" fill-rule="evenodd"/>
    <path id="Path_17" data-name="Path 17" d="M1824.6,401a1.271,1.271,0,0,1,.684,0v8c-1.42-2.3-.535-4.869-.875-7.3A.447.447,0,0,1,1824.6,401Z" fill="#c7c9df" fill-rule="evenodd"/>
    <path id="Path_18" data-name="Path 18" d="M1416.426,651.378l-.383.1-.393-.049v-6.4C1416.986,647.013,1416.287,649.247,1416.426,651.378Z" fill="#cacbe0" fill-rule="evenodd"/>
    <path id="Path_19" data-name="Path 19" d="M1825.285,649.028a4.034,4.034,0,0,1,0-4.8Z" fill="#e95a6b" fill-rule="evenodd"/>
    <path id="Path_20" data-name="Path 20" d="M1824.6,401a1.538,1.538,0,0,0-.191.71c-1.755-.02-2.916,1.22-4.228,2.07q-51.471,33.376-102.891,66.833a12.717,12.717,0,0,1-7.443,2.212c-11.29-.117-22.582-.049-33.978-.049.146-1.819,1.564-2.018,2.453-2.6q68.685-44.658,137.431-89.224c1.164-.755,2.184-2.113,3.907-1.478C1821.773,386.547,1824.046,393.577,1824.6,401Z" fill="#fe4b55" fill-rule="evenodd"/>
  </g>
</svg>
