<svg xmlns="http://www.w3.org/2000/svg" width="409.635" height="409.636" viewBox="0 0 409.635 409.636">
  <g id="Group_1" data-name="Group 1" transform="translate(-1194.8 -309.8)">
    <path id="Path_1" data-name="Path 1" d="M1282.008,309.8h133.611a5.608,5.608,0,0,1,1.34,4.061c.018,9.029.252,18.06-.113,27.086.264,10.672.288,21.342,0,32.013.266,10.4.288,20.807,0,31.209.266,10.666.288,21.332,0,32,.266,10.4.288,20.806,0,31.208.268,10.416.287,20.831,0,31.247.364,9.372.14,18.747.116,28.121a6.111,6.111,0,0,1-1.157,4.114c-1.866,1.375-4.052,1.169-6.165,1.17q-104.385.035-208.77,0c-2.113,0-4.311.2-6.071-1.408V395.408a6.18,6.18,0,0,0,0-4.8v-1.6c.676-13.991,5.8-26.5,13.131-38.156,2.912-4.635,5.577-9.638,10.482-12.7,2.96.141,2.053,2.456,2.313,4.5,2.235-1.326,4.456-1.252,6.953.262-.281-2.785.085-4.949,2.323-6.83-2.868-.777-6-1.157-4.383-5.054,1.974-2.959,4.94-4.808,7.808-6.675a96.943,96.943,0,0,1,28.483-12.93c4.245-1.107,8.655-.652,12.9-1.627h2.4A6.171,6.171,0,0,0,1282.008,309.8Z" fill="#41479a" fill-rule="evenodd"/>
    <path id="Path_2" data-name="Path 2" d="M1604.435,593.024v32a5.567,5.567,0,0,1-3.671,1.35c-.932.062-1.865.072-2.8.072q-198.348.009-396.7-.012c-2.238,0-4.582.288-6.47-1.41v-32a5.574,5.574,0,0,1,3.672-1.348c.931-.063,1.865-.072,2.8-.072q198.348-.009,396.7.012C1600.2,591.617,1602.548,591.327,1604.435,593.024Z" fill="#f4f4f4" fill-rule="evenodd"/>
    <path id="Path_3" data-name="Path 3" d="M1604.435,593.024c-1.587.091-3.175.261-4.763.262q-200.054.018-400.107,0c-1.588,0-3.177-.171-4.765-.262v-31.2a5.569,5.569,0,0,1,3.672-1.349c.931-.062,1.865-.073,2.8-.073q198.348-.008,396.7.013c2.237,0,4.582-.289,6.469,1.409Z" fill="#fe4b55" fill-rule="evenodd"/>
    <path id="Path_4" data-name="Path 4" d="M1604.435,561.822q-99.51.02-199.022.037-105.307,0-210.613-.037v-31.2c12.254-.029,24.507-.083,36.76-.085q89.313-.015,178.625-.011c1.728,0,3.456-.111,5.182-.17,1.78-1.15,3.788-1.15,5.8-1.15q88.6-.021,177.2.008c2.114,0,4.312-.2,6.071,1.408Z" fill="#f4f4f4" fill-rule="evenodd"/>
    <path id="Path_5" data-name="Path 5" d="M1194.8,625.027c1.065-.021,2.131-.063,3.195-.063q201.623,0,403.245,0c1.066,0,2.131.042,3.2.063v16c-.9,3.051-.653,6.258-1.267,9.342-.511,2.569-.795,5.306-3.549,6.721a19.583,19.583,0,0,1-6.344.553q-193.626.012-387.25,0a20.275,20.275,0,0,1-6.34-.518c-2.806-1.361-3.094-4.12-3.61-6.7-.62-3.1-.378-6.327-1.275-9.4Z" fill="#fe4b55" fill-rule="evenodd"/>
    <path id="Path_6" data-name="Path 6" d="M1524.429,719.436H1274.007a80.433,80.433,0,0,1-32.484-9.8,92.056,92.056,0,0,1-22.246-16.67c-1.324-1.347-3.617-2.85-1.414-5.328,1.877-.944,3.9-.807,5.893-.807q175.794-.023,351.588,0c1.991,0,4.013-.136,5.894.728,2.227,1.871.463,3.386-.628,4.7a59.881,59.881,0,0,1-10.4,9.324,91.419,91.419,0,0,1-33.619,16.211C1532.572,718.771,1528.413,718.388,1524.429,719.436Z" fill="#fe4b55" fill-rule="evenodd"/>
    <path id="Path_7" data-name="Path 7" d="M1415.632,435.889V404.28c1.6-1.555,3.646-1.475,5.639-1.476q88.748-.043,177.5,0c1.988,0,4.037-.1,5.667,1.405v32c-1.627,1.506-3.673,1.4-5.66,1.406q-88.638.042-177.278-.01C1419.418,437.606,1417.157,437.919,1415.632,435.889Z" fill="#f4f4f4" fill-rule="evenodd"/>
    <path id="Path_8" data-name="Path 8" d="M1604.435,530.619c-1.594-.055-3.189-.161-4.784-.161q-89.344-.012-178.688-.011c-1.865,0-3.73-.061-5.595-.094q.127-15.776.257-31.55c1.908-2.011,4.425-1.583,6.776-1.588q28.594-.061,57.189-.022,58.787,0,117.576.02c2.486,0,5.119-.464,7.269,1.4Z" fill="#fe4b55" fill-rule="evenodd"/>
    <path id="Path_9" data-name="Path 9" d="M1604.435,498.617c-1.725.056-3.451.16-5.176.16q-91.818.024-183.634.026,0-15.714,0-31.431c1.645-1.49,3.7-1.361,5.682-1.362q88.729-.041,177.458,0c1.989,0,4.037-.1,5.667,1.4Z" fill="#f4f4f4" fill-rule="evenodd"/>
    <path id="Path_10" data-name="Path 10" d="M1604.435,467.414l-188.807-.041q0-15.742,0-31.483,91.824.024,183.645.061c1.72,0,3.439.17,5.158.26Z" fill="#fe4b55" fill-rule="evenodd"/>
    <path id="Path_11" data-name="Path 11" d="M1604.435,404.209l-163.2.066q-12.8,0-25.6.005,0-15.69,0-31.382c1.544-1.352,3.449-1.291,5.309-1.292q87.159-.04,174.319,0a13.187,13.187,0,0,1,4.341.525c2.767,1.388,3.079,4.129,3.569,6.71.639,3.358.471,6.825,1.267,10.169Z" fill="#fe4b55" fill-rule="evenodd"/>
    <path id="Path_12" data-name="Path 12" d="M1415.632,341.226q-.006-15.713-.013-31.426h108.81a79.594,79.594,0,0,1,33.627,9.975,92.835,92.835,0,0,1,21.887,16.478c1.328,1.353,3.6,2.846,1.455,5.334-1.87.957-3.892.818-5.878.819q-76.872.027-153.743,0C1419.669,342.4,1417.481,342.65,1415.632,341.226Z" fill="#fe4b55" fill-rule="evenodd"/>
    <path id="Path_13" data-name="Path 13" d="M1194.8,390.607c1.339,1.6,1.138,3.2,0,4.8Z" fill="#855991" fill-rule="evenodd"/>
    <path id="Path_14" data-name="Path 14" d="M1282.008,309.8c-1.6,1.114-3.2,1.306-4.8,0Z" fill="#7c5c97" fill-rule="evenodd"/>
    <path id="Path_15" data-name="Path 15" d="M1582.2,340.181c8.026,9.855,14.432,20.611,18.238,32.811q-47.4-.042-94.8-.081-45-.023-90.005-.013,0-15.836,0-31.672,80.916-.014,161.835-.074C1579.039,341.15,1580.958,342.089,1582.2,340.181Z" fill="#f4f4f4" fill-rule="evenodd"/>
    <path id="Path_16" data-name="Path 16" d="M1398.391,467.818c-4.4,2.817-5.789,5.768-3.224,10.47-3.875-3.206-7.106-3.789-10.749,0,1.723-4.545,1.061-7.85-3.694-9.731,6.254-2.132,6.254-2.132,9.2-6.837C1391.009,465.968,1392.6,469.425,1398.391,467.818Z" fill="#f1f1f2" fill-rule="evenodd"/>
    <path id="Path_17" data-name="Path 17" d="M1250.969,365.482c-6.114-2.6-6.114-2.6-11.943-.268,2.466-4.4,1.374-7.58-3.263-9.661,5.905-1.523,5.905-1.523,9.422-6.689.866,4.463,2.738,7.524,8.491,6.045C1249.284,357.636,1247.873,360.583,1250.969,365.482Z" fill="#f1f1f3" fill-rule="evenodd"/>
    <path id="Path_18" data-name="Path 18" d="M1327.239,481.811c1.37.138,1.444,1.152,1.568,1.806.485,2.565,1.9,3.514,4.476,3.279.8-.074,3.531.212,1.794,1.427-3.536,2.477-3.535,5.222-2.2,8.469a2.011,2.011,0,0,1-2.506-.557c-1.817-1.707-3.563-2-5.5-.129-.594.575-1.406,1.54-2.384.719-.784-.658-.053-1.528.24-2.17,1.043-2.3.647-3.978-1.676-5.22-.686-.367-1.972-.741-1.422-1.983.384-.868,1.439-.758,2.147-.586C1326.119,487.922,1325.647,483.561,1327.239,481.811Z" fill="#f1f1f3" fill-rule="evenodd"/>
    <path id="Path_19" data-name="Path 19" d="M1353.8,387.715c-3.968-3.364-7.211-3.449-10.849.146,1.5-4.4,1.443-7.889-3.473-10.181,4.837.178,7.9-1.3,8.628-6.435,1.42,4.229,3.138,7.413,8.553,5.938C1353.911,380.237,1350.207,382.651,1353.8,387.715Z" fill="#f1f2f3" fill-rule="evenodd"/>
    <path id="Path_20" data-name="Path 20" d="M1229.366,387.8c-3.693-3.492-6.939-3.483-10.557.06,1.687-4.481,1.289-7.882-3.389-9.661,2.2-1.938,4.606-.282,6.116-1.536,1.4-1.16.874-3.576,2.85-5.243,1.2,3.848,2.529,7.692,8.54,5.777C1228.547,380.045,1227.277,383.172,1229.366,387.8Z" fill="#f1f1f3" fill-rule="evenodd"/>
    <path id="Path_21" data-name="Path 21" d="M1347.532,461.46c1.086,1.176,1.5,1.417,1.573,1.735.68,3.021,1.98,5.063,5.633,4.394,1.238-.227,2.508.869.912,1.709-3.912,2.064-3.543,4.976-1.981,8.889-3.8-3.274-7.14-3.336-10.489.412.28-6.047.28-6.047-3.46-11.057C1344.3,468.291,1347.409,467.083,1347.532,461.46Z" fill="#f1f1f3" fill-rule="evenodd"/>
    <path id="Path_22" data-name="Path 22" d="M1280.95,497.412c1.865-4.584.9-7.654-3.536-10.034,4.846.265,7.844-1.111,8.671-6.285.92,5.237,4.217,6.375,8.764,6.381-4.211,2.385-5.749,5.24-3.141,9.861C1287.943,494.807,1284.594,493.659,1280.95,497.412Z" fill="#f1f1f3" fill-rule="evenodd"/>
    <path id="Path_23" data-name="Path 23" d="M1383.905,344.8c2.3-4.169,1.53-7.333-3.053-9.681,4.871.3,7.869-1.214,8.566-6.368,1.527,4.242,3.346,7.4,8.427,5.623-.39,2.907-3.512,2.973-3.782,4.813-.25,1.705.507,3.557.884,5.706-2.355-.275-3.618-2.687-5.305-2.554-1.621.127-3.127,1.72-4.683,2.669Z" fill="#f2f2f3" fill-rule="evenodd"/>
    <path id="Path_24" data-name="Path 24" d="M1363.676,497.492c1.365-4.3,1.832-7.844-3.642-9.724,4.424-.665,8.28-1.088,8.753-6.7,1.174,4.892,4.018,6.672,8.832,6.33-4.239,2.393-5.411,5.418-3.384,9.985C1370.522,494.268,1367.2,494.219,1363.676,497.492Z" fill="#f1f1f3" fill-rule="evenodd"/>
    <path id="Path_25" data-name="Path 25" d="M1384.268,434.961c2.1-4.612.99-7.774-3.358-10.337,5.27.824,7.568-1.642,8.286-6.324,3.495,5.384,3.495,5.384,8.57,6.534-.51,2.152-3.332,2.248-3.837,4.187-.471,1.8,1.356,3.444.552,6.087C1391.272,431.592,1387.956,431.518,1384.268,434.961Z" fill="#f2f2f3" fill-rule="evenodd"/>
    <path id="Path_26" data-name="Path 26" d="M1394.341,517.757c-3.053-3.321-6.26-3.869-9.786-.009.7-4.16,2.087-8.174-3.881-9.921,4.734-.345,8.141-1.37,8.851-6.69,1.062,5.031,4.047,6.623,8.429,6.028-.852,2.625-3.708,2.722-4.133,4.769C1393.459,513.682,1395.426,515.292,1394.341,517.757Z" fill="#f1f1f2" fill-rule="evenodd"/>
    <path id="Path_27" data-name="Path 27" d="M1286.49,348.075c.894,4.873,2.352,7.549,6.712,6.7a.83.83,0,0,1,.6,1.538c-3.772,2.023-4.2,4.9-2.073,9.081-3.864-3.248-7.207-3.443-10.162-.107a2.171,2.171,0,0,1-.29-2.725c1.034-2.28.825-4.008-1.582-5.265-.717-.375-1.9-.858-1.42-2.047.366-.9,1.44-.686,2.12-.536C1284.777,355.687,1284.4,351.528,1286.49,348.075Z" fill="#f1f1f3" fill-rule="evenodd"/>
    <path id="Path_28" data-name="Path 28" d="M1249.932,457.408c-3.715-4.3-6.915-2.834-10.436-.133,1.372-4.288,1.761-7.847-3.679-9.9,5.067.116,8.061-1.592,8.945-6.615,1.074,4.768,3.538,7.005,8.716,6.292C1249.112,449.606,1248.048,452.784,1249.932,457.408Z" fill="#f2f2f3" fill-rule="evenodd"/>
    <path id="Path_29" data-name="Path 29" d="M1239.448,412.573c2.066-4.621.959-7.782-3.687-9.865,6.065-1.534,6.065-1.534,9.388-6.765.777,4.636,3.021,7.168,8.3,6.233-4.092,2.656-5.577,5.7-3.284,10.349C1246.449,409.286,1243.138,409.023,1239.448,412.573Z" fill="#f2f2f3" fill-rule="evenodd"/>
    <path id="Path_30" data-name="Path 30" d="M1229.505,478.29c-3.839-3.532-7.077-3.5-10.694.011,1.693-4.48,1.287-7.866-3.485-10.182,4.792.168,7.919-1.22,8.137-5.918a2.266,2.266,0,0,1,1.925,2.272c.457,2.629,2.032,3.357,4.524,3.121.741-.069,3.541.032,1.748,1.391C1228.329,471.513,1227.584,474.075,1229.505,478.29Z" fill="#f1f1f3" fill-rule="evenodd"/>
    <path id="Path_31" data-name="Path 31" d="M1264.972,371.119a16.09,16.09,0,0,0,9.4,6.907c-4.673,2.019-5.514,5.244-3.524,9.747-3.634-2.919-6.864-3.966-10.529.063,1.67-4.555,1-7.865-3.586-10.245C1261.732,378.018,1264.517,376.186,1264.972,371.119Z" fill="#f2f2f3" fill-rule="evenodd"/>
    <path id="Path_32" data-name="Path 32" d="M1260.263,517.581c1.894-4.6.805-7.667-3.422-10.043,4.662.167,7.8-1.05,8.484-6.363,1.176,4.9,4.045,6.654,8.854,6.4-4.752,2.308-5.11,5.7-3.363,10.118C1267.22,514.664,1264,513.705,1260.263,517.581Z" fill="#f1f1f3" fill-rule="evenodd"/>
    <path id="Path_33" data-name="Path 33" d="M1380.873,377.541c5.182.631,7.675-1.607,8.736-6.356,1.039,4.786,3.568,6.976,8.575,5.838-4.069,5.383-4.069,5.383-3.369,10.924-3.477-2.947-6.81-4.072-10.425-.1C1386.211,383.259,1385.422,379.989,1380.873,377.541Z" fill="#f2f2f3" fill-rule="evenodd"/>
    <path id="Path_34" data-name="Path 34" d="M1277.6,402.757c5.574-1.363,5.574-1.363,8.495-6.089,1,.143,1.149,1.087,1.272,1.736.494,2.618,1.744,4,4.6,3.483.693-.124,1.718-.322,2.015.685a1.459,1.459,0,0,1-.628,1.279c-4.41,1.723-2.574,4.973-1.457,9.035-3.9-2.53-7.292-5.039-10.877,0C1282.324,408.235,1282.4,404.684,1277.6,402.757Z" fill="#f2f2f3" fill-rule="evenodd"/>
    <path id="Path_35" data-name="Path 35" d="M1256.5,468.1c5.3.434,7.963-1.547,8.986-6.411.9,5.069,3.837,6.692,8.632,5.891-3.731,4.527-3.731,4.527-3.712,10.922-3.217-3.381-6.444-4.068-10.034-.257C1261.321,473.952,1262.153,470.133,1256.5,468.1Z" fill="#f1f1f3" fill-rule="evenodd"/>
    <path id="Path_36" data-name="Path 36" d="M1359.844,401.575c5.571,1.441,8-.831,9.082-5.537,1.252,4.385,3.112,7.313,8.463,5.929-2.931,3.047-6.338,5.612-2.76,9.8-1.774.518-2.423-.088-2.953-.608-1.829-1.794-3.531-1.906-5.436-.073-.566.545-1.37,1.6-2.334.813-.693-.568-.261-1.562.14-2.208C1366.532,405.7,1362.112,404.99,1359.844,401.575Z" fill="#f2f2f3" fill-rule="evenodd"/>
    <path id="Path_37" data-name="Path 37" d="M1229.41,434.941c-3.714-3.509-7.021-3.262-10.708.006,2.068-4.573,1.108-7.761-3.356-10.264,5.127.615,7.715-1.452,8.652-6.311,1.3,4.442,3.4,7.2,8.75,6.2C1228.6,427.2,1227.219,430.285,1229.41,434.941Z" fill="#f2f2f3" fill-rule="evenodd"/>
    <path id="Path_38" data-name="Path 38" d="M1272.068,434.97c-6.758-2.382-6.758-2.382-12.141-.372,1.553-3.983,2.131-7.61-3.408-9.631,5.129.167,8.021-1.679,8.541-6.82,3.489,5.828,3.489,5.828,9.222,6.52C1270.93,427.418,1267.527,430,1272.068,434.97Z" fill="#f2f2f3" fill-rule="evenodd"/>
    <path id="Path_39" data-name="Path 39" d="M1301.089,434.759c1.587-3.847,2.3-6.931-1.751-8.824a.813.813,0,0,1,.421-1.563c4.336.766,5.849-1.813,6.468-5.229,1.5-.231,1.631.808,1.754,1.457.531,2.774,1.912,4.211,4.908,3.68.583-.1,1.358-.213,1.774.494a.922.922,0,0,1-.448,1.341c-4.3,1.765-2.921,5.075-1.892,8.3C1306.326,432.716,1306.326,432.716,1301.089,434.759Z" fill="#f2f2f3" fill-rule="evenodd"/>
    <path id="Path_40" data-name="Path 40" d="M1369.482,348.336c.46,5.45,2.95,7.483,8,6.61-3.352,2.85-6.177,5.473-2.943,10.414-3.954-2.937-7.2-3.88-9.954-.1-1.465-1.043-.892-1.979-.527-2.733,1.111-2.3.7-4-1.617-5.258-.712-.387-1.94-.79-1.439-2,.366-.878,1.44-.719,2.142-.559C1367.6,355.731,1367.07,351.481,1369.482,348.336Z" fill="#f2f2f3" fill-rule="evenodd"/>
    <path id="Path_41" data-name="Path 41" d="M1291.1,457.508c-3.246-3.031-6.573-4.506-10.293.149,1.9-4.85,1.535-8.225-4.149-10.09,6.729-1.536,6.729-1.536,9.359-6.073.918-.092,1.084.767,1.174,1.264.53,2.886,1.911,4.452,5.1,3.938,1-.162,2.422-.054,1.381,1.644-.873,1.426-3.337,1.578-3.354,3.61C1290.3,453.578,1291.764,455.039,1291.1,457.508Z" fill="#f2f2f3" fill-rule="evenodd"/>
    <path id="Path_42" data-name="Path 42" d="M1326.894,349.454a1.972,1.972,0,0,1,1.89,1.93c.508,2.426,1.674,3.729,4.358,3.339.792-.115,2.05-.486,2.342.766.2.861-.713,1.388-1.38,1.75-2.215,1.207-2.915,2.777-1.752,5.178.316.655,1.189,1.757,0,2.434-.825.469-1.584-.294-2.056-.832-3.005-3.422-5.09.46-7.385,1.019a1.2,1.2,0,0,1-.45-1.847c1.3-2.6,1.134-4.684-1.724-6.18-.733-.384-2.089-2.15-.362-2.065C1324.6,355.154,1326.572,353.264,1326.894,349.454Z" fill="#f2f2f3" fill-rule="evenodd"/>
    <path id="Path_43" data-name="Path 43" d="M1327.918,440.606c.906,4.314,2.386,6.957,6.705,6.166a.809.809,0,0,1,.447,1.549c-4.092,1.934-3.347,5.194-1.973,8.756-5.173-2.02-5.173-2.02-10.638-.333-.663-.809-.05-1.549.236-2.212.954-2.213.888-3.993-1.537-5.245-.726-.375-1.868-.883-1.408-2.057.361-.923,1.378-.506,2.116-.569C1324.518,446.435,1324.519,446.451,1327.918,440.606Z" fill="#f2f2f3" fill-rule="evenodd"/>
    <path id="Path_44" data-name="Path 44" d="M1353.853,517.69c-3.958-3.346-7.285-3.442-10.981-.06,1.614-4.342,1.772-7.761-3.334-9.8,4.416-.447,8-1.276,8.594-6.685,1.2,4.672,3.541,7,8.606,6.227C1353.192,510.114,1350.669,512.82,1353.853,517.69Z" fill="#f1f1f3" fill-rule="evenodd"/>
    <path id="Path_45" data-name="Path 45" d="M1368.922,440.818c1.208,4.515,3.207,7.239,8.516,6-3.465,2.866-5.573,5.817-3.247,10.55-3.678-3.467-6.876-3.591-10.4.062.812-4.183,2.305-8.223-3.9-10.005C1364.949,447.4,1368.082,445.922,1368.922,440.818Z" fill="#f2f2f3" fill-rule="evenodd"/>
    <path id="Path_46" data-name="Path 46" d="M1307.235,371.28c1.024,3.67,1.852,6.867,6.314,5.883,1.22-.269,1.874,1.025.746,1.638-3.748,2.041-3.768,4.861-1.861,7.921-1.439,1.182-2.193.268-2.773-.275-1.863-1.747-3.581-1.933-5.509-.091-.581.556-1.369,1.578-2.364.736-.778-.658-.081-1.556.21-2.182,1.063-2.292.709-3.972-1.613-5.225-.713-.386-1.889-.883-1.35-2.066.391-.859,1.456-.668,2.134-.508C1305.631,378.156,1304.886,373.623,1307.235,371.28Z" fill="#f2f2f3" fill-rule="evenodd"/>
    <path id="Path_47" data-name="Path 47" d="M1327.53,396.378c1.368,3.559,2.642,6.484,7.038,5.58a.81.81,0,0,1,.554,1.518c-3.909,2-3.791,5.063-2.153,9.121-3.774-3.573-7.115-3.355-10.06-.171a1.714,1.714,0,0,1-.368-2.291c1.11-2.444,1.126-4.466-1.672-5.881-.746-.377-2.556-2.34-.269-2.15C1325.1,402.477,1326.2,399.824,1327.53,396.378Z" fill="#f2f2f3" fill-rule="evenodd"/>
    <path id="Path_48" data-name="Path 48" d="M1236.666,487.314a5.227,5.227,0,0,1,1.822-.433c3.051.447,4.711-.78,5.208-3.833.146-.89,1.444-2.07,1.706-.655.827,4.454,4.082,4.723,8.022,5.063-4.272,2.362-5.4,5.494-3.331,10.08-3.647-3.228-6.877-3.625-10.486.014,1.207-4.284,1.556-7.839-3.65-9.391Z" fill="#f1f1f3" fill-rule="evenodd"/>
    <path id="Path_49" data-name="Path 49" d="M1339.805,424.257c4.542.712,7.744-.369,8.008-5.9,1.881,4,3.446,7.573,8.974,6.089-3.626,2.825-5.777,5.669-3.209,10.469-3.8-3.752-7.116-2.976-10.474.353C1343.522,429.355,1343.522,429.355,1339.805,424.257Z" fill="#f2f2f3" fill-rule="evenodd"/>
    <path id="Path_50" data-name="Path 50" d="M1215.449,507.573c5.008.453,7.572-1.571,8.617-6.4,1.212,4.6,3.4,7.167,8.694,6.075-4.072,2.751-5.575,5.8-3.368,10.421-3.675-3.29-6.9-3.708-10.477.089C1220.193,513.42,1220.456,509.815,1215.449,507.573Z" fill="#f2f2f3" fill-rule="evenodd"/>
    <path id="Path_51" data-name="Path 51" d="M1313.365,517.576a20.676,20.676,0,0,0-11.547-.528c.464-5.335.464-5.335-3.424-9.789,4.225.075,7.978-.381,8.125-6.165,1.6,4.408,3.6,7.225,8.777,6.261C1311.94,510.092,1309.272,512.653,1313.365,517.576Z" fill="#f1f1f2" fill-rule="evenodd"/>
    <path id="Path_52" data-name="Path 52" d="M1306.713,462.141c1.622,3.214,2.423,6.392,6.863,5.521,1.743-.341,1.53,1.272.421,1.918-2.727,1.588-3.737,3.523-2.081,6.455.311.549.6,1.3-.24,1.683-.706.324-1.326-.174-1.766-.624-2.075-2.128-4.071-2.057-6.138.011-.444.444-1.077.976-1.762.592-1.018-.572-.4-1.48-.076-2.068,1.478-2.713.413-4.44-1.991-5.793-.561-.315-1.149-.792-1.033-1.547a.949.949,0,0,1,1.222-.717C1304.285,468.445,1305.612,465.692,1306.713,462.141Z" fill="#f2f2f3" fill-rule="evenodd"/>
    <path id="Path_53" data-name="Path 53" d="M1339.741,335.034c5.144.592,7.665-1.354,8.358-6.43,1.329,4.64,3.283,7.456,8.624,6.145-3.158,2.9-6.043,5.531-3.056,10.393-3.833-3.179-7.148-3.388-10.728.222C1344.386,341.028,1344.5,337.507,1339.741,335.034Z" fill="#f2f2f3" fill-rule="evenodd"/>
    <path id="Path_54" data-name="Path 54" d="M1307.325,328.682c.791,4.144,2.172,6.868,6.564,6.031a.808.808,0,0,1,.474,1.54c-4.036,1.978-3.591,5.117-1.591,8.839-6.17-2.269-6.17-2.269-10.86-.3-.97-.878-.183-1.8.128-2.522.915-2.12.9-3.764-1.436-4.927-.771-.383-1.9-.922-1.681-1.974.261-1.27,1.6-.876,2.341-.712C1305.8,335.659,1304.82,331,1307.325,328.682Z" fill="#f2f2f3" fill-rule="evenodd"/>
    <path id="Path_55" data-name="Path 55" d="M1257.154,334.455c4.694,1.079,7.585-.377,8.028-5.865,1.531,4.6,3.554,7.439,8.9,6.227-3.647,2.8-5.848,5.606-3.044,10.279-3.744-2.282-7.069-4.223-10.045.26-1.53-2.543,1.07-4.434.09-6.112-.866-1.484-2.542-2.5-3.859-3.718Z" fill="#f2f2f3" fill-rule="evenodd"/>
    <path id="Path_56" data-name="Path 56" d="M1218.84,338.359c2.968-1.69,4.35-4.976,7.014-6.973-.355,5.3,4.347,2.131,6.814,4.13-4.02,2.034-5.474,5.11-2.815,9.548-5.742-2.23-5.742-2.23-10.755-.308C1217.666,342.678,1221.756,340.386,1218.84,338.359Z" fill="#f2f2f3" fill-rule="evenodd"/>
    <path id="Path_57" data-name="Path 57" d="M1217.038,689.055c-8.026-9.855-14.432-20.612-18.239-32.812,1.2.029,2.4.08,3.594.081q197.225,0,394.45,0c1.2,0,2.4-.052,3.595-.08-3.806,12.2-10.215,22.953-18.238,32.81-.8-1.648-2.331-.984-3.536-.984q-179.046-.049-358.093,0C1219.367,688.069,1217.838,687.4,1217.038,689.055Z" fill="#f4f4f4" fill-rule="evenodd"/>
  </g>
</svg>
