<svg xmlns="http://www.w3.org/2000/svg" width="60.366" height="39.587" viewBox="0 0 60.366 39.587">
  <g id="Group_3607" data-name="Group 3607" transform="translate(-1262.801 -371.894)">
    <path id="Path_12005" data-name="Path 12005" d="M1262.8,375.537a13.041,13.041,0,0,1,.933-1.862,4.44,4.44,0,0,1,3.565-1.769c7.542-.023,15.085-.008,22.627-.006a.888.888,0,0,1,.117.015c.734.131.967.382.987,1.114.018.658.012,1.316,0,1.974.025,1,.022,2.007,0,3.011q.031,1.529,0,3.057c.02.983.022,1.966,0,2.948.02,1.02.023,2.039,0,3.058.017,1.009.024,2.018,0,3.028.013.6-.013,1.2.009,1.806a1.339,1.339,0,0,1-.949,1.435,3.615,3.615,0,0,1-.937.065H1264.55q-.265,0-.53-.007a1.141,1.141,0,0,1-1.219-.891Z" transform="translate(0)" fill="#41479a" fill-rule="evenodd"/>
    <path id="Path_12006" data-name="Path 12006" d="M1262.8,511.826a1.429,1.429,0,0,0,1.312.714q12.777-.021,25.553-.01c.156,0,.313-.013.47-.02a4.119,4.119,0,0,1,1.216-.174q15.37.008,30.739.007a1.529,1.529,0,0,1,1.075.19V515.6a.884.884,0,0,1-.6.188c-.2.008-.393.006-.589.006q-28.989,0-57.978,0a1.742,1.742,0,0,1-1.194-.19Z" transform="translate(0 -119.311)" fill="#f4f4f4" fill-rule="evenodd"/>
    <path id="Path_12007" data-name="Path 12007" d="M1323.166,577.045v3.065a.884.884,0,0,1-.6.188c-.2.008-.393.006-.589.006q-28.989,0-57.978,0a1.742,1.742,0,0,1-1.194-.189v-3.065a.886.886,0,0,1,.6-.188c.2-.008.393-.006.589-.006q28.989,0,57.978,0A1.741,1.741,0,0,1,1323.166,577.045Z" transform="translate(0 -174.744)" fill="#fe4b55" fill-rule="evenodd"/>
    <path id="Path_12008" data-name="Path 12008" d="M1323.166,559.309c-.2.008-.391.022-.587.022q-29.595,0-59.191,0c-.2,0-.391-.014-.587-.022v-3.065a.886.886,0,0,1,.6-.188c.2-.008.393-.006.589-.006q28.989,0,57.978,0a1.74,1.74,0,0,1,1.194.189Z" transform="translate(0 -157.008)" fill="#f4f4f4" fill-rule="evenodd"/>
    <path id="Path_12009" data-name="Path 12009" d="M1262.8,599.033c1.06,0,2.12.007,3.18.007h56.42c.255,0,.51,0,.765-.007v2.122a3.445,3.445,0,0,0-.254.975,2.243,2.243,0,0,1-1.152.161h-23.8q-16.847,0-33.695,0a2.362,2.362,0,0,1-1.211-.161,3.429,3.429,0,0,0-.255-.974Z" transform="translate(0 -193.667)" fill="#f4f4f4" fill-rule="evenodd"/>
    <path id="Path_12010" data-name="Path 12010" d="M1323.166,540.26c-.233.015-.467.043-.7.043q-29.482,0-58.964,0c-.234,0-.467-.028-.7-.043v-2.948c.2-.007.392-.019.588-.019h59.19c.2,0,.392.013.587.019Z" transform="translate(0 -141.024)" fill="#fe4b55" fill-rule="evenodd"/>
    <path id="Path_12011" data-name="Path 12011" d="M1481.325,497.718l-32.207-.006c-.274,0-.549-.011-.824-.018a1.277,1.277,0,0,0,.757-1.361c-.029-.557.015-1.118.026-1.677.317-.283.708-.192,1.07-.193q11.545-.009,23.091,0,3.564,0,7.128,0a1.34,1.34,0,0,1,.958.19Z" transform="translate(-158.159 -104.496)" fill="#fe4b55" fill-rule="evenodd"/>
    <path id="Path_12012" data-name="Path 12012" d="M1453.367,456.141a28.4,28.4,0,0,1-.007-3.047.589.589,0,0,1,.517-.224c.215-.019.431-.012.647-.012q14.977,0,29.954,0a1.632,1.632,0,0,1,1.134.189v3.066a1.53,1.53,0,0,1-1.075.19q-11.393.007-22.786,0-3.739,0-7.478,0A1.328,1.328,0,0,1,1453.367,456.141Z" transform="translate(-162.446 -69.025)" fill="#fe4b55" fill-rule="evenodd"/>
    <path id="Path_12013" data-name="Path 12013" d="M1453.365,415.344a27.571,27.571,0,0,1,0-3.053,1.045,1.045,0,0,1,.782-.18q15.341-.006,30.683,0a1.076,1.076,0,0,1,.781.19v3.065a1.532,1.532,0,0,1-1.076.19q-11.431.007-22.862,0c-2.455,0-4.91,0-7.365,0C1453.984,415.554,1453.632,415.625,1453.365,415.344Z" transform="translate(-162.446 -34.287)" fill="#fe4b55" fill-rule="evenodd"/>
    <path id="Path_12014" data-name="Path 12014" d="M1453.4,475.047l31.481,0c.254,0,.509-.013.763-.019v3.065l-32.247,0C1453.349,477.077,1453.347,476.062,1453.4,475.047Z" transform="translate(-162.478 -87.931)" fill="#f4f4f4" fill-rule="evenodd"/>
    <path id="Path_12015" data-name="Path 12015" d="M1485.644,394.509l-28.421-.008-3.825,0a30.363,30.363,0,0,1,0-3.048c.315-.289.706-.2,1.069-.2q10.963-.009,21.927,0h8.016a1.933,1.933,0,0,1,.977.16,3.52,3.52,0,0,0,.256.977Z" transform="translate(-162.478 -16.496)" fill="#f4f4f4" fill-rule="evenodd"/>
    <path id="Path_12016" data-name="Path 12016" d="M1453.582,434.069h31.779c.156,0,.313.014.469.022v2.948c-.175.015-.349.043-.524.043q-15.864,0-31.728,0Q1453.58,435.575,1453.582,434.069Z" transform="translate(-162.663 -53.012)" fill="#f4f4f4" fill-rule="evenodd"/>
    <path id="Path_12017" data-name="Path 12017" d="M1264.528,619.836c.235-.012.47-.035.7-.035q29.224,0,58.448,0c.235,0,.469.023.7.035a4.668,4.668,0,0,1-4.72,3.018q-25.208-.01-50.416,0A4.668,4.668,0,0,1,1264.528,619.836Z" transform="translate(-1.472 -211.372)" fill="#fe4b55" fill-rule="evenodd"/>
    <path id="Path_12018" data-name="Path 12018" d="M1480.524,374.937c-.254.013-.509.037-.762.037q-15.613,0-31.227,0c-.012-.583-.052-1.167-.029-1.748a1.169,1.169,0,0,0-.85-1.291c1.943,0,3.886-.013,5.829-.014q11.16,0,22.319,0A4.663,4.663,0,0,1,1480.524,374.937Z" transform="translate(-157.614 -0.023)" fill="#fe4b55" fill-rule="evenodd"/>
    <path id="Path_12019" data-name="Path 12019" d="M1352.113,389.657c-.534-.366-.96-.456-1.446.059.208-.611.172-1.068-.455-1.364.6-.059,1.106-.124,1.142-.9.178.649.507.95,1.169.841C1352.126,388.687,1351.684,389.008,1352.113,389.657Z" transform="translate(-74.53 -13.262)" fill="#f0f0f2" fill-rule="evenodd"/>
    <path id="Path_12020" data-name="Path 12020" d="M1295.161,401.721c-.767-.392-.767-.392-1.559-.113.2-.527.19-.978-.437-1.263.556-.088,1.084-.156,1.071-.925.5.725.5.725,1.284.934C1294.921,400.645,1294.775,401.068,1295.161,401.721Z" transform="translate(-25.89 -23.469)" fill="#f0f0f2" fill-rule="evenodd"/>
    <path id="Path_12021" data-name="Path 12021" d="M1276.313,388.4a.83.83,0,0,0-.4,1.257c-.365.059-.5-.31-.759-.3s-.374.338-.706.3c.163-.494.241-.972-.465-1.236.574-.1,1.108-.158,1.16-.92A1.041,1.041,0,0,0,1276.313,388.4Z" transform="translate(-9.532 -13.312)" fill="#f0f0f2" fill-rule="evenodd"/>
    <path id="Path_12022" data-name="Path 12022" d="M1314.462,461.916c-.5.346-.724.714-.393,1.324-.494-.29-.955-.5-1.43.054.161-.59.185-1.06-.473-1.353.589-.054,1.078-.174,1.154-.905A.974.974,0,0,0,1314.462,461.916Z" transform="translate(-42.09 -76.006)" fill="#f0f0f2" fill-rule="evenodd"/>
    <path id="Path_12023" data-name="Path 12023" d="M1274.211,462.17a.971.971,0,0,0,1.145-.845.945.945,0,0,0,1.151.816c-.484.358-.733.742-.427,1.36-.485-.343-.926-.484-1.418.022C1274.864,462.937,1274.818,462.485,1274.211,462.17Z" transform="translate(-9.728 -76.252)" fill="#f0f0f2" fill-rule="evenodd"/>
    <path id="Path_12024" data-name="Path 12024" d="M1371.163,475.367c-.494-.368-.921-.476-1.412.008.175-.576.159-1.042-.479-1.327.544-.094,1.11-.093,1.124-.894a1.046,1.046,0,0,0,1.224.855A.919.919,0,0,0,1371.163,475.367Z" transform="translate(-90.781 -86.338)" fill="#f0f0f2" fill-rule="evenodd"/>
    <path id="Path_12025" data-name="Path 12025" d="M1408.492,399.269c.238.611.461,1.058,1.219.85-.454.408-.806.756-.424,1.384-.5-.289-.959-.494-1.434.053.163-.59.181-1.057-.467-1.344C1407.939,400.109,1408.531,400.12,1408.492,399.269Z" transform="translate(-123.279 -23.341)" fill="#f0f0f2" fill-rule="evenodd"/>
    <path id="Path_12026" data-name="Path 12026" d="M1369.353,400.549c.621-.009,1.032-.168,1.126-.862.2.57.5.941,1.2.826a1.235,1.235,0,0,1-1.883,1.389A.929.929,0,0,0,1369.353,400.549Z" transform="translate(-90.85 -23.697)" fill="#f0f0f2" fill-rule="evenodd"/>
    <path id="Path_12027" data-name="Path 12027" d="M1313.339,387.656c.125.692.537.851,1.135.842-.45.352-.757.714-.4,1.337-.5-.317-.955-.485-1.432.046.174-.594.174-1.055-.469-1.352C1312.766,388.483,1313.245,388.352,1313.339,387.656Z" transform="translate(-42.095 -13.439)" fill="#f0f0f2" fill-rule="evenodd"/>
    <path id="Path_12028" data-name="Path 12028" d="M1350.4,462.032c.755-.175.755-.175,1.188-.907.111.623.426.943,1.107.833-.481.367-.739.747-.442,1.372a.949.949,0,0,0-1.425.024C1351.058,462.763,1350.981,462.319,1350.4,462.032Z" transform="translate(-74.69 -76.081)" fill="#f0f0f2" fill-rule="evenodd"/>
    <path id="Path_12029" data-name="Path 12029" d="M1293.624,475.221a.925.925,0,0,0-.483-1.307c.524-.115,1.132-.053,1.1-.916.214.629.537.96,1.219.865a.976.976,0,0,0-.441,1.375C1294.545,474.883,1294.106,474.728,1293.624,475.221Z" transform="translate(-25.869 -86.205)" fill="#f0f0f2" fill-rule="evenodd"/>
    <path id="Path_12030" data-name="Path 12030" d="M1408.452,473.012a.993.993,0,0,0,1.18.871.948.948,0,0,0-.413,1.345c-.5-.267-.939-.6-1.445.088a.943.943,0,0,0-.456-1.4C1407.894,473.838,1408.457,473.846,1408.452,473.012Z" transform="translate(-123.22 -86.217)" fill="#f0f0f2" fill-rule="evenodd"/>
    <path id="Path_12031" data-name="Path 12031" d="M1389.21,387.364c.213.62.511.963,1.183.876a.909.909,0,0,0-.282,1.432c-.6-.293-1.045-.71-1.509-.019.075-.6.211-1.119-.55-1.342C1388.634,388.178,1389.236,388.21,1389.21,387.364Z" transform="translate(-106.794 -13.19)" fill="#f0f0f2" fill-rule="evenodd"/>
    <path id="Path_12032" data-name="Path 12032" d="M1332.042,424.276c.1.73.537.842,1.146.834a1.224,1.224,0,0,1-1.872,1.376c.125-.554.317-1.1-.519-1.353A1.047,1.047,0,0,0,1332.042,424.276Z" transform="translate(-57.976 -44.663)" fill="#f1f1f2" fill-rule="evenodd"/>
    <path id="Path_12033" data-name="Path 12033" d="M1372.122,424.548c-.562.345-.615.78-.307,1.461-.58-.412-1.025-.714-1.485-.042.057-.548.2-1.019-.351-1.279-.088-.041-.044-.222.072-.2.584.113.753-.294.949-.88C1371.185,424.255,1371.446,424.645,1372.122,424.548Z" transform="translate(-91.344 -44.093)" fill="#f1f1f3" fill-rule="evenodd"/>
    <path id="Path_12034" data-name="Path 12034" d="M1428.794,461.867c-.544.331-.71.719-.385,1.267-.375.074-.507-.306-.764-.3s-.378.338-.683.324c-.077-.263.193-.5.109-.712s-.317-.371-.569-.643c.589.033,1.082-.074,1.139-.835A.971.971,0,0,0,1428.794,461.867Z" transform="translate(-139.577 -75.951)" fill="#f0f1f2" fill-rule="evenodd"/>
    <path id="Path_12035" data-name="Path 12035" d="M1426.467,412.987c.782-.151.782-.151,1.179-.9.171.573.392,1.047,1.177.809a.993.993,0,0,0-.476,1.422.956.956,0,0,0-1.453.007A.888.888,0,0,0,1426.467,412.987Z" transform="translate(-139.547 -34.27)" fill="#f1f1f3" fill-rule="evenodd"/>
    <path id="Path_12036" data-name="Path 12036" d="M1314.468,486.347c-.673.36-.665.822-.473,1.418a.919.919,0,0,0-1.426,0c.22-.607.171-1.052-.46-1.366.59-.037,1.131-.073,1.116-.9C1313.5,486.058,1313.651,486.608,1314.468,486.347Z" transform="translate(-42.041 -96.864)" fill="#f1f1f3" fill-rule="evenodd"/>
    <path id="Path_12037" data-name="Path 12037" d="M1426.727,487.542c.086-.9.086-.9-.492-1.5.619.039,1.127-.039,1.072-.885.544.824.544.824,1.339.943-.565.327-.814.728-.5,1.37A.878.878,0,0,0,1426.727,487.542Z" transform="translate(-139.349 -96.574)" fill="#f1f2f3" fill-rule="evenodd"/>
    <path id="Path_12038" data-name="Path 12038" d="M1274.732,414.4a1.034,1.034,0,0,0-.447-1.4c.586-.017,1.053-.13,1.087-.869.234.565.492.959,1.161.829-.39.384-.743.729-.361,1.337C1275.671,414.116,1275.194,413.65,1274.732,414.4Z" transform="translate(-9.792 -34.306)" fill="#f1f1f3" fill-rule="evenodd"/>
    <path id="Path_12039" data-name="Path 12039" d="M1331.72,401.854c.346-.691.053-1.043-.427-1.4a1.213,1.213,0,0,1,2.31-.011c-.459.366-.817.712-.416,1.347C1332.679,401.52,1332.214,401.2,1331.72,401.854Z" transform="translate(-58.399 -23.625)" fill="#f0f0f2" fill-rule="evenodd"/>
    <path id="Path_12040" data-name="Path 12040" d="M1333.409,475.332a1.518,1.518,0,0,0-1.472-.005c-.077-.266.183-.492.114-.723s-.426-.271-.547-.627a.871.871,0,0,0,1.113-.8.929.929,0,0,0,1.148.833C1333.359,474.39,1332.915,474.71,1333.409,475.332Z" transform="translate(-58.579 -86.354)" fill="#f0f1f2" fill-rule="evenodd"/>
    <path id="Path_12041" data-name="Path 12041" d="M1408.425,423.952c.245.594.458,1.049,1.21.823-.435.424-.883.763-.376,1.443-.556-.4-1.01-.552-1.5.015.231-.631.163-1.069-.456-1.388C1407.9,424.817,1408.426,424.761,1408.425,423.952Z" transform="translate(-123.208 -44.386)" fill="#f1f1f3" fill-rule="evenodd"/>
    <path id="Path_12042" data-name="Path 12042" d="M1426.95,389.648a.969.969,0,0,0-.421-1.38c.609-.016,1.063-.155,1.137-.9a.94.94,0,0,0,1.159.873c-.455.369-.838.706-.385,1.379C1427.9,389.232,1427.441,389.1,1426.95,389.648Z" transform="translate(-139.6 -13.197)" fill="#f0f0f2" fill-rule="evenodd"/>
    <path id="Path_12043" data-name="Path 12043" d="M1390.532,461.956a.972.972,0,0,0-.442,1.375c-.478-.373-.919-.5-1.417.014a.923.923,0,0,0-.484-1.351c.585-.055,1.109-.1,1.15-.886A.988.988,0,0,0,1390.532,461.956Z" transform="translate(-106.911 -76.066)" fill="#f0f1f2" fill-rule="evenodd"/>
    <path id="Path_12044" data-name="Path 12044" d="M1314.007,414.269a.967.967,0,0,0-1.458.009.906.906,0,0,0-.46-1.351c.607-.042,1.105-.127,1.159-.893a.977.977,0,0,0,1.179.864C1313.89,413.245,1313.659,413.648,1314.007,414.269Z" transform="translate(-42.025 -34.225)" fill="#f1f1f3" fill-rule="evenodd"/>
    <path id="Path_12045" data-name="Path 12045" d="M1276.461,486.752a.992.992,0,0,0-.391,1.4.925.925,0,0,0-1.44,0c.209-.58.2-1.045-.439-1.358.634.009,1.016-.214,1.132-.841C1275.534,486.47,1275.753,486.9,1276.461,486.752Z" transform="translate(-9.711 -97.253)" fill="#f2f2f3" fill-rule="evenodd"/>
    <path id="Path_12046" data-name="Path 12046" d="M1350.632,488.092c.156-.564.213-1.042-.49-1.329.629-.021,1.062-.171,1.148-.854.235.525.443,1.019,1.252.662-.6.769-.6.769-.54,1.554A.868.868,0,0,0,1350.632,488.092Z" transform="translate(-74.47 -97.213)" fill="#f2f2f3" fill-rule="evenodd"/>
    <path id="Path_12047" data-name="Path 12047" d="M1388.342,486.669c.656.045,1.035-.177,1.132-.845.244.519.42,1.025,1.194.784-.5.411-.832.788-.26,1.451-.947-.376-.947-.376-1.663-.03C1388.993,487.454,1388.987,486.983,1388.342,486.669Z" transform="translate(-107.041 -97.141)" fill="#f2f2f3" fill-rule="evenodd"/>
    <path id="Path_12048" data-name="Path 12048" d="M1295.4,424.88a.963.963,0,0,0-.417,1.391c-.5-.412-.942-.522-1.438.005.221-.61.157-1.059-.47-1.367.58-.059,1.136-.069,1.135-.9C1294.413,424.64,1294.714,424.968,1295.4,424.88Z" transform="translate(-25.81 -44.439)" fill="#f1f2f3" fill-rule="evenodd"/>
    <path id="Path_12049" data-name="Path 12049" d="M1390.4,412.763c-.688.324-.6.793-.441,1.346-.469-.367-.909-.54-1.379.005.079-.554.251-1.089-.537-1.329.589-.108,1.193-.065,1.169-.944A1.045,1.045,0,0,0,1390.4,412.763Z" transform="translate(-106.782 -34.06)" fill="#f2f2f3" fill-rule="evenodd"/>
    <path id="Path_12050" data-name="Path 12050" d="M1350.765,414.475a.942.942,0,0,0-.438-1.354c.6.005,1.045-.13,1.116-.835.229.525.451.987,1.184.775-.426.406-.791.778-.421,1.437A.933.933,0,0,0,1350.765,414.475Z" transform="translate(-74.627 -34.439)" fill="#f2f2f3" fill-rule="evenodd"/>
    <path id="Path_12051" data-name="Path 12051" d="M1369.43,448.8c.672.093.969-.221,1.116-.986.223.705.473,1.123,1.186.961-.509.37-.817.758-.394,1.425a1.243,1.243,0,0,1-1.908-1.4Z" transform="translate(-90.916 -64.736)" fill="#f2f2f3" fill-rule="evenodd"/>
    <path id="Path_12052" data-name="Path 12052" d="M1351.423,436.991c.188.576.468.918,1.16.786-.5.363-.739.771-.363,1.389-.8-.358-.8-.358-1.569.015.237-.559.318-1.05-.381-1.342C1350.881,437.822,1351.3,437.651,1351.423,436.991Z" transform="translate(-74.579 -55.504)" fill="#f2f2f3" fill-rule="evenodd"/>
    <path id="Path_12053" data-name="Path 12053" d="M1275.959,439.147a.925.925,0,0,0-1.408.018.974.974,0,0,0-.466-1.368.951.951,0,0,0,1.168-.807.929.929,0,0,0,1.146.8A.96.96,0,0,0,1275.959,439.147Z" transform="translate(-9.622 -55.503)" fill="#f1f2f3" fill-rule="evenodd"/>
    <path id="Path_12054" data-name="Path 12054" d="M1331.275,449.541c.727.13.979-.27,1.153-.859.167.609.436.99,1.157.816-.419.4-.885.732-.392,1.426a.963.963,0,0,0-1.482,0C1331.889,450.345,1331.94,449.869,1331.275,449.541Z" transform="translate(-58.383 -65.472)" fill="#f2f2f3" fill-rule="evenodd"/>
    <path id="Path_12055" data-name="Path 12055" d="M1409.164,450.545c-.519-.534-.936-.418-1.429-.015.234-.588.152-1.04-.465-1.295.313-.215.631-.017.8-.182a3.1,3.1,0,0,0,.4-.813c.171.629.416,1.063,1.131.893C1409.094,449.52,1408.825,449.913,1409.164,450.545Z" transform="translate(-123.179 -65.095)" fill="#f1f1f3" fill-rule="evenodd"/>
    <path id="Path_12056" data-name="Path 12056" d="M1295.075,450.862c-.678-.362-.678-.362-1.5.012a.849.849,0,0,0-.384-1.329c.588-.039,1.076-.123,1.118-.894.228.568.461,1,1.2.845A.943.943,0,0,0,1295.075,450.862Z" transform="translate(-25.909 -65.445)" fill="#f2f2f3" fill-rule="evenodd"/>
    <path id="Path_12057" data-name="Path 12057" d="M1426.59,437.53c.721-.191.721-.191,1.193-.942.1.627.384.994,1.11.837a.914.914,0,0,0-.367,1.4c-.818-.371-.818-.371-1.58.011C1427.163,438.279,1427.27,437.78,1426.59,437.53Z" transform="translate(-139.652 -55.16)" fill="#f2f2f3" fill-rule="evenodd"/>
    <path id="Path_12058" data-name="Path 12058" d="M1314.012,438.9a.937.937,0,0,0-1.42-.009c.191-.565.185-1.025-.465-1.335.656.034,1.05-.2,1.146-.87.243.51.386,1.066,1.2.8C1313.947,437.878,1313.7,438.279,1314.012,438.9Z" transform="translate(-42.057 -55.243)" fill="#f1f1f3" fill-rule="evenodd"/>
    <path id="Path_12059" data-name="Path 12059" d="M1388.89,439.007a1,1,0,0,0-.462-1.369.889.889,0,0,0,1.132-.823c.188.588.49.922,1.138.836-.479.363-.763.737-.359,1.368C1389.826,438.68,1389.388,438.443,1388.89,439.007Z" transform="translate(-107.114 -55.354)" fill="#f2f2f3" fill-rule="evenodd"/>
  </g>
</svg>
