<svg xmlns="http://www.w3.org/2000/svg" width="63.711" height="63.642" viewBox="0 0 63.711 63.642">
  <g id="Group_3636" data-name="Group 3636" transform="translate(-703 72.009)">
    <path id="Path_12193" data-name="Path 12193" d="M703-11.916V-68.533a3.978,3.978,0,0,1,3.476-3.476H749.56a4.165,4.165,0,0,1,3.781,4.545q0,8.411,0,16.823a1.791,1.791,0,0,0,.049.668c.279-.051.393-.266.547-.418,1.6-1.59,3.187-3.193,4.788-4.78a4.6,4.6,0,0,1,7.57,1.416,4.634,4.634,0,0,1-.413,4.561,8.427,8.427,0,0,1-1.052,1.22q-5.4,5.4-10.807,10.789a2.193,2.193,0,0,0-.7,1.7q.027,11.329.013,22.658a4.446,4.446,0,0,1-2.012,3.842,3.806,3.806,0,0,1-2.295.61q-11.36,0-22.72,0c-6.394,0-12.788-.017-19.181.012a4.191,4.191,0,0,1-3.673-2.028A4.294,4.294,0,0,1,703-11.916Z" fill-rule="evenodd"/>
    <path id="Path_12194" data-name="Path 12194" d="M776.841,37.8c-.207-.94-.574-1.238-1.547-1.239-3.931,0-7.861-.011-11.792.012-.5,0-.6-.138-.6-.609q.019-23.739,0-47.479c0-.473.1-.617.6-.609,1.985.032,3.972.021,5.958.006.365,0,.519.045.551.481a3.781,3.781,0,0,0,3.65,3.481q6.889.055,13.778,0a3.789,3.789,0,0,0,3.649-3.485c.029-.367.1-.484.489-.48q3.072.031,6.144,0c.4,0,.466.122.465.487q-.016,10.861,0,21.722a.872.872,0,0,1-.336.747,7.141,7.141,0,0,0-2.013,2.915c-.937,2.223-1.939,4.418-2.93,6.617a1.349,1.349,0,0,0,.132,1.661,1.322,1.322,0,0,0,1.655.151c1.134-.527,2.285-1.017,3.484-1.548v1.308c0,4.7-.006,9.392.01,14.088,0,.427-.091.547-.534.545-3.951-.019-7.9-.012-11.854-.011-.974,0-1.342.3-1.546,1.239a4.535,4.535,0,0,1-2.322.129c-.269-.092-.314-.356-.423-.568a1.058,1.058,0,0,0-1.912-.015c-.111.211-.154.475-.42.577A4.466,4.466,0,0,1,776.841,37.8Z" transform="translate(-52.468 -52.448)" fill="#fefefe" fill-rule="evenodd"/>
    <path id="Path_12195" data-name="Path 12195" d="M741.887,2.773h2.447c.178.1.212.3.3.458a1.07,1.07,0,0,0,1.93,0c.082-.162.117-.357.295-.458H749.3a1.309,1.309,0,0,0,1.546,1.243q6.641,0,13.283,0c1.147,0,1.578-.428,1.578-1.568,0-5.773.007-11.545-.011-17.317a.788.788,0,0,1,.591-.907c.634-.222,1.234-.541,1.9-.844v.668q0,10.149,0,20.3c0,1.521-.628,2.155-2.134,2.155h-40.9C723.631,6.5,723,5.873,723,4.366q0-27.156,0-54.311c0-1.525.625-2.158,2.13-2.158,3.1,0,6.207.012,9.31-.013.5,0,.647.145.6.62-.065.609.257,1.429-.134,1.777-.339.3-1.14.1-1.737.1-2.048,0-4.1,0-6.145,0-1.109,0-1.538.43-1.538,1.544q0,25.262,0,50.525c0,1.14.431,1.567,1.578,1.567q6.641,0,13.283,0A1.31,1.31,0,0,0,741.887,2.773Z" transform="translate(-17.514 -17.422)" fill="#79b1fe" fill-rule="evenodd"/>
    <path id="Path_12196" data-name="Path 12196" d="M847.883-45.621q-3.163,0-6.326,0c-1.269,0-1.743-.482-1.744-1.768,0-1.406.014-2.812-.01-4.217-.006-.381.091-.481.477-.48q7.628.021,15.257,0c.343,0,.455.083.45.441-.02,1.509,0,3.018-.012,4.527a1.382,1.382,0,0,1-1.518,1.493C852.266-45.614,850.074-45.621,847.883-45.621Z" transform="translate(-119.815 -17.449)" fill="#bcd8fe" fill-rule="evenodd"/>
    <path id="Path_12197" data-name="Path 12197" d="M999.512-26.974v-.792q0-10.084,0-20.168c0-1.241-.4-1.646-1.622-1.646-2.462,0-4.923-.011-7.384.01-.428,0-.586-.1-.55-.542a9.49,9.49,0,0,0,0-1.488c-.031-.407.134-.471.495-.47,3.227.013,6.454,0,9.68.011a1.729,1.729,0,0,1,1.861,1.862q.01,10.177,0,20.354c0,.181.035.366-.124.522C1001.111-28.574,1000.359-27.819,999.512-26.974Z" transform="translate(-251.317 -17.463)" fill="#79b1fe" fill-rule="evenodd"/>
    <path id="Path_12198" data-name="Path 12198" d="M1056.632,110.786l3.941-3.937c2.266-2.265,4.543-4.518,6.784-6.807.414-.423.631-.373.995.02.673.728,1.386,1.42,2.1,2.106.231.222.234.349,0,.578q-5.316,5.294-10.611,10.609c-.216.217-.348.27-.591.022C1058.4,112.508,1057.523,111.663,1056.632,110.786Z" transform="translate(-309.719 -150.426)" fill="#fec05a" fill-rule="evenodd"/>
    <path id="Path_12199" data-name="Path 12199" d="M1165.824,75.638a2.731,2.731,0,0,1-1.2,2.212c-.166.154-.259-.036-.349-.125q-1.211-1.2-2.412-2.405c-.1-.1-.219-.165-.118-.355a2.6,2.6,0,0,1,2.32-1.167,2,2,0,0,1,1.7,1.5A2.693,2.693,0,0,1,1165.824,75.638Z" transform="translate(-401.748 -127.693)" fill="#fe6876" fill-rule="evenodd"/>
    <path id="Path_12200" data-name="Path 12200" d="M1032.361,210.51c.555-1.246,1.045-2.335,1.525-3.429.1-.228.192-.3.393-.1.6.595,1.21,1.181,1.88,1.834Z" transform="translate(-288.462 -244.246)" fill="#97a0b2" fill-rule="evenodd"/>
    <path id="Path_12201" data-name="Path 12201" d="M801.4,53.21c0,1.24,0,2.481,0,3.721,0,.985-.464,1.46-1.429,1.463q-3.783.009-7.567,0a1.269,1.269,0,0,1-1.431-1.459q-.006-3.752,0-7.5c0-1.011.462-1.461,1.49-1.462q3.721-.005,7.443,0c1.056,0,1.492.448,1.495,1.521C801.407,50.729,801.4,51.969,801.4,53.21Z" transform="translate(-77.05 -105.076)" fill-rule="evenodd"/>
    <path id="Path_12202" data-name="Path 12202" d="M796.157,168.379c-1.24,0-2.481,0-3.721,0-.986,0-1.459-.462-1.461-1.429q-.008-3.784,0-7.567c0-.968.474-1.429,1.459-1.431q3.752-.007,7.5,0c1.01,0,1.461.463,1.463,1.49q.005,3.721,0,7.443c0,1.053-.451,1.491-1.522,1.494C798.638,168.381,797.4,168.379,796.157,168.379Z" transform="translate(-77.046 -201.402)" fill-rule="evenodd"/>
    <path id="Path_12203" data-name="Path 12203" d="M801.4,273.183c0,1.24,0,2.481,0,3.721a1.27,1.27,0,0,1-1.439,1.453q-3.783.008-7.567,0a1.258,1.258,0,0,1-1.42-1.407q-.01-3.815,0-7.629a1.243,1.243,0,0,1,1.375-1.388q3.814-.012,7.629,0a1.258,1.258,0,0,1,1.421,1.406C801.405,270.619,801.4,271.9,801.4,273.183Z" transform="translate(-77.044 -297.724)" fill-rule="evenodd"/>
    <path id="Path_12204" data-name="Path 12204" d="M923.723,285.482a1.182,1.182,0,0,1-1.066-.673,1.16,1.16,0,0,1,.174-1.38q.8-.862,1.661-1.669c.259-.244.255-.394,0-.633-.53-.492-1.037-1.009-1.538-1.53a1.243,1.243,0,1,1,1.74-1.764,19.5,19.5,0,0,1,1.44,1.452c.342.4.552.312.857-.025.443-.49.922-.948,1.4-1.406a1.246,1.246,0,1,1,1.742,1.764c-.5.522-1.008,1.039-1.536,1.532-.242.226-.239.363,0,.588.528.494,1.035,1.01,1.536,1.532a1.246,1.246,0,1,1-1.745,1.761c-.492-.472-.986-.945-1.442-1.451-.281-.312-.466-.357-.768-.018-.452.509-.96.968-1.438,1.454A1.425,1.425,0,0,1,923.723,285.482Z" transform="translate(-192.25 -306.023)" fill-rule="evenodd"/>
    <path id="Path_12205" data-name="Path 12205" d="M915.4,65.509a1.391,1.391,0,0,1-1-.453c-.845-.852-1.7-1.692-2.543-2.547a1.25,1.25,0,1,1,1.745-1.764c.491.474.988.945,1.443,1.452.264.294.41.26.671-.007,1.405-1.432,2.829-2.846,4.251-4.261a1.262,1.262,0,0,1,1.616-.333,1.186,1.186,0,0,1,.3,1.9c-1.863,1.91-3.763,3.784-5.652,5.669A1.245,1.245,0,0,1,915.4,65.509Z" transform="translate(-182.499 -113.366)" fill-rule="evenodd"/>
    <path id="Path_12206" data-name="Path 12206" d="M922.235,168.677a1.476,1.476,0,0,1-.437.955c-1.829,1.828-3.651,3.663-5.491,5.48a1.225,1.225,0,0,1-1.868-.015q-1.312-1.277-2.591-2.587a1.25,1.25,0,1,1,1.775-1.733c.475.461.955.919,1.4,1.408.266.293.425.306.715.009,1.416-1.45,2.86-2.873,4.292-4.309a1.258,1.258,0,0,1,1.356-.366,1.2,1.2,0,0,1,.815.935C922.219,168.533,922.225,168.616,922.235,168.677Z" transform="translate(-182.501 -209.724)" fill-rule="evenodd"/>
    <path id="Path_12207" data-name="Path 12207" d="M897.348,381.193c-.187.84-.621,1.257-1.291,1.24-.648-.017-1.048-.421-1.229-1.24.179-.814.583-1.22,1.229-1.236C896.728,379.939,897.161,380.354,897.348,381.193Z" transform="translate(-168.008 -395.842)" fill="#010101" fill-rule="evenodd"/>
    <path id="Path_12208" data-name="Path 12208" d="M810.944,70.6c0-.764.011-1.528-.006-2.292-.006-.289.071-.393.377-.39q2.354.021,4.708,0c.288,0,.393.071.39.377q-.021,2.354,0,4.708c0,.288-.071.393-.377.39-1.569-.014-3.139-.018-4.708,0-.36,0-.394-.151-.389-.441C810.953,72.174,810.944,71.389,810.944,70.6Z" transform="translate(-94.535 -122.555)" fill="#cae458" fill-rule="evenodd"/>
    <path id="Path_12209" data-name="Path 12209" d="M816.4,180.671c0,.764-.016,1.529.007,2.292.01.33-.095.417-.418.414q-2.323-.024-4.646,0c-.329,0-.417-.095-.414-.418q.024-2.323,0-4.646c0-.329.095-.417.418-.413q2.323.024,4.646,0c.329,0,.422.094.414.418C816.382,179.1,816.4,179.886,816.4,180.671Z" transform="translate(-94.524 -218.876)" fill="#cae458" fill-rule="evenodd"/>
    <path id="Path_12210" data-name="Path 12210" d="M813.675,287.9c.785,0,1.569.012,2.353-.006.3-.007.387.087.385.384q-.019,2.353,0,4.706c0,.3-.087.387-.384.385q-2.353-.019-4.706,0c-.3,0-.387-.087-.385-.384q.019-2.353,0-4.706c0-.3.086-.392.384-.385C812.107,287.914,812.891,287.9,813.675,287.9Z" transform="translate(-94.535 -315.213)" fill="#fe6977" fill-rule="evenodd"/>
  </g>
</svg>
