<svg xmlns="http://www.w3.org/2000/svg" width="62.338" height="62.15" viewBox="0 0 62.338 62.15">
  <g id="Group_3635" data-name="Group 3635" transform="translate(-613.75 -8.624)">
    <path id="Path_12177" data-name="Path 12177" d="M613.75,56.011V23.381c.217-.819.49-1.025,1.452-1.027,3.387-.008,6.775,0,10.162-.007a.98.98,0,0,0,.668-.092,9.772,9.772,0,0,0-1.225-1.093c-.2-.176-.408-.333-.592-.523a1.491,1.491,0,0,1,.1-2.379c1.459-1.257,2.911-2.524,4.378-3.773,1.976-1.683,3.93-3.392,5.9-5.077A3.1,3.1,0,0,1,635.65,8.7a1.3,1.3,0,0,1,1.759,1.219c.054.952.011,1.906.017,2.859.006.886.044.93.924.93q7.15,0,14.3,0c.243,0,.487-.006.73.006a1.354,1.354,0,0,1,1.442,1.4c.03.364.013.73.013,1.095,0,1.805,0,3.611,0,5.416,0,.669.057.724.736.726,2.758.007,5.517-.007,8.276.008a1.349,1.349,0,0,1,1.563,1.327,1.494,1.494,0,0,1-1.383,1.442,7.122,7.122,0,0,1-.973.029H638.773c-.223,0-.447.011-.669,0-.455-.021-.669.169-.665.641.017,1.939-.2,1.65,1.579,1.652q13.6.015,27.208-.014a2.607,2.607,0,0,1,2.418,1.189,6.429,6.429,0,0,0,1.766,1.745,2.2,2.2,0,0,1,1.011,2.009q-.037,7.334,0,14.669a2.2,2.2,0,0,1-1.031,2,7.146,7.146,0,0,0-1.883,1.884,2.2,2.2,0,0,1-2,1.027c-3.124-.032-6.249-.014-9.373-.009a.981.981,0,0,0-.694.113,25.958,25.958,0,0,0,2.471,2.058,1.2,1.2,0,0,0,.711.12q6.543.007,13.087,0c.686,0,.747-.067.75-.786.008-1.664,0-3.327,0-4.991q0-11.778,0-23.556c0-.345-.012-.691.012-1.035.116-.909.449-1.355,1.1-1.474a1.186,1.186,0,0,1,1.513.988v32.63c-.217.818-.493,1.027-1.453,1.029-3.814.009-7.629,0-11.443,0a2.643,2.643,0,0,0-.7.043,1.213,1.213,0,0,0,.478.537c.373.313.757.614,1.119.939a1.561,1.561,0,0,1-.024,2.673q-1.083.934-2.171,1.862c-2.684,2.292-5.345,4.611-8.028,6.9a5.746,5.746,0,0,1-.722.558,1.339,1.339,0,0,1-1.9-.479,2.374,2.374,0,0,1-.289-1.229c0-.832-.016-1.664,0-2.5.013-.5-.2-.707-.688-.67-.181.013-.365,0-.547,0H635.84c-.223,0-.446,0-.67,0a1.368,1.368,0,0,1-1.5-1.521c-.021-1.988-.005-3.977-.007-5.965,0-.182-.01-.366,0-.548.027-.449-.193-.627-.622-.607-.2.009-.406,0-.609,0H615.751c-.243,0-.487.006-.73-.006A1.124,1.124,0,0,1,613.75,56.011Z" transform="translate(0 0)" fill-rule="evenodd"/>
    <path id="Path_12178" data-name="Path 12178" d="M746.547,150.419a9.608,9.608,0,1,1,9.581,9.621A9.641,9.641,0,0,1,746.547,150.419Z" transform="translate(-111.236 -110.736)" fill="#cae359" fill-rule="evenodd"/>
    <path id="Path_12179" data-name="Path 12179" d="M792.115,99.747a.514.514,0,0,0,.567.316c.766-.02,1.534-.008,2.3-.009.007.2.021.4.021.607q0,14.726.013,29.452c0,.541-.117.7-.683.7-4.483-.026-8.966-.019-13.448-.007a1.422,1.422,0,0,1-1.033-.382c-.858-.765-1.75-1.493-2.669-2.269a1.253,1.253,0,0,1,.692-.08c3.408,0,6.816-.014,10.223.005a1.619,1.619,0,0,0,1.519-.8,7.243,7.243,0,0,1,2.226-2.213,1.483,1.483,0,0,0,.732-1.366q-.017-7.667,0-15.335a1.482,1.482,0,0,0-.722-1.371,7.326,7.326,0,0,1-2.264-2.26,1.619,1.619,0,0,0-1.539-.759c-9.554.011-19.107,0-28.661.023-.619,0-.825-.146-.752-.762a6.521,6.521,0,0,0,0-1.4c-.049-.506.161-.594.618-.593q12.9.019,25.8.008c1.045,0,1.444-.328,1.575-1.276a17.915,17.915,0,0,0,2.8.069c.095,0,.193-.118.29-.181.209.088.172.3.227.462a.947.947,0,0,0,.986.73,1.01,1.01,0,0,0,.975-.834C791.958,100.055,791.918,99.851,792.115,99.747Z" transform="translate(-121.351 -76.329)" fill="#d4e97a" fill-rule="evenodd"/>
    <path id="Path_12180" data-name="Path 12180" d="M645.247,111.679c-3.335,0-6.48.012-9.624-.01a1.658,1.658,0,0,0-1.57.821,6.839,6.839,0,0,1-2.134,2.136,1.619,1.619,0,0,0-.812,1.51q.027,7.608,0,15.216a1.524,1.524,0,0,0,.746,1.42,7.136,7.136,0,0,1,2.223,2.217,1.618,1.618,0,0,0,1.525.787c9.109-.012,18.218,0,27.327-.024.621,0,.813.151.748.76a10.577,10.577,0,0,0-.005,1.581c.014.327-.11.443-.421.4a2.529,2.529,0,0,0-.3,0q-16.8,0-33.6.014c-.566,0-.684-.157-.683-.7q.026-14.09,0-28.179c0-.548.127-.7.686-.695q5.964.039,11.929,0a1.772,1.772,0,0,1,1.309.472C643.411,110.158,644.273,110.853,645.247,111.679Z" transform="translate(-12.498 -84.027)" fill="#d4e979" fill-rule="evenodd"/>
    <path id="Path_12181" data-name="Path 12181" d="M850.506,140.777h.669c4.339,0,8.679.005,13.018-.009a.986.986,0,0,1,.906.44,7.551,7.551,0,0,0,1.683,1.658.716.716,0,0,1,.324.656q-.014,6.874,0,13.747a.67.67,0,0,1-.3.607,8.662,8.662,0,0,0-1.8,1.8.725.725,0,0,1-.653.328c-4.562-.009-9.124-.007-13.838-.007a12.093,12.093,0,0,0-.01-19.218Z" transform="translate(-198.317 -110.69)" fill="#f8f4f2" fill-rule="evenodd"/>
    <path id="Path_12182" data-name="Path 12182" d="M675.273,140.785a12.12,12.12,0,0,0-.088,19.133c-.121.168-.3.081-.44.081-4.4.006-8.8,0-13.2.011a.825.825,0,0,1-.763-.354,8.293,8.293,0,0,0-1.757-1.757.717.717,0,0,1-.318-.656q.013-6.843,0-13.687a.717.717,0,0,1,.3-.663,9.057,9.057,0,0,0,1.8-1.8.623.623,0,0,1,.534-.319C665.95,140.788,670.55,140.785,675.273,140.785Z" transform="translate(-37.657 -110.698)" fill="#f8f4f2" fill-rule="evenodd"/>
    <path id="Path_12183" data-name="Path 12183" d="M769.8,282.787l3.109,2.628c1.5,1.27,3,2.546,4.508,3.806.272.227.358.358.033.634-2.454,2.09-4.892,4.2-7.335,6.3a.276.276,0,0,1-.314.1c0-.622,0-1.263,0-1.9-.005-1.172-.4-1.576-1.571-1.577q-7.483-.007-14.965,0c-.8,0-.8,0-.8-.808v-4.623c0-.789,0-.789.819-.789h14.783c1.386,0,1.73-.341,1.731-1.713C769.8,284.212,769.8,283.585,769.8,282.787Z" transform="translate(-116.192 -229.651)" fill="#fe7b7b" fill-rule="evenodd"/>
    <path id="Path_12184" data-name="Path 12184" d="M703.094,46.968c-2.659-2.25-5.192-4.4-7.735-6.538-.318-.267-.053-.36.1-.49q2.465-2.127,4.935-4.249l2.7-2.325c0,.728,0,1.3,0,1.874,0,1.387.371,1.753,1.777,1.753,4.971,0,9.943.007,14.914-.01.5,0,.7.077.684.649-.046,1.663-.035,3.328,0,4.991.009.483-.126.6-.6.6-5.012-.018-10.023-.012-15.035-.011-1.368,0-1.728.362-1.73,1.731C703.094,45.573,703.094,46.2,703.094,46.968Z" transform="translate(-68.234 -20.726)" fill="#fec035" fill-rule="evenodd"/>
    <path id="Path_12185" data-name="Path 12185" d="M952.589,95.026c.031.886-.384,1.431-1.131,1.483-.731.05-1.2-.464-1.256-1.365a1.221,1.221,0,0,1,2.388-.118Z" transform="translate(-281.826 -71.608)" fill="#010100" fill-rule="evenodd"/>
    <path id="Path_12186" data-name="Path 12186" d="M786.529,166.369c0-1.248-.01-2.482.007-3.715,0-.345-.261-.377-.459-.479a3.077,3.077,0,0,1-1.884-2.15,3.168,3.168,0,0,1,1.894-3.557.581.581,0,0,0,.453-.646.9.9,0,1,1,1.8-.035c-.006.4.15.52.491.6a3.157,3.157,0,0,1,1.135.565.8.8,0,0,1,.315,1.106.917.917,0,0,1-1.18.456c-.223-.087-.432-.209-.745-.363,0,.979,0,1.895,0,2.81,0,.258.194.279.356.338a3.218,3.218,0,0,1,2.451,3.173,3.626,3.626,0,0,1-2.5,3.583c-.219.087-.341.177-.308.425a1.669,1.669,0,0,1,0,.364.9.9,0,0,1-.946.9.838.838,0,0,1-.857-.905c.034-.516-.181-.646-.626-.7a3.774,3.774,0,0,1-1.65-.733.9.9,0,1,1,.94-1.546A2.945,2.945,0,0,0,786.529,166.369Z" transform="translate(-142.465 -122.453)" fill-rule="evenodd"/>
    <path id="Path_12187" data-name="Path 12187" d="M898.724,179.325a4,4,0,1,1-3.969-4A4.012,4.012,0,0,1,898.724,179.325Z" transform="translate(-232.006 -139.634)" fill-rule="evenodd"/>
    <path id="Path_12188" data-name="Path 12188" d="M675.453,175.327a4.007,4.007,0,1,1-4,3.972A4.026,4.026,0,0,1,675.453,175.327Z" transform="translate(-48.336 -139.638)" fill-rule="evenodd"/>
    <path id="Path_12189" data-name="Path 12189" d="M811.918,206.081a1.436,1.436,0,0,1,.955,1.355,1.956,1.956,0,0,1-.955,1.7Z" transform="translate(-165.994 -165.399)" fill="#c9e258" fill-rule="evenodd"/>
    <path id="Path_12190" data-name="Path 12190" d="M797.415,178.443c-.7-.418-.715-1.113,0-1.89Z" transform="translate(-153.402 -140.665)" fill="#c1d854" fill-rule="evenodd"/>
    <path id="Path_12191" data-name="Path 12191" d="M908.877,191.935a1.576,1.576,0,0,1-1.547,1.548,1.569,1.569,0,0,1-.017-3.138A1.572,1.572,0,0,1,908.877,191.935Z" transform="translate(-244.595 -152.217)" fill="#cae358" fill-rule="evenodd"/>
    <path id="Path_12192" data-name="Path 12192" d="M686.469,191.89a1.571,1.571,0,0,1,1.544-1.55,1.569,1.569,0,0,1,.022,3.138A1.572,1.572,0,0,1,686.469,191.89Z" transform="translate(-60.912 -152.214)" fill="#cae358" fill-rule="evenodd"/>
  </g>
</svg>
