<svg xmlns="http://www.w3.org/2000/svg" width="69.424" height="69.427" viewBox="0 0 69.424 69.427">
  <g id="Group_3637" data-name="Group 3637" transform="translate(-522.748 -12.025)">
    <path id="Path_12212" data-name="Path 12212" d="M529.979,14.348c-.1-.333-.186-.581-.244-.837a1.132,1.132,0,0,1,1.076-1.462c1.566-.035,3.133-.025,4.7,0,.647.008.951.444,1.144,1.022.429,1.286.443,1.281,1.789,1.281q11.244,0,22.488.015c.555,0,.847-.132.935-.686a5.164,5.164,0,0,1,.221-.685,1.247,1.247,0,0,1,1.343-.962c1.4.016,2.8,0,4.194.007,1.108.007,1.573.626,1.285,1.686-.05.184-.092.37-.155.625,1.9,0,3.77,0,5.64,0,1.219,0,1.575.362,1.575,1.6q0,15-.017,30.008c0,.679.2.806.826.8,3.085-.033,6.17-.016,9.255-.014,1.125,0,1.5.387,1.506,1.525,0,1.325,0,2.651,0,3.977,0,1.031-.414,1.487-1.448,1.419-.741-.049-1,.182-.865.893a.792.792,0,0,1,0,.144c0,1.2,0,1.2,1.163,1.3a1.127,1.127,0,0,1,1.141,1.157q.036,2.313,0,4.627a1.126,1.126,0,0,1-1.146,1.152,4.619,4.619,0,0,0-.5.01c-.214.04-.57-.169-.614.136-.039.276.339.252.551.322a9.248,9.248,0,0,1-1.545,17.935,11.832,11.832,0,0,1-1.728.113H524.407c-1.326,0-1.658-.333-1.658-1.664q0-31.888,0-63.775c0-1.335.328-1.664,1.655-1.665Z" fill-rule="evenodd"/>
    <path id="Path_12213" data-name="Path 12213" d="M558.683,97.3q0-12.362-.015-24.725c0-.59.121-.846.735-.735a3.023,3.023,0,0,0,.505,0,4.594,4.594,0,0,1,1.713.061c.487.218.38.972.6,1.468a1.175,1.175,0,0,0,1.106.782c.192.007.385,0,.578,0h28.845c1.371,0,1.608-.122,1.916-1.427.172-.726.474-1,1.212-.9a5.415,5.415,0,0,0,1.442,0c.652-.086.717.2.715.761-.02,5.928-.012,11.856-.012,17.784,0,2.844-.013,5.687.012,8.53,0,.533-.087.742-.686.72-1.317-.049-1.639.317-1.64,1.663,0,1.277,0,2.555,0,3.832,0,1.029.414,1.483,1.455,1.409.762-.055.981.21.86.9a1.7,1.7,0,0,0,0,.289c0,1.082,0,1.082-1.1,1.144a1.166,1.166,0,0,0-1.209,1.312c-.011,1.4-.007,2.8,0,4.193,0,1.031.414,1.486,1.449,1.416.746-.05,1,.188.865.9a.79.79,0,0,0,0,.144c0,1.2,0,1.2-1.167,1.3a1.149,1.149,0,0,0-1.141,1.232c-.019.915-.044,1.834.009,2.746.032.556-.145.661-.673.66q-17.5-.025-34.99-.013c-1.374,0-1.374,0-1.374-1.377Z" transform="translate(-28.993 -48.24)" fill="#e8edf1" fill-rule="evenodd"/>
    <path id="Path_12214" data-name="Path 12214" d="M534.688,67.2q0-15.221-.014-30.441c0-.611.107-.826.772-.8,1.444.06,2.892.03,4.338.01.362,0,.565.073.67.453.342,1.228.695,2.454,1.091,3.665.148.454.027.535-.4.525-.891-.022-1.783-.01-2.675-.006C537.391,40.614,537,41,537,42.1q0,9.87,0,19.74,0,16.305,0,32.61c0,1.378.319,1.7,1.7,1.7q19.559,0,39.118-.018c.714,0,.875.186.849.869-.056,1.462-.017,1.463-1.465,1.463q-20.86,0-41.721.017c-.677,0-.812-.192-.81-.83Q534.7,82.421,534.688,67.2Z" transform="translate(-9.626 -19.318)" fill="#99a2a7" fill-rule="evenodd"/>
    <path id="Path_12215" data-name="Path 12215" d="M812.6,295.028a6.941,6.941,0,1,1-6.967-6.986A6.946,6.946,0,0,1,812.6,295.028Z" transform="translate(-222.748 -222.786)" fill="#fed23a" fill-rule="evenodd"/>
    <path id="Path_12216" data-name="Path 12216" d="M590.169,33.269c-4.5,0-9.008-.009-13.513.012a.757.757,0,0,1-.883-.667c-.771-2.68-1.578-5.349-2.4-8.012-.154-.5-.059-.6.444-.6,1.626,0,1.626-.018,2.144,1.535.487,1.46.99,2.914,1.452,4.382a1.329,1.329,0,0,0,1.433,1.043q11.309-.015,22.617,0a1.368,1.368,0,0,0,1.472-1.091c.558-1.765,1.177-3.51,1.742-5.273a.71.71,0,0,1,.8-.6c1.645.013,1.645-.008,1.177,1.546-.713,2.371-1.443,4.737-2.126,7.117-.141.494-.358.619-.848.617C599.178,33.261,594.674,33.269,590.169,33.269Z" transform="translate(-40.804 -9.665)" fill="#7d8488" fill-rule="evenodd"/>
    <path id="Path_12217" data-name="Path 12217" d="M750.529,40.59c.425-1.418.857-2.838,1.273-4.263.081-.279.262-.289.49-.288,1.589,0,3.179.01,4.768,0,.34,0,.5.094.45.445a2.189,2.189,0,0,0,0,.289q0,14.3.013,28.608c0,.578-.1.781-.732.763-1.594-.046-1.6-.012-1.6-1.619q0-11.089,0-22.178c0-1.337-.33-1.67-1.649-1.673q-1.409,0-2.817-.008A.9.9,0,0,1,750.529,40.59Z" transform="translate(-183.853 -19.378)" fill="#99a2a7" fill-rule="evenodd"/>
    <path id="Path_12218" data-name="Path 12218" d="M601.488,35.995h.745c7.133,0,14.266.012,21.4-.017.744,0,.759.2.547.8-.542,1.527-.52,1.535-2.14,1.535-6.386,0-12.772-.008-19.157.015-.564,0-.834-.174-.941-.7A11.251,11.251,0,0,1,601.488,35.995Z" transform="translate(-63.555 -19.333)" fill="#99a2a7" fill-rule="evenodd"/>
    <path id="Path_12219" data-name="Path 12219" d="M781.608,206.308c-2.117,0-4.235-.012-6.352.01-.452,0-.611-.09-.61-.583.006-1.741-.015-1.741,1.751-1.741,3.826,0,7.652.01,11.478-.012.518,0,.7.094.684.658-.033,1.668,0,1.669-1.681,1.669Z" transform="translate(-203.319 -154.937)" fill="#feb532" fill-rule="evenodd"/>
    <path id="Path_12220" data-name="Path 12220" d="M769.533,230.3c-2.094,0-4.188-.014-6.282.011-.47.006-.6-.119-.6-.593.006-1.732-.012-1.732,1.685-1.732,3.851,0,7.7.012,11.554-.013.538,0,.682.124.671.668-.03,1.659,0,1.659-1.688,1.659Z" transform="translate(-193.64 -174.301)" fill="#fed23a" fill-rule="evenodd"/>
    <path id="Path_12221" data-name="Path 12221" d="M781.531,254.3c-2.093,0-4.187-.014-6.28.011-.471.006-.6-.122-.6-.595.005-1.73-.013-1.73,1.688-1.73,3.85,0,7.7.012,11.55-.013.539,0,.682.127.672.669-.03,1.658,0,1.658-1.691,1.658Z" transform="translate(-203.325 -193.671)" fill="#feb532" fill-rule="evenodd"/>
    <path id="Path_12222" data-name="Path 12222" d="M775.072,276.037a10.606,10.606,0,0,0-4.435,2.137.944.944,0,0,1-.675.178c-2.266,0-4.531-.01-6.8.006-.386,0-.533-.071-.54-.5-.031-1.819-.048-1.819,1.748-1.819Z" transform="translate(-193.609 -213.097)" fill="#fed23a" fill-rule="evenodd"/>
    <path id="Path_12223" data-name="Path 12223" d="M767.47,326.318c-1.512,0-2.978-.006-4.445.005-.29,0-.472-.051-.422-.389a.384.384,0,0,0,0-.072c-.085-1.858-.085-1.858,1.764-1.858.818,0,1.637.011,2.455-.006.3-.006.408.077.427.4C767.285,325.017,767.387,325.634,767.47,326.318Z" transform="translate(-193.577 -251.808)" fill="#fed23a" fill-rule="evenodd"/>
    <path id="Path_12224" data-name="Path 12224" d="M779.96,350.208c-1.743,0-3.35-.009-4.957.007-.348,0-.433-.107-.448-.448-.083-1.874-.091-1.812,1.758-1.9,1.177-.053,2.138.072,2.708,1.269A5.6,5.6,0,0,0,779.96,350.208Z" transform="translate(-203.223 -271.07)" fill="#feb532" fill-rule="evenodd"/>
    <path id="Path_12225" data-name="Path 12225" d="M778.024,300.034a11.48,11.48,0,0,0-.8,1.963c-.069.284-.235.367-.519.357-.6-.02-1.2-.022-1.8,0-.318.012-.391-.1-.409-.41-.117-1.91-.126-1.91,1.785-1.91Z" transform="translate(-203.16 -232.466)" fill="#feb532" fill-rule="evenodd"/>
    <path id="Path_12226" data-name="Path 12226" d="M830.248,276.2H829.6A.53.53,0,0,1,830.248,276.2Z" transform="translate(-247.676 -213.142)" fill="#1c1706" fill-rule="evenodd"/>
    <path id="Path_12227" data-name="Path 12227" d="M636.578,123.2a4.029,4.029,0,0,1,.64-2.6c.969-1.85,1.887-3.727,2.81-5.6.251-.509.562-.908,1.178-.9s.921.407,1.171.915c1.051,2.133,2.141,4.247,3.176,6.388a6.117,6.117,0,0,1,.179,3.47.977.977,0,0,1-1.216.769,1.118,1.118,0,0,1-1-1.071c-.05-.4.193-.955-.119-1.152s-.836-.067-1.266-.069c-.915,0-1.831.021-2.745-.011-.419-.015-.553.123-.506.524a3.306,3.306,0,0,1,0,.721,1.152,1.152,0,0,1-1.15,1.074,1.139,1.139,0,0,1-1.142-1.078C636.552,124.165,636.578,123.753,636.578,123.2Z" transform="translate(-91.842 -82.382)" fill-rule="evenodd"/>
    <path id="Path_12228" data-name="Path 12228" d="M700.84,121.992c-.638,1.021-1.2,1.938-1.783,2.847-.47.737-1.086.942-1.693.585-.63-.371-.736-1.05-.263-1.818.668-1.086,1.321-2.182,2.037-3.236a.882.882,0,0,0-.016-1.152c-.678-1.022-1.311-2.073-1.958-3.116-.528-.85-.471-1.488.162-1.894s1.263-.183,1.784.644c.56.888,1.115,1.78,1.731,2.763.623-1,1.188-1.907,1.761-2.813.492-.776,1.123-.99,1.742-.6s.7,1.047.219,1.832c-.669,1.085-1.325,2.18-2.036,3.237a.831.831,0,0,0,.012,1.089c.693,1.04,1.338,2.113,2,3.176.51.824.43,1.5-.213,1.886-.623.374-1.238.154-1.736-.634C702.024,123.9,701.468,123,700.84,121.992Z" transform="translate(-140.49 -82.317)" fill-rule="evenodd"/>
    <path id="Path_12229" data-name="Path 12229" d="M625.936,214.195a1.137,1.137,0,0,1-1.027-1.632,2.567,2.567,0,0,1,.428-.573q6.094-6.659,12.2-13.311a2.759,2.759,0,0,1,.524-.491,1.143,1.143,0,0,1,1.612,1.514,2.8,2.8,0,0,1-.4.508q-6.1,6.657-12.2,13.311A1.544,1.544,0,0,1,625.936,214.195Z" transform="translate(-82.364 -150.101)" fill-rule="evenodd"/>
    <path id="Path_12230" data-name="Path 12230" d="M588.544,120.576c0,1.179,0,2.358,0,3.538,0,.963-.431,1.5-1.174,1.491s-1.138-.541-1.139-1.525c0-2.382-.014-4.765.011-7.147,0-.473-.12-.623-.593-.589a14.617,14.617,0,0,1-1.732,0,1.14,1.14,0,0,1-1.154-1.142,1.116,1.116,0,0,1,1.137-1.153q3.5-.031,7,0a1.114,1.114,0,0,1,1.106,1.112,1.136,1.136,0,0,1-1.115,1.178c-.624.033-1.252.031-1.876,0-.374-.017-.491.092-.484.477C588.559,118.072,588.544,119.324,588.544,120.576Z" transform="translate(-48.441 -82.337)" fill-rule="evenodd"/>
    <path id="Path_12231" data-name="Path 12231" d="M622.255,205a3.468,3.468,0,1,1,3.437-3.462A3.484,3.484,0,0,1,622.255,205Z" transform="translate(-77.493 -150.164)" fill-rule="evenodd"/>
    <path id="Path_12232" data-name="Path 12232" d="M670.265,246.053a3.467,3.467,0,1,1-3.513,3.458A3.482,3.482,0,0,1,670.265,246.053Z" transform="translate(-116.232 -188.895)" fill-rule="evenodd"/>
    <path id="Path_12233" data-name="Path 12233" d="M824.357,305.821c-1.98-1.094-2.212-2.6-.7-4.153a.732.732,0,0,0,.19-.51,1.152,1.152,0,0,1,2.235-.32c.067.16.047.346.311.416a1.08,1.08,0,0,1,.88,1.352,1.164,1.164,0,0,1-1.349.928,3.793,3.793,0,0,0-.394.033,2.556,2.556,0,0,1,1.488,1.168,2.185,2.185,0,0,1,.146,1.877,1.848,1.848,0,0,1-.3.569,2.682,2.682,0,0,0-.841,1.421.928.928,0,0,1-.98.7,1.112,1.112,0,0,1-1.095-.676c-.1-.19-.06-.436-.391-.523a1.062,1.062,0,0,1-.844-1.31,1.15,1.15,0,0,1,1.326-.952C824.11,305.846,824.181,305.834,824.357,305.821Z" transform="translate(-242.084 -232.493)" fill-rule="evenodd"/>
    <path id="Path_12234" data-name="Path 12234" d="M655.695,136.686h-3.179l1.581-3.181Z" transform="translate(-104.742 -98.052)" fill="#e7ecf0" fill-rule="evenodd"/>
    <path id="Path_12235" data-name="Path 12235" d="M633.054,211.219a1.154,1.154,0,1,1-1.124-1.167A1.162,1.162,0,0,1,633.054,211.219Z" transform="translate(-87.169 -159.837)" fill="#e6ebef" fill-rule="evenodd"/>
    <path id="Path_12236" data-name="Path 12236" d="M681.043,259.222a1.155,1.155,0,1,1-1.112-1.178A1.166,1.166,0,0,1,681.043,259.222Z" transform="translate(-125.904 -198.572)" fill="#e6ebef" fill-rule="evenodd"/>
  </g>
</svg>
