<svg xmlns="http://www.w3.org/2000/svg" width="492.682" height="489.999" viewBox="0 0 492.682 489.999">
  <g id="Group_4304" data-name="Group 4304" transform="translate(-36.678 0.007)">
    <g id="Background_Complete" data-name="Background Complete" transform="translate(44.966 27.994)">
      <g id="Group_3877" data-name="Group 3877" transform="translate(116.102)">
        <g id="Group_3876" data-name="Group 3876">
          <g id="Group_3875" data-name="Group 3875">
            <path id="Path_13243" data-name="Path 13243" d="M169.534,35.033a19.824,19.824,0,0,1,4.842-2.1l1-4.793,8.1-.141,1.165,4.753a19.834,19.834,0,0,1,4.913,1.933L193.641,32l5.827,5.627-2.537,4.183a19.821,19.821,0,0,1,2.1,4.842l4.792,1,.143,8.1-4.755,1.165a19.834,19.834,0,0,1-1.933,4.913l2.682,4.093-5.624,5.826L190.156,69.2a19.821,19.821,0,0,1-4.842,2.1l-1,4.793-8.1.142-1.165-4.755a19.875,19.875,0,0,1-4.913-1.933l-4.092,2.683-5.827-5.626,2.537-4.184a19.8,19.8,0,0,1-2.1-4.842l-4.793-1-.142-8.1,4.755-1.166a19.883,19.883,0,0,1,1.933-4.912l-2.682-4.092L165.35,32.5l4.184,2.537Zm4.317,10.786a8.688,8.688,0,1,0,12.284-.215A8.686,8.686,0,0,0,173.851,45.819Z" transform="translate(-155.72 -27.994)" fill="#e0e0e0"/>
          </g>
        </g>
      </g>
      <g id="Group_3880" data-name="Group 3880" transform="translate(123.869 271.62)">
        <g id="Group_3879" data-name="Group 3879" transform="translate(0)">
          <g id="Group_3878" data-name="Group 3878">
            <path id="Path_13244" data-name="Path 13244" d="M171.133,292.448a11.417,11.417,0,0,1,2.791-1.214l.576-2.764,4.67-.081.672,2.741a11.515,11.515,0,0,1,2.834,1.114l2.36-1.546,3.36,3.244-1.462,2.413a11.467,11.467,0,0,1,1.213,2.793l2.763.574.082,4.67-2.742.672a11.421,11.421,0,0,1-1.114,2.833l1.547,2.361-3.244,3.361-2.413-1.464a11.479,11.479,0,0,1-2.792,1.214l-.576,2.763-4.67.081-.672-2.741a11.454,11.454,0,0,1-2.833-1.114l-2.361,1.546-3.359-3.244,1.462-2.413a11.363,11.363,0,0,1-1.213-2.792l-2.764-.575-.082-4.67,2.742-.672a11.4,11.4,0,0,1,1.115-2.833l-1.547-2.361,3.243-3.361,2.414,1.465Zm2.489,6.22a5.01,5.01,0,1,0,7.085-.124A5.011,5.011,0,0,0,173.622,298.668Z" transform="translate(-163.166 -288.388)" fill="#e0e0e0"/>
          </g>
        </g>
      </g>
      <g id="Group_3883" data-name="Group 3883" transform="translate(24.674 30.018)">
        <g id="Group_3882" data-name="Group 3882">
          <g id="Group_3881" data-name="Group 3881">
            <path id="Path_13245" data-name="Path 13245" d="M73.509,59.542a7.8,7.8,0,0,1,1.906-.828l.392-1.887,3.188-.055.459,1.871a7.812,7.812,0,0,1,1.934.76L83,58.347l2.294,2.215-1,1.646a7.824,7.824,0,0,1,.828,1.907l1.886.393.056,3.187-1.871.459a7.815,7.815,0,0,1-.761,1.934L85.488,71.7l-2.215,2.293-1.647-1a7.816,7.816,0,0,1-1.906.828l-.393,1.887-3.187.055-.459-1.871a7.853,7.853,0,0,1-1.934-.76l-1.612,1.056-2.293-2.215,1-1.647a7.76,7.76,0,0,1-.828-1.906l-1.887-.392-.055-3.188,1.871-.459a7.78,7.78,0,0,1,.76-1.934l-1.056-1.612,2.215-2.293,1.647,1Zm1.7,4.247a3.42,3.42,0,1,0,4.835-.086A3.419,3.419,0,0,0,75.208,63.788Z" transform="translate(-68.071 -56.771)" fill="#e0e0e0"/>
          </g>
        </g>
      </g>
      <g id="Group_3886" data-name="Group 3886" transform="translate(175.071 20.639)">
        <g id="Group_3885" data-name="Group 3885">
          <g id="Group_3884" data-name="Group 3884">
            <path id="Path_13246" data-name="Path 13246" d="M223,53.256a15.442,15.442,0,0,1,3.767-1.637l.777-3.729,6.3-.111.906,3.7a15.421,15.421,0,0,1,3.822,1.5l3.185-2.087,4.533,4.377-1.974,3.255a15.461,15.461,0,0,1,1.638,3.769l3.728.775.111,6.3-3.7.908a15.421,15.421,0,0,1-1.5,3.822l2.087,3.185L242.3,81.819l-3.256-1.974a15.414,15.414,0,0,1-3.768,1.637l-.776,3.729-6.3.111-.906-3.7a15.485,15.485,0,0,1-3.823-1.5l-3.184,2.087-4.533-4.377,1.974-3.256a15.432,15.432,0,0,1-1.637-3.768l-3.729-.776-.111-6.3,3.7-.906a15.461,15.461,0,0,1,1.5-3.822l-2.087-3.185,4.377-4.533L223,53.256Zm3.359,8.393a6.76,6.76,0,1,0,9.558-.168A6.759,6.759,0,0,0,226.359,61.649Z" transform="translate(-212.252 -47.78)" fill="#ebebeb"/>
          </g>
        </g>
      </g>
      <g id="Group_3889" data-name="Group 3889" transform="translate(338.553 174.575)">
        <g id="Group_3888" data-name="Group 3888">
          <g id="Group_3887" data-name="Group 3887">
            <path id="Path_13247" data-name="Path 13247" d="M382.777,202.386a19.8,19.8,0,0,1,4.837-2.1l1-4.788,8.089-.142,1.163,4.749a19.8,19.8,0,0,1,4.909,1.931l4.088-2.68,5.821,5.62-2.534,4.179a19.787,19.787,0,0,1,2.1,4.838l4.787,1,.143,8.089-4.75,1.164a19.808,19.808,0,0,1-1.93,4.908l2.679,4.089-5.619,5.821-4.179-2.535a19.827,19.827,0,0,1-4.838,2.1l-1,4.788-8.089.143-1.164-4.75a19.849,19.849,0,0,1-4.908-1.931l-4.088,2.68-5.821-5.62,2.533-4.179a19.863,19.863,0,0,1-2.1-4.838l-4.788-1-.142-8.089,4.749-1.164a19.805,19.805,0,0,1,1.931-4.908l-2.68-4.088,5.619-5.821,4.181,2.534Zm4.311,10.776a8.679,8.679,0,1,0,12.272-.216A8.681,8.681,0,0,0,387.089,213.162Z" transform="translate(-368.977 -195.354)" fill="#e0e0e0"/>
          </g>
        </g>
      </g>
      <g id="Group_3891" data-name="Group 3891" transform="translate(365.697 2.318)">
        <g id="Group_3890" data-name="Group 3890">
          <path id="Path_13248" data-name="Path 13248" d="M438.817,52.126a21.909,21.909,0,1,0-40.794,11.068h-.013l.063.082c.84,1.416,1.892,2.427,2.956,3.916l12.721,16.85a3.956,3.956,0,0,0,6.315,0L432.574,67.47a47.456,47.456,0,0,0,3.183-4.216l.045-.059h-.008A21.775,21.775,0,0,0,438.817,52.126Zm-21.91,9.539a9.642,9.642,0,1,1,9.643-9.643A9.642,9.642,0,0,1,416.907,61.665Z" transform="translate(-394.999 -30.216)" fill="#e0e0e0"/>
        </g>
      </g>
      <g id="Group_3895" data-name="Group 3895" transform="translate(0 313.98)">
        <g id="Group_3894" data-name="Group 3894">
          <g id="Group_3893" data-name="Group 3893">
            <g id="Group_3892" data-name="Group 3892">
              <path id="Path_13249" data-name="Path 13249" d="M68.255,354.506a13.826,13.826,0,0,0,5.64-14.129c-1.429-7.5-8.29-12.5-15.325-11.163s-11.577,8.5-10.149,16A13.8,13.8,0,0,0,59,356.308c-19.011,6.765-13.978,27.876-13.978,27.876l46.353-8.8S88.239,353.657,68.255,354.506Z" transform="translate(-44.417 -328.997)" fill="#ebebeb"/>
            </g>
          </g>
        </g>
      </g>
      <g id="Group_3899" data-name="Group 3899" transform="translate(43.472 380.559)">
        <g id="Group_3898" data-name="Group 3898" transform="translate(0 0)">
          <g id="Group_3896" data-name="Group 3896" transform="translate(0 13.403)">
            <path id="Path_13250" data-name="Path 13250" d="M122.6,441.194l-9.541-2.351s-1.974,8.012-10.335,6.1a7.952,7.952,0,0,1-6.263-6.771,8.806,8.806,0,0,1,2.584-7.559c2.276-2.269,6.419-3.822,12.572-1.1L116.92,408l-9.434-2.325-3.106,12.6s-14.075.162-17.667,14.743c-3.438,13.953,8.276,20.277,13.631,21.6C104.44,455.624,118.637,458.073,122.6,441.194Z" transform="translate(-86.092 -405.674)" fill="#ebebeb"/>
          </g>
          <g id="Group_3897" data-name="Group 3897" transform="translate(22.372)">
            <rect id="Rectangle_743" data-name="Rectangle 743" width="9.862" height="9.21" transform="matrix(-0.971, -0.239, 0.239, -0.971, 9.575, 11.302)" fill="#ebebeb"/>
          </g>
        </g>
      </g>
    </g>
    <g id="Text" transform="translate(34.904 61.31)">
      <g id="Group_3983" data-name="Group 3983">
        <g id="Group_3902" data-name="Group 3902" transform="translate(4.844 113.552)">
          <path id="Path_13252" data-name="Path 13252" d="M58.819,220.976H80.593l-1.926,9.776H39.415l1.555-7.776L64.6,204.461c5.851-4.666,7.628-7.406,7.628-10.813s-2.592-5.7-7.628-5.7a14.361,14.361,0,0,0-11.035,5.406L45.488,187.5c4.147-5.7,11.924-9.48,20.885-9.48,10.961,0,18.145,5.851,18.145,13.923,0,6.147-2.814,11.331-11.924,18.367Z" transform="translate(-39.415 -168.394)" fill="#181c3a"/>
          <path id="Path_13253" data-name="Path 13253" d="M130.649,219.829h-8.516l-2.149,10.887h-11.7l2.222-10.887H82.584l1.555-8.073,30.513-32.882h13.109L99.322,210.053h13.626l1.927-9.7h11.182l-1.925,9.7h8.516Z" transform="translate(-37.554 -168.357)" fill="#181c3a"/>
          <path id="Path_13254" data-name="Path 13254" d="M163.034,168.792h10.813L135.78,238.556H125.041Z" transform="translate(-35.723 -168.792)" fill="#181c3a"/>
          <path id="Path_13255" data-name="Path 13255" d="M210.687,178.874l-1.554,7.775-27.7,44.066H168.1l26.588-42.067H177.879l-1.7,8.443H165.511l3.629-18.218Z" transform="translate(-33.979 -168.357)" fill="#181c3a"/>
        </g>
        <g id="Group_3905" data-name="Group 3905" transform="translate(14.407 22.339)">
          <g id="Group_3904" data-name="Group 3904">
            <path id="Path_13263" data-name="Path 13263" d="M63.78,167.731h-15.2c0-21.158,8.561-42.791,23.488-59.351,15.712-17.431,36.1-27.031,57.4-27.031,43.471,0,73.83,31.731,73.83,77.165H188.1c0-37.065-23.562-61.968-58.632-61.968C95.09,96.546,63.78,130.475,63.78,167.731Z" transform="translate(-48.583 -81.349)" fill="#7469f8"/>
          </g>
        </g>
        <g id="Group_3924" data-name="Group 3924" transform="translate(33.539 41.013)">
          <g id="Group_3908" data-name="Group 3908" transform="translate(0 63.475)">
            <g id="Group_3907" data-name="Group 3907">
              <g id="Group_3906" data-name="Group 3906">
                <path id="Path_13264" data-name="Path 13264" d="M71.324,160.108c2.428.041,4.4.245,4.394.457s-1.971.387-4.4.39-4.4-.2-4.394-.457S68.9,160.069,71.324,160.108Z" transform="translate(-66.924 -160.103)" fill="#263238"/>
              </g>
            </g>
          </g>
          <g id="Group_3911" data-name="Group 3911" transform="translate(10.693 28.408)">
            <g id="Group_3910" data-name="Group 3910">
              <g id="Group_3909" data-name="Group 3909">
                <path id="Path_13265" data-name="Path 13265" d="M81.371,128.246c2.032,1.33,3.493,2.7,3.264,3.064s-2.095-.371-4.166-1.641-3.531-2.64-3.263-3.064S79.339,126.917,81.371,128.246Z" transform="translate(-77.175 -126.485)" fill="#263238"/>
              </g>
            </g>
          </g>
          <g id="Group_3914" data-name="Group 3914" transform="translate(38.392 3.557)">
            <g id="Group_3913" data-name="Group 3913">
              <g id="Group_3912" data-name="Group 3912">
                <path id="Path_13266" data-name="Path 13266" d="M106.52,106.312c.984,2.221,1.471,4.165,1.09,4.342s-1.554-1.449-2.618-3.633-1.551-4.127-1.089-4.341S105.538,104.092,106.52,106.312Z" transform="translate(-103.729 -102.661)" fill="#263238"/>
              </g>
            </g>
          </g>
          <g id="Group_3917" data-name="Group 3917" transform="translate(73.715)">
            <g id="Group_3916" data-name="Group 3916">
              <g id="Group_3915" data-name="Group 3915">
                <path id="Path_13267" data-name="Path 13267" d="M139.684,103.728c-.606,2.352-1.428,4.181-1.836,4.084s-.32-2.1.2-4.473,1.338-4.2,1.835-4.083S140.288,101.378,139.684,103.728Z" transform="translate(-137.592 -99.251)" fill="#263238"/>
              </g>
            </g>
          </g>
          <g id="Group_3920" data-name="Group 3920" transform="translate(99.983 21.045)">
            <g id="Group_3919" data-name="Group 3919">
              <g id="Group_3918" data-name="Group 3918">
                <path id="Path_13268" data-name="Path 13268" d="M166.892,122.732c-2.023,1.345-3.855,2.158-4.092,1.816s1.167-1.771,3.136-3.2,3.8-2.236,4.091-1.815S168.915,121.389,166.892,122.732Z" transform="translate(-162.774 -119.426)" fill="#263238"/>
              </g>
            </g>
          </g>
          <g id="Group_3923" data-name="Group 3923" transform="translate(109.018 56.277)">
            <g id="Group_3922" data-name="Group 3922">
              <g id="Group_3921" data-name="Group 3921">
                <path id="Path_13269" data-name="Path 13269" d="M175.836,154.05c-2.429,0-4.4-.179-4.4-.4s1.966-.417,4.395-.449,4.4.145,4.4.4S178.263,154.053,175.836,154.05Z" transform="translate(-171.436 -153.202)" fill="#263238"/>
              </g>
            </g>
          </g>
        </g>
        <g id="Group_3926" data-name="Group 3926" transform="translate(62.233 64.385)">
          <g id="Group_3925" data-name="Group 3925">
            <path id="Path_13270" data-name="Path 13270" d="M123.348,159.916a3.368,3.368,0,0,1-2.071-.709l-25.54-19.836a3.378,3.378,0,0,1,4.143-5.336l23.271,18.075,32.186-29.549a3.377,3.377,0,1,1,4.6,4.946l-34.289,31.505A3.376,3.376,0,0,1,123.348,159.916Z" transform="translate(-94.432 -121.657)" fill="#7469f8"/>
          </g>
        </g>
        <g id="Group_3928" data-name="Group 3928" transform="translate(78.358)">
          <g id="Group_3927" data-name="Group 3927">
            <path id="Rectangle_744" data-name="Rectangle 744" d="M.793,0H30.145a.792.792,0,0,1,.792.792V11.463a.792.792,0,0,1-.792.792H.792A.792.792,0,0,1,0,11.463V.793A.793.793,0,0,1,.793,0Z" fill="#7469f8"/>
          </g>
        </g>
        <g id="Group_3930" data-name="Group 3930" transform="translate(85.831 6.128)">
          <g id="Group_3929" data-name="Group 3929">
            <rect id="Rectangle_745" data-name="Rectangle 745" width="15.992" height="14.497" fill="#7469f8"/>
          </g>
        </g>
        <g id="Group_3932" data-name="Group 3932" transform="translate(15.508 37.009)">
          <g id="Group_3931" data-name="Group 3931">
            <path id="Path_13271" data-name="Path 13271" d="M72.257,104.237,60.244,119.113a1.348,1.348,0,0,1-1.9.2l-8.209-6.63a1.348,1.348,0,0,1-.2-1.9L61.95,95.914a1.348,1.348,0,0,1,1.9-.2l8.209,6.63A1.347,1.347,0,0,1,72.257,104.237Z" transform="translate(-49.639 -95.413)" fill="#7469f8"/>
          </g>
        </g>
        <g id="Group_3935" data-name="Group 3935" transform="translate(79.181 11.945)">
          <g id="Group_3934" data-name="Group 3934">
            <g id="Group_3933" data-name="Group 3933">
              <path id="Path_13272" data-name="Path 13272" d="M139.972,71.695c0,.171-6.558.31-14.646.31s-14.646-.139-14.646-.31,6.556-.311,14.646-.311S139.972,71.524,139.972,71.695Z" transform="translate(-110.679 -71.384)" fill="#263238"/>
            </g>
          </g>
        </g>
        <g id="Group_3938" data-name="Group 3938" transform="translate(17.607 50.64)">
          <g id="Group_3937" data-name="Group 3937">
            <g id="Group_3936" data-name="Group 3936">
              <path id="Path_13273" data-name="Path 13273" d="M61.591,115.987c-.164.187-2.375-1.5-5.108-3.556s-4.961-3.722-4.826-3.931,2.6,1.145,5.355,3.229S61.749,115.81,61.591,115.987Z" transform="translate(-51.65 -108.48)" fill="#263238"/>
            </g>
          </g>
        </g>
        <g id="Group_3941" data-name="Group 3941" transform="translate(20.147 46.897)">
          <g id="Group_3940" data-name="Group 3940">
            <g id="Group_3939" data-name="Group 3939">
              <path id="Path_13274" data-name="Path 13274" d="M64.027,112.4c-.164.187-2.375-1.5-5.108-3.556s-4.961-3.722-4.828-3.93,2.6,1.144,5.356,3.228S64.185,112.221,64.027,112.4Z" transform="translate(-54.086 -104.892)" fill="#263238"/>
            </g>
          </g>
        </g>
        <g id="Group_3944" data-name="Group 3944" transform="translate(23.275 43.76)">
          <g id="Group_3943" data-name="Group 3943">
            <g id="Group_3942" data-name="Group 3942">
              <path id="Path_13275" data-name="Path 13275" d="M67.025,109.391c-.163.186-2.375-1.5-5.108-3.557s-4.961-3.722-4.826-3.93,2.6,1.144,5.355,3.228S67.183,109.213,67.025,109.391Z" transform="translate(-57.084 -101.884)" fill="#263238"/>
            </g>
          </g>
        </g>
        <g id="Group_3947" data-name="Group 3947" transform="translate(26.298 40.016)">
          <g id="Group_3946" data-name="Group 3946">
            <g id="Group_3945" data-name="Group 3945">
              <path id="Path_13276" data-name="Path 13276" d="M69.923,105.8c-.164.186-2.375-1.5-5.108-3.557s-4.961-3.722-4.826-3.93,2.6,1.144,5.355,3.228S70.081,105.625,69.923,105.8Z" transform="translate(-59.982 -98.295)" fill="#263238"/>
            </g>
          </g>
        </g>
        <g id="Group_3949" data-name="Group 3949" transform="translate(143.74 27.143)">
          <g id="Group_3948" data-name="Group 3948" transform="translate(0)">
            <rect id="Rectangle_746" data-name="Rectangle 746" width="21.816" height="13.247" rx="1.292" transform="translate(9.76 0) rotate(47.454)" fill="#7469f8"/>
          </g>
        </g>
        <g id="Group_3952" data-name="Group 3952" transform="translate(146.963 30.168)">
          <g id="Group_3951" data-name="Group 3951">
            <g id="Group_3950" data-name="Group 3950">
              <path id="Path_13277" data-name="Path 13277" d="M175.669,97.578c-.161-.19,1.837-2.127,4.275-4.524s4.417-4.354,4.6-4.19-1.518,2.4-3.989,4.817S175.821,97.76,175.669,97.578Z" transform="translate(-175.66 -88.854)" fill="#263238"/>
            </g>
          </g>
        </g>
        <g id="Group_3955" data-name="Group 3955" transform="translate(150.288 33.236)">
          <g id="Group_3954" data-name="Group 3954">
            <g id="Group_3953" data-name="Group 3953">
              <path id="Path_13278" data-name="Path 13278" d="M178.856,100.52c-.16-.19,1.838-2.127,4.276-4.525s4.417-4.353,4.6-4.189-1.517,2.4-3.988,4.817S179.009,100.7,178.856,100.52Z" transform="translate(-178.847 -91.796)" fill="#263238"/>
            </g>
          </g>
        </g>
        <g id="Group_3958" data-name="Group 3958" transform="translate(152.927 36.794)">
          <g id="Group_3957" data-name="Group 3957">
            <g id="Group_3956" data-name="Group 3956">
              <path id="Path_13279" data-name="Path 13279" d="M181.386,103.931c-.161-.19,1.837-2.127,4.275-4.524s4.418-4.354,4.6-4.19-1.517,2.4-3.987,4.817S181.539,104.113,181.386,103.931Z" transform="translate(-181.377 -95.207)" fill="#263238"/>
            </g>
          </g>
        </g>
        <g id="Group_3961" data-name="Group 3961" transform="translate(156.18 40.339)">
          <g id="Group_3960" data-name="Group 3960">
            <g id="Group_3959" data-name="Group 3959">
              <path id="Path_13280" data-name="Path 13280" d="M184.505,107.329c-.16-.189,1.837-2.126,4.275-4.524s4.418-4.354,4.6-4.19-1.518,2.4-3.988,4.818S184.658,107.511,184.505,107.329Z" transform="translate(-184.496 -98.605)" fill="#263238"/>
            </g>
          </g>
        </g>
        <g id="Group_3964" data-name="Group 3964" transform="translate(82.031 0.155)">
          <g id="Group_3963" data-name="Group 3963">
            <g id="Group_3962" data-name="Group 3962">
              <path id="Path_13281" data-name="Path 13281" d="M113.851,72.167c-.242,0-.439-2.706-.439-6.042s.2-6.044.439-6.044.44,2.7.44,6.044S114.094,72.167,113.851,72.167Z" transform="translate(-113.412 -60.082)" fill="#263238"/>
            </g>
          </g>
        </g>
        <g id="Group_3967" data-name="Group 3967" transform="translate(87.762 0.155)">
          <g id="Group_3966" data-name="Group 3966">
            <g id="Group_3965" data-name="Group 3965">
              <path id="Path_13282" data-name="Path 13282" d="M119.346,72.167c-.243,0-.44-2.706-.44-6.042s.2-6.044.44-6.044.439,2.7.439,6.044S119.589,72.167,119.346,72.167Z" transform="translate(-118.906 -60.082)" fill="#263238"/>
            </g>
          </g>
        </g>
        <g id="Group_3970" data-name="Group 3970" transform="translate(93.494 0.155)">
          <g id="Group_3969" data-name="Group 3969">
            <g id="Group_3968" data-name="Group 3968">
              <path id="Path_13283" data-name="Path 13283" d="M124.84,72.167c-.242,0-.439-2.706-.439-6.042s.2-6.044.439-6.044.44,2.7.44,6.044S125.083,72.167,124.84,72.167Z" transform="translate(-124.401 -60.082)" fill="#263238"/>
            </g>
          </g>
        </g>
        <g id="Group_3973" data-name="Group 3973" transform="translate(99.225 0.155)">
          <g id="Group_3972" data-name="Group 3972">
            <g id="Group_3971" data-name="Group 3971">
              <path id="Path_13284" data-name="Path 13284" d="M130.335,72.167c-.243,0-.44-2.706-.44-6.042s.2-6.044.44-6.044.439,2.7.439,6.044S130.578,72.167,130.335,72.167Z" transform="translate(-129.895 -60.082)" fill="#263238"/>
            </g>
          </g>
        </g>
        <g id="Group_3976" data-name="Group 3976" transform="translate(104.957 0.155)">
          <g id="Group_3975" data-name="Group 3975">
            <g id="Group_3974" data-name="Group 3974">
              <path id="Path_13285" data-name="Path 13285" d="M135.83,72.167c-.243,0-.44-2.706-.44-6.042s.2-6.044.44-6.044.439,2.7.439,6.044S136.072,72.167,135.83,72.167Z" transform="translate(-135.39 -60.082)" fill="#263238"/>
            </g>
          </g>
        </g>
        <g id="Group_3982" data-name="Group 3982" transform="translate(83.884 90.112)">
          <g id="Group_3978" data-name="Group 3978" transform="translate(0.393 0.334)">
            <g id="Group_3977" data-name="Group 3977">
              <circle id="Ellipse_137" data-name="Ellipse 137" cx="7.655" cy="7.655" r="7.655" fill="#7469f8"/>
            </g>
          </g>
          <g id="Group_3981" data-name="Group 3981">
            <g id="Group_3980" data-name="Group 3980">
              <g id="Group_3979" data-name="Group 3979">
                <path id="Path_13286" data-name="Path 13286" d="M130.891,154.309c-.077,0-.064-.681-.387-1.832a7.648,7.648,0,0,0-2.8-4.033,7.318,7.318,0,1,0,0,11.73,7.646,7.646,0,0,0,2.8-4.033c.323-1.151.31-1.836.387-1.833.027,0,.046.169.054.493a5.76,5.76,0,0,1-.145,1.413,7.621,7.621,0,0,1-2.764,4.4,7.908,7.908,0,0,1-7.531,1.225,7.99,7.99,0,0,1,0-15.059A7.908,7.908,0,0,1,128.036,148a7.621,7.621,0,0,1,2.764,4.4,5.764,5.764,0,0,1,.145,1.413C130.937,154.141,130.918,154.309,130.891,154.309Z" transform="translate(-115.188 -146.321)" fill="#263238"/>
              </g>
            </g>
          </g>
        </g>
        <text id="SUPPORT" transform="translate(5.996 216.683)" fill="#181c3a" font-size="35" font-family="Poppins-BlackItalic, Poppins" font-weight="800" font-style="italic"><tspan x="0" y="0">SUPPORT</tspan></text>
      </g>
    </g>
    <g id="Speech_Bubble" data-name="Speech Bubble" transform="translate(392.819 104.993)">
      <g id="Group_4030" data-name="Group 4030">
        <g id="Group_3998" data-name="Group 3998">
          <g id="Group_3997" data-name="Group 3997">
            <g id="Group_3996" data-name="Group 3996">
              <g id="Group_3995" data-name="Group 3995">
                <g id="Group_3994" data-name="Group 3994">
                  <g id="Group_3993" data-name="Group 3993">
                    <g id="Group_3992" data-name="Group 3992">
                      <g id="Group_3991" data-name="Group 3991">
                        <g id="Group_3990" data-name="Group 3990">
                          <g id="Group_3989" data-name="Group 3989">
                            <g id="Group_3988" data-name="Group 3988">
                              <g id="Group_3987" data-name="Group 3987">
                                <g id="Group_3984" data-name="Group 3984" transform="translate(0.182 0.251)">
                                  <path id="Path_13287" data-name="Path 13287" d="M381.4,182.466l13.085-2.069a44.105,44.105,0,1,0-10.314-11.95l-.018-.018Z" transform="translate(-378.067 -102.051)" fill="#fff"/>
                                </g>
                                <g id="Group_3986" data-name="Group 3986">
                                  <g id="Group_3985" data-name="Group 3985">
                                    <path id="Path_13288" data-name="Path 13288" d="M381.41,182.476s.045-.291.155-.887q.171-.925.5-2.671c.454-2.4,1.119-5.918,1.986-10.5a.116.116,0,0,1,.136-.093.128.128,0,0,1,.062.031l.017.018-.181.142a44.1,44.1,0,0,1-6.15-20.741,43.037,43.037,0,0,1,.263-6.826,48.325,48.325,0,0,1,1.479-7.17,43.944,43.944,0,0,1,20.2-25.932,44.4,44.4,0,0,1,18.018-5.822A44.194,44.194,0,0,1,455.1,116.711l1.779,2.083c.552.725,1.054,1.485,1.579,2.223a43.552,43.552,0,0,1,2.809,4.625c.459.774.756,1.626,1.141,2.432.342.825.776,1.612,1.04,2.462a43.094,43.094,0,0,1,1.533,5.07,45.045,45.045,0,0,1,.161,20.365,44.259,44.259,0,0,1-36.983,33.876,48,48,0,0,1-7.351.432,56.958,56.958,0,0,1-6.819-.735,43.739,43.739,0,0,1-19.563-9.047l.089.024L384.732,182l-2.493.368c-.556.081-.828.113-.828.113s.3-.058.869-.155l2.516-.425,9.682-1.6a.113.113,0,0,1,.089.024,43.784,43.784,0,0,0,19.486,8.874,56.7,56.7,0,0,0,6.765.7,47.578,47.578,0,0,0,7.284-.454,43.921,43.921,0,0,0,36.532-33.586,44.575,44.575,0,0,0-.175-20.122,42.876,42.876,0,0,0-1.518-5.009c-.261-.839-.691-1.616-1.027-2.43-.381-.8-.675-1.638-1.129-2.4a43.1,43.1,0,0,0-2.775-4.569c-.521-.729-1.016-1.48-1.561-2.2l-1.758-2.058a43.712,43.712,0,0,0-36.75-14.528,43.716,43.716,0,0,0-37.872,31.35,47.974,47.974,0,0,0-1.492,7.1,42.857,42.857,0,0,0-.288,6.768,44.134,44.134,0,0,0,5.992,20.637.115.115,0,0,1-.041.16.117.117,0,0,1-.142-.018l-.017-.017.2-.062c-.922,4.538-1.629,8.023-2.111,10.394q-.365,1.763-.555,2.693C381.484,182.156,381.41,182.476,381.41,182.476Z" transform="translate(-377.893 -101.811)" fill="#263238"/>
                                  </g>
                                </g>
                              </g>
                            </g>
                          </g>
                        </g>
                      </g>
                    </g>
                  </g>
                </g>
              </g>
            </g>
          </g>
        </g>
        <g id="Group_4029" data-name="Group 4029" transform="translate(21.304 41.077)">
          <g id="Group_4008" data-name="Group 4008" transform="translate(36.342 0)">
            <g id="Group_4007" data-name="Group 4007">
              <g id="Group_4006" data-name="Group 4006">
                <g id="Group_4005" data-name="Group 4005">
                  <g id="Group_4004" data-name="Group 4004">
                    <g id="Group_4003" data-name="Group 4003">
                      <g id="Group_4002" data-name="Group 4002">
                        <g id="Group_4001" data-name="Group 4001">
                          <g id="Group_4000" data-name="Group 4000">
                            <g id="Group_3999" data-name="Group 3999">
                              <path id="Path_13289" data-name="Path 13289" d="M433.157,145.662a4.471,4.471,0,1,1,4.471,4.471A4.471,4.471,0,0,1,433.157,145.662Z" transform="translate(-433.157 -141.19)" fill="#263238"/>
                            </g>
                          </g>
                        </g>
                      </g>
                    </g>
                  </g>
                </g>
              </g>
            </g>
          </g>
          <g id="Group_4018" data-name="Group 4018" transform="translate(18.448 0)">
            <g id="Group_4017" data-name="Group 4017">
              <g id="Group_4016" data-name="Group 4016">
                <g id="Group_4015" data-name="Group 4015">
                  <g id="Group_4014" data-name="Group 4014">
                    <g id="Group_4013" data-name="Group 4013">
                      <g id="Group_4012" data-name="Group 4012">
                        <g id="Group_4011" data-name="Group 4011">
                          <g id="Group_4010" data-name="Group 4010">
                            <g id="Group_4009" data-name="Group 4009">
                              <path id="Path_13290" data-name="Path 13290" d="M416,145.662a4.472,4.472,0,1,1,4.472,4.471A4.471,4.471,0,0,1,416,145.662Z" transform="translate(-416.002 -141.19)" fill="#263238"/>
                            </g>
                          </g>
                        </g>
                      </g>
                    </g>
                  </g>
                </g>
              </g>
            </g>
          </g>
          <g id="Group_4028" data-name="Group 4028">
            <g id="Group_4027" data-name="Group 4027">
              <g id="Group_4026" data-name="Group 4026">
                <g id="Group_4025" data-name="Group 4025">
                  <g id="Group_4024" data-name="Group 4024">
                    <g id="Group_4023" data-name="Group 4023">
                      <g id="Group_4022" data-name="Group 4022">
                        <g id="Group_4021" data-name="Group 4021">
                          <g id="Group_4020" data-name="Group 4020">
                            <g id="Group_4019" data-name="Group 4019">
                              <path id="Path_13291" data-name="Path 13291" d="M398.917,147.9a4.472,4.472,0,1,1,6.108,1.637A4.471,4.471,0,0,1,398.917,147.9Z" transform="translate(-398.317 -141.19)" fill="#263238"/>
                            </g>
                          </g>
                        </g>
                      </g>
                    </g>
                  </g>
                </g>
              </g>
            </g>
          </g>
        </g>
      </g>
    </g>
    <g id="Character" transform="translate(36.678 75.883)">
      <g id="Group_4303" data-name="Group 4303">
        <g id="Group_4040" data-name="Group 4040" transform="translate(0 218.054)">
          <g id="Group_4031" data-name="Group 4031" transform="translate(42.992 10.536)">
            <path id="Path_13292" data-name="Path 13292" d="M100.226,299.258c-2.752-1.306-7.37-4.024-10.221-5.09a13.547,13.547,0,0,0-8.941-.606c-1.689.565-3.366,1.906-3.378,3.685L88.9,305.47l11.323-2.98Z" transform="translate(-77.686 -293.046)" fill="#ff9a6c"/>
          </g>
          <g id="Group_4032" data-name="Group 4032">
            <path id="Path_13293" data-name="Path 13293" d="M89.733,299.577s-20.15-4.365-23.465-6.1-20.911-10.535-23.83-10.535-5.437.8-5.968,3.713l3.832,2.979.487,1.522,6.551,3.411,1.2,2.2,16.667,8.906s17.507,8.885,20.425,9.416,17.507,1.724,23.74,7.03l25.035-10.275s-7.234-10.275-12.8-12.8c-4.964-2.253-13.3-2.258-19.135.128Z" transform="translate(-36.471 -282.946)" fill="#ffbf9d"/>
          </g>
          <g id="Group_4033" data-name="Group 4033" transform="translate(70.016 28.672)">
            <path id="Path_13294" data-name="Path 13294" d="M103.593,315.233s31.868,69.491,37,83.409c0,0,35.623-5.854,36.844-25.631l-45.918-62.578Z" transform="translate(-103.593 -310.433)" fill="#ffbf9d"/>
          </g>
          <g id="Group_4035" data-name="Group 4035" transform="translate(11.4 8.109)">
            <g id="Group_4034" data-name="Group 4034">
              <path id="Path_13295" data-name="Path 13295" d="M76.415,300.815c0,.019-.118.016-.341-.009a5.7,5.7,0,0,1-.959-.192,20.985,20.985,0,0,1-3.316-1.34c-1.359-.654-2.931-1.521-4.664-2.489-.868-.483-1.774-1-2.726-1.49s-1.978-.911-3.029-1.371a42.634,42.634,0,0,0-6.03-2.193c-1.889-.468-3.705-.827-5.072-.368a4.209,4.209,0,0,0-2.34,2.364,11.821,11.821,0,0,1-.532,1.187c-.019-.005,0-.122.05-.338a6.2,6.2,0,0,1,.288-.933,5.614,5.614,0,0,1,.741-1.373A3.643,3.643,0,0,1,50.151,291a5.715,5.715,0,0,1,2.513-.248,18.881,18.881,0,0,1,2.811.492,39.726,39.726,0,0,1,6.12,2.179c1.047.459,2.092.879,3.06,1.4s1.865,1.031,2.728,1.526c1.719.994,3.264,1.889,4.59,2.583a27.279,27.279,0,0,0,3.208,1.48C75.962,300.7,76.423,300.761,76.415,300.815Z" transform="translate(-47.4 -290.72)" fill="#ff9a6c"/>
            </g>
          </g>
          <g id="Group_4037" data-name="Group 4037" transform="translate(4.259 3.697)">
            <g id="Group_4036" data-name="Group 4036">
              <path id="Path_13296" data-name="Path 13296" d="M57.5,291.008a11.666,11.666,0,0,1-2.821-.977,56,56,0,0,0-6.621-2.644,10.268,10.268,0,0,0-3.81-.325,3.758,3.758,0,0,0-2.688,1.252,4.445,4.445,0,0,0-.791,1.912,2.528,2.528,0,0,1-.15.783,2.157,2.157,0,0,1-.059-.808,4.157,4.157,0,0,1,.695-2.12,3.5,3.5,0,0,1,1.209-1.024,5.376,5.376,0,0,1,1.727-.492,10.225,10.225,0,0,1,4.016.3,40.347,40.347,0,0,1,6.634,2.818A26.8,26.8,0,0,1,57.5,291.008Z" transform="translate(-40.554 -286.49)" fill="#ff9a6c"/>
            </g>
          </g>
          <g id="Group_4039" data-name="Group 4039" transform="translate(49.17 14.659)">
            <g id="Group_4038" data-name="Group 4038">
              <path id="Path_13297" data-name="Path 13297" d="M105.873,297.011a2.842,2.842,0,0,1-.819.358c-.536.2-1.328.449-2.32.709a38.4,38.4,0,0,1-15.907.693c-1.01-.174-1.82-.349-2.372-.5a2.839,2.839,0,0,1-.846-.286c.019-.085,1.258.161,3.274.409a46.9,46.9,0,0,0,15.764-.686C104.633,297.281,105.846,296.928,105.873,297.011Z" transform="translate(-83.609 -296.999)" fill="#ff9a6c"/>
            </g>
          </g>
        </g>
        <g id="Group_4066" data-name="Group 4066" transform="translate(87.593 173.26)">
          <g id="Group_4041" data-name="Group 4041" transform="translate(7.06)">
            <path id="Path_13298" data-name="Path 13298" d="M400.749,258.205l-46.411-9.6L342.931,240l-61.239,11.809c-.975,1.79-10.9,15.61-10.9,15.61l-24.112,8.192a50.74,50.74,0,0,0-26.166,16.709A108.025,108.025,0,0,0,204.9,318.505c-10.849,25.459-26.508,54.876-26.508,54.876l-9.817-15.808-41.364,19.476s24.232,48.857,32.254,55.833c8.918,7.752,29.418,8.646,43.595-5.813,8.546-8.716,33.239-43.186,38.382-51.812l7.592,36.083,7.024,41.179-11.35,28.333H410.353l-6.852-26.78s6.751-69.824,8.613-82.813C416.509,340.6,400.749,258.205,400.749,258.205Z" transform="translate(-127.212 -240.003)" fill="#181c3a"/>
          </g>
          <g id="Group_4042" data-name="Group 4042" transform="translate(276.456 18.202)">
            <path id="Path_13299" data-name="Path 13299" d="M389.615,257.453s33.171,9.306,40.471,42.271c4.425,19.979,19.447,76.918,24.729,123.8,3.14,27.869,3.043,53.627,3.14,56.574h-50.9L385.473,266.758Z" transform="translate(-385.473 -257.453)" fill="#181c3a"/>
          </g>
          <g id="Group_4044" data-name="Group 4044" transform="translate(151.371 29.42)">
            <g id="Group_4043" data-name="Group 4043">
              <path id="Path_13300" data-name="Path 13300" d="M309.709,285.3a1.324,1.324,0,0,1-.141.343l-.471.961c-.411.84-1.007,2.073-1.719,3.653-1.465,3.142-3.2,7.778-5.992,12.959l-.143.265-.231-.2c-3.439-2.931-7.178-6.457-11.037-10.266-6.826-6.778-12.815-13.091-17.243-17.567-2.186-2.2-3.972-3.991-5.259-5.286l-1.437-1.429a3.509,3.509,0,0,1-.477-.526,3.4,3.4,0,0,1,.551.445l1.51,1.357c1.291,1.2,3.143,2.952,5.384,5.168,4.5,4.41,10.536,10.682,17.354,17.452,3.853,3.8,7.57,7.335,10.972,10.281l-.372.068c2.806-5.117,4.611-9.732,6.154-12.846.752-1.568,1.39-2.783,1.847-3.6.217-.371.393-.677.539-.926A1.33,1.33,0,0,1,309.709,285.3Z" transform="translate(-265.558 -268.207)"/>
            </g>
          </g>
          <g id="Group_4046" data-name="Group 4046" transform="translate(201.986 9.777)">
            <g id="Group_4045" data-name="Group 4045">
              <path id="Path_13301" data-name="Path 13301" d="M346.984,249.376a3.863,3.863,0,0,1-.1.731c-.1.528-.227,1.218-.388,2.078-.378,1.8-1,4.378-1.9,7.535-1.8,6.312-4.718,14.9-8.3,24.241-1.9,4.945-3.779,9.613-5.533,13.76l-.135.317-.259-.228c-4.727-4.169-8.962-7.453-11.834-9.9-1.444-1.214-2.569-2.195-3.323-2.882l-.854-.795a1.5,1.5,0,0,1-.274-.3,1.637,1.637,0,0,1,.328.235c.241.2.539.439.9.737l3.412,2.769c2.923,2.379,7.194,5.6,11.972,9.761l-.392.089c1.722-4.149,3.583-8.822,5.483-13.762,3.582-9.332,6.554-17.883,8.443-24.154.939-3.137,1.621-5.7,2.06-7.474l.487-2.053A3.8,3.8,0,0,1,346.984,249.376Z" transform="translate(-314.081 -249.376)"/>
            </g>
          </g>
          <g id="Group_4048" data-name="Group 4048" transform="translate(117.806 69.595)">
            <g id="Group_4047" data-name="Group 4047">
              <path id="Path_13302" data-name="Path 13302" d="M243.155,403.846a.93.93,0,0,1-.092-.236l-.217-.71c-.193-.67-.455-1.587-.785-2.744-.354-1.189-.7-2.664-1.121-4.376-.436-1.708-.864-3.667-1.313-5.837a289.562,289.562,0,0,1-4.862-34.281c-1.175-13.483-1.434-25.741-1.377-34.6.035-4.432.121-8.017.243-10.493q.089-1.8.14-2.851c.021-.3.038-.54.051-.741a.867.867,0,0,1,.035-.251.913.913,0,0,1,.02.254c0,.2,0,.444,0,.743q-.013,1.045-.038,2.853c-.057,2.476-.084,6.059-.071,10.486.041,8.855.362,21.094,1.534,34.558a316.95,316.95,0,0,0,4.7,34.251c.427,2.172.826,4.134,1.234,5.845.388,1.715.707,3.2,1.03,4.393q.433,1.751.686,2.767c.067.291.121.53.165.724A.841.841,0,0,1,243.155,403.846Z" transform="translate(-233.38 -306.722)"/>
            </g>
          </g>
          <g id="Group_4050" data-name="Group 4050" transform="translate(283.348 54.776)">
            <g id="Group_4049" data-name="Group 4049">
              <path id="Path_13303" data-name="Path 13303" d="M392.082,292.515a1.546,1.546,0,0,1,.142.285l.368.857c.328.794.786,1.9,1.37,3.319.29.724.633,1.52.966,2.409l.991,2.925,1.135,3.363q.5,1.821,1.049,3.84c3.106,10.737,4.685,26.261,3.79,43.259-.918,17-2.9,32.285-4.13,43.356-.638,5.507-1.156,9.974-1.519,13.108-.185,1.517-.33,2.709-.432,3.561-.052.382-.094.686-.126.925a1.429,1.429,0,0,1-.062.312,1.359,1.359,0,0,1,.006-.318c.018-.24.043-.547.072-.93.079-.854.19-2.051.332-3.573.294-3.1.752-7.588,1.347-13.128,1.134-11.082,3.053-26.37,3.968-43.339.893-16.961-.618-32.409-3.618-43.136q-.529-2.015-1.009-3.838-.579-1.787-1.092-3.366t-.946-2.933c-.318-.891-.646-1.692-.92-2.42-.543-1.429-.969-2.552-1.274-3.354-.131-.363-.236-.652-.319-.878A1.346,1.346,0,0,1,392.082,292.515Z" transform="translate(-392.08 -292.515)"/>
            </g>
          </g>
          <g id="Group_4052" data-name="Group 4052" transform="translate(58.063 133.379)">
            <g id="Group_4051" data-name="Group 4051">
              <path id="Path_13304" data-name="Path 13304" d="M176.521,403.4c-.15,0-.324-7.954-.39-17.764s0-17.768.153-17.769.324,7.952.39,17.766S176.671,403.4,176.521,403.4Z" transform="translate(-176.106 -367.869)"/>
            </g>
          </g>
          <g id="Group_4054" data-name="Group 4054" transform="translate(201.1 49.162)">
            <g id="Group_4053" data-name="Group 4053">
              <path id="Path_13305" data-name="Path 13305" d="M321.13,455.019a2.58,2.58,0,0,1,.03-.436c.035-.313.083-.735.144-1.275.142-1.146.344-2.788.6-4.889.136-1.063.287-2.243.451-3.531q.207-1.945.448-4.21c.3-3.023.723-6.458,1-10.272q.235-2.859.491-5.982c.167-2.08.261-4.25.4-6.492.312-4.486.441-9.288.624-14.34.229-10.107.193-21.225-.33-32.88-.574-11.657-1.58-22.733-2.759-32.774-.656-5.012-1.235-9.781-1.966-14.22-.353-2.219-.65-4.371-1.011-6.427l-1.05-5.908c-.631-3.772-1.37-7.152-1.956-10.132q-.454-2.231-.841-4.151-.427-1.9-.779-3.473c-.457-2.067-.813-3.682-1.061-4.811-.111-.531-.2-.947-.263-1.254a2.658,2.658,0,0,1-.071-.432,2.564,2.564,0,0,1,.125.419l.315,1.241c.271,1.122.662,2.731,1.16,4.789q.372,1.565.826,3.464.408,1.912.886,4.142c.615,2.977,1.381,6.355,2.036,10.125q.519,2.824,1.087,5.908c.371,2.056.679,4.207,1.042,6.428.752,4.439,1.348,9.212,2.017,14.228,1.208,10.05,2.23,21.138,2.8,32.809.524,11.668.546,22.8.287,32.92-.2,5.055-.342,9.864-.674,14.351-.152,2.246-.256,4.418-.434,6.5s-.359,4.076-.527,5.983c-.3,3.816-.745,7.25-1.078,10.273-.176,1.507-.34,2.912-.492,4.207q-.272,1.931-.5,3.528c-.3,2.1-.539,3.733-.705,4.878-.083.535-.149.956-.2,1.265A2.631,2.631,0,0,1,321.13,455.019Z" transform="translate(-313.232 -287.133)"/>
            </g>
          </g>
          <g id="Group_4056" data-name="Group 4056" transform="translate(231.048 99.383)">
            <g id="Group_4055" data-name="Group 4055">
              <path id="Path_13306" data-name="Path 13306" d="M341.942,340.345a1.073,1.073,0,0,1,.211-.035l.65-.078,2.563-.286,9.767-1.04,34.792-3.6.258-.027.007.261c.27,10.531.575,22.438.9,35.07l0,.111-.075.08c-1.334,1.434-2.761,2.966-4.2,4.511-5.251,5.635-10.347,11.1-15.192,16.3l-.135.143-.175-.087L345.684,378.95l-.112-.055-.011-.123c-1.115-11.632-2.037-21.253-2.683-28-.308-3.319-.549-5.928-.716-7.737-.075-.865-.135-1.535-.176-2.017-.038-.454-.044-.676-.044-.676s.042.25.1.719c.054.489.132,1.175.231,2.054.2,1.818.477,4.439.836,7.776.7,6.7,1.7,16.268,2.9,27.833l-.122-.178L371.549,391.2l-.31.056,15.18-16.317,4.2-4.508-.072.191c-.3-12.633-.587-24.54-.839-35.072l.265.233-34.662,3.344-9.832.92-2.616.233-.68.054A2.111,2.111,0,0,1,341.942,340.345Z" transform="translate(-341.942 -335.278)"/>
            </g>
          </g>
          <g id="Group_4058" data-name="Group 4058" transform="translate(232.931 111.785)">
            <g id="Group_4057" data-name="Group 4057">
              <path id="Path_13307" data-name="Path 13307" d="M390.171,347.18a11.947,11.947,0,0,1-1.806.343c-1.167.19-2.861.428-4.959.695-4.193.541-10,1.156-16.42,1.767l-16.431,1.607-4.976.523a11.807,11.807,0,0,1-1.833.135,11.728,11.728,0,0,1,1.806-.345c1.167-.188,2.861-.426,4.958-.694,4.193-.54,10-1.155,16.424-1.767l16.428-1.606,4.976-.524A11.866,11.866,0,0,1,390.171,347.18Z" transform="translate(-343.747 -347.168)"/>
            </g>
          </g>
          <g id="Group_4060" data-name="Group 4060" transform="translate(286.991 64.31)" opacity="0.3">
            <g id="Group_4059" data-name="Group 4059" transform="translate(0)">
              <path id="Path_13308" data-name="Path 13308" d="M398.011,390.167q.875,10.659,1.751,21.315c3.867-18.256,9.947-37.875,9-56.513-.937-18.515-2.7-36.448-13.192-53.315a105.948,105.948,0,0,1,6.157,39.63C400.771,363.09,398.011,390.167,398.011,390.167Z" transform="translate(-395.573 -301.655)"/>
            </g>
          </g>
          <g id="Group_4061" data-name="Group 4061" transform="translate(0 110.033)">
            <path id="Path_13309" data-name="Path 13309" d="M172.013,348.61c-.7-1.2-1.5-2.5-2.82-2.951-1.465-.5-3.043.2-4.429.892L126.912,365.4c-2.484,1.237-5.184,2.707-6.126,5.318-1.2,3.34.992,6.861,3.081,9.729,3.488,4.794,7.658,10,13.548,10.68L169.962,368.8c3.979-.584,6.454-5.012,6.3-9.032S174.033,352.089,172.013,348.61Z" transform="translate(-120.443 -345.488)" fill="#181c3a"/>
          </g>
          <g id="Group_4063" data-name="Group 4063" transform="translate(16.268 126.792)">
            <g id="Group_4062" data-name="Group 4062">
              <path id="Path_13310" data-name="Path 13310" d="M175.45,361.556c.013.015-.1.14-.333.366l-1.023.969c-.894.837-2.219,2.013-3.883,3.436-3.325,2.848-8.055,6.631-13.514,10.49s-10.613,7.046-14.409,9.226c-1.9,1.092-3.45,1.946-4.538,2.51l-1.256.639a1.731,1.731,0,0,1-.456.192,1.713,1.713,0,0,1,.4-.288c.331-.2.728-.439,1.206-.729l4.445-2.655c3.741-2.261,8.841-5.5,14.291-9.34s10.2-7.573,13.581-10.34l3.99-3.3,1.091-.892A1.7,1.7,0,0,1,175.45,361.556Z" transform="translate(-136.039 -361.555)"/>
            </g>
          </g>
          <g id="Group_4065" data-name="Group 4065" transform="translate(203.177 12.168)" opacity="0.3">
            <g id="Group_4064" data-name="Group 4064">
              <path id="Path_13311" data-name="Path 13311" d="M346.442,251.668c-4.456,14.8-10.7,31.523-15.96,45.857-4.491-3.81-10.768-8.848-15.26-12.659a125.726,125.726,0,0,0,13.862,21.662c.619.778,1.456,1.634,2.433,1.445.924-.177,1.4-1.184,1.733-2.063q4.107-10.863,8.216-21.724C345.3,274.047,349.011,262.2,346.442,251.668Z" transform="translate(-315.223 -251.668)"/>
            </g>
          </g>
        </g>
        <g id="Group_4302" data-name="Group 4302" transform="translate(196.197)">
          <g id="Group_4277" data-name="Group 4277" transform="translate(0 22.957)">
            <g id="Group_4069" data-name="Group 4069" transform="translate(17.182)">
              <g id="Group_4068" data-name="Group 4068">
                <g id="Group_4067" data-name="Group 4067">
                  <path id="Path_13312" data-name="Path 13312" d="M279.228,97.464c13.523-3.9,26.244.033,38.752,6.489s22.593,17.195,29.126,29.663c6.88,13.133,9.925,28.44,7.434,43.054s-10.749,28.38-23.128,36.537c-16.9,11.14-40.2,10.559-57.623.243S244.926,184.112,241.88,164.1c-2.1-13.789-.391-28.333,6.046-40.706s17.816-22.362,31.3-25.928" transform="translate(-241.031 -95.912)" fill="#263238"/>
                </g>
              </g>
            </g>
            <g id="Group_4273" data-name="Group 4273" transform="translate(5.933 1.426)">
              <g id="Group_4073" data-name="Group 4073" transform="translate(0 0.229)">
                <g id="Group_4072" data-name="Group 4072">
                  <g id="Group_4071" data-name="Group 4071">
                    <g id="Group_4070" data-name="Group 4070">
                      <path id="Path_13313" data-name="Path 13313" d="M324.213,139.845c-2.613-5.048-2.5-11.025-3.929-16.526-3.151-12.112-14.187-20.86-26.2-24.362-11.178-3.257-24.1-.807-36.488,4.8-8.491,3.847-16.222,9.754-21.288,17.577a38.921,38.921,0,0,0-3.178,35.53l61.95-16.3c6.45,4.212,13.049,8.49,20.51,10.4a13.116,13.116,0,0,0,6.694.3,5.9,5.9,0,0,0,4.442-4.6C327.026,144.223,325.348,142.038,324.213,139.845Z" transform="translate(-230.247 -97.498)" fill="#263238"/>
                    </g>
                  </g>
                </g>
              </g>
              <g id="Group_4077" data-name="Group 4077" transform="translate(3.418 24.035)">
                <g id="Group_4076" data-name="Group 4076">
                  <g id="Group_4075" data-name="Group 4075">
                    <g id="Group_4074" data-name="Group 4074">
                      <path id="Path_13314" data-name="Path 13314" d="M338.851,248.707,322.858,136.235c-.7-5.32-3.116-10.737-8.475-10.49l-56.311-5.425c-17.643.814-25.924,23.957-24.362,41.551,1.736,19.547,4.626,43.342,9.126,57.438,9.047,28.342,31.874,28.64,31.874,28.64-.009-.1,1.388,5.631,3.123,16.166l36.508,24.279Z" transform="translate(-233.523 -120.32)" fill="#ffbf9d"/>
                    </g>
                  </g>
                </g>
              </g>
              <g id="Group_4221" data-name="Group 4221" transform="translate(10.533 66.667)">
                <g id="Group_4220" data-name="Group 4220">
                  <g id="Group_4113" data-name="Group 4113" transform="translate(0 5.309)">
                    <g id="Group_4094" data-name="Group 4094" transform="translate(6.638 11.031)">
                      <g id="Group_4093" data-name="Group 4093">
                        <g id="Group_4092" data-name="Group 4092">
                          <g id="Group_4091" data-name="Group 4091">
                            <g id="Group_4090" data-name="Group 4090">
                              <g id="Group_4089" data-name="Group 4089">
                                <g id="Group_4088" data-name="Group 4088">
                                  <g id="Group_4087" data-name="Group 4087">
                                    <g id="Group_4086" data-name="Group 4086">
                                      <g id="Group_4085" data-name="Group 4085">
                                        <g id="Group_4084" data-name="Group 4084">
                                          <g id="Group_4083" data-name="Group 4083">
                                            <g id="Group_4082" data-name="Group 4082">
                                              <g id="Group_4081" data-name="Group 4081">
                                                <g id="Group_4080" data-name="Group 4080">
                                                  <g id="Group_4079" data-name="Group 4079">
                                                    <g id="Group_4078" data-name="Group 4078">
                                                      <path id="Path_13315" data-name="Path 13315" d="M246.732,180.821a3.77,3.77,0,0,0,4.166,3.211,3.606,3.606,0,0,0,3.329-3.945,3.771,3.771,0,0,0-4.163-3.213A3.607,3.607,0,0,0,246.732,180.821Z" transform="translate(-246.708 -176.855)" fill="#263238"/>
                                                    </g>
                                                  </g>
                                                </g>
                                              </g>
                                            </g>
                                          </g>
                                        </g>
                                      </g>
                                    </g>
                                  </g>
                                </g>
                              </g>
                            </g>
                          </g>
                        </g>
                      </g>
                    </g>
                    <g id="Group_4112" data-name="Group 4112">
                      <g id="Group_4111" data-name="Group 4111">
                        <g id="Group_4110" data-name="Group 4110">
                          <g id="Group_4109" data-name="Group 4109">
                            <g id="Group_4108" data-name="Group 4108">
                              <g id="Group_4107" data-name="Group 4107">
                                <g id="Group_4106" data-name="Group 4106">
                                  <g id="Group_4105" data-name="Group 4105">
                                    <g id="Group_4104" data-name="Group 4104">
                                      <g id="Group_4103" data-name="Group 4103">
                                        <g id="Group_4102" data-name="Group 4102">
                                          <g id="Group_4101" data-name="Group 4101">
                                            <g id="Group_4100" data-name="Group 4100">
                                              <g id="Group_4099" data-name="Group 4099">
                                                <g id="Group_4098" data-name="Group 4098">
                                                  <g id="Group_4097" data-name="Group 4097">
                                                    <g id="Group_4096" data-name="Group 4096">
                                                      <g id="Group_4095" data-name="Group 4095">
                                                        <path id="Path_13316" data-name="Path 13316" d="M240.435,171.426c.535.416,3.039-2.1,7.049-2.7,4-.658,7.254.954,7.614.4.182-.25-.424-1.055-1.847-1.792a10.348,10.348,0,0,0-6.187-.92,9.935,9.935,0,0,0-5.518,2.76C240.458,170.3,240.174,171.243,240.435,171.426Z" transform="translate(-240.344 -166.28)" fill="#263238"/>
                                                      </g>
                                                    </g>
                                                  </g>
                                                </g>
                                              </g>
                                            </g>
                                          </g>
                                        </g>
                                      </g>
                                    </g>
                                  </g>
                                </g>
                              </g>
                            </g>
                          </g>
                        </g>
                      </g>
                    </g>
                  </g>
                  <g id="Group_4149" data-name="Group 4149" transform="translate(38.123)">
                    <g id="Group_4130" data-name="Group 4130" transform="translate(5.575 10.317)">
                      <g id="Group_4129" data-name="Group 4129">
                        <g id="Group_4128" data-name="Group 4128">
                          <g id="Group_4127" data-name="Group 4127">
                            <g id="Group_4126" data-name="Group 4126">
                              <g id="Group_4125" data-name="Group 4125">
                                <g id="Group_4124" data-name="Group 4124">
                                  <g id="Group_4123" data-name="Group 4123">
                                    <g id="Group_4122" data-name="Group 4122">
                                      <g id="Group_4121" data-name="Group 4121">
                                        <g id="Group_4120" data-name="Group 4120">
                                          <g id="Group_4119" data-name="Group 4119">
                                            <g id="Group_4118" data-name="Group 4118">
                                              <g id="Group_4117" data-name="Group 4117">
                                                <g id="Group_4116" data-name="Group 4116">
                                                  <g id="Group_4115" data-name="Group 4115">
                                                    <g id="Group_4114" data-name="Group 4114">
                                                      <path id="Path_13317" data-name="Path 13317" d="M282.26,175.047a3.768,3.768,0,0,0,4.165,3.211,3.606,3.606,0,0,0,3.328-3.945,3.769,3.769,0,0,0-4.162-3.213A3.6,3.6,0,0,0,282.26,175.047Z" transform="translate(-282.236 -171.081)" fill="#263238"/>
                                                    </g>
                                                  </g>
                                                </g>
                                              </g>
                                            </g>
                                          </g>
                                        </g>
                                      </g>
                                    </g>
                                  </g>
                                </g>
                              </g>
                            </g>
                          </g>
                        </g>
                      </g>
                    </g>
                    <g id="Group_4148" data-name="Group 4148">
                      <g id="Group_4147" data-name="Group 4147">
                        <g id="Group_4146" data-name="Group 4146">
                          <g id="Group_4145" data-name="Group 4145">
                            <g id="Group_4144" data-name="Group 4144">
                              <g id="Group_4143" data-name="Group 4143">
                                <g id="Group_4142" data-name="Group 4142">
                                  <g id="Group_4141" data-name="Group 4141">
                                    <g id="Group_4140" data-name="Group 4140">
                                      <g id="Group_4139" data-name="Group 4139">
                                        <g id="Group_4138" data-name="Group 4138">
                                          <g id="Group_4137" data-name="Group 4137">
                                            <g id="Group_4136" data-name="Group 4136">
                                              <g id="Group_4135" data-name="Group 4135">
                                                <g id="Group_4134" data-name="Group 4134">
                                                  <g id="Group_4133" data-name="Group 4133">
                                                    <g id="Group_4132" data-name="Group 4132">
                                                      <g id="Group_4131" data-name="Group 4131">
                                                        <path id="Path_13318" data-name="Path 13318" d="M276.981,166.337c.538.415,3.045-2.1,7.053-2.7,4-.659,7.254.954,7.614.4.178-.25-.42-1.056-1.848-1.792a10.326,10.326,0,0,0-6.187-.92,9.94,9.94,0,0,0-5.519,2.76C277.008,165.211,276.722,166.154,276.981,166.337Z" transform="translate(-276.892 -161.19)" fill="#263238"/>
                                                      </g>
                                                    </g>
                                                  </g>
                                                </g>
                                              </g>
                                            </g>
                                          </g>
                                        </g>
                                      </g>
                                    </g>
                                  </g>
                                </g>
                              </g>
                            </g>
                          </g>
                        </g>
                      </g>
                    </g>
                  </g>
                  <g id="Group_4167" data-name="Group 4167" transform="translate(18.893 3.458)">
                    <g id="Group_4166" data-name="Group 4166">
                      <g id="Group_4165" data-name="Group 4165">
                        <g id="Group_4164" data-name="Group 4164">
                          <g id="Group_4163" data-name="Group 4163">
                            <g id="Group_4162" data-name="Group 4162">
                              <g id="Group_4161" data-name="Group 4161">
                                <g id="Group_4160" data-name="Group 4160">
                                  <g id="Group_4159" data-name="Group 4159">
                                    <g id="Group_4158" data-name="Group 4158">
                                      <g id="Group_4157" data-name="Group 4157">
                                        <g id="Group_4156" data-name="Group 4156">
                                          <g id="Group_4155" data-name="Group 4155">
                                            <g id="Group_4154" data-name="Group 4154">
                                              <g id="Group_4153" data-name="Group 4153">
                                                <g id="Group_4152" data-name="Group 4152">
                                                  <g id="Group_4151" data-name="Group 4151">
                                                    <g id="Group_4150" data-name="Group 4150">
                                                      <path id="Path_13319" data-name="Path 13319" d="M269.161,198.184c-.016-.229-2.573-.28-6.689-.179-1.04.05-2.04-.005-2.319-.677-.354-.7-.094-1.872.219-3.139q.878-3.937,1.838-8.257c2.509-11.739,4.159-21.33,3.685-21.426s-2.892,9.339-5.4,21.079q-.89,4.336-1.7,8.283c-.211,1.223-.676,2.644.081,4.1a2.6,2.6,0,0,0,1.913,1.24,6.962,6.962,0,0,0,1.774-.025C266.658,198.782,269.181,198.416,269.161,198.184Z" transform="translate(-258.456 -164.505)" fill="#263238"/>
                                                    </g>
                                                  </g>
                                                </g>
                                              </g>
                                            </g>
                                          </g>
                                        </g>
                                      </g>
                                    </g>
                                  </g>
                                </g>
                              </g>
                            </g>
                          </g>
                        </g>
                      </g>
                    </g>
                  </g>
                  <g id="Group_4184" data-name="Group 4184" transform="translate(34.072 68.681)">
                    <g id="Group_4183" data-name="Group 4183">
                      <g id="Group_4182" data-name="Group 4182">
                        <g id="Group_4181" data-name="Group 4181">
                          <g id="Group_4180" data-name="Group 4180">
                            <g id="Group_4179" data-name="Group 4179">
                              <g id="Group_4178" data-name="Group 4178">
                                <g id="Group_4177" data-name="Group 4177">
                                  <g id="Group_4176" data-name="Group 4176">
                                    <g id="Group_4175" data-name="Group 4175">
                                      <g id="Group_4174" data-name="Group 4174">
                                        <g id="Group_4173" data-name="Group 4173">
                                          <g id="Group_4172" data-name="Group 4172">
                                            <g id="Group_4171" data-name="Group 4171">
                                              <g id="Group_4170" data-name="Group 4170">
                                                <g id="Group_4169" data-name="Group 4169">
                                                  <g id="Group_4168" data-name="Group 4168">
                                                    <path id="Path_13320" data-name="Path 13320" d="M273.008,243.348a74.755,74.755,0,0,0,37.317-16.315s-9.106,22.787-35.493,25.082Z" transform="translate(-273.008 -227.033)" fill="#ff9a6c"/>
                                                  </g>
                                                </g>
                                              </g>
                                            </g>
                                          </g>
                                        </g>
                                      </g>
                                    </g>
                                  </g>
                                </g>
                              </g>
                            </g>
                          </g>
                        </g>
                      </g>
                    </g>
                  </g>
                  <g id="Group_4201" data-name="Group 4201" transform="translate(32.478 42.861)">
                    <g id="Group_4200" data-name="Group 4200">
                      <g id="Group_4199" data-name="Group 4199">
                        <g id="Group_4198" data-name="Group 4198">
                          <g id="Group_4197" data-name="Group 4197">
                            <g id="Group_4196" data-name="Group 4196">
                              <g id="Group_4195" data-name="Group 4195">
                                <g id="Group_4194" data-name="Group 4194">
                                  <g id="Group_4193" data-name="Group 4193">
                                    <g id="Group_4192" data-name="Group 4192">
                                      <g id="Group_4191" data-name="Group 4191">
                                        <g id="Group_4190" data-name="Group 4190">
                                          <g id="Group_4189" data-name="Group 4189">
                                            <g id="Group_4188" data-name="Group 4188">
                                              <g id="Group_4187" data-name="Group 4187">
                                                <g id="Group_4186" data-name="Group 4186">
                                                  <g id="Group_4185" data-name="Group 4185">
                                                    <path id="Path_13321" data-name="Path 13321" d="M271.771,205.959a7.307,7.307,0,0,1,6.066-3.672,6.667,6.667,0,0,1,4.927,1.747,4.225,4.225,0,0,1,1.047,4.729c-.849,1.687-3.056,2.382-5.052,2.132a15.369,15.369,0,0,1-5.591-2.276,4.475,4.475,0,0,1-1.325-1.011,1.353,1.353,0,0,1-.222-1.493" transform="translate(-271.48 -202.28)" fill="#ff9a6c"/>
                                                  </g>
                                                </g>
                                              </g>
                                            </g>
                                          </g>
                                        </g>
                                      </g>
                                    </g>
                                  </g>
                                </g>
                              </g>
                            </g>
                          </g>
                        </g>
                      </g>
                    </g>
                  </g>
                  <g id="Group_4219" data-name="Group 4219" transform="translate(30.667 38.106)">
                    <g id="Group_4218" data-name="Group 4218">
                      <g id="Group_4217" data-name="Group 4217">
                        <g id="Group_4216" data-name="Group 4216">
                          <g id="Group_4215" data-name="Group 4215">
                            <g id="Group_4214" data-name="Group 4214">
                              <g id="Group_4213" data-name="Group 4213">
                                <g id="Group_4212" data-name="Group 4212">
                                  <g id="Group_4211" data-name="Group 4211">
                                    <g id="Group_4210" data-name="Group 4210">
                                      <g id="Group_4209" data-name="Group 4209">
                                        <g id="Group_4208" data-name="Group 4208">
                                          <g id="Group_4207" data-name="Group 4207">
                                            <g id="Group_4206" data-name="Group 4206">
                                              <g id="Group_4205" data-name="Group 4205">
                                                <g id="Group_4204" data-name="Group 4204">
                                                  <g id="Group_4203" data-name="Group 4203">
                                                    <g id="Group_4202" data-name="Group 4202">
                                                      <path id="Path_13322" data-name="Path 13322" d="M280.9,197.725c-.658.061,0,4.413-3.254,8.071s-7.958,3.886-7.9,4.5c-.021.282,1.161.688,3.126.441a10.957,10.957,0,0,0,6.631-3.509,9.546,9.546,0,0,0,2.45-6.725C281.839,198.659,281.189,197.654,280.9,197.725Z" transform="translate(-269.743 -197.722)" fill="#263238"/>
                                                    </g>
                                                  </g>
                                                </g>
                                              </g>
                                            </g>
                                          </g>
                                        </g>
                                      </g>
                                    </g>
                                  </g>
                                </g>
                              </g>
                            </g>
                          </g>
                        </g>
                      </g>
                    </g>
                  </g>
                </g>
              </g>
              <g id="Group_4237" data-name="Group 4237" transform="translate(47.572 55.46)">
                <g id="Group_4236" data-name="Group 4236">
                  <g id="Group_4235" data-name="Group 4235">
                    <g id="Group_4234" data-name="Group 4234">
                      <g id="Group_4233" data-name="Group 4233">
                        <g id="Group_4232" data-name="Group 4232">
                          <g id="Group_4231" data-name="Group 4231">
                            <g id="Group_4230" data-name="Group 4230">
                              <g id="Group_4229" data-name="Group 4229">
                                <g id="Group_4228" data-name="Group 4228">
                                  <g id="Group_4227" data-name="Group 4227">
                                    <g id="Group_4226" data-name="Group 4226">
                                      <g id="Group_4225" data-name="Group 4225">
                                        <g id="Group_4224" data-name="Group 4224">
                                          <g id="Group_4223" data-name="Group 4223">
                                            <g id="Group_4222" data-name="Group 4222">
                                              <path id="Path_13323" data-name="Path 13323" d="M275.9,154.824c.561,1.029,4.485-.1,9.273-.25,4.788-.247,8.79.551,9.265-.523.208-.51-.611-1.434-2.305-2.255a16.127,16.127,0,0,0-14.124.587C276.389,153.343,275.651,154.332,275.9,154.824Z" transform="translate(-275.853 -150.446)" fill="#263238"/>
                                            </g>
                                          </g>
                                        </g>
                                      </g>
                                    </g>
                                  </g>
                                </g>
                              </g>
                            </g>
                          </g>
                        </g>
                      </g>
                    </g>
                  </g>
                </g>
              </g>
              <g id="Group_4253" data-name="Group 4253" transform="translate(8.941 54.079)">
                <g id="Group_4252" data-name="Group 4252">
                  <g id="Group_4251" data-name="Group 4251">
                    <g id="Group_4250" data-name="Group 4250">
                      <g id="Group_4249" data-name="Group 4249">
                        <g id="Group_4248" data-name="Group 4248">
                          <g id="Group_4247" data-name="Group 4247">
                            <g id="Group_4246" data-name="Group 4246">
                              <g id="Group_4245" data-name="Group 4245">
                                <g id="Group_4244" data-name="Group 4244">
                                  <g id="Group_4243" data-name="Group 4243">
                                    <g id="Group_4242" data-name="Group 4242">
                                      <g id="Group_4241" data-name="Group 4241">
                                        <g id="Group_4240" data-name="Group 4240">
                                          <g id="Group_4239" data-name="Group 4239">
                                            <g id="Group_4238" data-name="Group 4238">
                                              <path id="Path_13324" data-name="Path 13324" d="M238.987,154.459c.844.8,3.461-.564,6.775-1.116,3.294-.667,6.226-.324,6.727-1.375.214-.506-.368-1.35-1.727-2.025a9.946,9.946,0,0,0-10.881,2.007C238.85,153.065,238.608,154.061,238.987,154.459Z" transform="translate(-238.818 -149.122)" fill="#263238"/>
                                            </g>
                                          </g>
                                        </g>
                                      </g>
                                    </g>
                                  </g>
                                </g>
                              </g>
                            </g>
                          </g>
                        </g>
                      </g>
                    </g>
                  </g>
                </g>
              </g>
              <g id="Group_4257" data-name="Group 4257" transform="translate(24.712)">
                <g id="Group_4256" data-name="Group 4256">
                  <g id="Group_4255" data-name="Group 4255">
                    <g id="Group_4254" data-name="Group 4254">
                      <path id="Path_13325" data-name="Path 13325" d="M332.31,130.221c-7.6-16.1-35.072-36.1-52.51-32.522l-25.862,20.61a27.372,27.372,0,0,0,21.174,18.3c5.172.851,11.212.468,14.738,4.349,3.6,3.961,2.684,10.552,6.094,14.679,4.725,5.719,15.326,4,19.148,10.362,1.669,2.779,1.472,6.39,3.191,9.139,2.29,3.661,12.816,7.286,16.723,5.448s2.993-8.788,3.841-12.606c1.45-6.526.08-9.625-1.134-13C334.84,146.985,335.934,137.9,332.31,130.221Z" transform="translate(-253.938 -97.278)" fill="#263238"/>
                    </g>
                  </g>
                </g>
              </g>
              <g id="Group_4264" data-name="Group 4264" transform="translate(94.16 79.039)">
                <g id="Group_4263" data-name="Group 4263">
                  <g id="Group_4262" data-name="Group 4262">
                    <g id="Group_4261" data-name="Group 4261">
                      <g id="Group_4260" data-name="Group 4260">
                        <g id="Group_4259" data-name="Group 4259">
                          <g id="Group_4258" data-name="Group 4258">
                            <path id="Path_13326" data-name="Path 13326" d="M320.555,182.362c-.323-2.164,1.4-7.645,3.483-8.305,5.569-1.761,15.921-2.872,18.229,11.6,3.153,19.786-17.361,18.871-17.486,18.31C324.683,203.528,321.678,189.833,320.555,182.362Z" transform="translate(-320.515 -173.05)" fill="#ffbf9d"/>
                          </g>
                        </g>
                      </g>
                    </g>
                  </g>
                </g>
              </g>
              <g id="Group_4272" data-name="Group 4272" transform="translate(102.407 85.205)">
                <g id="Group_4271" data-name="Group 4271">
                  <g id="Group_4270" data-name="Group 4270">
                    <g id="Group_4269" data-name="Group 4269">
                      <g id="Group_4268" data-name="Group 4268">
                        <g id="Group_4267" data-name="Group 4267">
                          <g id="Group_4266" data-name="Group 4266">
                            <g id="Group_4265" data-name="Group 4265">
                              <path id="Path_13327" data-name="Path 13327" d="M329.289,195.252c.077-.077.384.186,1.008.36a3.493,3.493,0,0,0,2.586-.358c1.967-1.1,3.2-4.7,2.726-8.28a11.541,11.541,0,0,0-1.751-4.782,4.026,4.026,0,0,0-3.014-2.231,1.776,1.776,0,0,0-1.884,1.267c-.177.6.011.971-.089,1.021-.047.059-.477-.263-.447-1.1a2.226,2.226,0,0,1,.581-1.364,2.636,2.636,0,0,1,1.826-.808c1.542-.137,3.139,1.048,4.089,2.494a11.853,11.853,0,0,1,2.073,5.324c.509,4.008-.937,8.062-3.666,9.346a3.741,3.741,0,0,1-3.236-.022C329.4,195.726,329.226,195.3,329.289,195.252Z" transform="translate(-328.422 -178.962)" fill="#ff9a6c"/>
                            </g>
                          </g>
                        </g>
                      </g>
                    </g>
                  </g>
                </g>
              </g>
            </g>
            <g id="Group_4276" data-name="Group 4276" transform="translate(0 15.774)">
              <g id="Group_4275" data-name="Group 4275">
                <g id="Group_4274" data-name="Group 4274">
                  <path id="Path_13328" data-name="Path 13328" d="M260.3,111.048c-.914,8.3-12.046,20.08-16.734,27-8.946,13.194-10.526,17.419-7.381,44.3-5.918-8.736-10.674-17.414-11.487-27.933s1.859-21.454,8.29-29.818,16.765-13.868,27.312-13.54" transform="translate(-224.559 -111.034)" fill="#263238"/>
                </g>
              </g>
            </g>
          </g>
          <g id="Group_4278" data-name="Group 4278" transform="translate(77.822)">
            <path id="Path_13329" data-name="Path 13329" d="M304.343,84.355c4.2-4.605,10.2-7.6,16.46-9.163,8.924-2.227,18.709-1.624,26.832,2.254s14.392,11.136,16.064,19.5a23.946,23.946,0,0,1-8.64,23.195,40.187,40.187,0,0,0,16.494,9.661c-1.692,2.533-4.814,4.018-7.961,4.551a36.572,36.572,0,0,1-9.529-.065,16.4,16.4,0,0,0,9.113,6.649,30.28,30.28,0,0,1-15.535-.5,60.8,60.8,0,0,1-14.047-6.311c-15.259-8.864-23.674-16.62-33.985-30.3C298.226,98,300.139,88.961,304.343,84.355Z" transform="translate(-299.164 -73.904)" fill="#263238"/>
          </g>
          <g id="Group_4282" data-name="Group 4282" transform="translate(77.534 24.408)">
            <g id="Group_4279" data-name="Group 4279" transform="translate(0 0.008)">
              <path id="Path_13330" data-name="Path 13330" d="M337.251,125.146c-11.2-16.357-25.455-25.118-38.363-27.836" transform="translate(-298.889 -97.31)" fill="#263238"/>
            </g>
            <g id="Group_4281" data-name="Group 4281">
              <g id="Group_4280" data-name="Group 4280">
                <path id="Path_13331" data-name="Path 13331" d="M298.889,97.31a11.826,11.826,0,0,0,1.828.554c1.179.334,2.877.847,4.921,1.625a60.726,60.726,0,0,1,14.865,8.3,76.356,76.356,0,0,1,12.324,11.8c1.381,1.7,2.5,3.079,3.218,4.073a11.851,11.851,0,0,0,1.206,1.483,11.792,11.792,0,0,0-1.018-1.618c-.665-1.037-1.736-2.46-3.081-4.2a69.781,69.781,0,0,0-12.293-12.008A56.671,56.671,0,0,0,305.783,99.1a43.793,43.793,0,0,0-5.01-1.456A11.63,11.63,0,0,0,298.889,97.31Z" transform="translate(-298.889 -97.303)" fill="#455a64"/>
              </g>
            </g>
          </g>
          <g id="Group_4284" data-name="Group 4284" transform="translate(35.673 36.793)">
            <g id="Group_4283" data-name="Group 4283">
              <path id="Path_13332" data-name="Path 13332" d="M352.341,138.585a.835.835,0,0,0-.256.08l-.723.292c-.628.274-1.574.63-2.8,1.059a45.607,45.607,0,0,1-10.742,2.193,58.913,58.913,0,0,1-16.209-1.019,105.074,105.074,0,0,1-19.047-5.931c-6.568-2.684-12.763-5.436-18.281-8.141a109.122,109.122,0,0,1-14.114-8.174,69.855,69.855,0,0,1-8.534-6.928c-.954-.884-1.643-1.623-2.123-2.111-.222-.221-.4-.4-.552-.552-.127-.122-.2-.182-.2-.175a.925.925,0,0,0,.16.215c.137.161.3.355.509.592.453.515,1.115,1.283,2.049,2.2a64.391,64.391,0,0,0,8.454,7.106,105.288,105.288,0,0,0,14.112,8.32c5.527,2.742,11.713,5.51,18.3,8.2a102.934,102.934,0,0,0,19.164,5.917,58,58,0,0,0,16.35.9,43.347,43.347,0,0,0,10.781-2.392c1.22-.465,2.157-.856,2.771-1.167l.7-.346A.933.933,0,0,0,352.341,138.585Z" transform="translate(-258.757 -109.177)" fill="#455a64"/>
            </g>
          </g>
          <g id="Group_4301" data-name="Group 4301" transform="translate(43.85 22.446)">
            <g id="Group_4285" data-name="Group 4285" transform="translate(24.395 101.182)">
              <path id="Path_13333" data-name="Path 13333" d="M291.887,233.226l-1.9-3.715c.132-.067,13.229-6.795,18.268-11.027,11.869-9.972,22.788-25.9,22.9-26.063l3.446,2.349c-.457.672-11.344,16.56-23.661,26.908C305.537,226.216,292.44,232.943,291.887,233.226Z" transform="translate(-289.984 -192.422)" fill="#455a64"/>
            </g>
            <g id="Group_4286" data-name="Group 4286" transform="translate(18.133 130.463)">
              <path id="Path_13334" data-name="Path 13334" d="M301.9,220.493s-17.917,7.982-17.917,9.756,2.838,5.322,4.967,5.145,8.28-3.638,9.345-5.057,3.066-5.065,5.194-6.84Z" transform="translate(-283.981 -220.493)" fill="#263238"/>
            </g>
            <g id="Group_4288" data-name="Group 4288">
              <g id="Group_4287" data-name="Group 4287">
                <path id="Path_13335" data-name="Path 13335" d="M335.472,172.2,331.3,172a97.663,97.663,0,0,0-6.117-35.343c-9.053-23.317-26.453-35.838-51.72-37.219a31.092,31.092,0,0,0-6.87.469l1.827-1.722a10.127,10.127,0,0,1,3.035-1.975h0a10.307,10.307,0,0,1,4.87-.754c31.9,2.762,46.313,23.039,52.8,39.812A100.137,100.137,0,0,1,335.472,172.2Z" transform="translate(-266.597 -95.422)" fill="#455a64"/>
              </g>
            </g>
            <g id="Group_4292" data-name="Group 4292" transform="translate(53.3 76.455)">
              <g id="Group_4289" data-name="Group 4289" transform="translate(0.271 0.226)">
                <path id="Path_13336" data-name="Path 13336" d="M344.395,187.934c0,10.5-5.92,19-13.221,19s-13.219-8.507-13.219-19,5.919-19,13.219-19S344.395,177.441,344.395,187.934Z" transform="translate(-317.954 -168.933)" fill="#455a64"/>
              </g>
              <g id="Group_4291" data-name="Group 4291">
                <g id="Group_4290" data-name="Group 4290">
                  <path id="Path_13337" data-name="Path 13337" d="M344.406,187.944a.921.921,0,0,1-.038-.262c-.015-.207-.031-.46-.054-.771-.019-.679-.132-1.673-.311-2.946a22.392,22.392,0,0,0-4.079-9.936,14.567,14.567,0,0,0-2.483-2.555,11.123,11.123,0,0,0-3.366-1.823,9.394,9.394,0,0,0-4.048-.386,10.389,10.389,0,0,0-4.041,1.51,16.015,16.015,0,0,0-5.778,7.261,25.866,25.866,0,0,0,0,19.812,16.012,16.012,0,0,0,5.779,7.263,10.388,10.388,0,0,0,4.042,1.51,9.394,9.394,0,0,0,4.048-.386,11.145,11.145,0,0,0,3.366-1.823,14.645,14.645,0,0,0,2.483-2.556A22.4,22.4,0,0,0,344,191.922a29.584,29.584,0,0,0,.311-2.945c.023-.312.04-.564.054-.771a.935.935,0,0,1,.038-.263.957.957,0,0,1,.019.264v.774a24.44,24.44,0,0,1-.212,2.972,22.119,22.119,0,0,1-3.982,10.138,14.98,14.98,0,0,1-2.527,2.65,11.5,11.5,0,0,1-3.486,1.923,9.812,9.812,0,0,1-4.25.432,10.847,10.847,0,0,1-4.25-1.562,16.467,16.467,0,0,1-6-7.474,26.283,26.283,0,0,1,0-20.234,16.456,16.456,0,0,1,6-7.473,10.858,10.858,0,0,1,4.249-1.562,9.813,9.813,0,0,1,4.25.432,11.5,11.5,0,0,1,3.486,1.922,14.945,14.945,0,0,1,2.527,2.65,22.111,22.111,0,0,1,3.983,10.138,24.468,24.468,0,0,1,.212,2.973v.774A.945.945,0,0,1,344.406,187.944Z" transform="translate(-317.694 -168.717)" fill="#263238"/>
                </g>
              </g>
            </g>
            <g id="Group_4296" data-name="Group 4296" transform="translate(60.139 82.289)">
              <g id="Group_4293" data-name="Group 4293" transform="translate(0.271 0.23)">
                <path id="Path_13338" data-name="Path 13338" d="M341.342,186.626c0,6.68-3.768,12.095-8.415,12.095s-8.417-5.415-8.417-12.095,3.769-12.1,8.417-12.1S341.342,179.945,341.342,186.626Z" transform="translate(-324.51 -174.53)" fill="#455a64"/>
              </g>
              <g id="Group_4295" data-name="Group 4295">
                <g id="Group_4294" data-name="Group 4294">
                  <path id="Path_13339" data-name="Path 13339" d="M341.353,186.635c-.062,0-.041-.913-.294-2.527a14.343,14.343,0,0,0-2.613-6.289,7.8,7.8,0,0,0-3.694-2.751,5.908,5.908,0,0,0-2.54-.238,6.542,6.542,0,0,0-2.535.952,10.115,10.115,0,0,0-3.639,4.584,16.4,16.4,0,0,0,0,12.534,10.121,10.121,0,0,0,3.639,4.584,6.526,6.526,0,0,0,2.535.952,5.876,5.876,0,0,0,2.54-.238,7.793,7.793,0,0,0,3.694-2.751,14.331,14.331,0,0,0,2.613-6.289c.253-1.613.233-2.527.294-2.525a2.9,2.9,0,0,1,.031.66,14.618,14.618,0,0,1-.116,1.9,14.031,14.031,0,0,1-2.517,6.489,8.144,8.144,0,0,1-3.858,2.947,6.325,6.325,0,0,1-2.741.283,6.988,6.988,0,0,1-2.742-1,10.549,10.549,0,0,1-3.858-4.8,16.785,16.785,0,0,1,0-12.958,10.558,10.558,0,0,1,3.858-4.8,7,7,0,0,1,2.742-1,6.327,6.327,0,0,1,2.741.284,8.128,8.128,0,0,1,3.857,2.946,14.022,14.022,0,0,1,2.518,6.49,14.6,14.6,0,0,1,.116,1.9A2.923,2.923,0,0,1,341.353,186.635Z" transform="translate(-324.25 -174.309)" fill="#263238"/>
                </g>
              </g>
            </g>
            <g id="Group_4300" data-name="Group 4300" transform="translate(63.082 85.682)">
              <g id="Group_4297" data-name="Group 4297" transform="translate(0.271 0.231)">
                <path id="Path_13340" data-name="Path 13340" d="M339.439,186.486c0,4.8-2.711,8.7-6.054,8.7s-6.053-3.9-6.053-8.7,2.71-8.7,6.053-8.7S339.439,181.68,339.439,186.486Z" transform="translate(-327.332 -177.784)" fill="#455a64"/>
              </g>
              <g id="Group_4299" data-name="Group 4299">
                <g id="Group_4298" data-name="Group 4298">
                  <path id="Path_13341" data-name="Path 13341" d="M339.451,186.5c-.054,0-.05-.657-.241-1.814a10.355,10.355,0,0,0-1.893-4.495,5.553,5.553,0,0,0-2.634-1.952,4.194,4.194,0,0,0-3.594.513c-2.266,1.5-3.469,4.624-3.475,7.745s1.209,6.252,3.475,7.748a4.2,4.2,0,0,0,3.594.513,5.555,5.555,0,0,0,2.634-1.952,10.365,10.365,0,0,0,1.893-4.495c.191-1.157.187-1.815.241-1.813a1.541,1.541,0,0,1,.039.476,10.257,10.257,0,0,1-1.867,6.065,5.908,5.908,0,0,1-2.8,2.148,4.618,4.618,0,0,1-2,.21,5.088,5.088,0,0,1-2-.729,7.652,7.652,0,0,1-2.807-3.48,12.148,12.148,0,0,1,0-9.381,7.668,7.668,0,0,1,2.807-3.479,5.08,5.08,0,0,1,2-.728,4.6,4.6,0,0,1,2,.21,5.9,5.9,0,0,1,2.8,2.147,10.26,10.26,0,0,1,1.867,6.065A1.556,1.556,0,0,1,339.451,186.5Z" transform="translate(-327.072 -177.562)" fill="#263238"/>
                </g>
              </g>
            </g>
          </g>
        </g>
      </g>
    </g>
  </g>
  <g id="Group_4305" data-name="Group 4305" transform="translate(-212.617 230)">
    <path id="Path_13342" data-name="Path 13342" d="M670.726,0c1.072,1.058,2.155,2.106,3.213,3.179a1.55,1.55,0,0,1,0,2.515c-.863.887-1.743,1.758-2.625,2.627-.81.8-1.626.9-2.292.306s-.641-1.365.073-2.3c.041-.053.067-.118.208-.369-1.524.219-2.919.329-4.272.628q-18.439,4.074-25.1,21.766a48.441,48.441,0,0,0-1.3,4.866c-.062.239-.094.486-.16.724a1.516,1.516,0,0,1-1.754,1.219,1.487,1.487,0,0,1-1.12-1.882c.46-1.921.853-3.87,1.484-5.736a35.549,35.549,0,0,1,8.533-13.754,36.08,36.08,0,0,1,14.639-9.027,35,35,0,0,1,8.123-1.643c.271-.021.542-.052.811-.09a.6.6,0,0,0,.181-.1C668.261,1.345,668.25,1.093,669.24,0Z" transform="translate(-2.714)" fill="#e0e0e0" fill-rule="evenodd"/>
    <path id="Path_13343" data-name="Path 13343" d="M766.97,169.528a14.8,14.8,0,0,1-10.507-4.287c-4.892-4.839-9.823-9.645-14.555-14.638-5.34-5.635-4.958-15.2.614-20.584a5.176,5.176,0,0,1,7.4.016q3.427,3.292,6.721,6.721a5.164,5.164,0,0,1-.028,7.459c-.253.271-.528.522-.785.79a1.338,1.338,0,0,0,.021,2.181q2.3,2.322,4.622,4.62c.769.76,1.363.708,2.191.01a11.412,11.412,0,0,1,2.713-2,4.89,4.89,0,0,1,5.585,1.246q3.315,3.248,6.564,6.564a5.207,5.207,0,0,1-.293,7.867A15.18,15.18,0,0,1,766.97,169.528Zm.048-2.971a12.159,12.159,0,0,0,8.367-3.4,2.2,2.2,0,0,0,.117-3.349q-3.328-3.392-6.722-6.72a2.177,2.177,0,0,0-3.243.049c-.45.425-.874.879-1.352,1.269a3.985,3.985,0,0,1-5.19.016q-2.977-2.733-5.722-5.716a4,4,0,0,1,.022-5.307c.365-.436.781-.827,1.172-1.241a2.217,2.217,0,0,0-.017-3.412q-3.236-3.274-6.511-6.511a2.223,2.223,0,0,0-3.505.1,12.073,12.073,0,0,0,.3,16.992c4.5,4.564,9.056,9.077,13.6,13.6A12.147,12.147,0,0,0,767.018,166.557Z" transform="translate(-90.008 -109.347)" fill="#e0e0e0" fill-rule="evenodd"/>
    <path id="Path_13344" data-name="Path 13344" d="M654.3,369.037c-.131.392-.2.649-.3.895a1.45,1.45,0,0,1-1.714.942,1.4,1.4,0,0,1-1.095-1.685c.207-1.065.522-2.109.806-3.158.661-2.447.9-2.583,3.367-1.919.906.245,1.817.475,2.72.733,1.041.3,1.527.971,1.334,1.808-.2.86-.891,1.243-1.956,1.084-.095-.014-.192-.013-.462-.03.635.865,1.161,1.654,1.759,2.385a33.311,33.311,0,0,0,36.483,10.8c.446-.146.888-.306,1.339-.438a1.494,1.494,0,0,1,2.04.916,1.469,1.469,0,0,1-1.1,1.89,49.307,49.307,0,0,1-5.268,1.5,36.161,36.161,0,0,1-27.469-5.249,34.792,34.792,0,0,1-9.439-9.034C655.023,370.037,654.705,369.6,654.3,369.037Z" transform="translate(-15.995 -309.625)" fill="#e0e0e0" fill-rule="evenodd"/>
    <path id="Path_13345" data-name="Path 13345" d="M1031.727,120.929c.448-.066.785-.145,1.123-.16a1.4,1.4,0,0,1,1.482,1.087,1.318,1.318,0,0,1-.8,1.645c-1.553.489-3.127.921-4.715,1.278a1.276,1.276,0,0,1-1.532-1c-.424-1.42-.821-2.85-1.162-4.293a1.467,1.467,0,0,1,1.036-1.8,1.514,1.514,0,0,1,1.8,1.045c.063.156.115.316.224.617.432-.984.854-1.846,1.2-2.738a33.119,33.119,0,0,0,2.246-13.223,32.483,32.483,0,0,0-6.505-18.687c-1.39-1.848-3.1-3.456-4.664-5.171-.233-.256-.507-.477-.718-.749a1.445,1.445,0,0,1,1.824-2.155,3.542,3.542,0,0,1,.649.486,36.4,36.4,0,0,1,12.29,30.077,36.518,36.518,0,0,1-3.528,13.173C1031.9,120.514,1031.84,120.673,1031.727,120.929Z" transform="translate(-330.31 -65.07)" fill="#e0e0e0" fill-rule="evenodd"/>
    <path id="Path_13346" data-name="Path 13346" d="M902.615,119.194a16.626,16.626,0,0,1,15.1,11.565,27.231,27.231,0,0,1,.822,5.026,1.45,1.45,0,1,1-2.89.234,16.222,16.222,0,0,0-.966-5,13.606,13.606,0,0,0-11.887-8.842c-.345-.036-.692-.048-1.036-.089a1.47,1.47,0,0,1-1.445-1.486,1.5,1.5,0,0,1,1.563-1.458A6.922,6.922,0,0,1,902.615,119.194Z" transform="translate(-228.063 -101.41)" fill="#e0e0e0" fill-rule="evenodd"/>
    <path id="Path_13347" data-name="Path 13347" d="M909.866,185.6c.057,1.057-.426,1.748-1.284,1.835-.911.092-1.545-.41-1.641-1.488a5.062,5.062,0,0,0-2.906-4.485,8.38,8.38,0,0,0-2.133-.543c-1.031-.182-1.6-.771-1.5-1.649a1.539,1.539,0,0,1,1.824-1.315A8.047,8.047,0,0,1,909.866,185.6Z" transform="translate(-228.131 -151.462)" fill="#e0e0e0" fill-rule="evenodd"/>
    <path id="Path_13348" data-name="Path 13348" d="M986.6,51.566a1.449,1.449,0,0,1,1.473,1.441,1.423,1.423,0,0,1-1.411,1.493,1.5,1.5,0,0,1-1.525-1.486A1.449,1.449,0,0,1,986.6,51.566Z" transform="translate(-300.262 -43.891)" fill="#e0e0e0" fill-rule="evenodd"/>
    <path id="Path_13349" data-name="Path 13349" d="M633.865,258.021a1.472,1.472,0,0,1-1.5-1.432,1.476,1.476,0,0,1,2.951-.047A1.474,1.474,0,0,1,633.865,258.021Z" transform="translate(0 -217.134)" fill="#e0e0e0" fill-rule="evenodd"/>
    <path id="Path_13350" data-name="Path 13350" d="M987.935,460.382a1.464,1.464,0,1,1-1.349-1.537A1.41,1.41,0,0,1,987.935,460.382Z" transform="translate(-300.153 -390.546)" fill="#e0e0e0" fill-rule="evenodd"/>
  </g>
  <g id="Group_4306" data-name="Group 4306" transform="translate(-290.954 -20.746)">
    <path id="Path_13351" data-name="Path 13351" d="M664.7,50.188c0,1.775-.007,3.468,0,5.161,0,.609-.005,1.195-.656,1.51s-1.112-.059-1.574-.456c-2.252-1.937-4.5-3.878-6.778-5.785a1.9,1.9,0,0,0-1.121-.413c-5.918-.025-11.837-.017-17.755-.018a5.69,5.69,0,0,1-6.09-6.1q0-8.63,0-17.26c0-3.717,2.376-6.078,6.112-6.078q15.421,0,30.842,0a5.681,5.681,0,0,1,6.074,6.046q0,8.665,0,17.331a5.685,5.685,0,0,1-6.058,6.064C666.737,50.189,665.772,50.188,664.7,50.188Zm-2.265,3.193c0-1.455,0-2.743,0-4.031,0-1.024.392-1.42,1.4-1.425,1.32-.007,2.641,0,3.961,0a3.411,3.411,0,0,0,3.694-3.705q0-8.736,0-17.471a3.416,3.416,0,0,0-3.735-3.734q-15.491,0-30.982,0A3.428,3.428,0,0,0,633,26.769q0,8.7,0,17.4a3.428,3.428,0,0,0,3.788,3.753q9.16,0,18.32-.01a2.331,2.331,0,0,1,1.662.6C658.592,50.115,660.449,51.68,662.437,53.381Z" transform="translate(-68.148)" fill="#e0e0e0" fill-rule="evenodd"/>
    <path id="Path_13352" data-name="Path 13352" d="M555.789,218.159c-1.108,0-2.14,0-3.172,0a5.662,5.662,0,0,1-5.885-5.881q-.011-8.842,0-17.684a5.652,5.652,0,0,1,5.889-5.873q15.633-.008,31.266,0a5.65,5.65,0,0,1,5.869,5.893q.012,8.807,0,17.614a5.667,5.667,0,0,1-5.977,5.931c-5.942,0-11.884-.007-17.826.02a2.008,2.008,0,0,0-1.183.435c-2.3,1.92-4.563,3.878-6.833,5.83-.43.37-.862.674-1.462.4-.624-.281-.7-.817-.693-1.416C555.8,221.71,555.789,219.99,555.789,218.159Zm2.265,3.2c1.973-1.69,3.813-3.237,5.615-4.829a2.489,2.489,0,0,1,1.788-.648q9.231.03,18.463.009a3.374,3.374,0,0,0,3.568-3.4q.025-9.055,0-18.109a3.346,3.346,0,0,0-3.425-3.4q-15.81-.015-31.62,0A3.356,3.356,0,0,0,549,194.439q-.017,8.984,0,17.968a3.383,3.383,0,0,0,3.485,3.487c.354,0,.707,0,1.061,0,5.207.058,4.452-.708,4.508,4.475C558.056,220.644,558.054,220.917,558.054,221.359Z" transform="translate(0 -136.265)" fill="#e0e0e0" fill-rule="evenodd"/>
    <path id="Path_13353" data-name="Path 13353" d="M724.123,66.8c0-.307,0-.613,0-.919a2.233,2.233,0,0,1,1.7-2.38,2.268,2.268,0,1,0-2.828-2.389,2.216,2.216,0,0,1-.142.682,1.019,1.019,0,0,1-1.222.608,1.134,1.134,0,0,1-.9-1.256,4.536,4.536,0,0,1,6.289-4.008,4.458,4.458,0,0,1,2.76,4.165,4.318,4.318,0,0,1-2.762,4.15.839.839,0,0,0-.631.977,12.783,12.783,0,0,1,0,1.626,1.127,1.127,0,1,1-2.252.018c-.021-.423,0-.848,0-1.273Z" transform="translate(-141.157 -29.236)" fill="#e0e0e0" fill-rule="evenodd"/>
    <path id="Path_13354" data-name="Path 13354" d="M739.961,128.847a1.119,1.119,0,1,1-1.129,1.132A1.157,1.157,0,0,1,739.961,128.847Z" transform="translate(-155.846 -87.697)" fill="#e0e0e0" fill-rule="evenodd"/>
    <path id="Path_13355" data-name="Path 13355" d="M630.123,226.962h-9.695a3.492,3.492,0,0,1-.636-.018,1.123,1.123,0,0,1,0-2.228,4.016,4.016,0,0,1,.706-.018h19.248a4.054,4.054,0,0,1,.706.018,1.123,1.123,0,0,1,0,2.228,3.438,3.438,0,0,1-.635.018Z" transform="translate(-58.481 -165.45)" fill="#e0e0e0" fill-rule="evenodd"/>
    <path id="Path_13356" data-name="Path 13356" d="M630.123,250.959h-9.695a3.489,3.489,0,0,1-.635-.018,1.123,1.123,0,0,1,0-2.228,4.019,4.019,0,0,1,.706-.018h19.248a4.051,4.051,0,0,1,.706.018,1.123,1.123,0,0,1,0,2.228,3.438,3.438,0,0,1-.635.018Z" transform="translate(-58.481 -184.918)" fill="#e0e0e0" fill-rule="evenodd"/>
    <path id="Path_13357" data-name="Path 13357" d="M630.068,274.962h-9.624a5.33,5.33,0,0,1-.636-.012,1.11,1.11,0,0,1-1.025-1.147,1.092,1.092,0,0,1,1.009-1.091,3.477,3.477,0,0,1,.565-.013h19.461c.165,0,.331-.008.5.006a1.126,1.126,0,0,1,.017,2.25c-.187.018-.377.008-.566.008Z" transform="translate(-58.454 -204.392)" fill="#e0e0e0" fill-rule="evenodd"/>
    <path id="Path_13358" data-name="Path 13358" d="M630.315,298.893c-3.279,0-6.558.013-9.836-.018a1.705,1.705,0,0,1-1.128-.408,1.239,1.239,0,0,1-.2-1.079c.114-.31.529-.537.854-.729.159-.094.415-.031.627-.031h19.461c.165,0,.331-.009.5.007a1.131,1.131,0,0,1,1.086,1.1,1.109,1.109,0,0,1-1.1,1.149c-.753.034-1.509.012-2.264.012Z" transform="translate(-58.716 -223.794)" fill="#e0e0e0" fill-rule="evenodd"/>
    <path id="Path_13359" data-name="Path 13359" d="M584.985,226.932c-.378,0-.757.023-1.132-.006a1.12,1.12,0,0,1-1.085-1.094,1.1,1.1,0,0,1,1.1-1.148c.777-.032,1.557-.032,2.334,0a1.1,1.1,0,0,1,1.085,1.09,1.121,1.121,0,0,1-1.1,1.152C585.789,226.955,585.386,226.932,584.985,226.932Z" transform="translate(-29.239 -165.426)" fill="#e0e0e0" fill-rule="evenodd"/>
    <path id="Path_13360" data-name="Path 13360" d="M585.093,250.925c-.424,0-.851.028-1.273-.007a1.111,1.111,0,0,1-1.05-1.125,1.094,1.094,0,0,1,1.063-1.11c.8-.037,1.6-.038,2.4,0a1.094,1.094,0,0,1,1.051,1.122,1.117,1.117,0,0,1-1.064,1.114C585.85,250.951,585.471,250.926,585.093,250.925Z" transform="translate(-29.241 -184.892)" fill="#e0e0e0" fill-rule="evenodd"/>
    <path id="Path_13361" data-name="Path 13361" d="M584.981,274.926c-.377,0-.756.023-1.131-.006a1.118,1.118,0,0,1-1.08-1.1,1.1,1.1,0,0,1,1.1-1.144c.777-.031,1.557-.032,2.334,0a1.1,1.1,0,0,1,1.081,1.094,1.122,1.122,0,0,1-1.1,1.147C585.784,274.949,585.382,274.926,584.981,274.926Z" transform="translate(-29.24 -204.361)" fill="#e0e0e0" fill-rule="evenodd"/>
    <path id="Path_13362" data-name="Path 13362" d="M585.044,296.7c.377,0,.756-.02,1.132,0a1.12,1.12,0,0,1,1.112,1.139,1.1,1.1,0,0,1-1.072,1.1c-.8.035-1.6.038-2.4,0a1.094,1.094,0,0,1-1.041-1.131,1.111,1.111,0,0,1,1.071-1.1c.4-.031.8-.006,1.2-.006Z" transform="translate(-29.241 -223.861)" fill="#e0e0e0" fill-rule="evenodd"/>
  </g>
</svg>
