<svg xmlns="http://www.w3.org/2000/svg" width="1301.377" height="301.803" viewBox="0 0 1301.377 301.803">
  <g id="Group_4330" data-name="Group 4330" transform="translate(-147.561 -1390.686)">
    <g id="Group_3826" data-name="Group 3826" transform="translate(-318.658 1337.734)">
      <path id="Path_13048" data-name="Path 13048" d="M466.219,237.852c2.677-2.27,4.219-1.846,5.368,1.48,1.346,3.9,3.112,7.513,6.455,10.151,1.25.988,1.637,2.323.6,3.628-1.092,1.368-2.452,1.313-3.839.259-3.795-2.884-5.937-6.882-7.646-11.185-.288-.724-.294-1.571-.934-2.141Z" transform="translate(0 -73.88)" fill="#181c3a" fill-rule="evenodd"/>
      <path id="Path_13049" data-name="Path 13049" d="M866.557,102.445c-.939.927-1.878,1.863-3.388,1.331s-1.658-1.84-1.917-3.149c-.8-4.039-2.083-7.855-5.07-10.893a2.377,2.377,0,0,1-.058-3.676c1.186-1.16,2.512-.99,3.677.143,3.583,3.488,5.253,7.934,6.315,12.683.1.466-.117,1.047.441,1.369Z" transform="translate(-175.824 -5.565)" fill="#181c3a" fill-rule="evenodd"/>
      <path id="Path_13053" data-name="Path 13053" d="M518.357,225.821c2.952,1.939,6.331,1.979,9.673,2.154,1.989.1,3.848.366,4.347,2.779-.5,1.99-1.829,2.5-3.772,2.461-7.093-.156-13.459-2.1-18.829-6.946-1.945-1.753-4.126-3.242-6.165-4.893a15.1,15.1,0,0,0-5.138-2.553c-4.334-1.384-6.6-4.994-8.271-9.028-1.909-4.615-1.586-9.8-3.6-14.352-1.891-4.287-1.437-8.3.617-12.356.673-1.328,1.417-2.358,2.988-2.524,2.4,1.256,2.689,2,1.8,4.425-.194.53-.307,1.09-.457,1.635a1.016,1.016,0,0,1-.465,1.034,2.967,2.967,0,0,0-.561,2.859c1.445,4.891,2.976,9.762,3.548,14.862a4.187,4.187,0,0,0,.237.841c1.582,4.7,1.582,4.7,6.563,4.7,5.731,0,12.394,10.887,15.424,13C517.069,224.462,517.967,224.87,518.357,225.821Z" transform="translate(-8.672 -48.631)" fill="#181c3a" fill-rule="evenodd"/>
      <path id="Path_13054" data-name="Path 13054" d="M760.126,137.932c-1.564,1.178-3.073,2.44-4.7,3.52a8.735,8.735,0,0,1-12.05-1.908c-.415-.508-.785-1.052-1.176-1.58-.471-.549-.954-.332-1.439-.02-2.608,2.4-3.981,2.4-7.362,0-1.238-.79-1.52-2.1-1.764-3.39a50.935,50.935,0,0,1-.935-8.471c-.128-2.788.455-5.527.562-8.3.039-1.709.86-2.8,2.6-2.923,1.478-.1,2.926,1.547,3.177,3.37.295,2.138-.64,4.173-.482,6.3a29.95,29.95,0,0,0,.246,3.541c.174-.712.317-1.434.531-2.135a4.188,4.188,0,0,1,4.328-3.271,4.248,4.248,0,0,1,4.223,3.929,44.282,44.282,0,0,1-.036,5.242,6.191,6.191,0,0,0,1.489,4.451c1.769,2.041,3.611,2.321,5.716.634,2.389-1.916,4.721-3.919,6.93-6.04a268.084,268.084,0,0,0,18.881-19.808,9.607,9.607,0,0,0,2.443-6.154,15.385,15.385,0,0,1,.674-4.531,4.991,4.991,0,0,1,6.081-3.3c4.821,1.247,9.645,9.927,8.165,14.686a9.181,9.181,0,0,1-2.155,3.508c-1.291,1.39-2.608,2.76-3.965,4.085a2.206,2.206,0,0,0-.412,3.086,7.775,7.775,0,0,1,1.431,5.366c-.258,1.52-1.017,2.433-2.6,2.363a2.326,2.326,0,0,1-2.408-2.549c-.019-.572.091-1.184-.412-1.638-3.005-3.138-3.093-6.744-.22-9.855,1.083-1.172,2.268-2.247,3.345-3.423,2.746-3.282,2.317-6.094-1.578-9.5-.372,3.306-.431,6.614-2.424,9.387a104.935,104.935,0,0,1-10.968,12.281,7.245,7.245,0,0,1-1.584,1.125Z" transform="translate(-119.515 -10.832)" fill="#181c3a" fill-rule="evenodd"/>
      <path id="Path_13055" data-name="Path 13055" d="M780.194,179.708a5.8,5.8,0,0,1,1.166-4.043q3.219-4.473,6.419-8.959,1.849-2.439,3.7-4.88c1.072-1.416,2.427-2.038,3.94-.851,1.421,1.115,1.143,2.563.172,3.891-3.1,4.243-6.166,8.515-9.368,12.68a3.022,3.022,0,0,0-.416,3.383c.915,2.22,1.846,4.439,2.617,6.711a8.117,8.117,0,0,1-.582,6.558,105.563,105.563,0,0,1-7.735,11.922c-2.165,3.115-4.237,6.3-6.457,9.371-.773,1.07-.567,1.708.235,2.6,2.973,3.305,6.188,6.426,8.278,10.436a18.088,18.088,0,0,1,1.808,12.7,6.885,6.885,0,0,1-1.249,2.526,5.714,5.714,0,0,1-6.162,2.3c-2.374-.6-2.875-2.578-3.057-4.562-.369-4.022-2.176-7.347-4.563-10.472a14.532,14.532,0,0,0-11.179-6.026c-1.165-.067-2.322-.315-3.486-.343a3.133,3.133,0,0,1-3.276-2.35c.3-2.176,1.606-2.728,3.7-2.711,8.2.064,14.872,3.024,19.613,9.885,2.8,2.614,3.9,5.995,4.489,9.719a15,15,0,0,0-1.192-7.2,6.594,6.594,0,0,1-1.021-2.617c-1.7-3.174-4.527-5.423-6.772-8.151-1.132-1.375-2.131-2.742-2.173-4.6-.582-1.679.454-2.936,1.212-4.2,1.645-2.733,3.566-5.285,5.447-7.86,2.885-4.436,6.443-8.438,8.611-13.337.409-1.978-.545-3.639-1.172-5.4C781.032,183.848,779.481,182.054,780.194,179.708Z" transform="translate(-128.697 -39.496)" fill="#181c3a" fill-rule="evenodd"/>
      <path id="Path_13056" data-name="Path 13056" d="M620.479,125.495c.018-1.079-.282-1.526-1.433-1.589a33.83,33.83,0,0,0-5.62-.149c-3.171,1.113-6.252.388-9.327-.456-1.876-.073-3.753-.135-5.628-.22s-3.17-.9-3.406-2.92c.591-1.815,1.856-2.361,3.712-2.272,9.182.437,18.368.772,27.55,1.193a5.078,5.078,0,0,0,3.792-1.067,9.822,9.822,0,0,1,10.671-1.426c1.763.765,3.6.312,5.4.386,1.967.081,3.94-.013,5.909.027,2.567.053,3.561,1.36,2.922,3.844a21.356,21.356,0,0,1-2.2,4.982c-.43.776-1.015,1.845-.175,2.364a2.172,2.172,0,0,0,2.913-.691c.676-.947,1.192-2.007,1.863-2.957,1.748-2.477,4.174-3.174,7.11-2.378,2.408.653,2.468,2.82,3.276,4.529-.23,2.458-2.228,3.825-4.135,2.53-1.661-1.129-2.222-.418-2.982.864-2.054,3.467-5.264,4.4-9.01,3.8-3.874-.624-5.959-4.59-4.728-8.765a6.242,6.242,0,0,1,.485-1.216c.57-1.048.205-1.45-.921-1.456-2.038-.011-4.078.07-6.115-.058a4.864,4.864,0,0,1-1.677-.462,5.283,5.283,0,0,0-4.19.066,22.392,22.392,0,0,0-2.556,2.025,4.381,4.381,0,0,1-3.5.808c-1.533-.286-2.134.384-2.122,1.88C626.375,129.468,620.415,129.4,620.479,125.495Z" transform="translate(-58.227 -19.287)" fill="#181c3a" fill-rule="evenodd"/>
      <path id="Path_13057" data-name="Path 13057" d="M608.789,278.566a8.575,8.575,0,0,1,4.315.048,2.889,2.889,0,0,1,2.33.881,34,34,0,0,1,9.435,10.9,13.358,13.358,0,0,0,3.859,4.727c.658-1.691.529-3.343,1.112-4.821a33.678,33.678,0,0,1,3.806-9.412,5.246,5.246,0,0,1,2.3-2.508c3.754-4.157,8.447-3.578,13.2-2.577,2.422.51,4.848,1.04,7.223,1.729a5.681,5.681,0,0,0,6.2-1.439c1.221-1.246,2.655-2.281,3.971-3.436,1.487-1.306,2.963-1.434,4.469-.049a3.17,3.17,0,0,1-1.194,4.025c-1.719,1.354-3.408,2.755-5.032,4.221a8.685,8.685,0,0,1-8.135,1.961c-4.063-.843-8.032-2.1-12.188-2.564a4.872,4.872,0,0,0-4.926,2.059,27.84,27.84,0,0,0-4.9,12.933,8.094,8.094,0,0,1-1.27,4.116c-1.673,2.175-4.6,2.543-7.268.876a18.068,18.068,0,0,1-5.943-6.6,31.175,31.175,0,0,0-7.393-9.118c-1.248-1-2.453-1.334-3.8-.56-5.284,3.041-9.533,1.631-13.242-2.82-1.207-1.449-2.739-2.624-4.083-3.964-1.89-1.887-3.832-3.513-6.774-3.461a2.723,2.723,0,0,1-3.031-2.55c.223-2.16,1.558-2.71,3.52-2.579a12.65,12.65,0,0,1,8.59,3.7c2.09,2.121,4.353,4.072,6.539,6.1a5.452,5.452,0,0,0,6.016.466A3.021,3.021,0,0,1,608.789,278.566Z" transform="translate(-52.246 -88.398)" fill="#181c3a" fill-rule="evenodd"/>
      <path id="Path_13058" data-name="Path 13058" d="M530.159,118.442c-2.181-.677-4.464-.294-6.7-.678a16.458,16.458,0,0,1-7.623-2.99,3.372,3.372,0,0,0-2.791-.984,10.782,10.782,0,0,0-5.605,2.887c-2.287,2.147-5.36,1.728-8.261,1.34-.6-.08-1.2-.657-1.813-.038-.568,2.079-.175,4.2-.327,6.3a1.952,1.952,0,0,1-.655,1.319c-.585,2.722-.3,5.487-.4,8.232l-.013.023c-.676,1.967-.272,4.007-.336,6.006a4.079,4.079,0,0,1-1.839,3.651.555.555,0,0,1-.844.037c-1.946-.528-2.6-1.832-2.5-3.785.4-7.509.711-15.021,1.079-22.531.175-3.562,4.007-6.447,7.367-5.34,2.666.879,4.706.795,6.827-1.434,2.469-2.6,8.915-3.014,11.892-.622,3.422,2.749,7.326,3.01,11.3,3.368q5.995.539,12.012.841c1.878.091,3.054.795,3.37,2.7-.483,1.888-1.749,2.491-3.6,2.343-1.441-.115-2.9-.048-4.347-.062C534.239,119.329,532.125,119.659,530.159,118.442Z" transform="translate(-10.948 -15.955)" fill="#181c3a" fill-rule="evenodd"/>
      <path id="Path_13061" data-name="Path 13061" d="M497.008,274.335c-1.882-.034-4.1-1.833-3.974-3.338a2.378,2.378,0,0,1,2.518-2.448c1.972-.029,4.313,1.876,4.108,3.427A2.507,2.507,0,0,1,497.008,274.335Z" transform="translate(-12.116 -88.394)" fill="#273656" fill-rule="evenodd"/>
      <path id="Path_13062" data-name="Path 13062" d="M848.174,76.774a2.359,2.359,0,0,1-2.481,2.191c-1.612.081-3.957-1.948-4.011-3.39a2.626,2.626,0,0,1,2.628-2.622C845.961,73.006,848.186,75.043,848.174,76.774Z" transform="translate(-169.678)" fill="#273656" fill-rule="evenodd"/>
      <path id="Path_13063" data-name="Path 13063" d="M495.012,172.617l.844-.037c-.179.633.643,1.756-.853,1.746Q495.008,173.471,495.012,172.617Z" transform="translate(-13.008 -45.024)" fill="#f8f7f8" fill-rule="evenodd"/>
      <path id="Path_13065" data-name="Path 13065" d="M584.7,141.327a54.574,54.574,0,0,1,1.842,5.457c.39,1.733,1.308,2.169,2.94,2.043,1.719-.133,3.457-.03,5.792-.03-2.118,1.58-3.747,2.852-5.439,4.033a1.44,1.44,0,0,0-.635,1.994c.7,1.9,1.217,3.872,1.954,6.285-2.008-1.392-3.7-2.521-5.341-3.721a1.632,1.632,0,0,0-2.307,0c-1.512,1.182-3.149,2.2-5.21,3.618a44.29,44.29,0,0,1,1.513-5.108c.745-1.7.547-2.78-1.152-3.731a14.757,14.757,0,0,1-3.923-3.372c1.915,0,3.832-.043,5.744.016a1.746,1.746,0,0,0,2.055-1.424C583.106,145.451,583.885,143.576,584.7,141.327Z" transform="translate(-49.041 -30.9)" fill="#fefefe" fill-rule="evenodd"/>
      <path id="Path_13067" data-name="Path 13067" d="M520.2,148.772c2.2,0,3.848-.113,5.474.031,1.788.159,2.8-.34,3.2-2.236a46.846,46.846,0,0,1,1.816-5.294c.8,2.276,1.5,4.16,2.113,6.073a1.753,1.753,0,0,0,2.024,1.455c1.943-.1,3.9-.029,6.519-.029-2.178,1.609-3.811,2.877-5.512,4.045a1.425,1.425,0,0,0-.605,1.993c.695,1.9,1.219,3.868,1.961,6.291-1.937-1.337-3.57-2.334-5.043-3.526-1.023-.829-1.752-1.008-2.8-.044a26.778,26.778,0,0,1-3.222,2.258c-.422.284-.921.653-1.385.258-.406-.346.119-.774.165-1.177a8.921,8.921,0,0,1,.356-1.258c1.137-4.176,1.132-4.171-2.429-6.772C522.087,150.3,521.384,149.709,520.2,148.772Z" transform="translate(-24.394 -30.876)" fill="#fefefe" fill-rule="evenodd"/>
      <path id="Path_13068" data-name="Path 13068" d="M495.777,186.6a1.069,1.069,0,0,1,.464-1.034c6.032.317,6.03.316,8.032-5.445.159-.458.365-.9.774-1.9.76,2.239,1.433,3.959,1.914,5.731a1.944,1.944,0,0,0,2.306,1.714c1.812-.112,3.636-.027,5.772-.027a18.185,18.185,0,0,1-4.481,3.633,2,2,0,0,0-.907,2.75c.715,1.808,1.229,3.7,2.015,6.124-1.948-1.392-3.516-2.381-4.928-3.56a2.267,2.267,0,0,0-3.407-.04c-1.421,1.2-3.011,2.2-4.949,3.587.748-2.369,1.247-4.255,1.947-6.063a1.9,1.9,0,0,0-.877-2.721C498.159,188.538,497,187.523,495.777,186.6Z" transform="translate(-13.358 -47.572)" fill="#fefefe" fill-rule="evenodd"/>
      <path id="Path_13070" data-name="Path 13070" d="M501.285,130.035q.08-.752.159-1.5a17.149,17.149,0,0,1,.8-3.951c.5-1.09-.535-1.87-.413-2.853a1.088,1.088,0,0,1,1.38-.215c2.174,1.029,4.434.536,6.678.31a3.259,3.259,0,0,0,2.572-1.481c1.308-2.167,3.222-2.535,5.483-2.114a57.747,57.747,0,0,1-4.887,3.618c-1.405.843-1.352,1.708-.9,3.043a17.7,17.7,0,0,1,1.425,5.134A19.228,19.228,0,0,1,509,126.908a2.117,2.117,0,0,0-3.051.028C504.467,128.064,503.145,129.466,501.285,130.035Z" transform="translate(-15.847 -20.391)" fill="#fdfdfd" fill-rule="evenodd"/>
      <path id="Path_13071" data-name="Path 13071" d="M559.138,126.84c2.064.188,4.169-.051,6.189.588l1.957,7.022c-1.958-1.4-3.613-2.452-5.117-3.692a1.818,1.818,0,0,0-2.666.069,20.58,20.58,0,0,1-4.933,2.979c.659-2.017,1.343-4.027,1.971-6.055C557.009,126.23,558.322,127.281,559.138,126.84Z" transform="translate(-39.927 -24.353)" fill="#fdfdfd" fill-rule="evenodd"/>
      <path id="Path_13072" data-name="Path 13072" d="M635.465,155q-.015,4.878-.031,9.757c-1,.7-1.993,1.406-3.337,2.351a20.252,20.252,0,0,1,1.533-5.691,1.98,1.98,0,0,0-.9-2.73,20.159,20.159,0,0,1-4.36-3.687Z" transform="translate(-73.279 -37.079)" fill="#fdfdfd" fill-rule="evenodd"/>
      <path id="Path_13073" data-name="Path 13073" d="M609.968,129.626l9.327.456,1.466,5.61c-1.638-1.181-3.037-2.039-4.252-3.105-1.417-1.244-2.6-1.469-4.1-.082a12.635,12.635,0,0,1-4.355,2.542Z" transform="translate(-64.097 -25.612)" fill="#fcfcfc" fill-rule="evenodd"/>
      <path id="Path_13074" data-name="Path 13074" d="M500.54,154.918h2.032c-.292,1-1.1,1.159-1.686,1.588-.591-.457-.2-1.074-.359-1.565Z" transform="translate(-15.504 -37.042)" fill="#e5eaee" fill-rule="evenodd"/>
      <path id="Path_13075" data-name="Path 13075" d="M671.612,240.343c-1.758,2.595-3.537,5.174-5.263,7.789a13.07,13.07,0,0,0-1.867,4.171q-63.865,0-127.731,0c-.509,0-1.019.043-1.528.066-4.722-2.384-8.354-6.216-12.495-9.67H525q32.041,0,64.082.032c2.008,0,3.41-.5,3.972-2.543a2.619,2.619,0,0,1,2.376-.851c21.628-.014,43.256-.083,64.883.031a3.612,3.612,0,0,1,.43.056,7.073,7.073,0,0,0,4.982.063,21.493,21.493,0,0,1,3.9-.072C670.382,239.461,671.284,239.332,671.612,240.343Z" transform="translate(-25.537 -75.176)" fill="#fefefe" fill-rule="evenodd"/>
      <path id="Path_13076" data-name="Path 13076" d="M650.232,298.611c-2.858-4.664-6.183-8.894-10.947-11.788a3.225,3.225,0,0,0-.392-.172c2.144-.537,4.325-.206,6.487-.229,5.45-.055,10.9-.013,16.351-.01a35.423,35.423,0,0,0-5.71,12.134A6.068,6.068,0,0,1,650.232,298.611Z" transform="translate(-78.035 -96.435)" fill="#fefdfd" fill-rule="evenodd"/>
      <path id="Path_13077" data-name="Path 13077" d="M646.9,270.2c.8,0,1.609-.053,2.407.008a2.371,2.371,0,0,1,2.412,2.352,2.313,2.313,0,0,1-2.128,2.6,16.646,16.646,0,0,1-5.655-.027,2.264,2.264,0,0,1-1.993-2.49,2.346,2.346,0,0,1,2.332-2.428C645.14,270.139,646.02,270.2,646.9,270.2Z" transform="translate(-79.41 -89.128)" fill="#fefcfc" fill-rule="evenodd"/>
      <path id="Path_13078" data-name="Path 13078" d="M795.806,286.286a12.19,12.19,0,0,1,2.242,10.92,31.567,31.567,0,0,0-4.518-10.826Z" transform="translate(-147.918 -96.41)" fill="#f5f4f6" fill-rule="evenodd"/>
      <path id="Path_13079" data-name="Path 13079" d="M624.166,286.619a5.728,5.728,0,0,0-2.989,1.058c-2.224,1.214-3.927.778-5.323-1.248C618.624,286.506,621.4,286.167,624.166,286.619Z" transform="translate(-67.623 -96.451)" fill="#f7f7f8" fill-rule="evenodd"/>
      <path id="Path_13080" data-name="Path 13080" d="M651.036,150.028l44.256.006c.491,4.009.2,8.157,2.112,11.915L651.04,162Q651.038,156.017,651.036,150.028Z" transform="translate(-83.522 -34.832)" fill="#fefefe" fill-rule="evenodd"/>
      <path id="Path_13082" data-name="Path 13082" d="M749.07,170.929c.172-.446.242-1.093.845-1.012.241.032.4.67.594,1.032Z" transform="translate(-127.826 -43.817)" fill="#dee0e5" fill-rule="evenodd"/>
      <path id="Path_13084" data-name="Path 13084" d="M833.185,117.524c-1.617-.267-3.307.38-4.884-.389a16.5,16.5,0,0,0,2.391-8.685c.025-.54-.24-1.341.369-1.571.714-.269,1.133.5,1.525.971a16.98,16.98,0,0,1,2.652,4.7C836.182,114.956,834.625,116.184,833.185,117.524Z" transform="translate(-163.632 -15.307)" fill="#fdfdfd" fill-rule="evenodd"/>
      <path id="Path_13086" data-name="Path 13086" d="M671.3,125.664l-4.394-.007A4.183,4.183,0,0,1,671.3,125.664Z" transform="translate(-90.696 -23.538)" fill="#edeef1" fill-rule="evenodd"/>
      <path id="Path_13088" data-name="Path 13088" d="M501.833,124.739c1.319.808,1.52,1.849.865,3.246a35.6,35.6,0,0,0-1.256,3.56C501.347,129.262,500.983,126.966,501.833,124.739Z" transform="translate(-15.846 -23.404)" fill="#71bfd8" fill-rule="evenodd"/>
      <path id="Path_13089" data-name="Path 13089" d="M664.487,139.431a13.849,13.849,0,0,1-2.386-.024,2.412,2.412,0,0,1-2.213-2.539,2.369,2.369,0,0,1,2.277-2.48,23.782,23.782,0,0,1,4.773,0,2.382,2.382,0,0,1,2.326,2.653,2.509,2.509,0,0,1-2.6,2.424c-.722.049-1.45.008-2.175.008Z" transform="translate(-87.523 -27.71)" fill="#fefdfd" fill-rule="evenodd"/>
      <path id="Path_13090" data-name="Path 13090" d="M788.143,208.437l-8.852,12.809a2.681,2.681,0,1,1-3.517-4.038c1.97-2.874,3.883-5.786,5.82-8.684a3.128,3.128,0,0,0,.928-3.859,23.457,23.457,0,0,1-.956-4.443,2.2,2.2,0,0,1,1.895-2.525,2.177,2.177,0,0,1,2.811,1.443C787.118,202.186,788.426,205.159,788.143,208.437Z" transform="translate(-139.531 -56.334)" fill="#253455" fill-rule="evenodd"/>
      <path id="Path_13091" data-name="Path 13091" d="M764.937,249.826c-2.2-.035-3.4-2.108-2.321-3.77a17.571,17.571,0,0,1,2.877-3.264,2.479,2.479,0,0,1,3.667,3.218C767.951,247.589,766.957,249.506,764.937,249.826Z" transform="translate(-133.764 -76.468)" fill="#273656" fill-rule="evenodd"/>
      <path id="Path_13092" data-name="Path 13092" d="M667.432,229.822c-1.257-.082-2.573-.067-3.85-.278a2.272,2.272,0,0,1-2.033-2.447,2.324,2.324,0,0,1,2.3-2.447c2.462-.117,4.937-.109,7.4.006a2.223,2.223,0,0,1,2.186,2.294,2.248,2.248,0,0,1-2.056,2.612C670.095,229.747,668.782,229.741,667.432,229.822Z" transform="translate(-88.272 -68.518)" fill="#fefdfd" fill-rule="evenodd"/>
      <path id="Path_13093" data-name="Path 13093" d="M693.147,224.6h1.532c1.7,0,2.912.721,2.957,2.5.047,1.821-1.268,2.52-2.879,2.632a25.733,25.733,0,0,1-3.717-.014c-1.655-.126-2.856-.953-2.732-2.749.113-1.637,1.252-2.375,2.868-2.371Q692.162,224.6,693.147,224.6Z" transform="translate(-100.363 -68.53)" fill="#fefcfc" fill-rule="evenodd"/>
    </g>
    <path id="Path_13376" data-name="Path 13376" d="M4-14.12v8.28a3.677,3.677,0,0,0,.73,2.49,2.66,2.66,0,0,0,2.11.83,2.635,2.635,0,0,0,2.09-.83,3.677,3.677,0,0,0,.73-2.49v-8.28h2.8v8.28a6.882,6.882,0,0,1-.73,3.31A4.7,4.7,0,0,1,9.71-.52,6.341,6.341,0,0,1,6.78.14,5.487,5.487,0,0,1,2.72-1.38,6.045,6.045,0,0,1,1.2-5.84v-8.28ZM24.64-3.86a3.829,3.829,0,0,1-.54,1.99A3.879,3.879,0,0,1,22.5-.41a5.547,5.547,0,0,1-2.58.55,6.7,6.7,0,0,1-2.68-.51,4.532,4.532,0,0,1-1.89-1.47,4.241,4.241,0,0,1-.81-2.24h3a2.292,2.292,0,0,0,.69,1.43,2.164,2.164,0,0,0,1.57.57,1.827,1.827,0,0,0,1.35-.47,1.638,1.638,0,0,0,.47-1.21,1.585,1.585,0,0,0-.38-1.09,2.773,2.773,0,0,0-.96-.69q-.58-.26-1.6-.6a15.817,15.817,0,0,1-2.16-.87,3.993,3.993,0,0,1-1.43-1.25,3.581,3.581,0,0,1-.59-2.14,3.48,3.48,0,0,1,1.31-2.87,5.384,5.384,0,0,1,3.47-1.05,5.5,5.5,0,0,1,3.57,1.08,4.076,4.076,0,0,1,1.51,2.88H21.32a2.117,2.117,0,0,0-.64-1.25,1.987,1.987,0,0,0-1.42-.49,1.873,1.873,0,0,0-1.26.41,1.479,1.479,0,0,0-.48,1.19,1.48,1.48,0,0,0,.37,1.03,2.823,2.823,0,0,0,.94.67,15.429,15.429,0,0,0,1.55.58,20.608,20.608,0,0,1,2.21.9,3.894,3.894,0,0,1,1.45,1.26A3.7,3.7,0,0,1,24.64-3.86ZM35.32-2.84H29.66L28.66,0H25.68l5.2-13.96H34.1L39.28,0H36.3Zm-.76-2.14-2.08-5.96L30.4-4.98Z" transform="translate(230 1595)" fill="#181c3a"/>
    <path id="Path_13375" data-name="Path 13375" d="M10.04-14.12v2.24H4.1V-8.1H8.86v2.16H4.1V0H1.28V-14.12Zm4.72,5.16a4.635,4.635,0,0,1,1.64-1.67,4.357,4.357,0,0,1,2.28-.61v3.02h-.82q-3.1,0-3.1,2.88V0H11.94V-11.08h2.82Zm9.82-2.26a4.258,4.258,0,0,1,2.4.66A3.6,3.6,0,0,1,28.4-8.78v-2.3h2.8V0H28.4V-2.32A3.648,3.648,0,0,1,26.98-.53a4.211,4.211,0,0,1-2.4.67,4.759,4.759,0,0,1-2.52-.68,4.594,4.594,0,0,1-1.75-1.97,6.832,6.832,0,0,1-.63-3.03,6.832,6.832,0,0,1,.63-3.03,4.594,4.594,0,0,1,1.75-1.97A4.759,4.759,0,0,1,24.58-11.22Zm.88,2.46a2.758,2.758,0,0,0-2.12.86,3.329,3.329,0,0,0-.8,2.36,3.293,3.293,0,0,0,.8,2.35,2.775,2.775,0,0,0,2.12.85,2.79,2.79,0,0,0,2.11-.87,3.235,3.235,0,0,0,.83-2.33,3.263,3.263,0,0,0-.83-2.35A2.79,2.79,0,0,0,25.46-8.76Zm14.9-2.48a3.923,3.923,0,0,1,3.06,1.26,5.09,5.09,0,0,1,1.14,3.54V0h-2.8V-6.12a2.893,2.893,0,0,0-.68-2.05,2.418,2.418,0,0,0-1.86-.73,2.487,2.487,0,0,0-1.92.78,3.186,3.186,0,0,0-.72,2.24V0H33.76V-11.08h2.82v2.22a3.53,3.53,0,0,1,1.45-1.75A4.31,4.31,0,0,1,40.36-11.24Zm11.66.02a5.483,5.483,0,0,1,3.57,1.16A5.068,5.068,0,0,1,57.38-6.9H54.4a2.3,2.3,0,0,0-.82-1.39,2.518,2.518,0,0,0-1.62-.51,2.417,2.417,0,0,0-1.87.83,3.512,3.512,0,0,0-.75,2.43,3.512,3.512,0,0,0,.75,2.43,2.417,2.417,0,0,0,1.87.83,2.518,2.518,0,0,0,1.62-.51,2.3,2.3,0,0,0,.82-1.39h2.98a5.068,5.068,0,0,1-1.79,3.16A5.483,5.483,0,0,1,52.02.14a5.9,5.9,0,0,1-2.88-.69,4.85,4.85,0,0,1-1.96-1.97,6.2,6.2,0,0,1-.7-3.02,6.259,6.259,0,0,1,.7-3.03,4.771,4.771,0,0,1,1.96-1.97A5.968,5.968,0,0,1,52.02-11.22ZM69.8-5.96a5.338,5.338,0,0,1-.1.96H61.58a3.054,3.054,0,0,0,.8,2.18,2.574,2.574,0,0,0,1.84.7,2.67,2.67,0,0,0,1.63-.48,2.126,2.126,0,0,0,.83-1.3h2.98a4.767,4.767,0,0,1-.94,2.08A4.912,4.912,0,0,1,66.87-.38a5.933,5.933,0,0,1-2.51.52,5.9,5.9,0,0,1-2.88-.69,4.85,4.85,0,0,1-1.96-1.97,6.2,6.2,0,0,1-.7-3.02,6.259,6.259,0,0,1,.7-3.03,4.771,4.771,0,0,1,1.96-1.97,5.968,5.968,0,0,1,2.88-.68,5.837,5.837,0,0,1,2.87.68,4.793,4.793,0,0,1,1.9,1.87A5.427,5.427,0,0,1,69.8-5.96Zm-2.84-.28a2.485,2.485,0,0,0-.71-2.06A2.707,2.707,0,0,0,64.36-9a2.77,2.77,0,0,0-1.92.7,2.866,2.866,0,0,0-.86,2.06Z" transform="translate(537 1504)" fill="#181c3a"/>
    <path id="Path_13374" data-name="Path 13374" d="M7.82-14.26a6.954,6.954,0,0,1,4.28,1.27,5.668,5.668,0,0,1,2.18,3.43H11.32a3.362,3.362,0,0,0-1.33-1.53,3.966,3.966,0,0,0-2.15-.57,4.139,4.139,0,0,0-2.16.56A3.779,3.779,0,0,0,4.22-9.5,5.393,5.393,0,0,0,3.7-7.06,4.793,4.793,0,0,0,4.89-3.6,4.292,4.292,0,0,0,8.14-2.36a3.968,3.968,0,0,0,2.61-.9,4.181,4.181,0,0,0,1.41-2.5H7.38V-7.78h7.14v2.72a6.654,6.654,0,0,1-1.17,2.58A6.293,6.293,0,0,1,11.07-.59,7.086,7.086,0,0,1,7.84.12,7.257,7.257,0,0,1,4.17-.79,6.268,6.268,0,0,1,1.71-3.33,7.8,7.8,0,0,1,.84-7.06a7.8,7.8,0,0,1,.87-3.73,6.354,6.354,0,0,1,2.45-2.55A7.14,7.14,0,0,1,7.82-14.26Zm19.24,8.3a5.339,5.339,0,0,1-.1.96H18.84a3.054,3.054,0,0,0,.8,2.18,2.574,2.574,0,0,0,1.84.7,2.67,2.67,0,0,0,1.63-.48,2.126,2.126,0,0,0,.83-1.3h2.98a4.767,4.767,0,0,1-.94,2.08A4.912,4.912,0,0,1,24.13-.38a5.933,5.933,0,0,1-2.51.52,5.9,5.9,0,0,1-2.88-.69,4.85,4.85,0,0,1-1.96-1.97,6.2,6.2,0,0,1-.7-3.02,6.259,6.259,0,0,1,.7-3.03,4.771,4.771,0,0,1,1.96-1.97,5.968,5.968,0,0,1,2.88-.68,5.837,5.837,0,0,1,2.87.68,4.793,4.793,0,0,1,1.9,1.87A5.427,5.427,0,0,1,27.06-5.96Zm-2.84-.28a2.485,2.485,0,0,0-.71-2.06A2.707,2.707,0,0,0,21.62-9a2.77,2.77,0,0,0-1.92.7,2.866,2.866,0,0,0-.86,2.06Zm7.66-2.72a4.635,4.635,0,0,1,1.64-1.67,4.357,4.357,0,0,1,2.28-.61v3.02h-.82q-3.1,0-3.1,2.88V0H29.06V-11.08h2.82Zm19.58-2.28a4.158,4.158,0,0,1,3.19,1.25,5,5,0,0,1,1.17,3.55V0h-2.8V-6.12a2.764,2.764,0,0,0-.65-1.97,2.34,2.34,0,0,0-1.79-.69,2.465,2.465,0,0,0-1.88.74A3.029,3.029,0,0,0,48-5.88V0H45.2V-6.12a2.764,2.764,0,0,0-.65-1.97,2.34,2.34,0,0,0-1.79-.69,2.465,2.465,0,0,0-1.88.74,3.029,3.029,0,0,0-.7,2.16V0H37.36V-11.08h2.82v2.1a3.434,3.434,0,0,1,1.39-1.67,4.1,4.1,0,0,1,2.21-.59,4.2,4.2,0,0,1,2.33.64A3.912,3.912,0,0,1,47.6-8.76a4.183,4.183,0,0,1,1.55-1.81A4.145,4.145,0,0,1,51.46-11.24Zm11.18.02a4.258,4.258,0,0,1,2.4.66,3.6,3.6,0,0,1,1.42,1.78v-2.3h2.8V0h-2.8V-2.32A3.648,3.648,0,0,1,65.04-.53a4.211,4.211,0,0,1-2.4.67,4.759,4.759,0,0,1-2.52-.68,4.594,4.594,0,0,1-1.75-1.97,6.832,6.832,0,0,1-.63-3.03,6.832,6.832,0,0,1,.63-3.03,4.594,4.594,0,0,1,1.75-1.97A4.759,4.759,0,0,1,62.64-11.22Zm.88,2.46a2.758,2.758,0,0,0-2.12.86,3.329,3.329,0,0,0-.8,2.36,3.293,3.293,0,0,0,.8,2.35,2.775,2.775,0,0,0,2.12.85,2.79,2.79,0,0,0,2.11-.87,3.235,3.235,0,0,0,.83-2.33,3.263,3.263,0,0,0-.83-2.35A2.79,2.79,0,0,0,63.52-8.76Zm14.9-2.48a3.923,3.923,0,0,1,3.06,1.26,5.09,5.09,0,0,1,1.14,3.54V0h-2.8V-6.12a2.893,2.893,0,0,0-.68-2.05,2.418,2.418,0,0,0-1.86-.73,2.487,2.487,0,0,0-1.92.78,3.186,3.186,0,0,0-.72,2.24V0H71.82V-11.08h2.82v2.22a3.53,3.53,0,0,1,1.45-1.75A4.31,4.31,0,0,1,78.42-11.24Zm8.58.16,3.02,7.52,2.8-7.52h3.1L89.14,5.28H86.02l2.5-5.6L83.86-11.08Z" transform="translate(817 1623)" fill="#181c3a"/>
    <path id="Path_13373" data-name="Path 13373" d="M6.76-7.18,12.74,0H9.32L4.1-6.46V0H1.28V-14.12H4.1v6.34l5.24-6.34h3.4Zm12.66-4.04a6.144,6.144,0,0,1,2.91.68,4.977,4.977,0,0,1,2.03,1.97,5.985,5.985,0,0,1,.74,3.03,5.93,5.93,0,0,1-.74,3.02A5.062,5.062,0,0,1,22.33-.55a6.072,6.072,0,0,1-2.91.69,6.072,6.072,0,0,1-2.91-.69,5.062,5.062,0,0,1-2.03-1.97,5.93,5.93,0,0,1-.74-3.02,5.985,5.985,0,0,1,.74-3.03,4.977,4.977,0,0,1,2.03-1.97A6.144,6.144,0,0,1,19.42-11.22Zm0,2.44a2.7,2.7,0,0,0-2,.83,3.288,3.288,0,0,0-.82,2.41,3.288,3.288,0,0,0,.82,2.41,2.7,2.7,0,0,0,2,.83,2.7,2.7,0,0,0,2-.83,3.288,3.288,0,0,0,.82-2.41,3.288,3.288,0,0,0-.82-2.41A2.7,2.7,0,0,0,19.42-8.78Zm10.5-.18a4.635,4.635,0,0,1,1.64-1.67,4.357,4.357,0,0,1,2.28-.61v3.02h-.82q-3.1,0-3.1,2.88V0H27.1V-11.08h2.82Zm15.9,3a5.339,5.339,0,0,1-.1.96H37.6a3.054,3.054,0,0,0,.8,2.18,2.574,2.574,0,0,0,1.84.7,2.67,2.67,0,0,0,1.63-.48,2.126,2.126,0,0,0,.83-1.3h2.98a4.767,4.767,0,0,1-.94,2.08A4.912,4.912,0,0,1,42.89-.38a5.933,5.933,0,0,1-2.51.52A5.9,5.9,0,0,1,37.5-.55a4.85,4.85,0,0,1-1.96-1.97,6.2,6.2,0,0,1-.7-3.02,6.259,6.259,0,0,1,.7-3.03,4.771,4.771,0,0,1,1.96-1.97,5.968,5.968,0,0,1,2.88-.68,5.837,5.837,0,0,1,2.87.68,4.793,4.793,0,0,1,1.9,1.87A5.427,5.427,0,0,1,45.82-5.96Zm-2.84-.28a2.485,2.485,0,0,0-.71-2.06A2.707,2.707,0,0,0,40.38-9a2.77,2.77,0,0,0-1.92.7,2.866,2.866,0,0,0-.86,2.06Zm9.18-4.98a4.258,4.258,0,0,1,2.4.66,3.6,3.6,0,0,1,1.42,1.78v-2.3h2.8V0h-2.8V-2.32A3.648,3.648,0,0,1,54.56-.53a4.211,4.211,0,0,1-2.4.67,4.759,4.759,0,0,1-2.52-.68,4.594,4.594,0,0,1-1.75-1.97,6.832,6.832,0,0,1-.63-3.03,6.832,6.832,0,0,1,.63-3.03,4.594,4.594,0,0,1,1.75-1.97A4.759,4.759,0,0,1,52.16-11.22Zm.88,2.46a2.758,2.758,0,0,0-2.12.86,3.329,3.329,0,0,0-.8,2.36,3.293,3.293,0,0,0,.8,2.35,2.775,2.775,0,0,0,2.12.85,2.79,2.79,0,0,0,2.11-.87,3.235,3.235,0,0,0,.83-2.33,3.263,3.263,0,0,0-.83-2.35A2.79,2.79,0,0,0,53.04-8.76Z" transform="translate(1074 1514)" fill="#181c3a"/>
    <path id="Path_13372" data-name="Path 13372" d="M9.3-14.12v9.96A4.286,4.286,0,0,1,8.17-.99,4.23,4.23,0,0,1,5.04.14,4.664,4.664,0,0,1,1.62-1.1,4.745,4.745,0,0,1,.36-4.64H3.14a2.66,2.66,0,0,0,.45,1.66,1.58,1.58,0,0,0,1.33.58A1.428,1.428,0,0,0,6.1-2.87a2,2,0,0,0,.38-1.29v-9.96Zm6.8,2.9a4.258,4.258,0,0,1,2.4.66,3.6,3.6,0,0,1,1.42,1.78v-2.3h2.8V0h-2.8V-2.32A3.648,3.648,0,0,1,18.5-.53a4.211,4.211,0,0,1-2.4.67,4.759,4.759,0,0,1-2.52-.68,4.594,4.594,0,0,1-1.75-1.97,6.832,6.832,0,0,1-.63-3.03,6.832,6.832,0,0,1,.63-3.03,4.594,4.594,0,0,1,1.75-1.97A4.759,4.759,0,0,1,16.1-11.22Zm.88,2.46a2.758,2.758,0,0,0-2.12.86,3.329,3.329,0,0,0-.8,2.36,3.293,3.293,0,0,0,.8,2.35,2.775,2.775,0,0,0,2.12.85,2.79,2.79,0,0,0,2.11-.87,3.235,3.235,0,0,0,.83-2.33,3.263,3.263,0,0,0-.83-2.35A2.79,2.79,0,0,0,16.98-8.76ZM31.9-11.22a4.759,4.759,0,0,1,2.52.68,4.594,4.594,0,0,1,1.75,1.97,6.832,6.832,0,0,1,.63,3.03,6.832,6.832,0,0,1-.63,3.03A4.594,4.594,0,0,1,34.42-.54,4.759,4.759,0,0,1,31.9.14a4.163,4.163,0,0,1-2.39-.67A3.666,3.666,0,0,1,28.1-2.32v7.6H25.28V-11.08H28.1v2.3a3.612,3.612,0,0,1,1.41-1.78A4.21,4.21,0,0,1,31.9-11.22Zm-.88,2.46a2.79,2.79,0,0,0-2.11.87,3.263,3.263,0,0,0-.83,2.35,3.235,3.235,0,0,0,.83,2.33,2.79,2.79,0,0,0,2.11.87,2.775,2.775,0,0,0,2.12-.85,3.293,3.293,0,0,0,.8-2.35,3.329,3.329,0,0,0-.8-2.36A2.758,2.758,0,0,0,31.02-8.76Zm12.12-2.46a4.258,4.258,0,0,1,2.4.66,3.594,3.594,0,0,1,1.42,1.78v-2.3h2.8V0h-2.8V-2.32A3.648,3.648,0,0,1,45.54-.53a4.211,4.211,0,0,1-2.4.67,4.759,4.759,0,0,1-2.52-.68,4.594,4.594,0,0,1-1.75-1.97,6.832,6.832,0,0,1-.63-3.03,6.832,6.832,0,0,1,.63-3.03,4.594,4.594,0,0,1,1.75-1.97A4.759,4.759,0,0,1,43.14-11.22Zm.88,2.46a2.758,2.758,0,0,0-2.12.86,3.329,3.329,0,0,0-.8,2.36,3.293,3.293,0,0,0,.8,2.35,2.775,2.775,0,0,0,2.12.85,2.79,2.79,0,0,0,2.11-.87,3.235,3.235,0,0,0,.83-2.33,3.263,3.263,0,0,0-.83-2.35A2.79,2.79,0,0,0,44.02-8.76Zm14.9-2.48a3.923,3.923,0,0,1,3.06,1.26,5.09,5.09,0,0,1,1.14,3.54V0h-2.8V-6.12a2.893,2.893,0,0,0-.68-2.05,2.418,2.418,0,0,0-1.86-.73,2.487,2.487,0,0,0-1.92.78,3.186,3.186,0,0,0-.72,2.24V0H52.32V-11.08h2.82v2.22a3.53,3.53,0,0,1,1.45-1.75A4.31,4.31,0,0,1,58.92-11.24Z" transform="translate(1350 1582)" fill="#181c3a"/>
    <g id="Group_3830" data-name="Group 3830" transform="translate(792.816 1358.439)">
      <path id="Path_13120" data-name="Path 13120" d="M769.728,63.775c.838,1.475.365,2.572-.79,3.714a6.106,6.106,0,0,1-6.745,1.733c-2.461-.779-5.076-1.065-7.615-1.606a1.51,1.51,0,0,0-1.774.561c-2.473,3.626-5.942,4.493-10.151,4.139-2.2-.185-4.128-.48-5.905-1.861-1.6-1.24-3.365-2.254-5.038-3.4-1.693-1.156-1.848-2.323-.834-4.108,3.386-5.954,8.091-10.784,13.038-15.4a2.459,2.459,0,0,0,.786-2.72c-.667-2.828-1.059-5.722-1.754-8.542a3.385,3.385,0,0,1,1.323-4.037h16.867a6.985,6.985,0,0,1,2.492,1.517c2.782,2.252,5.616,4.44,8.364,6.734a3.969,3.969,0,0,0,3.435.938c4.557-.732,9.136-1.32,13.7-1.991,2.01-.295,2.858.162,3.554,1.859V58.172a3.77,3.77,0,0,1-3.575,1.591c-2.485-.107-4.979.027-7.466-.047-1.843-.055-3.507.031-4.981,1.462-1.01.98-2.312.644-3.377-.274-1.116-1.011-1.33-2.079-.355-3.235,1.629-1.932,3.4-3.614,6.3-3.388,2.173.17,4.37.013,6.556.041,1.064.013,1.5-.429,1.484-1.492-.032-1.821,0-3.644-.011-5.465-.012-1.586-.166-1.739-1.714-1.514-3.811.555-7.631,1.046-11.432,1.657a4.708,4.708,0,0,1-4.033-1.1c-3.093-2.547-6.265-5-9.365-7.538a4.906,4.906,0,0,0-3.423-1.218c-2.341.071-4.685.048-7.026.008-1.15-.02-1.459.428-1.221,1.52.464,2.135.791,4.3,1.318,6.423a4.4,4.4,0,0,1-1.422,4.625c-2.445,2.337-4.758,4.812-7.206,7.147a32.678,32.678,0,0,0-4.208,5.406c-.574.838-.358,1.3.38,1.932a9.286,9.286,0,0,0,7.413,2.1,3.252,3.252,0,0,0,2.068-.958c.885-.882,1.785-1.749,2.65-2.649A3.915,3.915,0,0,1,754,62.011c2.8.616,5.618,1.1,8.414,1.717a3.985,3.985,0,0,0,3.381-.63C767.408,61.976,768.86,62.291,769.728,63.775Z" transform="translate(-136.561)" fill="#181c3a" fill-rule="evenodd"/>
      <path id="Path_13121" data-name="Path 13121" d="M496.2,326.781a6.755,6.755,0,0,1,2.541-1.879c2.748-1.336,5.471-2.725,8.209-4.084,1.912-.949,2.713-.791,4.069.773q.715.824,1.424,1.652c1.541,1.806,1.587,2.4.345,4.4a2.376,2.376,0,0,1-3.568-.053,2.34,2.34,0,0,0-3.169-.325c-3.651,1.909-3.771,1.906-2.1,5.734,2.807,6.413,4.383,13.207,6.376,19.874.229.767.222,1.812,1.324,1.864,1.3.061,2.6.374,3.693-.96,2.843-3.463,4.044-7.55,4.9-11.808a2.061,2.061,0,0,0-.509-1.865c-1.24-1.469-2.476-2.941-3.752-4.378a8.027,8.027,0,0,1-1.417-2.041,2.129,2.129,0,0,1,1.186-3.017,2.419,2.419,0,0,1,3.466.519c2.084,2.389,4.143,4.8,6.2,7.209a2.849,2.849,0,0,1,.612,2.757q-1.171,4.438-2.241,8.9a6.138,6.138,0,0,1-1.011,2.248c-1.915,2.612-3.306,5.6-5.66,7.9h-9.37a2.706,2.706,0,0,1-1.983-2.141c-1.122-3.944-2.3-7.873-3.363-11.832a90.39,90.39,0,0,0-3.839-11.017,41.513,41.513,0,0,1-2.372-6.557Z" transform="translate(0 -168.034)" fill="#181c3a" fill-rule="evenodd"/>
      <path id="Path_13123" data-name="Path 13123" d="M637.207,171.139c-1.726-1.225-1.973-1.947-1.272-3.965.836-2.4,1.681-4.807,2.573-7.192a2.311,2.311,0,0,0-.074-2.069c-1-1.884-1.958-3.789-2.858-5.72a1.559,1.559,0,0,0-1.692-1.006c-2.133.055-4.27.072-6.4-.006-1.007-.037-1.349.337-1.5,1.283-.574,3.7-1.236,7.377-1.823,11.07a4.885,4.885,0,0,1-.772,2.011c-3.123,4.67-6.258,9.332-9.339,14.03a3.334,3.334,0,0,1-3.122,1.632c-3.851-.05-7.7.015-11.555-.04a1.9,1.9,0,0,0-1.952,1.12c-2.692,4.81-5.483,9.566-8.17,14.379a3.665,3.665,0,0,1-3.17,2.1c-7.3.657-14.587,1.423-21.88,2.133a5.965,5.965,0,0,0-2.9.994c-3.382,2.31-6.8,4.565-10.305,6.906,2.285,1.721,4.419,3.38,6.611,4.957a3.156,3.156,0,0,1,1.534,3.022,1.355,1.355,0,0,1,0,.155c-.938,4.482,1.127,7.606,4.492,10.227a1.292,1.292,0,0,0,1.857.118c3.874-2.628,7.8-5.187,11.67-7.817a3.542,3.542,0,0,1,3.22-.567c2.095.606,4.251,1,6.339,1.628a1.981,1.981,0,0,0,2.469-.874c2.514-3.251,5.128-6.425,7.668-9.655a3.349,3.349,0,0,1,2.5-1.357c7.451-.7,14.9-1.459,22.347-2.173a3.056,3.056,0,0,0,2.053-.953c1.369-1.427,2.753-2.844,4.2-4.188a1.409,1.409,0,0,0,.424-1.9c-2.16-4-1.614-7.879.211-11.875,1.333-2.92,2.206-6.05,3.316-9.074.7-1.9,1.356-2.3,3.4-2.2,1.706,1.2,1.97,1.987,1.272,3.956-1.472,4.155-2.945,8.31-4.455,12.451a2.877,2.877,0,0,0-.03,2.1c.631,1.757,1.138,3.557,1.776,5.311a2.634,2.634,0,0,1-.621,3q-3.629,3.656-7.284,7.286a3.058,3.058,0,0,1-1.958.84c-7.35.713-14.695,1.469-22.047,2.152a3.207,3.207,0,0,0-2.47,1.318c-2.621,3.364-5.333,6.656-7.962,10.015a3.063,3.063,0,0,1-3.657,1.244c-2.338-.686-4.74-1.154-7.092-1.8a2.347,2.347,0,0,0-2.159.371c-4.127,2.8-8.291,5.542-12.453,8.288-1.92,1.266-2.74,1.173-4.354-.432-2.139-2.13-4.248-4.289-6.416-6.388a3.9,3.9,0,0,1-1.277-3.035c.013-1.86.642-3.992-.245-5.51-.848-1.451-2.76-2.282-4.21-3.378-1.41-1.066-2.844-2.1-4.238-3.188-1.789-1.393-1.748-3.2.132-4.467,4.785-3.22,9.594-6.4,14.39-9.607a3.965,3.965,0,0,1,1.883-.648c7.35-.716,14.7-1.472,22.046-2.174a2.07,2.07,0,0,0,1.821-1.168c2.75-4.885,5.586-9.722,8.309-14.623a3.51,3.51,0,0,1,3.508-2.018c3.9.077,7.805.006,11.708.042a1.679,1.679,0,0,0,1.636-.854c2.588-3.955,5.239-7.87,7.854-11.808,1.085-1.635.921-3.593,1.28-5.405.617-3.107,1.06-6.248,1.592-9.372.324-1.9,1.1-2.553,3.068-2.559,3.8-.012,7.6.032,11.4-.021a3.024,3.024,0,0,1,3.062,1.915q2.164,4.489,4.455,8.915a3.609,3.609,0,0,1,.2,3.131c-1.079,2.918-2.093,5.86-3.151,8.787C639.941,170.792,639.242,171.228,637.207,171.139Z" transform="translate(-27.958 -66.483)" fill="#181c3a" fill-rule="evenodd"/>
      <path id="Path_13126" data-name="Path 13126" d="M699.193,139.183c-.881,0-1.766.055-2.641-.012a2.46,2.46,0,0,1-2.355-2.428,2.431,2.431,0,0,1,2.413-2.522c1.707-.069,3.421-.067,5.128,0a2.435,2.435,0,0,1,2.435,2.5,2.48,2.48,0,0,1-2.493,2.457c-.826.049-1.657.009-2.487.009Z" transform="translate(-115.528 -59.47)" fill="#1e0303" fill-rule="evenodd"/>
      <path id="Path_13127" data-name="Path 13127" d="M633.165,361.15c-.88,0-1.766.059-2.641-.014a2.462,2.462,0,0,1-2.318-2.463,2.41,2.41,0,0,1,2.3-2.474c1.809-.083,3.63-.089,5.438,0a2.471,2.471,0,0,1,.02,4.917,21.933,21.933,0,0,1-2.795.023Z" transform="translate(-77.024 -188.984)" fill="#1e0303" fill-rule="evenodd"/>
      <path id="Path_13128" data-name="Path 13128" d="M595.866,289.189c-.362,0-.726.017-1.087-.005a2.49,2.49,0,1,1-.065-4.979c.722-.043,1.449-.027,2.173-.008,1.72.044,2.78.984,2.8,2.461s-1.047,2.467-2.734,2.529C596.592,289.2,596.229,289.191,595.866,289.189Z" transform="translate(-56.023 -146.998)" fill="#1e0303" fill-rule="evenodd"/>
      <path id="Path_13129" data-name="Path 13129" d="M625.928,289.213c-2.547,0-3.7-.773-3.717-2.481s1.151-2.517,3.677-2.518c2.636,0,3.838.808,3.8,2.557C629.645,288.467,628.5,289.213,625.928,289.213Z" transform="translate(-73.525 -147.019)" fill="#1e0303" fill-rule="evenodd"/>
    </g>
    <path id="Path_13130" data-name="Path 13130" d="M0,105S23.875,90,61.5,85s67.312,9.477,89,0c44.625-19.5,1.875-36.75,28-58S255,0,255,0" transform="translate(255.5 1507.5)" fill="none" stroke="#707070" stroke-width="1" stroke-dasharray="6"/>
    <path id="Path_13131" data-name="Path 13131" d="M11,7.5s9.55,7.686,36.5,8.5c19.725.6,43.135-15.912,64-3.5,22.084,13.137,14.125,63.625,35,89.5s40,17.5,40,17.5" transform="translate(617.5 1497.5)" fill="none" stroke="#707070" stroke-width="1" stroke-dasharray="6"/>
    <path id="Path_13132" data-name="Path 13132" d="M8.5,110S22,118.5,57,92.5c16.765-12.454,21.25-47.875,42-71s35-21,35-21" transform="translate(920.5 1510.5)" fill="none" stroke="#707070" stroke-width="1" stroke-dasharray="6"/>
    <path id="Path_13133" data-name="Path 13133" d="M3.5,4.5s8.125,32.875,55.5,49c18.524,6.3,43.5,44.125,77,48S193,69,193,69" transform="translate(1141.5 1507.5)" fill="none" stroke="#707070" stroke-width="1" stroke-dasharray="6"/>
    <g id="Group_3872" data-name="Group 3872" transform="translate(-151.199 1495.077)">
      <path id="Path_13235" data-name="Path 13235" d="M718.76,158.669a8.368,8.368,0,0,0-4.5-1.24c-2.514.148-3.862-1.21-4.8-4.286-.917,0-1.825.005-2.734,0a4.228,4.228,0,0,1-3.55-1.729,1.488,1.488,0,0,0-1.737-.6c-3.159.552-6.308.872-9.247-.928-.28-.171-.712-.07-1.049-.173q-2.216-.679-4.416-1.411c-.452-.15-.882-.367-1.322-.552-1.441-.6-2.924-1.122-4.311-1.83a4.146,4.146,0,0,1-2.348-4.041,1.485,1.485,0,0,0-.933-1.6c-2.76-1.372-3.4-2.928-2.111-5.737,1-2.184,2.259-4.251,3.438-6.351,2.2-3.925,4.4-7.853,5.43-12.293.207-.9.241-1.835.467-2.726.47-1.854,1.04-3.682,1.511-5.536a3.969,3.969,0,0,0,.031-1.544c-.264-1.7-.673-3.375-.857-5.079a3.864,3.864,0,0,0-1.821-3.289c-2.994-1.985-4.148-5.2-4.629-8.645a2.14,2.14,0,0,1,.373-1.357,2.4,2.4,0,0,0-.06-2.932,17.977,17.977,0,0,0-3.055-3.53,60.874,60.874,0,0,0-6.607-4.607,12.472,12.472,0,0,0-3.717-1.225,10.077,10.077,0,0,1-4.9-2.432,4.259,4.259,0,0,1-.926-5.188c.291-.611.686-1.172,1.056-1.794a.983.983,0,0,0-.152-.268c-2.307-2.18-2.048-4.692.693-6.318a9.382,9.382,0,0,1,6.115-1.41,22.67,22.67,0,0,1,4.224,1.482c2.33-1.566,5.125-1.019,7.853-.323a3.258,3.258,0,0,1,1.639,1.737c1.01,2.121,1.449,2.321,3.732,1.8A26.691,26.691,0,0,1,689.4,62.4c-.209-.966-.462-2.251-.772-3.523q-.427-1.754-.955-3.483c-1.368-4.457,1.637-7.166,5.957-6.429a8.9,8.9,0,0,1,6.5,4.524,4.2,4.2,0,0,0,4.735,2.275,1.359,1.359,0,0,0,.889-.742c.853-3.49,3.184-4.366,6.048-4.419a11.911,11.911,0,0,0,6.283-1.789,3.472,3.472,0,0,0,.923-1.374c.346-.668.556-1.414.948-2.05a4.416,4.416,0,0,0,.67-3.438,3.426,3.426,0,0,1,2.2-4.389c1.956-.806,4.034-1.315,6.058-1.957.487-.155.972-.321,1.457-.482h1.448a17.054,17.054,0,0,1,2.163,2.339,24.944,24.944,0,0,0,6.01,6.991,8.481,8.481,0,0,1,2.6,3.249c.889,2.028,2.3,2.646,4.352,2.646,3.39,0,4.378.788,5.256,4.086a2.039,2.039,0,0,0,2,1.726c.52.043,1.036.136,1.553.208a8.179,8.179,0,0,1,5.813,3.039,4.05,4.05,0,0,0,1.377.862,17.33,17.33,0,0,1,3.751,2.047,7.776,7.776,0,0,0,3.664,1.811,62.587,62.587,0,0,1,7.457,2.278,4.315,4.315,0,0,1,2.9,4.329,5.684,5.684,0,0,1-2.207,4.148,6.835,6.835,0,0,0-2.315,4.488c-.336,2.386-.592,4.784-.933,7.169-.4,2.817-.993,5.535-4.273,6.47a1.353,1.353,0,0,0-.485.351c-1.987,1.868-4.092,3.479-6.939,3.838-.924.116-1.23.976-1.262,1.832a1.439,1.439,0,0,0,1.217,1.656,13.151,13.151,0,0,1,2.379.843,4.922,4.922,0,0,1,3.174,4.327,7.824,7.824,0,0,0,.36,2.369c.82,1.961.7,3.68-1.007,5.1a5.684,5.684,0,0,1,1.838,4.779,4.752,4.752,0,0,1-3.032,3.8,30.638,30.638,0,0,1,2.59,4.493c.725,1.924-.661,3.2-2.121,4.216a3.563,3.563,0,0,0,3.464,1.987,7.159,7.159,0,0,1,1.8.092A2.573,2.573,0,0,1,775,136.483a10.773,10.773,0,0,0-.733,2.275,7.577,7.577,0,0,1-4.787,6.179c-1.4.585-2.906.915-4.331,1.449a2.279,2.279,0,0,0-1.2.966,8.449,8.449,0,0,1-12.8,3.259c-.935-.693-1.812-1.466-2.71-2.211a4.407,4.407,0,0,0-3.588-1,12.774,12.774,0,0,1-3.837.109,7.934,7.934,0,0,1-3.692-1.493,2.764,2.764,0,0,0-3.014-.651c-.5.162-1.007.273-1.5.437-4.446,1.475-5.9,3.764-5.319,8.375.04.318.123.631.176.948.33,1.938.033,2.572-1.656,3.545h-1.206c-1.287-1.3-2.574-.749-3.861,0Zm18.307-18.517c.022-.337.065-.687.065-1.037q0-44.93-.03-89.86a2.692,2.692,0,0,0-.783-1.572c-1.457-1.593-3.008-3.1-4.476-4.683-.759-.819-1.279-2.216-2.16-2.468-.957-.274-2.2.505-3.334.77-.686.16-.882.5-.8,1.193a7.871,7.871,0,0,1-1.218,4.941,2.753,2.753,0,0,0-.483.957c-.252,2.568-1.985,3.914-4.038,5.019a16.082,16.082,0,0,1-7.853,2.006c-.67,0-1.4-.072-1.5.945-.2,2.2-1.666,3.312-3.606,3.865a35.578,35.578,0,0,1-3.582.648v1.416q0,14.474-.007,28.948a6.027,6.027,0,0,1-.18,1.664,2.263,2.263,0,0,1-2.511,1.613,2.305,2.305,0,0,1-2.1-2.123c-.043-.439-.027-.884-.027-1.326q0-15.559-.017-31.119a2.63,2.63,0,0,0-.4-1.412c-.7-1.018-1.542-1.939-2.265-2.944a4.37,4.37,0,0,0-3.521-1.912c.156.584.3,1.032.395,1.49a60.657,60.657,0,0,1,1.465,7.417c.289,3.614-2.695,5.854-6.26,5.051a4.816,4.816,0,0,0-1.981-.033c-3.473.723-5.921-.3-7.78-3.347a2.088,2.088,0,0,0-3.236-.276,2.832,2.832,0,0,1-3.49.792,23.357,23.357,0,0,1-2.728-1.523c-1.012-.614-1.147-.644-2.445-.142,2.217,2.689-.015,4.563-1.456,6.768.97.3,1.76.535,2.546.782a20.044,20.044,0,0,1,4.3,1.422,62.784,62.784,0,0,1,7.935,5.426,24.216,24.216,0,0,1,4.324,5.114,6.523,6.523,0,0,1,.78,5.782,5.126,5.126,0,0,0,2.589,5.691,4.144,4.144,0,0,1,2.617,2.941c.332,1.4.483,2.841.71,4.266.145.908-.011,2.051.487,2.679,1.448,1.829.861,3.494.119,5.3a27.814,27.814,0,0,0-1.276,3.983c-.53,2.177-.777,4.433-1.44,6.564-1.5,4.829-4.166,9.112-6.666,13.464-.516.9-1,1.814-1.5,2.733.578.433,1.074.772,1.533,1.155a4.228,4.228,0,0,1,1.706,3.445,1.637,1.637,0,0,0,1.321,1.816c1.462.537,2.895,1.154,4.355,1.7.812.3,1.652.531,2.485.773a21.168,21.168,0,0,1,3.067.89,6.113,6.113,0,0,0,3.724.489v-1.452q0-15.319.005-30.637a2.445,2.445,0,0,1,2.387-2.745c1.411,0,2.379,1.089,2.431,2.74.01.321,0,.643,0,.965q0,14.594,0,29.189v1.421l.289-.218a10.384,10.384,0,0,1,2.542,1.839,1.972,1.972,0,0,0,2.352.816,10.645,10.645,0,0,1,1.184-.214,3.674,3.674,0,0,1,4.277,2.837c.169.573.294,1.158.47,1.861a6.413,6.413,0,0,1,5.182,1,.992.992,0,0,0,.773-.046c.725-.31,1.427-.675,2.146-1.023C722.325,145.822,727.127,140.887,737.068,140.152Zm38.687-69.487a14.736,14.736,0,0,0-1.7-.661c-2.18-.543-4.405-.934-6.543-1.606a17.251,17.251,0,0,1-3.319-1.806,18.9,18.9,0,0,0-2.822-1.691,8.706,8.706,0,0,1-3.575-2.324,6.173,6.173,0,0,0-2.307-1.335,9.947,9.947,0,0,0-2.02-.3c-3-.48-5.137-1.969-5.9-5.057-.056-.224-.134-.441-.167-.547l-5.372-.862v88.2a11.7,11.7,0,0,0,2.065-.018,8.867,8.867,0,0,1,7.6,2.179c.9.743,1.772,1.525,2.735,2.173,1.609,1.082,4.43.308,4.981-1.524.68-2.256,2.3-3.145,4.308-3.739,1.306-.386,2.628-.75,3.888-1.26a2.758,2.758,0,0,0,1.831-3.03c-6.038-1.7-8.044-6.127-4.913-10.665a49.4,49.4,0,0,1-3.08-4.3c-1.285-2.245-.2-4.469,2.317-5.1.443-.111.893-.2,1.5-.337-.5-.409-.866-.7-1.223-1.011-1.59-1.376-2.013-3.343-.589-4.631,1.274-1.152,1.054-2.235.994-3.645a2.236,2.236,0,0,0-2.081-2.4,5.826,5.826,0,0,1-3.7-2.286,6.968,6.968,0,0,1,4.2-10.751,10.769,10.769,0,0,0,3.181-1.519,34.495,34.495,0,0,1,2.89-2.134,2.355,2.355,0,0,0,1.449-2.11c.238-2.075.47-4.151.735-6.223.436-3.406,1.23-6.655,4.087-8.964A4.661,4.661,0,0,0,775.754,70.665Z" transform="translate(0 0)" fill="#181c3a" fill-rule="evenodd"/>
      <path id="Path_13236" data-name="Path 13236" d="M849.976,417.435c1.287-.749,2.574-1.3,3.861,0Z" transform="translate(-129.044 -258.766)" fill="#181c3a" fill-rule="evenodd"/>
      <path id="Path_13237" data-name="Path 13237" d="M782.566,243.393a2.327,2.327,0,0,1-2.423-2.306,2.4,2.4,0,0,1,2.4-2.481,2.461,2.461,0,0,1,2.395,2.4A2.4,2.4,0,0,1,782.566,243.393Z" transform="translate(-81.68 -138.006)" fill="#181c3a" fill-rule="evenodd"/>
    </g>
    <g id="Group_3873" data-name="Group 3873" transform="translate(-42.945 1396.968)">
      <path id="Path_13238" data-name="Path 13238" d="M893.2,37.336c9.432,3.314,14.909,10.749,19.634,19.116,2.384-.929,4.651-1.8,6.911-2.695,3.137-1.239,6.263-2.506,9.4-3.736,6.084-2.385,11.628-1.477,16.6,2.774,1.752,1.5,3.474,3.026,5.229,4.518a15.786,15.786,0,0,1,5.753,12.235,3.045,3.045,0,0,1,0,.461c-.815,6,1,11.248,4.071,16.375,3.412,5.693,6.329,11.686,9.415,17.572a13.367,13.367,0,0,1-1.515,15.334c-2.605,3.021-6.043,3.4-9.278,1.079a1.723,1.723,0,0,0-1.451-.184q-9.586,4.477-19.108,9.089a1.69,1.69,0,0,0-.739,1.269c-.056,4.146-.066,8.294.007,12.439a2.471,2.471,0,0,0,.876,1.6c4.673,3.906,9.362,7.794,14.11,11.608a4.548,4.548,0,0,1,1.926,4.073c-.1,2.094-.006,4.2-.031,6.3-.027,2.27-1.13,3.333-3.363,3.53a4.519,4.519,0,0,0-2.189.8c-1.851,1.367-3.644,2.82-5.377,4.334a2.279,2.279,0,0,0-.682,1.639c.142,2.09.433,4.171.684,6.252a5.13,5.13,0,0,1-2.207,5.215,5.066,5.066,0,0,1-5.652.181,23.261,23.261,0,0,0-2.66-1.514,1.8,1.8,0,0,0-1.643.266,17.208,17.208,0,0,1-11.375,7.416h-4.3c-2.091-.847-4.177-1.708-6.281-2.521a1.382,1.382,0,0,0-.971.073c-1.692.791-3.363,1.627-5.041,2.448h-1.844a4.23,4.23,0,0,1-2.1-4.243c.076-1.263-.825-1.808-1.7-.961-2.983,2.874-5.718,1.949-8.611-.123-1.657-1.187-3.524-2.077-5.266-3.149a1.657,1.657,0,0,0-2.415.274c-2.663,2.782-5.6,3.311-9.068,1.739-1.537-.7-3.074-1.4-4.579-2.157-3.235-1.639-4.569-4.9-4.067-8.483.752-5.364,1.2-10.772,1.693-16.169.031-.337-.536-.915-.945-1.077-3.231-1.281-6.5-2.47-9.741-3.722a14.111,14.111,0,0,1-9.5-13.682c-.019-2.047-.034-4.1.013-6.144a3.048,3.048,0,1,1,6.093-.125c.095,1.673.02,3.356.02,5.136h80.014v-1.633c0-3.891.046-7.785-.019-11.675a3.838,3.838,0,0,1,2.485-3.957c6.767-3.149,13.522-6.329,20.213-9.637,3.207-1.586,6.133-1.83,8.852.782a6.683,6.683,0,0,0,1.679-8.007c-1.692-3.5-3.578-6.9-5.429-10.317a1.823,1.823,0,0,0-1.052-.654,4.494,4.494,0,0,0-1.222-.026c-31.134,0-62.269-.08-93.4.113-3.405.021-6.834,1.5-10.184,2.522-1.349.412-1.911,1.77-1.911,3.23,0,2,.02,4-.014,5.991-.039,2.228-1.27,3.57-3.174,3.527-1.845-.041-2.938-1.331-2.959-3.541-.018-2-.029-3.995,0-5.991a9.739,9.739,0,0,1,7.393-9.574c1.669-.483,3.362-.907,4.986-1.515a2.344,2.344,0,0,0,1.291-1.37c1.1-4.361,2.31-8.714,3.052-13.142.46-2.742.145-5.612.215-8.423a8.9,8.9,0,0,1,13.118-7.715,13.232,13.232,0,0,1,2.995,2.571c.6.625,1.015.726,1.63.1,1.112-1.132,2.324-2.174,3.356-3.374a3.217,3.217,0,0,0,.635-1.922c.057-3.891.18-7.79-.011-11.673-.225-4.59,1.532-7.692,5.961-9.152Zm62.9,53.137c-1.614-3.054-3.163-5.813-4.533-8.66a9.674,9.674,0,0,1-.932-3.625c-.135-2.81-.036-5.63-.045-8.446a9.634,9.634,0,0,0-3.522-7.687c-1.72-1.454-3.428-2.924-5.107-4.426a9.58,9.58,0,0,0-10.815-1.8c-5.774,2.351-11.588,4.606-17.387,6.9-2.481.98-3.612.625-5.056-1.575-1.994-3.037-3.923-6.118-5.991-9.1a23.928,23.928,0,0,0-9.363-7.979c-2.106-1.023-2.681-.681-2.686,1.615-.008,4.3-.022,8.6,0,12.9a7.6,7.6,0,0,1-2.45,5.9c-1.2,1.118-2.334,2.3-3.518,3.433-3.305,3.16-7.556,2.943-10.454-.584-.94-1.144-2.014-1.8-3.461-1.306a2.8,2.8,0,0,0-1.9,3.155,47.475,47.475,0,0,1-2.049,16.654c-.427,1.49-.687,3.028-1.042,4.626ZM854.009,148.046l-.259.64a34.409,34.409,0,0,0,4.035,2.273c4.075,1.645,8.213,3.132,12.315,4.709,1.738.668,2.442,1.633,2.278,3.382-.624,6.619-1.341,13.229-1.926,19.85a2.312,2.312,0,0,0,.963,1.761c1.2.754,2.585,1.219,3.853,1.879a1.874,1.874,0,0,0,2.549-.529,7.2,7.2,0,0,1,9.357-1.3c1.911,1.09,3.842,2.153,5.678,3.359a1.82,1.82,0,0,0,2.566-.113,4.542,4.542,0,0,1,5.129-.82,16.444,16.444,0,0,0,1.92.53c1.7.45,3.384.915,3.786,3.23,2.628-2.171,4.864-1.51,7.2.1a8.787,8.787,0,0,0,7.641,1.166,10.387,10.387,0,0,0,5.629-4.269c2.655-3.7,6.088-4.42,10.036-2.219a9.7,9.7,0,0,0,1.023.409c-.2-1.7-.352-3.228-.555-4.744-.311-2.316.076-4.46,1.913-6.02q4.153-3.528,8.494-6.832a2.847,2.847,0,0,0,.153-4.705c-4.312-3.54-8.648-7.053-12.925-10.636a4.378,4.378,0,0,0-3.031-1.127q-38.1.045-76.193.023Z" transform="translate(0)" fill="#181c3a" fill-rule="evenodd"/>
      <path id="Path_13239" data-name="Path 13239" d="M848.924,244.619a2.979,2.979,0,0,1-3.058-2.965,3.064,3.064,0,0,1,3.08-3.138,3.151,3.151,0,0,1,3.021,3.081A3.064,3.064,0,0,1,848.924,244.619Z" transform="translate(-0.045 -118.735)" fill="#181c3a" fill-rule="evenodd"/>
    </g>
    <g id="Group_3874" data-name="Group 3874" transform="translate(544.613 1549.302)">
      <path id="Path_13240" data-name="Path 13240" d="M574.052-5.84c.681.533,1.4,1.027,2.037,1.606,6.72,6.095,12.173,13.28,17.583,20.5,1.192,1.59,1.055,3.352-.3,4.389s-3.057.738-4.3-.845c-1.56-1.979-3.126-3.959-4.6-6A84.394,84.394,0,0,0,573.1,1.117a3.131,3.131,0,0,0-.58.422c-2.315,2.7-5.259,3.337-8.722,3.161-4.789-.243-9.6-.077-14.4-.038a2.191,2.191,0,0,0-1.512.53c-3.458,4.118-6.856,8.287-10.045,12.169.6,1.984,1.171,3.705,1.643,5.453,1.033,3.833,2.025,7.678,3.019,11.522.747,2.889-.427,4.572-3.391,4.334-2.4-.194-4.041.955-5.733,2.25-1.1.843-2.774,1.516-3.122,2.607-.324,1.013.765,2.48,1.238,3.745.186.5.439.979.574,1.49.39,1.467.981,2.457,2.837,2.279a2.527,2.527,0,0,1,2.474,1.923c1.714,4.58,3.5,9.134,5.079,13.76a4.475,4.475,0,0,1-.366,3.146c-2.593,4.984-5.363,9.876-8,14.837a6.4,6.4,0,0,0-.713,2.727c-.087,3.053.024,6.112-.065,9.165a8.208,8.208,0,0,1-.689,3.056c-1.306,2.909-2.747,5.758-4.212,8.789.494.049.845.112,1.2.113,2.958.008,5.918-.036,8.875.029a1.693,1.693,0,0,0,1.78-1.093,62.138,62.138,0,0,1,3.175-5.876,6.2,6.2,0,0,1,2.6-2.306q9.389-3.9,18.9-7.494a5.243,5.243,0,0,1,3.316.026c2.59.9,5.085,2.079,7.722,3.19.459-1.534.871-2.92,1.291-4.3.621-2.047,1.4-2.636,3.584-2.645,3.1-.013,6.209.038,9.312-.043A2.4,2.4,0,0,0,591.8,87.2c2.04-2.71,4.042-5.455,5.932-8.27a7.149,7.149,0,0,0,.84-2.713c.518-2.952.959-5.918,1.45-9-2.7-.39-3.093-2.19-3.066-4.464.078-6.643.016-13.289.035-19.934.007-2.246,1.5-3.607,3.46-3.237,1.457.276,2.341,1.5,2.347,3.384.017,5.529.007,11.058.007,16.588v1.526c3.328.869,3.787,1.544,3.289,4.85-.678,4.5-1.364,9.006-2.113,13.5a5.333,5.333,0,0,1-.913,2.1c-2.509,3.569-5.094,7.085-7.6,10.654A3.849,3.849,0,0,1,592,93.908c-2.812-.03-5.627.023-8.439-.026a1.271,1.271,0,0,0-1.511,1.131c-.335,1.411-.8,2.79-1.233,4.178-.795,2.578-2.249,3.251-4.768,2.2-2.814-1.177-5.6-2.418-8.445-3.522a3.28,3.28,0,0,0-2.17-.012q-8,3.078-15.927,6.329a3.635,3.635,0,0,0-1.637,1.453c-1.263,2.178-2.429,4.413-3.574,6.656a3.5,3.5,0,0,1-3.473,2.111c-5.529-.055-11.058-.013-16.587-.024-2.936-.006-4.169-2-2.888-4.683,1.858-3.889,3.769-7.753,5.59-11.66a6.368,6.368,0,0,0,.563-2.489c.065-3.1-.041-6.21.063-9.31a7.531,7.531,0,0,1,.8-3.162c2.5-4.758,5.094-9.471,7.712-14.167a2.578,2.578,0,0,0,.161-2.443c-1.115-2.838-2.173-5.7-3.2-8.57-.277-.773-.605-1.223-1.528-1.133-1.8.175-2.87-.732-3.5-2.406-1.31-3.49-2.72-6.942-4.072-10.416-.831-2.134-.521-3.1,1.386-4.454,2.452-1.738,4.889-3.5,7.374-5.186.974-.663,2.059-1.16,3.3-1.845-.724-2.774-1.491-5.811-2.347-8.822-.077-.271-.737-.531-1.126-.531-1.452,0-2.734-.272-3.387-1.735-.677-1.514.042-2.668.993-3.816Q537.183,9.04,544.169.47A4.13,4.13,0,0,1,547.664-1.2c5.869.047,11.738.054,17.606-.02a4.572,4.572,0,0,0,2.45-.873c1.6-1.155,3.066-2.486,4.586-3.745Z" transform="translate(-2.875)" fill="#181c3a" fill-rule="evenodd"/>
      <path id="Path_13241" data-name="Path 13241" d="M523.151,346.748a24.579,24.579,0,0,1-2.44-2.194c-1.326-1.541-2.564-3.16-3.781-4.79a3.158,3.158,0,0,1,.2-4.369c1.742-1.886,3.5-3.76,5.363-5.529a10.248,10.248,0,0,1,7.078-2.949c4.651-.06,9.306-.113,13.954.01a4.065,4.065,0,0,1,2.674,1.356,65.238,65.238,0,0,1,3.724,5.367,2.918,2.918,0,0,1-.159,3.757q-3.226,4.027-6.5,8.018a12.56,12.56,0,0,1-1.487,1.325Zm-.605-9.268a21.437,21.437,0,0,1,1.533,2.007,2.857,2.857,0,0,0,3,1.472c2.225-.12,4.461-.019,6.692-.036,1.885-.014,4.053.508,5.578-.25,1.585-.788,2.575-2.805,3.766-4.33.314-.4.719-1.2.554-1.422-.621-.828-.749-2.236-2.2-2.236-3.88,0-7.764-.088-11.636.093a7.125,7.125,0,0,0-3.4,1.391A44.832,44.832,0,0,0,522.546,337.479Z" transform="translate(0 -203.561)" fill="#181c3a" fill-rule="evenodd"/>
      <path id="Path_13242" data-name="Path 13242" d="M717.05,79.528a2.862,2.862,0,0,1,2.894-2.837,2.9,2.9,0,1,1-.127,5.8A2.857,2.857,0,0,1,717.05,79.528Z" transform="translate(-122.924 -50.497)" fill="#181c3a" fill-rule="evenodd"/>
    </g>
  </g>
</svg>
