<svg xmlns="http://www.w3.org/2000/svg" width="700.334" height="475.145" viewBox="0 0 700.334 475.145">
  <g id="Group_3600" data-name="Group 3600" transform="translate(-1043.999 -88.73)" opacity="0.01">
    <g id="Path_2649" data-name="Path 2649" transform="translate(1281.572 88.73) rotate(45)" fill="none">
      <path d="M0,0,335.978,0l0,335.974L0,335.978Z" stroke="none"/>
      <path d="M 295.9776000976562 40.00054931640625 L 40.0040283203125 40.0040283203125 L 40.00054931640625 295.9776000976562 L 295.9740600585938 295.9740600585938 L 295.9776000976562 40.00054931640625 M 335.9781494140625 0 L 335.9734802246094 335.9734802246094 L 0 335.9781494140625 L 0.00457763671875 0.00457763671875 L 335.9781494140625 0 Z" stroke="none" fill="#fff"/>
    </g>
    <g id="Path_2650" data-name="Path 2650" transform="translate(1506.761 88.73) rotate(45)" fill="none">
      <path d="M0,0,335.978,0l0,335.974L0,335.978Z" stroke="none"/>
      <path d="M 295.9776000976562 40.00054931640625 L 40.0040283203125 40.0040283203125 L 40.00054931640625 295.9776000976562 L 295.9740600585938 295.9740600585938 L 295.9776000976562 40.00054931640625 M 335.9781494140625 0 L 335.9734802246094 335.9734802246094 L 0 335.9781494140625 L 0.00457763671875 0.00457763671875 L 335.9781494140625 0 Z" stroke="none" fill="#fff"/>
    </g>
  </g>
</svg>
