<svg xmlns="http://www.w3.org/2000/svg" xmlns:xlink="http://www.w3.org/1999/xlink" width="155.534" height="155.534" viewBox="0 0 155.534 155.534">
  <defs>
    <filter id="Rectangle_170" x="0" y="0" width="155.534" height="155.534" filterUnits="userSpaceOnUse">
      <feOffset dy="3" input="SourceAlpha"/>
      <feGaussianBlur stdDeviation="3" result="blur"/>
      <feFlood flood-opacity="0"/>
      <feComposite operator="in" in2="blur"/>
      <feComposite in="SourceGraphic"/>
    </filter>
  </defs>
  <g id="Group_3647" data-name="Group 3647" transform="translate(-184.147 -1083.208)">
    <g transform="matrix(1, 0, 0, 1, 184.15, 1083.21)" filter="url(#Rectangle_170)">
      <rect id="Rectangle_170-2" data-name="Rectangle 170" width="99.745" height="94.758" rx="10" transform="translate(76 6) rotate(45)" fill="#786afd" opacity="0.08"/>
    </g>
    <g id="Group_3694" data-name="Group 3694" transform="translate(-355.637 1104.509)">
      <path id="Path_12843" data-name="Path 12843" d="M644.443,78.625H594.01a5.678,5.678,0,0,1-3.044-1.7,6.164,6.164,0,0,1-1.216-2.559V69.3c.5-1.147,1.538-1.076,2.59-1.033v-.858c0-10.821.032-21.642-.021-32.463a4.524,4.524,0,0,1,4.772-4.781c2.511.075,5.027,0,7.54.027a.671.671,0,0,0,.769-.542,14.3,14.3,0,0,1,9-9.131,30.411,30.411,0,0,1,3.564-.845h2.533a2.343,2.343,0,0,0,.326.1A14.392,14.392,0,0,1,633.073,29.7a.613.613,0,0,0,.693.485c2.533-.018,5.066-.009,7.6-.009a4.353,4.353,0,0,1,4.747,4.711q.008,10.16,0,20.32a3.047,3.047,0,0,1-.041.629.839.839,0,0,1-1.641.008,3.706,3.706,0,0,1-.044-.744c0-6.658-.046-13.317.023-19.974a2.878,2.878,0,0,0-3.221-3.243c-2.3.086-4.6.021-6.907.021h-.636l.183,1.727h.662c2.207,0,4.413-.005,6.62,0a1.364,1.364,0,0,1,1.547,1.51c.006.192,0,.384,0,.575q0,15.859,0,31.718c0,.26,0,.52,0,.791h1.726v-.711q0-3.684,0-7.368c0-.229-.055-.52.06-.674a1.606,1.606,0,0,1,.781-.623.708.708,0,0,1,.834.616,2.988,2.988,0,0,1,.049.686q0,3.684,0,7.368v.744c1.053-.046,2.085-.114,2.59,1.032v5.066c-.043.145-.089.289-.128.435a4.923,4.923,0,0,1-3.153,3.527C645.1,78.448,644.769,78.527,644.443,78.625ZM640.93,68.243v-.788q0-10.361,0-20.722,0-5.382,0-10.764c0-.343.029-.624-.485-.618-2.072.025-4.144.016-6.216.005-.326,0-.463.077-.5.437A14.54,14.54,0,0,1,614.983,48.2a24.649,24.649,0,0,1-3.976-1.893.833.833,0,0,1-.388-1.256c.3-.461.786-.517,1.356-.155.065.041.126.088.192.127,4.6,2.8,9.3,2.969,13.854.112a12.111,12.111,0,0,0,5.923-12.567A12.839,12.839,0,0,0,610,25.333a12.744,12.744,0,0,0-1.045,16.691c.046.061.1.12.14.182a.9.9,0,0,1-.058,1.287.866.866,0,0,1-1.3-.23,14.255,14.255,0,0,1-3-7.354c-.051-.464-.2-.561-.629-.557-1.976.019-3.953.028-5.928,0-.538-.009-.669.154-.669.675q.021,15.8.012,31.6c0,.2.021.4.033.619Zm-15.9,1.774c0,.475.012.913,0,1.35a2,2,0,0,1-2.122,2.074q-3.683.011-7.366,0a2,2,0,0,1-2.114-2.082c-.013-.437,0-.875,0-1.339H591.477V73.2c0,2.432,1.256,3.7,3.67,3.7H631q6.33,0,12.66,0a3.131,3.131,0,0,0,3.267-2.785c.119-1.346.024-2.71.024-4.093ZM604.806,31.906h-7.752a2.647,2.647,0,0,0-2.985,2.969q0,16.374,0,32.748c0,.2.021.4.032.6h1.693v-.834q0-16,0-32c0-1.324.438-1.759,1.76-1.759q3.223,0,6.446,0h.628C604.69,33.038,604.743,32.527,604.806,31.906Zm10.345,38.105c0,.457,0,.858,0,1.26,0,.308.136.448.455.448,2.417-.006,4.834,0,7.251-.018a.552.552,0,0,0,.419-.326,11.828,11.828,0,0,0,.02-1.364Z" fill-rule="evenodd"/>
      <path id="Path_12844" data-name="Path 12844" d="M728.791,62.112c-2.226,0-4.452.006-6.677,0a2.726,2.726,0,0,1-2.473-4.244q3.336-5.842,6.7-11.67a2.716,2.716,0,0,1,4.907-.011q3.364,5.826,6.7,11.67a2.738,2.738,0,0,1-2.474,4.255C733.243,62.118,731.017,62.112,728.791,62.112Zm.012-1.727h4.891c.652,0,1.3.017,1.956-.007.923-.035,1.289-.668.886-1.5-.067-.138-.149-.268-.225-.4l-4.261-7.428c-.772-1.346-1.533-2.7-2.32-4.036-.53-.9-1.322-.889-1.874,0-.03.049-.059.1-.088.149q-3.275,5.707-6.549,11.416a3.013,3.013,0,0,0-.269.569.855.855,0,0,0,.613,1.164,2.522,2.522,0,0,0,.682.066Q725.524,60.389,728.8,60.385Z" transform="translate(-109.568 -21.135)" fill="#7a6cff" fill-rule="evenodd"/>
      <path id="Path_12845" data-name="Path 12845" d="M800.02,256.639a4.012,4.012,0,1,1,4.035-4.019A4.029,4.029,0,0,1,800.02,256.639Zm.014-1.727a2.285,2.285,0,1,0-2.281-2.314A2.308,2.308,0,0,0,800.034,254.912Z" transform="translate(-174.603 -193.79)" fill="#7a6cff" fill-rule="evenodd"/>
      <path id="Path_12846" data-name="Path 12846" d="M757.7,253.433c.459.526.888,1.014,1.313,1.506.485.561.521,1.038.112,1.409s-.915.288-1.427-.29a16.985,16.985,0,0,0-1.694-1.74c0,.4.007.807,0,1.21-.015.671-.347,1.061-.879,1.046-.51-.014-.838-.391-.841-1.031q-.014-2.962,0-5.925c0-.752.307-1.054,1.048-1.066a14.281,14.281,0,0,1,1.781.036,2.525,2.525,0,0,1,2.266,2.047,2.5,2.5,0,0,1-1.4,2.652Zm-1.649-1.6c.6-.006,1.2.149,1.507-.439a.875.875,0,0,0-.071-.774c-.364-.474-.91-.337-1.436-.318Z" transform="translate(-139.26 -193.73)" fill="#7a6cff" fill-rule="evenodd"/>
      <path id="Path_12847" data-name="Path 12847" d="M862.429,253.424c.475.54.919,1.039,1.357,1.544s.473,1.006.071,1.369-.893.292-1.347-.212c-.56-.62-1.109-1.25-1.774-2,0,.609.01,1.06,0,1.509a.861.861,0,1,1-1.717.01q-.021-3.078,0-6.157a.848.848,0,0,1,.876-.939,13.2,13.2,0,0,1,1.953.027,2.467,2.467,0,0,1,.862,4.7ZM860.77,251.8c.6.016,1.2.164,1.53-.432a.828.828,0,0,0-.049-.729c-.366-.512-.926-.386-1.481-.342Z" transform="translate(-227.914 -193.717)" fill="#7a6cff" fill-rule="evenodd"/>
      <path id="Path_12848" data-name="Path 12848" d="M713.536,253.451c.478.55.934,1.064,1.379,1.587.415.488.426.969.046,1.32-.4.369-.9.3-1.348-.195a20.174,20.174,0,0,0-1.77-1.827c0,.4.008.808,0,1.212-.017.663-.359,1.057-.887,1.041-.509-.015-.829-.39-.833-1.034q-.013-2.96,0-5.92c0-.756.3-1.058,1.039-1.067a14.063,14.063,0,0,1,1.835.046,2.458,2.458,0,0,1,.871,4.657C713.771,253.324,713.675,253.376,713.536,253.451Zm-1.646-1.6c.573-.013,1.157.154,1.489-.415a.839.839,0,0,0-.009-.733c-.349-.537-.915-.417-1.48-.37Z" transform="translate(-101.883 -193.745)" fill="#7a6cff" fill-rule="evenodd"/>
      <path id="Path_12849" data-name="Path 12849" d="M672.655,255.288c.556,0,1.073-.008,1.589,0,.623.012,1,.35.99.875a.864.864,0,0,1-.96.846q-1.209.017-2.417,0a.87.87,0,0,1-.97-.963q-.022-3.022,0-6.044c.005-.639.337-.933.984-.94q1.209-.014,2.418,0a.849.849,0,0,1,.945.852.869.869,0,0,1-.947.866c-.534.018-1.068,0-1.641,0v1.388c.44,0,.89,0,1.34,0,.674.007,1.055.324,1.049.867s-.39.849-1.068.858c-.384.006-.767,0-1.151.007a1.067,1.067,0,0,0-.16.034Z" transform="translate(-68.669 -194.165)" fill="#7a6cff" fill-rule="evenodd"/>
      <path id="Path_12850" data-name="Path 12850" d="M777.8,75.3c0,.94.007,1.879,0,2.819-.007.709-.294,1.066-.839,1.079-.57.013-.881-.356-.884-1.091-.006-1.917-.012-3.835,0-5.752.007-.81.719-1.291,1.284-.857a1.3,1.3,0,0,1,.417.87C777.837,73.346,777.8,74.325,777.8,75.3Z" transform="translate(-157.715 -43.732)" fill="#7a6cff" fill-rule="evenodd"/>
      <path id="Path_12851" data-name="Path 12851" d="M777.89,128.656a.849.849,0,1,1-1.7-.046.849.849,0,1,1,1.7.046Z" transform="translate(-157.816 -91.5)" fill="#7a6cff" fill-rule="evenodd"/>
    </g>
  </g>
</svg>
