<svg xmlns="http://www.w3.org/2000/svg" xmlns:xlink="http://www.w3.org/1999/xlink" width="155.534" height="155.534" viewBox="0 0 155.534 155.534">
  <defs>
    <filter id="Rectangle_170" x="0" y="0" width="155.534" height="155.534" filterUnits="userSpaceOnUse">
      <feOffset dy="3" input="SourceAlpha"/>
      <feGaussianBlur stdDeviation="3" result="blur"/>
      <feFlood flood-opacity="0"/>
      <feComposite operator="in" in2="blur"/>
      <feComposite in="SourceGraphic"/>
    </filter>
  </defs>
  <g id="Group_3647" data-name="Group 3647" transform="translate(-184.147 -1083.208)">
    <g transform="matrix(1, 0, 0, 1, 184.15, 1083.21)" filter="url(#Rectangle_170)">
      <rect id="Rectangle_170-2" data-name="Rectangle 170" width="99.745" height="94.758" rx="10" transform="translate(76 6) rotate(45)" fill="#786afd" opacity="0.08"/>
    </g>
    <g id="Group_3680" data-name="Group 3680" transform="translate(-366.368 1088.554)">
      <path id="Path_12822" data-name="Path 12822" d="M626.918,259.187h.99c6.776,0,13.551.011,20.326-.013a1.777,1.777,0,0,1,1.833,1.114c1.066,2.22,2.2,4.409,3.294,6.614.724,1.453.236,2.256-1.367,2.259q-3.232,0-6.464,0c-1.42,0-1.768-.354-1.781-1.8,0-.2,0-.4,0-.691H641.3c-.017.244-.045.465-.048.686-.017,1.476-.355,1.807-1.857,1.807H626.918c0,.757,0,1.472,0,2.187a4.992,4.992,0,0,1-5.258,5.291q-6.581.01-13.161,0a4.986,4.986,0,0,1-5.267-5.281q-.008-7.2,0-14.407a4.979,4.979,0,0,1,5.224-5.243q6.619-.011,13.239,0a4.985,4.985,0,0,1,5.223,5.247C626.921,257.675,626.918,258.4,626.918,259.187Zm23.514,7.439c-.728-1.459-1.453-2.83-2.1-4.238a1.083,1.083,0,0,0-1.177-.722c-6.96.023-13.92.015-20.88.015-1.523,0-1.853-.336-1.854-1.887,0-.987.009-1.974,0-2.961a2.494,2.494,0,0,0-2.648-2.629q-6.7-.013-13.4,0a2.472,2.472,0,0,0-2.646,2.625q-.014,7.363,0,14.725a2.473,2.473,0,0,0,2.606,2.59q6.739.017,13.479,0a2.478,2.478,0,0,0,2.609-2.589c.015-1.013,0-2.026,0-3.038,0-1.5.341-1.848,1.813-1.849h12.527c0-.488-.017-.853,0-1.214a1.218,1.218,0,0,1,1.286-1.27q2.454-.034,4.908,0a1.219,1.219,0,0,1,1.274,1.282c.02.379,0,.76,0,1.159Z" transform="translate(0 -175.925)" fill="#7a6cff" fill-rule="evenodd"/>
      <path id="Path_12823" data-name="Path 12823" d="M651.513,176.157c.067.173.108.317.175.448a12.807,12.807,0,0,1,.6,9.695c-.348,1.228-1.172,1.431-2.165.618a13.258,13.258,0,0,0-6.542-3.221,10.332,10.332,0,0,0-7.341,1.954c-.561.372-1.087.8-1.622,1.208-1.048.8-1.947.537-2.283-.731-.883-3.335-.947-6.615.763-9.752a.844.844,0,0,0,.024-.23,8.814,8.814,0,0,0-4.532,1.332,9.827,9.827,0,0,0-4.955,8.635c-.01.415.018.833-.012,1.246a1.238,1.238,0,0,1-2.474.023,12.482,12.482,0,0,1,12.125-13.744q9.071-.161,18.148,0a12.4,12.4,0,0,1,12.1,12.295c.027,2.856.009,5.712,0,8.568,0,1-.453,1.543-1.244,1.544s-1.244-.546-1.246-1.542c-.005-2.8.011-5.608-.005-8.412a9.995,9.995,0,0,0-9.164-9.955A2.625,2.625,0,0,0,651.513,176.157Zm-4.226-.024h-9.9a4.95,4.95,0,0,0,9.9,0ZM634.961,178.3a9.461,9.461,0,0,0-.562,5.479l3.057-1.7Zm15.306,5.476a9.462,9.462,0,0,0-.564-5.474l-2.5,3.749Z" transform="translate(-14.168 -114.022)" fill-rule="evenodd"/>
      <path id="Path_12824" data-name="Path 12824" d="M690.876,41.5a52.082,52.082,0,0,1-.484,6.656,11.46,11.46,0,0,1-22.525-.834c-.37-3.65-.131-7.361-.158-11.045a2.991,2.991,0,0,1,.1-.535,7.412,7.412,0,0,1,7.031-6.071q4.36-.088,8.724,0a7.424,7.424,0,0,1,7.161,7.146c.047,1.557.008,3.116.008,4.674Zm-20.668,2.355a21.506,21.506,0,0,0,.018,2.841,9.042,9.042,0,0,0,18.016-1.237c.016-2.724.028-5.448-.014-8.171a6.389,6.389,0,0,0-.376-2.045c-.521-1.438-1.24-1.812-2.756-1.592a7.613,7.613,0,0,0-4.6,2.836c-.77.872-1.417,1.852-2.145,2.763C676.273,41.855,673.822,43.819,670.209,43.856Zm11.239-11.483-.1-.179c-1.993,0-3.988.046-5.98-.012a4.736,4.736,0,0,0-4.979,3.608,41.326,41.326,0,0,0-.3,5.467l.247.223a9.957,9.957,0,0,0,2.661-.863,15.518,15.518,0,0,0,3.307-2.9C677.884,35.8,679.281,33.736,681.447,32.373Z" transform="translate(-51.042)" fill-rule="evenodd"/>
      <path id="Path_12825" data-name="Path 12825" d="M783.2,254.793c0-.6-.022-1.2.006-1.792a1.23,1.23,0,0,1,1.225-1.253,1.213,1.213,0,0,1,1.247,1.228c.032,1.245.03,2.493,0,3.739a1.224,1.224,0,0,1-1.224,1.255,1.242,1.242,0,0,1-1.252-1.307C783.182,256.039,783.2,255.416,783.2,254.793Z" transform="translate(-142.566 -175.96)" fill-rule="evenodd"/>
      <path id="Path_12826" data-name="Path 12826" d="M640.708,293.978c0,1.558.007,3.116,0,4.675-.006,1.065-.453,1.506-1.524,1.512q-2.22.012-4.441,0c-1.065-.007-1.509-.452-1.511-1.525q-.009-4.714,0-9.427c0-1.067.448-1.505,1.522-1.511q2.22-.012,4.441,0c1.065.006,1.507.45,1.512,1.523C640.715,290.81,640.708,292.394,640.708,293.978Zm-4.954,3.654h2.414v-7.384h-2.414Z" transform="translate(-23.765 -204.438)" fill="#7a6cff" fill-rule="evenodd"/>
    </g>
  </g>
</svg>
