<svg xmlns="http://www.w3.org/2000/svg" width="239.893" height="25.747" viewBox="0 0 239.893 25.747">
  <g id="Group_3590" data-name="Group 3590" transform="translate(-1128.931 -164.588) rotate(-4)">
    <path id="Path_11913" data-name="Path 11913" d="M1345.434,274.164c-.546-.222-.505-.729-.15-1.078,2.012-1.981,4.005-3.981,6.005-5.974.04-.039.084-.074.175-.154a.863.863,0,0,1-.164-.1q-3.031-3.018-6.059-6.039a.582.582,0,0,1-.184-.693.691.691,0,0,1,.378-.329h.252a3.546,3.546,0,0,1,.408.306q3.208,3.189,6.408,6.385a1.708,1.708,0,0,1,.134.143.549.549,0,0,1,0,.7,1.747,1.747,0,0,1-.135.143q-3.2,3.194-6.408,6.385a3.541,3.541,0,0,1-.408.305Z" transform="translate(0)" fill="#707070" stroke="#707070" stroke-width="0.4" fill-rule="evenodd"/>
  </g>
  <path id="Path_11997" data-name="Path 11997" d="M117.833,24.167s55.75,3.917,114.667,0S353.5,8.5,353.5,8.5" transform="translate(-117.798 -0.668)" fill="none" stroke="#707070" stroke-width="1" stroke-dasharray="6"/>
</svg>
