<svg xmlns="http://www.w3.org/2000/svg" width="169.706" height="169.706" viewBox="0 0 169.706 169.706">
  <g id="Group_3648" data-name="Group 3648" transform="translate(-234.373 -1126.662)">
    <rect id="Rectangle_171" data-name="Rectangle 171" width="120" height="120" rx="10" transform="translate(319.226 1126.662) rotate(45)" fill="#786afd" opacity="0.11"/>
    <g id="Group_3583" data-name="Group 3583" transform="translate(-1003.801 879.552)">
      <path id="Path_11850" data-name="Path 11850" d="M1290.8,302.144c2.94-2.9,5.978-5.714,8.782-8.742a6.494,6.494,0,0,1,5.368-2.2c11.164.122,22.331.056,33.5.056h1.127v18.034c13.1,1.862,19.173,17.291,10.682,27.382l5.363,5.343,2.3-2.431.376-.093a3.459,3.459,0,0,0,.447.777q5.908,5.935,11.845,11.841a8.913,8.913,0,0,1,2.671,3.824V357.7a6.222,6.222,0,0,1-1.808,2.866,4.842,4.842,0,0,1-6.024.033,8.928,8.928,0,0,1-.723-.638q-6.493-6.485-12.98-12.978c-.148-.148-.279-.312-.508-.571l2.6-2.356-5.435-5.428c-7.06,5.082-14.261,5.517-21.381.153a16.393,16.393,0,0,1-5.448-17.738,16.765,16.765,0,0,1,15.573-11.845v-15.47h-33.58v10.227H1293.26v54.228h43.9V346.554h2.4v14.069c-.294.014-.578.041-.861.041q-23.548,0-47.095,0c-.266,0-.532-.039-.8-.06Zm32.427,23.714a14.244,14.244,0,1,0,14.348-14.214A14.317,14.317,0,0,0,1323.228,325.857Zm31.516,20.709c.1.1.183.2.277.3q5.714,5.716,11.43,11.429a4.668,4.668,0,0,0,.539.481,2.428,2.428,0,0,0,3.041-.166,2.393,2.393,0,0,0,.433-3.072,4.891,4.891,0,0,0-.682-.788q-5.539-5.549-11.087-11.09c-.186-.186-.384-.36-.529-.5Zm-59.635-45.244.09.174h5.839v-5.86Z" fill="#181c3a" stroke="#181c3a" stroke-width="0.5" fill-rule="evenodd"/>
      <path id="Path_11851" data-name="Path 11851" d="M1342.132,383.692V381.4h17.961v2.287Z" transform="translate(-40.999 -72.049)" fill="#181c3a" stroke="#181c3a" stroke-width="0.5" fill-rule="evenodd"/>
      <path id="Path_11852" data-name="Path 11852" d="M1360.212,445.41V447.7H1342.25V445.41Z" transform="translate(-41.093 -123.171)" fill="#796cff" stroke="#796cff" stroke-width="0.5" fill-rule="evenodd"/>
      <path id="Path_11853" data-name="Path 11853" d="M1342.213,511.646v-2.331h17.936v2.331Z" transform="translate(-41.063 -174.212)" fill="#181c3a" stroke="#181c3a" stroke-width="0.5" fill-rule="evenodd"/>
      <path id="Path_11854" data-name="Path 11854" d="M1355.061,407.012V409.3h-12.809v-2.285Z" transform="translate(-41.094 -92.502)" fill="#181c3a" stroke="#181c3a" stroke-width="0.5" fill-rule="evenodd"/>
      <path id="Path_11855" data-name="Path 11855" d="M1342.135,473.3v-2.284h12.806V473.3Z" transform="translate(-41.001 -143.625)" fill="#796cff" stroke="#796cff" stroke-width="0.5" fill-rule="evenodd"/>
      <path id="Path_11856" data-name="Path 11856" d="M1352.48,535.056v2.305h-10.208v-2.305Z" transform="translate(-41.11 -194.772)" fill="#181c3a" stroke="#181c3a" stroke-width="0.5" fill-rule="evenodd"/>
      <g id="Group_3582" data-name="Group 3582" transform="translate(1328.293 319.07)">
        <path id="Path_11857" data-name="Path 11857" d="M1506.507,436.458c-.281-.276-.507-.5-.731-.717-.4-.395-.794-.789-1.187-1.187a.853.853,0,1,1,1.2-1.2q1.662,1.654,3.317,3.315a.83.83,0,0,1,.221.972.842.842,0,0,1-.848.526h-13.509a.855.855,0,1,1,0-1.7h11.531Z" transform="translate(-1490.63 -433.055)" fill="#7a6cff" stroke="#7a6cff" stroke-width="0.5" fill-rule="evenodd"/>
        <path id="Path_11858" data-name="Path 11858" d="M1480.031,468.68c.63.626,1.261,1.249,1.888,1.878a.851.851,0,0,1-.473,1.447.789.789,0,0,1-.709-.226q-1.718-1.71-3.427-3.43a.785.785,0,0,1-.16-.935.843.843,0,0,1,.835-.5q2.851,0,5.7,0,3.9,0,7.806,0a.851.851,0,0,1,.877,1.135.827.827,0,0,1-.738.566,2.675,2.675,0,0,1-.293,0h-11.287Z" transform="translate(-1477.062 -459.413)" fill="#7a6cff" stroke="#7a6cff" stroke-width="0.5" fill-rule="evenodd"/>
      </g>
    </g>
  </g>
</svg>
