<svg xmlns="http://www.w3.org/2000/svg" width="169.706" height="169.706" viewBox="0 0 169.706 169.706">
  <g id="Group_3649" data-name="Group 3649" transform="translate(-1216.147 -1087.5)">
    <rect id="Rectangle_172" data-name="Rectangle 172" width="120" height="120" rx="10" transform="translate(1301 1087.5) rotate(45)" fill="#786afd" opacity="0.08"/>
    <g id="Group_3588" data-name="Group 3588" transform="translate(-73.202 822.799)">
      <g id="Group_3586" data-name="Group 3586" transform="translate(1342.75 308.75)">
        <path id="Path_11872" data-name="Path 11872" d="M1404.585,387.7h-2.776a3.07,3.07,0,0,0-.5-.139,19.086,19.086,0,0,1-6.73-2.061,3.663,3.663,0,0,0-1.587-.409q-22.852-.032-45.7-.02a7.034,7.034,0,0,1-1.228-.064,4.125,4.125,0,0,1-3.306-3.166v-62.3a7.625,7.625,0,0,1,2.12-2.952q2.892-2.83,5.722-5.722a7.647,7.647,0,0,1,2.952-2.12h43.947c.324.14.659.26.97.425a4.1,4.1,0,0,1,2.19,4.009q-.026,18.412-.009,36.824v1.006c.375-.019.629-.021.881-.047a18.318,18.318,0,0,1,19.42,13.166c.326,1.153.508,2.346.757,3.521v3.238c-.049.2-.114.391-.145.591-1.224,7.793-5.582,12.949-13.064,15.417A32.967,32.967,0,0,1,1404.585,387.7Zm-49.877-76.324a1.018,1.018,0,0,0-.086.225c-.008,1.645,0,3.289-.022,4.933a3.97,3.97,0,0,1-4.044,4.064c-1,.019-2,0-3.007,0h-2.172v.641q0,29.76,0,59.521c0,1.214.465,1.678,1.684,1.678q21.318,0,42.636,0c.18,0,.361-.039.639-.07a18.641,18.641,0,0,1-5.427-11.783h-25.721a6.862,6.862,0,0,1-.77-.014,1.3,1.3,0,0,1-.008-2.6,6.358,6.358,0,0,1,.77-.015h25.67l.7-3.958h-.849q-5.512,0-11.025,0a5.713,5.713,0,0,1-.846-.03,1.287,1.287,0,0,1-.176-2.512,3.4,3.4,0,0,1,.914-.088c4.112-.005,8.224-.015,12.336.011a1.079,1.079,0,0,0,1.115-.678,17.988,17.988,0,0,1,10.2-8.779,1,1,0,0,0,.8-1.146q-.027-18.735-.014-37.47c0-1.588-.352-1.935-1.954-1.935h-41.344Zm64.364,57.886a15.794,15.794,0,1,0-15.7,15.809A15.826,15.826,0,0,0,1419.072,369.263Zm-71.548-51.329c1.071,0,2.211.044,3.345-.018a1.093,1.093,0,0,0,1.052-1.06c.061-1.132.018-2.27.018-3.357Z" transform="translate(-1342.75 -308.75)" fill="#181c3a" fill-rule="evenodd"/>
        <path id="Path_11873" data-name="Path 11873" d="M1402.219,458.5h-19.035a7.587,7.587,0,0,1-.847-.022,1.261,1.261,0,0,1-1.159-1.229,1.236,1.236,0,0,1,.981-1.3,3.363,3.363,0,0,1,.838-.075q19.228,0,38.456,0c1.2,0,1.794.437,1.8,1.31a1.242,1.242,0,0,1-1.079,1.29,5.879,5.879,0,0,1-.846.03Q1411.775,458.5,1402.219,458.5Z" transform="translate(-1373.276 -425.617)" fill="#181c3a" fill-rule="evenodd"/>
        <path id="Path_11874" data-name="Path 11874" d="M1398.88,503.344h-15.8a6.354,6.354,0,0,1-.77-.016,1.3,1.3,0,0,1-.044-2.589,4.54,4.54,0,0,1,.692-.021h31.916a4.057,4.057,0,0,1,.692.026,1.3,1.3,0,0,1-.032,2.579,5.451,5.451,0,0,1-.77.021Z" transform="translate(-1373.238 -461.242)" fill="#181c3a" fill-rule="evenodd"/>
        <path id="Path_11875" data-name="Path 11875" d="M1451.888,372.735a3.058,3.058,0,0,1,2.86,1.946c1.218,3.129,2.384,6.278,3.548,9.427a1.268,1.268,0,0,1-.759,1.692,1.286,1.286,0,0,1-1.692-.789c-.343-.828-.653-1.672-.944-2.52a.674.674,0,0,0-.754-.562c-1.54.033-3.081.029-4.622,0a.683.683,0,0,0-.784.532c-.267.8-.57,1.593-.88,2.38-.345.877-.988,1.224-1.731.964a1.32,1.32,0,0,1-.721-1.9c1.116-3,2.233-6.007,3.378-9A3.228,3.228,0,0,1,1451.888,372.735Zm1.8,6.55c-.451-1.2-.854-2.332-1.309-3.438a.749.749,0,0,0-.574-.38.77.77,0,0,0-.56.407c-.451,1.108-.852,2.236-1.29,3.411Z" transform="translate(-1424.189 -359.577)" fill="#7469f9" fill-rule="evenodd"/>
        <path id="Path_11876" data-name="Path 11876" d="M1427.728,532.781q6.239,0,12.476,0a5.461,5.461,0,0,1,.845.03,1.193,1.193,0,0,1,1.074,1.134,1.179,1.179,0,0,1-.808,1.334,2.956,2.956,0,0,1-.981.128q-12.669.01-25.338,0a2.833,2.833,0,0,1-.907-.112,1.286,1.286,0,0,1,.24-2.488,6.1,6.1,0,0,1,.846-.026Q1421.451,532.78,1427.728,532.781Z" transform="translate(-1398.73 -486.714)" fill="#181c3a" fill-rule="evenodd"/>
        <path id="Path_11877" data-name="Path 11877" d="M1528.909,379.314c1.037,1.384,2.053,2.735,3.063,4.091a3.383,3.383,0,0,1,.449.712,1.3,1.3,0,0,1-2.3,1.2c-.8-1.032-1.575-2.09-2.362-3.135-.15-.2-.311-.387-.527-.654-.932,1.24-1.787,2.451-2.73,3.59a2.009,2.009,0,0,1-1.25.712,1.342,1.342,0,0,1-1.061-.683,1.747,1.747,0,0,1,.133-1.405c.866-1.3,1.816-2.55,2.8-3.765a.908.908,0,0,0-.025-1.364c-.882-1.1-1.706-2.248-2.55-3.379-.718-.962-.73-1.694-.045-2.223.7-.542,1.423-.317,2.175.681l2.569,3.414,2.1-2.792c.262-.348.508-.711.79-1.043a1.307,1.307,0,1,1,2.077,1.585c-.994,1.37-2.023,2.716-3.037,4.072C1529.108,379.027,1529.037,379.133,1528.909,379.314Z" transform="translate(-1485.146 -359.566)" fill="#7469f8" fill-rule="evenodd"/>
        <path id="Path_11878" data-name="Path 11878" d="M1397.9,375.289c-.9,0-1.693.014-2.484,0a1.317,1.317,0,1,1-.031-2.619q3.812-.032,7.623,0a1.316,1.316,0,1,1,0,2.619c-.791.019-1.583,0-2.481,0v.88c0,2.695,0,5.39,0,8.085a1.429,1.429,0,0,1-.729,1.419,1.3,1.3,0,0,1-1.894-1.262c-.02-2.156-.007-4.312-.007-6.468Z" transform="translate(-1383.413 -359.511)" fill="#7469f9" fill-rule="evenodd"/>
        <path id="Path_11879" data-name="Path 11879" d="M1391,628.761c2.771,0,5.543,0,8.315,0a1.374,1.374,0,0,1,1.445.8,1.287,1.287,0,0,1-.935,1.782,3.827,3.827,0,0,1-.841.056q-7.969,0-15.937,0c-.154,0-.308.006-.462,0a1.369,1.369,0,0,1-1.444-1.375,1.321,1.321,0,0,1,1.467-1.248C1385.4,628.754,1388.2,628.762,1391,628.761Z" transform="translate(-1373.244 -562.955)" fill="#181c3a" fill-rule="evenodd"/>
        <path id="Path_11880" data-name="Path 11880" d="M1390.276,567.277c-2.566,0-5.131.01-7.7-.006a1.311,1.311,0,0,1-1.439-1.278,1.355,1.355,0,0,1,1.4-1.342c.2-.015.41-.006.616-.006h14.47c.18,0,.36-.007.539.005a1.348,1.348,0,0,1,1.4,1.337,1.31,1.31,0,0,1-1.433,1.283c-1.847.02-3.695.008-5.541.008h-2.309Z" transform="translate(-1373.246 -512.024)" fill="#181c3a" fill-rule="evenodd"/>
        <path id="Path_11881" data-name="Path 11881" d="M1568.753,503.332c-.128,0-.256,0-.385,0-.985-.016-1.543-.495-1.538-1.321s.566-1.292,1.557-1.3c.333,0,.667-.013,1,0a1.31,1.31,0,1,1-.019,2.619C1569.164,503.339,1568.958,503.331,1568.753,503.332Z" transform="translate(-1520.754 -461.231)" fill="#181c3a" fill-rule="evenodd"/>
        <path id="Path_11882" data-name="Path 11882" d="M1383.172,532.805c1.271-.008,1.887.4,1.911,1.263.024.888-.641,1.361-1.923,1.358a5.158,5.158,0,0,1-.92-.041,1.324,1.324,0,0,1-1.1-1.368,1.3,1.3,0,0,1,1.268-1.208C1382.658,532.789,1382.916,532.805,1383.172,532.805Z" transform="translate(-1373.24 -486.728)" fill="#181c3a" fill-rule="evenodd"/>
        <path id="Path_11883" data-name="Path 11883" d="M1383.14,596.714c1.3,0,1.955.449,1.946,1.326s-.654,1.3-1.969,1.3-1.962-.411-1.983-1.285C1381.113,597.159,1381.778,596.714,1383.14,596.714Z" transform="translate(-1373.242 -537.501)" fill="#181c3a" fill-rule="evenodd"/>
      </g>
      <g id="Group_3587" data-name="Group 3587" transform="translate(1398.713 359.551)">
        <path id="Path_11884" data-name="Path 11884" d="M1618.263,570.074v-.367q0-6.285,0-12.571a1.917,1.917,0,0,1,.074-.6,1.125,1.125,0,0,1,2.178.331c.007.115.005.231.005.346q0,6.246,0,12.491v.364c.1-.087.158-.133.21-.186.394-.4.784-.794,1.181-1.187a1.13,1.13,0,1,1,1.618,1.578q-1.649,1.678-3.31,3.343a1.118,1.118,0,0,1-1.657,0q-1.67-1.676-3.327-3.363a1.129,1.129,0,0,1,1.594-1.6c.407.394.8.8,1.2,1.205C1618.091,569.92,1618.155,569.975,1618.263,570.074Z" transform="translate(-1614.909 -555.804)" fill="#7469f8" fill-rule="evenodd"/>
      </g>
    </g>
  </g>
</svg>
