<svg xmlns="http://www.w3.org/2000/svg" width="226.472" height="159.287" viewBox="0 0 226.472 159.287">
  <g id="Path_10333" data-name="Path 10333" transform="translate(209.287 4.516) rotate(107)" fill="none" opacity="0.53">
    <path d="M0,0H15.446V15.446H0Z" stroke="none"/>
    <path d="M 13.44591331481934 2.000027656555176 L 2.00018310546875 2.00018310546875 L 2.000027656555176 13.44591331481934 L 13.44575786590576 13.44575786590576 L 13.44591331481934 2.000027656555176 M 15.4459400177002 9.5367431640625e-07 L 15.44573020935059 15.44573020935059 L 9.5367431640625e-07 15.4459400177002 L 0.0002107620239257812 0.0002107620239257812 L 15.4459400177002 9.5367431640625e-07 Z" stroke="none" fill="#7a6cff"/>
  </g>
  <g id="Path_10334" data-name="Path 10334" transform="translate(226.472 112.758) rotate(107)" fill="none" opacity="0.12">
    <path d="M0,0h14.14V14.14H0Z" stroke="none"/>
    <path d="M 12.14065074920654 2.000025749206543 L 2.000162124633789 2.000162124633789 L 2.000025749206543 12.14065074920654 L 12.14050674438477 12.14050674438477 L 12.14065074920654 2.000025749206543 M 14.14067840576172 -9.5367431640625e-07 L 14.14047908782959 14.14047908782959 L -9.5367431640625e-07 14.14067840576172 L 0.0001888275146484375 0.0001888275146484375 L 14.14067840576172 -9.5367431640625e-07 Z" stroke="none" fill="#181c3a"/>
  </g>
  <path id="times" d="M6.1,5,9.84,1.261a.548.548,0,0,0,0-.773L9.513.16a.548.548,0,0,0-.774,0L5,3.9,1.261.16a.548.548,0,0,0-.773,0L.16.487a.547.547,0,0,0,0,.773L3.9,5,.16,8.739a.549.549,0,0,0,0,.774l.328.328a.548.548,0,0,0,.773,0L5,6.1,8.739,9.84a.543.543,0,0,0,.387.16h0a.543.543,0,0,0,.387-.16l.328-.328a.548.548,0,0,0,0-.774Z" transform="matrix(0.799, 0.602, -0.602, 0.799, 15.995, 10.45)" fill="#454863"/>
  <g id="Path_10335" data-name="Path 10335" transform="translate(19.287 144.516) rotate(107)" fill="none">
    <path d="M0,0H15.446V15.446H0Z" stroke="none"/>
    <path d="M 13.44591331481934 2.000027656555176 L 2.00018310546875 2.00018310546875 L 2.000027656555176 13.44591331481934 L 13.44575786590576 13.44575786590576 L 13.44591331481934 2.000027656555176 M 15.4459400177002 9.5367431640625e-07 L 15.44573020935059 15.44573020935059 L 9.5367431640625e-07 15.4459400177002 L 0.0002107620239257812 0.0002107620239257812 L 15.4459400177002 9.5367431640625e-07 Z" stroke="none" fill="#7469f8"/>
  </g>
</svg>
