<svg xmlns="http://www.w3.org/2000/svg" xmlns:xlink="http://www.w3.org/1999/xlink" width="772" height="640.639" viewBox="0 0 772 640.639">
  <defs>
    <filter id="Path_12119" x="94" y="168.819" width="290" height="111.187" filterUnits="userSpaceOnUse">
      <feOffset dy="3" input="SourceAlpha"/>
      <feGaussianBlur stdDeviation="3" result="blur"/>
      <feFlood flood-opacity="0.161"/>
      <feComposite operator="in" in2="blur"/>
      <feComposite in="SourceGraphic"/>
    </filter>
    <filter id="Path_12584" x="94" y="168.819" width="290" height="111.187" filterUnits="userSpaceOnUse">
      <feOffset dy="3" input="SourceAlpha"/>
      <feGaussianBlur stdDeviation="3" result="blur-2"/>
      <feFlood flood-opacity="0.161"/>
      <feComposite operator="in" in2="blur-2"/>
      <feComposite in="SourceGraphic"/>
    </filter>
    <filter id="Path_12119-2" x="0" y="348.708" width="356" height="125.112" filterUnits="userSpaceOnUse">
      <feOffset dy="3" input="SourceAlpha"/>
      <feGaussianBlur stdDeviation="3" result="blur-3"/>
      <feFlood flood-opacity="0.161"/>
      <feComposite operator="in" in2="blur-3"/>
      <feComposite in="SourceGraphic"/>
    </filter>
    <filter id="Path_12176" x="482" y="123.133" width="290" height="111.187" filterUnits="userSpaceOnUse">
      <feOffset dy="3" input="SourceAlpha"/>
      <feGaussianBlur stdDeviation="3" result="blur-4"/>
      <feFlood flood-opacity="0.161"/>
      <feComposite operator="in" in2="blur-4"/>
      <feComposite in="SourceGraphic"/>
    </filter>
    <filter id="Path_12211" x="434.442" y="350.264" width="298.558" height="125.112" filterUnits="userSpaceOnUse">
      <feOffset dy="3" input="SourceAlpha"/>
      <feGaussianBlur stdDeviation="3" result="blur-5"/>
      <feFlood flood-opacity="0.161"/>
      <feComposite operator="in" in2="blur-5"/>
      <feComposite in="SourceGraphic"/>
    </filter>
  </defs>
  <g id="Group_3666" data-name="Group 3666" transform="translate(-740 -139.181)">
    <g id="Rectangle_686" data-name="Rectangle 686" transform="translate(1164.5 207.063) rotate(45)" fill="none" stroke="#42455e" stroke-width="4" opacity="0.15">
      <rect width="357" height="357" stroke="none"/>
      <rect x="2" y="2" width="353" height="353" fill="none"/>
    </g>
    <g id="Group_3622" data-name="Group 3622" transform="translate(-45.667 257.319)" opacity="0.18">
      <g id="Path_2649" data-name="Path 2649" transform="translate(1159.45 88.73) rotate(45)" fill="none">
        <path d="M0,0l163.27,0,0,163.27L0,163.272Z" stroke="none"/>
        <path d="M 138.2716522216797 25.00033569335938 L 25.00187683105469 25.00187683105469 L 25.00033569335938 138.2716522216797 L 138.2700653076172 138.2700653076172 L 138.2716522216797 25.00033569335938 M 163.2719879150391 0 L 163.2697143554688 163.2697143554688 L 0 163.2719879150391 L 0.002227783203125 0.002227783203125 L 163.2719879150391 0 Z" stroke="none" fill="#fff"/>
      </g>
      <g id="Path_2650" data-name="Path 2650" transform="translate(1268.883 88.73) rotate(45)" fill="none">
        <path d="M0,0l163.27,0,0,163.27L0,163.272Z" stroke="none"/>
        <path d="M 138.2716522216797 25.00033569335938 L 25.00187683105469 25.00187683105469 L 25.00033569335938 138.2716522216797 L 138.2700653076172 138.2700653076172 L 138.2716522216797 25.00033569335938 M 163.2719879150391 0 L 163.2697143554688 163.2697143554688 L 0 163.2719879150391 L 0.002227783203125 0.002227783203125 L 163.2719879150391 0 Z" stroke="none" fill="#fff"/>
      </g>
    </g>
    <g id="Rectangle_687" data-name="Rectangle 687" transform="translate(1164.5 139.181) rotate(45)" fill="none" stroke="#42455e" stroke-width="4" opacity="0.09">
      <rect width="453" height="453" stroke="none"/>
      <rect x="2" y="2" width="449" height="449" fill="none"/>
    </g>
    <g id="Group_3624" data-name="Group 3624" transform="translate(0 50)">
      <g transform="matrix(1, 0, 0, 1, 740, 89.18)" filter="url(#Path_12119)">
        <path id="Path_12119-3" data-name="Path 12119" d="M75,20H317a5,5,0,0,1,5,5l20,88c0,2.761-22.239-26-25-26H75a5,5,0,0,1-5-5V25A5,5,0,0,1,75,20Z" transform="translate(33 154.82)" fill="#fff"/>
      </g>
      <g transform="matrix(1, 0, 0, 1, 740, 89.18)" filter="url(#Path_12584)">
        <path id="Path_12584-2" data-name="Path 12584" d="M75,20H317a5,5,0,0,1,5,5l20,88c0,2.761-22.239-26-25-26H75a5,5,0,0,1-5-5V25A5,5,0,0,1,75,20Z" transform="translate(33 154.82)" fill="#fff"/>
      </g>
      <path id="Path_12714" data-name="Path 12714" d="M7.64-14.28a6.917,6.917,0,0,1,4.47,1.42A6.5,6.5,0,0,1,14.4-9.02H10.78a3.321,3.321,0,0,0-1.23-1.54,3.438,3.438,0,0,0-1.97-.56,3,3,0,0,0-2.42,1.1,4.435,4.435,0,0,0-.92,2.94,4.395,4.395,0,0,0,.92,2.93A3.012,3.012,0,0,0,7.58-3.06a3.438,3.438,0,0,0,1.97-.56,3.336,3.336,0,0,0,1.23-1.52H14.4a6.533,6.533,0,0,1-2.29,3.83A6.884,6.884,0,0,1,7.64.12,7.053,7.053,0,0,1,4.02-.79,6.177,6.177,0,0,1,1.61-3.34,8.009,8.009,0,0,1,.76-7.08a8.009,8.009,0,0,1,.85-3.74,6.177,6.177,0,0,1,2.41-2.55A7.053,7.053,0,0,1,7.64-14.28ZM20.56-11.3a4.04,4.04,0,0,1,2.2.58,3.487,3.487,0,0,1,1.36,1.58v-2.02h3.4V0h-3.4V-2.02A3.487,3.487,0,0,1,22.76-.44a4.04,4.04,0,0,1-2.2.58,4.52,4.52,0,0,1-2.47-.69,4.721,4.721,0,0,1-1.72-1.99,6.9,6.9,0,0,1-.63-3.04,6.881,6.881,0,0,1,.63-3.05,4.732,4.732,0,0,1,1.72-1.98A4.52,4.52,0,0,1,20.56-11.3Zm1.1,3a2.3,2.3,0,0,0-1.77.72,2.823,2.823,0,0,0-.67,2,2.823,2.823,0,0,0,.67,2,2.3,2.3,0,0,0,1.77.72,2.312,2.312,0,0,0,1.77-.74,2.787,2.787,0,0,0,.69-1.98,2.779,2.779,0,0,0-.69-1.99A2.328,2.328,0,0,0,21.66-8.3Zm15.18-3a4.52,4.52,0,0,1,2.47.69,4.732,4.732,0,0,1,1.72,1.98,6.881,6.881,0,0,1,.63,3.05,6.9,6.9,0,0,1-.63,3.04A4.721,4.721,0,0,1,39.31-.55a4.52,4.52,0,0,1-2.47.69,4.04,4.04,0,0,1-2.2-.58A3.368,3.368,0,0,1,33.3-2.02V5.32H29.88V-11.16H33.3v2.02a3.368,3.368,0,0,1,1.34-1.58A4.04,4.04,0,0,1,36.84-11.3Zm-1.1,3a2.328,2.328,0,0,0-1.77.73,2.779,2.779,0,0,0-.69,1.99,2.787,2.787,0,0,0,.69,1.98,2.312,2.312,0,0,0,1.77.74,2.3,2.3,0,0,0,1.77-.72,2.823,2.823,0,0,0,.67-2,2.823,2.823,0,0,0-.67-2A2.3,2.3,0,0,0,35.74-8.3Zm7.38-6a1.669,1.669,0,0,1,.56-1.29,2.113,2.113,0,0,1,1.48-.51,2.113,2.113,0,0,1,1.48.51,1.669,1.669,0,0,1,.56,1.29,1.647,1.647,0,0,1-.56,1.27,2.113,2.113,0,0,1-1.48.51,2.113,2.113,0,0,1-1.48-.51A1.647,1.647,0,0,1,43.12-14.3Zm3.74,3.14V0H43.44V-11.16Zm8.68,8.22V0H54a4.431,4.431,0,0,1-3.05-.97,4.112,4.112,0,0,1-1.09-3.21v-4.1h-1.5v-2.88h1.5V-13.9h3.42v2.74h2.24v2.88H53.28v4.16a1.254,1.254,0,0,0,.27.92,1.291,1.291,0,0,0,.91.26ZM61.7-11.3a4.04,4.04,0,0,1,2.2.58,3.487,3.487,0,0,1,1.36,1.58v-2.02h3.4V0h-3.4V-2.02A3.487,3.487,0,0,1,63.9-.44a4.04,4.04,0,0,1-2.2.58,4.52,4.52,0,0,1-2.47-.69,4.721,4.721,0,0,1-1.72-1.99,6.9,6.9,0,0,1-.63-3.04,6.881,6.881,0,0,1,.63-3.05,4.732,4.732,0,0,1,1.72-1.98A4.52,4.52,0,0,1,61.7-11.3Zm1.1,3a2.3,2.3,0,0,0-1.77.72,2.823,2.823,0,0,0-.67,2,2.823,2.823,0,0,0,.67,2,2.3,2.3,0,0,0,1.77.72,2.312,2.312,0,0,0,1.77-.74,2.787,2.787,0,0,0,.69-1.98,2.779,2.779,0,0,0-.69-1.99A2.328,2.328,0,0,0,62.8-8.3Zm11.64-6.5V0H71.02V-14.8Zm12.98.52a7.062,7.062,0,0,1,4.38,1.3,5.538,5.538,0,0,1,2.14,3.52H90.32a2.791,2.791,0,0,0-1.1-1.21,3.362,3.362,0,0,0-1.78-.45,3.326,3.326,0,0,0-2.6,1.09,4.249,4.249,0,0,0-.98,2.95,4.318,4.318,0,0,0,1.03,3.1A3.857,3.857,0,0,0,87.82-2.9a3.539,3.539,0,0,0,2.14-.67,3.571,3.571,0,0,0,1.3-1.91H86.94V-7.94h7.18v3.38a6.9,6.9,0,0,1-1.28,2.3A6.59,6.59,0,0,1,90.59-.54a7.125,7.125,0,0,1-3.13.66,7.436,7.436,0,0,1-3.74-.91,6.234,6.234,0,0,1-2.47-2.55,7.858,7.858,0,0,1-.87-3.74,7.858,7.858,0,0,1,.87-3.74,6.252,6.252,0,0,1,2.46-2.55A7.339,7.339,0,0,1,87.42-14.28Zm12.86,2.98a4.04,4.04,0,0,1,2.2.58,3.487,3.487,0,0,1,1.36,1.58v-2.02h3.4V0h-3.4V-2.02a3.487,3.487,0,0,1-1.36,1.58,4.04,4.04,0,0,1-2.2.58,4.52,4.52,0,0,1-2.47-.69,4.721,4.721,0,0,1-1.72-1.99,6.9,6.9,0,0,1-.63-3.04,6.881,6.881,0,0,1,.63-3.05,4.732,4.732,0,0,1,1.72-1.98A4.52,4.52,0,0,1,100.28-11.3Zm1.1,3a2.3,2.3,0,0,0-1.77.72,2.823,2.823,0,0,0-.67,2,2.823,2.823,0,0,0,.67,2,2.3,2.3,0,0,0,1.77.72,2.312,2.312,0,0,0,1.77-.74,2.787,2.787,0,0,0,.69-1.98,2.779,2.779,0,0,0-.69-1.99A2.328,2.328,0,0,0,101.38-8.3Zm7.9-6a1.669,1.669,0,0,1,.56-1.29,2.113,2.113,0,0,1,1.48-.51,2.113,2.113,0,0,1,1.48.51,1.669,1.669,0,0,1,.56,1.29,1.647,1.647,0,0,1-.56,1.27,2.113,2.113,0,0,1-1.48.51,2.113,2.113,0,0,1-1.48-.51A1.647,1.647,0,0,1,109.28-14.3Zm3.74,3.14V0H109.6V-11.16Zm9.44-.12A3.863,3.863,0,0,1,125.51-10a5.134,5.134,0,0,1,1.13,3.52V0h-3.42V-6.08a2.46,2.46,0,0,0-.59-1.75,2.049,2.049,0,0,0-1.57-.63,2.137,2.137,0,0,0-1.65.66,2.67,2.67,0,0,0-.61,1.88V0h-3.42V-11.16h3.42v2.04a3.681,3.681,0,0,1,1.43-1.58A4.2,4.2,0,0,1,122.46-11.28Zm10.5-.02a5.12,5.12,0,0,1,3.39,1.06,4.606,4.606,0,0,1,1.59,2.8h-3.2a1.773,1.773,0,0,0-.63-1.07,1.913,1.913,0,0,0-1.23-.39,1.345,1.345,0,0,0-.88.25.872.872,0,0,0-.3.71.833.833,0,0,0,.55.78,8.77,8.77,0,0,0,1.73.52,17.181,17.181,0,0,1,2.1.61,3.464,3.464,0,0,1,1.42,1.01,2.791,2.791,0,0,1,.6,1.88,2.883,2.883,0,0,1-.52,1.7,3.424,3.424,0,0,1-1.5,1.16,5.861,5.861,0,0,1-2.32.42,5.974,5.974,0,0,1-3.62-1,4.219,4.219,0,0,1-1.66-2.86h3.3a1.485,1.485,0,0,0,.61,1.1,2.3,2.3,0,0,0,1.37.38,1.275,1.275,0,0,0,.88-.27.91.91,0,0,0,.3-.71.854.854,0,0,0-.55-.83,10.113,10.113,0,0,0-1.79-.53,14.313,14.313,0,0,1-2.04-.56,3.368,3.368,0,0,1-1.38-.97,2.7,2.7,0,0,1-.58-1.83,2.986,2.986,0,0,1,1.14-2.43A4.968,4.968,0,0,1,132.96-11.3Z" transform="translate(916 305)" fill="#181c3a"/>
    </g>
    <g transform="matrix(1, 0, 0, 1, 740, 139.18)" filter="url(#Path_12119-2)">
      <path id="Path_12119-4" data-name="Path 12119" d="M76.213,20H376.934a5.994,5.994,0,0,1,6.213,5.747L408,126.9c0,3.174-27.635-29.885-31.066-29.885H76.213A5.994,5.994,0,0,1,70,91.265V25.747A5.994,5.994,0,0,1,76.213,20Z" transform="matrix(1, 0, 0, -1, -61, 481.82)" fill="#fff"/>
    </g>
    <path id="Path_12715" data-name="Path 12715" d="M11.34-14.14v2.72H7.5V0H4.06V-11.42H.26v-2.72ZM16.2-9.06a4.853,4.853,0,0,1,1.65-1.62,4.212,4.212,0,0,1,2.19-.6v3.66h-.98a3.38,3.38,0,0,0-2.11.58,2.33,2.33,0,0,0-.75,1.96V0H12.78V-11.16H16.2Zm9.52-2.24a4.04,4.04,0,0,1,2.2.58,3.487,3.487,0,0,1,1.36,1.58v-2.02h3.4V0h-3.4V-2.02A3.487,3.487,0,0,1,27.92-.44a4.04,4.04,0,0,1-2.2.58,4.52,4.52,0,0,1-2.47-.69,4.721,4.721,0,0,1-1.72-1.99,6.9,6.9,0,0,1-.63-3.04,6.881,6.881,0,0,1,.63-3.05,4.732,4.732,0,0,1,1.72-1.98A4.52,4.52,0,0,1,25.72-11.3Zm1.1,3a2.3,2.3,0,0,0-1.77.72,2.823,2.823,0,0,0-.67,2,2.823,2.823,0,0,0,.67,2,2.3,2.3,0,0,0,1.77.72,2.312,2.312,0,0,0,1.77-.74,2.787,2.787,0,0,0,.69-1.98,2.779,2.779,0,0,0-.69-1.99A2.328,2.328,0,0,0,26.82-8.3Zm15.3-2.98A3.863,3.863,0,0,1,45.17-10,5.134,5.134,0,0,1,46.3-6.48V0H42.88V-6.08a2.46,2.46,0,0,0-.59-1.75,2.049,2.049,0,0,0-1.57-.63,2.137,2.137,0,0,0-1.65.66,2.67,2.67,0,0,0-.61,1.88V0H35.04V-11.16h3.42v2.04a3.681,3.681,0,0,1,1.43-1.58A4.2,4.2,0,0,1,42.12-11.28Zm10.5-.02a5.12,5.12,0,0,1,3.39,1.06,4.606,4.606,0,0,1,1.59,2.8H54.4a1.773,1.773,0,0,0-.63-1.07,1.913,1.913,0,0,0-1.23-.39,1.345,1.345,0,0,0-.88.25.872.872,0,0,0-.3.71.833.833,0,0,0,.55.78,8.77,8.77,0,0,0,1.73.52,17.18,17.18,0,0,1,2.1.61,3.464,3.464,0,0,1,1.42,1.01,2.791,2.791,0,0,1,.6,1.88,2.883,2.883,0,0,1-.52,1.7,3.424,3.424,0,0,1-1.5,1.16,5.861,5.861,0,0,1-2.32.42,5.974,5.974,0,0,1-3.62-1,4.219,4.219,0,0,1-1.66-2.86h3.3a1.485,1.485,0,0,0,.61,1.1,2.3,2.3,0,0,0,1.37.38,1.275,1.275,0,0,0,.88-.27.91.91,0,0,0,.3-.71.854.854,0,0,0-.55-.83,10.113,10.113,0,0,0-1.79-.53,14.313,14.313,0,0,1-2.04-.56,3.368,3.368,0,0,1-1.38-.97,2.7,2.7,0,0,1-.58-1.83,2.986,2.986,0,0,1,1.14-2.43A4.968,4.968,0,0,1,52.62-11.3Zm11.28,0a4.04,4.04,0,0,1,2.2.58,3.487,3.487,0,0,1,1.36,1.58v-2.02h3.4V0h-3.4V-2.02A3.487,3.487,0,0,1,66.1-.44a4.04,4.04,0,0,1-2.2.58,4.52,4.52,0,0,1-2.47-.69,4.721,4.721,0,0,1-1.72-1.99,6.9,6.9,0,0,1-.63-3.04,6.881,6.881,0,0,1,.63-3.05,4.732,4.732,0,0,1,1.72-1.98A4.52,4.52,0,0,1,63.9-11.3Zm1.1,3a2.3,2.3,0,0,0-1.77.72,2.823,2.823,0,0,0-.67,2,2.823,2.823,0,0,0,.67,2A2.3,2.3,0,0,0,65-2.86a2.312,2.312,0,0,0,1.77-.74,2.787,2.787,0,0,0,.69-1.98,2.779,2.779,0,0,0-.69-1.99A2.328,2.328,0,0,0,65-8.3Zm13.26-3a5.543,5.543,0,0,1,3.62,1.19,5.277,5.277,0,0,1,1.84,3.27H80.1a1.91,1.91,0,0,0-.66-1.12,1.953,1.953,0,0,0-1.26-.4,1.828,1.828,0,0,0-1.48.71,3.2,3.2,0,0,0-.58,2.07,3.2,3.2,0,0,0,.58,2.07,1.828,1.828,0,0,0,1.48.71,1.953,1.953,0,0,0,1.26-.4,1.91,1.91,0,0,0,.66-1.12h3.62a5.277,5.277,0,0,1-1.84,3.27A5.543,5.543,0,0,1,78.26.14a6,6,0,0,1-2.91-.69,4.93,4.93,0,0,1-1.99-1.99,6.174,6.174,0,0,1-.72-3.04,6.23,6.23,0,0,1,.71-3.05,4.866,4.866,0,0,1,1.99-1.98A6.056,6.056,0,0,1,78.26-11.3ZM91.82-2.94V0H90.28a4.431,4.431,0,0,1-3.05-.97,4.112,4.112,0,0,1-1.09-3.21v-4.1h-1.5v-2.88h1.5V-13.9h3.42v2.74H91.8v2.88H89.56v4.16a1.254,1.254,0,0,0,.27.92,1.291,1.291,0,0,0,.91.26Zm1.6-11.36a1.669,1.669,0,0,1,.56-1.29,2.113,2.113,0,0,1,1.48-.51,2.113,2.113,0,0,1,1.48.51,1.669,1.669,0,0,1,.56,1.29,1.647,1.647,0,0,1-.56,1.27,2.113,2.113,0,0,1-1.48.51,2.113,2.113,0,0,1-1.48-.51A1.647,1.647,0,0,1,93.42-14.3Zm3.74,3.14V0H93.74V-11.16Zm7.58-.14a6.276,6.276,0,0,1,2.97.69,5.059,5.059,0,0,1,2.06,1.99,5.976,5.976,0,0,1,.75,3.04,5.976,5.976,0,0,1-.75,3.04,5.059,5.059,0,0,1-2.06,1.99,6.276,6.276,0,0,1-2.97.69,6.335,6.335,0,0,1-2.98-.69,5.043,5.043,0,0,1-2.07-1.99,5.976,5.976,0,0,1-.75-3.04,5.976,5.976,0,0,1,.75-3.04,5.043,5.043,0,0,1,2.07-1.99A6.335,6.335,0,0,1,104.74-11.3Zm0,2.96a2.179,2.179,0,0,0-1.65.71,2.876,2.876,0,0,0-.67,2.05,2.839,2.839,0,0,0,.67,2.04,2.194,2.194,0,0,0,1.65.7,2.162,2.162,0,0,0,1.64-.7,2.866,2.866,0,0,0,.66-2.04,2.9,2.9,0,0,0-.66-2.05A2.148,2.148,0,0,0,104.74-8.34Zm14.64-2.94A3.863,3.863,0,0,1,122.43-10a5.134,5.134,0,0,1,1.13,3.52V0h-3.42V-6.08a2.46,2.46,0,0,0-.59-1.75,2.049,2.049,0,0,0-1.57-.63,2.137,2.137,0,0,0-1.65.66,2.67,2.67,0,0,0-.61,1.88V0H112.3V-11.16h3.42v2.04a3.681,3.681,0,0,1,1.43-1.58A4.2,4.2,0,0,1,119.38-11.28Zm13.86-2.86V0h-3.42V-14.14Zm9.44,2.86A3.863,3.863,0,0,1,145.73-10a5.134,5.134,0,0,1,1.13,3.52V0h-3.42V-6.08a2.46,2.46,0,0,0-.59-1.75,2.049,2.049,0,0,0-1.57-.63,2.137,2.137,0,0,0-1.65.66,2.67,2.67,0,0,0-.61,1.88V0H135.6V-11.16h3.42v2.04a3.681,3.681,0,0,1,1.43-1.58A4.2,4.2,0,0,1,142.68-11.28Zm11.48-.02a5.543,5.543,0,0,1,3.62,1.19,5.277,5.277,0,0,1,1.84,3.27H156a1.91,1.91,0,0,0-.66-1.12,1.953,1.953,0,0,0-1.26-.4,1.828,1.828,0,0,0-1.48.71,3.2,3.2,0,0,0-.58,2.07,3.2,3.2,0,0,0,.58,2.07,1.828,1.828,0,0,0,1.48.71,1.953,1.953,0,0,0,1.26-.4A1.91,1.91,0,0,0,156-4.32h3.62a5.277,5.277,0,0,1-1.84,3.27A5.543,5.543,0,0,1,154.16.14a6,6,0,0,1-2.91-.69,4.93,4.93,0,0,1-1.99-1.99,6.175,6.175,0,0,1-.72-3.04,6.23,6.23,0,0,1,.71-3.05,4.866,4.866,0,0,1,1.99-1.98A6.056,6.056,0,0,1,154.16-11.3Zm12.46,0a6.276,6.276,0,0,1,2.97.69,5.059,5.059,0,0,1,2.06,1.99,5.976,5.976,0,0,1,.75,3.04,5.976,5.976,0,0,1-.75,3.04,5.059,5.059,0,0,1-2.06,1.99,6.276,6.276,0,0,1-2.97.69,6.335,6.335,0,0,1-2.98-.69,5.043,5.043,0,0,1-2.07-1.99,5.976,5.976,0,0,1-.75-3.04,5.976,5.976,0,0,1,.75-3.04,5.043,5.043,0,0,1,2.07-1.99A6.335,6.335,0,0,1,166.62-11.3Zm0,2.96a2.179,2.179,0,0,0-1.65.71,2.876,2.876,0,0,0-.67,2.05,2.839,2.839,0,0,0,.67,2.04,2.194,2.194,0,0,0,1.65.7,2.162,2.162,0,0,0,1.64-.7,2.866,2.866,0,0,0,.66-2.04,2.9,2.9,0,0,0-.66-2.05A2.148,2.148,0,0,0,166.62-8.34Zm22.02-2.94a4.206,4.206,0,0,1,3.24,1.27,4.987,4.987,0,0,1,1.18,3.53V0h-3.4V-6.08a2.277,2.277,0,0,0-.57-1.65,2.055,2.055,0,0,0-1.55-.59,2.1,2.1,0,0,0-1.61.63,2.49,2.49,0,0,0-.59,1.77V0h-3.42V-6.08a2.3,2.3,0,0,0-.56-1.65,2.022,2.022,0,0,0-1.54-.59,2.15,2.15,0,0,0-1.62.62,2.457,2.457,0,0,0-.6,1.78V0h-3.42V-11.16h3.42v1.9a3.33,3.33,0,0,1,1.35-1.48,4.1,4.1,0,0,1,2.13-.54,4.3,4.3,0,0,1,2.26.59A3.706,3.706,0,0,1,184.82-9a4.47,4.47,0,0,1,1.59-1.66A4.18,4.18,0,0,1,188.64-11.28Zm17.3,5.4a4.718,4.718,0,0,1-.1.92H198.1a2.587,2.587,0,0,0,.64,1.81,2.064,2.064,0,0,0,1.48.55,2.023,2.023,0,0,0,1.26-.38,1.774,1.774,0,0,0,.66-.98h3.62a4.73,4.73,0,0,1-.96,2.11,5.117,5.117,0,0,1-1.88,1.46,5.953,5.953,0,0,1-2.54.53,6,6,0,0,1-2.91-.69,4.93,4.93,0,0,1-1.99-1.99,6.175,6.175,0,0,1-.72-3.04,6.23,6.23,0,0,1,.71-3.05,4.866,4.866,0,0,1,1.99-1.98,6.056,6.056,0,0,1,2.92-.69,6.054,6.054,0,0,1,2.92.68,4.8,4.8,0,0,1,1.95,1.91A5.685,5.685,0,0,1,205.94-5.88Zm-3.46-.52a2.056,2.056,0,0,0-.59-1.65,2.172,2.172,0,0,0-1.51-.55,2.24,2.24,0,0,0-1.56.56,2.344,2.344,0,0,0-.7,1.64Z" transform="translate(844 570)" fill="#181c3a"/>
    <g id="Group_3625" data-name="Group 3625" transform="translate(108.25 365.31)">
      <path id="Path_12124" data-name="Path 12124" d="M777.483-42.31h1.077a3.412,3.412,0,0,1,2.076.92,1.864,1.864,0,0,0,2.605-.064,2.9,2.9,0,0,1,1.446-.763,1.651,1.651,0,0,1,1.956,1.918c-.029.253-.059.5-.073.758a.6.6,0,0,0,.418.654,4,4,0,0,1,2.048,1.923,3.3,3.3,0,0,1-.305,3.634c-.346.492-.349.477.237.671a7.416,7.416,0,0,1,3.122,1.787,1.591,1.591,0,0,1,.3.387.879.879,0,0,1-.186,1.065.836.836,0,0,1-1.111.015c-.2-.155-.37-.348-.57-.506a7.909,7.909,0,0,0-4.19-1.467,25.478,25.478,0,0,1,6.129,7.64,29.988,29.988,0,0,1,3.11,9.364c.075.469.026.949.127,1.415v.718c-.1.178-.023.37-.046.554a2.213,2.213,0,0,0,.046.7v.9a14.837,14.837,0,0,1-.346,2.244,9.289,9.289,0,0,1-6.363,6.406,13.31,13.31,0,0,1-4.2.632q-4.957.008-9.915,0a4.8,4.8,0,0,1-.583-.015.9.9,0,0,1-.892-.888.844.844,0,0,1,.872-.881c.194-.018.388-.011.583-.011,3.139,0,6.279-.007,9.418,0a15.15,15.15,0,0,0,3.554-.394,7.6,7.6,0,0,0,6.042-6.338,17.029,17.029,0,0,0-.439-6.8,27.347,27.347,0,0,0-3.632-8.688,22.3,22.3,0,0,0-6.98-6.922.993.993,0,0,0-1.013,0c-.271.06-.342.178-.094.365.552.416,1,.94,1.508,1.4a.844.844,0,0,1,.281.931.822.822,0,0,1-.714.6,1,1,0,0,1-.881-.356c-.587-.619-1.274-1.131-1.854-1.756-.245-.265-.542-.469-.806-.712-.065-.06-.135-.147-.229-.1s-.081.152-.081.241c-.005.568,0,1.136,0,1.7a.92.92,0,0,1-.854,1.006.95.95,0,0,1-.886-.96c-.032-.537,0-1.076-.012-1.614,0-.116.039-.266-.083-.329-.154-.079-.242.072-.333.16-.867.844-1.744,1.677-2.66,2.468a.821.821,0,0,1-1.173.061.876.876,0,0,1,0-1.346c.438-.448.937-.833,1.37-1.289.344-.363.346-.338-.1-.519a.9.9,0,0,0-.883.084,21.012,21.012,0,0,0-5.708,5.114c-.138.176-.271.357-.423.522a.865.865,0,0,1-1.233.2.907.907,0,0,1-.119-1.322,14.3,14.3,0,0,1,1.059-1.333,1.253,1.253,0,0,0,.3-.862c-.008-1.33,0-2.66,0-3.99,0-.443-.014-.447-.418-.3a9.981,9.981,0,0,1-7.306-.019c-.4-.154-.449-.129-.451.282-.006,1.419,0,2.839-.006,4.258,0,.384.154.5.529.537a7.26,7.26,0,0,1,3.708,1.2,2.5,2.5,0,0,1,1.156,2.2q-.025,1.075,0,2.152.006,4.148,0,8.3c0,.655.019.691.684.67a9.558,9.558,0,0,1,4.121.7,4.209,4.209,0,0,1,1.244.786,2.449,2.449,0,0,1,.862,1.852c-.008,2.974.008,5.949-.007,8.923a1.608,1.608,0,0,0,0,.223,2.91,2.91,0,0,1-2.19,3.155,9.715,9.715,0,0,1-7.3.029c-.576-.227-.561-.218-.956.27a5.087,5.087,0,0,1-3.348,1.7c-.32.052-.649.019-.968.094h-2.333a7.186,7.186,0,0,1-2.9-.78A4.576,4.576,0,0,1,750.1,1.849a2.072,2.072,0,0,1-.346-.9V-3.717a2.654,2.654,0,0,1,1.424-1.741,3.4,3.4,0,0,1,.982-.433.6.6,0,0,0,.519-.747,2.951,2.951,0,0,1,0-.359c0-5.921.035-11.842-.023-17.762a3.17,3.17,0,0,1,2.125-3.183,8.672,8.672,0,0,1,1.934-.563c.509-.1.539-.117.54-.633,0-2.153.036-4.307-.011-6.459a2.916,2.916,0,0,1,1.752-2.873,9.3,9.3,0,0,1,4.97-.878,8.326,8.326,0,0,1,2.791.611,5.335,5.335,0,0,1,1.35.789,2.3,2.3,0,0,1,.9,1.827c0,1.6,0,3.2,0,4.8a1.64,1.64,0,0,0,.028.478c.094.067.153.011.206-.037a19.31,19.31,0,0,1,2.564-1.956c.233-.149.366-.282.12-.555a9.816,9.816,0,0,1-2.265-5.138,11.638,11.638,0,0,1-.112-2.146,1.648,1.648,0,0,1,2.542-1.362,4.566,4.566,0,0,1,.913.646,1.863,1.863,0,0,0,2.507,0A3.384,3.384,0,0,1,777.483-42.31Z" fill-rule="evenodd"/>
      <path id="Path_12125" data-name="Path 12125" d="M1132.976,213.9c-.179-.222-.054-.481-.085-.721.03-.039.058-.036.085,0Z" transform="translate(-337.274 -224.888)" fill="#151515" fill-rule="evenodd"/>
      <path id="Path_12126" data-name="Path 12126" d="M1132.988,209.447l-.086,0c.029-.178-.087-.38.086-.536Z" transform="translate(-337.285 -221.152)" fill="#242424" fill-rule="evenodd"/>
      <path id="Path_12127" data-name="Path 12127" d="M880.425,74.084l-2.259-.005c-.005-2.927-.037-5.854,0-8.78a2.6,2.6,0,0,0-1.348-2.4,7.606,7.606,0,0,0-3.618-1.032,16.019,16.019,0,0,0-1.612,0c-.235.008-.345-.017-.344-.3.015-2.957.017-5.913.023-8.87a12.842,12.842,0,0,1,1.54-2.66c.051-.072.111-.144.219-.124.582.187.781.122,1.181-.4a21.706,21.706,0,0,1,5.98-5.485.932.932,0,0,1,1.059-.1,3.468,3.468,0,0,0,.633.211c-.643.6-1.251,1.169-1.862,1.736a.8.8,0,0,0-.306.835.767.767,0,0,0,1.318.312c.883-.807,1.752-1.63,2.627-2.446l.231-.213c.09-.082.186-.17.315-.1s.068.186.069.283c0,.643-.006,1.286.007,1.929a.744.744,0,0,0,.6.785.728.728,0,0,0,.811-.335.846.846,0,0,0,.113-.516c0-.613,0-1.227,0-1.84,0-.111-.059-.257.081-.323s.248.054.344.144q1.362,1.269,2.722,2.542a1,1,0,0,0,.657.347.721.721,0,0,0,.72-.44.743.743,0,0,0-.2-.9c-.565-.535-1.137-1.062-1.706-1.592-.065-.061-.131-.12-.25-.228l.547-.125a.708.708,0,0,1,.7.179,18.886,18.886,0,0,1,1.607,1.292,25.5,25.5,0,0,1,6.951,10.4,28.2,28.2,0,0,1,1.615,6.649,8.574,8.574,0,0,1,.115,1.7c-.014.168.042.374-.19.453-.124-.031-.19-.139-.283-.212a.614.614,0,0,0-1.042.342,4.583,4.583,0,0,0-.1.753,5.021,5.021,0,0,1-1.626,3.393,6.229,6.229,0,0,1-3.54,1.372c-.268.027-.533.067-.8.1-.454.052-.674.268-.658.631a.718.718,0,0,0,.739.641,5.5,5.5,0,0,0,.8-.076,7.523,7.523,0,0,0,4.74-2.094,6.476,6.476,0,0,0,1.112-1.778c.071-.146.105-.315.258-.41.341.094.15.338.107.493a8.287,8.287,0,0,1-1.648,3.094,6.378,6.378,0,0,1-2.646,1.985,9.474,9.474,0,0,1-3.045.431c-3.482.011-6.965,0-10.447,0C880.775,73.329,880.6,73.465,880.425,74.084Z" transform="translate(-106.952 -75.805)" fill="#fedb00" fill-rule="evenodd"/>
      <path id="Path_12128" data-name="Path 12128" d="M796.449,116.339v.46c0,2.93,0,5.861.006,8.791,0,.308-.057.475-.393.563a4.535,4.535,0,0,0-1.813.944,2.266,2.266,0,0,0-.864,1.835c.02,1.614.006,3.229.006,4.844v.493a11.392,11.392,0,0,0-2.324-.768,9.5,9.5,0,0,0-2.588-.126c-.381.033-.468-.044-.467-.427q.021-7.266.009-14.532c0-.568.017-1.137-.006-1.7-.014-.35.085-.357.373-.232a9.6,9.6,0,0,0,7.33.169C795.938,116.568,796.152,116.465,796.449,116.339Z" transform="translate(-33.682 -139.661)" fill="#fe9701" fill-rule="evenodd"/>
      <path id="Path_12129" data-name="Path 12129" d="M854.1,238v2.6c0,1.6-.025,3.2.013,4.8a1.171,1.171,0,0,1-.671,1.154,6.59,6.59,0,0,1-2.741.752,8.363,8.363,0,0,1-3.831-.49,4.481,4.481,0,0,1-.713-.37.987.987,0,0,1-.5-.929c.018-2.362.009-4.724.009-7.086V238A9.967,9.967,0,0,0,854.1,238Z" transform="translate(-84.434 -246.761)" fill="#fedb00" fill-rule="evenodd"/>
      <path id="Path_12130" data-name="Path 12130" d="M938.082-22.038a19.454,19.454,0,0,0,1.4-3.285c.173-.59.024-.985-.443-1.138s-.834.088-1.016.675A13.891,13.891,0,0,1,936.33-22.2a.7.7,0,0,1-1.169,0,14,14,0,0,1-1.637-3.42c-.041-.128-.074-.259-.126-.382a.747.747,0,0,0-.946-.457.742.742,0,0,0-.488.964,15.746,15.746,0,0,0,1.34,3.213c.049.09.1.181.145.276a2.344,2.344,0,0,1-1.751-.47,5.644,5.644,0,0,1-1.7-1.938,9.714,9.714,0,0,1-1.131-4.967,2.08,2.08,0,0,1,.7.459,3.5,3.5,0,0,0,4.7-.027,2,2,0,0,1,2.893-.011,3.6,3.6,0,0,0,3.891.617.371.371,0,0,1,.1.37,9.474,9.474,0,0,1-2.184,5.349C938.734-22.356,938.521-22.016,938.082-22.038Z" transform="translate(-157.657 -11.21)" fill="#fedb00" fill-rule="evenodd"/>
      <path id="Path_12131" data-name="Path 12131" d="M833.545,34.834a19.752,19.752,0,0,0-1.573,2.544.486.486,0,0,1-.186.239c-.006-.7-.037-1.405-.01-2.106a2.3,2.3,0,0,0-1.023-2.027,7,7,0,0,0-3.869-1.235c-.4-.025-.493-.133-.488-.518.021-1.659.009-3.318.009-5.059a9.666,9.666,0,0,0,4.208.934,9.476,9.476,0,0,0,4.216-.938v1.159c0,1.241-.005,2.482,0,3.723a.842.842,0,0,1-.224.6c-.39.452-.765.919-1.13,1.391C833.068,34.077,833.089,34.347,833.545,34.834Z" transform="translate(-67.473 -60.723)" fill="#fe9701" fill-rule="evenodd"/>
      <path id="Path_12132" data-name="Path 12132" d="M1028.152,64.608a2.512,2.512,0,0,0,.054-1.149,30.253,30.253,0,0,0-.778-4.606,28.013,28.013,0,0,0-4.82-10.106,23.4,23.4,0,0,0-4.544-4.461,1.1,1.1,0,0,0-.719-.328.968.968,0,0,1,1.208.047,23,23,0,0,1,8.848,10.488,24.9,24.9,0,0,1,2.331,9.818,8.893,8.893,0,0,1-1.71,5.769,7.762,7.762,0,0,1-4.468,2.782,11.766,11.766,0,0,0,1.788-1.249,8.1,8.1,0,0,0,2.488-4.24c0-.02-.029-.049-.044-.074a.255.255,0,0,1-.053-.29,9.519,9.519,0,0,0,.337-2.251A.2.2,0,0,1,1028.152,64.608Z" transform="translate(-235.568 -75.774)" fill="#fdc008" fill-rule="evenodd"/>
      <path id="Path_12133" data-name="Path 12133" d="M850.174,207.314a7.448,7.448,0,0,1,3.306.657c.385.186.87.384.865.873s-.481.7-.875.867a8.383,8.383,0,0,1-6.614.005c-.392-.161-.872-.377-.882-.86-.011-.515.5-.7.892-.9A7.487,7.487,0,0,1,850.174,207.314Z" transform="translate(-84.707 -219.748)" fill="#feea3a" fill-rule="evenodd"/>
      <path id="Path_12134" data-name="Path 12134" d="M792.566,85.75a7.367,7.367,0,0,1,3.263.642c.4.192.9.382.89.9-.011.482-.489.7-.882.859a8.365,8.365,0,0,1-6.612-.008c-.394-.164-.87-.381-.876-.865s.481-.684.866-.871A7.429,7.429,0,0,1,792.566,85.75Z" transform="translate(-33.98 -112.733)" fill="#fedb00" fill-rule="evenodd"/>
      <path id="Path_12135" data-name="Path 12135" d="M766.928,274.143a7.409,7.409,0,0,1-3.305-.658c-.383-.186-.871-.379-.862-.873s.484-.7.876-.865a8.38,8.38,0,0,1,6.614,0c.393.162.874.379.882.861.008.511-.5.7-.9.9A7.466,7.466,0,0,1,766.928,274.143Z" transform="translate(-11.453 -275.869)" fill="#feea3a" fill-rule="evenodd"/>
      <path id="Path_12136" data-name="Path 12136" d="M830.976-1.025a7.463,7.463,0,0,1-3.307-.644c-.387-.186-.872-.375-.888-.858-.017-.52.484-.733.888-.9a8.374,8.374,0,0,1,6.569-.01c.4.163.906.368.9.887s-.5.7-.9.888A7.409,7.409,0,0,1,830.976-1.025Z" transform="translate(-67.812 -33.635)" fill="#fedb00" fill-rule="evenodd"/>
      <path id="Path_12137" data-name="Path 12137" d="M770.8,302.024c0,.561.008,1.095,0,1.628-.007.36-.277.548-.54.72a5.317,5.317,0,0,1-2.1.731,8.858,8.858,0,0,1-4.331-.3,5.544,5.544,0,0,1-.737-.319,1.142,1.142,0,0,1-.732-1.248,10.076,10.076,0,0,0,.009-1.211A9.985,9.985,0,0,0,770.8,302.024Z" transform="translate(-11.09 -303.123)" fill="#fedb00" fill-rule="evenodd"/>
      <path id="Path_12138" data-name="Path 12138" d="M1005.809-21.131a5.335,5.335,0,0,0,1.974-2.414,9.8,9.8,0,0,0,1-3.892l1.567-1.108a10.886,10.886,0,0,1-.119,1.817,8.386,8.386,0,0,1-1.67,4.141,3.844,3.844,0,0,1-2.259,1.512.807.807,0,0,1-.521.008c-.005,0-.007-.023,0-.031A.166.166,0,0,1,1005.809-21.131Z" transform="translate(-225.384 -12.118)" fill="#fdc008" fill-rule="evenodd"/>
      <path id="Path_12139" data-name="Path 12139" d="M959.1,103.164c0,.374.019.749-.006,1.121-.02.293.052.393.372.434a3.056,3.056,0,0,1,.637,5.925,1.237,1.237,0,0,1-.473.123c-.526-.05-.555.239-.538.651.025.594-.254.909-.735.918s-.808-.328-.777-.931c.022-.428-.061-.584-.543-.653a3.017,3.017,0,0,1-2.524-2.943.756.756,0,0,1,.726-.807.74.74,0,0,1,.8.726c.008.074.005.15.017.223a1.569,1.569,0,0,0,1.2,1.3c.21.04.328.024.322-.252-.018-.837-.013-1.674,0-2.511,0-.213-.068-.261-.275-.287a3.055,3.055,0,0,1,.031-6.089c.207-.009.25-.1.242-.275a3.694,3.694,0,0,1,0-.538.755.755,0,0,1,.807-.725.687.687,0,0,1,.7.763c-.052.562.12.753.7.86a2.929,2.929,0,0,1,2.377,2.818c.014.53-.228.849-.674.889-.468.042-.779-.242-.85-.777a1.544,1.544,0,0,0-1.168-1.465c-.257-.062-.389-.024-.37.288C959.121,102.355,959.1,102.76,959.1,103.164Z" transform="translate(-180.257 -124.024)" fill-rule="evenodd"/>
      <path id="Path_12140" data-name="Path 12140" d="M1047.25,214.206a7.251,7.251,0,0,1-.366,2.692c-1.071,2.953-3.4,4.11-6.32,4.409a4.746,4.746,0,0,1-.8.044.738.738,0,0,1-.72-.764.72.72,0,0,1,.729-.747,9.712,9.712,0,0,0,2.764-.509,4.75,4.75,0,0,0,3.174-4.225c.023-.178.034-.357.041-.537a.78.78,0,0,1,.6-.839A.757.757,0,0,1,1047.25,214.206Z" transform="translate(-254.667 -225.373)" fill-rule="evenodd"/>
      <path id="Path_12141" data-name="Path 12141" d="M992.809,164c0-.417.008-.833,0-1.25-.006-.206.072-.253.265-.225a1.542,1.542,0,0,1,.061,3.022c-.264.05-.339-.04-.328-.3C992.822,164.838,992.809,164.42,992.809,164Z" transform="translate(-213.964 -180.316)" fill="#fdda00" fill-rule="evenodd"/>
      <path id="Path_12142" data-name="Path 12142" d="M968.822,125.7c0,.418-.015.837.005,1.254.013.27-.095.3-.318.246a1.536,1.536,0,0,1-.047-2.993c.255-.064.387-.033.367.283C968.8,124.891,968.822,125.3,968.822,125.7Z" transform="translate(-191.507 -146.563)" fill="#fedb00" fill-rule="evenodd"/>
    </g>
    <g id="Group_3626" data-name="Group 3626" transform="translate(159.762 529.043)">
      <path id="Path_12177" data-name="Path 12177" d="M613.75,48.895V21.165c.185-.7.416-.871,1.234-.873,2.879-.007,5.757,0,8.636-.006a.833.833,0,0,0,.567-.078,8.3,8.3,0,0,0-1.041-.929c-.166-.15-.347-.283-.5-.445a1.267,1.267,0,0,1,.088-2.022c1.24-1.069,2.474-2.145,3.72-3.207,1.679-1.431,3.34-2.883,5.018-4.315a2.636,2.636,0,0,1,.892-.606,1.106,1.106,0,0,1,1.494,1.036c.046.809.01,1.62.015,2.43.005.753.037.79.786.791q6.076,0,12.153,0c.207,0,.414,0,.62,0a1.15,1.15,0,0,1,1.226,1.189c.025.309.011.62.011.931,0,1.534,0,3.068,0,4.6,0,.568.048.616.626.617,2.344.006,4.689-.006,7.033.007a1.146,1.146,0,0,1,1.329,1.128,1.27,1.27,0,0,1-1.175,1.225,6.053,6.053,0,0,1-.827.025H635.016c-.19,0-.38.009-.569,0-.387-.018-.569.143-.566.544.014,1.648-.17,1.4,1.342,1.4q11.561.012,23.122-.012a2.215,2.215,0,0,1,2.055,1.01,5.464,5.464,0,0,0,1.5,1.483,1.87,1.87,0,0,1,.859,1.707q-.032,6.233,0,12.466a1.873,1.873,0,0,1-.876,1.7,6.074,6.074,0,0,0-1.6,1.6,1.869,1.869,0,0,1-1.7.873c-2.655-.027-5.31-.012-7.966-.008a.834.834,0,0,0-.59.1,22.06,22.06,0,0,0,2.1,1.749,1.024,1.024,0,0,0,.6.1q5.561.006,11.121,0c.583,0,.634-.057.637-.668.006-1.414,0-2.828,0-4.242q0-10.009,0-20.018c0-.293-.01-.587.01-.88.1-.773.382-1.151.935-1.253a1.008,1.008,0,0,1,1.285.84v27.73c-.185.695-.419.873-1.235.874-3.241.007-6.483,0-9.725,0a2.246,2.246,0,0,0-.6.036,1.031,1.031,0,0,0,.407.456c.317.266.643.522.951.8a1.326,1.326,0,0,1-.021,2.272q-.92.794-1.845,1.582c-2.281,1.948-4.542,3.918-6.822,5.867a4.883,4.883,0,0,1-.614.474,1.138,1.138,0,0,1-1.615-.407,2.017,2.017,0,0,1-.246-1.044c0-.707-.014-1.414,0-2.121.011-.429-.169-.6-.584-.57-.154.011-.31,0-.465,0H632.523c-.19,0-.379,0-.569,0a1.162,1.162,0,0,1-1.279-1.292c-.017-1.69,0-3.379-.006-5.069,0-.155-.009-.311,0-.465.023-.381-.164-.532-.529-.515-.172.008-.345,0-.517,0H615.45c-.207,0-.414.005-.621,0A.955.955,0,0,1,613.75,48.895Z" fill-rule="evenodd"/>
      <path id="Path_12178" data-name="Path 12178" d="M746.547,148.978a8.165,8.165,0,1,1,8.142,8.176A8.193,8.193,0,0,1,746.547,148.978Z" transform="translate(-114.474 -113.959)" fill="#cae359" fill-rule="evenodd"/>
      <path id="Path_12179" data-name="Path 12179" d="M787.085,99.747a.436.436,0,0,0,.482.269c.651-.017,1.3-.007,1.955-.008.006.172.018.344.018.516q0,12.515.011,25.029c0,.46-.1.6-.58.593-3.81-.022-7.619-.016-11.429-.006a1.209,1.209,0,0,1-.878-.325c-.729-.65-1.487-1.269-2.268-1.928a1.065,1.065,0,0,1,.588-.068c2.9,0,5.792-.012,8.688,0a1.376,1.376,0,0,0,1.291-.68,6.155,6.155,0,0,1,1.892-1.881,1.26,1.26,0,0,0,.622-1.161q-.015-6.516,0-13.032a1.26,1.26,0,0,0-.614-1.165,6.226,6.226,0,0,1-1.924-1.921,1.376,1.376,0,0,0-1.308-.645c-8.119.01-16.238,0-24.357.02-.526,0-.7-.124-.639-.647a5.541,5.541,0,0,0,0-1.188c-.042-.43.137-.5.525-.5q10.963.016,21.927.007c.888,0,1.227-.279,1.339-1.084a15.225,15.225,0,0,0,2.383.059c.081,0,.164-.1.246-.153.178.075.146.255.193.393a.805.805,0,0,0,.838.62.859.859,0,0,0,.828-.709C786.952,100.009,786.918,99.835,787.085,99.747Z" transform="translate(-124.884 -78.551)" fill="#d4e97a" fill-rule="evenodd"/>
      <path id="Path_12180" data-name="Path 12180" d="M642.757,111.267c-2.835,0-5.507.011-8.178-.008a1.409,1.409,0,0,0-1.334.7,5.812,5.812,0,0,1-1.813,1.815,1.376,1.376,0,0,0-.69,1.283q.023,6.466,0,12.931a1.3,1.3,0,0,0,.634,1.207,6.064,6.064,0,0,1,1.889,1.884,1.375,1.375,0,0,0,1.3.669c7.741-.01,15.482,0,23.223-.021.528,0,.69.128.636.646a8.988,8.988,0,0,0,0,1.343c.012.278-.093.376-.358.344a2.149,2.149,0,0,0-.258,0q-14.275,0-28.551.012c-.481,0-.581-.133-.58-.593q.022-11.974,0-23.947c0-.466.108-.593.583-.59q5.069.033,10.138,0a1.506,1.506,0,0,1,1.112.4C641.2,109.975,641.93,110.566,642.757,111.267Z" transform="translate(-12.861 -86.473)" fill="#d4e979" fill-rule="evenodd"/>
      <path id="Path_12181" data-name="Path 12181" d="M850.506,140.775h.569c3.688,0,7.375,0,11.063-.007a.838.838,0,0,1,.77.374,6.416,6.416,0,0,0,1.43,1.409.609.609,0,0,1,.275.558q-.012,5.842,0,11.683a.569.569,0,0,1-.251.516,7.361,7.361,0,0,0-1.532,1.526.616.616,0,0,1-.555.279c-3.877-.008-7.754-.006-11.76-.006a10.277,10.277,0,0,0-.009-16.332Z" transform="translate(-204.089 -113.912)" fill="#f8f4f2" fill-rule="evenodd"/>
      <path id="Path_12182" data-name="Path 12182" d="M672.785,140.784a10.3,10.3,0,0,0-.075,16.26c-.1.143-.253.069-.374.069-3.739,0-7.479,0-11.218.009a.7.7,0,0,1-.649-.3,7.047,7.047,0,0,0-1.493-1.493.609.609,0,0,1-.27-.557q.011-5.816,0-11.632a.609.609,0,0,1,.259-.564,7.7,7.7,0,0,0,1.533-1.527.529.529,0,0,1,.454-.271C664.862,140.786,668.772,140.784,672.785,140.784Z" transform="translate(-38.753 -113.92)" fill="#f8f4f2" fill-rule="evenodd"/>
      <path id="Path_12183" data-name="Path 12183" d="M767.193,282.787l2.642,2.233c1.276,1.079,2.548,2.163,3.831,3.234.231.193.3.3.028.539-2.085,1.777-4.157,3.569-6.234,5.355a.234.234,0,0,1-.267.084c0-.529,0-1.073,0-1.617,0-1-.338-1.339-1.335-1.34q-6.359-.006-12.718,0c-.677,0-.677,0-.677-.687v-3.929c0-.67,0-.671.7-.671h12.563c1.178,0,1.47-.29,1.471-1.456C767.194,284,767.193,283.465,767.193,282.787Z" transform="translate(-119.574 -236.335)" fill="#fe7b7b" fill-rule="evenodd"/>
      <path id="Path_12184" data-name="Path 12184" d="M701.91,44.926c-2.26-1.912-4.412-3.739-6.573-5.556-.27-.227-.045-.306.083-.417q2.095-1.808,4.194-3.611l2.3-1.976c0,.619,0,1.106,0,1.593,0,1.179.316,1.49,1.51,1.49,4.225,0,8.45.006,12.674-.009.428,0,.594.066.581.551-.039,1.413-.03,2.828,0,4.241.008.41-.107.514-.514.512-4.259-.015-8.518-.01-12.778-.009-1.163,0-1.469.307-1.47,1.471C701.91,43.74,701.91,44.272,701.91,44.926Z" transform="translate(-70.22 -21.329)" fill="#fec035" fill-rule="evenodd"/>
      <path id="Path_12185" data-name="Path 12185" d="M952.23,94.889c.027.753-.327,1.216-.962,1.26s-1.023-.394-1.068-1.16a1.037,1.037,0,0,1,2.029-.1Z" transform="translate(-290.029 -73.693)" fill="#010100" fill-rule="evenodd"/>
      <path id="Path_12186" data-name="Path 12186" d="M786.123,164.633c0-1.061-.008-2.109.006-3.157,0-.293-.222-.321-.39-.407a2.615,2.615,0,0,1-1.6-1.827,2.692,2.692,0,0,1,1.61-3.023.494.494,0,0,0,.385-.549.769.769,0,1,1,1.53-.03c-.005.336.128.442.418.508a2.683,2.683,0,0,1,.964.48.682.682,0,0,1,.268.94.78.78,0,0,1-1,.387c-.189-.074-.367-.178-.633-.309,0,.832,0,1.61,0,2.388,0,.219.165.237.3.287a2.735,2.735,0,0,1,2.083,2.7,3.081,3.081,0,0,1-2.125,3.045c-.187.074-.29.151-.261.361a1.417,1.417,0,0,1,0,.31.766.766,0,0,1-.8.764.712.712,0,0,1-.728-.769c.029-.438-.154-.549-.532-.6a3.207,3.207,0,0,1-1.4-.623.769.769,0,1,1,.8-1.314A2.5,2.5,0,0,0,786.123,164.633Z" transform="translate(-146.611 -126.017)" fill-rule="evenodd"/>
      <path id="Path_12187" data-name="Path 12187" d="M897.523,178.724a3.4,3.4,0,1,1-3.373-3.4A3.41,3.41,0,0,1,897.523,178.724Z" transform="translate(-238.759 -143.698)" fill-rule="evenodd"/>
      <path id="Path_12188" data-name="Path 12188" d="M674.853,175.327a3.405,3.405,0,1,1-3.4,3.376A3.421,3.421,0,0,1,674.853,175.327Z" transform="translate(-49.743 -143.702)" fill-rule="evenodd"/>
      <path id="Path_12189" data-name="Path 12189" d="M811.918,206.081a1.221,1.221,0,0,1,.812,1.151,1.663,1.663,0,0,1-.812,1.448Z" transform="translate(-170.826 -170.213)" fill="#c9e258" fill-rule="evenodd"/>
      <path id="Path_12190" data-name="Path 12190" d="M797.335,178.16c-.592-.356-.608-.946,0-1.607Z" transform="translate(-157.867 -144.759)" fill="#c1d854" fill-rule="evenodd"/>
      <path id="Path_12191" data-name="Path 12191" d="M908.408,191.7a1.34,1.34,0,0,1-1.315,1.315,1.333,1.333,0,0,1-.014-2.667A1.336,1.336,0,0,1,908.408,191.7Z" transform="translate(-251.715 -156.648)" fill="#cae358" fill-rule="evenodd"/>
      <path id="Path_12192" data-name="Path 12192" d="M686.469,191.658a1.335,1.335,0,0,1,1.312-1.317,1.333,1.333,0,0,1,.019,2.667A1.336,1.336,0,0,1,686.469,191.658Z" transform="translate(-62.685 -156.644)" fill="#cae358" fill-rule="evenodd"/>
    </g>
    <g id="Group_3665" data-name="Group 3665">
      <g transform="matrix(1, 0, 0, 1, 740, 139.18)" filter="url(#Path_12176)">
        <path id="Path_12176-2" data-name="Path 12176" d="M75,20H317a5,5,0,0,1,5,5l20,88c0,2.761-22.239-26-25-26H75a5,5,0,0,1-5-5V25A5,5,0,0,1,75,20Z" transform="matrix(-1, 0, 0, 1, 833, 109.13)" fill="#fff"/>
      </g>
      <path id="Path_12717" data-name="Path 12717" d="M11.34-14.14v2.72H7.5V0H4.06V-11.42H.26v-2.72Zm5.68,2.84a4.04,4.04,0,0,1,2.2.58,3.487,3.487,0,0,1,1.36,1.58v-2.02h3.4V0h-3.4V-2.02A3.487,3.487,0,0,1,19.22-.44a4.04,4.04,0,0,1-2.2.58,4.52,4.52,0,0,1-2.47-.69,4.721,4.721,0,0,1-1.72-1.99,6.9,6.9,0,0,1-.63-3.04,6.881,6.881,0,0,1,.63-3.05,4.732,4.732,0,0,1,1.72-1.98A4.52,4.52,0,0,1,17.02-11.3Zm1.1,3a2.3,2.3,0,0,0-1.77.72,2.823,2.823,0,0,0-.67,2,2.823,2.823,0,0,0,.67,2,2.3,2.3,0,0,0,1.77.72,2.312,2.312,0,0,0,1.77-.74,2.787,2.787,0,0,0,.69-1.98,2.779,2.779,0,0,0-.69-1.99A2.328,2.328,0,0,0,18.12-8.3ZM33.32,0,31.04-3.18,29.18,0H25.42l3.7-5.82-3.84-5.34h3.84l2.26,3.14,1.86-3.14H37L33.22-5.48,37.16,0ZM48.9-14.28a6.917,6.917,0,0,1,4.47,1.42,6.5,6.5,0,0,1,2.29,3.84H52.04a3.321,3.321,0,0,0-1.23-1.54,3.438,3.438,0,0,0-1.97-.56,3,3,0,0,0-2.42,1.1,4.435,4.435,0,0,0-.92,2.94,4.395,4.395,0,0,0,.92,2.93,3.012,3.012,0,0,0,2.42,1.09,3.438,3.438,0,0,0,1.97-.56,3.336,3.336,0,0,0,1.23-1.52h3.62a6.533,6.533,0,0,1-2.29,3.83A6.884,6.884,0,0,1,48.9.12a7.053,7.053,0,0,1-3.62-.91,6.177,6.177,0,0,1-2.41-2.55,8.009,8.009,0,0,1-.85-3.74,8.009,8.009,0,0,1,.85-3.74,6.177,6.177,0,0,1,2.41-2.55A7.053,7.053,0,0,1,48.9-14.28Zm15.76,3A3.863,3.863,0,0,1,67.71-10a5.134,5.134,0,0,1,1.13,3.52V0H65.42V-6.08a2.46,2.46,0,0,0-.59-1.75,2.049,2.049,0,0,0-1.57-.63,2.137,2.137,0,0,0-1.65.66A2.67,2.67,0,0,0,61-5.92V0H57.58V-14.8H61v5.68a3.681,3.681,0,0,1,1.43-1.58A4.2,4.2,0,0,1,64.66-11.28ZM81.7-5.88a4.718,4.718,0,0,1-.1.92H73.86a2.587,2.587,0,0,0,.64,1.81,2.064,2.064,0,0,0,1.48.55,2.023,2.023,0,0,0,1.26-.38,1.774,1.774,0,0,0,.66-.98h3.62a4.73,4.73,0,0,1-.96,2.11A5.117,5.117,0,0,1,78.68-.39a5.953,5.953,0,0,1-2.54.53,6,6,0,0,1-2.91-.69,4.93,4.93,0,0,1-1.99-1.99,6.174,6.174,0,0,1-.72-3.04,6.23,6.23,0,0,1,.71-3.05,4.866,4.866,0,0,1,1.99-1.98,6.056,6.056,0,0,1,2.92-.69,6.054,6.054,0,0,1,2.92.68,4.8,4.8,0,0,1,1.95,1.91A5.686,5.686,0,0,1,81.7-5.88ZM78.24-6.4a2.056,2.056,0,0,0-.59-1.65,2.172,2.172,0,0,0-1.51-.55,2.24,2.24,0,0,0-1.56.56,2.344,2.344,0,0,0-.7,1.64Zm10.28-4.9a5.543,5.543,0,0,1,3.62,1.19,5.277,5.277,0,0,1,1.84,3.27H90.36a1.91,1.91,0,0,0-.66-1.12,1.953,1.953,0,0,0-1.26-.4,1.828,1.828,0,0,0-1.48.71,3.2,3.2,0,0,0-.58,2.07,3.2,3.2,0,0,0,.58,2.07,1.828,1.828,0,0,0,1.48.71,1.953,1.953,0,0,0,1.26-.4,1.91,1.91,0,0,0,.66-1.12h3.62a5.277,5.277,0,0,1-1.84,3.27A5.543,5.543,0,0,1,88.52.14a6,6,0,0,1-2.91-.69,4.93,4.93,0,0,1-1.99-1.99,6.174,6.174,0,0,1-.72-3.04,6.23,6.23,0,0,1,.71-3.05,4.866,4.866,0,0,1,1.99-1.98A6.056,6.056,0,0,1,88.52-11.3Zm14,11.3L99.18-4.74V0H95.76V-14.8h3.42v8.12l3.34-4.48h4.02l-4.5,5.58L106.64,0Zm8.78-14.8V0h-3.42V-14.8Zm2.04.5a1.669,1.669,0,0,1,.56-1.29,2.113,2.113,0,0,1,1.48-.51,2.113,2.113,0,0,1,1.48.51,1.669,1.669,0,0,1,.56,1.29,1.647,1.647,0,0,1-.56,1.27,2.113,2.113,0,0,1-1.48.51,2.113,2.113,0,0,1-1.48-.51A1.647,1.647,0,0,1,113.34-14.3Zm3.74,3.14V0h-3.42V-11.16Zm6.42-.14a5.12,5.12,0,0,1,3.39,1.06,4.606,4.606,0,0,1,1.59,2.8h-3.2a1.773,1.773,0,0,0-.63-1.07,1.913,1.913,0,0,0-1.23-.39,1.345,1.345,0,0,0-.88.25.872.872,0,0,0-.3.71.833.833,0,0,0,.55.78,8.77,8.77,0,0,0,1.73.52,17.18,17.18,0,0,1,2.1.61,3.464,3.464,0,0,1,1.42,1.01,2.791,2.791,0,0,1,.6,1.88,2.883,2.883,0,0,1-.52,1.7,3.424,3.424,0,0,1-1.5,1.16,5.861,5.861,0,0,1-2.32.42,5.974,5.974,0,0,1-3.62-1,4.219,4.219,0,0,1-1.66-2.86h3.3a1.485,1.485,0,0,0,.61,1.1,2.3,2.3,0,0,0,1.37.38,1.275,1.275,0,0,0,.88-.27.91.91,0,0,0,.3-.71.854.854,0,0,0-.55-.83,10.112,10.112,0,0,0-1.79-.53,14.313,14.313,0,0,1-2.04-.56,3.368,3.368,0,0,1-1.38-.97,2.7,2.7,0,0,1-.58-1.83,2.986,2.986,0,0,1,1.14-2.43A4.968,4.968,0,0,1,123.5-11.3Zm13.36,8.36V0h-1.54a4.431,4.431,0,0,1-3.05-.97,4.112,4.112,0,0,1-1.09-3.21v-4.1h-1.5v-2.88h1.5V-13.9h3.42v2.74h2.24v2.88H134.6v4.16a1.254,1.254,0,0,0,.27.92,1.291,1.291,0,0,0,.91.26Z" transform="translate(1279 308)" fill="#181c3a"/>
      <g id="Group_3627" data-name="Group 3627" transform="translate(734.575 349.009)">
        <path id="Path_12193" data-name="Path 12193" d="M703-31.865V-69.687a2.658,2.658,0,0,1,2.322-2.322H734.1a2.783,2.783,0,0,1,2.526,3.036q0,5.619,0,11.238a1.2,1.2,0,0,0,.033.446c.186-.034.263-.177.365-.279,1.068-1.062,2.129-2.133,3.2-3.193a3.069,3.069,0,0,1,5.057.946,3.1,3.1,0,0,1-.276,3.047,5.626,5.626,0,0,1-.7.815q-3.608,3.6-7.22,7.207a1.464,1.464,0,0,0-.464,1.135q.018,7.568.008,15.136a2.97,2.97,0,0,1-1.344,2.567,2.542,2.542,0,0,1-1.533.408q-7.589,0-15.177,0c-4.271,0-8.542-.011-12.814.008a2.8,2.8,0,0,1-2.454-1.355A2.87,2.87,0,0,1,703-31.865Z" fill-rule="evenodd"/>
        <path id="Path_12194" data-name="Path 12194" d="M772.216,21.225c-.138-.628-.383-.827-1.034-.828-2.626,0-5.252-.007-7.877.008-.332,0-.4-.092-.4-.407q.013-15.858,0-31.717c0-.316.067-.412.4-.407,1.326.021,2.653.014,3.98,0,.243,0,.346.03.368.322a2.526,2.526,0,0,0,2.438,2.325q4.6.037,9.2,0a2.531,2.531,0,0,0,2.438-2.328c.02-.245.069-.323.327-.321q2.052.021,4.1,0c.269,0,.311.081.311.325q-.011,7.256,0,14.511a.582.582,0,0,1-.224.5,4.77,4.77,0,0,0-1.345,1.947c-.626,1.485-1.3,2.951-1.957,4.42a.9.9,0,0,0,.088,1.11.883.883,0,0,0,1.106.1c.758-.352,1.526-.68,2.327-1.034v.874c0,3.137,0,6.274.007,9.411,0,.285-.06.365-.357.364-2.64-.013-5.279-.008-7.919-.007-.651,0-.9.2-1.033.828a3.03,3.03,0,0,1-1.551.086c-.18-.062-.21-.238-.283-.379a.707.707,0,0,0-1.278-.01c-.074.141-.1.318-.281.386A2.984,2.984,0,0,1,772.216,21.225Z" transform="translate(-54.938 -54.916)" fill="#fefefe" fill-rule="evenodd"/>
        <path id="Path_12195" data-name="Path 12195" d="M735.616-15.449h1.635c.119.067.141.2.2.306a.691.691,0,0,0,.665.406.69.69,0,0,0,.624-.406c.055-.108.078-.238.2-.306h1.634a.875.875,0,0,0,1.032.83q4.437,0,8.873,0c.766,0,1.054-.286,1.054-1.047,0-3.856,0-7.712-.008-11.568a.526.526,0,0,1,.395-.606c.423-.148.824-.361,1.272-.563v.446q0,6.78,0,13.559c0,1.016-.419,1.439-1.426,1.439H724.437c-1.016,0-1.44-.419-1.44-1.425q0-18.141,0-36.281c0-1.018.417-1.441,1.423-1.442,2.073,0,4.146.008,6.22-.009.336,0,.432.1.4.414-.044.407.172.954-.089,1.187-.227.2-.761.064-1.16.065-1.368,0-2.737,0-4.1,0-.741,0-1.027.287-1.027,1.031q0,16.876,0,33.752c0,.761.288,1.047,1.054,1.047q4.437,0,8.873,0A.875.875,0,0,0,735.616-15.449Z" transform="translate(-18.338 -18.242)" fill="#79b1fe" fill-rule="evenodd"/>
        <path id="Path_12196" data-name="Path 12196" d="M845.2-47.767q-2.113,0-4.226,0c-.847,0-1.164-.322-1.165-1.181,0-.939.009-1.878-.007-2.817,0-.254.06-.321.318-.32q5.1.014,10.192,0c.229,0,.3.055.3.294-.013,1.008,0,2.016-.008,3.024a.923.923,0,0,1-1.014,1C848.128-47.763,846.664-47.767,845.2-47.767Z" transform="translate(-125.454 -18.27)" fill="#bcd8fe" fill-rule="evenodd"/>
        <path id="Path_12197" data-name="Path 12197" d="M996.337-35.305v-.529q0-6.736,0-13.473c0-.829-.266-1.1-1.084-1.1-1.644,0-3.289-.007-4.933.006-.286,0-.392-.065-.367-.362a6.335,6.335,0,0,0,0-.994c-.021-.272.089-.315.331-.314,2.156.008,4.311,0,6.467.007a1.155,1.155,0,0,1,1.243,1.244q.006,6.8,0,13.6c0,.121.023.245-.083.349C997.406-36.374,996.9-35.87,996.337-35.305Z" transform="translate(-263.146 -18.285)" fill="#79b1fe" fill-rule="evenodd"/>
        <path id="Path_12198" data-name="Path 12198" d="M1056.632,107.121l2.632-2.63c1.513-1.513,3.035-3.018,4.532-4.547.277-.283.422-.249.665.014.449.486.926.948,1.4,1.407.155.148.156.233,0,.386q-3.551,3.537-7.089,7.087c-.145.145-.233.18-.4.015C1057.814,108.271,1057.227,107.706,1056.632,107.121Z" transform="translate(-324.297 -157.507)" fill="#fec05a" fill-rule="evenodd"/>
        <path id="Path_12199" data-name="Path 12199" d="M1164.458,75.024a1.824,1.824,0,0,1-.8,1.478c-.111.1-.173-.024-.233-.084q-.809-.8-1.611-1.607c-.064-.064-.146-.11-.079-.237a1.734,1.734,0,0,1,1.55-.779,1.335,1.335,0,0,1,1.133,1A1.793,1.793,0,0,1,1164.458,75.024Z" transform="translate(-420.657 -133.703)" fill="#fe6876" fill-rule="evenodd"/>
        <path id="Path_12200" data-name="Path 12200" d="M1032.361,209.3c.371-.832.7-1.56,1.019-2.291.067-.152.128-.2.262-.064.4.4.808.789,1.256,1.225Z" transform="translate(-302.04 -255.742)" fill="#97a0b2" fill-rule="evenodd"/>
        <path id="Path_12201" data-name="Path 12201" d="M797.942,51.469c0,.829,0,1.657,0,2.486,0,.658-.31.976-.954.977q-2.527.006-5.055,0a.848.848,0,0,1-.956-.975q0-2.507,0-5.013c0-.675.309-.976,1-.977q2.486,0,4.972,0c.705,0,1,.3,1,1.016C797.944,49.811,797.942,50.64,797.942,51.469Z" transform="translate(-80.676 -110.022)" fill-rule="evenodd"/>
        <path id="Path_12202" data-name="Path 12202" d="M794.435,164.916c-.829,0-1.657,0-2.486,0-.659,0-.975-.309-.976-.955q-.006-2.527,0-5.055c0-.647.316-.955.975-.956q2.507,0,5.013,0c.675,0,.976.309.977,1q0,2.486,0,4.972c0,.7-.3,1-1.017,1C796.092,164.918,795.264,164.916,794.435,164.916Z" transform="translate(-80.673 -210.881)" fill-rule="evenodd"/>
        <path id="Path_12203" data-name="Path 12203" d="M797.936,271.438c0,.829,0,1.657,0,2.486a.849.849,0,0,1-.961.97q-2.527.005-5.055,0a.84.84,0,0,1-.949-.94q-.007-2.548,0-5.1a.83.83,0,0,1,.918-.927q2.548-.008,5.1,0a.841.841,0,0,1,.949.939C797.94,269.725,797.936,270.582,797.936,271.438Z" transform="translate(-80.67 -311.737)" fill-rule="evenodd"/>
        <path id="Path_12204" data-name="Path 12204" d="M923.319,282.8a.789.789,0,0,1-.712-.45.775.775,0,0,1,.116-.922q.536-.576,1.11-1.115c.173-.163.17-.263,0-.423-.354-.329-.693-.674-1.027-1.022a.83.83,0,1,1,1.163-1.178,13.013,13.013,0,0,1,.962.97c.229.267.369.208.573-.017.3-.328.616-.633.935-.939a.832.832,0,1,1,1.164,1.178c-.334.349-.673.694-1.026,1.024-.162.151-.16.242,0,.393.353.33.691.675,1.026,1.024a.832.832,0,1,1-1.166,1.177c-.328-.316-.659-.631-.963-.969-.188-.209-.312-.239-.513-.012-.3.34-.642.646-.961.971A.952.952,0,0,1,923.319,282.8Z" transform="translate(-201.299 -320.427)" fill-rule="evenodd"/>
        <path id="Path_12205" data-name="Path 12205" d="M914.064,62.827a.929.929,0,0,1-.665-.3c-.564-.569-1.137-1.13-1.7-1.7a.835.835,0,1,1,1.166-1.178c.328.317.66.631.964.97.176.2.274.173.448,0,.939-.957,1.89-1.9,2.84-2.847a.843.843,0,0,1,1.08-.223.792.792,0,0,1,.2,1.271c-1.245,1.276-2.514,2.528-3.776,3.787A.831.831,0,0,1,914.064,62.827Z" transform="translate(-191.089 -118.702)" fill-rule="evenodd"/>
        <path id="Path_12206" data-name="Path 12206" d="M918.63,168.27a.986.986,0,0,1-.292.638c-1.222,1.221-2.439,2.447-3.668,3.661a.818.818,0,0,1-1.248-.01q-.877-.853-1.731-1.728a.835.835,0,1,1,1.186-1.158c.317.308.638.614.935.941.177.2.284.2.478.006.946-.969,1.911-1.919,2.867-2.878a.841.841,0,0,1,.906-.245.8.8,0,0,1,.544.624C918.619,168.173,918.624,168.229,918.63,168.27Z" transform="translate(-191.09 -219.595)" fill-rule="evenodd"/>
        <path id="Path_12207" data-name="Path 12207" d="M896.511,380.782c-.125.561-.415.84-.863.828s-.7-.281-.821-.828c.12-.544.39-.815.821-.826C896.1,379.945,896.387,380.222,896.511,380.782Z" transform="translate(-175.915 -414.473)" fill="#010101" fill-rule="evenodd"/>
        <path id="Path_12208" data-name="Path 12208" d="M810.942,69.714c0-.51.008-1.021,0-1.531,0-.193.048-.263.252-.261q1.572.014,3.145,0c.192,0,.263.048.261.252q-.014,1.573,0,3.145c0,.192-.047.263-.252.261-1.048-.009-2.1-.012-3.145,0-.241,0-.263-.1-.26-.295C810.948,70.763,810.942,70.239,810.942,69.714Z" transform="translate(-98.984 -128.324)" fill="#cae458" fill-rule="evenodd"/>
        <path id="Path_12209" data-name="Path 12209" d="M814.581,179.751c0,.51-.011,1.021.005,1.531.007.22-.063.279-.279.277q-1.552-.016-3.1,0c-.22,0-.279-.063-.276-.279q.016-1.552,0-3.1c0-.22.063-.278.279-.276q1.552.016,3.1,0c.22,0,.282.063.276.279C814.571,178.7,814.581,179.227,814.581,179.751Z" transform="translate(-98.974 -229.178)" fill="#cae458" fill-rule="evenodd"/>
        <path id="Path_12210" data-name="Path 12210" d="M812.767,287.9c.524,0,1.048.008,1.572,0,.2,0,.259.058.257.256q-.013,1.572,0,3.144c0,.2-.058.259-.256.257q-1.572-.013-3.144,0c-.2,0-.259-.058-.257-.256q.013-1.572,0-3.144c0-.2.058-.262.256-.257C811.719,287.907,812.243,287.9,812.767,287.9Z" transform="translate(-98.985 -330.049)" fill="#fe6977" fill-rule="evenodd"/>
      </g>
    </g>
    <g transform="matrix(1, 0, 0, 1, 740, 139.18)" filter="url(#Path_12211)">
      <path id="Path_12211-2" data-name="Path 12211" d="M75.157,20H324.771c2.848,0,5.157,2.573,5.157,5.747L350.558,126.9c0,3.174-22.938-29.885-25.787-29.885H75.157c-2.848,0-5.157-2.573-5.157-5.747V25.747C70,22.573,72.309,20,75.157,20Z" transform="translate(794 483.38) rotate(180)" fill="#fff"/>
    </g>
    <path id="Path_12716" data-name="Path 12716" d="M11.34-14.14v2.72H7.5V0H4.06V-11.42H.26v-2.72Zm5.68,2.84a4.04,4.04,0,0,1,2.2.58,3.487,3.487,0,0,1,1.36,1.58v-2.02h3.4V0h-3.4V-2.02A3.487,3.487,0,0,1,19.22-.44a4.04,4.04,0,0,1-2.2.58,4.52,4.52,0,0,1-2.47-.69,4.721,4.721,0,0,1-1.72-1.99,6.9,6.9,0,0,1-.63-3.04,6.881,6.881,0,0,1,.63-3.05,4.732,4.732,0,0,1,1.72-1.98A4.52,4.52,0,0,1,17.02-11.3Zm1.1,3a2.3,2.3,0,0,0-1.77.72,2.823,2.823,0,0,0-.67,2,2.823,2.823,0,0,0,.67,2,2.3,2.3,0,0,0,1.77.72,2.312,2.312,0,0,0,1.77-.74,2.787,2.787,0,0,0,.69-1.98,2.779,2.779,0,0,0-.69-1.99A2.328,2.328,0,0,0,18.12-8.3ZM33.32,0,31.04-3.18,29.18,0H25.42l3.7-5.82-3.84-5.34h3.84l2.26,3.14,1.86-3.14H37L33.22-5.48,37.16,0ZM45.86-9.06a4.853,4.853,0,0,1,1.65-1.62,4.212,4.212,0,0,1,2.19-.6v3.66h-.98a3.38,3.38,0,0,0-2.11.58,2.33,2.33,0,0,0-.75,1.96V0H42.44V-11.16h3.42ZM61.74-5.88a4.718,4.718,0,0,1-.1.92H53.9a2.587,2.587,0,0,0,.64,1.81,2.064,2.064,0,0,0,1.48.55,2.023,2.023,0,0,0,1.26-.38,1.774,1.774,0,0,0,.66-.98h3.62a4.73,4.73,0,0,1-.96,2.11A5.117,5.117,0,0,1,58.72-.39a5.953,5.953,0,0,1-2.54.53,6,6,0,0,1-2.91-.69,4.93,4.93,0,0,1-1.99-1.99,6.175,6.175,0,0,1-.72-3.04,6.23,6.23,0,0,1,.71-3.05,4.866,4.866,0,0,1,1.99-1.98,6.056,6.056,0,0,1,2.92-.69,6.054,6.054,0,0,1,2.92.68,4.8,4.8,0,0,1,1.95,1.91A5.686,5.686,0,0,1,61.74-5.88ZM58.28-6.4a2.056,2.056,0,0,0-.59-1.65,2.172,2.172,0,0,0-1.51-.55,2.24,2.24,0,0,0-1.56.56,2.344,2.344,0,0,0-.7,1.64Zm12.2-4.9a4.52,4.52,0,0,1,2.47.69,4.732,4.732,0,0,1,1.72,1.98,6.881,6.881,0,0,1,.63,3.05,6.9,6.9,0,0,1-.63,3.04A4.721,4.721,0,0,1,72.95-.55a4.52,4.52,0,0,1-2.47.69,4.04,4.04,0,0,1-2.2-.58,3.368,3.368,0,0,1-1.34-1.58V5.32H63.52V-11.16h3.42v2.02a3.368,3.368,0,0,1,1.34-1.58A4.04,4.04,0,0,1,70.48-11.3Zm-1.1,3a2.328,2.328,0,0,0-1.77.73,2.779,2.779,0,0,0-.69,1.99,2.787,2.787,0,0,0,.69,1.98,2.312,2.312,0,0,0,1.77.74,2.3,2.3,0,0,0,1.77-.72,2.823,2.823,0,0,0,.67-2,2.823,2.823,0,0,0-.67-2A2.3,2.3,0,0,0,69.38-8.3Zm12.92-3a6.276,6.276,0,0,1,2.97.69,5.059,5.059,0,0,1,2.06,1.99,5.976,5.976,0,0,1,.75,3.04,5.976,5.976,0,0,1-.75,3.04A5.059,5.059,0,0,1,85.27-.55,6.276,6.276,0,0,1,82.3.14a6.335,6.335,0,0,1-2.98-.69,5.043,5.043,0,0,1-2.07-1.99,5.976,5.976,0,0,1-.75-3.04,5.976,5.976,0,0,1,.75-3.04,5.043,5.043,0,0,1,2.07-1.99A6.335,6.335,0,0,1,82.3-11.3Zm0,2.96a2.179,2.179,0,0,0-1.65.71,2.876,2.876,0,0,0-.67,2.05,2.839,2.839,0,0,0,.67,2.04,2.194,2.194,0,0,0,1.65.7,2.162,2.162,0,0,0,1.64-.7,2.866,2.866,0,0,0,.66-2.04,2.9,2.9,0,0,0-.66-2.05A2.148,2.148,0,0,0,82.3-8.34Zm10.98-.72a4.853,4.853,0,0,1,1.65-1.62,4.212,4.212,0,0,1,2.19-.6v3.66h-.98a3.38,3.38,0,0,0-2.11.58,2.33,2.33,0,0,0-.75,1.96V0H89.86V-11.16h3.42Zm11.6,6.12V0h-1.54a4.431,4.431,0,0,1-3.05-.97A4.112,4.112,0,0,1,99.2-4.18v-4.1H97.7v-2.88h1.5V-13.9h3.42v2.74h2.24v2.88h-2.24v4.16a1.254,1.254,0,0,0,.27.92,1.291,1.291,0,0,0,.91.26Z" transform="translate(1240 574.556)" fill="#181c3a"/>
    <g id="Group_3628" data-name="Group 3628" transform="translate(848.741 525.446)">
      <path id="Path_12212" data-name="Path 12212" d="M528.269,13.8c-.075-.254-.142-.444-.186-.639a.864.864,0,0,1,.821-1.117c1.2-.027,2.392-.019,3.589,0,.494.006.726.339.874.781.327.982.338.978,1.366.978q8.585,0,17.171.011c.424,0,.647-.1.714-.524a3.946,3.946,0,0,1,.169-.523.952.952,0,0,1,1.026-.735c1.067.012,2.135,0,3.2.005.846.005,1.2.478.981,1.288-.038.14-.07.282-.119.478h4.307c.931,0,1.2.277,1.2,1.223q0,11.457-.013,22.913c0,.519.149.616.63.611,2.356-.025,4.711-.013,7.067-.011.859,0,1.148.3,1.15,1.165,0,1.012,0,2.024,0,3.037,0,.788-.316,1.136-1.106,1.083-.566-.037-.764.139-.661.682a.6.6,0,0,1,0,.11c0,.919,0,.919.888.991a.861.861,0,0,1,.871.883q.027,1.766,0,3.533a.86.86,0,0,1-.875.879,3.528,3.528,0,0,0-.386.007c-.163.031-.436-.129-.469.1-.03.211.258.192.421.246a7.062,7.062,0,0,1-1.18,13.694,9.033,9.033,0,0,1-1.319.086H524.015c-1.013,0-1.266-.254-1.266-1.27q0-24.349,0-48.7c0-1.019.251-1.271,1.264-1.271Z" transform="translate(0)" fill-rule="evenodd"/>
      <path id="Path_12213" data-name="Path 12213" d="M558.679,91.269q0-9.44-.011-18.879c0-.451.093-.646.561-.561a2.308,2.308,0,0,0,.386,0,3.508,3.508,0,0,1,1.308.047c.372.166.291.742.455,1.121a.9.9,0,0,0,.845.6c.147.005.294,0,.441,0H584.69c1.047,0,1.228-.093,1.463-1.089.131-.555.362-.766.926-.687a4.135,4.135,0,0,0,1.1,0c.5-.066.547.155.546.581-.015,4.527-.009,9.053-.009,13.58,0,2.171-.01,4.343.009,6.514,0,.407-.066.567-.524.55-1.006-.037-1.252.242-1.252,1.27,0,.975,0,1.951,0,2.926,0,.786.316,1.133,1.111,1.076.582-.042.749.161.656.69a1.3,1.3,0,0,0,0,.221c0,.826,0,.826-.841.873a.89.89,0,0,0-.923,1c-.009,1.067-.006,2.134,0,3.2,0,.787.316,1.134,1.106,1.081.57-.038.762.144.66.684a.6.6,0,0,0,0,.11c0,.916,0,.916-.891.99a.878.878,0,0,0-.871.941c-.014.7-.034,1.4.007,2.1.025.425-.111.5-.514.5q-13.359-.019-26.718-.01c-1.049,0-1.049,0-1.049-1.051Z" transform="translate(-30.63 -50.965)" fill="#e8edf1" fill-rule="evenodd"/>
      <path id="Path_12214" data-name="Path 12214" d="M534.685,59.815q0-11.622-.011-23.244c0-.466.081-.631.59-.61,1.1.046,2.208.023,3.312.008.277,0,.431.056.512.346.261.938.531,1.874.833,2.8.113.346.021.408-.3.4-.68-.016-1.362-.008-2.043,0-.827,0-1.123.3-1.123,1.136q0,7.537,0,15.073,0,12.45,0,24.9c0,1.052.243,1.295,1.3,1.295q14.935,0,29.87-.014c.545,0,.668.142.649.664-.043,1.116-.013,1.117-1.119,1.117q-15.929,0-31.857.013c-.517,0-.62-.146-.619-.634Q534.7,71.436,534.685,59.815Z" transform="translate(-10.17 -20.409)" fill="#99a2a7" fill-rule="evenodd"/>
      <path id="Path_12215" data-name="Path 12215" d="M809.317,293.376a5.3,5.3,0,1,1-5.32-5.334A5.3,5.3,0,0,1,809.317,293.376Z" transform="translate(-235.331 -235.371)" fill="#fed23a" fill-rule="evenodd"/>
      <path id="Path_12216" data-name="Path 12216" d="M586.182,31.077c-3.439,0-6.879-.007-10.318.009a.578.578,0,0,1-.674-.509c-.588-2.046-1.205-4.084-1.836-6.118-.118-.381-.045-.458.339-.458,1.242,0,1.242-.014,1.637,1.172.372,1.115.756,2.225,1.109,3.346a1.014,1.014,0,0,0,1.094.8q8.635-.011,17.27,0a1.044,1.044,0,0,0,1.124-.833c.426-1.347.9-2.68,1.33-4.026a.542.542,0,0,1,.614-.456c1.256.01,1.256-.006.9,1.181-.545,1.811-1.1,3.617-1.623,5.435-.108.377-.273.473-.647.471C593.06,31.071,589.621,31.077,586.182,31.077Z" transform="translate(-43.109 -10.211)" fill="#7d8488" fill-rule="evenodd"/>
      <path id="Path_12217" data-name="Path 12217" d="M750.529,39.512c.325-1.083.655-2.167.972-3.255.062-.213.2-.221.374-.22,1.214,0,2.427.008,3.641,0,.259,0,.379.071.343.34a1.67,1.67,0,0,0,0,.22q0,10.922.01,21.844c0,.441-.079.6-.559.582-1.217-.035-1.218-.009-1.218-1.237q0-8.467,0-16.935c0-1.021-.252-1.276-1.259-1.277q-1.076,0-2.151-.006A.687.687,0,0,1,750.529,39.512Z" transform="translate(-194.238 -20.473)" fill="#99a2a7" fill-rule="evenodd"/>
      <path id="Path_12218" data-name="Path 12218" d="M601.488,35.991h.569c5.447,0,10.893.009,16.339-.013.568,0,.579.15.417.608-.414,1.166-.4,1.172-1.634,1.172-4.876,0-9.752-.006-14.628.011-.43,0-.637-.133-.719-.535A8.586,8.586,0,0,1,601.488,35.991Z" transform="translate(-67.145 -20.425)" fill="#99a2a7" fill-rule="evenodd"/>
      <path id="Path_12219" data-name="Path 12219" d="M779.962,205.758c-1.617,0-3.234-.009-4.85.008-.345,0-.467-.069-.466-.445,0-1.329-.012-1.329,1.337-1.329,2.921,0,5.843.008,8.764-.009.4,0,.531.072.522.5-.025,1.274,0,1.274-1.284,1.274Z" transform="translate(-214.804 -163.689)" fill="#feb532" fill-rule="evenodd"/>
      <path id="Path_12220" data-name="Path 12220" d="M767.907,229.75c-1.6,0-3.2-.011-4.8.009-.359,0-.457-.091-.456-.453.005-1.322-.009-1.322,1.287-1.322,2.941,0,5.881.009,8.822-.01.411,0,.521.095.513.51-.023,1.267,0,1.267-1.289,1.267Z" transform="translate(-204.578 -184.147)" fill="#fed23a" fill-rule="evenodd"/>
      <path id="Path_12221" data-name="Path 12221" d="M779.9,253.747c-1.6,0-3.2-.011-4.8.009-.36,0-.458-.093-.456-.454,0-1.321-.01-1.321,1.289-1.321,2.94,0,5.88.009,8.819-.01.411,0,.521.1.513.511-.023,1.266,0,1.266-1.291,1.266Z" transform="translate(-214.81 -204.611)" fill="#feb532" fill-rule="evenodd"/>
      <path id="Path_12222" data-name="Path 12222" d="M772.127,276.037a8.1,8.1,0,0,0-3.387,1.632.721.721,0,0,1-.516.136c-1.73,0-3.46-.007-5.19,0-.294,0-.407-.054-.413-.384-.024-1.389-.037-1.389,1.335-1.389Z" transform="translate(-204.546 -225.134)" fill="#fed23a" fill-rule="evenodd"/>
      <path id="Path_12223" data-name="Path 12223" d="M766.313,325.77c-1.154,0-2.274,0-3.394,0-.221,0-.36-.039-.322-.3a.3.3,0,0,0,0-.055c-.065-1.418-.065-1.418,1.347-1.418.625,0,1.25.009,1.874,0,.232,0,.311.058.326.3C766.172,324.776,766.249,325.247,766.313,325.77Z" transform="translate(-204.512 -266.033)" fill="#fed23a" fill-rule="evenodd"/>
      <path id="Path_12224" data-name="Path 12224" d="M778.675,349.653c-1.331,0-2.558-.007-3.786.006-.266,0-.33-.082-.342-.342-.064-1.431-.07-1.384,1.342-1.447.9-.04,1.633.055,2.068.969A4.27,4.27,0,0,0,778.675,349.653Z" transform="translate(-214.702 -286.383)" fill="#feb532" fill-rule="evenodd"/>
      <path id="Path_12225" data-name="Path 12225" d="M777.179,300.034a8.766,8.766,0,0,0-.614,1.5c-.052.217-.179.28-.4.273-.458-.015-.917-.017-1.374,0-.243.009-.3-.079-.313-.313-.09-1.459-.1-1.458,1.363-1.458Z" transform="translate(-214.636 -245.597)" fill="#feb532" fill-rule="evenodd"/>
      <path id="Path_12226" data-name="Path 12226" d="M830.1,276.176H829.6A.405.405,0,0,1,830.1,276.176Z" transform="translate(-261.667 -225.182)" fill="#1c1706" fill-rule="evenodd"/>
      <path id="Path_12227" data-name="Path 12227" d="M636.568,121.043a3.076,3.076,0,0,1,.489-1.985c.74-1.413,1.441-2.846,2.145-4.277.191-.389.429-.693.9-.691s.7.31.894.7c.8,1.629,1.635,3.243,2.425,4.878a4.671,4.671,0,0,1,.137,2.65.746.746,0,0,1-.929.587.854.854,0,0,1-.762-.818c-.038-.3.148-.729-.091-.879s-.638-.051-.967-.052c-.7,0-1.4.016-2.1-.009-.32-.011-.423.094-.387.4a2.522,2.522,0,0,1,0,.551.879.879,0,0,1-.878.82.869.869,0,0,1-.872-.823C636.547,121.783,636.568,121.469,636.568,121.043Z" transform="translate(-97.03 -87.036)" fill-rule="evenodd"/>
      <path id="Path_12228" data-name="Path 12228" d="M699.886,120.1c-.487.779-.919,1.48-1.362,2.174-.359.563-.83.719-1.293.446-.481-.283-.562-.8-.2-1.388.51-.829,1.009-1.666,1.555-2.471a.674.674,0,0,0-.012-.88c-.518-.78-1-1.583-1.495-2.379-.4-.649-.359-1.136.124-1.446s.964-.14,1.363.492c.428.678.851,1.359,1.321,2.11.476-.761.907-1.457,1.345-2.148.375-.593.857-.756,1.33-.459s.537.8.167,1.4c-.511.828-1.012,1.664-1.554,2.471a.634.634,0,0,0,.009.831c.53.794,1.022,1.613,1.525,2.425.389.629.328,1.146-.162,1.44s-.945.118-1.326-.484C700.79,121.558,700.366,120.873,699.886,120.1Z" transform="translate(-148.426 -86.966)" fill-rule="evenodd"/>
      <path id="Path_12229" data-name="Path 12229" d="M625.665,210.363a.869.869,0,0,1-.784-1.246,1.961,1.961,0,0,1,.326-.438q4.654-5.085,9.313-10.164a2.108,2.108,0,0,1,.4-.375.873.873,0,0,1,1.231,1.156,2.137,2.137,0,0,1-.3.388q-4.655,5.083-9.312,10.164A1.179,1.179,0,0,1,625.665,210.363Z" transform="translate(-87.017 -158.58)" fill-rule="evenodd"/>
      <path id="Path_12230" data-name="Path 12230" d="M587.178,119.029c0,.9,0,1.8,0,2.7,0,.736-.329,1.147-.9,1.138s-.869-.413-.869-1.164c0-1.819-.011-3.639.008-5.458,0-.361-.091-.476-.452-.45a11.162,11.162,0,0,1-1.323,0,.871.871,0,0,1-.881-.872.852.852,0,0,1,.869-.881q2.674-.023,5.347,0a.851.851,0,0,1,.845.849.868.868,0,0,1-.852.9c-.477.025-.956.024-1.433,0-.286-.013-.375.071-.369.364C587.189,117.118,587.178,118.073,587.178,119.029Z" transform="translate(-51.178 -86.988)" fill-rule="evenodd"/>
      <path id="Path_12231" data-name="Path 12231" d="M621.428,203.364a2.648,2.648,0,1,1,2.624-2.643A2.66,2.66,0,0,1,621.428,203.364Z" transform="translate(-81.871 -158.647)" fill-rule="evenodd"/>
      <path id="Path_12232" data-name="Path 12232" d="M669.435,246.053a2.648,2.648,0,1,1-2.683,2.64A2.658,2.658,0,0,1,669.435,246.053Z" transform="translate(-122.798 -199.565)" fill-rule="evenodd"/>
      <path id="Path_12233" data-name="Path 12233" d="M823.959,304.461c-1.512-.835-1.689-1.984-.537-3.171a.559.559,0,0,0,.145-.389.879.879,0,0,1,1.707-.244c.051.122.036.264.237.318a.825.825,0,0,1,.672,1.032.889.889,0,0,1-1.03.709,2.908,2.908,0,0,0-.3.025,1.951,1.951,0,0,1,1.136.892,1.668,1.668,0,0,1,.112,1.433,1.412,1.412,0,0,1-.229.434,2.048,2.048,0,0,0-.642,1.085.709.709,0,0,1-.748.537.849.849,0,0,1-.836-.516c-.073-.145-.045-.333-.3-.4a.811.811,0,0,1-.645-1,.878.878,0,0,1,1.013-.727C823.77,304.48,823.825,304.471,823.959,304.461Z" transform="translate(-255.759 -245.626)" fill-rule="evenodd"/>
      <path id="Path_12234" data-name="Path 12234" d="M654.943,135.934h-2.427l1.207-2.429Z" transform="translate(-110.659 -103.591)" fill="#e7ecf0" fill-rule="evenodd"/>
      <path id="Path_12235" data-name="Path 12235" d="M632.508,210.943a.882.882,0,1,1-.858-.891A.887.887,0,0,1,632.508,210.943Z" transform="translate(-92.093 -168.865)" fill="#e6ebef" fill-rule="evenodd"/>
      <path id="Path_12236" data-name="Path 12236" d="M680.5,258.943a.882.882,0,1,1-.849-.9A.89.89,0,0,1,680.5,258.943Z" transform="translate(-133.016 -209.789)" fill="#e6ebef" fill-rule="evenodd"/>
    </g>
  </g>
</svg>
