<svg xmlns="http://www.w3.org/2000/svg" width="28.484" height="29.78" viewBox="0 0 28.484 29.78">
  <g id="Rate_Chart_4x" data-name="Rate Chart@4x" transform="translate(-0.154 560.71)">
    <path id="Path_22" data-name="Path 22" d="M166.951-560.694a15.134,15.134,0,0,0-3.254.681,8.648,8.648,0,0,0-1.648.707c-.25.223-.314.074,3.536,8.23.744,1.579,1.526,3.243,1.739,3.7.436.92.452.952.622,1.016.08.027,2.3-.266,6.885-.914,6.752-.952,6.768-.952,6.9-1.1.112-.128.122-.175.09-.452a13.984,13.984,0,0,0-1.872-5.237,13.882,13.882,0,0,0-9.884-6.534A25.9,25.9,0,0,0,166.951-560.694Zm2.525.925a13.049,13.049,0,0,1,6.37,2.515,1.9,1.9,0,0,1,.356.314c0,.048-7.906,9.262-7.965,9.278-.021.01-.585-1.143-1.249-2.557-2.568-5.444-3.924-8.353-3.95-8.464s.027-.133.627-.356a14.275,14.275,0,0,1,3.233-.744A24.565,24.565,0,0,1,169.476-559.768Zm8,3.972a15.087,15.087,0,0,1,1.691,2.2,15.615,15.615,0,0,1,1.2,2.584,12.55,12.55,0,0,1,.5,1.957c-.016.016-11.6,1.664-11.612,1.654-.027-.016,7.651-8.911,7.688-8.911A4.92,4.92,0,0,1,177.478-555.8Z" transform="translate(-153.194)"/>
    <path id="Path_23" data-name="Path 23" d="M7.547-500.681a13.935,13.935,0,0,0-6.683,7.9,13.281,13.281,0,0,0-.7,4.02,13.8,13.8,0,0,0,2.313,8.183,13.835,13.835,0,0,0,9.794,6.093,15.257,15.257,0,0,0,4.519-.17,14.06,14.06,0,0,0,5.572-2.531,17.708,17.708,0,0,0,2.4-2.334,14.087,14.087,0,0,0,2.956-6.747,19.263,19.263,0,0,0,.085-3.387c-.074-.8-.138-.936-.468-.962-.112-.011-3.1.393-6.63.893s-6.433.9-6.439.893c-.021-.027-2.988-6.327-4.227-8.975-.638-1.361-1.223-2.605-1.3-2.77-.138-.292-.292-.42-.5-.42A4.2,4.2,0,0,0,7.547-500.681Zm2.159,4.307c3.153,6.731,3.918,8.31,4.057,8.411s.149.1,6.55-.8c3.525-.5,6.444-.909,6.487-.909.122,0,.149.2.149,1.292a12.539,12.539,0,0,1-1.329,5.806,13.046,13.046,0,0,1-7.252,6.534,13.03,13.03,0,0,1-7.061.484,12.858,12.858,0,0,1-6.428-3.536,13.007,13.007,0,0,1-3.7-7.284,20.282,20.282,0,0,1-.032-3.722,13.62,13.62,0,0,1,2.844-6.513A16.252,16.252,0,0,1,6.276-498.8c.319-.239.845-.59,1.17-.787l.6-.351.165.356C8.3-499.378,8.972-497.938,9.706-496.374Z" transform="translate(0 -56.535)"/>
  </g>
</svg>
