<svg xmlns="http://www.w3.org/2000/svg" width="30.853" height="30.853" viewBox="0 0 30.853 30.853">
  <g id="tax_1_" data-name="tax(1)" transform="translate(0 512)">
    <path id="Path_14" data-name="Path 14" d="M0-496.573v15.427H12.076c10.431,0,12.143-.012,12.588-.09a7.514,7.514,0,0,0,6.092-6.05,9.83,9.83,0,0,0,.006-2.694,7.61,7.61,0,0,0-4.893-5.749l-.38-.139V-512H0Zm23.622-6.611v7.014l-.675.042a7.33,7.33,0,0,0-4.887,2.188,7.283,7.283,0,0,0-2.187,4.99,7.778,7.778,0,0,0,.193,2.151l.036.169H1.868v-5.863c0-3.218-.018-8.521-.042-11.781l-.036-5.918H23.622Zm1.018,9.051a5.721,5.721,0,0,1,4.2,4.176,3.946,3.946,0,0,1,.127,1.488,4.52,4.52,0,0,1-.41,2.019,5.754,5.754,0,0,1-2.676,2.85,5.169,5.169,0,0,1-2.585.591,5.683,5.683,0,0,1-5.442-4.381A6.709,6.709,0,0,1,17.891-490a5.8,5.8,0,0,1,4.736-4.242A9.2,9.2,0,0,1,24.641-494.133Zm-7.436,9.8a9.109,9.109,0,0,0,.741.9l.446.476H1.868v-1.808H16.909Z" fill="#ef7b45"/>
    <path id="Path_15" data-name="Path 15" d="M55-443.066v.934h1.808v6.388h1.868v-6.388h1.808V-444H55Z" transform="translate(-51.686 -63.902)" fill="#ef7b45"/>
    <path id="Path_16" data-name="Path 16" d="M166.916-444.022a2.61,2.61,0,0,0-1.175.741,2.492,2.492,0,0,0-.645,1.127,17.5,17.5,0,0,0-.1,3.272v2.941h1.868v-2.712h1.748v2.712h1.868v-2.911a19.153,19.153,0,0,0-.1-3.266A2.77,2.77,0,0,0,166.916-444.022Zm1.326,1.916c.277.2.374.47.374,1.055v.53h-1.748v-.53c0-.615.1-.868.422-1.085a.612.612,0,0,1,.5-.115A1,1,0,0,1,168.242-442.106Z" transform="translate(-155.057 -63.765)" fill="#ef7b45"/>
    <path id="Path_17" data-name="Path 17" d="M270.06-443.934c0,.036.416.958.928,2.049l.934,1.983-.964,2.049c-.524,1.127-.958,2.061-.958,2.079a8.707,8.707,0,0,0,1.036.018l1.03-.018.428-.922a9.107,9.107,0,0,1,.464-.916,9.081,9.081,0,0,1,.476.934l.44.934h1.018a4.8,4.8,0,0,0,1.012-.054c0-.03-.392-.886-.874-1.9s-.9-1.94-.94-2.043c-.066-.187-.024-.3.85-2.151.5-1.073.928-1.989.946-2.031s-.2-.072-1.006-.072h-1.03l-.428.9a7.169,7.169,0,0,1-.47.9,8.857,8.857,0,0,1-.452-.9l-.416-.9h-1.012C270.374-444,270.06-443.982,270.06-443.934Z" transform="translate(-253.73 -63.902)" fill="#ef7b45"/>
    <path id="Path_18" data-name="Path 18" d="M75-270.1v.9H87.775V-271H75Z" transform="translate(-70.48 -226.477)" fill="#ef7b45"/>
    <path id="Path_19" data-name="Path 19" d="M75-210.066v.934H85.485V-211H75Z" transform="translate(-70.48 -282.862)" fill="#ef7b45"/>
    <path id="Path_20" data-name="Path 20" d="M75-150.066v.934h9.642V-151H75Z" transform="translate(-70.48 -339.246)" fill="#ef7b45"/>
    <path id="Path_21" data-name="Path 21" d="M330.5-168.43c-.886.814-1.621,1.476-1.633,1.476s-.35-.368-.753-.814a7,7,0,0,0-.789-.8,13.757,13.757,0,0,0-1.32,1.223c0,.066,2.633,2.995,2.718,3.031.06.024,4.7-4.212,4.682-4.272a14.364,14.364,0,0,0-1.223-1.314C332.141-169.907,331.387-169.244,330.5-168.43Z" transform="translate(-306.355 -321.484)" fill="#ef7b45"/>
  </g>
</svg>
